<svg width="357" height="351" viewBox="0 0 357 351" fill="none" xmlns="http://www.w3.org/2000/svg">
<g opacity="0.5">
<path opacity="0.2" fill-rule="evenodd" clip-rule="evenodd" d="M113.413 111.592C119.716 122.509 133.675 126.249 144.592 119.946C155.509 113.643 159.249 99.6839 152.946 88.7669C146.644 77.8499 132.684 74.1095 121.767 80.4124C110.85 86.7153 107.11 100.675 113.413 111.592Z" fill="white"/>
<path opacity="0.4" fill-rule="evenodd" clip-rule="evenodd" d="M118.759 108.505C123.357 116.469 133.541 119.198 141.505 114.6C149.469 110.002 152.197 99.8185 147.599 91.8545C143.001 83.8905 132.818 81.1618 124.854 85.7598C116.89 90.3579 114.161 100.541 118.759 108.505Z" fill="white"/>
<path fill-rule="evenodd" clip-rule="evenodd" d="M124.756 105.035C127.443 109.688 133.393 111.283 138.046 108.596C142.699 105.91 144.293 99.9598 141.607 95.3067C138.92 90.6535 132.97 89.0592 128.317 91.7457C123.664 94.4322 122.07 100.382 124.756 105.035Z" fill="white"/>
<g opacity="0.2">
<path opacity="0.2" fill-rule="evenodd" clip-rule="evenodd" d="M223.283 16.2432C225.613 20.2793 230.774 21.6622 234.81 19.3319C238.846 17.0017 240.229 11.8406 237.899 7.80446C235.569 3.7683 230.408 2.3854 226.371 4.71569C222.335 7.04597 220.952 12.207 223.283 16.2432Z" fill="white"/>
<path opacity="0.4" fill-rule="evenodd" clip-rule="evenodd" d="M225.26 15.1024C226.96 18.0468 230.725 19.0557 233.669 17.3557C236.614 15.6558 237.622 11.8907 235.922 8.94633C234.222 6.00191 230.457 4.99308 227.513 6.69304C224.569 8.393 223.56 12.158 225.26 15.1024Z" fill="white"/>
<path fill-rule="evenodd" clip-rule="evenodd" d="M227.476 13.8195C228.469 15.5398 230.669 16.1292 232.389 15.136C234.11 14.1428 234.699 11.943 233.706 10.2226C232.713 8.5023 230.513 7.91287 228.793 8.90611C227.072 9.89934 226.483 12.0991 227.476 13.8195Z" fill="white"/>
</g>
<g opacity="0.3">
<path opacity="0.2" fill-rule="evenodd" clip-rule="evenodd" d="M148.237 46.2113C153.565 55.4406 165.367 58.6028 174.596 53.2743C183.826 47.9457 186.988 36.1443 181.659 26.915C176.331 17.6857 164.529 14.5235 155.3 19.852C146.071 25.1805 142.908 36.982 148.237 46.2113Z" fill="white"/>
<path opacity="0.4" fill-rule="evenodd" clip-rule="evenodd" d="M152.76 43.6027C156.647 50.3356 165.256 52.6424 171.989 48.7552C178.722 44.868 181.029 36.2587 177.142 29.5259C173.254 22.793 164.645 20.4862 157.912 24.3734C151.179 28.2606 148.873 36.8699 152.76 43.6027Z" fill="white"/>
<path fill-rule="evenodd" clip-rule="evenodd" d="M157.827 40.6672C160.098 44.601 165.128 45.9489 169.062 43.6777C172.996 41.4065 174.343 36.3764 172.072 32.4426C169.801 28.5088 164.771 27.1609 160.837 29.4321C156.903 31.7033 155.556 36.7334 157.827 40.6672Z" fill="white"/>
</g>
<g opacity="0.4">
<path opacity="0.2" fill-rule="evenodd" clip-rule="evenodd" d="M7.67587 125.471C13.0044 134.7 24.8059 137.863 34.0352 132.534C43.2645 127.206 46.4267 115.404 41.0981 106.175C35.7696 96.9455 23.9681 93.7833 14.7388 99.1118C5.50952 104.44 2.34733 116.242 7.67587 125.471Z" fill="white"/>
<path opacity="0.4" fill-rule="evenodd" clip-rule="evenodd" d="M12.1987 122.863C16.0859 129.595 24.6952 131.902 31.4281 128.015C38.1609 124.128 40.4677 115.519 36.5805 108.786C32.6933 102.053 24.0841 99.746 17.3512 103.633C10.6184 107.52 8.31152 116.13 12.1987 122.863Z" fill="white"/>
<path fill-rule="evenodd" clip-rule="evenodd" d="M17.2658 119.927C19.537 123.861 24.5671 125.209 28.5009 122.938C32.4347 120.666 33.7825 115.636 31.5113 111.702C29.2401 107.769 24.21 106.421 20.2762 108.692C16.3424 110.963 14.9946 115.993 17.2658 119.927Z" fill="white"/>
</g>
<g opacity="0.5">
<path opacity="0.2" fill-rule="evenodd" clip-rule="evenodd" d="M315.352 163.99C317.241 167.262 321.426 168.383 324.698 166.494C327.97 164.604 329.092 160.42 327.202 157.148C325.313 153.875 321.129 152.754 317.856 154.643C314.584 156.533 313.463 160.717 315.352 163.99Z" fill="white"/>
<path opacity="0.4" fill-rule="evenodd" clip-rule="evenodd" d="M316.957 163.065C318.335 165.452 321.387 166.27 323.775 164.892C326.162 163.514 326.98 160.461 325.602 158.074C324.223 155.687 321.171 154.869 318.784 156.247C316.396 157.625 315.578 160.678 316.957 163.065Z" fill="white"/>
<path fill-rule="evenodd" clip-rule="evenodd" d="M318.752 162.024C319.557 163.419 321.341 163.897 322.736 163.092C324.13 162.286 324.608 160.503 323.803 159.108C322.998 157.713 321.214 157.235 319.819 158.041C318.425 158.846 317.947 160.63 318.752 162.024Z" fill="white"/>
</g>
<g opacity="0.5">
<path opacity="0.2" fill-rule="evenodd" clip-rule="evenodd" d="M247.803 74.9695C249.693 78.2419 253.877 79.3631 257.149 77.4738C260.422 75.5844 261.543 71.4001 259.654 68.1277C257.764 64.8553 253.58 63.7341 250.308 65.6234C247.035 67.5127 245.914 71.6971 247.803 74.9695Z" fill="white"/>
<path opacity="0.4" fill-rule="evenodd" clip-rule="evenodd" d="M249.408 74.045C250.786 76.4323 253.839 77.2502 256.226 75.8719C258.613 74.4937 259.431 71.4411 258.053 69.0539C256.675 66.6667 253.622 65.8487 251.235 67.227C248.848 68.6053 248.03 71.6578 249.408 74.045Z" fill="white"/>
<path fill-rule="evenodd" clip-rule="evenodd" d="M251.203 73.0043C252.009 74.3991 253.792 74.8769 255.187 74.0717C256.582 73.2664 257.06 71.4829 256.254 70.0881C255.449 68.6933 253.666 68.2154 252.271 69.0207C250.876 69.826 250.398 71.6095 251.203 73.0043Z" fill="white"/>
</g>
<g opacity="0.7">
<path opacity="0.2" fill-rule="evenodd" clip-rule="evenodd" d="M300.947 83.1331C307.496 94.4771 322.002 98.3638 333.346 91.8144C344.69 85.2649 348.577 70.7594 342.027 59.4154C335.478 48.0714 320.972 44.1847 309.628 50.7341C298.284 57.2836 294.397 71.7891 300.947 83.1331Z" fill="white"/>
<path opacity="0.4" fill-rule="evenodd" clip-rule="evenodd" d="M306.507 79.9291C311.285 88.2047 321.867 91.0401 330.143 86.2622C338.418 81.4843 341.254 70.9024 336.476 62.6269C331.698 54.3513 321.116 51.5159 312.84 56.2938C304.565 61.0717 301.729 71.6536 306.507 79.9291Z" fill="white"/>
<path fill-rule="evenodd" clip-rule="evenodd" d="M312.735 76.3185C315.527 81.1536 321.709 82.8103 326.544 80.0187C331.38 77.2271 333.036 71.0445 330.245 66.2093C327.453 61.3742 321.27 59.7175 316.435 62.5091C311.6 65.3007 309.943 71.4833 312.735 76.3185Z" fill="white"/>
</g>
<g opacity="0.7">
<path opacity="0.2" fill-rule="evenodd" clip-rule="evenodd" d="M253.856 318.563C257.352 324.618 265.094 326.692 271.149 323.197C277.203 319.701 279.278 311.959 275.782 305.904C272.286 299.85 264.544 297.775 258.49 301.271C252.435 304.766 250.361 312.509 253.856 318.563Z" fill="white"/>
<path opacity="0.4" fill-rule="evenodd" clip-rule="evenodd" d="M256.824 316.853C259.374 321.27 265.022 322.783 269.439 320.233C273.856 317.683 275.37 312.035 272.819 307.618C270.269 303.201 264.621 301.688 260.204 304.238C255.788 306.788 254.274 312.436 256.824 316.853Z" fill="white"/>
<path fill-rule="evenodd" clip-rule="evenodd" d="M260.149 314.926C261.639 317.507 264.938 318.391 267.519 316.901C270.1 315.411 270.984 312.111 269.494 309.53C268.004 306.95 264.704 306.065 262.124 307.555C259.543 309.045 258.659 312.345 260.149 314.926Z" fill="white"/>
</g>
<g opacity="0.7">
<path opacity="0.2" fill-rule="evenodd" clip-rule="evenodd" d="M88.6569 280.72C90.282 283.535 93.8812 284.499 96.6959 282.874C99.5106 281.249 100.475 277.65 98.8499 274.835C97.2249 272.021 93.6257 271.056 90.811 272.681C87.9962 274.306 87.0318 277.906 88.6569 280.72Z" fill="white"/>
<path opacity="0.4" fill-rule="evenodd" clip-rule="evenodd" d="M90.0361 279.925C91.2216 281.978 93.8472 282.682 95.9006 281.496C97.954 280.311 98.6575 277.685 97.472 275.632C96.2865 273.578 93.6609 272.875 91.6075 274.06C89.5541 275.246 88.8506 277.872 90.0361 279.925Z" fill="white"/>
<path fill-rule="evenodd" clip-rule="evenodd" d="M91.5817 279.029C92.2744 280.229 93.8085 280.64 95.0082 279.947C96.2079 279.254 96.6189 277.72 95.9263 276.521C95.2336 275.321 93.6996 274.91 92.4998 275.603C91.3001 276.295 90.8891 277.829 91.5817 279.029Z" fill="white"/>
</g>
<g opacity="0.9">
<path opacity="0.2" fill-rule="evenodd" clip-rule="evenodd" d="M85.034 340.366C88.5296 346.421 96.2717 348.495 102.326 345C108.381 341.504 110.455 333.762 106.96 327.707C103.464 321.653 95.7221 319.578 89.6675 323.074C83.6128 326.569 81.5383 334.311 85.034 340.366Z" fill="white"/>
<path opacity="0.4" fill-rule="evenodd" clip-rule="evenodd" d="M88.0021 338.656C90.5522 343.073 96.2001 344.586 100.617 342.036C105.034 339.486 106.547 333.838 103.997 329.421C101.447 325.004 95.7991 323.491 91.3822 326.041C86.9653 328.591 85.452 334.239 88.0021 338.656Z" fill="white"/>
<path fill-rule="evenodd" clip-rule="evenodd" d="M91.3264 336.729C92.8163 339.309 96.1162 340.194 98.6969 338.704C101.278 337.214 102.162 333.914 100.672 331.333C99.1818 328.753 95.882 327.868 93.3013 329.358C90.7206 330.848 89.8364 334.148 91.3264 336.729Z" fill="white"/>
</g>
<path opacity="0.2" fill-rule="evenodd" clip-rule="evenodd" d="M217.197 87.119C220.801 93.3611 228.783 95.4998 235.025 91.8959C241.267 88.292 243.406 80.3103 239.802 74.0681C236.198 67.826 228.216 65.6873 221.974 69.2912C215.732 72.8951 213.593 80.8769 217.197 87.119Z" fill="white"/>
<path opacity="0.4" fill-rule="evenodd" clip-rule="evenodd" d="M220.249 85.3536C222.878 89.9073 228.701 91.4675 233.254 88.8384C237.808 86.2093 239.368 80.3866 236.739 75.8329C234.11 71.2792 228.287 69.719 223.734 72.3481C219.18 74.9772 217.62 80.7999 220.249 85.3536Z" fill="white"/>
<path fill-rule="evenodd" clip-rule="evenodd" d="M223.68 83.3775C225.216 86.0381 228.618 86.9497 231.279 85.4136C233.94 83.8775 234.851 80.4755 233.315 77.8149C231.779 75.1543 228.377 74.2427 225.716 75.7788C223.056 77.3149 222.144 80.717 223.68 83.3775Z" fill="white"/>
<path opacity="0.2" fill-rule="evenodd" clip-rule="evenodd" d="M198.488 272.626C202.092 278.868 210.074 281.007 216.316 277.403C222.558 273.799 224.697 265.817 221.093 259.575C217.489 253.333 209.508 251.194 203.265 254.798C197.023 258.402 194.885 266.384 198.488 272.626Z" fill="white"/>
<path opacity="0.4" fill-rule="evenodd" clip-rule="evenodd" d="M201.54 270.861C204.169 275.414 209.992 276.975 214.546 274.346C219.1 271.716 220.66 265.894 218.031 261.34C215.402 256.786 209.579 255.226 205.025 257.855C200.472 260.484 198.911 266.307 201.54 270.861Z" fill="white"/>
<path fill-rule="evenodd" clip-rule="evenodd" d="M204.972 268.885C206.508 271.545 209.91 272.457 212.57 270.921C215.231 269.385 216.143 265.983 214.607 263.322C213.07 260.661 209.668 259.75 207.008 261.286C204.347 262.822 203.436 266.224 204.972 268.885Z" fill="white"/>
<path opacity="0.2" fill-rule="evenodd" clip-rule="evenodd" d="M251.72 144.738C253.847 148.423 258.559 149.685 262.244 147.558C265.929 145.43 267.192 140.718 265.064 137.033C262.936 133.348 258.225 132.086 254.54 134.213C250.855 136.341 249.592 141.053 251.72 144.738Z" fill="white"/>
<path opacity="0.4" fill-rule="evenodd" clip-rule="evenodd" d="M253.521 143.696C255.073 146.384 258.511 147.305 261.199 145.753C263.887 144.201 264.808 140.764 263.256 138.076C261.704 135.387 258.267 134.466 255.578 136.018C252.89 137.57 251.969 141.008 253.521 143.696Z" fill="white"/>
<path fill-rule="evenodd" clip-rule="evenodd" d="M255.547 142.529C256.454 144.099 258.462 144.638 260.033 143.731C261.604 142.824 262.142 140.816 261.235 139.245C260.328 137.674 258.32 137.136 256.749 138.043C255.179 138.95 254.64 140.958 255.547 142.529Z" fill="white"/>
<path opacity="0.2" fill-rule="evenodd" clip-rule="evenodd" d="M257.49 177.207C258.524 178.998 260.814 179.612 262.605 178.578C264.396 177.544 265.01 175.254 263.976 173.463C262.942 171.672 260.652 171.059 258.861 172.093C257.07 173.127 256.457 175.417 257.49 177.207Z" fill="white"/>
<path opacity="0.4" fill-rule="evenodd" clip-rule="evenodd" d="M258.365 176.701C259.12 178.008 260.79 178.455 262.097 177.701C263.403 176.947 263.851 175.276 263.096 173.97C262.342 172.663 260.672 172.216 259.365 172.97C258.059 173.724 257.611 175.395 258.365 176.701Z" fill="white"/>
<path fill-rule="evenodd" clip-rule="evenodd" d="M259.35 176.134C259.791 176.898 260.767 177.159 261.53 176.718C262.293 176.278 262.555 175.302 262.114 174.538C261.673 173.775 260.697 173.514 259.934 173.954C259.171 174.395 258.909 175.371 259.35 176.134Z" fill="white"/>
<path opacity="0.2" fill-rule="evenodd" clip-rule="evenodd" d="M52.2963 198.462C60.827 213.238 79.7204 218.3 94.496 209.77C109.272 201.239 114.334 182.346 105.803 167.57C97.2727 152.794 78.3792 147.732 63.6037 156.263C48.8281 164.793 43.7656 183.687 52.2963 198.462Z" fill="white"/>
<path opacity="0.4" fill-rule="evenodd" clip-rule="evenodd" d="M59.5353 194.274C65.7585 205.053 79.5414 208.746 90.3203 202.523C101.099 196.3 104.792 182.517 98.5691 171.738C92.3459 160.959 78.563 157.266 67.7841 163.489C57.0052 169.712 53.3121 183.495 59.5353 194.274Z" fill="white"/>
<path fill-rule="evenodd" clip-rule="evenodd" d="M67.6483 189.598C71.2843 195.896 79.3373 198.054 85.635 194.418C91.9328 190.782 94.0906 182.729 90.4546 176.431C86.8186 170.133 78.7656 167.976 72.4678 171.612C66.1701 175.248 64.0123 183.301 67.6483 189.598Z" fill="white"/>
<path opacity="0.2" fill-rule="evenodd" clip-rule="evenodd" d="M244.38 236.275C249.008 244.291 259.259 247.038 267.275 242.41C275.291 237.782 278.038 227.531 273.41 219.515C268.782 211.499 258.531 208.752 250.515 213.38C242.499 218.008 239.752 228.259 244.38 236.275Z" fill="white"/>
<path opacity="0.4" fill-rule="evenodd" clip-rule="evenodd" d="M248.304 234.011C251.68 239.859 259.158 241.862 265.006 238.486C270.854 235.11 272.858 227.632 269.481 221.784C266.105 215.936 258.627 213.932 252.779 217.309C246.931 220.685 244.928 228.163 248.304 234.011Z" fill="white"/>
<path fill-rule="evenodd" clip-rule="evenodd" d="M252.712 231.462C254.685 234.879 259.054 236.05 262.471 234.077C265.887 232.105 267.058 227.735 265.085 224.319C263.113 220.902 258.744 219.731 255.327 221.704C251.91 223.677 250.739 228.046 252.712 231.462Z" fill="white"/>
<path opacity="0.2" fill-rule="evenodd" clip-rule="evenodd" d="M138.472 278.422C141.494 283.657 148.188 285.45 153.422 282.428C158.657 279.406 160.45 272.712 157.428 267.478C154.406 262.243 147.712 260.45 142.478 263.472C137.243 266.494 135.45 273.188 138.472 278.422Z" fill="white"/>
<path opacity="0.4" fill-rule="evenodd" clip-rule="evenodd" d="M141.044 276.936C143.248 280.755 148.131 282.063 151.95 279.859C155.768 277.654 157.077 272.771 154.872 268.953C152.667 265.134 147.785 263.826 143.966 266.03C140.147 268.235 138.839 273.118 141.044 276.936Z" fill="white"/>
<path fill-rule="evenodd" clip-rule="evenodd" d="M143.914 275.273C145.202 277.504 148.055 278.268 150.286 276.98C152.517 275.692 153.281 272.839 151.993 270.608C150.705 268.377 147.852 267.613 145.621 268.901C143.39 270.189 142.625 273.042 143.914 275.273Z" fill="white"/>
</g>
</svg>
