<svg width="392" height="335" viewBox="0 0 392 335" fill="none" xmlns="http://www.w3.org/2000/svg">
<g opacity="0.5">
<path opacity="0.2" fill-rule="evenodd" clip-rule="evenodd" d="M341.837 225.22C316.424 215.845 288.222 228.846 278.846 254.259C269.471 279.673 282.472 307.875 307.885 317.25C333.299 326.626 361.501 313.624 370.876 288.211C380.252 262.798 367.25 234.596 341.837 225.22Z" fill="white"/>
<path opacity="0.4" fill-rule="evenodd" clip-rule="evenodd" d="M337.244 237.666C318.705 230.827 298.132 240.311 291.292 258.851C284.453 277.39 293.937 297.963 312.476 304.803C331.016 311.642 351.589 302.158 358.429 283.619C365.268 265.079 355.784 244.506 337.244 237.666Z" fill="white"/>
<path fill-rule="evenodd" clip-rule="evenodd" d="M332.09 251.621C321.258 247.625 309.238 253.166 305.242 263.998C301.245 274.83 306.787 286.851 317.619 290.847C328.451 294.843 340.471 289.301 344.467 278.469C348.463 267.637 342.922 255.617 332.09 251.621Z" fill="white"/>
<g opacity="0.7">
<path opacity="0.2" fill-rule="evenodd" clip-rule="evenodd" d="M298.376 135.71C289.017 131.922 278.36 136.439 274.573 145.798C270.786 155.157 275.303 165.814 284.662 169.601C294.021 173.389 304.678 168.872 308.465 159.513C312.252 150.154 307.735 139.497 298.376 135.71Z" fill="white"/>
<path opacity="0.4" fill-rule="evenodd" clip-rule="evenodd" d="M296.521 140.293C289.694 137.531 281.919 140.826 279.156 147.653C276.394 154.48 279.689 162.255 286.516 165.018C293.343 167.78 301.118 164.485 303.881 157.658C306.644 150.831 303.349 143.056 296.521 140.293Z" fill="white"/>
<path fill-rule="evenodd" clip-rule="evenodd" d="M294.44 145.432C290.451 143.818 285.909 145.743 284.294 149.732C282.68 153.721 284.605 158.264 288.594 159.878C292.583 161.492 297.126 159.567 298.74 155.578C300.354 151.589 298.429 147.047 294.44 145.432Z" fill="white"/>
</g>
<g opacity="0.5">
<path opacity="0.2" fill-rule="evenodd" clip-rule="evenodd" d="M252.59 78.0817C245.182 75.0839 236.747 78.6591 233.749 86.0671C230.751 93.4751 234.327 101.911 241.735 104.908C249.142 107.906 257.578 104.331 260.576 96.9229C263.573 89.515 259.998 81.0794 252.59 78.0817Z" fill="white"/>
<path opacity="0.4" fill-rule="evenodd" clip-rule="evenodd" d="M251.122 81.7095C245.718 79.5226 239.564 82.1307 237.377 87.5349C235.19 92.9391 237.798 99.0928 243.202 101.28C248.607 103.467 254.76 100.858 256.947 95.4543C259.134 90.0501 256.526 83.8964 251.122 81.7095Z" fill="white"/>
<path fill-rule="evenodd" clip-rule="evenodd" d="M249.474 85.7772C246.316 84.4995 242.721 86.0234 241.443 89.1809C240.165 92.3384 241.689 95.9338 244.847 97.2115C248.004 98.4893 251.6 96.9654 252.878 93.8079C254.155 90.6504 252.631 87.055 249.474 85.7772Z" fill="white"/>
</g>
<g opacity="0.4">
<path opacity="0.2" fill-rule="evenodd" clip-rule="evenodd" d="M189.721 50.9306C185.374 49.1716 183.277 44.2217 185.036 39.8748C186.795 35.528 191.745 33.4301 196.091 35.1891C200.438 36.9482 202.536 41.898 200.777 46.2449C199.018 50.5918 194.068 52.6897 189.721 50.9306Z" fill="white"/>
<path opacity="0.4" fill-rule="evenodd" clip-rule="evenodd" d="M190.582 48.8018C187.411 47.5185 185.881 43.9076 187.164 40.7365C188.447 37.5654 192.058 36.035 195.229 37.3182C198.401 38.6015 199.931 42.2124 198.648 45.3835C197.364 48.5546 193.754 50.085 190.582 48.8018Z" fill="white"/>
<path fill-rule="evenodd" clip-rule="evenodd" d="M191.547 46.414C189.695 45.6642 188.801 43.5544 189.55 41.7017C190.3 39.8489 192.41 38.9547 194.263 39.7045C196.115 40.4542 197.01 42.564 196.26 44.4168C195.51 46.2695 193.4 47.1637 191.547 46.414Z" fill="white"/>
</g>
<path opacity="0.2" fill-rule="evenodd" clip-rule="evenodd" d="M126.324 11.7704C129.028 12.8643 132.106 11.5596 133.2 8.85632C134.294 6.15299 132.989 3.0747 130.286 1.98076C127.582 0.886816 124.504 2.19148 123.41 4.8948C122.316 7.59813 123.621 10.6764 126.324 11.7704Z" fill="white"/>
<path opacity="0.4" fill-rule="evenodd" clip-rule="evenodd" d="M126.861 10.4464C128.833 11.2445 131.078 10.2927 131.876 8.32062C132.674 6.34852 131.723 4.10288 129.75 3.30484C127.778 2.5068 125.533 3.45856 124.735 5.43066C123.937 7.40276 124.888 9.6484 126.861 10.4464Z" fill="white"/>
<path fill-rule="evenodd" clip-rule="evenodd" d="M127.461 8.96206C128.614 9.42833 129.926 8.87225 130.392 7.72001C130.858 6.56778 130.302 5.25572 129.15 4.78945C127.998 4.32318 126.686 4.87926 126.219 6.0315C125.753 7.18373 126.309 8.49579 127.461 8.96206Z" fill="white"/>
<path d="M325.924 269.063C327.499 214.276 290.092 85.0794 127.862 6.58771" stroke="url(#paint0_linear)"/>
</g>
<g opacity="0.5">
<path opacity="0.2" fill-rule="evenodd" clip-rule="evenodd" d="M250.656 173.113C232.302 173.442 217.69 188.587 218.018 206.941C218.347 225.295 233.492 239.907 251.846 239.578C270.2 239.25 284.813 224.104 284.484 205.75C284.155 187.397 269.01 172.784 250.656 173.113Z" fill="white"/>
<path opacity="0.4" fill-rule="evenodd" clip-rule="evenodd" d="M250.817 182.102C237.428 182.342 226.768 193.391 227.008 206.78C227.248 220.169 238.296 230.829 251.686 230.589C265.075 230.349 275.735 219.301 275.495 205.911C275.255 192.522 264.207 181.862 250.817 182.102Z" fill="white"/>
<path fill-rule="evenodd" clip-rule="evenodd" d="M250.993 192.181C243.17 192.322 236.942 198.777 237.082 206.6C237.222 214.423 243.678 220.651 251.501 220.511C259.324 220.371 265.552 213.915 265.412 206.093C265.272 198.27 258.816 192.041 250.993 192.181Z" fill="white"/>
<g opacity="0.7">
<path opacity="0.2" fill-rule="evenodd" clip-rule="evenodd" d="M201.199 127.275C194.358 127.185 188.739 132.658 188.648 139.499C188.558 146.341 194.031 151.96 200.873 152.05C207.714 152.14 213.333 146.667 213.423 139.826C213.514 132.984 208.041 127.365 201.199 127.275Z" fill="white"/>
<path opacity="0.4" fill-rule="evenodd" clip-rule="evenodd" d="M201.155 130.626C196.164 130.56 192.065 134.553 191.999 139.544C191.933 144.534 195.926 148.634 200.917 148.699C205.908 148.765 210.007 144.773 210.073 139.782C210.139 134.791 206.146 130.692 201.155 130.626Z" fill="white"/>
<path fill-rule="evenodd" clip-rule="evenodd" d="M201.104 134.383C198.188 134.345 195.793 136.677 195.755 139.593C195.716 142.509 198.049 144.904 200.965 144.943C203.881 144.981 206.276 142.649 206.314 139.733C206.353 136.817 204.02 134.422 201.104 134.383Z" fill="white"/>
</g>
<g opacity="0.5">
<path opacity="0.2" fill-rule="evenodd" clip-rule="evenodd" d="M158.115 102.142C152.699 102.071 148.251 106.403 148.18 111.818C148.109 117.234 152.441 121.681 157.856 121.753C163.271 121.824 167.719 117.492 167.791 112.077C167.862 106.662 163.53 102.214 158.115 102.142Z" fill="white"/>
<path opacity="0.4" fill-rule="evenodd" clip-rule="evenodd" d="M158.079 104.795C154.129 104.743 150.884 107.903 150.832 111.853C150.78 115.804 153.94 119.049 157.891 119.101C161.841 119.153 165.086 115.992 165.138 112.042C165.19 108.091 162.03 104.847 158.079 104.795Z" fill="white"/>
<path fill-rule="evenodd" clip-rule="evenodd" d="M158.039 107.768C155.731 107.738 153.835 109.585 153.805 111.893C153.775 114.201 155.621 116.097 157.929 116.127C160.237 116.157 162.133 114.311 162.164 112.003C162.194 109.695 160.348 107.799 158.039 107.768Z" fill="white"/>
</g>
<g opacity="0.4">
<path opacity="0.2" fill-rule="evenodd" clip-rule="evenodd" d="M111.737 100.456C108.559 100.414 106.017 97.8045 106.059 94.6269C106.101 91.4493 108.711 88.9073 111.888 88.9492C115.066 88.9911 117.608 91.601 117.566 94.7786C117.524 97.9562 114.914 100.498 111.737 100.456Z" fill="white"/>
<path opacity="0.4" fill-rule="evenodd" clip-rule="evenodd" d="M111.757 98.9001C109.439 98.8695 107.585 96.9656 107.615 94.6475C107.646 92.3294 109.55 90.475 111.868 90.5055C114.186 90.5361 116.04 92.44 116.01 94.7581C115.979 97.0762 114.075 98.9306 111.757 98.9001Z" fill="white"/>
<path fill-rule="evenodd" clip-rule="evenodd" d="M111.779 97.1552C110.425 97.1373 109.341 96.0249 109.359 94.6705C109.377 93.3161 110.49 92.2327 111.844 92.2505C113.198 92.2684 114.282 93.3808 114.264 94.7352C114.246 96.0896 113.134 97.173 111.779 97.1552Z" fill="white"/>
</g>
<path opacity="0.2" fill-rule="evenodd" clip-rule="evenodd" d="M62.0715 91.317C64.0476 91.3431 65.6707 89.7622 65.6968 87.7861C65.7228 85.8099 64.142 84.1868 62.1658 84.1608C60.1897 84.1347 58.5666 85.7156 58.5405 87.6917C58.5145 89.6679 60.0954 91.291 62.0715 91.317Z" fill="white"/>
<path opacity="0.4" fill-rule="evenodd" clip-rule="evenodd" d="M62.0844 90.3491C63.526 90.3681 64.7101 89.2148 64.7291 87.7732C64.7481 86.3316 63.5949 85.1475 62.1532 85.1285C60.7116 85.1095 59.5276 86.2628 59.5086 87.7044C59.4896 89.146 60.6428 90.3301 62.0844 90.3491Z" fill="white"/>
<path fill-rule="evenodd" clip-rule="evenodd" d="M62.099 89.2641C62.9413 89.2752 63.6331 88.6014 63.6442 87.7591C63.6553 86.9168 62.9815 86.225 62.1392 86.2139C61.2969 86.2028 60.6051 86.8766 60.594 87.7189C60.5829 88.5612 61.2567 89.253 62.099 89.2641Z" fill="white"/>
<path d="M251.389 204.713C238.911 169.728 183.518 97.3395 61.769 87.6659" stroke="url(#paint1_linear)"/>
</g>
<g opacity="0.5">
<path opacity="0.2" fill-rule="evenodd" clip-rule="evenodd" d="M166.51 173.707C155.192 179.491 150.705 193.356 156.489 204.674C162.273 215.993 176.138 220.48 187.456 214.696C198.775 208.912 203.262 195.047 197.477 183.729C191.693 172.41 177.829 167.923 166.51 173.707Z" fill="white"/>
<path opacity="0.4" fill-rule="evenodd" clip-rule="evenodd" d="M169.343 179.251C161.086 183.47 157.813 193.584 162.033 201.841C166.252 210.098 176.366 213.371 184.623 209.152C192.88 204.932 196.153 194.818 191.934 186.561C187.714 178.304 177.6 175.031 169.343 179.251Z" fill="white"/>
<path fill-rule="evenodd" clip-rule="evenodd" d="M172.516 185.468C167.692 187.933 165.78 193.843 168.245 198.667C170.71 203.491 176.62 205.404 181.444 202.938C186.269 200.473 188.181 194.563 185.716 189.739C183.25 184.915 177.341 183.002 172.516 185.468Z" fill="white"/>
<g opacity="0.7">
<path opacity="0.2" fill-rule="evenodd" clip-rule="evenodd" d="M121.807 160.224C117.524 162.248 115.692 167.361 117.715 171.645C119.739 175.929 124.852 177.761 129.136 175.737C133.419 173.713 135.252 168.6 133.228 164.317C131.204 160.033 126.091 158.201 121.807 160.224Z" fill="white"/>
<path opacity="0.4" fill-rule="evenodd" clip-rule="evenodd" d="M122.798 162.323C119.673 163.799 118.337 167.529 119.813 170.654C121.29 173.779 125.02 175.116 128.145 173.64C131.27 172.163 132.606 168.433 131.13 165.308C129.654 162.183 125.923 160.847 122.798 162.323Z" fill="white"/>
<path fill-rule="evenodd" clip-rule="evenodd" d="M123.909 164.676C122.083 165.538 121.302 167.717 122.165 169.543C123.027 171.369 125.206 172.15 127.032 171.287C128.858 170.425 129.639 168.246 128.776 166.42C127.914 164.594 125.735 163.813 123.909 164.676Z" fill="white"/>
</g>
<g opacity="0.5">
<path opacity="0.2" fill-rule="evenodd" clip-rule="evenodd" d="M87.363 157.686C83.9723 159.288 82.5221 163.335 84.1239 166.726C85.7257 170.116 89.7729 171.566 93.1637 169.965C96.5544 168.363 98.0046 164.316 96.4028 160.925C94.801 157.534 90.7537 156.084 87.363 157.686Z" fill="white"/>
<path opacity="0.4" fill-rule="evenodd" clip-rule="evenodd" d="M88.148 159.346C85.6744 160.515 84.6165 163.467 85.785 165.941C86.9536 168.414 89.9061 169.472 92.3796 168.304C94.8532 167.135 95.9111 164.183 94.7426 161.709C93.574 159.235 90.6215 158.178 88.148 159.346Z" fill="white"/>
<path fill-rule="evenodd" clip-rule="evenodd" d="M89.0267 161.209C87.5815 161.891 86.9633 163.616 87.6461 165.062C88.3288 166.507 90.0539 167.125 91.4991 166.442C92.9443 165.76 93.5624 164.035 92.8797 162.589C92.197 161.144 90.4719 160.526 89.0267 161.209Z" fill="white"/>
</g>
<g opacity="0.4">
<path opacity="0.2" fill-rule="evenodd" clip-rule="evenodd" d="M57.9967 170.736C56.0071 171.676 53.6322 170.825 52.6923 168.835C51.7524 166.846 52.6033 164.471 54.593 163.531C56.5826 162.591 58.9575 163.442 59.8974 165.432C60.8373 167.421 59.9863 169.796 57.9967 170.736Z" fill="white"/>
<path opacity="0.4" fill-rule="evenodd" clip-rule="evenodd" d="M57.5363 169.761C56.0849 170.447 54.3524 169.826 53.6667 168.375C52.981 166.923 53.6018 165.191 55.0533 164.505C56.5047 163.819 58.2372 164.44 58.9229 165.892C59.6085 167.343 58.9878 169.075 57.5363 169.761Z" fill="white"/>
<path fill-rule="evenodd" clip-rule="evenodd" d="M57.0199 168.669C56.1719 169.07 55.1597 168.707 54.759 167.859C54.3584 167.011 54.7211 165.999 55.5692 165.598C56.4172 165.197 57.4294 165.56 57.8301 166.408C58.2307 167.256 57.868 168.268 57.0199 168.669Z" fill="white"/>
</g>
<path opacity="0.2" fill-rule="evenodd" clip-rule="evenodd" d="M24.3209 180.148C25.5582 179.563 26.0874 178.087 25.5029 176.849C24.9184 175.612 23.4414 175.083 22.2041 175.667C20.9668 176.252 20.4375 177.729 21.0221 178.966C21.6066 180.203 23.0835 180.733 24.3209 180.148Z" fill="white"/>
<path opacity="0.4" fill-rule="evenodd" clip-rule="evenodd" d="M24.0342 179.542C24.9369 179.116 25.3229 178.038 24.8965 177.136C24.4701 176.233 23.3926 175.847 22.49 176.273C21.5873 176.7 21.2013 177.777 21.6277 178.68C22.0541 179.582 23.1315 179.969 24.0342 179.542Z" fill="white"/>
<path fill-rule="evenodd" clip-rule="evenodd" d="M23.7135 178.863C24.2409 178.614 24.4665 177.984 24.2174 177.457C23.9682 176.929 23.3387 176.704 22.8113 176.953C22.2839 177.202 22.0584 177.832 22.3075 178.359C22.5566 178.886 23.1862 179.112 23.7135 178.863Z" fill="white"/>
<path d="M176.572 193.144C158.174 175.172 101.707 146.976 23.0217 177.969" stroke="url(#paint2_linear)"/>
</g>
<defs>
<linearGradient id="paint0_linear" x1="123.277" y1="-7.28569" x2="339.027" y2="262.871" gradientUnits="userSpaceOnUse">
<stop stop-color="white" stop-opacity="0"/>
<stop offset="0.618785" stop-color="white"/>
<stop offset="1" stop-color="white"/>
</linearGradient>
<linearGradient id="paint1_linear" x1="55.4621" y1="80.0324" x2="258.141" y2="197.58" gradientUnits="userSpaceOnUse">
<stop stop-color="white" stop-opacity="0"/>
<stop offset="0.618785" stop-color="white"/>
<stop offset="1" stop-color="white"/>
</linearGradient>
<linearGradient id="paint2_linear" x1="16.7774" y1="175.137" x2="178.605" y2="186.654" gradientUnits="userSpaceOnUse">
<stop stop-color="white" stop-opacity="0"/>
<stop offset="0.618785" stop-color="white"/>
<stop offset="1" stop-color="white"/>
</linearGradient>
</defs>
</svg>
