<svg width="570" height="462" viewBox="0 0 570 462" fill="none" xmlns="http://www.w3.org/2000/svg">
<g opacity="0.5">
<mask id="mask0" mask-type="alpha" maskUnits="userSpaceOnUse" x="0" y="0" width="570" height="462">
<rect width="570" height="462" rx="30" fill="url(#paint0_linear)"/>
</mask>
<g mask="url(#mask0)">
<g opacity="0.3" filter="url(#filter0_d)">
<ellipse cx="413.109" cy="292.129" rx="63.5" ry="63.5" transform="rotate(-143.305 413.109 292.129)" stroke="white"/>
</g>
<g opacity="0.3" filter="url(#filter1_d)">
<circle cx="413.127" cy="292.126" r="88.0583" transform="rotate(-143.305 413.127 292.126)" stroke="white"/>
</g>
<g opacity="0.3" filter="url(#filter2_d)">
<circle cx="413.127" cy="292.126" r="117.513" transform="rotate(-143.305 413.127 292.126)" stroke="white"/>
</g>
<g opacity="0.3" filter="url(#filter3_d)">
<circle cx="413.126" cy="292.127" r="139.513" transform="rotate(-143.305 413.126 292.127)" stroke="white"/>
</g>
<g opacity="0.3" filter="url(#filter4_d)">
<circle cx="413.126" cy="292.127" r="192.513" transform="rotate(-143.305 413.126 292.127)" stroke="white"/>
</g>
<g opacity="0.5" filter="url(#filter5_d)">
<circle cx="413.126" cy="292.127" r="257.512" transform="rotate(-143.305 413.126 292.127)" stroke="white"/>
</g>
<g opacity="0.7" filter="url(#filter6_d)">
<circle cx="413.126" cy="292.127" r="309.512" transform="rotate(-143.305 413.126 292.127)" stroke="white"/>
</g>
<g filter="url(#filter7_d)">
<path opacity="0.2" fill-rule="evenodd" clip-rule="evenodd" d="M339.489 252.854C337.839 255.068 334.706 255.525 332.492 253.875C330.278 252.225 329.821 249.092 331.471 246.878C333.121 244.664 336.253 244.207 338.468 245.857C340.682 247.507 341.139 250.64 339.489 252.854Z" fill="white"/>
<path opacity="0.4" fill-rule="evenodd" clip-rule="evenodd" d="M338.405 252.046C337.201 253.661 334.916 253.995 333.3 252.791C331.685 251.587 331.351 249.302 332.555 247.687C333.759 246.071 336.044 245.738 337.659 246.941C339.275 248.145 339.608 250.431 338.405 252.046Z" fill="white"/>
<path fill-rule="evenodd" clip-rule="evenodd" d="M337.189 251.14C336.485 252.083 335.15 252.278 334.206 251.575C333.263 250.872 333.068 249.536 333.771 248.593C334.474 247.649 335.809 247.454 336.753 248.157C337.697 248.861 337.892 250.196 337.189 251.14Z" fill="white"/>
</g>
<g filter="url(#filter8_d)">
<path opacity="0.2" fill-rule="evenodd" clip-rule="evenodd" d="M424.949 206.793C423.629 208.564 421.123 208.93 419.351 207.61C417.58 206.29 417.214 203.784 418.534 202.012C419.854 200.241 422.36 199.875 424.132 201.195C425.903 202.515 426.269 205.021 424.949 206.793Z" fill="white"/>
<path opacity="0.4" fill-rule="evenodd" clip-rule="evenodd" d="M424.081 206.146C423.118 207.439 421.29 207.705 419.998 206.742C418.705 205.779 418.439 203.951 419.402 202.659C420.365 201.367 422.193 201.1 423.485 202.063C424.777 203.026 425.044 204.854 424.081 206.146Z" fill="white"/>
<path fill-rule="evenodd" clip-rule="evenodd" d="M423.108 205.422C422.545 206.177 421.477 206.333 420.722 205.77C419.967 205.207 419.811 204.139 420.374 203.384C420.937 202.629 422.005 202.473 422.76 203.036C423.515 203.599 423.671 204.667 423.108 205.422Z" fill="white"/>
</g>
<path opacity="0.2" fill-rule="evenodd" clip-rule="evenodd" d="M391.885 185.894C387.924 191.208 380.406 192.305 375.092 188.345C369.778 184.385 368.681 176.866 372.641 171.552C376.601 166.238 384.119 165.141 389.433 169.101C394.747 173.061 395.845 180.58 391.885 185.894Z" fill="white"/>
<path opacity="0.4" fill-rule="evenodd" clip-rule="evenodd" d="M389.282 183.954C386.393 187.831 380.908 188.631 377.032 185.742C373.155 182.853 372.355 177.369 375.244 173.492C378.133 169.615 383.617 168.815 387.494 171.704C391.371 174.593 392.171 180.078 389.282 183.954Z" fill="white"/>
<path fill-rule="evenodd" clip-rule="evenodd" d="M386.363 181.78C384.675 184.045 381.471 184.513 379.206 182.825C376.941 181.137 376.473 177.933 378.161 175.668C379.849 173.403 383.053 172.935 385.318 174.623C387.583 176.311 388.051 179.515 386.363 181.78Z" fill="white"/>
<path opacity="0.2" fill-rule="evenodd" clip-rule="evenodd" d="M558.384 283.786C556.074 286.886 551.688 287.526 548.588 285.216C545.488 282.906 544.848 278.52 547.158 275.42C549.469 272.32 553.854 271.68 556.954 273.99C560.054 276.3 560.694 280.686 558.384 283.786Z" fill="white"/>
<path opacity="0.4" fill-rule="evenodd" clip-rule="evenodd" d="M556.866 282.655C555.181 284.916 551.981 285.383 549.72 283.698C547.458 282.013 546.991 278.813 548.677 276.552C550.362 274.29 553.561 273.823 555.823 275.509C558.084 277.194 558.551 280.393 556.866 282.655Z" fill="white"/>
<path fill-rule="evenodd" clip-rule="evenodd" d="M555.163 281.387C554.178 282.708 552.309 282.981 550.988 281.996C549.667 281.011 549.394 279.142 550.378 277.821C551.363 276.5 553.232 276.227 554.554 277.211C555.875 278.196 556.148 280.065 555.163 281.387Z" fill="white"/>
<path opacity="0.2" fill-rule="evenodd" clip-rule="evenodd" d="M334.962 407.868C331.991 411.854 326.353 412.677 322.367 409.707C318.382 406.737 317.559 401.098 320.529 397.112C323.499 393.127 329.138 392.304 333.123 395.274C337.109 398.244 337.932 403.883 334.962 407.868Z" fill="white"/>
<path opacity="0.4" fill-rule="evenodd" clip-rule="evenodd" d="M333.01 406.414C330.843 409.321 326.729 409.922 323.822 407.755C320.914 405.588 320.314 401.475 322.481 398.567C324.648 395.66 328.761 395.059 331.669 397.226C334.576 399.393 335.176 403.506 333.01 406.414Z" fill="white"/>
<path fill-rule="evenodd" clip-rule="evenodd" d="M330.82 404.783C329.554 406.482 327.151 406.833 325.452 405.567C323.754 404.301 323.403 401.898 324.669 400.199C325.935 398.5 328.338 398.149 330.037 399.415C331.736 400.681 332.086 403.085 330.82 404.783Z" fill="white"/>
<path opacity="0.2" fill-rule="evenodd" clip-rule="evenodd" d="M262.934 399.088C255.014 409.716 239.977 411.911 229.349 403.991C218.721 396.07 216.526 381.034 224.447 370.405C232.367 359.777 247.404 357.582 258.032 365.503C268.66 373.423 270.855 388.46 262.934 399.088Z" fill="white"/>
<path opacity="0.4" fill-rule="evenodd" clip-rule="evenodd" d="M257.729 395.209C251.951 402.963 240.982 404.564 233.229 398.786C225.475 393.008 223.874 382.039 229.652 374.285C235.43 366.532 246.4 364.931 254.153 370.709C261.906 376.487 263.507 387.456 257.729 395.209Z" fill="white"/>
<path fill-rule="evenodd" clip-rule="evenodd" d="M251.891 390.862C248.515 395.392 242.106 396.327 237.576 392.951C233.046 389.576 232.111 383.166 235.487 378.636C238.862 374.106 245.272 373.171 249.802 376.547C254.332 379.923 255.267 386.332 251.891 390.862Z" fill="white"/>
<g filter="url(#filter9_d)">
<path opacity="0.2" fill-rule="evenodd" clip-rule="evenodd" d="M452.632 430.709C450.652 433.366 446.893 433.915 444.236 431.935C441.578 429.955 441.03 426.196 443.01 423.539C444.99 420.882 448.749 420.333 451.406 422.313C454.063 424.293 454.612 428.052 452.632 430.709Z" fill="white"/>
<path opacity="0.4" fill-rule="evenodd" clip-rule="evenodd" d="M451.331 429.74C449.886 431.678 447.144 432.078 445.205 430.634C443.267 429.189 442.867 426.447 444.311 424.509C445.756 422.57 448.498 422.17 450.436 423.615C452.375 425.059 452.775 427.801 451.331 429.74Z" fill="white"/>
<path fill-rule="evenodd" clip-rule="evenodd" d="M449.871 428.653C449.027 429.785 447.425 430.019 446.292 429.175C445.16 428.331 444.926 426.729 445.77 425.597C446.614 424.464 448.216 424.23 449.349 425.074C450.481 425.918 450.715 427.52 449.871 428.653Z" fill="white"/>
</g>
<path opacity="0.2" fill-rule="evenodd" clip-rule="evenodd" d="M523.738 203.091C519.448 208.848 511.303 210.037 505.546 205.747C499.789 201.457 498.6 193.312 502.89 187.555C507.181 181.798 515.326 180.609 521.082 184.899C526.839 189.19 528.028 197.334 523.738 203.091Z" fill="white"/>
<path opacity="0.4" fill-rule="evenodd" clip-rule="evenodd" d="M520.918 200.99C517.789 205.19 511.847 206.057 507.647 202.928C503.448 199.798 502.58 193.856 505.71 189.656C508.84 185.457 514.782 184.589 518.981 187.719C523.181 190.849 524.048 196.791 520.918 200.99Z" fill="white"/>
<path fill-rule="evenodd" clip-rule="evenodd" d="M517.756 198.635C515.928 201.089 512.456 201.596 510.002 199.767C507.548 197.939 507.042 194.467 508.87 192.013C510.699 189.56 514.171 189.053 516.624 190.881C519.078 192.71 519.585 196.182 517.756 198.635Z" fill="white"/>
<path opacity="0.2" fill-rule="evenodd" clip-rule="evenodd" d="M428.242 302.783C422.301 310.754 411.024 312.4 403.053 306.46C395.082 300.52 393.435 289.242 399.376 281.271C405.316 273.3 416.594 271.654 424.565 277.594C432.536 283.535 434.182 294.812 428.242 302.783Z" fill="white"/>
<path opacity="0.4" fill-rule="evenodd" clip-rule="evenodd" d="M424.338 299.874C420.004 305.689 411.777 306.89 405.962 302.556C400.147 298.223 398.946 289.996 403.28 284.181C407.613 278.366 415.84 277.165 421.655 281.499C427.47 285.832 428.671 294.059 424.338 299.874Z" fill="white"/>
<path fill-rule="evenodd" clip-rule="evenodd" d="M419.959 296.613C417.427 300.011 412.621 300.712 409.223 298.18C405.826 295.648 405.124 290.842 407.656 287.444C410.188 284.047 414.995 283.345 418.392 285.877C421.79 288.409 422.491 293.216 419.959 296.613Z" fill="white"/>
<path opacity="0.2" fill-rule="evenodd" clip-rule="evenodd" d="M460.461 112.284C454.85 119.812 444.199 121.367 436.671 115.757C429.143 110.146 427.588 99.4954 433.198 91.9671C438.809 84.4389 449.46 82.8842 456.988 88.4945C464.516 94.1049 466.071 104.756 460.461 112.284Z" fill="white"/>
<path opacity="0.4" fill-rule="evenodd" clip-rule="evenodd" d="M456.774 109.537C452.681 115.029 444.911 116.163 439.419 112.07C433.927 107.977 432.793 100.207 436.886 94.7153C440.978 89.2234 448.748 88.0892 454.24 92.182C459.732 96.2748 460.866 104.045 456.774 109.537Z" fill="white"/>
<path fill-rule="evenodd" clip-rule="evenodd" d="M452.638 106.457C450.247 109.666 445.707 110.328 442.499 107.937C439.29 105.546 438.627 101.006 441.018 97.7972C443.41 94.5885 447.949 93.9258 451.158 96.3171C454.367 98.7084 455.03 103.248 452.638 106.457Z" fill="white"/>
</g>
</g>
<defs>
<filter id="filter0_d" x="335.256" y="219.123" width="155.706" height="155.706" filterUnits="userSpaceOnUse" color-interpolation-filters="sRGB">
<feFlood flood-opacity="0" result="BackgroundImageFix"/>
<feColorMatrix in="SourceAlpha" type="matrix" values="0 0 0 0 0 0 0 0 0 0 0 0 0 0 0 0 0 0 127 0"/>
<feOffset dy="4.8472"/>
<feGaussianBlur stdDeviation="6.92457"/>
<feColorMatrix type="matrix" values="0 0 0 0 0 0 0 0 0 0 0 0 0 0 0 0 0 0 0.1 0"/>
<feBlend mode="normal" in2="BackgroundImageFix" result="effect1_dropShadow"/>
<feBlend mode="normal" in="SourceGraphic" in2="effect1_dropShadow" result="shape"/>
</filter>
<filter id="filter1_d" x="310.714" y="194.56" width="204.826" height="204.826" filterUnits="userSpaceOnUse" color-interpolation-filters="sRGB">
<feFlood flood-opacity="0" result="BackgroundImageFix"/>
<feColorMatrix in="SourceAlpha" type="matrix" values="0 0 0 0 0 0 0 0 0 0 0 0 0 0 0 0 0 0 127 0"/>
<feOffset dy="4.8472"/>
<feGaussianBlur stdDeviation="6.92457"/>
<feColorMatrix type="matrix" values="0 0 0 0 0 0 0 0 0 0 0 0 0 0 0 0 0 0 0.1 0"/>
<feBlend mode="normal" in2="BackgroundImageFix" result="effect1_dropShadow"/>
<feBlend mode="normal" in="SourceGraphic" in2="effect1_dropShadow" result="shape"/>
</filter>
<filter id="filter2_d" x="276.626" y="162.093" width="273.003" height="273.003" filterUnits="userSpaceOnUse" color-interpolation-filters="sRGB">
<feFlood flood-opacity="0" result="BackgroundImageFix"/>
<feColorMatrix in="SourceAlpha" type="matrix" values="0 0 0 0 0 0 0 0 0 0 0 0 0 0 0 0 0 0 127 0"/>
<feOffset dy="6.46851"/>
<feGaussianBlur stdDeviation="9.24073"/>
<feColorMatrix type="matrix" values="0 0 0 0 0 0 0 0 0 0 0 0 0 0 0 0 0 0 0.1 0"/>
<feBlend mode="normal" in2="BackgroundImageFix" result="effect1_dropShadow"/>
<feBlend mode="normal" in="SourceGraphic" in2="effect1_dropShadow" result="shape"/>
</filter>
<filter id="filter3_d" x="251.163" y="137.844" width="323.925" height="323.925" filterUnits="userSpaceOnUse" color-interpolation-filters="sRGB">
<feFlood flood-opacity="0" result="BackgroundImageFix"/>
<feColorMatrix in="SourceAlpha" type="matrix" values="0 0 0 0 0 0 0 0 0 0 0 0 0 0 0 0 0 0 127 0"/>
<feOffset dy="7.67951"/>
<feGaussianBlur stdDeviation="10.9707"/>
<feColorMatrix type="matrix" values="0 0 0 0 0 0 0 0 0 0 0 0 0 0 0 0 0 0 0.1 0"/>
<feBlend mode="normal" in2="BackgroundImageFix" result="effect1_dropShadow"/>
<feBlend mode="normal" in="SourceGraphic" in2="effect1_dropShadow" result="shape"/>
</filter>
<filter id="filter4_d" x="189.825" y="79.4227" width="446.603" height="446.603" filterUnits="userSpaceOnUse" color-interpolation-filters="sRGB">
<feFlood flood-opacity="0" result="BackgroundImageFix"/>
<feColorMatrix in="SourceAlpha" type="matrix" values="0 0 0 0 0 0 0 0 0 0 0 0 0 0 0 0 0 0 127 0"/>
<feOffset dy="10.5969"/>
<feGaussianBlur stdDeviation="15.1384"/>
<feColorMatrix type="matrix" values="0 0 0 0 0 0 0 0 0 0 0 0 0 0 0 0 0 0 0.1 0"/>
<feBlend mode="normal" in2="BackgroundImageFix" result="effect1_dropShadow"/>
<feBlend mode="normal" in="SourceGraphic" in2="effect1_dropShadow" result="shape"/>
</filter>
<filter id="filter5_d" x="114.598" y="7.77373" width="597.056" height="597.056" filterUnits="userSpaceOnUse" color-interpolation-filters="sRGB">
<feFlood flood-opacity="0" result="BackgroundImageFix"/>
<feColorMatrix in="SourceAlpha" type="matrix" values="0 0 0 0 0 0 0 0 0 0 0 0 0 0 0 0 0 0 127 0"/>
<feOffset dy="14.1748"/>
<feGaussianBlur stdDeviation="20.2498"/>
<feColorMatrix type="matrix" values="0 0 0 0 0 0 0 0 0 0 0 0 0 0 0 0 0 0 0.1 0"/>
<feBlend mode="normal" in2="BackgroundImageFix" result="effect1_dropShadow"/>
<feBlend mode="normal" in="SourceGraphic" in2="effect1_dropShadow" result="shape"/>
</filter>
<filter id="filter6_d" x="54.4173" y="-49.5454" width="717.418" height="717.418" filterUnits="userSpaceOnUse" color-interpolation-filters="sRGB">
<feFlood flood-opacity="0" result="BackgroundImageFix"/>
<feColorMatrix in="SourceAlpha" type="matrix" values="0 0 0 0 0 0 0 0 0 0 0 0 0 0 0 0 0 0 127 0"/>
<feOffset dy="17.0372"/>
<feGaussianBlur stdDeviation="24.3389"/>
<feColorMatrix type="matrix" values="0 0 0 0 0 0 0 0 0 0 0 0 0 0 0 0 0 0 0.1 0"/>
<feBlend mode="normal" in2="BackgroundImageFix" result="effect1_dropShadow"/>
<feBlend mode="normal" in="SourceGraphic" in2="effect1_dropShadow" result="shape"/>
</filter>
<filter id="filter7_d" x="319.696" y="237.856" width="31.568" height="31.568" filterUnits="userSpaceOnUse" color-interpolation-filters="sRGB">
<feFlood flood-opacity="0" result="BackgroundImageFix"/>
<feColorMatrix in="SourceAlpha" type="matrix" values="0 0 0 0 0 0 0 0 0 0 0 0 0 0 0 0 0 0 127 0"/>
<feOffset dy="3.7743"/>
<feGaussianBlur stdDeviation="5.39186"/>
<feColorMatrix type="matrix" values="0 0 0 0 0 0 0 0 0 0 0 0 0 0 0 0 0 0 0.1 0"/>
<feBlend mode="normal" in2="BackgroundImageFix" result="effect1_dropShadow"/>
<feBlend mode="normal" in="SourceGraphic" in2="effect1_dropShadow" result="shape"/>
</filter>
<filter id="filter8_d" x="406.957" y="193.393" width="29.5679" height="29.5679" filterUnits="userSpaceOnUse" color-interpolation-filters="sRGB">
<feFlood flood-opacity="0" result="BackgroundImageFix"/>
<feColorMatrix in="SourceAlpha" type="matrix" values="0 0 0 0 0 0 0 0 0 0 0 0 0 0 0 0 0 0 127 0"/>
<feOffset dy="3.7743"/>
<feGaussianBlur stdDeviation="5.39186"/>
<feColorMatrix type="matrix" values="0 0 0 0 0 0 0 0 0 0 0 0 0 0 0 0 0 0 0.1 0"/>
<feBlend mode="normal" in2="BackgroundImageFix" result="effect1_dropShadow"/>
<feBlend mode="normal" in="SourceGraphic" in2="effect1_dropShadow" result="shape"/>
</filter>
<filter id="filter9_d" x="431.037" y="414.114" width="33.5682" height="33.5682" filterUnits="userSpaceOnUse" color-interpolation-filters="sRGB">
<feFlood flood-opacity="0" result="BackgroundImageFix"/>
<feColorMatrix in="SourceAlpha" type="matrix" values="0 0 0 0 0 0 0 0 0 0 0 0 0 0 0 0 0 0 127 0"/>
<feOffset dy="3.7743"/>
<feGaussianBlur stdDeviation="5.39186"/>
<feColorMatrix type="matrix" values="0 0 0 0 0 0 0 0 0 0 0 0 0 0 0 0 0 0 0.1 0"/>
<feBlend mode="normal" in2="BackgroundImageFix" result="effect1_dropShadow"/>
<feBlend mode="normal" in="SourceGraphic" in2="effect1_dropShadow" result="shape"/>
</filter>
<linearGradient id="paint0_linear" x1="923.297" y1="391.943" x2="-443.69" y2="-113.782" gradientUnits="userSpaceOnUse">
<stop stop-color="white"/>
<stop offset="1" stop-color="#176DA0"/>
</linearGradient>
</defs>
</svg>
