<svg width="431" height="452" viewBox="0 0 431 452" fill="none" xmlns="http://www.w3.org/2000/svg">
<g opacity="0.5">
<path opacity="0.2" fill-rule="evenodd" clip-rule="evenodd" d="M276.854 336.656C272.357 311.435 289.158 287.344 314.379 282.848C339.6 278.351 363.691 295.152 368.188 320.373C372.684 345.594 355.884 369.685 330.662 374.182C305.441 378.678 281.35 361.878 276.854 336.656Z" fill="white"/>
<path opacity="0.4" fill-rule="evenodd" clip-rule="evenodd" d="M289.206 334.454C285.926 316.054 298.182 298.48 316.581 295.2C334.98 291.919 352.555 304.176 355.835 322.575C359.115 340.974 346.859 358.548 328.46 361.829C310.061 365.109 292.486 352.853 289.206 334.454Z" fill="white"/>
<path fill-rule="evenodd" clip-rule="evenodd" d="M303.055 331.979C301.139 321.229 308.3 310.96 319.05 309.044C329.8 307.127 340.068 314.288 341.985 325.038C343.901 335.788 336.74 346.057 325.99 347.973C315.24 349.89 304.972 342.729 303.055 331.979Z" fill="white"/>
<g opacity="0.7">
<path opacity="0.2" fill-rule="evenodd" clip-rule="evenodd" d="M200.756 281.288C198.789 271.944 204.769 262.775 214.113 260.807C223.457 258.84 232.626 264.82 234.594 274.164C236.561 283.508 230.581 292.677 221.237 294.645C211.893 296.612 202.724 290.632 200.756 281.288Z" fill="white"/>
<path opacity="0.4" fill-rule="evenodd" clip-rule="evenodd" d="M205.333 280.324C203.898 273.508 208.26 266.819 215.077 265.383C221.893 263.948 228.583 268.311 230.018 275.127C231.453 281.943 227.091 288.633 220.274 290.068C213.458 291.503 206.768 287.141 205.333 280.324Z" fill="white"/>
<path fill-rule="evenodd" clip-rule="evenodd" d="M210.464 279.242C209.626 275.259 212.174 271.351 216.157 270.512C220.14 269.674 224.048 272.223 224.887 276.205C225.725 280.188 223.176 284.096 219.194 284.935C215.211 285.773 211.303 283.225 210.464 279.242Z" fill="white"/>
</g>
<g opacity="0.7">
<path opacity="0.2" fill-rule="evenodd" clip-rule="evenodd" d="M236.732 248.808C234.938 238.747 241.64 229.137 251.701 227.344C261.761 225.55 271.371 232.252 273.165 242.313C274.959 252.374 268.257 261.984 258.196 263.777C248.135 265.571 238.525 258.869 236.732 248.808Z" fill="white"/>
<path opacity="0.4" fill-rule="evenodd" clip-rule="evenodd" d="M241.659 247.929C240.351 240.59 245.24 233.579 252.579 232.271C259.919 230.962 266.929 235.851 268.238 243.191C269.546 250.53 264.657 257.541 257.318 258.849C249.978 260.158 242.968 255.269 241.659 247.929Z" fill="white"/>
<path fill-rule="evenodd" clip-rule="evenodd" d="M247.184 246.942C246.419 242.654 249.276 238.558 253.564 237.794C257.852 237.029 261.948 239.886 262.713 244.174C263.477 248.462 260.621 252.558 256.333 253.323C252.044 254.087 247.948 251.231 247.184 246.942Z" fill="white"/>
</g>
<g opacity="0.7">
<path opacity="0.2" fill-rule="evenodd" clip-rule="evenodd" d="M183.515 330.824C181.812 321.272 188.175 312.148 197.727 310.445C207.279 308.742 216.403 315.105 218.106 324.657C219.809 334.209 213.446 343.333 203.894 345.036C194.342 346.739 185.218 340.376 183.515 330.824Z" fill="white"/>
<path opacity="0.4" fill-rule="evenodd" clip-rule="evenodd" d="M188.193 329.989C186.951 323.021 191.593 316.365 198.561 315.123C205.53 313.88 212.186 318.522 213.428 325.491C214.67 332.459 210.028 339.115 203.06 340.357C196.092 341.6 189.436 336.958 188.193 329.989Z" fill="white"/>
<path fill-rule="evenodd" clip-rule="evenodd" d="M193.438 329.052C192.713 324.981 195.425 321.092 199.496 320.366C203.567 319.64 207.456 322.352 208.182 326.424C208.908 330.495 206.196 334.384 202.125 335.11C198.053 335.836 194.164 333.124 193.438 329.052Z" fill="white"/>
</g>
<g opacity="0.5">
<path opacity="0.2" fill-rule="evenodd" clip-rule="evenodd" d="M154.729 229.065C153.172 221.668 157.905 214.41 165.301 212.853C172.697 211.296 179.955 216.029 181.512 223.425C183.07 230.821 178.336 238.079 170.94 239.637C163.544 241.194 156.286 236.461 154.729 229.065Z" fill="white"/>
<path opacity="0.4" fill-rule="evenodd" clip-rule="evenodd" d="M158.352 228.302C157.216 222.906 160.669 217.611 166.064 216.475C171.46 215.339 176.755 218.792 177.891 224.188C179.027 229.583 175.574 234.878 170.178 236.014C164.783 237.15 159.488 233.697 158.352 228.302Z" fill="white"/>
<path fill-rule="evenodd" clip-rule="evenodd" d="M162.413 227.445C161.749 224.292 163.766 221.199 166.919 220.535C170.071 219.871 173.165 221.889 173.829 225.041C174.492 228.193 172.475 231.287 169.322 231.951C166.17 232.615 163.076 230.597 162.413 227.445Z" fill="white"/>
</g>
<g opacity="0.5">
<path opacity="0.2" fill-rule="evenodd" clip-rule="evenodd" d="M209.098 161.427C207.392 151.858 213.767 142.717 223.337 141.01C232.906 139.304 242.047 145.679 243.754 155.249C245.46 164.819 239.085 173.96 229.515 175.666C219.945 177.372 210.804 170.997 209.098 161.427Z" fill="white"/>
<path opacity="0.4" fill-rule="evenodd" clip-rule="evenodd" d="M213.785 160.592C212.54 153.61 217.191 146.942 224.172 145.697C231.154 144.453 237.822 149.103 239.067 156.084C240.311 163.066 235.661 169.734 228.679 170.979C221.698 172.223 215.03 167.573 213.785 160.592Z" fill="white"/>
<path fill-rule="evenodd" clip-rule="evenodd" d="M219.04 159.652C218.313 155.574 221.03 151.677 225.109 150.95C229.188 150.223 233.084 152.94 233.811 157.019C234.539 161.098 231.821 164.994 227.743 165.721C223.664 166.449 219.767 163.731 219.04 159.652Z" fill="white"/>
</g>
<g opacity="0.5">
<path opacity="0.2" fill-rule="evenodd" clip-rule="evenodd" d="M122.576 303.558C121.309 296.449 126.045 289.658 133.154 288.39C140.264 287.123 147.055 291.859 148.323 298.968C149.59 306.078 144.854 312.869 137.744 314.136C130.635 315.404 123.844 310.668 122.576 303.558Z" fill="white"/>
<path opacity="0.4" fill-rule="evenodd" clip-rule="evenodd" d="M126.058 302.937C125.134 297.751 128.588 292.797 133.775 291.872C138.962 290.947 143.916 294.402 144.84 299.589C145.765 304.775 142.31 309.73 137.124 310.654C131.937 311.579 126.983 308.124 126.058 302.937Z" fill="white"/>
<path fill-rule="evenodd" clip-rule="evenodd" d="M129.962 302.239C129.422 299.209 131.44 296.315 134.471 295.774C137.501 295.234 140.395 297.253 140.936 300.283C141.476 303.313 139.457 306.208 136.427 306.748C133.397 307.288 130.502 305.27 129.962 302.239Z" fill="white"/>
</g>
<g opacity="0.4">
<path opacity="0.2" fill-rule="evenodd" clip-rule="evenodd" d="M139.921 166.012C139.007 161.672 134.748 158.895 130.408 159.808C126.068 160.722 123.291 164.981 124.205 169.321C125.118 173.661 129.377 176.438 133.717 175.525C138.057 174.611 140.835 170.352 139.921 166.012Z" fill="white"/>
<path opacity="0.4" fill-rule="evenodd" clip-rule="evenodd" d="M137.795 166.459C137.129 163.293 134.022 161.267 130.856 161.934C127.69 162.601 125.664 165.707 126.33 168.874C126.997 172.04 130.104 174.066 133.27 173.399C136.436 172.732 138.462 169.626 137.795 166.459Z" fill="white"/>
<path fill-rule="evenodd" clip-rule="evenodd" d="M135.411 166.96C135.022 165.11 133.207 163.926 131.357 164.316C129.507 164.705 128.323 166.521 128.713 168.37C129.102 170.22 130.917 171.404 132.767 171.015C134.617 170.625 135.801 168.81 135.411 166.96Z" fill="white"/>
</g>
<g opacity="0.4">
<path opacity="0.2" fill-rule="evenodd" clip-rule="evenodd" d="M230.285 98.9889C229.507 94.6227 225.336 91.7142 220.97 92.4926C216.604 93.271 213.695 97.4416 214.473 101.808C215.252 106.174 219.422 109.083 223.789 108.304C228.155 107.526 231.063 103.355 230.285 98.9889Z" fill="white"/>
<path opacity="0.4" fill-rule="evenodd" clip-rule="evenodd" d="M228.147 99.3697C227.579 96.1845 224.536 94.0628 221.351 94.6306C218.166 95.1985 216.044 98.241 216.612 101.426C217.18 104.611 220.222 106.733 223.407 106.165C226.593 105.597 228.714 102.555 228.147 99.3697Z" fill="white"/>
<path fill-rule="evenodd" clip-rule="evenodd" d="M225.748 99.7964C225.417 97.9354 223.639 96.6957 221.778 97.0275C219.917 97.3592 218.677 99.1369 219.009 100.998C219.341 102.859 221.118 104.099 222.979 103.767C224.84 103.435 226.08 101.657 225.748 99.7964Z" fill="white"/>
</g>
<g opacity="0.4">
<path opacity="0.2" fill-rule="evenodd" clip-rule="evenodd" d="M94.7073 268.084C93.9289 263.718 89.7583 260.809 85.3921 261.588C81.0259 262.366 78.1174 266.537 78.8958 270.903C79.6742 275.269 83.8448 278.178 88.211 277.399C92.5772 276.621 95.4857 272.45 94.7073 268.084Z" fill="white"/>
<path opacity="0.4" fill-rule="evenodd" clip-rule="evenodd" d="M92.5688 268.465C92.0009 265.28 88.9585 263.158 85.7733 263.726C82.5881 264.294 80.4663 267.336 81.0342 270.522C81.602 273.707 84.6445 275.829 87.8297 275.261C91.0149 274.693 93.1367 271.65 92.5688 268.465Z" fill="white"/>
<path fill-rule="evenodd" clip-rule="evenodd" d="M90.1706 268.892C89.8388 267.031 88.0612 265.791 86.2002 266.123C84.3392 266.455 83.0995 268.232 83.4313 270.093C83.7631 271.954 85.5407 273.194 87.4017 272.862C89.2627 272.53 90.5024 270.753 90.1706 268.892Z" fill="white"/>
</g>
<path opacity="0.2" fill-rule="evenodd" clip-rule="evenodd" d="M38.9612 221.308C39.2472 222.912 38.1786 224.445 36.5743 224.731C34.9701 225.017 33.4377 223.948 33.1517 222.344C32.8657 220.74 33.9344 219.207 35.5386 218.921C37.1429 218.635 38.6752 219.704 38.9612 221.308Z" fill="white"/>
<path opacity="0.4" fill-rule="evenodd" clip-rule="evenodd" d="M38.176 221.448C38.3847 222.619 37.6051 223.737 36.4348 223.945C35.2645 224.154 34.1466 223.374 33.938 222.204C33.7293 221.034 34.5089 219.916 35.6792 219.707C36.8495 219.499 37.9674 220.278 38.176 221.448Z" fill="white"/>
<path fill-rule="evenodd" clip-rule="evenodd" d="M37.2953 221.606C37.4172 222.289 36.9617 222.943 36.278 223.065C35.5942 223.186 34.9411 222.731 34.8191 222.047C34.6972 221.363 35.1527 220.71 35.8365 220.588C36.5203 220.466 37.1734 220.922 37.2953 221.606Z" fill="white"/>
<path opacity="0.2" fill-rule="evenodd" clip-rule="evenodd" d="M114.021 100.467C114.589 103.166 112.862 105.815 110.163 106.383C107.464 106.951 104.815 105.224 104.247 102.525C103.678 99.8261 105.406 97.1774 108.105 96.6092C110.804 96.0409 113.452 97.7682 114.021 100.467Z" fill="white"/>
<path opacity="0.4" fill-rule="evenodd" clip-rule="evenodd" d="M112.699 100.746C113.114 102.714 111.854 104.647 109.885 105.061C107.916 105.476 105.984 104.216 105.569 102.247C105.155 100.278 106.415 98.3457 108.384 97.9311C110.353 97.5166 112.285 98.7766 112.699 100.746Z" fill="white"/>
<path fill-rule="evenodd" clip-rule="evenodd" d="M111.217 101.058C111.459 102.209 110.723 103.338 109.573 103.58C108.422 103.822 107.293 103.086 107.051 101.936C106.809 100.785 107.545 99.6562 108.695 99.414C109.846 99.1718 110.975 99.908 111.217 101.058Z" fill="white"/>
<path opacity="0.2" fill-rule="evenodd" clip-rule="evenodd" d="M233.117 34.0766C233.601 36.7919 231.792 39.3856 229.077 39.8697C226.361 40.3538 223.768 38.545 223.284 35.8297C222.799 33.1143 224.608 30.5206 227.324 30.0366C230.039 29.5525 232.633 31.3612 233.117 34.0766Z" fill="white"/>
<path opacity="0.4" fill-rule="evenodd" clip-rule="evenodd" d="M231.787 34.3137C232.14 36.2946 230.821 38.1867 228.84 38.5398C226.859 38.893 224.967 37.5735 224.614 35.5926C224.261 33.6117 225.58 31.7196 227.561 31.3665C229.542 31.0133 231.434 32.3329 231.787 34.3137Z" fill="white"/>
<path fill-rule="evenodd" clip-rule="evenodd" d="M230.296 34.5804C230.502 35.7377 229.731 36.8432 228.574 37.0496C227.417 37.2559 226.311 36.4849 226.105 35.3276C225.898 34.1702 226.669 33.0647 227.827 32.8584C228.984 32.6521 230.09 33.423 230.296 34.5804Z" fill="white"/>
<path d="M322.293 330.238C279.187 301.445 200.058 201.84 228.391 33.7619" stroke="url(#paint0_linear)"/>
<path d="M320.321 329.143C269.052 321.485 154.998 265.144 108.939 101.035" stroke="url(#paint1_linear)"/>
<path d="M319.722 330.32C270.161 345.516 142.961 343.855 30.6469 215.642" stroke="url(#paint2_linear)"/>
</g>
<defs>
<linearGradient id="paint0_linear" x1="217.926" y1="55.44" x2="301.549" y2="310.135" gradientUnits="userSpaceOnUse">
<stop stop-color="white" stop-opacity="0"/>
<stop offset="0.618785" stop-color="white"/>
<stop offset="1" stop-color="white"/>
</linearGradient>
<linearGradient id="paint1_linear" x1="96.7858" y1="94.4565" x2="312.374" y2="340.311" gradientUnits="userSpaceOnUse">
<stop stop-color="white" stop-opacity="0"/>
<stop offset="0.618785" stop-color="white"/>
<stop offset="1" stop-color="white"/>
</linearGradient>
<linearGradient id="paint2_linear" x1="41.2657" y1="233.535" x2="327.867" y2="337.674" gradientUnits="userSpaceOnUse">
<stop stop-color="white" stop-opacity="0"/>
<stop offset="0.618785" stop-color="white"/>
<stop offset="1" stop-color="white"/>
</linearGradient>
</defs>
</svg>
