<svg id="Layer_1" data-name="Layer 1" xmlns="http://www.w3.org/2000/svg" width="488" height="129" viewBox="0 0 488 128.49"><defs><style>.cls-1{fill:#333;}.cls-2{fill:#fcb640;}</style></defs><title>logo</title><path class="cls-1" d="M157.14,86.23a11.86,11.86,0,0,1-1.09,5.28A9.56,9.56,0,0,1,153,95.13a13.76,13.76,0,0,1-4.76,2.1,25.82,25.82,0,0,1-6.17.69q-1.13,0-2.7,0t-3.31-.2q-1.73-.16-3.51-.36a20.54,20.54,0,0,1-3.22-.6q-1.69-.4-1.69-1.61V92.27a1.07,1.07,0,0,1,.4-.89,1.63,1.63,0,0,1,1-.32h.32q1.45.16,3.18.32t3.51.28l3.31.2q1.53.08,2.66.08a11.79,11.79,0,0,0,6-1.21q2-1.21,2-4.51A4.55,4.55,0,0,0,148.76,83,24.22,24.22,0,0,0,144,79.53l-8.14-4.84a23.71,23.71,0,0,1-6-5,9.9,9.9,0,0,1-2.26-6.57,10.71,10.71,0,0,1,1.13-5.2,9.06,9.06,0,0,1,3.06-3.31,12.5,12.5,0,0,1,4.59-1.73,32.44,32.44,0,0,1,5.8-.48q3.39,0,6.57.28t6,.77q1.53.24,1.53,1.61v2.66A1.21,1.21,0,0,1,155,59.14h-.24l-5.6-.4q-3.51-.24-6.89-.24a15.21,15.21,0,0,0-5.44.81q-2.06.81-2.06,3.87a4.28,4.28,0,0,0,1.37,3.19,21.42,21.42,0,0,0,4.19,2.94l8,4.76q5,3,6.93,5.8A11,11,0,0,1,157.14,86.23Z"/><path class="cls-1" d="M219.54,96.87a1.55,1.55,0,0,1-1.13.48h-3.87a1.65,1.65,0,0,1-1.61-1.61V67.2a13.42,13.42,0,0,0-.56-4.19,6.69,6.69,0,0,0-1.53-2.66A5.42,5.42,0,0,0,208.5,59a10.26,10.26,0,0,0-2.9-.4,18.3,18.3,0,0,0-4.64.65,47.51,47.51,0,0,0-4.8,1.53,24.1,24.1,0,0,1,.73,6.29v28.7a1.71,1.71,0,0,1-.4,1.13,1.3,1.3,0,0,1-1,.48h-4.27a1.19,1.19,0,0,1-1-.48,1.83,1.83,0,0,1-.36-1.13V67a20.8,20.8,0,0,0-.36-4.31,5.76,5.76,0,0,0-1.17-2.58,4,4,0,0,0-2-1.25,10.27,10.27,0,0,0-2.7-.32,13.85,13.85,0,0,0-4.72.93,49.36,49.36,0,0,0-5.12,2.22v34a1.71,1.71,0,0,1-.4,1.13,1.3,1.3,0,0,1-1,.48H168a1.19,1.19,0,0,1-1-.48,1.83,1.83,0,0,1-.36-1.13V54.62a1.62,1.62,0,0,1,.44-1.13,1.42,1.42,0,0,1,1.09-.48h4a1.42,1.42,0,0,1,1.09.48,1.62,1.62,0,0,1,.44,1.13v1.53a29.81,29.81,0,0,1,5.4-2.66,17.85,17.85,0,0,1,6.37-1.13,12.56,12.56,0,0,1,4.55.77,8.86,8.86,0,0,1,3.51,2.54,35.82,35.82,0,0,1,6.81-2.46,27.4,27.4,0,0,1,6.57-.85,17.47,17.47,0,0,1,5.12.73,10.07,10.07,0,0,1,4.15,2.46A11.78,11.78,0,0,1,219,60.14a21.44,21.44,0,0,1,1,7.05V95.74A1.54,1.54,0,0,1,219.54,96.87Z"/><path class="cls-1" d="M261.87,95.74a1.65,1.65,0,0,1-1.61,1.61h-3.71a1.65,1.65,0,0,1-1.61-1.61V94a37.6,37.6,0,0,1-6,2.82,18.51,18.51,0,0,1-6.45,1.13,20,20,0,0,1-5-.6,10.35,10.35,0,0,1-4.19-2.14,10.8,10.8,0,0,1-2.9-4,15.8,15.8,0,0,1-1.09-6.29v-1a14.89,14.89,0,0,1,1-5.68,9.4,9.4,0,0,1,3.31-4.11,16.06,16.06,0,0,1,6-2.46,43.71,43.71,0,0,1,9.11-.81h6V67.6q0-5.08-1.94-7.09t-6.69-2q-4,0-6.93.2t-5.4.44h-.4a2.06,2.06,0,0,1-1-.24q-.44-.24-.44-1V55q0-1.29,1.69-1.53,2.5-.4,5.44-.73a66.14,66.14,0,0,1,7.05-.32q8.38,0,12.05,4t3.67,11.13ZM254.77,75.9h-6a34.45,34.45,0,0,0-6,.44A10,10,0,0,0,239,77.72,5,5,0,0,0,237,80.14a10.42,10.42,0,0,0-.56,3.67v1q0,4.35,1.93,5.85a8.81,8.81,0,0,0,5.48,1.49,18,18,0,0,0,5.4-.81,29.42,29.42,0,0,0,5.48-2.42Z"/><path class="cls-1" d="M291,58.65a19.34,19.34,0,0,0-5.44.77A24.34,24.34,0,0,0,279.92,62V95.74a1.65,1.65,0,0,1-1.61,1.61h-4a1.42,1.42,0,0,1-1.09-.48,1.62,1.62,0,0,1-.44-1.13V54.62a1.62,1.62,0,0,1,.44-1.13,1.42,1.42,0,0,1,1.09-.48h3.79a1.41,1.41,0,0,1,1.09.49,1.66,1.66,0,0,1,.44,1.15v1.72a22.62,22.62,0,0,1,5.84-3,17.92,17.92,0,0,1,5.52-.9q1.69,0,1.69,1.47v3.35Q292.74,58.65,291,58.65Z"/><path class="cls-1" d="M322.49,97.51q-1.21.16-2.66.28t-2.58.12a23.47,23.47,0,0,1-4.88-.44A7.17,7.17,0,0,1,309,95.82a7.5,7.5,0,0,1-2-3.31,17.72,17.72,0,0,1-.69-5.4V59l-7.82-.89q-1.53-.16-1.53-1.45V54.46q0-1.45,1.53-1.45h7.82v-7.9a1.51,1.51,0,0,1,1.45-1.61l4.19-.65h.24a1.16,1.16,0,0,1,.85.36,1.36,1.36,0,0,1,.36,1V53h8.71a1.65,1.65,0,0,1,1.61,1.61v2.74A1.65,1.65,0,0,1,322.09,59h-8.71V87q0,3.3,1,4.18a5,5,0,0,0,3.39.88h4.51q1.69,0,1.69,1.15v2.86Q323.94,97.27,322.49,97.51Z"/><path class="cls-1" d="M365.86,54.38a1.4,1.4,0,0,1-.08.57l-13.3,46.44a36.66,36.66,0,0,1-2.06,5.56,10.78,10.78,0,0,1-2.78,3.67,10.63,10.63,0,0,1-4.07,2.06,22.68,22.68,0,0,1-5.85.65,34,34,0,0,1-3.59-.2,23.78,23.78,0,0,1-3.18-.52,5.34,5.34,0,0,1-1.21-.4.9.9,0,0,1-.48-.89v-3q0-1.29,1.53-1.29H331q1.37.16,3.59.32t3.59.16a14.08,14.08,0,0,0,3-.28,5.17,5.17,0,0,0,2.22-1,6.57,6.57,0,0,0,1.61-2.1,14.93,14.93,0,0,0,1.17-3.43l.8-3.31h-1.13a9.15,9.15,0,0,1-1.73-.16,3.93,3.93,0,0,1-1.61-.73,5.32,5.32,0,0,1-1.41-1.69,14.72,14.72,0,0,1-1.21-3L329.18,54.94a1.38,1.38,0,0,1-.08-.57q0-1.37,1.45-1.37H335a1.1,1.1,0,0,1,.85.4,2.51,2.51,0,0,1,.52.89l9.51,35.06a2.77,2.77,0,0,0,.73,1.5,1.4,1.4,0,0,0,.81.28h1.29l9.84-36.92a2,2,0,0,1,.56-.85,1.39,1.39,0,0,1,1-.36h4.52Q365.86,53,365.86,54.38Z"/><path class="cls-2" d="M405.37,95.74a1.65,1.65,0,0,1-1.61,1.61H400a1.65,1.65,0,0,1-1.61-1.61V94a37.64,37.64,0,0,1-6,2.82A18.52,18.52,0,0,1,386,97.91a20,20,0,0,1-5-.6,10.34,10.34,0,0,1-4.19-2.14,10.79,10.79,0,0,1-2.9-4,15.8,15.8,0,0,1-1.09-6.29v-1a14.89,14.89,0,0,1,1-5.68,9.4,9.4,0,0,1,3.31-4.11,16.06,16.06,0,0,1,6-2.46,43.71,43.71,0,0,1,9.11-.81h6V67.6q0-5.08-1.94-7.09t-6.69-2q-4,0-6.93.2t-5.4.44h-.4a2.06,2.06,0,0,1-1-.24q-.44-.24-.44-1V55q0-1.29,1.69-1.53,2.5-.4,5.44-.73a66.12,66.12,0,0,1,7.05-.32q8.38,0,12.05,4t3.67,11.13ZM398.27,75.9h-6a34.44,34.44,0,0,0-6,.44,10,10,0,0,0-3.79,1.37,5,5,0,0,0-1.94,2.42,10.43,10.43,0,0,0-.56,3.67v1q0,4.35,1.93,5.85a8.81,8.81,0,0,0,5.48,1.49,18,18,0,0,0,5.4-.81,29.42,29.42,0,0,0,5.48-2.42Z"/><path class="cls-2" d="M449,94.69a2.33,2.33,0,0,1-.28,1.25,2,2,0,0,1-1.41.6,74.4,74.4,0,0,1-7.46,1q-3.67.32-7.38.32a19.83,19.83,0,0,1-7.82-1.41,14.45,14.45,0,0,1-5.48-4,16.59,16.59,0,0,1-3.22-6.29,30.17,30.17,0,0,1-1-8.22V72.2q0-9.51,4.35-14.63t13.22-5.12q1.85,0,4.48.2t5,.6v-15a1.51,1.51,0,0,1,1.53-1.53h4.11a1.36,1.36,0,0,1,1,.44,1.56,1.56,0,0,1,.4,1.09Zm-7.09-35.47a29,29,0,0,0-4.76-.48q-2.74-.08-4.68-.08a12.43,12.43,0,0,0-5,.89,7.56,7.56,0,0,0-3.22,2.62,11.42,11.42,0,0,0-1.73,4.27A28.59,28.59,0,0,0,422,72.2V78q0,6.61,2.26,10.16t8.22,3.55q2.1,0,4.72-.16t4.72-.32Z"/><path class="cls-2" d="M488,86.23a11.86,11.86,0,0,1-1.09,5.28,9.56,9.56,0,0,1-3.06,3.63,13.77,13.77,0,0,1-4.76,2.1,25.82,25.82,0,0,1-6.17.69q-1.13,0-2.7,0t-3.31-.2q-1.73-.16-3.51-.36a20.55,20.55,0,0,1-3.22-.6q-1.69-.4-1.69-1.61V92.27a1.07,1.07,0,0,1,.4-.89,1.63,1.63,0,0,1,1-.32h.32q1.45.16,3.18.32t3.51.28l3.31.2q1.53.08,2.66.08a11.8,11.8,0,0,0,6-1.21q2-1.21,2-4.51A4.55,4.55,0,0,0,479.62,83a24.17,24.17,0,0,0-4.76-3.47l-8.14-4.84a23.71,23.71,0,0,1-6-5,9.9,9.9,0,0,1-2.26-6.57,10.7,10.7,0,0,1,1.13-5.2,9.06,9.06,0,0,1,3.06-3.31,12.5,12.5,0,0,1,4.59-1.73,32.44,32.44,0,0,1,5.8-.48q3.39,0,6.57.28t6,.77q1.53.24,1.53,1.61v2.66a1.21,1.21,0,0,1-1.37,1.37h-.24l-5.6-.4q-3.51-.24-6.89-.24a15.21,15.21,0,0,0-5.44.81q-2.06.81-2.06,3.87A4.28,4.28,0,0,0,467,66.35a21.39,21.39,0,0,0,4.19,2.94l8,4.76q5,3,6.93,5.8A11,11,0,0,1,488,86.23Z"/><path class="cls-2" d="M71,113.37"/><path class="cls-2" d="M42.18,113a2.26,2.26,0,0,1-.61-4.44L54,105H42.19a2.26,2.26,0,0,1,0-4.52H70.37a2.26,2.26,0,0,1,.61,4.44l-28.19,8A2.28,2.28,0,0,1,42.18,113Z"/><path class="cls-2" d="M42.18,123.58a2.26,2.26,0,0,1-.61-4.44l28.19-8A2.26,2.26,0,0,1,71,115.54l-28.19,8A2.27,2.27,0,0,1,42.18,123.58Z"/><path class="cls-2" d="M56.19,128.49a2.26,2.26,0,0,1-.61-4.44l2,.88c1.2-.34,4.45-1.64,4.79-.44a2.26,2.26,0,0,1-1.56,2.79l-4,1.12A2.25,2.25,0,0,1,56.19,128.49Z"/><path class="cls-2" d="M66.56,95.34H46.12a6.29,6.29,0,0,1-6.28-6.28V82.67a30.71,30.71,0,1,1,33-.21v6.6A6.29,6.29,0,0,1,66.56,95.34ZM56.18,30.52a26.17,26.17,0,0,0-13,48.91,2.26,2.26,0,0,1,1.14,2v7.67a1.76,1.76,0,0,0,1.76,1.76H66.56a1.76,1.76,0,0,0,1.76-1.76V81.2a2.26,2.26,0,0,1,1.11-1.95A26.16,26.16,0,0,0,56.18,30.52Z"/><path class="cls-2" d="M82,28a2,2,0,0,1-1.32-3.51l8-7a2,2,0,1,1,2.63,3l-8,7A2,2,0,0,1,82,28Z"/><path class="cls-2" d="M56,19.49a2,2,0,0,1-2-2V2a2,2,0,0,1,4,0V17.49A2,2,0,0,1,56,19.49Z"/><path class="cls-2" d="M96,51.69a2,2,0,0,1-.37-4l14-2.69a2,2,0,1,1,.75,3.93l-14,2.69A2,2,0,0,1,96,51.69Z"/><path class="cls-2" d="M30,28a2,2,0,0,1-1.32-.49l-8-7a2,2,0,0,1,2.63-3l8,7A2,2,0,0,1,30,28Z"/><path class="cls-2" d="M98,81.87a2,2,0,0,1-1.06-.3l-6-3.74a2,2,0,0,1,2.12-3.39l6,3.74A2,2,0,0,1,98,81.87Z"/><path class="cls-2" d="M14,80.87a2,2,0,0,1-1.06-3.7l6-3.75a2,2,0,0,1,2.12,3.39l-6,3.75A2,2,0,0,1,14,80.87Z"/><path class="cls-2" d="M16,51.69a2,2,0,0,1-.38,0L1.62,49A2,2,0,0,1,2.38,45l14,2.69a2,2,0,0,1-.37,4Z"/></svg>