<svg width="418" height="399" viewBox="0 0 418 399" fill="none" xmlns="http://www.w3.org/2000/svg">
<path d="M280.106 379.866L263.727 386.527C262.616 387.082 261.784 388.192 262.061 389.302C262.061 389.58 262.061 389.58 262.339 389.857L272.888 389.302L282.326 388.747L291.21 388.47C291.21 388.47 292.875 387.637 292.598 384.861C292.32 382.086 290.655 380.976 289.267 380.143C285.658 378.756 280.106 379.866 280.106 379.866Z" fill="#120A5A"/>
<path d="M352.283 384.306C352.283 390.412 348.674 395.963 344.51 395.963C342.012 395.963 341.179 387.359 341.179 381.531C341.179 375.425 344.51 374.315 347.009 374.315C349.23 374.315 352.283 378.478 352.283 384.306Z" fill="#120A5A"/>
<path d="M303.702 240.261L355.337 240.816V222.776C355.337 218.058 350.062 219.445 345.343 219.445H314.528C309.809 219.445 303.702 222.776 303.702 227.217V240.261Z" fill="#312A6F"/>
<path d="M354.505 384.585L338.126 385.14L331.463 240.817L355.338 227.217L354.505 384.585Z" fill="#312A6F"/>
<path d="M292.32 382.087H274.553L285.38 306.595L303.702 227.495L327.854 241.095L301.204 310.203L292.32 382.087Z" fill="#312A6F"/>
<path d="M328.687 130.077C328.409 130.077 327.299 130.077 326.743 130.077L324.8 197.798L328.687 201.961L332.573 197.798L328.687 130.077Z" fill="#2A226A"/>
<path d="M329.242 130.909L333.406 128.411L330.907 127.856H328.964L329.242 130.909Z" fill="#2A226A"/>
<path d="M326.188 130.909L322.024 128.411L324.523 127.579H326.466L326.188 130.909Z" fill="#2A226A"/>
<path d="M327.854 132.02C329.388 132.02 330.63 130.778 330.63 129.245C330.63 127.712 329.388 126.469 327.854 126.469C326.321 126.469 325.078 127.712 325.078 129.245C325.078 130.778 326.321 132.02 327.854 132.02Z" fill="#120A5A"/>
<path d="M331.74 133.686H322.579C319.248 133.686 317.583 125.914 317.583 123.417L316.472 108.152C316.472 105.654 319.248 103.711 322.579 103.711H331.74C335.072 103.711 337.848 105.654 337.848 108.152L336.737 123.417C336.737 125.914 335.072 133.686 331.74 133.686Z" fill="url(#paint0_linear)"/>
<path d="M344.233 74.568C342.845 84.5596 341.457 94.8287 340.069 105.098C339.514 109.816 337.015 113.979 333.129 113.979C329.242 113.979 325.356 113.979 321.469 113.979C317.305 113.979 314.807 109.816 314.529 105.098C313.974 101.212 313.419 97.0491 312.863 93.1634C312.031 87.0575 311.198 81.2291 310.365 75.4006C310.365 75.1231 310.365 74.8455 310.365 74.568C309.81 69.8497 313.974 65.409 319.804 65.1315C325.078 64.854 330.075 64.854 335.35 65.1315C340.624 65.409 344.788 69.8497 344.233 74.568Z" fill="#FDC3BB"/>
<path d="M248.181 147.285C247.903 147.285 247.626 147.007 247.348 147.007L202.376 125.081C198.489 123.139 200.432 118.698 202.376 114.812C204.319 110.927 205.429 108.706 209.593 110.649L252.067 131.187L297.317 122.029C301.759 121.196 305.09 124.804 303.98 128.967C301.759 135.628 296.762 151.448 292.32 152.281L252.623 147.84C250.957 148.118 249.569 147.84 248.181 147.285Z" fill="#740B99"/>
<path d="M337.015 120.085C338.403 128.689 327.021 130.909 326.188 130.909C324.245 130.909 314.807 127.856 317.305 121.195L297.04 122.305C288.156 124.248 288.989 148.95 301.204 181.145C303.147 186.696 300.371 220.556 304.535 224.442C308.699 228.327 349.507 228.327 355.06 224.997C356.725 223.887 359.224 215.005 358.113 207.512C354.782 189.194 368.662 129.799 378.101 118.142L337.015 120.085Z" fill="#740B99"/>
<path d="M327.854 133.685C327.577 133.685 325.633 133.685 325.078 133.685C318.416 141.179 322.58 199.463 325.911 202.238L331.463 205.569L335.072 201.128C329.242 194.467 322.857 140.346 327.854 133.685Z" fill="#F9757D"/>
<path d="M327.299 135.349L331.741 132.851L328.965 132.019H327.021L327.299 135.349Z" fill="#D9525B"/>
<path d="M324.245 135.349L320.081 132.851L322.857 132.019H324.523L324.245 135.349Z" fill="#D9525B"/>
<path d="M325.633 136.738C327.166 136.738 328.409 135.495 328.409 133.962C328.409 132.429 327.166 131.187 325.633 131.187C324.1 131.187 322.857 132.429 322.857 133.962C322.857 135.495 324.1 136.738 325.633 136.738Z" fill="#F9757D"/>
<path d="M325.633 130.91C328.964 133.13 334.794 137.294 335.904 141.179C335.904 141.179 343.677 127.58 340.901 119.808C339.791 118.421 336.737 118.421 337.015 119.808C335.904 126.469 332.018 127.857 325.633 130.91Z" fill="white"/>
<path d="M325.91 131.188C322.024 132.298 317.86 137.016 315.639 140.347C315.639 140.347 310.642 126.469 313.418 121.196C313.696 120.086 316.749 120.086 317.305 121.196C317.582 126.747 320.636 126.192 325.91 131.188Z" fill="white"/>
<path d="M344.511 91.7772C343.956 94.2751 342.846 95.9403 341.735 95.6628C340.625 95.3852 340.07 93.1649 340.625 90.667C341.18 88.1691 342.29 86.5038 343.401 86.7814C344.511 87.0589 345.067 89.2793 344.511 91.7772Z" fill="#FDC3BB"/>
<path d="M309.81 91.7772C310.365 94.2751 311.475 95.9403 312.586 95.6628C313.696 95.3852 314.252 93.1649 313.696 90.667C313.141 88.1691 312.031 86.5038 310.92 86.7814C309.81 87.0589 309.255 89.2793 309.81 91.7772Z" fill="#FDC3BB"/>
<path d="M340.624 93.7194C340.624 93.7194 340.902 93.4419 341.734 93.4419C343.678 87.6135 344.51 81.785 344.233 75.6791L341.457 74.8464L340.624 93.7194Z" fill="#B5825C"/>
<path d="M313.697 93.4416C313.697 93.4416 313.419 93.1641 312.587 93.1641C310.643 87.0581 309.811 81.2297 310.088 75.4012L312.864 74.5686L313.697 93.4416Z" fill="#B5825C"/>
<path d="M410.025 25.7209C412.801 25.7209 415.577 26.5536 415.3 29.0515L416.133 42.9287C416.133 45.7041 411.691 48.202 408.915 48.202C406.139 48.202 403.085 43.7613 403.085 40.9859L404.751 30.4392C405.028 27.6638 407.527 25.7209 410.025 25.7209Z" fill="#FDC3BB"/>
<path d="M408.638 29.884C407.805 30.7167 404.751 29.0514 403.918 28.2188L399.754 22.9454C397.256 19.3374 396.978 17.9496 397.533 17.3946L397.811 17.117C398.366 16.5619 400.032 17.117 402.253 19.8925L408.36 27.3861C409.193 28.2188 409.193 29.329 408.638 29.884Z" fill="#FDC3BB"/>
<path d="M415.855 34.8795L415.022 35.4346C412.801 37.0998 409.748 36.5448 408.082 34.3244L403.085 27.6633C401.42 25.443 401.975 22.39 404.196 20.7247L405.306 20.1696C407.527 18.5044 410.858 18.7819 412.524 21.0023L413.634 22.39L417.243 27.3858C418.631 29.3286 418.076 33.2142 415.855 34.8795Z" fill="url(#paint1_linear)"/>
<path d="M210.062 18.7925C212.603 17.6747 215.48 17.3191 216.231 19.7173L222.581 32.0845C223.699 34.625 220.639 38.6999 218.098 39.8177C215.557 40.9355 210.974 38.1002 209.856 35.5597L207.134 25.2351C206.271 22.5828 207.775 19.7985 210.062 18.7925Z" fill="#FDC3BB"/>
<path d="M207.922 20.5079C207.06 21.3096 204.069 19.5338 203.267 18.6713L199.298 13.2494C196.933 9.5524 196.707 8.15547 197.282 7.62104L197.569 7.35383C198.144 6.8194 199.789 7.43499 201.907 10.2897L207.736 18.0016C208.538 18.8641 208.497 19.9735 207.922 20.5079Z" fill="#FDC3BB"/>
<path d="M215.2 25.5043L214.358 26.0465C212.112 27.6773 209.067 27.0751 207.436 24.8294L202.543 18.092C200.911 15.8463 201.514 12.8022 203.76 11.1714L204.879 10.6335C207.125 9.00272 210.452 9.33163 212.083 11.5774L213.172 12.9821L216.703 18.033C218.061 19.9969 217.446 23.8735 215.2 25.5043Z" fill="url(#paint2_linear)"/>
<path d="M358.668 133.407C357.28 129.244 355.615 121.75 358.946 118.697L393.647 89.8329L401.698 40.9851C402.53 36.5444 406.139 37.6546 410.303 38.2097C414.745 39.0423 418.354 39.3199 417.521 43.483L408.915 95.1062C408.638 96.7715 407.805 98.4368 406.417 99.5469L368.662 148.117C365.331 151.448 360.057 138.681 358.668 133.407Z" fill="#740B99"/>
<path d="M341.457 77.0663C340.624 70.4053 313.696 63.7442 312.864 76.7888C310.92 77.0664 311.476 80.3969 310.088 79.8418C303.98 77.3439 300.094 64.5769 307.034 60.4137C318.693 57.9158 335.072 55.4179 342.568 63.4667C347.009 68.4625 345.899 73.7358 344.233 77.899C343.123 78.4541 341.457 77.0663 341.457 77.0663Z" fill="#D2905E"/>
<path d="M175.725 380.976L175.448 383.751C175.17 385.139 176.003 386.249 177.113 386.804L185.997 390.69L190.994 390.967C191.549 390.967 191.549 389.857 191.271 389.58L184.331 381.253H175.725V380.976Z" fill="#120A5A"/>
<path d="M142.691 381.533C144.079 381.533 144.634 387.362 143.246 388.749C143.246 388.749 126.589 397.076 121.037 395.688C115.485 394.3 129.643 385.974 131.031 384.309C132.419 382.643 131.586 381.533 131.586 381.533H142.691Z" fill="#120A5A"/>
<path d="M188.773 238.319H139.637V220.556C139.637 215.838 144.911 217.226 149.63 217.226H180.445C185.164 217.226 188.773 221.111 188.773 225.552V238.319Z" fill="#312A6F"/>
<path d="M189.051 383.476H172.394L165.732 237.488L188.495 223.611L189.051 383.476Z" fill="#312A6F"/>
<path d="M145.466 383.475L128.81 383.198L139.637 238.32L162.4 238.042L145.466 383.475Z" fill="#312A6F"/>
<path d="M55.5218 149.783C52.1905 147.563 54.689 145.065 56.9098 141.734C59.1307 138.404 59.9635 135.351 63.2948 137.293L101.327 166.991L120.482 132.02C122.147 128.135 126.034 124.804 127.977 125.359C131.864 126.469 131.309 154.224 129.92 157.832C120.204 170.876 105.769 182.811 102.437 183.921C97.9957 185.309 92.7212 176.982 55.5218 149.783Z" fill="#740B99"/>
<path d="M184.054 228.605C171.006 227.495 150.741 226.107 140.469 224.164C135.472 223.332 139.081 212.23 137.693 208.067C129.365 183.643 124.923 157.554 124.091 130.632C124.091 126.469 129.92 123.138 138.526 120.64C155.738 115.922 176.281 112.036 195.991 106.208C204.597 103.71 206.54 113.424 205.707 118.975C199.877 152.558 195.713 180.312 189.883 213.895C188.773 219.446 191.827 229.438 184.054 228.605Z" fill="#740B99"/>
<path d="M159.624 128.965C159.347 128.965 158.236 128.965 157.681 128.965L155.738 196.685L159.624 200.849L163.511 196.685L159.624 128.965Z" fill="white"/>
<path d="M160.18 129.799L164.344 127.301L161.568 126.468H159.625L160.18 129.799Z" fill="#2A226A"/>
<path d="M156.848 129.799L152.684 127.301L155.46 126.468H157.403L156.848 129.799Z" fill="#2A226A"/>
<path d="M158.791 130.909C160.324 130.909 161.567 129.666 161.567 128.134C161.567 126.601 160.324 125.358 158.791 125.358C157.258 125.358 156.015 126.601 156.015 128.134C156.015 129.666 157.258 130.909 158.791 130.909Z" fill="#CACACA"/>
<path d="M163.511 126.746H152.407C148.52 126.746 146.299 122.861 146.299 118.142L145.189 87.6126C145.189 82.8944 148.52 79.0088 152.407 79.0088H163.511C167.398 79.0088 170.729 82.8944 170.729 87.6126L169.618 118.142C169.618 122.583 167.398 126.746 163.511 126.746Z" fill="#FDC3BB"/>
<path d="M164.622 112.314H151.296C146.577 112.314 144.079 108.428 144.079 103.71L142.691 73.18C142.691 68.4618 146.577 64.5762 151.296 64.5762H164.622C169.341 64.5762 173.227 68.4618 173.227 73.18L171.839 103.71C171.839 108.428 169.341 112.314 164.622 112.314Z" fill="#FDC3BB"/>
<path d="M158.514 126.468C162.401 127.856 168.786 130.631 170.729 134.239C170.729 134.239 174.893 118.697 170.729 112.036L167.675 113.146C167.953 119.807 164.066 122.027 158.514 126.468Z" fill="white"/>
<path d="M158.792 126.468C155.183 128.411 150.463 131.742 149.075 135.627C149.075 135.627 141.858 124.525 143.523 118.697L146.577 116.754C147.965 122.305 152.684 122.86 158.792 126.468Z" fill="white"/>
<path d="M172.672 87.0565C172.672 92.6073 171.839 95.1052 169.063 97.6031C167.397 98.9909 160.18 95.9379 157.959 96.2154C156.016 95.9379 148.52 98.9909 146.855 97.6031C144.079 95.3828 143.246 92.6073 143.246 87.0565C140.47 85.3912 141.858 96.2154 142.69 101.211C143.246 105.097 143.246 108.982 145.467 112.313C147.132 115.088 149.631 117.031 152.129 117.031C154.35 117.864 156.293 118.419 157.959 118.696C159.624 118.419 161.568 118.141 163.789 117.031C166.287 117.031 168.508 115.088 170.451 112.313C172.672 108.982 172.672 105.097 173.227 101.211C173.782 96.2154 175.17 85.1137 172.672 87.0565Z" fill="#2A226A"/>
<path d="M143.246 89.5563C141.58 89.5563 136.861 79.0097 136.861 72.0711C136.861 65.1325 139.36 62.9121 141.025 62.9121C142.691 62.9121 142.968 67.3528 142.968 74.2914C142.691 81.23 143.801 89.5563 143.246 89.5563Z" fill="#120A5A"/>
<path d="M173.227 89.2779C171.839 89.2779 172.672 77.8986 169.341 65.9642C167.398 59.3031 170.729 58.748 173.783 58.748C176.836 58.748 179.89 60.4133 178.779 67.0744C176.836 77.8986 176.281 89.2779 173.227 89.2779Z" fill="#120A5A"/>
<path d="M175.448 87.0565C174.893 89.5544 173.782 91.2196 172.672 90.9421C171.562 90.6645 171.006 88.4442 171.562 85.9463C172.117 83.4484 173.227 81.7831 174.338 82.0607C175.448 82.3382 175.726 84.5586 175.448 87.0565Z" fill="#FDC3BB"/>
<path d="M140.469 87.0569C141.025 89.5548 142.135 91.2201 143.245 90.9426C144.356 90.665 144.911 88.4447 144.356 85.9468C143.801 83.4489 142.69 81.7836 141.58 82.0612C140.469 82.3387 140.192 84.5591 140.469 87.0569Z" fill="#FDC3BB"/>
<path d="M176.003 59.0249C176.003 60.6902 173.227 62.9105 169.341 65.4084C163.511 69.0165 155.183 72.9021 148.798 75.1225C147.41 75.9551 145.744 76.5102 143.801 76.7877C142.968 76.7877 142.135 77.0653 141.025 77.0653C134.918 77.0653 128.81 74.2898 128.81 70.6818C128.81 68.4614 131.031 67.6288 134.085 67.3512C134.085 65.9635 134.085 64.8533 134.085 63.7432C134.085 59.3025 140.47 55.6944 147.965 55.6944C148.243 55.6944 148.52 55.6944 149.076 55.6944C151.296 52.3639 156.293 49.866 162.123 49.866C169.896 49.866 176.003 54.0291 176.003 59.0249Z" fill="#2A226A"/>
<path d="M169.341 65.687C163.511 69.2951 155.183 73.1807 148.798 75.4011C147.41 76.2337 145.745 76.7888 143.801 77.0663C138.804 76.2337 131.864 73.7358 131.864 71.5154C131.864 69.8502 133.53 69.2951 135.751 69.0175C135.751 68.1849 135.751 67.0747 135.751 66.5196C135.751 63.1891 140.47 60.6912 146.022 60.6912C146.3 60.6912 146.577 60.6912 146.855 60.6912C148.521 58.1933 153.24 54.8628 157.682 54.8628C162.956 54.5852 171.562 56.8056 169.341 65.687Z" fill="#120A5A"/>
<path d="M201.543 139.513L186.552 108.983L223.196 73.1799L208.761 32.936L220.976 27.9402L239.298 72.6248C240.408 75.4002 240.131 78.7308 238.187 81.2287L201.543 139.513Z" fill="#740B99"/>
<path d="M284.547 140.902C284.547 143.122 283.715 145.342 282.882 147.563C281.771 150.893 281.494 153.669 282.327 156.999C283.159 160.33 283.715 163.938 283.159 167.268C282.327 172.264 278.995 176.15 275.109 179.203C271.222 181.978 266.503 183.921 261.784 185.586C259.285 186.419 250.957 189.749 250.679 184.754C250.679 183.366 251.235 182.256 251.235 180.868C251.235 178.37 249.569 175.872 247.071 174.484C244.85 173.097 242.351 172.542 239.853 171.709C237.354 170.876 234.856 169.489 233.468 167.268C231.525 163.938 233.468 160.607 234.023 156.999C234.578 153.391 233.19 150.893 230.692 148.395C228.749 146.453 226.25 145.065 224.862 142.567C223.474 140.069 223.196 137.016 223.752 134.241C224.307 131.188 226.25 128.412 226.25 125.359C226.25 122.029 224.029 118.698 223.196 115.09C221.808 108.984 222.086 99.8251 227.083 95.1069C233.19 89.556 242.351 86.503 249.847 89.0009C262.061 93.1641 260.951 100.38 264.837 103.711C267.891 106.764 272.333 108.429 275.109 111.76C278.718 116.2 272.055 122.029 275.109 127.024C276.219 128.967 278.163 130.355 279.828 131.743C281.494 133.13 283.437 134.796 284.27 136.738C284.548 138.404 284.825 139.791 284.547 140.902Z" fill="#5D3DB2"/>
<path d="M250.402 169.211C247.903 167.823 244.017 167.546 242.351 165.325C240.408 163.105 241.796 160.329 241.796 157.554C241.796 149.783 231.247 148.117 228.748 141.734C227.083 137.848 230.692 132.853 230.969 128.689C230.969 123.416 227.638 121.473 225.695 117.033C223.751 112.869 227.083 106.486 229.581 102.878C230.969 100.935 232.912 99.5473 235.411 99.2697C241.518 98.4371 247.626 102.878 252.345 107.041C254.843 109.261 259.007 109.539 260.396 113.147C261.228 115.09 260.951 117.31 260.951 119.253C260.673 126.192 266.503 127.579 272.055 132.02C277.607 136.461 273.721 139.514 273.165 144.232C271.777 154.779 289.544 157.832 276.497 175.317C274.553 177.815 269.834 180.035 266.78 180.035C259.007 180.313 262.616 175.872 250.402 169.211Z" fill="#4B27A9"/>
<path d="M259.841 145.342L250.124 142.844C247.626 142.844 241.241 143.122 238.187 143.4L229.304 145.62V162.273H259.563V145.342H259.841Z" fill="#FDC3BB"/>
<path d="M244.295 151.449C240.963 151.449 238.465 148.673 238.465 145.62V133.963C238.465 130.633 241.241 128.135 244.295 128.135C247.626 128.135 250.125 130.91 250.125 133.963V145.62C250.125 148.673 247.348 151.449 244.295 151.449Z" fill="url(#paint3_linear)"/>
<path d="M259.007 114.257C259.007 124.804 251.234 138.681 244.016 138.681C237.076 138.681 229.025 124.804 229.025 114.257C229.025 103.711 236.798 99.5474 244.016 99.5474C251.234 99.5474 259.007 103.433 259.007 114.257Z" fill="#FDC3BB"/>
<path d="M212.092 103.988C212.092 105.931 214.59 112.315 218.477 114.813C222.086 117.588 227.083 116.478 232.357 111.76C237.632 107.041 242.351 103.988 245.96 103.711C249.569 102.878 251.79 105.099 251.79 102.323C251.79 100.38 250.402 93.7193 246.793 91.2214C243.184 88.446 233.468 87.8909 228.193 92.6092C222.919 97.3274 222.086 101.491 218.477 102.046C214.868 102.601 211.814 101.491 212.092 103.988Z" fill="#4B27A9"/>
<path d="M270.944 116.2C270.112 117.311 266.503 120.086 263.727 120.364C260.673 120.641 258.452 118.421 256.786 114.258C255.398 109.817 253.733 106.486 251.79 105.099C250.124 103.433 247.903 103.988 249.013 102.601C249.846 101.491 253.178 98.7151 255.954 98.4375C259.007 98.16 261.228 100.38 262.894 104.544C264.282 108.984 265.948 112.315 267.891 113.702C269.834 115.09 271.777 114.813 270.944 116.2Z" fill="#4B27A9"/>
<path d="M270.389 228.05L256.786 312.424C261.228 331.297 258.73 338.235 255.398 384.03C254.843 386.805 254.565 394.577 254.565 394.854C254.01 398.185 252.067 398.462 251.512 398.462C249.013 398.462 252.622 394.021 252.345 385.14C249.846 283.559 251.234 307.428 242.073 229.16C242.351 225.83 261.783 228.328 265.115 227.495C268.723 226.385 270.944 224.72 270.389 228.05Z" fill="#FDC3BB"/>
<path d="M254.843 392.357C255.398 397.908 252.067 398.74 251.512 398.74C250.679 398.74 250.401 398.463 250.957 396.52C250.957 396.242 251.234 395.965 251.234 395.687C251.234 396.242 251.512 396.52 251.512 396.52C253.178 396.52 254.288 394.577 254.843 392.357Z" fill="#120A5A"/>
<path d="M237.91 392.634C238.465 392.634 242.629 391.524 242.629 389.581C242.629 388.193 244.572 383.752 244.85 379.312C239.853 307.983 234.856 311.868 233.468 305.762L247.071 234.989C247.904 231.658 245.683 228.605 242.629 227.773C239.575 226.94 225.973 224.997 225.14 228.328C224.585 262.188 222.086 288.555 225.14 308.26C229.582 337.68 237.632 355.998 241.796 379.034C241.241 382.087 240.686 384.03 239.575 390.413C239.575 391.246 237.91 392.634 237.91 392.634Z" fill="#E6B1A9"/>
<path d="M244.85 379.036C242.629 380.701 242.907 386.53 241.796 389.305C240.686 392.081 239.575 392.081 238.742 391.526C238.742 391.526 236.799 392.913 236.522 393.191C236.244 393.468 236.522 394.024 237.077 393.746C239.02 393.468 243.184 392.081 243.462 390.971C243.739 389.583 243.462 385.142 244.572 384.032C245.96 382.922 246.238 382.644 246.238 381.257C246.515 379.869 244.85 379.036 244.85 379.036Z" fill="#120A5A"/>
<path d="M246.238 390.97H245.405L245.127 382.921L246.515 381.811L246.238 390.97Z" fill="#120A5A"/>
<path d="M240.13 378.756L247.348 377.368C247.348 377.368 242.628 329.076 234.578 304.929L251.512 223.609L223.751 224.997L222.085 304.097L240.13 378.756Z" fill="#251E67"/>
<path d="M268.446 219.447C268.446 219.447 273.165 228.605 272.888 239.707C272.61 250.809 261.228 315.199 261.228 315.199L257.619 386.528H250.679L249.013 316.032L242.351 228.883L268.446 219.447Z" fill="#312A6F"/>
<path d="M185.164 148.117C182.666 149.505 182.943 152.003 184.331 154.223L189.883 166.435C191.271 168.933 194.325 169.766 196.824 168.378C199.322 166.99 195.435 158.941 194.047 156.443L190.994 142.844C189.606 140.623 187.662 146.729 185.164 148.117Z" fill="#FDC3BB"/>
<path d="M187.385 149.783H187.663C188.496 150.06 190.439 147.007 190.717 145.897L191.549 138.958C192.105 134.518 192.105 132.852 191.272 132.852H190.994C190.161 132.575 189.051 133.963 188.218 137.571L185.997 147.562C185.997 148.395 186.552 149.505 187.385 149.783Z" fill="#FDC3BB"/>
<path d="M185.164 155.057H185.997C188.773 155.335 190.439 152.004 190.716 149.506L191.549 145.065C191.827 142.845 189.884 140.347 187.108 140.07H185.997C183.221 139.792 180.445 140.07 180.167 142.567C179.89 144.233 180.167 145.898 180.167 148.118C180.723 151.449 182.388 154.502 185.164 155.057Z" fill="url(#paint4_linear)"/>
<path d="M213.48 191.138L196.268 158.388C194.88 155.612 192.382 157.278 189.883 158.665C187.107 160.053 185.164 161.163 186.552 163.661C187.663 165.604 200.988 189.195 204.597 195.301C207.65 199.464 211.814 196.411 213.48 191.138Z" fill="#F9757D"/>
<path d="M226.25 171.154C227.638 168.379 230.136 148.395 227.36 147.008C224.584 145.62 220.142 146.175 215.978 154.779L202.653 189.749L202.375 190.305C204.319 193.357 205.984 195.3 208.76 196.688C209.038 196.41 213.48 197.521 226.25 171.154Z" fill="#F9757D"/>
<path d="M271.222 241.095C265.947 244.426 236.799 246.924 226.805 242.206C218.199 238.32 219.587 229.994 226.527 208.9C229.026 201.407 227.915 197.243 225.417 187.252C224.306 182.256 220.698 180.036 219.587 171.987C218.754 166.436 225.139 161.995 223.751 150.894V147.008L232.079 145.065C233.467 150.616 235.133 158.942 241.24 159.22C249.291 159.497 256.231 148.951 258.174 145.065L268.168 147.563L269.556 171.154L261.228 199.741C259.007 216.116 289.544 228.606 271.222 241.095Z" fill="#FA8F96"/>
<path d="M259.007 228.883L241.241 224.997C239.02 224.442 237.354 222.221 237.632 220.001L240.13 188.361C240.408 185.863 242.629 184.198 245.405 184.475L267.891 186.973C270.667 187.251 272.055 189.471 271.5 191.969L263.727 225.274C263.172 227.772 261.228 229.438 259.007 228.883Z" fill="white"/>
<path d="M236.244 214.173L240.408 214.451C243.461 214.451 244.017 213.896 244.294 212.231V211.953C244.572 210.288 243.461 208.623 241.796 208.345L237.076 207.512C235.411 207.235 234.856 208.9 234.856 210.565C234.856 213.063 235.133 213.896 236.244 214.173Z" fill="#FDC3BB"/>
<path d="M242.073 214.45L249.013 213.895C252.9 213.895 252.9 207.511 249.291 207.511C241.518 209.731 238.464 209.176 238.742 211.397C238.742 213.062 240.13 214.45 242.073 214.45Z" fill="#FDC3BB"/>
<path d="M251.79 214.729L287.879 206.68C289.544 206.403 290.655 205.293 291.487 203.905C292.32 202.517 292.32 200.852 291.765 199.187L278.44 159.776C277.33 156.723 271.5 145.898 268.446 147.009C265.392 148.119 264.56 166.437 269.279 180.036L278.162 195.301L248.736 205.293C245.682 206.125 246.515 208.346 247.348 211.399C247.903 214.452 248.736 215.562 251.79 214.729Z" fill="#F9757D"/>
<path d="M80.2284 80.3965C93.8311 81.5067 110.21 102.6 106.323 119.253C106.046 120.918 105.491 122.306 104.935 123.693C110.21 128.134 113.264 135.905 111.876 144.232C116.873 146.174 119.926 152.28 118.261 158.386L117.983 160.052C116.595 166.713 110.488 171.153 104.658 169.766L103.27 169.488C99.9385 168.656 97.44 166.158 96.052 163.105C93.5535 163.937 90.7775 163.937 88.0014 163.382C79.6732 161.439 74.121 153.391 73.8434 144.232C73.5658 144.232 73.2882 144.232 73.0106 144.232C58.575 140.901 54.6886 130.354 58.2974 113.702C54.1333 112.869 53.0229 106.208 54.9662 102.323C61.6287 89.0004 68.0137 79.5639 80.2284 80.3965Z" fill="#FA9298"/>
<path d="M106.601 163.106C106.323 163.106 106.046 163.106 105.768 163.106C102.437 162.551 101.327 158.11 100.771 155.335C97.1624 155.612 93.8312 157.833 89.9447 157C84.6701 155.89 81.0612 150.339 80.7836 143.955L80.506 138.682C74.1211 137.572 58.2975 137.017 64.1272 111.76C64.6824 110.095 63.2944 108.707 60.2407 107.597C58.5751 107.042 56.9094 101.769 57.187 101.214C62.184 90.9445 72.1778 82.6182 79.3956 82.6182C79.6732 82.6182 79.9508 82.6182 79.9508 82.6182C83.5597 82.8957 88.279 86.5038 92.4431 92.0547C98.5505 100.381 101.882 110.65 100.216 117.589C99.6609 119.532 99.3833 120.919 97.4401 125.637L101.049 128.69C104.103 131.188 105.768 135.074 105.768 138.96C105.768 140.625 105.768 142.568 105.491 144.233C105.213 145.343 104.38 148.119 105.491 148.674C105.768 148.951 106.323 148.951 106.601 148.951C109.932 149.506 112.431 152.282 112.431 155.612C112.431 158.11 111.32 160.608 109.377 161.996C108.822 162.828 107.712 163.106 106.601 163.106Z" fill="#F9757D"/>
<path d="M104.935 229.438C99.1055 202.516 96.3294 196.133 94.9414 188.639C93.5534 180.868 94.1086 172.264 90.7773 143.399C90.4997 140.346 92.1653 138.404 94.9414 137.848C97.9951 137.571 102.159 139.236 102.992 148.673L104.102 186.141L115.762 226.94C116.317 229.993 113.819 230.271 110.765 231.103C107.711 231.658 105.49 232.491 104.935 229.438Z" fill="#FEC959"/>
<path d="M78.5629 378.202C79.3957 381.81 81.0613 386.251 81.3389 390.692C83.2822 392.079 86.6135 391.802 85.503 390.137C84.6702 387.639 81.6165 380.978 81.6165 379.035C83.2822 324.636 83.8374 311.869 84.9478 297.714L73.0107 296.604L74.1212 306.041C69.6794 324.914 75.5092 332.407 78.5629 378.202Z" fill="#E6B1A9"/>
<path d="M78.5623 378.201C80.7831 379.866 80.7832 385.972 81.8936 388.748C83.2816 391.523 84.6697 391.246 85.2249 390.691C85.5025 390.413 85.5025 390.413 85.5025 390.136L87.1681 392.633C87.4457 392.911 87.1681 393.466 86.6129 393.189C84.6697 392.911 80.7832 392.356 80.5055 391.246C80.2279 389.858 79.9503 384.585 78.8399 383.197C77.4519 382.087 77.1743 381.532 77.1743 380.422C77.1743 378.756 78.5623 378.201 78.5623 378.201Z" fill="#120A5A"/>
<path d="M79.6733 390.969H79.3957L77.73 381.255L79.1181 382.087L79.6733 390.969Z" fill="#120A5A"/>
<path d="M72.1779 379.311C73.0107 382.919 74.6763 387.36 74.9539 391.8C76.8972 393.188 80.2285 392.91 79.118 391.245C78.2852 388.747 75.2315 382.086 75.2315 380.143C76.8972 325.745 77.4524 312.978 78.5628 298.823L66.6257 297.713L67.7361 307.149C63.2944 326.022 68.8466 333.239 72.1779 379.311Z" fill="#FDC3BB"/>
<path d="M72.1778 379.312C74.3986 380.977 74.3986 387.083 75.5091 389.858C76.8971 392.634 78.2851 392.356 78.8404 391.801C79.118 391.523 79.118 391.524 79.118 390.968L80.7836 393.466C81.0612 393.744 80.7836 394.299 80.2284 394.021C78.2851 393.744 74.3986 393.189 74.121 392.079C73.8434 390.691 73.5658 385.418 72.4554 384.03C71.0674 382.92 70.7898 382.365 70.7898 381.254C70.5121 379.589 72.1778 379.312 72.1778 379.312Z" fill="#120A5A"/>
<path d="M73.2885 392.08H72.7332L71.3452 382.366L72.7332 383.198L73.2885 392.08Z" fill="#120A5A"/>
<path d="M65.2375 201.961C65.2375 201.961 48.5811 208.345 52.7452 235.544C57.1869 262.743 66.6256 304.097 66.6256 304.097C71.9001 308.816 79.9507 306.04 84.67 303.265L96.0519 223.055L94.6639 205.292L70.2345 203.071L65.2375 201.961Z" fill="#120A5A"/>
<path d="M78.8401 140.903C75.5088 140.903 73.0103 138.128 73.0103 135.075V123.418C73.0103 120.087 75.7864 117.589 78.8401 117.589C82.1713 117.589 84.6698 120.365 84.6698 123.418V135.075C84.9474 138.405 82.1713 140.903 78.8401 140.903Z" fill="url(#paint5_linear)"/>
<path d="M93.8303 103.989C93.8303 114.536 86.0573 128.413 78.8395 128.413C71.6217 128.413 63.8488 114.536 63.8488 103.989C63.8488 93.4422 71.6217 89.2791 78.8395 89.2791C86.0573 89.2791 93.8303 93.1647 93.8303 103.989Z" fill="#FDC3BB"/>
<path d="M97.1619 220.559C80.5055 207.237 64.4043 229.441 52.7448 223.612C38.0316 216.119 69.6788 195.858 68.2908 188.642L54.4104 158.667L52.1895 136.464L73.0101 134.243C75.7861 140.072 85.2248 139.794 84.9472 134.521L93.2754 137.019C95.7738 137.851 97.7171 139.517 98.8275 142.014C100.771 146.455 100.493 147.843 103.269 153.116C106.323 158.667 102.992 163.663 100.771 168.104C91.3321 188.087 99.1051 221.947 97.1619 220.559Z" fill="#FED377"/>
<path d="M4.99696 71.7936C2.49849 72.9038 2.22089 75.4017 3.33131 77.8996L7.77303 90.3891C8.88345 92.887 10.2715 93.1645 15.546 90.6666C18.0445 89.5565 11.9371 79.0098 10.8267 76.5119L11.1043 67.0754C10.2715 64.5775 7.49542 70.6835 4.99696 71.7936Z" fill="#FDC3BB"/>
<path d="M8.32828 74.0134H8.60589C9.43871 74.0134 11.1044 70.9604 11.382 69.8502L11.6596 62.9116C11.6596 58.4709 11.382 56.8057 10.5491 56.8057H10.2715C9.43871 56.8057 8.32828 58.1934 8.05067 61.8015L6.94025 71.793C6.94025 72.9032 7.49546 74.0134 8.32828 74.0134Z" fill="#FDC3BB"/>
<path d="M4.44171 78.4547L5.27453 78.7323C8.0506 79.2873 9.99385 75.9568 10.5491 73.7365L11.3819 69.5733C11.9371 67.353 10.2715 64.8551 7.49539 64.3L6.38496 64.0224C3.60889 63.4673 0.832821 63.7449 0.277607 65.9652C0 67.0754 0 69.0182 0 71.2386C0.277607 74.5691 1.66564 77.8996 4.44171 78.4547Z" fill="url(#paint6_linear)"/>
<path d="M29.1489 117.035L14.7133 82.8969C13.6029 80.1215 11.9372 81.2317 9.16117 82.3419C6.3851 83.452 4.16425 84.2847 5.55228 87.0601C6.3851 89.0029 17.4894 114.815 20.2655 121.198C20.5431 122.586 26.928 122.031 29.1489 117.035Z" fill="#FEC959"/>
<path d="M53.8562 136.462C56.3546 138.404 55.7994 155.89 54.4114 158.388C53.8562 159.22 48.8593 155.057 42.4743 148.118L23.0418 125.36L20.2657 121.474C22.7642 119.254 27.2059 117.866 29.1492 117.311C29.4268 117.589 37.1998 123.417 53.8562 136.462Z" fill="#FEC959"/>
<path d="M88.2792 92.8872C88.2792 92.8872 68.8467 113.425 56.9096 108.985C45.2501 104.266 58.2976 74.5693 81.6166 76.5121C99.9387 77.8998 108.267 105.654 101.049 109.817C95.2193 113.425 88.2792 92.8872 88.2792 92.8872Z" fill="#FA848B"/>
<path d="M59.4079 135.907L58.2975 133.686C57.1871 131.188 55.5214 130.911 53.3006 131.466L52.1901 131.743C49.9693 132.021 48.8589 132.298 49.1365 134.241V139.237C49.4141 141.457 51.6349 145.343 53.8558 145.065L54.411 144.788C55.799 144.233 56.9095 142.568 56.6319 140.902C56.3542 136.739 58.2975 136.462 59.4079 135.907Z" fill="#FFD3CC"/>
<defs>
<linearGradient id="paint0_linear" x1="327.149" y1="105.926" x2="327.149" y2="133.908" gradientUnits="userSpaceOnUse">
<stop stop-color="#C79993"/>
<stop offset="0.2211" stop-color="#D7A59F"/>
<stop offset="0.6154" stop-color="#FDC3BB"/>
</linearGradient>
<linearGradient id="paint1_linear" x1="414.938" y1="24.0158" x2="405.767" y2="31.3613" gradientUnits="userSpaceOnUse">
<stop offset="0.5297" stop-color="#FDC3BB"/>
<stop offset="0.5401" stop-color="#FCC2BA"/>
<stop offset="1" stop-color="#DCA9A2"/>
</linearGradient>
<linearGradient id="paint2_linear" x1="214.45" y1="14.6279" x2="205.167" y2="21.831" gradientUnits="userSpaceOnUse">
<stop offset="0.5297" stop-color="#FDC3BB"/>
<stop offset="0.5401" stop-color="#FCC2BA"/>
<stop offset="1" stop-color="#DCA9A2"/>
</linearGradient>
<linearGradient id="paint3_linear" x1="244.163" y1="127.871" x2="244.163" y2="151.389" gradientUnits="userSpaceOnUse">
<stop stop-color="#C79993"/>
<stop offset="0.2211" stop-color="#D7A59F"/>
<stop offset="0.6154" stop-color="#FDC3BB"/>
</linearGradient>
<linearGradient id="paint4_linear" x1="179.369" y1="148.867" x2="195.258" y2="145.104" gradientUnits="userSpaceOnUse">
<stop offset="0.5297" stop-color="#FDC3BB"/>
<stop offset="0.5401" stop-color="#FCC2BA"/>
<stop offset="1" stop-color="#DCA9A2"/>
</linearGradient>
<linearGradient id="paint5_linear" x1="78.9528" y1="117.523" x2="78.9528" y2="141.041" gradientUnits="userSpaceOnUse">
<stop stop-color="#C79993"/>
<stop offset="1" stop-color="#FDC3BB"/>
</linearGradient>
<linearGradient id="paint6_linear" x1="-2.47997" y1="69.9296" x2="13.6589" y2="72.4067" gradientUnits="userSpaceOnUse">
<stop offset="0.5297" stop-color="#FDC3BB"/>
<stop offset="0.5401" stop-color="#FCC2BA"/>
<stop offset="1" stop-color="#DCA9A2"/>
</linearGradient>
</defs>
</svg>
