<svg width="14" height="14" viewBox="0 0 14 14" fill="none" xmlns="http://www.w3.org/2000/svg">
<path opacity="0.2" fill-rule="evenodd" clip-rule="evenodd" d="M7 14C10.866 14 14 10.866 14 7C14 3.13401 10.866 0 7 0C3.13401 0 0 3.13401 0 7C0 10.866 3.13401 14 7 14Z" fill="#740B99"/>
<path opacity="0.4" fill-rule="evenodd" clip-rule="evenodd" d="M7.00011 12.1066C9.82038 12.1066 12.1067 9.82029 12.1067 7.00002C12.1067 4.17975 9.82038 1.89346 7.00011 1.89346C4.17984 1.89346 1.89355 4.17975 1.89355 7.00002C1.89355 9.82029 4.17984 12.1066 7.00011 12.1066Z" fill="#740B99"/>
<path fill-rule="evenodd" clip-rule="evenodd" d="M7.00021 9.9836C8.64801 9.9836 9.98382 8.6478 9.98382 6.99999C9.98382 5.35219 8.64801 4.01639 7.00021 4.01639C5.35241 4.01639 4.0166 5.35219 4.0166 6.99999C4.0166 8.6478 5.35241 9.9836 7.00021 9.9836Z" fill="#740B99"/>
</svg>
