<svg width="1210" height="390" viewBox="0 0 1210 390" fill="none" xmlns="http://www.w3.org/2000/svg">
<g opacity="0.3">
<path opacity="0.2" fill-rule="evenodd" clip-rule="evenodd" d="M914.528 497.527C1085.46 326.595 1085.46 49.4594 914.528 -121.473C743.596 -292.405 466.46 -292.405 295.527 -121.473C124.595 49.4594 124.595 326.595 295.527 497.527C466.46 668.46 743.596 668.46 914.528 497.527Z" fill="#FBB640"/>
<path opacity="0.4" fill-rule="evenodd" clip-rule="evenodd" d="M830.81 413.81C955.506 289.114 955.506 86.9409 830.81 -37.7555C706.113 -162.452 503.94 -162.452 379.244 -37.7555C254.547 86.9409 254.547 289.114 379.244 413.81C503.94 538.507 706.113 538.507 830.81 413.81Z" fill="#FBB640"/>
<path fill-rule="evenodd" clip-rule="evenodd" d="M736.946 319.945C809.802 247.089 809.802 128.966 736.946 56.1092C664.089 -16.7471 545.966 -16.7471 473.11 56.1092C400.253 128.966 400.253 247.089 473.11 319.945C545.966 392.802 664.089 392.802 736.946 319.945Z" fill="#FBB640"/>
</g>
</svg>
