<svg id="Layer_1" data-name="Layer 1" xmlns="http://www.w3.org/2000/svg" viewBox="0 0 58.91 55.5"><defs><style>.cls-1{fill:#632e8c;}</style></defs><title>dsp-viewability</title><path class="cls-1" d="M58.78,44a.75.75,0,0,0-1-.21C47.47,50.65,38.07,54,29,54c-8.82,0-17.93-3.15-27.85-9.63a.75.75,0,0,0-.82,1.26C10.52,52.27,19.9,55.5,29,55.5c9.36,0,19-3.43,29.56-10.48A.75.75,0,0,0,58.78,44Z"/><path class="cls-1" d="M.75,10.38a.75.75,0,0,0,.39-.11C10.51,4.45,19.89,1.5,29,1.5s18.42,2.93,27.75,8.7a.75.75,0,1,0,.79-1.28C48,3,38.38,0,29,0S10,3,.35,9a.75.75,0,0,0,.4,1.39Z"/><path class="cls-1" d="M24,27.51a5,5,0,0,0,.3,1.71.75.75,0,0,0,1.41-.51,3.5,3.5,0,1,1,2.41,2.2.75.75,0,1,0-.37,1.45A5,5,0,1,0,24,27.51Z"/><path class="cls-1" d="M8.08,27.51A20.93,20.93,0,1,0,29,6.58,21,21,0,0,0,8.08,27.51Zm40.36,0A19.43,19.43,0,1,1,29,8.08,19.45,19.45,0,0,1,48.45,27.51Z"/><path class="cls-1" d="M33.72,15.35a13.12,13.12,0,0,1,6.48,5.46A.75.75,0,0,0,41.49,20,14.63,14.63,0,0,0,34.26,14a.75.75,0,0,0-.54,1.4Z"/></svg>