<svg id="Layer_1" data-name="Layer 1" xmlns="http://www.w3.org/2000/svg" viewBox="0 0 61.49 65.86"><defs><style>.cls-1{fill:#6b2e87;}</style></defs><title>dsp-targeting</title><path class="cls-1" d="M39.4,36.93A10.55,10.55,0,0,1,38.51,38a.75.75,0,0,0,1.09,1,12.21,12.21,0,0,0,1-1.24h0a12.14,12.14,0,0,0-9.87-19.19,12.17,12.17,0,0,0-9.85,5.05.75.75,0,0,0,1.22.88,10.63,10.63,0,0,1,19.27,6.21,10.56,10.56,0,0,1-2,6.19Z"/><path class="cls-1" d="M48.72,40.38a.75.75,0,0,0,.67-.42c.11-.23.22-.46.33-.7h0a20.83,20.83,0,0,0-1.86-20.33.75.75,0,0,0-1.23.85,19.32,19.32,0,0,1,1.73,18.86h0c-.1.22-.2.43-.31.65a.75.75,0,0,0,.67,1.08Z"/><path class="cls-1" d="M61.49,30.75A30.75,30.75,0,1,0,29.7,61.47l.07.18a12.76,12.76,0,0,1,.94,3.51.75.75,0,0,0,.75.69H43.71a.75.75,0,0,0,.75-.74,7.37,7.37,0,0,1,.71-3.85C47.28,56.5,47,49.12,47,48.84c0,0,0-4,0-5.23a3,3,0,0,0-1.44-2.73,2.94,2.94,0,0,0-2.91,0,2.79,2.79,0,0,0-.66.54,2.79,2.79,0,0,0-.66-.53,3,3,0,0,0-3,0,2.67,2.67,0,0,0-.59.48,2.88,2.88,0,0,0-.64-.52,3.05,3.05,0,0,0-3-.07c0-3.67,0-7.63,0-9.66a3.38,3.38,0,0,0-1.57-3.07,2.93,2.93,0,0,0-2.93,0A3.4,3.4,0,0,0,28,31.15c0,1.26,0,2.88-.08,4.71,0,1.57-.08,3.3-.1,5.1a10.67,10.67,0,0,1-7.68-10.21c0-.28,0-.55,0-.82a.75.75,0,0,0-1.5-.12c0,.31,0,.62,0,.93A12.17,12.17,0,0,0,27.77,42.5c0,2.4,0,4.89.11,7.31A19.29,19.29,0,1,1,40.62,14.17a.75.75,0,0,0,.77-1.29A20.79,20.79,0,1,0,28,51.34a42.45,42.45,0,0,0,1.24,8.61A29.24,29.24,0,1,1,60,30.75a29,29,0,0,1-9,21.12h0a29.64,29.64,0,0,1-2.39,2.06.75.75,0,1,0,.92,1.19A30.82,30.82,0,0,0,52,53h0A30.48,30.48,0,0,0,61.49,30.75ZM29.39,35.9c0-1.85.08-3.48.08-4.75a1.93,1.93,0,0,1,.83-1.78,1.43,1.43,0,0,1,1.42,0,1.91,1.91,0,0,1,.83,1.77c0,2.27,0,7,0,11v1.19c0,.11,0,.22,0,.33l0,5.23a.75.75,0,0,0,.75.75h0a.75.75,0,0,0,.75-.75v-5.5a1.5,1.5,0,0,1,.71-1.24,1.55,1.55,0,0,1,1.51,0,1.4,1.4,0,0,1,.68,1.2c0,.05,0,.11,0,.17v5.28a.75.75,0,1,0,1.5,0V43.55c0-.07,0-.13,0-.2a1.3,1.3,0,0,1,.6-1.15,1.52,1.52,0,0,1,1.51,0,1.37,1.37,0,0,1,.67,1.25s0,.07,0,.1l.05,5.26a.75.75,0,0,0,.75.74h0a.75.75,0,0,0,.74-.75h0l-.05-5.25s0-.07,0-.11a1.38,1.38,0,0,1,2.06-1.28,1.52,1.52,0,0,1,.68,1.43c0,1.28,0,5.24,0,5.27s.29,7.34-1.69,11.81A7.83,7.83,0,0,0,43,64.36H32.11a15.17,15.17,0,0,0-1-3.29C28.91,55.72,29.2,43.79,29.39,35.9Z"/></svg>