<svg xmlns="http://www.w3.org/2000/svg" viewBox="0 0 58.56 58.03"><defs><style>.cls-1{fill:#740b99;}</style></defs><title>Asset 1</title><g id="Layer_2" data-name="Layer 2"><g id="Layer_1-2" data-name="Layer 1"><path class="cls-1" d="M21.24,56.48H1.5V36.83a.75.75,0,1,0-1.5,0V57.23A.75.75,0,0,0,.75,58H21.24a.75.75,0,0,0,0-1.5Z"/><path class="cls-1" d="M57.81,0H37.32a.75.75,0,0,0,0,1.5H57.06V21.2a.75.75,0,0,0,1.5,0V.79A.75.75,0,0,0,57.81,0Z"/><path class="cls-1" d="M.75,22a.75.75,0,0,0,.75-.75V1.5H21.16a.75.75,0,0,0,0-1.5H.75A.75.75,0,0,0,0,.75V21.24A.75.75,0,0,0,.75,22Z"/><path class="cls-1" d="M57.81,36a.75.75,0,0,0-.75.75V56.53H37.41a.75.75,0,0,0,0,1.5H57.81a.75.75,0,0,0,.75-.75V36.78A.75.75,0,0,0,57.81,36Z"/><path class="cls-1" d="M12.53,27v7.45a.75.75,0,1,0,1.5,0V27A15.27,15.27,0,0,1,29.28,11.72a.75.75,0,0,0,0-1.5A16.77,16.77,0,0,0,12.53,27Z"/><path class="cls-1" d="M35.35,13a15.26,15.26,0,0,1,9.18,14v7.45a.75.75,0,1,0,1.5,0V27A16.76,16.76,0,0,0,35.95,11.6a.75.75,0,0,0-.6,1.38Z"/><path class="cls-1" d="M18.48,22.93A11.5,11.5,0,0,0,18,24.75l0,0v.08c-.05.26-.09.52-.12.79,0,.11,0,.21,0,.32,0,.37-.06.75-.06,1.12V38.63a.75.75,0,1,0,1.5,0V27.09c0-.33,0-.65,0-1,0-.1,0-.19,0-.29s.06-.45.1-.67a10,10,0,0,1,.48-1.69.75.75,0,1,0-1.4-.54Z"/><path class="cls-1" d="M39.35,38.63a.75.75,0,1,0,1.5,0V27.09A11.58,11.58,0,0,0,29.28,15.52c-.29,0-.57,0-.85,0l-.35,0-.49.06-.43.08-.4.08-.45.11L26,16l-.44.14-.36.13-.42.17-.37.17-.39.19L23.6,17l-.35.21-.13.07,0,0-.46.3a.75.75,0,1,0,.86,1.23l.5-.33a10,10,0,0,1,1.09-.59l.16-.07a10,10,0,0,1,1.18-.43l.14,0a10,10,0,0,1,1.26-.27h.11a10,10,0,0,1,11.41,10Z"/><path class="cls-1" d="M34.81,26.23a.75.75,0,0,0,.36-1A6.51,6.51,0,0,0,22.77,28V42.85a.75.75,0,0,0,1.5,0V28a5,5,0,0,1,9.54-2.14A.75.75,0,0,0,34.81,26.23Z"/><path class="cls-1" d="M35,31a.75.75,0,0,0-.75.75V42.85a.75.75,0,1,0,1.5,0V31.78A.75.75,0,0,0,35,31Z"/><path class="cls-1" d="M29.28,40.11a.75.75,0,0,0-.75.75v6.2a.75.75,0,1,0,1.5,0v-6.2A.75.75,0,0,0,29.28,40.11Z"/><path class="cls-1" d="M29.28,26.42a.75.75,0,0,0-.75.75v9.94a.75.75,0,1,0,1.5,0V27.17A.75.75,0,0,0,29.28,26.42Z"/></g></g></svg>