<?xml version="1.0" encoding="UTF-8"?>
<svg width="314px" height="591px" viewBox="0 0 314 591" version="1.1" xmlns="http://www.w3.org/2000/svg" xmlns:xlink="http://www.w3.org/1999/xlink">
    <!-- Generator: Sketch 50.2 (55047) - http://www.bohemiancoding.com/sketch -->
    <title>Group 12</title>
    <desc>Created with Sketch.</desc>
    <defs>
        <linearGradient x1="-1.11022302e-14%" y1="50%" x2="100%" y2="50%" id="linearGradient-1">
            <stop stop-color="#FFFFFF" stop-opacity="0" offset="0%"></stop>
            <stop stop-color="#FFFFFF" offset="51.0996207%"></stop>
            <stop stop-color="#FFFFFF" stop-opacity="0" offset="100%"></stop>
        </linearGradient>
    </defs>
    <g id="Smartyads_web" stroke="none" stroke-width="1" fill="none" fill-rule="evenodd">
        <g id="Android" transform="translate(-32.000000, -14.000000)">
            <g id="Group-12" transform="translate(189.500000, 309.500000) rotate(-270.000000) translate(-189.500000, -309.500000) translate(-106.000000, 153.000000)">
                <g id="circle/white" opacity="0.5" transform="translate(166.500000, 73.000000)" fill="#FFFFFF">
                    <g id="circle_yellow">
                        <circle id="Oval" opacity="0.2" cx="112" cy="112" r="112"></circle>
                        <circle id="Oval" opacity="0.4" cx="112" cy="112" r="81.704918"></circle>
                        <circle id="Oval" cx="112" cy="112" r="47.7377049"></circle>
                    </g>
                </g>
                <path d="M54.47488,181.56704 C54.8204817,181.676481 55.091199,181.859359 55.28704,182.11568 C55.482881,182.372001 55.5808,182.687358 55.5808,183.06176 C55.5808,183.591683 55.3748821,183.999199 54.96304,184.28432 C54.5511979,184.569441 53.9507239,184.712 53.1616,184.712 L50.03392,184.712 L50.03392,178.664 L52.9888,178.664 C53.7260837,178.664 54.291998,178.805119 54.68656,179.08736 C55.081122,179.369601 55.2784,179.752638 55.2784,180.23648 C55.2784,180.530241 55.2078407,180.792319 55.06672,181.02272 C54.9255993,181.253121 54.7283213,181.434559 54.47488,181.56704 Z M51.42496,179.71808 L51.42496,181.14368 L52.816,181.14368 C53.1616017,181.14368 53.4236791,181.083201 53.60224,180.96224 C53.7808009,180.841279 53.87008,180.662721 53.87008,180.42656 C53.87008,180.190399 53.7808009,180.013281 53.60224,179.8952 C53.4236791,179.777119 53.1616017,179.71808 52.816,179.71808 L51.42496,179.71808 Z M53.05792,183.65792 C53.4265618,183.65792 53.7044791,183.597441 53.89168,183.47648 C54.0788809,183.355519 54.17248,183.168321 54.17248,182.91488 C54.17248,182.413757 53.8009637,182.1632 53.05792,182.1632 L51.42496,182.1632 L51.42496,183.65792 L53.05792,183.65792 Z M57.83584,180.67712 C57.9971208,180.452479 58.2145586,180.282561 58.48816,180.16736 C58.7617614,180.052159 59.0771182,179.99456 59.43424,179.99456 L59.43424,181.23872 C59.2844793,181.2272 59.1836803,181.22144 59.13184,181.22144 C58.7459181,181.22144 58.4435211,181.329439 58.22464,181.54544 C58.0057589,181.761441 57.89632,182.085438 57.89632,182.51744 L57.89632,184.712 L56.54848,184.712 L56.54848,180.06368 L57.83584,180.06368 L57.83584,180.67712 Z M62.1472,179.99456 C62.8672036,179.99456 63.4201581,180.165918 63.80608,180.50864 C64.1920019,180.851362 64.38496,181.368317 64.38496,182.05952 L64.38496,184.712 L63.12352,184.712 L63.12352,184.13312 C62.8700787,184.565122 62.3977635,184.78112 61.70656,184.78112 C61.3494382,184.78112 61.0398413,184.720641 60.77776,184.59968 C60.5156787,184.478719 60.3155207,184.311681 60.17728,184.09856 C60.0390393,183.885439 59.96992,183.643521 59.96992,183.3728 C59.96992,182.940798 60.1326384,182.600961 60.45808,182.35328 C60.7835216,182.105599 61.2860766,181.98176 61.96576,181.98176 L63.03712,181.98176 C63.03712,181.687999 62.9478409,181.461921 62.76928,181.30352 C62.5907191,181.145119 62.3228818,181.06592 61.96576,181.06592 C61.7180788,181.06592 61.4747212,181.1048 61.23568,181.18256 C60.9966388,181.26032 60.7936008,181.365439 60.62656,181.49792 L60.14272,180.55616 C60.3961613,180.377599 60.6999982,180.23936 61.05424,180.14144 C61.4084818,180.04352 61.7727981,179.99456 62.1472,179.99456 Z M62.04352,183.87392 C62.2739212,183.87392 62.4783991,183.820641 62.65696,183.71408 C62.8355209,183.607519 62.9622396,183.450561 63.03712,183.2432 L63.03712,182.768 L62.11264,182.768 C61.5596772,182.768 61.2832,182.949438 61.2832,183.31232 C61.2832,183.485121 61.3508793,183.621919 61.48624,183.72272 C61.6216007,183.823521 61.8073588,183.87392 62.04352,183.87392 Z M68.42848,179.99456 C69.0044829,179.99456 69.4695982,180.167358 69.82384,180.51296 C70.1780818,180.858562 70.3552,181.371197 70.3552,182.05088 L70.3552,184.712 L69.00736,184.712 L69.00736,182.25824 C69.00736,181.889598 68.9267208,181.614561 68.76544,181.43312 C68.6041592,181.251679 68.3708815,181.16096 68.0656,181.16096 C67.7257583,181.16096 67.455041,181.266079 67.25344,181.47632 C67.051839,181.686561 66.95104,181.999038 66.95104,182.41376 L66.95104,184.712 L65.6032,184.712 L65.6032,180.06368 L66.89056,180.06368 L66.89056,180.608 C67.0691209,180.412159 67.2908787,180.260961 67.55584,180.1544 C67.8208013,180.047839 68.1116784,179.99456 68.42848,179.99456 Z M76.30816,178.30112 L76.30816,184.712 L75.0208,184.712 L75.0208,184.17632 C74.6867183,184.579522 74.2028832,184.78112 73.56928,184.78112 C73.1315178,184.78112 72.7355218,184.683201 72.38128,184.48736 C72.0270382,184.291519 71.749121,184.012162 71.54752,183.64928 C71.345919,183.286398 71.24512,182.865922 71.24512,182.38784 C71.24512,181.909758 71.345919,181.489282 71.54752,181.1264 C71.749121,180.763518 72.0270382,180.484161 72.38128,180.28832 C72.7355218,180.092479 73.1315178,179.99456 73.56928,179.99456 C74.162563,179.99456 74.6262383,180.181758 74.96032,180.55616 L74.96032,178.30112 L76.30816,178.30112 Z M73.80256,183.6752 C74.1424017,183.6752 74.4246389,183.558561 74.64928,183.32528 C74.8739211,183.091999 74.98624,182.779522 74.98624,182.38784 C74.98624,181.996158 74.8739211,181.683681 74.64928,181.4504 C74.4246389,181.217119 74.1424017,181.10048 73.80256,181.10048 C73.4569583,181.10048 73.1718411,181.217119 72.9472,181.4504 C72.7225589,181.683681 72.61024,181.996158 72.61024,182.38784 C72.61024,182.779522 72.7225589,183.091999 72.9472,183.32528 C73.1718411,183.558561 73.4569583,183.6752 73.80256,183.6752 Z M82.07968,184.81568 C81.6015976,184.81568 81.1393622,184.750881 80.69296,184.62128 C80.2465578,184.491679 79.8880014,184.323201 79.61728,184.11584 L80.09248,183.06176 C80.3516813,183.251841 80.6598382,183.404479 81.01696,183.51968 C81.3740818,183.634881 81.7311982,183.69248 82.08832,183.69248 C82.485762,183.69248 82.779519,183.633441 82.9696,183.51536 C83.159681,183.397279 83.25472,183.240321 83.25472,183.04448 C83.25472,182.900479 83.1985606,182.78096 83.08624,182.68592 C82.9739194,182.59088 82.8299209,182.51456 82.65424,182.45696 C82.4785591,182.39936 82.2409615,182.336 81.94144,182.26688 C81.4806377,182.157439 81.1033615,182.048001 80.8096,181.93856 C80.5158385,181.829119 80.2638411,181.653441 80.0536,181.41152 C79.8433589,181.169599 79.73824,180.847042 79.73824,180.44384 C79.73824,180.092478 79.833279,179.774241 80.02336,179.48912 C80.213441,179.203999 80.4999981,178.977921 80.88304,178.81088 C81.2660819,178.643839 81.7340772,178.56032 82.28704,178.56032 C82.6729619,178.56032 83.0502382,178.6064 83.41888,178.69856 C83.7875218,178.79072 84.1100786,178.923199 84.38656,179.096 L83.95456,180.15872 C83.3958372,179.841918 82.8371228,179.68352 82.2784,179.68352 C81.886718,179.68352 81.5972809,179.746879 81.41008,179.8736 C81.2228791,180.000321 81.12928,180.167359 81.12928,180.37472 C81.12928,180.582081 81.2372789,180.736159 81.45328,180.83696 C81.6692811,180.937761 81.9990378,181.03712 82.44256,181.13504 C82.9033623,181.244481 83.2806385,181.353919 83.5744,181.46336 C83.8681615,181.572801 84.1201589,181.745599 84.3304,181.98176 C84.5406411,182.217921 84.64576,182.537598 84.64576,182.9408 C84.64576,183.286402 84.549281,183.601759 84.35632,183.88688 C84.163359,184.172001 83.8739219,184.398079 83.488,184.56512 C83.1020781,184.732161 82.6326428,184.81568 82.07968,184.81568 Z M87.38464,179.99456 C88.1046436,179.99456 88.6575981,180.165918 89.04352,180.50864 C89.4294419,180.851362 89.6224,181.368317 89.6224,182.05952 L89.6224,184.712 L88.36096,184.712 L88.36096,184.13312 C88.1075187,184.565122 87.6352035,184.78112 86.944,184.78112 C86.5868782,184.78112 86.2772813,184.720641 86.0152,184.59968 C85.7531187,184.478719 85.5529607,184.311681 85.41472,184.09856 C85.2764793,183.885439 85.20736,183.643521 85.20736,183.3728 C85.20736,182.940798 85.3700784,182.600961 85.69552,182.35328 C86.0209616,182.105599 86.5235166,181.98176 87.2032,181.98176 L88.27456,181.98176 C88.27456,181.687999 88.1852809,181.461921 88.00672,181.30352 C87.8281591,181.145119 87.5603218,181.06592 87.2032,181.06592 C86.9555188,181.06592 86.7121612,181.1048 86.47312,181.18256 C86.2340788,181.26032 86.0310408,181.365439 85.864,181.49792 L85.38016,180.55616 C85.6336013,180.377599 85.9374382,180.23936 86.29168,180.14144 C86.6459218,180.04352 87.0102381,179.99456 87.38464,179.99456 Z M87.28096,183.87392 C87.5113612,183.87392 87.7158391,183.820641 87.8944,183.71408 C88.0729609,183.607519 88.1996796,183.450561 88.27456,183.2432 L88.27456,182.768 L87.35008,182.768 C86.7971172,182.768 86.52064,182.949438 86.52064,183.31232 C86.52064,183.485121 86.5883193,183.621919 86.72368,183.72272 C86.8590407,183.823521 87.0447988,183.87392 87.28096,183.87392 Z M92.31808,180.16736 L93.5104,180.16736 L93.5104,181.20416 L92.35264,181.20416 L92.35264,184.712 L91.0048,184.712 L91.0048,181.20416 L90.28768,181.20416 L90.28768,180.16736 L91.0048,180.16736 L91.0048,179.96 C91.0048,179.430077 91.1617584,179.009602 91.47568,178.69856 C91.7896016,178.387518 92.2316771,178.232 92.80192,178.232 C93.003521,178.232 93.1950391,178.2536 93.37648,178.2968 C93.5579209,178.34 93.7091194,178.40192 93.83008,178.48256 L93.47584,179.45888 C93.3203192,179.349439 93.138881,179.29472 92.93152,179.29472 C92.522558,179.29472 92.31808,179.519358 92.31808,179.96864 L92.31808,180.16736 Z M98.7376,182.40512 C98.7376,182.4224 98.7289601,182.543359 98.71168,182.768 L95.1952,182.768 C95.2585603,183.056001 95.4083188,183.283519 95.64448,183.45056 C95.8806412,183.617601 96.1743982,183.70112 96.52576,183.70112 C96.7676812,183.70112 96.9822391,183.66512 97.16944,183.59312 C97.3566409,183.52112 97.5308792,183.407361 97.69216,183.25184 L98.40928,184.02944 C97.9715178,184.530563 97.3321642,184.78112 96.4912,184.78112 C95.9670374,184.78112 95.503362,184.678881 95.10016,184.4744 C94.696958,184.269919 94.3859211,183.986242 94.16704,183.62336 C93.9481589,183.260478 93.83872,182.848642 93.83872,182.38784 C93.83872,181.932798 93.9467189,181.522402 94.16272,181.15664 C94.3787211,180.790878 94.6753581,180.505761 95.05264,180.30128 C95.4299219,180.096799 95.8518377,179.99456 96.3184,179.99456 C96.7734423,179.99456 97.1852782,180.092479 97.55392,180.28832 C97.9225618,180.484161 98.2119989,180.764958 98.42224,181.13072 C98.6324811,181.496482 98.7376,181.921278 98.7376,182.40512 Z M96.32704,181.01408 C96.0217585,181.01408 95.765441,181.100479 95.55808,181.27328 C95.350719,181.446081 95.2240002,181.682239 95.17792,181.98176 L97.46752,181.98176 C97.4214398,181.687999 97.294721,181.453281 97.08736,181.2776 C96.879999,181.101919 96.6265615,181.01408 96.32704,181.01408 Z M102.63424,184.48736 C102.501759,184.58528 102.339041,184.65872 102.14608,184.70768 C101.953119,184.75664 101.750081,184.78112 101.53696,184.78112 C100.983997,184.78112 100.556322,184.640001 100.25392,184.35776 C99.9515185,184.075519 99.80032,183.660803 99.80032,183.1136 L99.80032,181.20416 L99.0832,181.20416 L99.0832,180.16736 L99.80032,180.16736 L99.80032,179.03552 L101.14816,179.03552 L101.14816,180.16736 L102.30592,180.16736 L102.30592,181.20416 L101.14816,181.20416 L101.14816,183.09632 C101.14816,183.292161 101.198559,183.443359 101.29936,183.54992 C101.400161,183.656481 101.542719,183.70976 101.72704,183.70976 C101.940161,183.70976 102.121599,183.652161 102.27136,183.53696 L102.63424,184.48736 Z M108.00832,180.06368 L105.9088,184.99712 C105.695679,185.532803 105.432162,185.910079 105.11824,186.12896 C104.804318,186.347841 104.425602,186.45728 103.98208,186.45728 C103.740159,186.45728 103.501121,186.41984 103.26496,186.34496 C103.028799,186.27008 102.835841,186.166401 102.68608,186.03392 L103.17856,185.07488 C103.282241,185.16704 103.401759,185.23904 103.53712,185.29088 C103.672481,185.34272 103.806399,185.36864 103.93888,185.36864 C104.123201,185.36864 104.272959,185.324 104.38816,185.23472 C104.503361,185.14544 104.60704,184.997121 104.6992,184.78976 L104.71648,184.74656 L102.70336,180.06368 L104.0944,180.06368 L105.39904,183.21728 L106.71232,180.06368 L108.00832,180.06368 Z" id="Brand-Safety" fill="#FFFFFF" transform="translate(79.021120, 182.344640) rotate(-90.000000) translate(-79.021120, -182.344640) "></path>
                <g id="circle/white" transform="translate(0.148000, 149.500000)" fill="#FFFFFF">
                    <g id="circle_yellow">
                        <circle id="Oval" opacity="0.2" cx="33.6301714" cy="33.6301714" r="33.6301714"></circle>
                        <circle id="Oval" opacity="0.4" cx="33.6301714" cy="33.6301714" r="24.5334857"></circle>
                        <circle id="Oval" cx="33.6301714" cy="33.6301714" r="14.3341714"></circle>
                    </g>
                </g>
                <path d="M164.431324,72.4161 L162.616924,72.4161 L162.616924,71.3469 L167.557924,71.3469 L167.557924,72.4161 L165.743524,72.4161 L165.743524,77.0169 L164.431324,77.0169 L164.431324,72.4161 Z M169.380424,73.2342 C169.531625,73.0235989 169.735473,72.8643005 169.991974,72.7563 C170.248475,72.6482995 170.544122,72.5943 170.878924,72.5943 L170.878924,73.7607 C170.738523,73.7498999 170.644024,73.7445 170.595424,73.7445 C170.233622,73.7445 169.950125,73.845749 169.744924,74.04825 C169.539723,74.250751 169.437124,74.554498 169.437124,74.9595 L169.437124,77.0169 L168.173524,77.0169 L168.173524,72.6591 L169.380424,72.6591 L169.380424,73.2342 Z M173.422324,72.5943 C174.097327,72.5943 174.615722,72.7549484 174.977524,73.07625 C175.339326,73.3975516 175.520224,73.8821968 175.520224,74.5302 L175.520224,77.0169 L174.337624,77.0169 L174.337624,76.4742 C174.100023,76.879202 173.657227,77.0817 173.009224,77.0817 C172.674422,77.0817 172.384175,77.0250006 172.138474,76.9116 C171.892773,76.7981994 171.705125,76.641601 171.575524,76.4418 C171.445923,76.241999 171.381124,76.0152013 171.381124,75.7614 C171.381124,75.356398 171.533672,75.0378012 171.838774,74.8056 C172.143875,74.5733988 172.615021,74.4573 173.252224,74.4573 L174.256624,74.4573 C174.256624,74.1818986 174.172925,73.9699507 174.005524,73.82145 C173.838123,73.6729493 173.587026,73.5987 173.252224,73.5987 C173.020023,73.5987 172.791875,73.6351496 172.567774,73.70805 C172.343673,73.7809504 172.153325,73.8794994 171.996724,74.0037 L171.543124,73.1208 C171.780725,72.9533992 172.065572,72.8238005 172.397674,72.732 C172.729776,72.6401995 173.071322,72.5943 173.422324,72.5943 Z M173.325124,76.2312 C173.541125,76.2312 173.732823,76.1812505 173.900224,76.08135 C174.067625,75.9814495 174.186424,75.834301 174.256624,75.6399 L174.256624,75.1944 L173.389924,75.1944 C172.871521,75.1944 172.612324,75.3644983 172.612324,75.7047 C172.612324,75.8667008 172.675773,75.9949495 172.802674,76.08945 C172.929575,76.1839505 173.103723,76.2312 173.325124,76.2312 Z M179.311024,72.5943 C179.851027,72.5943 180.287072,72.7562984 180.619174,73.0803 C180.951276,73.4043016 181.117324,73.8848968 181.117324,74.5221 L181.117324,77.0169 L179.853724,77.0169 L179.853724,74.7165 C179.853724,74.3708983 179.778125,74.1130509 179.626924,73.94295 C179.475723,73.7728491 179.257025,73.6878 178.970824,73.6878 C178.652222,73.6878 178.398425,73.786349 178.209424,73.98345 C178.020423,74.180551 177.925924,74.4734981 177.925924,74.8623 L177.925924,77.0169 L176.662324,77.0169 L176.662324,72.6591 L177.869224,72.6591 L177.869224,73.1694 C178.036625,72.9857991 178.244523,72.8440505 178.492924,72.74415 C178.741325,72.6442495 179.014022,72.5943 179.311024,72.5943 Z M183.725524,77.0817 C183.363722,77.0817 183.010026,77.0371504 182.664424,76.94805 C182.318822,76.8589496 182.043425,76.7469007 181.838224,76.6119 L182.259424,75.7047 C182.453825,75.8289006 182.688723,75.9301496 182.964124,76.00845 C183.239525,76.0867504 183.509523,76.1259 183.774124,76.1259 C184.308727,76.1259 184.576024,75.9936013 184.576024,75.729 C184.576024,75.6047994 184.503125,75.5157003 184.357324,75.4617 C184.211523,75.4076997 183.987425,75.3618002 183.685024,75.324 C183.328622,75.2699997 183.034325,75.2079004 182.802124,75.1377 C182.569923,75.0674996 182.368775,74.9433009 182.198674,74.7651 C182.028573,74.5868991 181.943524,74.3331016 181.943524,74.0037 C181.943524,73.7282986 182.023173,73.4839511 182.182474,73.27065 C182.341775,73.0573489 182.573972,72.8913006 182.879074,72.7725 C183.184175,72.6536994 183.544622,72.5943 183.960424,72.5943 C184.268225,72.5943 184.574672,72.6280497 184.879774,72.69555 C185.184875,72.7630503 185.437323,72.8561994 185.637124,72.975 L185.215924,73.8741 C184.832522,73.6580989 184.414026,73.5501 183.960424,73.5501 C183.690423,73.5501 183.487925,73.5878996 183.352924,73.6635 C183.217923,73.7391004 183.150424,73.8362994 183.150424,73.9551 C183.150424,74.0901007 183.223323,74.1845997 183.369124,74.2386 C183.514925,74.2926003 183.747122,74.3438998 184.065724,74.3925 C184.422126,74.4519003 184.713723,74.5153497 184.940524,74.58285 C185.167325,74.6503503 185.364423,74.7731991 185.531824,74.9514 C185.699225,75.1296009 185.782924,75.3779984 185.782924,75.6966 C185.782924,75.9666014 185.701925,76.2068989 185.539924,76.4175 C185.377923,76.6281011 185.141675,76.7914494 184.831174,76.90755 C184.520672,77.0236506 184.152126,77.0817 183.725524,77.0817 Z M189.136324,72.5943 C189.541326,72.5943 189.909872,72.6874491 190.241974,72.87375 C190.574076,73.0600509 190.834623,73.3219483 191.023624,73.65945 C191.212625,73.9969517 191.307124,74.3897978 191.307124,74.838 C191.307124,75.2862022 191.212625,75.6790483 191.023624,76.01655 C190.834623,76.3540517 190.574076,76.6159491 190.241974,76.80225 C189.909872,76.9885509 189.541326,77.0817 189.136324,77.0817 C188.580121,77.0817 188.142725,76.9062018 187.824124,76.5552 L187.824124,78.5883 L186.560524,78.5883 L186.560524,72.6591 L187.767424,72.6591 L187.767424,73.1613 C188.080625,72.7832981 188.536921,72.5943 189.136324,72.5943 Z M188.917624,76.0449 C189.241626,76.0449 189.507573,75.9355511 189.715474,75.71685 C189.923375,75.4981489 190.027324,75.2052018 190.027324,74.838 C190.027324,74.4707982 189.923375,74.1778511 189.715474,73.95915 C189.507573,73.7404489 189.241626,73.6311 188.917624,73.6311 C188.593622,73.6311 188.327675,73.7404489 188.119774,73.95915 C187.911873,74.1778511 187.807924,74.4707982 187.807924,74.838 C187.807924,75.2052018 187.911873,75.4981489 188.119774,75.71685 C188.327675,75.9355511 188.593622,76.0449 188.917624,76.0449 Z M193.907224,72.5943 C194.582227,72.5943 195.100622,72.7549484 195.462424,73.07625 C195.824226,73.3975516 196.005124,73.8821968 196.005124,74.5302 L196.005124,77.0169 L194.822524,77.0169 L194.822524,76.4742 C194.584923,76.879202 194.142127,77.0817 193.494124,77.0817 C193.159322,77.0817 192.869075,77.0250006 192.623374,76.9116 C192.377673,76.7981994 192.190025,76.641601 192.060424,76.4418 C191.930823,76.241999 191.866024,76.0152013 191.866024,75.7614 C191.866024,75.356398 192.018572,75.0378012 192.323674,74.8056 C192.628775,74.5733988 193.099921,74.4573 193.737124,74.4573 L194.741524,74.4573 C194.741524,74.1818986 194.657825,73.9699507 194.490424,73.82145 C194.323023,73.6729493 194.071926,73.5987 193.737124,73.5987 C193.504923,73.5987 193.276775,73.6351496 193.052674,73.70805 C192.828573,73.7809504 192.638225,73.8794994 192.481624,74.0037 L192.028024,73.1208 C192.265625,72.9533992 192.550472,72.8238005 192.882574,72.732 C193.214676,72.6401995 193.556222,72.5943 193.907224,72.5943 Z M193.810024,76.2312 C194.026025,76.2312 194.217723,76.1812505 194.385124,76.08135 C194.552525,75.9814495 194.671324,75.834301 194.741524,75.6399 L194.741524,75.1944 L193.874824,75.1944 C193.356421,75.1944 193.097224,75.3644983 193.097224,75.7047 C193.097224,75.8667008 193.160673,75.9949495 193.287574,76.08945 C193.414475,76.1839505 193.588623,76.2312 193.810024,76.2312 Z M198.354124,73.2342 C198.505325,73.0235989 198.709173,72.8643005 198.965674,72.7563 C199.222175,72.6482995 199.517822,72.5943 199.852624,72.5943 L199.852624,73.7607 C199.712223,73.7498999 199.617724,73.7445 199.569124,73.7445 C199.207322,73.7445 198.923825,73.845749 198.718624,74.04825 C198.513423,74.250751 198.410824,74.554498 198.410824,74.9595 L198.410824,77.0169 L197.147224,77.0169 L197.147224,72.6591 L198.354124,72.6591 L198.354124,73.2342 Z M204.907024,74.8542 C204.907024,74.8704001 204.898924,74.9837989 204.882724,75.1944 L201.586024,75.1944 C201.645424,75.4644014 201.785823,75.6776992 202.007224,75.8343 C202.228625,75.9909008 202.504022,76.0692 202.833424,76.0692 C203.060225,76.0692 203.261373,76.0354503 203.436874,75.96795 C203.612375,75.9004497 203.775723,75.7938007 203.926924,75.648 L204.599224,76.377 C204.188822,76.8468023 203.589428,77.0817 202.801024,77.0817 C202.309621,77.0817 201.874926,76.985851 201.496924,76.79415 C201.118922,76.602449 200.827325,76.3365017 200.622124,75.9963 C200.416923,75.6560983 200.314324,75.2700022 200.314324,74.838 C200.314324,74.4113979 200.415573,74.0266517 200.618074,73.68375 C200.820575,73.3408483 201.098672,73.073551 201.452374,72.88185 C201.806076,72.690149 202.201622,72.5943 202.639024,72.5943 C203.065626,72.5943 203.451722,72.6860991 203.797324,72.8697 C204.142926,73.0533009 204.414273,73.3165483 204.611374,73.65945 C204.808475,74.0023517 204.907024,74.4005977 204.907024,74.8542 Z M202.647124,73.5501 C202.360922,73.5501 202.120625,73.6310992 201.926224,73.7931 C201.731823,73.9551008 201.613024,74.1764986 201.569824,74.4573 L203.716324,74.4573 C203.673124,74.1818986 203.554325,73.9618508 203.359924,73.79715 C203.165523,73.6324492 202.927925,73.5501 202.647124,73.5501 Z M208.398124,72.5943 C208.938127,72.5943 209.374172,72.7562984 209.706274,73.0803 C210.038376,73.4043016 210.204424,73.8848968 210.204424,74.5221 L210.204424,77.0169 L208.940824,77.0169 L208.940824,74.7165 C208.940824,74.3708983 208.865225,74.1130509 208.714024,73.94295 C208.562823,73.7728491 208.344125,73.6878 208.057924,73.6878 C207.739322,73.6878 207.485525,73.786349 207.296524,73.98345 C207.107523,74.180551 207.013024,74.4734981 207.013024,74.8623 L207.013024,77.0169 L205.749424,77.0169 L205.749424,72.6591 L206.956324,72.6591 L206.956324,73.1694 C207.123725,72.9857991 207.331623,72.8440505 207.580024,72.74415 C207.828425,72.6442495 208.101122,72.5943 208.398124,72.5943 Z M213.452524,77.0817 C212.988122,77.0817 212.570976,76.985851 212.201074,76.79415 C211.831172,76.602449 211.542275,76.3365017 211.334374,75.9963 C211.126473,75.6560983 211.022524,75.2700022 211.022524,74.838 C211.022524,74.4059978 211.126473,74.0199017 211.334374,73.6797 C211.542275,73.3394983 211.831172,73.073551 212.201074,72.88185 C212.570976,72.690149 212.988122,72.5943 213.452524,72.5943 C213.911526,72.5943 214.312472,72.690149 214.655374,72.88185 C214.998276,73.073551 215.248023,73.3475982 215.404624,73.704 L214.424524,74.2305 C214.197723,73.830898 213.871026,73.6311 213.444424,73.6311 C213.115022,73.6311 212.842325,73.7390989 212.626324,73.9551 C212.410323,74.1711011 212.302324,74.4653981 212.302324,74.838 C212.302324,75.2106019 212.410323,75.5048989 212.626324,75.7209 C212.842325,75.9369011 213.115022,76.0449 213.444424,76.0449 C213.876426,76.0449 214.203123,75.845102 214.424524,75.4455 L215.404624,75.9801 C215.248023,76.3257017 214.998276,76.595699 214.655374,76.7901 C214.312472,76.984501 213.911526,77.0817 213.452524,77.0817 Z M220.459024,72.6591 L218.490724,77.2842 C218.290923,77.7864025 218.043875,78.140099 217.749574,78.3453 C217.455272,78.550501 217.100226,78.6531 216.684424,78.6531 C216.457623,78.6531 216.233525,78.6180004 216.012124,78.5478 C215.790723,78.4775996 215.609825,78.3804006 215.469424,78.2562 L215.931124,77.3571 C216.028324,77.4435004 216.140373,77.5109998 216.267274,77.5596 C216.394175,77.6082002 216.519723,77.6325 216.643924,77.6325 C216.816725,77.6325 216.957123,77.5906504 217.065124,77.50695 C217.173124,77.4232496 217.270323,77.284201 217.356724,77.0898 L217.372924,77.0493 L215.485624,72.6591 L216.789724,72.6591 L218.012824,75.6156 L219.244024,72.6591 L220.459024,72.6591 Z" id="Transparency" fill="#FFFFFF" transform="translate(191.537974, 75.000000) rotate(-90.000000) translate(-191.537974, -75.000000) "></path>
                <g id="circle/white" transform="translate(148.807500, 76.387500) rotate(-90.000000) translate(-148.807500, -76.387500) translate(117.420000, 45.000000)" fill="#FFFFFF">
                    <g id="circle_yellow">
                        <circle id="Oval" opacity="0.2" cx="31.4427273" cy="31.4427273" r="31.4427273"></circle>
                        <circle id="Oval" opacity="0.4" cx="31.4427273" cy="31.4427273" r="22.9377273"></circle>
                        <circle id="Oval" cx="31.4427273" cy="31.4427273" r="13.4018182"></circle>
                    </g>
                </g>
                <path d="M158.6978,264.52 L155.1878,264.52 L154.5182,266.14 L152.7254,266.14 L156.095,258.58 L157.823,258.58 L161.2034,266.14 L159.3674,266.14 L158.6978,264.52 Z M158.147,263.1916 L156.9482,260.2972 L155.7494,263.1916 L158.147,263.1916 Z M165.4046,260.2432 C166.124604,260.2432 166.705998,260.459198 167.1488,260.8912 C167.591602,261.323202 167.813,261.963996 167.813,262.8136 L167.813,266.14 L166.1282,266.14 L166.1282,263.0728 C166.1282,262.611998 166.027401,262.268201 165.8258,262.0414 C165.624199,261.814599 165.332602,261.7012 164.951,261.7012 C164.526198,261.7012 164.187801,261.832599 163.9358,262.0954 C163.683799,262.358201 163.5578,262.748797 163.5578,263.2672 L163.5578,266.14 L161.873,266.14 L161.873,260.3296 L163.4822,260.3296 L163.4822,261.01 C163.705401,260.765199 163.982598,260.576201 164.3138,260.443 C164.645002,260.309799 165.008598,260.2432 165.4046,260.2432 Z M171.6794,260.2432 C172.579404,260.2432 173.270598,260.457398 173.753,260.8858 C174.235402,261.314202 174.4766,261.960396 174.4766,262.8244 L174.4766,266.14 L172.8998,266.14 L172.8998,265.4164 C172.582998,265.956403 171.992604,266.2264 171.1286,266.2264 C170.682198,266.2264 170.295202,266.150801 169.9676,265.9996 C169.639998,265.848399 169.389801,265.639601 169.217,265.3732 C169.044199,265.106799 168.9578,264.804402 168.9578,264.466 C168.9578,263.925997 169.161198,263.501202 169.568,263.1916 C169.974802,262.881998 170.602996,262.7272 171.4526,262.7272 L172.7918,262.7272 C172.7918,262.359998 172.680201,262.077401 172.457,261.8794 C172.233799,261.681399 171.899002,261.5824 171.4526,261.5824 C171.142998,261.5824 170.838801,261.631 170.54,261.7282 C170.241199,261.8254 169.987401,261.956799 169.7786,262.1224 L169.1738,260.9452 C169.490602,260.721999 169.870398,260.549201 170.3132,260.4268 C170.756002,260.304399 171.211398,260.2432 171.6794,260.2432 Z M171.5498,265.0924 C171.837801,265.0924 172.093399,265.025801 172.3166,264.8926 C172.539801,264.759399 172.6982,264.563201 172.7918,264.304 L172.7918,263.71 L171.6362,263.71 C170.944997,263.71 170.5994,263.936798 170.5994,264.3904 C170.5994,264.606401 170.683999,264.777399 170.8532,264.9034 C171.022401,265.029401 171.254599,265.0924 171.5498,265.0924 Z M175.9994,258.1264 L177.6842,258.1264 L177.6842,266.14 L175.9994,266.14 L175.9994,258.1264 Z M185.0174,260.3296 L182.393,266.4964 C182.126599,267.166003 181.797202,267.637599 181.4048,267.9112 C181.012398,268.184801 180.539003,268.3216 179.9846,268.3216 C179.682198,268.3216 179.383401,268.2748 179.0882,268.1812 C178.792999,268.0876 178.551801,267.958001 178.3646,267.7924 L178.9802,266.5936 C179.109801,266.708801 179.259199,266.7988 179.4284,266.8636 C179.597601,266.9284 179.764999,266.9608 179.9306,266.9608 C180.161001,266.9608 180.348199,266.905001 180.4922,266.7934 C180.636201,266.681799 180.765799,266.496401 180.881,266.2372 L180.9026,266.1832 L178.3862,260.3296 L180.125,260.3296 L181.7558,264.2716 L183.3974,260.3296 L185.0174,260.3296 Z M189.4562,265.8592 C189.290599,265.981601 189.087201,266.0734 188.846,266.1346 C188.604799,266.1958 188.351001,266.2264 188.0846,266.2264 C187.393397,266.2264 186.858802,266.050002 186.4808,265.6972 C186.102798,265.344398 185.9138,264.826003 185.9138,264.142 L185.9138,261.7552 L185.0174,261.7552 L185.0174,260.4592 L185.9138,260.4592 L185.9138,259.0444 L187.5986,259.0444 L187.5986,260.4592 L189.0458,260.4592 L189.0458,261.7552 L187.5986,261.7552 L187.5986,264.1204 C187.5986,264.365201 187.661599,264.554199 187.7876,264.6874 C187.913601,264.820601 188.091799,264.8872 188.3222,264.8872 C188.588601,264.8872 188.815399,264.815201 189.0026,264.6712 L189.4562,265.8592 Z M190.4066,260.3296 L192.0914,260.3296 L192.0914,266.14 L190.4066,266.14 L190.4066,260.3296 Z M191.249,259.5196 C190.939398,259.5196 190.687401,259.429601 190.493,259.2496 C190.298599,259.069599 190.2014,258.846401 190.2014,258.58 C190.2014,258.313599 190.298599,258.090401 190.493,257.9104 C190.687401,257.730399 190.939398,257.6404 191.249,257.6404 C191.558602,257.6404 191.810599,257.726799 192.005,257.8996 C192.199401,258.072401 192.2966,258.288399 192.2966,258.5476 C192.2966,258.828401 192.199401,259.060599 192.005,259.2442 C191.810599,259.427801 191.558602,259.5196 191.249,259.5196 Z M196.4654,266.2264 C195.846197,266.2264 195.290002,266.098601 194.7968,265.843 C194.303598,265.587399 193.918401,265.232802 193.6412,264.7792 C193.363999,264.325598 193.2254,263.810803 193.2254,263.2348 C193.2254,262.658797 193.363999,262.144002 193.6412,261.6904 C193.918401,261.236798 194.303598,260.882201 194.7968,260.6266 C195.290002,260.370999 195.846197,260.2432 196.4654,260.2432 C197.077403,260.2432 197.611998,260.370999 198.0692,260.6266 C198.526402,260.882201 198.859399,261.247598 199.0682,261.7228 L197.7614,262.4248 C197.458998,261.891997 197.023403,261.6256 196.4546,261.6256 C196.015398,261.6256 195.651801,261.769599 195.3638,262.0576 C195.075799,262.345601 194.9318,262.737998 194.9318,263.2348 C194.9318,263.731602 195.075799,264.123999 195.3638,264.412 C195.651801,264.700001 196.015398,264.844 196.4546,264.844 C197.030603,264.844 197.466199,264.577603 197.7614,264.0448 L199.0682,264.7576 C198.859399,265.218402 198.526402,265.578399 198.0692,265.8376 C197.611998,266.096801 197.077403,266.2264 196.4654,266.2264 Z M201.995,266.2264 C201.512598,266.2264 201.041002,266.167001 200.5802,266.0482 C200.119398,265.929399 199.752201,265.780001 199.4786,265.6 L200.0402,264.3904 C200.299401,264.556001 200.612598,264.690999 200.9798,264.7954 C201.347002,264.899801 201.706998,264.952 202.0598,264.952 C202.772604,264.952 203.129,264.775602 203.129,264.4228 C203.129,264.257199 203.031801,264.1384 202.8374,264.0664 C202.642999,263.9944 202.344202,263.9332 201.941,263.8828 C201.465798,263.8108 201.073402,263.728 200.7638,263.6344 C200.454198,263.5408 200.186001,263.375201 199.9592,263.1376 C199.732399,262.899999 199.619,262.561602 199.619,262.1224 C199.619,261.755198 199.725199,261.429401 199.9376,261.145 C200.150001,260.860599 200.459598,260.639201 200.8664,260.4808 C201.273202,260.322399 201.753797,260.2432 202.3082,260.2432 C202.718602,260.2432 203.127198,260.2882 203.534,260.3782 C203.940802,260.4682 204.277399,260.592399 204.5438,260.7508 L203.9822,261.9496 C203.470997,261.661599 202.913003,261.5176 202.3082,261.5176 C201.948198,261.5176 201.678201,261.567999 201.4982,261.6688 C201.318199,261.769601 201.2282,261.899199 201.2282,262.0576 C201.2282,262.237601 201.325399,262.3636 201.5198,262.4356 C201.714201,262.5076 202.023798,262.576 202.4486,262.6408 C202.923802,262.72 203.312598,262.8046 203.615,262.8946 C203.917402,262.9846 204.180199,263.148399 204.4034,263.386 C204.626601,263.623601 204.7382,263.954798 204.7382,264.3796 C204.7382,264.739602 204.630201,265.059999 204.4142,265.3408 C204.198199,265.621601 203.883202,265.839399 203.4692,265.9942 C203.055198,266.149001 202.563803,266.2264 201.995,266.2264 Z" id="Analytics" fill="#FFFFFF" transform="translate(178.731800, 262.981000) rotate(-90.000000) translate(-178.731800, -262.981000) "></path>
                <g id="circle/white" transform="translate(82.060000, 221.000000)" fill="#FFFFFF">
                    <g id="circle_yellow">
                        <circle id="Oval" opacity="0.2" cx="41.9236364" cy="41.9236364" r="41.9236364"></circle>
                        <circle id="Oval" opacity="0.4" cx="41.9236364" cy="41.9236364" r="30.5836364"></circle>
                        <circle id="Oval" cx="41.9236364" cy="41.9236364" r="17.8690909"></circle>
                    </g>
                </g>
                <path d="M460.737455,50.551776 L457.472831,60.530976 L454.992287,60.530976 L452.796863,53.773632 L450.530159,60.530976 L448.063871,60.530976 L444.784991,50.551776 L447.179999,50.551776 L449.432447,57.565728 L451.784687,50.551776 L453.923087,50.551776 L456.204047,57.622752 L458.527775,50.551776 L460.737455,50.551776 Z M465.727055,60.645024 C464.919211,60.645024 464.194538,60.4763297 463.553015,60.138936 C462.911491,59.8015423 462.41016,59.333475 462.049007,58.73472 C461.687853,58.135965 461.507279,57.4564358 461.507279,56.696112 C461.507279,55.9357882 461.687853,55.256259 462.049007,54.657504 C462.41016,54.058749 462.911491,53.5906817 463.553015,53.253288 C464.194538,52.9158943 464.919211,52.7472 465.727055,52.7472 C466.534899,52.7472 467.257195,52.9158943 467.893967,53.253288 C468.530738,53.5906817 469.029693,54.058749 469.390847,54.657504 C469.752,55.256259 469.932575,55.9357882 469.932575,56.696112 C469.932575,57.4564358 469.752,58.135965 469.390847,58.73472 C469.029693,59.333475 468.530738,59.8015423 467.893967,60.138936 C467.257195,60.4763297 466.534899,60.645024 465.727055,60.645024 Z M465.727055,58.820256 C466.297297,58.820256 466.765365,58.6278019 467.131271,58.242888 C467.497176,57.8579741 467.680127,57.3423872 467.680127,56.696112 C467.680127,56.0498368 467.497176,55.5342499 467.131271,55.149336 C466.765365,54.7644221 466.297297,54.571968 465.727055,54.571968 C465.156812,54.571968 464.686368,54.7644221 464.315711,55.149336 C463.945053,55.5342499 463.759727,56.0498368 463.759727,56.696112 C463.759727,57.3423872 463.945053,57.8579741 464.315711,58.242888 C464.686368,58.6278019 465.156812,58.820256 465.727055,58.820256 Z M473.539343,53.873424 C473.805456,53.5027661 474.164228,53.222401 474.615671,53.03232 C475.067113,52.842239 475.587452,52.7472 476.176703,52.7472 L476.176703,54.800064 C475.929597,54.7810559 475.763279,54.771552 475.677743,54.771552 C475.040971,54.771552 474.542016,54.9497502 474.180863,55.306152 C473.819709,55.6625538 473.639135,56.1971484 473.639135,56.909952 L473.639135,60.530976 L471.415199,60.530976 L471.415199,52.861248 L473.539343,52.861248 L473.539343,53.873424 Z M480.852671,57.52296 L479.783471,58.577904 L479.783471,60.530976 L477.559535,60.530976 L477.559535,49.953024 L479.783471,49.953024 L479.783471,55.940544 L483.033839,52.861248 L485.685455,52.861248 L482.492111,56.111616 L485.970575,60.530976 L483.276191,60.530976 L480.852671,57.52296 Z M489.406271,53.03232 L491.373599,53.03232 L491.373599,54.74304 L489.463295,54.74304 L489.463295,60.530976 L487.239359,60.530976 L487.239359,54.74304 L486.056111,54.74304 L486.056111,53.03232 L487.239359,53.03232 L487.239359,52.690176 C487.239359,51.8158036 487.49834,51.1220186 488.016311,50.6088 C488.534281,50.0955814 489.263706,49.838976 490.204607,49.838976 C490.537248,49.838976 490.853253,49.8746156 491.152631,49.945896 C491.452008,50.0171764 491.701486,50.1193433 491.901071,50.2524 L491.316575,51.863328 C491.059965,51.6827511 490.760592,51.592464 490.418447,51.592464 C489.743659,51.592464 489.406271,51.9631163 489.406271,52.704432 L489.406271,53.03232 Z M492.485567,49.953024 L494.709503,49.953024 L494.709503,60.530976 L492.485567,60.530976 L492.485567,49.953024 Z M500.426159,60.645024 C499.618315,60.645024 498.893642,60.4763297 498.252119,60.138936 C497.610595,59.8015423 497.109264,59.333475 496.748111,58.73472 C496.386957,58.135965 496.206383,57.4564358 496.206383,56.696112 C496.206383,55.9357882 496.386957,55.256259 496.748111,54.657504 C497.109264,54.058749 497.610595,53.5906817 498.252119,53.253288 C498.893642,52.9158943 499.618315,52.7472 500.426159,52.7472 C501.234003,52.7472 501.956299,52.9158943 502.593071,53.253288 C503.229842,53.5906817 503.728797,54.058749 504.089951,54.657504 C504.451104,55.256259 504.631679,55.9357882 504.631679,56.696112 C504.631679,57.4564358 504.451104,58.135965 504.089951,58.73472 C503.728797,59.333475 503.229842,59.8015423 502.593071,60.138936 C501.956299,60.4763297 501.234003,60.645024 500.426159,60.645024 Z M500.426159,58.820256 C500.996401,58.820256 501.464469,58.6278019 501.830375,58.242888 C502.19628,57.8579741 502.379231,57.3423872 502.379231,56.696112 C502.379231,56.0498368 502.19628,55.5342499 501.830375,55.149336 C501.464469,54.7644221 500.996401,54.571968 500.426159,54.571968 C499.855916,54.571968 499.385472,54.7644221 499.014815,55.149336 C498.644157,55.5342499 498.458831,56.0498368 498.458831,56.696112 C498.458831,57.3423872 498.644157,57.8579741 499.014815,58.242888 C499.385472,58.6278019 499.855916,58.820256 500.426159,58.820256 Z M518.431487,52.861248 L515.651567,60.530976 L513.513167,60.530976 L511.788191,55.769472 L510.006191,60.530976 L507.867791,60.530976 L505.102127,52.861248 L507.197759,52.861248 L509.008271,58.050432 L510.890063,52.861248 L512.771855,52.861248 L514.596623,58.050432 L516.464159,52.861248 L518.431487,52.861248 Z" id="Workflow" fill="#FFFFFF" transform="translate(481.608239, 55.242000) rotate(-90.000000) translate(-481.608239, -55.242000) "></path>
                <g id="circle/white" transform="translate(355.000000, 0.000000)" fill="#FFFFFF">
                    <g id="circle_yellow">
                        <circle id="Oval" opacity="0.2" cx="54.9757241" cy="54.9757241" r="54.9757241"></circle>
                        <circle id="Oval" opacity="0.4" cx="54.9757241" cy="54.9757241" r="40.1052414"></circle>
                        <circle id="Oval" cx="54.9757241" cy="54.9757241" r="23.4322759"></circle>
                    </g>
                </g>
                <path d="M534.85119,217.591436 L531.60795,217.591436 L530.989239,219.088316 L529.332692,219.088316 L532.446202,212.102876 L534.042874,212.102876 L537.166364,219.088316 L535.4699,219.088316 L534.85119,217.591436 Z M534.34225,216.363994 L533.234559,213.689569 L532.126868,216.363994 L534.34225,216.363994 Z M543.193801,213.719506 L543.193801,219.088316 L541.716879,219.088316 L541.716879,218.449647 C541.510641,218.682496 541.26449,218.860457 540.978418,218.983534 C540.692347,219.106612 540.382994,219.16815 540.050353,219.16815 C539.345152,219.16815 538.786323,218.965241 538.373847,218.559418 C537.961372,218.153596 537.755137,217.551523 537.755137,216.753183 L537.755137,213.719506 L539.311892,213.719506 L539.311892,216.523662 C539.311892,217.38853 539.674466,217.820958 540.399625,217.820958 C540.772183,217.820958 541.071556,217.699545 541.297753,217.456717 C541.523949,217.213888 541.637046,216.852978 541.637046,216.373974 L541.637046,213.719506 L543.193801,213.719506 Z M550.109386,211.68375 L550.109386,219.088316 L548.622486,219.088316 L548.622486,218.469606 C548.236621,218.935304 547.677792,219.16815 546.94598,219.16815 C546.440365,219.16815 545.982989,219.055053 545.57384,218.828857 C545.164691,218.60266 544.843696,218.280003 544.610847,217.860874 C544.377998,217.441746 544.261575,216.956096 544.261575,216.403911 C544.261575,215.851726 544.377998,215.366076 544.610847,214.946948 C544.843696,214.52782 545.164691,214.205162 545.57384,213.978966 C545.982989,213.752769 546.440365,213.639673 546.94598,213.639673 C547.631222,213.639673 548.166767,213.855887 548.552631,214.288321 L548.552631,211.68375 L550.109386,211.68375 Z M547.215418,217.890812 C547.607936,217.890812 547.93392,217.756094 548.19338,217.486654 C548.45284,217.217215 548.582569,216.856304 548.582569,216.403911 C548.582569,215.951519 548.45284,215.590608 548.19338,215.321168 C547.93392,215.051728 547.607936,214.91701 547.215418,214.91701 C546.816248,214.91701 546.486938,215.051728 546.227478,215.321168 C545.968017,215.590608 545.838289,215.951519 545.838289,216.403911 C545.838289,216.856304 545.968017,217.217215 546.227478,217.486654 C546.486938,217.756094 546.816248,217.890812 547.215418,217.890812 Z M551.546391,213.719506 L553.103146,213.719506 L553.103146,219.088316 L551.546391,219.088316 L551.546391,213.719506 Z M552.324769,212.971066 C552.038697,212.971066 551.805851,212.887907 551.626225,212.721586 C551.446598,212.555266 551.356786,212.349031 551.356786,212.102876 C551.356786,211.856721 551.446598,211.650486 551.626225,211.484166 C551.805851,211.317845 552.038697,211.234686 552.324769,211.234686 C552.610841,211.234686 552.843686,211.314518 553.023313,211.474186 C553.202939,211.633854 553.292751,211.833436 553.292751,212.072938 C553.292751,212.332399 553.202939,212.54695 553.023313,212.716597 C552.843686,212.886244 552.610841,212.971066 552.324769,212.971066 Z M559.809169,216.42387 C559.809169,216.443828 559.79919,216.583536 559.779231,216.842996 L555.717697,216.842996 C555.790878,217.175638 555.963849,217.438421 556.236615,217.631353 C556.509381,217.824285 556.848671,217.92075 557.254494,217.92075 C557.533913,217.92075 557.781727,217.87917 557.997944,217.79601 C558.214161,217.712849 558.415406,217.581458 558.601686,217.401831 L559.429959,218.299959 C558.924344,218.878756 558.18589,219.16815 557.214577,219.16815 C556.609169,219.16815 556.073624,219.050064 555.607926,218.813888 C555.142227,218.577712 554.78298,218.250065 554.530172,217.830937 C554.277364,217.411808 554.150962,216.936138 554.150962,216.403911 C554.150962,215.878337 554.275701,215.40433 554.525182,214.981875 C554.774664,214.55942 555.117279,214.23011 555.55304,213.993934 C555.988801,213.757759 556.476113,213.639673 557.014993,213.639673 C557.540567,213.639673 558.016237,213.752769 558.442018,213.978966 C558.8678,214.205162 559.2021,214.529483 559.444928,214.951938 C559.687756,215.374393 559.809169,215.865032 559.809169,216.42387 Z M557.024972,214.817218 C556.672372,214.817218 556.376325,214.917009 556.136823,215.116594 C555.897321,215.316179 555.750961,215.588941 555.697738,215.934889 L558.342226,215.934889 C558.289004,215.595594 558.142644,215.324495 557.903142,215.121584 C557.66364,214.918673 557.370919,214.817218 557.024972,214.817218 Z M564.110204,213.639673 C564.775487,213.639673 565.312696,213.839255 565.721845,214.238425 C566.130994,214.637595 566.335566,215.229688 566.335566,216.014722 L566.335566,219.088316 L564.77881,219.088316 L564.77881,216.254223 C564.77881,215.828442 564.685672,215.510774 564.499393,215.30121 C564.313113,215.091645 564.043678,214.986865 563.691078,214.986865 C563.29856,214.986865 562.985882,215.108277 562.753033,215.351106 C562.520184,215.593934 562.403761,215.954845 562.403761,216.433849 L562.403761,219.088316 L560.847006,219.088316 L560.847006,213.719506 L562.333906,213.719506 L562.333906,214.348196 C562.540144,214.122 562.796274,213.947365 563.102305,213.824288 C563.408335,213.701211 563.744298,213.639673 564.110204,213.639673 Z M570.337225,219.16815 C569.765081,219.16815 569.251157,219.050064 568.795438,218.813888 C568.339719,218.577712 567.983798,218.250065 567.727664,217.830937 C567.47153,217.411808 567.343465,216.936138 567.343465,216.403911 C567.343465,215.871685 567.47153,215.396014 567.727664,214.976886 C567.983798,214.557757 568.339719,214.23011 568.795438,213.993934 C569.251157,213.757759 569.765081,213.639673 570.337225,213.639673 C570.902716,213.639673 571.396681,213.757759 571.819136,213.993934 C572.241591,214.23011 572.54928,214.567736 572.742212,215.006823 L571.534729,215.655471 C571.25531,215.163162 570.852819,214.91701 570.327246,214.91701 C569.921423,214.91701 569.58546,215.050065 569.319346,215.316178 C569.053233,215.582292 568.920178,215.944866 568.920178,216.403911 C568.920178,216.862957 569.053233,217.225531 569.319346,217.491644 C569.58546,217.757757 569.921423,217.890812 570.327246,217.890812 C570.859472,217.890812 571.261963,217.644661 571.534729,217.152351 L572.742212,217.810978 C572.54928,218.23676 572.241591,218.569396 571.819136,218.808898 C571.396681,219.0484 570.902716,219.16815 570.337225,219.16815 Z M578.899378,216.42387 C578.899378,216.443828 578.889399,216.583536 578.869441,216.842996 L574.807906,216.842996 C574.881088,217.175638 575.054059,217.438421 575.326825,217.631353 C575.599591,217.824285 575.93888,217.92075 576.344703,217.92075 C576.624122,217.92075 576.871937,217.87917 577.088154,217.79601 C577.304371,217.712849 577.505616,217.581458 577.691895,217.401831 L578.520169,218.299959 C578.014553,218.878756 577.2761,219.16815 576.304786,219.16815 C575.699379,219.16815 575.163834,219.050064 574.698135,218.813888 C574.232437,218.577712 573.873189,218.250065 573.620382,217.830937 C573.367574,217.411808 573.241172,216.936138 573.241172,216.403911 C573.241172,215.878337 573.365911,215.40433 573.615392,214.981875 C573.864873,214.55942 574.207489,214.23011 574.64325,213.993934 C575.07901,213.757759 575.566323,213.639673 576.105202,213.639673 C576.630776,213.639673 577.106447,213.752769 577.532228,213.978966 C577.958009,214.205162 578.292309,214.529483 578.535138,214.951938 C578.777966,215.374393 578.899378,215.865032 578.899378,216.42387 Z M576.115182,214.817218 C575.762581,214.817218 575.466535,214.917009 575.227033,215.116594 C574.987531,215.316179 574.841171,215.588941 574.787948,215.934889 L577.432436,215.934889 C577.379213,215.595594 577.232853,215.324495 576.993351,215.121584 C576.753849,214.918673 576.461129,214.817218 576.115182,214.817218 Z M588.23991,219.208066 L587.401657,218.429689 C586.736373,218.94861 585.958004,219.208066 585.066524,219.208066 C584.560909,219.208066 584.105196,219.12657 583.699374,218.963576 C583.293551,218.800582 582.975883,218.572725 582.74636,218.280001 C582.516837,217.987276 582.402078,217.657966 582.402078,217.29206 C582.402078,216.859626 582.52349,216.478757 582.766318,216.149442 C583.009147,215.820126 583.399995,215.505785 583.938874,215.206407 C583.686067,214.946947 583.503117,214.699132 583.390018,214.462957 C583.27692,214.226781 583.220372,213.982293 583.220372,213.729486 C583.220372,213.390191 583.310184,213.090818 583.48981,212.831358 C583.669437,212.571897 583.923904,212.370652 584.253219,212.227616 C584.582534,212.08458 584.963403,212.013063 585.395838,212.013063 C586.001245,212.013063 586.486895,212.15776 586.852801,212.447158 C587.218707,212.736557 587.401657,213.127405 587.401657,213.619714 C587.401657,213.978967 587.29355,214.298299 587.077333,214.577718 C586.861116,214.857137 586.51351,215.126572 586.034506,215.386033 L587.311844,216.573558 C587.464859,216.254222 587.581282,215.891648 587.661116,215.485825 L588.908516,215.875014 C588.775459,216.493727 588.562572,217.022619 588.269847,217.461706 L589.088142,218.220126 L588.23991,219.208066 Z M585.395838,213.070858 C585.162988,213.070858 584.978375,213.130733 584.841992,213.250484 C584.705609,213.370235 584.637418,213.523248 584.637418,213.709527 C584.637418,213.849237 584.674008,213.980628 584.74719,214.103706 C584.820371,214.226783 584.963405,214.391438 585.176295,214.597676 C585.51559,214.41805 585.751762,214.256721 585.884818,214.113685 C586.017875,213.970649 586.084402,213.815973 586.084402,213.649652 C586.084402,213.476678 586.024528,213.336971 585.904777,213.230526 C585.785026,213.12408 585.615381,213.070858 585.395838,213.070858 Z M585.176295,217.990604 C585.661952,217.990604 586.097706,217.854223 586.48357,217.581457 L584.797086,216.004743 C584.484402,216.18437 584.261536,216.360667 584.128479,216.533641 C583.995423,216.706614 583.928895,216.90287 583.928895,217.122414 C583.928895,217.381874 584.041992,217.591435 584.268188,217.751103 C584.494384,217.910771 584.797084,217.990604 585.176295,217.990604 Z M594.407055,213.42013 L592.171714,213.42013 L592.171714,212.102876 L598.259026,212.102876 L598.259026,213.42013 L596.023686,213.42013 L596.023686,219.088316 L594.407055,219.088316 L594.407055,213.42013 Z M601.182932,213.639673 C602.014536,213.639673 602.653199,213.837592 603.098938,214.233435 C603.544678,214.629279 603.767545,215.226362 603.767545,216.024702 L603.767545,219.088316 L602.310582,219.088316 L602.310582,218.41971 C602.017857,218.918672 601.472333,219.16815 600.673993,219.16815 C600.261517,219.16815 599.903933,219.098296 599.601229,218.958586 C599.298525,218.818877 599.067342,218.625948 598.907674,218.379793 C598.748006,218.133638 598.668174,217.854223 598.668174,217.54154 C598.668174,217.042578 598.856113,216.650066 599.231998,216.363994 C599.607883,216.077923 600.188334,215.934889 600.973369,215.934889 L602.21079,215.934889 C602.21079,215.595594 602.107672,215.334475 601.901434,215.151522 C601.695197,214.968569 601.385844,214.877094 600.973369,214.877094 C600.687297,214.877094 600.406219,214.922 600.130126,215.011813 C599.854034,215.101626 599.619525,215.223038 599.426593,215.376054 L598.867758,214.288321 C599.160482,214.082083 599.511414,213.922417 599.920563,213.809319 C600.329712,213.696221 600.750498,213.639673 601.182932,213.639673 Z M601.063182,218.120334 C601.329295,218.120334 601.565467,218.058796 601.771705,217.935718 C601.977943,217.812641 602.124303,217.631354 602.21079,217.391852 L602.21079,216.842996 L601.143015,216.842996 C600.504343,216.842996 600.185012,217.052557 600.185012,217.471686 C600.185012,217.671271 600.263182,217.829273 600.419523,217.945698 C600.575865,218.062122 600.790415,218.120334 601.063182,218.120334 Z M606.661513,214.42803 C606.847792,214.168569 607.098933,213.972313 607.414942,213.839257 C607.730952,213.7062 608.095189,213.639673 608.507665,213.639673 L608.507665,215.076678 C608.334691,215.063372 608.218268,215.056719 608.158393,215.056719 C607.712653,215.056719 607.363384,215.181458 607.110577,215.430939 C606.857769,215.68042 606.731367,216.054637 606.731367,216.553599 L606.731367,219.088316 L605.174612,219.088316 L605.174612,213.719506 L606.661513,213.719506 L606.661513,214.42803 Z M615.014103,213.719506 L615.014103,218.190188 C615.014103,219.174807 614.757973,219.906608 614.245705,220.385612 C613.733437,220.864616 612.985004,221.104114 612.000385,221.104114 C611.481464,221.104114 610.989162,221.040913 610.523463,220.91451 C610.057765,220.788106 609.671906,220.605156 609.365876,220.365654 L609.984586,219.247983 C610.210783,219.434263 610.49685,219.582286 610.842798,219.692058 C611.188745,219.801829 611.534687,219.856714 611.880634,219.856714 C612.419514,219.856714 612.817015,219.735302 613.073149,219.492474 C613.329283,219.249645 613.457348,218.882082 613.457348,218.389772 L613.457348,218.16025 C613.051525,218.60599 612.486043,218.828857 611.760884,218.828857 C611.268574,218.828857 610.817852,218.72075 610.408702,218.504533 C609.999553,218.288316 609.675232,217.983953 609.43573,217.591436 C609.196228,217.198919 609.076479,216.746533 609.076479,216.234265 C609.076479,215.721997 609.196228,215.269611 609.43573,214.877094 C609.675232,214.484576 609.999553,214.180214 610.408702,213.963997 C610.817852,213.74778 611.268574,213.639673 611.760884,213.639673 C612.539265,213.639673 613.131359,213.895803 613.537182,214.408071 L613.537182,213.719506 L615.014103,213.719506 Z M612.070239,217.551519 C612.482715,217.551519 612.820341,217.430107 613.083128,217.187278 C613.345915,216.94445 613.477306,216.626782 613.477306,216.234265 C613.477306,215.841748 613.345915,215.52408 613.083128,215.281251 C612.820341,215.038423 612.482715,214.91701 612.070239,214.91701 C611.657764,214.91701 611.318474,215.038423 611.052361,215.281251 C610.786247,215.52408 610.653193,215.841748 610.653193,216.234265 C610.653193,216.626782 610.786247,216.94445 611.052361,217.187278 C611.318474,217.430107 611.657764,217.551519 612.070239,217.551519 Z M621.720126,216.42387 C621.720126,216.443828 621.710146,216.583536 621.690188,216.842996 L617.628654,216.842996 C617.701835,217.175638 617.874806,217.438421 618.147572,217.631353 C618.420338,217.824285 618.759628,217.92075 619.16545,217.92075 C619.444869,217.92075 619.692684,217.87917 619.908901,217.79601 C620.125118,217.712849 620.326363,217.581458 620.512642,217.401831 L621.340916,218.299959 C620.835301,218.878756 620.096847,219.16815 619.125534,219.16815 C618.520126,219.16815 617.984581,219.050064 617.518882,218.813888 C617.053184,218.577712 616.693936,218.250065 616.441129,217.830937 C616.188321,217.411808 616.061919,216.936138 616.061919,216.403911 C616.061919,215.878337 616.186658,215.40433 616.436139,214.981875 C616.68562,214.55942 617.028236,214.23011 617.463997,213.993934 C617.899757,213.757759 618.38707,213.639673 618.92595,213.639673 C619.451523,213.639673 619.927194,213.752769 620.352975,213.978966 C620.778757,214.205162 621.113056,214.529483 621.355885,214.951938 C621.598713,215.374393 621.720126,215.865032 621.720126,216.42387 Z M618.935929,214.817218 C618.583329,214.817218 618.287282,214.917009 618.04778,215.116594 C617.808278,215.316179 617.661918,215.588941 617.608695,215.934889 L620.253183,215.934889 C620.199961,215.595594 620.0536,215.324495 619.814098,215.121584 C619.574596,214.918673 619.281876,214.817218 618.935929,214.817218 Z M626.220745,218.828857 C626.06773,218.941955 625.87979,219.026777 625.65692,219.083326 C625.43405,219.139875 625.199541,219.16815 624.953386,219.16815 C624.314714,219.16815 623.820749,219.005158 623.471475,218.679169 C623.122201,218.35318 622.947567,217.874183 622.947567,217.242164 L622.947567,215.036761 L622.119294,215.036761 L622.119294,213.839257 L622.947567,213.839257 L622.947567,212.531982 L624.504322,212.531982 L624.504322,213.839257 L625.841535,213.839257 L625.841535,215.036761 L624.504322,215.036761 L624.504322,217.222206 C624.504322,217.448402 624.562534,217.623036 624.678958,217.746114 C624.795383,217.869191 624.960038,217.930729 625.172929,217.930729 C625.419084,217.930729 625.628645,217.864201 625.801618,217.731145 L626.220745,218.828857 Z M627.098914,213.719506 L628.65567,213.719506 L628.65567,219.088316 L627.098914,219.088316 L627.098914,213.719506 Z M627.877292,212.971066 C627.59122,212.971066 627.358374,212.887907 627.178748,212.721586 C626.999122,212.555266 626.90931,212.349031 626.90931,212.102876 C626.90931,211.856721 626.999122,211.650486 627.178748,211.484166 C627.358374,211.317845 627.59122,211.234686 627.877292,211.234686 C628.163364,211.234686 628.39621,211.314518 628.575836,211.474186 C628.755462,211.633854 628.845274,211.833436 628.845274,212.072938 C628.845274,212.332399 628.755462,212.54695 628.575836,212.716597 C628.39621,212.886244 628.163364,212.971066 627.877292,212.971066 Z M633.365852,213.639673 C634.031135,213.639673 634.568344,213.839255 634.977493,214.238425 C635.386642,214.637595 635.591214,215.229688 635.591214,216.014722 L635.591214,219.088316 L634.034458,219.088316 L634.034458,216.254223 C634.034458,215.828442 633.94132,215.510774 633.755041,215.30121 C633.568761,215.091645 633.299326,214.986865 632.946726,214.986865 C632.554208,214.986865 632.24153,215.108277 632.008681,215.351106 C631.775832,215.593934 631.659409,215.954845 631.659409,216.433849 L631.659409,219.088316 L630.102654,219.088316 L630.102654,213.719506 L631.589554,213.719506 L631.589554,214.348196 C631.795792,214.122 632.051922,213.947365 632.357953,213.824288 C632.663983,213.701211 632.999946,213.639673 633.365852,213.639673 Z M642.536737,213.719506 L642.536737,218.190188 C642.536737,219.174807 642.280607,219.906608 641.768338,220.385612 C641.25607,220.864616 640.507638,221.104114 639.523018,221.104114 C639.004097,221.104114 638.511795,221.040913 638.046097,220.91451 C637.580398,220.788106 637.19454,220.605156 636.88851,220.365654 L637.50722,219.247983 C637.733416,219.434263 638.019484,219.582286 638.365431,219.692058 C638.711379,219.801829 639.057321,219.856714 639.403268,219.856714 C639.942147,219.856714 640.339648,219.735302 640.595782,219.492474 C640.851916,219.249645 640.979982,218.882082 640.979982,218.389772 L640.979982,218.16025 C640.574159,218.60599 640.008676,218.828857 639.283518,218.828857 C638.791208,218.828857 638.340485,218.72075 637.931336,218.504533 C637.522187,218.288316 637.197866,217.983953 636.958364,217.591436 C636.718862,217.198919 636.599113,216.746533 636.599113,216.234265 C636.599113,215.721997 636.718862,215.269611 636.958364,214.877094 C637.197866,214.484576 637.522187,214.180214 637.931336,213.963997 C638.340485,213.74778 638.791208,213.639673 639.283518,213.639673 C640.061899,213.639673 640.653992,213.895803 641.059815,214.408071 L641.059815,213.719506 L642.536737,213.719506 Z M639.592873,217.551519 C640.005348,217.551519 640.342975,217.430107 640.605762,217.187278 C640.868549,216.94445 640.99994,216.626782 640.99994,216.234265 C640.99994,215.841748 640.868549,215.52408 640.605762,215.281251 C640.342975,215.038423 640.005348,214.91701 639.592873,214.91701 C639.180397,214.91701 638.841108,215.038423 638.574994,215.281251 C638.308881,215.52408 638.175826,215.841748 638.175826,216.234265 C638.175826,216.626782 638.308881,216.94445 638.574994,217.187278 C638.841108,217.430107 639.180397,217.551519 639.592873,217.551519 Z" id="Audience-&amp;-Targeting" fill="#FFFFFF" transform="translate(585.934714, 216.169400) rotate(-90.000000) translate(-585.934714, -216.169400) "></path>
                <g id="circle/white" transform="translate(496.933440, 177.500000)" fill="#FFFFFF">
                    <g id="circle_yellow">
                        <circle id="Oval" opacity="0.2" cx="38.41992" cy="38.41992" r="38.41992"></circle>
                        <circle id="Oval" opacity="0.4" cx="38.41992" cy="38.41992" r="28.0276466"></circle>
                        <circle id="Oval" cx="38.41992" cy="38.41992" r="16.3757036"></circle>
                    </g>
                </g>
                <path d="M439.243079,278.369275 C438.684707,278.369275 438.181411,278.248894 437.733176,278.008128 C437.284941,277.767362 436.934043,277.435673 436.68047,277.013052 C436.426898,276.590431 436.300113,276.115309 436.300113,275.587673 C436.300113,275.060037 436.426898,274.584915 436.68047,274.162294 C436.934043,273.739673 437.284941,273.407984 437.733176,273.167218 C438.181411,272.926452 438.684707,272.806071 439.243079,272.806071 C439.801451,272.806071 440.303467,272.926452 440.74914,273.167218 C441.194813,273.407984 441.545712,273.739673 441.801846,274.162294 C442.05798,274.584915 442.186045,275.060037 442.186045,275.587673 C442.186045,276.115309 442.05798,276.590431 441.801846,277.013052 C441.545712,277.435673 441.194813,277.767362 440.74914,278.008128 C440.303467,278.248894 439.801451,278.369275 439.243079,278.369275 Z M439.243079,277.308885 C439.560685,277.308885 439.847551,277.235888 440.103685,277.089892 C440.359819,276.943895 440.560881,276.740272 440.706878,276.479015 C440.852874,276.217758 440.925871,275.920647 440.925871,275.587673 C440.925871,275.254698 440.852874,274.957587 440.706878,274.696331 C440.560881,274.435074 440.359819,274.23145 440.103685,274.085454 C439.847551,273.939458 439.560685,273.86646 439.243079,273.86646 C438.925473,273.86646 438.638607,273.939458 438.382473,274.085454 C438.126339,274.23145 437.925276,274.435074 437.77928,274.696331 C437.633284,274.957587 437.560286,275.254698 437.560286,275.587673 C437.560286,275.920647 437.633284,276.217758 437.77928,276.479015 C437.925276,276.740272 438.126339,276.943895 438.382473,277.089892 C438.638607,277.235888 438.925473,277.308885 439.243079,277.308885 Z M445.482474,274.081612 C445.866675,274.081612 446.216293,274.169977 446.531338,274.346709 C446.846383,274.523442 447.093548,274.771888 447.272842,275.092056 C447.452136,275.412223 447.541782,275.784893 447.541782,276.210076 C447.541782,276.635258 447.452136,277.007928 447.272842,277.328095 C447.093548,277.648263 446.846383,277.896709 446.531338,278.073442 C446.216293,278.250174 445.866675,278.338539 445.482474,278.338539 C444.954838,278.338539 444.539907,278.172054 444.237669,277.83908 L444.237669,279.76776 L443.038967,279.76776 L443.038967,274.143084 L444.183881,274.143084 L444.183881,274.619491 C444.480996,274.260903 444.913856,274.081612 445.482474,274.081612 Z M445.275006,277.354989 C445.582367,277.354989 445.834656,277.251256 446.031879,277.043788 C446.229102,276.836319 446.327712,276.558418 446.327712,276.210076 C446.327712,275.861733 446.229102,275.583832 446.031879,275.376363 C445.834656,275.168895 445.582367,275.065162 445.275006,275.065162 C444.967645,275.065162 444.715357,275.168895 444.518134,275.376363 C444.320911,275.583832 444.222301,275.861733 444.222301,276.210076 C444.222301,276.558418 444.320911,276.836319 444.518134,277.043788 C444.715357,277.251256 444.967645,277.354989 445.275006,277.354989 Z M451.007258,278.077284 C450.889437,278.164369 450.744723,278.229682 450.573113,278.273225 C450.401504,278.316768 450.220932,278.338539 450.031392,278.338539 C449.539615,278.338539 449.159262,278.213035 448.890321,277.962024 C448.62138,277.711012 448.486912,277.342185 448.486912,276.85553 L448.486912,275.15737 L447.849141,275.15737 L447.849141,274.235292 L448.486912,274.235292 L448.486912,273.22869 L449.685613,273.22869 L449.685613,274.235292 L450.715267,274.235292 L450.715267,275.15737 L449.685613,275.15737 L449.685613,276.840162 C449.685613,277.014333 449.730436,277.148802 449.820083,277.243571 C449.90973,277.338341 450.036514,277.385725 450.20044,277.385725 C450.389979,277.385725 450.551341,277.334499 450.684531,277.232045 L451.007258,278.077284 Z M451.683449,274.143084 L452.882151,274.143084 L452.882151,278.277067 L451.683449,278.277067 L451.683449,274.143084 Z M452.2828,273.566785 C452.062524,273.566785 451.883233,273.502752 451.744921,273.374685 C451.606609,273.246618 451.537453,273.087818 451.537453,272.898278 C451.537453,272.708739 451.606609,272.549938 451.744921,272.421871 C451.883233,272.293804 452.062524,272.229772 452.2828,272.229772 C452.503075,272.229772 452.682366,272.291243 452.820679,272.414187 C452.958991,272.537132 453.028146,272.69081 453.028146,272.875226 C453.028146,273.075011 452.958991,273.240215 452.820679,273.370843 C452.682366,273.501472 452.503075,273.566785 452.2828,273.566785 Z M459.290593,274.081612 C459.807984,274.081612 460.219073,274.234009 460.523873,274.538809 C460.828672,274.843609 460.98107,275.300801 460.98107,275.9104 L460.98107,278.277067 L459.782368,278.277067 L459.782368,276.094816 C459.782368,275.766964 459.714494,275.52236 459.578743,275.360995 C459.442992,275.199631 459.249613,275.11895 458.998602,275.11895 C458.716854,275.11895 458.494021,275.209876 458.330095,275.391731 C458.166169,275.573586 458.084208,275.843804 458.084208,276.202392 L458.084208,278.277067 L456.885506,278.277067 L456.885506,276.094816 C456.885506,275.444235 456.624253,275.11895 456.10174,275.11895 C455.825115,275.11895 455.604843,275.209876 455.440917,275.391731 C455.276991,275.573586 455.19503,275.843804 455.19503,276.202392 L455.19503,278.277067 L453.996328,278.277067 L453.996328,274.143084 L455.141242,274.143084 L455.141242,274.619491 C455.294922,274.44532 455.483178,274.312132 455.706015,274.219924 C455.928851,274.127715 456.173456,274.081612 456.439835,274.081612 C456.731828,274.081612 456.995642,274.139241 457.231285,274.254502 C457.466929,274.369762 457.656465,274.537527 457.7999,274.757803 C457.968949,274.54265 458.182818,274.376165 458.441513,274.258344 C458.700208,274.140522 458.983232,274.081612 459.290593,274.081612 Z M462.056827,274.143084 L463.255529,274.143084 L463.255529,278.277067 L462.056827,278.277067 L462.056827,274.143084 Z M462.656178,273.566785 C462.435903,273.566785 462.256612,273.502752 462.118299,273.374685 C461.979987,273.246618 461.910832,273.087818 461.910832,272.898278 C461.910832,272.708739 461.979987,272.549938 462.118299,272.421871 C462.256612,272.293804 462.435903,272.229772 462.656178,272.229772 C462.876454,272.229772 463.055745,272.291243 463.194057,272.414187 C463.332369,272.537132 463.401525,272.69081 463.401525,272.875226 C463.401525,273.075011 463.332369,273.240215 463.194057,273.370843 C463.055745,273.501472 462.876454,273.566785 462.656178,273.566785 Z M467.773712,277.354989 L467.773712,278.277067 L464.085399,278.277067 L464.085399,277.554773 L466.190811,275.065162 L464.139187,275.065162 L464.139187,274.143084 L467.704556,274.143084 L467.704556,274.865378 L465.599144,277.354989 L467.773712,277.354989 Z M470.209534,274.081612 C470.84987,274.081612 471.34164,274.234009 471.684859,274.538809 C472.028079,274.843609 472.199686,275.303362 472.199686,275.918084 L472.199686,278.277067 L471.077825,278.277067 L471.077825,277.76224 C470.852427,278.146441 470.432373,278.338539 469.817651,278.338539 C469.500045,278.338539 469.224705,278.284752 468.991623,278.177175 C468.758541,278.069599 468.58053,277.921044 468.457586,277.731504 C468.334642,277.541965 468.27317,277.326816 468.27317,277.08605 C468.27317,276.701849 468.417884,276.399615 468.707316,276.17934 C468.996747,275.959064 469.443694,275.848928 470.048171,275.848928 L471.000985,275.848928 C471.000985,275.587671 470.921584,275.386609 470.762781,275.245736 C470.603978,275.104862 470.365777,275.034426 470.048171,275.034426 C469.827895,275.034426 469.611465,275.069004 469.398874,275.13816 C469.186283,275.207316 469.005711,275.300803 468.857153,275.418625 L468.42685,274.581071 C468.652248,274.422268 468.922466,274.299325 469.23751,274.21224 C469.552555,274.125154 469.87656,274.081612 470.209534,274.081612 Z M470.117327,277.531721 C470.322234,277.531721 470.504086,277.484337 470.66289,277.389567 C470.821693,277.294797 470.93439,277.155206 471.000985,276.97079 L471.000985,276.548171 L470.178799,276.548171 C469.687021,276.548171 469.441136,276.709533 469.441136,277.032262 C469.441136,277.185942 469.501327,277.307604 469.62171,277.397251 C469.742093,277.486898 469.907297,277.531721 470.117327,277.531721 Z M475.949471,278.077284 C475.831649,278.164369 475.686935,278.229682 475.515325,278.273225 C475.343716,278.316768 475.163144,278.338539 474.973605,278.338539 C474.481827,278.338539 474.101474,278.213035 473.832533,277.962024 C473.563592,277.711012 473.429124,277.342185 473.429124,276.85553 L473.429124,275.15737 L472.791353,275.15737 L472.791353,274.235292 L473.429124,274.235292 L473.429124,273.22869 L474.627825,273.22869 L474.627825,274.235292 L475.657479,274.235292 L475.657479,275.15737 L474.627825,275.15737 L474.627825,276.840162 C474.627825,277.014333 474.672648,277.148802 474.762295,277.243571 C474.851942,277.338341 474.978726,277.385725 475.142652,277.385725 C475.332191,277.385725 475.493553,277.334499 475.626743,277.232045 L475.949471,278.077284 Z M476.625661,274.143084 L477.824363,274.143084 L477.824363,278.277067 L476.625661,278.277067 L476.625661,274.143084 Z M477.225012,273.566785 C477.004737,273.566785 476.825445,273.502752 476.687133,273.374685 C476.548821,273.246618 476.479665,273.087818 476.479665,272.898278 C476.479665,272.708739 476.548821,272.549938 476.687133,272.421871 C476.825445,272.293804 477.004737,272.229772 477.225012,272.229772 C477.445287,272.229772 477.624578,272.291243 477.762891,272.414187 C477.901203,272.537132 477.970358,272.69081 477.970358,272.875226 C477.970358,273.075011 477.901203,273.240215 477.762891,273.370843 C477.624578,273.501472 477.445287,273.566785 477.225012,273.566785 Z M480.90564,278.338539 C480.470212,278.338539 480.079614,278.247613 479.733833,278.065758 C479.388052,277.883902 479.117834,277.631614 478.923172,277.308885 C478.72851,276.986156 478.631181,276.61989 478.631181,276.210076 C478.631181,275.800261 478.72851,275.433995 478.923172,275.111266 C479.117834,274.788537 479.388052,274.536249 479.733833,274.354393 C480.079614,274.172538 480.470212,274.081612 480.90564,274.081612 C481.341068,274.081612 481.730386,274.172538 482.073606,274.354393 C482.416825,274.536249 482.685762,274.788537 482.880424,275.111266 C483.075086,275.433995 483.172415,275.800261 483.172415,276.210076 C483.172415,276.61989 483.075086,276.986156 482.880424,277.308885 C482.685762,277.631614 482.416825,277.883902 482.073606,278.065758 C481.730386,278.247613 481.341068,278.338539 480.90564,278.338539 Z M480.90564,277.354989 C481.213001,277.354989 481.465289,277.251256 481.662513,277.043788 C481.859736,276.836319 481.958346,276.558418 481.958346,276.210076 C481.958346,275.861733 481.859736,275.583832 481.662513,275.376363 C481.465289,275.168895 481.213001,275.065162 480.90564,275.065162 C480.598279,275.065162 480.34471,275.168895 480.144926,275.376363 C479.945141,275.583832 479.84525,275.861733 479.84525,276.210076 C479.84525,276.558418 479.945141,276.836319 480.144926,277.043788 C480.34471,277.251256 480.598279,277.354989 480.90564,277.354989 Z M486.484213,274.081612 C486.996481,274.081612 487.410131,274.23529 487.725176,274.542651 C488.040221,274.850012 488.197741,275.305924 488.197741,275.9104 L488.197741,278.277067 L486.99904,278.277067 L486.99904,276.094816 C486.99904,275.766964 486.927323,275.52236 486.783888,275.360995 C486.640453,275.199631 486.432987,275.11895 486.161485,275.11895 C485.859247,275.11895 485.618485,275.212437 485.439191,275.399415 C485.259897,275.586393 485.170251,275.864294 485.170251,276.233127 L485.170251,278.277067 L483.97155,278.277067 L483.97155,274.143084 L485.116463,274.143084 L485.116463,274.627175 C485.275267,274.453004 485.472487,274.318535 485.70813,274.223766 C485.943774,274.128996 486.202465,274.081612 486.484213,274.081612 Z" id="Optimization" fill="#FFFFFF" transform="translate(462.248927, 275.998766) rotate(-90.000000) translate(-462.248927, -275.998766) "></path>
                <g id="circle/white" transform="translate(392.588749, 245.000000)" fill="#FFFFFF">
                    <g id="circle_yellow">
                        <circle id="Oval" opacity="0.2" cx="29.9184909" cy="29.9184909" r="29.9184909"></circle>
                        <circle id="Oval" opacity="0.4" cx="29.9184909" cy="29.9184909" r="21.8257843"></circle>
                        <circle id="Oval" cx="29.9184909" cy="29.9184909" r="12.7521437"></circle>
                    </g>
                </g>
                <path d="M54.6689992,98.8858144 C54.2459899,98.8858144 53.8647051,98.7946165 53.5251334,98.612218 C53.1855617,98.4298195 52.9197296,98.1785402 52.727629,97.8583726 C52.5355284,97.538205 52.4394796,97.1782644 52.4394796,96.77854 C52.4394796,96.3788156 52.5355284,96.018875 52.727629,95.6987074 C52.9197296,95.3785398 53.1855617,95.1272605 53.5251334,94.944862 C53.8647051,94.7624635 54.2459899,94.6712656 54.6689992,94.6712656 C55.0920085,94.6712656 55.4723231,94.7624635 55.8099544,94.944862 C56.1475857,95.1272605 56.4134178,95.3785398 56.6074588,95.6987074 C56.8014998,96.018875 56.8985188,96.3788156 56.8985188,96.77854 C56.8985188,97.1782644 56.8014998,97.538205 56.6074588,97.8583726 C56.4134178,98.1785402 56.1475857,98.4298195 55.8099544,98.612218 C55.4723231,98.7946165 55.0920085,98.8858144 54.6689992,98.8858144 Z M54.6689992,98.0824888 C54.90961,98.0824888 55.1269326,98.027188 55.3209736,97.9165846 C55.5150146,97.8059812 55.6673344,97.651721 55.7779378,97.4537992 C55.8885412,97.2558774 55.943842,97.0307933 55.943842,96.77854 C55.943842,96.5262867 55.8885412,96.3012026 55.7779378,96.1032808 C55.6673344,95.905359 55.5150146,95.7510988 55.3209736,95.6404954 C55.1269326,95.529892 54.90961,95.4745912 54.6689992,95.4745912 C54.4283884,95.4745912 54.2110658,95.529892 54.0170248,95.6404954 C53.8229838,95.7510988 53.670664,95.905359 53.5600606,96.1032808 C53.4494572,96.3012026 53.3941564,96.5262867 53.3941564,96.77854 C53.3941564,97.0307933 53.4494572,97.2558774 53.5600606,97.4537992 C53.670664,97.651721 53.8229838,97.8059812 54.0170248,97.9165846 C54.2110658,98.027188 54.4283884,98.0824888 54.6689992,98.0824888 Z M59.3958136,95.6375848 C59.6868751,95.6375848 59.951737,95.7045279 60.1904074,95.8384162 C60.4290778,95.9723045 60.6163245,96.1605214 60.7521532,96.4030726 C60.8879819,96.6456238 60.9558952,96.9279492 60.9558952,97.2500572 C60.9558952,97.5721652 60.8879819,97.8544906 60.7521532,98.0970418 C60.6163245,98.339593 60.4290778,98.5278099 60.1904074,98.6616982 C59.951737,98.7955865 59.6868751,98.8625296 59.3958136,98.8625296 C58.9960892,98.8625296 58.6817475,98.7364049 58.4527792,98.4841516 L58.4527792,99.9452728 L57.544672,99.9452728 L57.544672,95.6841544 L58.4120308,95.6841544 L58.4120308,96.0450688 C58.6371183,95.7734114 58.9650426,95.6375848 59.3958136,95.6375848 Z M59.2386412,98.117416 C59.4714904,98.117416 59.6626179,98.0388306 59.8120294,97.8816574 C59.9614409,97.7244842 60.0361456,97.5139529 60.0361456,97.2500572 C60.0361456,96.9861615 59.9614409,96.7756302 59.8120294,96.618457 C59.6626179,96.4612838 59.4714904,96.3826984 59.2386412,96.3826984 C59.005792,96.3826984 58.8146645,96.4612838 58.665253,96.618457 C58.5158415,96.7756302 58.4411368,96.9861615 58.4411368,97.2500572 C58.4411368,97.5139529 58.5158415,97.7244842 58.665253,97.8816574 C58.8146645,98.0388306 59.005792,98.117416 59.2386412,98.117416 Z M63.5812564,98.6646088 C63.4919976,98.7305827 63.3823661,98.7800624 63.2523586,98.8130494 C63.1223511,98.8460364 62.9855543,98.8625296 62.841964,98.8625296 C62.4694053,98.8625296 62.1812588,98.767451 61.9775158,98.5772908 C61.7737728,98.3871306 61.6719028,98.1077158 61.6719028,97.739038 L61.6719028,96.4525528 L61.1887432,96.4525528 L61.1887432,95.7540088 L61.6719028,95.7540088 L61.6719028,94.9914316 L62.58001,94.9914316 L62.58001,95.7540088 L63.3600508,95.7540088 L63.3600508,96.4525528 L62.58001,96.4525528 L62.58001,97.7273956 C62.58001,97.8593435 62.6139667,97.9612134 62.681881,98.0330086 C62.7497953,98.1048038 62.8458442,98.1407008 62.9700304,98.1407008 C63.1136207,98.1407008 63.2358647,98.1018932 63.336766,98.0242768 L63.5812564,98.6646088 Z M64.093522,95.6841544 L65.0016292,95.6841544 L65.0016292,98.81596 L64.093522,98.81596 L64.093522,95.6841544 Z M64.5475756,95.2475644 C64.3807004,95.2475644 64.2448737,95.1990549 64.1400916,95.1020344 C64.0353095,95.0050139 63.9829192,94.8847103 63.9829192,94.74112 C63.9829192,94.5975297 64.0353095,94.4772261 64.1400916,94.3802056 C64.2448737,94.2831851 64.3807004,94.2346756 64.5475756,94.2346756 C64.7144508,94.2346756 64.8502775,94.2812447 64.9550596,94.3743844 C65.0598417,94.4675241 65.112232,94.5839469 65.112232,94.7236564 C65.112232,94.8750084 65.0598417,95.0001629 64.9550596,95.0991238 C64.8502775,95.1980847 64.7144508,95.2475644 64.5475756,95.2475644 Z M69.85651,95.6375848 C70.2484728,95.6375848 70.5599038,95.7530374 70.7908126,95.9839462 C71.0217214,96.214855 71.137174,96.5612129 71.137174,97.0230304 L71.137174,98.81596 L70.2290668,98.81596 L70.2290668,97.1627392 C70.2290668,96.9143668 70.1776467,96.7290604 70.074805,96.6068146 C69.9719633,96.4845688 69.8254646,96.4234468 69.6353044,96.4234468 C69.4218593,96.4234468 69.2530462,96.4923303 69.12886,96.6300994 C69.0046738,96.7678685 68.9425816,96.9725786 68.9425816,97.244236 L68.9425816,98.81596 L68.0344744,98.81596 L68.0344744,97.1627392 C68.0344744,96.6698751 67.8365556,96.4234468 67.440712,96.4234468 C67.2311478,96.4234468 67.064275,96.4923303 66.9400888,96.6300994 C66.8159026,96.7678685 66.7538104,96.9725786 66.7538104,97.244236 L66.7538104,98.81596 L65.8457032,98.81596 L65.8457032,95.6841544 L66.713062,95.6841544 L66.713062,96.0450688 C66.8294866,95.9131209 66.9721046,95.8122211 67.1409202,95.7423664 C67.3097358,95.6725117 67.4950422,95.6375848 67.6968448,95.6375848 C67.9180515,95.6375848 68.1179107,95.6812434 68.2964284,95.7685618 C68.4749461,95.8558802 68.6185343,95.9829752 68.7271972,96.1498504 C68.8552642,95.986856 69.017286,95.8607312 69.2132674,95.7714724 C69.4092488,95.6822136 69.6236608,95.6375848 69.85651,95.6375848 Z M71.952142,95.6841544 L72.8602492,95.6841544 L72.8602492,98.81596 L71.952142,98.81596 L71.952142,95.6841544 Z M72.4061956,95.2475644 C72.2393204,95.2475644 72.1034937,95.1990549 71.9987116,95.1020344 C71.8939295,95.0050139 71.8415392,94.8847103 71.8415392,94.74112 C71.8415392,94.5975297 71.8939295,94.4772261 71.9987116,94.3802056 C72.1034937,94.2831851 72.2393204,94.2346756 72.4061956,94.2346756 C72.5730708,94.2346756 72.7088975,94.2812447 72.8136796,94.3743844 C72.9184617,94.4675241 72.970852,94.5839469 72.970852,94.7236564 C72.970852,94.8750084 72.9184617,95.0001629 72.8136796,95.0991238 C72.7088975,95.1980847 72.5730708,95.2475644 72.4061956,95.2475644 Z M76.2831148,98.117416 L76.2831148,98.81596 L73.4889388,98.81596 L73.4889388,98.2687672 L75.0839476,96.3826984 L73.5296872,96.3826984 L73.5296872,95.6841544 L76.230724,95.6841544 L76.230724,96.2313472 L74.6357152,98.117416 L76.2831148,98.117416 Z M78.1284352,95.6375848 C78.6135376,95.6375848 78.9860907,95.7530374 79.2461056,95.9839462 C79.5061205,96.214855 79.636126,96.5631533 79.636126,97.0288516 L79.636126,98.81596 L78.7862308,98.81596 L78.7862308,98.4259396 C78.6154747,98.7170011 78.2972523,98.8625296 77.831554,98.8625296 C77.5909432,98.8625296 77.3823523,98.8217816 77.205775,98.7402844 C77.0291977,98.6587872 76.8943413,98.5462451 76.8012016,98.4026548 C76.7080619,98.2590645 76.6614928,98.0960725 76.6614928,97.913674 C76.6614928,97.6226125 76.7711243,97.3936476 76.9903906,97.2267724 C77.2096569,97.0598972 77.5482533,96.9764608 78.00619,96.9764608 L78.7280188,96.9764608 C78.7280188,96.778539 78.667867,96.6262191 78.5475616,96.5194966 C78.4272562,96.4127741 78.2468008,96.3594136 78.00619,96.3594136 C77.8393148,96.3594136 77.6753526,96.3856087 77.5142986,96.4379998 C77.3532446,96.4903909 77.2164478,96.5612148 77.103904,96.6504736 L76.7779168,96.0159628 C76.9486729,95.8956574 77.153383,95.8025191 77.3920534,95.7365452 C77.6307238,95.6705713 77.8761819,95.6375848 78.1284352,95.6375848 Z M78.0585808,98.2513036 C78.2138136,98.2513036 78.3515806,98.2154066 78.471886,98.1436114 C78.5921914,98.0718162 78.6775681,97.9660655 78.7280188,97.826356 L78.7280188,97.50619 L78.1051504,97.50619 C77.7325917,97.50619 77.5463152,97.628434 77.5463152,97.8729256 C77.5463152,97.9893502 77.5919141,98.0815183 77.6831134,98.1494326 C77.7743127,98.2173469 77.8994672,98.2513036 78.0585808,98.2513036 Z M82.4768716,98.6646088 C82.3876128,98.7305827 82.2779813,98.7800624 82.1479738,98.8130494 C82.0179663,98.8460364 81.8811695,98.8625296 81.7375792,98.8625296 C81.3650205,98.8625296 81.076874,98.767451 80.873131,98.5772908 C80.669388,98.3871306 80.567518,98.1077158 80.567518,97.739038 L80.567518,96.4525528 L80.0843584,96.4525528 L80.0843584,95.7540088 L80.567518,95.7540088 L80.567518,94.9914316 L81.4756252,94.9914316 L81.4756252,95.7540088 L82.255666,95.7540088 L82.255666,96.4525528 L81.4756252,96.4525528 L81.4756252,97.7273956 C81.4756252,97.8593435 81.5095819,97.9612134 81.5774962,98.0330086 C81.6454105,98.1048038 81.7414594,98.1407008 81.8656456,98.1407008 C82.0092359,98.1407008 82.1314799,98.1018932 82.2323812,98.0242768 L82.4768716,98.6646088 Z M82.9891372,95.6841544 L83.8972444,95.6841544 L83.8972444,98.81596 L82.9891372,98.81596 L82.9891372,95.6841544 Z M83.4431908,95.2475644 C83.2763156,95.2475644 83.1404889,95.1990549 83.0357068,95.1020344 C82.9309247,95.0050139 82.8785344,94.8847103 82.8785344,94.74112 C82.8785344,94.5975297 82.9309247,94.4772261 83.0357068,94.3802056 C83.1404889,94.2831851 83.2763156,94.2346756 83.4431908,94.2346756 C83.610066,94.2346756 83.7458927,94.2812447 83.8506748,94.3743844 C83.9554569,94.4675241 84.0078472,94.5839469 84.0078472,94.7236564 C84.0078472,94.8750084 83.9554569,95.0001629 83.8506748,95.0991238 C83.7458927,95.1980847 83.610066,95.2475644 83.4431908,95.2475644 Z M86.2315456,98.8625296 C85.901676,98.8625296 85.6057679,98.7936461 85.3438126,98.655877 C85.0818573,98.5181079 84.8771471,98.3269804 84.729676,98.0824888 C84.5822049,97.8379972 84.5084704,97.5605228 84.5084704,97.2500572 C84.5084704,96.9395916 84.5822049,96.6621172 84.729676,96.4176256 C84.8771471,96.173134 85.0818573,95.9820065 85.3438126,95.8442374 C85.6057679,95.7064683 85.901676,95.6375848 86.2315456,95.6375848 C86.5614152,95.6375848 86.8563531,95.7064683 87.116368,95.8442374 C87.3763829,95.9820065 87.5801229,96.173134 87.727594,96.4176256 C87.8750651,96.6621172 87.9487996,96.9395916 87.9487996,97.2500572 C87.9487996,97.5605228 87.8750651,97.8379972 87.727594,98.0824888 C87.5801229,98.3269804 87.3763829,98.5181079 87.116368,98.655877 C86.8563531,98.7936461 86.5614152,98.8625296 86.2315456,98.8625296 Z M86.2315456,98.117416 C86.4643948,98.117416 86.6555223,98.0388306 86.8049338,97.8816574 C86.9543453,97.7244842 87.02905,97.5139529 87.02905,97.2500572 C87.02905,96.9861615 86.9543453,96.7756302 86.8049338,96.618457 C86.6555223,96.4612838 86.4643948,96.3826984 86.2315456,96.3826984 C85.9986964,96.3826984 85.8065988,96.4612838 85.6552468,96.618457 C85.5038948,96.7756302 85.42822,96.9861615 85.42822,97.2500572 C85.42822,97.5139529 85.5038948,97.7244842 85.6552468,97.8816574 C85.8065988,98.0388306 85.9986964,98.117416 86.2315456,98.117416 Z M90.4577368,95.6375848 C90.8458187,95.6375848 91.1591902,95.7540076 91.3978606,95.9868568 C91.636531,96.219706 91.7558644,96.5650937 91.7558644,97.0230304 L91.7558644,98.81596 L90.8477572,98.81596 L90.8477572,97.1627392 C90.8477572,96.9143668 90.7934265,96.7290604 90.6847636,96.6068146 C90.5761007,96.4845688 90.4189298,96.4234468 90.2132464,96.4234468 C89.9842781,96.4234468 89.8018823,96.4942707 89.6660536,96.6359206 C89.5302249,96.7775705 89.4623116,96.9881018 89.4623116,97.2675208 L89.4623116,98.81596 L88.5542044,98.81596 L88.5542044,95.6841544 L89.4215632,95.6841544 L89.4215632,96.05089 C89.5418686,95.9189421 89.6912779,95.8170722 89.8697956,95.745277 C90.0483133,95.6734818 90.2442917,95.6375848 90.4577368,95.6375848 Z" id="Optimization" fill="#FFFFFF" transform="translate(72.097672, 97.089974) rotate(-90.000000) translate(-72.097672, -97.089974) "></path>
                <g id="circle/white" transform="translate(17.627840, 75.000000)" fill="#FFFFFF">
                    <g id="circle_yellow">
                        <circle id="Oval" opacity="0.2" cx="22.505907" cy="22.505907" r="22.505907"></circle>
                        <circle id="Oval" opacity="0.4" cx="22.505907" cy="22.505907" r="16.4182437"></circle>
                        <circle id="Oval" cx="22.505907" cy="22.505907" r="9.59268169"></circle>
                    </g>
                </g>
                <path d="M571.39706,115.385814 C570.981812,115.385814 570.606349,115.295587 570.270658,115.115129 C569.934967,114.93467 569.671075,114.684361 569.478975,114.364194 C569.286874,114.044026 569.190825,113.682145 569.190825,113.27854 C569.190825,112.874935 569.286874,112.513054 569.478975,112.192886 C569.671075,111.872719 569.934967,111.62241 570.270658,111.441951 C570.606349,111.261493 570.983753,111.171266 571.402881,111.171266 C571.756036,111.171266 572.075228,111.233358 572.360469,111.357544 C572.645709,111.48173 572.885346,111.660245 573.079387,111.893094 L572.473982,112.45193 C572.198444,112.133702 571.856937,111.974591 571.449451,111.974591 C571.197198,111.974591 570.972113,112.029892 570.774192,112.140495 C570.57627,112.251099 570.42201,112.405359 570.311406,112.603281 C570.200803,112.801203 570.145502,113.026287 570.145502,113.27854 C570.145502,113.530793 570.200803,113.755877 570.311406,113.953799 C570.42201,114.151721 570.57627,114.305981 570.774192,114.416585 C570.972113,114.527188 571.197198,114.582489 571.449451,114.582489 C571.856937,114.582489 572.198444,114.421437 572.473982,114.099329 L573.079387,114.658164 C572.885346,114.894894 572.644739,115.07535 572.357558,115.199536 C572.070377,115.323722 571.750215,115.385814 571.39706,115.385814 Z M575.553397,112.137585 C575.941479,112.137585 576.25485,112.254008 576.493521,112.486857 C576.732191,112.719706 576.851524,113.065094 576.851524,113.52303 L576.851524,115.31596 L575.943417,115.31596 L575.943417,113.662739 C575.943417,113.414367 575.889087,113.22906 575.780424,113.106815 C575.671761,112.984569 575.51459,112.923447 575.308906,112.923447 C575.079938,112.923447 574.897542,112.994271 574.761714,113.135921 C574.625885,113.277571 574.557972,113.488102 574.557972,113.767521 L574.557972,115.31596 L573.649864,115.31596 L573.649864,110.99663 L574.557972,110.99663 L574.557972,112.510142 C574.678277,112.389836 574.823806,112.297668 574.994562,112.233635 C575.165318,112.169601 575.351594,112.137585 575.553397,112.137585 Z M578.935514,112.137585 C579.420616,112.137585 579.793169,112.253037 580.053184,112.483946 C580.313199,112.714855 580.443205,113.063153 580.443205,113.528852 L580.443205,115.31596 L579.59331,115.31596 L579.59331,114.92594 C579.422554,115.217001 579.104331,115.36253 578.638633,115.36253 C578.398022,115.36253 578.189431,115.321782 578.012854,115.240284 C577.836277,115.158787 577.70142,115.046245 577.60828,114.902655 C577.515141,114.759064 577.468572,114.596073 577.468572,114.413674 C577.468572,114.122613 577.578203,113.893648 577.797469,113.726772 C578.016736,113.559897 578.355332,113.476461 578.813269,113.476461 L579.535098,113.476461 C579.535098,113.278539 579.474946,113.126219 579.35464,113.019497 C579.234335,112.912774 579.05388,112.859414 578.813269,112.859414 C578.646394,112.859414 578.482431,112.885609 578.321377,112.938 C578.160323,112.990391 578.023527,113.061215 577.910983,113.150474 L577.584996,112.515963 C577.755752,112.395657 577.960462,112.302519 578.199132,112.236545 C578.437803,112.170571 578.683261,112.137585 578.935514,112.137585 Z M578.86566,114.751304 C579.020892,114.751304 579.158659,114.715407 579.278965,114.643611 C579.39927,114.571816 579.484647,114.466065 579.535098,114.326356 L579.535098,114.00619 L578.912229,114.00619 C578.539671,114.00619 578.353394,114.128434 578.353394,114.372926 C578.353394,114.48935 578.398993,114.581518 578.490192,114.649433 C578.581391,114.717347 578.706546,114.751304 578.86566,114.751304 Z M583.167526,112.137585 C583.555608,112.137585 583.86898,112.254008 584.10765,112.486857 C584.346321,112.719706 584.465654,113.065094 584.465654,113.52303 L584.465654,115.31596 L583.557547,115.31596 L583.557547,113.662739 C583.557547,113.414367 583.503216,113.22906 583.394553,113.106815 C583.28589,112.984569 583.128719,112.923447 582.923036,112.923447 C582.694068,112.923447 582.511672,112.994271 582.375843,113.135921 C582.240015,113.277571 582.172101,113.488102 582.172101,113.767521 L582.172101,115.31596 L581.263994,115.31596 L581.263994,112.184154 L582.131353,112.184154 L582.131353,112.55089 C582.251658,112.418942 582.401068,112.317072 582.579585,112.245277 C582.758103,112.173482 582.954081,112.137585 583.167526,112.137585 Z M587.189976,112.137585 C587.578058,112.137585 587.891429,112.254008 588.130099,112.486857 C588.36877,112.719706 588.488103,113.065094 588.488103,113.52303 L588.488103,115.31596 L587.579996,115.31596 L587.579996,113.662739 C587.579996,113.414367 587.525665,113.22906 587.417002,113.106815 C587.308339,112.984569 587.151169,112.923447 586.945485,112.923447 C586.716517,112.923447 586.534121,112.994271 586.398292,113.135921 C586.262464,113.277571 586.19455,113.488102 586.19455,113.767521 L586.19455,115.31596 L585.286443,115.31596 L585.286443,112.184154 L586.153802,112.184154 L586.153802,112.55089 C586.274107,112.418942 586.423517,112.317072 586.602034,112.245277 C586.780552,112.173482 586.976531,112.137585 587.189976,112.137585 Z M592.376665,113.7617 C592.376665,113.773342 592.370844,113.854838 592.359201,114.00619 L589.989973,114.00619 C590.032662,114.200231 590.133562,114.353521 590.292675,114.466065 C590.451789,114.578609 590.649708,114.63488 590.886438,114.63488 C591.049432,114.63488 591.19399,114.610625 591.320117,114.562115 C591.446244,114.513604 591.563637,114.436959 591.6723,114.332177 L592.155459,114.856085 C591.860517,115.193716 591.429752,115.36253 590.863153,115.36253 C590.509998,115.36253 590.197597,115.293646 589.92594,115.155877 C589.654282,115.018108 589.444721,114.82698 589.29725,114.582489 C589.149779,114.337997 589.076044,114.060523 589.076044,113.750057 C589.076044,113.443472 589.148809,113.166968 589.294339,112.920536 C589.43987,112.674104 589.639729,112.482006 589.893923,112.344237 C590.148117,112.206468 590.432382,112.137585 590.746729,112.137585 C591.053314,112.137585 591.330788,112.203558 591.57916,112.335506 C591.827533,112.467453 592.022541,112.656641 592.164191,112.903073 C592.305841,113.149505 592.376665,113.435711 592.376665,113.7617 Z M590.75255,112.824486 C590.546867,112.824486 590.374173,112.882698 590.234463,112.999122 C590.094754,113.115547 590.009377,113.274658 589.97833,113.476461 L591.520948,113.476461 C591.489902,113.278539 591.404525,113.120398 591.264816,113.002033 C591.125106,112.883668 590.954353,112.824486 590.75255,112.824486 Z M592.98207,110.99663 L593.890177,110.99663 L593.890177,115.31596 L592.98207,115.31596 L592.98207,110.99663 Z M595.787888,115.36253 C595.527873,115.36253 595.273683,115.330513 595.025311,115.26648 C594.776938,115.202446 594.57902,115.12192 594.431548,115.0249 L594.734251,114.372926 C594.87396,114.462184 595.042773,114.534949 595.240695,114.591221 C595.438617,114.647492 595.632655,114.675628 595.822815,114.675628 C596.207016,114.675628 596.399114,114.580549 596.399114,114.390389 C596.399114,114.30113 596.346724,114.237098 596.241942,114.19829 C596.137159,114.159481 595.976108,114.126495 595.758782,114.099329 C595.502648,114.060521 595.291146,114.015892 595.124271,113.965442 C594.957396,113.914991 594.812838,113.825733 594.690592,113.697666 C594.568346,113.569599 594.507224,113.387204 594.507224,113.150474 C594.507224,112.952552 594.564465,112.776947 594.678949,112.623655 C594.793434,112.470363 594.960306,112.351029 595.179573,112.265651 C595.398839,112.180273 595.65788,112.137585 595.956703,112.137585 C596.17791,112.137585 596.398143,112.16184 596.617409,112.21035 C596.836675,112.25886 597.018101,112.325803 597.161691,112.411181 L596.858989,113.057334 C596.583451,112.902102 596.282692,112.824486 595.956703,112.824486 C595.762662,112.824486 595.617133,112.851652 595.520113,112.905983 C595.423092,112.960315 595.374583,113.030168 595.374583,113.115546 C595.374583,113.212567 595.426973,113.28048 595.531755,113.319288 C595.636537,113.358097 595.80341,113.394964 596.032378,113.429891 C596.288512,113.47258 596.498074,113.518179 596.661068,113.566689 C596.824062,113.6152 596.96571,113.703487 597.086016,113.831554 C597.206321,113.959621 597.266473,114.138136 597.266473,114.367104 C597.266473,114.561145 597.208261,114.733839 597.091837,114.885191 C596.975412,115.036543 596.805629,115.153936 596.582482,115.237374 C596.359335,115.320811 596.094473,115.36253 595.787888,115.36253 Z" id="Channels" fill="#FFFFFF" transform="translate(583.228649, 113.191222) rotate(-90.000000) translate(-583.228649, -113.191222) "></path>
                <g id="circle/white" transform="translate(531.127840, 90.500000)" fill="#FFFFFF">
                    <g id="circle_yellow">
                        <circle id="Oval" opacity="0.2" cx="22.505907" cy="22.505907" r="22.505907"></circle>
                        <circle id="Oval" opacity="0.4" cx="22.505907" cy="22.505907" r="16.4182437"></circle>
                        <circle id="Oval" cx="22.505907" cy="22.505907" r="9.59268169"></circle>
                    </g>
                </g>
                <path d="M35,184.5 C65.7991718,174.578303 88.4658385,173.117455 103,180.117455 C124.801242,190.617455 162.537267,220 210.5,188.5" id="Path-2" stroke="url(#linearGradient-1)" stroke-width="1.5" opacity="0.7"></path>
                <path d="M278.5,213.29084 C327.543478,192.667807 365.543478,197.404194 392.5,227.5 C432.934783,272.64371 515.5,354.79084 536,213.29084" id="Path-2" stroke="url(#linearGradient-1)" stroke-width="1.5" opacity="0.7" transform="translate(407.250000, 246.625611) scale(-1, 1) translate(-407.250000, -246.625611) "></path>
                <path d="M41,97 C72,73.3333333 100.666667,88 127,141 C166.5,220.5 245.021739,301.795749 278.5,211" id="Path-2" stroke="url(#linearGradient-1)" stroke-width="1.5" opacity="0.7"></path>
                <path d="M278.5,119.833935 C314.590526,99.6761406 347.964561,112.168295 378.622105,157.310399 C424.608421,225.023555 516.024256,294.266218 555,216.932046" id="Path-2" stroke="url(#linearGradient-1)" stroke-width="1.5" opacity="0.7" transform="translate(416.750000, 180.755254) scale(-1, 1) translate(-416.750000, -180.755254) "></path>
                <path d="M127,259.5 C177.5,221.5 177.5,284 221,291 C247.296979,295.231698 271,263.5 284.5,194" id="Path-2" stroke="url(#linearGradient-1)" stroke-width="1.5" opacity="0.7"></path>
                <path d="M277.817234,273.5 C348.134468,224.752522 339.868818,303.049888 374.022475,312 C394.669325,317.410596 425.146841,283 419.903316,225" id="Path-2" stroke="url(#linearGradient-1)" stroke-width="1.5" opacity="0.7" transform="translate(349.158617, 268.778280) scale(-1, 1) translate(-349.158617, -268.778280) "></path>
                <path d="M149,84.825013 C165.903158,59.2874262 181.534035,75.1135363 195.892632,132.303343 C217.430526,218.088054 260.245538,311.473422 278.5,213.5" id="Path-2" stroke="url(#linearGradient-1)" stroke-width="1.5" opacity="0.7"></path>
                <path d="M278.5,68.2466545 C296.316842,40.1614852 312.792632,57.5663788 327.927368,120.461336 C350.629474,214.803771 395.75881,311.277216 415,203.530146" id="Path-2" stroke="url(#linearGradient-1)" stroke-width="1.5" opacity="0.7" transform="translate(346.750000, 153.126254) scale(-1, 1) translate(-346.750000, -153.126254) "></path>
            </g>
        </g>
    </g>
</svg>