<svg width="11" height="11" viewBox="0 0 11 11" fill="none" xmlns="http://www.w3.org/2000/svg">
<path fill-rule="evenodd" clip-rule="evenodd" d="M9.58848 0C9.97519 0 10.3082 0.1375 10.5854 0.414648C10.8625 0.691797 11 1.0248 11 1.41152V9.59062C11 9.97734 10.8625 10.3082 10.5854 10.5854C10.3082 10.8625 9.97734 11 9.59062 11H1.41152C1.0248 11 0.691797 10.8625 0.414648 10.5854C0.1375 10.3082 0 9.97734 0 9.59062V1.41152C0 1.0248 0.1375 0.691797 0.416797 0.414648C0.693945 0.1375 1.0248 0 1.41152 0H9.58848ZM5.49635 3C4.81089 3 4.22265 3.24574 3.73408 3.7322C3.2455 4.21866 3.00243 4.80792 3 5.5C3 6.19208 3.2455 6.78134 3.73408 7.2678C4.22265 7.75677 4.81089 8 5.49635 8C6.18668 8 6.77735 7.75426 7.26592 7.2678C7.7545 6.78134 8 6.19208 8 5.5C8 4.80792 7.7545 4.21866 7.26592 3.7322C6.77735 3.24323 6.18668 3 5.49635 3ZM10 9.57046C10 9.69319 9.95466 9.79475 9.86398 9.87727C9.7733 9.9598 9.66448 10 9.5398 10H1.4602C1.32872 10 1.2199 9.9598 1.13149 9.87727C1.04307 9.79475 1 9.69319 1 9.57046V5H2.06549C1.96574 5.29623 1.9136 5.60516 1.9136 5.92467C1.9136 6.82818 2.26725 7.59839 2.97229 8.23529C3.67733 8.8722 4.52746 9.19171 5.51814 9.19171C6.1733 9.19171 6.77859 9.0457 7.33174 8.7537C7.88489 8.4617 8.32469 8.06602 8.6466 7.56454C8.96851 7.06306 9.12947 6.51714 9.12947 5.92467C9.12947 5.60516 9.0796 5.29623 8.97758 5H9.99773L10 9.57046ZM9.87115 2.86733C9.95769 2.7802 10 2.67129 10 2.54455V1.45545C10 1.33069 9.95769 1.22574 9.87115 1.13465C9.78654 1.04554 9.68077 1 9.55769 1H8.44231C8.31923 1 8.21346 1.04356 8.12885 1.13465C8.04231 1.22574 8 1.33267 8 1.45545V2.54455C8 2.67129 8.04423 2.7802 8.12885 2.86733C8.21346 2.95644 8.31923 3 8.44231 3H9.55769C9.68077 3 9.78654 2.95446 9.87115 2.86733Z" fill="#000000"/>
</svg>
