<svg width="320" height="348" viewBox="0 0 320 348" fill="none" xmlns="http://www.w3.org/2000/svg">
<g opacity="0.4">
<path opacity="0.2" fill-rule="evenodd" clip-rule="evenodd" d="M160 348C256.098 348 334 270.098 334 174C334 77.9025 256.098 0 160 0C63.9025 0 -14 77.9025 -14 174C-14 270.098 63.9025 348 160 348Z" fill="#740B99"/>
<path opacity="0.4" fill-rule="evenodd" clip-rule="evenodd" d="M160.002 300.937C230.106 300.937 286.936 244.107 286.936 174.003C286.936 103.899 230.106 47.0684 160.002 47.0684C89.8979 47.0684 33.0674 103.899 33.0674 174.003C33.0674 244.107 89.8979 300.937 160.002 300.937Z" fill="#740B99"/>
<path fill-rule="evenodd" clip-rule="evenodd" d="M160.015 248.156C200.975 248.156 234.179 214.952 234.179 173.992C234.179 133.032 200.975 99.8281 160.015 99.8281C119.056 99.8281 85.8513 133.032 85.8513 173.992C85.8513 214.952 119.056 248.156 160.015 248.156Z" fill="#740B99"/>
</g>
</svg>
