<svg width="832" height="454" viewBox="0 0 832 454" fill="none" xmlns="http://www.w3.org/2000/svg">
<path opacity="0.2" fill-rule="evenodd" clip-rule="evenodd" d="M420.096 -169.09C192.732 -169.09 6.67626 8.59908 4.52899 227.789C2.38171 446.979 184.956 624.668 412.321 624.668C639.685 624.668 825.741 446.979 827.888 227.789C830.035 8.59915 647.461 -169.09 420.096 -169.09Z" fill="#740B99"/>
<path opacity="0.4" fill-rule="evenodd" clip-rule="evenodd" d="M419.045 -61.7375C253.181 -61.7375 117.452 67.8878 115.885 227.789C114.319 387.69 247.509 517.315 413.373 517.315C579.237 517.315 714.966 387.69 716.533 227.789C718.099 67.8879 584.909 -61.7375 419.045 -61.7375Z" fill="#740B99"/>
<path fill-rule="evenodd" clip-rule="evenodd" d="M417.866 58.6279C320.956 58.6279 241.654 134.364 240.739 227.789C239.823 321.215 317.642 396.951 414.551 396.951C511.461 396.951 590.763 321.215 591.679 227.789C592.594 134.364 514.775 58.6279 417.866 58.6279Z" fill="#740B99"/>
</svg>
