<svg width="251" height="175" viewBox="0 0 251 175" fill="none" xmlns="http://www.w3.org/2000/svg">
<g filter="url(#filter0_d)">
<rect x="144.315" y="83.0941" width="93.677" height="36.7593" rx="17.7868" stroke="url(#paint0_linear)" stroke-width="2"/>
</g>
<path d="M180.799 106.951C179.947 106.951 179.119 106.838 178.318 106.612C177.526 106.376 176.889 106.073 176.406 105.703L177.254 103.822C177.716 104.161 178.266 104.434 178.903 104.639C179.541 104.845 180.178 104.947 180.815 104.947C181.524 104.947 182.048 104.845 182.387 104.639C182.726 104.423 182.896 104.141 182.896 103.791C182.896 103.534 182.793 103.324 182.588 103.159C182.392 102.984 182.135 102.846 181.817 102.743C181.509 102.64 181.087 102.527 180.553 102.404C179.731 102.209 179.058 102.013 178.533 101.818C178.009 101.623 177.557 101.309 177.177 100.878C176.807 100.446 176.622 99.8706 176.622 99.1512C176.622 98.5244 176.792 97.9591 177.131 97.4556C177.47 96.9417 177.979 96.5358 178.657 96.2378C179.345 95.9397 180.183 95.7907 181.169 95.7907C181.858 95.7907 182.531 95.8729 183.189 96.0374C183.847 96.2018 184.422 96.4382 184.915 96.7465L184.145 98.6425C183.148 98.0773 182.151 97.7947 181.154 97.7947C180.455 97.7947 179.936 97.9078 179.597 98.1338C179.268 98.3599 179.104 98.658 179.104 99.0279C179.104 99.3979 179.294 99.6754 179.674 99.8603C180.065 100.035 180.656 100.21 181.447 100.384C182.269 100.58 182.942 100.775 183.466 100.97C183.99 101.165 184.437 101.474 184.807 101.895C185.188 102.317 185.378 102.887 185.378 103.606C185.378 104.223 185.203 104.788 184.854 105.302C184.515 105.805 184.001 106.206 183.312 106.504C182.624 106.802 181.786 106.951 180.799 106.951ZM190.63 106.951C189.777 106.951 188.949 106.838 188.148 106.612C187.357 106.376 186.719 106.073 186.236 105.703L187.084 103.822C187.547 104.161 188.096 104.434 188.734 104.639C189.371 104.845 190.008 104.947 190.645 104.947C191.354 104.947 191.878 104.845 192.217 104.639C192.557 104.423 192.726 104.141 192.726 103.791C192.726 103.534 192.623 103.324 192.418 103.159C192.223 102.984 191.966 102.846 191.647 102.743C191.339 102.64 190.917 102.527 190.383 102.404C189.561 102.209 188.888 102.013 188.364 101.818C187.84 101.623 187.387 101.309 187.007 100.878C186.637 100.446 186.452 99.8706 186.452 99.1512C186.452 98.5244 186.622 97.9591 186.961 97.4556C187.3 96.9417 187.809 96.5358 188.487 96.2378C189.176 95.9397 190.013 95.7907 191 95.7907C191.688 95.7907 192.361 95.8729 193.019 96.0374C193.677 96.2018 194.252 96.4382 194.746 96.7465L193.975 98.6425C192.978 98.0773 191.981 97.7947 190.984 97.7947C190.285 97.7947 189.766 97.9078 189.427 98.1338C189.098 98.3599 188.934 98.658 188.934 99.0279C188.934 99.3979 189.124 99.6754 189.504 99.8603C189.895 100.035 190.486 100.21 191.277 100.384C192.099 100.58 192.772 100.775 193.297 100.97C193.821 101.165 194.268 101.474 194.638 101.895C195.018 102.317 195.208 102.887 195.208 103.606C195.208 104.223 195.033 104.788 194.684 105.302C194.345 105.805 193.831 106.206 193.142 106.504C192.454 106.802 191.616 106.951 190.63 106.951ZM201.585 95.9757C202.541 95.9757 203.368 96.135 204.067 96.4536C204.776 96.7722 205.321 97.2243 205.701 97.8101C206.081 98.3959 206.271 99.0896 206.271 99.8912C206.271 100.682 206.081 101.376 205.701 101.972C205.321 102.558 204.776 103.01 204.067 103.329C203.368 103.637 202.541 103.791 201.585 103.791H199.412V106.766H196.914V95.9757H201.585ZM201.446 101.756C202.197 101.756 202.767 101.597 203.158 101.279C203.548 100.95 203.743 100.487 203.743 99.8912C203.743 99.2848 203.548 98.8224 203.158 98.5038C202.767 98.1749 202.197 98.0105 201.446 98.0105H199.412V101.756H201.446Z" fill="url(#paint1_linear)"/>
<g filter="url(#filter1_d)">
<rect x="75.7302" y="134.951" width="68.585" height="26.9131" rx="13.0225" stroke="url(#paint2_linear)" stroke-width="2"/>
</g>
<path d="M96.9919 143.864H100.581C101.439 143.864 102.195 144.03 102.849 144.361C103.512 144.684 104.023 145.143 104.384 145.738C104.753 146.332 104.937 147.024 104.937 147.814C104.937 148.604 104.753 149.297 104.384 149.891C104.023 150.485 103.512 150.948 102.849 151.279C102.195 151.603 101.439 151.765 100.581 151.765H96.9919V143.864ZM100.491 150.263C101.281 150.263 101.909 150.045 102.375 149.609C102.849 149.165 103.086 148.567 103.086 147.814C103.086 147.062 102.849 146.468 102.375 146.031C101.909 145.587 101.281 145.365 100.491 145.365H98.8203V150.263H100.491ZM113.505 151.765L113.494 147.024L111.169 150.929H110.345L108.032 147.126V151.765H106.316V143.864H107.829L110.786 148.774L113.697 143.864H115.198L115.221 151.765H113.505ZM120.515 143.864C121.215 143.864 121.82 143.981 122.332 144.214C122.851 144.447 123.25 144.778 123.528 145.207C123.807 145.636 123.946 146.144 123.946 146.731C123.946 147.31 123.807 147.818 123.528 148.255C123.25 148.683 122.851 149.014 122.332 149.248C121.82 149.473 121.215 149.586 120.515 149.586H118.924V151.765H117.095V143.864H120.515ZM120.413 148.097C120.963 148.097 121.38 147.98 121.666 147.747C121.952 147.506 122.095 147.167 122.095 146.731C122.095 146.287 121.952 145.948 121.666 145.715C121.38 145.474 120.963 145.354 120.413 145.354H118.924V148.097H120.413Z" fill="url(#paint3_linear)"/>
<g filter="url(#filter2_d)">
<rect x="13" y="88.1127" width="97.0226" height="23.6916" rx="11.8458" stroke="url(#paint4_linear)" stroke-width="2"/>
</g>
<path d="M32.2748 102.102H28.9749L28.3454 103.625H26.6599L29.8278 96.518H31.4524L34.6304 103.625H32.9043L32.2748 102.102ZM31.757 100.854L30.63 98.1324L29.5029 100.854H31.757ZM40.7707 96.0916V103.625H39.2578V102.996C38.8652 103.47 38.2966 103.707 37.552 103.707C37.0376 103.707 36.5705 103.592 36.1509 103.361C35.7379 103.131 35.413 102.803 35.1761 102.377C34.9392 101.95 34.8207 101.456 34.8207 100.894C34.8207 100.332 34.9392 99.8382 35.1761 99.4118C35.413 98.9853 35.7379 98.657 36.1509 98.4269C36.5705 98.1967 37.0376 98.0817 37.552 98.0817C38.2493 98.0817 38.7942 98.3017 39.1868 98.7416V96.0916H40.7707ZM37.8262 102.407C38.2256 102.407 38.5572 102.272 38.8212 102.001C39.0852 101.723 39.2172 101.354 39.2172 100.894C39.2172 100.434 39.0852 100.068 38.8212 99.7976C38.5572 99.5201 38.2256 99.3813 37.8262 99.3813C37.42 99.3813 37.085 99.5201 36.821 99.7976C36.557 100.068 36.425 100.434 36.425 100.894C36.425 101.354 36.557 101.723 36.821 102.001C37.085 102.272 37.42 102.407 37.8262 102.407ZM50.7271 102.306V103.625H45.2239V96.518H50.5951V97.838H46.8586V99.3813H50.1585V100.661H46.8586V102.306H50.7271ZM55.3273 103.625L54.1292 101.95L52.8905 103.625H51.1644L53.2661 100.874L51.2354 98.1629H53.0123L54.1698 99.757L55.3578 98.1629H57.0433L55.0126 100.833L57.1245 103.625H55.3273ZM60.3647 103.707C59.7826 103.707 59.258 103.588 58.7909 103.351C58.3306 103.108 57.9685 102.773 57.7045 102.346C57.4473 101.92 57.3187 101.436 57.3187 100.894C57.3187 100.353 57.4473 99.8687 57.7045 99.4422C57.9685 99.0158 58.3306 98.6841 58.7909 98.4472C59.258 98.2035 59.7826 98.0817 60.3647 98.0817C60.9401 98.0817 61.441 98.2035 61.8675 98.4472C62.3007 98.6841 62.6154 99.0259 62.8117 99.4727L61.5832 100.133C61.2989 99.6318 60.8893 99.3813 60.3546 99.3813C59.9417 99.3813 59.5998 99.5167 59.3291 99.7875C59.0583 100.058 58.9229 100.427 58.9229 100.894C58.9229 101.361 59.0583 101.73 59.3291 102.001C59.5998 102.272 59.9417 102.407 60.3546 102.407C60.8961 102.407 61.3056 102.157 61.5832 101.656L62.8117 102.326C62.6154 102.759 62.3007 103.098 61.8675 103.341C61.441 103.585 60.9401 103.707 60.3647 103.707ZM67.0043 98.0817C67.6812 98.0817 68.2261 98.2847 68.639 98.6909C69.0587 99.097 69.2685 99.6995 69.2685 100.498V103.625H67.6846V100.742C67.6846 100.309 67.5898 99.9871 67.4003 99.7773C67.2107 99.5607 66.9366 99.4524 66.5778 99.4524C66.1784 99.4524 65.8603 99.5776 65.6234 99.8281C65.3865 100.072 65.268 100.437 65.268 100.925V103.625H63.6841V96.0916H65.268V98.7315C65.4779 98.5216 65.7317 98.3626 66.0295 98.2543C66.3274 98.1392 66.6523 98.0817 67.0043 98.0817ZM72.9076 98.0817C73.7537 98.0817 74.4035 98.2847 74.8571 98.6909C75.3106 99.0902 75.5374 99.6961 75.5374 100.508V103.625H74.0549V102.945C73.7571 103.453 73.202 103.707 72.3898 103.707C71.9701 103.707 71.6046 103.636 71.2932 103.493C70.9886 103.351 70.755 103.155 70.5926 102.905C70.4301 102.654 70.3489 102.37 70.3489 102.052C70.3489 101.544 70.5384 101.145 70.9175 100.854C71.3033 100.563 71.8956 100.417 72.6944 100.417H73.9534C73.9534 100.072 73.8485 99.8078 73.6387 99.625C73.4288 99.4355 73.1141 99.3407 72.6944 99.3407C72.4033 99.3407 72.1156 99.3881 71.8313 99.4828C71.5538 99.5708 71.3169 99.6927 71.1206 99.8484L70.552 98.7416C70.8498 98.5318 71.2052 98.3693 71.6181 98.2543C72.0378 98.1392 72.4676 98.0817 72.9076 98.0817ZM72.7858 102.641C73.0565 102.641 73.2968 102.58 73.5067 102.458C73.7165 102.329 73.8654 102.143 73.9534 101.899V101.341H72.867C72.2172 101.341 71.8922 101.554 71.8922 101.981C71.8922 102.184 71.9701 102.346 72.1258 102.468C72.2882 102.583 72.5082 102.641 72.7858 102.641ZM80.2911 98.0817C80.968 98.0817 81.5129 98.2847 81.9258 98.6909C82.3455 99.097 82.5554 99.6995 82.5554 100.498V103.625H80.9714V100.742C80.9714 100.309 80.8766 99.9871 80.6871 99.7773C80.4976 99.5607 80.2234 99.4524 79.8647 99.4524C79.4653 99.4524 79.1472 99.5776 78.9102 99.8281C78.6733 100.072 78.5549 100.437 78.5549 100.925V103.625H76.9709V98.1629H78.4838V98.8026C78.6936 98.5724 78.9542 98.3964 79.2656 98.2746C79.577 98.146 79.9188 98.0817 80.2911 98.0817ZM89.6858 98.1629V102.712C89.6858 103.713 89.4252 104.458 88.904 104.945C88.3828 105.433 87.6213 105.677 86.6195 105.677C86.0915 105.677 85.5906 105.612 85.1167 105.484C84.6429 105.355 84.2503 105.169 83.9389 104.925L84.5684 103.788C84.7986 103.977 85.0897 104.126 85.4417 104.235C85.7936 104.35 86.1456 104.407 86.4976 104.407C87.0459 104.407 87.4487 104.282 87.7059 104.032C87.9699 103.788 88.1019 103.416 88.1019 102.915V102.681C87.689 103.135 87.1136 103.361 86.3758 103.361C85.8749 103.361 85.4146 103.253 84.9949 103.037C84.582 102.813 84.2537 102.502 84.01 102.102C83.7663 101.703 83.6445 101.243 83.6445 100.722C83.6445 100.2 83.7663 99.7401 84.01 99.3407C84.2537 98.9413 84.582 98.6333 84.9949 98.4167C85.4146 98.1933 85.8749 98.0817 86.3758 98.0817C87.1678 98.0817 87.7702 98.3423 88.1831 98.8635V98.1629H89.6858ZM86.6905 102.062C87.1102 102.062 87.4521 101.94 87.716 101.696C87.9868 101.446 88.1222 101.121 88.1222 100.722C88.1222 100.322 87.9868 100.001 87.716 99.757C87.4521 99.5065 87.1102 99.3813 86.6905 99.3813C86.2709 99.3813 85.9256 99.5065 85.6549 99.757C85.3841 100.001 85.2487 100.322 85.2487 100.722C85.2487 101.121 85.3841 101.446 85.6549 101.696C85.9256 101.94 86.2709 102.062 86.6905 102.062ZM96.511 100.914C96.511 100.935 96.5008 101.077 96.4805 101.341H92.348C92.4225 101.679 92.5985 101.947 92.876 102.143C93.1536 102.339 93.4988 102.438 93.9117 102.438C94.196 102.438 94.4464 102.397 94.663 102.316C94.8864 102.228 95.0929 102.092 95.2824 101.91L96.1252 102.823C95.6107 103.412 94.8593 103.707 93.8711 103.707C93.2551 103.707 92.7102 103.588 92.2364 103.351C91.7625 103.108 91.397 102.773 91.1398 102.346C90.8825 101.92 90.7539 101.436 90.7539 100.894C90.7539 100.359 90.8792 99.8788 91.1296 99.4524C91.3868 99.0192 91.7354 98.6841 92.1754 98.4472C92.6222 98.2035 93.1197 98.0817 93.668 98.0817C94.2028 98.0817 94.6867 98.1967 95.12 98.4269C95.5532 98.657 95.8916 98.9887 96.1353 99.4219C96.3858 99.8484 96.511 100.346 96.511 100.914ZM93.6782 99.2798C93.3194 99.2798 93.0182 99.3813 92.7745 99.5844C92.5308 99.7875 92.3819 100.065 92.3277 100.417H95.0184C94.9643 100.072 94.8153 99.7976 94.5717 99.5945C94.328 99.3847 94.0301 99.2798 93.6782 99.2798Z" fill="url(#paint5_linear)"/>
<g filter="url(#filter3_d)">
<rect x="77.4028" y="12" width="132.152" height="51.8569" rx="25.0921" stroke="url(#paint6_linear)" stroke-width="2"/>
</g>
<path d="M121.822 29.8328H128.737C130.39 29.8328 131.847 30.1517 133.108 30.7896C134.384 31.413 135.37 32.2974 136.066 33.4427C136.776 34.588 137.131 35.9218 137.131 37.444C137.131 38.9663 136.776 40.3001 136.066 41.4454C135.37 42.5907 134.384 43.4823 133.108 44.1202C131.847 44.7436 130.39 45.0553 128.737 45.0553H121.822V29.8328ZM128.563 42.163C130.085 42.163 131.296 41.7426 132.195 40.9017C133.108 40.0464 133.565 38.8938 133.565 37.444C133.565 35.9943 133.108 34.849 132.195 34.0081C131.296 33.1527 130.085 32.7251 128.563 32.7251H125.345V42.163H128.563ZM144.79 45.3163C143.586 45.3163 142.419 45.1568 141.288 44.8378C140.172 44.5044 139.273 44.0767 138.592 43.5548L139.788 40.9017C140.44 41.3801 141.216 41.7643 142.115 42.0543C143.014 42.3442 143.913 42.4892 144.811 42.4892C145.812 42.4892 146.551 42.3442 147.03 42.0543C147.508 41.7498 147.747 41.3512 147.747 40.8582C147.747 40.4958 147.602 40.1986 147.312 39.9666C147.037 39.7202 146.674 39.5244 146.225 39.3795C145.79 39.2345 145.196 39.075 144.442 38.9011C143.282 38.6256 142.332 38.3501 141.593 38.0747C140.854 37.7992 140.216 37.3571 139.679 36.7482C139.157 36.1393 138.896 35.3274 138.896 34.3126C138.896 33.4282 139.136 32.6308 139.614 31.9204C140.092 31.1956 140.81 30.6229 141.767 30.2025C142.738 29.782 143.92 29.5718 145.312 29.5718C146.283 29.5718 147.233 29.6878 148.16 29.9198C149.088 30.1517 149.9 30.4852 150.596 30.9201L149.509 33.5949C148.102 32.7975 146.696 32.3989 145.29 32.3989C144.304 32.3989 143.572 32.5583 143.093 32.8773C142.63 33.1962 142.398 33.6167 142.398 34.1386C142.398 34.6605 142.666 35.0519 143.202 35.3129C143.753 35.5593 144.587 35.8058 145.703 36.0523C146.863 36.3277 147.812 36.6032 148.552 36.8786C149.291 37.1541 149.922 37.589 150.444 38.1834C150.98 38.7778 151.248 39.5824 151.248 40.5973C151.248 41.4671 151.002 42.2645 150.509 42.9894C150.031 43.6998 149.306 44.2652 148.334 44.6856C147.363 45.106 146.181 45.3163 144.79 45.3163ZM160.245 29.8328C161.593 29.8328 162.76 30.0575 163.746 30.5069C164.746 30.9563 165.515 31.5942 166.051 32.4206C166.587 33.247 166.856 34.2256 166.856 35.3564C166.856 36.4727 166.587 37.4513 166.051 38.2922C165.515 39.1185 164.746 39.7564 163.746 40.2058C162.76 40.6408 161.593 40.8582 160.245 40.8582H157.179V45.0553H153.656V29.8328H160.245ZM160.049 37.9877C161.107 37.9877 161.912 37.763 162.463 37.3136C163.014 36.8496 163.289 36.1972 163.289 35.3564C163.289 34.501 163.014 33.8486 162.463 33.3992C161.912 32.9353 161.107 32.7033 160.049 32.7033H157.179V37.9877H160.049Z" fill="url(#paint7_linear)"/>
<defs>
<filter id="filter0_d" x="131.457" y="74.3865" width="119.393" height="62.475" filterUnits="userSpaceOnUse" color-interpolation-filters="sRGB">
<feFlood flood-opacity="0" result="BackgroundImageFix"/>
<feColorMatrix in="SourceAlpha" type="matrix" values="0 0 0 0 0 0 0 0 0 0 0 0 0 0 0 0 0 0 127 0"/>
<feOffset dy="4.15025"/>
<feGaussianBlur stdDeviation="5.92893"/>
<feColorMatrix type="matrix" values="0 0 0 0 0 0 0 0 0 0 0 0 0 0 0 0 0 0 0.1 0"/>
<feBlend mode="normal" in2="BackgroundImageFix" result="effect1_dropShadow"/>
<feBlend mode="normal" in="SourceGraphic" in2="effect1_dropShadow" result="shape"/>
</filter>
<filter id="filter1_d" x="66.0486" y="128.308" width="87.9482" height="46.2764" filterUnits="userSpaceOnUse" color-interpolation-filters="sRGB">
<feFlood flood-opacity="0" result="BackgroundImageFix"/>
<feColorMatrix in="SourceAlpha" type="matrix" values="0 0 0 0 0 0 0 0 0 0 0 0 0 0 0 0 0 0 127 0"/>
<feOffset dy="3.03857"/>
<feGaussianBlur stdDeviation="4.34082"/>
<feColorMatrix type="matrix" values="0 0 0 0 0 0 0 0 0 0 0 0 0 0 0 0 0 0 0.1 0"/>
<feBlend mode="normal" in2="BackgroundImageFix" result="effect1_dropShadow"/>
<feBlend mode="normal" in="SourceGraphic" in2="effect1_dropShadow" result="shape"/>
</filter>
<filter id="filter2_d" x="0.718298" y="79.7796" width="121.586" height="48.255" filterUnits="userSpaceOnUse" color-interpolation-filters="sRGB">
<feFlood flood-opacity="0" result="BackgroundImageFix"/>
<feColorMatrix in="SourceAlpha" type="matrix" values="0 0 0 0 0 0 0 0 0 0 0 0 0 0 0 0 0 0 127 0"/>
<feOffset dy="3.9486"/>
<feGaussianBlur stdDeviation="5.64085"/>
<feColorMatrix type="matrix" values="0 0 0 0 0 0 0 0 0 0 0 0 0 0 0 0 0 0 0.1 0"/>
<feBlend mode="normal" in2="BackgroundImageFix" result="effect1_dropShadow"/>
<feBlend mode="normal" in="SourceGraphic" in2="effect1_dropShadow" result="shape"/>
</filter>
<filter id="filter3_d" x="59.6748" y="0.126773" width="167.608" height="87.313" filterUnits="userSpaceOnUse" color-interpolation-filters="sRGB">
<feFlood flood-opacity="0" result="BackgroundImageFix"/>
<feColorMatrix in="SourceAlpha" type="matrix" values="0 0 0 0 0 0 0 0 0 0 0 0 0 0 0 0 0 0 127 0"/>
<feOffset dy="5.85481"/>
<feGaussianBlur stdDeviation="8.36402"/>
<feColorMatrix type="matrix" values="0 0 0 0 0 0 0 0 0 0 0 0 0 0 0 0 0 0 0.1 0"/>
<feBlend mode="normal" in2="BackgroundImageFix" result="effect1_dropShadow"/>
<feBlend mode="normal" in="SourceGraphic" in2="effect1_dropShadow" result="shape"/>
</filter>
<linearGradient id="paint0_linear" x1="101.458" y1="101.995" x2="125.75" y2="163.898" gradientUnits="userSpaceOnUse">
<stop stop-color="#7D15A1"/>
<stop offset="1" stop-color="#B675A8"/>
</linearGradient>
<linearGradient id="paint1_linear" x1="121.624" y1="101.388" x2="127.247" y2="129.049" gradientUnits="userSpaceOnUse">
<stop stop-color="#7D15A1"/>
<stop offset="1" stop-color="#B675A8"/>
</linearGradient>
<linearGradient id="paint2_linear" x1="41.4377" y1="148.408" x2="59.741" y2="195.052" gradientUnits="userSpaceOnUse">
<stop stop-color="#17E9B5"/>
<stop offset="1" stop-color="#A024EA"/>
</linearGradient>
<linearGradient id="paint3_linear" x1="56.8479" y1="148.191" x2="61.0843" y2="169.034" gradientUnits="userSpaceOnUse">
<stop stop-color="#17E9B5"/>
<stop offset="1" stop-color="#A024EA"/>
</linearGradient>
<linearGradient id="paint4_linear" x1="-35.9964" y1="100.195" x2="-24.7606" y2="145.758" gradientUnits="userSpaceOnUse">
<stop stop-color="#5A63D8"/>
<stop offset="1" stop-color="#CD90E1"/>
</linearGradient>
<linearGradient id="paint5_linear" x1="-27.2113" y1="99.8176" x2="-22.7014" y2="127.862" gradientUnits="userSpaceOnUse">
<stop stop-color="#5A63D8"/>
<stop offset="1" stop-color="#CD90E1"/>
</linearGradient>
<linearGradient id="paint6_linear" x1="10.7166" y1="37.4494" x2="46.4654" y2="127.45" gradientUnits="userSpaceOnUse">
<stop stop-color="#FBB63F"/>
<stop offset="0.981306" stop-color="#B069A1"/>
</linearGradient>
<linearGradient id="paint7_linear" x1="40.5448" y1="37.3171" x2="48.8381" y2="77.6273" gradientUnits="userSpaceOnUse">
<stop stop-color="#FBB63F"/>
<stop offset="0.981306" stop-color="#B069A1"/>
</linearGradient>
</defs>
</svg>
