<?xml version="1.0" encoding="UTF-8"?>
<svg width="116px" height="84px" viewBox="0 0 116 84" version="1.1" xmlns="http://www.w3.org/2000/svg" xmlns:xlink="http://www.w3.org/1999/xlink">
    <!-- Generator: sketchtool 50.2 (55047) - http://www.bohemiancoding.com/sketch -->
    <title>A4159B94-7353-4032-BA25-CAAC67082BB7</title>
    <desc>Created with sketchtool.</desc>
    <defs></defs>
    <g id="Web" stroke="none" stroke-width="1" fill="none" fill-rule="evenodd">
        <g id="Rewarded-Video" transform="translate(-158.000000, -1323.000000)" fill="#740B99">
            <g id="Visual-icon/User" transform="translate(155.000000, 1299.000000)">
                <g id="Group" transform="translate(3.000000, 24.000000)">
                    <path d="M45.9578551,11.43 L69.7042319,11.43 L69.7042319,2.88833333 L45.9578551,2.88833333 L45.9578551,11.43 Z M114.683652,5.90833333 L78.8463768,5.90833333 C78.1503768,5.90833333 77.5855072,6.46833333 77.5855072,7.15833333 C77.5855072,7.84833333 78.1503768,8.40833333 78.8463768,8.40833333 L113.422783,8.40833333 L113.422783,81.325 L3.22614493,81.325 L3.22614493,8.40833333 L43.4361159,8.40833333 L43.4361159,12.68 C43.4361159,13.37 44.0009855,13.93 44.6969855,13.93 L70.9651014,13.93 C71.6611014,13.93 72.225971,13.37 72.225971,12.68 L72.225971,1.63833333 C72.225971,0.946666667 71.6611014,0.388333333 70.9651014,0.388333333 L44.6969855,0.388333333 C44.0009855,0.388333333 43.4361159,0.946666667 43.4361159,1.63833333 L43.4361159,5.90833333 L1.96527536,5.90833333 C1.26927536,5.90833333 0.704405797,6.46833333 0.704405797,7.15833333 L0.704405797,82.575 C0.704405797,83.265 1.26927536,83.825 1.96527536,83.825 L114.683652,83.825 C115.379652,83.825 115.944522,83.265 115.944522,82.575 L115.944522,7.15833333 C115.944522,6.46833333 115.379652,5.90833333 114.683652,5.90833333 Z" id="Fill-579"></path>
                    <path d="M100.837623,24.6433333 L64.4422029,24.6433333 C63.7462029,24.6433333 63.1813333,25.2033333 63.1813333,25.8933333 C63.1813333,26.5833333 63.7462029,27.1433333 64.4422029,27.1433333 L100.837623,27.1433333 C101.533623,27.1433333 102.098493,26.5833333 102.098493,25.8933333 C102.098493,25.2033333 101.533623,24.6433333 100.837623,24.6433333" id="Fill-580"></path>
                    <path d="M102.098493,45.455 C102.098493,44.765 101.533623,44.205 100.837623,44.205 L64.4422029,44.205 C63.7462029,44.205 63.1813333,44.765 63.1813333,45.455 C63.1813333,46.145 63.7462029,46.705 64.4422029,46.705 L100.837623,46.705 C101.533623,46.705 102.098493,46.145 102.098493,45.455" id="Fill-581"></path>
                    <path d="M64.4422029,63.765 C63.7462029,63.765 63.1813333,64.325 63.1813333,65.015 C63.1813333,65.705 63.7462029,66.265 64.4422029,66.265 L74.3391884,66.265 C75.0351884,66.265 75.600058,65.705 75.600058,65.015 C75.600058,64.325 75.0351884,63.765 74.3391884,63.765 L64.4422029,63.765" id="Fill-582"></path>
                    <path d="M28.6166957,23.265 C29.738029,22.355 31.3015072,21.8733333 33.1356522,21.8733333 C34.9647536,21.8733333 36.5736232,22.34 37.7874203,23.2283333 C39.4853913,24.4666667 40.3461449,26.435 40.3461449,29.0816667 C40.3461449,34.6433333 36.6391884,40.5266667 33.1356522,40.5266667 C29.379942,40.5266667 26.3555362,34.2666667 26.3555362,29.0816667 C26.3555362,26.4383333 27.1154203,24.4833333 28.6166957,23.265 Z M33.1356522,43.0266667 C38.6162319,43.0266667 42.8678841,35.53 42.8678841,29.0816667 C42.8678841,24.74 40.9177391,22.405 39.281971,21.215 C37.6327536,20.01 35.5077681,19.3733333 33.1356522,19.3733333 C30.7131014,19.3733333 28.5965217,20.05 27.0195942,21.33 C24.9349565,23.02 23.8337971,25.7 23.8337971,29.0816667 C23.8337971,35.665 27.8114203,43.0266667 33.1356522,43.0266667 Z" id="Fill-583"></path>
                    <path d="M51.546029,66.265 C52.242029,66.265 52.8068986,65.705 52.8068986,65.015 L52.8068986,57.9616667 C52.8068986,50.9933333 47.0892754,45.325 40.062029,45.325 L26.6396522,45.325 C19.6124058,45.325 13.8964638,50.9933333 13.8964638,57.9616667 L13.8964638,65.015 C13.8964638,65.705 14.4613333,66.265 15.1573333,66.265 C15.8533333,66.265 16.4182029,65.705 16.4182029,65.015 L16.4182029,57.9616667 C16.4182029,52.3716667 21.0027246,47.825 26.6396522,47.825 L40.062029,47.825 C45.6989565,47.825 50.2851594,52.3716667 50.2851594,57.9616667 L50.2851594,65.015 C50.2851594,65.705 50.850029,66.265 51.546029,66.265" id="Fill-584"></path>
                </g>
            </g>
        </g>
    </g>
</svg>