<?xml version="1.0" encoding="UTF-8"?>
<svg width="123px" height="132px" viewBox="0 0 123 132" version="1.1" xmlns="http://www.w3.org/2000/svg" xmlns:xlink="http://www.w3.org/1999/xlink">
    <!-- Generator: sketchtool 50.2 (55047) - http://www.bohemiancoding.com/sketch -->
    <title>14BB335A-A157-4467-8F93-8E69FBFF5AA6</title>
    <desc>Created with sketchtool.</desc>
    <defs></defs>
    <g id="Web" stroke="none" stroke-width="1" fill="none" fill-rule="evenodd">
        <g id="Rewarded-Video" transform="translate(-557.000000, -1299.000000)" fill="#740B99">
            <g id="Visual-icon/target" transform="translate(557.000000, 1299.000000)">
                <g id="Group">
                    <path d="M79.0726172,73.3441552 C78.5317882,74.0979775 77.937274,74.8220437 77.3049813,75.4925489 C76.7422806,76.093623 76.7701174,77.0339172 77.3705966,77.5953164 C77.6589061,77.8651055 78.024761,78 78.3926043,78 C78.7902726,78 79.1859526,77.8432843 79.4802272,77.5298529 C80.2019953,76.7641281 80.8800199,75.938891 81.4964058,75.0799303 C81.4983942,75.0779466 81.4983942,75.0759628 81.4983942,75.0739791 C84.4431284,70.9735823 86,66.1312657 86,61.0707374 C86,47.7975131 75.1754672,37 61.8714722,37 C54.1308576,37 46.8097831,40.7453068 42.2823288,47.0179021 C41.7991618,47.6844397 41.9522641,48.6148152 42.6183586,49.094881 C43.2904181,49.5769305 44.2209621,49.4221986 44.7001524,48.7576447 C48.6688827,43.2587091 55.0892384,39.9756145 61.8714722,39.9756145 C73.5311086,39.9756145 83.0174873,49.4380685 83.0174873,61.0707374 C83.0174873,65.5063867 81.6534848,69.7476292 79.0765938,73.3401877 C79.0746055,73.3421715 79.0746055,73.3421715 79.0726172,73.3441552" id="Fill-498"></path>
                    <path d="M97.4033174,81 C97.9503019,81 98.4754864,80.6928582 98.7370877,80.1594014 C98.9649979,79.6926267 99.1810172,79.2197899 99.3930728,78.7449325 C99.3930728,78.7429119 99.3970365,78.7408912 99.3970365,78.7388705 C101.787121,73.3093309 103,67.520112 103,61.5247849 C103,52.9409797 100.479115,44.6865438 95.7088543,37.654613 C95.2451066,36.9675853 94.3156292,36.791787 93.6398258,37.2686651 C92.9660042,37.7475638 92.7975488,38.6912166 93.2632784,39.3782443 C97.6887006,45.9009663 100.027258,53.5593047 100.027258,61.5247849 C100.027258,67.0876887 98.9035613,72.4626703 96.6819319,77.4961586 C96.6819319,77.4981793 96.6819319,77.4981793 96.6819319,77.5002 C96.4877128,77.9386853 96.2835845,78.3771707 96.0735107,78.809594 C95.7068725,79.5572418 96.0081104,80.4665432 96.7433686,80.8423878 C96.9554242,80.9494833 97.1793708,81 97.4033174,81" id="Fill-499"></path>
                    <path d="M58.7966044,71.9579088 C58.8866176,68.239853 58.9666293,64.9727743 58.9666293,62.4332721 C58.9666293,60.7496242 59.5587159,59.4808752 60.6328731,58.8615333 C61.5110016,58.3604476 62.6031614,58.362452 63.4832902,58.8775681 C64.5594477,59.5069317 65.1475338,60.7676633 65.1375323,62.4232504 C65.1115285,66.9771171 65.1115285,76.4336061 65.1195297,84.4469684 L65.1235303,86.8281276 C65.1055276,87.0425923 65.0955262,87.2590613 65.0955262,87.4835477 L65.1375323,97.9562385 C65.1415329,98.7840321 65.811631,99.4534825 66.6377519,99.4534825 C66.6397522,99.4534825 66.6417525,99.4534825 66.6417525,99.4534825 C67.4698736,99.4514782 68.1399717,98.778019 68.1379714,97.9482211 L68.1239694,86.9343578 C68.237986,85.765826 68.7240572,84.9119759 69.5461775,84.4469684 C70.4343075,83.9458827 71.6424843,83.9799566 72.556618,84.5251378 C73.1527053,84.8819108 73.8468068,85.5814264 73.9188174,86.9323534 C73.9168171,87.0425923 73.9188174,87.1548355 73.922818,87.2650743 L73.922818,97.8580257 C73.922818,98.6878236 74.5949163,99.3612828 75.4230375,99.3612828 C76.2511587,99.3612828 76.9232571,98.6878236 76.9232571,97.8580257 L76.9232571,87.2991482 C76.9252574,87.1668615 76.9252574,87.0325706 76.9212568,86.9022883 C76.9532615,85.848004 77.3633215,85.0562886 78.1194321,84.6013028 C78.9975606,84.0681477 80.2157389,84.070152 81.1358735,84.6073159 C81.7359614,84.9540671 82.4420647,85.6636045 82.4740694,87.1107399 C82.4720691,87.1768832 82.4740694,87.2470352 82.4740694,87.3151829 L82.5800849,97.8660431 C82.5880861,98.6918323 83.2581841,99.3552698 84.0803044,99.3552698 C84.084305,99.3552698 84.0903059,99.3552698 84.0963068,99.3552698 C84.9184271,99.3472524 85.580524,98.6757976 85.580524,97.8520127 C85.580524,97.8459997 85.580524,97.841991 85.580524,97.835978 L85.4745085,87.3071655 C85.4765088,87.2350092 85.4765088,87.1628528 85.4745085,87.0906965 C85.5105137,85.6355437 86.2106162,84.9159846 86.8027028,84.5632203 C87.6568278,84.0581259 88.7529882,84.0440955 89.5991121,84.5291465 C90.4992438,85.0462669 90.9713129,86.0364122 90.9673123,87.3933523 C90.9633117,89.9508936 90.9673123,97.8941039 90.9693126,97.9562385 C90.9753135,98.1025555 91.5453969,112.668114 87.596819,121.625522 C86.6186759,123.844329 86.1186027,124.980792 85.9665805,128.993486 L64.2334,128.993486 C63.9933649,127.562385 63.4592867,125.159178 62.3071181,122.407216 C57.8284627,111.681978 58.4125482,87.7761817 58.7966044,71.9579088 Z M123,61.625522 C123,27.6458994 95.4099624,0 61.4989999,0 C27.5880373,0 0,27.6458994 0,61.625522 C0,94.6891598 26.5578865,122.084516 59.4066937,123.198931 C59.4547007,123.317187 59.4927062,123.453483 59.5427136,123.569734 C61.1609504,127.442125 61.4229887,130.580925 61.424989,130.61099 C61.4869981,131.392684 62.1370932,132 62.921208,132 L87.4287945,132 C88.2469142,132 88.915012,131.340571 88.929014,130.518791 C89.0010245,125.880742 89.339074,125.113078 90.3552227,122.812093 C94.5678392,113.249374 93.9937552,98.4533155 93.9677514,97.8900952 C93.9677514,97.8900952 93.9637508,89.9549023 93.9677514,87.4013696 C93.9757525,84.9741106 92.9275992,82.9757809 91.0913304,81.9194922 C89.3310728,80.9093035 87.0507391,80.9313513 85.2804801,81.9736095 C84.7764063,82.2702522 84.3343416,82.6370469 83.9582866,83.0579589 C83.5802313,82.649073 83.1401669,82.2943043 82.6380934,82.0036746 C80.76982,80.9193252 78.385471,80.9293469 76.5712055,82.0257224 C76.1251403,82.2963087 75.727082,82.6210122 75.3870322,82.9938199 C75.0189784,82.5889427 74.5869152,82.2401871 74.0988437,81.9455487 C72.2805776,80.8551862 69.9342343,80.7990646 68.1179685,81.8032404 C68.1119676,74.4533155 68.1159682,66.5000835 68.1379714,62.4432938 C68.1539738,59.7013529 67.0098063,57.4564891 64.9935112,56.2799399 C63.1872469,55.2236512 60.9449188,55.2156339 59.1366541,56.2578921 C57.1243597,57.4184065 55.9661902,59.6692834 55.9661902,62.4332721 C55.9661902,64.9547353 55.8861785,68.1957575 55.7961653,71.8837481 C55.7201542,75.0265575 55.6381422,78.4880575 55.5881348,82.0998831 C46.596819,79.4962419 40.227887,71.1441456 40.227887,61.625522 C40.227887,61.0743277 40.2478899,60.5271421 40.2918964,59.9839653 C40.3559057,59.158176 39.735815,58.4346083 38.9096941,58.368465 C38.0775723,58.3123434 37.3634678,58.9236679 37.2974582,59.7534658 C37.2514514,60.3687991 37.2274479,60.9961583 37.2274479,61.625522 C37.2274479,72.7616502 44.8765673,82.4887256 55.5521296,85.1865709 C55.5161243,89.9989978 55.5581305,94.9978286 55.7661609,99.836312 C36.9394058,97.0302322 22.905352,80.8792383 22.905352,61.625522 C22.905352,40.3033239 40.2178855,22.9537331 61.4989999,22.9537331 C68.4740206,22.9537331 75.3090208,24.8378153 81.261892,28.3995323 C81.9759965,28.8284617 82.8961311,28.5939536 83.3181929,27.8804075 C83.7442553,27.1688659 83.5122213,26.2448639 82.8001171,25.8199432 C76.3811777,21.9776182 69.0160999,19.947219 61.4989999,19.947219 C38.5636435,19.947219 19.9049129,38.6457324 19.9049129,61.625522 C19.9049129,82.5809253 35.3291701,100.134959 55.9221837,102.898948 C56.3102405,109.40304 57.0663512,115.434107 58.3945455,120.148321 C27.6660487,118.516786 3.00043909,92.6988475 3.00043909,61.625522 C3.00043909,29.3034909 29.2422794,3.00651411 61.4989999,3.00651411 C93.7557203,3.00651411 119.999561,29.3034909 119.999561,61.625522 C119.999561,77.760481 113.594624,92.795056 101.964922,103.959245 C101.962921,103.961249 101.962921,103.963254 101.960921,103.965258 C100.4527,105.414398 98.8384642,106.801403 97.1722203,108.090195 C96.5161243,108.597294 96.3941065,109.54134 96.9001805,110.198764 C97.1962238,110.581593 97.6402888,110.784032 98.0903547,110.784032 C98.4084012,110.784032 98.7304484,110.681811 99.0044885,110.471355 C100.756745,109.118423 102.446992,107.659262 104.031224,106.135961 C104.033224,106.133957 104.037225,106.133957 104.039225,106.131953 C116.267015,94.3945215 123,78.5882746 123,61.625522 Z" id="Fill-500"></path>
                </g>
            </g>
        </g>
    </g>
</svg>