<?xml version="1.0" encoding="UTF-8"?>
<svg width="79px" height="111px" viewBox="0 0 79 111" version="1.1" xmlns="http://www.w3.org/2000/svg" xmlns:xlink="http://www.w3.org/1999/xlink">
    <!-- Generator: sketchtool 50.2 (55047) - http://www.bohemiancoding.com/sketch -->
    <title>9B8887B7-5BB9-47D1-953E-DDB8ABDB2FF6</title>
    <desc>Created with sketchtool.</desc>
    <defs></defs>
    <g id="Web" stroke="none" stroke-width="1" fill="none" fill-rule="evenodd">
        <g id="Rewarded-Video" transform="translate(-978.000000, -1309.000000)" fill="#740B99">
            <g id="Visual-icon/User-Copy-2" transform="translate(956.000000, 1299.000000)">
                <path d="M62.0009181,106 C59.7920588,106 58,107.792059 58,110.000918 C58,112.209777 59.7920588,114 62.0009181,114 C64.2097774,114 66,112.209777 66,110.000918 C66,107.792059 64.2097774,106 62.0009181,106" id="Fill-521"></path>
                <path d="M97.2175184,65.8651078 L95.6840434,65.4313164 L95.6822478,65.4295089 L91.8575386,64.3432228 C91.5127761,64.2438123 91.1446703,64.2889989 90.8340249,64.4661304 C90.5215839,64.6414544 90.2917422,64.9342637 90.1965734,65.2794894 C88.6972156,70.6313913 86.2623303,74.748795 82.3029483,78.629421 C81.7696438,79.1517782 81.7588699,80.0103237 82.2778093,80.5471406 L86.1617746,84.5633264 C81.8989297,88.4927539 77.397265,91.0304338 71.8433563,92.6336547 L70.4714888,87.2004169 C70.2901293,86.4738162 69.5467352,86.0382173 68.8356625,86.2189637 C63.479274,87.5872142 58.7172417,87.5221455 53.4021529,86.0147203 C52.6821021,85.8050544 51.9405035,86.231616 51.7411877,86.9509868 L50.2292604,92.3444604 C44.7166514,90.5948349 40.2832209,87.9360548 36.1245231,83.896372 L40.114431,79.9850192 C40.6477355,79.462662 40.6585093,78.6041165 40.1395699,78.0672996 C36.2825392,74.0818407 33.9571879,69.9011757 32.5978898,64.5131245 C32.5116992,64.1642839 32.2890401,63.8660522 31.9837816,63.6816909 C31.6767275,63.4973295 31.3086217,63.444913 30.9620635,63.5316713 L25.566171,64.9125741 C24.3164069,59.2335211 24.3846411,54.0370612 25.7834432,48.39235 L31.1416273,49.914235 C31.8598826,50.1202859 32.6014811,49.6973393 32.8043882,48.9779685 C34.3073373,43.6242591 36.740427,39.5068553 40.6980133,35.6280369 C40.9547896,35.3767993 41.1002363,35.0351886 41.1056232,34.6755032 C41.1110101,34.3158178 40.9709503,33.9687846 40.7231523,33.7103172 L36.8373914,29.6959389 C41.1002363,25.7665114 45.6036966,23.2288315 51.1576053,21.6256106 L52.5294728,27.0588484 C52.6174591,27.4076891 52.8383226,27.7059207 53.1453767,27.890282 C53.4524308,28.0746434 53.8205366,28.1252524 54.1652991,28.0384941 C59.5216876,26.6702436 64.2765373,26.7353123 69.597013,28.2427376 C70.3170639,28.450596 71.0568668,28.0276493 71.2597739,27.306471 L72.7699056,21.9148049 C78.2825146,23.6644304 82.7177407,26.321403 86.8746429,30.3610858 L82.884735,34.2724386 C82.3514305,34.7947958 82.3406567,35.6533414 82.8613917,36.1901583 C86.7166267,40.1756171 89.0419781,44.3562822 90.4012761,49.7443334 C90.5826356,50.470934 91.3134603,50.9065329 92.0371024,50.7257865 L95.6499263,49.8039797 L97.432995,49.3466912 C98.6827591,55.0275516 98.6145248,60.2222041 97.2175184,65.8651078 Z M82.8919176,118.288803 L40.1072484,118.288803 C33.9984876,118.288803 29.0281613,113.285742 29.0281613,107.136749 L29.0281613,101.163079 L93.9710047,101.163079 L93.9710047,107.136749 C93.9710047,113.285742 89.0006784,118.288803 82.8919176,118.288803 Z M99.7314117,47.3602879 C99.6434255,47.0114473 99.422562,46.7132157 99.1155079,46.5288543 C98.8084537,46.3444929 98.4403479,46.2920765 98.0955854,46.3806422 L94.9855402,47.1759265 L92.6565976,47.7705823 C91.2667737,42.997069 89.0294086,38.9754608 85.7110694,35.2864261 L89.7332988,31.3443464 C90.2666033,30.8219892 90.2755815,29.9634436 89.7566421,29.4266267 C84.7288554,24.2265518 79.1516034,20.8881652 72.2132578,18.9162216 C71.4932069,18.7065557 70.7498127,19.1313098 70.5504969,19.8524881 L69.0260001,25.2893408 C64.2244638,24.114489 59.6491779,24.0530352 54.8135245,25.1013646 L53.4326788,19.6247476 C53.2495237,18.8981469 52.5115164,18.4643555 51.7968525,18.6432945 C44.8064333,20.4308767 39.1447864,23.6192438 33.9787355,28.6855663 C33.7219593,28.9349964 33.5765126,29.2784146 33.5711257,29.6381 C33.5657388,29.9977854 33.7057986,30.3448186 33.9535966,30.6014785 L37.8698833,34.6483912 C34.4581709,38.2470527 32.1166588,42.2072071 30.6011403,46.9445711 L29.0281613,46.4981274 L29.0281613,23.8632515 C29.0281613,17.7142578 33.9984876,12.7111965 40.1072484,12.7111965 L82.8919176,12.7111965 C89.0006784,12.7111965 93.9710047,17.7142578 93.9710047,23.8632515 L93.9710047,42.7729434 C93.9710047,43.5212336 94.5743391,44.1285417 95.3177333,44.1285417 C96.0611274,44.1285417 96.6644618,43.5212336 96.6644618,42.7729434 L96.6644618,23.8632515 C96.6644618,16.2194848 90.4874668,10 82.8919176,10 L40.1072484,10 C32.5116992,10 26.3347041,16.2194848 26.3347041,23.8632515 L26.3347041,45.7317625 L25.1998608,45.4100339 C24.8550983,45.3088159 24.4851969,45.3540025 24.1763471,45.531134 C23.8639061,45.7082655 23.6340644,46.0010747 23.5371,46.3463004 C21.5798544,53.3321501 21.4936638,59.8625187 23.2677542,66.8971699 C23.3557405,67.2460106 23.576604,67.5460496 23.8836581,67.7286035 C24.1907122,67.9129649 24.5570224,67.9635739 24.9035806,67.8786231 L30.3425684,66.488683 C31.7323923,71.2621963 33.9697574,75.281997 37.2880966,78.9710317 L33.2658672,82.9149189 C32.7343583,83.4372761 32.7235845,84.2940142 33.2425239,84.8308311 C38.2739019,90.030906 43.8493582,93.3711001 50.7859082,95.3412362 C51.5041635,95.5490946 52.2475576,95.1243405 52.4486691,94.4049697 L53.9731659,88.968117 C58.7747022,90.1429688 63.355375,90.2044226 68.1874371,89.1579007 L69.5682828,94.6327102 C69.7227077,95.2472481 70.2703773,95.655735 70.8719161,95.655735 C70.98145,95.655735 71.0945752,95.6430828 71.2041091,95.6141634 C78.1927326,93.8283886 83.852584,90.638214 89.0204304,85.573699 C89.5537349,85.0513418 89.5645088,84.1927962 89.0455694,83.6559793 L85.1292827,79.6090666 C88.5445863,76.0104051 90.8843028,72.0502508 92.3980257,67.3146942 L93.9710047,67.7611379 L93.9710047,98.4518824 L29.0281613,98.4518824 L29.0281613,71.8695043 C29.0281613,71.1212141 28.4248269,70.5139061 27.6814327,70.5139061 C26.9380385,70.5139061 26.3347041,71.1212141 26.3347041,71.8695043 L26.3347041,107.136749 C26.3347041,114.780515 32.5116992,121 40.1072484,121 L82.8919176,121 C90.4874668,121 96.6644618,114.780515 96.6644618,107.136749 L96.6644618,68.5256953 L97.8028964,68.847424 C97.9232042,68.8835732 98.0471032,68.8998404 98.1674109,68.8998404 C98.7563802,68.8998404 99.2968673,68.5094281 99.4638617,67.9111574 C101.421107,60.9289227 101.505502,54.3967466 99.7314117,47.3602879 Z" id="Fill-522"></path>
                <path d="M62.000892,35 C56.6027975,35 51.4116359,36.9729982 47.38358,40.556862 C46.8323535,41.0492195 46.7824042,41.8947902 47.2729779,42.4460166 C47.7653355,42.999027 48.6109061,43.0454085 49.1639165,42.5566187 C52.6996148,39.4098115 57.2592743,37.6758565 62.000892,37.6758565 C72.6561524,37.6758565 81.3241435,46.3456315 81.3241435,57.000892 C81.3241435,67.6561524 72.6561524,76.3241435 62.000892,76.3241435 C51.3438476,76.3241435 42.6758565,67.6561524 42.6758565,57.000892 C42.6758565,55.0849787 42.9541456,53.195824 43.505372,51.3815934 C43.7194405,50.6733833 43.3198459,49.9259274 42.6134198,49.7118589 C41.9105615,49.4977904 41.1595378,49.897385 40.9436854,50.6038111 C40.317535,52.6695723 40,54.8227448 40,57.000892 C40,69.1314413 49.8685587,79 62.000892,79 C74.1314413,79 84,69.1314413 84,57.000892 C84,44.8703426 74.1314413,35 62.000892,35" id="Fill-523"></path>
            </g>
        </g>
    </g>
</svg>