<svg width="24" height="154" viewBox="0 0 24 154" fill="none" xmlns="http://www.w3.org/2000/svg">
<path d="M18.18 106.906C18.18 107.878 18.042 108.82 17.766 109.732C17.49 110.632 17.124 111.346 16.668 111.874L14.85 111.064C15.258 110.548 15.594 109.918 15.858 109.174C16.11 108.418 16.236 107.662 16.236 106.906C16.236 105.97 16.086 105.274 15.786 104.818C15.486 104.35 15.09 104.116 14.598 104.116C14.238 104.116 13.944 104.248 13.716 104.512C13.476 104.764 13.29 105.088 13.158 105.484C13.026 105.88 12.876 106.42 12.708 107.104C12.48 108.064 12.252 108.844 12.024 109.444C11.796 110.032 11.442 110.542 10.962 110.974C10.47 111.394 9.81 111.604 8.982 111.604C8.286 111.604 7.656 111.418 7.092 111.046C6.516 110.662 6.06 110.092 5.724 109.336C5.388 108.568 5.22 107.632 5.22 106.528C5.22 105.76 5.316 105.004 5.508 104.26C5.7 103.516 5.976 102.874 6.336 102.334L8.154 103.072C7.83 103.624 7.584 104.2 7.416 104.8C7.248 105.4 7.164 105.982 7.164 106.546C7.164 107.47 7.32 108.16 7.632 108.616C7.944 109.06 8.358 109.282 8.874 109.282C9.234 109.282 9.528 109.156 9.756 108.904C9.984 108.64 10.164 108.31 10.296 107.914C10.428 107.518 10.578 106.978 10.746 106.294C10.962 105.358 11.19 104.59 11.43 103.99C11.658 103.39 12.012 102.88 12.492 102.46C12.972 102.028 13.62 101.812 14.436 101.812C15.132 101.812 15.762 102.004 16.326 102.388C16.89 102.76 17.34 103.33 17.676 104.098C18.012 104.866 18.18 105.802 18.18 106.906ZM5.4 99.4916L5.4 97.1516L18 97.1516L18 99.4916L5.4 99.4916ZM11.556 85.1395L11.556 82.9255L16.578 82.9255C17.094 83.5735 17.49 84.3295 17.766 85.1935C18.042 86.0575 18.18 86.9455 18.18 87.8575C18.18 89.1415 17.904 90.2995 17.352 91.3315C16.788 92.3635 16.014 93.1735 15.03 93.7615C14.046 94.3495 12.936 94.6435 11.7 94.6435C10.464 94.6435 9.354 94.3495 8.37 93.7615C7.386 93.1735 6.618 92.3635 6.066 91.3315C5.502 90.2875 5.22 89.1175 5.22 87.8215C5.22 86.7655 5.394 85.8055 5.742 84.9415C6.09 84.0775 6.6 83.3515 7.272 82.7635L8.712 84.2395C7.752 85.1995 7.272 86.3575 7.272 87.7135C7.272 88.6015 7.458 89.3935 7.83 90.0895C8.202 90.7735 8.724 91.3135 9.396 91.7095C10.068 92.0935 10.836 92.2855 11.7 92.2855C12.54 92.2855 13.296 92.0935 13.968 91.7095C14.64 91.3135 15.168 90.7735 15.552 90.0895C15.936 89.3935 16.128 88.6075 16.128 87.7315C16.128 86.7475 15.912 85.8835 15.48 85.1395L11.556 85.1395ZM5.4 68.6432L18 68.6432L18 70.5692L9.468 77.5172L18 77.5172L18 79.8392L5.4 79.8392L5.4 77.9132L13.932 70.9652L5.4 70.9652L5.4 68.6432ZM18 48.7184L9.648 48.7364L16.56 52.8764L16.56 53.9204L9.756 58.0604L18 58.0604L18 60.2924L5.4 60.2924L5.4 58.3664L13.752 53.3624L5.4 48.4484L5.4 46.5224L18 46.5044L18 48.7184ZM16.038 33.651L18 33.651L18 43.101L5.4 43.101L5.4 33.903L7.362 33.903L7.362 40.761L10.638 40.761L10.638 34.677L12.564 34.677L12.564 40.761L16.038 40.761L16.038 33.651ZM18.18 20.6498C18.18 22.3898 17.694 23.7458 16.722 24.7178C15.738 25.6898 14.334 26.1758 12.51 26.1758L5.4 26.1758L5.4 23.8358L12.42 23.8358C14.892 23.8358 16.128 22.7678 16.128 20.6318C16.128 18.5078 14.892 17.4458 12.42 17.4458L5.39999 17.4458L5.39999 15.1418L12.51 15.1418C14.334 15.1418 15.738 15.6278 16.722 16.5998C17.694 17.5598 18.18 18.9098 18.18 20.6498ZM5.39999 6.68064C5.39999 5.58864 5.57999 4.64064 5.93999 3.83664C6.29999 3.02064 6.81599 2.39664 7.48799 1.96464C8.15999 1.53264 8.95799 1.31664 9.88199 1.31664C10.794 1.31664 11.592 1.53264 12.276 1.96464C12.948 2.39664 13.464 3.02064 13.824 3.83664C14.184 4.64064 14.364 5.58864 14.364 6.68064L14.364 9.52464L18 9.52464L18 11.8646L5.39999 11.8646L5.39999 6.68064ZM12.384 6.78864C12.384 5.76864 12.168 4.99464 11.736 4.46664C11.304 3.93864 10.686 3.67464 9.88199 3.67464C9.07799 3.67464 8.46 3.93864 8.02799 4.46664C7.59599 4.99464 7.37999 5.76864 7.37999 6.78864L7.37999 9.52464L12.384 9.52464L12.384 6.78864Z" fill="#740B99"/>
<path fill-rule="evenodd" clip-rule="evenodd" d="M3 149.111L3 132.343C3 130.617 4.33807 129.209 5.98224 129.199C5.99236 129.199 6.00247 129.199 6.01258 129.199L18 129.199C19.6523 129.199 21 130.611 21 132.343L21 149.111C21 150.843 19.6523 152.255 18 152.255L6.01194 152.255C6.00231 152.255 5.99267 152.255 5.98303 152.255C4.3385 152.246 3 150.837 3 149.111ZM7.92065 150.159L18 150.159C18.5477 150.159 19 149.685 19 149.111L19 132.343C19 131.769 18.5477 131.295 18 131.295L7.92066 131.295L13.8192 140.126C14.0603 140.487 14.0603 140.967 13.8192 141.328L7.92065 150.159ZM5.55395 131.407L11.7793 140.727L5.55395 150.048C5.22692 149.874 5 149.518 5 149.111L5 132.343C5 131.936 5.22692 131.58 5.55395 131.407Z" fill="#740B99"/>
<mask id="mask0" mask-type="alpha" maskUnits="userSpaceOnUse" x="3" y="129" width="18" height="24">
<path fill-rule="evenodd" clip-rule="evenodd" d="M3 149.111L3 132.343C3 130.617 4.33807 129.209 5.98224 129.199C5.99236 129.199 6.00247 129.199 6.01258 129.199L18 129.199C19.6523 129.199 21 130.611 21 132.343L21 149.111C21 150.843 19.6523 152.255 18 152.255L6.01194 152.255C6.00231 152.255 5.99267 152.255 5.98303 152.255C4.3385 152.246 3 150.837 3 149.111ZM7.92065 150.159L18 150.159C18.5477 150.159 19 149.685 19 149.111L19 132.343C19 131.769 18.5477 131.295 18 131.295L7.92066 131.295L13.8192 140.126C14.0603 140.487 14.0603 140.967 13.8192 141.328L7.92065 150.159ZM5.55395 131.407L11.7793 140.727L5.55395 150.048C5.22692 149.874 5 149.518 5 149.111L5 132.343C5 131.936 5.22692 131.58 5.55395 131.407Z" fill="white"/>
</mask>
<g mask="url(#mask0)">
<rect y="153.303" width="25.1525" height="24" transform="rotate(-90 0 153.303)" fill="#740B99"/>
</g>
</svg>
