<?xml version="1.0" encoding="utf-8"?>
<!-- Generator: Adobe Illustrator 21.0.2, SVG Export Plug-In . SVG Version: 6.00 Build 0)  -->
<svg version="1.1" id="Слой_1" xmlns="http://www.w3.org/2000/svg" xmlns:xlink="http://www.w3.org/1999/xlink" x="0px" y="0px"
	 viewBox="0 0 816 819" style="enable-background:new 0 0 816 819;" xml:space="preserve">
<style type="text/css">
	.st0{fill:none;stroke:#740B99;stroke-width:2;stroke-linecap:round;stroke-dasharray:1.000000e-03,4;}
	.st1{opacity:0.2;fill:#740B99;enable-background:new    ;}
	.st2{opacity:0.4;fill:#740B99;enable-background:new    ;}
	.st3{fill:#740B99;}
</style>
<path id="Rounded_Rectangle_1" class="st0" d="M438,164H73c-21,0-38-17-38-38V35"/>
<path id="Rounded_Rectangle_1_copy_4" class="st0" d="M36,550h365c21,0,38-17,38-38v-90.9"/>
<path id="Rounded_Rectangle_1_copy" class="st0" d="M432,761H74c-21,0-38-17-38-38l0,0V541"/>
<path id="Rounded_Rectangle_1_copy_8" class="st0" d="M772,281H474c-21,0-38-17-38-38v-80"/>
<path id="Rounded_Rectangle_1_copy_2" class="st0" d="M445,410h298c21,0,38-16.9,38-37.9v-90.7"/>

<g>
	<circle id="Ellipse_1_copy_4-4" class="st1" cx="437" cy="165" r="35"/>
	<circle id="Ellipse_1_copy_4-5" class="st2" cx="437" cy="165" r="25"/>
	<circle id="Ellipse_1_copy_4-6" class="st3" cx="437" cy="165" r="15"/>
</g>
<g>
	<circle id="Ellipse_1_copy_4-7" class="st1" cx="781" cy="281" r="35"/>
	<circle id="Ellipse_1_copy_4-8" class="st2" cx="781" cy="281" r="25"/>
	<circle id="Ellipse_1_copy_4-9" class="st3" cx="781" cy="281" r="15"/>
</g>
<g>
	<circle id="Ellipse_1_copy_4-10" class="st1" cx="442" cy="415" r="35"/>
	<circle id="Ellipse_1_copy_4-11" class="st2" cx="442" cy="415" r="25"/>
	<circle id="Ellipse_1_copy_4-12" class="st3" cx="442" cy="415" r="15"/>
</g>
<g>
	<circle id="Ellipse_1_copy_4-13" class="st1" cx="38" cy="551" r="35"/>
	<circle id="Ellipse_1_copy_4-14" class="st2" cx="38" cy="551" r="25"/>
	<circle id="Ellipse_1_copy_4-15" class="st3" cx="38" cy="551" r="15"/>
</g>
<g>
	<circle id="Ellipse_1_copy_4-16" class="st1" cx="439" cy="760" r="59"/>
	<circle id="Ellipse_1_copy_4-17" class="st2" cx="439" cy="760" r="42.2"/>
	<circle id="Ellipse_1_copy_4-18" class="st3" cx="439" cy="760" r="25.3"/>
</g>
</svg>
