<?xml version="1.0" encoding="UTF-8"?>
<svg width="183px" height="163px" viewBox="0 0 183 163" version="1.1" xmlns="http://www.w3.org/2000/svg" xmlns:xlink="http://www.w3.org/1999/xlink">
    <!-- Generator: Sketch 46.2 (44496) - http://www.bohemiancoding.com/sketch -->
    <title>Shape</title>
    <desc>Created with Sketch.</desc>
    <defs></defs>
    <g id="SmartyAds-SMM" stroke="none" stroke-width="1" fill="none" fill-rule="evenodd">
        <g id="800x800-copy-7" transform="translate(-83.000000, -317.000000)" fill-rule="nonzero" fill="#740b99">
            <g id="telegram-logo" transform="translate(83.000000, 317.000000)">
                <path d="M147.320629,163 C145.891187,163 144.471403,162.578743 143.253479,161.756427 L97.2399208,130.675765 L72.5607906,148.358927 C70.6252483,149.744842 68.130485,150.093966 65.8829765,149.29377 C63.6383656,148.491651 61.9336589,146.640238 61.32518,144.344485 L48.9334596,97.5811495 L4.65648064,80.7222273 C1.86906793,79.6604297 0.020451175,77.004974 0.000168546072,74.0330948 C-0.0201140829,71.0612157 1.79180077,68.3807538 4.56569173,67.281447 L172.923102,0.572858731 C173.687081,0.24970294 174.495489,0.063118942 175.310657,0.0131067362 C175.602341,-0.00420518117 175.89499,-0.00420518117 176.185708,0.012144963 C177.873995,0.112169375 179.532341,0.796951884 180.826566,2.06072185 C180.960818,2.19152301 181.088309,2.32520948 181.209039,2.46466659 C182.281121,3.68419499 182.870283,5.17109634 182.981354,6.68588911 C183.008398,7.0667513 183.006466,7.45242234 182.972662,7.83809339 C182.949481,8.11316052 182.909882,8.38726588 182.853863,8.65944769 L154.435969,157.137031 C153.979126,159.522228 152.348789,161.518869 150.096452,162.448904 C149.20305,162.818225 148.259425,163 147.320629,163 Z M101.280027,115.972176 L142.267357,143.656818 L164.379286,28.1247752 L84.5169174,104.649221 L101.086859,115.842337 C101.153502,115.883693 101.217248,115.927935 101.280027,115.972176 Z M67.1598163,109.815866 L72.6477162,130.522843 L84.471523,122.050583 L68.9891162,111.592261 C68.2695658,111.107528 67.6533603,110.503534 67.1598163,109.815866 Z M27.175028,73.8493961 L57.5777229,85.4243364 C59.7556909,86.2533849 61.3995497,88.0769069 61.9945068,90.3216855 L65.850138,104.872352 C66.0268866,103.194058 66.7908656,101.614826 68.0319693,100.425113 L144.129496,27.5092404 L27.175028,73.8493961 Z" id="Shape"></path>
            </g>
        </g>
    </g>
</svg>