<svg id="Layer_1" data-name="Layer 1" xmlns="http://www.w3.org/2000/svg" xmlns:xlink="http://www.w3.org/1999/xlink" width="641" height="783" viewBox="0 0 640.7 782.96"><defs><style>.cls-1{fill:#fbb017; opacity:0.1;}.cls-2{fill:url(#New_Gradient_Swatch); opacity:0.1;}</style><linearGradient id="New_Gradient_Swatch" y1="391.48" x2="640.7" y2="391.48" gradientUnits="userSpaceOnUse"><stop offset="0" stop-color="#fbb640"/><stop offset="1" stop-color="#b36ea4"/></linearGradient></defs><title>thank-you</title><path class="cls-1" d="M198.65,1c34.79-5.28,78,11.25,108,26.05,32.3,15.89,64.55,36.67,95.73,56.77q8,5.15,16,10.27l8.24,5.26c63,40.23,128.1,81.84,168.95,142.57,34.4,51.13,41.65,103.25,44.12,142.95,1.57,25.18,2.31,57.57-6,84.84-10.68,35.24-35.43,59.67-59.39,83.42-19.12,18.92-39,38.58-51.53,63.62-6.78,13.55-11.54,29-16.14,43.86-4.33,14-8.8,28.47-14.94,41.46-24.69,52.18-79.1,81.65-149.25,80.87-62.39-.69-122.65-38.17-184.21-114.59-33-40.94-51.51-85.41-69.43-128.41-6.19-14.85-12.59-30.21-19.48-45.15-6.46-14-13.68-28.34-20.67-42.19-14.76-29.28-30-59.55-39.08-88.77-13.45-43.35-12.78-83.52,1.88-113.1,9.19-18.56,23.78-33,37.89-46.88,17.37-17.24,35.43-35,42.92-60.52,2.44-8.31,3.77-17.54,5.06-26.46,1.43-9.89,2.91-20.11,5.89-29.23,6.12-18.74,18.37-32.69,31.45-46.5,2.84-3,5.69-6,8.59-8.83C158.51,17.25,175.14,4.58,198.65,1ZM53,207.38c-14,13.77-28.48,28.12-37.54,46.4-14.37,29-15,68.37-1.84,110.86,8.93,28.79,24.08,58.83,38.72,87.89,7,13.9,14.26,28.28,20.76,42.39,6.93,15,13.36,30.45,19.57,45.35,17.74,42.57,36.08,86.59,68.4,126.7,60.1,74.61,118.82,111.2,179.51,111.88,69.23.77,122.91-28.31,147.29-79.78h0c6.09-12.86,10.54-27.26,14.83-41.19,4.63-15,9.41-30.47,16.26-44.17,12.65-25.3,32.6-45,51.87-64.09,23.69-23.48,48.38-47.85,58.92-82.62,8.15-26.89,7.41-59,5.86-83.88C633.14,344,626,292.7,592.45,242.77c-39.9-59.32-104.29-100.46-166.57-140.24l-8.24-5.27q-8-5.12-16-10.29c-31-20-63.08-40.65-95-56.36C277.17,16.12,234.95-.07,201.08,5.07c-27.32,4.15-45.3,21.1-62.76,39.55-12.93,13.66-25,27.44-31,45.79-2.92,8.94-4.38,19.06-5.8,28.84-1.3,9-2.65,18.32-5.13,26.8C89.08,170.86,72.21,188.34,55.41,205Z"/><path class="cls-1" d="M202.12,13.36c33.67-5.11,75.45,10.89,104.56,25.21,31.26,15.38,62.47,35.49,92.65,54.94q7.73,5,15.46,9.94l8,5.09c60.95,38.94,124,79.2,163.51,138,33.29,49.48,40.3,99.92,42.7,138.34,1.51,24.36,2.23,55.71-5.77,82.11-10.33,34.1-34.28,57.69-57.47,80.73C547.17,566.09,528,585,515.84,609.25c-6.56,13.11-11.17,28-15.62,42.44-4.18,13.54-8.51,27.55-14.46,40.12-23.9,50.5-76.55,79-144.44,78.26-60.38-.67-118.69-36.95-178.27-110.89-31.92-39.62-49.85-82.66-67.2-124.27-6-14.37-12.18-29.23-18.85-43.68-6.25-13.56-13.24-27.42-20-40.83C42.74,422.06,28,392.77,19.19,364.49,6.18,322.54,6.83,283.67,21,255c8.9-18,23-31.87,36.67-45.37C74.5,193.09,92,175.81,99.22,151.09c2.36-8,3.65-17,4.9-25.61,1.38-9.57,2.81-19.46,5.7-28.29,5.93-18.13,17.78-31.63,30.43-45,2.74-2.9,5.5-5.76,8.31-8.53C163.28,29.08,179.37,16.81,202.12,13.36Zm-141,199.72C47.56,226.45,33.57,240.29,24.8,258,10.9,286,10.26,324.15,23,365.26c8.64,27.86,23.3,56.94,37.48,85.06,6.78,13.45,13.79,27.37,20.09,41,6.71,14.55,12.93,29.46,18.93,43.88,17.17,41.2,34.92,83.8,66.19,122.62,58.16,72.2,115,107.62,173.72,108.27,67,.74,119-27.4,142.54-77.21h0c5.89-12.44,10.2-26.38,14.36-39.86,4.47-14.49,9.1-29.48,15.74-42.74,12.25-24.49,31.63-43.6,50.2-62,23-22.79,46.82-46.31,57-80,7.88-26,7.17-57.06,5.67-81.18-2.36-37.85-9.23-87.49-41.74-135.81C544.6,189.91,482.28,150.1,422,111.6l-8-5.09q-7.74-5-15.48-10c-30-19.34-61-39.34-92-54.54-28.51-14-69.36-29.7-102.14-24.72-26.44,4-43.83,20.41-60.74,38.27-12.51,13.22-24.23,26.55-30,44.31-2.83,8.65-4.25,18.44-5.61,27.91-1.26,8.72-2.56,17.73-5,25.93-7,24-23.37,40.94-39.63,57Z"/><path class="cls-1" d="M205.6,25.7c32.55-4.94,72.93,10.53,101.08,24.37,30.21,14.86,60.37,34.29,89.53,53.09q7.49,4.82,15,9.62l7.72,4.93c58.91,37.64,119.82,76.55,158,133.36,32.18,47.84,39,96.59,41.27,133.73,1.47,23.55,2.16,53.84-5.58,79.37-10,33-33.24,56-55.56,78-17.94,17.69-36.49,36.09-48.21,59.51-6.34,12.68-10.79,27.09-15.1,41-4,13.09-8.23,26.63-14,38.79h0c-23.11,48.8-74,76.37-139.62,75.65-58.37-.65-114.74-35.71-172.32-107.2-30.86-38.3-48.19-79.89-65-120.12C97.09,516,91.1,501.61,84.66,487.64c-6-13.11-12.8-26.51-19.33-39.47-13.81-27.39-28.08-55.71-36.56-83-12.58-40.56-12-78.13,1.77-105.81C39.13,242,52.75,228.48,66,215.47c16.29-16.09,33.15-32.73,40.15-56.62,2.28-7.78,3.53-16.41,4.73-24.76,1.34-9.25,2.72-18.81,5.51-27.35,5.73-17.53,17.18-30.58,29.42-43.5,2.65-2.8,5.32-5.57,8-8.26C168.05,40.9,183.6,29,205.6,25.7ZM69.31,218.77c-13.1,12.94-26.64,26.3-35.12,43.41-13.45,27.13-14.06,64-1.73,103.71,8.35,26.93,22.52,55,36.22,82.22,6.56,13,13.34,26.46,19.43,39.65,6.48,14.07,12.49,28.48,18.3,42.42,16.6,39.82,33.76,81,64,118.52,56.22,69.8,111.16,104,167.93,104.66,64.77.72,115-26.49,137.78-74.64,5.7-12,9.86-25.5,13.88-38.53,4.33-14,8.8-28.5,15.21-41.32,11.84-23.67,30.55-42.13,48.53-60,22.27-22.06,45.26-44.77,55.12-77.3,7.63-25.17,6.94-55.16,5.49-78.47-2.28-36.59-8.92-84.57-40.35-131.28-37.32-55.49-97.55-94-155.8-131.19l-7.72-4.94q-7.49-4.79-15-9.64c-29-18.69-59-38-88.86-52.72-27.56-13.56-67.06-28.7-98.74-23.89-25.56,3.88-42.37,19.71-58.72,37-12.09,12.77-23.41,25.66-29,42.83-2.74,8.37-4.1,17.83-5.43,27-1.22,8.43-2.48,17.14-4.8,25.07-6.8,23.22-22.59,39.57-38.31,55.12Z"/><path class="cls-1" d="M209.07,38.05c31.43-4.77,70.42,10.16,97.59,23.53C335.83,75.93,365,94.7,393.11,112.84q7.23,4.66,14.45,9.29l7.44,4.76c56.88,36.34,115.7,73.92,152.6,128.77,31.07,46.19,37.62,93.26,39.85,129.12,1.42,22.73,2.09,52-5.38,76.63-9.64,31.83-32,53.94-53.64,75.35-17.36,17.17-35.23,34.85-46.54,57.46-6.12,12.24-10.42,26.16-14.58,39.61-3.9,12.64-7.94,25.72-13.5,37.45C451.5,718.41,402.36,745,339,744.32c-56.36-.62-110.78-34.48-166.38-103.5-29.79-37-46.53-77.15-62.72-116-5.59-13.41-11.37-27.28-17.59-40.77C86.47,471.41,80,458.47,73.64,446c-13.33-26.44-27.11-53.78-35.3-80.18C26.19,326.62,26.8,290.34,40,263.62c8.31-16.76,21.5-29.82,34.22-42.35,15.72-15.59,32-31.6,38.76-54.66,2.2-7.51,3.41-15.84,4.57-23.91,1.29-8.93,2.63-18.16,5.32-26.4,5.53-16.92,16.59-29.52,28.4-42,2.56-2.7,5.13-5.36,7.74-8C172.81,52.74,187.83,41.28,209.07,38.05ZM77.48,224.46c-12.7,12.48-25.73,25.4-33.91,41.91-13,26.19-13.58,61.75-1.67,100.14,8.06,26,21.74,53.14,35,79.38,6.33,12.56,12.88,25.55,18.75,38.29,6.26,13.58,12.06,27.49,17.67,40.95,16,38.45,32.6,78.22,61.78,114.45C229.37,707,282.41,740,337.23,740.62c62.53.69,111-25.56,133-72.06h0c5.5-11.62,9.52-24.63,13.4-37.2,4.18-13.53,8.5-27.52,14.69-39.89,11.43-22.85,29.44-40.59,46.85-57.89,21.55-21.22,43.7-43.22,53.22-74.63,7.36-24.3,6.7-53.26,5.29-75.77-2.2-35.32-8.61-81.66-39-126.75-36-53.58-94.2-90.74-150.44-126.67L406.87,125q-7.23-4.63-14.47-9.3c-28-18-57-36.71-85.8-50.9C280,51.7,241.86,37.08,211.27,41.72c-24.67,3.75-40.91,19-56.69,35.72-11.68,12.34-22.61,24.79-28,41.36-2.64,8.08-4,17.21-5.24,26-1.18,8.14-2.39,16.55-4.64,24.21-6.57,22.42-21.81,38.2-37,53.22Z"/><path class="cls-1" d="M212.55,50.4c30.3-4.6,67.9,9.8,94.11,22.69C334.78,86.92,362.86,105,390,122.52q7,4.49,13.94,9l7.2,4.6c54.84,35,111.54,71.27,147.12,124.16,30,44.53,36.27,89.93,38.43,124.5,1.37,21.92,2,50.13-5.19,73.9-9.3,30.7-30.83,52.09-51.73,72.66-16.71,16.53-34,33.61-44.88,55.41-5.9,11.8-10,25.22-14.06,38.2-3.76,12.19-7.66,24.8-13,36.11-21.51,45.43-68.89,71.11-130,70.43-54.35-.6-106.83-33.25-160.44-99.8C148.67,596,132.52,557.25,116.92,519.8c-5.39-12.94-11-26.31-17-39.32-5.63-12.2-11.91-24.67-18-36.73-12.86-25.5-26.15-51.88-34.05-77.34-11.71-37.75-11.13-72.74,1.64-98.51,8-16.16,20.7-28.69,33-40.84,15.19-15,30.86-30.46,37.38-52.71,2.12-7.24,3.28-15.28,4.41-23.05,1.25-8.61,2.53-17.51,5.13-25.46,5.34-16.32,16-28.47,27.39-40.5,2.47-2.61,4.95-5.18,7.47-7.68C177.59,64.56,192.07,53.51,212.55,50.4ZM85.66,230.15c-12.19,12-24.8,24.48-32.7,40.41-12.52,25.26-13.09,59.55-1.61,96.56,7.78,25.08,21,51.25,33.73,76.56,6.1,12.1,12.41,24.62,18.08,36.9,6,13.1,11.63,26.52,17,39.5,15.45,37.07,31.43,75.41,59.57,110.35,52.35,65,103.49,96.86,156.35,97.44,60.3.67,107.06-24.66,128.28-69.49,5.3-11.2,9.18-23.74,12.92-35.87,4-13,8.2-26.54,14.17-38.47,11-22,28.37-39.29,45.18-55.82,20.74-20.55,42.14-41.68,51.32-72,7.1-23.43,6.46-51.35,5.1-73.06C591,349.13,584.79,304.45,555.53,261c-34.74-51.66-90.82-87.48-145-122.13l-7.21-4.61q-7-4.47-14-9c-27-17.4-54.93-35.39-82.73-49.07-25.66-12.62-62.43-26.73-91.93-22.25C190.87,57.55,175.23,72.29,160,88.39c-11.26,11.89-21.8,23.89-27,39.88-2.54,7.79-3.82,16.6-5.05,25.12-1.14,7.84-2.31,16-4.47,23.33-6.34,21.63-21,36.85-35.68,51.33Z"/><path class="cls-1" d="M216,62.75c29.18-4.43,65.39,9.44,90.62,21.85,27.08,13.33,54.12,30.75,80.27,47.6q6.71,4.32,13.42,8.63l6.92,4.43C460.07,179,514.68,213.88,548.94,264.81c28.85,42.9,34.93,86.61,37,119.89,1.32,21.11,1.93,48.28-5,71.16-8.77,29-28.89,49.26-48.59,68.76l-1.22,1.21c-16,15.85-32.72,32.36-43.22,53.36-5.69,11.37-9.68,24.29-13.54,36.79-3.62,11.74-7.38,23.87-12.53,34.77h0c-20.72,43.75-66.34,68.48-125.18,67.82-52.33-.58-102.87-32-154.5-96.11-27.66-34.34-43.2-71.63-58.23-107.7-5.19-12.46-10.56-25.34-16.33-37.86-5.42-11.75-11.47-23.76-17.33-35.37-12.38-24.56-25.18-50-32.78-74.46-11.28-36.36-10.72-70,1.58-94.86,7.71-15.56,19.92-27.59,31.78-39.33,14.64-14.36,29.72-29.33,36-50.76,2-7,3.16-14.71,4.24-22.19,1.2-8.29,2.44-16.87,4.94-24.53,5.13-15.71,15.41-27.41,26.37-39,2.38-2.51,4.77-5,7.21-7.4C182.37,76.37,196.31,65.74,216,62.75ZM93.83,235.84c-11.72,11.58-23.88,23.58-31.48,38.92-12.05,24.32-12.6,57.34-1.55,93,7.49,24.15,20.19,49.35,32.48,73.72,5.88,11.66,12,23.71,17.41,35.54,5.81,12.61,11.2,25.54,16.41,38,14.88,35.7,30.26,72.62,57.36,106.26,50.41,62.58,99.66,93.27,150.56,93.84,58.07.64,103.09-23.75,123.53-66.91,5.11-10.78,8.83-22.86,12.44-34.54,3.88-12.57,7.89-25.56,13.64-37.05,10.61-21.22,27.44-37.84,43.51-53.75,20-19.75,40.58-40.14,49.42-69.3,6.84-22.56,6.21-49.45,4.91-70.36-2-32.8-8-75.82-36.17-117.7-33.46-49.75-87.47-84.25-139.69-117.61l-6.93-4.43q-6.72-4.3-13.44-8.64c-26-16.76-52.89-34.08-79.67-47.26-24.7-12.15-60.12-25.73-88.53-21.42-22.91,3.48-38,17.67-52.64,33.17-10.85,11.46-21,23-26,38.4-2.45,7.5-3.68,16-4.87,24.19-1.09,7.55-2.22,15.36-4.3,22.47-6.1,20.83-20.27,35.49-34.36,49.44Z"/><path class="cls-1" d="M219.5,75.1c28.06-4.26,62.87,9.07,87.14,21,26,12.81,52,29.57,77.2,45.78q6.45,4.15,12.89,8.29l6.64,4.24c50.79,32.45,103.31,66,136.26,115,27.74,41.24,33.58,83.27,35.57,115.28,1.27,20.3,1.86,46.43-4.81,68.42-8.61,28.42-28.56,48.13-47.9,67.28C507,535.78,491,551.49,480.93,571.67c-5.47,10.93-9.31,23.35-13,35.37-3.48,11.29-7.09,23-12,33.43C436,682.56,392.07,706.32,335.5,705.7c-50.31-.56-98.91-30.79-148.55-92.41-26.6-33-41.54-68.88-56-103.56-5-12-10.15-24.36-15.71-36.4-5.21-11.3-11-22.86-16.67-34-11.9-23.6-24.21-48-31.51-71.58-10.85-35-10.31-67.35,1.52-91.21,7.41-15,19.18-26.52,30.55-37.81,14.07-13.82,28.57-28.21,34.61-48.8,2-6.7,3-14.15,4.08-21.34,1.15-8,2.35-16.22,4.75-23.58,4.93-15.1,14.81-26.35,25.36-37.5,2.29-2.42,4.59-4.8,6.92-7.11C187.13,88.2,200.54,78,219.5,75.1ZM102,241.53c-11.29,11.12-23,22.67-30.27,37.42-11.59,23.39-12.12,55.14-1.49,89.41,7.2,23.21,19.42,47.44,31.23,70.87,5.65,11.21,11.5,22.81,16.75,34.19C123.81,485.54,129,498,134,510c14.31,34.33,29.1,69.83,55.16,102.18,48.48,60.17,95.83,89.68,144.77,90.22,55.83.62,99.13-22.82,118.78-64.34,4.91-10.37,8.5-22,12-33.21,3.73-12.08,7.59-24.57,13.11-35.62C488,548.81,504,533,519.61,517.53c19.2-19,39-38.59,47.52-66.63,6.57-21.68,6-47.54,4.73-67.65-2-31.54-7.69-72.91-34.78-113.18C504.9,222.23,453,189.05,402.74,157l-6.64-4.24q-6.45-4.13-12.9-8.3c-25-16.11-50.87-32.78-76.62-45.45-23.76-11.68-57.81-24.74-85.12-20.6-22,3.35-36.52,17-50.62,31.89-10.43,11-20.19,22.13-25,36.93-2.36,7.21-3.54,15.37-4.68,23.26-1.05,7.26-2.14,14.78-4.14,21.61-5.87,20-19.47,34.11-33,47.51Z"/><path class="cls-1" d="M223,87.44c26.94-4.09,60.36,8.71,83.65,20.17,25,12.3,50,28.38,74.1,43.94q6.19,4,12.38,8l6.39,4.08C448.25,194.75,498.66,227,530.28,274c26.63,39.59,32.25,79.94,34.16,110.67,1.21,19.49,1.78,44.56-4.62,65.68-8.27,27.29-27.37,46.36-46,64.59-14.8,14.67-30.19,29.87-39.89,49.25-5.25,10.49-8.93,22.42-12.49,34-3.35,10.84-6.81,22-11.57,32.1h0c-19.12,40.4-61.23,63.21-115.55,62.61-48.3-.53-95-29.55-142.61-88.71C166.19,572.41,151.84,538,138,504.69c-4.79-11.5-9.75-23.39-15.08-34.95-5-10.85-10.59-21.94-16-32.67C95.46,414.41,83.65,391,76.63,368.35c-10.41-33.56-9.89-64.66,1.46-87.56,7.12-14.37,18.38-25.51,29.34-36.3,13.48-13.3,27.43-27.08,33.23-46.85,1.89-6.43,2.92-13.58,3.92-20.48,1.11-7.66,2.25-15.57,4.56-22.64,4.74-14.51,14.22-25.31,24.34-36,2.2-2.32,4.4-4.6,6.64-6.82C191.9,100,204.77,90.21,223,87.44ZM110.18,247.22c-10.83,10.71-22,21.77-29.06,35.92C70,305.6,69.48,336.08,79.69,369c6.91,22.28,18.64,45.55,30,68,5.43,10.77,11,21.9,16.08,32.82,5.37,11.64,10.34,23.57,15.15,35.11,13.73,33,27.94,67,53,98.09,46.53,57.76,92,86.09,139,86.61,53.6.59,95.16-21.91,114-61.77h0c4.72-10,8.16-21.11,11.49-31.89,3.58-11.6,7.29-23.59,12.59-34.19,9.8-19.6,25.33-34.95,40.16-49.62,18.45-18.25,37.46-37.05,45.62-64,6.31-20.82,5.74-45.65,4.54-64.94-1.89-30.28-7.38-70-33.39-108.65C497,228.7,447.12,196.85,398.91,166.05L392.52,162q-6.2-4-12.4-8c-24-15.47-48.83-31.47-73.55-43.62-22.81-11.22-55.49-23.76-81.72-19.78-21.14,3.21-35.07,16.31-48.59,30.62-10,10.57-19.38,21.23-24,35.45-2.26,6.92-3.4,14.76-4.49,22.34-1,7-2,14.18-4,20.74-5.63,19.22-18.7,32.75-31.71,45.62Z"/><path class="cls-1" d="M226.45,99.8c25.81-3.93,57.84,8.34,80.17,19.33,24,11.78,47.88,27.2,71,42.11l11.86,7.63,6.11,3.91c46.72,29.85,95,60.72,125.35,105.77,25.52,37.94,30.9,76.61,32.73,106.06,1.16,18.67,1.71,42.71-4.42,62.95-7.92,26.14-26.32,44.24-44.07,61.89-14.16,14-28.94,28.63-38.23,47.2-5,10.06-8.56,21.49-12,32.54-3.2,10.38-6.52,21.12-11.08,30.76h0c-18.33,38.7-58.68,60.57-110.74,60-46.29-.51-91-28.32-136.67-85C172,564.55,158.28,531.56,145,499.66c-4.59-11-9.34-22.42-14.45-33.5-4.79-10.39-10.15-21-15.33-31.29-11-21.72-22.28-44.19-29-65.87-10-32.16-9.48-62,1.4-83.92,6.82-13.77,17.66-24.42,28.11-34.78,12.9-12.77,26.29-25.95,31.84-44.9a144.77,144.77,0,0,0,3.75-19.63c1.06-7.33,2.16-14.92,4.37-21.69,4.54-13.9,13.63-24.25,23.33-34.5,2.1-2.22,4.21-4.41,6.36-6.53C196.66,111.85,209,102.44,226.45,99.8ZM118.35,252.91C108,263.18,97.22,273.77,90.5,287.34c-10.66,21.52-11.15,50.73-1.37,82.25C95.76,391,107,413.25,117.87,434.81c5.2,10.31,10.58,21,15.4,31.44,5.15,11.16,9.91,22.59,14.52,33.65,13.16,31.58,26.77,64.24,50.74,94,44.59,55.35,88.16,82.5,133.19,83,51.37.57,91.19-21,109.28-59.19,4.52-9.54,7.81-20.22,11-30.55,3.43-11.11,7-22.61,12.07-32.77,9.15-18.3,23.44-32.66,37.4-46.48l2.15-2.13c17.31-17.13,35-35,42.65-60.25,6-20,5.5-43.74,4.35-62.24-1.81-29-7.07-67.07-32-104.12-29.61-44-77.38-74.53-123.58-104l-6.12-3.91q-5.94-3.8-11.88-7.64c-23-14.83-46.8-30.16-70.49-41.81C284.71,111,253.38,99,228.25,102.81c-20.27,3.08-33.59,15.63-46.57,29.34-9.59,10.13-18.57,20.36-23,34-2.17,6.64-3.25,14.15-4.3,21.41a146,146,0,0,1-3.81,19.87c-5.4,18.41-17.91,31.37-30.37,43.7Z"/><path class="cls-1" d="M229.92,112.14c24.69-3.75,55.33,8,76.68,18.49,22.91,11.27,45.78,26,67.9,40.26q5.69,3.66,11.37,7.31l5.85,3.74c44.69,28.55,90.9,58.07,119.89,101.17,24.41,36.29,29.55,73.28,31.31,101.45,1.11,17.86,1.64,40.85-4.23,60.21-7.58,25-25.1,42.42-42.15,59.2-13.66,13.49-27.68,27.38-36.57,45.15-4.81,9.62-8.19,20.55-11.45,31.13-3.07,9.93-6.24,20.2-10.6,29.42-17.53,37-56.14,57.94-105.92,57.39-44.28-.49-87-27.09-130.73-81.32-23.41-29.05-36.56-60.61-49.27-91.13-4.39-10.54-8.94-21.44-13.83-32-4.59-9.94-9.71-20.11-14.67-29.95-10.47-20.77-21.3-42.26-27.73-63-9.55-30.76-9.07-59.27,1.33-80.27C103.64,276.2,114,266,124,256.1c12.38-12.22,25.15-24.83,30.46-42.95a139,139,0,0,0,3.59-18.78c1-7,2.06-14.27,4.18-20.75,4.34-13.29,13-23.19,22.31-33,2-2.13,4-4.22,6.09-6.26C201.44,123.67,213.24,114.68,229.92,112.14ZM126.53,258.61c-10,9.79-20.21,20-26.64,32.93-10.2,20.58-10.66,48.52-1.31,78.68,6.34,20.43,17.09,41.75,27.48,62.37,5,9.87,10.12,20.07,14.74,30.09,4.92,10.67,9.48,21.61,13.89,32.19,12.59,30.21,25.61,61.45,48.54,89.91,42.65,52.95,84.33,78.92,127.4,79.4,49.13.55,87.23-20.09,104.53-56.62h0c4.32-9.12,7.48-19.34,10.53-29.23,3.28-10.63,6.68-21.62,11.54-31.35,9-18,23.11-31.93,36.81-45.49,16.78-16.64,34.34-34,41.82-58.64,5.78-19.09,5.26-41.84,4.16-59.53-1.73-27.76-6.77-64.16-30.6-99.6-28.32-42.1-74-71.29-118.2-99.52l-5.86-3.74L374,173.13c-22-14.17-44.74-28.83-67.4-40-20.9-10.28-50.87-21.78-74.91-18.12C212.26,118,199.52,130,187.1,143.1c-9.17,9.69-17.76,19.47-22,32.49C163,181.94,162,189.12,161,196.06a139.35,139.35,0,0,1-3.64,19c-5.16,17.61-17.13,30-29.05,41.81Z"/><path class="cls-1" d="M233.4,124.49c23.57-3.58,52.81,7.62,73.19,17.65,21.87,10.76,43.7,24.83,64.82,38.44q5.43,3.5,10.86,7l5.58,3.57c42.66,27.25,86.77,55.44,114.45,96.58,23.31,34.64,28.21,69.95,29.89,96.83,1.06,17.05,1.56,39-4,57.48-7.23,23.87-24,40.46-40.23,56.51-13,12.83-26.43,26.14-34.91,43.1-4.59,9.18-7.82,19.62-10.93,29.71-2.93,9.48-6,19.28-10.12,28.08-16.73,35.34-53.58,55.31-101.11,54.78-42.27-.47-83.09-25.86-124.79-77.62-22.34-27.74-34.89-57.86-47-87-4.19-10.06-8.53-20.46-13.19-30.58-4.38-9.5-9.27-19.2-14-28.59-10-19.83-20.33-40.33-26.47-60.12-9.11-29.37-8.66-56.58,1.28-76.62,6.23-12.57,16.09-22.37,25.67-31.76,11.77-11.7,24-23.69,29.07-41A132.24,132.24,0,0,0,164.79,203c1-6.7,2-13.62,4-19.81,4.15-12.7,12.45-22.15,21.3-31.5,1.93-2,3.86-4,5.82-6C206.22,135.49,217.47,126.91,233.4,124.49Zm-98.7,139.8c-9.49,9.41-19.29,19-25.43,31.43C99.54,315.37,99.1,342,108,370.83c6,19.5,16.31,39.85,26.23,59.53,4.75,9.42,9.66,19.17,14.07,28.73,4.7,10.18,9,20.62,13.25,30.72,12,28.84,24.45,58.66,46.34,85.83,40.71,50.54,80.49,75.33,121.6,75.79,46.91.52,83.27-19.19,99.78-54h0c4.13-8.71,7.14-18.47,10.05-27.9,3.13-10.15,6.37-20.64,11-29.92,8.58-17.14,22.07-30.53,35.14-43.42,16.1-15.86,32.77-32.42,39.91-56,5.52-18.22,5-39.94,4-56.83-1.65-26.49-6.46-61.24-29.21-95.07-27-40.18-70.65-68.05-112.84-95l-5.58-3.57q-5.43-3.48-10.87-7c-21-13.53-42.71-27.52-64.34-38.16-20-9.82-48.55-20.79-71.5-17.3-18.51,2.81-30.68,14.28-42.52,26.79-8.76,9.25-17,18.58-21,31-2,6.06-3,12.91-3.93,19.54a133.6,133.6,0,0,1-3.47,18.15c-4.93,16.81-16.36,28.65-27.74,39.91Z"/><path class="cls-1" d="M236.88,136.84c22.45-3.41,50.3,7.26,69.71,16.81,20.83,10.24,41.62,23.64,61.74,36.6l10.34,6.64,5.33,3.41c40.62,26,82.62,52.79,109,92,22.19,33,26.87,66.62,28.46,92.22,1,16.24,1.49,37.13-3.85,54.74-6.89,22.74-22.83,38.57-38.32,53.82C466.89,505.34,454.1,518,446,534.1c-4.38,8.74-7.44,18.68-10.41,28.3-2.79,9-5.67,18.37-9.64,26.75h0c-15.93,33.65-51,52.67-96.29,52.17-40.26-.45-79.13-24.63-118.84-73.93C189.55,541,177.6,512.29,166,484.54c-4-9.58-8.12-19.49-12.57-29.13-4.17-9-8.83-18.27-13.33-27.21-9.53-18.89-19.37-38.43-25.22-57.28-8.67-28-8.24-53.88,1.22-73,5.93-12,15.27-21.22,24.45-30.25,11.29-11.14,22.86-22.57,27.69-39a125.9,125.9,0,0,0,3.26-17.07c.92-6.38,1.88-13,3.8-18.87,4-12.09,11.85-21.09,20.29-30,1.83-1.93,3.67-3.84,5.54-5.69C211,147.32,221.7,139.14,236.88,136.84ZM142.88,270c-9.05,8.95-18.38,18.14-24.22,29.94-9.27,18.71-9.69,44.11-1.19,71.52,5.76,18.57,15.54,38,25,56.71,4.52,9,9.19,18.24,13.39,27.34,4.47,9.7,8.62,19.64,12.62,29.26,11.45,27.46,23.28,55.86,44.13,81.74,38.77,48.13,76.66,71.74,115.81,72.18,44.66.5,79.3-18.26,95-51.47,3.93-8.3,6.8-17.59,9.57-26.57,3-9.66,6.07-19.66,10.49-28.5,8-15.91,20.38-28.4,32.53-40.42l1.88-1.86C493,475,508.32,459.45,515,437.48c5.26-17.36,4.78-38,3.78-54.12-1.57-25.24-6.15-58.33-27.82-90.54C465.2,254.55,423.67,228,383.5,202.35l-5.34-3.41c-3.45-2.2-6.9-4.43-10.35-6.65-20-12.89-40.68-26.21-61.27-36.35-19-9.35-46.25-19.79-68.09-16.48-17.63,2.68-29.22,13.59-40.5,25.52-8.34,8.81-16.15,17.7-20,29.54-1.89,5.77-2.83,12.3-3.74,18.62a127.09,127.09,0,0,1-3.31,17.28c-4.69,16-15.58,27.28-26.41,38Z"/><path class="cls-1" d="M240.35,149.19c21.33-3.24,47.78,6.89,66.22,16,19.79,9.73,39.55,22.47,58.66,34.78l9.8,6.31,5,3.22c38.6,24.66,78.51,50.16,103.55,87.38,21.08,31.34,25.53,63.28,27,87.62,1,15.43,1.41,35.27-3.65,52-6.54,21.6-21.65,36.55-36.4,51.13-11.69,11.56-23.91,23.65-31.58,39-4.15,8.31-7.07,17.75-9.89,26.88-2.65,8.58-5.39,17.45-9.16,25.41-15.15,32-48.48,50-91.48,49.56-38.24-.42-75.18-23.4-112.9-70.23-20.22-25.09-31.57-52.34-42.56-78.7-3.79-9.1-7.72-18.52-11.94-27.67-4-8.59-8.38-17.37-12.67-25.85-9-17.94-18.4-36.5-24-54.41-8.24-26.57-7.83-51.19,1.15-69.32,5.64-11.38,14.58-20.19,23.22-28.74,10.67-10.54,21.71-21.44,26.3-37.09a119.75,119.75,0,0,0,3.1-16.22c.88-6.06,1.78-12.33,3.61-17.93,3.75-11.48,11.25-20,19.27-28.5,1.74-1.84,3.48-3.65,5.26-5.41C215.75,159.15,225.94,151.37,240.35,149.19ZM151.06,275.68c-8.59,8.49-17.46,17.24-23,28.44-8.81,17.77-9.21,41.9-1.13,67.95,5.47,17.65,14.76,36.06,23.73,53.87,4.3,8.52,8.74,17.33,12.72,26,4.25,9.21,8.19,18.66,12,27.79,10.87,26.09,22.12,53.07,41.92,77.65,36.83,45.73,72.83,68.16,110,68.57,42.43.47,75.34-17.35,90.27-48.9,3.73-7.88,6.46-16.71,9.1-25.25,2.84-9.18,5.77-18.67,10-27.07,7.57-15.13,19.38-27,30.92-38.43l1.73-1.71c14.31-14.16,28.92-28.9,35.25-49.79,5-16.49,4.54-36.14,3.59-51.42-1.49-24-5.85-55.41-26.43-86-24.46-36.36-63.92-61.57-102.09-86l-5-3.23q-4.91-3.14-9.82-6.31c-19-12.25-38.65-24.91-58.22-34.54-18.05-8.88-43.93-18.81-64.69-15.65-16.74,2.54-27.74,12.93-38.47,24.24-7.92,8.38-15.34,16.82-19,28.06-1.79,5.48-2.69,11.69-3.56,17.68a120.78,120.78,0,0,1-3.15,16.42c-4.46,15.21-14.8,25.92-25.1,36.11Z"/><path class="cls-1" d="M243.83,161.54c20.2-3.07,45.27,6.53,62.74,15.12,18.75,9.22,37.48,21.29,55.58,33l9.29,6,4.77,3c36.57,23.36,74.39,47.52,98.11,82.79,20,29.69,24.18,60,25.62,83,.91,14.62,1.34,33.42-3.46,49.26-6.2,20.46-20.64,34.69-34.49,48.44-11.17,11.08-22.65,22.4-29.92,36.94-3.94,7.87-6.7,16.82-9.37,25.47-2.51,8.13-5.1,16.53-8.68,24.07-14.33,30.3-45.92,47.41-86.66,47-36.23-.4-71.22-22.16-107-66.54-19.15-23.77-29.91-49.59-40.31-74.56-3.6-8.62-7.31-17.54-11.31-26.21-3.75-8.13-7.95-16.45-12-24.5-8.57-17-17.43-34.58-22.69-51.55-7.81-25.17-7.42-48.49,1.09-65.67,5.34-10.77,13.77-19.17,22-27.22,10.13-10,20.57-20.31,24.92-35.14A113.12,113.12,0,0,0,185,228.81c.83-5.74,1.69-11.67,3.42-17,3.56-10.88,10.67-19,18.26-27,1.64-1.74,3.29-3.45,5-5.11C220.52,171,230.17,163.61,243.83,161.54Zm-84.6,119.83c-8.14,8-16.53,16.32-21.79,26.94-8.35,16.84-8.73,39.7-1.07,64.37,5.18,16.71,14,34.16,22.49,51,4.07,8.07,8.28,16.42,12.06,24.62,4,8.73,7.76,17.68,11.36,26.33,10.3,24.72,21,50.27,39.71,73.56,34.9,43.32,69,64.57,104.23,65,40.2.45,71.37-16.44,85.52-46.32h0c3.53-7.47,6.12-15.83,8.61-23.91,2.69-8.7,5.46-17.69,9.44-25.65,7.17-14.33,18.36-25.58,29.29-36.4l1.64-1.63c13.55-13.41,27.4-27.38,33.39-47.16,4.73-15.62,4.3-34.23,3.41-48.71-1.42-22.71-5.54-52.5-25-81.49-23.17-34.45-60.57-58.34-96.73-81.44l-4.77-3-9.3-6c-18-11.6-36.62-23.6-55.16-32.72-17.11-8.41-41.63-17.82-61.29-14.83-15.86,2.41-26.29,12.25-36.45,23-7.5,7.93-14.53,15.93-18,26.59-1.7,5.19-2.54,11.07-3.37,16.75a114.09,114.09,0,0,1-3,15.56c-4.22,14.42-14,24.56-23.78,34.22Z"/><path class="cls-1" d="M247.3,173.88c19.08-2.9,42.75,6.17,59.25,14.29,17.71,8.71,35.39,20.11,52.49,31.13l8.77,5.64,4.52,2.89C406.87,249.89,442.58,272.7,465,306c18.86,28,22.84,56.62,24.19,78.39.86,13.8,1.27,31.57-3.27,46.53-5.74,18.93-18.88,32.21-31.76,45l-.81.8c-10.55,10.49-21.39,21.16-28.26,34.89-3.72,7.43-6.33,15.88-8.85,24.05-2.37,7.67-4.83,15.61-8.2,22.74h0c-13.55,28.61-43.38,44.77-81.85,44.35-34.22-.38-67.26-20.94-101-62.84-18.09-22.45-28.25-46.84-38.08-70.42-3.39-8.14-6.9-16.56-10.68-24.75-3.54-7.68-7.5-15.54-11.33-23.13-8.09-16.05-16.46-32.66-21.44-48.69-7.37-23.77-7-45.8,1-62,5-10.18,13-18.07,20.78-25.71,9.54-9.47,19.43-19.19,23.53-33.19a107,107,0,0,0,2.78-14.51,97.52,97.52,0,0,1,3.23-16c3.36-10.27,10.07-17.92,17.25-25.5,1.55-1.64,3.12-3.26,4.71-4.84C225.29,182.8,234.41,175.84,247.3,173.88ZM167.41,287.06c-7.69,7.56-15.62,15.42-20.59,25.44-7.88,15.91-8.24,37.5-1,60.8,4.9,15.79,13.21,32.27,21.24,48.2,3.84,7.62,7.82,15.5,11.38,23.24,3.8,8.24,7.32,16.69,10.73,24.86,9.73,23.35,19.79,47.49,37.51,69.48,33,40.92,65.16,61,98.44,61.35,38,.42,67.41-15.52,80.77-43.75,3.34-7.05,5.78-15,8.13-22.59,2.54-8.21,5.16-16.71,8.92-24.22,6.94-13.88,17.92-24.74,28.45-35.14,13-13,26.53-26.25,32.31-45.31,4.47-14.75,4.06-32.33,3.21-46-1.33-21.44-5.23-49.57-23.65-77-21.88-32.53-57.19-55.09-91.34-76.9l-4.52-2.89L358.62,221c-17-11-34.59-22.29-52.1-30.91-16.15-7.94-39.31-16.83-57.88-14-15,2.28-24.82,11.55-34.42,21.69-7.09,7.49-13.73,15-17,25.11A96.39,96.39,0,0,0,194,238.73a107.37,107.37,0,0,1-2.81,14.69c-4,13.61-13.24,23.2-22.46,32.32Z"/><path class="cls-1" d="M250.78,186.23c18-2.73,40.24,5.81,55.77,13.45,16.66,8.2,33.31,18.92,49.4,29.3l8.25,5.31,4.25,2.72c32.5,20.76,66.11,42.24,87.2,73.58,17.75,26.39,21.49,53.29,22.77,73.78.81,13,1.19,29.71-3.08,43.79-5.4,17.81-17.76,30.3-29.88,42.29l-.77.76c-9.95,9.75-20.13,19.91-26.6,32.84-3.5,7-6,14.95-8.33,22.64-2.23,7.22-4.54,14.69-7.71,21.4h0c-12.75,26.92-40.82,42.14-77,41.74-32.2-.36-63.3-19.7-95.07-59.14-17-21.13-26.59-44.08-35.84-66.28-3.2-7.66-6.5-15.59-10.05-23.3-3.34-7.23-7.06-14.63-10.67-21.78-7.62-15.11-15.49-30.73-20.17-45.82-6.94-22.37-6.6-43.1,1-58.38,4.74-9.58,12.28-17,19.55-24.2,9-8.82,18.28-18.05,22.15-31.24A100.76,100.76,0,0,0,198.51,246a91.37,91.37,0,0,1,3-15.09c3.16-9.66,9.48-16.87,16.23-24,1.46-1.55,2.93-3.07,4.43-4.55C230.06,194.62,238.64,188.08,250.78,186.23Zm-75.2,106.52c-7.2,7.11-14.7,14.51-19.38,23.95-7.42,15-7.76,35.29-1,57.22,4.61,14.86,12.42,30.36,20,45.36,3.62,7.18,7.36,14.6,10.72,21.88,3.58,7.76,6.89,15.71,10.1,23.41,9.16,22,18.63,44.69,35.31,65.39,31,38.51,61.33,57.4,92.65,57.75,35.73.4,63.44-14.61,76-41.18,3.14-6.64,5.43-14.07,7.66-21.25,2.39-7.73,4.86-15.73,8.39-22.8,6.36-12.72,16.29-22.71,26-32.31l1.55-1.53c12-11.91,24.31-24.31,29.64-41.88,4.21-13.88,3.83-30.43,3-43.3C475,363.26,471.36,336.78,454,311c-20.6-30.62-53.83-51.85-86-72.38l-4.26-2.72q-4.13-2.64-8.26-5.31c-16-10.31-32.55-21-49-29.09-15.2-7.48-37-15.84-54.48-13.18-14.1,2.14-23.38,10.88-32.4,20.41-6.67,7.05-12.92,14.17-16,23.63a91.07,91.07,0,0,0-3,14.88A102.13,102.13,0,0,1,198,261.09c-3.76,12.82-12.47,21.84-21.15,30.43Z"/><path class="cls-1" d="M254.25,198.58C271.09,196,292,204,306.53,211.19c15.62,7.68,31.21,17.73,46.3,27.45l7.76,5,4,2.56c30.47,19.46,62,39.59,81.73,69,16.64,24.75,20.15,50,21.35,69.17.76,12.18,1.12,27.85-2.89,41.05-5.17,17.05-17.15,28.88-28.74,40.37-9.25,9.19-18.87,18.67-24.93,30.78-3.28,6.56-5.58,14-7.81,21.22-2.09,6.77-4.25,13.78-7.23,20.07-12,25.23-38.27,39.51-72.22,39.13-30.19-.33-59.35-18.47-89.13-55.45-16-19.81-24.92-41.32-33.6-62.13-3-7.19-6.09-14.62-9.43-21.85-3.13-6.78-6.62-13.71-10-20.41-7.14-14.17-14.53-28.82-18.91-43-6.51-21-6.18-40.41.91-54.73,4.45-9,11.51-16,18.34-22.69,8.42-8.34,17.15-16.93,20.76-29.28a94.64,94.64,0,0,0,2.45-12.81,85.55,85.55,0,0,1,2.85-14.14c3-9.07,8.89-15.82,15.21-22.5,1.37-1.45,2.74-2.87,4.15-4.26C234.83,206.45,242.87,200.31,254.25,198.58Zm-70.5,99.86c-6.82,6.69-13.78,13.6-18.17,22.45-7,14-7.27,33.08-.89,53.64,4.32,13.93,11.65,28.47,18.74,42.52,3.39,6.73,6.9,13.69,10,20.51,3.35,7.27,6.46,14.73,9.47,21.95,8.58,20.6,17.46,41.9,33.09,61.3,29.08,36.1,57.5,53.81,86.86,54.13,33.5.37,59.47-13.7,71.26-38.61h0c2.95-6.22,5.1-13.19,7.18-19.94,2.24-7.24,4.55-14.74,7.86-21.36,6.12-12.24,15.8-21.72,25.1-31,11.5-11.37,23.41-23.16,28.51-40,3.94-13,3.59-28.53,2.83-40.59-1.18-18.92-4.61-43.74-20.86-67.9-19.3-28.7-50.45-48.6-80.58-67.85l-4-2.56-7.77-5c-15-9.67-30.5-19.66-45.95-27.26-14.25-7-34.68-14.85-51.07-12.36-13.21,2-21.9,10.19-30.37,19.14-6.25,6.61-12.11,13.28-15,22.15a85.06,85.06,0,0,0-2.81,14,95.42,95.42,0,0,1-2.48,13c-3.52,12-11.68,20.46-19.81,28.5Z"/><path class="cls-1" d="M257.73,210.93c15.71-2.39,35.21,5.08,48.8,11.76,14.57,7.17,29.12,16.54,43.2,25.61L357,253l3.73,2.39c28.44,18.17,57.84,37,76.29,64.38,15.53,23.09,18.81,46.63,19.92,64.56.71,11.37,1,26-2.69,38.32-4.73,15.61-15.57,26.54-26.19,37.05l-1.26,1.25c-8.46,8.37-17.12,17.07-22.64,28.11-3.06,6.12-5.21,13.08-7.29,19.81a141.91,141.91,0,0,1-6.75,18.72c-11.15,23.55-35.72,36.87-67.4,36.52-28.18-.31-55.39-17.24-83.19-51.75-14.9-18.49-23.27-38.57-31.36-58-2.79-6.71-5.68-13.64-8.79-20.39-2.92-6.32-6.18-12.79-9.33-19-6.66-13.22-13.56-26.9-17.65-40.1-6.07-19.58-5.77-37.72.85-51.08,4.16-8.38,10.7-14.87,17.11-21.17,7.86-7.75,16-15.79,19.38-27.33a88.08,88.08,0,0,0,2.29-12,80.26,80.26,0,0,1,2.66-13.2c2.77-8.46,8.3-14.76,14.21-21,1.28-1.35,2.57-2.69,3.88-4C239.6,218.27,247.11,212.54,257.73,210.93Zm-65.8,93.2c-6.36,6.29-12.86,12.7-17,21-6.49,13.1-6.78,30.88-.84,50.07,4,13,10.87,26.57,17.49,39.7,3.17,6.28,6.44,12.77,9.37,19.14,3.13,6.79,6,13.75,8.84,20.48,8,19.22,16.29,39.1,30.89,57.22,27.14,33.69,53.66,50.22,81.07,50.52,31.27.35,55.51-12.79,66.52-36h0a140.93,140.93,0,0,0,6.7-18.6c2.09-6.77,4.25-13.76,7.35-19.95,5.58-11.15,14.29-19.9,22.8-28.32l1.26-1.25c10.54-10.43,21.31-21.3,26-36.69,3.68-12.15,3.35-26.63,2.65-37.88-1.1-17.66-4.31-40.83-19.48-63.38-18-26.79-47.09-45.36-75.21-63.33l-3.73-2.38-7.26-4.67c-14-9-28.47-18.34-42.88-25.43-13.3-6.54-32.37-13.86-47.67-11.53-12.34,1.87-20.44,9.54-28.35,17.86-5.84,6.17-11.31,12.39-14,20.68a79.55,79.55,0,0,0-2.62,13,88.84,88.84,0,0,1-2.32,12.1c-3.29,11.21-10.91,19.1-18.5,26.61Z"/><path class="cls-1" d="M261.2,223.28c14.59-2.22,32.69,4.72,45.31,10.92,13.54,6.66,27.07,15.38,40.15,23.81l6.69,4.3,3.44,2.2c26.42,16.88,53.73,34.32,70.87,59.8,14.42,21.43,17.46,43.3,18.5,59.94.66,10.56,1,24.14-2.5,35.58-4.38,14.47-14.43,24.62-24.27,34.36l-.63.63c-8.06,8-16.36,16.18-21.61,26.68-2.84,5.68-4.84,12.14-6.77,18.39a132,132,0,0,1-6.26,17.39h0c-10.36,21.89-33.17,34.24-62.59,33.91-26.17-.29-51.43-16-77.25-48.06-13.83-17.17-21.6-35.81-29.11-53.85-2.6-6.23-5.28-12.67-8.17-18.93-2.71-5.87-5.74-11.89-8.67-17.69-6.19-12.28-12.59-25-16.39-37.22-5.64-18.18-5.36-35,.79-47.43,3.86-7.78,10-13.82,15.89-19.66,7.27-7.18,14.86-14.67,18-25.38a81.72,81.72,0,0,0,2.12-11.1,74.47,74.47,0,0,1,2.47-12.26c2.57-7.86,7.7-13.71,13.19-19.5,1.19-1.25,2.38-2.49,3.6-3.69C244.37,230.09,251.34,224.78,261.2,223.28Zm-61.1,86.54c-5.84,5.75-11.94,11.79-15.74,19.45-6,12.16-6.3,28.67-.78,46.49,3.74,12.07,10.09,24.67,16.24,36.85,2.94,5.83,6,11.86,8.71,17.78,2.91,6.31,5.6,12.77,8.21,19,7.44,17.85,15.13,36.31,28.68,53.13,25.2,31.29,49.83,46.64,75.28,46.92,29,.32,51.55-11.87,61.77-33.46h0a131.24,131.24,0,0,0,6.22-17.27c1.94-6.28,3.95-12.78,6.82-18.52,5.17-10.33,13.23-18.44,21.11-26.24l.64-.64c10-9.89,20.29-20.07,24.71-34.65,3.42-11.27,3.11-24.72,2.46-35.18-1-16.4-4-37.92-18.08-58.85-16.74-24.88-43.75-42.13-69.87-58.82l-3.44-2.2-6.7-4.31c-13-8.38-26.46-17.05-39.86-23.64-12.35-6.08-30.06-12.87-44.26-10.71-11.46,1.74-19,8.85-26.32,16.58-5.42,5.72-10.5,11.51-13,19.2a73.53,73.53,0,0,0-2.43,12.09,81.89,81.89,0,0,1-2.16,11.24c-3,10.41-10.12,17.73-17.16,24.7Z"/><path class="cls-1" d="M264.68,235.62c13.47-2,30.18,4.36,41.83,10.09,12.5,6.15,25,14.19,37,22l6.2,4,3.19,2c24.37,15.57,49.58,31.68,65.39,55.18,13.31,19.79,16.12,40,17.08,55.34.6,9.75.89,22.29-2.31,32.84-4.06,13.39-13.37,22.77-22.48,31.78l-1,1c-7.26,7.19-14.7,14.66-19.44,24.13-2.63,5.25-4.47,11.21-6.25,17a122,122,0,0,1-5.78,16h0c-9.57,20.19-30.62,31.61-57.78,31.3-24.15-.27-47.48-14.78-71.3-44.36-12.77-15.85-19.94-33.06-26.88-49.71-2.4-5.75-4.87-11.69-7.54-17.47-2.5-5.42-5.29-11-8-16.32-5.71-11.34-11.62-23.06-15.13-34.37-5.2-16.78-4.95-32.33.73-43.78,3.56-7.18,9.28-12.79,14.67-18.15,6.77-6.69,13.72-13.54,16.61-23.43a75.19,75.19,0,0,0,2-10.25,68.17,68.17,0,0,1,2.28-11.31c2.37-7.25,7.11-12.65,12.17-18,1.1-1.16,2.2-2.31,3.33-3.42C249.14,241.91,255.58,237,264.68,235.62Zm-56.4,79.89c-5.48,5.36-11,10.89-14.53,18-5.56,11.22-5.82,26.46-.71,42.91,3.46,11.15,9.32,22.78,15,34,2.71,5.38,5.51,10.94,8,16.4,2.68,5.82,5.17,11.78,7.57,17.55,6.87,16.48,14,33.52,26.48,49,23.27,28.89,46,43.05,69.49,43.31,26.8.3,47.58-11,57-30.88a120.71,120.71,0,0,0,5.74-15.94c1.79-5.8,3.64-11.8,6.3-17.1,4.79-9.57,12.26-17.08,19.57-24.31l.51-.51c9.23-9,18.73-18.52,22.81-32,3.15-10.4,2.87-22.82,2.27-32.47-.94-15.14-3.69-35-16.69-54.32-15.45-23-40.37-38.89-64.47-54.28l-3.2-2-6.21-4c-12-7.73-24.41-15.73-36.76-21.81-11.4-5.61-27.75-11.87-40.86-9.89-10.58,1.61-17.52,8.15-24.3,15.31-5,5.29-9.69,10.62-12,17.73a67.85,67.85,0,0,0-2.24,11.16,76.13,76.13,0,0,1-2,10.37c-2.81,9.6-9.34,16.36-15.84,22.8Z"/><path class="cls-1" d="M268.15,248c12.34-1.88,27.66,4,38.34,9.24,11.46,5.63,22.9,13,34,20.14l5.69,3.65,2.92,1.86c22.35,14.28,45.46,29,60,50.59,12.2,18.14,14.78,36.64,15.65,50.72.56,8.93.82,20.43-2.11,30.1-3.79,12.51-12.54,21.18-21.07,29.6-6.85,6.77-13.84,13.69-18.28,22.57A103.16,103.16,0,0,0,377.46,482a111.68,111.68,0,0,1-5.31,14.72c-8.75,18.52-28.06,29-53,28.69-22.14-.24-43.52-13.54-65.36-40.66-11.71-14.53-18.28-30.31-24.64-45.57-2.2-5.27-4.47-10.72-6.91-16-2.29-5-4.86-10.07-7.34-15-5.23-10.39-10.64-21.12-13.86-31.49-4.77-15.38-4.53-29.63.67-40.13,3.27-6.59,8.47-11.7,13.45-16.64,6.13-6.1,12.57-12.41,15.23-21.48a69,69,0,0,0,1.79-9.39,63.19,63.19,0,0,1,2.09-10.37c2.17-6.65,6.52-11.6,11.16-16.5,1-1.07,2-2.11,3-3.13C253.91,253.74,259.81,249.24,268.15,248Zm-51.7,73.23c-5,4.93-10.11,10-13.32,16.46C198,348,197.8,361.93,202.48,377c3.17,10.21,8.54,20.87,13.74,31.17,2.49,4.94,5.06,10,7.37,15.05,2.46,5.34,4.74,10.8,6.94,16.09,6.3,15.1,12.81,30.73,24.27,45,21.33,26.47,42.17,39.46,63.7,39.7,24.57.28,43.61-10,52.26-28.31h0A111.34,111.34,0,0,0,376,481.05a103.38,103.38,0,0,1,5.77-15.66c4.38-8.76,11.22-15.63,17.91-22.25l1-1c8.28-8.2,16.75-16.73,20.41-28.83,2.89-9.54,2.63-20.92,2.08-29.76-.86-13.88-3.39-32.08-15.3-49.8-14.16-21.05-37-35.65-59.11-49.77l-2.92-1.87-5.69-3.66c-11-7.09-22.37-14.42-33.7-20C296,253.34,281,247.59,269,249.42c-9.7,1.48-16.06,7.48-22.27,14-4.59,4.85-8.89,9.74-11,16.25a62.06,62.06,0,0,0-2.06,10.23,70,70,0,0,1-1.82,9.51c-2.58,8.8-8.57,15-14.53,20.9Z"/><path class="cls-1" d="M271.63,260.32c11.22-1.7,25.15,3.63,34.85,8.41,10.41,5.12,20.81,11.82,30.86,18.3l5.17,3.32,2.68,1.71c20.31,13,41.3,26.39,54.48,46,11.1,16.49,13.43,33.31,14.24,46.11.5,8.12.74,18.57-1.93,27.37-3.37,11.14-11.11,19-18.69,26.45l-.93.92c-6,6-12.22,12.19-16.16,20.06A93.84,93.84,0,0,0,371,473.1a101.89,101.89,0,0,1-4.82,13.37c-8,16.83-25.52,26.33-48.15,26.08-20.13-.22-39.56-12.31-59.42-37C248,462.39,242,448,236.21,434.18c-2-4.79-4.06-9.75-6.28-14.57-2.08-4.52-4.41-9.14-6.66-13.6-4.76-9.44-9.68-19.21-12.61-28.64-4.34-14-4.12-26.94.61-36.49,3-6,7.66-10.69,12.22-15.12,5.62-5.58,11.43-11.28,13.84-19.52A63.08,63.08,0,0,0,239,297.7a57.37,57.37,0,0,1,1.9-9.43c2-6,5.93-10.55,10.14-15,.91-1,1.83-1.92,2.76-2.84C258.68,265.57,264,261.48,271.63,260.32Zm-47,66.57c-4.53,4.48-9.18,9.07-12.11,15-4.64,9.36-4.85,22.06-.6,35.76,2.88,9.29,7.77,19,12.49,28.36,2.26,4.48,4.6,9.12,6.69,13.66,2.24,4.85,4.31,9.82,6.31,14.63,5.72,13.73,11.64,27.93,22.06,40.87,19.39,24.07,38.33,35.87,57.91,36.09,22.33.25,39.65-9.13,47.51-25.73h0a100.72,100.72,0,0,0,4.79-13.29A94.07,94.07,0,0,1,374.94,458c4-8,10.2-14.21,16.27-20.22l.93-.92c7.53-7.45,15.21-15.2,18.54-26.19,2.63-8.67,2.39-19,1.89-27.06-.78-12.62-3.08-29.16-13.91-45.27-12.87-19.13-33.63-32.39-53.71-45.23l-2.68-1.71L337.09,288c-10-6.44-20.34-13.11-30.63-18.17-9.5-4.68-23.12-9.9-34-8.24-8.81,1.34-14.6,6.81-20.25,12.76-4.17,4.4-8.07,8.84-10,14.77a56.63,56.63,0,0,0-1.87,9.3,63.48,63.48,0,0,1-1.66,8.64c-2.35,8-7.79,13.65-13.21,19Z"/><path class="cls-1" d="M275.1,272.67c10.11-1.53,22.64,3.27,31.37,7.56,9.37,4.61,18.72,10.64,27.77,16.47l4.66,3,2.4,1.54c18.28,11.68,37.18,23.75,49,41.39,10,14.84,12.09,30,12.81,41.5.46,7.31.67,16.71-1.73,24.63-3.1,10.23-10.27,17.34-17.24,24.22-5.58,5.49-11.33,11.2-15,18.47a84,84,0,0,0-4.69,12.73,91,91,0,0,1-4.34,12c-7.17,15.14-23,23.71-43.33,23.48-18.12-.2-35.61-11.09-53.48-33.27-9.58-11.89-15-24.8-20.16-37.29-1.8-4.31-3.65-8.76-5.65-13.09-1.87-4.06-4-8.22-6-12.24-4.29-8.5-8.72-17.3-11.35-25.78-3.91-12.59-3.71-24.25.55-32.84,2.67-5.39,6.91-9.59,11-13.61,5-5,10.29-10.15,12.46-17.57a56.72,56.72,0,0,0,1.47-7.68,51.68,51.68,0,0,1,1.71-8.49c1.78-5.44,5.33-9.49,9.13-13.5.82-.87,1.65-1.73,2.49-2.56C263.45,277.39,268.28,273.71,275.1,272.67Zm-42.29,59.91c-4,4-8.27,8.16-10.9,13.47-4.17,8.42-4.36,19.85-.53,32.19,2.59,8.36,7,17.09,11.25,25.53,2,4,4.13,8.2,6,12.3,2,4.36,3.87,8.83,5.67,13.15,5.15,12.36,10.48,25.15,19.86,36.79,17.45,21.66,34.49,32.28,52.12,32.48,20.1.22,35.69-8.22,42.76-23.16a91,91,0,0,0,4.31-12,85,85,0,0,1,4.72-12.83c3.58-7.15,9.16-12.76,14.61-18.16l.45-.44c6.88-6.86,14.05-13.9,17.11-24,2.37-7.81,2.15-17.12,1.7-24.35-.71-11.35-2.77-26.25-12.52-40.74-11.58-17.22-30.27-29.16-48.35-40.71l-2.4-1.54-4.66-3c-9-5.8-18.3-11.79-27.56-16.35-8.55-4.21-20.81-8.9-30.65-7.41-7.93,1.2-13.14,6.11-18.22,11.48-3.75,4-7.27,8-9,13.29a50.87,50.87,0,0,0-1.68,8.37,57.4,57.4,0,0,1-1.49,7.78c-2.11,7.21-7,12.28-11.89,17.1Z"/><path class="cls-1" d="M278.58,285c9-1.36,20.12,2.9,27.88,6.72,8.32,4.1,16.63,9.45,24.67,14.62l4.16,2.68,2.13,1.36c16.26,10.38,33.06,21.12,43.6,36.79,8.88,13.2,10.75,26.65,11.39,36.89.4,6.49.6,14.85-1.54,21.89-2.7,8.92-8.9,15.17-15,21.17l-.73.72c-4.83,4.79-9.78,9.76-12.93,16.06a74.78,74.78,0,0,0-4.16,11.31,80.93,80.93,0,0,1-3.86,10.7h0c-6.37,13.48-20.41,21.07-38.52,20.87-16.1-.18-31.65-9.85-47.54-29.57-8.51-10.57-13.29-22-17.92-33.13-1.6-3.84-3.25-7.8-5-11.65-1.67-3.62-3.53-7.32-5.34-10.9-3.81-7.55-7.74-15.36-10.08-22.9-3.47-11.19-3.3-21.55.49-29.19,2.37-4.79,6.16-8.47,9.78-12.1,4.49-4.45,9.14-9,11.07-15.61a51.33,51.33,0,0,0,1.31-6.83,45.66,45.66,0,0,1,1.52-7.55c1.58-4.83,4.74-8.44,8.11-12,.73-.77,1.47-1.54,2.21-2.28C268.22,289.21,272.51,285.94,278.58,285ZM241,338.28c-3.57,3.56-7.35,7.26-9.69,12-3.71,7.48-3.88,17.64-.48,28.61,2.31,7.42,6.21,15.18,10,22.67,1.81,3.59,3.68,7.31,5.36,11,1.79,3.88,3.44,7.86,5,11.71,4.58,11,9.31,22.34,17.65,32.69,15.51,19.25,30.66,28.7,46.32,28.87,17.87.2,31.72-7.3,38-20.59h0A81.11,81.11,0,0,0,357,454.53a75.5,75.5,0,0,1,4.19-11.39c3.19-6.37,8.17-11.37,13-16.18l.72-.71c6-6,12.18-12.17,14.84-21,2.11-6.95,1.92-15.22,1.51-21.65-.63-10.09-2.46-23.32-11.13-36.21-10.3-15.31-26.91-25.92-43-36.19l-2.13-1.36-4.17-2.68c-8-5.15-16.25-10.47-24.48-14.52-7.6-3.74-18.5-7.92-27.24-6.59-7.05,1.07-11.69,5.46-16.19,10.2-3.34,3.53-6.46,7.09-8,11.82a45.18,45.18,0,0,0-1.5,7.45,51.1,51.1,0,0,1-1.32,6.91c-1.88,6.41-6.24,10.92-10.58,15.21Z"/><path class="cls-1" d="M282.05,297.37c7.86-1.19,17.6,2.54,24.4,5.88a223.42,223.42,0,0,1,21.62,12.82l3.6,2.32,1.86,1.19c14.22,9.08,28.92,18.48,38.14,32.19,7.77,11.54,9.41,23.31,10,32.28.35,5.69.52,13-1.35,19.16-2.36,7.8-7.78,13.26-13.08,18.51l-.66.65c-4.23,4.18-8.55,8.53-11.31,14a66,66,0,0,0-3.65,9.9,71.13,71.13,0,0,1-3.37,9.36h0c-5.58,11.8-17.87,18.44-33.7,18.26-14.09-.16-27.69-8.62-41.6-25.87-7.45-9.25-11.63-19.28-15.68-29-1.4-3.35-2.84-6.82-4.4-10.2-1.46-3.16-3.09-6.39-4.66-9.52-3.34-6.61-6.78-13.45-8.83-20.05-3-9.79-2.89-18.86.42-25.54,2-3.95,5-7.06,8-10l.56-.55c3.91-3.92,8-7.91,9.69-13.67a43.94,43.94,0,0,0,1.14-6,40.14,40.14,0,0,1,1.33-6.61c1.38-4.23,4.15-7.38,7.1-10.5q1-1,1.94-2C273,301,276.74,298.18,282.05,297.37ZM249.15,344c-3.15,3.17-6.43,6.35-8.48,10.48-3.24,6.55-3.39,15.44-.42,25,2,6.5,5.44,13.29,8.75,19.86,1.58,3.13,3.22,6.38,4.68,9.56,1.57,3.4,3,6.88,4.42,10.24,4,9.61,8.15,19.55,15.44,28.61,13.57,16.85,26.83,25.11,40.54,25.26,15.63.17,27.76-6.39,33.26-18h0a70.74,70.74,0,0,0,3.35-9.3,65.91,65.91,0,0,1,3.67-10c2.79-5.57,7.13-9.94,11.38-14.15l.66-.65c5.27-5.21,10.65-10.64,13-18.33,1.84-6.07,1.67-13.31,1.32-18.94-.55-8.83-2.15-20.42-9.74-31.69-9-13.39-23.55-22.68-37.61-31.67l-1.87-1.19-3.61-2.32a221.24,221.24,0,0,0-21.46-12.73c-6.65-3.27-16.18-6.93-23.83-5.77-6.17.94-10.22,4.77-14.17,8.93-2.92,3.08-5.65,6.19-7,10.34a39.61,39.61,0,0,0-1.31,6.52,44.69,44.69,0,0,1-1.16,6c-1.64,5.61-5.45,9.55-9.25,13.31Z"/><path class="cls-1" d="M285.53,309.72c6.73-1,15.09,2.18,20.91,5a191,191,0,0,1,18.54,11l3.08,2,1.59,1c12.19,7.79,24.8,15.84,32.71,27.6,6.66,9.9,8.06,20,8.54,27.67.3,4.87.45,11.14-1.15,16.42-2,6.67-6.65,11.35-11.19,15.84l-.62.61c-3.61,3.58-7.3,7.29-9.66,12a56.62,56.62,0,0,0-3.12,8.49,60.37,60.37,0,0,1-2.89,8c-4.79,10.1-15.31,15.81-28.89,15.65-12.08-.13-23.74-7.39-35.65-22.18-6.39-7.93-10-16.53-13.44-24.86-1.2-2.87-2.44-5.84-3.77-8.73-1.25-2.72-2.65-5.49-4-8.18-2.85-5.66-5.81-11.52-7.56-17.17-2.6-8.39-2.47-16.16.37-21.89,1.78-3.59,4.63-6.37,7.33-9.08,3.39-3.29,6.86-6.77,8.31-11.71a37.9,37.9,0,0,0,1-5.12,34.41,34.41,0,0,1,1.14-5.66c1.19-3.62,3.56-6.33,6.09-9,.55-.58,1.09-1.14,1.65-1.69C277.75,312.87,281,310.41,285.53,309.72Zm-28.2,39.94c-2.7,2.65-5.51,5.44-7.26,9-2.78,5.61-2.91,13.24-.36,21.46,1.73,5.57,4.66,11.38,7.49,17,1.36,2.69,2.76,5.48,4,8.22,1.34,2.91,2.58,5.89,3.78,8.77,3.44,8.24,7,16.76,13.24,24.53,11.63,14.44,23,21.52,34.74,21.65,13.4.15,23.79-5.48,28.51-15.44h0a60.48,60.48,0,0,0,2.87-8,56.27,56.27,0,0,1,3.15-8.55c2.38-4.76,6.1-8.5,9.73-12.1l.62-.61c4.51-4.46,9.1-9.11,11.1-15.69,1.58-5.21,1.44-11.42,1.13-16.24-.47-7.57-1.84-17.49-8.35-27.16C354,345,341.56,337.07,329.5,329.36l-1.59-1-3.09-2a189.78,189.78,0,0,0-18.4-10.92c-5.7-2.8-13.88-5.94-20.43-4.94-5.29.8-8.77,4.07-12.15,7.65-2.5,2.65-4.85,5.31-6,8.86a34,34,0,0,0-1.12,5.59,37.83,37.83,0,0,1-1,5.18c-1.41,4.81-4.68,8.19-7.93,11.41Z"/><path class="cls-1" d="M289,322.06c5.61-.85,12.58,1.81,17.43,4.2a159.32,159.32,0,0,1,15.42,9.15l2.6,1.67,1.33.85c10.16,6.49,20.66,13.2,27.25,23,5.55,8.25,6.72,16.66,7.11,23.06.25,4.06.38,9.28-1,13.68-1.69,5.6-5.59,9.51-9.4,13.28l-.18.18c-3.08,3-6.29,6.22-8.31,10.26a47,47,0,0,0-2.6,7.08,51.17,51.17,0,0,1-2.41,6.68h0c-4,8.4-12.76,13.17-24.07,13-10.06-.11-19.78-6.16-29.71-18.48-5.32-6.6-8.31-13.77-11.2-20.71-1-2.4-2-4.87-3.14-7.28s-2.21-4.58-3.34-6.82a97.78,97.78,0,0,1-6.3-14.31c-2.17-7-2.06-13.47.3-18.24a27.65,27.65,0,0,1,5.71-7.17l.4-.39c2.82-2.79,5.72-5.64,6.92-9.76a31.17,31.17,0,0,0,.82-4.26,28.66,28.66,0,0,1,1-4.72c1-3,3-5.27,5.07-7.5.46-.48.92-1,1.38-1.42C282.53,324.69,285.21,322.64,289,322.06Zm-23.5,33.29c-2.26,2.23-4.59,4.54-6.06,7.48-2.32,4.68-2.42,11-.3,17.88a97.08,97.08,0,0,0,6.24,14.16c1.13,2.25,2.3,4.57,3.35,6.85s2.16,4.91,3.16,7.32c2.86,6.87,5.82,14,11,20.43,9.69,12,19.17,17.93,29,18,11.16.12,19.82-4.56,23.76-12.87A50.32,50.32,0,0,0,338,428a47.13,47.13,0,0,1,2.63-7.13c2-4,5.14-7.14,8.19-10.17l.35-.35c3.78-3.74,7.65-7.63,9.32-13.15,1.32-4.34,1.2-9.51.94-13.53-.39-6.31-1.54-14.58-7-22.64-6.44-9.57-16.82-16.2-26.86-22.62l-1.33-.85-2.6-1.67a157.7,157.7,0,0,0-15.31-9.08c-4.75-2.34-11.56-5-17-4.12-4.4.67-7.3,3.39-10.13,6.38-2.08,2.2-4,4.43-5,7.38a28.64,28.64,0,0,0-.94,4.66,31.29,31.29,0,0,1-.82,4.31c-1.17,4-3.89,6.82-6.6,9.51Z"/><path class="cls-1" d="M292.48,334.42c4.49-.69,10.06,1.45,13.94,3.36a126.4,126.4,0,0,1,12.33,7.31l2.09,1.34,1.06.67c8.13,5.19,16.54,10.56,21.81,18.4,4.43,6.6,5.37,13.33,5.69,18.45.2,3.25.3,7.43-.77,10.95-1.35,4.45-4.44,7.57-7.47,10.57l-.39.38c-2.42,2.39-4.88,4.87-6.46,8a37.29,37.29,0,0,0-2.08,5.66,40.86,40.86,0,0,1-1.93,5.35h0c-3.19,6.73-10.2,10.54-19.26,10.43-8.05-.09-15.83-4.93-23.77-14.79-4.26-5.28-6.65-11-9-16.57-.8-1.92-1.62-3.9-2.51-5.83s-1.76-3.64-2.65-5.42a78.33,78.33,0,0,1-5.05-11.48c-1.73-5.59-1.65-10.78.24-14.6a22.18,22.18,0,0,1,4.57-5.73l.32-.31c2.24-2.22,4.57-4.52,5.54-7.81a25,25,0,0,0,.65-3.42,23,23,0,0,1,.76-3.77,16.1,16.1,0,0,1,4.06-6c.37-.39.74-.77,1.11-1.15A12.65,12.65,0,0,1,292.48,334.42ZM273.68,361a23.39,23.39,0,0,0-4.85,6c-1.85,3.75-1.93,8.83-.24,14.31a77.7,77.7,0,0,0,5,11.36c.9,1.79,1.83,3.64,2.67,5.45s1.72,3.93,2.52,5.85c2.29,5.49,4.66,11.17,8.83,16.35,7.75,9.63,15.33,14.35,23.16,14.44,8.94.1,15.86-3.64,19-10.29h0a40.73,40.73,0,0,0,1.91-5.31,37.71,37.71,0,0,1,2.1-5.7c1.59-3.18,4.07-5.68,6.5-8.08l.38-.38c3-3,6.08-6.08,7.41-10.47,1.05-3.47,1-7.61.76-10.82-.31-5-1.23-11.67-5.56-18.11-5.15-7.66-13.46-13-21.5-18.1l-1.06-.68-2.09-1.34a127.07,127.07,0,0,0-12.23-7.26c-3.8-1.87-9.25-4-13.62-3.29-3.53.53-5.85,2.72-8.1,5.1a16,16,0,0,0-4,5.91,23,23,0,0,0-.75,3.72,25.24,25.24,0,0,1-.66,3.46c-.94,3.2-3.11,5.45-5.28,7.6Z"/><path class="cls-1" d="M296,346.76c3.36-.51,7.54,1.09,10.46,2.52a95.66,95.66,0,0,1,9.24,5.48l1.57,1,.81.52c6.09,3.89,12.38,7.92,16.34,13.79a26.89,26.89,0,0,1,4.27,13.83,24.36,24.36,0,0,1-.58,8.21c-1,3.34-3.34,5.69-5.61,7.94l-.27.27a23.63,23.63,0,0,0-4.85,6,28.09,28.09,0,0,0-1.56,4.25,30.46,30.46,0,0,1-1.45,4h0c-2.38,5-7.65,7.9-14.44,7.83-6-.07-11.87-3.69-17.83-11.09-3.19-4-5-8.26-6.72-12.42-.6-1.44-1.22-2.92-1.89-4.37s-1.32-2.74-2-4.08a58.39,58.39,0,0,1-3.78-8.59c-1.3-4.2-1.24-8.08.18-10.95a16.59,16.59,0,0,1,3.43-4.31l.47-.46c1.61-1.59,3.23-3.27,3.92-5.63a19.17,19.17,0,0,0,.49-2.56,16.88,16.88,0,0,1,.57-2.83,12.06,12.06,0,0,1,3-4.5l.83-.85A9.53,9.53,0,0,1,296,346.76ZM281.62,367a16.52,16.52,0,0,0-3.4,4.26c-1.39,2.81-1.45,6.62-.18,10.73a58.46,58.46,0,0,0,3.75,8.51c.68,1.34,1.38,2.74,2,4.1s1.29,2.95,1.9,4.39c1.72,4.12,3.49,8.38,6.62,12.26,5.82,7.22,11.5,10.76,17.37,10.83,6.7.08,11.89-2.74,14.25-7.72h0a30.68,30.68,0,0,0,1.43-4,28.16,28.16,0,0,1,1.57-4.28,23.79,23.79,0,0,1,4.89-6.07l.27-.27c2.26-2.23,4.57-4.56,5.57-7.86a24.15,24.15,0,0,0,.57-8.12,26.37,26.37,0,0,0-4.17-13.58C330.2,364.42,324,360.44,318,356.6l-.81-.52-1.57-1a94.44,94.44,0,0,0-9.17-5.44c-2.85-1.4-6.94-3-10.22-2.47-2.65.4-4.39,2.06-6.08,3.83a12,12,0,0,0-3,4.43,17,17,0,0,0-.56,2.79,19.26,19.26,0,0,1-.5,2.6c-.7,2.4-2.34,4.09-4,5.7Z"/><path class="cls-1" d="M299.43,359.11c2.25-.34,5,.73,7,1.68a63.84,63.84,0,0,1,6.12,3.63l1.08.7.54.34c4.06,2.6,8.26,5.28,10.89,9.19a17.87,17.87,0,0,1,2.85,9.23,16.3,16.3,0,0,1-.38,5.47,12.79,12.79,0,0,1-3.72,5.27l-.23.23a15.73,15.73,0,0,0-3.21,4,18.93,18.93,0,0,0-1,2.82,20.24,20.24,0,0,1-1,2.68h0c-1.6,3.36-5.1,5.27-9.63,5.22-4,0-7.91-2.46-11.89-7.39a32.36,32.36,0,0,1-4.48-8.29c-.4-1-.82-1.95-1.26-2.91s-.88-1.83-1.34-2.72a39.1,39.1,0,0,1-2.52-5.72,10,10,0,0,1,.12-7.3,11.05,11.05,0,0,1,2.28-2.86L290,372a8.9,8.9,0,0,0,2.6-3.75,12.73,12.73,0,0,0,.33-1.71,11.31,11.31,0,0,1,.38-1.88,8.06,8.06,0,0,1,2-3l.56-.58A6.33,6.33,0,0,1,299.43,359.11Zm-9.56,13.48a10.87,10.87,0,0,0-2.26,2.83,9.77,9.77,0,0,0-.12,7.15,38.58,38.58,0,0,0,2.5,5.67c.45.9.92,1.83,1.34,2.74s.86,2,1.26,2.93a32.15,32.15,0,0,0,4.41,8.17c3.88,4.81,7.67,7.18,11.58,7.22,4.47.05,7.93-1.82,9.5-5.15h0a20.23,20.23,0,0,0,1-2.66,18.64,18.64,0,0,1,1-2.85,15.7,15.7,0,0,1,3.23-4l.23-.23a12.72,12.72,0,0,0,3.69-5.22,16.1,16.1,0,0,0,.38-5.41,17.62,17.62,0,0,0-2.78-9.05c-2.57-3.82-6.73-6.48-10.74-9l-.53-.34-1.08-.7a63.28,63.28,0,0,0-6.08-3.6c-1.9-.93-4.62-2-6.81-1.65a7,7,0,0,0-4.05,2.55,8,8,0,0,0-2,3,11.13,11.13,0,0,0-.37,1.86,12.69,12.69,0,0,1-.33,1.73,9,9,0,0,1-2.64,3.8Z"/><path class="cls-1" d="M302.9,371.46a6.55,6.55,0,0,1,3.48.84,31.18,31.18,0,0,1,3.08,1.83l.52.33.24.15c2,1.3,4.15,2.65,5.48,4.61a9,9,0,0,1,1.42,4.61,8,8,0,0,1-.19,2.74,6.41,6.41,0,0,1-1.86,2.63l-.12.12a7.94,7.94,0,0,0-1.6,2,9.87,9.87,0,0,0-.52,1.41,10,10,0,0,1-.48,1.34h0a4.91,4.91,0,0,1-4.81,2.61c-2,0-4-1.23-5.94-3.7a16.16,16.16,0,0,1-2.24-4.14c-.2-.48-.4-1-.63-1.46s-.44-.9-.66-1.34a19.39,19.39,0,0,1-1.27-2.88,5,5,0,0,1,.06-3.65,5.51,5.51,0,0,1,1.13-1.43l.17-.17a4.44,4.44,0,0,0,1.3-1.87,6.85,6.85,0,0,0,.16-.85,5.67,5.67,0,0,1,.19-.94,4,4,0,0,1,1-1.5l.27-.27A3.2,3.2,0,0,1,302.9,371.46Zm-4.79,6.74a5.44,5.44,0,0,0-1.13,1.41,4.92,4.92,0,0,0-.06,3.58,19.54,19.54,0,0,0,1.26,2.85c.22.44.46.9.66,1.35s.43,1,.63,1.46a16.12,16.12,0,0,0,2.21,4.09c1.94,2.4,3.83,3.59,5.79,3.61a4.86,4.86,0,0,0,4.75-2.57h0a10.14,10.14,0,0,0,.48-1.33,9.51,9.51,0,0,1,.52-1.42,7.86,7.86,0,0,1,1.61-2l.12-.12a6.35,6.35,0,0,0,1.84-2.61,8.12,8.12,0,0,0,.19-2.71,8.77,8.77,0,0,0-1.39-4.53c-1.29-1.92-3.38-3.25-5.4-4.54l-.24-.15-.52-.33a31.48,31.48,0,0,0-3.06-1.82,6.43,6.43,0,0,0-3.41-.82,3.14,3.14,0,0,0-1.76,1l-.27.27a4,4,0,0,0-1,1.48,5.27,5.27,0,0,0-.19.93,6.4,6.4,0,0,1-.17.87,4.44,4.44,0,0,1-1.31,1.89Z"/><polygon class="cls-1" points="306.38 383.81 306.38 383.81 306.38 383.81 306.38 383.81 306.38 383.81 306.38 383.81 306.38 383.81 306.38 383.81 306.38 383.81 306.38 383.81 306.38 383.81 306.38 383.81 306.38 383.81 306.38 383.81 306.38 383.81 306.38 383.81 306.38 383.81"/><path class="cls-2" d="M198.65,1c34.79-5.28,78,11.25,108,26.05,32.3,15.89,64.55,36.67,95.73,56.77q8,5.15,16,10.27l8.24,5.26c63,40.23,128.1,81.84,168.95,142.57,34.4,51.13,41.65,103.25,44.12,142.95,1.57,25.18,2.31,57.57-6,84.84-10.68,35.24-35.43,59.67-59.39,83.42-19.12,18.92-39,38.58-51.53,63.62-6.78,13.55-11.54,29-16.14,43.86-4.33,14-8.8,28.47-14.94,41.46-24.69,52.18-79.1,81.65-149.25,80.87-62.39-.69-122.65-38.17-184.21-114.59-33-40.94-51.51-85.41-69.43-128.41-6.19-14.85-12.59-30.21-19.48-45.15-6.46-14-13.68-28.34-20.67-42.19-14.76-29.28-30-59.55-39.08-88.77-13.45-43.35-12.78-83.52,1.88-113.1,9.19-18.56,23.78-33,37.89-46.88,17.37-17.24,35.43-35,42.92-60.52,2.44-8.31,3.77-17.54,5.06-26.46,1.43-9.89,2.91-20.11,5.89-29.23,6.12-18.74,18.37-32.69,31.45-46.5,2.84-3,5.69-6,8.59-8.83C158.51,17.25,175.14,4.58,198.65,1ZM53,207.38c-14,13.77-28.48,28.12-37.54,46.4-14.37,29-15,68.37-1.84,110.86,8.93,28.79,24.08,58.83,38.72,87.89,7,13.9,14.26,28.28,20.76,42.39,6.93,15,13.36,30.45,19.57,45.35,17.74,42.57,36.08,86.59,68.4,126.7,60.1,74.61,118.82,111.2,179.51,111.88,69.23.77,122.91-28.31,147.29-79.78h0c6.09-12.86,10.54-27.26,14.83-41.19,4.63-15,9.41-30.47,16.26-44.17,12.65-25.3,32.6-45,51.87-64.09,23.69-23.48,48.38-47.85,58.92-82.62,8.15-26.89,7.41-59,5.86-83.88C633.14,344,626,292.7,592.45,242.77c-39.9-59.32-104.29-100.46-166.57-140.24l-8.24-5.27q-8-5.12-16-10.29c-31-20-63.08-40.65-95-56.36C277.17,16.12,234.95-.07,201.08,5.07c-27.32,4.15-45.3,21.1-62.76,39.55-12.93,13.66-25,27.44-31,45.79-2.92,8.94-4.38,19.06-5.8,28.84-1.3,9-2.65,18.32-5.13,26.8C89.08,170.86,72.21,188.34,55.41,205Z"/><path class="cls-2" d="M202.12,13.36c33.67-5.11,75.45,10.89,104.56,25.21,31.26,15.38,62.47,35.49,92.65,54.94q7.73,5,15.46,9.94l8,5.09c60.95,38.94,124,79.2,163.51,138,33.29,49.48,40.3,99.92,42.7,138.34,1.51,24.36,2.23,55.71-5.77,82.11-10.33,34.1-34.28,57.69-57.47,80.73C547.17,566.09,528,585,515.84,609.25c-6.56,13.11-11.17,28-15.62,42.44-4.18,13.54-8.51,27.55-14.46,40.12-23.9,50.5-76.55,79-144.44,78.26-60.38-.67-118.69-36.95-178.27-110.89-31.92-39.62-49.85-82.66-67.2-124.27-6-14.37-12.18-29.23-18.85-43.68-6.25-13.56-13.24-27.42-20-40.83C42.74,422.06,28,392.77,19.19,364.49,6.18,322.54,6.83,283.67,21,255c8.9-18,23-31.87,36.67-45.37C74.5,193.09,92,175.81,99.22,151.09c2.36-8,3.65-17,4.9-25.61,1.38-9.57,2.81-19.46,5.7-28.29,5.93-18.13,17.78-31.63,30.43-45,2.74-2.9,5.5-5.76,8.31-8.53C163.28,29.08,179.37,16.81,202.12,13.36Zm-141,199.72C47.56,226.45,33.57,240.29,24.8,258,10.9,286,10.26,324.15,23,365.26c8.64,27.86,23.3,56.94,37.48,85.06,6.78,13.45,13.79,27.37,20.09,41,6.71,14.55,12.93,29.46,18.93,43.88,17.17,41.2,34.92,83.8,66.19,122.62,58.16,72.2,115,107.62,173.72,108.27,67,.74,119-27.4,142.54-77.21h0c5.89-12.44,10.2-26.38,14.36-39.86,4.47-14.49,9.1-29.48,15.74-42.74,12.25-24.49,31.63-43.6,50.2-62,23-22.79,46.82-46.31,57-80,7.88-26,7.17-57.06,5.67-81.18-2.36-37.85-9.23-87.49-41.74-135.81C544.6,189.91,482.28,150.1,422,111.6l-8-5.09q-7.74-5-15.48-10c-30-19.34-61-39.34-92-54.54-28.51-14-69.36-29.7-102.14-24.72-26.44,4-43.83,20.41-60.74,38.27-12.51,13.22-24.23,26.55-30,44.31-2.83,8.65-4.25,18.44-5.61,27.91-1.26,8.72-2.56,17.73-5,25.93-7,24-23.37,40.94-39.63,57Z"/><path class="cls-2" d="M205.6,25.7c32.55-4.94,72.93,10.53,101.08,24.37,30.21,14.86,60.37,34.29,89.53,53.09q7.49,4.82,15,9.62l7.72,4.93c58.91,37.64,119.82,76.55,158,133.36,32.18,47.84,39,96.59,41.27,133.73,1.47,23.55,2.16,53.84-5.58,79.37-10,33-33.24,56-55.56,78-17.94,17.69-36.49,36.09-48.21,59.51-6.34,12.68-10.79,27.09-15.1,41-4,13.09-8.23,26.63-14,38.79h0c-23.11,48.8-74,76.37-139.62,75.65-58.37-.65-114.74-35.71-172.32-107.2-30.86-38.3-48.19-79.89-65-120.12C97.09,516,91.1,501.61,84.66,487.64c-6-13.11-12.8-26.51-19.33-39.47-13.81-27.39-28.08-55.71-36.56-83-12.58-40.56-12-78.13,1.77-105.81C39.13,242,52.75,228.48,66,215.47c16.29-16.09,33.15-32.73,40.15-56.62,2.28-7.78,3.53-16.41,4.73-24.76,1.34-9.25,2.72-18.81,5.51-27.35,5.73-17.53,17.18-30.58,29.42-43.5,2.65-2.8,5.32-5.57,8-8.26C168.05,40.9,183.6,29,205.6,25.7ZM69.31,218.77c-13.1,12.94-26.64,26.3-35.12,43.41-13.45,27.13-14.06,64-1.73,103.71,8.35,26.93,22.52,55,36.22,82.22,6.56,13,13.34,26.46,19.43,39.65,6.48,14.07,12.49,28.48,18.3,42.42,16.6,39.82,33.76,81,64,118.52,56.22,69.8,111.16,104,167.93,104.66,64.77.72,115-26.49,137.78-74.64,5.7-12,9.86-25.5,13.88-38.53,4.33-14,8.8-28.5,15.21-41.32,11.84-23.67,30.55-42.13,48.53-60,22.27-22.06,45.26-44.77,55.12-77.3,7.63-25.17,6.94-55.16,5.49-78.47-2.28-36.59-8.92-84.57-40.35-131.28-37.32-55.49-97.55-94-155.8-131.19l-7.72-4.94q-7.49-4.79-15-9.64c-29-18.69-59-38-88.86-52.72-27.56-13.56-67.06-28.7-98.74-23.89-25.56,3.88-42.37,19.71-58.72,37-12.09,12.77-23.41,25.66-29,42.83-2.74,8.37-4.1,17.83-5.43,27-1.22,8.43-2.48,17.14-4.8,25.07-6.8,23.22-22.59,39.57-38.31,55.12Z"/><path class="cls-2" d="M209.07,38.05c31.43-4.77,70.42,10.16,97.59,23.53C335.83,75.93,365,94.7,393.11,112.84q7.23,4.66,14.45,9.29l7.44,4.76c56.88,36.34,115.7,73.92,152.6,128.77,31.07,46.19,37.62,93.26,39.85,129.12,1.42,22.73,2.09,52-5.38,76.63-9.64,31.83-32,53.94-53.64,75.35-17.36,17.17-35.23,34.85-46.54,57.46-6.12,12.24-10.42,26.16-14.58,39.61-3.9,12.64-7.94,25.72-13.5,37.45C451.5,718.41,402.36,745,339,744.32c-56.36-.62-110.78-34.48-166.38-103.5-29.79-37-46.53-77.15-62.72-116-5.59-13.41-11.37-27.28-17.59-40.77C86.47,471.41,80,458.47,73.64,446c-13.33-26.44-27.11-53.78-35.3-80.18C26.19,326.62,26.8,290.34,40,263.62c8.31-16.76,21.5-29.82,34.22-42.35,15.72-15.59,32-31.6,38.76-54.66,2.2-7.51,3.41-15.84,4.57-23.91,1.29-8.93,2.63-18.16,5.32-26.4,5.53-16.92,16.59-29.52,28.4-42,2.56-2.7,5.13-5.36,7.74-8C172.81,52.74,187.83,41.28,209.07,38.05ZM77.48,224.46c-12.7,12.48-25.73,25.4-33.91,41.91-13,26.19-13.58,61.75-1.67,100.14,8.06,26,21.74,53.14,35,79.38,6.33,12.56,12.88,25.55,18.75,38.29,6.26,13.58,12.06,27.49,17.67,40.95,16,38.45,32.6,78.22,61.78,114.45C229.37,707,282.41,740,337.23,740.62c62.53.69,111-25.56,133-72.06h0c5.5-11.62,9.52-24.63,13.4-37.2,4.18-13.53,8.5-27.52,14.69-39.89,11.43-22.85,29.44-40.59,46.85-57.89,21.55-21.22,43.7-43.22,53.22-74.63,7.36-24.3,6.7-53.26,5.29-75.77-2.2-35.32-8.61-81.66-39-126.75-36-53.58-94.2-90.74-150.44-126.67L406.87,125q-7.23-4.63-14.47-9.3c-28-18-57-36.71-85.8-50.9C280,51.7,241.86,37.08,211.27,41.72c-24.67,3.75-40.91,19-56.69,35.72-11.68,12.34-22.61,24.79-28,41.36-2.64,8.08-4,17.21-5.24,26-1.18,8.14-2.39,16.55-4.64,24.21-6.57,22.42-21.81,38.2-37,53.22Z"/><path class="cls-2" d="M212.55,50.4c30.3-4.6,67.9,9.8,94.11,22.69C334.78,86.92,362.86,105,390,122.52q7,4.49,13.94,9l7.2,4.6c54.84,35,111.54,71.27,147.12,124.16,30,44.53,36.27,89.93,38.43,124.5,1.37,21.92,2,50.13-5.19,73.9-9.3,30.7-30.83,52.09-51.73,72.66-16.71,16.53-34,33.61-44.88,55.41-5.9,11.8-10,25.22-14.06,38.2-3.76,12.19-7.66,24.8-13,36.11-21.51,45.43-68.89,71.11-130,70.43-54.35-.6-106.83-33.25-160.44-99.8C148.67,596,132.52,557.25,116.92,519.8c-5.39-12.94-11-26.31-17-39.32-5.63-12.2-11.91-24.67-18-36.73-12.86-25.5-26.15-51.88-34.05-77.34-11.71-37.75-11.13-72.74,1.64-98.51,8-16.16,20.7-28.69,33-40.84,15.19-15,30.86-30.46,37.38-52.71,2.12-7.24,3.28-15.28,4.41-23.05,1.25-8.61,2.53-17.51,5.13-25.46,5.34-16.32,16-28.47,27.39-40.5,2.47-2.61,4.95-5.18,7.47-7.68C177.59,64.56,192.07,53.51,212.55,50.4ZM85.66,230.15c-12.19,12-24.8,24.48-32.7,40.41-12.52,25.26-13.09,59.55-1.61,96.56,7.78,25.08,21,51.25,33.73,76.56,6.1,12.1,12.41,24.62,18.08,36.9,6,13.1,11.63,26.52,17,39.5,15.45,37.07,31.43,75.41,59.57,110.35,52.35,65,103.49,96.86,156.35,97.44,60.3.67,107.06-24.66,128.28-69.49,5.3-11.2,9.18-23.74,12.92-35.87,4-13,8.2-26.54,14.17-38.47,11-22,28.37-39.29,45.18-55.82,20.74-20.55,42.14-41.68,51.32-72,7.1-23.43,6.46-51.35,5.1-73.06C591,349.13,584.79,304.45,555.53,261c-34.74-51.66-90.82-87.48-145-122.13l-7.21-4.61q-7-4.47-14-9c-27-17.4-54.93-35.39-82.73-49.07-25.66-12.62-62.43-26.73-91.93-22.25C190.87,57.55,175.23,72.29,160,88.39c-11.26,11.89-21.8,23.89-27,39.88-2.54,7.79-3.82,16.6-5.05,25.12-1.14,7.84-2.31,16-4.47,23.33-6.34,21.63-21,36.85-35.68,51.33Z"/><path class="cls-2" d="M216,62.75c29.18-4.43,65.39,9.44,90.62,21.85,27.08,13.33,54.12,30.75,80.27,47.6q6.71,4.32,13.42,8.63l6.92,4.43C460.07,179,514.68,213.88,548.94,264.81c28.85,42.9,34.93,86.61,37,119.89,1.32,21.11,1.93,48.28-5,71.16-8.77,29-28.89,49.26-48.59,68.76l-1.22,1.21c-16,15.85-32.72,32.36-43.22,53.36-5.69,11.37-9.68,24.29-13.54,36.79-3.62,11.74-7.38,23.87-12.53,34.77h0c-20.72,43.75-66.34,68.48-125.18,67.82-52.33-.58-102.87-32-154.5-96.11-27.66-34.34-43.2-71.63-58.23-107.7-5.19-12.46-10.56-25.34-16.33-37.86-5.42-11.75-11.47-23.76-17.33-35.37-12.38-24.56-25.18-50-32.78-74.46-11.28-36.36-10.72-70,1.58-94.86,7.71-15.56,19.92-27.59,31.78-39.33,14.64-14.36,29.72-29.33,36-50.76,2-7,3.16-14.71,4.24-22.19,1.2-8.29,2.44-16.87,4.94-24.53,5.13-15.71,15.41-27.41,26.37-39,2.38-2.51,4.77-5,7.21-7.4C182.37,76.37,196.31,65.74,216,62.75ZM93.83,235.84c-11.72,11.58-23.88,23.58-31.48,38.92-12.05,24.32-12.6,57.34-1.55,93,7.49,24.15,20.19,49.35,32.48,73.72,5.88,11.66,12,23.71,17.41,35.54,5.81,12.61,11.2,25.54,16.41,38,14.88,35.7,30.26,72.62,57.36,106.26,50.41,62.58,99.66,93.27,150.56,93.84,58.07.64,103.09-23.75,123.53-66.91,5.11-10.78,8.83-22.86,12.44-34.54,3.88-12.57,7.89-25.56,13.64-37.05,10.61-21.22,27.44-37.84,43.51-53.75,20-19.75,40.58-40.14,49.42-69.3,6.84-22.56,6.21-49.45,4.91-70.36-2-32.8-8-75.82-36.17-117.7-33.46-49.75-87.47-84.25-139.69-117.61l-6.93-4.43q-6.72-4.3-13.44-8.64c-26-16.76-52.89-34.08-79.67-47.26-24.7-12.15-60.12-25.73-88.53-21.42-22.91,3.48-38,17.67-52.64,33.17-10.85,11.46-21,23-26,38.4-2.45,7.5-3.68,16-4.87,24.19-1.09,7.55-2.22,15.36-4.3,22.47-6.1,20.83-20.27,35.49-34.36,49.44Z"/><path class="cls-2" d="M219.5,75.1c28.06-4.26,62.87,9.07,87.14,21,26,12.81,52,29.57,77.2,45.78q6.45,4.15,12.89,8.29l6.64,4.24c50.79,32.45,103.31,66,136.26,115,27.74,41.24,33.58,83.27,35.57,115.28,1.27,20.3,1.86,46.43-4.81,68.42-8.61,28.42-28.56,48.13-47.9,67.28C507,535.78,491,551.49,480.93,571.67c-5.47,10.93-9.31,23.35-13,35.37-3.48,11.29-7.09,23-12,33.43C436,682.56,392.07,706.32,335.5,705.7c-50.31-.56-98.91-30.79-148.55-92.41-26.6-33-41.54-68.88-56-103.56-5-12-10.15-24.36-15.71-36.4-5.21-11.3-11-22.86-16.67-34-11.9-23.6-24.21-48-31.51-71.58-10.85-35-10.31-67.35,1.52-91.21,7.41-15,19.18-26.52,30.55-37.81,14.07-13.82,28.57-28.21,34.61-48.8,2-6.7,3-14.15,4.08-21.34,1.15-8,2.35-16.22,4.75-23.58,4.93-15.1,14.81-26.35,25.36-37.5,2.29-2.42,4.59-4.8,6.92-7.11C187.13,88.2,200.54,78,219.5,75.1ZM102,241.53c-11.29,11.12-23,22.67-30.27,37.42-11.59,23.39-12.12,55.14-1.49,89.41,7.2,23.21,19.42,47.44,31.23,70.87,5.65,11.21,11.5,22.81,16.75,34.19C123.81,485.54,129,498,134,510c14.31,34.33,29.1,69.83,55.16,102.18,48.48,60.17,95.83,89.68,144.77,90.22,55.83.62,99.13-22.82,118.78-64.34,4.91-10.37,8.5-22,12-33.21,3.73-12.08,7.59-24.57,13.11-35.62C488,548.81,504,533,519.61,517.53c19.2-19,39-38.59,47.52-66.63,6.57-21.68,6-47.54,4.73-67.65-2-31.54-7.69-72.91-34.78-113.18C504.9,222.23,453,189.05,402.74,157l-6.64-4.24q-6.45-4.13-12.9-8.3c-25-16.11-50.87-32.78-76.62-45.45-23.76-11.68-57.81-24.74-85.12-20.6-22,3.35-36.52,17-50.62,31.89-10.43,11-20.19,22.13-25,36.93-2.36,7.21-3.54,15.37-4.68,23.26-1.05,7.26-2.14,14.78-4.14,21.61-5.87,20-19.47,34.11-33,47.51Z"/><path class="cls-2" d="M223,87.44c26.94-4.09,60.36,8.71,83.65,20.17,25,12.3,50,28.38,74.1,43.94q6.19,4,12.38,8l6.39,4.08C448.25,194.75,498.66,227,530.28,274c26.63,39.59,32.25,79.94,34.16,110.67,1.21,19.49,1.78,44.56-4.62,65.68-8.27,27.29-27.37,46.36-46,64.59-14.8,14.67-30.19,29.87-39.89,49.25-5.25,10.49-8.93,22.42-12.49,34-3.35,10.84-6.81,22-11.57,32.1h0c-19.12,40.4-61.23,63.21-115.55,62.61-48.3-.53-95-29.55-142.61-88.71C166.19,572.41,151.84,538,138,504.69c-4.79-11.5-9.75-23.39-15.08-34.95-5-10.85-10.59-21.94-16-32.67C95.46,414.41,83.65,391,76.63,368.35c-10.41-33.56-9.89-64.66,1.46-87.56,7.12-14.37,18.38-25.51,29.34-36.3,13.48-13.3,27.43-27.08,33.23-46.85,1.89-6.43,2.92-13.58,3.92-20.48,1.11-7.66,2.25-15.57,4.56-22.64,4.74-14.51,14.22-25.31,24.34-36,2.2-2.32,4.4-4.6,6.64-6.82C191.9,100,204.77,90.21,223,87.44ZM110.18,247.22c-10.83,10.71-22,21.77-29.06,35.92C70,305.6,69.48,336.08,79.69,369c6.91,22.28,18.64,45.55,30,68,5.43,10.77,11,21.9,16.08,32.82,5.37,11.64,10.34,23.57,15.15,35.11,13.73,33,27.94,67,53,98.09,46.53,57.76,92,86.09,139,86.61,53.6.59,95.16-21.91,114-61.77h0c4.72-10,8.16-21.11,11.49-31.89,3.58-11.6,7.29-23.59,12.59-34.19,9.8-19.6,25.33-34.95,40.16-49.62,18.45-18.25,37.46-37.05,45.62-64,6.31-20.82,5.74-45.65,4.54-64.94-1.89-30.28-7.38-70-33.39-108.65C497,228.7,447.12,196.85,398.91,166.05L392.52,162q-6.2-4-12.4-8c-24-15.47-48.83-31.47-73.55-43.62-22.81-11.22-55.49-23.76-81.72-19.78-21.14,3.21-35.07,16.31-48.59,30.62-10,10.57-19.38,21.23-24,35.45-2.26,6.92-3.4,14.76-4.49,22.34-1,7-2,14.18-4,20.74-5.63,19.22-18.7,32.75-31.71,45.62Z"/><path class="cls-2" d="M226.45,99.8c25.81-3.93,57.84,8.34,80.17,19.33,24,11.78,47.88,27.2,71,42.11l11.86,7.63,6.11,3.91c46.72,29.85,95,60.72,125.35,105.77,25.52,37.94,30.9,76.61,32.73,106.06,1.16,18.67,1.71,42.71-4.42,62.95-7.92,26.14-26.32,44.24-44.07,61.89-14.16,14-28.94,28.63-38.23,47.2-5,10.06-8.56,21.49-12,32.54-3.2,10.38-6.52,21.12-11.08,30.76h0c-18.33,38.7-58.68,60.57-110.74,60-46.29-.51-91-28.32-136.67-85C172,564.55,158.28,531.56,145,499.66c-4.59-11-9.34-22.42-14.45-33.5-4.79-10.39-10.15-21-15.33-31.29-11-21.72-22.28-44.19-29-65.87-10-32.16-9.48-62,1.4-83.92,6.82-13.77,17.66-24.42,28.11-34.78,12.9-12.77,26.29-25.95,31.84-44.9a144.77,144.77,0,0,0,3.75-19.63c1.06-7.33,2.16-14.92,4.37-21.69,4.54-13.9,13.63-24.25,23.33-34.5,2.1-2.22,4.21-4.41,6.36-6.53C196.66,111.85,209,102.44,226.45,99.8ZM118.35,252.91C108,263.18,97.22,273.77,90.5,287.34c-10.66,21.52-11.15,50.73-1.37,82.25C95.76,391,107,413.25,117.87,434.81c5.2,10.31,10.58,21,15.4,31.44,5.15,11.16,9.91,22.59,14.52,33.65,13.16,31.58,26.77,64.24,50.74,94,44.59,55.35,88.16,82.5,133.19,83,51.37.57,91.19-21,109.28-59.19,4.52-9.54,7.81-20.22,11-30.55,3.43-11.11,7-22.61,12.07-32.77,9.15-18.3,23.44-32.66,37.4-46.48l2.15-2.13c17.31-17.13,35-35,42.65-60.25,6-20,5.5-43.74,4.35-62.24-1.81-29-7.07-67.07-32-104.12-29.61-44-77.38-74.53-123.58-104l-6.12-3.91q-5.94-3.8-11.88-7.64c-23-14.83-46.8-30.16-70.49-41.81C284.71,111,253.38,99,228.25,102.81c-20.27,3.08-33.59,15.63-46.57,29.34-9.59,10.13-18.57,20.36-23,34-2.17,6.64-3.25,14.15-4.3,21.41a146,146,0,0,1-3.81,19.87c-5.4,18.41-17.91,31.37-30.37,43.7Z"/><path class="cls-2" d="M229.92,112.14c24.69-3.75,55.33,8,76.68,18.49,22.91,11.27,45.78,26,67.9,40.26q5.69,3.66,11.37,7.31l5.85,3.74c44.69,28.55,90.9,58.07,119.89,101.17,24.41,36.29,29.55,73.28,31.31,101.45,1.11,17.86,1.64,40.85-4.23,60.21-7.58,25-25.1,42.42-42.15,59.2-13.66,13.49-27.68,27.38-36.57,45.15-4.81,9.62-8.19,20.55-11.45,31.13-3.07,9.93-6.24,20.2-10.6,29.42-17.53,37-56.14,57.94-105.92,57.39-44.28-.49-87-27.09-130.73-81.32-23.41-29.05-36.56-60.61-49.27-91.13-4.39-10.54-8.94-21.44-13.83-32-4.59-9.94-9.71-20.11-14.67-29.95-10.47-20.77-21.3-42.26-27.73-63-9.55-30.76-9.07-59.27,1.33-80.27C103.64,276.2,114,266,124,256.1c12.38-12.22,25.15-24.83,30.46-42.95a139,139,0,0,0,3.59-18.78c1-7,2.06-14.27,4.18-20.75,4.34-13.29,13-23.19,22.31-33,2-2.13,4-4.22,6.09-6.26C201.44,123.67,213.24,114.68,229.92,112.14ZM126.53,258.61c-10,9.79-20.21,20-26.64,32.93-10.2,20.58-10.66,48.52-1.31,78.68,6.34,20.43,17.09,41.75,27.48,62.37,5,9.87,10.12,20.07,14.74,30.09,4.92,10.67,9.48,21.61,13.89,32.19,12.59,30.21,25.61,61.45,48.54,89.91,42.65,52.95,84.33,78.92,127.4,79.4,49.13.55,87.23-20.09,104.53-56.62h0c4.32-9.12,7.48-19.34,10.53-29.23,3.28-10.63,6.68-21.62,11.54-31.35,9-18,23.11-31.93,36.81-45.49,16.78-16.64,34.34-34,41.82-58.64,5.78-19.09,5.26-41.84,4.16-59.53-1.73-27.76-6.77-64.16-30.6-99.6-28.32-42.1-74-71.29-118.2-99.52l-5.86-3.74L374,173.13c-22-14.17-44.74-28.83-67.4-40-20.9-10.28-50.87-21.78-74.91-18.12C212.26,118,199.52,130,187.1,143.1c-9.17,9.69-17.76,19.47-22,32.49C163,181.94,162,189.12,161,196.06a139.35,139.35,0,0,1-3.64,19c-5.16,17.61-17.13,30-29.05,41.81Z"/><path class="cls-2" d="M233.4,124.49c23.57-3.58,52.81,7.62,73.19,17.65,21.87,10.76,43.7,24.83,64.82,38.44q5.43,3.5,10.86,7l5.58,3.57c42.66,27.25,86.77,55.44,114.45,96.58,23.31,34.64,28.21,69.95,29.89,96.83,1.06,17.05,1.56,39-4,57.48-7.23,23.87-24,40.46-40.23,56.51-13,12.83-26.43,26.14-34.91,43.1-4.59,9.18-7.82,19.62-10.93,29.71-2.93,9.48-6,19.28-10.12,28.08-16.73,35.34-53.58,55.31-101.11,54.78-42.27-.47-83.09-25.86-124.79-77.62-22.34-27.74-34.89-57.86-47-87-4.19-10.06-8.53-20.46-13.19-30.58-4.38-9.5-9.27-19.2-14-28.59-10-19.83-20.33-40.33-26.47-60.12-9.11-29.37-8.66-56.58,1.28-76.62,6.23-12.57,16.09-22.37,25.67-31.76,11.77-11.7,24-23.69,29.07-41A132.24,132.24,0,0,0,164.79,203c1-6.7,2-13.62,4-19.81,4.15-12.7,12.45-22.15,21.3-31.5,1.93-2,3.86-4,5.82-6C206.22,135.49,217.47,126.91,233.4,124.49Zm-98.7,139.8c-9.49,9.41-19.29,19-25.43,31.43C99.54,315.37,99.1,342,108,370.83c6,19.5,16.31,39.85,26.23,59.53,4.75,9.42,9.66,19.17,14.07,28.73,4.7,10.18,9,20.62,13.25,30.72,12,28.84,24.45,58.66,46.34,85.83,40.71,50.54,80.49,75.33,121.6,75.79,46.91.52,83.27-19.19,99.78-54h0c4.13-8.71,7.14-18.47,10.05-27.9,3.13-10.15,6.37-20.64,11-29.92,8.58-17.14,22.07-30.53,35.14-43.42,16.1-15.86,32.77-32.42,39.91-56,5.52-18.22,5-39.94,4-56.83-1.65-26.49-6.46-61.24-29.21-95.07-27-40.18-70.65-68.05-112.84-95l-5.58-3.57q-5.43-3.48-10.87-7c-21-13.53-42.71-27.52-64.34-38.16-20-9.82-48.55-20.79-71.5-17.3-18.51,2.81-30.68,14.28-42.52,26.79-8.76,9.25-17,18.58-21,31-2,6.06-3,12.91-3.93,19.54a133.6,133.6,0,0,1-3.47,18.15c-4.93,16.81-16.36,28.65-27.74,39.91Z"/><path class="cls-2" d="M236.88,136.84c22.45-3.41,50.3,7.26,69.71,16.81,20.83,10.24,41.62,23.64,61.74,36.6l10.34,6.64,5.33,3.41c40.62,26,82.62,52.79,109,92,22.19,33,26.87,66.62,28.46,92.22,1,16.24,1.49,37.13-3.85,54.74-6.89,22.74-22.83,38.57-38.32,53.82C466.89,505.34,454.1,518,446,534.1c-4.38,8.74-7.44,18.68-10.41,28.3-2.79,9-5.67,18.37-9.64,26.75h0c-15.93,33.65-51,52.67-96.29,52.17-40.26-.45-79.13-24.63-118.84-73.93C189.55,541,177.6,512.29,166,484.54c-4-9.58-8.12-19.49-12.57-29.13-4.17-9-8.83-18.27-13.33-27.21-9.53-18.89-19.37-38.43-25.22-57.28-8.67-28-8.24-53.88,1.22-73,5.93-12,15.27-21.22,24.45-30.25,11.29-11.14,22.86-22.57,27.69-39a125.9,125.9,0,0,0,3.26-17.07c.92-6.38,1.88-13,3.8-18.87,4-12.09,11.85-21.09,20.29-30,1.83-1.93,3.67-3.84,5.54-5.69C211,147.32,221.7,139.14,236.88,136.84ZM142.88,270c-9.05,8.95-18.38,18.14-24.22,29.94-9.27,18.71-9.69,44.11-1.19,71.52,5.76,18.57,15.54,38,25,56.71,4.52,9,9.19,18.24,13.39,27.34,4.47,9.7,8.62,19.64,12.62,29.26,11.45,27.46,23.28,55.86,44.13,81.74,38.77,48.13,76.66,71.74,115.81,72.18,44.66.5,79.3-18.26,95-51.47,3.93-8.3,6.8-17.59,9.57-26.57,3-9.66,6.07-19.66,10.49-28.5,8-15.91,20.38-28.4,32.53-40.42l1.88-1.86C493,475,508.32,459.45,515,437.48c5.26-17.36,4.78-38,3.78-54.12-1.57-25.24-6.15-58.33-27.82-90.54C465.2,254.55,423.67,228,383.5,202.35l-5.34-3.41c-3.45-2.2-6.9-4.43-10.35-6.65-20-12.89-40.68-26.21-61.27-36.35-19-9.35-46.25-19.79-68.09-16.48-17.63,2.68-29.22,13.59-40.5,25.52-8.34,8.81-16.15,17.7-20,29.54-1.89,5.77-2.83,12.3-3.74,18.62a127.09,127.09,0,0,1-3.31,17.28c-4.69,16-15.58,27.28-26.41,38Z"/><path class="cls-2" d="M240.35,149.19c21.33-3.24,47.78,6.89,66.22,16,19.79,9.73,39.55,22.47,58.66,34.78l9.8,6.31,5,3.22c38.6,24.66,78.51,50.16,103.55,87.38,21.08,31.34,25.53,63.28,27,87.62,1,15.43,1.41,35.27-3.65,52-6.54,21.6-21.65,36.55-36.4,51.13-11.69,11.56-23.91,23.65-31.58,39-4.15,8.31-7.07,17.75-9.89,26.88-2.65,8.58-5.39,17.45-9.16,25.41-15.15,32-48.48,50-91.48,49.56-38.24-.42-75.18-23.4-112.9-70.23-20.22-25.09-31.57-52.34-42.56-78.7-3.79-9.1-7.72-18.52-11.94-27.67-4-8.59-8.38-17.37-12.67-25.85-9-17.94-18.4-36.5-24-54.41-8.24-26.57-7.83-51.19,1.15-69.32,5.64-11.38,14.58-20.19,23.22-28.74,10.67-10.54,21.71-21.44,26.3-37.09a119.75,119.75,0,0,0,3.1-16.22c.88-6.06,1.78-12.33,3.61-17.93,3.75-11.48,11.25-20,19.27-28.5,1.74-1.84,3.48-3.65,5.26-5.41C215.75,159.15,225.94,151.37,240.35,149.19ZM151.06,275.68c-8.59,8.49-17.46,17.24-23,28.44-8.81,17.77-9.21,41.9-1.13,67.95,5.47,17.65,14.76,36.06,23.73,53.87,4.3,8.52,8.74,17.33,12.72,26,4.25,9.21,8.19,18.66,12,27.79,10.87,26.09,22.12,53.07,41.92,77.65,36.83,45.73,72.83,68.16,110,68.57,42.43.47,75.34-17.35,90.27-48.9,3.73-7.88,6.46-16.71,9.1-25.25,2.84-9.18,5.77-18.67,10-27.07,7.57-15.13,19.38-27,30.92-38.43l1.73-1.71c14.31-14.16,28.92-28.9,35.25-49.79,5-16.49,4.54-36.14,3.59-51.42-1.49-24-5.85-55.41-26.43-86-24.46-36.36-63.92-61.57-102.09-86l-5-3.23q-4.91-3.14-9.82-6.31c-19-12.25-38.65-24.91-58.22-34.54-18.05-8.88-43.93-18.81-64.69-15.65-16.74,2.54-27.74,12.93-38.47,24.24-7.92,8.38-15.34,16.82-19,28.06-1.79,5.48-2.69,11.69-3.56,17.68a120.78,120.78,0,0,1-3.15,16.42c-4.46,15.21-14.8,25.92-25.1,36.11Z"/><path class="cls-2" d="M243.83,161.54c20.2-3.07,45.27,6.53,62.74,15.12,18.75,9.22,37.48,21.29,55.58,33l9.29,6,4.77,3c36.57,23.36,74.39,47.52,98.11,82.79,20,29.69,24.18,60,25.62,83,.91,14.62,1.34,33.42-3.46,49.26-6.2,20.46-20.64,34.69-34.49,48.44-11.17,11.08-22.65,22.4-29.92,36.94-3.94,7.87-6.7,16.82-9.37,25.47-2.51,8.13-5.1,16.53-8.68,24.07-14.33,30.3-45.92,47.41-86.66,47-36.23-.4-71.22-22.16-107-66.54-19.15-23.77-29.91-49.59-40.31-74.56-3.6-8.62-7.31-17.54-11.31-26.21-3.75-8.13-7.95-16.45-12-24.5-8.57-17-17.43-34.58-22.69-51.55-7.81-25.17-7.42-48.49,1.09-65.67,5.34-10.77,13.77-19.17,22-27.22,10.13-10,20.57-20.31,24.92-35.14A113.12,113.12,0,0,0,185,228.81c.83-5.74,1.69-11.67,3.42-17,3.56-10.88,10.67-19,18.26-27,1.64-1.74,3.29-3.45,5-5.11C220.52,171,230.17,163.61,243.83,161.54Zm-84.6,119.83c-8.14,8-16.53,16.32-21.79,26.94-8.35,16.84-8.73,39.7-1.07,64.37,5.18,16.71,14,34.16,22.49,51,4.07,8.07,8.28,16.42,12.06,24.62,4,8.73,7.76,17.68,11.36,26.33,10.3,24.72,21,50.27,39.71,73.56,34.9,43.32,69,64.57,104.23,65,40.2.45,71.37-16.44,85.52-46.32h0c3.53-7.47,6.12-15.83,8.61-23.91,2.69-8.7,5.46-17.69,9.44-25.65,7.17-14.33,18.36-25.58,29.29-36.4l1.64-1.63c13.55-13.41,27.4-27.38,33.39-47.16,4.73-15.62,4.3-34.23,3.41-48.71-1.42-22.71-5.54-52.5-25-81.49-23.17-34.45-60.57-58.34-96.73-81.44l-4.77-3-9.3-6c-18-11.6-36.62-23.6-55.16-32.72-17.11-8.41-41.63-17.82-61.29-14.83-15.86,2.41-26.29,12.25-36.45,23-7.5,7.93-14.53,15.93-18,26.59-1.7,5.19-2.54,11.07-3.37,16.75a114.09,114.09,0,0,1-3,15.56c-4.22,14.42-14,24.56-23.78,34.22Z"/><path class="cls-2" d="M247.3,173.88c19.08-2.9,42.75,6.17,59.25,14.29,17.71,8.71,35.39,20.11,52.49,31.13l8.77,5.64,4.52,2.89C406.87,249.89,442.58,272.7,465,306c18.86,28,22.84,56.62,24.19,78.39.86,13.8,1.27,31.57-3.27,46.53-5.74,18.93-18.88,32.21-31.76,45l-.81.8c-10.55,10.49-21.39,21.16-28.26,34.89-3.72,7.43-6.33,15.88-8.85,24.05-2.37,7.67-4.83,15.61-8.2,22.74h0c-13.55,28.61-43.38,44.77-81.85,44.35-34.22-.38-67.26-20.94-101-62.84-18.09-22.45-28.25-46.84-38.08-70.42-3.39-8.14-6.9-16.56-10.68-24.75-3.54-7.68-7.5-15.54-11.33-23.13-8.09-16.05-16.46-32.66-21.44-48.69-7.37-23.77-7-45.8,1-62,5-10.18,13-18.07,20.78-25.71,9.54-9.47,19.43-19.19,23.53-33.19a107,107,0,0,0,2.78-14.51,97.52,97.52,0,0,1,3.23-16c3.36-10.27,10.07-17.92,17.25-25.5,1.55-1.64,3.12-3.26,4.71-4.84C225.29,182.8,234.41,175.84,247.3,173.88ZM167.41,287.06c-7.69,7.56-15.62,15.42-20.59,25.44-7.88,15.91-8.24,37.5-1,60.8,4.9,15.79,13.21,32.27,21.24,48.2,3.84,7.62,7.82,15.5,11.38,23.24,3.8,8.24,7.32,16.69,10.73,24.86,9.73,23.35,19.79,47.49,37.51,69.48,33,40.92,65.16,61,98.44,61.35,38,.42,67.41-15.52,80.77-43.75,3.34-7.05,5.78-15,8.13-22.59,2.54-8.21,5.16-16.71,8.92-24.22,6.94-13.88,17.92-24.74,28.45-35.14,13-13,26.53-26.25,32.31-45.31,4.47-14.75,4.06-32.33,3.21-46-1.33-21.44-5.23-49.57-23.65-77-21.88-32.53-57.19-55.09-91.34-76.9l-4.52-2.89L358.62,221c-17-11-34.59-22.29-52.1-30.91-16.15-7.94-39.31-16.83-57.88-14-15,2.28-24.82,11.55-34.42,21.69-7.09,7.49-13.73,15-17,25.11A96.39,96.39,0,0,0,194,238.73a107.37,107.37,0,0,1-2.81,14.69c-4,13.61-13.24,23.2-22.46,32.32Z"/><path class="cls-2" d="M250.78,186.23c18-2.73,40.24,5.81,55.77,13.45,16.66,8.2,33.31,18.92,49.4,29.3l8.25,5.31,4.25,2.72c32.5,20.76,66.11,42.24,87.2,73.58,17.75,26.39,21.49,53.29,22.77,73.78.81,13,1.19,29.71-3.08,43.79-5.4,17.81-17.76,30.3-29.88,42.29l-.77.76c-9.95,9.75-20.13,19.91-26.6,32.84-3.5,7-6,14.95-8.33,22.64-2.23,7.22-4.54,14.69-7.71,21.4h0c-12.75,26.92-40.82,42.14-77,41.74-32.2-.36-63.3-19.7-95.07-59.14-17-21.13-26.59-44.08-35.84-66.28-3.2-7.66-6.5-15.59-10.05-23.3-3.34-7.23-7.06-14.63-10.67-21.78-7.62-15.11-15.49-30.73-20.17-45.82-6.94-22.37-6.6-43.1,1-58.38,4.74-9.58,12.28-17,19.55-24.2,9-8.82,18.28-18.05,22.15-31.24A100.76,100.76,0,0,0,198.51,246a91.37,91.37,0,0,1,3-15.09c3.16-9.66,9.48-16.87,16.23-24,1.46-1.55,2.93-3.07,4.43-4.55C230.06,194.62,238.64,188.08,250.78,186.23Zm-75.2,106.52c-7.2,7.11-14.7,14.51-19.38,23.95-7.42,15-7.76,35.29-1,57.22,4.61,14.86,12.42,30.36,20,45.36,3.62,7.18,7.36,14.6,10.72,21.88,3.58,7.76,6.89,15.71,10.1,23.41,9.16,22,18.63,44.69,35.31,65.39,31,38.51,61.33,57.4,92.65,57.75,35.73.4,63.44-14.61,76-41.18,3.14-6.64,5.43-14.07,7.66-21.25,2.39-7.73,4.86-15.73,8.39-22.8,6.36-12.72,16.29-22.71,26-32.31l1.55-1.53c12-11.91,24.31-24.31,29.64-41.88,4.21-13.88,3.83-30.43,3-43.3C475,363.26,471.36,336.78,454,311c-20.6-30.62-53.83-51.85-86-72.38l-4.26-2.72q-4.13-2.64-8.26-5.31c-16-10.31-32.55-21-49-29.09-15.2-7.48-37-15.84-54.48-13.18-14.1,2.14-23.38,10.88-32.4,20.41-6.67,7.05-12.92,14.17-16,23.63a91.07,91.07,0,0,0-3,14.88A102.13,102.13,0,0,1,198,261.09c-3.76,12.82-12.47,21.84-21.15,30.43Z"/><path class="cls-2" d="M254.25,198.58C271.09,196,292,204,306.53,211.19c15.62,7.68,31.21,17.73,46.3,27.45l7.76,5,4,2.56c30.47,19.46,62,39.59,81.73,69,16.64,24.75,20.15,50,21.35,69.17.76,12.18,1.12,27.85-2.89,41.05-5.17,17.05-17.15,28.88-28.74,40.37-9.25,9.19-18.87,18.67-24.93,30.78-3.28,6.56-5.58,14-7.81,21.22-2.09,6.77-4.25,13.78-7.23,20.07-12,25.23-38.27,39.51-72.22,39.13-30.19-.33-59.35-18.47-89.13-55.45-16-19.81-24.92-41.32-33.6-62.13-3-7.19-6.09-14.62-9.43-21.85-3.13-6.78-6.62-13.71-10-20.41-7.14-14.17-14.53-28.82-18.91-43-6.51-21-6.18-40.41.91-54.73,4.45-9,11.51-16,18.34-22.69,8.42-8.34,17.15-16.93,20.76-29.28a94.64,94.64,0,0,0,2.45-12.81,85.55,85.55,0,0,1,2.85-14.14c3-9.07,8.89-15.82,15.21-22.5,1.37-1.45,2.74-2.87,4.15-4.26C234.83,206.45,242.87,200.31,254.25,198.58Zm-70.5,99.86c-6.82,6.69-13.78,13.6-18.17,22.45-7,14-7.27,33.08-.89,53.64,4.32,13.93,11.65,28.47,18.74,42.52,3.39,6.73,6.9,13.69,10,20.51,3.35,7.27,6.46,14.73,9.47,21.95,8.58,20.6,17.46,41.9,33.09,61.3,29.08,36.1,57.5,53.81,86.86,54.13,33.5.37,59.47-13.7,71.26-38.61h0c2.95-6.22,5.1-13.19,7.18-19.94,2.24-7.24,4.55-14.74,7.86-21.36,6.12-12.24,15.8-21.72,25.1-31,11.5-11.37,23.41-23.16,28.51-40,3.94-13,3.59-28.53,2.83-40.59-1.18-18.92-4.61-43.74-20.86-67.9-19.3-28.7-50.45-48.6-80.58-67.85l-4-2.56-7.77-5c-15-9.67-30.5-19.66-45.95-27.26-14.25-7-34.68-14.85-51.07-12.36-13.21,2-21.9,10.19-30.37,19.14-6.25,6.61-12.11,13.28-15,22.15a85.06,85.06,0,0,0-2.81,14,95.42,95.42,0,0,1-2.48,13c-3.52,12-11.68,20.46-19.81,28.5Z"/><path class="cls-2" d="M257.73,210.93c15.71-2.39,35.21,5.08,48.8,11.76,14.57,7.17,29.12,16.54,43.2,25.61L357,253l3.73,2.39c28.44,18.17,57.84,37,76.29,64.38,15.53,23.09,18.81,46.63,19.92,64.56.71,11.37,1,26-2.69,38.32-4.73,15.61-15.57,26.54-26.19,37.05l-1.26,1.25c-8.46,8.37-17.12,17.07-22.64,28.11-3.06,6.12-5.21,13.08-7.29,19.81a141.91,141.91,0,0,1-6.75,18.72c-11.15,23.55-35.72,36.87-67.4,36.52-28.18-.31-55.39-17.24-83.19-51.75-14.9-18.49-23.27-38.57-31.36-58-2.79-6.71-5.68-13.64-8.79-20.39-2.92-6.32-6.18-12.79-9.33-19-6.66-13.22-13.56-26.9-17.65-40.1-6.07-19.58-5.77-37.72.85-51.08,4.16-8.38,10.7-14.87,17.11-21.17,7.86-7.75,16-15.79,19.38-27.33a88.08,88.08,0,0,0,2.29-12,80.26,80.26,0,0,1,2.66-13.2c2.77-8.46,8.3-14.76,14.21-21,1.28-1.35,2.57-2.69,3.88-4C239.6,218.27,247.11,212.54,257.73,210.93Zm-65.8,93.2c-6.36,6.29-12.86,12.7-17,21-6.49,13.1-6.78,30.88-.84,50.07,4,13,10.87,26.57,17.49,39.7,3.17,6.28,6.44,12.77,9.37,19.14,3.13,6.79,6,13.75,8.84,20.48,8,19.22,16.29,39.1,30.89,57.22,27.14,33.69,53.66,50.22,81.07,50.52,31.27.35,55.51-12.79,66.52-36h0a140.93,140.93,0,0,0,6.7-18.6c2.09-6.77,4.25-13.76,7.35-19.95,5.58-11.15,14.29-19.9,22.8-28.32l1.26-1.25c10.54-10.43,21.31-21.3,26-36.69,3.68-12.15,3.35-26.63,2.65-37.88-1.1-17.66-4.31-40.83-19.48-63.38-18-26.79-47.09-45.36-75.21-63.33l-3.73-2.38-7.26-4.67c-14-9-28.47-18.34-42.88-25.43-13.3-6.54-32.37-13.86-47.67-11.53-12.34,1.87-20.44,9.54-28.35,17.86-5.84,6.17-11.31,12.39-14,20.68a79.55,79.55,0,0,0-2.62,13,88.84,88.84,0,0,1-2.32,12.1c-3.29,11.21-10.91,19.1-18.5,26.61Z"/><path class="cls-2" d="M261.2,223.28c14.59-2.22,32.69,4.72,45.31,10.92,13.54,6.66,27.07,15.38,40.15,23.81l6.69,4.3,3.44,2.2c26.42,16.88,53.73,34.32,70.87,59.8,14.42,21.43,17.46,43.3,18.5,59.94.66,10.56,1,24.14-2.5,35.58-4.38,14.47-14.43,24.62-24.27,34.36l-.63.63c-8.06,8-16.36,16.18-21.61,26.68-2.84,5.68-4.84,12.14-6.77,18.39a132,132,0,0,1-6.26,17.39h0c-10.36,21.89-33.17,34.24-62.59,33.91-26.17-.29-51.43-16-77.25-48.06-13.83-17.17-21.6-35.81-29.11-53.85-2.6-6.23-5.28-12.67-8.17-18.93-2.71-5.87-5.74-11.89-8.67-17.69-6.19-12.28-12.59-25-16.39-37.22-5.64-18.18-5.36-35,.79-47.43,3.86-7.78,10-13.82,15.89-19.66,7.27-7.18,14.86-14.67,18-25.38a81.72,81.72,0,0,0,2.12-11.1,74.47,74.47,0,0,1,2.47-12.26c2.57-7.86,7.7-13.71,13.19-19.5,1.19-1.25,2.38-2.49,3.6-3.69C244.37,230.09,251.34,224.78,261.2,223.28Zm-61.1,86.54c-5.84,5.75-11.94,11.79-15.74,19.45-6,12.16-6.3,28.67-.78,46.49,3.74,12.07,10.09,24.67,16.24,36.85,2.94,5.83,6,11.86,8.71,17.78,2.91,6.31,5.6,12.77,8.21,19,7.44,17.85,15.13,36.31,28.68,53.13,25.2,31.29,49.83,46.64,75.28,46.92,29,.32,51.55-11.87,61.77-33.46h0a131.24,131.24,0,0,0,6.22-17.27c1.94-6.28,3.95-12.78,6.82-18.52,5.17-10.33,13.23-18.44,21.11-26.24l.64-.64c10-9.89,20.29-20.07,24.71-34.65,3.42-11.27,3.11-24.72,2.46-35.18-1-16.4-4-37.92-18.08-58.85-16.74-24.88-43.75-42.13-69.87-58.82l-3.44-2.2-6.7-4.31c-13-8.38-26.46-17.05-39.86-23.64-12.35-6.08-30.06-12.87-44.26-10.71-11.46,1.74-19,8.85-26.32,16.58-5.42,5.72-10.5,11.51-13,19.2a73.53,73.53,0,0,0-2.43,12.09,81.89,81.89,0,0,1-2.16,11.24c-3,10.41-10.12,17.73-17.16,24.7Z"/><path class="cls-2" d="M264.68,235.62c13.47-2,30.18,4.36,41.83,10.09,12.5,6.15,25,14.19,37,22l6.2,4,3.19,2c24.37,15.57,49.58,31.68,65.39,55.18,13.31,19.79,16.12,40,17.08,55.34.6,9.75.89,22.29-2.31,32.84-4.06,13.39-13.37,22.77-22.48,31.78l-1,1c-7.26,7.19-14.7,14.66-19.44,24.13-2.63,5.25-4.47,11.21-6.25,17a122,122,0,0,1-5.78,16h0c-9.57,20.19-30.62,31.61-57.78,31.3-24.15-.27-47.48-14.78-71.3-44.36-12.77-15.85-19.94-33.06-26.88-49.71-2.4-5.75-4.87-11.69-7.54-17.47-2.5-5.42-5.29-11-8-16.32-5.71-11.34-11.62-23.06-15.13-34.37-5.2-16.78-4.95-32.33.73-43.78,3.56-7.18,9.28-12.79,14.67-18.15,6.77-6.69,13.72-13.54,16.61-23.43a75.19,75.19,0,0,0,2-10.25,68.17,68.17,0,0,1,2.28-11.31c2.37-7.25,7.11-12.65,12.17-18,1.1-1.16,2.2-2.31,3.33-3.42C249.14,241.91,255.58,237,264.68,235.62Zm-56.4,79.89c-5.48,5.36-11,10.89-14.53,18-5.56,11.22-5.82,26.46-.71,42.91,3.46,11.15,9.32,22.78,15,34,2.71,5.38,5.51,10.94,8,16.4,2.68,5.82,5.17,11.78,7.57,17.55,6.87,16.48,14,33.52,26.48,49,23.27,28.89,46,43.05,69.49,43.31,26.8.3,47.58-11,57-30.88a120.71,120.71,0,0,0,5.74-15.94c1.79-5.8,3.64-11.8,6.3-17.1,4.79-9.57,12.26-17.08,19.57-24.31l.51-.51c9.23-9,18.73-18.52,22.81-32,3.15-10.4,2.87-22.82,2.27-32.47-.94-15.14-3.69-35-16.69-54.32-15.45-23-40.37-38.89-64.47-54.28l-3.2-2-6.21-4c-12-7.73-24.41-15.73-36.76-21.81-11.4-5.61-27.75-11.87-40.86-9.89-10.58,1.61-17.52,8.15-24.3,15.31-5,5.29-9.69,10.62-12,17.73a67.85,67.85,0,0,0-2.24,11.16,76.13,76.13,0,0,1-2,10.37c-2.81,9.6-9.34,16.36-15.84,22.8Z"/><path class="cls-2" d="M268.15,248c12.34-1.88,27.66,4,38.34,9.24,11.46,5.63,22.9,13,34,20.14l5.69,3.65,2.92,1.86c22.35,14.28,45.46,29,60,50.59,12.2,18.14,14.78,36.64,15.65,50.72.56,8.93.82,20.43-2.11,30.1-3.79,12.51-12.54,21.18-21.07,29.6-6.85,6.77-13.84,13.69-18.28,22.57A103.16,103.16,0,0,0,377.46,482a111.68,111.68,0,0,1-5.31,14.72c-8.75,18.52-28.06,29-53,28.69-22.14-.24-43.52-13.54-65.36-40.66-11.71-14.53-18.28-30.31-24.64-45.57-2.2-5.27-4.47-10.72-6.91-16-2.29-5-4.86-10.07-7.34-15-5.23-10.39-10.64-21.12-13.86-31.49-4.77-15.38-4.53-29.63.67-40.13,3.27-6.59,8.47-11.7,13.45-16.64,6.13-6.1,12.57-12.41,15.23-21.48a69,69,0,0,0,1.79-9.39,63.19,63.19,0,0,1,2.09-10.37c2.17-6.65,6.52-11.6,11.16-16.5,1-1.07,2-2.11,3-3.13C253.91,253.74,259.81,249.24,268.15,248Zm-51.7,73.23c-5,4.93-10.11,10-13.32,16.46C198,348,197.8,361.93,202.48,377c3.17,10.21,8.54,20.87,13.74,31.17,2.49,4.94,5.06,10,7.37,15.05,2.46,5.34,4.74,10.8,6.94,16.09,6.3,15.1,12.81,30.73,24.27,45,21.33,26.47,42.17,39.46,63.7,39.7,24.57.28,43.61-10,52.26-28.31h0A111.34,111.34,0,0,0,376,481.05a103.38,103.38,0,0,1,5.77-15.66c4.38-8.76,11.22-15.63,17.91-22.25l1-1c8.28-8.2,16.75-16.73,20.41-28.83,2.89-9.54,2.63-20.92,2.08-29.76-.86-13.88-3.39-32.08-15.3-49.8-14.16-21.05-37-35.65-59.11-49.77l-2.92-1.87-5.69-3.66c-11-7.09-22.37-14.42-33.7-20C296,253.34,281,247.59,269,249.42c-9.7,1.48-16.06,7.48-22.27,14-4.59,4.85-8.89,9.74-11,16.25a62.06,62.06,0,0,0-2.06,10.23,70,70,0,0,1-1.82,9.51c-2.58,8.8-8.57,15-14.53,20.9Z"/><path class="cls-2" d="M271.63,260.32c11.22-1.7,25.15,3.63,34.85,8.41,10.41,5.12,20.81,11.82,30.86,18.3l5.17,3.32,2.68,1.71c20.31,13,41.3,26.39,54.48,46,11.1,16.49,13.43,33.31,14.24,46.11.5,8.12.74,18.57-1.93,27.37-3.37,11.14-11.11,19-18.69,26.45l-.93.92c-6,6-12.22,12.19-16.16,20.06A93.84,93.84,0,0,0,371,473.1a101.89,101.89,0,0,1-4.82,13.37c-8,16.83-25.52,26.33-48.15,26.08-20.13-.22-39.56-12.31-59.42-37C248,462.39,242,448,236.21,434.18c-2-4.79-4.06-9.75-6.28-14.57-2.08-4.52-4.41-9.14-6.66-13.6-4.76-9.44-9.68-19.21-12.61-28.64-4.34-14-4.12-26.94.61-36.49,3-6,7.66-10.69,12.22-15.12,5.62-5.58,11.43-11.28,13.84-19.52A63.08,63.08,0,0,0,239,297.7a57.37,57.37,0,0,1,1.9-9.43c2-6,5.93-10.55,10.14-15,.91-1,1.83-1.92,2.76-2.84C258.68,265.57,264,261.48,271.63,260.32Zm-47,66.57c-4.53,4.48-9.18,9.07-12.11,15-4.64,9.36-4.85,22.06-.6,35.76,2.88,9.29,7.77,19,12.49,28.36,2.26,4.48,4.6,9.12,6.69,13.66,2.24,4.85,4.31,9.82,6.31,14.63,5.72,13.73,11.64,27.93,22.06,40.87,19.39,24.07,38.33,35.87,57.91,36.09,22.33.25,39.65-9.13,47.51-25.73h0a100.72,100.72,0,0,0,4.79-13.29A94.07,94.07,0,0,1,374.94,458c4-8,10.2-14.21,16.27-20.22l.93-.92c7.53-7.45,15.21-15.2,18.54-26.19,2.63-8.67,2.39-19,1.89-27.06-.78-12.62-3.08-29.16-13.91-45.27-12.87-19.13-33.63-32.39-53.71-45.23l-2.68-1.71L337.09,288c-10-6.44-20.34-13.11-30.63-18.17-9.5-4.68-23.12-9.9-34-8.24-8.81,1.34-14.6,6.81-20.25,12.76-4.17,4.4-8.07,8.84-10,14.77a56.63,56.63,0,0,0-1.87,9.3,63.48,63.48,0,0,1-1.66,8.64c-2.35,8-7.79,13.65-13.21,19Z"/><path class="cls-2" d="M275.1,272.67c10.11-1.53,22.64,3.27,31.37,7.56,9.37,4.61,18.72,10.64,27.77,16.47l4.66,3,2.4,1.54c18.28,11.68,37.18,23.75,49,41.39,10,14.84,12.09,30,12.81,41.5.46,7.31.67,16.71-1.73,24.63-3.1,10.23-10.27,17.34-17.24,24.22-5.58,5.49-11.33,11.2-15,18.47a84,84,0,0,0-4.69,12.73,91,91,0,0,1-4.34,12c-7.17,15.14-23,23.71-43.33,23.48-18.12-.2-35.61-11.09-53.48-33.27-9.58-11.89-15-24.8-20.16-37.29-1.8-4.31-3.65-8.76-5.65-13.09-1.87-4.06-4-8.22-6-12.24-4.29-8.5-8.72-17.3-11.35-25.78-3.91-12.59-3.71-24.25.55-32.84,2.67-5.39,6.91-9.59,11-13.61,5-5,10.29-10.15,12.46-17.57a56.72,56.72,0,0,0,1.47-7.68,51.68,51.68,0,0,1,1.71-8.49c1.78-5.44,5.33-9.49,9.13-13.5.82-.87,1.65-1.73,2.49-2.56C263.45,277.39,268.28,273.71,275.1,272.67Zm-42.29,59.91c-4,4-8.27,8.16-10.9,13.47-4.17,8.42-4.36,19.85-.53,32.19,2.59,8.36,7,17.09,11.25,25.53,2,4,4.13,8.2,6,12.3,2,4.36,3.87,8.83,5.67,13.15,5.15,12.36,10.48,25.15,19.86,36.79,17.45,21.66,34.49,32.28,52.12,32.48,20.1.22,35.69-8.22,42.76-23.16a91,91,0,0,0,4.31-12,85,85,0,0,1,4.72-12.83c3.58-7.15,9.16-12.76,14.61-18.16l.45-.44c6.88-6.86,14.05-13.9,17.11-24,2.37-7.81,2.15-17.12,1.7-24.35-.71-11.35-2.77-26.25-12.52-40.74-11.58-17.22-30.27-29.16-48.35-40.71l-2.4-1.54-4.66-3c-9-5.8-18.3-11.79-27.56-16.35-8.55-4.21-20.81-8.9-30.65-7.41-7.93,1.2-13.14,6.11-18.22,11.48-3.75,4-7.27,8-9,13.29a50.87,50.87,0,0,0-1.68,8.37,57.4,57.4,0,0,1-1.49,7.78c-2.11,7.21-7,12.28-11.89,17.1Z"/><path class="cls-2" d="M278.58,285c9-1.36,20.12,2.9,27.88,6.72,8.32,4.1,16.63,9.45,24.67,14.62l4.16,2.68,2.13,1.36c16.26,10.38,33.06,21.12,43.6,36.79,8.88,13.2,10.75,26.65,11.39,36.89.4,6.49.6,14.85-1.54,21.89-2.7,8.92-8.9,15.17-15,21.17l-.73.72c-4.83,4.79-9.78,9.76-12.93,16.06a74.78,74.78,0,0,0-4.16,11.31,80.93,80.93,0,0,1-3.86,10.7h0c-6.37,13.48-20.41,21.07-38.52,20.87-16.1-.18-31.65-9.85-47.54-29.57-8.51-10.57-13.29-22-17.92-33.13-1.6-3.84-3.25-7.8-5-11.65-1.67-3.62-3.53-7.32-5.34-10.9-3.81-7.55-7.74-15.36-10.08-22.9-3.47-11.19-3.3-21.55.49-29.19,2.37-4.79,6.16-8.47,9.78-12.1,4.49-4.45,9.14-9,11.07-15.61a51.33,51.33,0,0,0,1.31-6.83,45.66,45.66,0,0,1,1.52-7.55c1.58-4.83,4.74-8.44,8.11-12,.73-.77,1.47-1.54,2.21-2.28C268.22,289.21,272.51,285.94,278.58,285ZM241,338.28c-3.57,3.56-7.35,7.26-9.69,12-3.71,7.48-3.88,17.64-.48,28.61,2.31,7.42,6.21,15.18,10,22.67,1.81,3.59,3.68,7.31,5.36,11,1.79,3.88,3.44,7.86,5,11.71,4.58,11,9.31,22.34,17.65,32.69,15.51,19.25,30.66,28.7,46.32,28.87,17.87.2,31.72-7.3,38-20.59h0A81.11,81.11,0,0,0,357,454.53a75.5,75.5,0,0,1,4.19-11.39c3.19-6.37,8.17-11.37,13-16.18l.72-.71c6-6,12.18-12.17,14.84-21,2.11-6.95,1.92-15.22,1.51-21.65-.63-10.09-2.46-23.32-11.13-36.21-10.3-15.31-26.91-25.92-43-36.19l-2.13-1.36-4.17-2.68c-8-5.15-16.25-10.47-24.48-14.52-7.6-3.74-18.5-7.92-27.24-6.59-7.05,1.07-11.69,5.46-16.19,10.2-3.34,3.53-6.46,7.09-8,11.82a45.18,45.18,0,0,0-1.5,7.45,51.1,51.1,0,0,1-1.32,6.91c-1.88,6.41-6.24,10.92-10.58,15.21Z"/><path class="cls-2" d="M282.05,297.37c7.86-1.19,17.6,2.54,24.4,5.88a223.42,223.42,0,0,1,21.62,12.82l3.6,2.32,1.86,1.19c14.22,9.08,28.92,18.48,38.14,32.19,7.77,11.54,9.41,23.31,10,32.28.35,5.69.52,13-1.35,19.16-2.36,7.8-7.78,13.26-13.08,18.51l-.66.65c-4.23,4.18-8.55,8.53-11.31,14a66,66,0,0,0-3.65,9.9,71.13,71.13,0,0,1-3.37,9.36h0c-5.58,11.8-17.87,18.44-33.7,18.26-14.09-.16-27.69-8.62-41.6-25.87-7.45-9.25-11.63-19.28-15.68-29-1.4-3.35-2.84-6.82-4.4-10.2-1.46-3.16-3.09-6.39-4.66-9.52-3.34-6.61-6.78-13.45-8.83-20.05-3-9.79-2.89-18.86.42-25.54,2-3.95,5-7.06,8-10l.56-.55c3.91-3.92,8-7.91,9.69-13.67a43.94,43.94,0,0,0,1.14-6,40.14,40.14,0,0,1,1.33-6.61c1.38-4.23,4.15-7.38,7.1-10.5q1-1,1.94-2C273,301,276.74,298.18,282.05,297.37ZM249.15,344c-3.15,3.17-6.43,6.35-8.48,10.48-3.24,6.55-3.39,15.44-.42,25,2,6.5,5.44,13.29,8.75,19.86,1.58,3.13,3.22,6.38,4.68,9.56,1.57,3.4,3,6.88,4.42,10.24,4,9.61,8.15,19.55,15.44,28.61,13.57,16.85,26.83,25.11,40.54,25.26,15.63.17,27.76-6.39,33.26-18h0a70.74,70.74,0,0,0,3.35-9.3,65.91,65.91,0,0,1,3.67-10c2.79-5.57,7.13-9.94,11.38-14.15l.66-.65c5.27-5.21,10.65-10.64,13-18.33,1.84-6.07,1.67-13.31,1.32-18.94-.55-8.83-2.15-20.42-9.74-31.69-9-13.39-23.55-22.68-37.61-31.67l-1.87-1.19-3.61-2.32a221.24,221.24,0,0,0-21.46-12.73c-6.65-3.27-16.18-6.93-23.83-5.77-6.17.94-10.22,4.77-14.17,8.93-2.92,3.08-5.65,6.19-7,10.34a39.61,39.61,0,0,0-1.31,6.52,44.69,44.69,0,0,1-1.16,6c-1.64,5.61-5.45,9.55-9.25,13.31Z"/><path class="cls-2" d="M285.53,309.72c6.73-1,15.09,2.18,20.91,5a191,191,0,0,1,18.54,11l3.08,2,1.59,1c12.19,7.79,24.8,15.84,32.71,27.6,6.66,9.9,8.06,20,8.54,27.67.3,4.87.45,11.14-1.15,16.42-2,6.67-6.65,11.35-11.19,15.84l-.62.61c-3.61,3.58-7.3,7.29-9.66,12a56.62,56.62,0,0,0-3.12,8.49,60.37,60.37,0,0,1-2.89,8c-4.79,10.1-15.31,15.81-28.89,15.65-12.08-.13-23.74-7.39-35.65-22.18-6.39-7.93-10-16.53-13.44-24.86-1.2-2.87-2.44-5.84-3.77-8.73-1.25-2.72-2.65-5.49-4-8.18-2.85-5.66-5.81-11.52-7.56-17.17-2.6-8.39-2.47-16.16.37-21.89,1.78-3.59,4.63-6.37,7.33-9.08,3.39-3.29,6.86-6.77,8.31-11.71a37.9,37.9,0,0,0,1-5.12,34.41,34.41,0,0,1,1.14-5.66c1.19-3.62,3.56-6.33,6.09-9,.55-.58,1.09-1.14,1.65-1.69C277.75,312.87,281,310.41,285.53,309.72Zm-28.2,39.94c-2.7,2.65-5.51,5.44-7.26,9-2.78,5.61-2.91,13.24-.36,21.46,1.73,5.57,4.66,11.38,7.49,17,1.36,2.69,2.76,5.48,4,8.22,1.34,2.91,2.58,5.89,3.78,8.77,3.44,8.24,7,16.76,13.24,24.53,11.63,14.44,23,21.52,34.74,21.65,13.4.15,23.79-5.48,28.51-15.44h0a60.48,60.48,0,0,0,2.87-8,56.27,56.27,0,0,1,3.15-8.55c2.38-4.76,6.1-8.5,9.73-12.1l.62-.61c4.51-4.46,9.1-9.11,11.1-15.69,1.58-5.21,1.44-11.42,1.13-16.24-.47-7.57-1.84-17.49-8.35-27.16C354,345,341.56,337.07,329.5,329.36l-1.59-1-3.09-2a189.78,189.78,0,0,0-18.4-10.92c-5.7-2.8-13.88-5.94-20.43-4.94-5.29.8-8.77,4.07-12.15,7.65-2.5,2.65-4.85,5.31-6,8.86a34,34,0,0,0-1.12,5.59,37.83,37.83,0,0,1-1,5.18c-1.41,4.81-4.68,8.19-7.93,11.41Z"/><path class="cls-2" d="M289,322.06c5.61-.85,12.58,1.81,17.43,4.2a159.32,159.32,0,0,1,15.42,9.15l2.6,1.67,1.33.85c10.16,6.49,20.66,13.2,27.25,23,5.55,8.25,6.72,16.66,7.11,23.06.25,4.06.38,9.28-1,13.68-1.69,5.6-5.59,9.51-9.4,13.28l-.18.18c-3.08,3-6.29,6.22-8.31,10.26a47,47,0,0,0-2.6,7.08,51.17,51.17,0,0,1-2.41,6.68h0c-4,8.4-12.76,13.17-24.07,13-10.06-.11-19.78-6.16-29.71-18.48-5.32-6.6-8.31-13.77-11.2-20.71-1-2.4-2-4.87-3.14-7.28s-2.21-4.58-3.34-6.82a97.78,97.78,0,0,1-6.3-14.31c-2.17-7-2.06-13.47.3-18.24a27.65,27.65,0,0,1,5.71-7.17l.4-.39c2.82-2.79,5.72-5.64,6.92-9.76a31.17,31.17,0,0,0,.82-4.26,28.66,28.66,0,0,1,1-4.72c1-3,3-5.27,5.07-7.5.46-.48.92-1,1.38-1.42C282.53,324.69,285.21,322.64,289,322.06Zm-23.5,33.29c-2.26,2.23-4.59,4.54-6.06,7.48-2.32,4.68-2.42,11-.3,17.88a97.08,97.08,0,0,0,6.24,14.16c1.13,2.25,2.3,4.57,3.35,6.85s2.16,4.91,3.16,7.32c2.86,6.87,5.82,14,11,20.43,9.69,12,19.17,17.93,29,18,11.16.12,19.82-4.56,23.76-12.87A50.32,50.32,0,0,0,338,428a47.13,47.13,0,0,1,2.63-7.13c2-4,5.14-7.14,8.19-10.17l.35-.35c3.78-3.74,7.65-7.63,9.32-13.15,1.32-4.34,1.2-9.51.94-13.53-.39-6.31-1.54-14.58-7-22.64-6.44-9.57-16.82-16.2-26.86-22.62l-1.33-.85-2.6-1.67a157.7,157.7,0,0,0-15.31-9.08c-4.75-2.34-11.56-5-17-4.12-4.4.67-7.3,3.39-10.13,6.38-2.08,2.2-4,4.43-5,7.38a28.64,28.64,0,0,0-.94,4.66,31.29,31.29,0,0,1-.82,4.31c-1.17,4-3.89,6.82-6.6,9.51Z"/><path class="cls-2" d="M292.48,334.42c4.49-.69,10.06,1.45,13.94,3.36a126.4,126.4,0,0,1,12.33,7.31l2.09,1.34,1.06.67c8.13,5.19,16.54,10.56,21.81,18.4,4.43,6.6,5.37,13.33,5.69,18.45.2,3.25.3,7.43-.77,10.95-1.35,4.45-4.44,7.57-7.47,10.57l-.39.38c-2.42,2.39-4.88,4.87-6.46,8a37.29,37.29,0,0,0-2.08,5.66,40.86,40.86,0,0,1-1.93,5.35h0c-3.19,6.73-10.2,10.54-19.26,10.43-8.05-.09-15.83-4.93-23.77-14.79-4.26-5.28-6.65-11-9-16.57-.8-1.92-1.62-3.9-2.51-5.83s-1.76-3.64-2.65-5.42a78.33,78.33,0,0,1-5.05-11.48c-1.73-5.59-1.65-10.78.24-14.6a22.18,22.18,0,0,1,4.57-5.73l.32-.31c2.24-2.22,4.57-4.52,5.54-7.81a25,25,0,0,0,.65-3.42,23,23,0,0,1,.76-3.77,16.1,16.1,0,0,1,4.06-6c.37-.39.74-.77,1.11-1.15A12.65,12.65,0,0,1,292.48,334.42ZM273.68,361a23.39,23.39,0,0,0-4.85,6c-1.85,3.75-1.93,8.83-.24,14.31a77.7,77.7,0,0,0,5,11.36c.9,1.79,1.83,3.64,2.67,5.45s1.72,3.93,2.52,5.85c2.29,5.49,4.66,11.17,8.83,16.35,7.75,9.63,15.33,14.35,23.16,14.44,8.94.1,15.86-3.64,19-10.29h0a40.73,40.73,0,0,0,1.91-5.31,37.71,37.71,0,0,1,2.1-5.7c1.59-3.18,4.07-5.68,6.5-8.08l.38-.38c3-3,6.08-6.08,7.41-10.47,1.05-3.47,1-7.61.76-10.82-.31-5-1.23-11.67-5.56-18.11-5.15-7.66-13.46-13-21.5-18.1l-1.06-.68-2.09-1.34a127.07,127.07,0,0,0-12.23-7.26c-3.8-1.87-9.25-4-13.62-3.29-3.53.53-5.85,2.72-8.1,5.1a16,16,0,0,0-4,5.91,23,23,0,0,0-.75,3.72,25.24,25.24,0,0,1-.66,3.46c-.94,3.2-3.11,5.45-5.28,7.6Z"/><path class="cls-2" d="M296,346.76c3.36-.51,7.54,1.09,10.46,2.52a95.66,95.66,0,0,1,9.24,5.48l1.57,1,.81.52c6.09,3.89,12.38,7.92,16.34,13.79a26.89,26.89,0,0,1,4.27,13.83,24.36,24.36,0,0,1-.58,8.21c-1,3.34-3.34,5.69-5.61,7.94l-.27.27a23.63,23.63,0,0,0-4.85,6,28.09,28.09,0,0,0-1.56,4.25,30.46,30.46,0,0,1-1.45,4h0c-2.38,5-7.65,7.9-14.44,7.83-6-.07-11.87-3.69-17.83-11.09-3.19-4-5-8.26-6.72-12.42-.6-1.44-1.22-2.92-1.89-4.37s-1.32-2.74-2-4.08a58.39,58.39,0,0,1-3.78-8.59c-1.3-4.2-1.24-8.08.18-10.95a16.59,16.59,0,0,1,3.43-4.31l.47-.46c1.61-1.59,3.23-3.27,3.92-5.63a19.17,19.17,0,0,0,.49-2.56,16.88,16.88,0,0,1,.57-2.83,12.06,12.06,0,0,1,3-4.5l.83-.85A9.53,9.53,0,0,1,296,346.76ZM281.62,367a16.52,16.52,0,0,0-3.4,4.26c-1.39,2.81-1.45,6.62-.18,10.73a58.46,58.46,0,0,0,3.75,8.51c.68,1.34,1.38,2.74,2,4.1s1.29,2.95,1.9,4.39c1.72,4.12,3.49,8.38,6.62,12.26,5.82,7.22,11.5,10.76,17.37,10.83,6.7.08,11.89-2.74,14.25-7.72h0a30.68,30.68,0,0,0,1.43-4,28.16,28.16,0,0,1,1.57-4.28,23.79,23.79,0,0,1,4.89-6.07l.27-.27c2.26-2.23,4.57-4.56,5.57-7.86a24.15,24.15,0,0,0,.57-8.12,26.37,26.37,0,0,0-4.17-13.58C330.2,364.42,324,360.44,318,356.6l-.81-.52-1.57-1a94.44,94.44,0,0,0-9.17-5.44c-2.85-1.4-6.94-3-10.22-2.47-2.65.4-4.39,2.06-6.08,3.83a12,12,0,0,0-3,4.43,17,17,0,0,0-.56,2.79,19.26,19.26,0,0,1-.5,2.6c-.7,2.4-2.34,4.09-4,5.7Z"/><path class="cls-2" d="M299.43,359.11c2.25-.34,5,.73,7,1.68a63.84,63.84,0,0,1,6.12,3.63l1.08.7.54.34c4.06,2.6,8.26,5.28,10.89,9.19a17.87,17.87,0,0,1,2.85,9.23,16.3,16.3,0,0,1-.38,5.47,12.79,12.79,0,0,1-3.72,5.27l-.23.23a15.73,15.73,0,0,0-3.21,4,18.93,18.93,0,0,0-1,2.82,20.24,20.24,0,0,1-1,2.68h0c-1.6,3.36-5.1,5.27-9.63,5.22-4,0-7.91-2.46-11.89-7.39a32.36,32.36,0,0,1-4.48-8.29c-.4-1-.82-1.95-1.26-2.91s-.88-1.83-1.34-2.72a39.1,39.1,0,0,1-2.52-5.72,10,10,0,0,1,.12-7.3,11.05,11.05,0,0,1,2.28-2.86L290,372a8.9,8.9,0,0,0,2.6-3.75,12.73,12.73,0,0,0,.33-1.71,11.31,11.31,0,0,1,.38-1.88,8.06,8.06,0,0,1,2-3l.56-.58A6.33,6.33,0,0,1,299.43,359.11Zm-9.56,13.48a10.87,10.87,0,0,0-2.26,2.83,9.77,9.77,0,0,0-.12,7.15,38.58,38.58,0,0,0,2.5,5.67c.45.9.92,1.83,1.34,2.74s.86,2,1.26,2.93a32.15,32.15,0,0,0,4.41,8.17c3.88,4.81,7.67,7.18,11.58,7.22,4.47.05,7.93-1.82,9.5-5.15h0a20.23,20.23,0,0,0,1-2.66,18.64,18.64,0,0,1,1-2.85,15.7,15.7,0,0,1,3.23-4l.23-.23a12.72,12.72,0,0,0,3.69-5.22,16.1,16.1,0,0,0,.38-5.41,17.62,17.62,0,0,0-2.78-9.05c-2.57-3.82-6.73-6.48-10.74-9l-.53-.34-1.08-.7a63.28,63.28,0,0,0-6.08-3.6c-1.9-.93-4.62-2-6.81-1.65a7,7,0,0,0-4.05,2.55,8,8,0,0,0-2,3,11.13,11.13,0,0,0-.37,1.86,12.69,12.69,0,0,1-.33,1.73,9,9,0,0,1-2.64,3.8Z"/><path class="cls-2" d="M302.9,371.46a6.55,6.55,0,0,1,3.48.84,31.18,31.18,0,0,1,3.08,1.83l.52.33.24.15c2,1.3,4.15,2.65,5.48,4.61a9,9,0,0,1,1.42,4.61,8,8,0,0,1-.19,2.74,6.41,6.41,0,0,1-1.86,2.63l-.12.12a7.94,7.94,0,0,0-1.6,2,9.87,9.87,0,0,0-.52,1.41,10,10,0,0,1-.48,1.34h0a4.91,4.91,0,0,1-4.81,2.61c-2,0-4-1.23-5.94-3.7a16.16,16.16,0,0,1-2.24-4.14c-.2-.48-.4-1-.63-1.46s-.44-.9-.66-1.34a19.39,19.39,0,0,1-1.27-2.88,5,5,0,0,1,.06-3.65,5.51,5.51,0,0,1,1.13-1.43l.17-.17a4.44,4.44,0,0,0,1.3-1.87,6.85,6.85,0,0,0,.16-.85,5.67,5.67,0,0,1,.19-.94,4,4,0,0,1,1-1.5l.27-.27A3.2,3.2,0,0,1,302.9,371.46Zm-4.79,6.74a5.44,5.44,0,0,0-1.13,1.41,4.92,4.92,0,0,0-.06,3.58,19.54,19.54,0,0,0,1.26,2.85c.22.44.46.9.66,1.35s.43,1,.63,1.46a16.12,16.12,0,0,0,2.21,4.09c1.94,2.4,3.83,3.59,5.79,3.61a4.86,4.86,0,0,0,4.75-2.57h0a10.14,10.14,0,0,0,.48-1.33,9.51,9.51,0,0,1,.52-1.42,7.86,7.86,0,0,1,1.61-2l.12-.12a6.35,6.35,0,0,0,1.84-2.61,8.12,8.12,0,0,0,.19-2.71,8.77,8.77,0,0,0-1.39-4.53c-1.29-1.92-3.38-3.25-5.4-4.54l-.24-.15-.52-.33a31.48,31.48,0,0,0-3.06-1.82,6.43,6.43,0,0,0-3.41-.82,3.14,3.14,0,0,0-1.76,1l-.27.27a4,4,0,0,0-1,1.48,5.27,5.27,0,0,0-.19.93,6.4,6.4,0,0,1-.17.87,4.44,4.44,0,0,1-1.31,1.89Z"/><polygon class="cls-2" points="306.38 383.81 306.38 383.81 306.38 383.81 306.38 383.81 306.38 383.81 306.38 383.81 306.38 383.81 306.38 383.81 306.38 383.81 306.38 383.81 306.38 383.81 306.38 383.81 306.38 383.81 306.38 383.81 306.38 383.81 306.38 383.81 306.38 383.81"/></svg>