<svg id="Слой_1" data-name="Слой 1" xmlns="http://www.w3.org/2000/svg" viewBox="0 0 65.84 52.67"><defs><style>.cls-1{fill:#712e8e;}</style></defs><title>wls-adexchange-easy-launch</title><g id="Layer_2" data-name="Layer 2"><g id="Isolation_Mode" data-name="Isolation Mode"><path class="cls-1" d="M65.1,0H.74A.74.74,0,0,0,0,.74v51a.74.74,0,0,0,.74.74h34.6l29.76.19h0a.74.74,0,0,0,.74-.74.71.71,0,0,0,0-.1.7.7,0,0,0,0-.09V.74A.74.74,0,0,0,65.1,0ZM1.48,35.38V10.95H59.56a.74.74,0,1,0,0-1.48H1.48v-8H64.36V51.2l-29-.18H1.48Z"/><circle class="cls-1" cx="59.56" cy="5.47" r="1.14"/><circle class="cls-1" cx="55.2" cy="5.47" r="1.14"/><path class="cls-1" d="M56.6,48.65A23.92,23.92,0,0,0,27,28.2l-.37-1.45A25.42,25.42,0,0,1,58.09,48.48Z"/><path class="cls-1" d="M9.12,48.64l-1.49-.17A25.33,25.33,0,0,1,18.83,30.2l.83,1.25A23.83,23.83,0,0,0,9.12,48.64Z"/><path class="cls-1" d="M32.78,48.32A4,4,0,0,1,29,43L22,28.9l1.26-.8,9.87,12.24a4,4,0,0,1-.36,8Zm-6.38-14,4.25,8.57-.15.33a2.5,2.5,0,1,0,2.27-1.45h-.36Z"/></g></g></svg>