<svg id="Layer_1" data-name="Layer 1" xmlns="http://www.w3.org/2000/svg" viewBox="0 0 51.03 65.17"><defs><style>.cls-1{fill:#6b2d89;}</style></defs><title>wls-dsp-reporting</title><path class="cls-1" d="M50.28,0a.75.75,0,0,0-.75.75V58H13.86a.75.75,0,0,0,0,1.5h30v4.13H1.5V7.13H5.65V58.79a.75.75,0,1,0,1.5,0V1.5H42.82a.75.75,0,0,0,0-1.5H6.4a.75.75,0,0,0-.75.75V5.63H.75A.75.75,0,0,0,0,6.38v58a.75.75,0,0,0,.75.75H44.63a.75.75,0,0,0,.75-.75V59.54h4.9a.75.75,0,0,0,.75-.75V.75A.75.75,0,0,0,50.28,0Z"/><path class="cls-1" d="M42.82,9.87h-29a.75.75,0,0,0,0,1.5h29a.75.75,0,0,0,0-1.5Z"/><path class="cls-1" d="M42.82,19.44h-29a.75.75,0,0,0,0,1.5h29a.75.75,0,0,0,0-1.5Z"/><path class="cls-1" d="M42.82,29h-29a.75.75,0,0,0,0,1.5h29a.75.75,0,0,0,0-1.5Z"/><path class="cls-1" d="M42.82,38.6h-29a.75.75,0,0,0,0,1.5h29a.75.75,0,0,0,0-1.5Z"/><path class="cls-1" d="M42.82,48.18h-29a.75.75,0,0,0,0,1.5h29a.75.75,0,0,0,0-1.5Z"/></svg>