<svg id="Layer_1" data-name="Layer 1" xmlns="http://www.w3.org/2000/svg" viewBox="0 0 65.78 58.68"><defs><style>.cls-1{fill:#6b2e87;}</style></defs><title>wls-ssp-big-data</title><path class="cls-1" d="M32.6,27.6a.75.75,0,0,0,.85-.15L52,8.88a.75.75,0,0,0,0-1.06A26,26,0,0,0,35.28,0a.75.75,0,0,0-.81.68L32.17,26.86A.75.75,0,0,0,32.6,27.6Zm3.29-26A24.41,24.41,0,0,1,50.43,8.35L33.85,24.94Z"/><path class="cls-1" d="M53.54,36.6a.7.7,0,0,0,0-.07.74.74,0,0,0-.56-.52L30.56,31.59a.75.75,0,0,0-.29,1.47L51.9,37.34A25.51,25.51,0,1,1,28.5,6.18L27.45,18.23h0l-1,11.07a.75.75,0,0,0,.68.81h.07a.75.75,0,0,0,.75-.68l.91-10.38h0L30.06,5.55a.75.75,0,0,0-.68-.81A27,27,0,0,0,5.45,47.92a26.85,26.85,0,0,0,17.82,10.5A27,27,0,0,0,53.54,36.9a.74.74,0,0,0,0-.27S53.54,36.61,53.54,36.6Z"/><path class="cls-1" d="M57.83,9.41a.77.77,0,0,0-1.06,0L38.19,28a.75.75,0,0,0,.43,1.27l26,3.66h.1a.75.75,0,0,0,.74-.65A26.12,26.12,0,0,0,57.83,9.41Zm6.26,21.92L40.32,28l17-17A24.56,24.56,0,0,1,64.09,31.32Z"/></svg>