<svg id="Layer_1" data-name="Layer 1" xmlns="http://www.w3.org/2000/svg" viewBox="0 0 69.48 43.32"><defs><style>.cls-1{fill:#6b2e87;}</style></defs><title>wls-ssp-af</title><path class="cls-1" d="M35.84,31.89H50.25a.75.75,0,0,0,0-1.5H23.39V9.54a.75.75,0,0,0-.75-.75H.75A.75.75,0,0,0,0,9.54v33a.75.75,0,0,0,.75.75H22.64a.75.75,0,0,0,.75-.75V31.89h11v9.68H29.42a.75.75,0,0,0,0,1.5H50.25a.75.75,0,0,0,0-1.5H39.94V36.78a.75.75,0,1,0-1.5,0v4.79h-2.6Zm-14,9.92H1.5V10.29H21.89Z"/><circle class="cls-1" cx="11.69" cy="38.76" r="1.12"/><path class="cls-1" d="M68.73,21.25H63.34V.75A.75.75,0,0,0,62.59,0H11.7a.75.75,0,0,0-.75.75V4.69a.75.75,0,1,0,1.5,0V1.5h49.4V21.25H56.45a.75.75,0,0,0-.75.75V42.57a.75.75,0,0,0,.75.75H68.73a.75.75,0,0,0,.75-.75V22A.75.75,0,0,0,68.73,21.25ZM68,41.82H57.2V22.75H68Z"/><circle class="cls-1" cx="62.59" cy="39.15" r="1.22"/></svg>