<svg id="Layer_1" data-name="Layer 1" xmlns="http://www.w3.org/2000/svg" viewBox="0 0 61.7 58.31"><defs><style>.cls-1{fill:#6b2e87;}</style></defs><title>wls-adexchange-investment</title><path class="cls-1" d="M41.19,47.68a4.59,4.59,0,0,1-4.58-4.58.75.75,0,0,0-1.5,0,6.09,6.09,0,0,0,5.33,6v2.25a.75.75,0,1,0,1.5,0V49.13A6.08,6.08,0,0,0,41.19,37a4.58,4.58,0,1,1,4.57-4.89.75.75,0,0,0,1.5-.1,6.09,6.09,0,0,0-5.33-5.63V24.22a.75.75,0,1,0-1.5,0V26.4a6.08,6.08,0,0,0,.76,12.11,4.58,4.58,0,0,1,0,9.17Z"/><path class="cls-1" d="M59.86,29.3A20.46,20.46,0,0,0,35.35,18.16a18.33,18.33,0,0,0-3.21-8.93C32,9,28.84,4.54,24.37,2.88l-1.55-.55-.14,0-2.46-.77C18.1.89,16,.37,14.14,0a.75.75,0,0,0-.89.7,5.77,5.77,0,0,0,2.61,4.91c-1.79,2-7.48,8.26-10.25,11.27a3.41,3.41,0,0,0-.64,4L8.34,26a.75.75,0,0,0,.55.33.73.73,0,0,0,.61-.22,17.31,17.31,0,0,1,10.87-4.5c-1.12,1.28-3.1,3.67-6.63,8.14-5.2,6.58-8.08,10.81-8.57,12.56C4.75,43.78,6.3,47,9.77,52l-5.83,0A3.88,3.88,0,0,0,0,55.82V57a.75.75,0,0,0,.75.76l15.08,0,15.07,0h0a.75.75,0,0,0,0-1.5l-15.08,0-14.32,0v-.46a2.41,2.41,0,0,1,2.4-2.39h0l7.3.05a.75.75,0,0,0,.61-1.19c-3.95-5.46-5.47-8.76-5.23-9.62,1-3.6,15.13-20.46,15.88-21.28A.75.75,0,0,0,22,20.12,18.35,18.35,0,0,0,9.11,24.42L6.55,20.54l-.27-.44a2,2,0,0,1,.47-2.21c11-12,11-12.1,11-12.43a.75.75,0,0,0-.4-.67,4.63,4.63,0,0,1-2.53-3.1c1.56.33,3.25.76,5,1.26l2.45.77.1,0,1.5.53c4,1.5,7,5.76,7.07,5.8a16.87,16.87,0,0,1,3,8.57c-.4.15-.8.29-1.19.47a20.92,20.92,0,0,0-2,1.05.75.75,0,0,0,.77,1.29A19,19,0,1,1,22.6,33.85v0q.17-.81.42-1.6A18.92,18.92,0,0,1,26.29,26a.75.75,0,1,0-1.18-.93,20.42,20.42,0,0,0-3.5,6.62v0l0,.06c-.17.56-.32,1.13-.45,1.71v.06A20.55,20.55,0,0,0,20.7,37s0,0,0,0A20.5,20.5,0,1,0,59.86,29.3Z"/></svg>