<svg id="Layer_1" data-name="Layer 1" xmlns="http://www.w3.org/2000/svg" viewBox="0 0 63.49 65.83"><defs><style>.cls-1{fill:#6b2e87;}</style></defs><title>wls-adexchange-creativity</title><path class="cls-1" d="M53,32.79a21.47,21.47,0,1,0-30,19.7v3.23H21.07a.75.75,0,0,0,0,1.5H23v3.57H21.07a.75.75,0,0,0,0,1.5H23v2.79a.75.75,0,1,0,1.5,0V62.29h14v2.79a.75.75,0,1,0,1.5,0V62.29h1.91a.75.75,0,0,0,0-1.5H40V57.22h1.91a.75.75,0,0,0,0-1.5H40V52.49A21.38,21.38,0,0,0,53,32.79Zm-14.45,28h-14V57.22h14Zm-14-5.07V52.28a.71.71,0,0,0,0-.15.74.74,0,0,0-.44-.83,20,20,0,1,1,15,0,.74.74,0,0,0-.44.83.71.71,0,0,0,0,.14v3.44Z"/><path class="cls-1" d="M38.93,39.75a5.57,5.57,0,1,0-5.55-6,.73.73,0,0,0-.13.4v4.07H29.67V34.18a.73.73,0,0,0,0-.23,5.57,5.57,0,1,0-5.56,5.8.74.74,0,0,0,.24,0,.74.74,0,0,0,.24,0h3.62V51.4a.75.75,0,1,0,1.5,0V39.75h3.57V51.4a.75.75,0,1,0,1.5,0V39.75Zm-14.38-1.5a.74.74,0,0,0-.24,0,.74.74,0,0,0-.24,0,4.07,4.07,0,1,1,4.07-4.07.72.72,0,0,0,0,.17v3.9Zm10.2-3.7a.73.73,0,0,0,.11-.37,4.07,4.07,0,1,1,4.07,4.07H34.74Z"/><path class="cls-1" d="M31.74,8.84a.75.75,0,0,0,.75-.75V.75a.75.75,0,1,0-1.5,0V8.09A.75.75,0,0,0,31.74,8.84Z"/><path class="cls-1" d="M62.74,31H56.3a.75.75,0,0,0,0,1.5h6.44a.75.75,0,0,0,0-1.5Z"/><path class="cls-1" d="M6.7,31H.75a.75.75,0,0,0,0,1.5H6.7a.75.75,0,0,0,0-1.5Z"/><path class="cls-1" d="M53.12,9.29,48,14.37a.75.75,0,1,0,1.06,1.06l5.08-5.08a.75.75,0,0,0-1.06-1.06Z"/><path class="cls-1" d="M12.92,49.49,9.29,53.12a.75.75,0,1,0,1.06,1.06L14,50.55a.75.75,0,0,0-1.06-1.06Z"/><path class="cls-1" d="M14.14,15.2a.75.75,0,1,0,1.06-1.06L10.35,9.29a.75.75,0,0,0-1.06,1.06Z"/><path class="cls-1" d="M50.3,49.24a.75.75,0,0,0-1.06,1.06l3.88,3.88a.75.75,0,0,0,1.06-1.06Z"/></svg>