<svg id="Layer_1" data-name="Layer 1" xmlns="http://www.w3.org/2000/svg" viewBox="0 0 153.01 153.01"><defs><style>.cls-1,.cls-2{fill:none;stroke:#6b2d89;stroke-width:3px;}.cls-2{stroke-linecap:round;}</style></defs><title>wls-dsp-targeting</title><circle class="cls-1" cx="76.51" cy="76.51" r="75.01"/><line class="cls-2" x1="151.02" y1="76.51" x2="139.48" y2="76.51"/><line class="cls-2" x1="15.2" y1="76.51" x2="3.67" y2="76.51"/><line class="cls-2" x1="76.52" y1="4.61" x2="76.52" y2="16.15"/><line class="cls-2" x1="76.52" y1="137.11" x2="76.52" y2="148.65"/><path class="cls-2" d="M67.64,76v4a17.67,17.67,0,0,1-.23,4c-.13,0-5.71,1.48-12.41,3.28s-12.17,8.08-12.17,13.93S58,111.93,76.61,111.93,110.4,107,110.4,101,104.81,88.75,98,87.09,85.59,82.25,85.59,80V76"/><path class="cls-2" d="M85.59,76c4.14-2.86,6.86-9,6.86-14.46a15.84,15.84,0,1,0-31.68,0c0,5.41,2.72,11.6,6.86,14.46"/><path class="cls-2" d="M124.23,97.78A18.29,18.29,0,0,0,112.41,81c-6.24-2.43-11.83-3.44-11.83-5.55V72.76"/><path class="cls-2" d="M100.58,72.76c4-2.72,5.37-7.45,5.37-12.61,0-6.82-6.3-11-12.72-10.16"/><path class="cls-2" d="M28.78,97.78A18.29,18.29,0,0,1,40.61,81c6.24-2.43,11.82-3.44,11.82-5.55V72.76"/><path class="cls-2" d="M52.43,72.76c-4-2.72-5.37-7.45-5.37-12.61,0-6.82,6.3-11,12.72-10.16"/></svg>