<?xml version="1.0" encoding="utf-8"?>
<!-- Generator: Adobe Illustrator 21.0.2, SVG Export Plug-In . SVG Version: 6.00 Build 0)  -->
<svg version="1.1" id="Layer_1" xmlns="http://www.w3.org/2000/svg" xmlns:xlink="http://www.w3.org/1999/xlink" x="0px" y="0px"
	 viewBox="0 0 65.8 52.7" style="enable-background:new 0 0 65.8 52.7;" xml:space="preserve">
<style type="text/css">
	.st0{fill:#6B2E87;}
</style>
<g>
	<path class="st0" d="M36.5,45.9c0.1,0,0.1,0,0.2,0c2.7-0.7,4.9-1.9,6.9-3.9c0.3-0.3,0.3-0.8,0-1.1l-1.3-1.4c1.2-1.3,2-2.7,2.6-4.3
		l1.8,0.5c0.4,0.1,0.8-0.1,0.9-0.5c0.8-2.7,0.8-5.2,0.1-7.9c-0.1-0.4-0.5-0.6-0.9-0.5l-1.8,0.5c-0.5-1.7-1.3-3.1-2.5-4.4l1.4-1.3
		c0.3-0.3,0.3-0.8,0-1.1c-1.9-2-4.1-3.3-6.8-4c-0.4-0.1-0.8,0.1-0.9,0.5l-0.5,1.8c-1.7-0.4-3.3-0.4-5.1-0.1l-0.5-1.8
		c-0.1-0.4-0.5-0.6-0.9-0.5c-2.7,0.7-4.9,1.9-6.9,3.9c-0.3,0.3-0.3,0.8,0,1.1l1.3,1.4c-1.2,1.3-2,2.7-2.6,4.3l-1.8-0.5
		c-0.4-0.1-0.8,0.1-0.9,0.5c-0.8,2.7-0.8,5.2-0.1,7.9c0.1,0.4,0.5,0.6,0.9,0.5l1.8-0.5c0.5,1.7,1.3,3.1,2.5,4.4L22,40.6
		c-0.1,0.1-0.2,0.3-0.2,0.5c0,0.2,0.1,0.4,0.2,0.5c1.9,2,4.1,3.3,6.8,4c0.2,0.1,0.4,0,0.6-0.1c0.2-0.1,0.3-0.3,0.4-0.5l0.5-1.8
		c1.7,0.4,3.3,0.4,5.1,0.1l0.5,1.8C35.8,45.6,36.1,45.9,36.5,45.9z M29.9,41.8c-0.2-0.1-0.4,0-0.6,0.1c-0.2,0.1-0.3,0.3-0.4,0.5
		l-0.5,1.8c-1.9-0.6-3.4-1.5-4.9-2.9l1.3-1.3c0.1-0.1,0.2-0.3,0.2-0.5c0-0.2-0.1-0.4-0.2-0.5c-1.4-1.5-2.3-3-2.8-5
		c-0.1-0.4-0.5-0.6-0.9-0.5l-1.8,0.5c-0.4-1.9-0.4-3.7,0.1-5.6l1.8,0.5c0.4,0.1,0.8-0.1,0.9-0.5c0.6-2,1.5-3.5,2.9-4.9
		c0.1-0.1,0.2-0.3,0.2-0.5c0-0.2-0.1-0.4-0.2-0.5l-1.3-1.3c1.5-1.3,3-2.2,4.9-2.8l0.5,1.8c0.1,0.4,0.5,0.6,0.9,0.5
		c2-0.5,3.8-0.5,5.7,0.1c0.4,0.1,0.8-0.1,0.9-0.5l0.5-1.8c1.9,0.6,3.4,1.5,4.9,2.9l-1.3,1.3c-0.3,0.3-0.3,0.8,0,1.1
		c1.4,1.5,2.3,3,2.8,5c0.1,0.4,0.5,0.6,0.9,0.5l1.8-0.5c0.4,1.9,0.4,3.7-0.1,5.6l-1.8-0.5c-0.2-0.1-0.4,0-0.6,0.1
		c-0.2,0.1-0.3,0.3-0.4,0.5c-0.6,2-1.5,3.5-2.9,4.9c-0.3,0.3-0.3,0.8,0,1.1l1.3,1.3c-1.5,1.3-3,2.2-4.9,2.8l-0.5-1.8
		c-0.1-0.3-0.4-0.6-0.7-0.6c-0.1,0-0.1,0-0.2,0C33.7,42.3,31.9,42.3,29.9,41.8z"/>
	<path class="st0" d="M41.6,31.1c0-4.8-3.9-8.7-8.7-8.7c-2.1,0-4.2,0.8-5.7,2.2c-0.3,0.3-0.3,0.7-0.1,1.1c0.3,0.3,0.7,0.3,1.1,0.1
		c1.3-1.2,3-1.8,4.8-1.8c3.9,0,7.2,3.2,7.2,7.2c0,3.9-3.2,7.2-7.2,7.2c-3.9,0-7.2-3.2-7.2-7.2c0-0.7,0.1-1.4,0.3-2.1
		c0.1-0.4-0.1-0.8-0.5-0.9c-0.4-0.1-0.8,0.1-0.9,0.5c-0.2,0.8-0.4,1.7-0.4,2.5c0,4.8,3.9,8.7,8.7,8.7S41.6,35.9,41.6,31.1z"/>
	<path class="st0" d="M65.1,0H0.7C0.3,0,0,0.3,0,0.7v9.5V35v0.4v16.4c0,0.4,0.3,0.7,0.7,0.7h34.6l29.8,0.2c0,0,0,0,0,0
		c0.4,0,0.7-0.3,0.7-0.7c0,0,0-0.1,0-0.1c0,0,0-0.1,0-0.1V45v-1.7V10.2V0.7C65.8,0.3,65.5,0,65.1,0z M1.5,35.4V35V10.9h21.3H57h2.6
		c0.4,0,0.7-0.3,0.7-0.7c0-0.4-0.3-0.7-0.7-0.7H57H22.8H1.5v-8h62.9v8.7v33.1V45v6.2l-29-0.2c0,0,0,0,0,0H1.5V35.4z"/>
	<circle class="st0" cx="59.6" cy="5.5" r="1.1"/>
	<circle class="st0" cx="55.2" cy="5.5" r="1.1"/>
</g>
</svg>
