<svg id="Layer_1" data-name="Layer 1" xmlns="http://www.w3.org/2000/svg" viewBox="0 0 59.19 59.19"><defs><style>.cls-1{fill:#6b2e87;}</style></defs><title>wls-adexchange-support</title><path class="cls-1" d="M58.55,23.43a.75.75,0,0,0-1.47.31,28.2,28.2,0,1,1-2.61-7.18L47.91,13.7a.75.75,0,0,0-.6,1.38l8.85,3.86a.75.75,0,0,0,1-.69l0-9.74a.75.75,0,0,0-.75-.75h0a.75.75,0,0,0-.75.75l0,7.16a29.22,29.22,0,1,0,2.85,7.76Z"/><path class="cls-1" d="M37,21.23,30.18,37.38a.75.75,0,0,0,.4,1,.74.74,0,0,0,.29.06.75.75,0,0,0,.69-.46l6.77-16.15A.75.75,0,1,0,37,21.23Z"/><path class="cls-1" d="M46.28,20.86H42.37a.74.74,0,0,0,0,1.48h3.91A1.73,1.73,0,0,1,48,24.07a1.7,1.7,0,0,1-.21.8l0,0-5.6,12.37a.74.74,0,1,0,1.35.61L49.09,25.6h0a3.21,3.21,0,0,0,.39-1.5h0A3.22,3.22,0,0,0,46.28,20.86Z"/><path class="cls-1" d="M14.23,20.86H12.91A3.22,3.22,0,0,0,9.7,24.08a.74.74,0,1,0,1.48,0,1.73,1.73,0,0,1,1.73-1.73h1.32a1.71,1.71,0,0,1,1.52,2.52l0,0-5.6,12.37h0a5.51,5.51,0,0,0-.06.29h0a.69.69,0,0,0,0,.1.45.45,0,0,0,.11.29.72.72,0,0,0,.08.12.74.74,0,0,0,.14.1l.08.06h0a.74.74,0,0,0,.29.06h5.76a.74.74,0,0,0,0-1.48H11.95L17,25.6h0a3.21,3.21,0,0,0,.39-1.5h0A3.22,3.22,0,0,0,14.23,20.86Z"/><path class="cls-1" d="M26.28,38.33a.74.74,0,0,0,.74-.74v-16a.74.74,0,1,0-1.48,0v6.13h-3.4a1.08,1.08,0,0,1-1.08-1.08v-5a.74.74,0,1,0-1.48,0v5a2.56,2.56,0,0,0,2.56,2.56h3.4v8.37A.74.74,0,0,0,26.28,38.33Z"/></svg>