<svg id="Layer_1" data-name="Layer 1" xmlns="http://www.w3.org/2000/svg" viewBox="0 0 59.19 59.2"><defs><style>.cls-1{fill:#6b2e87;}</style></defs><title>wls-ssp-realtime</title><path class="cls-1" d="M28.07,29.45a1.55,1.55,0,1,0,.86-1.23L11.47,15.93a.75.75,0,0,0-.86,1.23Z"/><path class="cls-1" d="M59.09,27.27a.71.71,0,0,0,0-.12c0-.18,0-.35-.06-.53S59,26.19,59,26c-.06-.48-.13-1-.21-1.44s-.13-.73-.2-1.1l0,0A29.61,29.61,0,0,0,29.61,0a.73.73,0,0,0-.75.7.73.73,0,0,0-.09.34l.07,20.82a.75.75,0,0,0,.75.75h0a.75.75,0,0,0,.75-.75L30.27,1.52a28.09,28.09,0,0,1,27,23.25q.13.73.22,1.47c0,.18,0,.35.06.53a28.45,28.45,0,0,1,.15,2.85A28.1,28.1,0,1,1,6.19,14.06a.75.75,0,1,0-1.25-.83A29.6,29.6,0,1,0,59.19,29.61C59.19,28.83,59.15,28,59.09,27.27Z"/></svg>