<svg id="Layer_1" data-name="Layer 1" xmlns="http://www.w3.org/2000/svg" viewBox="0 0 59.29 55.19"><defs><style>.cls-1{fill:#704194;}</style></defs><title>wls-dsp-campaign-management</title><path class="cls-1" d="M9.55,36.81V.75A.75.75,0,0,0,8.8,0H3.2a.75.75,0,0,0-.75.75V33.38a.75.75,0,1,0,1.5,0V1.5h4.1V36a6,6,0,0,0-5.6,10.46v8a.75.75,0,0,0,.75.75H8.8a.75.75,0,0,0,.75-.75v-8a6,6,0,0,0,0-9.65ZM8.05,53.69H4V47.27a5.89,5.89,0,0,0,4.1,0ZM6,46.14a4.5,4.5,0,1,1,4.5-4.5A4.51,4.51,0,0,1,6,46.14Z"/><path class="cls-1" d="M33.2,9.48V.75A.75.75,0,0,0,32.45,0h-5.6a.75.75,0,0,0-.75.75V9.48a6,6,0,0,0,5.6,10.46V53.69h-4.1v-31a.75.75,0,0,0-1.5,0V54.44a.75.75,0,0,0,.75.75h5.6a.75.75,0,0,0,.75-.75V19.13a6,6,0,0,0,0-9.65Zm-5.6-8h4.1V8.67a5.89,5.89,0,0,0-4.1,0Zm2.05,17.31a4.5,4.5,0,1,1,4.5-4.5A4.51,4.51,0,0,1,29.64,18.81Z"/><path class="cls-1" d="M59.29,35a6,6,0,0,0-2.45-4.83V.75A.75.75,0,0,0,56.09,0h-5.6a.75.75,0,0,0-.75.75v26a.75.75,0,1,0,1.5,0V1.5h4.1V29.41a6,6,0,0,0-5.62.81,6,6,0,0,0,0,9.65V54.44a.75.75,0,0,0,.75.75h5.6a.75.75,0,0,0,.75-.75V39.87A6,6,0,0,0,59.29,35Zm-10.5,0a4.5,4.5,0,1,1,4.5,4.5A4.47,4.47,0,0,1,48.78,35Zm6.55,18.65h-4.1v-13a5.89,5.89,0,0,0,4.1,0Z"/></svg>