<svg width="345" height="328" viewBox="0 0 345 328" fill="none" xmlns="http://www.w3.org/2000/svg">
<g opacity="0.1">
<path opacity="0.2" fill-rule="evenodd" clip-rule="evenodd" d="M176 328C266.575 328 340 254.575 340 164C340 73.4253 266.575 0 176 0C85.4253 0 12 73.4253 12 164C12 254.575 85.4253 328 176 328Z" fill="#740B99"/>
<path opacity="0.4" fill-rule="evenodd" clip-rule="evenodd" d="M175.995 283.642C242.07 283.642 295.634 230.078 295.634 164.003C295.634 97.9276 242.07 44.3633 175.995 44.3633C109.92 44.3633 56.3555 97.9276 56.3555 164.003C56.3555 230.078 109.92 283.642 175.995 283.642Z" fill="#740B99"/>
<path fill-rule="evenodd" clip-rule="evenodd" d="M175.995 233.899C214.601 233.899 245.897 202.603 245.897 163.997C245.897 125.392 214.601 94.0957 175.995 94.0957C137.39 94.0957 106.094 125.392 106.094 163.997C106.094 202.603 137.39 233.899 175.995 233.899Z" fill="#740B99"/>
</g>
<path opacity="0.2" fill-rule="evenodd" clip-rule="evenodd" d="M176 206C199.196 206 218 187.196 218 164C218 140.804 199.196 122 176 122C152.804 122 134 140.804 134 164C134 187.196 152.804 206 176 206Z" fill="#740B99"/>
<path opacity="0.4" fill-rule="evenodd" clip-rule="evenodd" d="M175.999 194.64C192.92 194.64 206.638 180.922 206.638 164.001C206.638 147.079 192.92 133.361 175.999 133.361C159.077 133.361 145.359 147.079 145.359 164.001C145.359 180.922 159.077 194.64 175.999 194.64Z" fill="#740B99"/>
<path fill-rule="evenodd" clip-rule="evenodd" d="M175.999 181.901C185.886 181.901 193.901 173.886 193.901 163.999C193.901 154.112 185.886 146.098 175.999 146.098C166.112 146.098 158.098 154.112 158.098 163.999C158.098 173.886 166.112 181.901 175.999 181.901Z" fill="#740B99"/>
<path opacity="0.2" fill-rule="evenodd" clip-rule="evenodd" d="M249 80C253.971 80 258 75.9706 258 71C258 66.0294 253.971 62 249 62C244.029 62 240 66.0294 240 71C240 75.9706 244.029 80 249 80Z" fill="#740B99"/>
<path opacity="0.4" fill-rule="evenodd" clip-rule="evenodd" d="M248.999 77.5647C252.625 77.5647 255.565 74.6252 255.565 70.9992C255.565 67.3731 252.625 64.4336 248.999 64.4336C245.373 64.4336 242.434 67.3731 242.434 70.9992C242.434 74.6252 245.373 77.5647 248.999 77.5647Z" fill="#740B99"/>
<path fill-rule="evenodd" clip-rule="evenodd" d="M249 74.8362C251.119 74.8362 252.836 73.1187 252.836 71.0001C252.836 68.8815 251.119 67.1641 249 67.1641C246.882 67.1641 245.164 68.8815 245.164 71.0001C245.164 73.1187 246.882 74.8362 249 74.8362Z" fill="#740B99"/>
<path opacity="0.2" fill-rule="evenodd" clip-rule="evenodd" d="M276 57C288.703 57 299 46.7025 299 34C299 21.2975 288.703 11 276 11C263.297 11 253 21.2975 253 34C253 46.7025 263.297 57 276 57Z" fill="#740B99"/>
<path opacity="0.4" fill-rule="evenodd" clip-rule="evenodd" d="M275.997 50.7761C285.264 50.7761 292.776 43.2641 292.776 33.9974C292.776 24.7308 285.264 17.2188 275.997 17.2188C266.731 17.2188 259.219 24.7308 259.219 33.9974C259.219 43.2641 266.731 50.7761 275.997 50.7761Z" fill="#740B99"/>
<path fill-rule="evenodd" clip-rule="evenodd" d="M275.999 43.8038C281.413 43.8038 285.802 39.4147 285.802 34.0005C285.802 28.5863 281.413 24.1973 275.999 24.1973C270.584 24.1973 266.195 28.5863 266.195 34.0005C266.195 39.4147 270.584 43.8038 275.999 43.8038Z" fill="#740B99"/>
<path opacity="0.2" fill-rule="evenodd" clip-rule="evenodd" d="M276 231C282.627 231 288 225.627 288 219C288 212.373 282.627 207 276 207C269.373 207 264 212.373 264 219C264 225.627 269.373 231 276 231Z" fill="#740B99"/>
<path opacity="0.4" fill-rule="evenodd" clip-rule="evenodd" d="M276 227.752C280.835 227.752 284.754 223.833 284.754 218.998C284.754 214.163 280.835 210.244 276 210.244C271.165 210.244 267.246 214.163 267.246 218.998C267.246 223.833 271.165 227.752 276 227.752Z" fill="#740B99"/>
<path fill-rule="evenodd" clip-rule="evenodd" d="M275.998 224.114C278.822 224.114 281.112 221.824 281.112 219C281.112 216.175 278.822 213.885 275.998 213.885C273.173 213.885 270.883 216.175 270.883 219C270.883 221.824 273.173 224.114 275.998 224.114Z" fill="#740B99"/>
<path opacity="0.2" fill-rule="evenodd" clip-rule="evenodd" d="M12 160C18.6274 160 24 154.627 24 148C24 141.373 18.6274 136 12 136C5.37258 136 0 141.373 0 148C0 154.627 5.37258 160 12 160Z" fill="#740B99"/>
<path opacity="0.4" fill-rule="evenodd" clip-rule="evenodd" d="M12.0002 156.752C16.8349 156.752 20.7543 152.833 20.7543 147.998C20.7543 143.163 16.8349 139.244 12.0002 139.244C7.16544 139.244 3.24609 143.163 3.24609 147.998C3.24609 152.833 7.16544 156.752 12.0002 156.752Z" fill="#740B99"/>
<path fill-rule="evenodd" clip-rule="evenodd" d="M11.9976 153.114C14.8224 153.114 17.1123 150.824 17.1123 148C17.1123 145.175 14.8224 142.885 11.9976 142.885C9.17277 142.885 6.88281 145.175 6.88281 148C6.88281 150.824 9.17277 153.114 11.9976 153.114Z" fill="#740B99"/>
<path opacity="0.2" fill-rule="evenodd" clip-rule="evenodd" d="M179 105C185.075 105 190 100.075 190 94C190 87.9249 185.075 83 179 83C172.925 83 168 87.9249 168 94C168 100.075 172.925 105 179 105Z" fill="#740B99"/>
<path opacity="0.4" fill-rule="evenodd" clip-rule="evenodd" d="M178.997 102.024C183.429 102.024 187.022 98.4311 187.022 93.9992C187.022 89.5673 183.429 85.9746 178.997 85.9746C174.565 85.9746 170.973 89.5673 170.973 93.9992C170.973 98.4311 174.565 102.024 178.997 102.024Z" fill="#740B99"/>
<path fill-rule="evenodd" clip-rule="evenodd" d="M179.001 98.6895C181.59 98.6895 183.69 96.5904 183.69 94.001C183.69 91.4116 181.59 89.3125 179.001 89.3125C176.412 89.3125 174.312 91.4116 174.312 94.001C174.312 96.5904 176.412 98.6895 179.001 98.6895Z" fill="#740B99"/>
<path opacity="0.2" fill-rule="evenodd" clip-rule="evenodd" d="M106 162C109.866 162 113 158.866 113 155C113 151.134 109.866 148 106 148C102.134 148 99 151.134 99 155C99 158.866 102.134 162 106 162Z" fill="#740B99"/>
<path opacity="0.4" fill-rule="evenodd" clip-rule="evenodd" d="M105.997 160.106C108.817 160.106 111.104 157.819 111.104 154.999C111.104 152.179 108.817 149.893 105.997 149.893C103.177 149.893 100.891 152.179 100.891 154.999C100.891 157.819 103.177 160.106 105.997 160.106Z" fill="#740B99"/>
<path fill-rule="evenodd" clip-rule="evenodd" d="M105.999 157.985C107.647 157.985 108.983 156.649 108.983 155.001C108.983 153.353 107.647 152.018 105.999 152.018C104.351 152.018 103.016 153.353 103.016 155.001C103.016 156.649 104.351 157.985 105.999 157.985Z" fill="#740B99"/>
<path opacity="0.2" fill-rule="evenodd" clip-rule="evenodd" d="M176 172C180.418 172 184 168.418 184 164C184 159.582 180.418 156 176 156C171.582 156 168 159.582 168 164C168 168.418 171.582 172 176 172Z" fill="#FBB640"/>
<path opacity="0.4" fill-rule="evenodd" clip-rule="evenodd" d="M175.996 169.834C179.219 169.834 181.832 167.221 181.832 163.998C181.832 160.775 179.219 158.162 175.996 158.162C172.773 158.162 170.16 160.775 170.16 163.998C170.16 167.221 172.773 169.834 175.996 169.834Z" fill="#FBB640"/>
<path fill-rule="evenodd" clip-rule="evenodd" d="M176 167.411C177.883 167.411 179.41 165.885 179.41 164.002C179.41 162.118 177.883 160.592 176 160.592C174.116 160.592 172.59 162.118 172.59 164.002C172.59 165.885 174.116 167.411 176 167.411Z" fill="#FBB640"/>
<path opacity="0.2" fill-rule="evenodd" clip-rule="evenodd" d="M106 74C109.866 74 113 70.866 113 67C113 63.134 109.866 60 106 60C102.134 60 99 63.134 99 67C99 70.866 102.134 74 106 74Z" fill="#740B99"/>
<path opacity="0.4" fill-rule="evenodd" clip-rule="evenodd" d="M105.997 72.1057C108.817 72.1057 111.104 69.8194 111.104 66.9991C111.104 64.1789 108.817 61.8926 105.997 61.8926C103.177 61.8926 100.891 64.1789 100.891 66.9991C100.891 69.8194 103.177 72.1057 105.997 72.1057Z" fill="#740B99"/>
<path fill-rule="evenodd" clip-rule="evenodd" d="M105.999 69.9848C107.647 69.9848 108.983 68.649 108.983 67.0012C108.983 65.3534 107.647 64.0176 105.999 64.0176C104.351 64.0176 103.016 65.3534 103.016 67.0012C103.016 68.649 104.351 69.9848 105.999 69.9848Z" fill="#740B99"/>
<path opacity="0.2" fill-rule="evenodd" clip-rule="evenodd" d="M338 191C341.866 191 345 187.866 345 184C345 180.134 341.866 177 338 177C334.134 177 331 180.134 331 184C331 187.866 334.134 191 338 191Z" fill="#740B99"/>
<path opacity="0.4" fill-rule="evenodd" clip-rule="evenodd" d="M337.997 189.106C340.817 189.106 343.104 186.819 343.104 183.999C343.104 181.179 340.817 178.893 337.997 178.893C335.177 178.893 332.891 181.179 332.891 183.999C332.891 186.819 335.177 189.106 337.997 189.106Z" fill="#740B99"/>
<path fill-rule="evenodd" clip-rule="evenodd" d="M337.999 186.985C339.647 186.985 340.983 185.649 340.983 184.001C340.983 182.353 339.647 181.018 337.999 181.018C336.351 181.018 335.016 182.353 335.016 184.001C335.016 185.649 336.351 186.985 337.999 186.985Z" fill="#740B99"/>
<path opacity="0.2" fill-rule="evenodd" clip-rule="evenodd" d="M86 246C87.6569 246 89 244.657 89 243C89 241.343 87.6569 240 86 240C84.3431 240 83 241.343 83 243C83 244.657 84.3431 246 86 246Z" fill="#740B99"/>
<path opacity="0.4" fill-rule="evenodd" clip-rule="evenodd" d="M85.9971 245.188C87.2058 245.188 88.1856 244.208 88.1856 242.999C88.1856 241.79 87.2058 240.811 85.9971 240.811C84.7884 240.811 83.8086 241.79 83.8086 242.999C83.8086 244.208 84.7884 245.188 85.9971 245.188Z" fill="#740B99"/>
<path fill-rule="evenodd" clip-rule="evenodd" d="M86.0013 244.28C86.7075 244.28 87.28 243.708 87.28 243.001C87.28 242.295 86.7075 241.723 86.0013 241.723C85.2951 241.723 84.7227 242.295 84.7227 243.001C84.7227 243.708 85.2951 244.28 86.0013 244.28Z" fill="#740B99"/>
</svg>
