<svg width="326" height="326" viewBox="0 0 326 326" fill="none" xmlns="http://www.w3.org/2000/svg">
<path opacity="0.2" d="M87 163C87 121.026 121.026 87 163 87L163 239C121.026 239 87 204.974 87 163Z" fill="#740B99"/>
<path opacity="0.4" d="M107.555 163.001C107.555 132.381 132.377 107.559 162.997 107.559L162.997 218.444C132.377 218.444 107.555 193.621 107.555 163.001Z" fill="#740B99"/>
<path d="M130.605 163.001C130.605 145.11 145.109 130.607 162.999 130.607L162.999 195.394C145.109 195.394 130.605 180.891 130.605 163.001Z" fill="#740B99"/>
<path opacity="0.2" d="M239 163C239 204.974 204.974 239 163 239L163 87C204.974 87 239 121.026 239 163Z" fill="#FBB640"/>
<path opacity="0.4" d="M218.445 162.999C218.445 193.619 193.623 218.441 163.003 218.441L163.003 107.556C193.623 107.556 218.445 132.379 218.445 162.999Z" fill="#FBB640"/>
<path d="M195.395 162.999C195.395 180.89 180.891 195.393 163.001 195.393L163.001 130.606C180.891 130.606 195.395 145.109 195.395 162.999Z" fill="#FBB640"/>
<path opacity="0.2" d="M163 239C121.026 239 87 204.974 87 163L239 163C239 204.974 204.974 239 163 239Z" fill="#740B99"/>
<path opacity="0.4" d="M163.001 218.445C132.381 218.445 107.559 193.623 107.559 163.003L218.444 163.003C218.444 193.623 193.621 218.445 163.001 218.445Z" fill="#740B99"/>
<path d="M163.003 195.393C145.112 195.393 130.609 180.89 130.609 162.999L195.396 162.999C195.396 180.89 180.893 195.393 163.003 195.393Z" fill="#740B99"/>
<path opacity="0.2" d="M163 87C204.974 87 239 121.026 239 163L87 163C87 121.026 121.026 87 163 87Z" fill="#FBB640"/>
<path opacity="0.4" d="M162.999 107.555C193.619 107.555 218.441 132.377 218.441 162.997L107.556 162.997C107.556 132.377 132.379 107.555 162.999 107.555Z" fill="#FBB640"/>
<path d="M162.997 130.607C180.888 130.607 195.391 145.11 195.391 163.001L130.604 163.001C130.604 145.11 145.107 130.607 162.997 130.607Z" fill="#FBB640"/>
<g opacity="0.1">
<path opacity="0.2" d="M326 163C326 253.022 253.022 326 163 326L163 -2.53364e-05C253.022 -2.81979e-05 326 72.9776 326 163Z" fill="#740B99"/>
<path opacity="0.4" d="M281.914 162.996C281.914 228.669 228.676 281.906 163.004 281.906L163.004 44.0866C228.676 44.0866 281.914 97.3243 281.914 162.996Z" fill="#740B99"/>
<path d="M232.477 162.999C232.477 201.369 201.371 232.475 163.001 232.475L163.001 93.5238C201.371 93.5238 232.477 124.629 232.477 162.999Z" fill="#740B99"/>
<path opacity="0.2" d="M0 163C0 72.9776 72.9776 0 163 0L163 326C72.9776 326 0 253.022 0 163Z" fill="#FBB640"/>
<path opacity="0.4" d="M44.0859 163.004C44.0859 97.3315 97.3237 44.0937 162.996 44.0937L162.996 281.913C97.3237 281.913 44.0859 228.676 44.0859 163.004Z" fill="#FBB640"/>
<path d="M93.5234 163.001C93.5234 124.631 124.629 93.5254 162.999 93.5254L162.999 232.476C124.629 232.476 93.5234 201.371 93.5234 163.001Z" fill="#FBB640"/>
</g>
<g opacity="0.8">
<path opacity="0.2" d="M239 163C239 204.974 204.974 239 163 239L163 87C204.974 87 239 121.026 239 163Z" fill="#740B99"/>
<path opacity="0.4" d="M218.445 162.999C218.445 193.619 193.623 218.441 163.003 218.441L163.003 107.556C193.623 107.556 218.445 132.379 218.445 162.999Z" fill="#740B99"/>
<path d="M195.395 162.999C195.395 180.89 180.891 195.393 163.001 195.393L163.001 130.606C180.891 130.606 195.395 145.109 195.395 162.999Z" fill="#740B99"/>
<path opacity="0.2" d="M87 163C87 121.026 121.026 87 163 87L163 239C121.026 239 87 204.974 87 163Z" fill="#FBB640"/>
<path opacity="0.4" d="M107.555 163.001C107.555 132.381 132.377 107.559 162.997 107.559L162.997 218.444C132.377 218.444 107.555 193.621 107.555 163.001Z" fill="#FBB640"/>
<path d="M130.605 163.001C130.605 145.11 145.109 130.607 162.999 130.607L162.999 195.394C145.109 195.394 130.605 180.891 130.605 163.001Z" fill="#FBB640"/>
</g>
</svg>
