<svg width="348" height="348" viewBox="0 0 348 348" fill="none" xmlns="http://www.w3.org/2000/svg">
<g opacity="0.1">
<path opacity="0.2" fill-rule="evenodd" clip-rule="evenodd" d="M174 348C270.098 348 348 270.098 348 174C348 77.9025 270.098 0 174 0C77.9025 0 0 77.9025 0 174C0 270.098 77.9025 348 174 348Z" fill="#740B99"/>
<path opacity="0.4" fill-rule="evenodd" clip-rule="evenodd" d="M173.974 300.941C244.077 300.941 300.908 244.111 300.908 174.007C300.908 103.903 244.077 47.0723 173.974 47.0723C103.87 47.0723 47.0391 103.903 47.0391 174.007C47.0391 244.111 103.87 300.941 173.974 300.941Z" fill="#740B99"/>
<path fill-rule="evenodd" clip-rule="evenodd" d="M173.937 248.168C214.897 248.168 248.101 214.963 248.101 174.004C248.101 133.044 214.897 99.8398 173.937 99.8398C132.978 99.8398 99.7734 133.044 99.7734 174.004C99.7734 214.963 132.978 248.168 173.937 248.168Z" fill="#740B99"/>
</g>
<path opacity="0.2" fill-rule="evenodd" clip-rule="evenodd" d="M174 256C219.287 256 256 219.287 256 174C256 128.713 219.287 92 174 92C128.713 92 92 128.713 92 174C92 219.287 128.713 256 174 256Z" fill="#740B99"/>
<path opacity="0.4" fill-rule="evenodd" clip-rule="evenodd" d="M173.988 233.823C207.025 233.823 233.807 207.041 233.807 174.003C233.807 140.966 207.025 114.184 173.988 114.184C140.95 114.184 114.168 140.966 114.168 174.003C114.168 207.041 140.95 233.823 173.988 233.823Z" fill="#740B99"/>
<path fill-rule="evenodd" clip-rule="evenodd" d="M173.97 208.952C193.273 208.952 208.921 193.304 208.921 174.002C208.921 154.699 193.273 139.051 173.97 139.051C154.668 139.051 139.02 154.699 139.02 174.002C139.02 193.304 154.668 208.952 173.97 208.952Z" fill="#740B99"/>
<path opacity="0.2" fill-rule="evenodd" clip-rule="evenodd" d="M174 201C188.912 201 201 188.912 201 174C201 159.088 188.912 147 174 147C159.088 147 147 159.088 147 174C147 188.912 159.088 201 174 201Z" fill="#FBB640"/>
<path opacity="0.4" fill-rule="evenodd" clip-rule="evenodd" d="M173.986 193.69C184.864 193.69 193.683 184.872 193.683 173.994C193.683 163.115 184.864 154.297 173.986 154.297C163.108 154.297 154.289 163.115 154.289 173.994C154.289 184.872 163.108 193.69 173.986 193.69Z" fill="#FBB640"/>
<path fill-rule="evenodd" clip-rule="evenodd" d="M174 185.514C180.356 185.514 185.509 180.362 185.509 174.006C185.509 167.65 180.356 162.498 174 162.498C167.645 162.498 162.492 167.65 162.492 174.006C162.492 180.362 167.645 185.514 174 185.514Z" fill="#FBB640"/>
<path opacity="0.2" fill-rule="evenodd" clip-rule="evenodd" d="M174 179C176.761 179 179 176.761 179 174C179 171.239 176.761 169 174 169C171.239 169 169 171.239 169 174C169 176.761 171.239 179 174 179Z" fill="#740B99"/>
<path opacity="0.4" fill-rule="evenodd" clip-rule="evenodd" d="M173.999 177.647C176.014 177.647 177.647 176.014 177.647 173.999C177.647 171.985 176.014 170.352 173.999 170.352C171.985 170.352 170.352 171.985 170.352 173.999C170.352 176.014 171.985 177.647 173.999 177.647Z" fill="#740B99"/>
<path fill-rule="evenodd" clip-rule="evenodd" d="M173.998 176.131C175.175 176.131 176.129 175.177 176.129 174C176.129 172.823 175.175 171.869 173.998 171.869C172.821 171.869 171.867 172.823 171.867 174C171.867 175.177 172.821 176.131 173.998 176.131Z" fill="#740B99"/>
</svg>
