<svg width="350" height="350" viewBox="0 0 350 350" fill="none" xmlns="http://www.w3.org/2000/svg">
<path opacity="0.2" fill-rule="evenodd" clip-rule="evenodd" d="M175 189C182.732 189 189 182.732 189 175C189 167.268 182.732 161 175 161C167.268 161 161 167.268 161 175C161 182.732 167.268 189 175 189Z" fill="#740B99"/>
<path opacity="0.4" fill-rule="evenodd" clip-rule="evenodd" d="M174.998 185.215C180.639 185.215 185.211 180.643 185.211 175.002C185.211 169.362 180.639 164.789 174.998 164.789C169.358 164.789 164.785 169.362 164.785 175.002C164.785 180.643 169.358 185.215 174.998 185.215Z" fill="#740B99"/>
<path fill-rule="evenodd" clip-rule="evenodd" d="M174.995 180.968C178.29 180.968 180.962 178.296 180.962 175C180.962 171.705 178.29 169.033 174.995 169.033C171.699 169.033 169.027 171.705 169.027 175C169.027 178.296 171.699 180.968 174.995 180.968Z" fill="#740B99"/>
<g opacity="0.5">
<path opacity="0.2" fill-rule="evenodd" clip-rule="evenodd" d="M175 349C271.098 349 349 271.098 349 175C349 78.9025 271.098 1 175 1C78.9025 1 1 78.9025 1 175C1 271.098 78.9025 349 175 349Z" stroke="#740B99"/>
<path opacity="0.4" fill-rule="evenodd" clip-rule="evenodd" d="M174.997 301.937C245.101 301.937 301.931 245.107 301.931 175.003C301.931 104.899 245.101 48.0684 174.997 48.0684C104.893 48.0684 48.0625 104.899 48.0625 175.003C48.0625 245.107 104.893 301.937 174.997 301.937Z" stroke="#740B99"/>
<path fill-rule="evenodd" clip-rule="evenodd" d="M174.996 249.16C215.956 249.16 249.16 215.956 249.16 174.996C249.16 134.036 215.956 100.832 174.996 100.832C134.036 100.832 100.832 134.036 100.832 174.996C100.832 215.956 134.036 249.16 174.996 249.16Z" stroke="#740B99"/>
</g>
<g opacity="0.5">
<path opacity="0.2" fill-rule="evenodd" clip-rule="evenodd" d="M175.002 227.912C204.225 227.912 227.914 204.223 227.914 175C227.914 145.778 204.225 122.088 175.002 122.088C145.779 122.088 122.09 145.778 122.09 175C122.09 204.223 145.779 227.912 175.002 227.912Z" stroke="#740B99"/>
<path opacity="0.4" fill-rule="evenodd" clip-rule="evenodd" d="M174.998 213.6C196.317 213.6 213.598 196.318 213.598 175C213.598 153.682 196.317 136.4 174.998 136.4C153.68 136.4 136.398 153.682 136.398 175C136.398 196.318 153.68 213.6 174.998 213.6Z" stroke="#740B99"/>
<path fill-rule="evenodd" clip-rule="evenodd" d="M175.002 197.553C187.458 197.553 197.555 187.456 197.555 175C197.555 162.544 187.458 152.447 175.002 152.447C162.546 152.447 152.449 162.544 152.449 175C152.449 187.456 162.546 197.553 175.002 197.553Z" stroke="#740B99"/>
</g>
</svg>
