<svg width="112" height="184" viewBox="0 0 112 184" fill="none" xmlns="http://www.w3.org/2000/svg">
<g opacity="0.6">
<path opacity="0.2" fill-rule="evenodd" clip-rule="evenodd" d="M92 184C142.81 184 184 142.81 184 92C184 41.1898 142.81 0 92 0C41.1898 0 0 41.1898 0 92C0 142.81 41.1898 184 92 184Z" fill="#740B99"/>
<path opacity="0.4" fill-rule="evenodd" clip-rule="evenodd" d="M92.0015 159.114C129.068 159.114 159.116 129.066 159.116 91.9995C159.116 54.9331 129.068 24.8848 92.0015 24.8848C54.935 24.8848 24.8867 54.9331 24.8867 91.9995C24.8867 129.066 54.935 159.114 92.0015 159.114Z" fill="#740B99"/>
<path fill-rule="evenodd" clip-rule="evenodd" d="M91.9983 131.213C113.655 131.213 131.211 113.657 131.211 92.0002C131.211 70.3434 113.655 52.7871 91.9983 52.7871C70.3415 52.7871 52.7852 70.3434 52.7852 92.0002C52.7852 113.657 70.3415 131.213 91.9983 131.213Z" fill="#740B99"/>
</g>
</svg>
