<svg width="117" height="105" viewBox="0 0 117 105" fill="none" xmlns="http://www.w3.org/2000/svg">
<path fill-rule="evenodd" clip-rule="evenodd" d="M64.1976 2.79213C74.1726 3.92887 82.5955 7.87903 89.8723 14.8344L60.5901 44.2883L64.1976 2.79213ZM58.3931 49.0254C58.5714 49.1106 58.7639 49.1515 58.9529 49.1515C59.2972 49.1515 59.6362 49.0165 59.8905 48.7607L92.6937 15.7634C92.941 15.5147 93.0805 15.1755 93.0805 14.822C93.0805 14.4686 92.941 14.1293 92.6937 13.8807C84.4298 5.56827 74.7532 1.03021 63.1113 0.00536809C62.7635 -0.0266026 62.4121 0.0852949 62.1437 0.312642C61.8753 0.538213 61.7075 0.865025 61.6757 1.2167L57.6338 47.7021C57.5861 48.2598 57.8898 48.7891 58.3931 49.0254V49.0254Z" fill="#740B99"/>
<path fill-rule="evenodd" clip-rule="evenodd" d="M95.2026 65.4699C95.1938 65.4272 95.1655 65.3917 95.1532 65.3509C95.0137 64.9015 94.6552 64.5321 94.1626 64.4344L54.6263 56.5696C53.92 56.4346 53.2137 56.8964 53.0706 57.6175C52.9276 58.3404 53.3938 59.0402 54.1107 59.1841L92.3173 66.7824C87.1523 89.6468 65.38 104.87 42.1209 101.579C30.2 99.8934 19.6458 93.6396 12.4007 83.9703C5.15743 74.3009 2.09023 62.3705 3.76598 50.3797C5.61477 37.1527 13.1371 25.4692 24.4082 18.3273C32.4196 13.2475 41.5859 10.8763 51.0011 11.4323L49.1382 32.842V32.8438L47.4271 52.5058C47.3636 53.2375 47.9039 53.884 48.6314 53.948C48.6703 53.9533 48.7091 53.9551 48.748 53.9551C49.4278 53.9551 50.0052 53.4311 50.0652 52.7384L51.6704 34.3109V34.3091L53.7558 10.3186C53.7876 9.96694 53.6763 9.61704 53.4503 9.34706C53.226 9.07709 52.9029 8.90658 52.5533 8.87638C42.0944 7.95634 31.8793 10.4447 22.9973 16.0716C11.0658 23.6326 3.10027 36.0035 1.14023 50.0085C-0.630865 62.7044 2.61467 75.3364 10.2853 85.5723C17.9577 95.8136 29.1317 102.435 41.7519 104.217C44.0015 104.535 46.2352 104.691 48.446 104.691C70.8964 104.691 90.7546 88.7392 95.2061 65.9974C95.2379 65.8375 95.2291 65.6795 95.2026 65.5267C95.2009 65.5072 95.2062 65.4876 95.2026 65.4699" fill="#740B99"/>
<path fill-rule="evenodd" clip-rule="evenodd" d="M113.409 55.7126L71.4271 49.7784L101.403 19.6247C110.831 29.6085 114.965 42.0326 113.409 55.7126M102.353 16.7864C101.857 16.2873 100.977 16.2873 100.481 16.7864L67.678 49.7838C67.3213 50.1408 67.1977 50.6701 67.3584 51.1478C67.5173 51.6274 67.9323 51.9755 68.4285 52.0448L114.369 58.5384C114.431 58.5473 114.491 58.5526 114.553 58.5526C114.841 58.5526 115.12 58.4603 115.351 58.2844C115.632 58.0713 115.815 57.7533 115.867 57.4052C118.03 41.903 113.359 27.8572 102.353 16.7864" fill="#740B99"/>
</svg>
