<svg width="116" height="103" viewBox="0 0 116 103" fill="none" xmlns="http://www.w3.org/2000/svg">
<path d="M114.647 51.0681C114.647 50.7225 114.293 50.3769 114.117 50.2041C113.763 50.0314 113.41 50.0314 113.057 50.0314L106.874 51.4137C105.461 46.23 102.988 41.9102 99.2779 37.7632L103.871 33.4435C104.401 32.9251 104.401 32.0611 103.871 31.5428C98.3947 26.0135 92.3885 22.3849 84.7925 20.1386C84.4392 19.9658 84.0859 20.1386 83.7326 20.3114C83.3793 20.4842 83.2027 20.8298 83.026 21.0026L81.2595 26.8774C75.96 25.4951 70.8371 25.3223 65.3609 26.5319L63.9477 20.4842C63.771 19.793 63.0644 19.4474 62.3578 19.4474C60.9446 19.793 59.5314 20.1386 58.1182 20.657V20.4842C54.2319 12.7086 49.109 7.5249 42.7496 5.10583C42.043 4.76025 40.9831 4.41467 39.9231 4.06909H39.7465C39.2165 3.8963 38.8632 3.72351 38.3333 3.55072L35.3302 2.68677C31.9739 2.1684 28.2642 1.30444 24.9078 0.613281C24.5545 0.613281 24.2012 0.613281 23.8479 0.786072C23.4946 0.958862 23.3179 1.30444 23.3179 1.82281C23.3179 2.68677 23.3179 7.17932 27.9109 10.2895C24.7312 13.7454 14.662 24.6312 9.89246 29.8149C7.9493 31.7156 7.596 34.4802 8.83256 36.7265L14.662 45.5388C14.8387 45.8844 15.192 46.0572 15.7219 46.0572C16.0752 46.0572 16.4286 45.8844 16.7819 45.7116C16.7819 45.7116 24.3779 38.2816 36.0368 37.936C34.0937 40.1823 30.5606 44.3293 24.3779 51.932C15.192 63.3362 10.0691 70.5934 9.18586 73.7036C8.3026 76.2955 11.129 81.8248 17.3118 90.4643H7.06604C3.35637 90.4643 0.176651 93.4018 0.176651 97.2031L0 99.1038C0 99.4494 0.176651 99.795 0.353302 99.9678C0.529953 100.141 0.883255 100.313 1.23656 100.313L45.2227 100.486C45.9293 100.486 46.4592 99.9678 46.6359 99.2766C46.6359 98.5855 46.1059 97.8943 45.3993 97.8943H2.64977V97.0304C2.64977 94.7841 4.59293 92.8834 6.88939 92.8834L19.7849 93.0562C20.3149 93.0562 20.6682 92.7106 21.0215 92.365C21.1981 91.8466 21.1981 91.3283 20.8448 90.9827C13.9554 81.652 11.129 75.7771 11.659 74.3948C13.4255 68.1744 38.3333 38.9728 39.7465 37.5904C39.9231 37.4176 40.0998 37.0721 40.0998 36.7265C40.0998 36.0353 39.5698 35.517 38.8632 35.3442C27.3809 34.4802 19.0783 40.3551 16.0752 42.7742L11.4823 36.0353L10.9524 35.3442C10.2458 34.1346 10.7757 32.5795 11.8356 31.5428C31.2672 10.8079 31.2672 10.6351 31.2672 10.1168C31.2672 9.59838 30.9139 9.2528 30.5606 8.90722C27.5576 7.35211 26.4977 5.10583 26.1444 3.55072C28.9708 4.06909 31.9738 4.93304 34.9769 5.797L37.8033 6.66095C38.3333 6.83374 38.6866 7.00653 39.2165 7.00653L39.5698 5.797L39.3932 7.17932C40.4531 7.5249 41.3364 7.87048 42.043 8.04327C47.6958 10.1168 52.2887 14.7821 55.9984 22.0393C51.2288 23.94 46.9892 26.7046 42.9262 30.3332C42.3963 30.8516 42.3963 31.7156 42.9262 32.2339L47.3425 36.7265C43.4562 40.5279 40.8064 44.8476 39.0399 49.8586L33.0338 48.1307C32.6805 47.9579 32.3272 48.1307 31.9738 48.3034C31.6205 48.4762 31.4439 48.8218 31.2672 48.9946C28.9708 56.4246 28.7941 63.3362 30.7373 70.7662C30.7373 71.1118 31.0906 71.4574 31.2672 71.6302C31.6206 71.8029 31.9738 71.8029 32.3271 71.8029L38.5099 70.4206C39.9231 75.6043 42.3963 79.9241 46.1059 84.0711L41.513 88.3908C40.9831 88.9092 40.9831 89.7732 41.513 90.2915C46.9892 95.8208 52.9953 99.4494 60.5913 101.696C60.9446 101.868 61.2979 101.696 61.6512 101.523C62.0045 101.35 62.1812 101.005 62.3578 100.832L64.1244 94.9569C69.4239 96.3392 74.5468 96.512 80.0229 95.3025L81.4362 101.35C81.6128 101.868 82.1428 102.387 82.6727 102.387C82.8494 102.387 82.8494 102.387 83.026 102.387C90.622 100.659 96.9814 97.2031 102.634 91.8466C103.164 91.3283 103.164 90.4643 102.634 89.946L98.218 85.4534C102.104 81.652 104.754 77.3322 106.521 72.3213L112.527 74.0492C112.88 74.222 113.233 74.0492 113.587 73.8764C113.94 73.7037 114.117 73.3581 114.293 73.1853C116.413 65.4097 116.59 58.4981 114.647 51.0681ZM111.997 70.939L105.991 69.2111C105.637 69.0383 105.284 69.2111 104.931 69.3839C104.577 69.5567 104.401 69.9023 104.224 70.0751C102.458 75.7771 99.8079 80.0969 95.3916 84.2439C94.8616 84.7622 94.8616 85.6262 95.3916 86.1446L99.6312 90.6371C94.8616 94.9569 89.7388 97.5487 83.556 99.2766L82.1428 93.229C81.9661 92.7106 81.4362 92.1922 80.9062 92.1922C80.7296 92.1922 80.7295 92.1922 80.5529 92.1922C74.5468 93.5745 69.4239 93.4018 63.5944 91.8466C63.2411 91.6739 62.8878 91.8466 62.5345 92.0194C62.1812 92.1922 62.0045 92.5378 61.8279 92.7106L60.0614 98.5855C53.8786 96.6848 48.9324 93.7473 44.3394 89.2548L48.9324 85.1078C49.4623 84.5894 49.4623 83.7255 48.9324 83.2071C44.6927 78.8874 42.2196 74.3948 40.8064 68.5199C40.8064 68.1744 40.4531 67.8288 40.2764 67.656C39.9231 67.4832 39.5698 67.4832 39.2165 67.4832L33.0338 68.8655C31.7972 62.8178 31.9739 57.1158 33.5637 50.8953L39.5698 52.6232C39.9231 52.796 40.2765 52.6232 40.6298 52.4504C40.9831 52.2776 41.1597 51.932 41.3364 51.7593C43.1029 46.0572 45.7526 41.7374 50.1689 37.5904C50.6989 37.0721 50.6989 36.2081 50.1689 35.6897L45.9293 31.1972C50.6989 26.8774 55.8217 24.2856 62.0045 22.5577L63.4177 28.6053C63.4177 28.9509 63.771 29.2965 63.9477 29.4693C64.301 29.6421 64.6543 29.6421 65.0076 29.6421C71.0137 28.2598 76.1366 28.4325 81.9661 29.9877C82.3194 30.1604 82.6727 29.9877 83.026 29.8149C83.3793 29.6421 83.556 29.2965 83.7326 29.1237L85.4991 23.2488C91.6819 25.1495 96.6282 28.087 101.221 32.5795L96.6282 36.8993C96.0982 37.4176 96.0982 38.2816 96.6282 38.8C100.868 43.1197 103.341 47.6123 104.754 53.4872C104.931 54.1783 105.637 54.5239 106.344 54.5239L112.527 53.1416C113.763 59.0165 113.587 64.7185 111.997 70.939Z" fill="#740B99"/>
<path d="M95.8269 57.1384C95.1291 57.1384 94.6057 57.8362 94.6057 58.5341C94.6057 59.4064 94.7801 60.1042 94.7801 60.9765C94.7801 72.8398 85.1848 82.4351 73.3216 82.4351C61.4583 82.4351 51.863 72.8398 51.863 60.9765C51.863 49.1132 61.4583 39.5179 73.3216 39.5179C78.5554 39.5179 83.6147 41.437 87.6273 44.9262C88.1507 45.4496 89.023 45.2751 89.5463 44.7517C90.0697 44.2283 89.8953 43.356 89.3719 42.8327C85.0104 38.8201 79.2532 36.7266 73.3216 36.7266C60.0626 36.7266 49.2461 47.5431 49.2461 60.802C49.2461 74.061 60.0626 84.8775 73.3216 84.8775C86.5805 84.8775 97.397 74.061 97.397 60.802C97.397 59.9297 97.397 59.0574 97.2226 58.1851C97.2226 57.6618 96.5247 57.1384 95.8269 57.1384Z" fill="#740B99"/>
</svg>
