<svg width="115" height="114" viewBox="0 0 115 114" fill="none" xmlns="http://www.w3.org/2000/svg">
<path d="M106.637 66.9292L106.499 67.5993L107.096 67.9338L111.121 70.1885C113.238 71.374 113.943 73.985 112.74 76.008C112.74 76.0081 112.74 76.0081 112.74 76.0081L101.777 94.4278C100.563 96.4677 97.8365 97.1904 95.7042 95.9961L91.6689 93.736L91.1011 93.418L90.606 93.8406C85.6113 98.1039 79.7622 101.395 73.5631 103.431L72.9204 103.642V104.319V108.793C72.9204 111.121 70.9579 113.065 68.4874 113.065H46.5616C44.0911 113.065 42.1286 111.121 42.1286 108.793V104.319V103.642L41.4856 103.432C35.2515 101.387 29.3946 98.0993 24.4194 93.8536L23.9243 93.4311L23.3565 93.7491L19.3449 95.9961C17.2121 97.1905 14.4864 96.4677 13.2721 94.4278L2.30935 76.0081C2.30933 76.0081 2.30931 76.0081 2.3093 76.008C1.1056 73.985 1.81106 71.374 3.92766 70.1885L3.47119 69.3735L3.92768 70.1885L7.93643 67.9433L8.53296 67.6092L8.39484 66.9396C7.74282 63.7784 7.41283 60.5721 7.41283 57.3921C7.41283 54.2599 7.74812 51.057 8.41136 47.8547L8.55015 47.1846L7.95311 46.8502L3.92746 44.5955L3.92738 44.5954C2.89839 44.0192 2.17368 43.0976 1.87075 42.0005C1.56799 40.904 1.72176 39.7632 2.30926 38.7762L2.3093 38.7762L13.2721 20.3565C13.2721 20.3565 13.2721 20.3564 13.2722 20.3564C13.8604 19.3682 14.8111 18.6566 15.9634 18.357C17.1161 18.0573 18.3146 18.2111 19.3448 18.7881C19.3448 18.7881 19.3448 18.7881 19.3448 18.7881L23.3803 21.0484L23.9482 21.3665L24.4433 20.9439C29.4379 16.6803 35.2871 13.389 41.4859 11.353L42.1286 11.1419V10.4655V5.99167C42.1286 3.66326 44.0911 1.71931 46.5616 1.71931H68.4874C70.9579 1.71931 72.9204 3.66326 72.9204 5.99167V10.4653V11.142L73.5634 11.3529C79.797 13.3977 85.6541 16.6849 90.6291 20.9306L91.1242 21.3531L91.692 21.0351L95.704 18.7881C96.734 18.2112 97.9323 18.0574 99.0855 18.357C100.238 18.6564 101.188 19.3682 101.777 20.3565L112.739 38.7762L112.74 38.7762C113.327 39.7632 113.481 40.904 113.178 42.0005C112.875 43.0976 112.15 44.0192 111.121 44.5954L111.121 44.5955L107.113 46.8407L106.516 47.1748L106.654 47.8444C107.306 51.0054 107.636 54.2116 107.636 57.3921C107.636 60.5241 107.301 63.727 106.637 66.9292Z" stroke="#740B99" stroke-width="1.86831"/>
<path d="M23.5787 57.3911C23.5787 39.2966 38.7813 24.524 57.5287 24.524C76.276 24.524 91.4786 39.2966 91.4786 57.3911C91.4786 75.4857 76.276 90.2582 57.5287 90.2582C38.7813 90.2582 23.5787 75.4857 23.5787 57.3911Z" stroke="#740B99" stroke-width="1.86831"/>
<path d="M74.6062 18.3534C73.4255 17.9024 72.2071 17.4962 70.9844 17.1465" stroke="#740B99" stroke-width="1.86831"/>
<path d="M19.4609 77.5293C20.0928 78.877 20.7923 80.2027 21.5399 81.4696C21.8351 81.9697 22.3116 82.2386 22.7965 82.2386" stroke="#740B99" stroke-width="1.86831"/>
<path d="M27.3633 87.541C34.4638 94.3154 43.7805 98.5051 53.5965 99.3383C53.6458 99.3425 53.6947 99.3445 53.7433 99.3445" stroke="#740B99" stroke-width="1.86831"/>
<path d="M82.457 22.248C91.026 27.9047 97.225 36.324 99.912 45.9551" stroke="#740B99" stroke-width="1.86831"/>
<path d="M65.8508 63.1857C65.8508 64.799 65.2328 66.1714 63.9966 67.3028C62.7604 68.4133 60.948 69.0314 58.5594 69.1571V72.7714H56.988V69.1885C55.4585 69.1047 54.0128 68.8114 52.6508 68.3085C51.3099 67.7847 50.2518 67.1247 49.4766 66.3285L50.388 64.5371C51.1213 65.2495 52.0747 65.8466 53.248 66.3285C54.4423 66.8104 55.6889 67.0933 56.988 67.1771V58.9114C55.5423 58.5552 54.3375 58.178 53.3737 57.7799C52.4099 57.3609 51.6032 56.7638 50.9537 55.9885C50.3251 55.1923 50.0108 54.1447 50.0108 52.8457C50.0108 51.2323 50.5975 49.8809 51.7708 48.7914C52.9442 47.6809 54.6832 47.0314 56.988 46.8428V43.2285H58.5594V46.8114C59.7537 46.8533 60.9061 47.0523 62.0166 47.4085C63.148 47.7438 64.1223 48.1942 64.9394 48.7599L64.1537 50.6142C63.2947 50.0695 62.3832 49.6399 61.4194 49.3257C60.4556 49.0114 59.5023 48.8333 58.5594 48.7914V57.1199C60.1099 57.4971 61.3775 57.8847 62.3623 58.2828C63.347 58.6599 64.1747 59.2466 64.8451 60.0428C65.5156 60.839 65.8508 61.8866 65.8508 63.1857ZM52.3051 52.7828C52.3051 53.8723 52.7032 54.6999 53.4994 55.2657C54.3166 55.8314 55.4794 56.3133 56.988 56.7114V48.8542C55.4375 48.9799 54.2642 49.4095 53.468 50.1428C52.6928 50.8552 52.3051 51.7352 52.3051 52.7828ZM58.5594 67.1771C60.2147 67.0514 61.4613 66.6428 62.2994 65.9514C63.1375 65.2599 63.5566 64.3799 63.5566 63.3114C63.5566 62.1799 63.127 61.3314 62.268 60.7657C61.4089 60.1999 60.1728 59.718 58.5594 59.3199V67.1771Z" fill="#740B99"/>
</svg>
