<svg width="116" height="118" viewBox="0 0 116 118" fill="none" xmlns="http://www.w3.org/2000/svg">
<path d="M61.7035 1.03562C58.168 0.111799 54.4465 0.481329 51.4693 2.32898C48.306 4.17663 46.0731 6.9481 45.1427 10.4586C43.2819 17.4797 47.3756 24.8703 54.6326 26.9027C55.1908 27.0875 55.9351 27.2722 56.6794 27.2722L56.4933 49.6288C56.4933 50.3678 57.0516 51.1069 57.7959 51.1069C58.5402 51.1069 59.0984 50.5526 59.2845 49.8136L59.4705 27.6418C61.3313 27.457 63.1921 26.9027 64.8667 25.9789C68.03 24.1312 70.2629 21.3598 71.1933 17.8492C72.1237 14.3387 71.7516 10.8282 69.8908 7.68716C68.03 4.17663 65.0528 1.95945 61.7035 1.03562ZM68.4022 16.5559C67.6579 19.3273 65.9832 21.5445 63.3781 23.0226C60.9592 24.5008 57.9819 24.8703 55.3769 24.1312C49.7946 22.6531 46.4452 16.7406 47.9338 11.1977C49.4225 5.65475 55.3769 2.32898 60.9592 3.8071C63.7503 4.54616 65.9832 6.20904 67.4718 8.79575C68.7743 11.0129 69.1465 13.7844 68.4022 16.5559Z" fill="#740B99"/>
<path d="M59.2844 54.2491C57.0515 53.8796 54.8186 54.4339 52.9578 55.7272C51.0971 57.0206 49.9806 58.8682 49.4224 61.0854C48.6781 65.7045 51.6553 69.9541 56.3072 70.6932C56.3072 70.6932 56.3072 70.6932 56.4933 70.6932L56.3072 95.8212C56.3072 96.5602 56.8654 97.2993 57.6097 97.2993C58.354 97.2993 58.9123 96.745 59.0983 96.006L59.2844 70.6932C62.6338 70.1389 65.4249 67.3674 66.1692 63.8569C66.5414 61.6397 65.9831 59.4225 64.6806 57.5749C63.3781 55.7272 61.5173 54.6186 59.2844 54.2491ZM63.3781 63.3026C62.8199 66.2588 60.0287 68.2912 56.8654 67.9217C53.8882 67.3674 51.8414 64.4112 52.2135 61.4549C52.3996 59.9768 53.33 58.6835 54.4464 57.7596C55.749 56.8358 57.2376 56.651 58.7262 56.8358C60.2148 57.0206 61.5173 57.9444 62.4477 59.053C63.3781 60.3463 63.7502 62.0092 63.3781 63.3026Z" fill="#740B99"/>
<path d="M30.9961 70.5057L30.81 95.8185C30.81 96.5575 31.3682 97.2966 32.1125 97.2966C32.8568 97.2966 33.4151 96.7423 33.6011 96.0032L33.7872 70.6904C37.3227 70.3209 40.486 67.5494 41.0442 63.8541C41.4163 61.637 40.8581 59.4198 39.5556 57.5721C38.253 55.7245 36.3923 54.6159 34.1594 54.0616C31.9265 53.6921 29.6935 54.2464 27.8328 55.5397C25.972 56.8331 24.8556 58.6807 24.2973 60.8979C23.7391 65.3323 26.5303 69.5819 30.9961 70.5057ZM27.0885 61.4522C27.2746 59.9741 28.2049 58.6807 29.3214 57.7569C30.6239 56.8331 32.1125 56.6483 33.6011 56.8331C35.0897 57.0178 36.3923 57.9417 37.3227 59.0503C38.253 60.3436 38.4391 61.8217 38.253 63.2998C37.6948 66.2561 34.9037 68.2885 31.7404 67.919C28.7632 67.3647 26.7163 64.5932 27.0885 61.4522Z" fill="#740B99"/>
<path d="M84.4055 54.2491C82.1726 53.8796 79.9397 54.4339 78.0789 55.7272C76.2182 57.0206 75.1017 58.8682 74.5435 61.0854C73.7992 65.7045 76.7764 69.9541 81.4283 70.6932C81.6144 70.6932 81.8004 70.6932 81.9865 70.6932L81.8004 95.8212C81.8004 96.5602 82.3587 97.2993 83.103 97.2993C83.8473 97.2993 84.4055 96.745 84.5916 96.006L84.7776 70.6932C87.9409 69.9541 90.546 67.3674 91.1042 64.0416C91.4764 61.8245 90.9182 59.6073 89.6156 57.7596C88.6852 55.7272 86.6384 54.6186 84.4055 54.2491ZM88.4992 63.3026C87.9409 66.2588 85.1498 68.2912 81.9865 67.9217C79.0093 67.3674 76.9625 64.4112 77.3346 61.4549C77.5207 59.9768 78.4511 58.6835 79.5675 57.7596C80.8701 56.8358 82.3587 56.651 83.8473 56.8358C85.3359 57.0206 86.6384 57.9444 87.5688 59.053C88.4992 60.3463 88.8713 62.0092 88.4992 63.3026Z" fill="#740B99"/>
<path d="M59.2819 100.625C54.63 99.8856 50.3503 102.842 49.606 107.461C48.8617 112.08 51.8389 116.33 56.4908 117.069C57.049 117.069 57.4212 117.254 57.9794 117.254C59.6541 117.254 61.3287 116.699 62.8174 115.775C64.6781 114.482 65.7946 112.634 66.3528 110.417C66.911 105.798 63.9338 101.364 59.2819 100.625ZM63.3756 109.863C63.1895 111.341 62.2591 112.634 61.1427 113.558C59.8401 114.482 58.3515 114.667 56.8629 114.482C53.8857 113.928 51.8389 110.972 52.211 108.015C52.7693 105.244 55.0022 103.396 57.7933 103.396C58.1655 103.396 58.3515 103.396 58.7237 103.396C61.887 103.95 63.9338 106.722 63.3756 109.863Z" fill="#740B99"/>
<path d="M10.3444 100.625C5.69252 99.8856 1.41277 102.842 0.668469 107.461C-0.0758345 112.08 2.90138 116.33 7.55328 117.069C8.11151 117.069 8.48366 117.254 9.04189 117.254C10.7166 117.254 12.3913 116.699 13.8799 115.775C15.7406 114.482 16.8571 112.634 17.4153 110.417C17.7875 108.2 17.2292 105.983 15.9267 104.135C14.4381 102.288 12.5773 100.994 10.3444 100.625ZM14.4381 109.863C14.252 111.341 13.3216 112.634 12.2052 113.558C10.9026 114.482 9.41404 114.667 7.92543 114.482C4.94822 113.928 2.90138 110.972 3.27353 108.015C3.83176 105.244 6.06467 103.396 8.85581 103.396C9.22796 103.396 9.41404 103.396 9.78619 103.396C11.2748 103.581 12.5773 104.505 13.5077 105.613C14.4381 106.907 14.6242 108.385 14.4381 109.863Z" fill="#740B99"/>
<path d="M34.9063 100.625C30.2544 99.8856 25.9747 102.842 25.2304 107.461C24.8582 109.678 25.4164 111.895 26.719 113.743C28.0215 115.591 29.8823 116.699 32.1152 117.254C32.6734 117.254 33.0456 117.438 33.6038 117.438C35.2785 117.438 36.9531 116.884 38.4418 115.96C40.3025 114.667 41.419 112.819 41.9772 110.602C42.5354 105.798 39.3721 101.364 34.9063 100.625ZM39 109.863C38.8139 111.341 37.8835 112.634 36.7671 113.558C35.4645 114.482 33.9759 114.667 32.4873 114.482C30.9987 114.297 29.6962 113.373 28.7658 112.265C27.8354 110.972 27.6494 109.493 27.8354 108.015C28.3937 105.244 30.6266 103.396 33.4177 103.396C33.7899 103.396 33.9759 103.396 34.3481 103.396C37.3253 103.95 39.3721 106.722 39 109.863Z" fill="#740B99"/>
<path d="M83.8444 100.625C79.1925 99.8856 74.9128 102.842 74.1685 107.461C73.4242 112.08 76.4014 116.33 81.0533 117.069C81.6115 117.069 81.9837 117.254 82.5419 117.254C84.2166 117.254 85.8913 116.699 87.3799 115.775C89.2406 114.482 90.3571 112.634 90.9153 110.417C91.2875 108.2 90.7292 105.983 89.4267 104.135C87.9381 102.288 86.0773 100.994 83.8444 100.625ZM87.9381 109.863C87.752 111.341 86.8216 112.634 85.7052 113.558C84.4026 114.482 82.914 114.667 81.4254 114.482C78.4482 113.928 76.4014 110.972 76.7735 108.015C77.3318 105.244 79.5647 103.396 82.3558 103.396C82.728 103.396 82.914 103.396 83.2862 103.396C84.7748 103.581 86.0773 104.505 87.0077 105.613C87.752 106.907 88.1242 108.385 87.9381 109.863Z" fill="#740B99"/>
<path d="M110.27 101.179C105.991 99.3317 100.967 101.179 99.1058 105.429C98.1754 107.461 98.1754 109.679 98.9197 111.896C99.664 113.928 101.339 115.591 103.386 116.515C104.502 117.069 105.618 117.254 106.735 117.254C109.898 117.254 113.061 115.406 114.364 112.265C116.411 108.016 114.55 103.027 110.27 101.179ZM111.945 111.157C111.387 112.45 110.27 113.559 108.782 114.113C107.293 114.667 105.805 114.667 104.502 113.928C103.199 113.374 102.083 112.265 101.525 110.787C100.967 109.309 100.967 107.831 101.711 106.538C102.641 104.505 104.688 103.212 106.921 103.212C107.665 103.212 108.41 103.397 109.154 103.766C111.945 105.059 113.248 108.385 111.945 111.157Z" fill="#740B99"/>
</svg>
