<svg width="1440" height="628" viewBox="0 0 1440 628" fill="none" xmlns="http://www.w3.org/2000/svg">
<g filter="url(#filter0_d)">
<path fill-rule="evenodd" clip-rule="evenodd" d="M0 0H1440V528.029C1440 528.029 1310.5 601 727 601C143.5 601 0 528.029 0 528.029V0Z" fill="white"/>
</g>
<mask id="mask0" mask-type="alpha" maskUnits="userSpaceOnUse" x="0" y="0" width="1440" height="601">
<path fill-rule="evenodd" clip-rule="evenodd" d="M0 0H1440V528.029C1440 528.029 1310.5 601 727 601C143.5 601 0 528.029 0 528.029V0Z" fill="#740B99"/>
</mask>
<g mask="url(#mask0)">
<path opacity="0.05" d="M482.516 250.947L364.4 612H274.653L195.221 367.516L113.211 612H23.9791L-94.6526 250.947H-7.99991L73.4949 504.716L158.6 250.947H235.969L318.495 506.779L402.569 250.947H482.516ZM693.708 330.379C728.094 330.379 755.775 340.694 776.75 361.326C798.07 381.958 808.729 412.561 808.729 453.137V612H728.266V465.516C728.266 443.509 723.452 427.175 713.824 416.516C704.196 405.512 690.27 400.01 672.045 400.01C651.757 400.01 635.596 406.372 623.561 419.095C611.526 431.474 605.508 450.042 605.508 474.8V612H525.045V229.284H605.508V363.389C616.168 352.73 629.063 344.649 644.192 339.147C659.322 333.302 675.827 330.379 693.708 330.379ZM875.665 334.505H956.128V612H875.665V334.505ZM915.897 295.821C901.111 295.821 889.076 291.523 879.792 282.926C870.507 274.33 865.865 263.67 865.865 250.947C865.865 238.224 870.507 227.565 879.792 218.968C889.076 210.372 901.111 206.073 915.897 206.073C930.683 206.073 942.718 210.2 952.002 218.452C961.286 226.705 965.928 237.021 965.928 249.4C965.928 262.81 961.286 273.986 952.002 282.926C942.718 291.523 930.683 295.821 915.897 295.821ZM1203.78 598.589C1195.88 604.435 1186.08 608.905 1174.38 612C1163.04 614.751 1151 616.126 1138.28 616.126C1105.27 616.126 1079.65 607.702 1061.43 590.853C1043.55 574.003 1034.61 549.246 1034.61 516.579V402.589H991.795V340.694H1034.61V273.126H1115.07V340.694H1184.18V402.589H1115.07V515.547C1115.07 527.239 1117.99 536.351 1123.84 542.884C1130.03 549.074 1138.62 552.168 1149.63 552.168C1162.35 552.168 1173.18 548.73 1182.12 541.853L1203.78 598.589ZM1506.21 474.284C1506.21 475.316 1505.69 482.537 1504.66 495.947H1294.74C1298.52 513.14 1307.46 526.723 1321.56 536.695C1335.66 546.667 1353.19 551.653 1374.17 551.653C1388.61 551.653 1401.33 549.589 1412.34 545.463C1423.68 540.993 1434.17 534.116 1443.8 524.831L1486.61 571.253C1460.48 601.168 1422.31 616.126 1372.11 616.126C1340.81 616.126 1313.13 610.109 1289.06 598.074C1264.99 585.695 1246.42 568.674 1233.36 547.01C1220.29 525.347 1213.76 500.761 1213.76 473.253C1213.76 446.088 1220.12 421.674 1232.84 400.01C1245.91 378.003 1263.62 360.982 1285.97 348.947C1308.66 336.568 1333.94 330.379 1361.79 330.379C1388.95 330.379 1413.54 336.224 1435.55 347.916C1457.55 359.607 1474.75 376.456 1487.13 398.463C1499.85 420.126 1506.21 445.4 1506.21 474.284ZM1362.31 391.242C1344.08 391.242 1328.78 396.4 1316.4 406.716C1304.02 417.031 1296.46 431.13 1293.71 449.01H1430.39C1427.64 431.474 1420.07 417.547 1407.69 407.231C1395.32 396.572 1380.19 391.242 1362.31 391.242Z" fill="#740B99"/>
</g>
<defs>
<filter id="filter0_d" x="-20" y="-13" width="1480" height="641" filterUnits="userSpaceOnUse" color-interpolation-filters="sRGB">
<feFlood flood-opacity="0" result="BackgroundImageFix"/>
<feColorMatrix in="SourceAlpha" type="matrix" values="0 0 0 0 0 0 0 0 0 0 0 0 0 0 0 0 0 0 127 0"/>
<feOffset dy="7"/>
<feGaussianBlur stdDeviation="10"/>
<feColorMatrix type="matrix" values="0 0 0 0 0 0 0 0 0 0 0 0 0 0 0 0 0 0 0.1 0"/>
<feBlend mode="normal" in2="BackgroundImageFix" result="effect1_dropShadow"/>
<feBlend mode="normal" in="SourceGraphic" in2="effect1_dropShadow" result="shape"/>
</filter>
</defs>
</svg>
