<svg width="1210" height="281" viewBox="0 0 1210 281" fill="none" xmlns="http://www.w3.org/2000/svg">
<path opacity="0.06" d="M417.075 35.5123L323.934 320.221H253.164L190.528 127.432L125.859 320.221H55.495L-38.052 35.5123H30.278L94.5407 235.622L161.651 35.5123H222.66L287.736 237.249L354.032 35.5123H417.075ZM582.341 98.1482C609.456 98.1482 631.284 106.283 647.824 122.552C664.636 138.821 673.041 162.953 673.041 194.949V320.221H609.592V204.71C609.592 187.357 605.796 174.477 598.204 166.071C590.611 157.395 579.63 153.056 565.259 153.056C549.261 153.056 536.517 158.072 527.027 168.105C517.536 177.867 512.791 192.509 512.791 212.032V320.221H449.342V18.4298H512.791V124.179C521.197 115.773 531.365 109.401 543.296 105.062C555.226 100.453 568.242 98.1482 582.341 98.1482ZM724.555 101.402H788.004V320.221H724.555V101.402ZM756.28 70.8975C744.62 70.8975 735.13 67.5081 727.809 60.7293C720.488 53.9506 716.827 45.5449 716.827 35.5123C716.827 25.4797 720.488 17.074 727.809 10.2953C735.13 3.5165 744.62 0.127114 756.28 0.127114C767.939 0.127114 777.429 3.38093 784.75 9.88856C792.071 16.3962 795.732 24.5307 795.732 34.2921C795.732 44.867 792.071 53.6794 784.75 60.7293C777.429 67.5081 767.939 70.8975 756.28 70.8975ZM982.025 309.646C975.788 314.255 968.06 317.78 958.841 320.221C949.893 322.39 940.403 323.475 930.37 323.475C904.34 323.475 884.139 316.831 869.768 303.545C855.668 290.259 848.618 270.736 848.618 244.976V155.09H814.86V106.283H848.618V53.0015H912.068V106.283H966.569V155.09H912.068V244.163C912.068 253.382 914.372 260.568 918.982 265.719C923.863 270.6 930.642 273.04 939.318 273.04C949.351 273.04 957.892 270.329 964.942 264.906L982.025 309.646ZM1219.23 211.625C1219.23 212.438 1218.83 218.132 1218.01 228.707H1052.48C1055.46 242.265 1062.51 252.975 1073.63 260.839C1084.74 268.702 1098.57 272.634 1115.11 272.634C1126.5 272.634 1136.53 271.007 1145.21 267.753C1154.16 264.228 1162.43 258.805 1170.02 251.484L1203.78 288.089C1183.17 311.679 1153.07 323.475 1113.49 323.475C1088.81 323.475 1066.98 318.729 1048 309.239C1029.02 299.478 1014.38 286.056 1004.08 268.973C993.772 251.891 988.62 232.503 988.62 210.811C988.62 189.39 993.637 170.139 1003.67 153.056C1013.97 135.703 1027.94 122.281 1045.56 112.79C1063.46 103.029 1083.39 98.1482 1105.35 98.1482C1126.77 98.1482 1146.16 102.758 1163.51 111.977C1180.87 121.196 1194.42 134.482 1204.19 151.836C1214.22 168.919 1219.23 188.848 1219.23 211.625ZM1105.76 146.142C1091.39 146.142 1079.32 150.209 1069.56 158.344C1059.8 166.478 1053.83 177.595 1051.66 191.695H1159.45C1157.28 177.867 1151.31 166.885 1141.55 158.75C1131.79 150.345 1119.86 146.142 1105.76 146.142Z" fill="white"/>
</svg>
