<svg width="139" height="278" viewBox="0 0 139 278" fill="none" xmlns="http://www.w3.org/2000/svg">
<path d="M121.28 277.347H17.2328C8.06372 277.347 0.650391 269.901 0.650391 260.693V17.3078C0.650391 8.09887 8.06372 0.65332 17.2328 0.65332H121.28C130.449 0.65332 137.862 8.09887 137.862 17.3078V260.66C137.862 269.869 130.449 277.347 121.28 277.347Z" fill="white"/>
<path d="M121.28 278H17.2327C7.73848 278 0 270.228 0 260.692V17.3076C0 7.77211 7.73848 0 17.2327 0H121.28C130.774 0 138.512 7.77211 138.512 17.3076V260.66C138.512 270.228 130.774 278 121.28 278ZM17.2327 1.30624C8.4538 1.30624 1.30058 8.49054 1.30058 17.3076V260.66C1.30058 269.477 8.4538 276.661 17.2327 276.661H121.28C130.058 276.661 137.212 269.477 137.212 260.66V17.3076C137.212 8.49054 130.058 1.30624 121.28 1.30624H17.2327Z" fill="#575756"/>
<path d="M133.375 246.781H5.1377V29.75H133.343V246.781H133.375ZM6.11313 245.802H132.367V30.7297H6.11313V245.802Z" fill="#575756"/>
<path d="M87.4649 20.8345H50.0406C48.9026 20.8345 47.9922 19.9202 47.9922 18.7772V18.32C47.9922 17.1771 48.9026 16.2627 50.0406 16.2627H87.4649C88.603 16.2627 89.5134 17.1771 89.5134 18.32V18.7772C89.4808 19.9202 88.5704 20.8345 87.4649 20.8345ZM50.0406 17.275C49.4553 17.275 48.9676 17.7649 48.9676 18.3527V18.8099C48.9676 19.3977 49.4553 19.8875 50.0406 19.8875H87.4649C88.0502 19.8875 88.5379 19.3977 88.5379 18.8099V18.3527C88.5379 17.7649 88.0502 17.275 87.4649 17.275H50.0406Z" fill="#575756"/>
<g opacity="0.99">
<path opacity="0.99" d="M68.7361 273.363C62.2332 273.363 56.9658 268.072 56.9658 261.541C56.9658 255.01 62.2332 249.72 68.7361 249.72C75.239 249.72 80.5064 255.01 80.5064 261.541C80.5064 268.072 75.239 273.363 68.7361 273.363ZM68.7361 250.667C62.7859 250.667 57.9413 255.532 57.9413 261.509C57.9413 267.485 62.7859 272.35 68.7361 272.35C74.6863 272.35 79.531 267.485 79.531 261.509C79.531 255.532 74.7188 250.667 68.7361 250.667Z" fill="#575756"/>
</g>
<path d="M69.2558 13.7152C67.6951 13.7152 66.3945 12.4416 66.3945 10.8415C66.3945 9.24136 67.6626 7.96777 69.2558 7.96777C70.849 7.96777 72.1171 9.24136 72.1171 10.8415C72.1171 12.4416 70.8165 13.7152 69.2558 13.7152ZM69.2558 8.98011C68.2154 8.98011 67.37 9.82916 67.37 10.8742C67.37 11.9191 68.2154 12.7682 69.2558 12.7682C70.2963 12.7682 71.1417 11.9191 71.1417 10.8742C71.1417 9.82916 70.2963 8.98011 69.2558 8.98011Z" fill="#575756"/>
<path d="M106.453 36.3457H55.9251C54.9822 36.3457 54.2344 37.1294 54.2344 38.0438C54.2344 38.9908 55.0147 39.7419 55.9251 39.7419H106.453C107.396 39.7419 108.144 38.9582 108.144 38.0438C108.176 37.1294 107.396 36.3457 106.453 36.3457Z" fill="#C6C6C6"/>
<path d="M106.453 48.4287H55.9251C54.9822 48.4287 54.2344 49.2125 54.2344 50.1268C54.2344 51.0738 55.0147 51.8249 55.9251 51.8249H106.453C107.396 51.8249 108.144 51.0412 108.144 50.1268C108.176 49.2125 107.396 48.4287 106.453 48.4287Z" fill="#C6C6C6"/>
<path d="M81.7092 60.5117H55.9251C54.9822 60.5117 54.2344 61.2955 54.2344 62.2098C54.2344 63.1569 55.0147 63.9079 55.9251 63.9079H81.7092C82.6521 63.9079 83.4 63.1242 83.4 62.2098C83.4 61.2955 82.6521 60.5117 81.7092 60.5117Z" fill="#C6C6C6"/>
<path d="M63.7619 126.052H14.7298C13.7869 126.052 13.0391 126.836 13.0391 127.75C13.0391 128.697 13.8194 129.448 14.7298 129.448H63.7619C64.7048 129.448 65.4526 128.664 65.4526 127.75C65.4852 126.803 64.7048 126.052 63.7619 126.052Z" fill="#C6C6C6"/>
<path d="M52.967 138.135H14.7298C13.7869 138.135 13.0391 138.919 13.0391 139.833C13.0391 140.78 13.8194 141.531 14.7298 141.531H52.967C53.9099 141.531 54.6578 140.747 54.6578 139.833C54.6578 138.886 53.9099 138.135 52.967 138.135Z" fill="#C6C6C6"/>
<path d="M28.1904 63.81C35.8582 63.81 42.0741 57.5671 42.0741 49.866C42.0741 42.1649 35.8582 35.9219 28.1904 35.9219C20.5226 35.9219 14.3066 42.1649 14.3066 49.866C14.3066 57.5671 20.5226 63.81 28.1904 63.81Z" fill="#C6C6C6"/>
<path d="M16.1927 76.252H63.9242C64.8671 76.252 65.6149 77.0357 65.6149 77.9501V115.504C65.6149 116.451 64.8346 117.202 63.9242 117.202H16.1927C15.2498 117.202 14.502 116.419 14.502 115.504V77.9501C14.4694 77.003 15.2498 76.252 16.1927 76.252Z" fill="#C6C6C6"/>
<path d="M121.897 126.052H72.8646C71.9217 126.052 71.1738 126.836 71.1738 127.75C71.1738 128.697 71.9542 129.448 72.8646 129.448H121.897C122.84 129.448 123.587 128.664 123.587 127.75C123.587 126.803 122.84 126.052 121.897 126.052Z" fill="#C6C6C6"/>
<path d="M111.069 138.135H72.8646C71.9217 138.135 71.1738 138.919 71.1738 139.833C71.1738 140.78 71.9542 141.531 72.8646 141.531H111.102C112.045 141.531 112.793 140.747 112.793 139.833C112.793 138.886 112.012 138.135 111.069 138.135Z" fill="#C6C6C6"/>
<path d="M74.2962 76.252H122.028C122.971 76.252 123.718 77.0357 123.718 77.9501V115.504C123.718 116.451 122.938 117.202 122.028 117.202H74.2962C73.3533 117.202 72.6055 116.419 72.6055 115.504V77.9501C72.6055 77.003 73.3533 76.252 74.2962 76.252Z" fill="#C6C6C6"/>
<path d="M63.7619 209.324H14.7298C13.7869 209.324 13.0391 210.108 13.0391 211.022C13.0391 211.969 13.8194 212.72 14.7298 212.72H63.7619C64.7048 212.72 65.4526 211.937 65.4526 211.022C65.4852 210.075 64.7048 209.324 63.7619 209.324Z" fill="#C6C6C6"/>
<path d="M52.967 221.407H14.7298C13.7869 221.407 13.0391 222.191 13.0391 223.105C13.0391 224.052 13.8194 224.803 14.7298 224.803H52.967C53.9099 224.803 54.6578 224.02 54.6578 223.105C54.6578 222.158 53.9099 221.407 52.967 221.407Z" fill="#C6C6C6"/>
<path d="M16.1927 159.524H63.9242C64.8671 159.524 65.6149 160.308 65.6149 161.223V198.777C65.6149 199.724 64.8346 200.475 63.9242 200.475H16.1927C15.2498 200.475 14.502 199.691 14.502 198.777V161.223C14.4694 160.276 15.2498 159.524 16.1927 159.524Z" fill="#C6C6C6"/>
<path d="M121.897 209.324H72.8646C71.9217 209.324 71.1738 210.108 71.1738 211.022C71.1738 211.969 71.9542 212.72 72.8646 212.72H121.897C122.84 212.72 123.587 211.937 123.587 211.022C123.587 210.075 122.84 209.324 121.897 209.324Z" fill="#C6C6C6"/>
<path d="M111.069 221.407H72.8646C71.9217 221.407 71.1738 222.191 71.1738 223.105C71.1738 224.052 71.9542 224.803 72.8646 224.803H111.102C112.045 224.803 112.793 224.02 112.793 223.105C112.793 222.158 112.012 221.407 111.069 221.407Z" fill="#C6C6C6"/>
<path d="M74.2962 159.524H122.028C122.971 159.524 123.718 160.308 123.718 161.223V198.777C123.718 199.724 122.938 200.475 122.028 200.475H74.2962C73.3533 200.475 72.6055 199.691 72.6055 198.777V161.223C72.6055 160.276 73.3533 159.524 74.2962 159.524Z" fill="#C6C6C6"/>
<rect x="8.96777" y="35.9873" width="121.065" height="206.926" rx="10" fill="url(#paint0_linear)"/>
<path d="M117.865 45.2285H117.768C116.825 45.2285 116.077 46.0123 116.077 46.9266C116.077 47.8736 116.858 48.6247 117.768 48.6247H117.865C118.808 48.6247 119.556 47.841 119.556 46.9266C119.556 45.9796 118.808 45.2285 117.865 45.2285Z" fill="white"/>
<path d="M57.7785 218.631C57.7785 218.86 57.746 219.056 57.6485 219.186C57.5834 219.35 57.4534 219.48 57.3233 219.578C57.1933 219.676 56.9982 219.741 56.8031 219.807C56.608 219.872 56.3804 219.872 56.1528 219.872C56.0878 219.872 55.9902 219.872 55.8602 219.872C55.7626 219.872 55.6326 219.872 55.5025 219.839C55.3724 219.839 55.2424 219.807 55.1123 219.807C54.9823 219.807 54.8847 219.774 54.7547 219.741C54.6246 219.709 54.5596 219.643 54.5596 219.578V219.284C54.5596 219.252 54.5596 219.219 54.5921 219.186C54.6246 219.154 54.6571 219.154 54.6896 219.154H54.7221C54.8197 219.154 54.9497 219.186 55.0798 219.186C55.2099 219.186 55.3399 219.219 55.47 219.219C55.6 219.219 55.7301 219.219 55.8276 219.252C55.9252 219.252 56.0227 219.252 56.1203 219.252C56.4129 219.252 56.608 219.219 56.7706 219.121C56.9006 219.023 56.9982 218.86 56.9982 218.631C56.9982 218.5 56.9656 218.37 56.8681 218.272C56.7706 218.174 56.608 218.043 56.3479 217.913L55.47 217.39C55.2099 217.227 54.9823 217.064 54.8197 216.868C54.6571 216.672 54.5921 216.443 54.5921 216.149C54.5921 215.921 54.6246 215.725 54.7221 215.594C54.7872 215.431 54.9172 215.333 55.0473 215.235C55.1773 215.137 55.3399 215.072 55.535 215.039C55.7301 215.006 55.9252 214.974 56.1528 214.974C56.3804 214.974 56.6405 214.974 56.8681 215.006C57.0957 215.039 57.3233 215.039 57.5184 215.104C57.6159 215.137 57.681 215.17 57.681 215.268V215.561C57.681 215.659 57.6159 215.725 57.5184 215.725H57.4859C57.3233 215.725 57.1282 215.692 56.8681 215.692C56.608 215.659 56.3804 215.659 56.1203 215.659C55.8602 215.659 55.6976 215.692 55.535 215.757C55.3724 215.823 55.3074 215.953 55.3074 216.182C55.3074 216.313 55.3724 216.443 55.47 216.541C55.5675 216.639 55.7301 216.737 55.9252 216.868L56.7706 217.39C57.1282 217.619 57.3883 217.815 57.5184 218.011C57.7135 218.141 57.7785 218.403 57.7785 218.631Z" fill="white"/>
<path d="M64.4762 219.807C64.4437 219.84 64.4112 219.872 64.3461 219.872H63.9234C63.8909 219.872 63.8259 219.84 63.7934 219.807C63.7609 219.774 63.7284 219.742 63.7284 219.676V216.574C63.7284 216.378 63.6958 216.248 63.6633 216.117C63.6308 215.986 63.5658 215.888 63.5008 215.823C63.4357 215.758 63.3382 215.692 63.2406 215.66C63.1431 215.627 63.0455 215.627 62.9155 215.627C62.7529 215.627 62.5903 215.66 62.4278 215.692C62.2652 215.725 62.0701 215.79 61.9075 215.856C61.9726 216.052 61.9726 216.28 61.9726 216.542V219.644C61.9726 219.676 61.9726 219.742 61.94 219.774C61.9075 219.807 61.875 219.84 61.8425 219.84H61.3873C61.3548 219.84 61.2898 219.807 61.2898 219.774C61.2572 219.742 61.2572 219.709 61.2572 219.644V216.542C61.2572 216.346 61.2572 216.182 61.2247 216.084C61.1922 215.954 61.1597 215.856 61.0947 215.79C61.0296 215.725 60.9646 215.692 60.8671 215.66C60.7695 215.627 60.672 215.627 60.5744 215.627C60.4119 215.627 60.2493 215.66 60.0542 215.725C59.8591 215.79 59.6965 215.888 59.5015 215.954V219.644C59.5015 219.676 59.5015 219.742 59.4689 219.774C59.4364 219.807 59.4039 219.84 59.3714 219.84H58.9162C58.8837 219.84 58.8186 219.807 58.8186 219.774C58.8186 219.742 58.7861 219.709 58.7861 219.644V215.203C58.7861 215.17 58.7861 215.105 58.8186 215.072C58.8512 215.039 58.8837 215.007 58.9487 215.007H59.3714C59.4039 215.007 59.4689 215.039 59.5015 215.072C59.534 215.105 59.534 215.137 59.534 215.203V215.366C59.6965 215.268 59.8916 215.17 60.1192 215.072C60.3468 215.007 60.5744 214.941 60.802 214.941C60.9971 214.941 61.1597 214.974 61.2898 215.039C61.4198 215.105 61.5499 215.203 61.6799 215.301C61.9075 215.17 62.1677 215.105 62.4278 215.039C62.6879 214.974 62.9155 214.941 63.1431 214.941C63.3382 214.941 63.5333 214.974 63.6958 215.007C63.8584 215.072 64.021 215.137 64.151 215.268C64.2811 215.399 64.3786 215.562 64.4437 215.758C64.5087 215.954 64.5412 216.215 64.5412 216.509V219.611C64.5412 219.709 64.5412 219.774 64.4762 219.807Z" fill="white"/>
<path d="M69.0607 219.676C69.0607 219.709 69.0282 219.774 68.9957 219.807C68.9631 219.839 68.9306 219.872 68.8656 219.872H68.4754C68.4429 219.872 68.3779 219.839 68.3454 219.807C68.3129 219.774 68.2803 219.741 68.2803 219.676V219.48C68.0853 219.611 67.8577 219.709 67.6301 219.774C67.4024 219.839 67.1748 219.905 66.9472 219.905C66.7522 219.905 66.5896 219.872 66.427 219.839C66.2644 219.807 66.1019 219.709 65.9718 219.611C65.8417 219.513 65.7442 219.35 65.6467 219.186C65.5816 218.99 65.5166 218.794 65.5166 218.5V218.403C65.5166 218.174 65.5491 217.978 65.6141 217.782C65.6792 217.619 65.8092 217.455 65.9718 217.325C66.1344 217.194 66.362 217.129 66.6221 217.064C66.8822 216.998 67.2074 216.966 67.5975 216.966H68.2478V216.606C68.2478 216.247 68.1828 215.986 68.0527 215.823C67.9227 215.692 67.6626 215.594 67.3374 215.594C67.0448 215.594 66.8172 215.594 66.5896 215.627C66.362 215.627 66.1669 215.659 66.0043 215.659H65.9718C65.9393 215.659 65.9068 215.659 65.8743 215.627C65.8417 215.594 65.8417 215.561 65.8417 215.529V215.235C65.8417 215.137 65.9068 215.072 66.0368 215.072C66.2319 215.039 66.427 215.006 66.6221 215.006C66.8172 214.974 67.0773 214.974 67.3699 214.974C67.9877 214.974 68.4104 215.104 68.6705 215.398C68.9306 215.692 69.0607 216.084 69.0607 216.606V219.676ZM68.2803 217.521H67.6301C67.3699 217.521 67.1423 217.521 66.9798 217.553C66.8172 217.586 66.6546 217.619 66.5571 217.717C66.4595 217.782 66.3945 217.88 66.362 217.978C66.3295 218.076 66.297 218.207 66.297 218.37V218.468C66.297 218.794 66.362 218.99 66.492 219.088C66.6221 219.186 66.8172 219.252 67.0773 219.252C67.2724 219.252 67.4675 219.219 67.6626 219.154C67.8577 219.088 68.0527 219.023 68.2478 218.892V217.521H68.2803Z" fill="white"/>
<path d="M72.1826 215.66C71.9875 215.66 71.7924 215.692 71.5973 215.757C71.4023 215.823 71.2072 215.921 70.9796 216.051V219.709C70.9796 219.741 70.9471 219.807 70.9145 219.839C70.882 219.872 70.8495 219.905 70.7845 219.905H70.3618C70.3293 219.905 70.2642 219.872 70.2317 219.839C70.1992 219.807 70.1992 219.774 70.1992 219.709V215.268C70.1992 215.235 70.1992 215.17 70.2317 215.137C70.2642 215.104 70.2968 215.072 70.3618 215.072H70.7845C70.817 215.072 70.882 215.104 70.9145 215.137C70.9471 215.17 70.9471 215.202 70.9471 215.268V215.464C71.1747 215.3 71.3697 215.202 71.5648 215.137C71.7599 215.072 71.955 215.039 72.1501 215.039C72.2802 215.039 72.3452 215.104 72.3452 215.202V215.562C72.3777 215.594 72.3127 215.66 72.1826 215.66Z" fill="white"/>
<path d="M75.5967 219.872C75.4992 219.872 75.4017 219.904 75.3041 219.904C75.2066 219.904 75.109 219.904 75.0115 219.904C74.8164 219.904 74.6213 219.904 74.4913 219.872C74.3287 219.839 74.2311 219.774 74.1336 219.708C74.036 219.61 73.971 219.512 73.906 219.349C73.841 219.186 73.841 218.99 73.841 218.761V215.724L72.9956 215.626C72.898 215.626 72.833 215.561 72.833 215.463V215.202C72.833 215.104 72.898 215.039 72.9956 215.039H73.841V214.19C73.841 214.092 73.906 214.026 74.0035 214.026L74.4587 213.961H74.4913C74.5238 213.961 74.5563 213.961 74.5888 213.994C74.6213 214.026 74.6213 214.059 74.6213 214.092V215.039H75.5642C75.5967 215.039 75.6618 215.071 75.6943 215.104C75.7268 215.137 75.7593 215.169 75.7593 215.235V215.528C75.7593 215.561 75.7268 215.626 75.6943 215.659C75.6618 215.692 75.6293 215.724 75.5642 215.724H74.6213V218.761C74.6213 218.99 74.6538 219.153 74.7189 219.219C74.7839 219.284 74.9139 219.317 75.0765 219.317H75.5642C75.6943 219.317 75.7593 219.349 75.7593 219.447V219.741C75.7268 219.806 75.6943 219.839 75.5967 219.872Z" fill="white"/>
<path d="M80.2461 215.202C80.2461 215.235 80.2461 215.268 80.2461 215.268L78.8154 220.297C78.7504 220.525 78.6854 220.721 78.5878 220.884C78.5228 221.048 78.4253 221.178 78.2952 221.276C78.1651 221.374 78.0351 221.44 77.8725 221.505C77.7099 221.538 77.4823 221.57 77.2547 221.57C77.1247 221.57 76.9946 221.57 76.8646 221.538C76.7345 221.538 76.6044 221.505 76.5069 221.472C76.4419 221.472 76.4094 221.44 76.3768 221.44C76.3443 221.407 76.3118 221.374 76.3118 221.342V221.015C76.3118 220.917 76.3768 220.884 76.4744 220.884H76.5069C76.6044 220.884 76.7345 220.917 76.8971 220.917C77.0596 220.917 77.1897 220.95 77.2872 220.95C77.4173 220.95 77.5148 220.95 77.6124 220.917C77.7099 220.884 77.775 220.852 77.84 220.819C77.905 220.754 77.97 220.689 78.0026 220.591C78.0676 220.493 78.1001 220.362 78.1326 220.231L78.2302 219.872H78.1001C78.0351 219.872 77.9701 219.872 77.905 219.839C77.84 219.839 77.775 219.807 77.7425 219.774C77.6774 219.742 77.6449 219.676 77.5799 219.578C77.5474 219.513 77.4823 219.382 77.4498 219.252L76.2793 215.268C76.2793 215.268 76.2793 215.235 76.2793 215.202C76.2793 215.104 76.3443 215.039 76.4419 215.039H76.9296C76.9621 215.039 76.9946 215.039 77.0271 215.072C77.0596 215.104 77.0596 215.137 77.0922 215.17L78.1326 218.958C78.1651 219.056 78.1977 219.088 78.1977 219.121C78.2302 219.154 78.2627 219.154 78.2952 219.154H78.4253L79.4982 215.17C79.4982 215.137 79.5307 215.104 79.5633 215.072C79.5958 215.039 79.6283 215.039 79.6608 215.039H80.1485C80.2136 215.039 80.2461 215.104 80.2461 215.202Z" fill="white"/>
<path d="M84.505 219.676C84.505 219.709 84.4725 219.774 84.44 219.807C84.4075 219.839 84.375 219.872 84.3099 219.872H83.9198C83.8872 219.872 83.8222 219.839 83.7897 219.807C83.7572 219.774 83.7247 219.741 83.7247 219.676V219.48C83.5296 219.611 83.302 219.709 83.0744 219.774C82.8468 219.839 82.6192 219.905 82.3916 219.905C82.1965 219.905 82.0339 219.872 81.8713 219.839C81.7088 219.807 81.5462 219.709 81.4161 219.611C81.2861 219.513 81.1885 219.35 81.091 219.186C81.026 218.99 80.9609 218.794 80.9609 218.5V218.403C80.9609 218.174 80.9935 217.978 81.0585 217.782C81.1235 217.619 81.2536 217.455 81.4161 217.325C81.5787 217.194 81.8063 217.129 82.0664 217.064C82.3265 216.998 82.6517 216.966 83.0419 216.966H83.6922V216.606C83.6922 216.247 83.6271 215.986 83.4971 215.823C83.367 215.692 83.1069 215.594 82.7817 215.594C82.4891 215.594 82.2615 215.594 82.0339 215.627C81.8063 215.627 81.6112 215.659 81.4487 215.659H81.4161C81.3836 215.659 81.3511 215.659 81.3186 215.627C81.2861 215.594 81.2861 215.561 81.2861 215.529V215.235C81.2861 215.137 81.3511 215.072 81.4812 215.072C81.6763 215.039 81.8713 215.006 82.0664 215.006C82.2615 214.974 82.5216 214.974 82.8143 214.974C83.432 214.974 83.8547 215.104 84.1148 215.398C84.375 215.692 84.505 216.084 84.505 216.606V219.676ZM83.7572 217.521H83.1069C82.8468 217.521 82.6192 217.521 82.4566 217.553C82.294 217.586 82.1315 217.619 82.0339 217.717C81.9364 217.782 81.8713 217.88 81.8388 217.978C81.8063 218.076 81.7738 218.207 81.7738 218.37V218.468C81.7738 218.794 81.8388 218.99 81.9689 219.088C82.0989 219.186 82.294 219.252 82.5541 219.252C82.7492 219.252 82.9443 219.219 83.1394 219.154C83.3345 219.088 83.5296 219.023 83.7247 218.892V217.521H83.7572Z" fill="white"/>
<path d="M89.22 219.545C89.22 219.611 89.22 219.643 89.1875 219.676C89.155 219.709 89.1225 219.741 89.025 219.741C88.7648 219.807 88.4722 219.839 88.2121 219.839C87.952 219.872 87.6919 219.872 87.4317 219.872C87.1066 219.872 86.814 219.807 86.5864 219.709C86.3588 219.611 86.1637 219.447 86.0011 219.284C85.8385 219.088 85.741 218.86 85.6434 218.598C85.5784 218.337 85.5459 218.043 85.5459 217.717V217.096C85.5459 216.41 85.7085 215.888 86.0011 215.529C86.3262 215.169 86.7814 214.974 87.4317 214.974C87.5618 214.974 87.7244 214.974 87.9195 215.006C88.1145 215.006 88.2771 215.039 88.4397 215.071V213.439C88.4397 213.406 88.4397 213.341 88.4722 213.308C88.5047 213.275 88.5372 213.275 88.6023 213.275H89.0575C89.09 213.275 89.155 213.275 89.155 213.308C89.1875 213.341 89.1875 213.373 89.1875 213.439V219.545H89.22ZM88.4397 215.725C88.3096 215.692 88.1145 215.692 87.9195 215.659C87.7244 215.659 87.5618 215.659 87.4317 215.659C87.2041 215.659 87.0416 215.692 86.879 215.757C86.7489 215.823 86.6189 215.921 86.5213 216.051C86.4238 216.182 86.3588 216.345 86.3262 216.508C86.2937 216.704 86.2612 216.9 86.2612 217.129V217.749C86.2612 218.239 86.3262 218.598 86.4888 218.86C86.6514 219.121 86.944 219.251 87.3667 219.251C87.5293 219.251 87.6919 219.251 87.8869 219.219C88.082 219.219 88.2446 219.186 88.4072 219.186V215.725H88.4397Z" fill="white"/>
<path d="M93.4152 218.631C93.4152 218.86 93.3827 219.056 93.2852 219.186C93.2201 219.35 93.0901 219.48 92.96 219.578C92.83 219.676 92.6349 219.741 92.4398 219.807C92.2447 219.872 92.0171 219.872 91.7895 219.872C91.7245 219.872 91.6269 219.872 91.4969 219.872C91.3993 219.872 91.2693 219.872 91.1392 219.839C91.0091 219.839 90.8791 219.807 90.749 219.807C90.619 219.807 90.5214 219.774 90.3914 219.741C90.2613 219.709 90.1963 219.643 90.1963 219.578V219.284C90.1963 219.252 90.1963 219.219 90.2288 219.186C90.2613 219.154 90.2938 219.154 90.3263 219.154H90.3589C90.4564 219.154 90.5865 219.186 90.7165 219.186C90.8466 219.186 90.9766 219.219 91.1067 219.219C91.2368 219.219 91.3668 219.219 91.4644 219.252C91.5619 219.252 91.6594 219.252 91.757 219.252C92.0496 219.252 92.2447 219.219 92.4073 219.121C92.5373 219.023 92.6349 218.86 92.6349 218.631C92.6349 218.5 92.6024 218.37 92.5048 218.272C92.4073 218.174 92.2447 218.043 91.9846 217.913L91.1067 217.39C90.8466 217.227 90.619 217.064 90.4564 216.868C90.2938 216.672 90.2288 216.443 90.2288 216.149C90.2288 215.921 90.2613 215.725 90.3589 215.594C90.4239 215.431 90.5539 215.333 90.684 215.235C90.8141 215.137 90.9766 215.072 91.1717 215.039C91.3668 215.006 91.5619 214.974 91.7895 214.974C92.0171 214.974 92.2772 214.974 92.5048 215.006C92.7324 215.039 92.96 215.039 93.1551 215.104C93.2527 215.137 93.3177 215.17 93.3177 215.268V215.561C93.3177 215.659 93.2527 215.725 93.1551 215.725H93.1226C92.96 215.725 92.7649 215.692 92.5048 215.692C92.2447 215.659 92.0171 215.659 91.757 215.659C91.4969 215.659 91.3343 215.692 91.1717 215.757C91.0092 215.823 90.9441 215.953 90.9441 216.182C90.9441 216.313 91.0092 216.443 91.1067 216.541C91.2042 216.639 91.3668 216.737 91.5619 216.868L92.4073 217.39C92.7649 217.619 93.0251 217.815 93.1551 218.011C93.3502 218.141 93.4152 218.403 93.4152 218.631Z" fill="white"/>
<path d="M45.3902 221.538C45.2926 221.538 45.1951 221.472 45.1626 221.374C45.1301 221.244 45.1951 221.113 45.3252 221.08L46.6583 220.689H45.3902C45.2601 220.689 45.1626 220.591 45.1626 220.46C45.1626 220.329 45.2601 220.231 45.3902 220.231H48.414C48.5441 220.231 48.6416 220.329 48.6416 220.427C48.6742 220.558 48.5766 220.656 48.4791 220.689L45.4552 221.538C45.4227 221.538 45.3902 221.538 45.3902 221.538Z" fill="white"/>
<path d="M45.3902 222.681C45.2926 222.681 45.1951 222.615 45.1626 222.518C45.1301 222.387 45.1951 222.256 45.3252 222.224L48.349 221.375C48.4791 221.342 48.6091 221.407 48.6417 221.538C48.6742 221.668 48.6091 221.799 48.4791 221.832L45.4552 222.681C45.4227 222.681 45.3902 222.681 45.3902 222.681Z" fill="white"/>
<path d="M46.8863 223.203C46.7887 223.203 46.6912 223.138 46.6587 223.04C46.6262 222.909 46.6912 222.779 46.8213 222.746L47.0489 222.844C47.1789 222.811 47.5366 222.681 47.5691 222.811C47.6016 222.942 47.5366 223.073 47.4065 223.105L46.9838 223.236C46.9188 223.203 46.9188 223.203 46.8863 223.203Z" fill="white"/>
<path d="M47.9916 219.644H45.7806C45.423 219.644 45.0978 219.35 45.0978 218.958V218.272C44.1549 217.652 43.5371 216.607 43.5371 215.464C43.5371 213.635 45.0328 212.133 46.8536 212.133C48.6744 212.133 50.1701 213.635 50.1701 215.464C50.1701 216.574 49.5848 217.652 48.6419 218.239V218.958C48.6744 219.317 48.3818 219.644 47.9916 219.644ZM46.8861 212.623C45.3254 212.623 44.0573 213.896 44.0573 215.464C44.0573 216.476 44.6101 217.423 45.488 217.913C45.553 217.946 45.618 218.044 45.618 218.142V218.958C45.618 219.056 45.7156 219.154 45.8131 219.154H48.0241C48.1217 219.154 48.2192 219.056 48.2192 218.958V218.109C48.2192 218.011 48.2517 217.946 48.3493 217.913C49.1947 217.39 49.7474 216.476 49.7474 215.464C49.7149 213.896 48.4468 212.623 46.8861 212.623Z" fill="white"/>
<path d="M49.6825 212.329C49.6175 212.329 49.5524 212.296 49.5199 212.263C49.4549 212.165 49.4549 212.035 49.5524 211.969L50.4303 211.218C50.5279 211.153 50.6579 211.153 50.723 211.251C50.788 211.349 50.788 211.48 50.6905 211.545L49.8126 212.296C49.78 212.329 49.715 212.329 49.6825 212.329Z" fill="white"/>
<path d="M46.8536 211.415C46.7235 211.415 46.626 211.317 46.626 211.186V209.521C46.626 209.39 46.7235 209.292 46.8536 209.292C46.9836 209.292 47.0812 209.39 47.0812 209.521V211.186C47.0812 211.317 46.9836 211.415 46.8536 211.415Z" fill="white"/>
<path d="M51.1783 214.908C51.0808 214.908 50.9832 214.843 50.9507 214.745C50.9182 214.615 51.0157 214.517 51.1133 214.484L52.6415 214.19C52.7715 214.157 52.8691 214.255 52.9016 214.353C52.9341 214.484 52.8366 214.582 52.739 214.615L51.2108 214.908H51.1783Z" fill="white"/>
<path d="M44.0575 212.329C43.9924 212.329 43.9599 212.296 43.9274 212.264L43.0495 211.513C42.952 211.447 42.952 211.284 43.017 211.219C43.082 211.121 43.2446 211.121 43.3096 211.186L44.1875 211.937C44.2851 212.003 44.2851 212.166 44.22 212.231C44.1875 212.329 44.1225 212.329 44.0575 212.329Z" fill="white"/>
<path d="M51.4056 218.174C51.3731 218.174 51.3406 218.174 51.2755 218.141L50.6252 217.75C50.5277 217.684 50.4952 217.554 50.5602 217.456C50.6252 217.358 50.7553 217.325 50.8528 217.39L51.5031 217.782C51.6007 217.848 51.6332 217.978 51.5682 218.076C51.5356 218.141 51.4706 218.174 51.4056 218.174Z" fill="white"/>
<path d="M42.3334 218.076C42.2684 218.076 42.2034 218.044 42.1383 217.979C42.0733 217.881 42.1058 217.75 42.2034 217.685L42.8536 217.293C42.9512 217.227 43.0812 217.26 43.1463 217.358C43.2113 217.456 43.1788 217.587 43.0812 217.652L42.431 218.044C42.431 218.044 42.3659 218.076 42.3334 218.076Z" fill="white"/>
<path d="M42.5616 214.908H42.5291L41.0009 214.614C40.8709 214.582 40.8058 214.484 40.8384 214.353C40.8709 214.223 40.9684 214.157 41.0985 214.19L42.6267 214.484C42.7567 214.517 42.8218 214.614 42.7892 214.745C42.7567 214.843 42.6592 214.908 42.5616 214.908Z" fill="white"/>
<defs>
<linearGradient id="paint0_linear" x1="-52.1237" y1="137.538" x2="129.077" y2="244.531" gradientUnits="userSpaceOnUse">
<stop stop-color="#FBB63F"/>
<stop offset="0.981306" stop-color="#B069A1"/>
</linearGradient>
</defs>
</svg>
