<svg width="139" height="279" viewBox="0 0 139 279" fill="none" xmlns="http://www.w3.org/2000/svg">
<path d="M121.706 278.344H17.2932C8.09178 278.344 0.652344 270.872 0.652344 261.63V17.3697C0.652344 8.12761 8.09178 0.655273 17.2932 0.655273H121.706C130.908 0.655273 138.347 8.12761 138.347 17.3697V261.597C138.347 270.839 130.908 278.344 121.706 278.344Z" fill="white"/>
<path d="M121.707 279H17.2934C7.76573 279 0 271.2 0 261.63V17.3699C0 7.80007 7.76573 0 17.2934 0H121.707C131.234 0 139 7.80007 139 17.3699V261.597C139 271.2 131.234 279 121.707 279ZM17.2934 1.31094C8.48357 1.31094 1.30516 8.52109 1.30516 17.3699V261.597C1.30516 270.446 8.48357 277.656 17.2934 277.656H121.707C130.516 277.656 137.695 270.446 137.695 261.597V17.3699C137.695 8.52109 130.516 1.31094 121.707 1.31094H17.2934Z" fill="#575756"/>
<path d="M133.844 247.668H5.15527V29.8564H133.812V247.668H133.844ZM6.13415 246.685H132.833V30.8396H6.13415V246.685Z" fill="#575756"/>
<path d="M87.7729 20.9096H50.2168C49.0747 20.9096 48.1611 19.9919 48.1611 18.8448V18.386C48.1611 17.2389 49.0747 16.3213 50.2168 16.3213H87.7729C88.9149 16.3213 89.8285 17.2389 89.8285 18.386V18.8448C89.7959 19.9919 88.8822 20.9096 87.7729 20.9096ZM50.2168 17.3373C49.6294 17.3373 49.14 17.8289 49.14 18.4188V18.8776C49.14 19.4675 49.6294 19.9591 50.2168 19.9591H87.7729C88.3602 19.9591 88.8496 19.4675 88.8496 18.8776V18.4188C88.8496 17.8289 88.3602 17.3373 87.7729 17.3373H50.2168Z" fill="#575756"/>
<g opacity="0.99">
<path opacity="0.99" d="M68.9777 274.346C62.4519 274.346 57.166 269.037 57.166 262.482C57.166 255.927 62.4519 250.618 68.9777 250.618C75.5036 250.618 80.7895 255.927 80.7895 262.482C80.7895 269.037 75.5036 274.346 68.9777 274.346ZM68.9777 251.569C63.0066 251.569 58.1449 256.452 58.1449 262.449C58.1449 268.447 63.0066 273.33 68.9777 273.33C74.9489 273.33 79.8106 268.447 79.8106 262.449C79.8106 256.452 74.9815 251.569 68.9777 251.569Z" fill="#575756"/>
</g>
<rect x="12.5547" y="36" width="113.89" height="54.9" rx="10" fill="url(#paint0_linear)"/>
<path d="M69.5003 13.7642C67.9341 13.7642 66.6289 12.4861 66.6289 10.8802C66.6289 9.27426 67.9014 7.99609 69.5003 7.99609C71.0991 7.99609 72.3716 9.27426 72.3716 10.8802C72.3716 12.4861 71.0665 13.7642 69.5003 13.7642ZM69.5003 9.01207C68.4561 9.01207 67.6078 9.86418 67.6078 10.9129C67.6078 11.9617 68.4561 12.8138 69.5003 12.8138C70.5444 12.8138 71.3928 11.9617 71.3928 10.9129C71.3928 9.86418 70.5444 9.01207 69.5003 9.01207Z" fill="#575756"/>
<path d="M56.9049 64.2682C57.1659 64.5632 57.2638 64.9237 57.2638 65.3825C57.2638 65.9724 57.0354 66.4312 56.6112 66.759C56.187 67.0867 55.5345 67.2506 54.6861 67.2506H51.5537V60.3682H54.523C55.2734 60.3682 55.8934 60.532 56.2849 60.827C56.6765 61.122 56.9049 61.5808 56.9049 62.1379C56.9049 62.5312 56.807 62.8262 56.6112 63.1211C56.4154 63.3833 56.1544 63.58 55.8281 63.711C56.3176 63.7766 56.6765 63.9732 56.9049 64.2682ZM52.2716 60.9253V63.4161H54.4577C55.0124 63.4161 55.4366 63.3178 55.7302 63.0884C56.0239 62.8917 56.187 62.564 56.187 62.1707C56.187 61.7774 56.0239 61.4497 55.7302 61.253C55.4366 61.0564 55.0124 60.9253 54.4577 60.9253H52.2716ZM56.0892 66.3001C56.4154 66.1035 56.546 65.7758 56.546 65.3169C56.546 64.4648 55.926 64.0388 54.6861 64.0388H52.2716V66.6279H54.6861C55.3061 66.6279 55.7629 66.5296 56.0892 66.3001Z" fill="white"/>
<path d="M62.1258 62.5312C62.4847 62.8589 62.6479 63.3833 62.6479 64.0388V67.2506H61.9953V66.4313C61.8321 66.6934 61.6037 66.9229 61.3101 67.054C61.0164 67.2178 60.6575 67.2834 60.2333 67.2834C59.646 67.2834 59.1892 67.1523 58.8629 66.8573C58.5366 66.5951 58.3408 66.2346 58.3408 65.7758C58.3408 65.3497 58.504 64.9892 58.8303 64.727C59.1565 64.4648 59.646 64.3338 60.3312 64.3338H61.9626V64.006C61.9626 63.5472 61.8321 63.2195 61.6037 62.99C61.3427 62.7606 60.9838 62.6295 60.527 62.6295C60.2007 62.6295 59.8744 62.6951 59.5807 62.7934C59.2871 62.8917 59.026 63.0556 58.7976 63.2522L58.4713 62.7279C58.7324 62.4984 59.0587 62.3346 59.4176 62.2035C59.7765 62.0724 60.1681 62.0068 60.5596 62.0068C61.2774 62.0068 61.7669 62.1707 62.1258 62.5312ZM61.3427 66.464C61.6364 66.3002 61.8321 66.038 61.9626 65.6775V64.8254H60.3312C59.4502 64.8254 59.026 65.1203 59.026 65.743C59.026 66.038 59.1239 66.2674 59.3523 66.464C59.5807 66.6279 59.907 66.7262 60.2986 66.7262C60.7227 66.7262 61.0817 66.6279 61.3427 66.464Z" fill="white"/>
<path d="M68.7167 62.564C69.1083 62.9573 69.3041 63.4816 69.3041 64.2027V67.2178H68.6189V64.301C68.6189 63.7766 68.4883 63.3505 68.2273 63.0556C67.9663 62.7606 67.5747 62.6295 67.0853 62.6295C66.5306 62.6295 66.1064 62.7934 65.7801 63.1211C65.4538 63.4489 65.2907 63.9077 65.2907 64.4976V67.2178H64.6055V62.0396H65.2581V62.99C65.4538 62.6623 65.7149 62.4329 66.0411 62.269C66.3674 62.1052 66.759 62.0068 67.2158 62.0068C67.8358 62.0068 68.3578 62.2035 68.7167 62.564Z" fill="white"/>
<path d="M75.373 62.564C75.7645 62.9573 75.9603 63.4816 75.9603 64.2027V67.2178H75.2751V64.301C75.2751 63.7766 75.1446 63.3505 74.8835 63.0556C74.6225 62.7606 74.231 62.6295 73.7415 62.6295C73.1868 62.6295 72.7627 62.7934 72.4364 63.1211C72.1101 63.4489 71.9469 63.9077 71.9469 64.4976V67.2178H71.2617V62.0396H71.9143V62.99C72.1101 62.6623 72.3711 62.4329 72.6974 62.269C73.0237 62.1052 73.4152 62.0068 73.872 62.0068C74.4594 62.0068 74.9814 62.2035 75.373 62.564Z" fill="white"/>
<path d="M82.3233 64.8584H78.0163C78.0489 65.3828 78.2773 65.8416 78.6362 66.1694C78.9951 66.4971 79.4846 66.661 80.0393 66.661C80.3656 66.661 80.6592 66.5954 80.9203 66.4971C81.1813 66.3988 81.4097 66.2021 81.6055 66.0055L81.997 66.4643C81.7686 66.7265 81.475 66.9559 81.1487 67.087C80.8224 67.2181 80.4308 67.3164 80.0066 67.3164C79.4846 67.3164 78.9951 67.2181 78.6036 66.9887C78.1794 66.7593 77.8858 66.4643 77.6573 66.0383C77.4289 65.6122 77.3311 65.1862 77.3311 64.6946C77.3311 64.203 77.4289 63.7441 77.6573 63.3509C77.8858 62.9576 78.1794 62.6298 78.571 62.4332C78.9625 62.2038 79.3867 62.1055 79.8435 62.1055C80.3003 62.1055 80.7571 62.2038 81.116 62.4332C81.475 62.6626 81.8013 62.9576 81.997 63.3509C82.1928 63.7441 82.3233 64.203 82.3233 64.7273V64.8584ZM78.571 63.0887C78.2447 63.4164 78.0489 63.8097 77.9836 64.3341H81.6381C81.6055 63.8097 81.4097 63.4164 81.0508 63.0887C80.7245 62.7609 80.3003 62.5971 79.7782 62.5971C79.3541 62.5971 78.9299 62.7609 78.571 63.0887Z" fill="white"/>
<path d="M85.1614 62.269C85.4877 62.1052 85.8793 62.0068 86.3687 62.0068V62.6951H86.2056C85.6509 62.6951 85.2267 62.8589 84.933 63.1867C84.6394 63.5144 84.4762 64.006 84.4762 64.5959V67.2178H83.791V62.0396H84.4436V63.0556C84.5741 62.7279 84.8351 62.4657 85.1614 62.269Z" fill="white"/>
<path d="M58.4714 165.801C62.3543 167.144 65.4541 168.128 70.5442 169.832C68.8475 174.912 64.0837 178.55 58.4714 178.55C51.4562 178.55 45.7461 172.847 45.7461 165.768C45.7461 158.722 51.4236 152.986 58.4714 152.986C63.17 152.986 67.2487 155.543 69.4675 159.344C66.0088 161.475 64.9973 162.13 58.4714 165.801Z" fill="#C6C6C6"/>
<path d="M81.6056 168.259C83.2274 168.259 84.5422 166.938 84.5422 165.309C84.5422 163.68 83.2274 162.359 81.6056 162.359C79.9837 162.359 78.6689 163.68 78.6689 165.309C78.6689 166.938 79.9837 168.259 81.6056 168.259Z" fill="#C6C6C6"/>
<path d="M93.9386 168.259C95.5604 168.259 96.8752 166.938 96.8752 165.309C96.8752 163.68 95.5604 162.359 93.9386 162.359C92.3167 162.359 91.002 163.68 91.002 165.309C91.002 166.938 92.3167 168.259 93.9386 168.259Z" fill="#C6C6C6"/>
<path d="M106.24 168.259C107.862 168.259 109.177 166.938 109.177 165.309C109.177 163.68 107.862 162.359 106.24 162.359C104.618 162.359 103.304 163.68 103.304 165.309C103.304 166.938 104.618 168.259 106.24 168.259Z" fill="#C6C6C6"/>
<path d="M106.24 179.237C107.862 179.237 109.177 177.917 109.177 176.287C109.177 174.658 107.862 173.338 106.24 173.338C104.618 173.338 103.304 174.658 103.304 176.287C103.304 177.917 104.618 179.237 106.24 179.237Z" fill="#C6C6C6"/>
<path d="M106.24 190.217C107.862 190.217 109.177 188.896 109.177 187.267C109.177 185.638 107.862 184.317 106.24 184.317C104.618 184.317 103.304 185.638 103.304 187.267C103.304 188.896 104.618 190.217 106.24 190.217Z" fill="#C6C6C6"/>
<path d="M106.24 201.196C107.862 201.196 109.177 199.876 109.177 198.246C109.177 196.617 107.862 195.297 106.24 195.297C104.618 195.297 103.304 196.617 103.304 198.246C103.304 199.876 104.618 201.196 106.24 201.196Z" fill="#C6C6C6"/>
<path d="M106.24 212.142C107.862 212.142 109.177 210.822 109.177 209.193C109.177 207.564 107.862 206.243 106.24 206.243C104.618 206.243 103.304 207.564 103.304 209.193C103.304 210.822 104.618 212.142 106.24 212.142Z" fill="#C6C6C6"/>
<path d="M26.2667 168.259C27.8885 168.259 29.2033 166.938 29.2033 165.309C29.2033 163.68 27.8885 162.359 26.2667 162.359C24.6448 162.359 23.3301 163.68 23.3301 165.309C23.3301 166.938 24.6448 168.259 26.2667 168.259Z" fill="#C6C6C6"/>
<path d="M26.2667 179.237C27.8885 179.237 29.2033 177.917 29.2033 176.287C29.2033 174.658 27.8885 173.338 26.2667 173.338C24.6448 173.338 23.3301 174.658 23.3301 176.287C23.3301 177.917 24.6448 179.237 26.2667 179.237Z" fill="#C6C6C6"/>
<path d="M26.2667 190.217C27.8885 190.217 29.2033 188.896 29.2033 187.267C29.2033 185.638 27.8885 184.317 26.2667 184.317C24.6448 184.317 23.3301 185.638 23.3301 187.267C23.3301 188.896 24.6448 190.217 26.2667 190.217Z" fill="#C6C6C6"/>
<path d="M26.2667 201.196C27.8885 201.196 29.2033 199.876 29.2033 198.246C29.2033 196.617 27.8885 195.297 26.2667 195.297C24.6448 195.297 23.3301 196.617 23.3301 198.246C23.3301 199.876 24.6448 201.196 26.2667 201.196Z" fill="#C6C6C6"/>
<path d="M26.2667 124.342C27.8885 124.342 29.2033 123.021 29.2033 121.392C29.2033 119.763 27.8885 118.442 26.2667 118.442C24.6448 118.442 23.3301 119.763 23.3301 121.392C23.3301 123.021 24.6448 124.342 26.2667 124.342Z" fill="#C6C6C6"/>
<path d="M26.2667 135.321C27.8885 135.321 29.2033 134.001 29.2033 132.371C29.2033 130.742 27.8885 129.422 26.2667 129.422C24.6448 129.422 23.3301 130.742 23.3301 132.371C23.3301 134.001 24.6448 135.321 26.2667 135.321Z" fill="#C6C6C6"/>
<path d="M26.2667 146.301C27.8885 146.301 29.2033 144.98 29.2033 143.351C29.2033 141.722 27.8885 140.401 26.2667 140.401C24.6448 140.401 23.3301 141.722 23.3301 143.351C23.3301 144.98 24.6448 146.301 26.2667 146.301Z" fill="#C6C6C6"/>
<path d="M26.2667 157.247C27.8885 157.247 29.2033 155.926 29.2033 154.297C29.2033 152.668 27.8885 151.348 26.2667 151.348C24.6448 151.348 23.3301 152.668 23.3301 154.297C23.3301 155.926 24.6448 157.247 26.2667 157.247Z" fill="#C6C6C6"/>
<path d="M26.2667 212.142C27.8885 212.142 29.2033 210.822 29.2033 209.193C29.2033 207.564 27.8885 206.243 26.2667 206.243C24.6448 206.243 23.3301 207.564 23.3301 209.193C23.3301 210.822 24.6448 212.142 26.2667 212.142Z" fill="#C6C6C6"/>
<path d="M106.24 223.122C107.862 223.122 109.177 221.801 109.177 220.172C109.177 218.543 107.862 217.223 106.24 217.223C104.618 217.223 103.304 218.543 103.304 220.172C103.304 221.801 104.618 223.122 106.24 223.122Z" fill="#C6C6C6"/>
<path d="M94.8204 223.122C96.4423 223.122 97.757 221.801 97.757 220.172C97.757 218.543 96.4423 217.223 94.8204 217.223C93.1986 217.223 91.8838 218.543 91.8838 220.172C91.8838 221.801 93.1986 223.122 94.8204 223.122Z" fill="#C6C6C6"/>
<path d="M83.4005 223.122C85.0223 223.122 86.3371 221.801 86.3371 220.172C86.3371 218.543 85.0223 217.223 83.4005 217.223C81.7786 217.223 80.4639 218.543 80.4639 220.172C80.4639 221.801 81.7786 223.122 83.4005 223.122Z" fill="#C6C6C6"/>
<path d="M71.9796 223.122C73.6014 223.122 74.9162 221.801 74.9162 220.172C74.9162 218.543 73.6014 217.223 71.9796 217.223C70.3577 217.223 69.043 218.543 69.043 220.172C69.043 221.801 70.3577 223.122 71.9796 223.122Z" fill="#C6C6C6"/>
<path d="M60.5597 223.122C62.1815 223.122 63.4963 221.801 63.4963 220.172C63.4963 218.543 62.1815 217.223 60.5597 217.223C58.9378 217.223 57.623 218.543 57.623 220.172C57.623 221.801 58.9378 223.122 60.5597 223.122Z" fill="#C6C6C6"/>
<path d="M49.1397 223.122C50.7616 223.122 52.0764 221.801 52.0764 220.172C52.0764 218.543 50.7616 217.223 49.1397 217.223C47.5179 217.223 46.2031 218.543 46.2031 220.172C46.2031 221.801 47.5179 223.122 49.1397 223.122Z" fill="#C6C6C6"/>
<path d="M37.7198 223.122C39.3417 223.122 40.6564 221.801 40.6564 220.172C40.6564 218.543 39.3417 217.223 37.7198 217.223C36.098 217.223 34.7832 218.543 34.7832 220.172C34.7832 221.801 36.098 223.122 37.7198 223.122Z" fill="#C6C6C6"/>
<path d="M26.2989 223.122C27.9208 223.122 29.2355 221.801 29.2355 220.172C29.2355 218.543 27.9208 217.223 26.2989 217.223C24.6771 217.223 23.3623 218.543 23.3623 220.172C23.3623 221.801 24.6771 223.122 26.2989 223.122Z" fill="#C6C6C6"/>
<path d="M106.24 124.342C107.862 124.342 109.177 123.021 109.177 121.392C109.177 119.763 107.862 118.442 106.24 118.442C104.618 118.442 103.304 119.763 103.304 121.392C103.304 123.021 104.618 124.342 106.24 124.342Z" fill="#C6C6C6"/>
<path d="M94.8204 124.342C96.4423 124.342 97.757 123.021 97.757 121.392C97.757 119.763 96.4423 118.442 94.8204 118.442C93.1986 118.442 91.8838 119.763 91.8838 121.392C91.8838 123.021 93.1986 124.342 94.8204 124.342Z" fill="#C6C6C6"/>
<path d="M83.4005 124.342C85.0223 124.342 86.3371 123.021 86.3371 121.392C86.3371 119.763 85.0223 118.442 83.4005 118.442C81.7786 118.442 80.4639 119.763 80.4639 121.392C80.4639 123.021 81.7786 124.342 83.4005 124.342Z" fill="#C6C6C6"/>
<path d="M71.9796 124.342C73.6014 124.342 74.9162 123.021 74.9162 121.392C74.9162 119.763 73.6014 118.442 71.9796 118.442C70.3577 118.442 69.043 119.763 69.043 121.392C69.043 123.021 70.3577 124.342 71.9796 124.342Z" fill="#C6C6C6"/>
<path d="M60.5597 124.342C62.1815 124.342 63.4963 123.021 63.4963 121.392C63.4963 119.763 62.1815 118.442 60.5597 118.442C58.9378 118.442 57.623 119.763 57.623 121.392C57.623 123.021 58.9378 124.342 60.5597 124.342Z" fill="#C6C6C6"/>
<path d="M49.1397 124.342C50.7616 124.342 52.0764 123.021 52.0764 121.392C52.0764 119.763 50.7616 118.442 49.1397 118.442C47.5179 118.442 46.2031 119.763 46.2031 121.392C46.2031 123.021 47.5179 124.342 49.1397 124.342Z" fill="#C6C6C6"/>
<path d="M37.7198 124.342C39.3417 124.342 40.6564 123.021 40.6564 121.392C40.6564 119.763 39.3417 118.442 37.7198 118.442C36.098 118.442 34.7832 119.763 34.7832 121.392C34.7832 123.021 36.098 124.342 37.7198 124.342Z" fill="#C6C6C6"/>
<path d="M26.2989 124.342C27.9208 124.342 29.2355 123.021 29.2355 121.392C29.2355 119.763 27.9208 118.442 26.2989 118.442C24.6771 118.442 23.3623 119.763 23.3623 121.392C23.3623 123.021 24.6771 124.342 26.2989 124.342Z" fill="#C6C6C6"/>
<path d="M116.094 71.8057C116.225 71.8057 116.355 71.8384 116.486 71.8712C116.584 71.9368 116.682 72.0023 116.747 72.1006C116.812 72.1989 116.877 72.2973 116.91 72.4284C116.943 72.5595 116.943 72.7233 116.943 72.8544C116.943 72.92 116.943 72.9855 116.943 73.0511C116.943 73.1166 116.943 73.2149 116.943 73.2805C116.943 73.3788 116.943 73.4443 116.91 73.5427C116.91 73.641 116.877 73.7065 116.877 73.7721C116.845 73.8376 116.812 73.9032 116.747 73.9032H116.551C116.518 73.9032 116.518 73.9032 116.486 73.8704C116.486 73.8376 116.453 73.8376 116.453 73.8048V73.7721C116.453 73.7065 116.453 73.641 116.486 73.5427C116.486 73.4443 116.486 73.3788 116.518 73.2805C116.518 73.1822 116.518 73.1166 116.518 73.0511C116.518 72.9855 116.518 72.92 116.518 72.8544C116.518 72.6578 116.486 72.5267 116.421 72.4284C116.355 72.33 116.257 72.2973 116.094 72.2973C115.996 72.2973 115.931 72.33 115.866 72.3956C115.801 72.4611 115.703 72.5595 115.605 72.7233L115.246 73.3132C115.148 73.4771 115.017 73.641 114.887 73.7393C114.756 73.8376 114.593 73.9032 114.43 73.9032C114.267 73.9032 114.169 73.8704 114.071 73.8376C113.973 73.7721 113.908 73.7065 113.843 73.6082C113.778 73.5099 113.745 73.4116 113.712 73.2805C113.68 73.1494 113.68 73.0183 113.68 72.8544C113.68 72.6905 113.68 72.5267 113.712 72.3956C113.712 72.2317 113.745 72.1006 113.778 71.9695C113.778 71.904 113.843 71.8712 113.908 71.8712H114.104C114.169 71.8712 114.202 71.904 114.202 71.9695V72.0023C114.202 72.1006 114.169 72.2317 114.169 72.3956C114.169 72.5595 114.136 72.7233 114.136 72.8872C114.136 73.0511 114.169 73.1822 114.202 73.2805C114.234 73.3788 114.332 73.4116 114.463 73.4116C114.561 73.4116 114.626 73.3788 114.691 73.3132C114.756 73.2477 114.822 73.1494 114.887 73.0183L115.213 72.4611C115.344 72.2317 115.507 72.0679 115.637 71.9695C115.768 71.8384 115.931 71.8057 116.094 71.8057Z" fill="white"/>
<path d="M116.877 67.3162C116.91 67.349 116.91 67.3818 116.91 67.3818V67.6439C116.91 67.6767 116.91 67.7095 116.877 67.7095C116.845 67.7423 116.812 67.7423 116.812 67.7423H114.789C114.659 67.7423 114.561 67.7423 114.495 67.775C114.43 67.8078 114.365 67.8406 114.3 67.8734C114.267 67.9061 114.234 67.9717 114.202 68.0372C114.169 68.1028 114.169 68.1683 114.169 68.2339C114.169 68.3322 114.169 68.4633 114.202 68.5616C114.234 68.6927 114.267 68.791 114.3 68.8893C114.43 68.8566 114.561 68.8238 114.756 68.8238H116.812C116.845 68.8238 116.877 68.8238 116.877 68.8566C116.91 68.8893 116.91 68.8893 116.91 68.9221V69.2171C116.91 69.2498 116.91 69.2826 116.877 69.2826C116.845 69.2826 116.812 69.3154 116.812 69.3154H114.756C114.626 69.3154 114.528 69.3154 114.463 69.3482C114.398 69.3809 114.332 69.3809 114.267 69.4465C114.234 69.4793 114.202 69.5448 114.169 69.5776C114.169 69.6431 114.136 69.7087 114.136 69.7742C114.136 69.8725 114.169 70.0036 114.202 70.1019C114.234 70.233 114.3 70.3314 114.365 70.4625H116.779C116.812 70.4625 116.845 70.4625 116.845 70.4952C116.877 70.528 116.877 70.528 116.877 70.5608V70.8557C116.877 70.8885 116.877 70.9213 116.845 70.9213C116.812 70.9541 116.779 70.9541 116.779 70.9541H113.843C113.81 70.9541 113.778 70.9541 113.778 70.9213C113.745 70.8885 113.745 70.8885 113.745 70.8557V70.5608C113.745 70.528 113.745 70.4952 113.778 70.4952C113.81 70.4625 113.843 70.4625 113.843 70.4625H113.941C113.875 70.3314 113.81 70.233 113.745 70.0692C113.68 69.9381 113.68 69.7742 113.68 69.6103C113.68 69.4793 113.712 69.3809 113.745 69.2826C113.778 69.1843 113.843 69.1187 113.941 69.0204C113.875 68.8566 113.81 68.6927 113.778 68.5288C113.745 68.365 113.712 68.2011 113.712 68.07C113.712 67.9389 113.745 67.8078 113.778 67.7095C113.81 67.6112 113.875 67.5129 113.941 67.4145C114.039 67.3162 114.137 67.2507 114.267 67.2179C114.398 67.1851 114.561 67.1523 114.756 67.1523H116.779C116.812 67.2834 116.845 67.3162 116.877 67.3162Z" fill="white"/>
<path d="M116.779 64.3003C116.812 64.3003 116.845 64.3004 116.845 64.3331C116.877 64.3659 116.877 64.3987 116.877 64.3987V64.6609C116.877 64.6936 116.877 64.7264 116.845 64.7264C116.812 64.7264 116.779 64.7592 116.779 64.7592H116.649C116.714 64.8903 116.812 65.0541 116.845 65.1852C116.91 65.3163 116.91 65.4802 116.91 65.6441C116.91 65.7752 116.91 65.8735 116.877 66.0046C116.845 66.1029 116.812 66.234 116.714 66.2995C116.649 66.3979 116.551 66.4634 116.421 66.4962C116.29 66.5617 116.159 66.5617 115.964 66.5617H115.898C115.735 66.5617 115.605 66.5289 115.507 66.4962C115.376 66.4634 115.279 66.3651 115.213 66.2668C115.148 66.1684 115.083 66.0046 115.05 65.8407C115.017 65.6768 114.985 65.4474 114.985 65.1852V64.7592H114.756C114.528 64.7592 114.332 64.792 114.234 64.8903C114.136 64.9886 114.104 65.1525 114.104 65.3819C114.104 65.5785 114.104 65.7424 114.104 65.8735C114.104 66.0046 114.136 66.1357 114.136 66.2668V66.2995C114.136 66.3323 114.137 66.3651 114.104 66.3651C114.104 66.3979 114.071 66.3979 114.039 66.3979H113.875C113.81 66.3979 113.778 66.3651 113.778 66.2668C113.745 66.1357 113.745 66.0046 113.712 65.8735C113.712 65.7424 113.68 65.5785 113.68 65.3819C113.68 64.9886 113.778 64.6936 113.973 64.5298C114.169 64.3659 114.43 64.2676 114.756 64.2676H116.779V64.3003ZM115.376 64.792V65.218C115.376 65.3819 115.376 65.5457 115.409 65.6441C115.442 65.7752 115.474 65.8407 115.507 65.9063C115.54 65.9718 115.605 66.0046 115.67 66.0373C115.735 66.0701 115.833 66.0701 115.931 66.0701H115.996C116.192 66.0701 116.355 66.0373 116.421 65.939C116.486 65.8407 116.518 65.7096 116.518 65.5457C116.518 65.4146 116.486 65.2836 116.453 65.1525C116.421 65.0214 116.355 64.8903 116.29 64.7592H115.376V64.792Z" fill="white"/>
<path d="M114.137 62.2034C114.137 62.3345 114.169 62.4655 114.202 62.5966C114.235 62.7277 114.3 62.8588 114.398 62.9899H116.812C116.845 62.9899 116.878 62.9899 116.878 63.0227C116.91 63.0555 116.91 63.0882 116.91 63.0882V63.3832C116.91 63.416 116.91 63.4488 116.878 63.4488C116.845 63.4815 116.812 63.4815 116.812 63.4815H113.876C113.843 63.4815 113.81 63.4815 113.81 63.4488C113.778 63.416 113.778 63.416 113.778 63.3832V63.121C113.778 63.0882 113.778 63.0555 113.81 63.0555C113.843 63.0227 113.876 63.0227 113.908 63.0227H114.039C113.941 62.8916 113.876 62.7277 113.81 62.5966C113.778 62.4655 113.745 62.3345 113.745 62.2034C113.745 62.1378 113.778 62.0723 113.843 62.0723H114.071C114.104 62.0723 114.137 62.105 114.137 62.2034Z" fill="white"/>
<path d="M116.911 59.9421C116.911 60.0076 116.911 60.0732 116.943 60.1387C116.943 60.2043 116.943 60.2698 116.943 60.3354C116.943 60.4664 116.943 60.5975 116.911 60.6959C116.878 60.7942 116.845 60.8597 116.78 60.9253C116.715 60.9908 116.65 61.0236 116.552 61.0564C116.454 61.0891 116.323 61.0891 116.16 61.0891H114.137L114.072 61.6463C114.072 61.7118 114.039 61.7446 113.974 61.7446H113.811C113.746 61.7446 113.713 61.7118 113.713 61.6463V61.0891H113.158C113.093 61.0891 113.06 61.0564 113.028 60.9908L112.995 60.6959V60.6631C112.995 60.6303 112.995 60.6303 113.028 60.5975C113.06 60.5648 113.06 60.5648 113.093 60.5648H113.713V59.9748C113.713 59.9421 113.713 59.9093 113.746 59.9093C113.778 59.8765 113.811 59.8765 113.811 59.8765H114.007C114.039 59.8765 114.072 59.8765 114.072 59.9093C114.105 59.9421 114.105 59.9748 114.105 59.9748V60.5975H116.095C116.258 60.5975 116.356 60.5648 116.389 60.532C116.421 60.4992 116.454 60.4009 116.454 60.3026V59.9748C116.454 59.9093 116.486 59.8438 116.552 59.8438H116.747C116.878 59.8437 116.911 59.8765 116.911 59.9421Z" fill="white"/>
<path d="M113.843 56.8287C113.875 56.8287 113.875 56.8287 113.875 56.8287L117.204 57.7791C117.367 57.8119 117.497 57.8774 117.595 57.9102C117.693 57.9757 117.791 58.0413 117.856 58.1068C117.921 58.1724 117.987 58.2707 117.987 58.4018C118.019 58.5001 118.019 58.664 118.019 58.8278C118.019 58.8934 118.019 58.9917 118.019 59.09C118.019 59.1884 117.987 59.2539 117.987 59.3195C117.987 59.3522 117.954 59.385 117.954 59.4178C117.954 59.4505 117.921 59.4505 117.889 59.4505H117.66C117.595 59.4505 117.563 59.4178 117.563 59.3522V59.3195C117.563 59.2539 117.563 59.1556 117.595 59.0573C117.595 58.9589 117.595 58.8606 117.595 58.7951C117.595 58.7295 117.595 58.6312 117.563 58.5657C117.563 58.5001 117.53 58.4673 117.497 58.4018C117.465 58.369 117.399 58.3035 117.334 58.2707C117.269 58.2379 117.204 58.2052 117.106 58.1724L116.877 58.1068V58.1724C116.877 58.2052 116.877 58.2707 116.877 58.3035C116.877 58.3362 116.845 58.369 116.812 58.4346C116.779 58.4673 116.747 58.5001 116.682 58.5329C116.616 58.5657 116.551 58.5984 116.453 58.6312L113.81 59.385H113.778C113.712 59.385 113.68 59.3522 113.68 59.2867V58.9589C113.68 58.9262 113.68 58.9262 113.712 58.8934C113.745 58.8606 113.745 58.8606 113.778 58.8606L116.29 58.1724C116.355 58.1724 116.388 58.1396 116.388 58.1068C116.388 58.0741 116.421 58.0741 116.421 58.0413V57.943L113.778 57.222C113.745 57.222 113.745 57.1892 113.712 57.1892C113.68 57.1564 113.68 57.1564 113.68 57.1236V56.7959C113.745 56.8614 113.778 56.8287 113.843 56.8287Z" fill="white"/>
<path d="M116.779 54.0103C116.812 54.0103 116.845 54.0103 116.845 54.0431C116.877 54.0759 116.877 54.1086 116.877 54.1086V54.3708C116.877 54.4036 116.877 54.4364 116.845 54.4364C116.812 54.4691 116.779 54.4691 116.779 54.4691H116.649C116.714 54.6002 116.812 54.7641 116.845 54.8952C116.91 55.0263 116.91 55.1902 116.91 55.354C116.91 55.4851 116.91 55.5834 116.877 55.7145C116.845 55.8128 116.812 55.9439 116.714 56.0095C116.649 56.1078 116.551 56.1734 116.421 56.2061C116.29 56.2717 116.159 56.2717 115.964 56.2717H115.898C115.735 56.2717 115.605 56.2389 115.507 56.2061C115.376 56.1734 115.279 56.075 115.213 55.9767C115.148 55.8784 115.083 55.7145 115.05 55.5507C115.017 55.3868 114.985 55.1574 114.985 54.8952V54.4691H114.756C114.528 54.4691 114.332 54.5019 114.234 54.6002C114.136 54.6986 114.104 54.8624 114.104 55.0918C114.104 55.2885 114.104 55.4523 114.104 55.5834C114.104 55.7145 114.136 55.8456 114.136 55.9767V56.0095C114.136 56.0423 114.137 56.075 114.104 56.075C114.104 56.1078 114.071 56.1078 114.039 56.1078H113.875C113.81 56.1078 113.778 56.075 113.778 55.9767C113.745 55.8456 113.745 55.7145 113.712 55.5834C113.712 55.4523 113.68 55.2885 113.68 55.0918C113.68 54.6986 113.778 54.4036 113.973 54.2397C114.169 54.0759 114.43 53.9775 114.756 53.9775H116.779V54.0103ZM115.376 54.5347V54.9607C115.376 55.1246 115.376 55.2885 115.409 55.3868C115.442 55.5179 115.474 55.5834 115.507 55.649C115.54 55.7145 115.605 55.7473 115.67 55.7801C115.735 55.8128 115.833 55.8128 115.931 55.8128H115.996C116.192 55.8128 116.355 55.7801 116.421 55.6818C116.486 55.5834 116.518 55.4523 116.518 55.2885C116.518 55.1574 116.486 55.0263 116.453 54.8952C116.421 54.7641 116.355 54.633 116.29 54.5019H115.376V54.5347Z" fill="white"/>
<path d="M116.715 50.897C116.747 50.897 116.78 50.897 116.813 50.9298C116.845 50.9298 116.845 50.9626 116.845 51.0281C116.878 51.2248 116.91 51.3886 116.91 51.5525C116.91 51.7164 116.943 51.913 116.943 52.0769C116.943 52.3063 116.91 52.4702 116.845 52.634C116.78 52.7979 116.682 52.929 116.551 53.0273C116.421 53.1256 116.29 53.2239 116.095 53.2567C115.932 53.3223 115.736 53.3223 115.507 53.3223H115.083C114.626 53.3223 114.267 53.2239 114.039 52.9945C113.811 52.7979 113.68 52.4702 113.68 52.0441C113.68 51.9458 113.68 51.8475 113.68 51.7164C113.68 51.5853 113.713 51.487 113.713 51.3559H112.636C112.603 51.3559 112.571 51.3559 112.571 51.3231C112.538 51.2903 112.538 51.2903 112.538 51.2575V50.9626C112.538 50.9298 112.538 50.897 112.571 50.897C112.603 50.8643 112.603 50.8643 112.636 50.8643H116.715V50.897ZM114.17 51.3886C114.137 51.487 114.137 51.5853 114.137 51.7164C114.137 51.8475 114.137 51.9458 114.137 52.0441C114.137 52.1752 114.17 52.3063 114.202 52.4046C114.235 52.5029 114.3 52.5685 114.398 52.634C114.496 52.6996 114.594 52.7323 114.692 52.7651C114.822 52.7979 114.953 52.7979 115.116 52.7979H115.54C115.866 52.7979 116.095 52.7323 116.258 52.634C116.421 52.5357 116.519 52.3391 116.519 52.0441C116.519 51.9458 116.519 51.8475 116.519 51.7164C116.519 51.5853 116.519 51.487 116.486 51.3886H114.17Z" fill="white"/>
<path d="M116.094 48.0781C116.225 48.0781 116.355 48.1109 116.486 48.1437C116.584 48.2092 116.682 48.2748 116.747 48.3731C116.812 48.4714 116.877 48.5697 116.91 48.7008C116.943 48.8319 116.943 48.9958 116.943 49.1269C116.943 49.1924 116.943 49.258 116.943 49.3235C116.943 49.3891 116.943 49.4874 116.943 49.5529C116.943 49.6512 116.943 49.7168 116.91 49.8151C116.91 49.9134 116.877 49.979 116.877 50.0445C116.845 50.1101 116.812 50.1756 116.747 50.1756H116.551C116.518 50.1756 116.518 50.1756 116.486 50.1428C116.486 50.1101 116.453 50.1101 116.453 50.0773V50.0445C116.453 49.979 116.453 49.9134 116.486 49.8151C116.486 49.7168 116.486 49.6512 116.518 49.5529C116.518 49.4546 116.518 49.3891 116.518 49.3235C116.518 49.258 116.518 49.1924 116.518 49.1269C116.518 48.9302 116.486 48.7991 116.421 48.7008C116.355 48.6025 116.257 48.5697 116.094 48.5697C115.996 48.5697 115.931 48.6025 115.866 48.668C115.801 48.7336 115.703 48.8319 115.605 48.9958L115.246 49.5857C115.148 49.7496 115.017 49.9134 114.887 50.0118C114.756 50.1101 114.593 50.1756 114.43 50.1756C114.267 50.1756 114.169 50.1428 114.071 50.1101C113.973 50.0445 113.908 49.979 113.843 49.8807C113.778 49.7823 113.745 49.684 113.712 49.5529C113.68 49.4218 113.68 49.2907 113.68 49.1269C113.68 48.963 113.68 48.7991 113.712 48.668C113.712 48.5042 113.745 48.3731 113.778 48.242C113.778 48.1764 113.843 48.1437 113.908 48.1437H114.104C114.169 48.1437 114.202 48.1764 114.202 48.242V48.2748C114.202 48.3731 114.169 48.5042 114.169 48.668C114.169 48.8319 114.136 48.9958 114.136 49.1596C114.136 49.3235 114.169 49.4546 114.202 49.5529C114.234 49.6512 114.332 49.684 114.463 49.684C114.561 49.684 114.626 49.6512 114.691 49.5857C114.756 49.5202 114.822 49.4218 114.887 49.2907L115.213 48.7336C115.344 48.5042 115.507 48.3403 115.637 48.242C115.768 48.1437 115.931 48.0781 116.094 48.0781Z" fill="white"/>
<path d="M118.019 80.0327C118.019 80.0983 117.986 80.1638 117.889 80.1966C117.791 80.2294 117.725 80.1638 117.693 80.0983L117.432 79.2134V80.0655C117.432 80.1638 117.367 80.2294 117.269 80.2294C117.171 80.2294 117.105 80.1638 117.105 80.0655V78.0008C117.105 77.9352 117.171 77.8369 117.236 77.8369C117.301 77.8369 117.399 77.8697 117.399 77.968L117.954 80C118.019 80 118.019 79.9999 118.019 80.0327Z" fill="white"/>
<path d="M118.77 80.0331C118.77 80.0986 118.737 80.1642 118.639 80.1969C118.541 80.2297 118.476 80.1642 118.443 80.0986L117.889 78.0667C117.856 77.9684 117.921 77.9028 117.986 77.87C118.084 77.8373 118.15 77.9028 118.182 77.9684L118.737 80.0003C118.77 80.0003 118.77 80.0003 118.77 80.0331Z" fill="white"/>
<path d="M119.129 79.0172C119.129 79.0828 119.096 79.1483 118.999 79.1811C118.901 79.2139 118.835 79.1483 118.803 79.0828L118.868 78.9517C118.835 78.8534 118.737 78.624 118.835 78.624C118.933 78.5912 118.999 78.6567 119.031 78.7223L119.096 79.0172C119.129 78.9845 119.129 79.0172 119.129 79.0172Z" fill="white"/>
<path d="M116.747 78.2955V79.7704C116.747 80.0325 116.551 80.2292 116.29 80.2292H115.833C115.442 80.8519 114.724 81.2452 113.973 81.2452C112.766 81.2452 111.787 80.262 111.787 79.0493C111.787 77.8367 112.766 76.8535 113.973 76.8535C114.724 76.8535 115.409 77.2468 115.8 77.8695H116.257C116.551 77.8367 116.747 78.0334 116.747 78.2955ZM112.113 79.0166C112.113 80.0653 112.962 80.8847 113.973 80.8847C114.626 80.8847 115.246 80.5241 115.605 79.9342C115.637 79.8687 115.703 79.8687 115.735 79.8687H116.29C116.355 79.8687 116.42 79.8031 116.42 79.7376V78.2628C116.42 78.1972 116.355 78.1317 116.29 78.1317H115.735C115.67 78.1317 115.637 78.0989 115.605 78.0661C115.278 77.509 114.658 77.1485 114.006 77.1485C112.962 77.1485 112.113 78.0006 112.113 79.0166Z" fill="white"/>
<path d="M111.951 77.1806C111.951 77.2134 111.918 77.2462 111.918 77.2789C111.853 77.3445 111.755 77.3117 111.722 77.2789L111.233 76.7218C111.168 76.6562 111.2 76.5579 111.233 76.5251C111.298 76.4596 111.396 76.4924 111.429 76.5251L111.918 77.0823C111.951 77.1151 111.951 77.1478 111.951 77.1806Z" fill="white"/>
<path d="M111.33 79.0488C111.33 79.1143 111.265 79.1799 111.2 79.1799H110.09C110.025 79.1799 109.96 79.1143 109.96 79.0488C109.96 78.9833 110.025 78.9177 110.09 78.9177H111.2C111.265 78.8849 111.33 78.9505 111.33 79.0488Z" fill="white"/>
<path d="M113.648 76.1646C113.648 76.2302 113.615 76.2957 113.517 76.2957C113.452 76.2957 113.354 76.263 113.354 76.1974L113.158 75.1814C113.158 75.1159 113.191 75.0176 113.256 75.0176C113.321 75.0176 113.419 75.0504 113.419 75.1159L113.648 76.1646Z" fill="white"/>
<path d="M111.95 80.917C111.95 80.9498 111.95 80.9826 111.918 81.0153L111.428 81.5725C111.363 81.638 111.298 81.638 111.233 81.5725C111.167 81.5069 111.167 81.4414 111.233 81.3758L111.722 80.8187C111.787 80.7531 111.852 80.7531 111.918 80.8187C111.918 80.8187 111.95 80.8515 111.95 80.917Z" fill="white"/>
<path d="M115.801 76.034C115.801 76.0668 115.801 76.0996 115.768 76.0996L115.507 76.5256C115.475 76.5912 115.377 76.6239 115.311 76.5584C115.246 76.5256 115.213 76.4273 115.279 76.3617L115.54 75.9357C115.572 75.8701 115.67 75.8374 115.736 75.9029C115.768 75.9357 115.801 75.9685 115.801 76.034Z" fill="white"/>
<path d="M115.736 82.0644C115.736 82.0972 115.703 82.1628 115.671 82.1955C115.605 82.2283 115.507 82.2283 115.475 82.1628L115.214 81.7367C115.181 81.6712 115.181 81.5729 115.246 81.5401C115.312 81.5073 115.41 81.5073 115.442 81.5729L115.703 81.9989C115.703 81.9989 115.736 82.0317 115.736 82.0644Z" fill="white"/>
<path d="M113.647 81.9006C113.647 81.9006 113.647 81.9333 113.647 81.9006L113.451 82.9493C113.451 83.0149 113.353 83.0804 113.288 83.0476C113.223 83.0476 113.158 82.9493 113.19 82.8838L113.386 81.8678C113.386 81.8022 113.484 81.7367 113.549 81.7695C113.582 81.7695 113.647 81.835 113.647 81.9006Z" fill="white"/>
<defs>
<linearGradient id="paint0_linear" x1="-44.9166" y1="62.9428" x2="-2.21268" y2="152.351" gradientUnits="userSpaceOnUse">
<stop stop-color="#FBB63F"/>
<stop offset="0.981306" stop-color="#B069A1"/>
</linearGradient>
</defs>
</svg>
