<svg width="153" height="307" viewBox="0 0 153 307" fill="none" xmlns="http://www.w3.org/2000/svg">
<path d="M133.965 306.279H19.0357C8.90748 306.279 0.71875 298.057 0.71875 287.887V19.1136C0.71875 8.94393 8.90748 0.72168 19.0357 0.72168H133.965C144.093 0.72168 152.282 8.94393 152.282 19.1136V287.851C152.282 298.021 144.093 306.279 133.965 306.279Z" fill="white"/>
<path d="M133.965 307H19.0352C8.54789 307 0 298.417 0 287.887V19.1131C0 8.58287 8.54789 0 19.0352 0H133.965C144.452 0 153 8.58287 153 19.1131V287.851C153 298.417 144.452 307 133.965 307ZM19.0352 1.4425C9.33803 1.4425 1.43662 9.37625 1.43662 19.1131V287.851C1.43662 297.588 9.33803 305.521 19.0352 305.521H133.965C143.662 305.521 151.563 297.588 151.563 287.851V19.1131C151.563 9.37625 143.662 1.4425 133.965 1.4425H19.0352Z" fill="#575756"/>
<path d="M147.326 272.525H5.6748V32.8535H147.29V272.525H147.326ZM6.75227 271.443H146.212V33.9354H6.75227V271.443Z" fill="#575756"/>
<path d="M96.6131 23.0077H55.2744C54.0173 23.0077 53.0117 21.998 53.0117 20.7358V20.2309C53.0117 18.9687 54.0173 17.959 55.2744 17.959H96.6131C97.8702 17.959 98.8758 18.9687 98.8758 20.2309V20.7358C98.8399 21.998 97.8342 23.0077 96.6131 23.0077ZM55.2744 19.0769C54.6279 19.0769 54.0892 19.6179 54.0892 20.267V20.7719C54.0892 21.421 54.6279 21.9619 55.2744 21.9619H96.6131C97.2596 21.9619 97.7983 21.421 97.7983 20.7719V20.267C97.7983 19.6179 97.2596 19.0769 96.6131 19.0769H55.2744Z" fill="#575756"/>
<g opacity="0.99">
<path opacity="0.99" d="M75.9252 301.879C68.7421 301.879 62.9238 296.037 62.9238 288.824C62.9238 281.612 68.7421 275.77 75.9252 275.77C83.1083 275.77 88.9267 281.612 88.9267 288.824C88.9267 296.037 83.1083 301.879 75.9252 301.879ZM75.9252 276.815C69.3527 276.815 64.0013 282.189 64.0013 288.788C64.0013 295.388 69.3527 300.761 75.9252 300.761C82.4978 300.761 87.8492 295.388 87.8492 288.788C87.8492 282.189 82.5337 276.815 75.9252 276.815Z" fill="#575756"/>
</g>
<path d="M76.5004 15.1458C74.7765 15.1458 73.3398 13.7394 73.3398 11.9723C73.3398 10.2053 74.7405 8.79883 76.5004 8.79883C78.2603 8.79883 79.661 10.2053 79.661 11.9723C79.661 13.7394 78.2244 15.1458 76.5004 15.1458ZM76.5004 9.91677C75.3511 9.91677 74.4173 10.8544 74.4173 12.0084C74.4173 13.1624 75.3511 14.1 76.5004 14.1C77.6497 14.1 78.5835 13.1624 78.5835 12.0084C78.5835 10.8544 77.6497 9.91677 76.5004 9.91677Z" fill="#575756"/>
<path d="M117.588 40.1377H61.7748C60.7333 40.1377 59.9072 41.0032 59.9072 42.0129C59.9072 43.0588 60.7692 43.8882 61.7748 43.8882H117.588C118.629 43.8882 119.455 43.0227 119.455 42.0129C119.491 41.0032 118.629 40.1377 117.588 40.1377Z" fill="#C6C6C6"/>
<path d="M138.813 40.1377H138.706C137.664 40.1377 136.838 41.0032 136.838 42.0129C136.838 43.0588 137.7 43.8882 138.706 43.8882H138.813C139.855 43.8882 140.681 43.0227 140.681 42.0129C140.681 41.0032 139.855 40.1377 138.813 40.1377Z" fill="#C6C6C6"/>
<path d="M117.588 53.4805H61.7748C60.7333 53.4805 59.9072 54.346 59.9072 55.3557C59.9072 56.4015 60.7692 57.231 61.7748 57.231H117.588C118.629 57.231 119.455 56.3655 119.455 55.3557C119.491 54.346 118.629 53.4805 117.588 53.4805Z" fill="#C6C6C6"/>
<path d="M90.2558 66.8242H61.7748C60.7333 66.8242 59.9072 67.6897 59.9072 68.6995C59.9072 69.7453 60.7692 70.5747 61.7748 70.5747H90.2558C91.2973 70.5747 92.1234 69.7092 92.1234 68.6995C92.1234 67.6897 91.2973 66.8242 90.2558 66.8242Z" fill="#C6C6C6"/>
<path d="M70.4305 139.201H16.2699C15.2284 139.201 14.4023 140.067 14.4023 141.076C14.4023 142.122 15.2643 142.952 16.2699 142.952H70.4305C71.4721 142.952 72.2981 142.086 72.2981 141.076C72.334 140.031 71.4721 139.201 70.4305 139.201Z" fill="#C6C6C6"/>
<path d="M58.5066 152.544H16.2699C15.2284 152.544 14.4023 153.409 14.4023 154.419C14.4023 155.465 15.2643 156.294 16.2699 156.294H58.5066C59.5481 156.294 60.3742 155.429 60.3742 154.419C60.3742 153.373 59.5481 152.544 58.5066 152.544Z" fill="#C6C6C6"/>
<path d="M31.1386 70.4663C39.6084 70.4663 46.4746 63.5721 46.4746 55.0676C46.4746 46.5632 39.6084 39.6689 31.1386 39.6689C22.6689 39.6689 15.8027 46.5632 15.8027 55.0676C15.8027 63.5721 22.6689 70.4663 31.1386 70.4663Z" fill="#C6C6C6"/>
<path d="M17.8863 84.2061H70.6102C71.6518 84.2061 72.4778 85.0716 72.4778 86.0813V127.553C72.4778 128.599 71.6159 129.428 70.6102 129.428H17.8863C16.8447 129.428 16.0187 128.563 16.0187 127.553V86.0813C15.9827 85.0355 16.8447 84.2061 17.8863 84.2061Z" fill="#C6C6C6"/>
<path d="M134.647 139.201H80.4868C79.4452 139.201 78.6191 140.067 78.6191 141.076C78.6191 142.122 79.4811 142.952 80.4868 142.952H134.647C135.689 142.952 136.515 142.086 136.515 141.076C136.515 140.031 135.689 139.201 134.647 139.201Z" fill="#C6C6C6"/>
<path d="M122.687 152.544H80.4868C79.4452 152.544 78.6191 153.409 78.6191 154.419C78.6191 155.465 79.4811 156.294 80.4868 156.294H122.723C123.765 156.294 124.591 155.429 124.591 154.419C124.591 153.373 123.729 152.544 122.687 152.544Z" fill="#C6C6C6"/>
<path d="M82.0668 84.2061H134.791C135.832 84.2061 136.658 85.0716 136.658 86.0813V127.553C136.658 128.599 135.796 129.428 134.791 129.428H82.0668C81.0253 129.428 80.1992 128.563 80.1992 127.553V86.0813C80.1992 85.0355 81.0253 84.2061 82.0668 84.2061Z" fill="#C6C6C6"/>
<path d="M70.4305 231.16H16.2699C15.2284 231.16 14.4023 232.026 14.4023 233.035C14.4023 234.081 15.2643 234.911 16.2699 234.911H70.4305C71.4721 234.911 72.2981 234.045 72.2981 233.035C72.334 231.99 71.4721 231.16 70.4305 231.16Z" fill="#C6C6C6"/>
<path d="M58.5066 244.504H16.2699C15.2284 244.504 14.4023 245.369 14.4023 246.379C14.4023 247.425 15.2643 248.254 16.2699 248.254H58.5066C59.5481 248.254 60.3742 247.389 60.3742 246.379C60.3742 245.333 59.5481 244.504 58.5066 244.504Z" fill="#C6C6C6"/>
<path d="M17.8863 176.165H70.6102C71.6518 176.165 72.4778 177.031 72.4778 178.04V219.512C72.4778 220.558 71.6159 221.387 70.6102 221.387H17.8863C16.8447 221.387 16.0187 220.522 16.0187 219.512V178.04C15.9827 176.994 16.8447 176.165 17.8863 176.165Z" fill="#C6C6C6"/>
<path d="M134.647 231.16H80.4868C79.4452 231.16 78.6191 232.026 78.6191 233.035C78.6191 234.081 79.4811 234.911 80.4868 234.911H134.647C135.689 234.911 136.515 234.045 136.515 233.035C136.515 231.99 135.689 231.16 134.647 231.16Z" fill="#C6C6C6"/>
<path d="M122.687 244.504H80.4868C79.4452 244.504 78.6191 245.369 78.6191 246.379C78.6191 247.425 79.4811 248.254 80.4868 248.254H122.723C123.765 248.254 124.591 247.389 124.591 246.379C124.591 245.333 123.729 244.504 122.687 244.504Z" fill="#C6C6C6"/>
<path d="M82.0668 176.165H134.791C135.832 176.165 136.658 177.031 136.658 178.04V219.512C136.658 220.558 135.796 221.387 134.791 221.387H82.0668C81.0253 221.387 80.1992 220.522 80.1992 219.512V178.04C80.1992 176.994 81.0253 176.165 82.0668 176.165Z" fill="#C6C6C6"/>
<rect x="19.7422" y="66.3516" width="111.542" height="173.306" rx="10" fill="url(#paint0_linear)"/>
<path d="M120.281 76.416H120.173C119.132 76.416 118.306 77.2815 118.306 78.2913C118.306 79.3371 119.168 80.1665 120.173 80.1665H120.281C121.323 80.1665 122.149 79.301 122.149 78.2913C122.149 77.2815 121.323 76.416 120.281 76.416Z" fill="white"/>
<path d="M65.6172 216.556C65.6172 216.808 65.5812 217.024 65.4735 217.169C65.4017 217.349 65.258 217.493 65.1143 217.601C64.9707 217.71 64.7552 217.782 64.5397 217.854C64.3242 217.926 64.0728 217.926 63.8214 217.926C63.7495 217.926 63.6418 217.926 63.4981 217.926C63.3904 217.926 63.2467 217.926 63.1031 217.89C62.9594 217.89 62.8157 217.854 62.6721 217.854C62.5284 217.854 62.4207 217.818 62.277 217.782C62.1334 217.746 62.0615 217.674 62.0615 217.601V217.277C62.0615 217.241 62.0615 217.205 62.0974 217.169C62.1334 217.133 62.1693 217.133 62.2052 217.133H62.2411C62.3488 217.133 62.4925 217.169 62.6362 217.169C62.7798 217.169 62.9235 217.205 63.0672 217.205C63.2108 217.205 63.3545 217.205 63.4622 217.241C63.57 217.241 63.6777 217.241 63.7855 217.241C64.1087 217.241 64.3242 217.205 64.5038 217.097C64.6474 216.988 64.7552 216.808 64.7552 216.556C64.7552 216.411 64.7193 216.267 64.6115 216.159C64.5038 216.051 64.3242 215.906 64.0369 215.762L63.0672 215.185C62.7798 215.005 62.5284 214.825 62.3488 214.608C62.1693 214.392 62.0974 214.139 62.0974 213.815C62.0974 213.562 62.1334 213.346 62.2411 213.202C62.3129 213.021 62.4566 212.913 62.6003 212.805C62.7439 212.697 62.9235 212.625 63.139 212.589C63.3545 212.553 63.57 212.517 63.8214 212.517C64.0728 212.517 64.3601 212.517 64.6115 212.553C64.8629 212.589 65.1143 212.589 65.3298 212.661C65.4376 212.697 65.5094 212.733 65.5094 212.841V213.166C65.5094 213.274 65.4376 213.346 65.3298 213.346H65.2939C65.1143 213.346 64.8988 213.31 64.6115 213.31C64.3242 213.274 64.0728 213.274 63.7855 213.274C63.4981 213.274 63.3186 213.31 63.139 213.382C62.9594 213.454 62.8876 213.598 62.8876 213.851C62.8876 213.995 62.9594 214.139 63.0672 214.248C63.1749 214.356 63.3545 214.464 63.57 214.608L64.5038 215.185C64.8988 215.438 65.1862 215.654 65.3298 215.87C65.5094 216.015 65.6172 216.267 65.6172 216.556Z" fill="white"/>
<path d="M73.0157 217.819C72.9798 217.855 72.9438 217.891 72.872 217.891H72.4051C72.3692 217.891 72.2974 217.855 72.2615 217.819C72.2255 217.783 72.1896 217.747 72.1896 217.674V214.248C72.1896 214.032 72.1537 213.888 72.1178 213.744C72.0819 213.599 72.01 213.491 71.9382 213.419C71.8664 213.347 71.7586 213.275 71.6509 213.239C71.5431 213.203 71.4354 213.203 71.2917 213.203C71.1122 213.203 70.9326 213.239 70.753 213.275C70.5734 213.311 70.3579 213.383 70.1784 213.455C70.2502 213.672 70.2502 213.924 70.2502 214.212V217.638C70.2502 217.674 70.2502 217.747 70.2143 217.783C70.1784 217.819 70.1424 217.855 70.1065 217.855H69.6037C69.5678 217.855 69.496 217.819 69.496 217.783C69.46 217.747 69.46 217.71 69.46 217.638V214.212C69.46 213.996 69.46 213.816 69.4241 213.708C69.3882 213.563 69.3523 213.455 69.2805 213.383C69.2086 213.311 69.1368 213.275 69.0291 213.239C68.9213 213.203 68.8136 213.203 68.7058 213.203C68.5262 213.203 68.3467 213.239 68.1312 213.311C67.9157 213.383 67.7361 213.491 67.5206 213.563V217.638C67.5206 217.674 67.5206 217.747 67.4847 217.783C67.4488 217.819 67.4129 217.855 67.3769 217.855H66.8741C66.8382 217.855 66.7664 217.819 66.7664 217.783C66.7305 217.747 66.7305 217.71 66.7305 217.638V212.77C66.7305 212.734 66.7305 212.662 66.7664 212.626C66.8023 212.59 66.8382 212.554 66.91 212.554H67.3769C67.4129 212.554 67.4847 212.59 67.5206 212.626C67.5565 212.662 67.5565 212.698 67.5565 212.77V212.95C67.7361 212.842 67.9516 212.734 68.203 212.626C68.4544 212.554 68.7058 212.481 68.9572 212.481C69.1727 212.481 69.3523 212.518 69.496 212.59C69.6396 212.662 69.7833 212.77 69.9269 212.878C70.1784 212.734 70.4657 212.662 70.753 212.59C71.0403 212.518 71.2917 212.481 71.5431 212.481C71.7586 212.481 71.9741 212.518 72.1537 212.554C72.3333 212.626 72.5129 212.698 72.6565 212.842C72.8002 212.986 72.9079 213.167 72.9798 213.383C73.0516 213.599 73.0875 213.888 73.0875 214.212V217.638C73.0875 217.71 73.0516 217.783 73.0157 217.819Z" fill="white"/>
<path d="M78.0798 217.674C78.0798 217.711 78.0439 217.783 78.008 217.819C77.9721 217.855 77.9362 217.891 77.8643 217.891H77.4333C77.3974 217.891 77.3256 217.855 77.2897 217.819C77.2538 217.783 77.2179 217.747 77.2179 217.674V217.458C77.0024 217.602 76.7509 217.711 76.4995 217.783C76.2481 217.855 75.9967 217.927 75.7453 217.927C75.5298 217.927 75.3502 217.891 75.1707 217.855C74.9911 217.819 74.8115 217.711 74.6679 217.602C74.5242 217.494 74.4164 217.314 74.3087 217.133C74.2369 216.917 74.165 216.701 74.165 216.376V216.268C74.165 216.016 74.201 215.799 74.2728 215.583C74.3446 215.403 74.4883 215.222 74.6679 215.078C74.8474 214.934 75.0988 214.862 75.3862 214.789C75.6735 214.717 76.0326 214.681 76.4636 214.681H77.1819V214.285C77.1819 213.888 77.1101 213.599 76.9664 213.419C76.8228 213.275 76.5355 213.167 76.1763 213.167C75.8531 213.167 75.6017 213.167 75.3502 213.203C75.0988 213.203 74.8833 213.239 74.7038 213.239H74.6679C74.6319 213.239 74.596 213.239 74.5601 213.203C74.5242 213.167 74.5242 213.131 74.5242 213.095V212.77C74.5242 212.662 74.596 212.59 74.7397 212.59C74.9552 212.554 75.1707 212.517 75.3862 212.517C75.6017 212.481 75.889 212.481 76.2122 212.481C76.8946 212.481 77.3615 212.626 77.6488 212.95C77.9362 213.275 78.0798 213.708 78.0798 214.285V217.674ZM77.2179 215.294H76.4995C76.2122 215.294 75.9608 215.294 75.7812 215.33C75.6017 215.366 75.4221 215.402 75.3143 215.511C75.2066 215.583 75.1348 215.691 75.0988 215.799C75.0629 215.907 75.027 216.052 75.027 216.232V216.34C75.027 216.701 75.0988 216.917 75.2425 217.025C75.3862 217.134 75.6017 217.206 75.889 217.206C76.1045 217.206 76.32 217.17 76.5355 217.097C76.751 217.025 76.9664 216.953 77.1819 216.809V215.294H77.2179Z" fill="white"/>
<path d="M81.5277 213.238C81.3123 213.238 81.0968 213.274 80.8813 213.346C80.6658 213.418 80.4503 213.526 80.1989 213.671V217.71C80.1989 217.746 80.163 217.818 80.1271 217.854C80.0911 217.89 80.0552 217.926 79.9834 217.926H79.5165C79.4806 217.926 79.4087 217.89 79.3728 217.854C79.3369 217.818 79.3369 217.782 79.3369 217.71V212.769C79.3369 212.733 79.3369 212.661 79.3728 212.625C79.4087 212.589 79.4447 212.553 79.5165 212.553H79.9834C80.0193 212.553 80.0911 212.589 80.1271 212.625C80.163 212.661 80.163 212.697 80.163 212.769V212.985C80.4144 212.805 80.6299 212.697 80.8454 212.625C81.0609 212.553 81.2763 212.517 81.4918 212.517C81.6355 212.517 81.7073 212.589 81.7073 212.697V213.094C81.7432 213.202 81.6714 213.238 81.5277 213.238Z" fill="white"/>
<path d="M85.2989 217.891C85.1912 217.891 85.0834 217.927 84.9757 217.927C84.8679 217.927 84.7602 217.927 84.6524 217.927C84.4369 217.927 84.2215 217.927 84.0778 217.891C83.8982 217.855 83.7905 217.782 83.6827 217.71C83.575 217.602 83.5031 217.494 83.4313 217.314C83.3595 217.133 83.3595 216.917 83.3595 216.665V213.311L82.4257 213.203C82.3179 213.203 82.2461 213.13 82.2461 213.022V212.77C82.2461 212.662 82.3179 212.589 82.4257 212.589H83.3595V211.652C83.3595 211.544 83.4313 211.472 83.5391 211.472L84.0419 211.399H84.0778C84.1137 211.399 84.1496 211.399 84.1855 211.435C84.2214 211.472 84.2214 211.508 84.2214 211.544V212.589H85.263C85.2989 212.589 85.3707 212.626 85.4067 212.662C85.4426 212.698 85.4785 212.734 85.4785 212.806V213.13C85.4785 213.166 85.4426 213.239 85.4067 213.275C85.3707 213.311 85.3348 213.347 85.263 213.347H84.2214V216.701C84.2214 216.953 84.2574 217.133 84.3292 217.205C84.401 217.278 84.5447 217.314 84.7243 217.314H85.263C85.4067 217.314 85.4785 217.35 85.4785 217.458V217.782C85.4426 217.819 85.4067 217.855 85.2989 217.891Z" fill="white"/>
<path d="M90.4344 212.733C90.4344 212.769 90.4344 212.805 90.4344 212.805L88.8541 218.359C88.7823 218.611 88.7105 218.828 88.6027 219.008C88.5309 219.188 88.4232 219.333 88.2795 219.441C88.1358 219.549 87.9922 219.621 87.8126 219.693C87.633 219.729 87.3816 219.765 87.1302 219.765C86.9865 219.765 86.8429 219.765 86.6992 219.729C86.5555 219.729 86.4119 219.693 86.3041 219.657C86.2323 219.657 86.1964 219.621 86.1605 219.621C86.1246 219.585 86.0886 219.549 86.0886 219.513V219.152C86.0886 219.044 86.1605 219.008 86.2682 219.008H86.3041C86.4119 219.008 86.5555 219.044 86.7351 219.044C86.9147 219.044 87.0584 219.08 87.1661 219.08C87.3098 219.08 87.4175 219.08 87.5253 219.044C87.633 219.008 87.7048 218.972 87.7767 218.936C87.8485 218.864 87.9203 218.792 87.9562 218.683C88.0281 218.575 88.064 218.431 88.0999 218.287L88.2077 217.89H88.064C87.9922 217.89 87.9203 217.89 87.8485 217.854C87.7767 217.854 87.7048 217.818 87.6689 217.782C87.5971 217.746 87.5612 217.674 87.4894 217.565C87.4534 217.493 87.3816 217.349 87.3457 217.205L86.0527 212.805C86.0527 212.805 86.0527 212.769 86.0527 212.733C86.0527 212.625 86.1246 212.553 86.2323 212.553H86.771C86.807 212.553 86.8429 212.553 86.8788 212.589C86.9147 212.625 86.9147 212.661 86.9506 212.697L88.0999 216.88C88.1358 216.988 88.1717 217.025 88.1717 217.061C88.2077 217.097 88.2436 217.097 88.2795 217.097H88.4232L89.6084 212.697C89.6084 212.661 89.6443 212.625 89.6802 212.589C89.7161 212.553 89.752 212.553 89.7879 212.553H90.3267C90.3985 212.553 90.4344 212.625 90.4344 212.733Z" fill="white"/>
<path d="M95.1394 217.674C95.1394 217.711 95.1035 217.783 95.0676 217.819C95.0317 217.855 94.9957 217.891 94.9239 217.891H94.4929C94.457 217.891 94.3852 217.855 94.3493 217.819C94.3134 217.783 94.2774 217.747 94.2774 217.674V217.458C94.0619 217.602 93.8105 217.711 93.5591 217.783C93.3077 217.855 93.0563 217.927 92.8049 217.927C92.5894 217.927 92.4098 217.891 92.2302 217.855C92.0507 217.819 91.8711 217.711 91.7274 217.602C91.5838 217.494 91.476 217.314 91.3683 217.133C91.2964 216.917 91.2246 216.701 91.2246 216.376V216.268C91.2246 216.016 91.2605 215.799 91.3324 215.583C91.4042 215.403 91.5478 215.222 91.7274 215.078C91.907 214.934 92.1584 214.862 92.4457 214.789C92.7331 214.717 93.0922 214.681 93.5232 214.681H94.2415V214.285C94.2415 213.888 94.1697 213.599 94.026 213.419C93.8824 213.275 93.595 213.167 93.2359 213.167C92.9126 213.167 92.6612 213.167 92.4098 213.203C92.1584 213.203 91.9429 213.239 91.7633 213.239H91.7274C91.6915 213.239 91.6556 213.239 91.6197 213.203C91.5838 213.167 91.5838 213.131 91.5838 213.095V212.77C91.5838 212.662 91.6556 212.59 91.7993 212.59C92.0148 212.554 92.2302 212.517 92.4457 212.517C92.6612 212.481 92.9486 212.481 93.2718 212.481C93.9542 212.481 94.4211 212.626 94.7084 212.95C94.9957 213.275 95.1394 213.708 95.1394 214.285V217.674ZM94.3134 215.294H93.595C93.3077 215.294 93.0563 215.294 92.8767 215.33C92.6971 215.366 92.5176 215.402 92.4098 215.511C92.3021 215.583 92.2302 215.691 92.1943 215.799C92.1584 215.907 92.1225 216.052 92.1225 216.232V216.34C92.1225 216.701 92.1943 216.917 92.338 217.025C92.4817 217.134 92.6971 217.206 92.9845 217.206C93.2 217.206 93.4155 217.17 93.631 217.097C93.8465 217.025 94.0619 216.953 94.2774 216.809V215.294H94.3134Z" fill="white"/>
<path d="M100.348 217.566C100.348 217.638 100.348 217.674 100.312 217.71C100.276 217.746 100.24 217.782 100.132 217.782C99.8447 217.854 99.5215 217.89 99.2341 217.89C98.9468 217.926 98.6595 217.926 98.3722 217.926C98.013 217.926 97.6898 217.854 97.4384 217.746C97.1869 217.638 96.9715 217.457 96.7919 217.277C96.6123 217.061 96.5046 216.808 96.3968 216.52C96.325 216.231 96.2891 215.907 96.2891 215.546V214.861C96.2891 214.104 96.4686 213.527 96.7919 213.13C97.151 212.733 97.6539 212.517 98.3722 212.517C98.5158 212.517 98.6954 212.517 98.9109 212.553C99.1264 212.553 99.306 212.589 99.4855 212.625V210.822C99.4855 210.786 99.4855 210.714 99.5215 210.678C99.5574 210.642 99.5933 210.642 99.6651 210.642H100.168C100.204 210.642 100.276 210.642 100.276 210.678C100.312 210.714 100.312 210.75 100.312 210.822V217.566H100.348ZM99.4855 213.31C99.3419 213.274 99.1264 213.274 98.9109 213.238C98.6954 213.238 98.5158 213.238 98.3722 213.238C98.1208 213.238 97.9412 213.274 97.7616 213.346C97.6179 213.418 97.4743 213.527 97.3665 213.671C97.2588 213.815 97.1869 213.995 97.151 214.176C97.1151 214.392 97.0792 214.608 97.0792 214.861V215.546C97.0792 216.087 97.151 216.484 97.3306 216.772C97.5102 217.061 97.8334 217.205 98.3003 217.205C98.4799 217.205 98.6595 217.205 98.875 217.169C99.0905 217.169 99.2701 217.133 99.4496 217.133V213.31H99.4855Z" fill="white"/>
<path d="M104.98 216.556C104.98 216.808 104.945 217.024 104.837 217.169C104.765 217.349 104.621 217.493 104.478 217.601C104.334 217.71 104.118 217.782 103.903 217.854C103.687 217.926 103.436 217.926 103.185 217.926C103.113 217.926 103.005 217.926 102.861 217.926C102.754 217.926 102.61 217.926 102.466 217.89C102.323 217.89 102.179 217.854 102.035 217.854C101.892 217.854 101.784 217.818 101.64 217.782C101.497 217.746 101.425 217.674 101.425 217.601V217.277C101.425 217.241 101.425 217.205 101.461 217.169C101.497 217.133 101.533 217.133 101.568 217.133H101.604C101.712 217.133 101.856 217.169 101.999 217.169C102.143 217.169 102.287 217.205 102.43 217.205C102.574 217.205 102.718 217.205 102.826 217.241C102.933 217.241 103.041 217.241 103.149 217.241C103.472 217.241 103.687 217.205 103.867 217.097C104.011 216.988 104.118 216.808 104.118 216.556C104.118 216.411 104.083 216.267 103.975 216.159C103.867 216.051 103.687 215.906 103.4 215.762L102.43 215.185C102.143 215.005 101.892 214.825 101.712 214.608C101.533 214.392 101.461 214.139 101.461 213.815C101.461 213.562 101.497 213.346 101.604 213.202C101.676 213.021 101.82 212.913 101.964 212.805C102.107 212.697 102.287 212.625 102.502 212.589C102.718 212.553 102.933 212.517 103.185 212.517C103.436 212.517 103.723 212.517 103.975 212.553C104.226 212.589 104.478 212.589 104.693 212.661C104.801 212.697 104.873 212.733 104.873 212.841V213.166C104.873 213.274 104.801 213.346 104.693 213.346H104.657C104.478 213.346 104.262 213.31 103.975 213.31C103.687 213.274 103.436 213.274 103.149 213.274C102.861 213.274 102.682 213.31 102.502 213.382C102.323 213.454 102.251 213.598 102.251 213.851C102.251 213.995 102.323 214.139 102.43 214.248C102.538 214.356 102.718 214.464 102.933 214.608L103.867 215.185C104.262 215.438 104.549 215.654 104.693 215.87C104.909 216.015 104.98 216.267 104.98 216.556Z" fill="white"/>
<path d="M51.9334 219.729C51.8257 219.729 51.7179 219.657 51.682 219.548C51.6461 219.404 51.7179 219.26 51.8616 219.224L53.3341 218.791H51.9334C51.7898 218.791 51.682 218.683 51.682 218.539C51.682 218.394 51.7898 218.286 51.9334 218.286H55.2735C55.4172 218.286 55.525 218.394 55.525 218.503C55.5609 218.647 55.4531 218.755 55.3454 218.791L52.0052 219.729C51.9693 219.729 51.9334 219.729 51.9334 219.729Z" fill="white"/>
<path d="M51.9334 220.991C51.8257 220.991 51.7179 220.919 51.682 220.81C51.6461 220.666 51.7179 220.522 51.8616 220.486L55.2017 219.548C55.3454 219.512 55.489 219.584 55.525 219.729C55.5609 219.873 55.489 220.017 55.3454 220.053L52.0052 220.991C51.9693 220.991 51.9334 220.991 51.9334 220.991Z" fill="white"/>
<path d="M53.5858 221.604C53.478 221.604 53.3703 221.532 53.3343 221.424C53.2984 221.28 53.3703 221.136 53.5139 221.1L53.7653 221.208C53.909 221.172 54.3041 221.027 54.34 221.172C54.3759 221.316 54.3041 221.46 54.1604 221.496L53.6935 221.641C53.6217 221.568 53.6217 221.604 53.5858 221.604Z" fill="white"/>
<path d="M54.8071 217.637H52.3649C51.9698 217.637 51.6107 217.313 51.6107 216.88V216.122C50.5691 215.437 49.8867 214.283 49.8867 213.021C49.8867 211.002 51.5388 209.343 53.5501 209.343C55.5614 209.343 57.2135 211.002 57.2135 213.021C57.2135 214.247 56.567 215.437 55.5255 216.086V216.88C55.5614 217.277 55.2381 217.637 54.8071 217.637ZM53.586 209.884C51.8621 209.884 50.4614 211.29 50.4614 213.021C50.4614 214.139 51.0719 215.185 52.0416 215.726C52.1135 215.762 52.1853 215.87 52.1853 215.978V216.88C52.1853 216.988 52.2931 217.096 52.4008 217.096H54.8431C54.9508 217.096 55.0586 216.988 55.0586 216.88V215.942C55.0586 215.834 55.0945 215.762 55.2022 215.726C56.136 215.149 56.7466 214.139 56.7466 213.021C56.7107 211.29 55.31 209.884 53.586 209.884Z" fill="white"/>
<path d="M56.675 209.595C56.6031 209.595 56.5313 209.559 56.4954 209.523C56.4235 209.414 56.4235 209.27 56.5313 209.198L57.501 208.369C57.6088 208.296 57.7524 208.297 57.8243 208.405C57.8961 208.513 57.8961 208.657 57.7883 208.729L56.8186 209.559C56.7827 209.559 56.7109 209.595 56.675 209.595Z" fill="white"/>
<path d="M53.5502 208.549C53.4066 208.549 53.2988 208.441 53.2988 208.297V206.458C53.2988 206.313 53.4066 206.205 53.5502 206.205C53.6939 206.205 53.8017 206.313 53.8017 206.458V208.297C53.8017 208.441 53.6939 208.549 53.5502 208.549Z" fill="white"/>
<path d="M58.3268 212.408C58.2191 212.408 58.1113 212.336 58.0754 212.228C58.0395 212.083 58.1472 211.975 58.255 211.939L59.943 211.614C60.0867 211.578 60.1944 211.687 60.2303 211.795C60.2663 211.939 60.1585 212.047 60.0508 212.083L58.3627 212.408H58.3268Z" fill="white"/>
<path d="M50.4611 209.595C50.3892 209.595 50.3533 209.559 50.3174 209.523L49.3477 208.693C49.2399 208.621 49.24 208.441 49.3118 208.369C49.3836 208.26 49.5632 208.26 49.635 208.332L50.6047 209.162C50.7125 209.234 50.7125 209.414 50.6407 209.486C50.6047 209.559 50.5329 209.595 50.4611 209.595Z" fill="white"/>
<path d="M58.5786 216.013C58.5427 216.013 58.5068 216.013 58.4349 215.977L57.7166 215.545C57.6089 215.472 57.573 215.328 57.6448 215.22C57.7166 215.112 57.8603 215.076 57.968 215.148L58.6863 215.581C58.7941 215.653 58.83 215.797 58.7582 215.905C58.7223 215.977 58.6504 216.013 58.5786 216.013Z" fill="white"/>
<path d="M48.5575 215.906C48.4857 215.906 48.4139 215.87 48.3421 215.798C48.2702 215.69 48.3061 215.545 48.4139 215.473L49.1322 215.04C49.2399 214.968 49.3836 215.004 49.4554 215.113C49.5273 215.221 49.4914 215.365 49.3836 215.437L48.6653 215.87C48.6653 215.87 48.5935 215.906 48.5575 215.906Z" fill="white"/>
<path d="M48.8091 212.408H48.7732L47.0852 212.083C46.9416 212.047 46.8697 211.939 46.9056 211.795C46.9416 211.651 47.0493 211.579 47.193 211.615L48.881 211.939C49.0246 211.975 49.0965 212.083 49.0606 212.228C49.0246 212.336 48.9169 212.408 48.8091 212.408Z" fill="white"/>
<path d="M70.6819 87.7764L68.5269 94.3398H66.9107L65.4741 89.9041L64.0016 94.3398H62.3854L60.2305 87.7764H61.8108L63.2833 92.3924L64.8276 87.7764H66.2283L67.7368 92.4284L69.2453 87.7764H70.6819Z" fill="white"/>
<path d="M74.883 89.7965C75.314 90.1572 75.4936 90.7342 75.4936 91.4915V94.3765H74.1288V93.7634C73.8415 94.2322 73.3386 94.4847 72.5844 94.4847C72.1893 94.4847 71.8661 94.4125 71.5788 94.3044C71.2914 94.1601 71.076 93.9798 70.9323 93.7634C70.7886 93.547 70.7168 93.2585 70.7168 92.97C70.7168 92.5012 70.8964 92.1406 71.2555 91.8521C71.6147 91.5636 72.1534 91.4554 72.8717 91.4554H74.021C74.021 91.1309 73.9133 90.8784 73.7337 90.7342C73.5541 90.5899 73.2668 90.4817 72.8717 90.4817C72.6203 90.4817 72.333 90.5178 72.0816 90.626C71.8302 90.6981 71.6147 90.8424 71.4351 90.9505L70.8964 89.9408C71.1837 89.7605 71.5069 89.5802 71.8661 89.508C72.2612 89.3999 72.6562 89.3638 73.0513 89.3638C73.8415 89.2195 74.452 89.3999 74.883 89.7965ZM73.626 93.2585C73.8055 93.1504 73.9492 92.97 74.021 92.7537V92.2488H73.0154C72.4048 92.2488 72.1175 92.4291 72.1175 92.8258C72.1175 93.0061 72.1893 93.1504 72.333 93.2585C72.4767 93.3667 72.6922 93.4389 72.9436 93.4389C73.2309 93.4389 73.4464 93.3667 73.626 93.2585Z" fill="white"/>
<path d="M80.0556 94.0872C79.912 94.1953 79.7324 94.2675 79.5169 94.3396C79.3014 94.3757 79.0859 94.4117 78.8704 94.4117C78.2599 94.4117 77.7929 94.2675 77.4697 93.9429C77.1465 93.6544 76.9669 93.1856 76.9669 92.6086V90.553H76.1768V89.4351H76.9669V88.209H78.4394V89.4351H79.6965V90.553H78.4394V92.6086C78.4394 92.825 78.5113 92.9692 78.619 93.1135C78.7267 93.2217 78.8704 93.2938 79.0859 93.2938C79.3014 93.2938 79.5169 93.2217 79.6606 93.1135L80.0556 94.0872Z" fill="white"/>
<path d="M81.7076 94.0872C81.2766 93.8708 80.9533 93.5463 80.7019 93.1496C80.4505 92.7529 80.3428 92.3201 80.3428 91.8153C80.3428 91.3104 80.4505 90.8776 80.7019 90.4809C80.9533 90.0843 81.2766 89.7958 81.7076 89.5433C82.1386 89.3269 82.6055 89.2188 83.1442 89.2188C83.6829 89.2188 84.1498 89.3269 84.5449 89.5433C84.94 89.7597 85.2273 90.0843 85.4069 90.4809L84.2935 91.094C84.0421 90.6252 83.647 90.4088 83.1801 90.4088C82.785 90.4088 82.4977 90.517 82.2463 90.7694C81.9949 91.0219 81.8871 91.3464 81.8871 91.7792C81.8871 92.2119 81.9949 92.5365 82.2463 92.7889C82.4977 93.0414 82.821 93.1496 83.1801 93.1496C83.6829 93.1496 84.0421 92.9332 84.2935 92.4644L85.4069 93.0774C85.2273 93.4741 84.94 93.7987 84.5449 94.0151C84.1498 94.2314 83.6829 94.3396 83.1442 94.3396C82.6055 94.4118 82.1386 94.3036 81.7076 94.0872Z" fill="white"/>
<path d="M90.7585 89.796C91.1536 90.1566 91.3332 90.7336 91.3332 91.4549V94.3399H89.8606V91.6712C89.8606 91.2746 89.7888 90.9861 89.6092 90.7697C89.4297 90.5533 89.1782 90.4812 88.855 90.4812C88.4959 90.4812 88.2085 90.5894 87.993 90.8058C87.7775 91.0221 87.6698 91.3828 87.6698 91.8155V94.3038H86.1973V87.3438H87.6698V89.796C87.8494 89.6157 88.1008 89.4714 88.3881 89.3633C88.6754 89.2551 88.9628 89.219 89.286 89.219C89.8606 89.219 90.3635 89.3993 90.7585 89.796Z" fill="white"/>
<path d="M56.9258 105.339C56.7821 105.447 56.6025 105.519 56.387 105.592C56.1715 105.628 55.956 105.664 55.7405 105.664C55.13 105.664 54.6631 105.519 54.3398 105.195C54.0166 104.906 53.837 104.438 53.837 103.861V101.805H53.0469V100.687H53.837V99.4609H55.3096V100.687H56.5666V101.805H55.3096V103.861C55.3096 104.077 55.3814 104.221 55.4891 104.365C55.5969 104.474 55.7405 104.546 55.956 104.546C56.1715 104.546 56.387 104.474 56.5307 104.365L56.9258 105.339Z" fill="white"/>
<path d="M62.3132 101.047C62.7083 101.408 62.8879 101.985 62.8879 102.706V105.591H61.4153V102.922C61.4153 102.526 61.3435 102.237 61.1639 102.021C60.9843 101.804 60.7329 101.732 60.4097 101.732C60.0505 101.732 59.7632 101.84 59.5477 102.057C59.3322 102.273 59.2245 102.634 59.2245 103.066V105.555H57.752V98.5947H59.2245V101.047C59.4041 100.867 59.6555 100.722 59.9428 100.614C60.2301 100.506 60.5174 100.47 60.8407 100.47C61.4153 100.47 61.9181 100.65 62.3132 101.047Z" fill="white"/>
<path d="M69.1374 103.5H65.3663C65.4381 103.825 65.5818 104.077 65.8691 104.257C66.1564 104.438 66.4438 104.546 66.8388 104.546C67.0903 104.546 67.3417 104.51 67.5212 104.438C67.7367 104.366 67.9163 104.221 68.0959 104.077L68.886 104.907C68.4191 105.447 67.7367 105.736 66.8029 105.736C66.2283 105.736 65.7255 105.628 65.2945 105.411C64.8635 105.195 64.5403 104.87 64.2888 104.474C64.0374 104.077 63.9297 103.644 63.9297 103.139C63.9297 102.635 64.0374 102.202 64.2888 101.805C64.5403 101.408 64.8276 101.084 65.2586 100.868C65.6536 100.651 66.1205 100.543 66.6234 100.543C67.1262 100.543 67.5572 100.651 67.9522 100.868C68.3473 101.084 68.6705 101.372 68.886 101.769C69.1015 102.166 69.2093 102.635 69.2093 103.139C69.1734 103.103 69.1734 103.248 69.1374 103.5ZM65.7614 101.877C65.5459 102.058 65.4022 102.31 65.3663 102.635H67.8445C67.8086 102.31 67.6649 102.058 67.4494 101.877C67.2339 101.697 66.9466 101.589 66.6234 101.589C66.2642 101.589 65.9769 101.661 65.7614 101.877Z" fill="white"/>
<path d="M77.7934 100.543L75.6743 105.592H74.1659L72.0469 100.543H73.5553L74.956 103.969L76.3926 100.543H77.7934Z" fill="white"/>
<path d="M78.4389 99.6057C78.2593 99.4614 78.1875 99.245 78.1875 99.0287C78.1875 98.8123 78.2593 98.5959 78.4389 98.4517C78.6185 98.3074 78.834 98.1992 79.0854 98.1992C79.3368 98.1992 79.5882 98.2713 79.7319 98.4156C79.9114 98.5598 79.9833 98.7402 79.9833 98.9926C79.9833 99.245 79.9114 99.4254 79.7319 99.6057C79.5523 99.7499 79.3368 99.8581 79.0854 99.8581C78.834 99.8581 78.6185 99.786 78.4389 99.6057ZM78.3671 100.543H79.8396V105.592H78.3671V100.543Z" fill="white"/>
<path d="M86.3047 98.6309V105.591H84.9039V105.014C84.5448 105.447 84.0061 105.663 83.3237 105.663C82.8568 105.663 82.4258 105.555 82.0307 105.338C81.6356 105.122 81.3483 104.834 81.1328 104.437C80.9173 104.04 80.8096 103.571 80.8096 103.067C80.8096 102.562 80.9173 102.093 81.1328 101.696C81.3483 101.299 81.6356 101.011 82.0307 100.795C82.4258 100.578 82.8568 100.47 83.3237 100.47C83.9701 100.47 84.473 100.686 84.8321 101.083V98.6309H86.3047ZM84.5089 104.076C84.7603 103.824 84.868 103.499 84.868 103.067C84.868 102.634 84.7603 102.309 84.5089 102.057C84.2575 101.804 83.9701 101.66 83.611 101.66C83.2518 101.66 82.9286 101.804 82.6772 102.057C82.4258 102.309 82.318 102.634 82.318 103.067C82.318 103.499 82.4258 103.824 82.6772 104.076C82.9286 104.329 83.2159 104.473 83.611 104.473C83.9701 104.473 84.2575 104.329 84.5089 104.076Z" fill="white"/>
<path d="M92.5542 103.5H88.7472C88.819 103.825 88.9627 104.077 89.25 104.257C89.5373 104.438 89.8246 104.546 90.2197 104.546C90.4711 104.546 90.7225 104.51 90.9021 104.438C91.1176 104.366 91.2972 104.221 91.4767 104.077L92.2669 104.907C91.8 105.447 91.1176 105.736 90.1838 105.736C89.6091 105.736 89.1063 105.628 88.6753 105.411C88.2443 105.195 87.9211 104.87 87.6697 104.474C87.4183 104.077 87.3105 103.644 87.3105 103.139C87.3105 102.635 87.4183 102.202 87.6697 101.805C87.9211 101.408 88.2084 101.084 88.6394 100.868C89.0345 100.651 89.5014 100.543 90.0042 100.543C90.507 100.543 90.938 100.651 91.3331 100.868C91.7281 101.084 92.0514 101.372 92.2669 101.769C92.4824 102.166 92.5901 102.635 92.5901 103.139C92.5901 103.103 92.5542 103.248 92.5542 103.5ZM89.1422 101.877C88.9267 102.058 88.7831 102.31 88.7472 102.635H91.2253C91.1894 102.31 91.0457 102.058 90.8303 101.877C90.6148 101.697 90.3274 101.589 90.0042 101.589C89.645 101.589 89.3577 101.661 89.1422 101.877Z" fill="white"/>
<path d="M94.5291 105.339C94.0981 105.123 93.7748 104.798 93.5594 104.402C93.3079 104.005 93.2002 103.572 93.2002 103.067C93.2002 102.562 93.3079 102.13 93.5594 101.733C93.8108 101.336 94.134 101.048 94.5291 100.795C94.9601 100.579 95.427 100.471 95.9657 100.471C96.5044 100.471 96.9713 100.579 97.4023 100.795C97.8333 101.012 98.1565 101.336 98.372 101.733C98.6234 102.13 98.7312 102.562 98.7312 103.067C98.7312 103.572 98.6234 104.005 98.372 104.402C98.1206 104.798 97.7974 105.087 97.4023 105.339C96.9713 105.556 96.5044 105.664 95.9657 105.664C95.3911 105.664 94.9241 105.556 94.5291 105.339ZM96.8636 104.077C97.115 103.825 97.2227 103.5 97.2227 103.067C97.2227 102.634 97.115 102.31 96.8636 102.057C96.6122 101.805 96.3249 101.661 95.9298 101.661C95.5347 101.661 95.2474 101.805 94.996 102.057C94.7446 102.31 94.6368 102.634 94.6368 103.067C94.6368 103.5 94.7446 103.825 94.996 104.077C95.2474 104.329 95.5347 104.474 95.9298 104.474C96.3249 104.474 96.6122 104.329 96.8636 104.077Z" fill="white"/>
<path d="M51.4668 116.591C51.3231 116.699 51.1435 116.771 50.928 116.844C50.7125 116.88 50.497 116.916 50.2816 116.916C49.671 116.916 49.2041 116.771 48.8809 116.447C48.5576 116.158 48.378 115.69 48.378 115.113V113.057H47.5879V111.939H48.378V110.713H49.8506V111.939H51.1076V113.057H49.8506V115.113C49.8506 115.329 49.9224 115.473 50.0301 115.617C50.1379 115.726 50.2816 115.798 50.497 115.798C50.7125 115.798 50.928 115.726 51.0717 115.617L51.4668 116.591Z" fill="white"/>
<path d="M53.1189 116.591C52.6879 116.375 52.3647 116.05 52.1492 115.653C51.8978 115.257 51.79 114.824 51.79 114.319C51.79 113.814 51.8978 113.382 52.1492 112.985C52.4006 112.588 52.7238 112.3 53.1189 112.047C53.5499 111.831 54.0168 111.723 54.5555 111.723C55.0943 111.723 55.5612 111.831 55.9921 112.047C56.4231 112.264 56.7464 112.588 56.9619 112.985C57.2133 113.382 57.321 113.814 57.321 114.319C57.321 114.824 57.2133 115.257 56.9619 115.653C56.7105 116.05 56.3872 116.339 55.9921 116.591C55.5612 116.807 55.0943 116.916 54.5555 116.916C53.9809 116.916 53.514 116.807 53.1189 116.591ZM55.4534 115.329C55.7048 115.076 55.8126 114.752 55.8126 114.319C55.8126 113.886 55.7048 113.562 55.4534 113.309C55.202 113.057 54.9147 112.913 54.5196 112.913C54.1245 112.913 53.8372 113.057 53.5858 113.309C53.3344 113.562 53.2267 113.886 53.2267 114.319C53.2267 114.752 53.3344 115.076 53.5858 115.329C53.8372 115.581 54.1245 115.726 54.5196 115.726C54.9147 115.726 55.202 115.581 55.4534 115.329Z" fill="white"/>
<path d="M66.0839 111.794V115.977C66.0839 116.915 65.8325 117.6 65.3656 118.033C64.8987 118.465 64.1804 118.718 63.2825 118.718C62.7797 118.718 62.3487 118.646 61.9177 118.538C61.4868 118.429 61.1276 118.249 60.8403 118.033L61.4149 116.987C61.6304 117.167 61.8818 117.311 62.2051 117.42C62.5283 117.528 62.8515 117.564 63.1748 117.564C63.6776 117.564 64.0368 117.456 64.2882 117.239C64.5396 117.023 64.6473 116.662 64.6473 116.194V115.977C64.2523 116.41 63.7494 116.59 63.067 116.59C62.6001 116.59 62.1692 116.482 61.81 116.302C61.4149 116.085 61.1276 115.797 60.9121 115.436C60.6966 115.076 60.5889 114.643 60.5889 114.174C60.5889 113.705 60.6966 113.272 60.9121 112.912C61.1276 112.551 61.4508 112.263 61.81 112.046C62.2051 111.83 62.6001 111.758 63.067 111.758C63.7854 111.758 64.36 112.01 64.7192 112.479V111.794H66.0839ZM64.2882 115.076C64.5396 114.859 64.6473 114.535 64.6473 114.174C64.6473 113.813 64.5396 113.489 64.2882 113.272C64.0368 113.056 63.7135 112.948 63.3544 112.948C62.9593 112.948 62.6361 113.056 62.3846 113.272C62.1332 113.489 62.0255 113.813 62.0255 114.174C62.0255 114.535 62.1332 114.823 62.3846 115.076C62.6361 115.292 62.9593 115.4 63.3544 115.4C63.7135 115.4 64.0368 115.292 64.2882 115.076Z" fill="white"/>
<path d="M72.3335 114.751H68.5265C68.5983 115.076 68.742 115.328 69.0293 115.508C69.3166 115.689 69.6039 115.797 69.999 115.797C70.2504 115.797 70.5018 115.761 70.6814 115.689C70.8969 115.617 71.0765 115.472 71.256 115.328L72.0462 116.158C71.5793 116.698 70.8969 116.987 69.9631 116.987C69.3884 116.987 68.8856 116.879 68.4546 116.662C68.0236 116.446 67.7004 116.121 67.449 115.725C67.1976 115.328 67.0898 114.895 67.0898 114.39C67.0898 113.886 67.1976 113.453 67.449 113.056C67.7004 112.659 67.9877 112.335 68.4187 112.119C68.8138 111.902 69.2807 111.794 69.7835 111.794C70.2863 111.794 70.7173 111.902 71.1124 112.119C71.5074 112.335 71.8307 112.623 72.0462 113.02C72.2617 113.417 72.3694 113.886 72.3694 114.39C72.3694 114.354 72.3335 114.499 72.3335 114.751ZM68.9215 113.128C68.706 113.309 68.5624 113.561 68.5265 113.886H71.0046C70.9687 113.561 70.8251 113.309 70.6096 113.128C70.3941 112.948 70.1067 112.84 69.7835 112.84C69.4243 112.84 69.137 112.912 68.9215 113.128Z" fill="white"/>
<path d="M76.5713 116.591C76.4276 116.699 76.248 116.771 76.0325 116.844C75.817 116.88 75.6015 116.916 75.386 116.916C74.7755 116.916 74.3086 116.771 73.9853 116.447C73.6621 116.158 73.4825 115.69 73.4825 115.113V113.057H72.6924V111.939H73.4825V110.713H74.9551V111.939H76.2121V113.057H74.9551V115.113C74.9551 115.329 75.0269 115.473 75.1346 115.617C75.2424 115.726 75.386 115.798 75.6015 115.798C75.817 115.798 76.0325 115.726 76.1762 115.617L76.5713 116.591Z" fill="white"/>
<path d="M84.9038 114.751H81.0968C81.1686 115.076 81.3123 115.328 81.5996 115.508C81.8869 115.689 82.1742 115.797 82.5693 115.797C82.8207 115.797 83.0721 115.761 83.2517 115.689C83.4672 115.617 83.6468 115.472 83.8264 115.328L84.6165 116.158C84.1496 116.698 83.4672 116.987 82.5334 116.987C81.9587 116.987 81.4559 116.879 81.0249 116.662C80.594 116.446 80.2707 116.121 80.0193 115.725C79.7679 115.328 79.6602 114.895 79.6602 114.39C79.6602 113.886 79.7679 113.453 80.0193 113.056C80.2707 112.659 80.558 112.335 80.989 112.119C81.3841 111.902 81.851 111.794 82.3538 111.794C82.8566 111.794 83.2876 111.902 83.6827 112.119C84.0778 112.335 84.401 112.623 84.6165 113.02C84.832 113.417 84.9397 113.886 84.9397 114.39C84.9397 114.354 84.9397 114.499 84.9038 114.751ZM81.5278 113.128C81.3123 113.309 81.1686 113.561 81.1327 113.886H83.6109C83.5749 113.561 83.4313 113.309 83.2158 113.128C83.0003 112.948 82.713 112.84 82.3897 112.84C82.0306 112.84 81.7433 112.912 81.5278 113.128Z" fill="white"/>
<path d="M88.9621 116.843L87.8487 115.292L86.6994 116.843H85.1191L87.0586 114.318L85.191 111.83H86.8072L87.8846 113.309L88.9621 111.83H90.5065L88.6389 114.282L90.5783 116.879H88.9621V116.843Z" fill="white"/>
<path d="M94.5654 116.591C94.4217 116.699 94.2421 116.771 94.0267 116.844C93.8112 116.88 93.5957 116.916 93.3802 116.916C92.7696 116.916 92.3027 116.771 91.9795 116.447C91.6562 116.158 91.4767 115.69 91.4767 115.113V113.057H90.6865V111.939H91.4767V110.713H92.9492V111.939H94.2062V113.057H92.9492V115.113C92.9492 115.329 93.021 115.473 93.1288 115.617C93.2365 115.726 93.3802 115.798 93.5957 115.798C93.8112 115.798 94.0267 115.726 94.1703 115.617L94.5654 116.591Z" fill="white"/>
<path d="M97.5106 111.903C97.7979 111.795 98.1571 111.723 98.5162 111.723V113.057C98.3367 113.057 98.2289 113.021 98.193 113.021C97.762 113.021 97.4388 113.129 97.2233 113.382C96.9719 113.634 96.8641 113.959 96.8641 114.427V116.807H95.3916V111.759H96.7923V112.408C96.9719 112.228 97.1874 112.047 97.5106 111.903Z" fill="white"/>
<path d="M103.185 112.298C103.616 112.659 103.795 113.236 103.795 113.993V116.878H102.431V116.265C102.143 116.734 101.64 116.987 100.886 116.987C100.491 116.987 100.168 116.914 99.8805 116.806C99.5932 116.662 99.3777 116.482 99.234 116.265C99.0904 116.049 99.0186 115.76 99.0186 115.472C99.0186 115.003 99.1981 114.643 99.5573 114.354C99.9164 114.066 100.455 113.957 101.173 113.957H102.323C102.323 113.633 102.215 113.38 102.035 113.236C101.856 113.092 101.569 112.984 101.173 112.984C100.922 112.984 100.635 113.02 100.383 113.128C100.132 113.2 99.9164 113.344 99.7369 113.452L99.1981 112.443C99.4855 112.262 99.8087 112.082 100.168 112.01C100.563 111.902 100.958 111.866 101.353 111.866C102.179 111.721 102.754 111.902 103.185 112.298ZM101.928 115.76C102.107 115.652 102.251 115.472 102.323 115.256V114.751H101.317C100.707 114.751 100.419 114.931 100.419 115.328C100.419 115.508 100.491 115.652 100.635 115.76C100.778 115.869 100.994 115.941 101.245 115.941C101.533 115.941 101.748 115.869 101.928 115.76Z" fill="white"/>
<path d="M65.5095 123.298C65.9046 123.515 66.1919 123.803 66.4074 124.2C66.6229 124.596 66.7306 125.029 66.7306 125.57C66.7306 126.075 66.6229 126.544 66.4074 126.941C66.1919 127.337 65.9046 127.626 65.5095 127.842C65.1144 128.058 64.7194 128.167 64.2525 128.167C63.606 128.167 63.1032 127.95 62.744 127.554V129.898H61.2715V123.046H62.6722V123.623C63.0313 123.19 63.5701 122.974 64.2525 122.974C64.6835 122.974 65.1144 123.082 65.5095 123.298ZM64.8989 126.58C65.1504 126.327 65.2581 126.003 65.2581 125.57C65.2581 125.137 65.1504 124.813 64.8989 124.56C64.6475 124.308 64.3602 124.164 63.9651 124.164C63.606 124.164 63.2828 124.308 63.0313 124.56C62.7799 124.813 62.6722 125.137 62.6722 125.57C62.6722 126.003 62.7799 126.327 63.0313 126.58C63.2828 126.832 63.5701 126.977 63.9651 126.977C64.3602 126.977 64.6475 126.832 64.8989 126.58Z" fill="white"/>
<path d="M68.6707 127.842C68.2397 127.626 67.9164 127.301 67.701 126.904C67.4495 126.508 67.3418 126.075 67.3418 125.57C67.3418 125.065 67.4495 124.633 67.701 124.236C67.9524 123.839 68.2756 123.551 68.6707 123.298C69.1016 123.082 69.5685 122.974 70.1073 122.974C70.646 122.974 71.1129 123.082 71.5439 123.298C71.9749 123.515 72.2981 123.839 72.5136 124.236C72.765 124.633 72.8728 125.065 72.8728 125.57C72.8728 126.075 72.765 126.508 72.5136 126.904C72.2622 127.301 71.939 127.59 71.5439 127.842C71.1129 128.058 70.646 128.167 70.1073 128.167C69.5685 128.167 69.1016 128.058 68.6707 127.842ZM71.0052 126.58C71.2566 126.327 71.3643 126.003 71.3643 125.57C71.3643 125.137 71.2566 124.813 71.0052 124.56C70.7538 124.308 70.4664 124.164 70.0714 124.164C69.6763 124.164 69.389 124.308 69.1376 124.56C68.8862 124.813 68.7784 125.137 68.7784 125.57C68.7784 126.003 68.8862 126.327 69.1376 126.58C69.389 126.832 69.6763 126.977 70.0714 126.977C70.4664 126.977 70.7538 126.832 71.0052 126.58Z" fill="white"/>
<path d="M73.8784 122.108C73.6988 121.963 73.627 121.747 73.627 121.531C73.627 121.314 73.6988 121.098 73.8784 120.954C74.0579 120.809 74.2734 120.701 74.5248 120.701C74.7763 120.701 75.0277 120.773 75.1713 120.918C75.3509 121.062 75.4227 121.242 75.4227 121.495C75.4227 121.747 75.3509 121.927 75.1713 122.108C74.9917 122.252 74.7763 122.36 74.5248 122.36C74.2734 122.36 74.0579 122.288 73.8784 122.108ZM73.8065 123.045H75.2791V128.094H73.8065V123.045Z" fill="white"/>
<path d="M81.1687 123.55C81.5638 123.911 81.7433 124.488 81.7433 125.209V128.094H80.2708V125.426C80.2708 125.029 80.199 124.741 80.0194 124.524C79.8398 124.308 79.5884 124.236 79.2652 124.236C78.906 124.236 78.6187 124.344 78.4032 124.56C78.1877 124.777 78.08 125.137 78.08 125.57V128.058H76.6074V123.01H78.0081V123.587C78.1877 123.37 78.4391 123.226 78.7264 123.082C79.0138 122.973 79.337 122.901 79.6602 122.901C80.3067 122.973 80.8095 123.154 81.1687 123.55Z" fill="white"/>
<path d="M86.3047 127.842C86.161 127.95 85.9814 128.022 85.7659 128.095C85.5504 128.131 85.3349 128.167 85.1194 128.167C84.5089 128.167 84.042 128.022 83.7187 127.698C83.3955 127.409 83.2159 126.94 83.2159 126.363V124.308H82.4258V123.19H83.2159V121.964H84.6885V123.19H85.9455V124.308H84.6885V126.363C84.6885 126.58 84.7603 126.724 84.868 126.868C84.9758 126.977 85.1194 127.049 85.3349 127.049C85.5504 127.049 85.7659 126.977 85.9096 126.868L86.3047 127.842Z" fill="white"/>
<path d="M87.5976 128.022C87.2026 127.914 86.8793 127.806 86.6279 127.626L87.1308 126.58C87.3462 126.724 87.6336 126.832 87.9568 126.94C88.28 127.049 88.6033 127.085 88.8906 127.085C89.5012 127.085 89.8244 126.941 89.8244 126.616C89.8244 126.472 89.7526 126.364 89.573 126.291C89.3934 126.219 89.142 126.183 88.7829 126.147C88.3878 126.075 88.0286 126.003 87.7772 125.931C87.5258 125.859 87.2744 125.714 87.0948 125.498C86.9153 125.282 86.8075 124.993 86.8075 124.633C86.8075 124.308 86.9153 124.019 87.0948 123.767C87.2744 123.515 87.5617 123.334 87.885 123.19C88.2441 123.046 88.6392 122.974 89.142 122.974C89.5012 122.974 89.8603 123.01 90.2195 123.082C90.5786 123.154 90.866 123.262 91.0815 123.406L90.5786 124.452C90.1477 124.2 89.6448 124.092 89.142 124.092C88.8188 124.092 88.6033 124.128 88.4237 124.236C88.28 124.308 88.2082 124.452 88.2082 124.56C88.2082 124.705 88.28 124.813 88.4596 124.885C88.6392 124.957 88.8906 124.993 89.2498 125.065C89.6448 125.137 90.004 125.21 90.2554 125.282C90.5068 125.354 90.7582 125.498 90.9378 125.714C91.1174 125.931 91.2251 126.219 91.2251 126.58C91.2251 126.904 91.1174 127.157 90.9378 127.409C90.7582 127.662 90.4709 127.842 90.1117 127.986C89.7526 128.131 89.3216 128.203 88.8547 128.203C88.4237 128.167 87.9927 128.131 87.5976 128.022Z" fill="white"/>
<path d="M84.797 156.007L74.3815 148.794C74.2738 148.722 74.1301 148.722 74.0224 148.758C73.9146 148.83 73.8428 148.938 73.8428 149.083V163.508C73.8428 163.652 73.9146 163.76 74.0224 163.832C74.0583 163.868 74.1301 163.868 74.2019 163.868C74.2738 163.868 74.3456 163.832 74.4174 163.796L84.8329 156.584C84.9406 156.512 84.9766 156.403 84.9766 156.295C84.9406 156.187 84.8688 156.079 84.797 156.007Z" fill="white"/>
<defs>
<linearGradient id="paint0_linear" x1="-36.5441" y1="151.404" x2="121.801" y2="254.258" gradientUnits="userSpaceOnUse">
<stop stop-color="#FBB63F"/>
<stop offset="0.981306" stop-color="#B069A1"/>
</linearGradient>
</defs>
</svg>
