<svg width="139" height="277" viewBox="0 0 139 277" fill="none" xmlns="http://www.w3.org/2000/svg">
<path d="M121.706 276.349H17.2932C8.09178 276.349 0.652344 268.93 0.652344 259.754V17.245C0.652344 8.06916 8.09178 0.650391 17.2932 0.650391H121.706C130.908 0.650391 138.347 8.06916 138.347 17.245V259.722C138.347 268.898 130.908 276.349 121.706 276.349Z" fill="white"/>
<path d="M121.707 277H17.2934C7.76573 277 0 269.256 0 259.755V17.2454C0 7.74416 7.76573 0 17.2934 0H121.707C131.234 0 139 7.74416 139 17.2454V259.722C139 269.256 131.234 277 121.707 277ZM17.2934 1.30154C8.48357 1.30154 1.30516 8.46 1.30516 17.2454V259.722C1.30516 268.507 8.48357 275.666 17.2934 275.666H121.707C130.516 275.666 137.695 268.507 137.695 259.722V17.2454C137.695 8.46 130.516 1.30154 121.707 1.30154H17.2934Z" fill="#575756"/>
<path d="M133.844 245.893H5.15527V29.6426H133.812V245.893H133.844ZM6.13415 244.917H132.833V30.6187H6.13415V244.917Z" fill="#575756"/>
<path d="M87.7729 20.7595H50.2168C49.0747 20.7595 48.1611 19.8484 48.1611 18.7096V18.254C48.1611 17.1152 49.0747 16.2041 50.2168 16.2041H87.7729C88.9149 16.2041 89.8285 17.1152 89.8285 18.254V18.7096C89.7959 19.8484 88.8823 20.7595 87.7729 20.7595ZM50.2168 17.2128C49.6294 17.2128 49.14 17.7009 49.14 18.2866V18.7421C49.14 19.3278 49.6294 19.8159 50.2168 19.8159H87.7729C88.3602 19.8159 88.8496 19.3278 88.8496 18.7421V18.2866C88.8496 17.7009 88.3602 17.2128 87.7729 17.2128H50.2168Z" fill="#575756"/>
<g opacity="0.99">
<path opacity="0.99" d="M68.9777 272.379C62.4519 272.379 57.166 267.108 57.166 260.6C57.166 254.093 62.4519 248.821 68.9777 248.821C75.5036 248.821 80.7895 254.093 80.7895 260.6C80.7895 267.108 75.5036 272.379 68.9777 272.379ZM68.9777 249.765C63.0066 249.765 58.1449 254.613 58.1449 260.568C58.1449 266.522 63.0066 271.37 68.9777 271.37C74.9489 271.37 79.8106 266.522 79.8106 260.568C79.8106 254.613 74.9815 249.765 68.9777 249.765Z" fill="#575756"/>
</g>
<path d="M69.5003 13.6662C67.9341 13.6662 66.6289 12.3972 66.6289 10.8028C66.6289 9.20845 67.9014 7.93945 69.5003 7.93945C71.0991 7.93945 72.3716 9.20845 72.3716 10.8028C72.3716 12.3972 71.0665 13.6662 69.5003 13.6662ZM69.5003 8.94815C68.4561 8.94815 67.6078 9.79415 67.6078 10.8354C67.6078 11.8766 68.4561 12.7226 69.5003 12.7226C70.5444 12.7226 71.3927 11.8766 71.3927 10.8354C71.3927 9.79415 70.5444 8.94815 69.5003 8.94815Z" fill="#575756"/>
<path d="M106.175 36.2158H55.4692C54.5229 36.2158 53.7725 36.9967 53.7725 37.9078C53.7725 38.8514 54.5556 39.5998 55.4692 39.5998H106.175C107.121 39.5998 107.872 38.8189 107.872 37.9078C107.904 36.9967 107.121 36.2158 106.175 36.2158Z" fill="#C6C6C6"/>
<path d="M125.459 36.2158H125.361C124.415 36.2158 123.664 36.9967 123.664 37.9078C123.664 38.8514 124.447 39.5998 125.361 39.5998H125.459C126.405 39.5998 127.155 38.8189 127.155 37.9078C127.155 36.9967 126.405 36.2158 125.459 36.2158Z" fill="#C6C6C6"/>
<path d="M106.175 48.2549H55.4692C54.5229 48.2549 53.7725 49.0358 53.7725 49.9469C53.7725 50.8905 54.5556 51.6389 55.4692 51.6389H106.175C107.121 51.6389 107.872 50.858 107.872 49.9469C107.904 49.0358 107.121 48.2549 106.175 48.2549Z" fill="#C6C6C6"/>
<path d="M81.3441 60.2939H55.4692C54.5229 60.2939 53.7725 61.0749 53.7725 61.9859C53.7725 62.9296 54.5556 63.6779 55.4692 63.6779H81.3441C82.2903 63.6779 83.0408 62.897 83.0408 61.9859C83.0408 61.0749 82.2903 60.2939 81.3441 60.2939Z" fill="#C6C6C6"/>
<path d="M63.3657 125.599H14.1284C13.1821 125.599 12.4316 126.38 12.4316 127.291C12.4316 128.234 13.2147 128.983 14.1284 128.983H63.333C64.2793 128.983 65.0298 128.202 65.0298 127.291C65.0624 126.347 64.3119 125.599 63.3657 125.599Z" fill="#C6C6C6"/>
<path d="M52.5002 137.638H14.1284C13.1821 137.638 12.4316 138.419 12.4316 139.33C12.4316 140.273 13.2147 141.022 14.1284 141.022H52.5002C53.4464 141.022 54.1969 140.241 54.1969 139.33C54.1969 138.386 53.4464 137.638 52.5002 137.638Z" fill="#C6C6C6"/>
<path d="M27.6367 63.5798C35.3315 63.5798 41.5694 57.3593 41.5694 49.6859C41.5694 42.0125 35.3315 35.792 27.6367 35.792C19.942 35.792 13.7041 42.0125 13.7041 49.6859C13.7041 57.3593 19.942 63.5798 27.6367 63.5798Z" fill="#C6C6C6"/>
<path d="M15.5971 75.9775H63.4967C64.4429 75.9775 65.1934 76.7585 65.1934 77.6695V115.089C65.1934 116.032 64.4103 116.781 63.4967 116.781H15.5971C14.6509 116.781 13.9004 116 13.9004 115.089V77.6695C13.8678 76.7259 14.6509 75.9775 15.5971 75.9775Z" fill="#C6C6C6"/>
<path d="M121.674 125.599H72.4692C71.5229 125.599 70.7725 126.38 70.7725 127.291C70.7725 128.234 71.5556 128.983 72.4692 128.983H121.674C122.62 128.983 123.371 128.202 123.371 127.291C123.403 126.347 122.62 125.599 121.674 125.599Z" fill="#C6C6C6"/>
<path d="M110.808 137.638H72.4692C71.5229 137.638 70.7725 138.419 70.7725 139.33C70.7725 140.273 71.5556 141.022 72.4692 141.022H110.841C111.787 141.022 112.538 140.241 112.538 139.33C112.538 138.386 111.755 137.638 110.808 137.638Z" fill="#C6C6C6"/>
<path d="M73.9047 75.9775H121.804C122.75 75.9775 123.501 76.7585 123.501 77.6695V115.089C123.501 116.032 122.718 116.781 121.804 116.781H73.9047C72.9585 116.781 72.208 116 72.208 115.089V77.6695C72.208 76.7259 72.9585 75.9775 73.9047 75.9775Z" fill="#C6C6C6"/>
<path d="M63.3657 208.571H14.1284C13.1821 208.571 12.4316 209.352 12.4316 210.263C12.4316 211.207 13.2147 211.955 14.1284 211.955H63.333C64.2793 211.955 65.0298 211.174 65.0298 210.263C65.0624 209.32 64.3119 208.571 63.3657 208.571Z" fill="#C6C6C6"/>
<path d="M12.4316 210.719L13.1495 211.988H12.4316V210.719Z" fill="#FBB640"/>
<path d="M12.4316 209.808L13.6715 211.988H13.1495L12.4316 210.719V209.808Z" fill="#FBB640"/>
<path d="M12.4316 208.896L14.1936 211.988H13.6715L12.4316 209.808V208.896Z" fill="#FAB541"/>
<path d="M12.7579 208.571L14.7483 211.988H14.1936L12.4316 208.897V208.571H12.7579Z" fill="#FAB542"/>
<path d="M13.2799 208.571L15.2703 211.988H14.7482L12.7578 208.571H13.2799Z" fill="#F9B443"/>
<path d="M13.835 208.571L15.7927 211.988H15.2706L13.2803 208.571H13.835Z" fill="#F8B344"/>
<path d="M14.357 208.571L16.3474 211.988H15.7927L13.835 208.571H14.357Z" fill="#F7B245"/>
<path d="M14.8785 208.571L16.8689 211.988H16.3468L14.3564 208.571H14.8785Z" fill="#F7B246"/>
<path d="M15.4336 208.571L17.3913 211.988H16.8693L14.8789 208.571H15.4336Z" fill="#F6B147"/>
<path d="M15.9557 208.571L17.946 211.988H17.3913L15.4336 208.571H15.9557Z" fill="#F5B048"/>
<path d="M16.4781 208.571L18.4685 211.988H17.9464L15.9561 208.571H16.4781Z" fill="#F4AF49"/>
<path d="M16.9996 208.571L18.99 211.988H18.4679L16.4775 208.571H16.9996Z" fill="#F4AF4A"/>
<path d="M17.5547 208.571L19.5124 211.988H18.9904L17 208.571H17.5547Z" fill="#F3AE4B"/>
<path d="M18.0768 208.571L20.0671 211.988H19.5124L17.5547 208.571H18.0768Z" fill="#F2AD4C"/>
<path d="M18.5982 208.571L20.5886 211.988H20.0665L18.0762 208.571H18.5982Z" fill="#F1AC4D"/>
<path d="M19.1533 208.571L21.1111 211.988H20.589L18.5986 208.571H19.1533Z" fill="#F1AC4E"/>
<path d="M19.6754 208.571L21.6658 211.988H21.1111L19.1533 208.571H19.6754Z" fill="#F0AB4F"/>
<path d="M20.1969 208.571L22.1873 211.988H21.6652L19.6748 208.571H20.1969Z" fill="#EFAA50"/>
<path d="M20.752 208.571L22.7097 211.988H22.1876L20.1973 208.571H20.752Z" fill="#EEA951"/>
<path d="M21.274 208.571L23.2318 211.988H22.7097L20.752 208.571H21.274Z" fill="#EEA952"/>
<path d="M21.7965 208.571L23.7869 211.988H23.2322L21.2744 208.571H21.7965Z" fill="#EDA853"/>
<path d="M22.318 208.571L24.3083 211.988H23.7863L21.7959 208.571H22.318Z" fill="#ECA754"/>
<path d="M22.8731 208.571L24.8308 211.988H24.3087L22.3184 208.571H22.8731Z" fill="#ECA755"/>
<path d="M23.3951 208.571L25.3855 211.988H24.8308L22.873 208.571H23.3951Z" fill="#EBA656"/>
<path d="M23.9176 208.571L25.908 211.988H25.3859L23.3955 208.571H23.9176Z" fill="#EAA557"/>
<path d="M24.4717 208.571L26.4294 211.988H25.9074L23.917 208.571H24.4717Z" fill="#E9A459"/>
<path d="M24.9937 208.571L26.9841 211.988H26.4294L24.4717 208.571H24.9937Z" fill="#E9A45A"/>
<path d="M25.5162 208.571L27.5066 211.988H26.9845L24.9941 208.571H25.5162Z" fill="#E8A35B"/>
<path d="M26.0713 208.571L28.029 211.988H27.507L25.5166 208.571H26.0713Z" fill="#E7A25C"/>
<path d="M26.5924 208.571L28.5501 211.988H28.0281L26.0703 208.571H26.5924Z" fill="#E6A15D"/>
<path d="M27.1148 208.571L29.1052 211.988H28.5505L26.5928 208.571H27.1148Z" fill="#E6A15E"/>
<path d="M27.6363 208.571L29.6267 211.988H29.1046L27.1143 208.571H27.6363Z" fill="#E5A05F"/>
<path d="M28.1914 208.571L30.1492 211.988H29.6271L27.6367 208.571H28.1914Z" fill="#E49F60"/>
<path d="M28.7135 208.571L30.7038 211.988H30.1492L28.1914 208.571H28.7135Z" fill="#E39E61"/>
<path d="M29.235 208.571L31.2253 211.988H30.7033L28.7129 208.571H29.235Z" fill="#E39E62"/>
<path d="M29.79 208.571L31.7478 211.988H31.2257L29.2354 208.571H29.79Z" fill="#E29D63"/>
<path d="M30.3121 208.571L32.3025 211.988H31.7478L29.79 208.571H30.3121Z" fill="#E19C64"/>
<path d="M30.8346 208.571L32.8249 211.988H32.3029L30.3125 208.571H30.8346Z" fill="#E19C65"/>
<path d="M31.3887 208.571L33.3464 211.988H32.8244L30.834 208.571H31.3887Z" fill="#E09B66"/>
<path d="M31.9117 208.571L33.8695 211.988H33.3474L31.3896 208.571H31.9117Z" fill="#DF9A67"/>
<path d="M32.4332 208.571L34.4236 211.988H33.8689L31.9111 208.571H32.4332Z" fill="#DE9968"/>
<path d="M32.9557 208.571L34.946 211.988H34.424L32.4336 208.571H32.9557Z" fill="#DE9969"/>
<path d="M33.5098 208.571L35.4675 211.988H34.9454L32.9551 208.571H33.5098Z" fill="#DD986A"/>
<path d="M34.0318 208.571L36.0222 211.988H35.4675L33.5098 208.571H34.0318Z" fill="#DC976B"/>
<path d="M34.5543 208.571L36.5447 211.988H36.0226L34.0322 208.571H34.5543Z" fill="#DB966C"/>
<path d="M35.1094 208.571L37.0671 211.988H36.5451L34.5547 208.571H35.1094Z" fill="#DB966D"/>
<path d="M35.6314 208.571L37.5892 211.988H37.0671L35.1094 208.571H35.6314Z" fill="#DA956E"/>
<path d="M36.1529 208.571L38.1433 211.988H37.5886L35.6309 208.571H36.1529Z" fill="#D9946F"/>
<path d="M36.6754 208.571L38.6658 211.988H38.1437L36.1533 208.571H36.6754Z" fill="#D99470"/>
<path d="M37.2295 208.571L39.1872 211.988H38.6652L36.6748 208.571H37.2295Z" fill="#D89371"/>
<path d="M37.7516 208.571L39.7419 211.988H39.1872L37.2295 208.571H37.7516Z" fill="#D79272"/>
<path d="M38.274 208.571L40.2644 211.988H39.7423L37.752 208.571H38.274Z" fill="#D69173"/>
<path d="M38.8281 208.571L40.7859 211.988H40.2638L38.2734 208.571H38.8281Z" fill="#D69174"/>
<path d="M39.3502 208.571L41.3406 211.988H40.7859L38.8281 208.571H39.3502Z" fill="#D59075"/>
<path d="M39.8727 208.571L41.863 211.988H41.341L39.3506 208.571H39.8727Z" fill="#D48F76"/>
<path d="M40.4277 208.571L42.3855 211.988H41.8634L39.873 208.571H40.4277Z" fill="#D38E77"/>
<path d="M40.9498 208.571L42.9075 211.988H42.3855L40.4277 208.571H40.9498Z" fill="#D38E78"/>
<path d="M41.4713 208.571L43.4617 211.988H42.907L40.9492 208.571H41.4713Z" fill="#D28D79"/>
<path d="M41.9937 208.571L43.9841 211.988H43.4621L41.4717 208.571H41.9937Z" fill="#D18C7A"/>
<path d="M42.5488 208.571L44.5066 211.988H43.9845L41.9941 208.571H42.5488Z" fill="#D08B7B"/>
<path d="M43.0709 208.571L45.0613 211.988H44.5066L42.5488 208.571H43.0709Z" fill="#D08B7C"/>
<path d="M43.5924 208.571L45.5827 211.988H45.0607L43.0703 208.571H43.5924Z" fill="#CF8A7D"/>
<path d="M44.1475 208.571L46.1052 211.988H45.5831L43.5928 208.571H44.1475Z" fill="#CE897E"/>
<path d="M44.6695 208.571L46.6599 211.988H46.1052L44.1475 208.571H44.6695Z" fill="#CE897F"/>
<path d="M45.191 208.571L47.1814 211.988H46.6593L44.6689 208.571H45.191Z" fill="#CD8880"/>
<path d="M45.7461 208.571L47.7038 211.988H47.1818L45.1914 208.571H45.7461Z" fill="#CC8781"/>
<path d="M46.2682 208.571L48.2259 211.988H47.7038L45.7461 208.571H46.2682Z" fill="#CB8682"/>
<path d="M46.7896 208.571L48.78 211.988H48.2253L46.2676 208.571H46.7896Z" fill="#CB8683"/>
<path d="M47.3121 208.571L49.3025 211.988H48.7804L46.79 208.571H47.3121Z" fill="#CA8584"/>
<path d="M47.8662 208.571L49.824 211.988H49.3019L47.3115 208.571H47.8662Z" fill="#C98485"/>
<path d="M48.3893 208.571L50.3796 211.988H49.8249L47.8672 208.571H48.3893Z" fill="#C88386"/>
<path d="M48.9107 208.571L50.9011 211.988H50.379L48.3887 208.571H48.9107Z" fill="#C88387"/>
<path d="M49.4658 208.571L51.4236 211.988H50.9015L48.9111 208.571H49.4658Z" fill="#C78288"/>
<path d="M49.9879 208.571L51.9456 211.988H51.4236L49.4658 208.571H49.9879Z" fill="#C68189"/>
<path d="M50.5104 208.571L52.5007 211.988H51.946L49.9883 208.571H50.5104Z" fill="#C6818A"/>
<path d="M51.0318 208.571L53.0222 211.988H52.5001L50.5098 208.571H51.0318Z" fill="#C5808B"/>
<path d="M51.5869 208.571L53.5447 211.988H53.0226L51.0322 208.571H51.5869Z" fill="#C47F8C"/>
<path d="M52.109 208.571L54.0994 211.988H53.5447L51.5869 208.571H52.109Z" fill="#C37E8D"/>
<path d="M52.6305 208.571L54.6208 211.988H54.0988L52.1084 208.571H52.6305Z" fill="#C37E8E"/>
<path d="M53.1856 208.571L55.1433 211.988H54.6212L52.6309 208.571H53.1856Z" fill="#C27D8F"/>
<path d="M53.7076 208.571L55.698 211.988H55.1433L53.1855 208.571H53.7076Z" fill="#C17C90"/>
<path d="M54.2291 208.571L56.2195 211.988H55.6974L53.707 208.571H54.2291Z" fill="#C17C91"/>
<path d="M54.7842 208.571L56.7419 211.988H56.2199L54.2295 208.571H54.7842Z" fill="#C07B92"/>
<path d="M55.3062 208.571L57.264 211.988H56.7419L54.7842 208.571H55.3062Z" fill="#BF7A93"/>
<path d="M55.8277 208.571L57.8181 211.988H57.2634L55.3057 208.571H55.8277Z" fill="#BE7994"/>
<path d="M56.3502 208.571L58.3406 211.988H57.8185L55.8281 208.571H56.3502Z" fill="#BE7995"/>
<path d="M56.9053 208.571L58.863 211.988H58.341L56.3506 208.571H56.9053Z" fill="#BD7896"/>
<path d="M57.4273 208.571L59.4177 211.988H58.863L56.9053 208.571H57.4273Z" fill="#BC7797"/>
<path d="M57.9488 208.571L59.9392 211.988H59.4171L57.4268 208.571H57.9488Z" fill="#BB7698"/>
<path d="M58.5039 208.571L60.4617 211.988H59.9396L57.9492 208.571H58.5039Z" fill="#BB7699"/>
<path d="M59.026 208.571L61.0163 211.988H60.4617L58.5039 208.571H59.026Z" fill="#BA759A"/>
<path d="M59.5484 208.571L61.5388 211.988H61.0167L59.0264 208.571H59.5484Z" fill="#B9749B"/>
<path d="M60.1025 208.571L62.0603 211.988H61.5382L59.5479 208.571H60.1025Z" fill="#B9749C"/>
<path d="M60.6256 208.571L62.5833 211.988H62.0613L60.1035 208.571H60.6256Z" fill="#B8739D"/>
<path d="M61.1471 208.571L63.1374 211.988H62.5827L60.625 208.571H61.1471Z" fill="#B7729E"/>
<path d="M61.6686 208.571L63.6589 211.988H63.1369L61.1465 208.571H61.6686Z" fill="#B6719F"/>
<path d="M62.2236 208.571L64.1814 211.988H63.6593L61.6689 208.571H62.2236Z" fill="#B671A0"/>
<path d="M62.7457 208.571L64.7361 211.988H64.1814L62.2236 208.571H62.7457Z" fill="#B570A1"/>
<path d="M63.2682 208.571L65.0628 211.63V211.988H64.7365L62.7461 208.571H63.2682Z" fill="#B46FA2"/>
<path d="M63.8223 208.571L65.0622 210.719V211.63L63.2676 208.571H63.8223Z" fill="#B46FA3"/>
<path d="M64.3443 208.571L65.0622 209.808V210.719L63.8223 208.571H64.3443Z" fill="#B36EA4"/>
<path d="M65.0626 209.808L64.3447 208.571H65.0626V209.808Z" fill="#B36EA4"/>
<path d="M52.5002 220.611H14.1284C13.1821 220.611 12.4316 221.392 12.4316 222.303C12.4316 223.247 13.2147 223.995 14.1284 223.995H52.5002C53.4464 223.995 54.1969 223.214 54.1969 222.303C54.1969 221.36 53.4464 220.611 52.5002 220.611Z" fill="#C6C6C6"/>
<path d="M12.4316 222.759L13.1495 224.028H12.4316V222.759Z" fill="#FBB640"/>
<path d="M12.4316 222.043L13.5737 224.028H13.1495L12.4316 222.759V222.043Z" fill="#FBB640"/>
<path d="M12.4316 221.295L13.9978 224.028H13.5737L12.4316 222.043V221.295Z" fill="#FAB541"/>
<path d="M12.4316 220.611L14.422 224.028H13.9978L12.4316 221.295V220.611Z" fill="#FAB542"/>
<path d="M12.8558 220.611L14.8462 224.028H14.422L12.4316 220.611H12.8558Z" fill="#F9B443"/>
<path d="M13.2806 220.611L15.271 224.028H14.8468L12.8564 220.611H13.2806Z" fill="#F8B344"/>
<path d="M13.7045 220.611L15.6948 224.028H15.2706L13.2803 220.611H13.7045Z" fill="#F7B245"/>
<path d="M14.1283 220.611L16.1187 224.028H15.6945L13.7041 220.611H14.1283Z" fill="#F7B246"/>
<path d="M14.5521 220.611L16.5425 224.028H16.1183L14.1279 220.611H14.5521Z" fill="#F6B147"/>
<path d="M14.9769 220.611L16.9673 224.028H16.5431L14.5527 220.611H14.9769Z" fill="#F5B048"/>
<path d="M15.4007 220.611L17.3911 224.028H16.9669L14.9766 220.611H15.4007Z" fill="#F4AF49"/>
<path d="M15.8255 220.611L17.8159 224.028H17.3917L15.4014 220.611H15.8255Z" fill="#F4AF4A"/>
<path d="M16.2494 220.611L18.2071 224.028H17.8156L15.8252 220.611H16.2494Z" fill="#F3AE4B"/>
<path d="M16.6732 220.611L18.631 224.028H18.2068L16.249 220.611H16.6732Z" fill="#F2AD4C"/>
<path d="M17.098 220.611L19.0557 224.028H18.6316L16.6738 220.611H17.098Z" fill="#F1AC4D"/>
<path d="M17.5218 220.611L19.4796 224.028H19.0554L17.0977 220.611H17.5218Z" fill="#F1AC4E"/>
<path d="M17.9466 220.611L19.9044 224.028H19.4802L17.5225 220.611H17.9466Z" fill="#F0AB4F"/>
<path d="M18.3695 220.611L20.3272 224.028H19.9031L17.9453 220.611H18.3695Z" fill="#EFAA50"/>
<path d="M18.7943 220.611L20.752 224.028H20.3279L18.3701 220.611H18.7943Z" fill="#EEA951"/>
<path d="M19.2181 220.611L21.1759 224.028H20.7517L18.7939 220.611H19.2181Z" fill="#EEA952"/>
<path d="M19.6429 220.611L21.6007 224.028H21.1765L19.2188 220.611H19.6429Z" fill="#EDA853"/>
<path d="M20.0668 220.611L22.0245 224.028H21.6003L19.6426 220.611H20.0668Z" fill="#ECA754"/>
<path d="M20.4906 220.611L22.4483 224.028H22.0242L20.0664 220.611H20.4906Z" fill="#ECA755"/>
<path d="M20.8828 220.611L22.8731 224.028H22.449L20.4912 220.611H20.8828Z" fill="#EBA656"/>
<path d="M21.307 220.611L23.2974 224.028H22.8732L20.8828 220.611H21.307Z" fill="#EAA557"/>
<path d="M21.7308 220.611L23.7212 224.028H23.297L21.3066 220.611H21.7308Z" fill="#E9A459"/>
<path d="M22.1546 220.611L24.145 224.028H23.7208L21.7305 220.611H22.1546Z" fill="#E9A45A"/>
<path d="M22.5795 220.611L24.5698 224.028H24.1456L22.1553 220.611H22.5795Z" fill="#E8A35B"/>
<path d="M23.0033 220.611L24.9937 224.028H24.5695L22.5791 220.611H23.0033Z" fill="#E7A25C"/>
<path d="M23.4271 220.611L25.4175 224.028H24.9933L23.0029 220.611H23.4271Z" fill="#E6A15D"/>
<path d="M23.8519 220.611L25.8423 224.028H25.4181L23.4277 220.611H23.8519Z" fill="#E6A15E"/>
<path d="M24.2757 220.611L26.2661 224.028H25.8419L23.8516 220.611H24.2757Z" fill="#E5A05F"/>
<path d="M24.7005 220.611L26.6909 224.028H26.2667L24.2764 220.611H24.7005Z" fill="#E49F60"/>
<path d="M25.1244 220.611L27.1147 224.028H26.6906L24.7002 220.611H25.1244Z" fill="#E39E61"/>
<path d="M25.5482 220.611L27.5386 224.028H27.1144L25.124 220.611H25.5482Z" fill="#E39E62"/>
<path d="M25.973 220.611L27.9634 224.028H27.5392L25.5488 220.611H25.973Z" fill="#E29D63"/>
<path d="M26.3968 220.611L28.3872 224.028H27.963L25.9727 220.611H26.3968Z" fill="#E19C64"/>
<path d="M26.8216 220.611L28.812 224.028H28.3878L26.3975 220.611H26.8216Z" fill="#E19C65"/>
<path d="M27.2455 220.611L29.2358 224.028H28.8117L26.8213 220.611H27.2455Z" fill="#E09B66"/>
<path d="M27.6693 220.611L29.6597 224.028H29.2355L27.2451 220.611H27.6693Z" fill="#DF9A67"/>
<path d="M28.0931 220.611L30.0835 224.028H29.6593L27.6689 220.611H28.0931Z" fill="#DE9968"/>
<path d="M28.5179 220.611L30.5083 224.028H30.0841L28.0938 220.611H28.5179Z" fill="#DE9969"/>
<path d="M28.9418 220.611L30.9321 224.028H30.508L28.5176 220.611H28.9418Z" fill="#DD986A"/>
<path d="M29.3666 220.611L31.3243 224.028H30.9328L28.9424 220.611H29.3666Z" fill="#DC976B"/>
<path d="M29.7904 220.611L31.7481 224.028H31.324L29.3662 220.611H29.7904Z" fill="#DB966C"/>
<path d="M30.2142 220.611L32.172 224.028H31.7478L29.79 220.611H30.2142Z" fill="#DB966D"/>
<path d="M30.639 220.611L32.5968 224.028H32.1726L30.2148 220.611H30.639Z" fill="#DA956E"/>
<path d="M31.0628 220.611L33.0206 224.028H32.5964L30.6387 220.611H31.0628Z" fill="#D9946F"/>
<path d="M31.4877 220.611L33.4454 224.028H33.0212L31.0635 220.611H31.4877Z" fill="#D99470"/>
<path d="M31.9115 220.611L33.8692 224.028H33.445L31.4873 220.611H31.9115Z" fill="#D89371"/>
<path d="M32.3353 220.611L34.2931 224.028H33.8689L31.9111 220.611H32.3353Z" fill="#D79272"/>
<path d="M32.7591 220.611L34.7169 224.028H34.2927L32.335 220.611H32.7591Z" fill="#D69173"/>
<path d="M33.1839 220.611L35.1417 224.028H34.7175L32.7598 220.611H33.1839Z" fill="#D69174"/>
<path d="M33.6078 220.611L35.5655 224.028H35.1413L33.1836 220.611H33.6078Z" fill="#D59075"/>
<path d="M33.999 220.611L35.9893 224.028H35.5652L33.6074 220.611H33.999Z" fill="#D48F76"/>
<path d="M34.4242 220.611L36.4146 224.028H35.9904L34 220.611H34.4242Z" fill="#D38E77"/>
<path d="M34.848 220.611L36.8384 224.028H36.4142L34.4238 220.611H34.848Z" fill="#D38E78"/>
<path d="M35.2718 220.611L37.2622 224.028H36.838L34.8477 220.611H35.2718Z" fill="#D28D79"/>
<path d="M35.6966 220.611L37.687 224.028H37.2628L35.2725 220.611H35.6966Z" fill="#D18C7A"/>
<path d="M36.1205 220.611L38.1108 224.028H37.6867L35.6963 220.611H36.1205Z" fill="#D08B7B"/>
<path d="M36.5453 220.611L38.5357 224.028H38.1115L36.1211 220.611H36.5453Z" fill="#D08B7C"/>
<path d="M36.9681 220.611L38.9585 224.028H38.5343L36.5439 220.611H36.9681Z" fill="#CF8A7D"/>
<path d="M37.3929 220.611L39.3833 224.028H38.9591L36.9688 220.611H37.3929Z" fill="#CE897E"/>
<path d="M37.8168 220.611L39.8071 224.028H39.383L37.3926 220.611H37.8168Z" fill="#CE897F"/>
<path d="M38.2416 220.611L40.2319 224.028H39.8078L37.8174 220.611H38.2416Z" fill="#CD8880"/>
<path d="M38.6654 220.611L40.6558 224.028H40.2316L38.2412 220.611H38.6654Z" fill="#CC8781"/>
<path d="M39.0892 220.611L41.0796 224.028H40.6554L38.665 220.611H39.0892Z" fill="#CB8682"/>
<path d="M39.514 220.611L41.5044 224.028H41.0802L39.0898 220.611H39.514Z" fill="#CB8683"/>
<path d="M39.9379 220.611L41.9282 224.028H41.5041L39.5137 220.611H39.9379Z" fill="#CA8584"/>
<path d="M40.3627 220.611L42.353 224.028H41.9289L39.9385 220.611H40.3627Z" fill="#C98485"/>
<path d="M40.7865 220.611L42.7769 224.028H42.3527L40.3623 220.611H40.7865Z" fill="#C88386"/>
<path d="M41.2103 220.611L43.2007 224.028H42.7765L40.7861 220.611H41.2103Z" fill="#C88387"/>
<path d="M41.6341 220.611L43.6245 224.028H43.2003L41.21 220.611H41.6341Z" fill="#C78288"/>
<path d="M42.0589 220.611L44.0167 224.028H43.6251L41.6348 220.611H42.0589Z" fill="#C68189"/>
<path d="M42.4828 220.611L44.4405 224.028H44.0163L42.0586 220.611H42.4828Z" fill="#C6818A"/>
<path d="M42.9076 220.611L44.8653 224.028H44.4411L42.4834 220.611H42.9076Z" fill="#C5808B"/>
<path d="M43.3314 220.611L45.2892 224.028H44.865L42.9072 220.611H43.3314Z" fill="#C47F8C"/>
<path d="M43.7552 220.611L45.713 224.028H45.2888L43.3311 220.611H43.7552Z" fill="#C37E8D"/>
<path d="M44.18 220.611L46.1378 224.028H45.7136L43.7559 220.611H44.18Z" fill="#C37E8E"/>
<path d="M44.6039 220.611L46.5616 224.028H46.1374L44.1797 220.611H44.6039Z" fill="#C27D8F"/>
<path d="M45.0287 220.611L46.9864 224.028H46.5622L44.6045 220.611H45.0287Z" fill="#C17C90"/>
<path d="M45.4525 220.611L47.4102 224.028H46.9861L45.0283 220.611H45.4525Z" fill="#C17C91"/>
<path d="M45.8763 220.611L47.8341 224.028H47.4099L45.4521 220.611H45.8763Z" fill="#C07B92"/>
<path d="M46.3011 220.611L48.2589 224.028H47.8347L45.877 220.611H46.3011Z" fill="#BF7A93"/>
<path d="M46.725 220.611L48.6827 224.028H48.2585L46.3008 220.611H46.725Z" fill="#BE7994"/>
<path d="M47.1162 220.611L49.1065 224.028H48.6824L46.7246 220.611H47.1162Z" fill="#BE7995"/>
<path d="M47.5404 220.611L49.5308 224.028H49.1066L47.1162 220.611H47.5404Z" fill="#BD7896"/>
<path d="M47.9652 220.611L49.9556 224.028H49.5314L47.541 220.611H47.9652Z" fill="#BC7797"/>
<path d="M48.389 220.611L50.3794 224.028H49.9552L47.9648 220.611H48.389Z" fill="#BB7698"/>
<path d="M48.8129 220.611L50.8032 224.028H50.379L48.3887 220.611H48.8129Z" fill="#BB7699"/>
<path d="M49.2377 220.611L51.228 224.028H50.8038L48.8135 220.611H49.2377Z" fill="#BA759A"/>
<path d="M49.6615 220.611L51.6519 224.028H51.2277L49.2373 220.611H49.6615Z" fill="#B9749B"/>
<path d="M50.0863 220.611L52.0767 224.028H51.6525L49.6621 220.611H50.0863Z" fill="#B9749C"/>
<path d="M50.5091 220.611L52.4995 224.028H52.0753L50.085 220.611H50.5091Z" fill="#B8739D"/>
<path d="M50.9339 220.611L52.9243 224.028H52.5001L50.5098 220.611H50.9339Z" fill="#B7729E"/>
<path d="M51.3578 220.611L53.3481 224.028H52.924L50.9336 220.611H51.3578Z" fill="#B6719F"/>
<path d="M51.7826 220.611L53.773 224.028H53.3488L51.3584 220.611H51.7826Z" fill="#B671A0"/>
<path d="M52.2064 220.611L54.1968 224.028H53.7726L51.7822 220.611H52.2064Z" fill="#B570A1"/>
<path d="M52.6302 220.611L54.1964 223.312V224.028L52.2061 220.611H52.6302Z" fill="#B46FA2"/>
<path d="M53.055 220.611L54.1971 222.564V223.312L52.6309 220.611H53.055Z" fill="#B46FA3"/>
<path d="M53.4789 220.611L54.1967 221.848V222.564L53.0547 220.611H53.4789Z" fill="#B36EA4"/>
<path d="M54.1973 221.848L53.4795 220.611H54.1973V221.848Z" fill="#B36EA4"/>
<path d="M15.5971 158.95H63.4967C64.4429 158.95 65.1934 159.731 65.1934 160.642V198.061C65.1934 199.005 64.4103 199.753 63.4967 199.753H15.5971C14.6509 199.753 13.9004 198.973 13.9004 198.061V160.642C13.8678 159.699 14.6509 158.95 15.5971 158.95Z" fill="#C6C6C6"/>
<path d="M13.8672 198.518L14.6177 199.754H13.8672V198.518Z" fill="#FBB640"/>
<path d="M13.8672 197.248L15.3355 199.753H14.6177L13.8672 198.517V197.248Z" fill="#FBB640"/>
<path d="M13.8672 195.979L16.086 199.754H15.3355L13.8672 197.249V195.979Z" fill="#FAB541"/>
<path d="M13.8672 194.71L16.8038 199.753H16.086L13.8672 195.979V194.71Z" fill="#FAB542"/>
<path d="M13.8672 193.441L17.5543 199.754H16.8038L13.8672 194.71V193.441Z" fill="#F9B443"/>
<path d="M13.8672 192.172L18.2721 199.753H17.5543L13.8672 193.441V192.172Z" fill="#F8B344"/>
<path d="M13.8672 190.903L19.0226 199.754H18.2721L13.8672 192.172V190.903Z" fill="#F7B245"/>
<path d="M13.8672 189.634L19.7404 199.753H19.0226L13.8672 190.903V189.634Z" fill="#F7B246"/>
<path d="M13.8672 188.365L20.4909 199.754H19.7404L13.8672 189.634V188.365Z" fill="#F6B147"/>
<path d="M13.8672 187.096L21.2087 199.753H20.4909L13.8672 188.365V187.096Z" fill="#F5B048"/>
<path d="M13.8672 185.827L21.9592 199.754H21.2087L13.8672 187.096V185.827Z" fill="#F4AF49"/>
<path d="M13.8672 184.558L22.677 199.753H21.9592L13.8672 185.827V184.558Z" fill="#F4AF4A"/>
<path d="M13.8672 183.289L23.4275 199.754H22.677L13.8672 184.558V183.289Z" fill="#F3AE4B"/>
<path d="M13.8672 182.02L24.1454 199.753H23.4275L13.8672 183.289V182.02Z" fill="#F2AD4C"/>
<path d="M13.8672 180.751L24.8958 199.753H24.1454L13.8672 182.02V180.751Z" fill="#F1AC4D"/>
<path d="M13.8672 179.482L25.6137 199.754H24.8958L13.8672 180.751V179.482Z" fill="#F1AC4E"/>
<path d="M13.8672 178.213L26.3641 199.753H25.6137L13.8672 179.482V178.213Z" fill="#F0AB4F"/>
<path d="M13.8672 176.944L27.082 199.754H26.3641L13.8672 178.213V176.944Z" fill="#EFAA50"/>
<path d="M13.8672 175.675L27.8324 199.753H27.082L13.8672 176.944V175.675Z" fill="#EEA951"/>
<path d="M13.8672 174.406L28.5829 199.754H27.8324L13.8672 175.675V174.406Z" fill="#EEA952"/>
<path d="M13.8672 173.137L29.3008 199.753H28.5829L13.8672 174.406V173.137Z" fill="#EDA853"/>
<path d="M13.8672 171.868L30.0512 199.754H29.3008L13.8672 173.137V171.868Z" fill="#ECA754"/>
<path d="M13.8672 170.6L30.7691 199.754H30.0512L13.8672 171.869V170.6Z" fill="#ECA755"/>
<path d="M13.8672 169.33L31.5195 199.754H30.7691L13.8672 170.599V169.33Z" fill="#EBA656"/>
<path d="M13.8672 168.061L32.2374 199.753H31.5195L13.8672 169.33V168.061Z" fill="#EAA557"/>
<path d="M13.8672 166.792L32.9878 199.753H32.2374L13.8672 168.061V166.792Z" fill="#E9A459"/>
<path d="M13.8672 165.522L33.7057 199.753H32.9878L13.8672 166.791V165.522Z" fill="#E9A45A"/>
<path d="M13.8672 164.254L34.4562 199.753H33.7057L13.8672 165.523V164.254Z" fill="#E8A35B"/>
<path d="M13.8672 162.984L35.174 199.753H34.4562L13.8672 164.253V162.984Z" fill="#E7A25C"/>
<path d="M13.8672 161.716L35.9245 199.753H35.174L13.8672 162.985V161.716Z" fill="#E6A15D"/>
<path d="M13.8672 160.447L36.6423 199.754H35.9245L13.8672 161.716V160.447Z" fill="#E6A15E"/>
<path d="M13.8672 159.178L37.3928 199.753H36.6423L13.8672 160.447V159.178Z" fill="#E5A05F"/>
<path d="M14.4871 158.95L38.1106 199.753H37.3928L13.8672 159.178V158.95H14.4871Z" fill="#E49F60"/>
<path d="M15.2378 158.95L38.8612 199.753H38.1108L14.4873 158.95H15.2378Z" fill="#E39E61"/>
<path d="M15.9551 158.95L39.5786 199.753H38.8608L15.2373 158.95H15.9551Z" fill="#E39E62"/>
<path d="M16.7055 158.95L40.329 199.753H39.5786L15.9551 158.95H16.7055Z" fill="#E29D63"/>
<path d="M17.4239 158.95L41.0474 199.753H40.3295L16.7061 158.95H17.4239Z" fill="#E19C64"/>
<path d="M18.1743 158.95L41.7978 199.753H41.0473L17.4238 158.95H18.1743Z" fill="#E19C65"/>
<path d="M18.8917 158.95L42.5478 199.753H41.7973L18.1738 158.95H18.8917Z" fill="#E09B66"/>
<path d="M19.6421 158.95L43.2655 199.753H42.5477L18.8916 158.95H19.6421Z" fill="#DF9A67"/>
<path d="M20.3604 158.95L44.0165 199.753H43.2661L19.6426 158.95H20.3604Z" fill="#DE9968"/>
<path d="M21.1108 158.95L44.7343 199.753H44.0165L20.3604 158.95H21.1108Z" fill="#DE9969"/>
<path d="M21.8282 158.95L45.4843 199.753H44.7338L21.1104 158.95H21.8282Z" fill="#DD986A"/>
<path d="M22.5786 158.95L46.2021 199.753H45.4842L21.8281 158.95H22.5786Z" fill="#DC976B"/>
<path d="M23.2969 158.95L46.953 199.753H46.2026L22.5791 158.95H23.2969Z" fill="#DB966C"/>
<path d="M24.0473 158.95L47.6708 199.753H46.953L23.2969 158.95H24.0473Z" fill="#DB966D"/>
<path d="M24.7657 158.95L48.4218 199.753H47.6713L24.0479 158.95H24.7657Z" fill="#DA956E"/>
<path d="M25.5151 158.95L49.1386 199.753H48.4207L24.7646 158.95H25.5151Z" fill="#D9946F"/>
<path d="M26.2335 158.95L49.8896 199.753H49.1391L25.5156 158.95H26.2335Z" fill="#D99470"/>
<path d="M26.9839 158.95L50.6073 199.753H49.8895L26.2334 158.95H26.9839Z" fill="#D89371"/>
<path d="M27.7022 158.95L51.3583 199.753H50.6078L26.9844 158.95H27.7022Z" fill="#D79272"/>
<path d="M28.4526 158.95L52.0761 199.753H51.3583L27.7021 158.95H28.4526Z" fill="#D69173"/>
<path d="M29.2026 158.95L52.8261 199.753H52.0756L28.4521 158.95H29.2026Z" fill="#D69174"/>
<path d="M29.921 158.95L53.5444 199.753H52.8266L29.2031 158.95H29.921Z" fill="#D59075"/>
<path d="M30.6714 158.95L54.2948 199.753H53.5444L29.9209 158.95H30.6714Z" fill="#D48F76"/>
<path d="M31.3887 158.95L55.0122 199.753H54.2944L30.6709 158.95H31.3887Z" fill="#D38E77"/>
<path d="M32.1391 158.95L55.7626 199.753H55.0121L31.3887 158.95H32.1391Z" fill="#D38E78"/>
<path d="M32.8575 158.95L56.5136 199.753H55.7631L32.1396 158.95H32.8575Z" fill="#D28D79"/>
<path d="M33.6079 158.95L57.2314 199.753H56.5135L32.8574 158.95H33.6079Z" fill="#D18C7A"/>
<path d="M34.3253 158.95L57.9814 199.753H57.2309L33.6074 158.95H34.3253Z" fill="#D08B7B"/>
<path d="M35.0757 158.95L58.6991 199.753H57.9813L34.3252 158.95H35.0757Z" fill="#D08B7C"/>
<path d="M35.794 158.95L59.4501 199.753H58.6996L35.0762 158.95H35.794Z" fill="#CF8A7D"/>
<path d="M36.5444 158.95L60.1679 199.753H59.45L35.7939 158.95H36.5444Z" fill="#CE897E"/>
<path d="M37.2628 158.95L60.9188 199.753H60.1684L36.5449 158.95H37.2628Z" fill="#CE897F"/>
<path d="M38.0122 158.95L61.6357 199.753H60.9178L37.2617 158.95H38.0122Z" fill="#CD8880"/>
<path d="M38.7305 158.95L62.3866 199.753H61.6362L38.0127 158.95H38.7305Z" fill="#CC8781"/>
<path d="M39.4809 158.95L63.1044 199.753H62.3866L38.7305 158.95H39.4809Z" fill="#CB8682"/>
<path d="M40.1993 158.95L63.8554 199.753H63.1049L39.4814 158.95H40.1993Z" fill="#CB8683"/>
<path d="M40.9497 158.95L64.5732 199.753H63.8553L40.1992 158.95H40.9497Z" fill="#CA8584"/>
<path d="M41.6671 158.95L65.1926 199.558V199.753H64.5727L40.9492 158.95H41.6671Z" fill="#C98485"/>
<path d="M42.4175 158.95L65.1926 198.289V199.558L41.667 158.95H42.4175Z" fill="#C88386"/>
<path d="M43.1684 158.95L65.1931 197.02V198.289L42.418 158.95H43.1684Z" fill="#C88387"/>
<path d="M43.8858 158.95L65.1926 195.751V197.02L43.168 158.95H43.8858Z" fill="#C78288"/>
<path d="M44.6362 158.95L65.1925 194.482V195.751L43.8857 158.95H44.6362Z" fill="#C68189"/>
<path d="M45.3546 158.95L65.1931 193.213V194.482L44.6367 158.95H45.3546Z" fill="#C6818A"/>
<path d="M46.105 158.95L65.193 191.944V193.213L45.3545 158.95H46.105Z" fill="#C5808B"/>
<path d="M46.8223 158.95L65.1925 190.675V191.944L46.1045 158.95H46.8223Z" fill="#C47F8C"/>
<path d="M47.5727 158.95L65.1925 189.406V190.675L46.8223 158.95H47.5727Z" fill="#C37E8D"/>
<path d="M48.2911 158.95L65.193 188.137V189.406L47.5732 158.95H48.2911Z" fill="#C37E8E"/>
<path d="M49.0415 158.95L65.1929 186.868V188.137L48.291 158.95H49.0415Z" fill="#C27D8F"/>
<path d="M49.7598 158.95L65.1934 185.599V186.868L49.042 158.95H49.7598Z" fill="#C17C90"/>
<path d="M50.5093 158.95L65.1923 184.33V185.599L49.7588 158.95H50.5093Z" fill="#C17C91"/>
<path d="M51.2276 158.95L65.1929 183.029V184.33L50.5098 158.95H51.2276Z" fill="#C07B92"/>
<path d="M51.978 158.95L65.1928 181.76V183.029L51.2275 158.95H51.978Z" fill="#BF7A93"/>
<path d="M52.6964 158.95L65.1933 180.491V181.76L51.9785 158.95H52.6964Z" fill="#BE7994"/>
<path d="M53.4468 158.95L65.1932 179.222V180.491L52.6963 158.95H53.4468Z" fill="#BE7995"/>
<path d="M54.1641 158.95L65.1928 177.953V179.222L53.4463 158.95H54.1641Z" fill="#BD7896"/>
<path d="M54.9145 158.95L65.1927 176.684V177.953L54.1641 158.95H54.9145Z" fill="#BC7797"/>
<path d="M55.6329 158.95L65.1932 175.415V176.684L54.915 158.95H55.6329Z" fill="#BB7698"/>
<path d="M56.3833 158.95L65.1931 174.146V175.415L55.6328 158.95H56.3833Z" fill="#BB7699"/>
<path d="M57.1333 158.95L65.1927 172.877V174.146L56.3828 158.95H57.1333Z" fill="#BA759A"/>
<path d="M57.8516 158.95L65.1932 171.608V172.877L57.1338 158.95H57.8516Z" fill="#B9749B"/>
<path d="M58.602 158.95L65.1931 170.339V171.608L57.8516 158.95H58.602Z" fill="#B9749C"/>
<path d="M59.3194 158.95L65.1926 169.07V170.339L58.6016 158.95H59.3194Z" fill="#B8739D"/>
<path d="M60.0698 158.95L65.1926 167.801V169.07L59.3193 158.95H60.0698Z" fill="#B7729E"/>
<path d="M60.7882 158.95L65.1931 166.532V167.801L60.0703 158.95H60.7882Z" fill="#B6719F"/>
<path d="M61.5386 158.95L65.193 165.263V166.532L60.7881 158.95H61.5386Z" fill="#B671A0"/>
<path d="M62.2559 158.95L65.1926 163.994V165.263L61.5381 158.95H62.2559Z" fill="#B570A1"/>
<path d="M63.0063 158.95L65.1925 162.725V163.994L62.2559 158.95H63.0063Z" fill="#B46FA2"/>
<path d="M63.7247 158.95L65.193 161.456V162.725L63.0068 158.95H63.7247Z" fill="#B46FA3"/>
<path d="M64.4751 158.95L65.1929 160.187V161.456L63.7246 158.95H64.4751Z" fill="#B36EA4"/>
<path d="M65.1934 160.187L64.4756 158.95H65.1934V160.187Z" fill="#B36EA4"/>
<path d="M121.674 208.571H72.4692C71.5229 208.571 70.7725 209.352 70.7725 210.263C70.7725 211.207 71.5556 211.955 72.4692 211.955H121.674C122.62 211.955 123.371 211.174 123.371 210.263C123.403 209.32 122.62 208.571 121.674 208.571Z" fill="#C6C6C6"/>
<path d="M110.808 220.611H72.4692C71.5229 220.611 70.7725 221.392 70.7725 222.303C70.7725 223.247 71.5556 223.995 72.4692 223.995H110.841C111.787 223.995 112.538 223.214 112.538 222.303C112.538 221.36 111.755 220.611 110.808 220.611Z" fill="#C6C6C6"/>
<path d="M73.9047 158.95H121.804C122.75 158.95 123.501 159.731 123.501 160.642V198.061C123.501 199.005 122.718 199.753 121.804 199.753H73.9047C72.9585 199.753 72.208 198.973 72.208 198.061V160.642C72.208 159.699 72.9585 158.95 73.9047 158.95Z" fill="#C6C6C6"/>
<path d="M39.2534 182.216C39.1881 182.216 39.1229 182.183 39.0902 182.086C39.0576 181.988 39.1229 181.923 39.1881 181.89L40.0691 181.63H39.2208C39.1229 181.63 39.0576 181.565 39.0576 181.467C39.0576 181.37 39.1229 181.305 39.2208 181.305H41.2438C41.309 181.305 41.4069 181.37 41.4069 181.435C41.4069 181.5 41.3743 181.598 41.2764 181.598L39.2534 182.151C39.2534 182.216 39.2534 182.216 39.2534 182.216Z" fill="white"/>
<path d="M39.2529 182.964C39.1876 182.964 39.1224 182.932 39.0897 182.834C39.0571 182.737 39.1224 182.671 39.1876 182.639L41.2106 182.086C41.3085 182.053 41.3738 182.118 41.4064 182.183C41.439 182.281 41.3738 182.346 41.3085 182.379L39.2855 182.932C39.2529 182.964 39.2529 182.964 39.2529 182.964Z" fill="white"/>
<path d="M40.2314 183.321C40.1661 183.321 40.1009 183.289 40.0682 183.191C40.0356 183.094 40.1009 183.029 40.1661 182.996L40.2966 183.061C40.3945 183.029 40.6229 182.931 40.6229 183.029C40.6556 183.126 40.5903 183.191 40.525 183.224L40.2314 183.289C40.264 183.321 40.264 183.321 40.2314 183.321Z" fill="white"/>
<path d="M40.9825 180.979H39.5142C39.2532 180.979 39.0574 180.784 39.0574 180.524V180.068C38.4374 179.678 38.0459 178.962 38.0459 178.213C38.0459 177.009 39.0248 176.033 40.2321 176.033C41.4393 176.033 42.4182 177.009 42.4182 178.213C42.4182 178.962 42.0267 179.645 41.4067 180.035V180.491C41.4393 180.751 41.2109 180.979 40.9825 180.979ZM40.2321 176.359C39.1879 176.359 38.3722 177.205 38.3722 178.213C38.3722 178.864 38.7311 179.482 39.3184 179.84C39.3837 179.873 39.3837 179.938 39.3837 179.97V180.524C39.3837 180.589 39.449 180.654 39.5142 180.654H40.9825C41.0478 180.654 41.113 180.589 41.113 180.524V179.97C41.113 179.905 41.1457 179.873 41.1783 179.84C41.733 179.515 42.0919 178.897 42.0919 178.246C42.0919 177.172 41.2762 176.359 40.2321 176.359Z" fill="white"/>
<path d="M42.0916 176.164C42.059 176.164 42.0264 176.131 41.9937 176.131C41.9285 176.066 41.9611 175.968 41.9937 175.936L42.5484 175.448C42.6137 175.383 42.7116 175.415 42.7442 175.448C42.8095 175.513 42.7768 175.61 42.7442 175.643L42.1895 176.131C42.1569 176.164 42.1242 176.164 42.0916 176.164Z" fill="white"/>
<path d="M40.2321 175.578C40.1668 175.578 40.1016 175.512 40.1016 175.447V174.341C40.1016 174.276 40.1668 174.211 40.2321 174.211C40.2973 174.211 40.3626 174.276 40.3626 174.341V175.447C40.3626 175.512 40.2973 175.578 40.2321 175.578Z" fill="white"/>
<path d="M43.0709 177.855C43.0057 177.855 42.9404 177.823 42.9404 177.725C42.9404 177.66 42.9731 177.562 43.0383 177.562L44.0498 177.367C44.1151 177.367 44.213 177.4 44.213 177.465C44.213 177.53 44.1803 177.628 44.1151 177.628L43.0709 177.855C43.1036 177.855 43.0709 177.855 43.0709 177.855Z" fill="white"/>
<path d="M38.3724 176.163C38.3398 176.163 38.3072 176.163 38.2745 176.131L37.7198 175.642C37.6546 175.577 37.6546 175.512 37.7198 175.447C37.7851 175.382 37.8504 175.382 37.9156 175.447L38.4703 175.935C38.5356 176 38.5356 176.065 38.4703 176.131C38.4377 176.163 38.4051 176.163 38.3724 176.163Z" fill="white"/>
<path d="M43.2344 180.002C43.2018 180.002 43.1691 180.002 43.1691 179.97L42.745 179.71C42.6797 179.677 42.6471 179.579 42.7123 179.514C42.745 179.449 42.8428 179.417 42.9081 179.482L43.3323 179.742C43.3975 179.775 43.4302 179.872 43.3649 179.937C43.2997 179.97 43.267 180.002 43.2344 180.002Z" fill="white"/>
<path d="M37.2301 179.938C37.1974 179.938 37.1322 179.905 37.0996 179.872C37.0669 179.807 37.0669 179.71 37.1322 179.677L37.5564 179.417C37.6216 179.384 37.7195 179.384 37.7521 179.449C37.7848 179.514 37.7848 179.612 37.7195 179.645L37.2953 179.905C37.2953 179.938 37.2627 179.938 37.2301 179.938Z" fill="white"/>
<path d="M37.3607 177.855L36.3165 177.66C36.2513 177.66 36.186 177.562 36.2186 177.497C36.2186 177.432 36.3165 177.367 36.3818 177.399L37.3933 177.595C37.4585 177.595 37.5238 177.692 37.4912 177.757C37.4912 177.822 37.4259 177.855 37.3607 177.855Z" fill="white"/>
</svg>
