<svg width="139" height="279" viewBox="0 0 139 279" fill="none" xmlns="http://www.w3.org/2000/svg">
<path d="M121.706 278.344H17.2932C8.09178 278.344 0.652344 270.872 0.652344 261.63V17.3697C0.652344 8.12761 8.09178 0.655273 17.2932 0.655273H121.706C130.908 0.655273 138.347 8.12761 138.347 17.3697V261.597C138.347 270.839 130.908 278.344 121.706 278.344Z" fill="white"/>
<path d="M121.707 279H17.2934C7.76573 279 0 271.2 0 261.63V17.3699C0 7.80007 7.76573 0 17.2934 0H121.707C131.234 0 139 7.80007 139 17.3699V261.597C139 271.2 131.234 279 121.707 279ZM17.2934 1.31094C8.48357 1.31094 1.30516 8.52109 1.30516 17.3699V261.597C1.30516 270.446 8.48357 277.656 17.2934 277.656H121.707C130.516 277.656 137.695 270.446 137.695 261.597V17.3699C137.695 8.52109 130.516 1.31094 121.707 1.31094H17.2934Z" fill="#575756"/>
<path d="M133.844 247.668H5.15527V29.8564H133.812V247.668H133.844ZM6.13415 246.685H132.833V30.8396H6.13415V246.685Z" fill="#575756"/>
<path d="M87.7729 20.9096H50.2168C49.0747 20.9096 48.1611 19.9919 48.1611 18.8448V18.386C48.1611 17.2389 49.0747 16.3213 50.2168 16.3213H87.7729C88.9149 16.3213 89.8285 17.2389 89.8285 18.386V18.8448C89.7959 19.9919 88.8823 20.9096 87.7729 20.9096ZM50.2168 17.3373C49.6294 17.3373 49.14 17.8289 49.14 18.4188V18.8776C49.14 19.4675 49.6294 19.9591 50.2168 19.9591H87.7729C88.3602 19.9591 88.8496 19.4675 88.8496 18.8776V18.4188C88.8496 17.8289 88.3602 17.3373 87.7729 17.3373H50.2168Z" fill="#575756"/>
<g opacity="0.99">
<g opacity="0.99">
<path opacity="0.99" d="M68.9777 274.346C62.4519 274.346 57.166 269.037 57.166 262.482C57.166 255.927 62.4519 250.618 68.9777 250.618C75.5036 250.618 80.7895 255.927 80.7895 262.482C80.7895 269.037 75.5036 274.346 68.9777 274.346ZM68.9777 251.569C63.0066 251.569 58.1449 256.452 58.1449 262.449C58.1449 268.447 63.0066 273.33 68.9777 273.33C74.9489 273.33 79.8106 268.447 79.8106 262.449C79.8106 256.452 74.9815 251.569 68.9777 251.569Z" fill="#575756"/>
</g>
</g>
<path d="M69.4993 13.7642C67.9331 13.7642 66.6279 12.4861 66.6279 10.8802C66.6279 9.27426 67.9005 7.99609 69.4993 7.99609C71.0981 7.99609 72.3706 9.27426 72.3706 10.8802C72.3706 12.4861 71.0655 13.7642 69.4993 13.7642ZM69.4993 9.01207C68.4552 9.01207 67.6068 9.86418 67.6068 10.9129C67.6068 11.9617 68.4552 12.8138 69.4993 12.8138C70.5434 12.8138 71.3918 11.9617 71.3918 10.9129C71.3918 9.86418 70.5434 9.01207 69.4993 9.01207Z" fill="#575756"/>
<path d="M61.7341 93.6992C65.617 95.0429 68.7168 96.0261 73.8069 97.7303C72.1102 102.81 67.3464 106.448 61.7341 106.448C54.7189 106.448 49.0088 100.745 49.0088 93.6664C49.0088 86.6201 54.6863 80.8848 61.7341 80.8848C66.4327 80.8848 70.5114 83.4411 72.7302 87.2428C69.2715 89.3731 68.26 90.0285 61.7341 93.6992Z" fill="#C6C6C6"/>
<path d="M84.8683 96.157C86.4901 96.157 87.8049 94.8365 87.8049 93.2074C87.8049 91.5784 86.4901 90.2578 84.8683 90.2578C83.2464 90.2578 81.9316 91.5784 81.9316 93.2074C81.9316 94.8365 83.2464 96.157 84.8683 96.157Z" fill="#C6C6C6"/>
<path d="M97.2013 96.157C98.8231 96.157 100.138 94.8365 100.138 93.2074C100.138 91.5784 98.8231 90.2578 97.2013 90.2578C95.5794 90.2578 94.2646 91.5784 94.2646 93.2074C94.2646 94.8365 95.5794 96.157 97.2013 96.157Z" fill="#C6C6C6"/>
<path d="M109.503 96.157C111.125 96.157 112.44 94.8365 112.44 93.2074C112.44 91.5784 111.125 90.2578 109.503 90.2578C107.881 90.2578 106.566 91.5784 106.566 93.2074C106.566 94.8365 107.881 96.157 109.503 96.157Z" fill="#C6C6C6"/>
<path d="M109.503 107.136C111.125 107.136 112.44 105.815 112.44 104.186C112.44 102.557 111.125 101.236 109.503 101.236C107.881 101.236 106.566 102.557 106.566 104.186C106.566 105.815 107.881 107.136 109.503 107.136Z" fill="#C6C6C6"/>
<path d="M109.503 118.115C111.125 118.115 112.44 116.794 112.44 115.165C112.44 113.536 111.125 112.216 109.503 112.216C107.881 112.216 106.566 113.536 106.566 115.165C106.566 116.794 107.881 118.115 109.503 118.115Z" fill="#C6C6C6"/>
<path d="M109.503 129.094C111.125 129.094 112.44 127.773 112.44 126.144C112.44 124.515 111.125 123.194 109.503 123.194C107.881 123.194 106.566 124.515 106.566 126.144C106.566 127.773 107.881 129.094 109.503 129.094Z" fill="#C6C6C6"/>
<path d="M109.503 140.041C111.125 140.041 112.44 138.72 112.44 137.091C112.44 135.462 111.125 134.142 109.503 134.142C107.881 134.142 106.566 135.462 106.566 137.091C106.566 138.72 107.881 140.041 109.503 140.041Z" fill="#C6C6C6"/>
<path d="M29.5294 96.157C31.1512 96.157 32.466 94.8365 32.466 93.2074C32.466 91.5784 31.1512 90.2578 29.5294 90.2578C27.9075 90.2578 26.5928 91.5784 26.5928 93.2074C26.5928 94.8365 27.9075 96.157 29.5294 96.157Z" fill="#C6C6C6"/>
<path d="M29.5294 107.136C31.1512 107.136 32.466 105.815 32.466 104.186C32.466 102.557 31.1512 101.236 29.5294 101.236C27.9075 101.236 26.5928 102.557 26.5928 104.186C26.5928 105.815 27.9075 107.136 29.5294 107.136Z" fill="#C6C6C6"/>
<path d="M29.5294 118.115C31.1512 118.115 32.466 116.794 32.466 115.165C32.466 113.536 31.1512 112.216 29.5294 112.216C27.9075 112.216 26.5928 113.536 26.5928 115.165C26.5928 116.794 27.9075 118.115 29.5294 118.115Z" fill="#C6C6C6"/>
<path d="M29.5294 129.094C31.1512 129.094 32.466 127.773 32.466 126.144C32.466 124.515 31.1512 123.194 29.5294 123.194C27.9075 123.194 26.5928 124.515 26.5928 126.144C26.5928 127.773 27.9075 129.094 29.5294 129.094Z" fill="#C6C6C6"/>
<path d="M29.5294 52.24C31.1512 52.24 32.466 50.9195 32.466 49.2904C32.466 47.6614 31.1512 46.3408 29.5294 46.3408C27.9075 46.3408 26.5928 47.6614 26.5928 49.2904C26.5928 50.9195 27.9075 52.24 29.5294 52.24Z" fill="#C6C6C6"/>
<path d="M29.5294 63.2195C31.1512 63.2195 32.466 61.8989 32.466 60.2699C32.466 58.6409 31.1512 57.3203 29.5294 57.3203C27.9075 57.3203 26.5928 58.6409 26.5928 60.2699C26.5928 61.8989 27.9075 63.2195 29.5294 63.2195Z" fill="#C6C6C6"/>
<path d="M29.5294 74.199C31.1512 74.199 32.466 72.8784 32.466 71.2494C32.466 69.6204 31.1512 68.2998 29.5294 68.2998C27.9075 68.2998 26.5928 69.6204 26.5928 71.2494C26.5928 72.8784 27.9075 74.199 29.5294 74.199Z" fill="#C6C6C6"/>
<path d="M29.5294 85.1453C31.1512 85.1453 32.466 83.8247 32.466 82.1957C32.466 80.5667 31.1512 79.2461 29.5294 79.2461C27.9075 79.2461 26.5928 80.5667 26.5928 82.1957C26.5928 83.8247 27.9075 85.1453 29.5294 85.1453Z" fill="#C6C6C6"/>
<path d="M29.5294 140.041C31.1512 140.041 32.466 138.72 32.466 137.091C32.466 135.462 31.1512 134.142 29.5294 134.142C27.9075 134.142 26.5928 135.462 26.5928 137.091C26.5928 138.72 27.9075 140.041 29.5294 140.041Z" fill="#C6C6C6"/>
<path d="M109.503 151.02C111.125 151.02 112.44 149.7 112.44 148.071C112.44 146.442 111.125 145.121 109.503 145.121C107.881 145.121 106.566 146.442 106.566 148.071C106.566 149.7 107.881 151.02 109.503 151.02Z" fill="#C6C6C6"/>
<path d="M98.0831 151.02C99.705 151.02 101.02 149.7 101.02 148.071C101.02 146.442 99.705 145.121 98.0831 145.121C96.4613 145.121 95.1465 146.442 95.1465 148.071C95.1465 149.7 96.4613 151.02 98.0831 151.02Z" fill="#C6C6C6"/>
<path d="M86.6632 151.02C88.285 151.02 89.5998 149.7 89.5998 148.071C89.5998 146.442 88.285 145.121 86.6632 145.121C85.0413 145.121 83.7266 146.442 83.7266 148.071C83.7266 149.7 85.0413 151.02 86.6632 151.02Z" fill="#C6C6C6"/>
<path d="M75.2433 151.02C76.8651 151.02 78.1799 149.7 78.1799 148.071C78.1799 146.442 76.8651 145.121 75.2433 145.121C73.6214 145.121 72.3066 146.442 72.3066 148.071C72.3066 149.7 73.6214 151.02 75.2433 151.02Z" fill="#C6C6C6"/>
<path d="M63.8224 151.02C65.4442 151.02 66.759 149.7 66.759 148.071C66.759 146.442 65.4442 145.121 63.8224 145.121C62.2005 145.121 60.8857 146.442 60.8857 148.071C60.8857 149.7 62.2005 151.02 63.8224 151.02Z" fill="#C6C6C6"/>
<path d="M52.4024 151.02C54.0243 151.02 55.3391 149.7 55.3391 148.071C55.3391 146.442 54.0243 145.121 52.4024 145.121C50.7806 145.121 49.4658 146.442 49.4658 148.071C49.4658 149.7 50.7806 151.02 52.4024 151.02Z" fill="#C6C6C6"/>
<path d="M40.9825 151.02C42.6044 151.02 43.9192 149.7 43.9192 148.071C43.9192 146.442 42.6044 145.121 40.9825 145.121C39.3607 145.121 38.0459 146.442 38.0459 148.071C38.0459 149.7 39.3607 151.02 40.9825 151.02Z" fill="#C6C6C6"/>
<path d="M29.5626 151.02C31.1844 151.02 32.4992 149.7 32.4992 148.071C32.4992 146.442 31.1844 145.121 29.5626 145.121C27.9407 145.121 26.626 146.442 26.626 148.071C26.626 149.7 27.9407 151.02 29.5626 151.02Z" fill="#C6C6C6"/>
<path d="M109.503 52.24C111.125 52.24 112.44 50.9195 112.44 49.2904C112.44 47.6614 111.125 46.3408 109.503 46.3408C107.881 46.3408 106.566 47.6614 106.566 49.2904C106.566 50.9195 107.881 52.24 109.503 52.24Z" fill="#C6C6C6"/>
<path d="M98.0831 52.24C99.705 52.24 101.02 50.9195 101.02 49.2904C101.02 47.6614 99.705 46.3408 98.0831 46.3408C96.4613 46.3408 95.1465 47.6614 95.1465 49.2904C95.1465 50.9195 96.4613 52.24 98.0831 52.24Z" fill="#C6C6C6"/>
<path d="M86.6632 52.24C88.285 52.24 89.5998 50.9195 89.5998 49.2904C89.5998 47.6614 88.285 46.3408 86.6632 46.3408C85.0413 46.3408 83.7266 47.6614 83.7266 49.2904C83.7266 50.9195 85.0413 52.24 86.6632 52.24Z" fill="#C6C6C6"/>
<path d="M75.2433 52.24C76.8651 52.24 78.1799 50.9195 78.1799 49.2904C78.1799 47.6614 76.8651 46.3408 75.2433 46.3408C73.6214 46.3408 72.3066 47.6614 72.3066 49.2904C72.3066 50.9195 73.6214 52.24 75.2433 52.24Z" fill="#C6C6C6"/>
<path d="M63.8224 52.24C65.4442 52.24 66.759 50.9195 66.759 49.2904C66.759 47.6614 65.4442 46.3408 63.8224 46.3408C62.2005 46.3408 60.8857 47.6614 60.8857 49.2904C60.8857 50.9195 62.2005 52.24 63.8224 52.24Z" fill="#C6C6C6"/>
<path d="M52.4024 52.24C54.0243 52.24 55.3391 50.9195 55.3391 49.2904C55.3391 47.6614 54.0243 46.3408 52.4024 46.3408C50.7806 46.3408 49.4658 47.6614 49.4658 49.2904C49.4658 50.9195 50.7806 52.24 52.4024 52.24Z" fill="#C6C6C6"/>
<path d="M40.9825 52.24C42.6044 52.24 43.9192 50.9195 43.9192 49.2904C43.9192 47.6614 42.6044 46.3408 40.9825 46.3408C39.3607 46.3408 38.0459 47.6614 38.0459 49.2904C38.0459 50.9195 39.3607 52.24 40.9825 52.24Z" fill="#C6C6C6"/>
<path d="M29.5626 52.24C31.1844 52.24 32.4992 50.9195 32.4992 49.2904C32.4992 47.6614 31.1844 46.3408 29.5626 46.3408C27.9407 46.3408 26.626 47.6614 26.626 49.2904C26.626 50.9195 27.9407 52.24 29.5626 52.24Z" fill="#C6C6C6"/>
<path d="M118.051 196.903L112.929 191.757L107.806 196.903L107.316 196.444L112.929 190.84L118.508 196.444L118.051 196.903Z" fill="white"/>
<path d="M112.57 230.102L106.958 224.498L107.447 224.039L112.57 229.185L117.693 224.039L118.15 224.498L112.57 230.102Z" fill="white"/>
<path d="M57.3943 231.905L56.9375 231.447L62.0603 226.301L56.9375 221.156L57.3943 220.664L63.0065 226.301L57.3943 231.905Z" fill="white"/>
<path d="M28.3544 231.905L22.7422 226.301L28.3544 220.664L28.8112 221.156L23.6558 226.301L28.8112 231.447L28.3544 231.905Z" fill="white"/>
<ellipse cx="23.7645" cy="229.05" rx="8.51935" ry="8.55" fill="url(#paint0_linear)"/>
<path fill-rule="evenodd" clip-rule="evenodd" d="M22.2818 229.219L24.9273 231.638C25.0141 231.725 25.1547 231.725 25.2417 231.638C25.3283 231.552 25.3283 231.411 25.2417 231.324L22.7557 229.051L25.2417 226.776C25.3283 226.69 25.3283 226.55 25.2417 226.462C25.1547 226.376 25.0141 226.376 24.9273 226.462L22.2818 228.881C22.2355 228.928 22.2157 228.989 22.2188 229.051C22.2157 229.111 22.2355 229.173 22.2818 229.219Z" fill="white"/>
<ellipse cx="44.3283" cy="229.05" rx="8.51935" ry="8.55" transform="rotate(-180 44.3283 229.05)" fill="url(#paint1_linear)"/>
<path fill-rule="evenodd" clip-rule="evenodd" d="M45.811 228.88L43.1655 226.461C43.0787 226.375 42.9381 226.375 42.8511 226.461C42.7645 226.547 42.7645 226.689 42.8511 226.775L45.337 229.048L42.8511 231.324C42.7645 231.41 42.7645 231.549 42.8511 231.638C42.9381 231.724 43.0787 231.724 43.1655 231.638L45.811 229.219C45.8572 229.172 45.8771 229.11 45.874 229.048C45.8771 228.989 45.8572 228.927 45.811 228.88Z" fill="white"/>
<ellipse cx="116.133" cy="228.987" rx="8.55" ry="8.51936" transform="rotate(-90 116.133 228.987)" fill="url(#paint2_linear)"/>
<path fill-rule="evenodd" clip-rule="evenodd" d="M116.302 230.475L118.712 227.82C118.798 227.733 118.798 227.592 118.712 227.505C118.626 227.418 118.485 227.418 118.399 227.505L116.134 230L113.867 227.505C113.781 227.418 113.642 227.418 113.554 227.505C113.468 227.592 113.468 227.733 113.554 227.82L115.964 230.475C116.011 230.522 116.072 230.541 116.134 230.538C116.194 230.541 116.255 230.522 116.302 230.475Z" fill="white"/>
<ellipse cx="116.132" cy="208.35" rx="8.55" ry="8.51936" transform="rotate(90 116.132 208.35)" fill="url(#paint3_linear)"/>
<path fill-rule="evenodd" clip-rule="evenodd" d="M115.963 206.862L113.553 209.517C113.467 209.604 113.467 209.745 113.553 209.832C113.639 209.919 113.78 209.919 113.866 209.832L116.131 207.337L118.398 209.832C118.484 209.919 118.622 209.919 118.711 209.832C118.797 209.745 118.797 209.604 118.711 209.517L116.3 206.862C116.254 206.815 116.192 206.795 116.131 206.799C116.071 206.795 116.009 206.815 115.963 206.862Z" fill="white"/>
<defs>
<linearGradient id="paint0_linear" x1="6.64705" y1="228.892" x2="23.7475" y2="246.089" gradientUnits="userSpaceOnUse">
<stop stop-color="#FBB63F"/>
<stop offset="0.981306" stop-color="#B069A1"/>
</linearGradient>
<linearGradient id="paint1_linear" x1="27.2109" y1="228.892" x2="44.3113" y2="246.088" gradientUnits="userSpaceOnUse">
<stop stop-color="#FBB63F"/>
<stop offset="0.981306" stop-color="#B069A1"/>
</linearGradient>
<linearGradient id="paint2_linear" x1="98.9536" y1="228.83" x2="115.992" y2="246.087" gradientUnits="userSpaceOnUse">
<stop stop-color="#FBB63F"/>
<stop offset="0.981306" stop-color="#B069A1"/>
</linearGradient>
<linearGradient id="paint3_linear" x1="98.953" y1="208.192" x2="115.991" y2="225.45" gradientUnits="userSpaceOnUse">
<stop stop-color="#FBB63F"/>
<stop offset="0.981306" stop-color="#B069A1"/>
</linearGradient>
</defs>
</svg>
