<svg width="120" height="119" viewBox="0 0 120 119" fill="none" xmlns="http://www.w3.org/2000/svg">
<g clip-path="url(#clip0)">
<path d="M60.0007 79.8118C54.4717 79.8118 49.7618 75.298 49.7618 69.5532C49.7618 68.7325 48.9427 67.9118 48.1236 67.9118C47.3045 67.9118 46.4854 68.7325 46.4854 69.5532C46.4854 76.529 51.6048 82.0687 58.3625 82.8894V88.2239C58.3625 89.0446 59.1816 89.8653 60.0007 89.8653C60.8198 89.8653 61.6389 89.0446 61.6389 88.2239V83.2997C68.3966 82.479 73.5161 76.7342 73.5161 69.9635C73.5161 62.5773 67.3727 56.4222 60.0007 56.4222C53.5 56.4222 49.7618 51.9084 49.7618 46.1635C49.7618 40.6239 54.2669 35.9049 60.0007 35.9049C65.3249 35.9049 69.8301 40.0084 70.2396 45.3428C70.2396 46.1635 71.0587 46.9842 72.0826 46.9842C72.9017 46.9842 73.7208 46.1635 73.7208 45.1377C73.3113 38.5722 68.1918 33.4428 61.8437 32.6222V27.698C61.8437 26.8773 61.0246 26.0566 60.2055 26.0566C59.3864 26.0566 58.5673 26.8773 58.5673 27.698V32.6222C51.8096 33.4428 46.6901 39.1877 46.6901 45.9584C46.6901 53.3446 51 59.4997 60.2055 59.4997C65.7345 59.4997 70.4444 64.0135 70.4444 69.7584C70.0348 75.298 65.5297 79.8118 60.0007 79.8118Z" fill="#740B99"/>
<path d="M43.413 115.923H3.07167V75.5037C3.07167 74.683 2.45734 73.8623 1.43345 73.8623C0.409556 73.8623 0 74.683 0 75.5037V117.359C0 118.18 0.614334 119 1.63823 119H43.6177C44.4369 119 45.256 118.385 45.256 117.359C45.0512 116.538 44.4369 115.923 43.413 115.923Z" fill="#740B99"/>
<path d="M118.362 0H77.6112C76.7921 0 76.1777 0.615517 76.1777 1.43621C76.1777 2.2569 76.7921 2.87241 77.6112 2.87241H116.929V42.0603C116.929 42.881 117.543 43.4966 118.362 43.4966C119.181 43.4966 119.795 42.881 119.795 42.0603V1.64138C120 0.82069 119.181 0 118.362 0Z" fill="#740B99"/>
<path d="M4.70981 43.9069C5.52893 43.9069 6.14326 43.2914 6.14326 42.4707V3.07759H45.2559C46.075 3.07759 46.6893 2.46207 46.6893 1.64138C46.6893 0.82069 46.2798 0 45.4607 0H4.70981C3.8907 0 3.27637 0.615517 3.27637 1.43621V42.2655C3.27637 43.2914 3.8907 43.9069 4.70981 43.9069Z" fill="#740B99"/>
<path d="M118.361 72.0156C117.542 72.0156 116.928 72.6311 116.928 73.4518V112.845H77.8153C76.9962 112.845 76.3818 113.46 76.3818 114.281C76.3818 115.102 76.9962 115.717 77.8153 115.717H118.566C119.385 115.717 120 115.102 120 114.281V73.4518C120 72.6311 119.18 72.0156 118.361 72.0156Z" fill="#740B99"/>
</g>
<defs>
<clipPath id="clip0">
<rect width="120" height="119" fill="white"/>
</clipPath>
</defs>
</svg>
