<svg width="117" height="119" viewBox="0 0 117 119" fill="none" xmlns="http://www.w3.org/2000/svg">
<g clip-path="url(#clip0)">
<path d="M62.3874 0.564446C58.7845 -0.37701 54.992 -0.00042779 51.9579 1.88248C48.7343 3.7654 46.4588 6.58976 45.5106 10.1673C43.6143 17.3224 47.7861 24.854 55.1816 26.9252C55.7505 27.1135 56.509 27.3018 57.2675 27.3018L57.0779 50.085C57.0779 50.8382 57.6468 51.5913 58.4053 51.5913C59.1638 51.5913 59.7327 51.0265 59.9223 50.2733L60.1119 27.6784C62.0082 27.4901 63.9045 26.9252 65.6111 25.9838C68.8348 24.1008 71.1103 21.2765 72.0584 17.6989C73.0066 14.1214 72.6273 10.5439 70.731 7.34293C68.8348 3.7654 65.8007 1.5059 62.3874 0.564446ZM69.214 16.3809C68.4555 19.2053 66.7489 21.4648 64.0941 22.9711C61.6289 24.4774 58.5949 24.854 55.9401 24.1008C50.2513 22.5945 46.838 16.5692 48.355 10.9205C49.872 5.27172 55.9401 1.88248 61.6289 3.38881C64.4733 4.14198 66.7489 5.8366 68.2659 8.47267C69.5933 10.7322 69.9725 13.5565 69.214 16.3809Z" fill="#740B99"/>
<path d="M59.923 54.7923C57.6475 54.4157 55.372 54.9806 53.4757 56.2986C51.5794 57.6166 50.4417 59.4995 49.8728 61.759C49.1143 66.4663 52.1483 70.797 56.889 71.5502C56.889 71.5502 56.889 71.5502 57.0786 71.5502L56.889 97.1578C56.889 97.9109 57.4579 98.6641 58.2164 98.6641C58.9749 98.6641 59.5438 98.0992 59.7334 97.3461L59.923 71.5502C63.3363 70.9853 66.1807 68.1609 66.9392 64.5834C67.3185 62.3239 66.7496 60.0644 65.4222 58.1815C64.0948 56.2986 62.1986 55.1688 59.923 54.7923ZM64.0948 64.0185C63.526 67.0312 60.6815 69.1024 57.4579 68.7258C54.4238 68.1609 52.3379 65.1483 52.7172 62.1356C52.9068 60.6293 53.855 59.3112 54.9927 58.3698C56.3201 57.4283 57.8371 57.24 59.3542 57.4283C60.8712 57.6166 62.1986 58.5581 63.1467 59.6878C64.0948 61.0059 64.4741 62.7005 64.0948 64.0185Z" fill="#740B99"/>
<path d="M31.0989 71.3617L30.9093 97.1576C30.9093 97.9107 31.4782 98.6639 32.2367 98.6639C32.9952 98.6639 33.5641 98.099 33.7537 97.3459L33.9433 71.55C37.5462 71.1734 40.7699 68.349 41.3388 64.5832C41.718 62.3237 41.1491 60.0642 39.8218 58.1813C38.4944 56.2984 36.5981 55.1687 34.3226 54.6038C32.047 54.2272 29.7715 54.7921 27.8752 56.1101C25.979 57.4282 24.8412 59.3111 24.2723 61.5706C23.7034 66.0895 26.5479 70.4202 31.0989 71.3617ZM27.1167 62.1354C27.3064 60.6291 28.2545 59.3111 29.3923 58.3696C30.7197 57.4282 32.2367 57.2399 33.7537 57.4282C35.2707 57.6164 36.5981 58.5579 37.5462 59.6876C38.4944 61.0057 38.684 62.512 38.4944 64.0183C37.9255 67.031 35.0811 69.1022 31.8574 68.7256C28.8234 68.1607 26.7375 65.3364 27.1167 62.1354Z" fill="#740B99"/>
<path d="M85.5226 54.7923C83.2471 54.4157 80.9716 54.9806 79.0753 56.2986C77.179 57.6166 76.0413 59.4995 75.4724 61.759C74.7139 66.4663 77.7479 70.797 82.4886 71.5502C82.6782 71.5502 82.8679 71.5502 83.0575 71.5502L82.8679 97.1578C82.8679 97.9109 83.4367 98.6641 84.1953 98.6641C84.9538 98.6641 85.5226 98.0992 85.7123 97.3461L85.9019 71.5502C89.1256 70.797 91.7803 68.1609 92.3492 64.7717C92.7285 62.5122 92.1596 60.2527 90.8322 58.3698C89.8841 56.2986 87.7982 55.1688 85.5226 54.7923ZM89.6944 64.0185C89.1256 67.0312 86.2812 69.1024 83.0575 68.7258C80.0235 68.1609 77.9376 65.1483 78.3168 62.1356C78.5064 60.6293 79.4546 59.3112 80.5923 58.3698C81.9197 57.4283 83.4367 57.24 84.9538 57.4283C86.4708 57.6166 87.7982 58.5581 88.7463 59.6878C89.6944 61.0059 90.0737 62.7005 89.6944 64.0185Z" fill="#740B99"/>
<path d="M59.9229 102.054C55.1822 101.3 50.8208 104.313 50.0622 109.02C49.3037 113.728 52.3378 118.058 57.0784 118.812C57.6473 118.812 58.0266 119 58.5955 119C60.3021 119 62.0088 118.435 63.5258 117.493C65.422 116.175 66.5598 114.293 67.1287 112.033C67.6976 107.326 64.6635 102.807 59.9229 102.054ZM64.0947 111.468C63.905 112.975 62.9569 114.293 61.8191 115.234C60.4917 116.175 58.9747 116.364 57.4577 116.175C54.4237 115.611 52.3378 112.598 52.717 109.585C53.2859 106.761 55.5614 104.878 58.4058 104.878C58.7851 104.878 58.9747 104.878 59.354 104.878C62.5776 105.443 64.6635 108.267 64.0947 111.468Z" fill="#740B99"/>
<path d="M10.0508 102.054C5.31011 101.3 0.948681 104.313 0.190172 109.02C-0.568337 113.728 2.4657 118.058 7.20638 118.812C7.77526 118.812 8.15452 119 8.7234 119C10.43 119 12.1367 118.435 13.6537 117.493C15.55 116.175 16.6877 114.293 17.2566 112.033C17.6359 109.774 17.067 107.514 15.7396 105.631C14.2226 103.748 12.3263 102.43 10.0508 102.054ZM14.2226 111.468C14.033 112.975 13.0848 114.293 11.9471 115.234C10.6197 116.175 9.10265 116.364 7.58564 116.175C4.5516 115.611 2.4657 112.598 2.84495 109.585C3.41384 106.761 5.68936 104.878 8.53377 104.878C8.91303 104.878 9.10265 104.878 9.48191 104.878C10.9989 105.066 12.3263 106.008 13.2745 107.137C14.2226 108.456 14.4122 109.962 14.2226 111.468Z" fill="#740B99"/>
<path d="M35.0814 102.054C30.3407 101.3 25.9793 104.313 25.2208 109.02C24.8416 111.28 25.4104 113.539 26.7378 115.422C28.0652 117.305 29.9615 118.435 32.237 119C32.8059 119 33.1852 119.188 33.754 119.188C35.4607 119.188 37.1673 118.623 38.6843 117.682C40.5806 116.364 41.7184 114.481 42.2873 112.221C42.8561 107.326 39.6325 102.807 35.0814 102.054ZM39.2532 111.468C39.0636 112.974 38.1155 114.293 36.9777 115.234C35.6503 116.175 34.1333 116.364 32.6163 116.175C31.0993 115.987 29.7719 115.046 28.8237 113.916C27.8756 112.598 27.686 111.092 27.8756 109.585C28.4445 106.761 30.72 104.878 33.5644 104.878C33.9437 104.878 34.1333 104.878 34.5125 104.878C37.5466 105.443 39.6325 108.267 39.2532 111.468Z" fill="#740B99"/>
<path d="M84.9531 102.054C80.2125 101.3 75.851 104.313 75.0925 109.02C74.334 113.728 77.368 118.058 82.1087 118.812C82.6776 118.812 83.0569 119 83.6257 119C85.3324 119 87.039 118.435 88.556 117.493C90.4523 116.175 91.5901 114.293 92.159 112.033C92.5382 109.774 91.9693 107.514 90.6419 105.631C89.1249 103.748 87.2287 102.43 84.9531 102.054ZM89.1249 111.468C88.9353 112.975 87.9872 114.293 86.8494 115.234C85.522 116.175 84.005 116.364 82.488 116.175C79.4539 115.611 77.368 112.598 77.7473 109.585C78.3162 106.761 80.5917 104.878 83.4361 104.878C83.8154 104.878 84.005 104.878 84.3842 104.878C85.9013 105.066 87.2287 106.008 88.1768 107.137C88.9353 108.456 89.3146 109.962 89.1249 111.468Z" fill="#740B99"/>
<path d="M111.88 102.619C107.519 100.736 102.399 102.619 100.502 106.949C99.5543 109.021 99.5543 111.28 100.313 113.54C101.071 115.611 102.778 117.306 104.864 118.247C106.002 118.812 107.139 119 108.277 119C111.501 119 114.724 117.117 116.052 113.916C118.138 109.586 116.241 104.502 111.88 102.619ZM113.587 112.787C113.018 114.105 111.88 115.234 110.363 115.799C108.846 116.364 107.329 116.364 106.002 115.611C104.674 115.046 103.536 113.916 102.968 112.41C102.399 110.904 102.399 109.397 103.157 108.079C104.105 106.008 106.191 104.69 108.467 104.69C109.225 104.69 109.984 104.878 110.742 105.255C113.587 106.573 114.914 109.962 113.587 112.787Z" fill="#740B99"/>
</g>
<defs>
<clipPath id="clip0">
<rect width="117" height="119" fill="white"/>
</clipPath>
</defs>
</svg>
