<svg width="122" height="109" viewBox="0 0 122 109" fill="none" xmlns="http://www.w3.org/2000/svg">
<path d="M120.514 54.2215C120.514 53.8501 120.143 53.4787 119.957 53.293C119.586 53.1073 119.215 53.1073 118.843 53.1073L112.344 54.5928C110.858 49.0221 108.259 44.3799 104.359 39.9233L109.187 35.2811C109.744 34.724 109.744 33.7956 109.187 33.2385C103.431 27.2964 97.1172 23.3969 89.1324 20.983C88.761 20.7973 88.3897 20.983 88.0183 21.1687C87.6469 21.3543 87.4612 21.7257 87.2755 21.9114L85.4186 28.2249C79.8478 26.7394 74.4627 26.5537 68.7062 27.8535L67.2207 21.3543C67.035 20.6116 66.2922 20.2402 65.5495 20.2402C64.0639 20.6116 62.5784 20.983 61.0928 21.54V21.3543C57.0076 12.9983 51.6225 7.4276 44.9376 4.82794C44.1948 4.45656 43.0807 4.08518 41.9665 3.7138H41.7808C41.2237 3.52811 40.8524 3.34242 40.2953 3.15673L37.1385 2.22828C33.6104 1.67121 29.7108 0.74276 26.1826 0C25.8113 0 25.4399 0 25.0685 0.18569C24.6971 0.37138 24.5114 0.74276 24.5114 1.29983C24.5114 2.22828 24.5114 7.05622 29.3394 10.3986C25.997 14.1124 15.4125 25.8109 10.3988 31.3816C8.35616 33.4242 7.98478 36.3952 9.28463 38.8092L15.4125 48.2794C15.5982 48.6508 15.9696 48.8365 16.5266 48.8365C16.898 48.8365 17.2694 48.6508 17.6408 48.4651C17.6408 48.4651 25.6256 40.4804 37.8813 40.109C35.8387 42.523 32.1248 46.9796 25.6256 55.1499C15.9696 67.4055 10.5845 75.2044 9.65601 78.5468C8.72755 81.3322 11.6986 87.2743 18.1979 96.5588H7.4277C3.52816 96.5588 0.185693 99.7155 0.185693 103.801L0 105.843C0 106.215 0.185693 106.586 0.371385 106.772C0.557078 106.957 0.928463 107.143 1.29985 107.143L47.5373 107.329C48.2801 107.329 48.8371 106.772 49.0228 106.029C49.0228 105.286 48.4658 104.543 47.723 104.543H2.78539V103.615C2.78539 101.201 4.82801 99.1584 7.24201 99.1584L20.7976 99.3441C21.3546 99.3441 21.726 98.9727 22.0974 98.6014C22.2831 98.0443 22.2831 97.4872 21.9117 97.1158C14.6697 87.0886 11.6986 80.7751 12.2557 79.2896C14.1126 72.6048 40.2953 41.2232 41.7808 39.7376C41.9665 39.552 42.1522 39.1806 42.1522 38.8092C42.1522 38.0664 41.5951 37.5094 40.8524 37.3237C28.7823 36.3952 20.0548 42.7087 16.898 45.3083L12.07 38.0664L11.5129 37.3237C10.7702 36.0238 11.3272 34.3526 12.4414 33.2385C32.8676 10.9557 32.8676 10.77 32.8676 10.2129C32.8676 9.65588 32.4962 9.2845 32.1248 8.91312C28.968 7.24191 27.8539 4.82794 27.4825 3.15673C30.4536 3.7138 33.6104 4.64225 36.7671 5.5707L39.7382 6.49915C40.2953 6.68484 40.6667 6.87053 41.2237 6.87053L41.5951 5.5707L41.4094 7.05622C42.5236 7.4276 43.4521 7.79898 44.1948 7.98467C50.137 10.2129 54.965 15.2266 58.8645 23.0256C53.8508 25.0681 49.3942 28.0392 45.1233 31.9387C44.5662 32.4957 44.5662 33.4242 45.1233 33.9813L49.7656 38.8092C45.6804 42.8944 42.895 47.5366 41.0381 52.9216L34.7245 51.0647C34.3531 50.879 33.9817 51.0647 33.6104 51.2504C33.239 51.4361 33.0533 51.8075 32.8676 51.9932C30.4536 59.9779 30.2679 67.4054 32.3105 75.3901C32.3105 75.7615 32.6819 76.1329 32.8676 76.3186C33.239 76.5043 33.6104 76.5043 33.9817 76.5043L40.481 75.0187C41.9665 80.5894 44.5662 85.2317 48.4658 89.6882L43.6377 94.3305C43.0807 94.8876 43.0807 95.816 43.6377 96.3731C49.3942 102.315 55.7078 106.215 63.6925 108.629C64.0639 108.814 64.4353 108.629 64.8067 108.443C65.1781 108.257 65.3638 107.886 65.5495 107.7L67.4064 101.387C72.9772 102.872 78.3623 103.058 84.1187 101.758L85.6043 108.257C85.79 108.814 86.347 109.371 86.9041 109.371C87.0898 109.371 87.0898 109.371 87.2755 109.371C95.2603 107.514 101.945 103.801 107.887 98.0443C108.444 97.4872 108.444 96.5588 107.887 96.0017L103.245 91.1738C107.33 87.0886 110.116 82.4463 111.973 77.0613L118.286 78.9182C118.658 79.1039 119.029 78.9182 119.4 78.7325C119.772 78.5469 119.957 78.1755 120.143 77.9898C122.371 69.6337 122.557 62.2061 120.514 54.2215ZM117.729 75.5758L111.416 73.7189C111.044 73.5332 110.673 73.7189 110.301 73.9046C109.93 74.0903 109.744 74.4617 109.559 74.6474C107.702 80.7751 104.916 85.4174 100.274 89.8739C99.7169 90.431 99.7169 91.3595 100.274 91.9165L104.731 96.7445C99.7169 101.387 94.3318 104.172 87.8326 106.029L86.347 99.5298C86.1613 98.9727 85.6043 98.4157 85.0472 98.4157C84.8615 98.4157 84.8615 98.4157 84.6758 98.4157C78.3623 99.9012 72.9772 99.7155 66.8493 98.0443C66.4779 97.8586 66.1066 98.0443 65.7352 98.23C65.3638 98.4157 65.1781 98.787 64.9924 98.9727L63.1355 105.286C56.6362 103.244 51.4368 100.087 46.6088 95.2589L51.4368 90.8024C51.9939 90.2453 51.9939 89.3169 51.4368 88.7598C46.9802 84.1175 44.3805 79.2896 42.895 72.9762C42.895 72.6048 42.5236 72.2334 42.3379 72.0477C41.9665 71.862 41.5951 71.862 41.2237 71.862L34.7245 73.3475C33.4247 66.8484 33.6104 60.7206 35.2816 54.0358L41.5951 55.8927C41.9665 56.0784 42.3379 55.8927 42.7093 55.707C43.0807 55.5213 43.2664 55.1499 43.4521 54.9642C45.309 48.8365 48.0944 44.1942 52.7367 39.7376C53.2938 39.1806 53.2938 38.2521 52.7367 37.6951L48.2801 32.8671C53.2938 28.2249 58.6788 25.4395 65.1781 23.5826L66.6636 30.0818C66.6636 30.4532 67.035 30.8245 67.2207 31.0102C67.5921 31.1959 67.9635 31.1959 68.3349 31.1959C74.6484 29.7104 80.0335 29.8961 86.1613 31.5673C86.5327 31.753 86.9041 31.5673 87.2755 31.3816C87.6469 31.1959 87.8326 30.8245 88.0183 30.6388L89.8752 24.3254C96.3744 26.368 101.574 29.5247 106.402 34.3526L101.574 38.9949C101.017 39.552 101.017 40.4804 101.574 41.0375C106.03 45.6797 108.63 50.5077 110.116 56.8211C110.301 57.5639 111.044 57.9353 111.787 57.9353L118.286 56.4497C119.586 62.7632 119.4 68.891 117.729 75.5758Z" fill="#740B99"/>
</svg>
