<svg width="122" height="109" viewBox="0 0 122 109" fill="none" xmlns="http://www.w3.org/2000/svg">
<g clip-path="url(#clip0)">
<path d="M60.4432 51.2504C60.6286 51.2504 60.814 51.4361 60.9994 51.4361C61.3702 51.4361 61.7411 51.2504 61.9265 51.0647L96.4128 16.5264C96.5982 16.3407 96.7836 15.9693 96.7836 15.598C96.7836 15.2266 96.5982 14.8552 96.4128 14.6695C87.6985 5.75639 77.6863 1.11414 65.4493 0C65.0784 0 64.7076 0 64.5222 0.37138C64.1514 0.55707 64.1514 0.92845 63.966 1.29983L59.7016 49.9506C59.5161 50.5077 59.887 51.0647 60.4432 51.2504ZM66.5617 2.97104C76.9447 4.08518 85.8444 8.35605 93.4462 15.598L62.6681 46.2368L66.5617 2.97104Z" fill="#740B99"/>
<path d="M99.1947 67.9626C99.0093 67.4055 98.6384 67.0341 98.0822 66.8484L56.5503 58.6781C55.8087 58.4924 55.067 59.0495 54.8816 59.7922C54.6962 60.535 55.2524 61.2777 55.9941 61.4634L96.0427 69.4481C90.8512 93.2164 67.8603 109.186 43.5716 105.658C30.9637 103.986 19.8391 97.4873 12.2372 87.2743C4.63541 77.2471 1.48344 64.6202 3.15213 52.1789C5.00623 38.4379 12.9789 26.1823 24.8451 18.7547C33.1886 13.3697 42.8299 10.9558 52.8421 11.5128L50.8026 33.9813L48.9485 54.5929C48.9485 55.3357 49.5047 56.0784 50.2464 56.0784C50.2464 56.0784 50.2464 56.0784 50.4318 56.0784C51.1734 56.0784 51.7296 55.5213 51.7296 54.7786L53.3983 35.4668L55.6232 10.3987C55.6232 10.0273 55.6232 9.65592 55.2524 9.47023C55.067 9.09885 54.6962 9.09885 54.3254 8.91316C43.3862 7.98471 32.6324 10.5844 23.3619 16.5265C10.9394 24.1397 2.5959 37.138 0.556384 51.8075C-1.29772 64.9915 2.03967 78.3612 10.1977 88.9455C18.1704 99.7156 30.0366 106.586 43.2008 108.443C45.6111 108.814 47.836 109 50.2464 109C73.7935 109 94.7448 92.288 99.3801 68.5196C99.3801 68.334 99.3801 68.1483 99.1947 67.9626Z" fill="#740B99"/>
<path d="M107.167 17.4549C106.611 16.8978 105.684 16.8978 105.127 17.4549L70.8264 51.9932C70.4556 52.3646 70.2701 52.9217 70.4555 53.4788C70.641 54.0358 71.0118 54.4072 71.568 54.4072L119.775 61.2777H119.96C120.331 61.2777 120.516 61.092 120.887 60.9064C121.258 60.7207 121.443 60.3493 121.443 59.9779C123.668 43.6372 118.848 28.9677 107.167 17.4549ZM118.848 58.121L74.72 51.9932L106.24 20.426C116.066 30.8246 120.516 43.8229 118.848 58.121Z" fill="#740B99"/>
</g>
<defs>
<clipPath id="clip0">
<rect width="122" height="109" fill="white"/>
</clipPath>
</defs>
</svg>
