<svg width="386" height="386" viewBox="0 0 386 386" fill="none" xmlns="http://www.w3.org/2000/svg">
<line x1="194.379" y1="10.6914" x2="194.379" y2="271.212" stroke="#740B99" stroke-opacity="0.2"/>
<line x1="376.738" y1="194.053" x2="11.0174" y2="194.053" stroke="#740B99" stroke-opacity="0.2"/>
<line x1="323.533" y1="64.6036" x2="64.9295" y2="323.207" stroke="#740B99" stroke-opacity="0.2"/>
<line x1="322.826" y1="323.207" x2="64.2224" y2="64.6034" stroke="#740B99" stroke-opacity="0.2"/>
<path opacity="0.2" fill-rule="evenodd" clip-rule="evenodd" d="M193.878 376.412C294.869 376.412 376.738 294.543 376.738 193.552C376.738 92.5608 294.869 10.6914 193.878 10.6914C92.887 10.6914 11.0176 92.5608 11.0176 193.552C11.0176 294.543 92.887 376.412 193.878 376.412Z" fill="url(#paint0_linear)"/>
<path opacity="0.4" fill-rule="evenodd" clip-rule="evenodd" d="M193.883 326.953C267.556 326.953 327.281 267.228 327.281 193.554C327.281 119.881 267.556 60.1562 193.883 60.1562C120.209 60.1562 60.4844 119.881 60.4844 193.554C60.4844 267.228 120.209 326.953 193.883 326.953Z" fill="url(#paint1_linear)"/>
<path fill-rule="evenodd" clip-rule="evenodd" d="M193.894 271.485C236.939 271.485 271.834 236.589 271.834 193.544C271.834 150.499 236.939 115.604 193.894 115.604C150.848 115.604 115.953 150.499 115.953 193.544C115.953 236.589 150.848 271.485 193.894 271.485Z" fill="url(#paint2_linear)"/>
<circle cx="194.154" cy="10.4158" r="3.57982" fill="#740B99"/>
<path opacity="0.2" fill-rule="evenodd" clip-rule="evenodd" d="M194.156 19.504C199.48 19.504 203.795 15.1886 203.795 9.86529C203.795 4.54197 199.48 0.226562 194.156 0.226562C188.833 0.226562 184.518 4.54197 184.518 9.86529C184.518 15.1886 188.833 19.504 194.156 19.504Z" fill="url(#paint3_linear)"/>
<path opacity="0.4" fill-rule="evenodd" clip-rule="evenodd" d="M194.157 16.897C198.04 16.897 201.188 13.7489 201.188 9.86551C201.188 5.98211 198.04 2.83398 194.157 2.83398C190.273 2.83398 187.125 5.98211 187.125 9.86551C187.125 13.7489 190.273 16.897 194.157 16.897Z" fill="url(#paint4_linear)"/>
<path fill-rule="evenodd" clip-rule="evenodd" d="M194.157 13.9744C196.426 13.9744 198.265 12.1351 198.265 9.86612C198.265 7.59717 196.426 5.75781 194.157 5.75781C191.888 5.75781 190.049 7.59717 190.049 9.86612C190.049 12.1351 191.888 13.9744 194.157 13.9744Z" fill="url(#paint5_linear)"/>
<path opacity="0.2" fill-rule="evenodd" clip-rule="evenodd" d="M64.7188 332.35C70.0421 332.35 74.3575 328.034 74.3575 322.711C74.3575 317.388 70.0421 313.072 64.7188 313.072C59.3955 313.072 55.0801 317.388 55.0801 322.711C55.0801 328.034 59.3955 332.35 64.7188 332.35Z" fill="url(#paint6_linear)"/>
<path opacity="0.4" fill-rule="evenodd" clip-rule="evenodd" d="M64.719 329.743C68.6024 329.743 71.7506 326.595 71.7506 322.711C71.7506 318.828 68.6024 315.68 64.719 315.68C60.8356 315.68 57.6875 318.828 57.6875 322.711C57.6875 326.595 60.8356 329.743 64.719 329.743Z" fill="url(#paint7_linear)"/>
<path fill-rule="evenodd" clip-rule="evenodd" d="M64.7196 326.82C66.9886 326.82 68.8279 324.981 68.8279 322.712C68.8279 320.443 66.9886 318.604 64.7196 318.604C62.4507 318.604 60.6113 320.443 60.6113 322.712C60.6113 324.981 62.4507 326.82 64.7196 326.82Z" fill="url(#paint8_linear)"/>
<path opacity="0.2" fill-rule="evenodd" clip-rule="evenodd" d="M9.64068 203.467C14.964 203.467 19.2794 199.152 19.2794 193.828C19.2794 188.505 14.964 184.189 9.64068 184.189C4.31736 184.189 0.00195312 188.505 0.00195312 193.828C0.00195312 199.152 4.31736 203.467 9.64068 203.467Z" fill="url(#paint9_linear)"/>
<path opacity="0.4" fill-rule="evenodd" clip-rule="evenodd" d="M9.64091 200.86C13.5243 200.86 16.6724 197.712 16.6724 193.828C16.6724 189.945 13.5243 186.797 9.64091 186.797C5.7575 186.797 2.60938 189.945 2.60938 193.828C2.60938 197.712 5.7575 200.86 9.64091 200.86Z" fill="url(#paint10_linear)"/>
<path fill-rule="evenodd" clip-rule="evenodd" d="M9.64151 197.937C11.9105 197.937 13.7498 196.098 13.7498 193.829C13.7498 191.56 11.9105 189.721 9.64151 189.721C7.37256 189.721 5.5332 191.56 5.5332 193.829C5.5332 196.098 7.37256 197.937 9.64151 197.937Z" fill="url(#paint11_linear)"/>
<path opacity="0.2" fill-rule="evenodd" clip-rule="evenodd" d="M64.7188 74.0314C70.0421 74.0314 74.3575 69.716 74.3575 64.3926C74.3575 59.0693 70.0421 54.7539 64.7188 54.7539C59.3955 54.7539 55.0801 59.0693 55.0801 64.3926C55.0801 69.716 59.3955 74.0314 64.7188 74.0314Z" fill="url(#paint12_linear)"/>
<path opacity="0.4" fill-rule="evenodd" clip-rule="evenodd" d="M64.719 71.4244C68.6024 71.4244 71.7506 68.2763 71.7506 64.3929C71.7506 60.5095 68.6024 57.3613 64.719 57.3613C60.8356 57.3613 57.6875 60.5095 57.6875 64.3929C57.6875 68.2763 60.8356 71.4244 64.719 71.4244Z" fill="url(#paint13_linear)"/>
<path fill-rule="evenodd" clip-rule="evenodd" d="M64.7196 68.5018C66.9886 68.5018 68.8279 66.6624 68.8279 64.3935C68.8279 62.1245 66.9886 60.2852 64.7196 60.2852C62.4507 60.2852 60.6113 62.1245 60.6113 64.3935C60.6113 66.6624 62.4507 68.5018 64.7196 68.5018Z" fill="url(#paint14_linear)"/>
<path opacity="0.2" fill-rule="evenodd" clip-rule="evenodd" d="M323.039 74.0314C328.362 74.0314 332.678 69.716 332.678 64.3926C332.678 59.0693 328.362 54.7539 323.039 54.7539C317.716 54.7539 313.4 59.0693 313.4 64.3926C313.4 69.716 317.716 74.0314 323.039 74.0314Z" fill="url(#paint15_linear)"/>
<path opacity="0.4" fill-rule="evenodd" clip-rule="evenodd" d="M323.039 71.4244C326.923 71.4244 330.071 68.2763 330.071 64.3929C330.071 60.5095 326.923 57.3613 323.039 57.3613C319.156 57.3613 316.008 60.5095 316.008 64.3929C316.008 68.2763 319.156 71.4244 323.039 71.4244Z" fill="url(#paint16_linear)"/>
<path fill-rule="evenodd" clip-rule="evenodd" d="M323.04 68.5018C325.309 68.5018 327.148 66.6624 327.148 64.3935C327.148 62.1245 325.309 60.2852 323.04 60.2852C320.771 60.2852 318.932 62.1245 318.932 64.3935C318.932 66.6624 320.771 68.5018 323.04 68.5018Z" fill="url(#paint17_linear)"/>
<path opacity="0.2" fill-rule="evenodd" clip-rule="evenodd" d="M375.363 203.467C380.687 203.467 385.002 199.152 385.002 193.828C385.002 188.505 380.687 184.189 375.363 184.189C370.04 184.189 365.725 188.505 365.725 193.828C365.725 199.152 370.04 203.467 375.363 203.467Z" fill="url(#paint18_linear)"/>
<path opacity="0.4" fill-rule="evenodd" clip-rule="evenodd" d="M375.364 200.86C379.247 200.86 382.395 197.712 382.395 193.828C382.395 189.945 379.247 186.797 375.364 186.797C371.48 186.797 368.332 189.945 368.332 193.828C368.332 197.712 371.48 200.86 375.364 200.86Z" fill="url(#paint19_linear)"/>
<path fill-rule="evenodd" clip-rule="evenodd" d="M375.364 197.937C377.633 197.937 379.472 196.098 379.472 193.829C379.472 191.56 377.633 189.721 375.364 189.721C373.095 189.721 371.256 191.56 371.256 193.829C371.256 196.098 373.095 197.937 375.364 197.937Z" fill="url(#paint20_linear)"/>
<path opacity="0.2" fill-rule="evenodd" clip-rule="evenodd" d="M322.488 332.901C327.812 332.901 332.127 328.585 332.127 323.262C332.127 317.938 327.812 313.623 322.488 313.623C317.165 313.623 312.85 317.938 312.85 323.262C312.85 328.585 317.165 332.901 322.488 332.901Z" fill="url(#paint21_linear)"/>
<path opacity="0.4" fill-rule="evenodd" clip-rule="evenodd" d="M322.489 330.294C326.372 330.294 329.52 327.145 329.52 323.262C329.52 319.379 326.372 316.23 322.489 316.23C318.605 316.23 315.457 319.379 315.457 323.262C315.457 327.145 318.605 330.294 322.489 330.294Z" fill="url(#paint22_linear)"/>
<path fill-rule="evenodd" clip-rule="evenodd" d="M322.489 327.371C324.758 327.371 326.597 325.532 326.597 323.263C326.597 320.994 324.758 319.154 322.489 319.154C320.22 319.154 318.381 320.994 318.381 323.263C318.381 325.532 320.22 327.371 322.489 327.371Z" fill="url(#paint23_linear)"/>
<circle cx="64.7185" cy="64.3923" r="3.57982" fill="#740B99"/>
<circle cx="9.64037" cy="193.826" r="3.57982" fill="#740B99"/>
<circle cx="64.7185" cy="322.711" r="3.57982" fill="#740B99"/>
<circle cx="322.489" cy="323.262" r="3.57982" transform="rotate(-180 322.489 323.262)" fill="#740B99"/>
<defs>
<linearGradient id="paint0_linear" x1="-173.532" y1="190.173" x2="193.878" y2="553.143" gradientUnits="userSpaceOnUse">
<stop stop-color="#FBB63F"/>
<stop offset="0.981306" stop-color="#B069A1"/>
</linearGradient>
<linearGradient id="paint1_linear" x1="-74.1463" y1="191.089" x2="193.883" y2="455.879" gradientUnits="userSpaceOnUse">
<stop stop-color="#FBB63F"/>
<stop offset="0.981306" stop-color="#B069A1"/>
</linearGradient>
<linearGradient id="paint2_linear" x1="37.2925" y1="192.104" x2="193.894" y2="346.813" gradientUnits="userSpaceOnUse">
<stop stop-color="#FBB63F"/>
<stop offset="0.981306" stop-color="#B069A1"/>
</linearGradient>
<linearGradient id="paint3_linear" x1="175.698" y1="10.1385" x2="194.429" y2="28.8696" gradientUnits="userSpaceOnUse">
<stop stop-color="#7D15A1"/>
<stop offset="1" stop-color="#B675A8"/>
</linearGradient>
<linearGradient id="paint4_linear" x1="180.691" y1="10.0648" x2="194.356" y2="23.7293" gradientUnits="userSpaceOnUse">
<stop stop-color="#7D15A1"/>
<stop offset="1" stop-color="#B675A8"/>
</linearGradient>
<linearGradient id="paint5_linear" x1="186.29" y1="9.98255" x2="194.274" y2="17.9663" gradientUnits="userSpaceOnUse">
<stop stop-color="#7D15A1"/>
<stop offset="1" stop-color="#B675A8"/>
</linearGradient>
<linearGradient id="paint6_linear" x1="46.2608" y1="322.984" x2="64.992" y2="341.715" gradientUnits="userSpaceOnUse">
<stop stop-color="#7D15A1"/>
<stop offset="1" stop-color="#B675A8"/>
</linearGradient>
<linearGradient id="paint7_linear" x1="51.2538" y1="322.91" x2="64.9183" y2="336.575" gradientUnits="userSpaceOnUse">
<stop stop-color="#7D15A1"/>
<stop offset="1" stop-color="#B675A8"/>
</linearGradient>
<linearGradient id="paint8_linear" x1="56.8523" y1="322.828" x2="64.8361" y2="330.812" gradientUnits="userSpaceOnUse">
<stop stop-color="#7D15A1"/>
<stop offset="1" stop-color="#B675A8"/>
</linearGradient>
<linearGradient id="paint9_linear" x1="-8.81728" y1="194.101" x2="9.91384" y2="212.832" gradientUnits="userSpaceOnUse">
<stop stop-color="#7D15A1"/>
<stop offset="1" stop-color="#B675A8"/>
</linearGradient>
<linearGradient id="paint10_linear" x1="-3.82433" y1="194.028" x2="9.84018" y2="207.692" gradientUnits="userSpaceOnUse">
<stop stop-color="#7D15A1"/>
<stop offset="1" stop-color="#B675A8"/>
</linearGradient>
<linearGradient id="paint11_linear" x1="1.77418" y1="193.945" x2="9.75795" y2="201.929" gradientUnits="userSpaceOnUse">
<stop stop-color="#7D15A1"/>
<stop offset="1" stop-color="#B675A8"/>
</linearGradient>
<linearGradient id="paint12_linear" x1="46.2608" y1="64.6658" x2="64.992" y2="83.3969" gradientUnits="userSpaceOnUse">
<stop stop-color="#7D15A1"/>
<stop offset="1" stop-color="#B675A8"/>
</linearGradient>
<linearGradient id="paint13_linear" x1="51.2538" y1="64.5921" x2="64.9183" y2="78.2566" gradientUnits="userSpaceOnUse">
<stop stop-color="#7D15A1"/>
<stop offset="1" stop-color="#B675A8"/>
</linearGradient>
<linearGradient id="paint14_linear" x1="56.8523" y1="64.5099" x2="64.8361" y2="72.4937" gradientUnits="userSpaceOnUse">
<stop stop-color="#7D15A1"/>
<stop offset="1" stop-color="#B675A8"/>
</linearGradient>
<linearGradient id="paint15_linear" x1="304.581" y1="64.6658" x2="323.312" y2="83.3969" gradientUnits="userSpaceOnUse">
<stop stop-color="#7D15A1"/>
<stop offset="1" stop-color="#B675A8"/>
</linearGradient>
<linearGradient id="paint16_linear" x1="309.574" y1="64.5921" x2="323.239" y2="78.2566" gradientUnits="userSpaceOnUse">
<stop stop-color="#7D15A1"/>
<stop offset="1" stop-color="#B675A8"/>
</linearGradient>
<linearGradient id="paint17_linear" x1="315.173" y1="64.5099" x2="323.156" y2="72.4937" gradientUnits="userSpaceOnUse">
<stop stop-color="#7D15A1"/>
<stop offset="1" stop-color="#B675A8"/>
</linearGradient>
<linearGradient id="paint18_linear" x1="356.905" y1="194.101" x2="375.637" y2="212.832" gradientUnits="userSpaceOnUse">
<stop stop-color="#7D15A1"/>
<stop offset="1" stop-color="#B675A8"/>
</linearGradient>
<linearGradient id="paint19_linear" x1="361.898" y1="194.028" x2="375.563" y2="207.692" gradientUnits="userSpaceOnUse">
<stop stop-color="#7D15A1"/>
<stop offset="1" stop-color="#B675A8"/>
</linearGradient>
<linearGradient id="paint20_linear" x1="367.497" y1="193.945" x2="375.481" y2="201.929" gradientUnits="userSpaceOnUse">
<stop stop-color="#7D15A1"/>
<stop offset="1" stop-color="#B675A8"/>
</linearGradient>
<linearGradient id="paint21_linear" x1="304.03" y1="323.535" x2="322.762" y2="342.266" gradientUnits="userSpaceOnUse">
<stop stop-color="#7D15A1"/>
<stop offset="1" stop-color="#B675A8"/>
</linearGradient>
<linearGradient id="paint22_linear" x1="309.023" y1="323.461" x2="322.688" y2="337.126" gradientUnits="userSpaceOnUse">
<stop stop-color="#7D15A1"/>
<stop offset="1" stop-color="#B675A8"/>
</linearGradient>
<linearGradient id="paint23_linear" x1="314.622" y1="323.379" x2="322.606" y2="331.363" gradientUnits="userSpaceOnUse">
<stop stop-color="#7D15A1"/>
<stop offset="1" stop-color="#B675A8"/>
</linearGradient>
</defs>
</svg>
