<svg width="705" height="514" viewBox="0 0 705 514" fill="none" xmlns="http://www.w3.org/2000/svg">
<path d="M239 21C262.118 21 290.456 27.3007 290.456 96.4156C290.456 118.014 274.05 165 304.625 165" stroke="#740B99"/>
<path d="M240.172 308C261.533 308 290.629 301.743 290.629 233.108C290.629 211.66 274.424 165 304.625 165" stroke="#740B99"/>
<path d="M314 165L309 162.113V167.887L314 165ZM309.5 164.5H306.969V165.5H309.5V164.5ZM306.969 164.5H299.938V165.5H306.969V164.5Z" fill="#740B99"/>
<path d="M603 376L605.887 371H600.113L603 376ZM603.5 371.5V336.5H602.5V371.5H603.5ZM603.5 336.5V297H602.5V336.5H603.5Z" fill="#740B99"/>
<path d="M439 48L434 45.1132V50.8868L439 48ZM434.5 47.5H433V48.5H434.5V47.5ZM433 47.5H427V48.5H433V47.5Z" fill="#740B99"/>
<path d="M428 48H366C360.477 48 356 52.4772 356 58V105" stroke="#740B99"/>
<path d="M679 107L684 109.887V104.113L679 107ZM683.5 107.5H685V106.5H683.5V107.5ZM685 107.5H691V106.5H685V107.5Z" fill="#740B99"/>
<path d="M687.465 107L694 107C699.523 107 704 102.523 704 97L704 58C704 52.4772 699.523 48 694 48L639 48" stroke="#740B99"/>
<path d="M679 220L684 222.887V217.113L679 220ZM683.5 220.5H685V219.5H683.5V220.5ZM685 220.5H691V219.5H685V220.5Z" fill="#740B99"/>
<path d="M687.465 220L694 220C699.523 220 704 215.523 704 210L704 173C704 167.477 699.523 163 694 163L639 163" stroke="#740B99"/>
<path d="M445 165L440 167.887V162.113L445 165ZM440.5 165.5H439V164.5H440.5V165.5ZM439 165.5H433V164.5H439V165.5Z" fill="#740B99"/>
<path d="M435.5 165L431 165C425.477 165 421 160.523 421 155L421 118C421 112.477 425.477 108 431 108L478 108" stroke="#740B99"/>
<path d="M445 276L440 278.887V273.113L445 276ZM440.5 276.5H439V275.5H440.5V276.5ZM439 276.5H433V275.5H439V276.5Z" fill="#740B99"/>
<path d="M435.5 276L431 276C425.477 276 421 271.523 421 266L421 230C421 224.477 425.477 220 431 220L478 220" stroke="#740B99"/>
<path d="M116 415L364 415" stroke="#740B99"/>
<path d="M97 470H552" stroke="#740B99"/>
<path d="M51 422L51 468" stroke="#740B99"/>
<path d="M499 414L504 416.887L504 411.113L499 414ZM503.5 414.5L525 414.5L525 413.5L503.5 413.5L503.5 414.5ZM525 414.5L551 414.5L551 413.5L525 413.5L525 414.5Z" fill="#740B99"/>
<rect x="453.5" y="21.5" width="217" height="52" rx="7.5" fill="white" stroke="#740B99"/>
<rect x="453.738" y="84.3398" width="216.483" height="45.0436" rx="7.5" fill="white" stroke="#740B99"/>
<rect x="453.738" y="140.18" width="216.483" height="45.0436" rx="7.5" fill="white" stroke="#740B99"/>
<rect x="453.738" y="196.02" width="216.483" height="45.0436" rx="7.5" fill="white" stroke="#740B99"/>
<rect x="453.738" y="251.861" width="216.483" height="45" rx="7.5" fill="white" stroke="#740B99"/>
<rect x="333" y="63" width="47" height="204" rx="8" fill="url(#paint0_linear)"/>
<g filter="url(#filter0_d)">
<rect x="249" y="392" width="107" height="42" rx="8" fill="white"/>
</g>
<path opacity="0.2" fill-rule="evenodd" clip-rule="evenodd" d="M280 422C284.418 422 288 418.418 288 414C288 409.582 284.418 406 280 406C275.582 406 272 409.582 272 414C272 418.418 275.582 422 280 422Z" fill="#FBB63F"/>
<path opacity="0.4" fill-rule="evenodd" clip-rule="evenodd" d="M280 419.836C283.223 419.836 285.836 417.223 285.836 414C285.836 410.777 283.223 408.164 280 408.164C276.777 408.164 274.164 410.777 274.164 414C274.164 417.223 276.777 419.836 280 419.836Z" fill="#FBB63F"/>
<path fill-rule="evenodd" clip-rule="evenodd" d="M280.002 417.41C281.885 417.41 283.411 415.883 283.411 414C283.411 412.116 281.885 410.59 280.002 410.59C278.118 410.59 276.592 412.116 276.592 414C276.592 415.883 278.118 417.41 280.002 417.41Z" fill="#FBB63F"/>
<g filter="url(#filter1_d)">
<rect x="20" y="447" width="114" height="42" rx="8" fill="white"/>
</g>
<path opacity="0.2" fill-rule="evenodd" clip-rule="evenodd" d="M52 477C56.4183 477 60 473.418 60 469C60 464.582 56.4183 461 52 461C47.5817 461 44 464.582 44 469C44 473.418 47.5817 477 52 477Z" fill="#FBB63F"/>
<path opacity="0.4" fill-rule="evenodd" clip-rule="evenodd" d="M52.0001 474.836C55.2233 474.836 57.8362 472.223 57.8362 469C57.8362 465.777 55.2233 463.164 52.0001 463.164C48.777 463.164 46.1641 465.777 46.1641 469C46.1641 472.223 48.777 474.836 52.0001 474.836Z" fill="#FBB63F"/>
<path fill-rule="evenodd" clip-rule="evenodd" d="M52.0016 472.41C53.8848 472.41 55.4115 470.883 55.4115 469C55.4115 467.116 53.8848 465.59 52.0016 465.59C50.1184 465.59 48.5918 467.116 48.5918 469C48.5918 470.883 50.1184 472.41 52.0016 472.41Z" fill="#FBB63F"/>
<g filter="url(#filter2_d)">
<rect x="133" y="392" width="109" height="42" rx="8" fill="white"/>
</g>
<path opacity="0.2" fill-rule="evenodd" clip-rule="evenodd" d="M164 422C168.418 422 172 418.418 172 414C172 409.582 168.418 406 164 406C159.582 406 156 409.582 156 414C156 418.418 159.582 422 164 422Z" fill="#FBB63F"/>
<path opacity="0.4" fill-rule="evenodd" clip-rule="evenodd" d="M164 419.836C167.223 419.836 169.836 417.223 169.836 414C169.836 410.777 167.223 408.164 164 408.164C160.777 408.164 158.164 410.777 158.164 414C158.164 417.223 160.777 419.836 164 419.836Z" fill="#FBB63F"/>
<path fill-rule="evenodd" clip-rule="evenodd" d="M164.002 417.41C165.885 417.41 167.411 415.883 167.411 414C167.411 412.116 165.885 410.59 164.002 410.59C162.118 410.59 160.592 412.116 160.592 414C160.592 415.883 162.118 417.41 164.002 417.41Z" fill="#FBB63F"/>
<g filter="url(#filter3_d)">
<rect x="20" y="392" width="106" height="42" rx="8" fill="white"/>
</g>
<path opacity="0.2" fill-rule="evenodd" clip-rule="evenodd" d="M51 422C55.4183 422 59 418.418 59 414C59 409.582 55.4183 406 51 406C46.5817 406 43 409.582 43 414C43 418.418 46.5817 422 51 422Z" fill="#FBB63F"/>
<path opacity="0.4" fill-rule="evenodd" clip-rule="evenodd" d="M51.0001 419.836C54.2233 419.836 56.8362 417.223 56.8362 414C56.8362 410.777 54.2233 408.164 51.0001 408.164C47.777 408.164 45.1641 410.777 45.1641 414C45.1641 417.223 47.777 419.836 51.0001 419.836Z" fill="#FBB63F"/>
<path fill-rule="evenodd" clip-rule="evenodd" d="M51.0016 417.41C52.8848 417.41 54.4115 415.883 54.4115 414C54.4115 412.116 52.8848 410.59 51.0016 410.59C49.1184 410.59 47.5918 412.116 47.5918 414C47.5918 415.883 49.1184 417.41 51.0016 417.41Z" fill="#FBB63F"/>
<g filter="url(#filter4_d)">
<rect x="142" y="448" width="114" height="42" rx="8" fill="white"/>
</g>
<path opacity="0.2" fill-rule="evenodd" clip-rule="evenodd" d="M173 478C177.418 478 181 474.418 181 470C181 465.582 177.418 462 173 462C168.582 462 165 465.582 165 470C165 474.418 168.582 478 173 478Z" fill="#FBB63F"/>
<path opacity="0.4" fill-rule="evenodd" clip-rule="evenodd" d="M173 475.836C176.223 475.836 178.836 473.223 178.836 470C178.836 466.777 176.223 464.164 173 464.164C169.777 464.164 167.164 466.777 167.164 470C167.164 473.223 169.777 475.836 173 475.836Z" fill="#FBB63F"/>
<path fill-rule="evenodd" clip-rule="evenodd" d="M173.002 473.41C174.885 473.41 176.411 471.883 176.411 470C176.411 468.116 174.885 466.59 173.002 466.59C171.118 466.59 169.592 468.116 169.592 470C169.592 471.883 171.118 473.41 173.002 473.41Z" fill="#FBB63F"/>
<g filter="url(#filter5_d)">
<rect x="418" y="448" width="196" height="42" rx="8" fill="white"/>
</g>
<path opacity="0.2" fill-rule="evenodd" clip-rule="evenodd" d="M453 478C457.418 478 461 474.418 461 470C461 465.582 457.418 462 453 462C448.582 462 445 465.582 445 470C445 474.418 448.582 478 453 478Z" fill="#FBB63F"/>
<path opacity="0.4" fill-rule="evenodd" clip-rule="evenodd" d="M453 475.836C456.223 475.836 458.836 473.223 458.836 470C458.836 466.777 456.223 464.164 453 464.164C449.777 464.164 447.164 466.777 447.164 470C447.164 473.223 449.777 475.836 453 475.836Z" fill="#FBB63F"/>
<path fill-rule="evenodd" clip-rule="evenodd" d="M453.002 473.41C454.885 473.41 456.411 471.883 456.411 470C456.411 468.116 454.885 466.59 453.002 466.59C451.118 466.59 449.592 468.116 449.592 470C449.592 471.883 451.118 473.41 453.002 473.41Z" fill="#FBB63F"/>
<g filter="url(#filter6_d)">
<rect x="264" y="448" width="146" height="42" rx="8" fill="white"/>
</g>
<path opacity="0.2" fill-rule="evenodd" clip-rule="evenodd" d="M294 478C298.418 478 302 474.418 302 470C302 465.582 298.418 462 294 462C289.582 462 286 465.582 286 470C286 474.418 289.582 478 294 478Z" fill="#FBB63F"/>
<path opacity="0.4" fill-rule="evenodd" clip-rule="evenodd" d="M294 475.836C297.223 475.836 299.836 473.223 299.836 470C299.836 466.777 297.223 464.164 294 464.164C290.777 464.164 288.164 466.777 288.164 470C288.164 473.223 290.777 475.836 294 475.836Z" fill="#FBB63F"/>
<path fill-rule="evenodd" clip-rule="evenodd" d="M294.002 473.41C295.885 473.41 297.411 471.883 297.411 470C297.411 468.116 295.885 466.59 294.002 466.59C292.118 466.59 290.592 468.116 290.592 470C290.592 471.883 292.118 473.41 294.002 473.41Z" fill="#FBB63F"/>
<rect x="690" y="390" width="47" height="174" rx="8" transform="rotate(90 690 390)" fill="url(#paint1_linear)"/>
<rect x="22.5" y="0.5" width="221" height="46" rx="7.5" fill="white" stroke="#740B99"/>
<rect x="22.5" y="57.5" width="221" height="46" rx="7.5" fill="white" stroke="#740B99"/>
<rect x="22.5" y="114.5" width="221" height="46" rx="7.5" fill="white" stroke="#740B99"/>
<rect x="22.5" y="171.5" width="221" height="46" rx="7.5" fill="white" stroke="#740B99"/>
<rect x="22.5" y="228.5" width="221" height="46" rx="7.5" fill="white" stroke="#740B99"/>
<rect x="22.5" y="285.5" width="221" height="46" rx="7.5" fill="white" stroke="#740B99"/>
<g filter="url(#filter7_d)">
<rect x="363" y="391" width="129" height="47" rx="8" fill="#FBB63F"/>
</g>
<defs>
<filter id="filter0_d" x="229" y="376" width="147" height="82" filterUnits="userSpaceOnUse" color-interpolation-filters="sRGB">
<feFlood flood-opacity="0" result="BackgroundImageFix"/>
<feColorMatrix in="SourceAlpha" type="matrix" values="0 0 0 0 0 0 0 0 0 0 0 0 0 0 0 0 0 0 127 0"/>
<feOffset dy="4"/>
<feGaussianBlur stdDeviation="10"/>
<feColorMatrix type="matrix" values="0 0 0 0 0 0 0 0 0 0 0 0 0 0 0 0 0 0 0.1 0"/>
<feBlend mode="normal" in2="BackgroundImageFix" result="effect1_dropShadow"/>
<feBlend mode="normal" in="SourceGraphic" in2="effect1_dropShadow" result="shape"/>
</filter>
<filter id="filter1_d" x="0" y="431" width="154" height="82" filterUnits="userSpaceOnUse" color-interpolation-filters="sRGB">
<feFlood flood-opacity="0" result="BackgroundImageFix"/>
<feColorMatrix in="SourceAlpha" type="matrix" values="0 0 0 0 0 0 0 0 0 0 0 0 0 0 0 0 0 0 127 0"/>
<feOffset dy="4"/>
<feGaussianBlur stdDeviation="10"/>
<feColorMatrix type="matrix" values="0 0 0 0 0 0 0 0 0 0 0 0 0 0 0 0 0 0 0.1 0"/>
<feBlend mode="normal" in2="BackgroundImageFix" result="effect1_dropShadow"/>
<feBlend mode="normal" in="SourceGraphic" in2="effect1_dropShadow" result="shape"/>
</filter>
<filter id="filter2_d" x="113" y="376" width="149" height="82" filterUnits="userSpaceOnUse" color-interpolation-filters="sRGB">
<feFlood flood-opacity="0" result="BackgroundImageFix"/>
<feColorMatrix in="SourceAlpha" type="matrix" values="0 0 0 0 0 0 0 0 0 0 0 0 0 0 0 0 0 0 127 0"/>
<feOffset dy="4"/>
<feGaussianBlur stdDeviation="10"/>
<feColorMatrix type="matrix" values="0 0 0 0 0 0 0 0 0 0 0 0 0 0 0 0 0 0 0.1 0"/>
<feBlend mode="normal" in2="BackgroundImageFix" result="effect1_dropShadow"/>
<feBlend mode="normal" in="SourceGraphic" in2="effect1_dropShadow" result="shape"/>
</filter>
<filter id="filter3_d" x="0" y="376" width="146" height="82" filterUnits="userSpaceOnUse" color-interpolation-filters="sRGB">
<feFlood flood-opacity="0" result="BackgroundImageFix"/>
<feColorMatrix in="SourceAlpha" type="matrix" values="0 0 0 0 0 0 0 0 0 0 0 0 0 0 0 0 0 0 127 0"/>
<feOffset dy="4"/>
<feGaussianBlur stdDeviation="10"/>
<feColorMatrix type="matrix" values="0 0 0 0 0 0 0 0 0 0 0 0 0 0 0 0 0 0 0.1 0"/>
<feBlend mode="normal" in2="BackgroundImageFix" result="effect1_dropShadow"/>
<feBlend mode="normal" in="SourceGraphic" in2="effect1_dropShadow" result="shape"/>
</filter>
<filter id="filter4_d" x="122" y="432" width="154" height="82" filterUnits="userSpaceOnUse" color-interpolation-filters="sRGB">
<feFlood flood-opacity="0" result="BackgroundImageFix"/>
<feColorMatrix in="SourceAlpha" type="matrix" values="0 0 0 0 0 0 0 0 0 0 0 0 0 0 0 0 0 0 127 0"/>
<feOffset dy="4"/>
<feGaussianBlur stdDeviation="10"/>
<feColorMatrix type="matrix" values="0 0 0 0 0 0 0 0 0 0 0 0 0 0 0 0 0 0 0.1 0"/>
<feBlend mode="normal" in2="BackgroundImageFix" result="effect1_dropShadow"/>
<feBlend mode="normal" in="SourceGraphic" in2="effect1_dropShadow" result="shape"/>
</filter>
<filter id="filter5_d" x="398" y="432" width="236" height="82" filterUnits="userSpaceOnUse" color-interpolation-filters="sRGB">
<feFlood flood-opacity="0" result="BackgroundImageFix"/>
<feColorMatrix in="SourceAlpha" type="matrix" values="0 0 0 0 0 0 0 0 0 0 0 0 0 0 0 0 0 0 127 0"/>
<feOffset dy="4"/>
<feGaussianBlur stdDeviation="10"/>
<feColorMatrix type="matrix" values="0 0 0 0 0 0 0 0 0 0 0 0 0 0 0 0 0 0 0.1 0"/>
<feBlend mode="normal" in2="BackgroundImageFix" result="effect1_dropShadow"/>
<feBlend mode="normal" in="SourceGraphic" in2="effect1_dropShadow" result="shape"/>
</filter>
<filter id="filter6_d" x="244" y="432" width="186" height="82" filterUnits="userSpaceOnUse" color-interpolation-filters="sRGB">
<feFlood flood-opacity="0" result="BackgroundImageFix"/>
<feColorMatrix in="SourceAlpha" type="matrix" values="0 0 0 0 0 0 0 0 0 0 0 0 0 0 0 0 0 0 127 0"/>
<feOffset dy="4"/>
<feGaussianBlur stdDeviation="10"/>
<feColorMatrix type="matrix" values="0 0 0 0 0 0 0 0 0 0 0 0 0 0 0 0 0 0 0.1 0"/>
<feBlend mode="normal" in2="BackgroundImageFix" result="effect1_dropShadow"/>
<feBlend mode="normal" in="SourceGraphic" in2="effect1_dropShadow" result="shape"/>
</filter>
<filter id="filter7_d" x="343" y="375" width="169" height="87" filterUnits="userSpaceOnUse" color-interpolation-filters="sRGB">
<feFlood flood-opacity="0" result="BackgroundImageFix"/>
<feColorMatrix in="SourceAlpha" type="matrix" values="0 0 0 0 0 0 0 0 0 0 0 0 0 0 0 0 0 0 127 0"/>
<feOffset dy="4"/>
<feGaussianBlur stdDeviation="10"/>
<feColorMatrix type="matrix" values="0 0 0 0 0 0 0 0 0 0 0 0 0 0 0 0 0 0 0.1 0"/>
<feBlend mode="normal" in2="BackgroundImageFix" result="effect1_dropShadow"/>
<feBlend mode="normal" in="SourceGraphic" in2="effect1_dropShadow" result="shape"/>
</filter>
<linearGradient id="paint0_linear" x1="443" y1="-125.172" x2="613.448" y2="23.0485" gradientUnits="userSpaceOnUse">
<stop stop-color="#FBB63F"/>
<stop offset="0.981306" stop-color="#B069A1"/>
</linearGradient>
<linearGradient id="paint1_linear" x1="800" y1="229.5" x2="946.776" y2="379.142" gradientUnits="userSpaceOnUse">
<stop stop-color="#FBB63F"/>
<stop offset="0.981306" stop-color="#B069A1"/>
</linearGradient>
</defs>
</svg>
