<svg width="459" height="433" viewBox="0 0 459 433" fill="none" xmlns="http://www.w3.org/2000/svg">
<path d="M455.694 292.594C454.157 290.778 452.132 289.032 449.547 287.496L252.237 173.649C239.805 166.455 219.41 166.455 206.908 173.649L9.59788 287.566C6.9438 289.102 4.91832 290.778 3.45159 292.664H0.308594V302.442H0.448291C1.14673 306.563 4.21987 310.544 9.66773 313.687L206.978 427.603C219.41 434.797 239.805 434.797 252.307 427.603L449.617 313.687C455.065 310.544 458.138 306.563 458.837 302.442H458.976V292.664H455.694V292.594Z" fill="#827FB5"/>
<path d="M455.694 287.845C454.157 286.029 452.132 289.102 449.547 287.566L252.237 173.649C239.805 166.455 219.41 166.455 206.908 173.649L9.59788 287.566C6.9438 289.102 4.91832 290.778 3.45159 292.664H0.308594V302.442H0.448291C1.14673 306.563 4.21987 310.544 9.66773 313.687L206.978 427.603C219.41 434.797 239.805 434.797 252.307 427.603L449.617 313.687C455.065 310.544 458.138 306.563 458.837 302.442H458.976V287.845H455.694Z" fill="url(#paint0_linear)"/>
<path d="M252.237 414.055C239.805 421.249 219.41 421.249 206.908 414.055L9.59766 300.138C-2.83464 292.945 -2.83464 281.141 9.59766 274.017L206.908 160.101C219.34 152.907 239.735 152.907 252.237 160.101L449.547 274.017C461.979 281.211 461.979 292.945 449.547 300.138L252.237 414.055Z" fill="url(#paint1_linear)"/>
<path d="M252.237 411.889C239.805 419.083 219.41 419.083 206.908 411.889L9.59766 297.972C-2.83464 290.778 -2.83464 278.975 9.59766 271.851L206.908 157.935C219.34 150.741 239.735 150.741 252.237 157.935L449.547 271.851C461.979 279.045 461.979 290.778 449.547 297.972L252.237 411.889Z" fill="#BFBCE0"/>
<path d="M252.237 411.889C239.805 419.083 219.41 419.083 206.908 411.889L9.59766 297.972C-2.83464 290.778 -2.83464 278.975 9.59766 271.851L206.908 157.935C219.34 150.741 239.735 150.741 252.237 157.935L449.547 271.851C461.979 279.045 461.979 290.778 449.547 297.972L252.237 411.889Z" fill="url(#paint2_linear)"/>
<path d="M252.237 411.889C239.805 419.083 219.41 419.083 206.908 411.889L9.59766 297.972C-2.83463 290.778 -2.83463 278.975 9.59766 271.851L206.908 157.935C219.34 150.741 239.735 150.741 252.237 157.935L449.547 271.851C461.979 279.045 461.979 290.778 449.547 297.972L252.237 411.889Z" fill="url(#paint3_linear)"/>
<path d="M249.792 398.2C238.686 404.626 220.457 404.626 209.352 398.2L33.2742 296.577C22.169 290.151 22.169 279.675 33.2742 273.249L209.352 171.556C220.457 165.13 238.686 165.13 249.792 171.556L425.869 273.249C436.974 279.675 436.974 290.151 425.869 296.577L249.792 398.2Z" fill="url(#paint4_linear)"/>
<path d="M381.518 322.209L363.218 332.756V237.069L381.518 247.616V322.209ZM137.761 212.833L119.462 223.38V346.306L137.761 356.852V212.833ZM284.015 191.321L265.716 180.775V389.05L284.015 378.504V191.321ZM332.766 219.468L314.467 208.922V360.903L332.766 350.357V219.468ZM70.7103 318.228L89.0096 328.775V241.05L70.7103 251.597V318.228ZM235.264 167.085C229.117 166.387 222.692 166.806 216.964 168.412V401.343C222.692 402.949 229.117 403.438 235.264 402.67V167.085ZM425.869 273.179L411.9 265.147V304.609L425.869 296.576C436.974 290.151 436.974 279.604 425.869 273.179ZM40.2582 269.128L33.2039 273.179C22.0987 279.604 22.0987 290.081 33.2039 296.507L40.2582 300.558V269.128ZM186.512 184.756L168.213 195.302V374.523L186.512 385.069V184.756Z" fill="url(#paint5_linear)"/>
<path d="M345.967 100.174L176.385 1.69326C173.591 0.0868423 171.077 0.0169893 169.331 1.20434L158.924 5.88392L165.769 16.151V162.405C165.769 168.551 170.099 176.095 175.477 179.168L335.071 271.292L342.964 283.236L351.485 278.836C351.624 278.836 351.764 278.766 351.904 278.766C352.532 278.556 353.161 278.207 353.65 277.718C354.907 276.531 355.675 274.645 355.675 272.061V117.006C355.675 110.86 351.275 103.247 345.967 100.174Z" fill="url(#paint6_linear)"/>
<path d="M346.037 276.88C346.037 283.027 341.707 285.541 336.329 282.468L165.769 183.987C160.461 180.914 156.061 173.371 156.061 167.225V12.1003C156.061 5.95402 160.391 3.43962 165.769 6.51277L336.329 104.993C341.637 108.066 346.037 115.61 346.037 121.756V276.88Z" fill="url(#paint7_linear)"/>
<path d="M347.504 276.39C347.504 282.537 343.174 285.051 337.796 281.978L167.236 183.567C161.928 180.494 157.527 172.951 157.527 166.805V11.6804C157.527 5.5341 161.858 3.0197 167.236 6.09285L337.796 104.573C343.104 107.647 347.504 115.19 347.504 121.336V276.39Z" fill="url(#paint8_linear)"/>
<path d="M346.037 276.88C346.037 283.026 341.707 285.541 336.329 282.468L165.769 183.987C160.461 180.914 156.061 173.371 156.061 167.225V12.1003C156.061 5.95402 160.391 3.43962 165.769 6.51277L336.329 104.993C341.637 108.066 346.037 115.61 346.037 121.756V276.88Z" fill="url(#paint9_linear)"/>
<path opacity="0.3" d="M336.399 110.581C339.053 112.117 341.218 115.889 341.218 118.962V259.698L160.95 155.63V14.8941C160.95 11.8209 163.115 10.5637 165.769 12.1003L336.399 110.581ZM336.399 104.993L165.839 6.51277C160.531 3.43962 156.131 5.95402 156.131 12.1003V167.574C156.131 173.72 160.461 181.263 165.839 184.336L336.399 282.817C341.707 285.89 346.107 283.376 346.107 277.229V121.756C346.038 115.61 341.707 108.066 336.399 104.993Z" fill="#493990"/>
<path d="M383.404 204.383L384.242 271.852C384.312 279.885 384.452 292.945 384.452 300.977V359.297C384.452 360.694 387.176 360.415 387.176 361.742C387.176 361.742 397.932 354.688 401.494 352.313C403.379 351.056 404.427 342.954 400.027 337.436C395.906 332.338 391.995 326.261 391.925 321.861C391.925 291.339 391.855 199.843 391.855 199.843C391.855 191.811 386.198 182.033 379.213 177.982C379.213 177.982 355.746 163.314 353.72 162.127L347.504 165.2C347.504 165.2 350.437 170.089 357.422 174.07L361.822 176.585C368.737 180.566 376.419 185.176 378.794 186.852C381.239 188.458 383.334 196.351 383.404 204.383Z" fill="#AE45AA"/>
<path d="M379.633 206.547V357.271L387.176 361.601L387.106 202.077C387.106 194.044 381.449 184.266 374.464 180.215L352.673 167.713C350.857 166.665 349.181 165.827 347.574 165.129V173.091C349.111 174.209 350.857 175.396 352.673 176.374L367.061 184.685C373.975 188.736 379.633 198.584 379.633 206.547Z" fill="url(#paint10_linear)"/>
<g opacity="0.6">
<g opacity="0.6">
<path opacity="0.6" d="M177.782 146.272L168.213 140.754V76.1484L177.782 81.6661V146.272ZM169.61 139.986L176.455 143.967V82.4344L169.61 78.4533V139.986Z" fill="#5288C0"/>
</g>
<g opacity="0.6">
<path opacity="0.6" d="M189.375 152.977L179.807 147.459V88.5801L189.375 94.0978V152.977ZM181.134 146.691L187.978 150.672V94.8661L181.134 90.8849V146.691Z" fill="#5288C0"/>
</g>
<g opacity="0.6">
<path opacity="0.6" d="M200.969 159.682L191.4 154.165V106.182L200.969 111.699V159.682ZM192.727 153.396L199.572 157.378V112.468L192.727 108.486V153.396Z" fill="#5288C0"/>
</g>
<g opacity="0.6">
<path opacity="0.6" d="M212.494 166.388L202.926 160.87V106.531L212.494 112.049V166.388ZM204.323 160.102L211.167 164.083V112.887L204.323 108.906V160.102Z" fill="#5288C0"/>
</g>
<g opacity="0.6">
<path opacity="0.6" d="M224.086 173.024L214.518 167.506V86.2773L224.086 91.795V173.024ZM215.914 166.738L222.759 170.719V92.5633L215.914 88.5822V166.738Z" fill="#5288C0"/>
</g>
<g opacity="0.6">
<path opacity="0.6" d="M235.682 179.729L226.113 174.211V115.332L235.682 120.85V179.729ZM227.51 173.443L234.355 177.424V121.618L227.51 117.637V173.443Z" fill="#5288C0"/>
</g>
<g opacity="0.6">
<path opacity="0.6" d="M247.276 186.433L237.707 180.915V109.395L247.276 114.912V186.433ZM239.104 180.147L245.949 184.128V115.75L239.104 111.769V180.147Z" fill="#5288C0"/>
</g>
<g opacity="0.6">
<path opacity="0.6" d="M258.869 193.138L249.301 187.621V109.744L258.869 115.262V193.138ZM250.628 186.852L257.473 190.833V116.1L250.628 112.119V186.852Z" fill="#5288C0"/>
</g>
</g>
<path d="M177.084 128.742L168.912 123.992V140.406L177.084 145.155V128.742Z" fill="#FBB63F"/>
<path d="M188.678 136.913L180.506 132.164V147.111L188.678 151.79V136.913Z" fill="#FBB63F"/>
<path d="M200.271 146.413L192.1 141.664V153.747L200.271 158.497V146.413Z" fill="#FBB63F"/>
<path d="M211.867 151.511L203.625 146.762V160.451L211.867 165.201V151.511Z" fill="#FBB63F"/>
<path d="M223.46 151.162L215.219 146.412V167.156L223.46 171.905V151.162Z" fill="#FBB63F"/>
<path d="M234.984 163.663L226.812 158.914V173.861L234.984 178.54V163.663Z" fill="#FBB63F"/>
<path d="M246.58 167.085L238.408 162.336V180.495L246.58 185.245V167.085Z" fill="#FBB63F"/>
<path d="M258.172 172.115L250 167.365V187.201L258.172 191.95V172.115Z" fill="#FBB63F"/>
<path d="M217.732 173.581V175.747C217.732 176.236 217.453 176.375 216.964 176.026C216.405 175.747 216.195 175.328 216.195 174.839V174.489L216.545 174.699V175.048C216.545 175.328 216.684 175.537 217.033 175.747C217.313 175.956 217.522 175.886 217.522 175.607V174.629C217.453 174.699 217.243 174.629 217.033 174.559C216.824 174.42 216.614 174.28 216.475 174.07C216.335 173.861 216.265 173.651 216.265 173.372V172.743C216.265 172.534 216.335 172.324 216.475 172.324C216.614 172.254 216.824 172.324 217.103 172.464C217.383 172.604 217.592 172.813 217.732 173.023C217.662 173.162 217.732 173.372 217.732 173.581ZM217.383 174.07V173.442C217.383 173.162 217.243 172.953 216.894 172.743C216.614 172.534 216.405 172.604 216.405 172.883V173.512C216.405 173.791 216.545 174.001 216.894 174.21C217.243 174.42 217.383 174.35 217.383 174.07Z" fill="#5288C0"/>
<path d="M218.498 176.235V175.746C218.498 175.467 218.638 175.327 218.847 175.397C218.638 175.188 218.498 174.908 218.498 174.629V174.14C218.498 173.651 218.777 173.511 219.266 173.791C219.546 173.931 219.755 174.14 219.825 174.35C219.965 174.559 220.035 174.769 220.035 175.048V175.537C220.035 175.816 219.895 175.956 219.755 175.886C219.965 176.096 220.104 176.375 220.104 176.654V177.143C220.104 177.632 219.825 177.772 219.336 177.423C218.777 177.143 218.498 176.724 218.498 176.235ZM218.847 174.21V174.769C218.847 174.908 218.917 174.978 218.987 175.118C219.057 175.258 219.127 175.327 219.266 175.397H219.336C219.476 175.467 219.546 175.467 219.616 175.467C219.685 175.397 219.755 175.327 219.755 175.258V174.699C219.755 174.559 219.685 174.419 219.616 174.35C219.546 174.21 219.406 174.14 219.266 174.07C219.127 174 218.987 173.931 218.917 174C218.847 174 218.847 174.14 218.847 174.21ZM219.336 175.746L219.266 175.677C219.127 175.607 219.057 175.607 218.987 175.607C218.917 175.677 218.847 175.746 218.847 175.816V176.375C218.847 176.515 218.917 176.654 218.987 176.724C219.057 176.864 219.196 176.934 219.336 177.004C219.476 177.073 219.616 177.143 219.685 177.074C219.755 177.074 219.825 177.004 219.825 176.864V176.305C219.825 176.166 219.755 176.096 219.685 175.956C219.546 175.956 219.476 175.816 219.336 175.746Z" fill="#5288C0"/>
<path d="M221.711 175.538V176.376C221.711 176.515 221.711 176.585 221.641 176.585C221.572 176.655 221.432 176.585 221.362 176.515C221.222 176.446 221.083 176.306 221.013 176.236C220.943 176.096 220.873 176.026 220.873 175.887V175.049C220.873 174.769 221.013 174.699 221.292 174.909C221.432 174.979 221.502 175.118 221.571 175.188C221.711 175.328 221.711 175.468 221.711 175.538ZM221.502 176.236V175.398C221.502 175.258 221.432 175.188 221.292 175.119C221.152 175.049 221.083 175.049 221.083 175.188V176.026C221.083 176.166 221.152 176.236 221.292 176.306C221.432 176.376 221.502 176.376 221.502 176.236ZM221.711 179.1L221.502 178.96L222.34 175.258L222.549 175.398L221.711 179.1ZM223.108 178.401V179.239C223.108 179.379 223.108 179.449 222.968 179.449C222.899 179.449 222.759 179.449 222.689 179.379C222.549 179.309 222.41 179.169 222.34 179.1C222.27 178.96 222.2 178.89 222.2 178.75V177.912C222.2 177.633 222.34 177.563 222.619 177.773C222.759 177.842 222.829 177.982 222.899 178.052C223.108 178.122 223.108 178.261 223.108 178.401ZM222.899 179.1V178.262C222.899 178.122 222.829 178.052 222.689 177.982C222.549 177.912 222.479 177.912 222.479 178.052V178.89C222.479 179.03 222.549 179.1 222.689 179.169C222.829 179.239 222.899 179.239 222.899 179.1Z" fill="#5288C0"/>
<path d="M227.65 179.029V178.68L229.187 179.588V179.937L228.349 182.661L228 182.451L228.838 179.727L227.65 179.029Z" fill="#5288C0"/>
<path d="M231.145 180.706V183.919L231.634 184.198V184.548L230.307 183.779V183.43L230.796 183.709V180.916L230.167 180.985L230.027 180.636L230.796 180.566L231.145 180.706Z" fill="#5288C0"/>
<path d="M233.308 182.243V183.081C233.308 183.22 233.239 183.29 233.169 183.29C233.099 183.29 232.959 183.29 232.889 183.22C232.75 183.151 232.61 183.011 232.54 182.941C232.47 182.801 232.4 182.732 232.4 182.592V181.754C232.4 181.474 232.54 181.404 232.819 181.614C232.959 181.684 233.029 181.824 233.099 181.893C233.239 182.033 233.308 182.103 233.308 182.243ZM233.099 182.941V182.103C233.099 181.963 233.029 181.893 232.889 181.824C232.75 181.754 232.68 181.754 232.68 181.893V182.732C232.68 182.871 232.75 182.941 232.889 183.011C233.029 183.081 233.099 183.081 233.099 182.941ZM233.308 185.805L233.099 185.665L233.937 181.963L234.146 182.103L233.308 185.805ZM234.705 185.106V185.944C234.705 186.084 234.635 186.154 234.566 186.154C234.496 186.224 234.356 186.154 234.286 186.084C234.147 186.014 234.077 185.944 233.937 185.805C233.867 185.665 233.797 185.595 233.797 185.455V184.617C233.797 184.338 233.937 184.268 234.216 184.478C234.356 184.547 234.426 184.617 234.496 184.757C234.705 184.827 234.705 184.967 234.705 185.106ZM234.496 185.805V184.967C234.496 184.827 234.426 184.757 234.286 184.687C234.147 184.617 234.077 184.617 234.077 184.757V185.595C234.077 185.735 234.147 185.805 234.286 185.875C234.426 185.944 234.496 185.875 234.496 185.805Z" fill="#5288C0"/>
<path d="M239.246 188.249V187.76C239.246 187.481 239.386 187.341 239.595 187.411C239.386 187.201 239.246 186.922 239.246 186.643V186.154C239.246 185.665 239.525 185.525 240.014 185.804C240.294 185.944 240.503 186.154 240.573 186.363C240.713 186.573 240.783 186.782 240.783 187.062V187.551C240.783 187.83 240.643 187.97 240.503 187.9C240.713 188.109 240.853 188.389 240.853 188.668V189.157C240.853 189.646 240.573 189.786 240.084 189.436C239.525 189.157 239.246 188.738 239.246 188.249ZM239.595 186.224V186.782C239.595 186.922 239.665 186.992 239.735 187.132C239.805 187.271 239.945 187.341 240.014 187.411H240.084C240.224 187.481 240.294 187.481 240.364 187.481C240.433 187.411 240.503 187.341 240.503 187.271V186.712C240.503 186.573 240.433 186.433 240.364 186.363C240.294 186.224 240.154 186.154 240.014 186.084C239.875 186.014 239.735 185.944 239.665 186.014C239.665 186.014 239.595 186.084 239.595 186.224ZM240.084 187.76L240.014 187.69C239.875 187.62 239.805 187.62 239.735 187.62C239.665 187.69 239.595 187.76 239.595 187.83V188.389C239.595 188.528 239.665 188.668 239.735 188.738C239.805 188.878 239.945 188.947 240.084 189.017C240.224 189.087 240.364 189.157 240.433 189.087C240.503 189.087 240.573 189.017 240.573 188.878V188.459C240.573 188.319 240.503 188.249 240.433 188.109C240.364 187.97 240.224 187.83 240.084 187.76Z" fill="#5288C0"/>
<path d="M241.621 187.062V186.713L243.158 187.621V187.97L242.32 190.694L241.97 190.485L242.808 187.761L241.621 187.062Z" fill="#5288C0"/>
<path d="M244.904 188.948V189.786C244.904 189.926 244.834 189.995 244.764 189.995C244.694 189.995 244.554 189.995 244.415 189.926C244.275 189.856 244.205 189.716 244.065 189.646C243.996 189.506 243.926 189.437 243.926 189.297V188.459C243.926 188.179 244.065 188.11 244.345 188.319C244.485 188.389 244.554 188.529 244.624 188.598C244.834 188.668 244.904 188.808 244.904 188.948ZM244.694 189.646V188.808C244.694 188.668 244.624 188.598 244.485 188.529C244.345 188.459 244.275 188.459 244.275 188.598V189.437C244.275 189.576 244.345 189.646 244.485 189.716C244.624 189.786 244.694 189.786 244.694 189.646ZM244.834 192.44L244.624 192.3L245.462 188.598L245.672 188.738L244.834 192.44ZM246.301 191.741V192.58C246.301 192.719 246.231 192.789 246.161 192.789C246.091 192.789 245.951 192.789 245.881 192.719C245.742 192.649 245.672 192.51 245.532 192.44C245.462 192.3 245.393 192.23 245.393 192.091V191.253C245.393 190.973 245.532 190.903 245.812 191.113C245.951 191.183 246.021 191.322 246.091 191.392C246.231 191.532 246.301 191.672 246.301 191.741ZM246.091 192.44V191.602C246.091 191.462 246.021 191.392 245.881 191.322C245.742 191.253 245.672 191.253 245.672 191.392V192.23C245.672 192.37 245.742 192.44 245.881 192.51C246.021 192.58 246.091 192.58 246.091 192.44Z" fill="#5288C0"/>
<path d="M252.445 193.697V195.862C252.445 196.351 252.165 196.49 251.677 196.141C251.118 195.862 250.908 195.443 250.908 194.954V194.605L251.257 194.814V195.163C251.257 195.443 251.397 195.652 251.746 195.862C252.026 196.071 252.235 196.002 252.235 195.722V194.744C252.165 194.814 251.956 194.744 251.746 194.675C251.537 194.535 251.327 194.395 251.188 194.186C251.048 193.976 250.978 193.767 250.978 193.487V192.859C250.978 192.649 251.048 192.44 251.188 192.44C251.327 192.37 251.537 192.44 251.816 192.579C252.096 192.719 252.305 192.928 252.445 193.138C252.375 193.208 252.445 193.417 252.445 193.697ZM252.096 194.116V193.487C252.096 193.208 251.956 192.998 251.607 192.789C251.327 192.579 251.118 192.649 251.118 192.928V193.557C251.118 193.836 251.257 194.046 251.607 194.255C251.956 194.465 252.096 194.395 252.096 194.116Z" fill="#5288C0"/>
<path d="M254.26 194.046V197.259L254.749 197.538V197.887L253.422 197.119V196.77L253.911 197.049V194.255L253.282 194.325L253.143 193.976L253.911 193.906L254.26 194.046Z" fill="#5288C0"/>
<path d="M256.496 195.653V196.491C256.496 196.631 256.426 196.7 256.356 196.7C256.286 196.7 256.147 196.7 256.077 196.631C256.007 196.561 255.797 196.421 255.728 196.351C255.658 196.212 255.588 196.142 255.588 196.002V195.164C255.588 194.884 255.728 194.815 256.007 195.024C256.147 195.094 256.216 195.234 256.286 195.304C256.426 195.373 256.496 195.513 256.496 195.653ZM256.217 196.351V195.513C256.217 195.373 256.147 195.304 256.007 195.234C255.867 195.164 255.797 195.164 255.797 195.304V196.142C255.797 196.281 255.867 196.351 256.007 196.421C256.216 196.491 256.217 196.421 256.217 196.351ZM256.426 199.145L256.217 199.005L257.055 195.304L257.264 195.443L256.426 199.145ZM257.893 198.447V199.285C257.893 199.424 257.823 199.494 257.753 199.494C257.683 199.564 257.544 199.494 257.474 199.424C257.334 199.355 257.194 199.215 257.124 199.145C257.055 199.005 256.985 198.935 256.985 198.796V197.958C256.985 197.678 257.124 197.608 257.404 197.818C257.544 197.888 257.613 198.027 257.683 198.097C257.823 198.237 257.893 198.307 257.893 198.447ZM257.683 199.145V198.307C257.683 198.167 257.613 198.097 257.474 198.027C257.334 197.958 257.264 197.958 257.264 198.097V198.935C257.264 199.075 257.334 199.145 257.474 199.215C257.613 199.285 257.683 199.285 257.683 199.145Z" fill="#5288C0"/>
<path d="M204.881 165.898V166.946L205.37 167.225C205.579 167.365 205.789 167.505 205.929 167.784C206.068 167.993 206.138 168.203 206.138 168.482V169.111C206.138 169.6 205.859 169.74 205.37 169.39C204.811 169.111 204.602 168.692 204.602 168.203V167.714L204.951 167.924V168.413C204.951 168.552 205.021 168.692 205.09 168.762C205.16 168.901 205.3 168.971 205.44 169.041C205.579 169.111 205.719 169.181 205.789 169.111C205.859 169.111 205.929 168.971 205.929 168.901V168.203C205.929 168.063 205.859 167.993 205.789 167.854C205.719 167.714 205.579 167.644 205.51 167.505L204.741 167.016V165.27L206.208 166.108V166.457L204.881 165.898Z" fill="#5288C0"/>
<path d="M208.515 168.273V170.438C208.515 170.927 208.236 171.067 207.747 170.717C207.188 170.438 206.979 170.019 206.979 169.53V169.181L207.328 169.39V169.74C207.328 170.019 207.467 170.229 207.817 170.438C208.096 170.648 208.306 170.578 208.306 170.298V169.321C208.236 169.39 208.026 169.39 207.817 169.251C207.607 169.111 207.398 168.971 207.258 168.762C207.118 168.552 207.048 168.343 207.048 168.063V167.435C207.048 167.225 207.118 167.016 207.258 167.016C207.398 166.946 207.607 167.016 207.886 167.155C208.166 167.295 208.375 167.505 208.515 167.714C208.445 167.854 208.515 168.063 208.515 168.273ZM208.166 168.762V168.133C208.166 167.854 208.026 167.644 207.677 167.435C207.398 167.225 207.188 167.295 207.188 167.574V168.203C207.188 168.482 207.328 168.692 207.677 168.901C208.026 169.111 208.166 169.041 208.166 168.762Z" fill="#5288C0"/>
<path d="M210.121 168.901V169.739C210.121 169.879 210.121 169.948 210.051 169.948C209.981 170.018 209.841 169.948 209.702 169.879C209.562 169.809 209.492 169.669 209.353 169.599C209.283 169.46 209.213 169.39 209.213 169.25V168.412C209.213 168.133 209.353 168.063 209.632 168.272C209.772 168.342 209.842 168.412 209.981 168.552C210.121 168.621 210.121 168.761 210.121 168.901ZM209.911 169.599V168.761C209.911 168.621 209.841 168.552 209.702 168.482C209.562 168.412 209.492 168.412 209.492 168.552V169.39C209.492 169.529 209.562 169.599 209.702 169.669C209.841 169.739 209.911 169.669 209.911 169.599ZM210.121 172.393L209.911 172.253L210.749 168.552L210.959 168.691L210.121 172.393ZM211.518 171.695V172.533C211.518 172.672 211.518 172.742 211.448 172.742C211.378 172.742 211.238 172.742 211.099 172.672C210.959 172.603 210.889 172.463 210.749 172.393C210.68 172.253 210.61 172.184 210.61 172.044V171.206C210.61 170.926 210.749 170.856 211.029 171.066C211.169 171.136 211.238 171.276 211.378 171.345C211.518 171.415 211.518 171.555 211.518 171.695ZM211.308 172.393V171.555C211.308 171.415 211.238 171.345 211.099 171.276C210.959 171.206 210.889 171.206 210.889 171.345V172.184C210.889 172.323 210.959 172.393 211.099 172.463C211.238 172.533 211.308 172.533 211.308 172.393Z" fill="#5288C0"/>
<path d="M193.287 159.193V160.241L193.776 160.52C193.986 160.66 194.195 160.869 194.335 161.079C194.475 161.288 194.544 161.498 194.544 161.777V162.406C194.544 162.895 194.265 163.034 193.776 162.685C193.217 162.406 193.008 161.987 193.008 161.498V161.009L193.357 161.219V161.707C193.357 161.847 193.427 161.987 193.497 162.057C193.567 162.196 193.706 162.266 193.846 162.336C193.986 162.406 194.125 162.476 194.195 162.406C194.265 162.406 194.335 162.336 194.335 162.196V161.498C194.335 161.358 194.265 161.288 194.195 161.149C194.125 161.009 193.986 160.869 193.916 160.799L193.147 160.311V158.564L194.614 159.403V159.752L193.287 159.193Z" fill="#5288C0"/>
<path d="M196.36 160.589V163.802L196.849 164.081V164.43L195.522 163.662V163.313L196.011 163.592V160.798L195.382 160.868L195.242 160.519L196.011 160.449L196.36 160.589Z" fill="#5288C0"/>
<path d="M198.525 162.196V163.034C198.525 163.174 198.455 163.243 198.385 163.243C198.316 163.243 198.176 163.243 198.106 163.174C197.966 163.104 197.897 162.964 197.757 162.894C197.687 162.754 197.617 162.685 197.617 162.545V161.707C197.617 161.427 197.757 161.358 198.036 161.567C198.176 161.637 198.246 161.777 198.316 161.847C198.525 161.916 198.525 162.056 198.525 162.196ZM198.316 162.894V162.056C198.316 161.916 198.246 161.847 198.106 161.777C197.966 161.707 197.897 161.707 197.897 161.847V162.685C197.897 162.824 197.966 162.894 198.106 162.964C198.246 163.034 198.316 163.034 198.316 162.894ZM198.525 165.688L198.316 165.548L199.154 161.847L199.363 161.986L198.525 165.688ZM199.992 164.99V165.828C199.992 165.967 199.992 166.037 199.852 166.037C199.782 166.037 199.713 166.037 199.573 165.967C199.433 165.897 199.363 165.758 199.224 165.688C199.154 165.548 199.084 165.478 199.084 165.339V164.501C199.084 164.221 199.224 164.151 199.503 164.361C199.643 164.431 199.713 164.501 199.782 164.64C199.922 164.78 199.992 164.92 199.992 164.99ZM199.713 165.688V164.85C199.713 164.71 199.643 164.64 199.503 164.57C199.363 164.501 199.293 164.501 199.293 164.64V165.478C199.293 165.618 199.363 165.688 199.503 165.758C199.643 165.828 199.713 165.828 199.713 165.688Z" fill="#5288C0"/>
<path d="M181.344 152.279V151.93L182.88 152.838V153.187L182.042 155.911L181.693 155.701L182.531 152.977L181.344 152.279Z" fill="#5288C0"/>
<path d="M185.253 154.862V155.351C185.253 155.631 185.113 155.77 184.904 155.77C185.183 155.98 185.253 156.259 185.253 156.609V157.097C185.253 157.586 184.974 157.726 184.485 157.377C183.926 157.097 183.716 156.678 183.716 156.19V155.701L184.066 155.91V156.399C184.066 156.539 184.135 156.678 184.205 156.748C184.275 156.888 184.415 156.958 184.554 157.028C184.694 157.097 184.834 157.167 184.904 157.097C184.974 157.097 185.043 157.028 185.043 156.888V156.399C185.043 156.259 184.974 156.19 184.904 156.05C184.834 155.91 184.694 155.77 184.624 155.701L184.135 155.421V155.142L184.554 155.351C184.694 155.421 184.764 155.421 184.834 155.421C184.904 155.351 184.974 155.282 184.974 155.142V154.653C184.974 154.513 184.904 154.374 184.834 154.304C184.764 154.164 184.624 154.094 184.485 154.024C184.345 153.955 184.205 153.885 184.135 153.955C184.066 153.955 183.996 154.094 183.996 154.164V154.653L183.646 154.443V153.955C183.646 153.466 183.926 153.326 184.415 153.605C184.694 153.745 184.904 153.954 184.974 154.164C185.253 154.443 185.253 154.653 185.253 154.862Z" fill="#5288C0"/>
<path d="M187.001 155.491V156.329C187.001 156.468 186.931 156.538 186.862 156.538C186.792 156.538 186.652 156.538 186.512 156.468C186.373 156.399 186.303 156.259 186.163 156.189C186.023 156.119 186.023 155.98 186.023 155.84V155.002C186.023 154.722 186.163 154.653 186.442 154.862C186.582 154.932 186.652 155.072 186.792 155.141C186.931 155.281 187.001 155.351 187.001 155.491ZM186.722 156.189V155.351C186.722 155.211 186.652 155.141 186.512 155.072C186.373 155.002 186.303 155.002 186.303 155.141V155.98C186.303 156.119 186.373 156.189 186.512 156.259C186.652 156.329 186.722 156.329 186.722 156.189ZM186.931 158.983L186.722 158.843L187.56 155.141L187.77 155.281L186.931 158.983ZM188.398 158.354V159.192C188.398 159.332 188.328 159.402 188.258 159.402C188.189 159.402 188.049 159.402 187.979 159.332C187.839 159.262 187.77 159.192 187.63 159.053C187.56 158.913 187.49 158.843 187.49 158.704V157.865C187.49 157.586 187.63 157.516 187.909 157.726C188.049 157.796 188.119 157.935 188.258 158.005C188.328 158.075 188.398 158.215 188.398 158.354ZM188.119 159.053V158.215C188.119 158.075 188.049 158.005 187.909 157.935C187.77 157.865 187.7 157.865 187.7 158.005V158.843C187.7 158.983 187.77 159.053 187.909 159.123C188.119 159.192 188.119 159.123 188.119 159.053Z" fill="#5288C0"/>
<path d="M169.75 148.089V147.6C169.75 147.321 169.89 147.181 170.099 147.251C169.89 147.041 169.75 146.762 169.75 146.482V145.994C169.75 145.505 170.029 145.365 170.518 145.644C170.798 145.784 171.007 145.994 171.077 146.203C171.217 146.413 171.287 146.622 171.287 146.902V147.39C171.287 147.67 171.217 147.81 171.007 147.74C171.217 147.949 171.356 148.229 171.356 148.508V148.997C171.356 149.486 171.077 149.625 170.588 149.276C170.029 148.997 169.75 148.578 169.75 148.089ZM170.099 146.133V146.692C170.099 146.832 170.169 146.902 170.239 147.041C170.309 147.181 170.448 147.251 170.518 147.321H170.588C170.728 147.39 170.798 147.39 170.868 147.39C170.937 147.321 171.007 147.251 171.007 147.181V146.622C171.007 146.482 170.937 146.343 170.868 146.273C170.798 146.133 170.658 146.063 170.518 145.994C170.379 145.924 170.239 145.854 170.169 145.924C170.169 145.924 170.099 145.994 170.099 146.133ZM170.588 147.67L170.518 147.6C170.379 147.53 170.309 147.53 170.239 147.53C170.169 147.6 170.099 147.67 170.099 147.74V148.298C170.099 148.438 170.169 148.578 170.239 148.648C170.309 148.787 170.448 148.857 170.588 148.927C170.728 148.997 170.868 149.067 170.937 148.997C171.007 148.997 171.077 148.857 171.077 148.787V148.229C171.077 148.089 171.007 148.019 170.937 147.879C170.868 147.81 170.728 147.74 170.588 147.67Z" fill="#5288C0"/>
<path d="M173.172 147.251V150.464L173.661 150.743V151.092L172.334 150.324V149.975L172.823 150.254V147.461L172.194 147.53L172.055 147.181L172.823 147.111L173.172 147.251Z" fill="#5288C0"/>
<path d="M175.408 148.788V149.626C175.408 149.765 175.408 149.835 175.338 149.835C175.268 149.835 175.129 149.835 174.989 149.765C174.849 149.696 174.779 149.556 174.64 149.486C174.57 149.346 174.5 149.276 174.5 149.137V148.299C174.5 148.019 174.64 147.949 174.919 148.159C175.059 148.229 175.129 148.368 175.198 148.438C175.338 148.578 175.408 148.718 175.408 148.788ZM175.198 149.486V148.648C175.198 148.508 175.129 148.438 174.989 148.368C174.849 148.299 174.779 148.299 174.779 148.438V149.276C174.779 149.416 174.849 149.486 174.989 149.556C175.129 149.626 175.198 149.626 175.198 149.486ZM175.338 152.35L175.129 152.21L175.967 148.508L176.176 148.648L175.338 152.35ZM176.805 151.651V152.489C176.805 152.629 176.805 152.699 176.735 152.699C176.665 152.699 176.525 152.699 176.456 152.629C176.316 152.559 176.176 152.419 176.106 152.35C176.037 152.21 175.967 152.14 175.967 152V151.162C175.967 150.883 176.106 150.813 176.386 151.023C176.525 151.092 176.595 151.162 176.665 151.302C176.735 151.372 176.805 151.511 176.805 151.651ZM176.595 152.35V151.511C176.595 151.372 176.525 151.302 176.386 151.232C176.246 151.162 176.176 151.162 176.176 151.302V152.14C176.176 152.28 176.246 152.35 176.386 152.419C176.525 152.489 176.595 152.489 176.595 152.35Z" fill="#5288C0"/>
<path d="M310.556 159.053V163.593C310.556 164.641 309.997 164.85 308.879 164.222C307.762 163.593 307.203 162.755 307.203 161.637V160.869L307.902 161.288V162.057C307.902 162.615 308.251 163.104 308.879 163.453C309.508 163.803 309.857 163.733 309.857 163.174V161.218C309.648 161.358 309.298 161.288 308.81 161.009C308.321 160.729 307.902 160.38 307.622 159.891C307.343 159.472 307.203 158.983 307.203 158.494V157.098C307.203 156.609 307.343 156.259 307.622 156.19C307.902 156.05 308.321 156.19 308.879 156.469C309.438 156.818 309.857 157.167 310.137 157.586C310.416 158.075 310.556 158.494 310.556 159.053ZM309.857 160.031V158.634C309.857 158.006 309.508 157.517 308.879 157.167C308.251 156.818 307.902 156.888 307.902 157.517V158.914C307.902 159.542 308.251 160.031 308.879 160.38C309.508 160.729 309.857 160.59 309.857 160.031Z" fill="#FBB63F"/>
<path d="M314.397 159.821V166.526L315.515 167.155V167.854L312.651 166.177V165.479L313.769 166.107V160.171L312.442 160.31L312.162 159.542L313.769 159.402L314.397 159.821Z" fill="#FBB63F"/>
<path d="M319.006 163.173V164.919C319.006 165.199 318.936 165.338 318.796 165.408C318.657 165.478 318.447 165.408 318.168 165.269C317.888 165.129 317.679 164.919 317.469 164.64C317.33 164.43 317.26 164.151 317.26 163.872V162.126C317.26 161.567 317.539 161.427 318.168 161.776C318.447 161.916 318.657 162.126 318.796 162.405C318.936 162.614 319.006 162.894 319.006 163.173ZM318.517 164.64V162.894C318.517 162.614 318.377 162.405 318.098 162.265C317.819 162.126 317.679 162.126 317.679 162.405V164.151C317.679 164.43 317.819 164.64 318.098 164.78C318.377 164.919 318.517 164.919 318.517 164.64ZM319.006 170.577L318.587 170.297L320.333 162.545L320.752 162.824L319.006 170.577ZM322.009 169.11V170.856C322.009 171.135 321.939 171.275 321.8 171.345C321.66 171.415 321.45 171.345 321.171 171.205C320.892 171.066 320.682 170.856 320.473 170.577C320.333 170.367 320.263 170.088 320.263 169.808V168.062C320.263 167.504 320.542 167.364 321.171 167.713C321.45 167.853 321.66 168.062 321.8 168.342C321.869 168.621 322.009 168.831 322.009 169.11ZM321.52 170.577V168.831C321.52 168.551 321.381 168.412 321.101 168.202C320.822 168.062 320.682 168.062 320.682 168.342V170.088C320.682 170.367 320.822 170.577 321.101 170.716C321.381 170.856 321.52 170.856 321.52 170.577Z" fill="#FBB63F"/>
<g opacity="0.3">
<path opacity="0.3" d="M312.439 148.859L314.674 150.186V144.808L312.439 143.551V148.859Z" fill="#5288C0"/>
<path opacity="0.3" d="M312.439 181.335L314.674 182.663V177.285L312.439 176.027V181.335Z" fill="#5288C0"/>
<path opacity="0.3" d="M325.291 168.555V171.209L329.901 173.863V171.209L325.291 168.555Z" fill="#5288C0"/>
<path opacity="0.3" d="M301.754 155.004L297.145 152.35V154.934L301.754 157.588V155.004Z" fill="#5288C0"/>
<path opacity="0.3" d="M324.307 155.063L321.041 156.949L322.647 159.732L325.914 157.846L324.307 155.063Z" fill="#5288C0"/>
<path opacity="0.3" d="M304.409 166.501L301.141 168.383L302.744 171.167L306.012 169.285L304.409 166.501Z" fill="#5288C0"/>
<path opacity="0.3" d="M322.662 177.072L321.09 177.98L324.338 183.606L325.911 182.697L322.662 177.072Z" fill="#5288C0"/>
<path opacity="0.3" d="M302.731 142.563L301.158 143.471L304.407 149.096L305.979 148.188L302.731 142.563Z" fill="#5288C0"/>
<path opacity="0.3" d="M319.007 154.166L320.754 150.255L318.658 148.09L316.912 152.001L319.007 154.166Z" fill="#5288C0"/>
<path opacity="0.3" d="M308.041 171.977L306.295 175.958L308.39 178.123L310.136 174.212L308.041 171.977Z" fill="#5288C0"/>
<path opacity="0.3" d="M324.033 175.469L328.294 179.939L329.132 177.984L324.871 173.514L324.033 175.469Z" fill="#5288C0"/>
<path opacity="0.3" d="M303.081 150.743L298.821 146.273L297.982 148.159L302.243 152.629L303.081 150.743Z" fill="#5288C0"/>
<path opacity="0.3" d="M324.803 165.551L329.063 165.9L328.156 163.036L323.965 162.617L324.803 165.551Z" fill="#5288C0"/>
<path opacity="0.3" d="M302.243 160.661L298.053 160.242L298.891 163.176L303.151 163.525L302.243 160.661Z" fill="#5288C0"/>
<path opacity="0.3" d="M317.051 178.123L318.867 184.06L320.962 184.269L319.146 178.333L317.051 178.123Z" fill="#5288C0"/>
<path opacity="0.3" d="M309.996 148.02L308.25 142.083L306.154 141.943L307.97 147.88L309.996 148.02Z" fill="#5288C0"/>
<path opacity="0.3" d="M317.749 147.252L315.584 145.436L314.676 150.185L316.911 151.931L317.749 147.252Z" fill="#5288C0"/>
<path opacity="0.3" d="M309.299 178.96L311.534 180.706L312.372 176.027L310.207 174.211L309.299 178.96Z" fill="#5288C0"/>
<path opacity="0.3" d="M324.873 173.512L329.413 177.144L329.832 174.839L325.292 171.207L324.873 173.512Z" fill="#5288C0"/>
<path opacity="0.3" d="M302.242 152.7L297.702 149.068L297.283 151.373L301.753 155.005L302.242 152.7Z" fill="#5288C0"/>
<path opacity="0.3" d="M323.894 162.548L327.735 161.78L326.478 158.916L322.637 159.684L323.894 162.548Z" fill="#5288C0"/>
<path opacity="0.3" d="M303.152 163.596L299.311 164.364L300.568 167.228L304.409 166.459L303.152 163.596Z" fill="#5288C0"/>
<path opacity="0.3" d="M319.145 178.332L321.729 184.199L323.615 183.849L321.03 177.982L319.145 178.332Z" fill="#5288C0"/>
<path opacity="0.3" d="M307.9 147.88L305.315 141.943L303.43 142.293L306.014 148.229L307.9 147.88Z" fill="#5288C0"/>
<path opacity="0.3" d="M320.892 156.68L323.476 153.677L321.59 151.162L319.006 154.165L320.892 156.68Z" fill="#5288C0"/>
<path opacity="0.3" d="M306.155 169.461L303.641 172.464L305.526 174.979L308.041 171.975L306.155 169.461Z" fill="#5288C0"/>
<path opacity="0.3" d="M322.777 176.935L326.619 182.104L327.876 180.637L323.965 175.469L322.777 176.935Z" fill="#5288C0"/>
<path opacity="0.3" d="M304.339 149.278L300.497 144.109L299.24 145.576L303.082 150.675L304.339 149.278Z" fill="#5288C0"/>
<path opacity="0.3" d="M325.292 168.345L329.762 169.881L329.343 167.087L324.803 165.551L325.292 168.345Z" fill="#5288C0"/>
<path opacity="0.3" d="M301.823 157.799L297.283 156.332L297.772 159.126L302.242 160.593L301.823 157.799Z" fill="#5288C0"/>
<path opacity="0.3" d="M314.814 177.424L315.792 183.151L318.027 183.919L317.049 178.122L314.814 177.424Z" fill="#5288C0"/>
<path opacity="0.3" d="M312.231 148.789L311.323 143.061L309.088 142.293L310.066 148.02L312.231 148.789Z" fill="#5288C0"/>
</g>
<path d="M312.439 148.857L314.674 150.184V144.806L312.439 143.549V148.857Z" fill="#FBB63F"/>
<path d="M312.439 181.335L314.674 182.663V177.285L312.439 176.027V181.335Z" fill="#FBB63F"/>
<path d="M325.291 168.553V171.207L329.901 173.861V171.207L325.291 168.553Z" fill="#FBB63F"/>
<path d="M301.754 155.004L297.145 152.35V154.934L301.754 157.588V155.004Z" fill="#FBB63F"/>
<path d="M324.307 155.063L321.041 156.949L322.647 159.732L325.914 157.846L324.307 155.063Z" fill="#FBB63F"/>
<path d="M304.409 166.501L301.141 168.383L302.744 171.167L306.012 169.285L304.409 166.501Z" fill="#FBB63F"/>
<path d="M322.662 177.072L321.09 177.98L324.338 183.606L325.911 182.697L322.662 177.072Z" fill="#FBB63F"/>
<path d="M319.007 154.164L320.754 150.253L318.658 148.088L316.912 151.999L319.007 154.164Z" fill="#FBB63F"/>
<path d="M308.041 171.977L306.295 175.958L308.39 178.123L310.136 174.212L308.041 171.977Z" fill="#FBB63F"/>
<path d="M324.033 175.467L328.294 179.937L329.132 177.982L324.871 173.512L324.033 175.467Z" fill="#FBB63F"/>
<path d="M303.081 150.743L298.821 146.273L297.982 148.159L302.243 152.629L303.081 150.743Z" fill="#FBB63F"/>
<path d="M324.803 165.549L329.063 165.898L328.156 163.034L323.965 162.615L324.803 165.549Z" fill="#FBB63F"/>
<path d="M302.243 160.661L298.053 160.242L298.891 163.176L303.151 163.525L302.243 160.661Z" fill="#FBB63F"/>
<path d="M317.051 178.121L318.867 184.058L320.962 184.267L319.146 178.331L317.051 178.121Z" fill="#FBB63F"/>
<path d="M317.749 147.252L315.584 145.436L314.676 150.185L316.911 151.931L317.749 147.252Z" fill="#FBB63F"/>
<path d="M309.299 178.96L311.534 180.706L312.372 176.027L310.207 174.211L309.299 178.96Z" fill="#FBB63F"/>
<path d="M324.873 173.512L329.413 177.144L329.832 174.839L325.292 171.207L324.873 173.512Z" fill="#FBB63F"/>
<path d="M302.242 152.698L297.702 149.066L297.283 151.371L301.753 155.003L302.242 152.698Z" fill="#FBB63F"/>
<path d="M323.894 162.546L327.735 161.778L326.478 158.914L322.637 159.682L323.894 162.546Z" fill="#FBB63F"/>
<path d="M303.152 163.594L299.311 164.362L300.568 167.226L304.409 166.457L303.152 163.594Z" fill="#FBB63F"/>
<path d="M319.145 178.332L321.729 184.199L323.615 183.849L321.03 177.982L319.145 178.332Z" fill="#FBB63F"/>
<path d="M320.892 156.68L323.476 153.677L321.59 151.162L319.006 154.165L320.892 156.68Z" fill="#FBB63F"/>
<path d="M306.155 169.461L303.641 172.464L305.526 174.979L308.041 171.975L306.155 169.461Z" fill="#FBB63F"/>
<path d="M322.777 176.934L326.619 182.102L327.876 180.635L323.965 175.467L322.777 176.934Z" fill="#FBB63F"/>
<path d="M325.292 168.345L329.762 169.881L329.343 167.087L324.803 165.551L325.292 168.345Z" fill="#FBB63F"/>
<path d="M301.823 157.797L297.283 156.33L297.772 159.124L302.242 160.591L301.823 157.797Z" fill="#FBB63F"/>
<path d="M314.814 177.424L315.792 183.151L318.027 183.919L317.049 178.122L314.814 177.424Z" fill="#FBB63F"/>
<path d="M310.417 207.386V208.434C310.417 209.062 310.208 209.342 309.719 209.272C310.278 209.761 310.487 210.32 310.487 211.018V212.066C310.487 213.113 309.929 213.323 308.811 212.694C307.694 212.066 307.135 211.228 307.135 210.11V209.132L307.833 209.551V210.599C307.833 210.878 307.903 211.158 308.113 211.367C308.252 211.647 308.532 211.856 308.811 211.996C309.16 212.205 309.37 212.205 309.509 212.205C309.649 212.136 309.789 211.996 309.789 211.717V210.669C309.789 210.459 309.719 210.18 309.579 209.831C309.44 209.551 309.23 209.342 308.951 209.132L307.973 208.574V208.015L308.881 208.504C309.16 208.643 309.37 208.713 309.509 208.574C309.649 208.434 309.719 208.294 309.719 208.015V206.967C309.719 206.688 309.649 206.408 309.509 206.199C309.37 205.989 309.09 205.78 308.811 205.57C308.532 205.361 308.252 205.361 308.113 205.431C307.973 205.5 307.903 205.64 307.903 205.919V206.967L307.205 206.548V205.57C307.205 204.523 307.763 204.313 308.811 204.872C309.37 205.221 309.789 205.57 310.068 205.989C310.278 206.408 310.417 206.827 310.417 207.386Z" fill="#FBB63F"/>
<path d="M312.164 207.595V206.896L315.377 208.782V209.481L313.561 215.138L312.863 214.719L314.678 209.062L312.164 207.595Z" fill="#FBB63F"/>
<path d="M319.008 211.578V213.324C319.008 213.603 318.938 213.743 318.798 213.813C318.659 213.882 318.449 213.813 318.17 213.673C317.89 213.533 317.681 213.324 317.471 213.044C317.332 212.835 317.262 212.555 317.262 212.276V210.53C317.262 209.971 317.541 209.831 318.17 210.181C318.449 210.32 318.659 210.53 318.798 210.809C318.938 211.019 319.008 211.298 319.008 211.578ZM318.519 213.044V211.298C318.519 211.019 318.379 210.809 318.1 210.67C317.82 210.53 317.681 210.53 317.681 210.809V212.555C317.681 212.835 317.82 212.974 318.1 213.184C318.379 213.324 318.519 213.254 318.519 213.044ZM319.008 218.911L318.589 218.632L320.335 210.879L320.754 211.158L319.008 218.911ZM322.011 217.514V219.26C322.011 219.54 321.941 219.679 321.802 219.749C321.662 219.819 321.452 219.749 321.173 219.61C320.894 219.47 320.684 219.26 320.475 218.981C320.335 218.772 320.265 218.492 320.265 218.213V216.467C320.265 215.908 320.544 215.768 321.173 216.117C321.452 216.257 321.662 216.467 321.802 216.746C321.871 216.956 322.011 217.235 322.011 217.514ZM321.522 218.981V217.235C321.522 216.956 321.383 216.816 321.103 216.606C320.824 216.467 320.684 216.467 320.684 216.746V218.492C320.684 218.771 320.824 218.911 321.103 219.121C321.383 219.26 321.522 219.191 321.522 218.981Z" fill="#FBB63F"/>
<g opacity="0.3">
<path opacity="0.3" d="M312.439 197.259L314.674 198.517V193.208L312.439 191.951V197.259Z" fill="#5288C0"/>
<path opacity="0.3" d="M312.439 229.737L314.674 230.995V225.686L312.439 224.359V229.737Z" fill="#5288C0"/>
<path opacity="0.3" d="M325.291 216.955V219.539L329.901 222.193V219.609L325.291 216.955Z" fill="#5288C0"/>
<path opacity="0.3" d="M301.754 203.406L297.145 200.752V203.336L301.754 205.99V203.406Z" fill="#5288C0"/>
<path opacity="0.3" d="M324.313 203.359L321.047 205.244L322.653 208.027L325.92 206.141L324.313 203.359Z" fill="#5288C0"/>
<path opacity="0.3" d="M304.443 214.916L301.176 216.801L302.781 219.584L306.048 217.7L304.443 214.916Z" fill="#5288C0"/>
<path opacity="0.3" d="M322.639 225.412L321.066 226.32L324.315 231.945L325.887 231.037L322.639 225.412Z" fill="#5288C0"/>
<path opacity="0.3" d="M302.715 190.936L301.143 191.844L304.39 197.469L305.963 196.561L302.715 190.936Z" fill="#5288C0"/>
<path opacity="0.3" d="M319.007 202.568L320.754 198.657L318.658 196.422L316.912 200.333L319.007 202.568Z" fill="#5288C0"/>
<path opacity="0.3" d="M308.041 220.379L306.295 224.29L308.39 226.525L310.136 222.544L308.041 220.379Z" fill="#5288C0"/>
<path opacity="0.3" d="M324.033 223.802L328.294 228.272L329.132 226.386L324.871 221.916L324.033 223.802Z" fill="#5288C0"/>
<path opacity="0.3" d="M303.081 199.076L298.821 194.605L297.982 196.561L302.243 201.031L303.081 199.076Z" fill="#5288C0"/>
<path opacity="0.3" d="M324.803 213.883L329.063 214.302L328.156 211.369L323.965 211.02L324.803 213.883Z" fill="#5288C0"/>
<path opacity="0.3" d="M302.243 208.994L298.053 208.645L298.891 211.508L303.151 211.927L302.243 208.994Z" fill="#5288C0"/>
<path opacity="0.3" d="M317.051 226.523L318.867 232.46L320.962 232.67L319.146 226.733L317.051 226.523Z" fill="#5288C0"/>
<path opacity="0.3" d="M309.996 196.422L308.25 190.485L306.154 190.275L307.97 196.212L309.996 196.422Z" fill="#5288C0"/>
<path opacity="0.3" d="M317.749 195.584L315.584 193.838L314.676 198.587L316.911 200.333L317.749 195.584Z" fill="#5288C0"/>
<path opacity="0.3" d="M309.299 227.293L311.534 229.109L312.372 224.359L310.207 222.613L309.299 227.293Z" fill="#5288C0"/>
<path opacity="0.3" d="M324.873 221.844L329.413 225.476L329.832 223.171L325.292 219.539L324.873 221.844Z" fill="#5288C0"/>
<path opacity="0.3" d="M302.242 201.032L297.702 197.4L297.283 199.705L301.753 203.337L302.242 201.032Z" fill="#5288C0"/>
<path opacity="0.3" d="M323.894 210.948L327.735 210.18L326.478 207.316L322.637 208.085L323.894 210.948Z" fill="#5288C0"/>
<path opacity="0.3" d="M303.152 211.996L299.311 212.764L300.568 215.628L304.409 214.86L303.152 211.996Z" fill="#5288C0"/>
<path opacity="0.3" d="M319.145 226.734L321.729 232.6L323.615 232.251L321.03 226.314L319.145 226.734Z" fill="#5288C0"/>
<path opacity="0.3" d="M307.9 196.213L305.315 190.346L303.43 190.695L306.014 196.632L307.9 196.213Z" fill="#5288C0"/>
<path opacity="0.3" d="M320.892 205.082L323.476 202.079L321.59 199.564L319.006 202.568L320.892 205.082Z" fill="#5288C0"/>
<path opacity="0.3" d="M306.155 217.863L303.641 220.867L305.526 223.381L308.041 220.378L306.155 217.863Z" fill="#5288C0"/>
<path opacity="0.3" d="M322.777 225.336L326.619 230.434L327.876 228.968L323.965 223.869L322.777 225.336Z" fill="#5288C0"/>
<path opacity="0.3" d="M304.339 197.608L300.497 192.51L299.24 193.977L303.082 199.075L304.339 197.608Z" fill="#5288C0"/>
<path opacity="0.3" d="M325.292 216.747L329.762 218.283L329.343 215.42L324.803 213.953L325.292 216.747Z" fill="#5288C0"/>
<path opacity="0.3" d="M301.823 206.201L297.283 204.664L297.772 207.458L302.242 208.994L301.823 206.201Z" fill="#5288C0"/>
<path opacity="0.3" d="M314.814 225.756L315.792 231.553L318.027 232.251L317.049 226.524L314.814 225.756Z" fill="#5288C0"/>
<path opacity="0.3" d="M312.231 197.191L311.323 191.394L309.088 190.695L310.066 196.423L312.231 197.191Z" fill="#5288C0"/>
</g>
<path d="M312.441 197.259L314.676 198.517V193.208L312.441 191.951V197.259Z" fill="#FBB63F"/>
<path d="M325.293 216.955V219.539L329.903 222.193V219.609L325.293 216.955Z" fill="#FBB63F"/>
<path d="M324.315 203.359L321.049 205.244L322.655 208.027L325.922 206.141L324.315 203.359Z" fill="#FBB63F"/>
<path d="M322.641 225.412L321.068 226.32L324.317 231.945L325.889 231.037L322.641 225.412Z" fill="#FBB63F"/>
<path d="M319.007 202.566L320.754 198.655L318.658 196.42L316.912 200.331L319.007 202.566Z" fill="#FBB63F"/>
<path d="M324.035 223.8L328.296 228.27L329.134 226.384L324.873 221.914L324.035 223.8Z" fill="#FBB63F"/>
<path d="M324.803 213.883L329.063 214.302L328.156 211.369L323.965 211.02L324.803 213.883Z" fill="#FBB63F"/>
<path d="M317.751 195.584L315.586 193.838L314.678 198.587L316.913 200.333L317.751 195.584Z" fill="#FBB63F"/>
<path d="M324.873 221.846L329.413 225.478L329.832 223.173L325.292 219.541L324.873 221.846Z" fill="#FBB63F"/>
<path d="M323.896 210.948L327.737 210.18L326.48 207.316L322.639 208.085L323.896 210.948Z" fill="#FBB63F"/>
<path d="M320.894 205.082L323.478 202.079L321.592 199.564L319.008 202.568L320.894 205.082Z" fill="#FBB63F"/>
<path d="M322.779 225.338L326.621 230.436L327.878 228.97L323.967 223.871L322.779 225.338Z" fill="#FBB63F"/>
<path d="M325.294 216.745L329.764 218.282L329.345 215.418L324.805 213.951L325.294 216.745Z" fill="#FBB63F"/>
<path d="M170.796 46.0457V46.4648L169.818 45.906V45.487L170.098 45.6267V42.0646L169.818 41.9249V41.5059L170.796 42.0646V42.4837L170.517 42.344V45.906L170.796 46.0457Z" fill="#FBB63F"/>
<path d="M172.194 47.2347L171.775 47.0252V42.625L172.194 42.8345L173.452 46.9553V43.6028L173.871 43.8123V48.2125L173.452 48.003L172.194 43.8822V47.2347Z" fill="#FBB63F"/>
<path d="M175.963 49.4687L175.055 48.91V44.5098L175.963 45.0685C176.242 45.2082 176.521 45.4876 176.661 45.6971C176.801 45.9765 176.871 46.2559 176.871 46.5352V49.0496C176.871 49.329 176.801 49.5386 176.661 49.6084C176.521 49.6783 176.312 49.6084 175.963 49.4687ZM176.521 48.7703V46.2559C176.521 46.1162 176.452 45.9765 176.382 45.767C176.312 45.6273 176.172 45.4876 176.032 45.4178L175.474 45.1384V48.7004L176.032 48.9798C176.172 49.0496 176.312 49.1195 176.382 49.0496C176.452 49.0496 176.521 48.9798 176.521 48.7703Z" fill="#FBB63F"/>
<path d="M178.829 50.6551V51.0742L177.852 50.5154V50.0963L178.131 50.236V46.674L177.852 46.5343V46.1152L178.829 46.674V47.0931L178.55 46.9534V50.5154L178.829 50.6551Z" fill="#FBB63F"/>
<path d="M181.205 51.6341V51.2849L181.624 51.4944V51.8436C181.624 52.123 181.554 52.3325 181.415 52.4024C181.275 52.4722 180.995 52.4024 180.716 52.2627C180.367 52.0531 180.157 51.8436 180.018 51.5642C179.878 51.2849 179.738 51.0055 179.738 50.7261V48.0022C179.738 47.7228 179.808 47.5133 179.948 47.4434C180.087 47.3736 180.367 47.4434 180.646 47.5831C180.995 47.7926 181.205 48.0022 181.345 48.2815C181.484 48.5609 181.624 48.8403 181.624 49.1197V49.7483L181.205 49.5387V48.9102C181.205 48.5609 180.995 48.2815 180.646 48.072C180.297 47.8625 180.088 47.9323 180.088 48.2815V51.0055C180.088 51.3547 180.297 51.6341 180.646 51.8436C181.065 52.0531 181.205 51.9833 181.205 51.6341Z" fill="#FBB63F"/>
<path d="M183.158 49.1895L183.787 49.5387L184.625 54.4278L184.206 54.2182L183.996 53.1007L182.879 52.4721L182.669 53.3801L182.25 53.1706L183.158 49.1895ZM183.507 49.8879L183.018 52.0531L183.996 52.6118L183.507 49.8879Z" fill="#FBB63F"/>
<path d="M186.651 51.2137V51.6328L185.883 51.2137V55.1948L185.464 54.9853V51.0042L184.695 50.5851V50.166L186.651 51.2137Z" fill="#FBB63F"/>
<path d="M189.306 53.5907V56.3146C189.306 56.594 189.236 56.8035 189.027 56.8733C188.887 56.9432 188.608 56.8733 188.259 56.6638C187.909 56.4543 187.7 56.2447 187.49 55.9654C187.351 55.686 187.211 55.4066 187.211 55.1272V52.4033C187.211 52.1239 187.281 51.9144 187.49 51.8445C187.63 51.7747 187.909 51.8446 188.259 52.0541C188.608 52.2636 188.817 52.4732 189.027 52.7525C189.236 53.0319 189.306 53.3113 189.306 53.5907ZM188.887 56.0352V53.3113C188.887 52.9621 188.678 52.6827 188.328 52.4033C187.909 52.1938 187.77 52.2636 187.77 52.6128V55.3368C187.77 55.686 187.979 55.9654 188.328 56.2448C188.678 56.5241 188.887 56.4543 188.887 56.0352Z" fill="#FBB63F"/>
<path d="M190.771 57.9886L190.352 57.7791V53.3789L191.26 53.8678C191.539 54.0075 191.818 54.2869 191.958 54.4964C192.098 54.7758 192.168 55.0552 192.168 55.3345V56.3124C192.168 56.8013 192.028 56.941 191.679 56.8711L192.377 58.8966L191.958 58.6172L191.26 56.6616L190.771 56.3822V57.9886ZM191.818 56.1028V55.125C191.818 54.9853 191.748 54.7758 191.679 54.6361C191.609 54.4964 191.469 54.3567 191.26 54.2869L190.771 54.0075V56.033L191.26 56.3124C191.609 56.5219 191.818 56.4521 191.818 56.1028Z" fill="#FBB63F"/>
<path d="M195.103 59.6666C195.103 60.2952 194.754 60.4349 194.125 60.0159C193.497 59.6666 193.147 59.1079 193.147 58.4793V57.9205L193.567 58.13V58.7586C193.567 58.8983 193.636 59.1079 193.706 59.2476C193.776 59.3872 193.916 59.5269 194.125 59.6666C194.335 59.8063 194.475 59.8063 194.544 59.8063C194.614 59.8063 194.684 59.6666 194.684 59.5269C194.684 59.3872 194.684 59.2476 194.614 59.1079C194.614 58.9682 194.544 58.8983 194.405 58.6888L193.357 56.9427C193.217 56.7332 193.147 56.5236 193.078 56.3839C193.008 56.2442 193.008 56.0347 193.008 55.8252C193.008 55.5458 193.078 55.3363 193.217 55.2664C193.357 55.1966 193.636 55.2664 193.986 55.476C194.614 55.8252 194.894 56.3141 194.894 56.9427V57.5015L194.475 57.2919V56.6633C194.475 56.5236 194.405 56.3141 194.335 56.1744C194.265 56.0347 194.125 55.895 193.916 55.8252C193.706 55.6855 193.567 55.6855 193.497 55.7553C193.427 55.8252 193.357 55.895 193.357 56.0347C193.357 56.1744 193.357 56.3141 193.427 56.4538C193.427 56.5935 193.497 56.6633 193.636 56.8729L194.684 58.619C194.824 58.8285 194.894 59.038 194.894 59.1777C195.033 59.2476 195.103 59.4571 195.103 59.6666Z" fill="#FBB63F"/>
<path d="M199.363 59.3856V62.1095C199.363 62.3889 199.293 62.5984 199.084 62.6683C198.944 62.7381 198.664 62.6683 198.315 62.4587C197.966 62.2492 197.757 62.0397 197.547 61.7603C197.407 61.4809 197.268 61.2015 197.268 60.9221V58.1982C197.268 57.9188 197.337 57.7093 197.547 57.6395C197.687 57.5696 197.966 57.6395 198.315 57.849C198.664 58.0585 198.874 58.2681 199.084 58.5474C199.293 58.8268 199.363 59.1062 199.363 59.3856ZM198.944 61.9V59.176C198.944 58.8268 198.734 58.5474 198.385 58.2681C197.966 58.0585 197.826 58.1284 197.826 58.4776V61.2015C197.826 61.5507 198.036 61.8301 198.385 62.1095C198.804 62.319 198.944 62.2492 198.944 61.9Z" fill="#FBB63F"/>
<path d="M200.9 63.8578L200.48 63.6482V59.248L202.087 60.156V60.5751L200.9 59.8766V61.4132L201.877 61.972V62.391L200.9 61.8323V63.8578Z" fill="#FBB63F"/>
<path d="M205.79 62.2508V62.6699L205.021 62.2508V66.2319L204.602 66.0224V62.0413L203.834 61.6222V61.2031L205.79 62.2508Z" fill="#FBB63F"/>
<path d="M206.905 67.348L206.486 67.1385V62.7383L206.905 62.9478V64.9035L208.023 65.6019V63.6462L208.442 63.8558V68.256L208.023 68.0465V66.021L206.905 65.3225V67.348Z" fill="#FBB63F"/>
<path d="M211.377 69.8644L209.631 68.8865V64.4863L211.307 65.4641V65.8832L210.05 65.1848V66.7214L211.098 67.2801V67.6992L210.05 67.1404V68.7468L211.377 69.5151V69.8644Z" fill="#FBB63F"/>
<path d="M215.498 71.399C215.498 72.0276 215.148 72.1673 214.52 71.7483C213.891 71.399 213.542 70.8403 213.542 70.2117V69.6529L213.961 69.8625V70.4911C213.961 70.6308 214.031 70.8403 214.101 70.98C214.171 71.1197 214.31 71.2593 214.52 71.399C214.729 71.5387 214.869 71.5387 214.939 71.5387C215.009 71.5387 215.079 71.399 215.079 71.2594C215.079 71.1197 215.079 70.98 215.009 70.8403C215.009 70.7006 214.939 70.6308 214.799 70.4212L213.752 68.6751C213.612 68.4656 213.542 68.2561 213.472 68.1164C213.402 67.9767 213.402 67.7671 213.402 67.5576C213.402 67.2782 213.472 67.0687 213.612 66.9988C213.752 66.929 214.031 66.9988 214.38 67.2084C215.009 67.5576 215.288 68.0465 215.288 68.6751V69.2339L214.869 69.0243V68.3957C214.869 68.256 214.799 68.0465 214.729 67.9068C214.66 67.7671 214.52 67.6274 214.31 67.5576C214.101 67.4179 213.961 67.4179 213.891 67.4877C213.821 67.5576 213.752 67.6275 213.752 67.7671C213.752 67.9068 213.752 68.0465 213.821 68.1862C213.821 68.3259 213.891 68.3957 214.031 68.6053L215.079 70.3514C215.218 70.5609 215.288 70.7704 215.288 70.9101C215.428 71.0498 215.498 71.1895 215.498 71.399Z" fill="#FBB63F"/>
<path d="M217.454 73.4243L217.034 73.2148V71.6084L216.057 68.2559L216.476 68.5352L217.244 71.2592L218.012 69.4432L218.431 69.7226L217.454 71.9576V73.4243Z" fill="#FBB63F"/>
<path d="M221.015 74.6119C221.015 75.2405 220.666 75.3802 220.037 74.9611C219.409 74.6119 219.06 74.0532 219.06 73.4246V72.8658L219.479 73.0753V73.704C219.479 73.8436 219.549 73.9833 219.618 74.1929C219.688 74.3325 219.828 74.4722 220.037 74.6119C220.247 74.7516 220.387 74.7516 220.457 74.7516C220.526 74.7516 220.596 74.6119 220.596 74.4722C220.596 74.3325 220.596 74.1929 220.526 74.0532C220.526 73.9135 220.456 73.8436 220.317 73.6341L219.269 71.888C219.129 71.6785 219.06 71.4689 218.99 71.3292C218.92 71.1895 218.92 70.98 218.92 70.7705C218.92 70.4911 218.99 70.2816 219.129 70.2117C219.269 70.1419 219.549 70.2117 219.898 70.4213C220.526 70.7705 220.806 71.2594 220.806 71.888V72.4467L220.387 72.2372V71.6086C220.387 71.4689 220.317 71.2594 220.247 71.1197C220.177 70.98 220.037 70.8403 219.828 70.7705C219.618 70.6308 219.479 70.6308 219.409 70.7006C219.339 70.7705 219.269 70.8403 219.269 70.98C219.269 71.1197 219.269 71.2594 219.339 71.3991C219.339 71.5388 219.409 71.6086 219.549 71.8182L220.596 73.5643C220.736 73.7738 220.806 73.9833 220.806 74.123C221.015 74.1928 221.015 74.4024 221.015 74.6119Z" fill="#FBB63F"/>
<path d="M223.598 72.5184V72.9374L222.83 72.5184V76.4995L222.411 76.29V72.3088L221.643 71.8898V71.4707L223.598 72.5184Z" fill="#FBB63F"/>
<path d="M226.043 78.3839L224.297 77.406V73.0059L225.973 73.9837V74.4027L224.716 73.7043V75.2409L225.764 75.7996V76.2187L224.716 75.6599V77.2663L226.043 78.0346V78.3839Z" fill="#FBB63F"/>
<path d="M227.37 79.1527L226.951 78.9432V74.543L227.58 74.8922L228.278 78.1749L228.977 75.6605L229.605 76.0097V80.4099L229.186 80.2004V76.5684L228.488 79.1527L228.139 78.9432L227.44 75.5906V79.1527H227.37Z" fill="#FBB63F"/>
<path d="M171.075 27.5369V27.8861L170.447 27.5369V30.7497L170.097 30.5402V27.3273L169.469 26.9781V26.6289L171.075 27.5369Z" fill="#FBB63F"/>
<path d="M173.03 32.2156L171.633 31.4473V27.9551L172.96 28.7233V29.0726L171.982 28.5138V29.771L172.82 30.2599V30.6092L171.982 30.1202V31.4473L173.03 32.0759V32.2156Z" fill="#FBB63F"/>
<path d="M175.265 32.8458C175.265 33.3347 174.986 33.4744 174.497 33.1252C173.938 32.8458 173.729 32.4267 173.729 31.9378V31.4489L174.078 31.6584V32.1473C174.078 32.287 174.148 32.4267 174.217 32.4966C174.287 32.6363 174.427 32.7061 174.567 32.7759C174.706 32.8458 174.846 32.9156 174.916 32.8458C174.986 32.8458 175.056 32.7759 175.056 32.6362C175.056 32.4966 175.056 32.4267 175.056 32.287C175.056 32.2172 174.986 32.0775 174.916 32.0077L174.078 30.6108C174.008 30.4711 173.938 30.2615 173.868 30.1917C173.798 30.052 173.798 29.9123 173.798 29.7726C173.798 29.5631 173.868 29.3536 174.008 29.3536C174.148 29.2837 174.357 29.3536 174.567 29.4933C175.056 29.7726 175.335 30.1917 175.335 30.6806V31.1695L174.986 30.96V30.4711C174.986 30.3314 174.986 30.1917 174.846 30.1218C174.776 29.9822 174.637 29.9123 174.497 29.8425C174.357 29.7726 174.217 29.7028 174.148 29.7726C174.078 29.7726 174.008 29.9123 174.008 29.9822C174.008 30.1219 174.008 30.1917 174.008 30.3314C174.008 30.4012 174.078 30.5409 174.148 30.6108L174.986 32.0077C175.056 32.1473 175.125 32.3569 175.195 32.4267C175.195 32.4966 175.265 32.6363 175.265 32.8458Z" fill="#FBB63F"/>
<path d="M177.29 31.1697V31.5189L176.661 31.1697V34.3825L176.312 34.173V30.9602L175.684 30.6109V30.2617L177.29 31.1697Z" fill="#FBB63F"/>
<path d="M178.55 35.0806V35.4299L177.781 34.941V34.5917L177.991 34.7314V31.8678L177.781 31.7281V31.3789L178.55 31.8678V32.217L178.34 32.0773V34.941L178.55 35.0806Z" fill="#FBB63F"/>
<path d="M179.666 36.0592L179.316 35.8496V32.3574L179.666 32.5669L180.713 35.8496V33.1257L181.063 33.3352V36.8275L180.713 36.6179L179.666 33.3352V36.0592Z" fill="#FBB63F"/>
<path d="M182.598 36.2683V35.9191L183.436 36.408V38.1541L183.297 38.0842L183.157 37.6652C183.087 37.735 183.017 37.8048 182.878 37.8048C182.738 37.8048 182.668 37.8049 182.529 37.735C182.109 37.4556 181.83 37.1064 181.83 36.6175V34.4523C181.83 34.2428 181.9 34.0333 182.04 34.0333C182.179 33.9634 182.389 34.0333 182.598 34.173C182.878 34.3126 183.017 34.5222 183.157 34.7317C183.297 34.9412 183.367 35.1508 183.367 35.4301V35.7095L183.017 35.5V35.2206C183.017 34.9412 182.878 34.7317 182.598 34.5222C182.319 34.3825 182.179 34.3825 182.179 34.7317V36.8969C182.179 37.0366 182.179 37.1763 182.249 37.2461C182.319 37.3159 182.389 37.4556 182.529 37.5255C182.668 37.5953 182.808 37.5953 182.878 37.5255C183.017 37.4556 183.017 37.3858 183.017 37.2461V36.5477L182.598 36.2683Z" fill="#FBB63F"/>
<path d="M186.581 36.5466V36.8959L185.952 36.5466V39.7595L185.603 39.5499V36.3371L184.975 35.9879V35.6387L186.581 36.5466Z" fill="#FBB63F"/>
<path d="M187.558 40.5982L187.209 40.3887V36.8965L187.558 37.106V38.6426L188.466 39.2013V37.5949L188.815 37.8045V41.2967L188.466 41.0871V39.4807L187.558 38.922V40.5982Z" fill="#FBB63F"/>
<path d="M191.121 42.6238L189.725 41.8555V38.3633L191.052 39.1316V39.4808L190.074 38.922V40.1792L190.912 40.6681V41.0174L190.074 40.5285V41.8555L191.121 42.4841V42.6238Z" fill="#FBB63F"/>
<path d="M194.333 43.8805C194.333 44.3694 194.054 44.5091 193.565 44.1599C193.006 43.8805 192.797 43.4614 192.797 42.9725V42.4836L193.146 42.6931V43.182C193.146 43.3217 193.216 43.4614 193.286 43.5313C193.356 43.6709 193.495 43.7408 193.635 43.8106C193.775 43.8805 193.914 43.9503 193.984 43.8805C194.054 43.8805 194.124 43.8106 194.124 43.671C194.124 43.5313 194.124 43.4614 194.124 43.3217C194.124 43.2519 194.054 43.1122 193.984 42.9725L193.146 41.5756C193.076 41.3661 193.006 41.2264 192.937 41.1566C192.937 41.0169 192.867 40.8772 192.867 40.7375C192.867 40.528 192.937 40.3184 193.076 40.3184C193.216 40.2486 193.425 40.3184 193.635 40.4581C194.124 40.7375 194.403 41.1565 194.403 41.6455V42.1344L194.054 41.9248V41.4359C194.054 41.2962 194.054 41.1566 193.914 41.0867C193.845 40.947 193.705 40.8772 193.565 40.8073C193.425 40.7375 193.286 40.6676 193.216 40.7375C193.146 40.7375 193.076 40.8772 193.076 40.947C193.076 41.0867 193.076 41.1565 193.076 41.2962C193.076 41.3661 193.146 41.5058 193.216 41.5756L194.054 42.9725C194.124 43.1122 194.194 43.2519 194.264 43.3916C194.333 43.5312 194.333 43.6709 194.333 43.8805Z" fill="#FBB63F"/>
<path d="M195.94 45.4172L195.591 45.2077V43.9505L194.822 41.2266L195.171 41.4361L195.73 43.6013L196.289 42.1345L196.638 42.3441L195.87 44.16V45.4172H195.94Z" fill="#FBB63F"/>
<path d="M198.802 46.3942C198.802 46.8831 198.523 47.0227 198.034 46.6735C197.475 46.3941 197.266 45.9751 197.266 45.4862V44.9973L197.615 45.2068V45.6957C197.615 45.8354 197.685 45.9751 197.755 46.0449C197.824 46.1846 197.964 46.2545 198.104 46.3243C198.243 46.3941 198.383 46.464 198.453 46.3942C198.523 46.3942 198.593 46.3243 198.593 46.1846C198.593 46.0449 198.593 45.9751 198.593 45.8354C198.593 45.7655 198.523 45.6259 198.453 45.4862L197.615 44.0893C197.545 43.9496 197.475 43.8099 197.405 43.6702C197.405 43.5305 197.335 43.3908 197.335 43.2512C197.335 43.0416 197.405 42.8321 197.545 42.8321C197.685 42.7622 197.894 42.8321 198.104 42.9718C198.593 43.2512 198.872 43.6702 198.872 44.1591V44.648L198.523 44.4385V43.9496C198.523 43.8099 198.523 43.6702 198.383 43.6004C198.313 43.4607 198.174 43.3908 198.034 43.321C197.894 43.2512 197.755 43.1813 197.685 43.2512C197.615 43.2512 197.545 43.3908 197.545 43.4607C197.545 43.6004 197.545 43.6702 197.545 43.8099C197.545 43.8797 197.615 44.0194 197.685 44.0893L198.523 45.4862C198.593 45.6259 198.662 45.7655 198.732 45.9052C198.802 46.1148 198.802 46.2545 198.802 46.3942Z" fill="#FBB63F"/>
<path d="M200.829 44.7888V45.138L200.2 44.7888V48.0017L199.851 47.7921V44.5793L199.223 44.2301V43.8809L200.829 44.7888Z" fill="#FBB63F"/>
<path d="M202.854 49.3992L201.457 48.6309V45.1387L202.784 45.907V46.2562L201.806 45.6974V46.9546L202.644 47.4435V47.7928L201.806 47.3039V48.6309L202.854 49.2595V49.3992Z" fill="#FBB63F"/>
<path d="M203.902 50.0279L203.553 49.8184V46.3262L204.042 46.6055L204.6 49.2596L205.159 47.2341L205.648 47.5135V51.0058L205.299 50.8661V47.9326L204.74 49.9581L204.461 49.7485L203.902 47.0945V50.0279Z" fill="#FBB63F"/>
<path d="M298.404 116.589V119.313C298.404 119.592 298.334 119.802 298.125 119.871C297.985 119.941 297.705 119.871 297.356 119.662C297.007 119.452 296.798 119.243 296.588 118.963C296.448 118.684 296.309 118.405 296.309 118.125V115.401C296.309 115.122 296.378 114.912 296.588 114.843C296.728 114.773 297.007 114.843 297.356 115.052C297.705 115.262 297.915 115.471 298.125 115.751C298.334 116.03 298.404 116.309 298.404 116.589ZM297.985 119.033V116.309C297.985 115.96 297.775 115.681 297.426 115.401C297.007 115.192 296.867 115.262 296.867 115.611V118.335C296.867 118.684 297.077 118.963 297.426 119.243C297.775 119.452 297.985 119.382 297.985 119.033Z" fill="#FBB63F"/>
<path d="M300.639 121.408L300.01 121.059L299.172 116.17L299.591 116.379L300.359 120.71L301.128 117.287L301.547 117.497L300.639 121.408Z" fill="#FBB63F"/>
<path d="M303.99 123.362L302.244 122.385V117.984L303.92 118.962V119.381L302.663 118.683V120.219L303.711 120.778V121.197L302.663 120.638V122.245L303.99 123.013V123.362Z" fill="#FBB63F"/>
<path d="M305.318 124.131L304.898 123.922V119.521L305.806 120.01C306.086 120.22 306.365 120.429 306.505 120.639C306.645 120.918 306.714 121.198 306.714 121.477V122.455C306.714 122.944 306.575 123.084 306.225 123.014L306.924 125.039L306.505 124.76L305.806 122.804L305.318 122.525V124.131ZM306.295 122.176V121.198C306.295 121.058 306.226 120.849 306.156 120.709C306.086 120.569 305.946 120.429 305.737 120.36L305.248 120.08V122.106L305.737 122.385C306.156 122.595 306.295 122.525 306.295 122.176Z" fill="#FBB63F"/>
<path d="M308.252 121.408L308.88 121.757L309.718 126.647L309.299 126.437L309.09 125.319L307.972 124.691L307.763 125.599L307.344 125.389L308.252 121.408ZM308.531 122.107L308.042 124.272L309.02 124.831L308.531 122.107Z" fill="#FBB63F"/>
<path d="M310.557 127.135V122.734L310.976 122.944V126.925L312.023 127.554V127.973L310.557 127.135Z" fill="#FBB63F"/>
<path d="M312.723 128.392V123.992L313.142 124.202V128.183L314.189 128.811V129.231L312.723 128.392Z" fill="#FBB63F"/>
<path d="M316.632 130.698L316.213 130.488V126.088L317.121 126.577C317.4 126.716 317.68 126.996 317.819 127.205C317.959 127.485 318.029 127.764 318.029 128.044V129.021C318.029 129.51 317.889 129.65 317.54 129.58L318.238 131.606L317.819 131.326L317.121 129.371L316.632 129.091V130.698ZM317.68 128.742V127.764C317.68 127.624 317.61 127.415 317.54 127.275C317.47 127.136 317.33 126.996 317.121 126.926L316.632 126.647V128.672L317.121 128.951C317.47 129.161 317.68 129.091 317.68 128.742Z" fill="#FBB63F"/>
<path d="M320.822 133.071L319.076 132.094V127.693L320.752 128.671V129.09L319.495 128.392V129.928L320.543 130.487V130.906L319.495 130.347V131.954L320.822 132.722V133.071Z" fill="#FBB63F"/>
<path d="M323.547 133.769C323.547 134.398 323.197 134.538 322.569 134.119C321.94 133.769 321.591 133.211 321.591 132.582V132.023L322.01 132.233V132.861C322.01 133.001 322.08 133.211 322.15 133.35C322.219 133.49 322.359 133.63 322.569 133.769C322.778 133.909 322.918 133.909 322.988 133.909C323.058 133.909 323.127 133.769 323.127 133.63C323.127 133.49 323.127 133.35 323.058 133.211C323.058 133.071 322.988 133.001 322.848 132.792L321.8 131.045C321.661 130.836 321.591 130.626 321.521 130.487C321.451 130.347 321.451 130.137 321.451 129.928C321.451 129.649 321.521 129.439 321.661 129.369C321.8 129.299 322.08 129.369 322.429 129.509C323.058 129.858 323.337 130.347 323.337 130.976V131.534L322.918 131.325V130.696C322.918 130.557 322.848 130.347 322.778 130.207C322.708 130.068 322.569 129.928 322.359 129.858C322.15 129.718 322.01 129.718 321.94 129.788C321.87 129.858 321.8 129.928 321.8 130.068C321.8 130.207 321.8 130.347 321.87 130.487C321.87 130.626 321.94 130.696 322.08 130.906L323.127 132.652C323.267 132.861 323.337 133.071 323.337 133.211C323.547 133.42 323.547 133.63 323.547 133.769Z" fill="#FBB63F"/>
<path d="M326.131 135.306V131.743L326.55 131.953V135.515C326.55 135.794 326.481 136.004 326.271 136.074C326.131 136.144 325.852 136.074 325.503 135.864C325.154 135.655 324.944 135.445 324.734 135.166C324.595 134.886 324.455 134.607 324.455 134.328V130.766L324.874 130.975V134.537C324.874 134.886 325.084 135.166 325.433 135.445C325.922 135.725 326.131 135.655 326.131 135.306Z" fill="#FBB63F"/>
<path d="M327.668 136.982V132.582L328.087 132.792V136.773L329.135 137.401V137.82L327.668 136.982Z" fill="#FBB63F"/>
<path d="M331.02 134.538V134.957L330.252 134.538V138.519L329.833 138.31V134.328L329.064 133.909V133.49L331.02 134.538Z" fill="#FBB63F"/>
<g opacity="0.5">
<path opacity="0.5" d="M274.447 207.456L264.809 201.868V201.17L273.889 206.408V113.166L168.982 52.6809V51.9824L274.447 112.887V207.456Z" fill="#5288C0"/>
</g>
<g opacity="0.5">
<path opacity="0.5" d="M331.58 146.551L295.471 125.668V125.039L331.58 145.853V146.551Z" fill="#5288C0"/>
</g>
<path d="M211.935 52.6106C211.935 53.2392 211.516 53.4488 211.027 53.1694C210.538 52.89 210.119 52.1217 210.119 51.563C210.119 50.9344 210.538 50.7249 211.027 51.0042C211.516 51.2836 211.935 51.982 211.935 52.6106Z" fill="#FBB63F"/>
<path d="M217.105 55.6145C217.105 56.2431 216.686 56.4527 216.197 56.1733C215.708 55.8939 215.289 55.1256 215.289 54.5669C215.289 53.9383 215.708 53.7288 216.197 54.0081C216.686 54.2875 217.105 54.9859 217.105 55.6145Z" fill="#FBB63F"/>
<path d="M222.273 58.6185C222.273 59.2471 221.854 59.4566 221.365 59.1772C220.876 58.8978 220.457 58.1296 220.457 57.5708C220.457 56.9422 220.876 56.7327 221.365 57.012C221.854 57.2914 222.273 57.9899 222.273 58.6185Z" fill="#FBB63F"/>
<path d="M148.658 168.412C149.985 165.757 143.769 157.935 142.023 158.703C137.064 163.034 141.045 180.355 143.49 189.924C143.979 191.949 153.058 195.721 153.058 195.721C153.058 195.721 144.677 176.444 148.658 168.412Z" fill="url(#paint11_linear)"/>
<path d="M161.578 194.884L185.674 206.059L182.462 195.792L158.086 188.947L161.578 194.884Z" fill="#FFE9C2"/>
<path d="M160.39 252.574C160.39 252.574 158.714 259.699 162.905 278.068C158.085 303.351 164.441 303.98 164.86 334.083C164.86 334.083 164.93 336.318 166.606 336.318C171.915 336.318 170.518 336.318 170.518 336.318C170.518 336.318 168.981 294.481 180.017 243.006C181.134 237.837 159.133 246.568 153.126 244.892C148.656 243.634 144.605 234.834 144.605 234.834C147.329 261.934 149.145 261.934 149.844 268.359C144.605 282.468 154.733 288.125 148.307 320.603C148.028 321.86 149.564 326.679 152.777 322.978C154.454 321.022 161.438 273.248 160.181 270.315C157.527 254.251 160.39 252.574 160.39 252.574Z" fill="#FFE9C2"/>
<path d="M156.62 325.423L162.976 324.724C162.976 324.724 165.141 325.353 159.554 328.566C150.683 333.595 154.176 323.747 149.356 324.305C148.867 324.515 148.798 331.01 148.798 331.01C148.798 331.01 147.89 331.499 148.099 330.382C148.379 328.636 147.121 324.096 147.051 323.467C146.842 322.07 145.864 322.14 146.213 320.604C150.194 302.793 156.62 325.423 156.62 325.423Z" fill="#2A253F"/>
<path d="M158.156 156.958C151.73 154.932 149.355 154.792 143.349 157.726C138.739 159.961 138.739 167.015 143.069 172.673C151.52 204.103 151.031 204.102 146.282 215.557C140.066 230.504 144.676 238.326 146.911 256.975C147.399 261.026 147.26 260.607 162.905 266.054C172.124 267.451 177.642 263.121 178.48 255.927C180.715 236.51 182.671 236.79 180.715 225.475C179.458 218.421 168.213 203.195 170.448 199.423C178.76 192.508 181.204 187.899 179.598 177.003C177.433 161.777 173.731 163.453 158.156 156.958Z" fill="url(#paint12_linear)"/>
<path d="M174.081 340.857L180.995 339.6C180.995 339.6 185.186 339.669 177.503 343.441C168.354 347.981 171.357 339.669 166.677 341.066C166.258 341.346 166.398 347.073 166.398 347.073C166.398 347.073 165.63 347.701 165.56 346.584C165.49 344.838 164.442 341.206 164.233 340.647C163.814 339.32 162.836 339.599 162.836 337.993C163.674 319.764 174.081 340.857 174.081 340.857Z" fill="#2A253F"/>
<path d="M154.733 146.97C154.733 146.97 157.667 152.837 155.92 156.05C154.244 159.263 154.244 159.263 154.244 159.263C154.244 159.263 155.641 161.498 161.368 162.615C167.096 163.733 167.934 160.52 167.934 160.52V150.183C167.934 150.183 172.823 153.885 174.778 153.605C176.734 153.326 181.972 138.1 181.553 130.766C181.483 129.928 172.823 127.344 168.981 129.649C161.089 134.398 154.733 146.97 154.733 146.97Z" fill="#FFE9C2"/>
<path d="M170.45 199.632C172.894 197.607 174.78 195.791 176.247 193.975C178.552 187.619 178.412 184.267 178.412 175.397C176.037 172.044 170.17 178.33 170.17 178.33C170.17 178.33 162.837 181.263 167.796 206.268C169.472 214.649 160.043 215.976 167.796 234.345C172.056 244.333 162.767 248.943 168.564 266.404C174.361 265.566 177.783 261.724 178.482 256.206C180.018 242.866 181.415 238.815 181.555 233.926C181.555 231.412 181.275 228.827 180.717 225.754C179.529 218.63 168.215 203.404 170.45 199.632Z" fill="#FBB63F"/>
<path d="M176.245 166.176C176.245 166.176 190.913 204.59 188.678 205.498C186.513 206.336 184.417 207.593 178.48 200.33C172.125 192.577 169.261 185.453 170.448 178.748C171.566 172.043 176.245 166.176 176.245 166.176Z" fill="#602598"/>
<path d="M174.639 121.546C164.022 115.26 158.155 117.146 154.733 120.917C153.825 120.917 153.057 120.917 153.057 120.917C153.057 120.917 148.866 120.358 147.539 133.349C146.91 139.705 152.219 149.972 150.263 154.861C148.656 158.912 144.605 164.29 144.605 164.29L148.796 165.129L151.52 161.357L150.542 165.129C150.542 165.129 163.324 167.084 165.629 164.779C168.003 162.405 166.048 154.373 164.721 147.039C164.721 146.969 164.721 146.899 164.651 146.829C165.14 146.271 165.698 145.712 166.187 145.013C168.003 135.096 172.054 142.429 172.054 142.429C172.054 142.429 172.054 128.74 181.553 132.092C184.417 130.276 178.27 123.711 174.639 121.546Z" fill="#740B99"/>
<path opacity="0.3" d="M143.348 173.441C143.348 173.441 143.627 184.128 144.675 186.921C145.722 189.645 148.376 193.207 148.376 193.207L143.348 173.441Z" fill="#F0D6F2"/>
<path d="M165.699 164.711C168.074 162.337 163.953 156.121 165.141 148.717C166.677 139.078 157.458 139.078 157.737 122.525L157.458 122.805C154.175 129.999 158.226 137.123 159.623 144.596C160.95 152 154.734 156.33 154.873 163.664C154.873 164.362 154.943 164.991 155.013 165.619C158.924 166.038 164.233 166.178 165.699 164.711Z" fill="#FBB63F"/>
<defs>
<linearGradient id="paint0_linear" x1="0.283939" y1="300.629" x2="458.834" y2="300.629" gradientUnits="userSpaceOnUse">
<stop offset="0.00485437" stop-color="#112552"/>
<stop offset="0.2087" stop-color="#224A9E"/>
<stop offset="0.3932" stop-color="#4B02AA"/>
<stop offset="0.6068" stop-color="#8024AA"/>
<stop offset="0.8447" stop-color="#D88282"/>
<stop offset="1" stop-color="#B24EA6"/>
</linearGradient>
<linearGradient id="paint1_linear" x1="0.281749" y1="287.044" x2="458.836" y2="287.044" gradientUnits="userSpaceOnUse">
<stop stop-color="#214B9E"/>
<stop offset="0.2233" stop-color="#4C00AA"/>
<stop offset="0.7961" stop-color="#AE45AA"/>
<stop offset="1" stop-color="#D89D82"/>
</linearGradient>
<linearGradient id="paint2_linear" x1="0.281749" y1="284.881" x2="458.836" y2="284.881" gradientUnits="userSpaceOnUse">
<stop stop-color="#214B9E"/>
<stop offset="0.2233" stop-color="#4C00AA"/>
<stop offset="0.7961" stop-color="#AE45AA"/>
<stop offset="1" stop-color="#D89D82"/>
</linearGradient>
<linearGradient id="paint3_linear" x1="-231.144" y1="282.466" x2="0.588244" y2="679.027" gradientUnits="userSpaceOnUse">
<stop stop-color="#FBB63F"/>
<stop offset="0.981306" stop-color="#B069A1"/>
</linearGradient>
<linearGradient id="paint4_linear" x1="-162.284" y1="288.226" x2="36.5451" y2="632.606" gradientUnits="userSpaceOnUse">
<stop stop-color="#7D15A1"/>
<stop offset="1" stop-color="#B675A8"/>
</linearGradient>
<linearGradient id="paint5_linear" x1="-162.386" y1="288.241" x2="36.4045" y2="632.638" gradientUnits="userSpaceOnUse">
<stop stop-color="#7D15A1"/>
<stop offset="1" stop-color="#B675A8"/>
</linearGradient>
<linearGradient id="paint6_linear" x1="158.914" y1="141.86" x2="355.666" y2="141.86" gradientUnits="userSpaceOnUse">
<stop stop-color="#214B9E"/>
<stop offset="0.2233" stop-color="#4C00AA"/>
<stop offset="0.7961" stop-color="#AE45AA"/>
</linearGradient>
<linearGradient id="paint7_linear" x1="156.126" y1="144.52" x2="346.063" y2="144.52" gradientUnits="userSpaceOnUse">
<stop stop-color="#214B9E"/>
<stop offset="0.2233" stop-color="#4C00AA"/>
<stop offset="0.7961" stop-color="#AE45AA"/>
</linearGradient>
<linearGradient id="paint8_linear" x1="157.567" y1="144.039" x2="347.504" y2="144.039" gradientUnits="userSpaceOnUse">
<stop stop-color="#214B9E"/>
<stop offset="0.2233" stop-color="#4C00AA"/>
<stop offset="0.7961" stop-color="#AE45AA"/>
</linearGradient>
<linearGradient id="paint9_linear" x1="69.1482" y1="148.438" x2="321.142" y2="320.285" gradientUnits="userSpaceOnUse">
<stop stop-color="#7D15A1"/>
<stop offset="1" stop-color="#B675A8"/>
</linearGradient>
<linearGradient id="paint10_linear" x1="329.457" y1="266.149" x2="403.411" y2="281.056" gradientUnits="userSpaceOnUse">
<stop stop-color="#7D15A1"/>
<stop offset="1" stop-color="#B675A8"/>
</linearGradient>
<linearGradient id="paint11_linear" x1="139.667" y1="177.209" x2="153.047" y2="177.209" gradientUnits="userSpaceOnUse">
<stop stop-color="#3F317D"/>
<stop offset="1" stop-color="#602598"/>
</linearGradient>
<linearGradient id="paint12_linear" x1="139.911" y1="210.993" x2="181.56" y2="210.993" gradientUnits="userSpaceOnUse">
<stop stop-color="#332866"/>
<stop offset="0.7961" stop-color="#602598"/>
</linearGradient>
</defs>
</svg>
