<svg width="475" height="424" viewBox="0 0 475 424" fill="none" xmlns="http://www.w3.org/2000/svg">
<path d="M190.692 278.538C179.987 284.766 171.274 324.623 171.274 336.954V354.143C171.274 358.253 168.411 363.36 164.801 365.353L111.651 395.994L59.8691 380.3L23.5224 358.876L11.8217 365.602L0.121094 361.99V376.439V377.435H0.245576C0.619001 379.552 2.23717 381.794 5.10009 383.414L69.9516 420.905C76.5487 424.766 87.5025 424.766 94.0997 420.905L103.435 415.549L164.801 380.3C175.506 374.072 184.22 359.001 184.22 346.545V329.356C184.22 325.246 187.083 320.139 190.692 318.146L274.837 269.57V254.623L190.692 278.538Z" fill="url(#paint0_linear)"/>
<path d="M99.7007 405.211L166.793 367.097C170.402 364.98 173.265 359.998 173.265 355.887V338.699C173.265 326.368 181.979 311.172 192.683 304.944L274.837 257.115L192.932 202.559C192.932 202.559 192.808 202.684 192.435 202.933V201.064L108.289 249.641C97.5846 255.869 88.8714 270.94 88.8714 283.396V300.585C88.8714 304.695 86.0084 309.802 82.3987 311.795L17.2983 350.158L4.97522 357.257C-1.62195 361.119 -1.62195 367.346 4.97522 371.208L69.8267 408.699C76.4239 412.56 87.3776 412.56 93.9748 408.699L98.9538 405.834C98.9538 405.834 99.2028 405.71 99.5762 405.585V405.211H99.7007Z" fill="url(#paint1_linear)"/>
<path d="M99.7007 402.844L164.801 365.477C168.411 363.36 171.274 358.378 171.274 354.267V337.079C171.274 324.748 179.987 309.552 190.692 303.324L274.837 254.747L192.932 200.192C192.932 200.192 192.808 200.316 192.435 200.566V198.697L108.289 247.274C97.5846 253.502 88.8714 268.573 88.8714 281.029V298.217C88.8714 302.328 86.0084 307.434 82.3987 309.427L17.2983 347.666L4.97522 354.766C-1.62195 358.627 -1.62195 364.855 4.97522 368.716L69.8267 406.207C76.4239 410.068 87.3776 410.068 93.9748 406.207L98.9538 403.342C98.9538 403.342 99.2028 403.218 99.5762 403.093V402.844H99.7007Z" fill="url(#paint2_linear)"/>
<path d="M85.5101 403.466C83.5185 404.587 80.2822 404.587 78.2906 403.466C76.299 402.345 76.299 400.477 78.2906 399.231C80.2822 398.11 83.5185 398.11 85.5101 399.231C87.6262 400.477 87.6262 402.345 85.5101 403.466Z" fill="url(#paint3_linear)"/>
<path d="M85.5101 402.968C83.5185 404.089 80.2822 404.089 78.2906 402.968C76.299 401.847 76.299 399.979 78.2906 398.733C80.2822 397.612 83.5185 397.612 85.5101 398.733C87.6262 399.854 87.6262 401.723 85.5101 402.968Z" fill="url(#paint4_linear)"/>
<path d="M85.5101 400.726C83.5185 401.847 80.2822 401.847 78.2906 400.726C76.299 399.605 76.299 397.737 78.2906 396.491C80.2822 395.37 83.5185 395.37 85.5101 396.491C87.6262 397.737 87.6262 399.605 85.5101 400.726Z" fill="#96A2CC"/>
<path opacity="0.6" d="M85.5101 400.726C83.5185 401.847 80.2822 401.847 78.2906 400.726C76.299 399.605 76.299 397.737 78.2906 396.491C80.2822 395.37 83.5185 395.37 85.5101 396.491C87.6262 397.737 87.6262 399.605 85.5101 400.726Z" fill="url(#paint5_linear)"/>
<path d="M78.9124 396.242C78.6634 396.367 78.5389 396.367 78.29 396.491C78.1655 396.491 78.1655 396.616 78.041 396.616L85.2605 400.726C85.385 400.726 85.5095 400.602 85.634 400.602C85.7584 400.477 86.0074 400.353 86.1319 400.228L78.9124 396.242Z" fill="#3F3CAB"/>
<path d="M13.6878 364.855C11.6962 365.976 8.45991 365.976 6.46831 364.855C4.47671 363.734 4.47671 361.866 6.46831 360.62C8.45991 359.499 11.6962 359.499 13.6878 360.62C15.6794 361.741 15.6794 363.609 13.6878 364.855Z" fill="url(#paint6_linear)"/>
<path d="M13.6878 364.232C11.6962 365.353 8.45991 365.353 6.46831 364.232C4.47671 363.111 4.47671 361.243 6.46831 359.997C8.45991 358.876 11.6962 358.876 13.6878 359.997C15.6794 361.243 15.6794 363.111 13.6878 364.232Z" fill="url(#paint7_linear)"/>
<path d="M13.6878 362.115C11.6962 363.236 8.45991 363.236 6.46831 362.115C4.47671 360.994 4.47671 359.125 6.46831 357.88C8.45991 356.759 11.6962 356.759 13.6878 357.88C15.6794 359.125 15.6794 360.994 13.6878 362.115Z" fill="#96A2CC"/>
<path opacity="0.6" d="M13.6878 362.115C11.6962 363.236 8.45991 363.236 6.46831 362.115C4.47671 360.994 4.47671 359.125 6.46831 357.88C8.45991 356.759 11.6962 356.759 13.6878 357.88C15.6794 359.125 15.6794 360.994 13.6878 362.115Z" fill="url(#paint8_linear)"/>
<path d="M6.967 357.631C6.71805 357.755 6.59358 357.755 6.34463 357.88C6.22015 357.88 6.22018 358.005 6.0957 358.129L13.3152 362.239C13.4397 362.239 13.5641 362.115 13.6886 362.115C13.8131 361.99 14.0621 361.866 14.1865 361.741L6.967 357.631Z" fill="#3F3CAB"/>
<path d="M471.507 209.536C470.013 207.792 468.146 206.173 465.656 204.802L279.193 97.0618C267.368 90.2112 248.199 90.2112 236.373 97.0618L49.91 204.802C47.4205 206.173 45.5534 207.916 44.0597 209.66H41.0723V219.002H41.1967C41.8191 222.863 44.8065 226.724 49.91 229.714L236.373 337.454C248.199 344.305 267.368 344.305 279.193 337.454L465.656 229.714C470.76 226.724 473.747 222.988 474.37 219.002H474.494V209.66H471.507V209.536Z" fill="#827FB5"/>
<path d="M471.507 205.052C470.013 203.308 468.146 206.173 465.656 204.802L279.193 97.0618C267.368 90.2112 248.199 90.2112 236.373 97.0618L49.91 204.802C47.4205 206.173 45.5534 207.916 44.0597 209.66H41.0723V219.002H41.1967C41.8191 222.863 44.8065 226.724 49.91 229.714L236.373 337.454C248.199 344.305 267.368 344.305 279.193 337.454L465.656 229.714C470.76 226.724 473.747 222.988 474.37 219.002H474.494V205.176H471.507V205.052Z" fill="url(#paint9_linear)"/>
<path d="M279.193 324.375C267.368 331.225 248.198 331.225 236.373 324.375L49.9099 216.634C38.0847 209.783 38.0847 198.698 49.9099 191.847L236.373 84.1067C248.198 77.2561 267.368 77.2561 279.193 84.1067L465.656 191.972C477.481 198.822 477.481 209.908 465.656 216.758L279.193 324.375Z" fill="url(#paint10_linear)"/>
<path d="M279.193 322.382C267.368 329.233 248.198 329.233 236.373 322.382L49.9099 214.642C38.0847 207.791 38.0847 196.706 49.9099 189.855L236.373 82.1145C248.198 75.2639 267.368 75.2639 279.193 82.1145L465.656 189.855C477.481 196.706 477.481 207.791 465.656 214.642L279.193 322.382Z" fill="#BFBCE0"/>
<path d="M279.193 322.382C267.368 329.233 248.198 329.233 236.373 322.382L49.9099 214.642C38.0847 207.791 38.0847 196.706 49.9099 189.855L236.373 82.1145C248.198 75.2639 267.368 75.2639 279.193 82.1145L465.656 189.855C477.481 196.706 477.481 207.791 465.656 214.642L279.193 322.382Z" fill="url(#paint11_linear)"/>
<path d="M279.193 322.382C267.368 329.233 248.198 329.233 236.373 322.382L49.9099 214.642C38.0847 207.791 38.0847 196.706 49.9099 189.855L236.373 82.1145C248.198 75.2639 267.368 75.2639 279.193 82.1145L465.656 189.855C477.481 196.706 477.481 207.791 465.656 214.642L279.193 322.382Z" fill="url(#paint12_linear)"/>
<path d="M276.951 309.428C266.496 315.531 249.194 315.531 238.738 309.428L72.3146 213.271C61.8587 207.168 61.8587 197.203 72.3146 191.225L238.613 95.0677C249.069 88.9644 266.371 88.9644 276.827 95.0677L443.25 191.225C453.706 197.328 453.706 207.292 443.25 213.271L276.951 309.428Z" fill="url(#paint13_linear)"/>
<path d="M401.426 237.56L384.124 247.524V156.972L401.426 166.937V237.56ZM171.023 134.179L153.721 144.143V260.354L171.023 270.318V134.179ZM309.19 113.751L291.888 103.787V300.834L309.19 290.87V113.751ZM355.246 140.406L337.944 130.442V274.179L355.246 264.215V140.406ZM107.665 233.699L124.968 243.663V160.709L107.665 170.673V233.699ZM263.135 90.8332C257.284 90.2104 251.185 90.584 245.833 92.0787V312.418C251.185 313.912 257.284 314.411 263.135 313.663V90.8332ZM443.374 191.225L430.18 183.627V220.869L443.374 213.271C453.83 207.168 453.83 197.328 443.374 191.225ZM78.9118 187.364L72.3146 191.225C61.8587 197.328 61.8587 207.293 72.3146 213.271L78.9118 217.133V187.364ZM217.079 107.524L199.777 117.488V287.008L217.079 296.973V107.524Z" fill="url(#paint14_linear)"/>
<path d="M152.226 148.5C151.106 149.123 149.488 149.123 148.368 148.5C147.247 147.877 147.247 146.881 148.368 146.258C149.488 145.635 151.106 145.635 152.226 146.258C153.347 146.881 153.347 147.877 152.226 148.5Z" fill="#FBB63F"/>
<g opacity="0.3">
<path opacity="0.3" d="M153.223 148.999C151.605 149.871 148.991 149.871 147.497 148.999C145.879 148.127 145.879 146.633 147.497 145.636C149.115 144.764 151.729 144.764 153.347 145.636C154.841 146.633 154.841 148.127 153.223 148.999Z" fill="#FBB63F"/>
</g>
<path d="M196.664 131.187L155.463 108.02C153.721 107.024 151.978 107.024 150.733 107.771C149.364 108.518 148.617 110.138 148.617 112.13V148.252H151.729V112.13C151.729 111.383 151.978 110.76 152.351 110.511C152.725 110.262 153.347 110.387 153.97 110.76L193.553 133.056L196.664 131.187Z" fill="#FBB63F"/>
<path d="M161.314 143.27C160.194 143.892 158.576 143.892 157.455 143.27C156.335 142.647 156.335 141.65 157.455 141.028C158.576 140.405 160.194 140.405 161.314 141.028C162.31 141.65 162.31 142.647 161.314 143.27Z" fill="#FBB63F"/>
<g opacity="0.3">
<path opacity="0.3" d="M162.186 143.894C160.567 144.766 157.953 144.766 156.46 143.894C154.842 143.022 154.842 141.527 156.46 140.531C158.078 139.659 160.692 139.659 162.31 140.531C163.804 141.403 163.804 142.897 162.186 143.894Z" fill="#FBB63F"/>
</g>
<path d="M205.627 125.957L164.426 102.79C162.684 101.793 160.941 101.793 159.696 102.541C158.327 103.288 157.58 104.907 157.58 106.9V143.021H160.692V106.9C160.692 106.153 160.941 105.53 161.314 105.281C161.688 105.032 162.31 105.156 162.932 105.53L202.515 127.825L205.627 125.957Z" fill="#FBB63F"/>
<path d="M376.405 183.13H315.288L271.597 157.845C263.755 153.237 250.934 153.237 242.968 157.845L199.277 183.13H138.16V213.521H138.285C138.658 216.137 140.65 218.753 144.135 220.746L243.093 277.917C250.934 282.525 263.755 282.525 271.722 277.917L370.679 220.746C374.165 218.753 376.156 216.137 376.53 213.521H376.654V183.13H376.405Z" fill="url(#paint15_linear)"/>
<path d="M271.474 250.265C263.632 254.873 250.811 254.873 242.845 250.265L143.887 193.094C136.045 188.485 136.045 181.136 143.887 176.528L242.845 119.357C250.687 114.748 263.508 114.748 271.474 119.357L370.432 176.528C378.274 181.136 378.274 188.485 370.432 193.094L271.474 250.265Z" fill="url(#paint16_linear)"/>
<path d="M271.474 248.521C263.632 253.129 250.811 253.129 242.845 248.521L143.887 191.35C136.045 186.741 136.045 179.392 143.887 174.784L242.845 117.613C250.687 113.004 263.508 113.004 271.474 117.613L370.432 174.784C378.274 179.392 378.274 186.741 370.432 191.35L271.474 248.521Z" fill="url(#paint17_linear)"/>
<path d="M376.405 150.247H315.288L271.597 124.962C263.755 120.354 250.934 120.354 242.968 124.962L199.277 150.247H138.16V180.639H138.285C138.658 183.254 140.65 185.87 144.135 187.863L243.093 245.034C250.934 249.643 263.755 249.643 271.722 245.034L370.679 187.863C374.165 185.87 376.156 183.254 376.53 180.639H376.654V150.247H376.405Z" fill="url(#paint18_linear)"/>
<path d="M271.474 217.507C263.632 222.116 250.811 222.116 242.845 217.507L143.887 160.336C136.045 155.727 136.045 148.379 143.887 143.77L242.845 86.599C250.687 81.9904 263.508 81.9904 271.474 86.599L370.432 143.77C378.274 148.379 378.274 155.727 370.432 160.336L271.474 217.507Z" fill="url(#paint19_linear)"/>
<path d="M271.474 215.638C263.632 220.247 250.811 220.247 242.845 215.638L143.887 158.467C136.045 153.858 136.045 146.51 143.887 141.901L242.845 84.7299C250.687 80.1213 263.508 80.1213 271.474 84.7299L370.432 141.901C378.274 146.51 378.274 153.858 370.432 158.467L271.474 215.638Z" fill="url(#paint20_linear)"/>
<path d="M155.588 153.236C153.597 154.357 150.36 154.357 148.369 153.236C146.377 152.115 146.377 150.246 148.369 149.001C150.36 147.88 153.597 147.88 155.588 149.001C157.58 150.122 157.58 151.99 155.588 153.236Z" fill="url(#paint21_linear)"/>
<path d="M155.588 152.613C153.597 153.734 150.36 153.734 148.369 152.613C146.377 151.492 146.377 149.623 148.369 148.378C150.36 147.257 153.597 147.257 155.588 148.378C157.58 149.623 157.58 151.492 155.588 152.613Z" fill="url(#paint22_linear)"/>
<path d="M155.588 150.496C153.597 151.617 150.36 151.617 148.369 150.496C146.377 149.375 146.377 147.506 148.369 146.261C150.36 145.14 153.597 145.14 155.588 146.261C157.58 147.506 157.58 149.375 155.588 150.496Z" fill="#96A2CC"/>
<path opacity="0.6" d="M155.588 150.496C153.597 151.617 150.36 151.617 148.369 150.496C146.377 149.375 146.377 147.506 148.369 146.261C150.36 145.14 153.597 145.14 155.588 146.261C157.58 147.506 157.58 149.375 155.588 150.496Z" fill="url(#paint23_linear)"/>
<path d="M148.867 146.012C148.618 146.136 148.494 146.136 148.245 146.261C148.121 146.261 148.121 146.385 147.996 146.385L155.216 150.496C155.34 150.496 155.465 150.371 155.589 150.371C155.713 150.247 155.962 150.122 156.087 149.998L148.867 146.012Z" fill="#3F3CAB"/>
<path d="M365.203 153.236C363.212 154.357 359.976 154.357 357.984 153.236C355.992 152.115 355.992 150.246 357.984 149.001C359.976 147.88 363.212 147.88 365.203 149.001C367.195 150.122 367.195 151.99 365.203 153.236Z" fill="url(#paint24_linear)"/>
<path d="M365.203 152.613C363.212 153.734 359.976 153.734 357.984 152.613C355.992 151.492 355.992 149.623 357.984 148.378C359.976 147.257 363.212 147.257 365.203 148.378C367.195 149.623 367.195 151.492 365.203 152.613Z" fill="url(#paint25_linear)"/>
<path d="M365.203 150.496C363.212 151.617 359.976 151.617 357.984 150.496C355.992 149.375 355.992 147.506 357.984 146.261C359.976 145.14 363.212 145.14 365.203 146.261C367.195 147.506 367.195 149.375 365.203 150.496Z" fill="#96A2CC"/>
<path opacity="0.6" d="M365.203 150.496C363.212 151.617 359.976 151.617 357.984 150.496C355.992 149.375 355.992 147.506 357.984 146.261C359.976 145.14 363.212 145.14 365.203 146.261C367.195 147.506 367.195 149.375 365.203 150.496Z" fill="url(#paint26_linear)"/>
<path d="M358.483 146.012C358.234 146.136 358.109 146.136 357.86 146.261C357.736 146.261 357.736 146.385 357.611 146.385L364.831 150.496C364.955 150.496 365.08 150.371 365.204 150.371C365.329 150.247 365.578 150.122 365.702 149.998L358.483 146.012Z" fill="#3F3CAB"/>
<path d="M261.266 213.271C259.274 214.392 256.038 214.392 254.046 213.271C252.055 212.15 252.055 210.282 254.046 209.036C256.038 207.915 259.274 207.915 261.266 209.036C263.382 210.157 263.382 212.15 261.266 213.271Z" fill="url(#paint27_linear)"/>
<path d="M261.266 212.773C259.274 213.894 256.038 213.894 254.046 212.773C252.055 211.652 252.055 209.784 254.046 208.538C256.038 207.417 259.274 207.417 261.266 208.538C263.382 209.659 263.382 211.527 261.266 212.773Z" fill="url(#paint28_linear)"/>
<path d="M261.266 210.531C259.274 211.652 256.038 211.652 254.046 210.531C252.055 209.41 252.055 207.541 254.046 206.296C256.038 205.175 259.274 205.175 261.266 206.296C263.382 207.541 263.382 209.41 261.266 210.531Z" fill="#96A2CC"/>
<path opacity="0.6" d="M261.266 210.531C259.274 211.652 256.038 211.652 254.046 210.531C252.055 209.41 252.055 207.541 254.046 206.296C256.038 205.175 259.274 205.175 261.266 206.296C263.382 207.541 263.382 209.41 261.266 210.531Z" fill="url(#paint29_linear)"/>
<path d="M254.668 206.047C254.419 206.171 254.295 206.171 254.046 206.296C253.921 206.296 253.921 206.421 253.797 206.421L261.016 210.531C261.141 210.531 261.265 210.406 261.39 210.406C261.514 210.282 261.763 210.157 261.888 210.033L254.668 206.047Z" fill="#3F3CAB"/>
<path d="M261.266 92.5776C259.274 93.6986 256.038 93.6986 254.046 92.5776C252.055 91.4566 252.055 89.5883 254.046 88.3427C256.038 87.2217 259.274 87.2217 261.266 88.3427C263.382 89.5883 263.382 91.4566 261.266 92.5776Z" fill="url(#paint30_linear)"/>
<path d="M261.266 92.0796C259.274 93.2006 256.038 93.2006 254.046 92.0796C252.055 90.9586 252.055 89.0902 254.046 87.8447C256.038 86.7237 259.274 86.7237 261.266 87.8447C263.382 88.9657 263.382 90.834 261.266 92.0796Z" fill="url(#paint31_linear)"/>
<path d="M261.266 89.8373C259.274 90.9583 256.038 90.9583 254.046 89.8373C252.055 88.7163 252.055 86.848 254.046 85.6025C256.038 84.4815 259.274 84.4815 261.266 85.6025C263.382 86.848 263.382 88.7163 261.266 89.8373Z" fill="#96A2CC"/>
<path opacity="0.6" d="M261.266 89.8373C259.274 90.9583 256.038 90.9583 254.046 89.8373C252.055 88.7163 252.055 86.848 254.046 85.6025C256.038 84.4815 259.274 84.4815 261.266 85.6025C263.382 86.848 263.382 88.7163 261.266 89.8373Z" fill="url(#paint32_linear)"/>
<path d="M254.668 85.4785C254.419 85.6031 254.295 85.6031 254.046 85.7276C253.921 85.7276 253.921 85.8522 253.797 85.9767L261.016 90.0871C261.141 90.0871 261.265 89.9625 261.39 89.9625C261.514 89.838 261.763 89.7134 261.888 89.5888L254.668 85.4785Z" fill="#3F3CAB"/>
<path d="M188.449 201.812C188.449 203.68 187.204 204.427 185.586 203.431C183.967 202.559 182.723 200.317 182.723 198.449C182.723 196.58 183.967 195.833 185.586 196.83C187.204 197.701 188.449 199.943 188.449 201.812Z" fill="#FBB640"/>
<path d="M197.659 207.167C197.659 209.036 196.415 209.783 194.796 208.786C193.178 207.915 191.934 205.673 191.934 203.804C191.934 201.936 193.178 201.189 194.796 202.185C196.415 203.057 197.659 205.299 197.659 207.167Z" fill="#FBB640"/>
<path d="M206.87 212.525C206.87 214.393 205.626 215.14 204.007 214.144C202.389 213.272 201.145 211.03 201.145 209.162C201.145 207.293 202.389 206.546 204.007 207.542C205.626 208.414 206.87 210.656 206.87 212.525Z" fill="#FBB640"/>
<path d="M240.978 205.425C238.489 206.795 234.63 206.795 232.141 205.425C229.651 204.055 229.651 201.689 232.141 200.319C234.63 198.948 238.489 198.948 240.978 200.319C243.343 201.689 243.343 203.931 240.978 205.425Z" fill="url(#paint33_linear)"/>
<path d="M242.347 200.941L241.601 190.852H231.269L230.522 201.19C230.398 201.563 230.273 201.812 230.273 202.186C230.273 203.058 230.896 204.055 232.141 204.677C234.63 206.047 238.489 206.047 240.978 204.677C242.721 203.681 243.094 202.311 242.347 200.941Z" fill="url(#paint34_linear)"/>
<path d="M240.108 192.968C238.116 194.089 234.88 194.089 232.888 192.968C230.897 191.847 230.897 189.979 232.888 188.733C234.88 187.612 238.116 187.612 240.108 188.733C242.224 189.979 242.224 191.847 240.108 192.968Z" fill="url(#paint35_linear)"/>
<path d="M240.108 193.093C238.116 194.214 234.88 194.214 232.888 193.093C230.897 191.972 230.897 190.104 232.888 188.858C234.88 187.737 238.116 187.737 240.108 188.858C242.224 190.104 242.224 191.972 240.108 193.093Z" fill="#907293"/>
<path opacity="0.2" d="M240.108 192.595C238.116 193.716 234.88 193.716 232.888 192.595C230.897 191.474 230.897 189.606 232.888 188.36C234.88 187.239 238.116 187.239 240.108 188.36C242.224 189.606 242.224 191.474 240.108 192.595Z" fill="url(#paint36_linear)"/>
<path d="M229.277 197.703C226.788 199.073 222.929 199.073 220.439 197.703C217.95 196.333 217.95 193.966 220.439 192.596C222.929 191.226 226.788 191.226 229.277 192.596C231.767 194.091 231.767 196.333 229.277 197.703Z" fill="url(#paint37_linear)"/>
<path d="M230.771 193.343L230.024 183.254H219.692L218.821 193.592C218.697 193.966 218.572 194.215 218.572 194.589C218.572 195.46 219.195 196.457 220.439 197.08C222.929 198.45 226.788 198.45 229.277 197.08C231.02 196.083 231.518 194.589 230.771 193.343Z" fill="url(#paint38_linear)"/>
<path d="M228.53 185.371C226.538 186.492 223.302 186.492 221.31 185.371C219.319 184.25 219.319 182.381 221.31 181.136C223.302 180.015 226.538 180.015 228.53 181.136C230.521 182.381 230.521 184.25 228.53 185.371Z" fill="url(#paint39_linear)"/>
<path d="M228.53 185.496C226.538 186.617 223.302 186.617 221.31 185.496C219.319 184.375 219.319 182.506 221.31 181.261C223.302 180.14 226.538 180.14 228.53 181.261C230.521 182.382 230.521 184.375 228.53 185.496Z" fill="#907293"/>
<path opacity="0.2" d="M228.53 184.998C226.538 186.119 223.302 186.119 221.31 184.998C219.319 183.877 219.319 182.008 221.31 180.763C223.302 179.642 226.538 179.642 228.53 180.763C230.521 182.008 230.521 183.877 228.53 184.998Z" fill="url(#paint40_linear)"/>
<path d="M264.504 171.545C265.5 172.168 267.118 172.168 268.114 171.545L278.819 165.317C279.815 164.694 279.815 163.822 278.819 163.2L243.095 142.399C242.099 141.776 240.481 141.776 239.485 142.399L228.78 148.627C227.784 149.249 227.784 150.121 228.78 150.744L264.504 171.545Z" fill="#3B2768"/>
<path d="M237.993 128.074L232.143 131.313L237.993 138.163V147.629L254.548 157.22L266.249 169.676L274.464 165.067V146.508L237.993 128.074Z" fill="#36487A"/>
<path opacity="0.4" d="M267.616 150.618L235.75 129.568V150.369L267.616 169.177V150.618Z" fill="#B9EAE9"/>
<path d="M266.247 151.118L234.381 129.943V150.869L266.247 169.677V151.118Z" fill="#666BAA"/>
<path d="M283.177 24.9423L241.478 0.903033C239.362 -0.342524 237.495 -0.217976 236.374 0.778469L220.939 8.62548L234.881 26.1878V110.512C234.881 114.747 237.868 119.978 241.478 122.096L262.016 139.658L271.85 154.729L287.16 146.882C288.778 146.384 289.774 144.765 289.774 142.274V36.526C289.774 32.2911 286.787 27.0597 283.177 24.9423Z" fill="url(#paint41_linear)"/>
<path opacity="0.4" d="M276.579 148.999C276.579 153.234 273.592 154.977 269.982 152.86L228.283 128.821C224.673 126.703 221.686 121.472 221.686 117.237V11.4892C221.686 7.25432 224.673 5.51053 228.283 7.62798L269.982 31.6672C273.592 33.7847 276.579 39.016 276.579 43.2509V148.999Z" fill="#740B99"/>
<path d="M274.712 149.872C274.712 154.107 271.724 155.85 268.115 153.733L226.416 129.694C222.806 127.576 219.818 122.345 219.818 118.11V12.3623C219.818 8.12737 222.806 6.38358 226.416 8.50103L268.115 32.5403C271.724 34.6577 274.712 39.8891 274.712 44.124V149.872Z" fill="url(#paint42_linear)"/>
<path d="M245.71 150.37C245.71 151.117 245.212 151.491 244.465 151.117L243.842 150.744C243.22 150.37 242.598 149.374 242.598 148.626V140.406C242.598 139.658 243.096 139.285 243.842 139.658L244.465 140.032C245.087 140.406 245.71 141.402 245.71 142.149V150.37ZM261.518 151.242C261.518 150.495 261.02 149.498 260.273 149.125L259.651 148.751C259.028 148.377 258.406 148.626 258.406 149.498V157.719C258.406 158.466 258.904 159.463 259.651 159.836L260.273 160.21C260.896 160.584 261.518 160.335 261.518 159.463V151.242Z" fill="#6A869B"/>
<path d="M240.356 53.8398L241.352 54.4626V66.2954L240.356 65.6726V65.1744C239.982 65.299 239.36 65.1744 238.738 64.8007C238.115 64.4271 237.617 63.9288 237.244 63.3061C236.871 62.6833 236.746 62.0605 236.746 61.3132V56.7046C236.746 55.9573 236.995 55.4591 237.368 55.2099C237.742 54.9608 238.364 55.0854 238.987 55.4591L240.356 56.2064V53.8398ZM240.356 57.452L239.236 56.8292C238.364 56.3309 237.866 56.5801 237.866 57.452V61.936C237.866 62.8079 238.24 63.5552 238.987 64.0534C239.609 64.4271 239.982 64.4271 240.356 64.3025V57.452Z" fill="white"/>
<path d="M245.086 58.9466C246.704 59.9431 247.576 61.1886 247.576 62.6833V69.783L246.58 69.1602V68.662C246.082 68.9111 245.46 68.7866 244.837 68.4129C243.468 67.6655 242.846 66.5445 242.846 65.0499V64.5516C242.846 63.4306 243.468 62.9324 244.588 63.3061L246.58 63.8043V62.3096C246.58 61.8114 246.455 61.4378 246.206 61.1886C245.958 60.815 245.584 60.5659 244.962 60.1922C244.339 59.8185 243.717 59.5694 243.219 59.5694V58.4484C243.717 58.3239 244.339 58.573 245.086 58.9466ZM243.841 65.0499V65.5481C243.841 66.0463 243.966 66.42 244.09 66.6691C244.215 67.0428 244.588 67.2919 245.086 67.541C245.584 67.7901 246.082 67.9147 246.455 67.6655V64.5516L244.837 64.178C244.464 64.0534 244.09 64.0534 243.966 64.178C243.841 64.4271 243.841 64.6762 243.841 65.0499Z" fill="white"/>
<path d="M250.437 60.4416V62.1854L252.305 63.1818V64.1782L250.437 63.1818V69.4096C250.437 69.7833 250.562 70.1569 250.686 70.406C250.811 70.6551 251.06 70.9043 251.433 71.0288C251.807 71.2779 252.056 71.4025 252.429 71.4025V72.5235C252.056 72.3989 251.682 72.2744 251.309 72.0253C250.064 71.2779 249.442 70.2815 249.442 68.7868V62.4345L248.57 61.9363V60.9398L249.442 61.438L249.691 59.9434L250.437 60.4416Z" fill="white"/>
<path d="M255.293 64.9246C256.912 65.921 257.783 67.1666 257.783 68.6612V75.7609L256.787 75.1381V74.5153C256.289 74.7644 255.667 74.6399 255.044 74.2662C253.675 73.5189 253.053 72.3979 253.053 70.9032V70.405C253.053 69.284 253.675 68.7858 254.795 69.1594L256.787 69.6577V68.163C256.787 67.6648 256.663 67.2911 256.414 67.042C256.165 66.6683 255.791 66.4192 255.169 66.0455C254.546 65.6719 253.924 65.4228 253.426 65.4228V64.3018C254.049 64.1772 254.671 64.5509 255.293 64.9246ZM254.049 71.0278V71.526C254.049 72.0242 254.173 72.3979 254.297 72.647C254.422 73.0207 254.795 73.2698 255.293 73.5189C255.791 73.768 256.289 73.8926 256.663 73.6434V70.5296L255.044 70.1559C254.671 70.0313 254.298 70.0313 254.173 70.1559C254.173 70.2804 254.049 70.5295 254.049 71.0278Z" fill="white"/>
<path d="M241.851 78.5018L238.117 76.2598V71.9004L241.851 74.1424V78.5018ZM249.444 78.5018L245.71 76.2598V80.6193L249.444 82.8613V78.5018ZM257.037 82.8613L253.303 80.6193V84.9788L257.037 87.2207V82.8613ZM245.71 80.6193L241.976 78.3773V82.7367L245.71 84.9788V80.6193ZM249.444 82.8613L245.71 80.6193V84.9788L249.444 87.2207V82.8613ZM253.303 84.9788L249.569 82.7367V87.0962L253.303 89.3382V84.9788ZM257.037 87.2207L253.303 84.9788V89.3382L257.037 91.5802V87.2207ZM241.851 82.8613L238.117 80.6193V84.9788L241.851 87.2207V82.8613ZM245.71 84.9788L241.976 82.7367V87.0962L245.71 89.3382V84.9788ZM253.303 89.3382L249.569 87.0962V91.4557L253.303 93.6977V89.3382ZM245.71 89.3382L241.976 87.0962V91.4557L245.71 93.6977V89.3382ZM249.444 91.5802L245.71 89.3382V93.6977L249.444 95.9397V91.5802Z" fill="white"/>
<g opacity="0.3">
<path opacity="0.3" d="M334.46 197.328C334.46 199.197 333.215 201.439 331.597 202.311C329.979 203.182 328.734 202.435 328.734 200.691C328.734 198.823 329.979 196.581 331.597 195.709C333.215 194.837 334.46 195.585 334.46 197.328Z" fill="#FBB640"/>
</g>
<g opacity="0.3">
<path opacity="0.3" d="M358.109 255.372C356.491 256.244 353.877 256.244 352.384 255.372C350.765 254.5 350.765 253.006 352.384 252.009C354.002 251.137 356.616 251.137 358.109 252.009C359.728 253.006 359.728 254.5 358.109 255.372Z" fill="#FBB640"/>
</g>
<path d="M356.74 253.751H353.629V217.63C353.629 215.388 351.886 212.274 349.894 211.153L330.85 200.441L332.343 197.701L351.388 208.413C354.375 210.157 356.74 214.143 356.74 217.63V253.751Z" fill="#FBB640"/>
<path d="M357.115 254.873C355.995 255.496 354.376 255.496 353.256 254.873C352.136 254.25 352.136 253.254 353.256 252.631C354.376 252.008 355.995 252.008 357.115 252.631C358.235 253.254 358.235 254.25 357.115 254.873Z" fill="#FBB640"/>
<path d="M333.59 197.952C333.59 199.197 332.718 200.692 331.723 201.315C330.602 201.937 329.855 201.439 329.855 200.194C329.855 198.948 330.727 197.453 331.723 196.831C332.718 196.208 333.59 196.706 333.59 197.952Z" fill="#FBB640"/>
<g opacity="0.3">
<path opacity="0.3" d="M326.12 202.933C326.12 204.801 324.876 207.043 323.257 207.915C321.639 208.787 320.395 208.04 320.395 206.296C320.395 204.428 321.639 202.186 323.257 201.314C324.751 200.317 326.12 201.065 326.12 202.933Z" fill="#FBB640"/>
</g>
<g opacity="0.3">
<path opacity="0.3" d="M349.647 260.851C348.028 261.723 345.414 261.723 343.921 260.851C342.302 259.979 342.302 258.484 343.921 257.488C345.539 256.616 348.153 256.616 349.771 257.488C351.265 258.484 351.265 259.979 349.647 260.851Z" fill="#FBB640"/>
</g>
<path d="M348.278 259.232H345.166V223.111C345.166 220.869 343.423 217.755 341.431 216.634L322.387 205.922L323.88 203.182L342.925 213.893C345.912 215.637 348.278 219.623 348.278 223.111V259.232Z" fill="#FBB640"/>
<path d="M348.65 260.354C347.53 260.976 345.912 260.976 344.791 260.354C343.671 259.731 343.671 258.734 344.791 258.112C345.912 257.489 347.53 257.489 348.65 258.112C349.77 258.734 349.77 259.731 348.65 260.354Z" fill="#FBB640"/>
<path d="M325.125 203.432C325.125 204.678 324.254 206.172 323.258 206.795C322.137 207.418 321.391 206.92 321.391 205.674C321.391 204.429 322.262 202.934 323.258 202.311C324.254 201.688 325.125 202.187 325.125 203.432Z" fill="#FBB640"/>
<path d="M59.1219 203.805C59.1219 203.805 46.7989 226.972 47.4212 235.317C48.1681 245.157 66.5904 269.944 66.5904 269.944L71.8183 234.196L59.1219 203.805Z" fill="url(#paint43_linear)"/>
<path d="M59.6191 235.069C59.6191 238.681 64.5981 247.151 64.5981 247.151L66.4653 269.944L71.6932 234.197L62.731 218.752L59.6191 235.069Z" fill="#0635CF"/>
<path d="M116.131 363.485C115.011 361.741 112.522 362.24 112.522 362.24C112.522 362.24 91.1118 369.838 90.365 372.951C90.2405 373.574 90.2405 374.072 90.4894 374.571C90.365 374.944 90.365 375.318 90.365 375.692C90.4894 379.055 91.8587 380.923 98.9537 380.051C100.074 379.553 101.319 378.93 102.564 378.183C103.061 377.934 102.812 376.314 103.31 375.941C105.426 374.571 107.791 374.197 109.534 372.453C113.517 368.467 116.131 366.101 116.38 364.357C116.38 364.108 116.256 363.859 116.131 363.485Z" fill="#2A253F"/>
<path d="M88.7468 350.532C87.751 349.037 85.5105 349.411 85.5105 349.411C85.5105 349.411 66.4659 356.137 65.8435 359.001C65.719 359.624 65.719 359.998 65.9679 360.496C65.8435 360.745 65.8435 361.119 65.8435 361.493C65.968 364.482 67.0882 366.101 73.4364 365.354C74.4322 364.98 75.5525 364.357 76.6728 363.735C77.1707 363.485 76.9217 362.115 77.4196 361.742C79.2867 360.621 81.4028 360.247 83.021 358.628C86.5063 355.14 88.8713 353.023 88.9957 351.528C88.9957 351.154 88.9958 350.905 88.7468 350.532Z" fill="#181424"/>
<path d="M82.1492 291.493L91.6093 370.586C91.6093 370.586 88.7464 374.572 94.8456 375.195C100.945 375.818 101.941 369.216 101.941 369.216L104.306 280.657C104.306 280.657 81.7758 283.771 76.0499 282.276C71.8178 281.155 63.3535 269.945 63.3535 269.945L66.2164 358.754C66.2164 358.754 71.9423 363.736 75.0541 356.885C76.4234 353.896 80.2821 290.123 80.2821 290.123L82.1492 291.493Z" fill="#0635CF"/>
<path opacity="0.3" d="M80.0344 282.65C79.412 282.65 78.9141 282.65 78.4162 282.525L74.5575 285.639C74.5575 285.639 70.3253 316.405 71.9435 323.255C73.4372 330.106 73.1882 334.465 71.57 342.312C70.3253 348.665 67.3379 355.266 67.3379 359.376C69.205 360.497 72.8148 361.743 75.0554 356.761C76.4246 353.771 80.1588 292.49 80.2833 289.999L80.0344 282.65Z" fill="#F0D6F2"/>
<path opacity="0.3" d="M95.0954 375.193C100.821 375.567 101.817 369.214 101.817 369.214L103.311 313.787L94.5974 322.631C94.5974 322.631 94.224 327.364 95.4688 340.317C96.7135 353.271 96.0912 365.727 95.4688 370.46C95.2198 371.83 95.0954 373.449 95.0954 375.193Z" fill="#F0D6F2"/>
<path fill-rule="evenodd" clip-rule="evenodd" d="M63.2285 199.694C66.4648 198.075 74.6802 197.826 80.655 199.694C82.5131 200.435 84.3254 201.128 86.0758 201.797C94.6827 205.089 101.794 207.808 105.506 212.814L125.342 230.335L149.49 208.04C149.49 208.04 155.963 208.912 155.216 214.267C153.713 215.933 150.992 219.071 147.895 222.641C141.498 230.017 133.497 239.241 131.317 241.171C130.433 241.954 129.893 242.708 129.432 243.351C128.206 245.062 127.546 245.983 122.479 244.535C118.065 243.273 112.187 240.523 106.867 237.767C106.692 239.074 106.51 240.393 106.328 241.717C105.045 251.017 103.728 260.574 104.43 267.951C104.791 272.094 105.335 276.757 105.901 281.613C107.088 291.791 108.373 302.815 108.288 311.67C108.164 323.627 99.0772 325.869 90.364 324.748C88.1235 324.499 79.0338 320.497 79.0338 320.497C79.0338 320.497 77.9165 300.46 79.4102 290.495C79.3853 290.495 79.3057 290.49 79.1941 290.483C78.748 290.456 77.792 290.396 77.792 290.495C76.1903 296.718 75.5157 303.654 74.8505 310.494C74.6369 312.69 74.4243 314.876 74.1823 317.026C60.1166 314.161 59.4942 311.545 59.4942 311.545L63.2285 234.57L58.125 206.918C58.125 206.918 58.8719 201.812 63.2285 199.694Z" fill="url(#paint44_linear)"/>
<path d="M153.971 214.518L157.083 209.535H159.697C159.697 209.535 161.937 205.674 162.311 204.304C162.684 202.934 160.07 200.318 160.07 200.318L164.676 195.336C164.676 195.336 163.431 193.343 162.186 194.34C160.942 195.211 155.34 199.446 155.34 199.446L149.863 208.913L153.971 214.518Z" fill="#FFE9C2"/>
<path d="M77.4198 188.86C77.4198 188.86 80.1582 194.838 78.54 198.201C76.9219 201.565 76.9219 201.565 76.9219 201.565C76.9219 201.565 78.2911 203.807 83.6435 205.052C88.996 206.173 92.2323 204.305 92.2323 204.305L93.4771 196.956C93.4771 196.956 96.2155 197.33 98.0827 197.081C99.9498 196.831 103.062 180.016 102.688 172.418C102.564 169.803 77.4198 188.86 77.4198 188.86Z" fill="#FFE9C2"/>
<path d="M97.7081 206.671C96.3389 205.924 94.4718 205.176 92.3558 204.305C90.1152 203.433 87.8747 204.678 82.1488 203.308C79.1615 202.561 78.1657 199.322 77.1699 198.575C75.5517 197.703 74.5559 197.703 74.5559 197.703C74.5559 197.703 74.058 206.173 81.402 206.796C88.4971 207.543 97.5837 206.671 97.7081 206.671Z" fill="#FBB640"/>
<path d="M99.0781 180.389H98.0823H92.1074V181.759H98.4557L99.4515 184.997L103.808 184.499V180.389H99.0781ZM102.563 183.253L100.572 183.503L100.074 181.759H102.688V183.253H102.563Z" fill="#3B2768"/>
<path d="M102.067 160.211C101.445 161.083 101.943 162.577 98.8306 163.076C77.7944 158.592 73.9357 166.065 73.5622 171.172C72.9399 181.884 75.4293 190.478 80.9062 195.834C80.9062 195.834 84.8894 194.339 89.744 187.987C91.3621 178.645 94.9719 183.378 95.9677 182.008C96.9635 180.638 91.4866 177.151 102.565 172.417C103.436 172.168 104.432 170.175 104.681 168.182C104.805 168.058 106.175 163.449 102.067 160.211Z" fill="#740B99"/>
<path d="M96.0905 181.885C97.0863 180.514 91.6094 177.027 102.688 172.294C103.559 172.045 104.555 170.052 104.804 168.059C104.804 168.059 106.049 163.575 102.314 160.461C101.816 164.82 95.0947 168.183 92.2318 168.183C87.2528 168.183 87.6262 173.29 87.7507 176.155C87.8752 179.144 87.0039 182.134 83.6431 180.141C80.0333 178.023 76.9214 185.746 80.1578 190.105C81.4025 191.724 81.527 193.842 81.1536 195.71C82.0249 195.337 85.5102 193.468 89.7423 187.863C91.485 178.646 95.0947 183.255 96.0905 181.885Z" fill="#740B99"/>
<defs>
<linearGradient id="paint0_linear" x1="-138.506" y1="337.649" x2="14.1015" y2="582.463" gradientUnits="userSpaceOnUse">
<stop stop-color="#FBB63F"/>
<stop offset="0.981306" stop-color="#B069A1"/>
</linearGradient>
<linearGradient id="paint1_linear" x1="56.4622" y1="451.62" x2="216.876" y2="171.384" gradientUnits="userSpaceOnUse">
<stop offset="0.3905" stop-color="#5160E3"/>
<stop offset="0.4351" stop-color="#353B94"/>
<stop offset="0.4737" stop-color="#4651C3"/>
<stop offset="0.4965" stop-color="#5160E3"/>
<stop offset="0.6103" stop-color="#474FA6"/>
</linearGradient>
<linearGradient id="paint2_linear" x1="0.0388828" y1="441.714" x2="180.73" y2="274.188" gradientUnits="userSpaceOnUse">
<stop stop-color="#9F4FA5"/>
<stop offset="0.426439" stop-color="#7C2E8B"/>
<stop offset="0.7961" stop-color="#AE45AA"/>
<stop offset="1" stop-color="#D89D82"/>
</linearGradient>
<linearGradient id="paint3_linear" x1="76.7854" y1="401.355" x2="87.0703" y2="401.355" gradientUnits="userSpaceOnUse">
<stop stop-color="#112552"/>
<stop offset="0.1421" stop-color="#224A9E"/>
<stop offset="0.4044" stop-color="#4902A6"/>
<stop offset="0.4405" stop-color="#613FAA"/>
<stop offset="0.5385" stop-color="#112552"/>
</linearGradient>
<linearGradient id="paint4_linear" x1="76.7854" y1="400.815" x2="87.0703" y2="400.815" gradientUnits="userSpaceOnUse">
<stop stop-color="#112552"/>
<stop offset="0.1421" stop-color="#224A9E"/>
<stop offset="0.4044" stop-color="#4902A6"/>
<stop offset="0.4405" stop-color="#613FAA"/>
<stop offset="0.5385" stop-color="#112552"/>
</linearGradient>
<linearGradient id="paint5_linear" x1="76.7854" y1="398.662" x2="87.0703" y2="398.662" gradientUnits="userSpaceOnUse">
<stop stop-color="#214B9E"/>
<stop offset="0.2233" stop-color="#4C00AA"/>
<stop offset="0.7961" stop-color="#AE45AA"/>
<stop offset="1" stop-color="#D89D82"/>
</linearGradient>
<linearGradient id="paint6_linear" x1="4.84939" y1="362.714" x2="15.135" y2="362.714" gradientUnits="userSpaceOnUse">
<stop stop-color="#112552"/>
<stop offset="0.1421" stop-color="#224A9E"/>
<stop offset="0.4044" stop-color="#4902A6"/>
<stop offset="0.4405" stop-color="#613FAA"/>
<stop offset="0.5385" stop-color="#112552"/>
</linearGradient>
<linearGradient id="paint7_linear" x1="4.84939" y1="362.176" x2="15.135" y2="362.176" gradientUnits="userSpaceOnUse">
<stop stop-color="#112552"/>
<stop offset="0.1421" stop-color="#224A9E"/>
<stop offset="0.4044" stop-color="#4902A6"/>
<stop offset="0.4405" stop-color="#613FAA"/>
<stop offset="0.5385" stop-color="#112552"/>
</linearGradient>
<linearGradient id="paint8_linear" x1="4.84939" y1="360.022" x2="15.135" y2="360.022" gradientUnits="userSpaceOnUse">
<stop stop-color="#214B9E"/>
<stop offset="0.2233" stop-color="#4C00AA"/>
<stop offset="0.7961" stop-color="#AE45AA"/>
<stop offset="1" stop-color="#D89D82"/>
</linearGradient>
<linearGradient id="paint9_linear" x1="41.0665" y1="217.14" x2="474.492" y2="217.14" gradientUnits="userSpaceOnUse">
<stop offset="0.00485437" stop-color="#112552"/>
<stop offset="0.2087" stop-color="#224A9E"/>
<stop offset="0.3932" stop-color="#4B02AA"/>
<stop offset="0.6068" stop-color="#8024AA"/>
<stop offset="0.8447" stop-color="#D88282"/>
<stop offset="1" stop-color="#B24EA6"/>
</linearGradient>
<linearGradient id="paint10_linear" x1="41.0658" y1="204.288" x2="474.495" y2="204.288" gradientUnits="userSpaceOnUse">
<stop stop-color="#214B9E"/>
<stop offset="0.2233" stop-color="#4C00AA"/>
<stop offset="0.7961" stop-color="#AE45AA"/>
<stop offset="1" stop-color="#D89D82"/>
</linearGradient>
<linearGradient id="paint11_linear" x1="41.0658" y1="202.244" x2="474.495" y2="202.244" gradientUnits="userSpaceOnUse">
<stop stop-color="#214B9E"/>
<stop offset="0.2233" stop-color="#4C00AA"/>
<stop offset="0.7961" stop-color="#AE45AA"/>
<stop offset="1" stop-color="#D89D82"/>
</linearGradient>
<linearGradient id="paint12_linear" x1="-177.703" y1="199.934" x2="41.726" y2="574.997" gradientUnits="userSpaceOnUse">
<stop stop-color="#FBB63F"/>
<stop offset="0.981306" stop-color="#B069A1"/>
</linearGradient>
<linearGradient id="paint13_linear" x1="-112.402" y1="205.415" x2="75.8088" y2="530.967" gradientUnits="userSpaceOnUse">
<stop stop-color="#7D15A1"/>
<stop offset="1" stop-color="#B675A8"/>
</linearGradient>
<linearGradient id="paint14_linear" x1="-112.459" y1="205.442" x2="75.6542" y2="531.008" gradientUnits="userSpaceOnUse">
<stop stop-color="#7D15A1"/>
<stop offset="1" stop-color="#B675A8"/>
</linearGradient>
<linearGradient id="paint15_linear" x1="17.8114" y1="216.708" x2="124.377" y2="414.434" gradientUnits="userSpaceOnUse">
<stop stop-color="#FBB63F"/>
<stop offset="0.981306" stop-color="#B069A1"/>
</linearGradient>
<linearGradient id="paint16_linear" x1="137.936" y1="184.846" x2="376.361" y2="184.846" gradientUnits="userSpaceOnUse">
<stop stop-color="#214B9E"/>
<stop offset="0.2233" stop-color="#4C00AA"/>
<stop offset="0.7961" stop-color="#AE45AA"/>
<stop offset="1" stop-color="#D89D82"/>
</linearGradient>
<linearGradient id="paint17_linear" x1="178.936" y1="136.001" x2="359.862" y2="244.747" gradientUnits="userSpaceOnUse">
<stop offset="0.1408" stop-color="#3B2F75"/>
<stop offset="0.4563" stop-color="#493990"/>
<stop offset="0.801" stop-color="#794C7E"/>
<stop offset="0.9709" stop-color="#936D77"/>
</linearGradient>
<linearGradient id="paint18_linear" x1="17.8114" y1="183.825" x2="124.377" y2="381.552" gradientUnits="userSpaceOnUse">
<stop stop-color="#FBB63F"/>
<stop offset="0.981306" stop-color="#B069A1"/>
</linearGradient>
<linearGradient id="paint19_linear" x1="137.936" y1="152.014" x2="376.361" y2="152.014" gradientUnits="userSpaceOnUse">
<stop stop-color="#214B9E"/>
<stop offset="0.2233" stop-color="#4C00AA"/>
<stop offset="0.7961" stop-color="#AE45AA"/>
<stop offset="1" stop-color="#D89D82"/>
</linearGradient>
<linearGradient id="paint20_linear" x1="178.938" y1="103.166" x2="359.863" y2="211.912" gradientUnits="userSpaceOnUse">
<stop offset="0.1408" stop-color="#3B2F75"/>
<stop offset="0.4563" stop-color="#493990"/>
<stop offset="0.801" stop-color="#794C7E"/>
<stop offset="0.9709" stop-color="#936D77"/>
</linearGradient>
<linearGradient id="paint21_linear" x1="146.847" y1="151.101" x2="157.132" y2="151.101" gradientUnits="userSpaceOnUse">
<stop stop-color="#112552"/>
<stop offset="0.1421" stop-color="#224A9E"/>
<stop offset="0.4044" stop-color="#4902A6"/>
<stop offset="0.4405" stop-color="#613FAA"/>
<stop offset="0.5385" stop-color="#112552"/>
</linearGradient>
<linearGradient id="paint22_linear" x1="146.847" y1="150.562" x2="157.132" y2="150.562" gradientUnits="userSpaceOnUse">
<stop stop-color="#112552"/>
<stop offset="0.1421" stop-color="#224A9E"/>
<stop offset="0.4044" stop-color="#4902A6"/>
<stop offset="0.4405" stop-color="#613FAA"/>
<stop offset="0.5385" stop-color="#112552"/>
</linearGradient>
<linearGradient id="paint23_linear" x1="146.847" y1="148.409" x2="157.132" y2="148.409" gradientUnits="userSpaceOnUse">
<stop stop-color="#214B9E"/>
<stop offset="0.2233" stop-color="#4C00AA"/>
<stop offset="0.7961" stop-color="#AE45AA"/>
<stop offset="1" stop-color="#D89D82"/>
</linearGradient>
<linearGradient id="paint24_linear" x1="356.402" y1="151.101" x2="366.687" y2="151.101" gradientUnits="userSpaceOnUse">
<stop stop-color="#112552"/>
<stop offset="0.1421" stop-color="#224A9E"/>
<stop offset="0.4044" stop-color="#4902A6"/>
<stop offset="0.4405" stop-color="#613FAA"/>
<stop offset="0.5385" stop-color="#112552"/>
</linearGradient>
<linearGradient id="paint25_linear" x1="356.402" y1="150.562" x2="366.687" y2="150.562" gradientUnits="userSpaceOnUse">
<stop stop-color="#112552"/>
<stop offset="0.1421" stop-color="#224A9E"/>
<stop offset="0.4044" stop-color="#4902A6"/>
<stop offset="0.4405" stop-color="#613FAA"/>
<stop offset="0.5385" stop-color="#112552"/>
</linearGradient>
<linearGradient id="paint26_linear" x1="356.402" y1="148.409" x2="366.687" y2="148.409" gradientUnits="userSpaceOnUse">
<stop stop-color="#214B9E"/>
<stop offset="0.2233" stop-color="#4C00AA"/>
<stop offset="0.7961" stop-color="#AE45AA"/>
<stop offset="1" stop-color="#D89D82"/>
</linearGradient>
<linearGradient id="paint27_linear" x1="252.533" y1="211.153" x2="262.82" y2="211.153" gradientUnits="userSpaceOnUse">
<stop stop-color="#112552"/>
<stop offset="0.1421" stop-color="#224A9E"/>
<stop offset="0.4044" stop-color="#4902A6"/>
<stop offset="0.4405" stop-color="#613FAA"/>
<stop offset="0.5385" stop-color="#112552"/>
</linearGradient>
<linearGradient id="paint28_linear" x1="252.533" y1="210.613" x2="262.82" y2="210.613" gradientUnits="userSpaceOnUse">
<stop stop-color="#112552"/>
<stop offset="0.1421" stop-color="#224A9E"/>
<stop offset="0.4044" stop-color="#4902A6"/>
<stop offset="0.4405" stop-color="#613FAA"/>
<stop offset="0.5385" stop-color="#112552"/>
</linearGradient>
<linearGradient id="paint29_linear" x1="252.533" y1="208.459" x2="262.82" y2="208.459" gradientUnits="userSpaceOnUse">
<stop stop-color="#214B9E"/>
<stop offset="0.2233" stop-color="#4C00AA"/>
<stop offset="0.7961" stop-color="#AE45AA"/>
<stop offset="1" stop-color="#D89D82"/>
</linearGradient>
<linearGradient id="paint30_linear" x1="252.533" y1="90.4919" x2="262.82" y2="90.4919" gradientUnits="userSpaceOnUse">
<stop stop-color="#112552"/>
<stop offset="0.1421" stop-color="#224A9E"/>
<stop offset="0.4044" stop-color="#4902A6"/>
<stop offset="0.4405" stop-color="#613FAA"/>
<stop offset="0.5385" stop-color="#112552"/>
</linearGradient>
<linearGradient id="paint31_linear" x1="252.533" y1="89.9531" x2="262.82" y2="89.9531" gradientUnits="userSpaceOnUse">
<stop stop-color="#112552"/>
<stop offset="0.1421" stop-color="#224A9E"/>
<stop offset="0.4044" stop-color="#4902A6"/>
<stop offset="0.4405" stop-color="#613FAA"/>
<stop offset="0.5385" stop-color="#112552"/>
</linearGradient>
<linearGradient id="paint32_linear" x1="252.533" y1="87.7982" x2="262.82" y2="87.7982" gradientUnits="userSpaceOnUse">
<stop stop-color="#214B9E"/>
<stop offset="0.2233" stop-color="#4C00AA"/>
<stop offset="0.7961" stop-color="#AE45AA"/>
<stop offset="1" stop-color="#D89D82"/>
</linearGradient>
<linearGradient id="paint33_linear" x1="230.28" y1="202.828" x2="242.756" y2="202.828" gradientUnits="userSpaceOnUse">
<stop stop-color="#112552"/>
<stop offset="0.1421" stop-color="#224A9E"/>
<stop offset="0.4044" stop-color="#4902A6"/>
<stop offset="0.4405" stop-color="#613FAA"/>
<stop offset="0.5385" stop-color="#112552"/>
</linearGradient>
<linearGradient id="paint34_linear" x1="230.28" y1="198.327" x2="242.74" y2="198.327" gradientUnits="userSpaceOnUse">
<stop stop-color="#112552"/>
<stop offset="0.1421" stop-color="#224A9E"/>
<stop offset="0.4044" stop-color="#4902A6"/>
<stop offset="0.4405" stop-color="#613FAA"/>
<stop offset="0.5385" stop-color="#112552"/>
</linearGradient>
<linearGradient id="paint35_linear" x1="231.379" y1="190.875" x2="241.663" y2="190.875" gradientUnits="userSpaceOnUse">
<stop stop-color="#112552"/>
<stop offset="0.1421" stop-color="#224A9E"/>
<stop offset="0.4044" stop-color="#4902A6"/>
<stop offset="0.4405" stop-color="#613FAA"/>
<stop offset="0.5385" stop-color="#112552"/>
</linearGradient>
<linearGradient id="paint36_linear" x1="231.379" y1="190.539" x2="241.663" y2="190.539" gradientUnits="userSpaceOnUse">
<stop stop-color="#214B9E"/>
<stop offset="0.2233" stop-color="#4C00AA"/>
<stop offset="0.7961" stop-color="#AE45AA"/>
<stop offset="1" stop-color="#D89D82"/>
</linearGradient>
<linearGradient id="paint37_linear" x1="218.623" y1="195.213" x2="231.099" y2="195.213" gradientUnits="userSpaceOnUse">
<stop stop-color="#112552"/>
<stop offset="0.1421" stop-color="#224A9E"/>
<stop offset="0.4044" stop-color="#4902A6"/>
<stop offset="0.4405" stop-color="#613FAA"/>
<stop offset="0.5385" stop-color="#112552"/>
</linearGradient>
<linearGradient id="paint38_linear" x1="218.622" y1="190.712" x2="231.081" y2="190.712" gradientUnits="userSpaceOnUse">
<stop stop-color="#112552"/>
<stop offset="0.1421" stop-color="#224A9E"/>
<stop offset="0.4044" stop-color="#4902A6"/>
<stop offset="0.4405" stop-color="#613FAA"/>
<stop offset="0.5385" stop-color="#112552"/>
</linearGradient>
<linearGradient id="paint39_linear" x1="219.718" y1="183.26" x2="230.004" y2="183.26" gradientUnits="userSpaceOnUse">
<stop stop-color="#112552"/>
<stop offset="0.1421" stop-color="#224A9E"/>
<stop offset="0.4044" stop-color="#4902A6"/>
<stop offset="0.4405" stop-color="#613FAA"/>
<stop offset="0.5385" stop-color="#112552"/>
</linearGradient>
<linearGradient id="paint40_linear" x1="219.718" y1="182.925" x2="230.004" y2="182.925" gradientUnits="userSpaceOnUse">
<stop stop-color="#214B9E"/>
<stop offset="0.2233" stop-color="#4C00AA"/>
<stop offset="0.7961" stop-color="#AE45AA"/>
<stop offset="1" stop-color="#D89D82"/>
</linearGradient>
<linearGradient id="paint41_linear" x1="186.204" y1="75.9351" x2="300.727" y2="126.268" gradientUnits="userSpaceOnUse">
<stop stop-color="#FBB63F"/>
<stop offset="0.981306" stop-color="#B069A1"/>
</linearGradient>
<linearGradient id="paint42_linear" x1="192.118" y1="79.7585" x2="288.039" y2="115.137" gradientUnits="userSpaceOnUse">
<stop stop-color="#FBB63F"/>
<stop offset="0.981306" stop-color="#B069A1"/>
</linearGradient>
<linearGradient id="paint43_linear" x1="36.2266" y1="237.811" x2="77.989" y2="253.231" gradientUnits="userSpaceOnUse">
<stop stop-color="#7D15A1"/>
<stop offset="1" stop-color="#B675A8"/>
</linearGradient>
<linearGradient id="paint44_linear" x1="13.6795" y1="263.489" x2="132.516" y2="354.668" gradientUnits="userSpaceOnUse">
<stop stop-color="#7D15A1"/>
<stop offset="1" stop-color="#B675A8"/>
</linearGradient>
</defs>
</svg>
