<svg width="450" height="369" viewBox="0 0 450 369" fill="none" xmlns="http://www.w3.org/2000/svg">
<path d="M446.551 243.418C445.055 241.741 443.099 240.274 440.453 238.911L247.036 137.259C234.839 130.867 214.819 130.867 202.622 137.259L9.20487 238.911C6.67353 240.274 4.60245 241.846 3.10666 243.418H0V252.22H0.115103C0.805468 255.888 3.79704 259.451 9.08984 262.281L202.507 363.933C214.704 370.326 234.724 370.326 246.921 363.933L440.338 262.281C445.631 259.451 448.622 255.888 449.313 252.22H449.428V243.418H446.551Z" fill="#827FB5"/>
<path opacity="0.8" d="M446.551 243.418C445.055 241.741 443.099 240.274 440.453 238.911L247.036 137.259C234.839 130.867 214.819 130.867 202.622 137.259L9.20487 238.911C6.67353 240.274 4.60245 241.846 3.10666 243.418H0V252.22H0.115103C0.805468 255.888 3.79704 259.451 9.08984 262.281L202.507 363.933C214.704 370.326 234.724 370.326 246.921 363.933L440.338 262.281C445.631 259.451 448.622 255.888 449.313 252.22H449.428V243.418H446.551Z" fill="url(#paint0_linear)"/>
<path d="M247.035 351.779C234.838 358.171 214.818 358.171 202.621 351.779L9.20398 250.127C-2.99247 243.734 -2.99247 233.15 9.20398 226.757L202.621 125.105C214.818 118.712 234.838 118.712 247.035 125.105L440.452 226.757C452.649 233.15 452.649 243.734 440.452 250.127L247.035 351.779Z" fill="url(#paint1_linear)"/>
<path d="M247.039 349.892C234.842 356.285 214.822 356.285 202.625 349.892L9.20788 248.24C-2.98857 241.847 -2.98857 231.263 9.20788 224.87L202.625 123.218C214.822 116.826 234.842 116.826 247.039 123.218L440.456 224.87C452.652 231.263 452.652 241.847 440.456 248.24L247.039 349.892Z" fill="#BFBCE0"/>
<path d="M247.039 349.892C234.842 356.285 214.822 356.285 202.625 349.892L9.20788 248.24C-2.98857 241.847 -2.98857 231.263 9.20788 224.87L202.625 123.218C214.822 116.826 234.842 116.826 247.039 123.218L440.456 224.87C452.652 231.263 452.652 241.847 440.456 248.24L247.039 349.892Z" fill="url(#paint2_linear)"/>
<path d="M308.707 158.43H265.559L234.723 142.187C229.2 139.253 220.11 139.253 214.472 142.187L183.636 158.43H140.488V184.839C140.718 186.516 142.099 188.193 144.63 189.555L214.472 226.338C219.995 229.273 229.085 229.273 234.723 226.338L304.565 189.555C307.096 188.297 308.362 186.621 308.707 184.839H308.822V158.43H308.707Z" fill="#2A2551"/>
<path d="M308.707 156.02H265.559L234.723 139.777C229.2 136.843 220.11 136.843 214.472 139.777L183.636 156.02H140.488V182.429C140.718 184.106 142.099 185.782 144.63 187.145L214.472 223.928C219.995 226.862 229.085 226.862 234.723 223.928L304.565 187.145C307.096 185.887 308.362 184.21 308.707 182.429H308.822V156.02H308.707Z" fill="url(#paint3_linear)"/>
<path d="M234.723 199.196C229.2 202.13 220.11 202.13 214.472 199.196L144.63 162.412C139.108 159.478 139.108 154.762 144.63 151.828L214.472 115.044C219.995 112.11 229.085 112.11 234.723 115.044L304.565 151.828C310.088 154.762 310.088 159.478 304.565 162.412L234.723 199.196Z" fill="url(#paint4_linear)"/>
<path d="M234.725 198.043C229.202 200.978 220.112 200.978 214.474 198.043L144.632 161.26C139.11 158.326 139.11 153.61 144.632 150.676L214.474 113.892C219.997 110.958 229.087 110.958 234.725 113.892L304.567 150.676C310.09 153.61 310.09 158.326 304.567 161.26L234.725 198.043Z" fill="url(#paint5_linear)"/>
<path d="M301.689 134.958H262.108L233.803 120.077C228.741 117.352 220.341 117.352 215.278 120.077L186.973 134.958H147.393V154.135C147.623 155.707 148.888 157.279 151.19 158.432L215.278 192.072C220.341 194.796 228.741 194.796 233.803 192.072L297.892 158.432C300.193 157.279 301.459 155.707 301.689 154.135V134.958Z" fill="#4FFFFF"/>
<path d="M308.707 118.817H265.559L234.723 102.574C229.2 99.6395 220.11 99.6395 214.472 102.574L183.636 118.817H140.488V145.226C140.718 146.902 142.099 148.579 144.63 149.942L214.472 186.725C219.995 189.659 229.085 189.659 234.723 186.725L304.565 149.942C307.096 148.684 308.362 147.007 308.707 145.226H308.822V118.817H308.707Z" fill="url(#paint6_linear)"/>
<path d="M234.723 161.993C229.2 164.927 220.11 164.927 214.472 161.993L144.63 125.209C139.108 122.275 139.108 117.559 144.63 114.625L214.472 77.8413C219.995 74.9071 229.085 74.9071 234.723 77.8413L304.565 114.625C310.088 117.559 310.088 122.275 304.565 125.209L234.723 161.993Z" fill="url(#paint7_linear)"/>
<path d="M234.725 160.84C229.202 163.774 220.112 163.774 214.474 160.84L144.632 124.057C139.11 121.123 139.11 116.407 144.632 113.472L214.474 76.689C219.997 73.7547 229.087 73.7547 234.725 76.689L304.567 113.472C310.09 116.407 310.09 121.123 304.567 124.057L234.725 160.84Z" fill="url(#paint8_linear)"/>
<path d="M301.689 97.7527H262.108L233.803 82.8716C228.741 80.147 220.341 80.147 215.278 82.8716L186.973 97.7527H147.393V116.93C147.623 118.502 148.888 119.969 151.19 121.227L215.278 154.867C220.341 157.591 228.741 157.591 233.803 154.867L297.892 121.227C300.193 120.074 301.459 118.502 301.689 116.93V97.7527Z" fill="#4FFFFF"/>
<path d="M308.707 81.825H265.559L234.723 65.5816C229.2 62.6473 220.11 62.6473 214.472 65.5816L183.636 81.825H140.488V108.234C140.718 109.91 142.099 111.587 144.63 112.949L214.472 149.733C219.995 152.667 229.085 152.667 234.723 149.733L304.565 112.949C307.096 111.692 308.362 110.015 308.707 108.234H308.822V81.825H308.707Z" fill="url(#paint9_linear)"/>
<path d="M234.723 125C229.2 127.935 220.11 127.935 214.472 125L144.63 88.217C139.108 85.2827 139.108 80.5669 144.63 77.6326L214.472 40.8492C219.995 37.9149 229.085 37.9149 234.723 40.8492L304.565 77.6326C310.088 80.5669 310.088 85.2827 304.565 88.217L234.723 125Z" fill="url(#paint10_linear)"/>
<path d="M234.725 123.848C229.202 126.782 220.112 126.782 214.474 123.848L144.632 87.0646C139.11 84.1303 139.11 79.4145 144.632 76.4802L214.474 39.6968C219.997 36.7625 229.087 36.7625 234.725 39.6968L304.567 76.4802C310.09 79.4145 310.09 84.1303 304.567 87.0646L234.725 123.848Z" fill="url(#paint11_linear)"/>
<path d="M301.689 60.7605H262.108L233.803 45.8795C228.741 43.1548 220.341 43.1548 215.278 45.8795L186.973 60.7605H147.393V79.9382C147.623 81.5101 148.888 82.9773 151.19 84.2348L215.278 117.874C220.341 120.599 228.741 120.599 233.803 117.874L297.892 84.2348C300.193 83.082 301.459 81.5101 301.689 79.9382V60.7605Z" fill="#4FFFFF"/>
<path d="M308.707 44.6218H265.559L234.723 28.3785C229.2 25.4442 220.11 25.4442 214.472 28.3785L183.636 44.6218H140.488V71.0304C140.718 72.7072 142.099 74.3839 144.63 75.7463L214.472 112.53C219.995 115.464 229.085 115.464 234.723 112.53L304.565 75.7463C307.096 74.4887 308.362 72.812 308.707 71.0304H308.822V44.6218H308.707Z" fill="url(#paint12_linear)"/>
<path d="M234.723 87.9027C229.2 90.837 220.11 90.837 214.472 87.9027L144.63 51.1193C139.108 48.185 139.108 43.4692 144.63 40.5349L214.472 3.7515C219.995 0.817209 229.085 0.817209 234.723 3.7515L304.565 40.5349C310.088 43.4692 310.088 48.185 304.565 51.1193L234.723 87.9027Z" fill="url(#paint13_linear)"/>
<path d="M234.723 86.7503C229.2 89.6846 220.11 89.6846 214.472 86.7503L144.63 49.9669C139.108 47.0327 139.108 42.3168 144.63 39.3826L214.472 2.59915C219.995 -0.335135 229.085 -0.335135 234.723 2.59915L304.565 39.3826C310.088 42.3168 310.088 47.0327 304.565 49.9669L234.723 86.7503Z" fill="url(#paint14_linear)"/>
<path d="M152.914 46.6128C151.534 47.3464 149.233 47.3464 147.737 46.6128C146.356 45.8792 146.356 44.6216 147.737 43.8881C149.117 43.1545 151.419 43.1545 152.914 43.8881C154.295 44.6216 154.295 45.8792 152.914 46.6128Z" fill="url(#paint15_linear)"/>
<path d="M152.914 46.1929C151.534 46.9264 149.233 46.9264 147.737 46.1929C146.356 45.4593 146.356 44.2017 147.737 43.4681C149.117 42.7346 151.419 42.7346 152.914 43.4681C154.295 44.3065 154.295 45.4593 152.914 46.1929Z" fill="url(#paint16_linear)"/>
<path d="M152.914 44.8315C151.534 45.5651 149.233 45.5651 147.737 44.8315C146.356 44.0979 146.356 42.8404 147.737 42.1068C149.117 41.3732 151.419 41.3732 152.914 42.1068C154.295 42.9452 154.295 44.0979 152.914 44.8315Z" fill="#96A2CC"/>
<path opacity="0.6" d="M152.914 44.8315C151.534 45.5651 149.233 45.5651 147.737 44.8315C146.356 44.0979 146.356 42.8404 147.737 42.1068C149.117 41.3732 151.419 41.3732 152.914 42.1068C154.295 42.9452 154.295 44.0979 152.914 44.8315Z" fill="url(#paint17_linear)"/>
<path d="M148.196 42.002C148.081 42.1067 147.966 42.1067 147.736 42.2115C147.621 42.2115 147.621 42.3163 147.506 42.3163L152.569 45.041C152.684 45.041 152.684 44.9362 152.799 44.9362C152.914 44.8314 153.029 44.8314 153.144 44.7266L148.196 42.002Z" fill="#3F3CAB"/>
<path d="M300.885 46.6128C299.504 47.3464 297.203 47.3464 295.707 46.6128C294.327 45.8792 294.327 44.6216 295.707 43.8881C297.088 43.1545 299.389 43.1545 300.885 43.8881C302.266 44.6216 302.266 45.8792 300.885 46.6128Z" fill="url(#paint18_linear)"/>
<path d="M300.885 46.1929C299.504 46.9264 297.203 46.9264 295.707 46.1929C294.327 45.4593 294.327 44.2017 295.707 43.4681C297.088 42.7346 299.389 42.7346 300.885 43.4681C302.266 44.3065 302.266 45.4593 300.885 46.1929Z" fill="url(#paint19_linear)"/>
<path d="M300.883 44.8315C299.502 45.5651 297.201 45.5651 295.705 44.8315C294.325 44.0979 294.325 42.8404 295.705 42.1068C297.086 41.3732 299.387 41.3732 300.883 42.1068C302.264 42.9452 302.264 44.0979 300.883 44.8315Z" fill="#96A2CC"/>
<path opacity="0.6" d="M300.883 44.8315C299.502 45.5651 297.201 45.5651 295.705 44.8315C294.325 44.0979 294.325 42.8404 295.705 42.1068C297.086 41.3732 299.387 41.3732 300.883 42.1068C302.264 42.9452 302.264 44.0979 300.883 44.8315Z" fill="url(#paint20_linear)"/>
<path d="M296.167 42.002C296.052 42.1067 295.937 42.1067 295.707 42.2115C295.592 42.2115 295.592 42.3163 295.477 42.3163L300.539 45.041C300.654 45.041 300.654 44.9362 300.769 44.9362C300.884 44.8314 300.999 44.8314 301.115 44.7266L296.167 42.002Z" fill="#3F3CAB"/>
<path d="M227.473 85.1772C226.092 85.9108 223.791 85.9108 222.295 85.1772C220.915 84.4437 220.915 83.1861 222.295 82.4525C223.676 81.7189 225.977 81.7189 227.473 82.4525C228.969 83.1861 228.969 84.4437 227.473 85.1772Z" fill="url(#paint21_linear)"/>
<path d="M227.473 84.8628C226.092 85.5963 223.791 85.5963 222.295 84.8628C220.915 84.1292 220.915 82.8716 222.295 82.1381C223.676 81.4045 225.977 81.4045 227.473 82.1381C228.969 82.8716 228.969 84.0244 227.473 84.8628Z" fill="url(#paint22_linear)"/>
<path d="M227.473 83.396C226.092 84.1296 223.791 84.1296 222.295 83.396C220.915 82.6624 220.915 81.4049 222.295 80.6713C223.676 79.9377 225.977 79.9377 227.473 80.6713C228.969 81.5096 228.969 82.6624 227.473 83.396Z" fill="#96A2CC"/>
<path opacity="0.6" d="M227.473 83.396C226.092 84.1296 223.791 84.1296 222.295 83.396C220.915 82.6624 220.915 81.4049 222.295 80.6713C223.676 79.9377 225.977 79.9377 227.473 80.6713C228.969 81.5096 228.969 82.6624 227.473 83.396Z" fill="url(#paint23_linear)"/>
<path d="M222.755 80.5664C222.64 80.6712 222.525 80.6712 222.295 80.776C222.18 80.776 222.18 80.8808 222.064 80.8808L227.127 83.6055C227.242 83.6055 227.242 83.5007 227.357 83.5007C227.472 83.3959 227.588 83.3959 227.703 83.2911L222.755 80.5664Z" fill="#3F3CAB"/>
<path d="M227.473 7.62839C226.092 8.36196 223.791 8.36196 222.295 7.62839C220.915 6.89482 220.915 5.63727 222.295 4.90369C223.676 4.17012 225.977 4.17012 227.473 4.90369C228.969 5.63727 228.969 6.89482 227.473 7.62839Z" fill="url(#paint24_linear)"/>
<path d="M227.473 7.31589C226.092 8.04946 223.791 8.04946 222.295 7.31589C220.915 6.58232 220.915 5.32477 222.295 4.59119C223.676 3.85762 225.977 3.85762 227.473 4.59119C228.969 5.32477 228.969 6.58232 227.473 7.31589Z" fill="url(#paint25_linear)"/>
<path d="M227.473 5.95261C226.092 6.68618 223.791 6.68618 222.295 5.95261C220.915 5.21904 220.915 3.96149 222.295 3.22791C223.676 2.49434 225.977 2.49434 227.473 3.22791C228.969 3.96149 228.969 5.11424 227.473 5.95261Z" fill="#96A2CC"/>
<path opacity="0.6" d="M227.473 5.95261C226.092 6.68618 223.791 6.68618 222.295 5.95261C220.915 5.21904 220.915 3.96149 222.295 3.22791C223.676 2.49434 225.977 2.49434 227.473 3.22791C228.969 3.96149 228.969 5.11424 227.473 5.95261Z" fill="url(#paint26_linear)"/>
<path d="M222.755 3.01953C222.64 3.12433 222.525 3.12433 222.295 3.22912C222.18 3.22912 222.18 3.33392 222.064 3.33392L227.127 6.05862C227.242 6.05862 227.242 5.95383 227.357 5.95383C227.472 5.84903 227.588 5.84903 227.703 5.74423L222.755 3.01953Z" fill="#3F3CAB"/>
<path d="M211.366 211.038H168.218L137.381 194.794C131.859 191.86 122.769 191.86 117.131 194.794L86.2943 211.038H43.1465V237.446C43.3766 239.123 44.7574 240.8 47.2887 242.162L117.131 278.946C122.654 281.88 131.743 281.88 137.381 278.946L207.223 242.162C209.755 240.905 211.02 239.228 211.366 237.446H211.481V211.038H211.366Z" fill="#2A2551"/>
<path d="M211.366 208.628H168.218L137.381 192.384C131.859 189.45 122.769 189.45 117.131 192.384L86.2943 208.628H43.1465V235.036C43.3766 236.713 44.7574 238.39 47.2887 239.752L117.131 276.536C122.654 279.47 131.743 279.47 137.381 276.536L207.223 239.752C209.755 238.495 211.02 236.818 211.366 235.036H211.481V208.628H211.366Z" fill="url(#paint27_linear)"/>
<path d="M137.381 251.804C131.858 254.738 122.769 254.738 117.131 251.804L47.2887 215.125C41.7658 212.191 41.7658 207.475 47.2887 204.541L117.131 167.757C122.654 164.823 131.743 164.823 137.381 167.757L207.223 204.541C212.746 207.475 212.746 212.191 207.223 215.125L137.381 251.804Z" fill="url(#paint28_linear)"/>
<path d="M137.383 250.651C131.86 253.585 122.771 253.585 117.133 250.651L47.2906 213.867C41.7677 210.933 41.7677 206.217 47.2906 203.283L117.133 166.5C122.656 163.565 131.745 163.565 137.383 166.5L207.225 203.283C212.748 206.217 212.748 210.933 207.225 213.867L137.383 250.651Z" fill="url(#paint29_linear)"/>
<path d="M204.463 187.563H164.882L136.577 172.682C131.514 169.957 123.115 169.957 118.052 172.682L89.7469 187.563H50.166V206.741C50.3961 208.313 51.6618 209.885 53.963 211.038L118.052 244.677C123.115 247.402 131.514 247.402 136.577 244.677L200.666 211.038C202.967 209.885 204.232 208.313 204.463 206.741V187.563Z" fill="#FBB63F"/>
<path d="M211.366 171.425H168.218L137.381 155.181C131.859 152.247 122.769 152.247 117.131 155.181L86.2943 171.425H43.1465V197.833C43.3766 199.51 44.7574 201.187 47.2887 202.549L117.131 239.332C122.654 242.267 131.743 242.267 137.381 239.332L207.223 202.549C209.755 201.291 211.02 199.615 211.366 197.833H211.481V171.425H211.366Z" fill="url(#paint30_linear)"/>
<path d="M137.381 214.6C131.858 217.534 122.769 217.534 117.131 214.6L47.2887 177.817C41.7658 174.882 41.7658 170.166 47.2887 167.232L117.131 130.449C122.654 127.514 131.743 127.514 137.381 130.449L207.223 167.232C212.746 170.166 212.746 174.882 207.223 177.817L137.381 214.6Z" fill="url(#paint31_linear)"/>
<path d="M137.383 213.448C131.86 216.382 122.771 216.382 117.133 213.448L47.2906 176.664C41.7677 173.73 41.7677 169.014 47.2906 166.08L117.133 129.296C122.656 126.362 131.745 126.362 137.383 129.296L207.225 166.08C212.748 169.014 212.748 173.73 207.225 176.664L137.383 213.448Z" fill="url(#paint32_linear)"/>
<path d="M204.463 150.36H164.882L136.577 135.479C131.514 132.754 123.115 132.754 118.052 135.479L89.7469 150.36H50.166V169.538C50.3961 171.11 51.6618 172.577 53.963 173.834L118.052 207.474C123.115 210.199 131.514 210.199 136.577 207.474L200.666 173.834C202.967 172.682 204.232 171.11 204.463 169.538V150.36Z" fill="#FBB63F"/>
<path d="M211.366 134.432H168.218L137.381 118.189C131.859 115.255 122.769 115.255 117.131 118.189L86.2943 134.432H43.1465V160.841C43.3766 162.518 44.7574 164.194 47.2887 165.557L117.131 202.34C122.654 205.275 131.743 205.275 137.381 202.34L207.223 165.557C209.755 164.299 211.02 162.623 211.366 160.841H211.481V134.432H211.366Z" fill="url(#paint33_linear)"/>
<path d="M137.381 177.608C131.858 180.542 122.769 180.542 117.131 177.608L47.2887 140.824C41.7658 137.89 41.7658 133.174 47.2887 130.24L117.131 93.4566C122.654 90.5223 131.743 90.5223 137.381 93.4566L207.223 130.24C212.746 133.174 212.746 137.89 207.223 140.824L137.381 177.608Z" fill="url(#paint34_linear)"/>
<path d="M137.383 176.455C131.86 179.39 122.771 179.39 117.133 176.455L47.2906 139.672C41.7677 136.738 41.7677 132.022 47.2906 129.088L117.133 92.3042C122.656 89.3699 131.745 89.3699 137.383 92.3042L207.225 129.088C212.748 132.022 212.748 136.738 207.225 139.672L137.383 176.455Z" fill="url(#paint35_linear)"/>
<path d="M204.463 113.368H164.882L136.577 98.4869C131.514 95.7622 123.115 95.7622 118.052 98.4869L89.7469 113.368H50.166V132.546C50.3961 134.118 51.6618 135.585 53.963 136.842L118.052 170.482C123.115 173.206 131.514 173.206 136.577 170.482L200.666 136.842C202.967 135.689 204.232 134.118 204.463 132.546V113.368Z" fill="#FBB63F"/>
<path d="M211.366 97.3347H168.218L137.381 81.0913C131.859 78.1571 122.769 78.1571 117.131 81.0913L86.2943 97.3347H43.1465V123.743C43.3766 125.42 44.7574 127.097 47.2887 128.459L117.131 165.243C122.654 168.177 131.743 168.177 137.381 165.243L207.223 128.459C209.755 127.202 211.02 125.525 211.366 123.743H211.481V97.3347H211.366Z" fill="url(#paint36_linear)"/>
<path d="M137.381 140.51C131.858 143.444 122.769 143.444 117.131 140.51L47.2887 103.727C41.7658 100.792 41.7658 96.0766 47.2887 93.1423L117.131 56.3589C122.654 53.4246 131.743 53.4246 137.381 56.3589L207.223 93.1423C212.746 96.0766 212.746 100.792 207.223 103.727L137.381 140.51Z" fill="url(#paint37_linear)"/>
<path d="M137.381 139.358C131.858 142.292 122.769 142.292 117.131 139.358L47.2887 102.574C41.7658 99.6401 41.7658 94.9243 47.2887 91.99L117.131 55.2066C122.654 52.2723 131.743 52.2723 137.381 55.2066L207.223 91.99C212.746 94.9243 212.746 99.6401 207.223 102.574L137.381 139.358Z" fill="url(#paint38_linear)"/>
<path d="M55.5727 99.2202C54.1919 99.9537 51.8907 99.9537 50.3949 99.2202C49.0142 98.4866 49.0142 97.2291 50.3949 96.4955C51.7757 95.7619 54.0769 95.7619 55.5727 96.4955C57.0685 97.2291 57.0685 98.4866 55.5727 99.2202Z" fill="url(#paint39_linear)"/>
<path d="M55.5727 98.9057C54.1919 99.6393 51.8907 99.6393 50.3949 98.9057C49.0142 98.1722 49.0142 96.9146 50.3949 96.181C51.7757 95.4475 54.0769 95.4475 55.5727 96.181C57.0685 96.9146 57.0685 98.1722 55.5727 98.9057Z" fill="url(#paint40_linear)"/>
<path d="M55.5727 97.4389C54.1919 98.1725 51.8907 98.1725 50.3949 97.4389C49.0142 96.7054 49.0142 95.4478 50.3949 94.7142C51.7757 93.9807 54.0769 93.9807 55.5727 94.7142C57.0685 95.5526 57.0685 96.7054 55.5727 97.4389Z" fill="#96A2CC"/>
<path opacity="0.6" d="M55.5727 97.4389C54.1919 98.1725 51.8907 98.1725 50.3949 97.4389C49.0142 96.7054 49.0142 95.4478 50.3949 94.7142C51.7757 93.9807 54.0769 93.9807 55.5727 94.7142C57.0685 95.5526 57.0685 96.7054 55.5727 97.4389Z" fill="url(#paint41_linear)"/>
<path d="M50.8544 94.6094C50.7393 94.7142 50.6243 94.7142 50.3942 94.819C50.2791 94.819 50.2791 94.9238 50.1641 94.9238L55.2267 97.6484C55.3417 97.6484 55.3418 97.5437 55.4568 97.5437C55.5719 97.4389 55.6869 97.4389 55.802 97.3341L50.8544 94.6094Z" fill="#3F3CAB"/>
<path d="M203.543 99.2202C202.163 99.9537 199.861 99.9537 198.366 99.2202C196.985 98.4866 196.985 97.2291 198.366 96.4955C199.746 95.7619 202.048 95.7619 203.543 96.4955C204.924 97.2291 204.924 98.4866 203.543 99.2202Z" fill="url(#paint42_linear)"/>
<path d="M203.543 98.9057C202.163 99.6393 199.861 99.6393 198.366 98.9057C196.985 98.1722 196.985 96.9146 198.366 96.181C199.746 95.4475 202.048 95.4475 203.543 96.181C204.924 96.9146 204.924 98.1722 203.543 98.9057Z" fill="url(#paint43_linear)"/>
<path d="M203.543 97.4389C202.163 98.1725 199.861 98.1725 198.366 97.4389C196.985 96.7054 196.985 95.4478 198.366 94.7142C199.746 93.9807 202.048 93.9807 203.543 94.7142C204.924 95.5526 204.924 96.7054 203.543 97.4389Z" fill="#96A2CC"/>
<path opacity="0.6" d="M203.543 97.4389C202.163 98.1725 199.861 98.1725 198.366 97.4389C196.985 96.7054 196.985 95.4478 198.366 94.7142C199.746 93.9807 202.048 93.9807 203.543 94.7142C204.924 95.5526 204.924 96.7054 203.543 97.4389Z" fill="url(#paint44_linear)"/>
<path d="M198.825 94.6094C198.71 94.7142 198.595 94.7142 198.365 94.819C198.25 94.819 198.25 94.9238 198.135 94.9238L203.198 97.6484C203.313 97.6484 203.313 97.5437 203.428 97.5437C203.543 97.4389 203.658 97.4389 203.773 97.3341L198.825 94.6094Z" fill="#3F3CAB"/>
<path d="M130.25 137.785C128.87 138.518 126.568 138.518 125.073 137.785C123.692 137.051 123.692 135.794 125.073 135.06C126.453 134.326 128.755 134.326 130.25 135.06C131.631 135.794 131.631 137.051 130.25 137.785Z" fill="url(#paint45_linear)"/>
<path d="M130.25 137.47C128.87 138.204 126.568 138.204 125.073 137.47C123.692 136.737 123.692 135.479 125.073 134.745C126.453 134.012 128.755 134.012 130.25 134.745C131.631 135.479 131.631 136.737 130.25 137.47Z" fill="url(#paint46_linear)"/>
<path d="M130.25 136.109C128.87 136.842 126.568 136.842 125.073 136.109C123.692 135.375 123.692 134.118 125.073 133.384C126.453 132.651 128.755 132.651 130.25 133.384C131.631 134.118 131.631 135.271 130.25 136.109Z" fill="#96A2CC"/>
<path opacity="0.6" d="M130.25 136.109C128.87 136.842 126.568 136.842 125.073 136.109C123.692 135.375 123.692 134.118 125.073 133.384C126.453 132.651 128.755 132.651 130.25 133.384C131.631 134.118 131.631 135.271 130.25 136.109Z" fill="url(#paint47_linear)"/>
<path d="M125.532 133.174C125.417 133.279 125.302 133.279 125.072 133.383C124.957 133.383 124.957 133.488 124.842 133.488L129.904 136.213C130.02 136.213 130.02 136.108 130.135 136.108C130.25 136.003 130.365 136.003 130.48 135.898L125.532 133.174Z" fill="#3F3CAB"/>
<path d="M130.25 60.2358C128.87 60.9694 126.568 60.9694 125.073 60.2358C123.692 59.5022 123.692 58.2447 125.073 57.5111C126.453 56.7775 128.755 56.7775 130.25 57.5111C131.631 58.3495 131.631 59.5022 130.25 60.2358Z" fill="url(#paint48_linear)"/>
<path d="M130.25 59.9233C128.87 60.6569 126.568 60.6569 125.073 59.9233C123.692 59.1897 123.692 57.9322 125.073 57.1986C126.453 56.465 128.755 56.465 130.25 57.1986C131.631 57.9322 131.631 59.1897 130.25 59.9233Z" fill="url(#paint49_linear)"/>
<path d="M130.25 58.56C128.87 59.2936 126.568 59.2936 125.073 58.56C123.692 57.8265 123.692 56.5689 125.073 55.8353C126.453 55.1018 128.755 55.1018 130.25 55.8353C131.631 56.5689 131.631 57.8265 130.25 58.56Z" fill="#96A2CC"/>
<path opacity="0.6" d="M130.25 58.56C128.87 59.2936 126.568 59.2936 125.073 58.56C123.692 57.8265 123.692 56.5689 125.073 55.8353C126.453 55.1018 128.755 55.1018 130.25 55.8353C131.631 56.5689 131.631 57.8265 130.25 58.56Z" fill="url(#paint50_linear)"/>
<path d="M125.532 55.627C125.417 55.7317 125.302 55.7317 125.072 55.8365C124.957 55.8365 124.957 55.9413 124.842 55.9413L129.904 58.6661C130.02 58.6661 130.02 58.5613 130.135 58.5613C130.25 58.4565 130.365 58.4565 130.48 58.3517L125.532 55.627Z" fill="#3F3CAB"/>
<path d="M405.934 210.829H362.786L331.95 194.585C326.427 191.651 317.337 191.651 311.699 194.585L280.863 210.829H237.715V237.237C237.945 238.914 239.326 240.591 241.857 241.953L311.699 278.737C317.222 281.671 326.312 281.671 331.95 278.737L401.792 241.953C404.323 240.696 405.589 239.019 405.934 237.237H406.049V210.829H405.934Z" fill="#2A2551"/>
<path d="M405.934 208.419H362.786L331.95 192.175C326.427 189.241 317.337 189.241 311.699 192.175L280.863 208.419H237.715V234.827C237.945 236.504 239.326 238.181 241.857 239.543L311.699 276.327C317.222 279.261 326.312 279.261 331.95 276.327L401.792 239.543C404.323 238.286 405.589 236.609 405.934 234.827H406.049V208.419H405.934Z" fill="url(#paint51_linear)"/>
<path d="M331.95 251.594C326.427 254.528 317.337 254.528 311.699 251.594L241.857 214.811C236.334 211.876 236.334 207.161 241.857 204.226L311.699 167.443C317.222 164.509 326.312 164.509 331.95 167.443L401.792 204.226C407.315 207.161 407.315 211.876 401.792 214.811L331.95 251.594Z" fill="url(#paint52_linear)"/>
<path d="M331.95 250.442C326.427 253.376 317.337 253.376 311.699 250.442L241.857 213.658C236.334 210.724 236.334 206.008 241.857 203.074L311.699 166.291C317.222 163.356 326.312 163.356 331.95 166.291L401.792 203.074C407.315 206.008 407.315 210.724 401.792 213.658L331.95 250.442Z" fill="url(#paint53_linear)"/>
<path d="M398.918 187.354H359.337L331.032 172.473C325.969 169.749 317.57 169.749 312.507 172.473L284.202 187.354H244.621V206.532C244.851 208.104 246.117 209.676 248.418 210.829L312.507 244.468C317.57 247.193 325.969 247.193 331.032 244.468L395.121 210.829C397.422 209.676 398.688 208.104 398.918 206.532V187.354Z" fill="#FBB63F"/>
<path d="M405.934 171.216H362.786L331.95 154.972C326.427 152.038 317.337 152.038 311.699 154.972L280.863 171.216H237.715V197.624C237.945 199.301 239.326 200.978 241.857 202.34L311.699 239.123C317.222 242.058 326.312 242.058 331.95 239.123L401.792 202.34C404.323 201.082 405.589 199.406 405.934 197.624H406.049V171.216H405.934Z" fill="url(#paint54_linear)"/>
<path d="M331.95 214.391C326.427 217.325 317.337 217.325 311.699 214.391L241.857 177.608C236.334 174.673 236.334 169.957 241.857 167.023L311.699 130.24C317.222 127.305 326.312 127.305 331.95 130.24L401.792 167.023C407.315 169.957 407.315 174.673 401.792 177.608L331.95 214.391Z" fill="url(#paint55_linear)"/>
<path d="M331.95 213.239C326.427 216.174 317.337 216.174 311.699 213.239L241.857 176.456C236.334 173.522 236.334 168.806 241.857 165.872L311.699 129.193C317.222 126.259 326.312 126.259 331.95 129.193L401.792 165.976C407.315 168.911 407.315 173.626 401.792 176.561L331.95 213.239Z" fill="url(#paint56_linear)"/>
<path d="M398.918 150.153H359.337L331.032 135.272C325.969 132.547 317.57 132.547 312.507 135.272L284.202 150.153H244.621V169.331C244.851 170.903 246.117 172.37 248.418 173.627L312.507 207.267C317.57 209.992 325.969 209.992 331.032 207.267L395.121 173.627C397.422 172.475 398.688 170.903 398.918 169.331V150.153Z" fill="#FBB63F"/>
<path d="M405.934 134.223H362.786L331.95 117.98C326.427 115.046 317.337 115.046 311.699 117.98L280.863 134.223H237.715V160.632C237.945 162.309 239.326 163.985 241.857 165.348L311.699 202.131C317.222 205.065 326.312 205.065 331.95 202.131L401.792 165.348C404.323 164.09 405.589 162.414 405.934 160.632H406.049V134.223H405.934Z" fill="url(#paint57_linear)"/>
<path d="M331.95 177.399C326.427 180.334 317.337 180.334 311.699 177.399L241.857 140.721C236.334 137.787 236.334 133.071 241.857 130.136L311.699 93.3531C317.222 90.4188 326.312 90.4188 331.95 93.3531L401.792 130.136C407.315 133.071 407.315 137.787 401.792 140.721L331.95 177.399Z" fill="url(#paint58_linear)"/>
<path d="M331.95 176.246C326.427 179.181 317.337 179.181 311.699 176.246L241.857 139.463C236.334 136.529 236.334 131.813 241.857 128.879L311.699 92.0952C317.222 89.161 326.312 89.161 331.95 92.0952L401.792 128.879C407.315 131.813 407.315 136.529 401.792 139.463L331.95 176.246Z" fill="url(#paint59_linear)"/>
<path d="M398.918 113.159H359.337L331.032 98.2779C325.969 95.5532 317.57 95.5532 312.507 98.2779L284.202 113.159H244.621V132.337C244.851 133.909 246.117 135.376 248.418 136.633L312.507 170.273C317.57 172.997 325.969 172.997 331.032 170.273L395.121 136.633C397.422 135.48 398.688 133.909 398.918 132.337V113.159Z" fill="#FBB63F"/>
<path d="M405.934 97.1257H362.786L331.95 80.8824C326.427 77.9481 317.337 77.9481 311.699 80.8824L280.863 97.1257H237.715V123.534C237.945 125.211 239.326 126.888 241.857 128.25L311.699 165.034C317.222 167.968 326.312 167.968 331.95 165.034L401.792 128.25C404.323 126.993 405.589 125.316 405.934 123.534H406.049V97.1257H405.934Z" fill="url(#paint60_linear)"/>
<path d="M331.95 140.301C326.427 143.235 317.337 143.235 311.699 140.301L241.857 103.518C236.334 100.583 236.334 95.8676 241.857 92.9333L311.699 56.1499C317.222 53.2156 326.312 53.2156 331.95 56.1499L401.792 92.9333C407.315 95.8676 407.315 100.583 401.792 103.518L331.95 140.301Z" fill="url(#paint61_linear)"/>
<path d="M331.95 139.149C326.427 142.083 317.337 142.083 311.699 139.149L241.857 102.365C236.334 99.4311 236.334 94.7153 241.857 91.781L311.699 54.9976C317.222 52.0633 326.312 52.0633 331.95 54.9976L401.792 91.781C407.315 94.7153 407.315 99.4311 401.792 102.365L331.95 139.149Z" fill="url(#paint62_linear)"/>
<path d="M250.141 99.0112C248.76 99.7447 246.459 99.7447 244.963 99.0112C243.583 98.2776 243.583 97.0201 244.963 96.2865C246.344 95.5529 248.645 95.5529 250.141 96.2865C251.522 97.0201 251.522 98.2776 250.141 99.0112Z" fill="url(#paint63_linear)"/>
<path d="M250.141 98.6967C248.76 99.4303 246.459 99.4303 244.963 98.6967C243.583 97.9632 243.583 96.7056 244.963 95.9721C246.344 95.2385 248.645 95.2385 250.141 95.9721C251.522 96.7056 251.522 97.8584 250.141 98.6967Z" fill="url(#paint64_linear)"/>
<path d="M250.141 97.23C248.76 97.9635 246.459 97.9635 244.963 97.23C243.583 96.4964 243.583 95.2388 244.963 94.5053C246.344 93.7717 248.645 93.7717 250.141 94.5053C251.522 95.3436 251.522 96.4964 250.141 97.23Z" fill="#96A2CC"/>
<path opacity="0.6" d="M250.141 97.23C248.76 97.9635 246.459 97.9635 244.963 97.23C243.583 96.4964 243.583 95.2388 244.963 94.5053C246.344 93.7717 248.645 93.7717 250.141 94.5053C251.522 95.3436 251.522 96.4964 250.141 97.23Z" fill="url(#paint65_linear)"/>
<path d="M245.423 94.4004C245.308 94.5052 245.193 94.5052 244.963 94.61C244.847 94.61 244.847 94.7148 244.732 94.7148L249.795 97.4395C249.91 97.4395 249.91 97.3347 250.025 97.3347C250.14 97.2299 250.255 97.2299 250.37 97.1251L245.423 94.4004Z" fill="#3F3CAB"/>
<path d="M398.11 99.0112C396.729 99.7447 394.428 99.7447 392.932 99.0112C391.551 98.2776 391.551 97.0201 392.932 96.2865C394.313 95.5529 396.614 95.5529 398.11 96.2865C399.49 97.0201 399.49 98.2776 398.11 99.0112Z" fill="url(#paint66_linear)"/>
<path d="M398.11 98.6967C396.729 99.4303 394.428 99.4303 392.932 98.6967C391.551 97.9632 391.551 96.7056 392.932 95.9721C394.313 95.2385 396.614 95.2385 398.11 95.9721C399.49 96.7056 399.49 97.8584 398.11 98.6967Z" fill="url(#paint67_linear)"/>
<path d="M398.11 97.23C396.729 97.9635 394.428 97.9635 392.932 97.23C391.551 96.4964 391.551 95.2388 392.932 94.5053C394.313 93.7717 396.614 93.7717 398.11 94.5053C399.49 95.3436 399.49 96.4964 398.11 97.23Z" fill="#96A2CC"/>
<path opacity="0.6" d="M398.11 97.23C396.729 97.9635 394.428 97.9635 392.932 97.23C391.551 96.4964 391.551 95.2388 392.932 94.5053C394.313 93.7717 396.614 93.7717 398.11 94.5053C399.49 95.3436 399.49 96.4964 398.11 97.23Z" fill="url(#paint68_linear)"/>
<path d="M393.278 94.4004C393.163 94.5052 393.048 94.5052 392.818 94.61C392.703 94.61 392.703 94.7148 392.588 94.7148L397.651 97.4395C397.766 97.4395 397.766 97.3347 397.881 97.3347C397.996 97.2299 398.111 97.2299 398.226 97.1251L393.278 94.4004Z" fill="#3F3CAB"/>
<path d="M324.702 137.578C323.321 138.311 321.02 138.311 319.524 137.578C318.143 136.844 318.143 135.586 319.524 134.853C320.905 134.119 323.206 134.119 324.702 134.853C326.197 135.586 326.197 136.844 324.702 137.578Z" fill="url(#paint69_linear)"/>
<path d="M324.702 137.263C323.321 137.997 321.02 137.997 319.524 137.263C318.143 136.53 318.143 135.272 319.524 134.538C320.905 133.805 323.206 133.805 324.702 134.538C326.197 135.272 326.197 136.53 324.702 137.263Z" fill="url(#paint70_linear)"/>
<path d="M324.702 135.796C323.321 136.53 321.02 136.53 319.524 135.796C318.143 135.063 318.143 133.805 319.524 133.072C320.905 132.338 323.206 132.338 324.702 133.072C326.197 133.91 326.197 135.063 324.702 135.796Z" fill="#96A2CC"/>
<path opacity="0.6" d="M324.702 135.796C323.321 136.53 321.02 136.53 319.524 135.796C318.143 135.063 318.143 133.805 319.524 133.072C320.905 132.338 323.206 132.338 324.702 133.072C326.197 133.91 326.197 135.063 324.702 135.796Z" fill="url(#paint71_linear)"/>
<path d="M319.983 132.967C319.868 133.072 319.753 133.072 319.523 133.176C319.408 133.176 319.408 133.281 319.293 133.281L324.356 136.006C324.471 136.006 324.471 135.901 324.586 135.901C324.701 135.796 324.816 135.796 324.931 135.691L319.983 132.967Z" fill="#3F3CAB"/>
<path d="M324.702 60.0268C323.321 60.7604 321.02 60.7604 319.524 60.0268C318.143 59.2933 318.143 58.0357 319.524 57.3021C320.905 56.5686 323.206 56.5686 324.702 57.3021C326.197 58.1405 326.197 59.2933 324.702 60.0268Z" fill="url(#paint72_linear)"/>
<path d="M324.702 59.7124C323.321 60.446 321.02 60.446 319.524 59.7124C318.143 58.9788 318.143 57.7213 319.524 56.9877C320.905 56.2541 323.206 56.2541 324.702 56.9877C326.197 57.7213 326.197 58.9788 324.702 59.7124Z" fill="url(#paint73_linear)"/>
<path d="M324.702 58.351C323.321 59.0846 321.02 59.0846 319.524 58.351C318.143 57.6175 318.143 56.3599 319.524 55.6264C320.905 54.8928 323.206 54.8928 324.702 55.6264C326.197 56.3599 326.197 57.6175 324.702 58.351Z" fill="#96A2CC"/>
<path opacity="0.6" d="M324.702 58.351C323.321 59.0846 321.02 59.0846 319.524 58.351C318.143 57.6175 318.143 56.3599 319.524 55.6264C320.905 54.8928 323.206 54.8928 324.702 55.6264C326.197 56.3599 326.197 57.6175 324.702 58.351Z" fill="url(#paint74_linear)"/>
<path d="M319.983 55.416C319.868 55.5208 319.753 55.5208 319.523 55.6256C319.408 55.6256 319.408 55.7304 319.293 55.7304L324.356 58.4551C324.471 58.4551 324.471 58.3503 324.586 58.3503C324.701 58.2455 324.816 58.2455 324.931 58.1407L319.983 55.416Z" fill="#3F3CAB"/>
<path d="M308.592 264.903H265.444L234.493 248.66C228.97 245.725 219.88 245.725 214.242 248.66L183.406 264.903H140.258V291.312C140.488 292.988 141.869 294.665 144.4 296.028L214.242 332.811C219.765 335.745 228.855 335.745 234.493 332.811L304.335 296.028C306.866 294.77 308.132 293.093 308.477 291.312H308.592V264.903Z" fill="#2A2551"/>
<path d="M308.592 262.493H265.444L234.608 246.25C229.085 243.315 219.995 243.315 214.357 246.25L183.521 262.493H140.258V288.902C140.488 290.578 141.869 292.255 144.4 293.617L214.242 330.401C219.765 333.335 228.855 333.335 234.493 330.401L304.335 293.617C306.866 292.36 308.132 290.683 308.477 288.902H308.592V262.493Z" fill="url(#paint75_linear)"/>
<path d="M234.493 305.668C228.97 308.603 219.88 308.603 214.242 305.668L144.4 268.885C138.877 265.951 138.877 261.235 144.4 258.301L214.242 221.517C219.765 218.583 228.855 218.583 234.493 221.517L304.335 258.301C309.857 261.235 309.857 265.951 304.335 268.885L234.493 305.668Z" fill="url(#paint76_linear)"/>
<path d="M234.493 304.516C228.97 307.45 219.88 307.45 214.242 304.516L144.4 267.733C138.877 264.798 138.877 260.082 144.4 257.148L214.242 220.365C219.765 217.43 228.855 217.43 234.493 220.365L304.335 257.148C309.857 260.082 309.857 264.798 304.335 267.733L234.493 304.516Z" fill="url(#paint77_linear)"/>
<path d="M301.576 241.428H261.995L233.69 226.547C228.627 223.823 220.228 223.823 215.165 226.547L186.86 241.428H147.279V260.606C147.509 262.178 148.775 263.75 151.076 264.903L215.165 298.542C220.228 301.267 228.627 301.267 233.69 298.542L297.779 264.903C300.08 263.75 301.346 262.178 301.576 260.606V241.428Z" fill="#FBB63F"/>
<path d="M308.592 225.29H265.444L234.608 209.046C229.085 206.112 219.995 206.112 214.357 209.046L183.521 225.29H140.258V251.698C140.488 253.375 141.869 255.052 144.4 256.414L214.242 293.198C219.765 296.132 228.855 296.132 234.493 293.198L304.335 256.414C306.866 255.157 308.132 253.48 308.477 251.698H308.592V225.29Z" fill="url(#paint78_linear)"/>
<path d="M234.493 268.465C228.97 271.399 219.88 271.399 214.242 268.465L144.4 231.682C138.877 228.747 138.877 224.032 144.4 221.097L214.242 184.314C219.765 181.38 228.855 181.38 234.493 184.314L304.335 221.097C309.857 224.032 309.857 228.747 304.335 231.682L234.493 268.465Z" fill="url(#paint79_linear)"/>
<path d="M234.493 267.313C228.97 270.247 219.88 270.247 214.242 267.313L144.4 230.529C138.877 227.595 138.877 222.879 144.4 219.945L214.242 183.162C219.765 180.227 228.855 180.227 234.493 183.162L304.335 219.945C309.857 222.879 309.857 227.595 304.335 230.529L234.493 267.313Z" fill="url(#paint80_linear)"/>
<path d="M301.576 204.225H261.995L233.69 189.344C228.627 186.62 220.228 186.62 215.165 189.344L186.86 204.225H147.279V223.403C147.509 224.975 148.775 226.442 151.076 227.7L215.165 261.339C220.228 264.064 228.627 264.064 233.69 261.339L297.779 227.7C300.08 226.547 301.346 224.975 301.576 223.403V204.225Z" fill="#FBB63F"/>
<path d="M308.592 188.298H265.444L234.608 172.054C229.085 169.12 219.995 169.12 214.357 172.054L183.521 188.298H140.258V214.706C140.488 216.383 141.869 218.06 144.4 219.422L214.242 256.205C219.765 259.14 228.855 259.14 234.493 256.205L304.335 219.422C306.866 218.164 308.132 216.488 308.477 214.706H308.592V188.298Z" fill="url(#paint81_linear)"/>
<path d="M234.493 231.473C228.97 234.407 219.88 234.407 214.242 231.473L144.4 194.69C138.877 191.755 138.877 187.039 144.4 184.105L214.242 147.322C219.765 144.388 228.855 144.388 234.493 147.322L304.335 184.105C309.857 187.039 309.857 191.755 304.335 194.69L234.493 231.473Z" fill="url(#paint82_linear)"/>
<path d="M234.493 230.321C228.97 233.255 219.88 233.255 214.242 230.321L144.4 193.537C138.877 190.603 138.877 185.887 144.4 182.953L214.242 146.169C219.765 143.235 228.855 143.235 234.493 146.169L304.335 182.953C309.857 185.887 309.857 190.603 304.335 193.537L234.493 230.321Z" fill="url(#paint83_linear)"/>
<path d="M301.576 167.233H261.995L233.69 152.352C228.627 149.627 220.228 149.627 215.165 152.352L186.86 167.233H147.279V186.411C147.509 187.983 148.775 189.45 151.076 190.707L215.165 224.347C220.228 227.072 228.627 227.072 233.69 224.347L297.779 190.707C300.08 189.555 301.346 187.983 301.576 186.411V167.233Z" fill="#FBB63F"/>
<path d="M308.592 151.094H265.444L234.608 134.851C229.085 131.917 219.995 131.917 214.357 134.851L183.521 151.094H140.258V177.503C140.488 179.18 141.869 180.857 144.4 182.219L214.242 219.002C219.765 221.937 228.855 221.937 234.493 219.002L304.335 182.219C306.866 180.961 308.132 179.285 308.477 177.503H308.592V151.094Z" fill="url(#paint84_linear)"/>
<path d="M234.493 194.375C228.97 197.31 219.88 197.31 214.242 194.375L144.4 157.592C138.877 154.658 138.877 149.942 144.4 147.008L214.242 110.224C219.765 107.29 228.855 107.29 234.493 110.224L304.335 147.008C309.857 149.942 309.857 154.658 304.335 157.592L234.493 194.375Z" fill="url(#paint85_linear)"/>
<path d="M234.495 193.223C228.972 196.157 219.882 196.157 214.244 193.223L144.517 156.44C138.994 153.505 138.994 148.789 144.517 145.855L214.359 109.072C219.882 106.138 228.972 106.138 234.61 109.072L304.452 145.855C309.975 148.789 309.975 153.505 304.452 156.44L234.495 193.223Z" fill="url(#paint86_linear)"/>
<path d="M152.799 153.085C151.419 153.819 149.117 153.819 147.621 153.085C146.241 152.352 146.241 151.094 147.621 150.361C149.002 149.627 151.303 149.627 152.799 150.361C154.18 151.094 154.18 152.247 152.799 153.085Z" fill="url(#paint87_linear)"/>
<path d="M152.799 152.667C151.419 153.401 149.117 153.401 147.621 152.667C146.241 151.934 146.241 150.676 147.621 149.943C149.002 149.209 151.303 149.209 152.799 149.943C154.18 150.781 154.18 151.934 152.799 152.667Z" fill="url(#paint88_linear)"/>
<path d="M152.801 151.304C151.42 152.038 149.119 152.038 147.623 151.304C146.243 150.571 146.243 149.313 147.623 148.579C149.004 147.846 151.305 147.846 152.801 148.579C154.182 149.313 154.182 150.571 152.801 151.304Z" fill="#96A2CC"/>
<path opacity="0.6" d="M152.801 151.304C151.42 152.038 149.119 152.038 147.623 151.304C146.243 150.571 146.243 149.313 147.623 148.579C149.004 147.846 151.305 147.846 152.801 148.579C154.182 149.313 154.182 150.571 152.801 151.304Z" fill="url(#paint89_linear)"/>
<path d="M148.081 148.475C147.966 148.579 147.851 148.579 147.621 148.684C147.506 148.684 147.506 148.789 147.391 148.789L152.453 151.514C152.568 151.514 152.568 151.409 152.683 151.409C152.798 151.304 152.913 151.304 153.028 151.199L148.081 148.475Z" fill="#3F3CAB"/>
<path d="M300.653 153.085C299.272 153.819 296.971 153.819 295.475 153.085C294.094 152.352 294.094 151.094 295.475 150.361C296.856 149.627 299.157 149.627 300.653 150.361C302.148 151.094 302.148 152.247 300.653 153.085Z" fill="url(#paint90_linear)"/>
<path d="M300.653 152.667C299.272 153.401 296.971 153.401 295.475 152.667C294.094 151.934 294.094 150.676 295.475 149.943C296.856 149.209 299.157 149.209 300.653 149.943C302.148 150.781 302.148 151.934 300.653 152.667Z" fill="url(#paint91_linear)"/>
<path d="M300.653 151.304C299.272 152.038 296.971 152.038 295.475 151.304C294.094 150.571 294.094 149.313 295.475 148.579C296.856 147.846 299.157 147.846 300.653 148.579C302.148 149.313 302.148 150.571 300.653 151.304Z" fill="#96A2CC"/>
<path opacity="0.6" d="M300.653 151.304C299.272 152.038 296.971 152.038 295.475 151.304C294.094 150.571 294.094 149.313 295.475 148.579C296.856 147.846 299.157 147.846 300.653 148.579C302.148 149.313 302.148 150.571 300.653 151.304Z" fill="url(#paint92_linear)"/>
<path d="M295.934 148.475C295.819 148.579 295.704 148.579 295.474 148.684C295.359 148.684 295.359 148.789 295.244 148.789L300.307 151.514C300.422 151.514 300.422 151.409 300.537 151.409C300.652 151.304 300.767 151.304 300.882 151.199L295.934 148.475Z" fill="#3F3CAB"/>
<path d="M227.362 191.65C225.981 192.383 223.68 192.383 222.184 191.65C220.803 190.916 220.803 189.659 222.184 188.925C223.565 188.192 225.866 188.192 227.362 188.925C228.743 189.659 228.743 190.916 227.362 191.65Z" fill="url(#paint93_linear)"/>
<path d="M227.362 191.23C225.981 191.963 223.68 191.963 222.184 191.23C220.803 190.496 220.803 189.239 222.184 188.505C223.565 187.772 225.866 187.772 227.362 188.505C228.743 189.344 228.743 190.496 227.362 191.23Z" fill="url(#paint94_linear)"/>
<path d="M227.362 189.869C225.981 190.602 223.68 190.602 222.184 189.869C220.803 189.135 220.803 187.878 222.184 187.144C223.565 186.41 225.866 186.41 227.362 187.144C228.743 187.982 228.743 189.135 227.362 189.869Z" fill="#96A2CC"/>
<path opacity="0.6" d="M227.362 189.869C225.981 190.602 223.68 190.602 222.184 189.869C220.803 189.135 220.803 187.878 222.184 187.144C223.565 186.41 225.866 186.41 227.362 187.144C228.743 187.982 228.743 189.135 227.362 189.869Z" fill="url(#paint95_linear)"/>
<path d="M222.643 187.039C222.528 187.144 222.413 187.144 222.183 187.249C222.068 187.249 222.068 187.353 221.953 187.353L227.016 190.078C227.131 190.078 227.131 189.973 227.246 189.973C227.361 189.869 227.476 189.869 227.591 189.764L222.643 187.039Z" fill="#3F3CAB"/>
<path d="M227.362 114.101C225.981 114.835 223.68 114.835 222.184 114.101C220.803 113.367 220.803 112.11 222.184 111.376C223.565 110.643 225.866 110.643 227.362 111.376C228.743 112.11 228.743 113.367 227.362 114.101Z" fill="url(#paint96_linear)"/>
<path d="M227.362 113.789C225.981 114.522 223.68 114.522 222.184 113.789C220.803 113.055 220.803 111.797 222.184 111.064C223.565 110.33 225.866 110.33 227.362 111.064C228.743 111.797 228.743 113.055 227.362 113.789Z" fill="url(#paint97_linear)"/>
<path d="M227.362 112.32C225.981 113.053 223.68 113.053 222.184 112.32C220.803 111.586 220.803 110.329 222.184 109.595C223.565 108.862 225.866 108.862 227.362 109.595C228.743 110.433 228.743 111.586 227.362 112.32Z" fill="#96A2CC"/>
<path opacity="0.6" d="M227.362 112.32C225.981 113.053 223.68 113.053 222.184 112.32C220.803 111.586 220.803 110.329 222.184 109.595C223.565 108.862 225.866 108.862 227.362 109.595C228.743 110.433 228.743 111.586 227.362 112.32Z" fill="url(#paint98_linear)"/>
<path d="M222.643 109.49C222.528 109.595 222.413 109.595 222.183 109.7C222.068 109.7 222.068 109.805 221.953 109.805L227.016 112.529C227.131 112.529 227.131 112.425 227.246 112.425C227.361 112.32 227.476 112.32 227.591 112.215L222.643 109.49Z" fill="#3F3CAB"/>
<defs>
<linearGradient id="paint0_linear" x1="0.162581" y1="250.574" x2="449.614" y2="250.574" gradientUnits="userSpaceOnUse">
<stop offset="0.00485437" stop-color="#112552"/>
<stop offset="0.2087" stop-color="#224A9E"/>
<stop offset="0.3932" stop-color="#4B02AA"/>
<stop offset="0.6068" stop-color="#8024AA"/>
<stop offset="0.8447" stop-color="#D88282"/>
<stop offset="1" stop-color="#B24EA6"/>
</linearGradient>
<linearGradient id="paint1_linear" x1="0.161346" y1="238.446" x2="449.614" y2="238.446" gradientUnits="userSpaceOnUse">
<stop stop-color="#214B9E"/>
<stop offset="0.2233" stop-color="#4C00AA"/>
<stop offset="0.7961" stop-color="#AE45AA"/>
<stop offset="1" stop-color="#D89D82"/>
</linearGradient>
<linearGradient id="paint2_linear" x1="-226.788" y1="234.372" x2="-29.9393" y2="604.394" gradientUnits="userSpaceOnUse">
<stop stop-color="#FBB63F"/>
<stop offset="0.981306" stop-color="#B069A1"/>
</linearGradient>
<linearGradient id="paint3_linear" x1="133.768" y1="181.817" x2="340.612" y2="181.817" gradientUnits="userSpaceOnUse">
<stop stop-color="#112552"/>
<stop offset="0.1421" stop-color="#224A9E"/>
<stop offset="0.4044" stop-color="#4902A6"/>
<stop offset="0.4405" stop-color="#613FAA"/>
<stop offset="0.5385" stop-color="#112552"/>
</linearGradient>
<linearGradient id="paint4_linear" x1="140.432" y1="157.146" x2="308.729" y2="157.146" gradientUnits="userSpaceOnUse">
<stop stop-color="#214B9E"/>
<stop offset="0.2282" stop-color="#5300BF"/>
<stop offset="0.7621" stop-color="#4FFFFF"/>
<stop offset="1" stop-color="#5F5186"/>
</linearGradient>
<linearGradient id="paint5_linear" x1="140.434" y1="156.005" x2="308.731" y2="156.005" gradientUnits="userSpaceOnUse">
<stop stop-color="#214B9E"/>
<stop offset="0.2282" stop-color="#5300BF"/>
<stop offset="0.7621" stop-color="#4FFFFF"/>
<stop offset="1" stop-color="#5F5186"/>
</linearGradient>
<linearGradient id="paint6_linear" x1="133.768" y1="144.618" x2="340.612" y2="144.618" gradientUnits="userSpaceOnUse">
<stop stop-color="#112552"/>
<stop offset="0.1421" stop-color="#224A9E"/>
<stop offset="0.4044" stop-color="#4902A6"/>
<stop offset="0.4405" stop-color="#613FAA"/>
<stop offset="0.5385" stop-color="#112552"/>
</linearGradient>
<linearGradient id="paint7_linear" x1="140.432" y1="119.946" x2="308.729" y2="119.946" gradientUnits="userSpaceOnUse">
<stop stop-color="#214B9E"/>
<stop offset="0.2233" stop-color="#4C00AA"/>
<stop offset="0.7961" stop-color="#4FFFFF"/>
<stop offset="1" stop-color="#D89D82"/>
</linearGradient>
<linearGradient id="paint8_linear" x1="140.434" y1="118.806" x2="308.731" y2="118.806" gradientUnits="userSpaceOnUse">
<stop stop-color="#214B9E"/>
<stop offset="0.2282" stop-color="#5300BF"/>
<stop offset="0.7621" stop-color="#4FFFFF"/>
<stop offset="1" stop-color="#5F5186"/>
</linearGradient>
<linearGradient id="paint9_linear" x1="133.768" y1="107.617" x2="340.612" y2="107.617" gradientUnits="userSpaceOnUse">
<stop stop-color="#112552"/>
<stop offset="0.1421" stop-color="#224A9E"/>
<stop offset="0.4044" stop-color="#4902A6"/>
<stop offset="0.4405" stop-color="#613FAA"/>
<stop offset="0.5385" stop-color="#112552"/>
</linearGradient>
<linearGradient id="paint10_linear" x1="140.432" y1="82.9461" x2="308.729" y2="82.9461" gradientUnits="userSpaceOnUse">
<stop stop-color="#214B9E"/>
<stop offset="0.2233" stop-color="#4C00AA"/>
<stop offset="0.7961" stop-color="#4FFFFF"/>
<stop offset="1" stop-color="#D89D82"/>
</linearGradient>
<linearGradient id="paint11_linear" x1="140.434" y1="81.8054" x2="308.731" y2="81.8054" gradientUnits="userSpaceOnUse">
<stop stop-color="#214B9E"/>
<stop offset="0.2282" stop-color="#5300BF"/>
<stop offset="0.7621" stop-color="#4FFFFF"/>
<stop offset="1" stop-color="#5F5186"/>
</linearGradient>
<linearGradient id="paint12_linear" x1="119.666" y1="70.4858" x2="364.728" y2="70.4858" gradientUnits="userSpaceOnUse">
<stop stop-color="#112552"/>
<stop offset="0.1275" stop-color="#224A9E"/>
<stop offset="0.1845" stop-color="#162F67"/>
<stop offset="0.3447" stop-color="#122757"/>
<stop offset="0.3884" stop-color="#222852"/>
<stop offset="0.4405" stop-color="#543A73"/>
<stop offset="0.553" stop-color="#112552"/>
</linearGradient>
<linearGradient id="paint13_linear" x1="140.432" y1="45.8152" x2="308.729" y2="45.8152" gradientUnits="userSpaceOnUse">
<stop stop-color="#214B9E"/>
<stop offset="0.2233" stop-color="#4C00AA"/>
<stop offset="0.7961" stop-color="#AE45AA"/>
<stop offset="1" stop-color="#D89D82"/>
</linearGradient>
<linearGradient id="paint14_linear" x1="63.5298" y1="45.9296" x2="134.462" y2="180.676" gradientUnits="userSpaceOnUse">
<stop stop-color="#7D15A1"/>
<stop offset="1" stop-color="#B675A8"/>
</linearGradient>
<linearGradient id="paint15_linear" x1="146.721" y1="45.2283" x2="153.982" y2="45.2283" gradientUnits="userSpaceOnUse">
<stop stop-color="#112552"/>
<stop offset="0.1421" stop-color="#224A9E"/>
<stop offset="0.4044" stop-color="#4902A6"/>
<stop offset="0.4405" stop-color="#613FAA"/>
<stop offset="0.5385" stop-color="#112552"/>
</linearGradient>
<linearGradient id="paint16_linear" x1="146.721" y1="44.8817" x2="153.982" y2="44.8817" gradientUnits="userSpaceOnUse">
<stop stop-color="#112552"/>
<stop offset="0.1421" stop-color="#224A9E"/>
<stop offset="0.4044" stop-color="#4902A6"/>
<stop offset="0.4405" stop-color="#613FAA"/>
<stop offset="0.5385" stop-color="#112552"/>
</linearGradient>
<linearGradient id="paint17_linear" x1="146.721" y1="43.499" x2="153.982" y2="43.499" gradientUnits="userSpaceOnUse">
<stop stop-color="#214B9E"/>
<stop offset="0.2233" stop-color="#4C00AA"/>
<stop offset="0.7961" stop-color="#AE45AA"/>
<stop offset="1" stop-color="#D89D82"/>
</linearGradient>
<linearGradient id="paint18_linear" x1="294.643" y1="45.2283" x2="301.904" y2="45.2283" gradientUnits="userSpaceOnUse">
<stop stop-color="#112552"/>
<stop offset="0.1421" stop-color="#224A9E"/>
<stop offset="0.4044" stop-color="#4902A6"/>
<stop offset="0.4405" stop-color="#613FAA"/>
<stop offset="0.5385" stop-color="#112552"/>
</linearGradient>
<linearGradient id="paint19_linear" x1="294.643" y1="44.8817" x2="301.904" y2="44.8817" gradientUnits="userSpaceOnUse">
<stop stop-color="#112552"/>
<stop offset="0.1421" stop-color="#224A9E"/>
<stop offset="0.4044" stop-color="#4902A6"/>
<stop offset="0.4405" stop-color="#613FAA"/>
<stop offset="0.5385" stop-color="#112552"/>
</linearGradient>
<linearGradient id="paint20_linear" x1="294.641" y1="43.499" x2="301.902" y2="43.499" gradientUnits="userSpaceOnUse">
<stop stop-color="#214B9E"/>
<stop offset="0.2233" stop-color="#4C00AA"/>
<stop offset="0.7961" stop-color="#AE45AA"/>
<stop offset="1" stop-color="#D89D82"/>
</linearGradient>
<linearGradient id="paint21_linear" x1="221.322" y1="83.81" x2="228.583" y2="83.81" gradientUnits="userSpaceOnUse">
<stop stop-color="#112552"/>
<stop offset="0.1421" stop-color="#224A9E"/>
<stop offset="0.4044" stop-color="#4902A6"/>
<stop offset="0.4405" stop-color="#613FAA"/>
<stop offset="0.5385" stop-color="#112552"/>
</linearGradient>
<linearGradient id="paint22_linear" x1="221.322" y1="83.4639" x2="228.583" y2="83.4639" gradientUnits="userSpaceOnUse">
<stop stop-color="#112552"/>
<stop offset="0.1421" stop-color="#224A9E"/>
<stop offset="0.4044" stop-color="#4902A6"/>
<stop offset="0.4405" stop-color="#613FAA"/>
<stop offset="0.5385" stop-color="#112552"/>
</linearGradient>
<linearGradient id="paint23_linear" x1="221.322" y1="82.0808" x2="228.583" y2="82.0808" gradientUnits="userSpaceOnUse">
<stop stop-color="#214B9E"/>
<stop offset="0.2233" stop-color="#4C00AA"/>
<stop offset="0.7961" stop-color="#AE45AA"/>
<stop offset="1" stop-color="#D89D82"/>
</linearGradient>
<linearGradient id="paint24_linear" x1="221.322" y1="6.28669" x2="228.583" y2="6.28669" gradientUnits="userSpaceOnUse">
<stop stop-color="#112552"/>
<stop offset="0.1421" stop-color="#224A9E"/>
<stop offset="0.4044" stop-color="#4902A6"/>
<stop offset="0.4405" stop-color="#613FAA"/>
<stop offset="0.5385" stop-color="#112552"/>
</linearGradient>
<linearGradient id="paint25_linear" x1="221.322" y1="5.94275" x2="228.583" y2="5.94275" gradientUnits="userSpaceOnUse">
<stop stop-color="#112552"/>
<stop offset="0.1421" stop-color="#224A9E"/>
<stop offset="0.4044" stop-color="#4902A6"/>
<stop offset="0.4405" stop-color="#613FAA"/>
<stop offset="0.5385" stop-color="#112552"/>
</linearGradient>
<linearGradient id="paint26_linear" x1="221.322" y1="4.55819" x2="228.583" y2="4.55819" gradientUnits="userSpaceOnUse">
<stop stop-color="#214B9E"/>
<stop offset="0.2233" stop-color="#4C00AA"/>
<stop offset="0.7961" stop-color="#AE45AA"/>
<stop offset="1" stop-color="#D89D82"/>
</linearGradient>
<linearGradient id="paint27_linear" x1="36.4519" y1="234.452" x2="243.295" y2="234.452" gradientUnits="userSpaceOnUse">
<stop stop-color="#112552"/>
<stop offset="0.1421" stop-color="#224A9E"/>
<stop offset="0.4044" stop-color="#4902A6"/>
<stop offset="0.4405" stop-color="#613FAA"/>
<stop offset="0.5385" stop-color="#112552"/>
</linearGradient>
<linearGradient id="paint28_linear" x1="43.1158" y1="209.781" x2="211.413" y2="209.781" gradientUnits="userSpaceOnUse">
<stop stop-color="#214B9E"/>
<stop offset="0.2282" stop-color="#5300BF"/>
<stop offset="0.7621" stop-color="#4FFFFF"/>
<stop offset="1" stop-color="#5F5186"/>
</linearGradient>
<linearGradient id="paint29_linear" x1="43.1177" y1="208.64" x2="211.415" y2="208.64" gradientUnits="userSpaceOnUse">
<stop stop-color="#214B9E"/>
<stop offset="0.2282" stop-color="#5300BF"/>
<stop offset="0.7621" stop-color="#FBB63F"/>
<stop offset="1" stop-color="#5F5186"/>
</linearGradient>
<linearGradient id="paint30_linear" x1="36.4519" y1="197.253" x2="243.295" y2="197.253" gradientUnits="userSpaceOnUse">
<stop stop-color="#112552"/>
<stop offset="0.1421" stop-color="#224A9E"/>
<stop offset="0.4044" stop-color="#4902A6"/>
<stop offset="0.4405" stop-color="#613FAA"/>
<stop offset="0.5385" stop-color="#112552"/>
</linearGradient>
<linearGradient id="paint31_linear" x1="43.1158" y1="172.581" x2="211.413" y2="172.581" gradientUnits="userSpaceOnUse">
<stop stop-color="#214B9E"/>
<stop offset="0.2233" stop-color="#4C00AA"/>
<stop offset="0.7961" stop-color="#4FFFFF"/>
<stop offset="1" stop-color="#D89D82"/>
</linearGradient>
<linearGradient id="paint32_linear" x1="43.1177" y1="171.441" x2="211.415" y2="171.441" gradientUnits="userSpaceOnUse">
<stop stop-color="#214B9E"/>
<stop offset="0.2282" stop-color="#5300BF"/>
<stop offset="0.7621" stop-color="#FBB63F"/>
<stop offset="1" stop-color="#5F5186"/>
</linearGradient>
<linearGradient id="paint33_linear" x1="36.4519" y1="160.252" x2="243.295" y2="160.252" gradientUnits="userSpaceOnUse">
<stop stop-color="#112552"/>
<stop offset="0.1421" stop-color="#224A9E"/>
<stop offset="0.4044" stop-color="#4902A6"/>
<stop offset="0.4405" stop-color="#613FAA"/>
<stop offset="0.5385" stop-color="#112552"/>
</linearGradient>
<linearGradient id="paint34_linear" x1="43.1158" y1="135.58" x2="211.413" y2="135.58" gradientUnits="userSpaceOnUse">
<stop stop-color="#214B9E"/>
<stop offset="0.2233" stop-color="#4C00AA"/>
<stop offset="0.7961" stop-color="#4FFFFF"/>
<stop offset="1" stop-color="#D89D82"/>
</linearGradient>
<linearGradient id="paint35_linear" x1="43.1177" y1="134.44" x2="211.415" y2="134.44" gradientUnits="userSpaceOnUse">
<stop stop-color="#214B9E"/>
<stop offset="0.2282" stop-color="#5300BF"/>
<stop offset="0.7621" stop-color="#FBB63F"/>
<stop offset="1" stop-color="#5F5186"/>
</linearGradient>
<linearGradient id="paint36_linear" x1="22.3494" y1="123.121" x2="267.412" y2="123.121" gradientUnits="userSpaceOnUse">
<stop stop-color="#112552"/>
<stop offset="0.1421" stop-color="#224A9E"/>
<stop offset="0.4044" stop-color="#4902A6"/>
<stop offset="0.4405" stop-color="#613FAA"/>
<stop offset="0.5385" stop-color="#112552"/>
</linearGradient>
<linearGradient id="paint37_linear" x1="43.1158" y1="98.4494" x2="211.413" y2="98.4494" gradientUnits="userSpaceOnUse">
<stop stop-color="#214B9E"/>
<stop offset="0.2233" stop-color="#4C00AA"/>
<stop offset="0.7961" stop-color="#AE45AA"/>
<stop offset="1" stop-color="#D89D82"/>
</linearGradient>
<linearGradient id="paint38_linear" x1="-33.812" y1="98.537" x2="37.1202" y2="233.283" gradientUnits="userSpaceOnUse">
<stop stop-color="#7D15A1"/>
<stop offset="1" stop-color="#B675A8"/>
</linearGradient>
<linearGradient id="paint39_linear" x1="49.4047" y1="97.8625" x2="56.6651" y2="97.8625" gradientUnits="userSpaceOnUse">
<stop stop-color="#112552"/>
<stop offset="0.1421" stop-color="#224A9E"/>
<stop offset="0.4044" stop-color="#4902A6"/>
<stop offset="0.4405" stop-color="#613FAA"/>
<stop offset="0.5385" stop-color="#112552"/>
</linearGradient>
<linearGradient id="paint40_linear" x1="49.4047" y1="97.5166" x2="56.6651" y2="97.5166" gradientUnits="userSpaceOnUse">
<stop stop-color="#112552"/>
<stop offset="0.1421" stop-color="#224A9E"/>
<stop offset="0.4044" stop-color="#4902A6"/>
<stop offset="0.4405" stop-color="#613FAA"/>
<stop offset="0.5385" stop-color="#112552"/>
</linearGradient>
<linearGradient id="paint41_linear" x1="49.4047" y1="96.1333" x2="56.6651" y2="96.1333" gradientUnits="userSpaceOnUse">
<stop stop-color="#214B9E"/>
<stop offset="0.2233" stop-color="#4C00AA"/>
<stop offset="0.7961" stop-color="#AE45AA"/>
<stop offset="1" stop-color="#D89D82"/>
</linearGradient>
<linearGradient id="paint42_linear" x1="197.327" y1="97.8625" x2="204.587" y2="97.8625" gradientUnits="userSpaceOnUse">
<stop stop-color="#112552"/>
<stop offset="0.1421" stop-color="#224A9E"/>
<stop offset="0.4044" stop-color="#4902A6"/>
<stop offset="0.4405" stop-color="#613FAA"/>
<stop offset="0.5385" stop-color="#112552"/>
</linearGradient>
<linearGradient id="paint43_linear" x1="197.327" y1="97.5166" x2="204.587" y2="97.5166" gradientUnits="userSpaceOnUse">
<stop stop-color="#112552"/>
<stop offset="0.1421" stop-color="#224A9E"/>
<stop offset="0.4044" stop-color="#4902A6"/>
<stop offset="0.4405" stop-color="#613FAA"/>
<stop offset="0.5385" stop-color="#112552"/>
</linearGradient>
<linearGradient id="paint44_linear" x1="197.327" y1="96.1333" x2="204.587" y2="96.1333" gradientUnits="userSpaceOnUse">
<stop stop-color="#214B9E"/>
<stop offset="0.2233" stop-color="#4C00AA"/>
<stop offset="0.7961" stop-color="#AE45AA"/>
<stop offset="1" stop-color="#D89D82"/>
</linearGradient>
<linearGradient id="paint45_linear" x1="124.01" y1="136.444" x2="131.27" y2="136.444" gradientUnits="userSpaceOnUse">
<stop stop-color="#112552"/>
<stop offset="0.1421" stop-color="#224A9E"/>
<stop offset="0.4044" stop-color="#4902A6"/>
<stop offset="0.4405" stop-color="#613FAA"/>
<stop offset="0.5385" stop-color="#112552"/>
</linearGradient>
<linearGradient id="paint46_linear" x1="124.01" y1="136.098" x2="131.27" y2="136.098" gradientUnits="userSpaceOnUse">
<stop stop-color="#112552"/>
<stop offset="0.1421" stop-color="#224A9E"/>
<stop offset="0.4044" stop-color="#4902A6"/>
<stop offset="0.4405" stop-color="#613FAA"/>
<stop offset="0.5385" stop-color="#112552"/>
</linearGradient>
<linearGradient id="paint47_linear" x1="124.01" y1="134.716" x2="131.27" y2="134.716" gradientUnits="userSpaceOnUse">
<stop stop-color="#214B9E"/>
<stop offset="0.2233" stop-color="#4C00AA"/>
<stop offset="0.7961" stop-color="#AE45AA"/>
<stop offset="1" stop-color="#D89D82"/>
</linearGradient>
<linearGradient id="paint48_linear" x1="124.01" y1="58.9209" x2="131.27" y2="58.9209" gradientUnits="userSpaceOnUse">
<stop stop-color="#112552"/>
<stop offset="0.1421" stop-color="#224A9E"/>
<stop offset="0.4044" stop-color="#4902A6"/>
<stop offset="0.4405" stop-color="#613FAA"/>
<stop offset="0.5385" stop-color="#112552"/>
</linearGradient>
<linearGradient id="paint49_linear" x1="124.01" y1="58.5769" x2="131.27" y2="58.5769" gradientUnits="userSpaceOnUse">
<stop stop-color="#112552"/>
<stop offset="0.1421" stop-color="#224A9E"/>
<stop offset="0.4044" stop-color="#4902A6"/>
<stop offset="0.4405" stop-color="#613FAA"/>
<stop offset="0.5385" stop-color="#112552"/>
</linearGradient>
<linearGradient id="paint50_linear" x1="124.01" y1="57.1924" x2="131.27" y2="57.1924" gradientUnits="userSpaceOnUse">
<stop stop-color="#214B9E"/>
<stop offset="0.2233" stop-color="#4C00AA"/>
<stop offset="0.7961" stop-color="#AE45AA"/>
<stop offset="1" stop-color="#D89D82"/>
</linearGradient>
<linearGradient id="paint51_linear" x1="230.984" y1="234.23" x2="437.827" y2="234.23" gradientUnits="userSpaceOnUse">
<stop stop-color="#112552"/>
<stop offset="0.1421" stop-color="#224A9E"/>
<stop offset="0.4044" stop-color="#4902A6"/>
<stop offset="0.4405" stop-color="#613FAA"/>
<stop offset="0.5385" stop-color="#543485"/>
</linearGradient>
<linearGradient id="paint52_linear" x1="237.648" y1="209.558" x2="405.944" y2="209.558" gradientUnits="userSpaceOnUse">
<stop stop-color="#214B9E"/>
<stop offset="0.2282" stop-color="#5300BF"/>
<stop offset="0.7621" stop-color="#4FFFFF"/>
<stop offset="1" stop-color="#5F5186"/>
</linearGradient>
<linearGradient id="paint53_linear" x1="237.648" y1="208.417" x2="405.944" y2="208.417" gradientUnits="userSpaceOnUse">
<stop stop-color="#214B9E"/>
<stop offset="0.2282" stop-color="#5300BF"/>
<stop offset="0.7621" stop-color="#FBB63F"/>
<stop offset="1" stop-color="#5F5186"/>
</linearGradient>
<linearGradient id="paint54_linear" x1="230.984" y1="197.03" x2="437.827" y2="197.03" gradientUnits="userSpaceOnUse">
<stop stop-color="#112552"/>
<stop offset="0.1421" stop-color="#224A9E"/>
<stop offset="0.4044" stop-color="#4902A6"/>
<stop offset="0.4405" stop-color="#613FAA"/>
<stop offset="0.6214" stop-color="#875A79"/>
<stop offset="0.8544" stop-color="#673B84"/>
</linearGradient>
<linearGradient id="paint55_linear" x1="237.648" y1="172.359" x2="405.944" y2="172.359" gradientUnits="userSpaceOnUse">
<stop stop-color="#214B9E"/>
<stop offset="0.2233" stop-color="#4C00AA"/>
<stop offset="0.7961" stop-color="#4FFFFF"/>
<stop offset="1" stop-color="#D89D82"/>
</linearGradient>
<linearGradient id="paint56_linear" x1="237.648" y1="171.219" x2="405.944" y2="171.219" gradientUnits="userSpaceOnUse">
<stop stop-color="#214B9E"/>
<stop offset="0.2282" stop-color="#5300BF"/>
<stop offset="0.7621" stop-color="#FBB63F"/>
<stop offset="1" stop-color="#5F5186"/>
</linearGradient>
<linearGradient id="paint57_linear" x1="230.984" y1="160.03" x2="437.827" y2="160.03" gradientUnits="userSpaceOnUse">
<stop stop-color="#112552"/>
<stop offset="0.1421" stop-color="#224A9E"/>
<stop offset="0.4044" stop-color="#4902A6"/>
<stop offset="0.4405" stop-color="#613FAA"/>
<stop offset="0.6214" stop-color="#875A79"/>
<stop offset="0.8544" stop-color="#673B84"/>
</linearGradient>
<linearGradient id="paint58_linear" x1="237.648" y1="135.359" x2="405.944" y2="135.359" gradientUnits="userSpaceOnUse">
<stop stop-color="#214B9E"/>
<stop offset="0.2233" stop-color="#4C00AA"/>
<stop offset="0.7961" stop-color="#4FFFFF"/>
<stop offset="1" stop-color="#D89D82"/>
</linearGradient>
<linearGradient id="paint59_linear" x1="237.648" y1="134.218" x2="405.944" y2="134.218" gradientUnits="userSpaceOnUse">
<stop stop-color="#214B9E"/>
<stop offset="0.2282" stop-color="#5300BF"/>
<stop offset="0.7621" stop-color="#FBB63F"/>
<stop offset="1" stop-color="#5F5186"/>
</linearGradient>
<linearGradient id="paint60_linear" x1="216.881" y1="122.899" x2="461.943" y2="122.899" gradientUnits="userSpaceOnUse">
<stop stop-color="#112552"/>
<stop offset="0.049851" stop-color="#224A9E"/>
<stop offset="0.1456" stop-color="#112552"/>
<stop offset="0.3252" stop-color="#112552"/>
<stop offset="0.4044" stop-color="#4902A6"/>
<stop offset="0.4405" stop-color="#613FAA"/>
<stop offset="0.6214" stop-color="#875A79"/>
<stop offset="0.8544" stop-color="#673B84"/>
</linearGradient>
<linearGradient id="paint61_linear" x1="237.648" y1="98.228" x2="405.944" y2="98.228" gradientUnits="userSpaceOnUse">
<stop stop-color="#214B9E"/>
<stop offset="0.2233" stop-color="#4C00AA"/>
<stop offset="0.7961" stop-color="#AE45AA"/>
<stop offset="1" stop-color="#D89D82"/>
</linearGradient>
<linearGradient id="paint62_linear" x1="160.756" y1="98.328" x2="231.689" y2="233.074" gradientUnits="userSpaceOnUse">
<stop stop-color="#7D15A1"/>
<stop offset="1" stop-color="#B675A8"/>
</linearGradient>
<linearGradient id="paint63_linear" x1="243.937" y1="97.6411" x2="251.197" y2="97.6411" gradientUnits="userSpaceOnUse">
<stop stop-color="#112552"/>
<stop offset="0.1421" stop-color="#224A9E"/>
<stop offset="0.4044" stop-color="#4902A6"/>
<stop offset="0.4405" stop-color="#613FAA"/>
<stop offset="0.5385" stop-color="#112552"/>
</linearGradient>
<linearGradient id="paint64_linear" x1="243.937" y1="97.2951" x2="251.197" y2="97.2951" gradientUnits="userSpaceOnUse">
<stop stop-color="#112552"/>
<stop offset="0.1421" stop-color="#224A9E"/>
<stop offset="0.4044" stop-color="#4902A6"/>
<stop offset="0.4405" stop-color="#613FAA"/>
<stop offset="0.5385" stop-color="#112552"/>
</linearGradient>
<linearGradient id="paint65_linear" x1="243.937" y1="95.9118" x2="251.197" y2="95.9118" gradientUnits="userSpaceOnUse">
<stop stop-color="#214B9E"/>
<stop offset="0.2233" stop-color="#4C00AA"/>
<stop offset="0.7961" stop-color="#AE45AA"/>
<stop offset="1" stop-color="#D89D82"/>
</linearGradient>
<linearGradient id="paint66_linear" x1="391.857" y1="97.6411" x2="399.117" y2="97.6411" gradientUnits="userSpaceOnUse">
<stop stop-color="#112552"/>
<stop offset="0.1421" stop-color="#224A9E"/>
<stop offset="0.4044" stop-color="#4902A6"/>
<stop offset="0.4405" stop-color="#613FAA"/>
<stop offset="0.5385" stop-color="#112552"/>
</linearGradient>
<linearGradient id="paint67_linear" x1="391.857" y1="97.2951" x2="399.117" y2="97.2951" gradientUnits="userSpaceOnUse">
<stop stop-color="#112552"/>
<stop offset="0.1421" stop-color="#224A9E"/>
<stop offset="0.4044" stop-color="#4902A6"/>
<stop offset="0.4405" stop-color="#613FAA"/>
<stop offset="0.5385" stop-color="#112552"/>
</linearGradient>
<linearGradient id="paint68_linear" x1="391.857" y1="95.9118" x2="399.117" y2="95.9118" gradientUnits="userSpaceOnUse">
<stop stop-color="#214B9E"/>
<stop offset="0.2233" stop-color="#4C00AA"/>
<stop offset="0.7961" stop-color="#AE45AA"/>
<stop offset="1" stop-color="#D89D82"/>
</linearGradient>
<linearGradient id="paint69_linear" x1="318.54" y1="136.225" x2="325.8" y2="136.225" gradientUnits="userSpaceOnUse">
<stop stop-color="#112552"/>
<stop offset="0.1421" stop-color="#224A9E"/>
<stop offset="0.4044" stop-color="#4902A6"/>
<stop offset="0.4405" stop-color="#613FAA"/>
<stop offset="0.5385" stop-color="#112552"/>
</linearGradient>
<linearGradient id="paint70_linear" x1="318.54" y1="135.879" x2="325.8" y2="135.879" gradientUnits="userSpaceOnUse">
<stop stop-color="#112552"/>
<stop offset="0.1421" stop-color="#224A9E"/>
<stop offset="0.4044" stop-color="#4902A6"/>
<stop offset="0.4405" stop-color="#613FAA"/>
<stop offset="0.5385" stop-color="#112552"/>
</linearGradient>
<linearGradient id="paint71_linear" x1="318.54" y1="134.495" x2="325.8" y2="134.495" gradientUnits="userSpaceOnUse">
<stop stop-color="#214B9E"/>
<stop offset="0.2233" stop-color="#4C00AA"/>
<stop offset="0.7961" stop-color="#AE45AA"/>
<stop offset="1" stop-color="#D89D82"/>
</linearGradient>
<linearGradient id="paint72_linear" x1="318.54" y1="58.6995" x2="325.8" y2="58.6995" gradientUnits="userSpaceOnUse">
<stop stop-color="#112552"/>
<stop offset="0.1421" stop-color="#224A9E"/>
<stop offset="0.4044" stop-color="#4902A6"/>
<stop offset="0.4405" stop-color="#613FAA"/>
<stop offset="0.5385" stop-color="#112552"/>
</linearGradient>
<linearGradient id="paint73_linear" x1="318.54" y1="58.3536" x2="325.8" y2="58.3536" gradientUnits="userSpaceOnUse">
<stop stop-color="#112552"/>
<stop offset="0.1421" stop-color="#224A9E"/>
<stop offset="0.4044" stop-color="#4902A6"/>
<stop offset="0.4405" stop-color="#613FAA"/>
<stop offset="0.5385" stop-color="#112552"/>
</linearGradient>
<linearGradient id="paint74_linear" x1="318.54" y1="56.9709" x2="325.8" y2="56.9709" gradientUnits="userSpaceOnUse">
<stop stop-color="#214B9E"/>
<stop offset="0.2233" stop-color="#4C00AA"/>
<stop offset="0.7961" stop-color="#AE45AA"/>
<stop offset="1" stop-color="#D89D82"/>
</linearGradient>
<linearGradient id="paint75_linear" x1="133.62" y1="288.278" x2="340.463" y2="288.278" gradientUnits="userSpaceOnUse">
<stop stop-color="#112552"/>
<stop offset="0.1421" stop-color="#224A9E"/>
<stop offset="0.4044" stop-color="#4902A6"/>
<stop offset="0.4405" stop-color="#613FAA"/>
<stop offset="0.5385" stop-color="#543485"/>
</linearGradient>
<linearGradient id="paint76_linear" x1="140.284" y1="263.606" x2="308.58" y2="263.606" gradientUnits="userSpaceOnUse">
<stop stop-color="#214B9E"/>
<stop offset="0.2282" stop-color="#5300BF"/>
<stop offset="0.7621" stop-color="#4FFFFF"/>
<stop offset="1" stop-color="#5F5186"/>
</linearGradient>
<linearGradient id="paint77_linear" x1="140.284" y1="262.466" x2="308.58" y2="262.466" gradientUnits="userSpaceOnUse">
<stop stop-color="#214B9E"/>
<stop offset="0.2282" stop-color="#5300BF"/>
<stop offset="0.7621" stop-color="#FBB63F"/>
<stop offset="1" stop-color="#5F5186"/>
</linearGradient>
<linearGradient id="paint78_linear" x1="133.62" y1="251.079" x2="340.463" y2="251.079" gradientUnits="userSpaceOnUse">
<stop stop-color="#112552"/>
<stop offset="0.1421" stop-color="#224A9E"/>
<stop offset="0.4044" stop-color="#4902A6"/>
<stop offset="0.4405" stop-color="#613FAA"/>
<stop offset="0.6214" stop-color="#875A79"/>
<stop offset="0.8544" stop-color="#673B84"/>
</linearGradient>
<linearGradient id="paint79_linear" x1="140.284" y1="226.407" x2="308.58" y2="226.407" gradientUnits="userSpaceOnUse">
<stop stop-color="#214B9E"/>
<stop offset="0.2233" stop-color="#4C00AA"/>
<stop offset="0.7961" stop-color="#4FFFFF"/>
<stop offset="1" stop-color="#D89D82"/>
</linearGradient>
<linearGradient id="paint80_linear" x1="140.284" y1="225.267" x2="308.58" y2="225.267" gradientUnits="userSpaceOnUse">
<stop stop-color="#214B9E"/>
<stop offset="0.2282" stop-color="#5300BF"/>
<stop offset="0.7621" stop-color="#FBB63F"/>
<stop offset="1" stop-color="#5F5186"/>
</linearGradient>
<linearGradient id="paint81_linear" x1="133.62" y1="214.078" x2="340.463" y2="214.078" gradientUnits="userSpaceOnUse">
<stop stop-color="#112552"/>
<stop offset="0.1421" stop-color="#224A9E"/>
<stop offset="0.4044" stop-color="#4902A6"/>
<stop offset="0.4405" stop-color="#613FAA"/>
<stop offset="0.6214" stop-color="#875A79"/>
<stop offset="0.8544" stop-color="#673B84"/>
</linearGradient>
<linearGradient id="paint82_linear" x1="140.284" y1="189.407" x2="308.58" y2="189.407" gradientUnits="userSpaceOnUse">
<stop stop-color="#214B9E"/>
<stop offset="0.2233" stop-color="#4C00AA"/>
<stop offset="0.7961" stop-color="#4FFFFF"/>
<stop offset="1" stop-color="#D89D82"/>
</linearGradient>
<linearGradient id="paint83_linear" x1="140.284" y1="188.266" x2="308.58" y2="188.266" gradientUnits="userSpaceOnUse">
<stop stop-color="#214B9E"/>
<stop offset="0.2282" stop-color="#5300BF"/>
<stop offset="0.7621" stop-color="#FBB63F"/>
<stop offset="1" stop-color="#5F5186"/>
</linearGradient>
<linearGradient id="paint84_linear" x1="119.517" y1="176.947" x2="364.579" y2="176.947" gradientUnits="userSpaceOnUse">
<stop stop-color="#112552"/>
<stop offset="0.1421" stop-color="#224A9E"/>
<stop offset="0.4044" stop-color="#4902A6"/>
<stop offset="0.4405" stop-color="#613FAA"/>
<stop offset="0.6214" stop-color="#875A79"/>
<stop offset="0.8544" stop-color="#673B84"/>
</linearGradient>
<linearGradient id="paint85_linear" x1="140.284" y1="152.276" x2="308.58" y2="152.276" gradientUnits="userSpaceOnUse">
<stop stop-color="#214B9E"/>
<stop offset="0.2233" stop-color="#4C00AA"/>
<stop offset="0.7961" stop-color="#AE45AA"/>
<stop offset="1" stop-color="#D89D82"/>
</linearGradient>
<linearGradient id="paint86_linear" x1="63.4166" y1="152.402" x2="134.349" y2="287.149" gradientUnits="userSpaceOnUse">
<stop stop-color="#7D15A1"/>
<stop offset="1" stop-color="#B675A8"/>
</linearGradient>
<linearGradient id="paint87_linear" x1="146.573" y1="151.689" x2="153.833" y2="151.689" gradientUnits="userSpaceOnUse">
<stop stop-color="#112552"/>
<stop offset="0.1421" stop-color="#224A9E"/>
<stop offset="0.4044" stop-color="#4902A6"/>
<stop offset="0.4405" stop-color="#613FAA"/>
<stop offset="0.5385" stop-color="#112552"/>
</linearGradient>
<linearGradient id="paint88_linear" x1="146.573" y1="151.345" x2="153.833" y2="151.345" gradientUnits="userSpaceOnUse">
<stop stop-color="#112552"/>
<stop offset="0.1421" stop-color="#224A9E"/>
<stop offset="0.4044" stop-color="#4902A6"/>
<stop offset="0.4405" stop-color="#613FAA"/>
<stop offset="0.5385" stop-color="#112552"/>
</linearGradient>
<linearGradient id="paint89_linear" x1="146.575" y1="149.96" x2="153.835" y2="149.96" gradientUnits="userSpaceOnUse">
<stop stop-color="#214B9E"/>
<stop offset="0.2233" stop-color="#4C00AA"/>
<stop offset="0.7961" stop-color="#AE45AA"/>
<stop offset="1" stop-color="#D89D82"/>
</linearGradient>
<linearGradient id="paint90_linear" x1="294.493" y1="151.689" x2="301.753" y2="151.689" gradientUnits="userSpaceOnUse">
<stop stop-color="#112552"/>
<stop offset="0.1421" stop-color="#224A9E"/>
<stop offset="0.4044" stop-color="#4902A6"/>
<stop offset="0.4405" stop-color="#613FAA"/>
<stop offset="0.5385" stop-color="#112552"/>
</linearGradient>
<linearGradient id="paint91_linear" x1="294.493" y1="151.345" x2="301.753" y2="151.345" gradientUnits="userSpaceOnUse">
<stop stop-color="#112552"/>
<stop offset="0.1421" stop-color="#224A9E"/>
<stop offset="0.4044" stop-color="#4902A6"/>
<stop offset="0.4405" stop-color="#613FAA"/>
<stop offset="0.5385" stop-color="#112552"/>
</linearGradient>
<linearGradient id="paint92_linear" x1="294.493" y1="149.96" x2="301.753" y2="149.96" gradientUnits="userSpaceOnUse">
<stop stop-color="#214B9E"/>
<stop offset="0.2233" stop-color="#4C00AA"/>
<stop offset="0.7961" stop-color="#AE45AA"/>
<stop offset="1" stop-color="#D89D82"/>
</linearGradient>
<linearGradient id="paint93_linear" x1="221.178" y1="190.271" x2="228.438" y2="190.271" gradientUnits="userSpaceOnUse">
<stop stop-color="#112552"/>
<stop offset="0.1421" stop-color="#224A9E"/>
<stop offset="0.4044" stop-color="#4902A6"/>
<stop offset="0.4405" stop-color="#613FAA"/>
<stop offset="0.5385" stop-color="#112552"/>
</linearGradient>
<linearGradient id="paint94_linear" x1="221.178" y1="189.924" x2="228.438" y2="189.924" gradientUnits="userSpaceOnUse">
<stop stop-color="#112552"/>
<stop offset="0.1421" stop-color="#224A9E"/>
<stop offset="0.4044" stop-color="#4902A6"/>
<stop offset="0.4405" stop-color="#613FAA"/>
<stop offset="0.5385" stop-color="#112552"/>
</linearGradient>
<linearGradient id="paint95_linear" x1="221.178" y1="188.542" x2="228.438" y2="188.542" gradientUnits="userSpaceOnUse">
<stop stop-color="#214B9E"/>
<stop offset="0.2233" stop-color="#4C00AA"/>
<stop offset="0.7961" stop-color="#AE45AA"/>
<stop offset="1" stop-color="#D89D82"/>
</linearGradient>
<linearGradient id="paint96_linear" x1="221.178" y1="112.748" x2="228.438" y2="112.748" gradientUnits="userSpaceOnUse">
<stop stop-color="#112552"/>
<stop offset="0.1421" stop-color="#224A9E"/>
<stop offset="0.4044" stop-color="#4902A6"/>
<stop offset="0.4405" stop-color="#613FAA"/>
<stop offset="0.5385" stop-color="#112552"/>
</linearGradient>
<linearGradient id="paint97_linear" x1="221.178" y1="112.404" x2="228.438" y2="112.404" gradientUnits="userSpaceOnUse">
<stop stop-color="#112552"/>
<stop offset="0.1421" stop-color="#224A9E"/>
<stop offset="0.4044" stop-color="#4902A6"/>
<stop offset="0.4405" stop-color="#613FAA"/>
<stop offset="0.5385" stop-color="#112552"/>
</linearGradient>
<linearGradient id="paint98_linear" x1="221.178" y1="111.018" x2="228.438" y2="111.018" gradientUnits="userSpaceOnUse">
<stop stop-color="#214B9E"/>
<stop offset="0.2233" stop-color="#4C00AA"/>
<stop offset="0.7961" stop-color="#AE45AA"/>
<stop offset="1" stop-color="#D89D82"/>
</linearGradient>
</defs>
</svg>
