<svg width="1140" height="350" viewBox="0 0 1140 350" fill="none" xmlns="http://www.w3.org/2000/svg">
<g opacity="0.2">
<path opacity="0.2" fill-rule="evenodd" clip-rule="evenodd" d="M569.667 771.842C884.654 771.842 1140 509.776 1140 186.5C1140 -136.775 884.654 -398.842 569.667 -398.842C254.681 -398.842 -0.666016 -136.775 -0.666016 186.5C-0.666016 509.776 254.681 771.842 569.667 771.842Z" fill="white" fill-opacity="0.51"/>
<path opacity="0.4" fill-rule="evenodd" clip-rule="evenodd" d="M569.666 613.512C799.451 613.512 985.729 422.332 985.729 186.5C985.729 -49.332 799.451 -240.512 569.666 -240.512C339.881 -240.512 153.604 -49.332 153.604 186.5C153.604 422.332 339.881 613.512 569.666 613.512Z" fill="white" fill-opacity="0.39"/>
<path fill-rule="evenodd" clip-rule="evenodd" d="M569.667 435.99C703.924 435.99 812.76 324.289 812.76 186.5C812.76 48.7103 703.924 -62.9902 569.667 -62.9902C435.411 -62.9902 326.574 48.7103 326.574 186.5C326.574 324.289 435.411 435.99 569.667 435.99Z" fill="white" fill-opacity="0.49"/>
</g>
</svg>
