<svg width="1180" height="560" viewBox="0 0 1180 560" fill="none" xmlns="http://www.w3.org/2000/svg">
<mask id="mask0" mask-type="alpha" maskUnits="userSpaceOnUse" x="20" y="13" width="1140" height="520">
<rect x="20" y="13" width="1140" height="520" rx="30" fill="url(#paint0_linear)"/>
</mask>
<g mask="url(#mask0)">
<g style="mix-blend-mode:soft-light" opacity="0.2">
<path fill-rule="evenodd" clip-rule="evenodd" d="M-450.993 479.71L-450.984 479.705L-450.993 479.71ZM-263.052 610.116C-231.875 592.116 -200.65 586.17 -168.284 591.95C-35.5816 615.19 129.576 644.112 185.222 396.168C205.677 305.667 251.35 262.888 299.705 217.599C342.011 177.973 385.759 136.999 412.592 60.8092C454.875 -57.5525 419.772 -170.551 327.227 -213.99C267.144 -243.534 210.087 -245.709 157.624 -220.452C84.8686 -185.423 26.9105 -98.5083 2.59825 12.0438C-8.87988 66.1379 -28.4119 115.08 -57.1045 161.665C-82.5242 202.93 -114.499 241.214 -154.856 278.703C-229.484 348.031 -319.846 402.206 -407.232 454.596C-421.468 463.131 -436.186 471.953 -450.442 480.613L-450.447 480.616C-560.379 546.841 -574.744 630.509 -573.522 674.486C-571.987 729.723 -544.416 782.322 -506.472 802.394C-486.743 812.832 -466.533 812.59 -449.567 801.728C-427.817 788.239 -405.526 759.813 -379.715 726.9C-353.275 693.179 -323.306 654.959 -288.786 627.709C-280.198 620.93 -271.625 615.065 -263.052 610.116ZM74.2748 581.791C63.5359 587.994 52.1202 593.086 39.9978 597.095C-26.1916 618.981 -105.183 605.149 -168.653 594.034C-260.041 577.712 -325.473 661.157 -378.05 728.204C-403.986 761.277 -426.382 789.839 -448.44 803.519C-466.072 814.821 -487.028 815.075 -507.462 804.264C-546.046 783.852 -574.082 730.509 -575.637 674.544C-576.872 630.107 -562.391 545.584 -451.536 478.805L-451.54 478.808C-437.279 470.141 -422.558 461.318 -408.321 452.782C-230.758 346.327 -47.145 236.247 0.531939 11.5982C12.0236 -40.6655 31.7745 -89.4912 57.6433 -129.604C85.2197 -172.362 119.475 -204.438 156.708 -222.357C182.041 -234.554 208.933 -240.442 236.632 -239.861C266.283 -239.24 297.072 -231.175 328.144 -215.898C371.458 -195.566 404.388 -158.109 420.849 -110.443C438.588 -59.07 436.423 0.393221 414.585 61.518C387.582 138.192 343.645 179.346 301.152 219.143C253.042 264.203 207.599 306.768 187.286 396.634C166.568 488.952 129.426 549.944 74.2748 581.791Z" fill="#2C2A41"/>
<path fill-rule="evenodd" clip-rule="evenodd" d="M-438.71 477.788L-438.701 477.783L-438.71 477.788ZM-250.957 598.357C-220.97 581.044 -190.913 575.261 -159.749 580.695L-154.391 581.594C-86.4887 592.985 -16.2752 604.759 45.506 584.79C116.068 561.983 161.939 500.237 185.733 396.03C206.269 307.356 250.62 263.999 297.575 218.091C338.178 178.397 380.165 137.349 407.552 63.8966C458.261 -68.5472 405.634 -171.327 327.444 -204.41C270.761 -230.885 217.023 -232.317 167.683 -208.681C97.0356 -174.831 38.5695 -88.2398 11.3098 22.9678C-9.96061 115.585 -58.3741 196.328 -136.691 269.802C-205.893 334.726 -289.429 386.319 -370.212 436.215C-392.707 450.108 -415.964 464.474 -438.14 478.677C-438.14 478.677 -438.143 478.679 -438.147 478.681C-544.157 545.489 -556.401 626.377 -554.26 668.645C-551.655 720.167 -524.584 768.701 -488.43 786.67C-468.434 796.608 -448 795.671 -430.901 784.028C-410.051 770.687 -388.744 743.422 -364.07 711.849C-338.533 679.175 -309.59 642.139 -276.244 615.692C-267.806 608.996 -259.383 603.221 -250.957 598.357ZM80.0962 571.795C69.481 577.924 58.1785 582.918 46.1584 586.801C-16.1178 606.931 -89.7619 594.579 -154.741 583.681L-160.105 582.783C-248.475 567.369 -311.645 648.203 -362.402 713.154C-387.196 744.878 -408.605 772.275 -429.736 785.793C-447.464 797.869 -468.66 798.858 -489.371 788.564C-506.683 779.96 -522.819 763.836 -534.808 743.158C-547.569 721.145 -555.024 695.415 -556.375 668.753C-558.538 626.021 -546.196 544.275 -439.274 476.892C-417.092 462.682 -393.824 448.31 -371.325 434.414C-207.498 333.227 -38.0907 228.596 9.2528 22.4781C22.1085 -29.974 42.4882 -78.6221 68.186 -118.221C96.3964 -161.693 129.558 -192.778 166.769 -210.588C216.707 -234.513 271.056 -233.083 328.303 -206.343C371.134 -188.223 403.379 -152.089 419.064 -104.615C435.811 -53.9167 432.516 4.6119 409.531 64.6422C381.982 138.533 339.823 179.748 299.054 219.605C252.326 265.288 208.191 308.438 187.796 396.505C167.861 483.804 132.465 541.557 80.0962 571.795Z" fill="#362942"/>
<path fill-rule="evenodd" clip-rule="evenodd" d="M-429.689 474.911L-429.68 474.906L-429.689 474.911ZM-242.124 585.643C-213.325 569.016 -184.441 563.399 -154.478 568.489C-149.693 569.251 -144.863 570.033 -140.006 570.818C-12.5794 591.449 131.848 614.832 182.982 394.941C203.632 307.986 246.718 263.977 292.336 217.384C331.197 177.69 371.381 136.642 399.25 66.0273C426.061 0.578562 428.279 -64.2399 405.499 -116.508C389.104 -154.123 360.302 -182.279 324.399 -195.784C271.097 -219.29 220.651 -220.009 174.411 -197.954C105.101 -164.89 47.6353 -80.7325 16.7598 32.9338C-4.37049 118.023 -50.0899 192.758 -123.002 261.384C-187.486 322.078 -265.056 371.005 -340.073 418.319C-369.749 437.037 -400.435 456.393 -429.095 475.787C-429.1 475.789 -429.102 475.79 -429.106 475.793C-531.062 543.138 -541.243 621.109 -538.238 661.591C-534.626 710.22 -508.727 753.814 -473.787 770.07C-453.472 779.521 -432.77 777.859 -415.495 765.371C-395.552 752.191 -375.228 726.088 -351.694 695.862C-327.063 664.23 -299.146 628.373 -266.968 602.723C-258.682 596.118 -250.405 590.424 -242.124 585.643ZM82.6634 560.934C72.6838 566.696 62.065 571.406 50.7812 575.086C-8.15921 594.307 -75.3594 583.428 -140.345 572.908C-145.198 572.121 -150.026 571.34 -154.822 570.576C-240.171 556.074 -301.08 634.303 -350.023 697.162C-373.673 727.536 -394.096 753.765 -414.292 767.111C-432.176 780.038 -453.636 781.778 -474.679 771.988C-510.29 755.418 -536.68 711.117 -540.348 661.749C-542.707 629.953 -535.56 597.317 -519.676 567.371C-501.1 532.348 -471.026 500.948 -430.282 474.035C-401.591 454.62 -370.891 435.256 -341.2 416.53C-189.336 320.741 -32.2991 221.694 14.7119 32.4036C29.0408 -20.3467 50.055 -68.8322 75.4849 -107.832C103.92 -151.437 136.905 -182.402 173.502 -199.864C220.322 -222.199 271.361 -221.485 325.2 -197.743C361.586 -184.055 390.81 -155.497 407.438 -117.352C430.452 -64.5563 428.239 0.846952 401.215 66.8152C373.191 137.818 332.856 179.018 293.848 218.864C248.441 265.241 205.554 309.048 185.041 395.424C165.892 477.78 132.244 532.305 82.6634 560.934Z" fill="#412943"/>
<path fill-rule="evenodd" clip-rule="evenodd" d="M-417.159 473.063L-417.15 473.058L-417.159 473.063ZM-229.662 573.993C-204.633 559.542 -176.871 552.164 -145.698 557.31C-138.134 558.449 -130.317 559.684 -122.757 560.878C-61.1102 570.611 2.63382 580.677 57.9088 562.599C120.695 542.066 161.856 487.201 183.742 394.877C204.548 309.508 246.446 264.752 290.802 217.37C327.869 177.777 366.197 136.836 394.459 69.186C422.801 4.44363 425.928 -62.0452 403.045 -113.246C387.109 -148.911 359.346 -174.797 324.869 -186.13C274.914 -206.775 227.736 -206.821 184.569 -186.291C93.3554 -142.911 45.895 -23.4277 25.7168 43.9338C4.72722 122.15 -38.6265 191.298 -106.812 255.299C-167.157 311.941 -239.487 358.164 -309.433 402.863C-347.078 426.921 -382.633 449.644 -416.542 473.923C-416.545 473.928 -416.549 473.93 -416.553 473.933C-514.321 541.759 -522.512 616.683 -518.691 655.308C-514.239 700.304 -488.957 740.206 -455.777 754.6C-435.092 763.574 -414.068 761.138 -396.577 747.749C-377.547 734.737 -357.277 708.597 -335.818 680.922C-306.055 642.542 -271.724 598.277 -229.662 573.993ZM88.9682 551.031C27.1906 586.704 -50.8095 574.381 -123.089 562.966C-130.644 561.775 -138.456 560.539 -146.027 559.398C-228.363 545.811 -287.018 621.444 -334.145 682.221C-356.645 711.235 -376.078 736.296 -395.337 749.461C-413.418 763.307 -435.198 765.835 -456.62 756.541C-490.481 741.85 -516.273 701.252 -520.795 655.516C-523.793 625.211 -517.541 593.738 -502.707 564.503C-485.371 530.331 -456.795 499.275 -417.773 472.201C-383.821 447.891 -348.241 425.154 -310.575 401.082C-169.193 310.728 -22.9965 217.303 23.6825 43.3567C39.6161 -9.84371 61.2677 -58.177 86.3023 -96.4491C114.943 -140.229 147.701 -171.091 183.661 -188.203C227.39 -208.999 275.143 -208.969 325.604 -188.113C360.58 -176.618 388.793 -150.326 404.977 -114.111C428.101 -62.3657 424.978 4.74652 396.406 70.0185C368 138.001 329.541 179.085 292.346 218.816C248.185 265.989 206.471 310.547 185.799 395.372C165.743 479.973 131.131 526.683 88.9682 551.031Z" fill="#4B2844"/>
<path fill-rule="evenodd" clip-rule="evenodd" d="M-406.492 472.452L-406.483 472.447L-406.492 472.452ZM-219.185 563.539C-195.215 549.7 -168.631 542.599 -138.784 547.367C-128.659 548.802 -118.15 550.437 -107.985 552.021C-49.3535 561.154 11.2745 570.596 63.5069 553.571C122.687 534.278 161.658 482.752 182.635 396.051C203.656 312.079 244.463 266.451 287.664 218.146C322.87 178.787 359.27 138.085 387.802 73.5806C418.125 8.66493 422.147 -57.6951 398.84 -108.502C383.367 -142.242 356.602 -165.942 323.475 -175.243C276.834 -193.143 232.885 -192.547 192.76 -173.498C110.091 -134.233 60.1438 -26.9383 32.8077 56.1698C-13.747 216.79 -150.721 304.848 -283.183 390.004C-326.691 417.976 -367.783 444.395 -405.854 473.295C-405.857 473.3 -405.863 473.304 -405.87 473.308C-499.31 541.549 -505.586 613.305 -501.012 650.004C-495.844 691.462 -471.24 727.822 -439.788 740.487C-418.674 748.988 -397.274 745.742 -379.527 731.358C-361.413 718.527 -342.182 693.615 -321.819 667.24C-293.079 630.014 -259.908 587.05 -219.185 563.539ZM92.8719 542.839C83.883 548.028 74.3179 552.271 64.163 555.582C11.449 572.766 -49.4343 563.282 -108.312 554.113C-118.467 552.529 -128.97 550.895 -139.098 549.46C-218.431 536.786 -274.826 609.837 -320.142 668.534C-340.604 695.036 -359.931 720.07 -378.249 733.045C-396.563 747.894 -418.719 751.249 -440.578 742.448C-456.056 736.217 -470.136 724.464 -481.291 708.454C-492.897 691.804 -500.442 671.684 -503.111 650.266C-506.699 621.49 -501.309 591.226 -487.524 562.742C-471.427 529.475 -444.375 498.812 -407.123 471.602C-368.99 442.654 -327.867 416.217 -284.328 388.224C-152.191 303.279 -15.5584 215.439 30.787 55.5446C48.7564 0.91463 70.4436 -45.975 95.2595 -83.8666C124.08 -127.861 156.578 -158.658 191.852 -175.409C232.524 -194.717 277.032 -195.336 324.14 -177.25C357.781 -167.81 385.026 -143.697 400.765 -109.385C424.329 -58.0112 420.306 8.99519 389.73 74.4544C361.069 139.247 324.554 180.073 289.242 219.558C246.221 267.663 205.584 313.099 184.691 396.555C167.113 469.204 136.935 517.399 92.8719 542.839Z" fill="#562845"/>
<path fill-rule="evenodd" clip-rule="evenodd" d="M-396.876 469.774L-396.867 469.769L-396.876 469.774ZM-209.753 551.026C-186.841 537.798 -161.433 530.97 -132.917 535.361C-120.434 537.012 -107.421 539.035 -94.8375 540.993C-39.1458 549.655 18.4423 558.61 67.7657 542.691C123.514 524.7 160.385 476.441 180.482 395.159C201.803 312.333 241.655 265.655 283.847 216.235C317.094 177.295 351.47 137.029 380.102 75.9127C411.994 11.8566 417.075 -55.9742 393.71 -105.56C378.703 -137.411 352.893 -159.026 321.035 -166.421C320.997 -166.431 320.961 -166.443 320.924 -166.453C204.17 -207.622 109.267 -129.3 38.8518 66.3424C-7.37505 214.026 -135.856 296.562 -260.107 376.386C-308.876 407.716 -354.942 437.311 -396.21 470.6C-396.215 470.606 -396.222 470.61 -396.227 470.616C-461.216 520.706 -493.353 583.315 -484.398 642.387C-478.542 681.014 -455.231 713.225 -425.005 724.455C-403.401 732.484 -381.568 728.383 -363.522 712.908C-346.328 700.269 -328.136 676.589 -308.876 651.519C-281.154 615.437 -249.145 573.769 -209.753 551.026ZM95.9437 532.537C87.3275 537.511 78.1602 541.562 68.4148 544.707C18.613 560.78 -39.2272 551.783 -95.1626 543.083C-107.736 541.128 -120.734 539.105 -133.216 537.456C-209.553 525.704 -263.694 596.179 -307.199 652.81C-326.553 678.001 -344.833 701.796 -362.207 714.563C-380.8 730.514 -403.387 734.746 -425.744 726.44C-456.676 714.945 -480.521 682.077 -486.489 642.705C-490.614 615.494 -486.061 586.475 -473.32 558.784C-458.453 526.479 -432.955 496.254 -397.533 468.947C-356.176 435.589 -310.068 405.967 -261.251 374.608C-137.317 294.989 -9.16617 212.66 36.8459 65.6679C107.737 -131.29 203.532 -210.051 321.571 -168.469C354.046 -160.911 380.342 -138.892 395.625 -106.465C419.263 -56.2937 414.173 12.2258 382.008 76.8313C353.266 138.187 318.793 178.562 285.456 217.609C243.428 266.838 203.73 313.333 182.532 395.679C165.748 463.569 137.281 508.668 95.9437 532.537Z" fill="#602746"/>
<path fill-rule="evenodd" clip-rule="evenodd" d="M-387.165 467.04L-387.156 467.035L-387.165 467.04ZM-200.227 538.448C-178.372 525.83 -154.147 519.276 -126.959 523.291C-112.305 525.083 -96.9729 527.494 -82.1442 529.828C-29.3186 538.137 25.311 546.731 71.8441 531.967C124.318 515.314 159.179 470.255 178.42 394.205C200.157 312.164 239.25 264.171 280.64 213.361C311.794 175.115 344.007 135.569 372.492 78.1791C406.459 14.114 412.546 -53.3916 388.79 -102.425C374.249 -132.434 349.356 -152.054 318.689 -157.664C318.647 -157.672 318.603 -157.681 318.559 -157.697C255.219 -177.92 200.348 -162.478 150.808 -110.484C113.188 -70.9986 79.5612 -11.5985 44.9847 76.4526C-0.907897 212.212 -121.818 289.349 -238.747 363.948C-292.288 398.104 -342.859 430.367 -386.474 467.843C-386.482 467.848 -386.488 467.854 -386.496 467.859C-448.122 518.13 -477.728 578.856 -467.725 634.47C-461.382 669.739 -438.842 698.812 -410.302 708.535C-388.149 716.082 -365.816 711.059 -347.424 694.397C-331.161 681.964 -314.015 659.525 -295.861 635.767C-269.157 600.812 -238.298 560.428 -200.227 538.448ZM99.4528 522.177C91.0887 527.006 82.1211 530.927 72.4826 533.984C25.4735 548.9 -29.4047 540.265 -82.474 531.919C-97.2846 529.586 -112.598 527.179 -127.241 525.389C-200.589 514.557 -252.482 582.477 -294.179 637.05C-312.422 660.927 -329.651 683.476 -346.072 696.019C-364.992 713.17 -388.069 718.346 -410.983 710.539C-440.241 700.571 -463.33 670.859 -469.809 634.845C-474.415 609.226 -470.662 581.487 -458.955 554.628C-445.312 523.336 -421.389 493.596 -387.841 466.228C-344.116 428.662 -293.485 396.359 -239.885 362.163C-123.266 287.763 -2.67323 210.83 42.999 75.727C77.6954 -12.6329 111.462 -72.2512 149.278 -111.944C172.797 -136.628 198.143 -153.389 224.623 -161.759C253.993 -171.048 285.793 -170.364 319.139 -159.734C350.455 -153.981 375.861 -133.96 390.696 -103.346C402.053 -79.9032 406.832 -51.2219 404.519 -20.396C402.079 12.1317 391.655 46.5537 374.375 79.1443C345.798 136.722 313.508 176.363 282.281 214.7C241.04 265.327 202.084 313.148 180.469 394.736C170.069 435.851 155.537 467.294 136.059 490.852C125.293 503.868 113.186 514.246 99.4528 522.177Z" fill="#6B2747"/>
<path fill-rule="evenodd" clip-rule="evenodd" d="M-373.539 465.334L-373.53 465.329L-373.539 465.334ZM-186.906 526.869C-164.054 513.676 -141.026 508.885 -117.085 512.256C-100.439 514.113 -82.9641 516.929 -66.065 519.655C34.8434 535.925 139.185 552.749 180.278 394.286C202.606 312.491 241.24 262.781 282.144 210.154C311.001 173.021 340.843 134.627 368.801 81.4779C404.36 18.4489 411.677 -50.3075 387.911 -97.9874C373.837 -126.226 349.812 -143.942 320.263 -147.874C320.215 -147.881 320.165 -147.891 320.116 -147.906C184.792 -186.291 112.331 -46.4729 55.0363 87.5987C9.48149 212.341 -104.645 284.215 -215.016 353.721C-272.923 390.19 -327.62 424.636 -372.822 466.115C-372.829 466.122 -372.837 466.129 -372.846 466.134C-431.01 516.508 -458.107 575.274 -447.188 627.367C-440.365 659.912 -419.16 685.388 -391.854 693.849C-369.085 700.904 -346.198 694.888 -327.41 676.916C-312.081 664.714 -295.986 643.521 -278.945 621.081C-258.821 594.581 -236.014 564.544 -209.662 542.822C-202.081 536.571 -194.501 531.254 -186.906 526.869ZM106.427 513.15C98.31 517.836 89.5921 521.607 80.2053 524.513C35.8717 538.232 -16.1212 529.852 -66.4014 521.745C-83.2775 519.024 -100.725 516.209 -117.35 514.354C-187.718 504.451 -237.368 569.826 -277.26 622.36C-294.385 644.907 -310.557 666.204 -326.021 678.507C-345.315 696.973 -368.944 703.163 -392.479 695.87C-420.522 687.181 -442.279 661.098 -449.259 627.799C-454.291 603.785 -451.304 577.354 -440.619 551.361C-428.192 521.137 -405.86 491.927 -374.243 464.544C-328.903 422.941 -274.13 388.448 -216.143 351.93C-106.075 282.614 7.74225 210.933 53.0695 86.8191C110.726 -48.1077 183.689 -188.744 320.62 -149.963C350.851 -145.913 375.419 -127.793 389.805 -98.933C413.88 -50.6332 406.544 18.8852 370.66 82.4905C342.629 135.775 312.729 174.246 283.814 211.451C243.045 263.907 204.535 313.454 182.321 394.829C172.365 433.225 158.583 462.554 140.194 484.475C130.227 496.355 119.055 505.856 106.427 513.15Z" fill="#762748"/>
<path fill-rule="evenodd" clip-rule="evenodd" d="M-363.275 462.74L-363.267 462.735L-363.275 462.74ZM-176.827 514.43C-155.167 501.925 -133.311 497.302 -110.573 500.33C-92.1072 502.18 -72.659 505.438 -53.8499 508.586C-6.52339 516.508 42.4149 524.7 83.7132 512.344C130.073 498.476 161.166 459.59 178.768 393.471C201.977 311.062 238.861 261.372 281.573 203.837C307.8 168.507 334.923 131.969 361.745 83.8852C398.885 21.978 407.531 -47.9082 383.791 -94.1859C370.18 -120.717 346.984 -136.622 318.476 -138.978C318.42 -138.984 318.365 -138.993 318.311 -139.006C186.646 -171.332 120.278 -28.3214 61.7198 97.8524C16.5129 212.39 -91.5059 279.156 -195.97 343.721C-257.918 382.006 -316.427 418.171 -362.533 463.494C-362.541 463.501 -362.55 463.51 -362.558 463.517C-417.171 513.907 -441.784 570.642 -430.083 619.175C-422.988 648.608 -402.631 671.344 -376.957 678.506C-353.845 684.957 -329.714 677.682 -310.759 658.544C-310.734 658.521 -310.71 658.498 -310.683 658.473C-296.376 646.595 -281.337 626.655 -265.416 605.545C-246.186 580.049 -224.393 551.151 -199.203 530.201C-191.751 523.999 -184.299 518.744 -176.827 514.43ZM109.938 503.443C63.3367 530.349 3.97043 520.409 -54.1976 510.672C-72.9746 507.529 -92.3883 504.28 -110.818 502.432C-178.226 493.457 -225.635 556.314 -263.727 606.817C-279.709 628.013 -294.809 648.029 -309.291 660.069C-328.798 679.74 -353.667 687.204 -377.525 680.544C-403.938 673.176 -424.866 649.85 -432.141 619.67C-437.542 597.266 -435.282 572.161 -425.603 547.068C-414.371 517.957 -393.646 489.325 -364.002 461.972C-317.729 416.488 -259.124 380.265 -197.083 341.92C-92.9138 277.538 14.8023 210.961 59.7773 97.0188C88.6946 34.7003 121.446 -35.8696 163.317 -84.1839C208.999 -136.899 259.842 -155.51 318.733 -141.079C347.959 -138.638 371.731 -122.328 385.673 -95.1526C397.14 -72.7998 401.456 -44.6372 398.155 -13.7055C394.673 18.9301 382.716 53.045 363.577 84.9467C336.704 133.12 309.539 169.712 283.271 205.099C240.685 262.467 203.91 312.01 180.809 394.031C165.145 452.871 140.241 485.948 109.938 503.443Z" fill="#802649"/>
<path fill-rule="evenodd" clip-rule="evenodd" d="M-354.705 461.63L-354.697 461.625L-354.705 461.63ZM-168.437 503.478C-147.967 491.659 -127.285 487.203 -105.757 489.889C-85.6284 491.667 -64.3697 495.409 -43.8125 499.024C0.877693 506.889 47.0911 515.023 85.9284 503.908C129.434 491.453 158.757 455.551 175.568 394.142C200.156 309.625 237.907 256.553 281.621 195.1C304.608 162.788 328.379 129.372 353.001 87.7786C392.305 26.1328 402.148 -43.103 378.104 -88.6413C364.953 -113.541 342.542 -127.731 314.996 -128.6C314.937 -128.601 314.876 -128.61 314.816 -128.622C261.433 -139.543 217.186 -122.849 175.58 -76.0792C138.649 -34.5712 109.393 24.0881 78.4146 86.1935C74.5258 93.9856 70.6302 101.796 66.7109 109.591C21.8552 214.659 -80.64 276.48 -179.758 336.263C-245.472 375.895 -307.536 413.329 -353.938 462.357C-353.944 462.366 -353.954 462.375 -353.962 462.382C-404.938 512.688 -427.098 567.329 -414.759 612.294C-407.382 639.185 -388.384 658.859 -363.941 664.926C-340.09 670.845 -315.252 662.365 -295.797 641.661C-295.775 641.633 -295.748 641.609 -295.722 641.585C-282.373 629.991 -268.398 611.317 -253.603 591.547C-235.268 567.047 -214.484 539.275 -190.451 519.081C-183.12 512.922 -175.793 507.724 -168.437 503.478ZM111.696 495.257C67.5175 520.766 11.0932 510.835 -44.1795 501.107C-64.6955 497.498 -85.9083 493.765 -105.982 491.99C-170.443 483.952 -215.614 544.315 -251.911 592.813C-266.759 612.657 -280.788 631.4 -294.294 643.146C-314.279 664.399 -339.848 673.086 -364.451 666.979C-389.647 660.726 -409.216 640.493 -416.801 612.854C-429.345 567.132 -406.989 511.743 -355.46 460.886C-308.863 411.659 -246.682 374.154 -180.852 334.45C-82.0197 274.84 20.179 213.199 64.7899 108.7C68.7409 100.848 72.6344 93.0389 76.5197 85.2458C107.561 23.013 136.882 -35.7681 173.999 -77.4857C193.993 -99.9626 214.354 -115.286 236.248 -124.335C260.751 -134.461 286.562 -136.547 315.151 -130.714C343.45 -129.792 366.467 -115.206 379.974 -89.629C391.452 -67.8902 395.494 -40.0492 391.657 -9.11477C387.608 23.5322 374.862 57.4189 354.802 88.8848C330.151 130.524 306.356 163.978 283.346 196.326C239.743 257.622 202.086 310.558 177.603 394.716C162.853 448.59 139.741 479.065 111.696 495.257Z" fill="#8B264A"/>
<path fill-rule="evenodd" clip-rule="evenodd" d="M-343.716 459.368L-343.707 459.363L-343.716 459.368ZM-157.626 491.37C-138.351 480.241 -118.846 475.953 -98.5206 478.296C-76.8848 479.932 -53.9774 484.221 -31.8226 488.366C10.3074 496.251 53.8697 504.405 90.3477 494.543C131.123 483.519 158.742 450.523 174.787 393.664C201.734 304.111 242.118 245.369 288.88 177.351C307.306 150.548 326.358 122.834 346.675 90.5185C387.545 30.1779 398.901 -39.9458 374.955 -83.9978C362.263 -107.353 340.592 -119.917 313.936 -119.376C313.873 -119.374 313.809 -119.378 313.747 -119.39C265.802 -127.085 226.066 -111.646 188.69 -70.7958C155.277 -34.2795 128.057 17.742 99.2367 72.8181C91.1101 88.3495 82.7068 104.409 74.116 120.179C29.6273 216.437 -67.8478 273.483 -162.114 328.65C-231.37 369.179 -296.784 407.463 -342.921 460.066C-342.929 460.074 -342.937 460.084 -342.946 460.095C-390.207 510.209 -409.955 562.706 -397.123 604.121C-389.661 628.202 -371.56 645.542 -348.699 650.506C-324.039 655.861 -298.422 646.063 -278.417 623.624C-278.392 623.597 -278.368 623.572 -278.341 623.544C-265.963 612.269 -253.061 594.874 -239.401 576.458C-221.955 552.939 -202.181 526.279 -179.299 506.834C-172.088 500.707 -164.872 495.553 -157.626 491.37ZM115.851 486.336C108.204 490.751 99.9158 494.148 90.899 496.586C53.9543 506.571 10.1501 498.372 -32.2114 490.446C-54.3091 486.309 -77.1624 482.032 -98.7253 480.401C-160.258 473.305 -203.197 531.2 -237.703 577.719C-251.41 596.2 -264.358 613.656 -276.875 625.071C-297.399 648.067 -323.736 658.091 -349.147 652.574C-372.764 647.446 -391.453 629.567 -399.143 604.747C-412.206 562.588 -392.288 509.338 -344.499 458.659C-298.138 405.801 -232.585 367.439 -163.183 326.824C-69.1982 271.822 27.9853 214.945 72.2288 119.229C80.8394 103.412 89.24 87.3628 97.3625 71.8395C126.247 16.636 153.532 -35.5051 187.128 -72.2263C225.006 -113.623 265.316 -129.28 313.988 -121.493C341.43 -122.02 363.741 -109.066 376.814 -85.0099C388.115 -64.221 391.949 -35.9967 387.611 -5.54128C382.965 27.0904 369.422 60.7063 348.445 91.6763C328.125 123.997 309.061 151.729 290.623 178.548C242.038 249.22 203.664 305.039 176.818 394.256C168.124 425.063 156.414 448.43 141.017 465.669C133.471 474.117 125.134 480.976 115.851 486.336Z" fill="#95254B"/>
<path fill-rule="evenodd" clip-rule="evenodd" d="M-332.395 457.165L-332.386 457.16L-332.395 457.165ZM-146.481 479.321C-128.4 468.882 -110.068 464.76 -90.9575 466.76C-67.9599 468.189 -43.5549 473.098 -19.9532 477.845C19.6898 485.821 60.6802 494.066 94.8926 485.469C133.588 475.748 158.83 446.439 174.337 393.239C205.946 291.833 249.139 228.284 308.92 140.325C319.105 125.342 329.636 109.845 340.681 93.3185C383.084 34.369 396.061 -36.5062 372.262 -79.0645C360.018 -100.955 339.048 -111.976 313.209 -110.095C313.143 -110.093 313.079 -110.093 313.014 -110.1C218.502 -120.781 172.348 -35.0967 118.904 64.1198C107.114 86.0068 94.9263 108.638 81.8564 130.828C37.7376 218.874 -55.1583 271.318 -144.989 322.039C-217.611 363.035 -286.205 401.764 -331.573 457.831C-331.581 457.841 -331.59 457.852 -331.598 457.863C-375.084 507.664 -392.462 557.982 -379.278 595.908C-371.818 617.363 -354.637 632.539 -333.318 636.505C-307.787 641.253 -281.322 630.003 -260.707 605.645C-260.683 605.617 -260.657 605.59 -260.63 605.566C-249.237 594.645 -237.418 578.548 -224.908 561.509C-208.347 538.951 -189.575 513.384 -167.839 494.674C-160.736 488.56 -153.626 483.446 -146.481 479.321ZM120.196 477.612C112.635 481.98 104.408 485.26 95.4088 487.521C60.733 496.237 19.5025 487.941 -20.3699 479.921C-43.9027 475.187 -68.2355 470.292 -91.1329 468.87C-149.762 462.728 -190.485 518.194 -223.201 562.763C-235.752 579.858 -247.61 596.009 -259.126 607.056C-280.24 631.983 -307.42 643.473 -333.704 638.585C-355.78 634.479 -373.563 618.783 -381.273 596.601C-394.714 557.943 -377.192 506.871 -333.205 456.485C-287.582 400.111 -215.626 359.487 -146.029 320.197C-56.4757 269.627 36.1365 217.35 79.9992 129.817C93.0821 107.599 105.261 84.9843 117.042 63.1172C143.586 13.8417 168.654 -32.7032 198.993 -65.5095C233.014 -102.298 269.29 -117.143 313.153 -112.213C339.812 -114.121 361.456 -102.717 374.109 -80.0981C398.297 -36.8465 385.267 34.9595 342.421 94.524C331.391 111.03 320.857 126.528 310.67 141.517C250.992 229.325 207.874 292.767 176.364 393.849C168.068 422.309 156.994 443.811 142.513 459.569C135.774 466.899 128.378 472.888 120.196 477.612Z" fill="#A0254C"/>
<path fill-rule="evenodd" clip-rule="evenodd" d="M-320.626 455.073L-320.618 455.068L-320.626 455.073ZM-134.884 467.377C-117.998 457.627 -100.847 453.676 -82.9464 455.338C-58.7304 456.492 -32.9798 462.112 -8.07823 467.546C30.8684 476.048 67.6558 484.074 99.6933 476.741C135.852 468.467 159.569 441.833 174.336 392.93C209.934 282.853 254.55 209.553 335.138 96.2266C384.868 31.1122 390.376 -38.5867 370.126 -73.7983C358.33 -94.3103 338.019 -103.866 312.929 -100.708C312.864 -100.699 312.797 -100.699 312.731 -100.701C227.622 -105.942 185.931 -29.5503 137.652 58.898C122.829 86.0548 107.502 114.137 90.04 141.587C46.3063 221.972 -42.3898 269.993 -128.165 316.431C-200.665 355.683 -275.635 396.275 -319.778 455.706C-319.786 455.716 -319.794 455.727 -319.803 455.738C-378.908 529.296 -374.512 587.013 -343.935 611.587C-330.841 622.108 -313.725 625.983 -295.744 622.499C-276.142 618.704 -257.748 606.696 -242.547 587.782C-242.523 587.753 -242.499 587.724 -242.473 587.698C-232.08 577.191 -221.36 562.415 -210.015 546.773C-194.332 525.155 -176.559 500.653 -155.96 482.66C-148.959 476.543 -141.944 471.453 -134.884 467.377ZM124.88 469.249C117.384 473.577 109.184 476.741 100.167 478.805C67.6669 486.242 28.9317 477.788 -8.52915 469.613C-33.3446 464.195 -59.0079 458.595 -83.0942 457.448C-138.849 452.271 -175.747 503.135 -208.3 548.016C-219.681 563.705 -230.434 578.526 -240.93 589.148C-256.442 608.435 -275.254 620.684 -295.338 624.576C-313.945 628.181 -331.673 624.152 -345.259 613.234C-376.656 588.005 -381.474 529.117 -321.465 454.426C-277.042 394.626 -201.869 353.929 -129.171 314.569C-43.6675 268.278 44.7473 220.408 88.2202 140.513C105.681 113.06 120.992 85.0111 135.797 57.8848C184.403 -31.1671 226.378 -108.079 312.763 -102.821C338.707 -106.054 359.73 -96.1244 371.962 -74.8527C383.136 -55.4225 386.242 -28.0491 380.71 2.233C374.773 34.7427 359.603 67.6818 336.84 97.4821C256.406 210.598 211.863 283.767 176.358 393.56C168.448 419.747 157.987 439.45 144.378 453.768C138.447 460.007 131.98 465.15 124.88 469.249Z" fill="#AA244D"/>
<path fill-rule="evenodd" clip-rule="evenodd" d="M-311.963 452.251L-311.954 452.246L-311.963 452.251ZM-126.385 454.701C-110.698 445.644 -94.726 441.859 -78.0404 443.182C-52.7416 443.995 -25.7922 450.43 0.269935 456.65C72.3447 473.856 140.422 490.105 171.233 391.883C210.229 275.861 252.308 196.325 326.493 98.4029C349.926 69.5046 365.772 37.2858 372.337 5.2056C378.401 -24.4168 375.793 -50.7916 365 -69.0598C353.65 -88.2741 333.953 -96.4421 309.545 -92.0527C309.481 -92.0421 309.416 -92.0371 309.352 -92.0377C274.262 -92.239 245.395 -78.4744 218.498 -48.7219C194.167 -21.8096 173.693 15.7465 152.016 55.5056C134.777 87.1288 116.951 119.827 95.1197 151.615C51.7813 224.834 -33.0491 268.606 -115.086 310.934C-190.554 349.874 -268.592 390.139 -311.084 452.843C-311.093 452.854 -311.1 452.866 -311.108 452.877C-335.767 486.461 -349.67 518.654 -351.314 545.975C-352.713 569.22 -345.203 588.222 -330.162 599.482C-305.626 617.855 -261.303 613.477 -227.488 569.182C-227.466 569.155 -227.444 569.128 -227.421 569.102C-218.05 559.072 -208.45 545.647 -198.287 531.436C-183.475 510.729 -166.69 487.259 -147.225 469.963C-140.31 463.819 -133.375 458.737 -126.385 454.701ZM126.343 460.42C118.891 464.722 110.698 467.758 101.625 469.597C71.2135 475.763 36.5128 467.479 -0.22394 458.71C-26.1849 452.513 -53.0271 446.106 -78.1602 445.297C-131.076 441.099 -165.868 489.745 -196.567 532.667C-206.759 546.919 -216.388 560.38 -225.839 570.51C-236.294 584.195 -247.757 594.144 -259.353 600.842C-286.174 616.33 -313.74 614.424 -331.433 601.177C-347.061 589.477 -354.872 569.829 -353.429 545.849C-351.76 518.125 -337.721 485.55 -312.828 451.644C-270.029 388.5 -191.755 348.113 -116.059 309.056C-34.286 266.863 50.2685 223.235 93.3365 150.479C115.144 118.72 132.945 86.0708 150.158 54.4945C193.752 -25.471 231.407 -94.538 309.265 -94.1529C334.563 -98.6672 355.001 -90.1411 366.821 -70.134C377.882 -51.4159 380.577 -24.5065 374.407 5.63242C367.776 38.0431 351.78 70.5738 328.155 99.7115C254.144 197.403 212.154 276.775 173.243 392.538C165.714 416.542 155.842 434.501 143.067 447.424C137.938 452.612 132.384 456.932 126.343 460.42Z" fill="#B5244E"/>
<path fill-rule="evenodd" clip-rule="evenodd" d="M-299.384 450.738L-299.375 450.733L-299.384 450.738ZM-113.971 443.329C-99.4832 434.964 -84.695 431.35 -69.2258 432.338C-42.9773 432.746 -14.9721 440.109 12.109 447.228C79.3175 464.894 142.795 481.584 172.041 392.147C210.004 283.685 242.959 199.391 321.761 101.892C345.678 74.111 362.79 41.4794 369.969 9.98602C376.581 -19.0116 374.367 -45.5495 363.892 -62.8208C352.976 -80.8219 333.864 -87.6642 310.074 -82.0919C310.013 -82.0768 309.95 -82.0696 309.89 -82.0671C240.879 -78.2583 207.602 -16.2984 169.066 55.4432C150.015 90.9148 130.313 127.596 104.11 162.953C61.1804 229.469 -20.0768 269.165 -98.6595 307.55C-177.008 345.82 -258.024 385.396 -298.483 451.292C-298.489 451.302 -298.496 451.314 -298.502 451.324C-348.055 525.807 -337.077 572.08 -312.619 589.072C-299.586 598.13 -281.571 600.004 -263.195 594.213C-243.149 587.897 -223.729 572.868 -208.517 551.896C-200.139 542.354 -191.681 530.322 -182.724 517.585C-168.777 497.749 -152.968 475.266 -134.626 458.638C-127.784 452.434 -120.911 447.335 -113.971 443.329ZM131.842 453.102C124.338 457.437 116.022 460.356 106.814 461.946C78.4063 466.844 45.9438 458.311 11.5722 449.275C-15.3879 442.188 -43.2685 434.859 -69.3096 434.451C-119.435 431.258 -152.138 477.768 -180.993 518.802C-189.983 531.587 -198.476 543.665 -206.865 553.214C-222.28 574.476 -242.082 589.781 -262.561 596.233C-281.565 602.222 -300.253 600.246 -313.826 590.814C-339.069 573.272 -350.66 525.916 -300.276 450.166C-259.489 383.759 -178.199 344.051 -99.5874 305.649C-21.2682 267.39 59.7203 227.826 102.372 161.749C128.523 126.459 148.188 89.8495 167.202 54.4424C186.603 18.3238 204.927 -15.7934 226.819 -40.7745C251.185 -68.5835 277.519 -82.373 309.682 -84.1732C334.395 -89.9336 354.289 -82.7447 365.702 -63.9173C376.458 -46.1799 378.765 -19.0704 372.035 10.457C364.779 42.2816 347.502 75.236 323.384 103.247C244.82 200.457 211.931 284.588 174.046 392.826C164.329 422.544 150.639 442.249 131.842 453.102Z" fill="#C0244F"/>
<path fill-rule="evenodd" clip-rule="evenodd" d="M-289.672 448.396L-289.665 448.392L-289.672 448.396ZM-104.526 431.084C-92.2384 423.989 -78.6362 419.962 -63.2794 420.664C-36.2108 420.604 -7.28954 429.022 20.6786 437.166C83.2047 455.373 142.265 472.567 169.985 391.581C174.676 378.731 179.237 365.867 183.649 353.427C213.886 268.147 242.445 187.597 314.164 104.548C338.873 77.5198 356.831 45.3817 364.747 14.0414C372.015 -14.7268 370.288 -40.7078 360.012 -57.246C349.532 -74.1076 330.966 -79.6901 307.734 -72.964C307.68 -72.9471 307.624 -72.9381 307.568 -72.929C245.518 -65.3743 216.113 -9.03963 182.063 56.1893C162.737 93.2229 140.828 135.193 110.233 173.461C67.7263 233.695 -10.2141 269.482 -85.589 304.089C-166.751 341.353 -250.68 379.888 -288.746 448.906C-288.752 448.915 -288.757 448.927 -288.763 448.936C-307.808 480.854 -318.011 510.177 -318.279 533.736C-318.507 553.933 -311.331 569.744 -298.07 578.256C-272.511 594.665 -226.001 582.509 -192.412 533.778C-185.139 524.929 -177.853 514.349 -170.137 503.148C-151.451 476.011 -131.056 446.401 -104.526 431.084ZM134.074 445.361C126.603 449.677 118.262 452.43 108.954 453.712C82.466 457.359 52.1668 448.538 20.0855 439.197C-7.73836 431.095 -36.5096 422.719 -63.3243 422.778C-110.726 420.614 -141.365 465.099 -168.394 504.345C-176.137 515.586 -183.448 526.202 -190.723 535.049C-203.549 553.659 -218.276 567.016 -233.063 575.556C-257.79 589.832 -282.688 590.644 -299.213 580.037C-313.111 571.116 -320.631 554.664 -320.395 533.711C-320.124 509.783 -309.819 480.1 -290.589 447.865C-252.18 378.246 -167.942 339.574 -86.4727 302.164C-11.3517 267.674 66.324 232.011 108.54 172.19C139.047 134.032 160.905 92.1553 180.189 55.2103C197.348 22.3355 213.553 -8.71428 233.035 -31.9417C254.708 -57.7839 278.285 -71.4748 307.227 -75.0217C331.415 -81.9992 350.795 -76.0856 361.81 -58.3637C372.388 -41.3425 374.206 -14.7626 366.799 14.5593C358.797 46.2359 340.665 78.6906 315.745 105.955C244.306 188.679 215.812 269.048 185.642 354.131C181.23 366.58 176.666 379.449 171.978 392.285C163.055 418.359 150.739 435.74 134.074 445.361Z" fill="#CA2350"/>
<path fill-rule="evenodd" clip-rule="evenodd" d="M-279.455 446.268L-279.446 446.263L-279.455 446.268ZM-94.4177 419.1C-83.2019 412.625 -70.8049 408.863 -56.8282 409.205C-29.0651 408.606 0.63159 418.231 29.352 427.537C59.0034 437.144 87.0115 446.218 111.219 443.85C138.287 441.198 156.471 424.477 168.436 391.226C176.317 370.587 183.479 349.438 190.401 328.985C215.436 255.032 241.322 178.559 307.076 107.42C332.551 81.1827 351.352 49.578 360.039 18.4091C367.981 -10.0968 366.775 -35.5069 356.725 -51.3081C346.682 -67.1039 328.631 -71.4757 305.899 -63.6207C305.852 -63.6054 305.804 -63.5923 305.754 -63.5836C250.045 -52.7254 224.265 -1.1723 194.415 58.5193C174.473 98.3987 151.869 143.599 116.859 184.182C74.7903 238.529 -0.0557056 270.574 -72.4364 301.564C-156.367 337.499 -243.159 374.656 -278.506 446.733C-278.511 446.745 -278.515 446.753 -278.519 446.761C-315.362 516.505 -305.056 555.175 -283.126 568.112C-269.911 575.908 -251.327 575.477 -232.143 566.929C-211.292 557.632 -191.276 539.506 -175.799 515.876C-169.687 507.89 -163.617 498.845 -157.188 489.267C-139.43 462.804 -120.021 433.882 -94.4177 419.1ZM136.496 438.275C107.425 455.062 68.8212 442.549 28.7009 429.549C0.147115 420.3 -29.3782 410.734 -56.8325 411.32C-101.598 410.223 -130.201 452.844 -155.431 490.449C-161.877 500.053 -167.966 509.127 -174.073 517.101C-189.724 541.001 -210.059 559.402 -231.285 568.862C-251.101 577.693 -270.389 578.083 -284.203 569.935C-297.484 562.102 -304.694 547.462 -305.059 527.601C-305.472 505.073 -297.175 477.552 -280.4 445.787C-264.373 413.119 -236.597 384.767 -195.481 359.112C-158.899 336.281 -115.367 317.645 -73.2706 299.621C-1.1365 268.735 73.4519 236.8 115.22 182.844C150.093 142.419 172.634 97.3418 192.524 57.5745C222.61 -2.59287 248.596 -54.5563 305.277 -65.643C328.993 -73.8178 347.897 -69.1321 358.509 -52.4429C368.882 -36.1361 370.18 -10.1033 362.076 18.9781C353.298 50.4802 334.31 82.4091 308.612 108.877C243.18 179.664 217.369 255.921 192.405 329.663C185.474 350.136 178.308 371.305 170.417 391.962C161.794 415.928 150.203 430.358 136.496 438.275Z" fill="#D52351"/>
<path fill-rule="evenodd" clip-rule="evenodd" d="M-268.697 444.573L-268.688 444.568L-268.697 444.573ZM-83.7357 407.535C-73.6027 401.684 -62.4122 398.187 -49.841 398.18C-21.5072 396.98 8.83333 407.963 38.1724 418.583C65.701 428.548 91.7008 437.96 114.154 436.78C139.196 435.462 156.124 421.012 167.427 391.302C177.061 367.25 184.759 342.725 192.911 316.76C214.923 246.636 237.683 174.125 300.529 110.726C356.43 56.5359 373.601 -14.7272 354.059 -44.8038C344.447 -59.6005 326.881 -62.8119 304.603 -53.848C304.565 -53.8321 304.529 -53.8197 304.489 -53.8082C254.557 -40.0402 232.139 7.45579 206.18 62.4554C186.154 104.888 163.457 152.98 124.024 195.339C82.412 244.158 10.4662 272.626 -59.1127 300.158C-145.782 334.453 -235.4 369.913 -267.725 444.992C-267.729 445 -267.733 445.008 -267.735 445.015C-281.761 475.496 -288.33 501.38 -287.26 521.95C-286.332 539.736 -279.584 552.507 -267.746 558.884C-242.009 572.745 -192.983 553.563 -158.644 498.408C-153.775 491.534 -148.984 484.151 -143.91 476.335C-127.035 450.334 -108.556 421.865 -83.7357 407.535ZM139.497 431.828C112.152 447.618 75.5397 434.362 37.4539 420.574C8.30379 410.023 -21.834 399.112 -49.7967 400.296C-92.0537 400.326 -118.662 441.318 -142.135 477.487C-147.221 485.322 -152.023 492.721 -156.881 499.579C-172.663 524.928 -193.284 545.034 -214.877 556.168C-235.144 566.601 -254.781 568.271 -268.747 560.749C-281.274 554 -288.406 540.624 -289.372 522.059C-290.463 501.147 -283.832 474.936 -269.664 444.144C-254.996 410.083 -227.479 381.171 -185.548 355.755C-148.264 333.156 -103.338 315.381 -59.8918 298.191C9.44798 270.757 81.1434 242.386 122.445 193.93C161.683 151.78 184.306 103.844 204.267 61.5521C230.438 6.09988 253.034 -41.7934 303.869 -55.8323C327.164 -65.1872 345.615 -61.6831 355.834 -45.9567C365.965 -30.3635 366.717 -4.89551 357.895 23.9195C348.309 55.2274 328.466 86.5919 302.018 112.231C239.548 175.249 216.865 247.511 194.928 317.393C186.764 343.4 179.055 367.96 169.398 392.073C161.64 412.465 151.452 424.923 139.497 431.828Z" fill="#DF2252"/>
<path fill-rule="evenodd" clip-rule="evenodd" d="M-257.332 443.218L-257.323 443.213L-257.332 443.218ZM-72.3859 396.281C-63.3488 391.064 -53.3924 387.843 -42.251 387.495C-13.4676 385.627 17.3799 398.141 47.2116 410.242C72.6956 420.583 96.7673 430.346 117.544 430.327C140.651 430.304 156.376 418.034 167.028 391.716C177.723 366.317 185.489 339.111 193.711 310.306C213.12 242.31 233.19 171.998 294.594 114.371C351.087 62.8486 371.528 -8.48713 352.07 -37.8521C342.888 -51.7051 325.784 -53.7979 303.91 -43.738C259.148 -27.3807 239.83 16.7032 217.461 67.7567C197.857 112.499 175.638 163.212 131.799 206.832C90.66 250.462 21.4414 275.515 -45.4976 299.743C-134.89 332.1 -227.324 365.556 -256.339 443.586C-256.34 443.593 -256.342 443.6 -256.345 443.605C-277.937 498.622 -276.253 538.582 -251.845 550.497C-225.72 563.248 -175.866 540.413 -140.88 481.277C-137.373 475.891 -133.956 470.385 -130.337 464.555C-114.27 438.676 -96.6389 410.284 -72.3859 396.281ZM143.042 426.124C135.694 430.369 127.249 432.431 117.546 432.442C96.3539 432.464 72.0995 422.623 46.4157 412.204C16.8048 400.192 -13.815 387.768 -42.1499 389.609C-82.0888 390.854 -106.765 430.602 -128.538 465.67C-132.163 471.51 -135.586 477.026 -139.083 482.394C-156.595 511.991 -177.881 532.604 -198.196 544.333C-219.155 556.437 -239.078 559.084 -252.772 552.398C-264.618 546.615 -271.71 534.382 -273.285 517.016C-275.043 497.586 -270.007 472.631 -258.319 442.839C-228.955 363.9 -136.056 330.272 -46.2187 297.754C20.4883 273.611 89.4636 248.643 130.282 205.358C173.864 161.995 195.996 111.478 215.524 66.908C238.087 15.4097 257.569 -29.0638 303.106 -45.6933C325.963 -56.2068 344.006 -53.8495 353.836 -39.0205C363.551 -24.3537 363.733 1.18021 354.318 29.2802C343.897 60.3774 323.2 91.148 296.03 115.927C235.063 173.141 215.077 243.168 195.747 310.89C187.506 339.755 179.725 367.02 168.985 392.524C162.407 408.768 153.931 419.837 143.042 426.124Z" fill="#EA2253"/>
<path fill-rule="evenodd" clip-rule="evenodd" d="M-246.525 440.011L-246.516 440.006L-246.525 440.011ZM-61.845 383.175C-53.8753 378.574 -45.0924 375.64 -35.2296 374.96C-6.11073 372.352 25.1133 386.586 55.309 400.35C86.8932 414.748 116.725 428.348 139.28 419.686C150.605 415.328 159.374 405.712 166.074 390.276C177.453 364.655 184.851 335.648 192.682 304.941C208.922 241.262 227.33 169.086 288.103 116.163C315.696 92.5021 337.033 62.6627 348.192 32.1358C358.115 4.98501 358.635 -19.236 349.583 -32.658C340.834 -45.6242 324.172 -46.6277 302.659 -35.4816C262.686 -16.8888 246.214 24.3652 227.138 72.1323C208.429 118.977 187.225 172.07 139.011 216.474C127.688 227.269 114.341 236.755 99.5939 245.269C61.404 267.321 13.7777 282.894 -32.7129 298.101C-124.828 328.228 -220.075 359.383 -245.513 440.329C-245.514 440.332 -245.515 440.335 -245.515 440.339C-262.962 494.021 -259.706 530.625 -236.58 540.764C-222.852 546.784 -203.146 542.401 -182.514 528.747C-160.453 514.142 -139.555 490.542 -123.674 462.298C-121.711 458.984 -119.761 455.646 -117.801 452.288C-101.792 424.876 -85.3769 396.762 -61.845 383.175ZM145.648 418.982C143.851 420.02 141.98 420.91 140.038 421.657C116.655 430.642 86.4291 416.86 54.4287 402.273C24.4859 388.623 -6.48049 374.506 -35.0637 377.066C-72.9509 379.678 -94.8245 417.133 -115.976 453.353C-117.937 456.715 -119.888 460.057 -121.843 463.354C-137.874 491.866 -159.012 515.722 -181.348 530.509C-202.59 544.564 -223.033 549.014 -237.433 542.7C-261.671 532.072 -265.35 494.523 -247.533 439.689C-221.769 357.711 -125.992 326.384 -33.3724 296.089C30.8469 275.083 97.254 253.366 137.563 214.928C185.434 170.836 206.545 117.981 225.171 71.3482C244.414 23.1607 261.031 -18.4694 301.725 -37.3822C324.274 -49.0678 341.905 -47.8175 351.336 -33.8422C360.767 -19.8613 360.335 5.07448 350.177 32.8607C338.896 63.7237 317.342 93.8756 289.484 117.762C229.215 170.246 211.685 238.986 194.729 305.46C186.875 336.259 179.457 365.348 168.011 391.125C162.208 404.491 154.854 413.667 145.648 418.982Z" fill="#F42154"/>
<path fill-rule="evenodd" clip-rule="evenodd" d="M-50.4878 370.47C-43.6206 366.505 -36.0636 363.852 -27.5956 362.867C1.74216 359.449 33.2108 375.605 63.6427 391.226C93.141 406.369 121.003 420.671 141.942 413.533C151.879 410.148 159.661 402.209 165.743 389.267C177.575 364.097 184.344 333.828 191.509 301.779C205.613 238.722 221.595 167.251 282.232 118.396C346.193 66.8643 364.033 -3.20977 347.765 -26.9435C339.451 -39.0707 323.208 -39.0153 302.028 -26.787C266.386 -6.20906 252.51 32.7222 236.442 77.7993C219.06 126.561 199.36 181.825 146.844 226.553C106.716 260.727 42.5345 279.42 -19.5362 297.496C-114.382 325.12 -212.457 353.682 -234.071 437.508C-247.365 489.07 -242.513 523.502 -220.764 531.975C-206.751 537.436 -186.579 531.591 -165.423 515.931C-143.008 499.342 -121.847 473.711 -105.846 443.755L-105.439 442.988C-89.3431 412.852 -73.9342 384.007 -50.4878 370.47ZM148.78 412.744C146.821 413.876 144.771 414.805 142.624 415.536C120.833 422.965 92.5838 408.462 62.6771 393.108C32.5271 377.631 1.34984 361.625 -27.3529 364.97C-63.6237 369.197 -83.0307 405.523 -103.574 443.987L-103.983 444.752C-120.128 474.979 -141.503 500.862 -164.166 517.632C-185.922 533.729 -206.829 539.677 -221.534 533.949C-234.968 528.715 -254.728 509.159 -236.118 436.981L-235.095 437.244L-236.118 436.981C-214.206 351.99 -115.544 323.256 -20.1278 295.466C41.7278 277.452 105.691 258.827 145.472 224.943C197.555 180.582 217.155 125.598 234.448 77.0899C250.656 31.6189 264.656 -7.64982 300.971 -28.6163C331.026 -45.9685 344.281 -35.7651 349.512 -28.1383C358.632 -14.8316 357.564 9.49835 346.652 36.9455C334.483 67.5557 312.077 97.0681 283.559 120.048C223.499 168.435 207.601 239.525 193.575 302.241C186.382 334.409 179.589 364.788 167.658 390.17C162.615 400.899 156.399 408.346 148.78 412.744Z" fill="#FF2155"/>
</g>
<g style="mix-blend-mode:soft-light" opacity="0.2">
<path fill-rule="evenodd" clip-rule="evenodd" d="M1630.52 858.293L1630.51 858.286L1630.52 858.293ZM1707.84 643.006C1682.38 617.55 1668.56 588.928 1665.76 556.168C1653.87 421.972 1639.06 254.956 1385.16 265.379C1292.45 269.045 1239.3 236 1183.04 201.014C1133.82 170.406 1082.92 138.754 1002.38 132.555C877.106 122.346 777.043 185.5 759.037 286.134C746.05 351.816 758.717 407.492 796.692 451.631C849.358 512.84 948.311 546.328 1061.39 541.199C1116.61 538.286 1168.94 544.485 1221.36 560.143C1267.8 574.016 1313.06 594.993 1359.71 624.272C1445.99 678.414 1521.71 751.675 1594.93 822.524C1606.86 834.066 1619.19 845.999 1631.25 857.528L1631.25 857.532C1723.67 946.578 1808.21 938.798 1850.37 926.237C1903.33 910.457 1947 870.211 1956.57 828.366C1961.54 806.607 1956.08 787.148 1941.19 773.572C1922.54 756.055 1889.31 741.881 1850.84 725.468C1811.42 708.656 1766.75 689.599 1731.49 663.309C1722.72 656.768 1714.84 650.005 1707.84 643.006ZM1593.17 324.503C1601.94 333.271 1609.81 342.98 1616.82 353.651C1655.1 411.921 1662.18 491.8 1667.87 555.984C1675.76 648.483 1773.29 690.089 1851.66 723.521C1890.32 740.013 1923.71 754.253 1942.63 772.019C1958.11 786.125 1963.78 806.302 1958.63 828.837C1948.9 871.39 1904.63 912.276 1850.97 928.263C1808.37 940.957 1722.98 948.846 1629.78 859.052L1629.79 859.055C1617.72 847.523 1605.39 835.588 1593.46 824.044C1444.68 680.084 1290.83 531.219 1061.49 543.31C1008.03 545.737 955.761 539.296 910.32 524.69C861.881 509.12 822.032 484.334 795.087 453.008C776.749 431.695 764.101 407.242 757.494 380.337C750.419 351.536 750.24 319.709 756.955 285.741C765.384 238.641 793.042 197.139 834.823 168.901C879.854 138.47 937.852 125.171 1002.55 130.445C1083.6 136.684 1134.72 168.472 1184.16 199.216C1240.14 234.025 1293.01 266.903 1385.07 263.265C1479.61 259.383 1548.13 279.474 1593.17 324.503Z" fill="#2C2A41"/>
<path fill-rule="evenodd" clip-rule="evenodd" d="M1625.48 846.928L1625.47 846.921L1625.48 846.928ZM1693.35 634.368C1668.86 609.883 1655.5 582.348 1652.68 550.839L1652.16 545.431C1645.59 476.894 1638.79 406.025 1603.51 351.518C1563.22 289.263 1491.71 260.936 1384.89 264.923C1293.92 268.037 1240.57 236.42 1184.07 202.946C1135.22 174 1084.7 144.068 1006.66 136.625C865.609 121.923 779.953 199.358 768.234 283.446C757.331 345.05 769.857 397.328 805.457 438.869C856.439 498.348 955.212 532.411 1069.69 529.959C1164.65 526.534 1255.17 552.399 1346.41 609.031C1427.04 659.072 1498.49 726.408 1567.6 791.524C1586.84 809.657 1606.73 828.404 1626.19 846.148C1626.19 846.148 1626.2 846.15 1626.2 846.154C1718.17 931.261 1799.47 922.151 1839.74 909.144C1888.83 893.293 1928.71 854.583 1936.71 815.01C1941.13 793.123 1934.94 773.628 1919.27 760.125C1900.98 743.438 1869.13 729.914 1832.25 714.252C1794.08 698.042 1750.81 679.671 1716.64 654.306C1707.99 647.888 1700.23 641.247 1693.35 634.368ZM1582.01 321.469C1590.68 330.136 1598.43 339.761 1605.29 350.367C1640.85 405.311 1647.98 479.642 1654.27 545.228L1654.79 550.642C1662.78 639.99 1757.2 680.086 1833.08 712.303C1870.14 728.041 1902.14 741.63 1920.67 758.542C1936.92 772.541 1943.36 792.759 1938.78 815.428C1934.95 834.377 1923.55 854.137 1906.68 871.069C1888.72 889.092 1865.8 902.953 1840.39 911.159C1799.68 924.307 1717.52 933.544 1624.76 847.705C1605.3 829.957 1585.39 811.201 1566.15 793.065C1426.01 661.01 1281.09 524.455 1069.75 532.072C1015.75 533.23 963.489 526.136 918.588 511.563C869.295 495.565 830.687 471.578 803.853 440.245C767.818 398.201 755.133 345.334 766.145 283.117C772.563 237.055 799.119 196.557 840.917 169.119C885.553 139.821 942.94 127.855 1006.87 134.52C1085.38 142.006 1136.1 172.061 1185.15 201.125C1241.37 234.438 1294.47 265.9 1384.82 262.808C1474.3 259.468 1539.25 278.711 1582.01 321.469Z" fill="#362942"/>
<path fill-rule="evenodd" clip-rule="evenodd" d="M1620.37 838.959L1620.36 838.952L1620.37 838.959ZM1678.78 629.126C1655.27 605.612 1642.36 579.166 1639.53 548.907C1639.02 544.087 1638.53 539.219 1638.03 534.325C1624.98 405.901 1610.18 260.343 1384.55 267.863C1295.21 270.422 1241.55 240.195 1184.74 208.19C1136.34 180.927 1086.29 152.736 1010.87 144.094C940.712 135.135 877.529 149.769 832.938 185.3C800.847 210.873 781.106 245.981 777.353 284.156C768.444 341.725 780.805 390.638 814.076 429.594C863.952 487.985 960.116 521.711 1077.9 522.115C1165.56 520.503 1249.58 545.322 1334.74 597.988C1410.05 644.566 1477.39 706.83 1542.51 767.044C1568.27 790.865 1594.91 815.496 1621.06 838.16C1621.06 838.163 1621.06 838.165 1621.07 838.169C1712.51 919.221 1790.46 908.875 1828.78 895.493C1874.82 879.419 1910.22 843.119 1916.88 805.162C1920.75 783.094 1913.79 763.528 1897.26 750.073C1879.36 734.22 1848.89 721.345 1813.6 706.436C1776.67 690.832 1734.81 673.146 1701.71 648.703C1693.18 642.409 1685.54 635.888 1678.78 629.126ZM1570.85 321.8C1579 329.948 1586.3 338.986 1592.77 348.933C1626.59 400.89 1633.48 468.616 1640.14 534.11C1640.63 539.001 1641.13 543.867 1641.63 548.698C1649.71 634.891 1741.04 673.478 1814.43 704.484C1849.89 719.467 1880.51 732.406 1898.62 748.459C1915.74 762.388 1922.98 782.666 1918.96 805.526C1912.18 844.213 1876.21 881.169 1829.48 897.489C1799.38 907.998 1766 909.541 1732.97 901.949C1694.33 893.07 1656.21 872.147 1619.67 839.758C1593.49 817.069 1566.84 792.427 1541.07 768.594C1409.24 646.697 1272.93 520.646 1077.92 524.229C1023.26 524.041 970.984 516.292 926.731 501.823C877.252 485.643 838.805 461.795 812.467 430.965C778.775 391.521 766.254 342.037 775.253 283.887C779.057 245.199 799.078 209.579 831.62 183.645C876.66 147.75 940.407 132.96 1011.12 141.989C1086.96 150.682 1137.19 178.98 1185.78 206.345C1242.33 238.201 1295.74 268.289 1384.48 265.747C1468.99 262.929 1530.37 281.318 1570.85 321.8Z" fill="#412943"/>
<path fill-rule="evenodd" clip-rule="evenodd" d="M1615.34 827.33L1615.33 827.323L1615.34 827.33ZM1664.3 620.101C1643.87 599.665 1629.56 574.759 1626.46 543.316C1625.6 535.716 1624.77 527.845 1623.97 520.233C1617.41 458.168 1610.64 393.991 1578.87 345.278C1542.79 289.946 1479.14 264.388 1384.29 267.142C1296.45 269.141 1242.37 240.254 1185.13 209.672C1137.29 184.116 1087.82 157.69 1015.16 147.901C945.292 137.281 880.259 151.469 836.726 186.824C806.4 211.448 788.582 244.964 786.558 281.2C779.546 334.796 791.712 380.379 822.714 416.761C888.225 493.639 1015.92 508.557 1086.21 510.614C1167.19 510.644 1245.21 534.624 1324.67 583.922C1395 627.55 1458.37 685.452 1519.65 741.445C1552.63 771.581 1583.78 800.044 1616.01 826.513C1616.02 826.515 1616.02 826.519 1616.02 826.522C1706.84 903.404 1781.33 891.923 1817.65 878.236C1859.96 862.29 1891.96 827.542 1897.28 791.767C1900.59 769.464 1892.8 749.787 1875.34 736.357C1857.85 721.344 1827.35 708.53 1795.06 694.965C1750.29 676.15 1698.65 654.445 1664.3 620.101ZM1559.66 318.27C1610.1 368.71 1618.39 447.242 1626.07 520.013C1626.87 527.619 1627.7 535.484 1628.56 543.092C1636.75 626.139 1724.98 663.221 1795.88 693.012C1829.73 707.236 1858.97 719.52 1876.67 734.716C1894.73 748.597 1902.8 768.981 1899.37 792.078C1893.95 828.587 1861.41 864.008 1818.4 880.213C1789.9 890.953 1757.88 893.059 1725.81 886.298C1688.31 878.397 1650.92 858.832 1614.67 828.147C1582.4 801.644 1551.23 773.161 1518.23 743.009C1394.36 629.83 1266.28 512.795 1086.18 512.727C1030.67 511.106 978.375 502.701 934.928 488.425C885.227 472.091 846.938 448.437 821.102 418.131C789.697 381.275 777.367 335.141 784.452 281.002C786.503 244.243 804.596 210.186 835.389 185.181C879.386 149.452 945.02 135.099 1015.46 145.803C1088.48 155.646 1138.12 182.161 1186.12 207.805C1243.12 238.253 1296.95 267.013 1384.24 265.026C1471.15 262.503 1525.22 283.846 1559.66 318.27Z" fill="#4B2844"/>
<path fill-rule="evenodd" clip-rule="evenodd" d="M1611.99 817.19L1611.98 817.183L1611.99 817.19ZM1651.49 612.69C1631.92 593.118 1618.18 569.278 1615.06 539.213C1613.83 529.063 1612.69 518.487 1611.59 508.26C1605.23 449.262 1598.66 388.256 1568.7 342.21C1534.75 290.04 1474.89 265.733 1385.71 267.911C1299.16 269.339 1244.53 241.731 1186.69 212.505C1139.56 188.686 1090.82 164.06 1021.13 153.195C950.577 140.707 885.438 153.997 842.395 189.66C813.808 213.339 797.843 245.325 797.433 279.731C792.214 329.416 804.166 371.712 832.95 405.54C892.274 475.23 1008.84 495.705 1096.19 500.6C1263.39 503.997 1383.9 613.513 1500.43 719.421C1538.71 754.207 1574.87 787.061 1612.64 816.354C1612.64 816.356 1612.65 816.361 1612.65 816.367C1702.75 888.961 1773.69 876.451 1807.95 862.534C1846.66 846.812 1875.41 813.636 1879.51 779.978C1882.25 757.383 1873.58 737.552 1855.09 724.133C1838.01 709.957 1808.97 697.829 1778.22 684.986C1734.83 666.861 1684.74 645.94 1651.49 612.69ZM1550.73 316.623C1558.07 323.963 1564.64 332.104 1570.47 341.056C1600.71 387.526 1607.31 448.79 1613.69 508.034C1614.79 518.253 1615.93 528.821 1617.17 538.976C1625.46 618.886 1710.61 654.452 1779.04 683.032C1809.93 695.938 1839.12 708.127 1856.39 722.462C1875.48 736.309 1884.45 756.841 1881.61 780.234C1879.59 796.797 1871.89 813.439 1859.31 828.358C1846.23 843.878 1828.75 856.373 1808.75 864.495C1781.88 875.408 1751.26 878.035 1720.17 872.092C1683.87 865.153 1647.25 846.959 1611.33 818.019C1573.5 788.678 1537.32 755.798 1499.01 720.987C1382.76 615.339 1262.55 506.096 1096.11 502.714C1038.69 499.496 987.786 490.684 944.763 476.52C894.808 460.068 856.649 436.649 831.34 406.912C802.163 372.624 790.045 329.792 795.323 279.608C795.735 244.67 811.974 212.113 841.043 188.029C884.568 151.972 950.332 138.515 1021.47 151.107C1091.48 162.022 1140.36 186.727 1187.64 210.615C1245.24 239.72 1299.65 267.213 1385.67 265.794C1460.39 263.97 1514.75 280.646 1550.73 316.623Z" fill="#562845"/>
<path fill-rule="evenodd" clip-rule="evenodd" d="M1606.92 808.592L1606.91 808.585L1606.92 808.592ZM1636.97 606.816C1618.26 588.109 1605.09 565.334 1601.95 536.653C1600.31 524.168 1598.9 511.075 1597.53 498.413C1591.49 442.377 1585.23 384.434 1557.09 340.911C1525.28 291.719 1469.12 268.595 1385.41 270.22C1299.89 271.063 1244.49 244.649 1185.83 216.686C1139.61 194.65 1091.82 171.867 1025.38 160.029C955.25 145.803 888.415 158.45 846.566 193.853C819.686 216.593 805.486 247.117 806.589 279.803C806.589 279.843 806.587 279.88 806.587 279.92C797.039 403.35 897.255 474.749 1104.46 492.128C1259.07 498.556 1372.05 601.297 1481.31 700.655C1524.2 739.654 1564.71 776.49 1607.54 807.736C1607.55 807.739 1607.55 807.745 1607.56 807.748C1672.76 857.558 1741.56 872.396 1796.3 848.458C1832.09 832.803 1857.17 801.95 1860.2 769.847C1862.36 746.902 1852.75 726.874 1833.13 713.448C1816.47 700.111 1788.89 688.668 1759.69 676.552C1717.66 659.114 1669.13 638.98 1636.97 606.816ZM1539.99 316.322C1547.02 323.357 1553.31 331.164 1558.87 339.763C1587.28 383.708 1593.56 441.906 1599.64 498.187C1601 510.838 1602.41 523.917 1604.05 536.4C1612.46 613.178 1694.54 647.233 1760.5 674.599C1789.85 686.774 1817.56 698.272 1834.39 711.75C1854.61 725.581 1864.54 746.303 1862.31 770.048C1859.21 802.901 1833.63 834.44 1797.15 850.395C1771.93 861.423 1742.72 864.535 1712.68 859.395C1677.63 853.396 1641.83 836.59 1606.29 809.442C1563.36 778.129 1522.81 741.258 1479.89 702.22C1370.91 603.116 1258.22 500.641 1104.32 494.241C895.728 476.742 794.858 404.595 804.472 279.817C803.368 246.492 817.83 215.393 845.197 192.238C887.541 156.42 955.043 143.602 1025.77 157.95C1092.48 169.833 1140.4 192.682 1186.74 214.777C1245.17 242.631 1300.36 268.943 1385.38 268.105C1455.3 266.747 1506.23 282.571 1539.99 316.322Z" fill="#602746"/>
<path fill-rule="evenodd" clip-rule="evenodd" d="M1601.76 799.922L1601.75 799.915L1601.76 799.922ZM1622.35 600.874C1604.5 583.029 1591.9 561.326 1588.74 534.025C1586.68 519.407 1585.04 503.973 1583.46 489.045C1577.81 435.869 1571.98 380.877 1545.67 339.75C1516 293.375 1463.46 271.364 1385.02 272.461C1300.15 272.699 1243.67 247.359 1183.88 220.531C1138.88 200.336 1092.34 179.456 1029.53 166.796C958.859 150.568 892.078 162.159 850.864 197.797C825.641 219.609 813.133 248.732 815.651 279.806C815.655 279.849 815.656 279.894 815.653 279.94C812.512 346.356 841.63 395.36 904.674 429.756C952.551 455.874 1018.63 472.981 1112.63 483.59C1255.64 492.782 1361.44 589.608 1463.76 683.245C1510.61 726.121 1554.87 766.619 1602.35 799.048C1602.36 799.055 1602.37 799.059 1602.37 799.066C1666.88 845.581 1733.2 858.461 1784.33 834.404C1816.76 819.149 1839.01 789.853 1841.01 759.768C1842.57 736.417 1831.94 716.146 1811.08 702.693C1794.86 690.201 1768.75 679.447 1741.1 668.061C1700.43 651.314 1653.43 631.958 1622.35 600.874ZM1529.07 315.615C1535.9 322.444 1542.01 330.092 1547.46 338.61C1574.03 380.157 1579.89 435.4 1585.57 488.822C1587.15 503.731 1588.78 519.145 1590.85 533.753C1599.37 607.406 1678.4 639.951 1741.91 666.103C1769.69 677.544 1795.93 688.35 1812.3 700.966C1833.76 714.801 1844.74 735.753 1843.12 759.906C1841.07 790.747 1818.34 820.74 1785.23 836.319C1761.68 847.399 1733.92 850.953 1704.94 846.597C1671.19 841.518 1636.27 826.107 1601.15 800.785C1553.55 768.273 1509.24 727.728 1462.34 684.805C1360.29 591.415 1254.76 494.844 1112.44 485.695C1018.11 475.05 951.788 457.864 903.661 431.61C873.731 415.281 850.981 395.137 836.042 371.726C819.468 345.76 811.898 314.867 813.536 279.906C810.987 248.168 823.751 218.446 849.483 196.193C869.187 179.156 895.654 167.117 926.028 161.372C958.079 155.31 994.026 156.47 1029.98 164.726C1092.99 177.427 1139.64 198.357 1184.75 218.598C1244.33 245.33 1300.6 270.582 1385 270.344C1427.41 269.748 1461.54 275.647 1489.34 288.364C1504.7 295.394 1517.85 304.403 1529.07 315.615Z" fill="#6B2747"/>
<path fill-rule="evenodd" clip-rule="evenodd" d="M1596.58 787.2L1596.58 787.193L1596.58 787.2ZM1607.72 591.001C1589.06 572.342 1578.47 551.339 1575.53 527.341C1573.02 510.782 1571.22 493.173 1569.47 476.145C1559.07 374.464 1548.32 269.323 1384.62 270.644C1299.83 270.246 1241.82 245.794 1180.4 219.905C1137.06 201.642 1092.25 182.754 1033.68 169.505C963.591 151.471 895.284 162.198 855.38 197.495C831.746 218.398 820.852 246.19 824.701 275.75C824.707 275.798 824.71 275.848 824.709 275.9C822.656 416.547 976.464 450.352 1120.8 470.994C1253.08 482.711 1352.04 574.347 1447.75 662.967C1497.96 709.462 1545.39 753.38 1597.15 786.306C1597.16 786.312 1597.17 786.317 1597.18 786.324C1660.89 829.469 1724.67 840.433 1772.16 816.403C1801.83 801.389 1820.95 774.314 1822.05 745.747C1822.98 721.929 1811.24 701.378 1789.02 687.882C1773.26 676.233 1748.63 666.172 1722.54 655.52C1691.74 642.941 1656.82 628.684 1629.02 608.853C1621.02 603.148 1613.92 597.202 1607.72 591.001ZM1518.55 311.214C1525.17 317.841 1531.07 325.286 1536.31 333.601C1561.04 372.873 1566.4 425.263 1571.58 475.929C1573.32 492.934 1575.12 510.515 1577.63 527.054C1586.27 597.588 1662.27 628.626 1723.34 653.561C1749.55 664.267 1774.31 674.376 1790.2 686.129C1813.03 699.986 1825.12 721.208 1824.17 745.828C1823.03 775.164 1803.47 802.931 1773.11 818.292C1751.22 829.368 1724.91 833.323 1697.04 829.729C1664.63 825.549 1630.64 811.537 1596 788.086C1544.08 755.058 1496.59 711.079 1446.31 664.519C1350.86 576.142 1252.17 484.755 1120.55 473.096C975.3 452.325 820.572 418.248 822.591 275.945C818.678 245.697 829.823 217.275 853.976 195.91C894.399 160.155 963.447 149.248 1034.17 167.447C1092.9 180.732 1137.8 199.656 1181.22 217.957C1242.44 243.76 1300.26 268.133 1384.61 268.529C1424.28 268.209 1456.18 273.93 1482.11 286.019C1496.16 292.571 1508.23 300.904 1518.55 311.214Z" fill="#762748"/>
<path fill-rule="evenodd" clip-rule="evenodd" d="M1591.42 777.959L1591.41 777.952L1591.42 777.959ZM1593.09 584.485C1575.41 566.8 1565.29 546.885 1562.33 524.138C1559.33 505.823 1557.45 486.194 1555.62 467.211C1551.02 419.447 1546.27 370.056 1523.65 333.362C1498.25 292.172 1452.64 272.203 1384.22 272.314C1298.61 271.224 1241.07 248.458 1174.44 222.092C1133.53 205.903 1091.21 189.161 1037.83 175.697C968.417 155.847 898.674 165.582 860.118 200.491C838.014 220.505 828.654 247.028 833.756 275.174C833.765 275.229 833.771 275.285 833.772 275.34C836.625 410.885 991.94 437.979 1128.97 461.885C1251.31 475.907 1343.75 562.965 1433.16 647.159C1486.17 697.087 1536.25 744.242 1591.96 777.047C1591.97 777.052 1591.98 777.059 1591.99 777.065C1654.79 816.775 1715.97 825.865 1759.82 802.002C1786.41 787.531 1803.1 761.983 1803.38 735.33C1803.63 711.336 1790.35 689.91 1766.96 676.554C1766.93 676.536 1766.9 676.518 1766.87 676.499C1751.7 665.754 1728.54 656.388 1704.03 646.474C1674.43 634.497 1640.87 620.926 1614.12 602.017C1606.2 596.424 1599.2 590.586 1593.09 584.485ZM1508.26 310.335C1546.31 348.385 1552.08 408.301 1557.73 467.007C1559.55 485.957 1561.44 505.551 1564.42 523.83C1573.2 591.264 1646.18 620.79 1704.82 644.512C1729.43 654.464 1752.68 663.869 1768.06 674.741C1792.1 688.493 1805.75 710.582 1805.49 735.351C1805.21 762.771 1788.1 789.023 1760.83 803.861C1740.59 814.877 1715.75 819.191 1689.01 816.337C1657.98 813.022 1624.96 800.414 1590.87 778.86C1534.96 745.935 1484.8 698.703 1431.71 648.7C1342.56 564.743 1250.37 477.929 1128.67 463.977C1060.99 452.174 984.347 438.803 926.841 410.863C864.1 380.382 832.963 336.088 831.66 275.469C826.454 246.607 836.056 219.424 858.697 198.923C877.32 182.061 903.406 170.604 934.138 165.786C966.563 160.703 1002.61 163.424 1038.38 173.653C1091.87 187.142 1134.24 203.911 1175.22 220.125C1241.66 246.412 1299.03 269.112 1384.23 270.196C1445.12 270.098 1483.52 285.593 1508.26 310.335Z" fill="#802649"/>
<path fill-rule="evenodd" clip-rule="evenodd" d="M1588.13 769.967L1588.12 769.96L1588.13 769.967ZM1580.34 579.214C1563.63 562.5 1553.97 543.677 1551 522.186C1547.5 502.284 1545.62 480.781 1543.79 459.989C1539.82 414.786 1535.71 368.042 1514.92 333.405C1491.63 294.605 1449.37 275.574 1385.7 275.228C1297.7 273.353 1236.66 250.624 1165.99 224.305C1128.83 210.464 1090.4 196.152 1043.85 183.134C974.133 161.125 904.709 169.536 866.946 204.548C846.298 223.695 838.392 249.015 844.682 275.847C844.697 275.905 844.704 275.966 844.707 276.026C847.975 330.418 875.552 368.836 931.497 396.919C981.149 421.849 1045.38 434.926 1113.39 448.775C1121.92 450.514 1130.47 452.256 1139.02 454.024C1252.12 470.158 1338.36 553.16 1421.76 633.428C1477.05 686.645 1529.27 736.906 1588.64 769.037C1588.65 769.041 1588.66 769.048 1588.67 769.053C1650.45 805.272 1708.97 812.535 1749.2 788.979C1773.27 774.893 1787.36 751.45 1786.89 726.27C1786.44 701.7 1771.82 679.903 1746.78 666.47C1746.75 666.456 1746.72 666.436 1746.69 666.417C1732.03 656.523 1710.38 647.858 1687.45 638.684C1659.04 627.314 1626.84 614.427 1601.11 596.439C1593.27 590.952 1586.35 585.22 1580.34 579.214ZM1499.9 310.754C1535.97 346.825 1540.98 403.897 1545.89 459.804C1547.72 480.555 1549.6 502.011 1553.08 521.86C1562 586.206 1632 614.214 1688.24 636.722C1711.25 645.928 1732.99 654.628 1747.83 664.634C1773.53 678.438 1788.54 700.887 1789.01 726.232C1789.49 752.187 1775.01 776.326 1750.27 790.806C1709.36 814.757 1650.07 807.499 1587.61 770.888C1528 738.62 1475.68 688.265 1420.29 634.954C1337.13 554.917 1251.14 472.155 1138.65 456.11C1130.05 454.326 1121.5 452.586 1112.96 450.851C1044.82 436.974 980.45 423.866 930.547 398.811C903.661 385.315 883.59 369.614 869.183 350.809C853.06 329.761 844.364 305.369 842.6 276.245C836.166 248.671 844.298 222.664 865.507 202.997C883.534 186.284 909.381 175.174 940.254 170.873C972.837 166.335 1008.87 169.876 1044.45 181.108C1091.05 194.142 1129.53 208.468 1166.73 222.322C1237.22 248.575 1298.1 271.248 1385.73 273.114C1441.58 273.419 1477 287.856 1499.9 310.754Z" fill="#8B264A"/>
<path fill-rule="evenodd" clip-rule="evenodd" d="M1583.1 759.937L1583.1 759.93L1583.1 759.937ZM1565.85 571.906C1550.11 556.168 1540.92 538.438 1537.92 518.198C1533.9 496.876 1532.12 473.639 1530.39 451.167C1527.1 408.432 1523.7 364.243 1504.73 331.56C1483.53 295.028 1444.51 276.89 1385.44 276.108C1291.96 273.257 1224.77 249.453 1146.97 221.889C1116.31 211.027 1084.61 199.797 1048.13 188.537C979.272 164.677 908.599 171.857 872.245 206.388C852.971 224.693 846.444 248.877 853.866 274.485C853.883 274.546 853.896 274.608 853.901 274.671C858.877 322.974 884.075 357.36 933.206 382.89C977.126 405.713 1034.42 418.541 1095.08 432.125C1112.18 435.955 1129.87 439.915 1147.33 444.132C1251.82 462.191 1332.15 541.58 1409.84 618.356C1466.91 674.763 1520.82 728.039 1583.57 758.989C1583.58 758.995 1583.59 759 1583.6 759.005C1644.24 791.686 1700.06 797.173 1736.75 774.06C1758.07 760.62 1770.14 738.648 1769.02 715.281C1767.81 690.075 1751.71 667.867 1724.86 654.352C1724.83 654.334 1724.8 654.318 1724.76 654.298C1710.67 645.26 1690.53 637.3 1669.2 628.872C1641.97 618.108 1611.1 605.908 1586.4 588.838C1578.61 583.458 1571.77 577.823 1565.85 571.906ZM1490.21 309.05C1496.45 315.294 1501.88 322.421 1506.57 330.499C1525.77 363.601 1529.19 408.034 1532.5 451.004C1534.22 473.419 1536.01 496.601 1540.01 517.851C1549.08 579.124 1616.12 605.616 1669.98 626.906C1691.38 635.362 1711.59 643.351 1725.86 652.487C1753.38 666.36 1769.88 689.205 1771.13 715.179C1772.29 739.317 1759.86 761.998 1737.87 775.85C1700.53 799.378 1643.94 793.922 1582.62 760.877C1519.56 729.777 1465.54 676.386 1408.35 619.861C1330.9 543.314 1250.8 464.163 1146.9 446.2C1129.39 441.977 1111.72 438.016 1094.62 434.188C1033.82 420.576 976.394 407.716 932.229 384.769C882.439 358.896 856.883 324.012 851.807 274.982C844.196 248.612 850.934 223.708 870.786 204.854C887.942 188.558 914.212 177.55 944.753 173.858C977.475 169.899 1013.45 174.28 1048.79 186.527C1085.27 197.789 1116.99 209.026 1147.67 219.895C1228.51 248.533 1292.36 271.152 1385.48 273.992C1417.49 274.417 1443.09 279.68 1463.73 290.09C1473.84 295.193 1482.63 301.471 1490.21 309.05Z" fill="#95254B"/>
<path fill-rule="evenodd" clip-rule="evenodd" d="M1578.05 749.573L1578.04 749.566L1578.05 749.573ZM1551.33 564.258C1536.57 549.495 1527.84 532.855 1524.83 513.877C1520.25 491.294 1518.68 466.45 1517.16 442.424C1514.6 402.067 1511.95 360.339 1494.8 329.518C1475.39 294.657 1440.55 277.861 1385.15 276.651C1279.02 272.365 1206.45 247.092 1106.02 212.113C1088.91 206.153 1071.21 199.991 1052.39 193.601C984.477 167.899 912.658 173.708 877.71 207.712C859.734 225.204 854.516 248.312 863.02 272.784C863.04 272.846 863.056 272.909 863.067 272.974C877.21 367.029 971.921 389.434 1081.59 415.378C1105.78 421.102 1130.8 427.016 1155.61 433.898C1252.08 453.725 1326.78 529.882 1399.02 603.525C1457.42 663.061 1512.58 719.294 1578.48 748.605C1578.49 748.61 1578.5 748.616 1578.51 748.621C1637.87 777.735 1690.97 781.499 1724.2 758.947C1742.99 746.189 1753.2 725.665 1751.51 704.046C1749.49 678.157 1731.78 655.505 1702.91 641.897C1702.88 641.881 1702.85 641.863 1702.82 641.843C1689.32 633.664 1670.71 626.415 1651.01 618.74C1624.94 608.582 1595.39 597.068 1571.69 580.914C1563.94 575.637 1557.16 570.092 1551.33 564.258ZM1480.66 307.111C1486.83 313.283 1492.13 320.381 1496.64 328.488C1514.04 359.727 1516.69 401.7 1519.27 442.289C1520.79 466.245 1522.36 491.016 1526.91 513.501C1536.15 571.722 1600.27 596.702 1651.78 616.768C1671.54 624.467 1690.21 631.74 1703.87 640.005C1733.41 653.948 1751.54 677.228 1753.62 703.881C1755.37 726.268 1744.81 747.508 1725.38 760.696C1691.52 783.684 1637.65 779.977 1577.6 750.53C1511.34 721.053 1453.47 662.062 1397.51 605.006C1325.48 531.593 1251.02 455.667 1155.12 435.954C1130.27 429.067 1105.27 423.156 1081.1 417.436C1026.63 404.55 975.188 392.383 935.647 371.569C891.306 348.228 867.579 317.031 860.988 273.386C852.245 248.129 857.659 224.271 876.232 206.196C911.749 171.637 984.481 165.638 1053.11 191.608C1071.9 197.99 1089.6 204.154 1106.71 210.115C1206.98 245.033 1279.42 270.262 1385.21 274.536C1414.85 275.183 1438.48 280.314 1457.45 290.224C1466.28 294.836 1473.98 300.43 1480.66 307.111Z" fill="#A0254C"/>
<path fill-rule="evenodd" clip-rule="evenodd" d="M1572.98 738.746L1572.97 738.739L1572.98 738.746ZM1536.79 556.148C1523 542.361 1514.74 526.818 1511.72 509.096C1506.56 485.407 1505.33 459.079 1504.13 433.62C1502.26 393.8 1500.49 356.188 1485.12 327.14C1467.77 294.356 1435.9 278.34 1384.85 276.733C1269.31 270.838 1186.96 246.713 1056.63 198.203C980.866 167.02 912.117 179.739 883.346 208.413C866.586 225.116 862.613 247.207 872.157 270.625C872.182 270.686 872.2 270.75 872.214 270.814C889.18 354.381 973.76 374.879 1071.69 398.621C1101.76 405.91 1132.85 413.447 1163.88 423.209C1252.85 444.647 1322.19 517.893 1389.25 588.725C1445.92 648.597 1504.54 710.506 1573.37 737.763C1573.38 737.768 1573.39 737.773 1573.41 737.779C1659.75 775.832 1714.37 756.647 1730.19 720.752C1736.96 705.381 1736.28 687.846 1728.26 671.379C1719.52 653.427 1703.16 638.768 1680.95 628.98C1680.92 628.964 1680.89 628.948 1680.85 628.93C1668.02 621.61 1650.97 615.08 1632.92 608.17C1607.98 598.617 1579.72 587.791 1557 572.551C1549.28 567.371 1542.55 561.913 1536.79 556.148ZM1471.37 304.751C1477.49 310.871 1482.67 317.973 1486.99 326.148C1502.59 355.616 1504.45 395.219 1506.25 433.52C1507.44 458.892 1508.67 485.13 1513.79 508.693C1523.22 563.887 1581.91 586.364 1633.68 606.191C1651.78 613.124 1668.88 619.675 1681.86 627.064C1704.5 637.056 1721.2 652.057 1730.16 670.449C1738.46 687.488 1739.16 705.655 1732.13 721.604C1715.88 758.461 1660.25 778.356 1572.57 739.723C1503.31 712.291 1444.54 650.213 1387.71 590.179C1320.87 519.57 1251.74 446.558 1163.32 425.244C1132.28 415.484 1101.23 407.955 1071.19 400.674C972.596 376.773 887.44 356.135 870.161 271.332C860.323 247.109 864.474 224.232 881.855 206.912C897.731 191.089 923.367 181.005 954.049 178.51C986.988 175.831 1022.73 181.959 1057.41 196.233C1187.49 244.65 1269.69 268.737 1384.93 274.616C1412.27 275.479 1434.01 280.485 1451.37 289.923C1458.93 294.038 1465.57 298.954 1471.37 304.751Z" fill="#AA244D"/>
<path fill-rule="evenodd" clip-rule="evenodd" d="M1568.01 731.107L1568 731.1L1568.01 731.107ZM1522.35 551.22C1509.54 538.411 1501.75 523.963 1498.71 507.504C1492.94 482.857 1492.19 455.16 1491.45 428.376C1489.41 354.304 1487.49 284.341 1384.64 280.001C1262.48 272.363 1174.76 252.303 1060.98 205.99C1027 190.835 991.775 183.868 959.088 185.829C928.906 187.639 904.105 196.984 889.252 212.137C873.63 228.074 870.839 249.214 881.396 271.654C881.423 271.713 881.444 271.774 881.46 271.837C890.348 305.783 911.115 330.104 946.815 348.384C979.107 364.92 1020.68 374.976 1064.7 385.625C1099.71 394.092 1135.9 402.847 1172.26 415.707C1254.2 438.618 1318.44 509.229 1380.55 577.515C1437.7 640.334 1496.79 705.291 1568.36 730.107C1568.37 730.112 1568.38 730.116 1568.39 730.121C1607.22 745.247 1641.91 750.344 1668.73 744.861C1691.54 740.197 1707.95 728.024 1714.94 710.582C1726.33 682.126 1710.63 640.447 1659.09 619.248C1659.06 619.234 1659.03 619.22 1659 619.203C1646.89 612.748 1631.43 606.95 1615.08 600.811C1591.24 591.863 1564.23 581.725 1542.48 567.4C1534.76 562.31 1528.05 556.927 1522.35 551.22ZM1462.46 305.622C1468.54 311.706 1473.59 318.835 1477.72 327.123C1491.55 354.902 1492.53 390.564 1493.56 428.319C1494.3 454.999 1495.06 482.585 1500.78 507.071C1510.42 559.27 1566.41 580.286 1615.82 598.83C1632.22 604.986 1647.72 610.803 1659.95 617.31C1675.87 623.867 1688.45 632.365 1697.92 641.832C1719.82 663.73 1725.12 690.851 1716.9 711.369C1709.64 729.493 1692.69 742.122 1669.15 746.935C1641.94 752.499 1606.84 747.37 1567.65 732.1C1495.58 707.102 1436.31 641.948 1378.99 578.94C1317.07 510.874 1253.04 440.492 1171.62 417.722C1135.3 404.878 1099.16 396.134 1064.2 387.679C975.677 366.268 899.217 347.772 879.438 272.466C868.53 249.199 871.476 227.251 887.742 210.655C902.959 195.127 928.254 185.559 958.963 183.717C991.986 181.734 1027.55 188.766 1061.81 204.044C1175.33 250.25 1262.86 270.265 1384.75 277.889C1409.88 278.949 1429.79 283.836 1445.58 292.831C1451.91 296.442 1457.53 300.689 1462.46 305.622Z" fill="#B5244E"/>
<path fill-rule="evenodd" clip-rule="evenodd" d="M1563.29 719.349L1563.29 719.342L1563.29 719.349ZM1508.15 542.172C1496.32 530.342 1489 516.993 1485.95 501.795C1479.55 476.336 1479.42 447.379 1479.28 419.378C1478.95 349.888 1478.64 284.254 1384.69 279.152C1270.09 270.554 1180.14 260.539 1065.57 209.657C1032.55 193.746 996.597 185.662 964.319 186.879C934.598 187.997 909.538 197.005 895.566 211.592C881.003 226.795 879.341 247.027 890.881 268.564C890.911 268.619 890.934 268.679 890.952 268.736C912.492 334.409 980.954 350.516 1060.22 369.171C1099.42 378.392 1139.95 387.929 1180.88 404.087C1256.24 428.339 1315.62 496.554 1373.03 562.524C1430.28 628.297 1489.47 696.31 1563.6 718.335C1563.61 718.338 1563.62 718.342 1563.63 718.346C1648.4 746.932 1690.26 724.352 1700.34 696.329C1705.72 681.396 1702.86 663.511 1692.51 647.259C1681.22 629.53 1661.68 614.662 1637.49 605.397C1626.1 599.774 1612.29 594.718 1597.67 589.363C1574.9 581.025 1549.09 571.574 1528.28 558.161C1520.52 553.157 1513.81 547.838 1508.15 542.172ZM1453.97 302.205C1460.1 308.331 1465.07 315.608 1468.99 324.091C1481.07 350.263 1481.23 383.828 1481.4 419.367C1481.53 447.243 1481.67 476.07 1488.01 501.33C1497.9 550.574 1551.29 570.124 1598.4 587.376C1613.07 592.751 1626.94 597.828 1638.33 603.46C1662.86 612.847 1682.77 628.012 1694.3 646.123C1705 662.93 1707.93 681.492 1702.33 697.045C1691.92 725.967 1649.18 749.421 1562.97 720.358C1488.27 698.149 1428.88 629.906 1371.44 563.912C1314.21 498.164 1255.03 430.175 1180.17 406.079C1139.31 389.952 1098.86 380.433 1059.74 371.231C1019.83 361.838 982.134 352.969 952.338 338.288C919.17 321.951 899.035 300.083 888.972 269.481C877.011 247.102 878.806 226.025 894.038 210.128C908.388 195.148 933.976 185.903 964.239 184.761C996.857 183.533 1033.16 191.692 1066.46 207.738C1180.69 258.466 1270.47 268.46 1384.82 277.039C1416.04 278.734 1438.62 286.857 1453.97 302.205Z" fill="#C0244F"/>
<path fill-rule="evenodd" clip-rule="evenodd" d="M1558.52 710.576L1558.51 710.57L1558.52 710.576ZM1493.87 536.219C1483.84 526.187 1476.43 514.09 1473.13 499.075C1466.07 472.944 1466.72 442.83 1467.34 413.707C1468.75 348.599 1470.07 287.101 1384.67 281.287C1371.04 280.08 1357.44 279.005 1344.28 277.963C1254.08 270.828 1168.88 264.09 1070.1 216.309C1037.6 199.438 1001.91 190.41 969.586 190.875C939.917 191.301 915.268 199.692 901.953 213.899C888.379 228.386 887.792 247.764 900.301 268.464C900.332 268.512 900.355 268.564 900.378 268.616C923.735 326.595 985.761 340.419 1057.58 356.425C1098.35 365.508 1144.56 375.807 1189.45 395.456C1258.63 420.924 1313.37 486.947 1366.31 550.796C1423.31 619.548 1482.25 690.643 1558.77 709.549C1558.78 709.553 1558.79 709.555 1558.8 709.558C1594.56 719.693 1625.53 721.959 1648.35 716.121C1667.92 711.114 1681.34 700.089 1686.12 685.078C1695.36 656.142 1671.58 614.363 1615.82 594.532C1605.39 589.796 1593.28 585.498 1580.47 580.943C1549.42 569.917 1515.54 557.881 1493.87 536.219ZM1445.91 302.053C1452.01 308.152 1456.83 315.497 1460.48 324.155C1470.86 348.797 1470.18 380.347 1469.46 413.753C1468.84 442.725 1468.19 472.684 1475.19 498.57C1485.37 544.917 1536.27 562.997 1581.17 578.949C1594.03 583.518 1606.18 587.833 1616.61 592.57C1637.9 600.142 1654.62 610.91 1666.69 622.983C1686.88 643.172 1694.11 667.012 1688.14 685.72C1683.12 701.452 1669.18 712.974 1648.88 718.17C1625.69 724.101 1594.36 721.829 1558.24 711.598C1481.05 692.517 1421.9 621.158 1364.68 552.147C1311.92 488.512 1257.37 422.713 1188.66 397.418C1143.9 377.827 1097.8 367.553 1057.12 358.488C1020.92 350.422 986.738 342.805 959.26 329.999C928.689 315.753 909.362 296.523 898.445 269.485C885.445 247.927 886.141 227.677 900.409 212.45C914.112 197.827 939.316 189.192 969.556 188.757C1002.22 188.288 1038.27 197.403 1071.05 214.417C1169.45 262.011 1254.45 268.733 1344.44 275.854C1357.61 276.894 1371.22 277.971 1384.83 279.178C1412.33 281.048 1432.31 288.446 1445.91 302.053Z" fill="#CA2350"/>
<path fill-rule="evenodd" clip-rule="evenodd" d="M1553.82 701.255L1553.81 701.248L1553.82 701.255ZM1479.68 529.554C1470.53 520.396 1463.68 509.395 1460.4 495.806C1452.63 469.144 1454.24 437.968 1455.8 407.818C1457.4 376.69 1458.92 347.288 1450.37 324.518C1440.8 299.058 1419.94 285.822 1384.73 282.871C1362.75 280.6 1340.47 279.156 1318.92 277.763C1241.01 272.722 1160.44 267.51 1074.71 222.409C1042.77 204.593 1007.38 194.612 975.023 194.288C945.433 193.995 921.201 201.737 908.539 215.533C895.881 229.323 896.33 247.89 909.801 267.815C909.828 267.856 909.853 267.899 909.875 267.945C934.781 318.945 991.25 330.504 1056.63 343.888C1100.32 352.829 1149.83 362.963 1198.09 386.277C1261.47 412.847 1311.8 476.848 1360.46 538.742C1416.9 610.512 1475.25 684.729 1554.02 700.217C1554.03 700.219 1554.04 700.221 1554.05 700.222C1630.95 717.759 1665.64 697.796 1672.46 673.265C1676.57 658.482 1671.34 640.643 1658.12 624.325C1643.74 606.591 1621.06 591.948 1594.22 583.114C1584.93 579.277 1574.62 575.755 1563.71 572.024C1533.55 561.721 1500.59 550.459 1479.68 529.554ZM1438.44 301.545C1462.18 325.281 1460.08 365.808 1457.91 407.926C1456.37 437.901 1454.77 468.896 1462.44 495.263C1472.97 538.787 1521.54 555.384 1564.39 570.022C1575.34 573.762 1585.68 577.295 1594.96 581.13C1622.1 590.062 1645.13 604.942 1659.76 622.996C1673.42 639.851 1678.79 658.381 1674.5 673.833C1670.37 688.689 1658.09 699.443 1639 704.935C1617.35 711.165 1588.62 710.274 1553.6 702.292C1517.89 695.266 1483.32 675.775 1447.89 642.7C1416.37 613.273 1387.11 576.048 1358.8 540.051C1310.3 478.368 1260.15 414.587 1197.22 388.207C1149.14 364.985 1099.77 354.878 1056.21 345.959C990.304 332.47 933.386 320.819 908.007 268.939C893.973 248.147 893.606 228.674 906.98 214.104C920.046 199.864 944.856 191.873 975.044 192.174C1007.74 192.499 1043.5 202.577 1075.72 220.549C1161.03 265.43 1241.37 270.625 1319.06 275.652C1340.63 277.048 1362.93 278.491 1384.92 280.767C1410.3 282.893 1427.24 290.354 1438.44 301.545Z" fill="#D52351"/>
<path fill-rule="evenodd" clip-rule="evenodd" d="M1549.4 691.303L1549.39 691.296L1549.4 691.303ZM1465.75 522.231C1457.47 513.957 1451.2 504.053 1447.94 491.912C1439.45 464.855 1442.2 432.705 1444.87 401.617C1447.37 372.448 1449.73 344.898 1442.78 323.515C1435.03 299.668 1416.69 287.056 1385.06 283.827C1359.34 280.747 1333.66 279.659 1306.47 278.505C1233.03 275.393 1157.1 272.175 1079.6 227.879C1012.79 187.909 939.507 189.767 915.513 216.427C903.709 229.542 905.153 247.34 919.578 266.539C919.603 266.571 919.624 266.604 919.646 266.639C945.868 311.306 997.547 320.667 1057.39 331.507C1103.56 339.869 1155.89 349.345 1207.01 376.471C1264.94 404.03 1311.06 466.156 1355.66 526.238C1411.22 601.078 1468.66 678.464 1549.55 690.256C1549.56 690.258 1549.57 690.26 1549.57 690.26C1582.65 695.919 1609.35 695.565 1628.94 689.208C1645.88 683.708 1656.47 673.885 1659.57 660.799C1666.29 632.352 1635.08 589.961 1572.91 571.067C1565.01 568.143 1556.64 565.426 1547.78 562.548C1518.3 552.977 1486.01 542.497 1465.75 522.231ZM1431.44 300.317C1453.77 322.643 1450.44 361.439 1446.98 401.796C1444.33 432.683 1441.59 464.618 1449.97 491.321C1460.94 532.131 1507.42 547.223 1548.43 560.535C1557.32 563.42 1565.71 566.143 1573.59 569.061C1602.16 577.744 1626.92 592.459 1643.26 610.434C1658.58 627.31 1665.28 645.846 1661.63 661.283C1658.35 675.13 1647.28 685.481 1629.59 691.219C1609.68 697.685 1582.64 698.064 1549.23 692.348C1512.54 686.995 1477.49 667.9 1442.08 633.975C1410.61 603.81 1381.81 565.016 1353.96 527.499C1309.51 467.623 1263.55 405.713 1206.06 378.36C1155.19 351.369 1103.03 341.923 1057.01 333.588C996.678 322.661 944.568 313.231 917.85 267.761C902.785 247.681 901.395 228.952 913.94 215.011C926.38 201.19 950.785 193.872 980.902 194.935C1013.62 196.091 1049.06 207.14 1080.67 226.051C1157.71 270.082 1233.38 273.289 1306.55 276.393C1333.79 277.547 1359.51 278.637 1385.3 281.724C1407 283.94 1421.67 290.556 1431.44 300.317Z" fill="#DF2252"/>
<path fill-rule="evenodd" clip-rule="evenodd" d="M1545.14 680.676L1545.14 680.669L1545.14 680.676ZM1451.94 514.18C1444.56 506.802 1438.87 498.018 1435.65 487.346C1426.4 460.027 1430.5 426.992 1434.47 395.045C1437.86 367.752 1441.06 341.974 1435.67 321.91C1429.67 299.597 1413.74 287.583 1385.56 284.106C1358.26 280.349 1329.97 279.889 1300.02 279.403C1229.32 278.254 1156.21 277.065 1084.65 232.669C1020.27 191.436 946.07 190.154 922.742 216.55C911.737 229.004 914.143 246.067 929.521 264.591C956.906 303.595 1004.49 310.845 1059.59 319.239C1107.88 326.594 1162.62 334.93 1216.1 365.986C1268.89 394.431 1311 454.807 1351.73 513.194C1406.12 591.166 1462.36 671.792 1545.24 679.621C1545.25 679.621 1545.26 679.621 1545.26 679.623C1603.99 686.24 1642.16 674.27 1647.35 647.61C1652.9 619.076 1617.94 576.831 1551.77 558.342C1545.66 556.348 1539.45 554.473 1532.89 552.486C1503.73 543.665 1471.74 533.983 1451.94 514.18ZM1425.01 298.369C1431.01 304.368 1435.19 311.992 1437.71 321.36C1443.22 341.825 1439.99 367.8 1436.57 395.305C1432.63 427.016 1428.56 459.808 1437.67 486.701C1449.21 524.957 1493.99 538.505 1533.5 550.46C1540.08 552.45 1546.29 554.329 1552.38 556.317C1585.5 565.572 1610.92 580.798 1627.51 597.384C1644.63 614.497 1652.34 633.056 1649.42 648.014C1646.91 660.953 1636.92 670.97 1620.56 676.985C1602.24 683.712 1576.84 685.307 1545.03 681.727C1461.19 673.796 1404.66 592.765 1350 514.405C1309.41 456.22 1267.44 396.057 1215.07 367.832C1161.9 336.959 1107.38 328.655 1059.27 321.328C1003.69 312.863 955.69 305.556 927.841 265.874C911.77 246.517 909.377 228.479 921.157 215.146C932.809 201.965 957.426 195.181 987.005 197.003C1019.74 199.02 1054.82 211.048 1085.79 230.879C1156.83 274.96 1229.64 276.141 1300.06 277.285C1330.08 277.773 1358.43 278.233 1385.84 282.006C1403.23 284.155 1416.12 289.478 1425.01 298.369Z" fill="#EA2253"/>
<path fill-rule="evenodd" clip-rule="evenodd" d="M1539.25 671.069L1539.24 671.062L1539.25 671.069ZM1436.55 507.393C1430.05 500.886 1424.94 493.162 1421.73 483.811C1411.68 456.359 1417.34 422.515 1422.82 389.786C1428.56 355.551 1433.97 323.216 1419.77 303.671C1412.63 293.86 1401.07 287.879 1384.42 285.402C1356.73 281.043 1326.8 281.404 1295.11 281.787C1229.4 282.582 1154.92 283.482 1088.07 238.477C1058.07 217.948 1023.73 205.061 991.351 202.183C962.557 199.626 939.027 205.392 928.405 217.61C918.145 229.417 921.488 245.77 937.822 263.665C966.128 297.465 1010.24 302.698 1061.32 308.761C1111.41 314.708 1168.18 321.448 1223.55 356.527C1236.91 364.67 1249.52 375.107 1261.56 387.148C1292.75 418.329 1320.12 460.302 1346.84 501.272C1399.78 582.451 1454.53 666.39 1539.3 670.01C1539.3 670.01 1539.3 670.01 1539.31 670.01C1595.68 672.968 1630.19 660.35 1634 635.387C1636.26 620.569 1626.93 602.669 1608.4 586.274C1588.58 568.744 1560.38 554.667 1528.98 546.637C1525.28 545.599 1521.55 544.579 1517.79 543.555C1487.17 535.186 1455.77 526.607 1436.55 507.393ZM1417.44 297.702C1418.91 299.17 1420.25 300.746 1421.47 302.429C1436.2 322.689 1430.72 355.453 1424.91 390.138C1419.47 422.593 1413.85 456.158 1423.72 483.105C1436.05 519.025 1477.89 530.459 1518.35 541.516C1522.11 542.54 1525.84 543.56 1529.53 544.594C1561.22 552.7 1589.73 566.943 1609.8 584.691C1628.87 601.571 1638.46 620.166 1636.09 635.709C1632.1 661.872 1596.78 675.144 1539.2 672.127C1453.35 668.458 1398.3 584.053 1345.07 502.43C1308.15 445.836 1269.99 387.312 1222.43 358.325C1167.45 323.496 1110.93 316.785 1061.07 310.863C1009.54 304.748 965.029 299.472 936.228 265.059C919.105 246.303 915.749 228.949 926.807 216.223C937.871 203.495 962.069 197.458 991.537 200.078C1024.27 202.986 1058.97 216.003 1089.25 236.729C1155.55 281.361 1226.48 280.502 1295.08 279.675C1326.86 279.29 1356.88 278.927 1384.74 283.312C1399.15 285.457 1409.92 290.186 1417.44 297.702Z" fill="#F42154"/>
<path fill-rule="evenodd" clip-rule="evenodd" d="M1421.34 499.709C1415.74 494.102 1411.22 487.49 1408.07 479.565C1397.18 452.112 1404.64 417.534 1411.85 384.096C1418.84 351.683 1425.45 321.069 1413.13 302.691C1407.29 293.969 1397.61 288.507 1383.53 285.981C1356.16 281.067 1325.17 282.363 1292.36 283.737C1227.8 286.434 1154.63 289.495 1091.74 243.568C1025.41 195.124 953.109 196.028 934.395 217.885C924.833 229.054 929.09 244.73 946.384 262.023C975.485 291.125 1016.68 294.452 1064.38 298.305C1115.98 302.475 1174.46 307.2 1231.26 346.35C1274.65 376.266 1309.32 433.422 1342.84 488.699C1394.08 573.164 1447.05 660.505 1533.61 659.687C1586.86 659.182 1618.86 645.584 1621.42 622.383C1623.06 607.434 1612.2 589.462 1591.59 573.08C1569.77 555.722 1539.53 541.917 1506.46 534.214L1505.61 534.019C1472.34 526.271 1440.49 518.853 1421.34 499.709ZM1410.6 296.29C1412.2 297.89 1413.63 299.629 1414.89 301.514C1427.71 320.64 1421.01 351.68 1413.92 384.541C1406.77 417.67 1399.38 451.927 1410.04 478.787C1423.51 512.727 1463.62 522.071 1506.09 531.959L1506.94 532.156C1540.31 539.928 1570.85 553.875 1592.91 571.426C1614.09 588.274 1625.25 606.929 1623.52 622.616C1621.94 636.947 1608.17 661.095 1533.63 661.8L1533.62 660.744L1533.63 661.8C1445.86 662.633 1392.57 574.769 1341.03 489.796C1307.63 434.711 1273.08 377.748 1230.05 348.092C1173.73 309.265 1115.54 304.563 1064.21 300.415C1016.09 296.528 974.54 293.169 944.889 263.518C920.349 238.978 926.774 223.533 932.787 216.507C943.28 204.253 967.057 198.988 996.393 202.424C1029.11 206.256 1063.42 220.26 1092.99 241.859C1155.28 287.349 1228.06 284.306 1292.27 281.622C1325.2 280.244 1356.3 278.943 1383.91 283.898C1395.58 285.992 1404.38 290.069 1410.6 296.29Z" fill="#FF2155"/>
</g>
</g>
<defs>
<linearGradient id="paint0_linear" x1="-555.266" y1="268.196" x2="-157.6" y2="1129.47" gradientUnits="userSpaceOnUse">
<stop stop-color="#FBB63F"/>
<stop offset="0.981306" stop-color="#B069A1"/>
</linearGradient>
</defs>
</svg>
