<svg width="1438" height="669" viewBox="0 0 1438 669" fill="none" xmlns="http://www.w3.org/2000/svg">
<path d="M-19 668.5C13.6667 600.167 115.4 458.3 261 437.5C443 411.5 536 174.5 712 148.5C888 122.5 960.5 205.5 1038.5 165.5C1116.5 125.5 1191 107.5 1240.5 128C1280.1 144.4 1388 50.1667 1437 1" stroke="white" stroke-opacity="0.6"/>
<path opacity="0.2" fill-rule="evenodd" clip-rule="evenodd" d="M1365 77C1371.63 77 1377 71.6274 1377 65C1377 58.3726 1371.63 53 1365 53C1358.37 53 1353 58.3726 1353 65C1353 71.6274 1358.37 77 1365 77Z" fill="#FBB63F"/>
<path opacity="0.4" fill-rule="evenodd" clip-rule="evenodd" d="M1365 73.7543C1369.83 73.7543 1373.75 69.8349 1373.75 65.0002C1373.75 60.1654 1369.83 56.2461 1365 56.2461C1360.17 56.2461 1356.25 60.1654 1356.25 65.0002C1356.25 69.8349 1360.17 73.7543 1365 73.7543Z" fill="#FBB63F"/>
<path fill-rule="evenodd" clip-rule="evenodd" d="M1365 70.1143C1367.82 70.1143 1370.11 67.8243 1370.11 64.9995C1370.11 62.1747 1367.82 59.8848 1365 59.8848C1362.17 59.8848 1359.88 62.1747 1359.88 64.9995C1359.88 67.8243 1362.17 70.1143 1365 70.1143Z" fill="#FBB63F"/>
<path opacity="0.2" fill-rule="evenodd" clip-rule="evenodd" d="M1102 149C1108.63 149 1114 143.627 1114 137C1114 130.373 1108.63 125 1102 125C1095.37 125 1090 130.373 1090 137C1090 143.627 1095.37 149 1102 149Z" fill="#FBB640"/>
<path opacity="0.4" fill-rule="evenodd" clip-rule="evenodd" d="M1102 145.754C1106.83 145.754 1110.75 141.835 1110.75 137C1110.75 132.165 1106.83 128.246 1102 128.246C1097.17 128.246 1093.25 132.165 1093.25 137C1093.25 141.835 1097.17 145.754 1102 145.754Z" fill="#FBB640"/>
<path fill-rule="evenodd" clip-rule="evenodd" d="M1102 142.114C1104.82 142.114 1107.11 139.824 1107.11 137C1107.11 134.175 1104.82 131.885 1102 131.885C1099.17 131.885 1096.88 134.175 1096.88 137C1096.88 139.824 1099.17 142.114 1102 142.114Z" fill="#FBB640"/>
<path opacity="0.2" fill-rule="evenodd" clip-rule="evenodd" d="M51 576C57.6274 576 63 570.627 63 564C63 557.373 57.6274 552 51 552C44.3726 552 39 557.373 39 564C39 570.627 44.3726 576 51 576Z" fill="#FBB63F"/>
<path opacity="0.4" fill-rule="evenodd" clip-rule="evenodd" d="M51.0002 572.754C55.8349 572.754 59.7543 568.835 59.7543 564C59.7543 559.165 55.8349 555.246 51.0002 555.246C46.1654 555.246 42.2461 559.165 42.2461 564C42.2461 568.835 46.1654 572.754 51.0002 572.754Z" fill="#FBB63F"/>
<path fill-rule="evenodd" clip-rule="evenodd" d="M50.9995 569.114C53.8243 569.114 56.1143 566.824 56.1143 564C56.1143 561.175 53.8243 558.885 50.9995 558.885C48.1747 558.885 45.8848 561.175 45.8848 564C45.8848 566.824 48.1747 569.114 50.9995 569.114Z" fill="#FBB63F"/>
<path opacity="0.2" fill-rule="evenodd" clip-rule="evenodd" d="M231 456C237.627 456 243 450.627 243 444C243 437.373 237.627 432 231 432C224.373 432 219 437.373 219 444C219 450.627 224.373 456 231 456Z" fill="#FBB640"/>
<path opacity="0.4" fill-rule="evenodd" clip-rule="evenodd" d="M231 452.754C235.835 452.754 239.754 448.835 239.754 444C239.754 439.165 235.835 435.246 231 435.246C226.165 435.246 222.246 439.165 222.246 444C222.246 448.835 226.165 452.754 231 452.754Z" fill="#FBB640"/>
<path fill-rule="evenodd" clip-rule="evenodd" d="M231 449.114C233.824 449.114 236.114 446.824 236.114 444C236.114 441.175 233.824 438.885 231 438.885C228.175 438.885 225.885 441.175 225.885 444C225.885 446.824 228.175 449.114 231 449.114Z" fill="#FBB640"/>
<path opacity="0.2" fill-rule="evenodd" clip-rule="evenodd" d="M708 161C714.627 161 720 155.627 720 149C720 142.373 714.627 137 708 137C701.373 137 696 142.373 696 149C696 155.627 701.373 161 708 161Z" fill="#FBB63F"/>
<path opacity="0.4" fill-rule="evenodd" clip-rule="evenodd" d="M708 157.754C712.835 157.754 716.754 153.835 716.754 149C716.754 144.165 712.835 140.246 708 140.246C703.165 140.246 699.246 144.165 699.246 149C699.246 153.835 703.165 157.754 708 157.754Z" fill="#FBB63F"/>
<path fill-rule="evenodd" clip-rule="evenodd" d="M708 154.114C710.824 154.114 713.114 151.824 713.114 149C713.114 146.175 710.824 143.885 708 143.885C705.175 143.885 702.885 146.175 702.885 149C702.885 151.824 705.175 154.114 708 154.114Z" fill="#FBB63F"/>
</svg>
