<svg width="477" height="260" viewBox="0 0 477 260" fill="none" xmlns="http://www.w3.org/2000/svg">
<g filter="url(#filter0_d)">
<path d="M13.3947 59.3515C12.6244 49.1332 20.2835 40.2253 30.5017 39.455L206.29 26.2033C216.508 25.433 225.416 33.0921 226.187 43.3103L237.8 197.366C238.57 207.584 230.911 216.492 220.693 217.262L44.9046 230.514C34.6864 231.284 25.7784 223.625 25.0081 213.407L13.3947 59.3515Z" fill="white"/>
</g>
<path d="M79.0069 72.4165C78.2207 72.4758 77.4953 72.3605 76.8306 72.0707C76.1726 71.773 75.6373 71.3368 75.2245 70.762C74.8185 70.1793 74.5867 69.5058 74.5291 68.7417C74.4715 67.9776 74.6 67.2807 74.9146 66.651C75.236 66.0135 75.6999 65.5019 76.3063 65.1163C76.9195 64.7228 77.6229 64.4961 78.4164 64.4363C79.085 64.3859 79.6964 64.458 80.2505 64.6527C80.8119 64.8468 81.2929 65.1505 81.6935 65.5636L80.6271 66.7081C80.06 66.1449 79.3907 65.8924 78.6192 65.9506C78.1416 65.9866 77.7235 66.1252 77.3649 66.3666C77.0056 66.6005 76.7336 66.9129 76.5488 67.3037C76.3713 67.6939 76.3006 68.1279 76.3366 68.6054C76.3726 69.083 76.5076 69.5014 76.7415 69.8606C76.9829 70.2193 77.2989 70.491 77.6897 70.6759C78.0799 70.8534 78.5138 70.9241 78.9914 70.8881C79.7629 70.8299 80.3865 70.4763 80.8622 69.8271L82.0882 70.7987C81.7546 71.2746 81.3248 71.6506 80.7988 71.9267C80.2728 72.2028 79.6755 72.3661 79.0069 72.4165Z" fill="#131313"/>
<path d="M85.1615 65.7677C86.0799 65.6985 86.8019 65.8658 87.3274 66.2695C87.8523 66.6659 88.1481 67.3049 88.2145 68.1866L88.4696 71.5702L86.8605 71.6915L86.8048 70.953C86.5231 71.5285 85.9414 71.8494 85.0597 71.9159C84.6041 71.9502 84.2015 71.903 83.8519 71.7742C83.5096 71.6448 83.2401 71.4508 83.0433 71.1923C82.8464 70.9337 82.735 70.6317 82.709 70.2864C82.6674 69.7354 82.8405 69.2863 83.2281 68.9394C83.6231 68.5919 84.2541 68.3854 85.1211 68.3201L86.4877 68.2171C86.4595 67.8423 86.324 67.5644 86.0813 67.3832C85.838 67.1946 85.4886 67.1175 85.033 67.1518C84.7171 67.1756 84.4087 67.2506 84.1079 67.3767C83.8138 67.495 83.5666 67.6466 83.3663 67.8317L82.6585 66.6769C82.9647 66.4247 83.3371 66.2193 83.7759 66.0606C84.222 65.9014 84.6839 65.8037 85.1615 65.7677ZM85.4022 70.7262C85.6961 70.7041 85.952 70.6183 86.1698 70.4689C86.387 70.3121 86.5335 70.0979 86.609 69.8262L86.5633 69.22L85.3841 69.3089C84.6787 69.3621 84.3435 69.6201 84.3784 70.083C84.395 70.3034 84.4928 70.4734 84.6717 70.5929C84.8575 70.7045 85.101 70.749 85.4022 70.7262Z" fill="#131313"/>
<path d="M97.1657 64.8628C97.9077 64.8069 98.5122 64.983 98.9789 65.3912C99.4524 65.7914 99.7222 66.4287 99.7881 67.3031L100.044 70.6976L98.3246 70.8272L98.0887 67.6972C98.0532 67.227 97.9277 66.8854 97.7122 66.6726C97.5034 66.4519 97.219 66.3551 96.859 66.3823C96.4549 66.4127 96.1453 66.5691 95.9301 66.8513C95.7143 67.1262 95.6259 67.5208 95.6646 68.0351L95.889 71.0108L94.1696 71.1405L93.9337 68.0104C93.8633 67.0773 93.4534 66.639 92.704 66.6955C92.3072 66.7254 92.0013 66.8815 91.7861 67.1637C91.5704 67.4386 91.4819 67.8332 91.5206 68.3475L91.745 71.3232L90.0257 71.4528L89.5787 65.5234L91.2208 65.3996L91.2723 66.0829C91.4739 65.8165 91.7277 65.6053 92.0337 65.4492C92.347 65.2926 92.6947 65.1999 93.0768 65.1711C93.4956 65.1395 93.8803 65.1955 94.2311 65.339C94.5812 65.4751 94.8711 65.6934 95.1006 65.9939C95.3199 65.667 95.6068 65.4052 95.9614 65.2085C96.3234 65.0113 96.7248 64.896 97.1657 64.8628Z" fill="#131313"/>
<path d="M104.636 64.2997C105.187 64.2581 105.697 64.349 106.164 64.5724C106.639 64.7879 107.022 65.1174 107.314 65.5609C107.605 65.997 107.774 66.52 107.82 67.1299C107.866 67.7397 107.778 68.2858 107.556 68.7681C107.333 69.243 107.003 69.6262 106.567 69.9177C106.138 70.2013 105.647 70.3639 105.096 70.4054C104.34 70.4625 103.726 70.2685 103.257 69.8236L103.466 72.59L101.746 72.7196L101.138 64.652L102.78 64.5282L102.832 65.2116C103.219 64.6651 103.821 64.3611 104.636 64.2997ZM104.693 69.0171C105.133 68.9839 105.482 68.8098 105.739 68.4949C106.003 68.172 106.116 67.7608 106.079 67.2611C106.041 66.7615 105.868 66.3756 105.559 66.1033C105.257 65.8231 104.886 65.6996 104.445 65.7328C104.004 65.766 103.652 65.9441 103.388 66.2669C103.131 66.5819 103.021 66.9892 103.059 67.4888C103.096 67.9884 103.266 68.3783 103.568 68.6585C103.877 68.9308 104.252 69.0504 104.693 69.0171Z" fill="#131313"/>
<path d="M111.036 63.8172C111.954 63.748 112.676 63.9153 113.201 64.319C113.726 64.7154 114.022 65.3544 114.089 66.2361L114.344 69.6197L112.735 69.741L112.679 69.0025C112.397 69.578 111.815 69.8989 110.934 69.9654C110.478 69.9997 110.076 69.9525 109.726 69.8237C109.384 69.6943 109.114 69.5003 108.917 69.2418C108.72 68.9832 108.609 68.6812 108.583 68.3359C108.541 67.7849 108.715 67.3358 109.102 66.9889C109.497 66.6414 110.128 66.4349 110.995 66.3696L112.362 66.2666C112.334 65.8918 112.198 65.6139 111.955 65.4326C111.712 65.2441 111.363 65.167 110.907 65.2013C110.591 65.2251 110.283 65.3001 109.982 65.4262C109.688 65.5445 109.441 65.6961 109.24 65.8812L108.533 64.7264C108.839 64.4742 109.211 64.2688 109.65 64.1101C110.096 63.9509 110.558 63.8532 111.036 63.8172ZM111.276 68.7757C111.57 68.7536 111.826 68.6678 112.044 68.5184C112.261 68.3616 112.408 68.1474 112.483 67.8757L112.437 67.2695L111.258 67.3584C110.553 67.4116 110.218 67.6696 110.252 68.1325C110.269 68.3529 110.367 68.5229 110.546 68.6424C110.732 68.754 110.975 68.7985 111.276 68.7757Z" fill="#131313"/>
<path d="M115.453 63.5729L117.172 63.4433L117.619 69.3727L115.9 69.5023L115.453 63.5729ZM116.25 62.6815C115.934 62.7053 115.67 62.6329 115.458 62.4642C115.246 62.2954 115.129 62.0751 115.109 61.8033C115.088 61.5314 115.17 61.2962 115.355 61.0975C115.539 60.8989 115.79 60.7876 116.106 60.7638C116.421 60.74 116.685 60.8088 116.897 60.9702C117.109 61.1316 117.224 61.3445 117.244 61.609C117.266 61.8956 117.185 62.1418 117.001 62.3478C116.816 62.5465 116.566 62.6577 116.25 62.6815Z" fill="#131313"/>
<path d="M124.885 62.8619L125.257 67.7994C125.339 68.8869 125.117 69.7164 124.591 70.2881C124.065 70.8597 123.258 71.1866 122.171 71.2685C121.598 71.3117 121.049 71.2829 120.524 71.1821C119.999 71.0813 119.558 70.9113 119.2 70.6723L119.79 69.3864C120.055 69.5733 120.384 69.7111 120.774 69.7999C121.166 69.896 121.553 69.9297 121.935 69.9009C122.53 69.856 122.957 69.6871 123.216 69.3942C123.482 69.1081 123.595 68.6932 123.554 68.1495L123.535 67.896C123.124 68.422 122.518 68.7153 121.717 68.7756C121.173 68.8166 120.665 68.7367 120.191 68.536C119.725 68.3273 119.343 68.0162 119.046 67.6026C118.749 67.189 118.579 66.6994 118.536 66.1336C118.494 65.5679 118.588 65.0583 118.82 64.6048C119.052 64.1514 119.383 63.7902 119.813 63.5213C120.251 63.2445 120.741 63.0856 121.285 63.0446C122.145 62.9798 122.82 63.2134 123.311 63.7453L123.253 62.9849L124.885 62.8619ZM121.952 67.3392C122.408 67.3048 122.769 67.1446 123.036 66.8585C123.309 66.5645 123.429 66.2007 123.397 65.7672C123.364 65.3337 123.191 64.9958 122.877 64.7534C122.57 64.5032 122.188 64.3952 121.733 64.4296C121.277 64.4639 120.913 64.6281 120.64 64.9221C120.366 65.2088 120.245 65.5688 120.278 66.0023C120.31 66.4358 120.484 66.7774 120.798 67.0271C121.112 67.2695 121.497 67.3735 121.952 67.3392Z" fill="#131313"/>
<path d="M130.082 62.3814C130.817 62.326 131.425 62.5019 131.906 62.9089C132.395 63.3155 132.672 63.9522 132.738 64.8192L132.993 68.2138L131.274 68.3434L131.038 65.2133C131.003 64.7431 130.874 64.4018 130.651 64.1896C130.427 63.97 130.121 63.8748 129.731 63.9042C129.298 63.9369 128.963 64.0988 128.726 64.3901C128.489 64.674 128.39 65.0804 128.43 65.6095L128.651 68.5411L126.932 68.6707L126.485 62.7413L128.127 62.6175L128.179 63.3118C128.388 63.0448 128.657 62.8325 128.985 62.6747C129.312 62.5097 129.678 62.4119 130.082 62.3814Z" fill="#131313"/>
<path d="M140.339 67.793C139.729 67.839 139.132 67.8027 138.547 67.6843C137.968 67.558 137.496 67.3755 137.131 67.1371L137.636 65.7468C137.985 65.9643 138.392 66.1294 138.859 66.242C139.326 66.3546 139.787 66.3937 140.242 66.3594C140.749 66.3212 141.118 66.2195 141.35 66.0542C141.581 65.8817 141.687 65.6705 141.668 65.4207C141.654 65.237 141.569 65.0919 141.413 64.9854C141.264 64.871 141.073 64.7857 140.84 64.7294C140.614 64.6725 140.306 64.6144 139.918 64.555C139.319 64.4597 138.828 64.3564 138.442 64.2451C138.057 64.1337 137.717 63.934 137.422 63.6459C137.134 63.3572 136.971 62.9557 136.932 62.4414C136.898 61.9932 136.989 61.58 137.204 61.2017C137.419 60.816 137.761 60.4984 138.23 60.2487C138.706 59.9985 139.297 59.8469 140.002 59.7937C140.494 59.7566 140.98 59.7791 141.459 59.8612C141.938 59.9433 142.363 60.0813 142.732 60.2751L142.283 61.6723C141.54 61.3219 140.812 61.1735 140.099 61.2273C139.6 61.2649 139.235 61.3737 139.004 61.5537C138.781 61.733 138.68 61.955 138.7 62.2195C138.72 62.484 138.871 62.6721 139.152 62.7839C139.441 62.8877 139.873 62.9808 140.448 63.0631C141.046 63.1583 141.538 63.2617 141.924 63.373C142.309 63.4844 142.645 63.6807 142.932 63.962C143.227 64.2428 143.393 64.6403 143.432 65.1546C143.465 65.5955 143.371 66.009 143.149 66.3952C142.934 66.7735 142.588 67.0878 142.112 67.338C141.635 67.5881 141.045 67.7398 140.339 67.793Z" fill="#131313"/>
<path d="M148.504 66.7563C148.345 66.894 148.142 67.0053 147.897 67.0902C147.659 67.1673 147.404 67.2161 147.133 67.2365C146.427 67.2897 145.866 67.151 145.45 66.8203C145.041 66.4891 144.81 65.9745 144.757 65.2764L144.573 62.8408L143.659 62.9097L143.559 61.5872L144.474 61.5182L144.365 60.0744L146.084 59.9448L146.193 61.3886L147.67 61.2773L147.77 62.5998L146.293 62.7111L146.475 65.1248C146.494 65.3746 146.571 65.5646 146.706 65.6948C146.848 65.8171 147.037 65.8694 147.272 65.8516C147.544 65.8311 147.77 65.7402 147.95 65.5789L148.504 66.7563Z" fill="#131313"/>
<path d="M151.429 60.7722C152.347 60.703 153.069 60.8702 153.595 61.274C154.12 61.6704 154.415 62.3094 154.482 63.1911L154.737 66.5746L153.128 66.6959L153.072 65.9575C152.79 66.5329 152.209 66.8539 151.327 66.9204C150.871 66.9547 150.469 66.9075 150.119 66.7786C149.777 66.6493 149.507 66.4553 149.311 66.1967C149.114 65.9382 149.002 65.6362 148.976 65.2909C148.935 64.7398 149.108 64.2908 149.495 63.9439C149.89 63.5963 150.521 63.3899 151.388 63.3246L152.755 63.2215C152.727 62.8468 152.591 62.5688 152.349 62.3876C152.105 62.1991 151.756 62.122 151.3 62.1563C150.984 62.1801 150.676 62.2551 150.375 62.3812C150.081 62.4994 149.834 62.6511 149.634 62.8361L148.926 61.6814C149.232 61.4292 149.604 61.2238 150.043 61.0651C150.489 60.9058 150.951 60.8082 151.429 60.7722ZM151.67 65.7307C151.963 65.7086 152.219 65.6228 152.437 65.4734C152.654 65.3166 152.801 65.1023 152.876 64.8306L152.831 64.2245L151.651 64.3134C150.946 64.3665 150.611 64.6246 150.646 65.0875C150.662 65.3079 150.76 65.4779 150.939 65.5974C151.125 65.709 151.368 65.7534 151.67 65.7307Z" fill="#131313"/>
<path d="M160.096 65.8825C159.936 66.0201 159.734 66.1314 159.489 66.2164C159.251 66.2934 158.996 66.3422 158.724 66.3627C158.019 66.4159 157.458 66.2771 157.041 65.9465C156.632 65.6152 156.401 65.1006 156.349 64.4026L156.165 61.9669L155.25 62.0359L155.151 60.7133L156.065 60.6444L155.957 59.2006L157.676 59.071L157.785 60.5148L159.262 60.4034L159.361 61.726L157.884 61.8373L158.066 64.251C158.085 64.5008 158.162 64.6908 158.298 64.821C158.44 64.9432 158.629 64.9955 158.864 64.9778C159.136 64.9573 159.362 64.8664 159.541 64.705L160.096 65.8825Z" fill="#131313"/>
<path d="M163.084 66.0341C162.592 66.0712 162.106 66.0487 161.627 65.9666C161.147 65.8771 160.761 65.7511 160.468 65.5884L160.948 64.3108C161.225 64.4599 161.555 64.5754 161.938 64.6574C162.321 64.732 162.692 64.7557 163.052 64.7286C163.779 64.6737 164.13 64.4663 164.102 64.1063C164.09 63.9373 163.981 63.8235 163.777 63.765C163.574 63.7065 163.264 63.667 162.849 63.6466C162.358 63.6097 161.951 63.5554 161.628 63.4837C161.305 63.412 161.017 63.2638 160.763 63.039C160.517 62.8137 160.377 62.477 160.344 62.0288C160.315 61.6541 160.397 61.3154 160.588 61.0128C160.787 60.7023 161.085 60.4507 161.485 60.258C161.891 60.0648 162.378 59.9469 162.943 59.9042C163.362 59.8726 163.781 59.8891 164.2 59.9536C164.625 60.0102 164.98 60.1091 165.264 60.2502L164.783 61.5168C164.239 61.2622 163.659 61.1582 163.041 61.2047C162.674 61.2324 162.402 61.3046 162.226 61.4213C162.05 61.538 161.969 61.6772 161.981 61.8389C161.995 62.0225 162.104 62.1436 162.307 62.2022C162.511 62.2607 162.833 62.3067 163.271 62.3401C163.762 62.3844 164.165 62.4426 164.481 62.5149C164.797 62.5798 165.077 62.7249 165.323 62.9502C165.569 63.1755 165.709 63.5049 165.741 63.9384C165.769 64.3058 165.683 64.641 165.485 64.9442C165.286 65.2474 164.979 65.4959 164.565 65.6896C164.158 65.8755 163.664 65.9903 163.084 66.0341Z" fill="#131313"/>
<path fill-rule="evenodd" clip-rule="evenodd" d="M207.727 81.1118L38.961 93.8341L38.9102 93.1593L207.676 80.437L207.727 81.1118Z" fill="#F5F5F5"/>
<path fill-rule="evenodd" clip-rule="evenodd" d="M209.444 103.973L40.6778 116.695L40.627 116.02L209.393 103.298L209.444 103.973Z" fill="#F5F5F5"/>
<path fill-rule="evenodd" clip-rule="evenodd" d="M211.168 126.835L42.4024 139.557L42.3516 138.882L211.118 126.16L211.168 126.835Z" fill="#F5F5F5"/>
<path fill-rule="evenodd" clip-rule="evenodd" d="M212.893 149.697L44.127 162.419L44.0762 161.744L212.842 149.022L212.893 149.697Z" fill="#F5F5F5"/>
<path fill-rule="evenodd" clip-rule="evenodd" d="M214.612 172.558L45.8458 185.28L45.7949 184.606L214.561 171.883L214.612 172.558Z" fill="#F5F5F5"/>
<path fill-rule="evenodd" clip-rule="evenodd" d="M216.336 195.42L47.5704 208.142L47.5195 207.468L216.286 194.745L216.336 195.42Z" fill="#F5F5F5"/>
<path d="M55.0768 156.273C54.9373 154.422 56.3245 152.809 58.1753 152.669V152.669C60.026 152.53 61.6395 153.917 61.779 155.768L65.3765 203.49C65.516 205.34 64.1288 206.954 62.278 207.093V207.093C60.4273 207.233 58.8139 205.846 58.6743 203.995L55.0768 156.273Z" fill="#EAD7F0"/>
<path d="M62.112 133.37C61.9725 131.519 63.3597 129.905 65.2105 129.766V129.766C67.0612 129.626 68.6746 131.014 68.8142 132.864L74.0887 202.833C74.2282 204.684 72.841 206.297 70.9902 206.437V206.437C69.1395 206.576 67.526 205.189 67.3865 203.338L62.112 133.37Z" fill="url(#paint0_linear)"/>
<path d="M81.0534 161.106C80.9139 159.256 82.3011 157.642 84.1519 157.503V157.503C86.0026 157.363 87.616 158.75 87.7556 160.601L90.844 201.57C90.9835 203.421 89.5962 205.034 87.7455 205.173V205.173C85.8947 205.313 84.2813 203.926 84.1418 202.075L81.0534 161.106Z" fill="#EAD7F0"/>
<path d="M88.3034 140.984C88.1639 139.133 89.5511 137.52 91.4019 137.38V137.38C93.2526 137.241 94.866 138.628 95.0056 140.479L99.5614 200.913C99.7009 202.764 98.3137 204.377 96.4629 204.517V204.517C94.6122 204.656 92.9987 203.269 92.8592 201.418L88.3034 140.984Z" fill="url(#paint1_linear)"/>
<path d="M105.27 142.501C105.131 140.651 106.518 139.037 108.369 138.898V138.898C110.219 138.758 111.833 140.145 111.972 141.996L116.319 199.65C116.458 201.5 115.071 203.114 113.22 203.253V203.253C111.369 203.393 109.756 202.006 109.616 200.155L105.27 142.501Z" fill="#EAD7F0"/>
<path d="M112.003 115.626C111.863 113.775 113.25 112.162 115.101 112.022V112.022C116.952 111.883 118.565 113.27 118.705 115.121L125.027 198.993C125.167 200.844 123.78 202.457 121.929 202.597V202.597C120.078 202.736 118.465 201.349 118.325 199.498L112.003 115.626Z" fill="url(#paint2_linear)"/>
<path d="M132.143 159.253C132.004 157.403 133.391 155.789 135.242 155.65V155.65C137.092 155.51 138.706 156.897 138.845 158.748L141.784 197.73C141.924 199.581 140.536 201.195 138.686 201.334V201.334C136.835 201.474 135.221 200.086 135.082 198.236L132.143 159.253Z" fill="#EAD7F0"/>
<path d="M139.452 139.925C139.312 138.074 140.7 136.461 142.55 136.321V136.321C144.401 136.182 146.014 137.569 146.154 139.42L150.5 197.073C150.64 198.924 149.252 200.537 147.402 200.677V200.677C145.551 200.816 143.938 199.429 143.798 197.578L139.452 139.925Z" fill="url(#paint3_linear)"/>
<path d="M156.833 147.004C156.693 145.153 158.08 143.54 159.931 143.4V143.4C161.782 143.261 163.395 144.648 163.535 146.499L167.252 195.81C167.392 197.661 166.004 199.274 164.154 199.413V199.413C162.303 199.553 160.69 198.166 160.55 196.315L156.833 147.004Z" fill="#EAD7F0"/>
<path d="M163.809 123.306C163.67 121.455 165.057 119.842 166.908 119.702V119.702C168.758 119.563 170.372 120.95 170.511 122.801L175.966 195.153C176.105 197.003 174.718 198.617 172.867 198.756V198.756C171.016 198.896 169.403 197.509 169.263 195.658L163.809 123.306Z" fill="url(#paint4_linear)"/>
<path d="M185.471 144.845C185.332 142.995 186.719 141.381 188.57 141.242V141.242C190.421 141.102 192.034 142.489 192.174 144.34L195.891 193.651C196.03 195.502 194.643 197.115 192.792 197.255V197.255C190.942 197.395 189.328 196.007 189.189 194.157L185.471 144.845Z" fill="#EAD7F0"/>
<path d="M192.448 121.148C192.308 119.297 193.696 117.684 195.546 117.544V117.544C197.397 117.405 199.011 118.792 199.15 120.643L204.604 192.995C204.744 194.846 203.357 196.459 201.506 196.599V196.599C199.655 196.738 198.042 195.351 197.902 193.5L192.448 121.148Z" fill="url(#paint5_linear)"/>
<path fill-rule="evenodd" clip-rule="evenodd" d="M175.568 102.378L149.236 112.635C148.787 112.81 148.299 112.862 147.822 112.785L125.19 109.132C124.753 109.062 124.31 109.209 124.002 109.526L103.167 131.007C102.888 131.294 102.549 131.516 102.174 131.657L76.9369 141.122C76.8361 141.16 76.7401 141.21 76.651 141.27L48.9622 160.105L48.2009 158.985L75.8897 140.151C76.0679 140.03 76.2599 139.931 76.4616 139.855L101.699 130.389C101.886 130.319 102.056 130.208 102.195 130.064L123.031 108.584C123.646 107.949 124.533 107.655 125.405 107.796L148.038 111.449C148.276 111.487 148.52 111.461 148.745 111.374L175.077 101.116L175.568 102.378Z" fill="#FBB640" stroke="#FBB640" stroke-width="1.35352"/>
<g filter="url(#filter1_d)">
<path d="M236.928 45.1954C236.048 33.518 244.8 23.3379 256.478 22.4576L426.623 9.63132C438.3 8.75102 448.48 17.5038 449.361 29.1813L462.632 205.236C463.513 216.914 454.76 227.094 443.082 227.974L272.938 240.801C261.26 241.681 251.08 232.928 250.2 221.251L236.928 45.1954Z" fill="white"/>
</g>
<path fill-rule="evenodd" clip-rule="evenodd" d="M353.287 171.641C383.199 169.386 405.618 143.284 403.361 113.34C401.103 83.3959 375.025 60.9495 345.112 63.2045C315.2 65.4594 292.781 91.5617 295.038 121.506C297.296 151.45 323.374 173.896 353.287 171.641ZM351.888 153.003C371.518 151.523 386.231 134.394 384.749 114.743C383.268 95.0922 366.154 80.3617 346.524 81.8415C326.894 83.3213 312.182 100.451 313.663 120.102C315.144 139.752 332.258 154.483 351.888 153.003Z" fill="#EBEBEB"/>
<path fill-rule="evenodd" clip-rule="evenodd" d="M294.999 120.902C295.012 121.103 295.026 121.305 295.042 121.506C296.966 147.03 316.198 167.107 340.359 171.081L348.996 153.105C330.604 153.013 315.072 138.78 313.664 120.102C313.649 119.899 313.635 119.697 313.623 119.495L294.999 120.902ZM346.525 81.842C345.776 81.8985 345.034 81.9778 344.299 82.0791L346.476 77.5473L349.334 81.7397C348.404 81.7372 347.468 81.7709 346.525 81.842ZM377.732 138.824L378.97 155.245L371.931 144.92C374.099 143.122 376.047 141.074 377.732 138.824Z" fill="url(#paint6_linear)"/>
<path d="M395.361 114.197C397.274 139.571 378.277 161.689 352.93 163.6C327.584 165.51 305.485 146.49 303.573 121.117C301.66 95.7434 320.657 73.6252 346.004 71.7145C371.35 69.8037 393.448 88.824 395.361 114.197Z" fill="white"/>
<path d="M347.782 98.6742L403.296 180.101L305.103 187.503L347.782 98.6742Z" fill="white"/>
<path d="M299.786 184.741C301.958 184.577 303.589 184.889 304.682 185.677C305.788 186.464 306.397 187.584 306.506 189.037C306.577 189.976 306.407 190.851 305.996 191.664C305.584 192.463 304.912 193.133 303.979 193.676C303.059 194.202 301.896 194.519 300.487 194.625C299.401 194.707 298.32 194.648 297.243 194.449C296.179 194.234 295.26 193.89 294.487 193.417L295.69 190.582C296.31 190.978 297.01 191.272 297.792 191.464C298.573 191.641 299.367 191.699 300.173 191.639C301.068 191.571 301.759 191.342 302.246 190.951C302.733 190.56 302.953 190.05 302.905 189.419C302.856 188.758 302.547 188.28 301.978 187.984C301.425 187.686 300.488 187.587 299.167 187.686L295.228 187.983L295.367 179.253L304.764 178.545L304.979 181.405L298.553 181.89L298.532 184.835L299.786 184.741Z" fill="black"/>
<path d="M310.355 193.792C309.754 193.838 309.232 193.671 308.791 193.291C308.349 192.911 308.105 192.413 308.058 191.797C308.011 191.166 308.178 190.644 308.56 190.232C308.941 189.805 309.432 189.568 310.034 189.523C310.635 189.478 311.156 189.638 311.597 190.003C312.036 190.353 312.28 190.844 312.328 191.475C312.374 192.091 312.207 192.62 311.828 193.062C311.448 193.504 310.957 193.747 310.355 193.792Z" fill="black"/>
<path d="M327.94 189.036L325.431 189.226L325.675 192.461L322.198 192.723L321.954 189.488L313.657 190.113L313.476 187.714L320.002 177.396L323.743 177.114L317.708 186.886L321.845 186.574L321.628 183.692L324.995 183.438L325.212 186.321L327.721 186.132L327.94 189.036Z" fill="black"/>
<path d="M339.396 183.282C340.187 183.606 340.804 184.061 341.247 184.647C341.704 185.232 341.963 185.928 342.024 186.735C342.096 187.689 341.888 188.546 341.399 189.305C340.909 190.051 340.188 190.658 339.235 191.129C338.28 191.584 337.158 191.86 335.867 191.958C334.576 192.055 333.424 191.95 332.413 191.643C331.414 191.32 330.617 190.826 330.021 190.163C329.439 189.484 329.112 188.668 329.04 187.714C328.979 186.907 329.124 186.181 329.473 185.535C329.838 184.887 330.38 184.345 331.099 183.907C330.5 183.598 330.027 183.191 329.679 182.686C329.33 182.167 329.13 181.562 329.078 180.873C329.01 179.978 329.201 179.181 329.65 178.483C330.099 177.786 330.758 177.227 331.626 176.807C332.493 176.373 333.507 176.112 334.666 176.025C335.839 175.936 336.887 176.042 337.81 176.341C338.746 176.625 339.489 177.078 340.037 177.7C340.586 178.323 340.894 179.082 340.961 179.977C341.013 180.666 340.906 181.294 340.638 181.86C340.37 182.411 339.956 182.885 339.396 183.282ZM334.863 178.644C334.144 178.698 333.578 178.918 333.164 179.303C332.764 179.672 332.587 180.158 332.632 180.759C332.677 181.346 332.924 181.792 333.375 182.098C333.826 182.403 334.418 182.528 335.152 182.473C335.885 182.418 336.459 182.205 336.874 181.834C337.289 181.463 337.474 180.985 337.43 180.398C337.384 179.796 337.129 179.343 336.663 179.039C336.197 178.72 335.597 178.588 334.863 178.644ZM335.669 189.339C336.564 189.272 337.254 189.02 337.737 188.586C338.234 188.135 338.457 187.572 338.407 186.897C338.356 186.222 338.051 185.707 337.493 185.351C336.95 184.993 336.231 184.848 335.336 184.916C334.456 184.982 333.774 185.233 333.29 185.667C332.806 186.102 332.59 186.657 332.641 187.332C332.693 188.022 332.99 188.545 333.534 188.902C334.077 189.26 334.789 189.405 335.669 189.339Z" fill="black"/>
<path d="M346.809 183.741C345.679 183.826 344.726 183.514 343.95 182.806C343.187 182.081 342.757 181.073 342.659 179.782C342.562 178.491 342.837 177.438 343.483 176.622C344.144 175.79 345.039 175.331 346.168 175.246C347.298 175.161 348.244 175.481 349.007 176.205C349.769 176.915 350.198 177.916 350.296 179.207C350.393 180.498 350.119 181.559 349.473 182.389C348.827 183.205 347.938 183.656 346.809 183.741ZM355.359 174.731L357.977 174.533L348.619 190.731L346.001 190.928L355.359 174.731ZM346.673 181.936C347.172 181.899 347.545 181.664 347.793 181.232C348.055 180.799 348.156 180.179 348.095 179.372C348.034 178.566 347.842 177.968 347.517 177.579C347.208 177.189 346.803 177.013 346.304 177.051C345.82 177.087 345.448 177.329 345.186 177.777C344.924 178.21 344.822 178.822 344.882 179.615C344.942 180.407 345.134 181.005 345.46 181.408C345.784 181.797 346.189 181.973 346.673 181.936ZM357.809 190.215C357.076 190.27 356.403 190.152 355.791 189.858C355.192 189.549 354.707 189.084 354.335 188.463C353.964 187.842 353.746 187.106 353.682 186.255C353.618 185.404 353.723 184.644 353.997 183.974C354.271 183.304 354.682 182.779 355.228 182.398C355.789 182.002 356.436 181.776 357.169 181.721C358.299 181.635 359.245 181.955 360.008 182.68C360.784 183.388 361.221 184.388 361.318 185.679C361.416 186.97 361.134 188.032 360.474 188.863C359.827 189.679 358.939 190.13 357.809 190.215ZM357.673 188.411C358.172 188.373 358.546 188.138 358.793 187.706C359.055 187.259 359.156 186.639 359.096 185.847C359.036 185.054 358.844 184.464 358.52 184.075C358.209 183.671 357.804 183.487 357.305 183.525C356.821 183.562 356.448 183.796 356.185 184.229C355.923 184.662 355.822 185.282 355.883 186.089C355.944 186.896 356.136 187.494 356.461 187.882C356.785 188.271 357.189 188.447 357.673 188.411Z" fill="black"/>
<path d="M377.67 188.807C376.1 188.925 374.651 188.695 373.324 188.116C372.01 187.522 370.941 186.651 370.117 185.503C369.306 184.339 368.844 182.995 368.729 181.469C368.614 179.943 368.87 178.551 369.498 177.294C370.14 176.021 371.066 175 372.277 174.23C373.502 173.444 374.906 172.991 376.491 172.872C377.826 172.771 379.046 172.915 380.153 173.304C381.274 173.692 382.234 174.298 383.034 175.123L380.905 177.408C379.773 176.284 378.436 175.779 376.896 175.896C375.942 175.967 375.107 176.244 374.391 176.726C373.674 177.193 373.131 177.817 372.761 178.597C372.407 179.377 372.266 180.243 372.338 181.197C372.41 182.15 372.679 182.986 373.146 183.703C373.628 184.419 374.259 184.962 375.04 185.331C375.819 185.685 376.685 185.827 377.639 185.755C379.179 185.639 380.424 184.932 381.374 183.636L383.822 185.576C383.156 186.526 382.298 187.277 381.248 187.829C380.197 188.38 379.005 188.706 377.67 188.807Z" fill="black"/>
<path d="M388.516 175.152L383.586 175.524L383.367 172.619L396.791 171.607L397.01 174.512L392.081 174.884L393.023 187.384L389.458 187.652L388.516 175.152Z" fill="black"/>
<path d="M409.686 186.127L406.391 182.06L406.215 182.073L403.112 182.307L403.436 186.599L399.871 186.867L398.709 171.463L405.377 170.96C406.742 170.857 407.94 170.995 408.972 171.375C410.019 171.753 410.845 172.34 411.451 173.136C412.057 173.931 412.403 174.901 412.489 176.045C412.575 177.19 412.371 178.201 411.877 179.079C411.396 179.942 410.666 180.631 409.687 181.148L413.515 185.839L409.686 186.127ZM408.88 176.317C408.815 175.452 408.486 174.813 407.894 174.4C407.301 173.972 406.469 173.799 405.398 173.88L402.494 174.099L402.898 179.468L405.803 179.249C406.874 179.169 407.671 178.873 408.193 178.361C408.715 177.85 408.944 177.168 408.88 176.317Z" fill="black"/>
<path d="M309.494 52.49C308.708 52.5493 307.983 52.434 307.318 52.1442C306.66 51.8465 306.125 51.4102 305.712 50.8354C305.306 50.2527 305.074 49.5793 305.016 48.8152C304.959 48.051 305.087 47.3542 305.402 46.7245C305.723 46.087 306.187 45.5754 306.794 45.1898C307.407 44.7963 308.11 44.5696 308.904 44.5098C309.572 44.4594 310.184 44.5315 310.738 44.7262C311.299 44.9203 311.78 45.224 312.181 45.6371L311.114 46.7816C310.547 46.2184 309.878 45.9659 309.107 46.0241C308.629 46.0601 308.211 46.1987 307.852 46.4401C307.493 46.674 307.221 46.9864 307.036 47.3772C306.859 47.7674 306.788 48.2013 306.824 48.6789C306.86 49.1565 306.995 49.5749 307.229 49.9341C307.47 50.2928 307.786 50.5645 308.177 50.7494C308.567 50.9268 309.001 50.9976 309.479 50.9616C310.25 50.9034 310.874 50.5498 311.35 49.9006L312.575 50.8722C312.242 51.3481 311.812 51.7241 311.286 52.0002C310.76 52.2763 310.163 52.4396 309.494 52.49Z" fill="#131313"/>
<path d="M314.926 45.6519L312.457 45.838L312.347 44.3832L319.07 43.8764L319.18 45.3312L316.711 45.5173L317.183 51.7773L315.398 51.9119L314.926 45.6519Z" fill="#131313"/>
<path d="M325.528 51.1483L323.878 49.1113L323.79 49.1179L322.236 49.2351L322.398 51.3842L320.613 51.5188L320.031 43.804L323.371 43.5522C324.054 43.5007 324.654 43.57 325.171 43.7601C325.695 43.9497 326.109 44.2436 326.412 44.6419C326.715 45.0402 326.889 45.5259 326.932 46.099C326.975 46.6721 326.873 47.1786 326.625 47.6185C326.385 48.0504 326.019 48.3957 325.529 48.6544L327.446 51.0037L325.528 51.1483ZM325.125 46.2353C325.092 45.8018 324.927 45.4817 324.631 45.275C324.334 45.0609 323.917 44.9741 323.381 45.0145L321.926 45.1242L322.129 47.8133L323.584 47.7037C324.12 47.6632 324.519 47.5149 324.78 47.2588C325.042 47.0026 325.157 46.6614 325.125 46.2353Z" fill="#131313"/>
<path d="M331.257 42.9577L333.042 42.8231L333.624 50.538L331.838 50.6726L331.257 42.9577Z" fill="#131313"/>
<path d="M338.484 44.1198C339.219 44.0644 339.827 44.2403 340.308 44.6473C340.797 45.0538 341.074 45.6906 341.139 46.5576L341.395 49.9521L339.676 50.0818L339.44 46.9517C339.404 46.4815 339.275 46.1402 339.052 45.928C338.829 45.7084 338.523 45.6132 338.133 45.6426C337.7 45.6753 337.364 45.8372 337.128 46.1285C336.891 46.4124 336.792 46.8188 336.832 47.3478L337.053 50.2795L335.334 50.4091L334.887 44.4797L336.529 44.3559L336.581 45.0502C336.79 44.7832 337.058 44.5709 337.386 44.4131C337.714 44.2481 338.08 44.1503 338.484 44.1198Z" fill="#131313"/>
<path d="M348.441 41.1967L349.058 49.3745L347.416 49.4983L347.364 48.815C346.977 49.3614 346.379 49.6651 345.571 49.726C345.012 49.7681 344.496 49.6814 344.022 49.466C343.555 49.2499 343.175 48.9202 342.883 48.4767C342.591 48.0332 342.422 47.5065 342.376 46.8966C342.33 46.2868 342.418 45.7407 342.64 45.2585C342.863 44.7762 343.188 44.3933 343.618 44.1096C344.055 43.8255 344.552 43.6624 345.111 43.6203C345.867 43.5632 346.477 43.7574 346.939 44.2029L346.722 41.3263L348.441 41.1967ZM345.762 48.2929C346.196 48.2602 346.544 48.0861 346.809 47.7706C347.073 47.4478 347.186 47.0365 347.148 46.5369C347.11 46.0373 346.937 45.6513 346.629 45.379C346.319 45.0994 345.948 44.9759 345.514 45.0086C345.074 45.0418 344.721 45.2198 344.457 45.5427C344.193 45.8582 344.08 46.2657 344.117 46.7654C344.155 47.265 344.328 47.6546 344.638 47.9343C344.946 48.2066 345.321 48.3261 345.762 48.2929Z" fill="#131313"/>
<path d="M350.202 43.3251L351.921 43.1955L352.368 49.1249L350.649 49.2545L350.202 43.3251ZM351 42.4337C350.684 42.4575 350.419 42.3851 350.207 42.2163C349.995 42.0476 349.879 41.8273 349.858 41.5555C349.838 41.2836 349.92 41.0484 350.104 40.8497C350.289 40.6511 350.539 40.5398 350.855 40.516C351.171 40.4922 351.435 40.561 351.646 40.7224C351.858 40.8838 351.974 41.0967 351.994 41.3612C352.015 41.6478 351.934 41.894 351.75 42.1C351.566 42.2987 351.315 42.4099 351 42.4337Z" fill="#131313"/>
<path d="M356.836 48.8768C356.204 48.9244 355.625 48.8388 355.099 48.6198C354.579 48.393 354.159 48.0589 353.837 47.6176C353.523 47.1758 353.344 46.661 353.3 46.0732C353.255 45.4854 353.355 44.9495 353.6 44.4656C353.851 43.9811 354.217 43.5914 354.698 43.2966C355.185 42.9938 355.744 42.8187 356.376 42.771C357.001 42.7239 357.554 42.8152 358.037 43.0448C358.527 43.2665 358.896 43.6118 359.146 44.0807L357.866 44.8976C357.517 44.3772 357.052 44.1388 356.471 44.1826C356.023 44.2164 355.663 44.3913 355.391 44.7073C355.12 45.0234 355.003 45.4349 355.041 45.9419C355.079 46.4489 355.256 46.8382 355.573 47.11C355.889 47.3817 356.271 47.5007 356.719 47.4669C357.307 47.4226 357.731 47.1172 357.991 46.5508L359.379 47.1777C359.202 47.664 358.888 48.0571 358.438 48.3571C357.995 48.6565 357.461 48.8297 356.836 48.8768Z" fill="#131313"/>
<path d="M362.414 42.3159C363.332 42.2466 364.054 42.4139 364.58 42.8176C365.105 43.214 365.4 43.8531 365.467 44.7348L365.722 48.1183L364.113 48.2396L364.057 47.5012C363.775 48.0766 363.194 48.3976 362.312 48.464C361.856 48.4984 361.454 48.4511 361.104 48.3223C360.762 48.1929 360.492 47.999 360.295 47.7404C360.099 47.4818 359.987 47.1799 359.961 46.8346C359.92 46.2835 360.093 45.8345 360.48 45.4875C360.875 45.14 361.506 44.9336 362.373 44.8682L363.74 44.7652C363.712 44.3905 363.576 44.1125 363.333 43.9313C363.09 43.7427 362.741 43.6656 362.285 43.7C361.969 43.7238 361.661 43.7988 361.36 43.9249C361.066 44.0431 360.819 44.1948 360.619 44.3798L359.911 43.225C360.217 42.9729 360.589 42.7675 361.028 42.6088C361.474 42.4495 361.936 42.3519 362.414 42.3159ZM362.654 47.2744C362.948 47.2522 363.204 47.1664 363.422 47.017C363.639 46.8602 363.786 46.646 363.861 46.3743L363.816 45.7681L362.636 45.857C361.931 45.9102 361.596 46.1682 361.631 46.6311C361.647 46.8515 361.745 47.0215 361.924 47.141C362.11 47.2526 362.353 47.2971 362.654 47.2744Z" fill="#131313"/>
<path d="M371.081 47.4261C370.921 47.5638 370.719 47.6751 370.474 47.7601C370.236 47.8371 369.981 47.8859 369.709 47.9064C369.004 47.9596 368.443 47.8208 368.026 47.4901C367.617 47.1589 367.386 46.6443 367.334 45.9463L367.15 43.5106L366.235 43.5795L366.135 42.257L367.05 42.188L366.941 40.7443L368.661 40.6146L368.77 42.0584L370.246 41.9471L370.346 43.2696L368.869 43.381L369.051 45.7946C369.07 46.0444 369.147 46.2344 369.283 46.3646C369.425 46.4869 369.614 46.5392 369.849 46.5215C370.12 46.501 370.346 46.4101 370.526 46.2487L371.081 47.4261Z" fill="#131313"/>
<path d="M374.712 47.5292C374.088 47.5763 373.516 47.4901 372.997 47.2706C372.485 47.0432 372.072 46.7086 371.758 46.2667C371.444 45.8249 371.264 45.3101 371.22 44.7223C371.176 44.1345 371.276 43.5986 371.52 43.1146C371.764 42.6307 372.123 42.2416 372.596 41.9473C373.076 41.6452 373.628 41.4705 374.252 41.4234C374.877 41.3764 375.445 41.4665 375.957 41.6939C376.469 41.914 376.882 42.2449 377.196 42.6868C377.51 43.1286 377.689 43.6434 377.734 44.2312C377.778 44.819 377.678 45.3549 377.434 45.8388C377.189 46.3228 376.831 46.7156 376.359 47.0172C375.886 47.3115 375.337 47.4821 374.712 47.5292ZM374.606 46.1185C375.047 46.0853 375.396 45.9112 375.653 45.5962C375.917 45.2734 376.03 44.8621 375.992 44.3625C375.955 43.8629 375.781 43.4769 375.473 43.2046C375.171 42.9244 374.799 42.8009 374.359 42.8342C373.918 42.8674 373.565 43.0454 373.302 43.3683C373.037 43.6838 372.924 44.0914 372.961 44.591C372.999 45.0906 373.173 45.4802 373.482 45.7599C373.791 46.0322 374.165 46.1517 374.606 46.1185Z" fill="#131313"/>
<path d="M380.36 41.8386C380.545 41.5365 380.804 41.299 381.138 41.126C381.48 40.9525 381.878 40.8486 382.334 40.8142L382.453 42.4013C382.261 42.401 382.132 42.4033 382.066 42.4083C381.574 42.4454 381.199 42.6141 380.94 42.9144C380.682 43.2073 380.573 43.6292 380.615 44.1803L380.826 46.9797L379.106 47.1093L378.659 41.1799L380.302 41.0561L380.36 41.8386Z" fill="#131313"/>
<path d="M319.846 205.493C319.787 204.708 320.376 204.024 321.161 203.964L392.158 198.612C392.943 198.553 393.627 199.142 393.687 199.927V199.927C393.746 200.712 393.157 201.396 392.372 201.455L321.375 206.807C320.59 206.867 319.906 206.278 319.846 205.493V205.493Z" fill="#EBEBEB" fill-opacity="0.5"/>
<path d="M328.317 211.718C328.258 210.933 328.846 210.248 329.631 210.189L384.725 206.036C385.51 205.977 386.194 206.565 386.253 207.35V207.35C386.313 208.135 385.724 208.82 384.939 208.879L329.846 213.032C329.061 213.091 328.376 212.503 328.317 211.718V211.718Z" fill="#EBEBEB" fill-opacity="0.5"/>
<path d="M341.894 217.556C341.835 216.771 342.424 216.087 343.209 216.027L372.174 213.844C372.959 213.785 373.643 214.373 373.702 215.158V215.158C373.762 215.943 373.173 216.628 372.388 216.687L343.423 218.87C342.638 218.93 341.953 218.341 341.894 217.556V217.556Z" fill="#EBEBEB" fill-opacity="0.5"/>
<path d="M359.974 116.408C360.423 122.375 355.956 127.576 349.996 128.025C344.036 128.474 338.839 124.002 338.39 118.035C337.94 112.069 342.407 106.868 348.367 106.418C354.328 105.969 359.524 110.442 359.974 116.408Z" fill="url(#paint7_linear)"/>
<defs>
<filter id="filter0_d" x="0.972303" y="18.1097" width="249.251" height="229.156" filterUnits="userSpaceOnUse" color-interpolation-filters="sRGB">
<feFlood flood-opacity="0" result="BackgroundImageFix"/>
<feColorMatrix in="SourceAlpha" type="matrix" values="0 0 0 0 0 0 0 0 0 0 0 0 0 0 0 0 0 0 127 0"/>
<feOffset dy="4.32932"/>
<feGaussianBlur stdDeviation="6.18475"/>
<feColorMatrix type="matrix" values="0 0 0 0 0 0 0 0 0 0 0 0 0 0 0 0 0 0 0.1 0"/>
<feBlend mode="normal" in2="BackgroundImageFix" result="effect1_dropShadow"/>
<feBlend mode="normal" in="SourceGraphic" in2="effect1_dropShadow" result="shape"/>
</filter>
<filter id="filter1_d" x="222.731" y="0.381968" width="254.098" height="259.563" filterUnits="userSpaceOnUse" color-interpolation-filters="sRGB">
<feFlood flood-opacity="0" result="BackgroundImageFix"/>
<feColorMatrix in="SourceAlpha" type="matrix" values="0 0 0 0 0 0 0 0 0 0 0 0 0 0 0 0 0 0 127 0"/>
<feOffset dy="4.94757"/>
<feGaussianBlur stdDeviation="7.06796"/>
<feColorMatrix type="matrix" values="0 0 0 0 0 0 0 0 0 0 0 0 0 0 0 0 0 0 0.1 0"/>
<feBlend mode="normal" in2="BackgroundImageFix" result="effect1_dropShadow"/>
<feBlend mode="normal" in="SourceGraphic" in2="effect1_dropShadow" result="shape"/>
</filter>
<linearGradient id="paint0_linear" x1="61.765" y1="169.671" x2="74.7758" y2="169.827" gradientUnits="userSpaceOnUse">
<stop stop-color="#7D15A1"/>
<stop offset="1" stop-color="#B675A8"/>
</linearGradient>
<linearGradient id="paint1_linear" x1="87.5868" y1="172.384" x2="100.58" y2="172.699" gradientUnits="userSpaceOnUse">
<stop stop-color="#7D15A1"/>
<stop offset="1" stop-color="#B675A8"/>
</linearGradient>
<linearGradient id="paint2_linear" x1="112.195" y1="159.077" x2="125.22" y2="159.059" gradientUnits="userSpaceOnUse">
<stop stop-color="#7D15A1"/>
<stop offset="1" stop-color="#B675A8"/>
</linearGradient>
<linearGradient id="paint3_linear" x1="138.628" y1="169.895" x2="151.613" y2="170.265" gradientUnits="userSpaceOnUse">
<stop stop-color="#7D15A1"/>
<stop offset="1" stop-color="#B675A8"/>
</linearGradient>
<linearGradient id="paint4_linear" x1="163.555" y1="160.833" x2="176.569" y2="160.955" gradientUnits="userSpaceOnUse">
<stop stop-color="#7D15A1"/>
<stop offset="1" stop-color="#B675A8"/>
</linearGradient>
<linearGradient id="paint5_linear" x1="192.193" y1="158.675" x2="205.207" y2="158.797" gradientUnits="userSpaceOnUse">
<stop stop-color="#7D15A1"/>
<stop offset="1" stop-color="#B675A8"/>
</linearGradient>
<linearGradient id="paint6_linear" x1="258.602" y1="132.027" x2="353.597" y2="203.238" gradientUnits="userSpaceOnUse">
<stop stop-color="#7D15A1"/>
<stop offset="1" stop-color="#B675A8"/>
</linearGradient>
<linearGradient id="paint7_linear" x1="328.538" y1="119.086" x2="351.114" y2="138.475" gradientUnits="userSpaceOnUse">
<stop stop-color="#7D15A1"/>
<stop offset="1" stop-color="#B675A8"/>
</linearGradient>
</defs>
</svg>
