<svg width="114" height="128" viewBox="0 0 114 128" fill="none" xmlns="http://www.w3.org/2000/svg">
<path fill-rule="evenodd" clip-rule="evenodd" d="M56.9463 99.2441C37.1226 99.2441 21.044 83.172 21.044 63.3488C21.044 43.5239 37.1226 27.4536 56.9463 27.4536C76.7521 27.4536 92.831 43.5236 92.831 63.3488C92.831 83.1723 76.752 99.2441 56.9463 99.2441ZM19.1457 63.3488C19.1457 84.2209 36.0747 101.142 56.9463 101.142C77.8006 101.142 94.7293 84.2206 94.7293 63.3488C94.7293 42.4753 77.8005 25.5553 56.9463 25.5553C36.0747 25.5553 19.1457 42.475 19.1457 63.3488Z" fill="#740B99"/>
<path fill-rule="evenodd" clip-rule="evenodd" d="M56.9371 87.6825C43.4974 87.6825 32.5941 76.7887 32.5941 63.35C32.5941 49.9132 43.4974 39.0194 56.9371 39.0194C70.3759 39.0194 81.2625 49.9124 81.2625 63.35C81.2625 76.7895 70.3759 87.6825 56.9371 87.6825ZM30.7035 63.35C30.7035 77.8339 42.4543 89.5732 56.9371 89.5732C71.4207 89.5732 83.1532 77.833 83.1532 63.35C83.1532 48.8688 71.4207 37.1288 56.9371 37.1288C42.4543 37.1288 30.7035 48.8679 30.7035 63.35Z" fill="#740B99"/>
<path fill-rule="evenodd" clip-rule="evenodd" d="M56.9442 35.0204C57.4617 35.0204 57.8812 34.6009 57.8812 34.0834V30.6856C57.8812 30.1682 57.4617 29.7487 56.9442 29.7487C56.4268 29.7487 56.0073 30.1682 56.0073 30.6856V34.0834C56.0073 34.6009 56.4268 35.0204 56.9442 35.0204Z" fill="#740B99"/>
<path fill-rule="evenodd" clip-rule="evenodd" d="M48.1873 36.4125C48.6783 36.2543 48.9481 35.7281 48.79 35.2371L47.7489 32.0047C47.5908 31.5137 47.0646 31.2438 46.5736 31.402C46.0826 31.5601 45.8127 32.0863 45.9709 32.5773L47.0119 35.8098C47.1701 36.3008 47.6963 36.5706 48.1873 36.4125Z" fill="#740B99"/>
<path fill-rule="evenodd" clip-rule="evenodd" d="M40.2822 40.4343C40.6989 40.1328 40.7922 39.5506 40.4907 39.1339L38.5011 36.3847C38.1996 35.968 37.6173 35.8747 37.2007 36.1762C36.784 36.4778 36.6907 37.06 36.9922 37.4767L38.9818 40.2259C39.2833 40.6425 39.8656 40.7359 40.2822 40.4343Z" fill="#740B99"/>
<path fill-rule="evenodd" clip-rule="evenodd" d="M34.0134 46.7016C34.3141 46.2858 34.2208 45.7049 33.805 45.4042L31.0432 43.4071C30.6274 43.1063 30.0465 43.1997 29.7458 43.6155C29.4451 44.0313 29.5385 44.6122 29.9543 44.9129L32.716 46.91C33.1319 47.2107 33.7127 47.1174 34.0134 46.7016Z" fill="#740B99"/>
<path fill-rule="evenodd" clip-rule="evenodd" d="M29.9986 54.5883C30.1572 54.1011 29.8909 53.5775 29.4037 53.4188L26.1806 52.3692C25.6934 52.2105 25.1698 52.4769 25.0111 52.9641C24.8525 53.4513 25.1188 53.9749 25.606 54.1336L28.8291 55.1832C29.3163 55.3419 29.8399 55.0755 29.9986 54.5883Z" fill="#740B99"/>
<path fill-rule="evenodd" clip-rule="evenodd" d="M23.356 63.3504C23.356 63.8626 23.7711 64.2777 24.2833 64.2777H27.677C28.1891 64.2777 28.6043 63.8626 28.6043 63.3504C28.6043 62.8383 28.1891 62.4231 27.677 62.4231H24.2833C23.7711 62.4231 23.356 62.8383 23.356 63.3504Z" fill="#740B99"/>
<path fill-rule="evenodd" clip-rule="evenodd" d="M85.2458 63.3518C85.2458 63.8753 85.6701 64.2996 86.1936 64.2996H89.5916C90.115 64.2996 90.5394 63.8753 90.5394 63.3518C90.5394 62.8284 90.115 62.4041 89.5916 62.4041H86.1936C85.6701 62.4041 85.2458 62.8284 85.2458 63.3518Z" fill="#740B99"/>
<path fill-rule="evenodd" clip-rule="evenodd" d="M83.8585 54.6007C84.0197 55.0985 84.5538 55.3712 85.0515 55.21L88.2894 54.1612C88.7871 54 89.0598 53.4658 88.8986 52.9681C88.7374 52.4704 88.2033 52.1976 87.7056 52.3588L84.4677 53.4076C83.9701 53.5688 83.6973 54.103 83.8585 54.6007Z" fill="#740B99"/>
<path fill-rule="evenodd" clip-rule="evenodd" d="M79.8502 46.7128C80.158 47.1348 80.7496 47.2273 81.1716 46.9195L83.9122 44.9202C84.3341 44.6124 84.4266 44.0208 84.1188 43.5989C83.811 43.1769 83.2194 43.0844 82.7975 43.3922L80.0569 45.3915C79.6349 45.6993 79.5424 46.2909 79.8502 46.7128Z" fill="#740B99"/>
<path fill-rule="evenodd" clip-rule="evenodd" d="M73.5846 40.4403C74.0059 40.7467 74.5959 40.6535 74.9023 40.2321L76.9001 37.4844C77.2065 37.063 77.1132 36.4731 76.6918 36.1667C76.2705 35.8603 75.6805 35.9536 75.3741 36.3749L73.3763 39.1226C73.07 39.544 73.1632 40.134 73.5846 40.4403Z" fill="#740B99"/>
<path fill-rule="evenodd" clip-rule="evenodd" d="M65.6831 36.4212C66.1771 36.5814 66.7074 36.3108 66.8676 35.8168L67.9157 32.5853C68.0759 32.0913 67.8053 31.5609 67.3113 31.4007C66.8173 31.2405 66.287 31.5111 66.1268 32.0051L65.0787 35.2367C64.9185 35.7307 65.1891 36.261 65.6831 36.4212Z" fill="#740B99"/>
<path fill-rule="evenodd" clip-rule="evenodd" d="M56.9345 127.86L57.2063 127.78C90.6833 117.884 104.665 89.9853 110.286 64.7803C113.098 52.1691 113.833 40.1818 113.865 31.3525C113.882 26.936 113.723 23.3049 113.559 20.7751C113.477 19.5101 113.394 18.5201 113.332 17.8446C113.3 17.5069 113.274 17.2477 113.255 17.0721C113.25 17.0195 113.245 16.9744 113.241 16.9369C113.238 16.9118 113.236 16.8901 113.234 16.8719L113.23 16.8385L113.228 16.8199L113.226 16.8061L113.226 16.8023C113.226 16.8023 113.226 16.8006 112.273 16.9127L113.226 16.8006L113.114 15.8484L112.161 15.9606C95.3004 17.9457 81.6436 14.0931 72.201 9.74628C67.4787 7.57242 63.8129 5.27586 61.3322 3.52684C60.0921 2.65251 59.149 1.91559 58.5191 1.40011C58.2041 1.1424 57.9675 0.940111 57.8113 0.803755C57.7332 0.735584 57.6752 0.683907 57.6375 0.650036C57.6187 0.6331 57.6049 0.620619 57.5963 0.612762L57.5873 0.60445L57.5859 0.60319L56.9345 0L56.2817 0.60445L56.2726 0.612762C56.2674 0.617502 56.2604 0.623905 56.2515 0.631957L56.2314 0.650036C56.1938 0.683907 56.1358 0.735584 56.0577 0.803755C55.9014 0.940111 55.6648 1.1424 55.3499 1.40011C54.7199 1.91557 53.7768 2.65251 52.5368 3.52684C50.0561 5.27586 46.3902 7.57242 41.668 9.74628C32.2254 14.0931 18.5686 17.9457 1.70756 15.9606L0.755585 15.8485L0.643289 16.8004L1.59545 16.9127C0.643289 16.8004 0.643086 16.8021 0.643086 16.8021L0.641052 16.8197C0.639683 16.8316 0.637706 16.849 0.635161 16.8717C0.630072 16.9171 0.622714 16.9841 0.61342 17.0719C0.594833 17.2475 0.568504 17.5067 0.537103 17.8445C0.474304 18.52 0.391208 19.5099 0.309192 20.775C0.145176 23.3048 -0.014608 26.9358 0.00106592 31.3524C0.0324005 40.1816 0.764975 52.169 3.57624 64.7802C9.19492 89.9854 23.1768 117.884 56.6628 127.78L56.9345 127.86ZM2.45097 17.973C19.2895 19.7516 32.9604 15.8657 42.4698 11.4881C47.3144 9.25795 51.0813 6.89925 53.6417 5.09401C54.9222 4.19121 55.9017 3.42628 56.5642 2.88414C56.7012 2.77204 56.8247 2.66944 56.9345 2.57713C57.0443 2.66944 57.1677 2.77204 57.3047 2.88414C57.9673 3.42628 58.9468 4.19121 60.2272 5.09401C62.7877 6.89925 66.5546 9.25795 71.3991 11.4881C80.9085 15.8657 94.5793 19.7516 111.418 17.973C111.419 17.9891 111.421 18.0053 111.422 18.0218C111.483 18.6806 111.565 19.6528 111.645 20.8988C111.807 23.3912 111.964 26.9783 111.948 31.3454C111.915 40.0834 111.188 51.9255 108.414 64.3629C102.879 89.1856 89.252 116.179 56.9344 125.86C24.608 116.179 10.9812 89.1856 5.44783 64.363C2.67532 51.9256 1.9496 40.0836 1.91859 31.3456C1.90309 26.9784 2.06112 23.3914 2.22271 20.899C2.3035 19.6529 2.38515 18.6808 2.44641 18.022C2.44794 18.0054 2.44946 17.9891 2.45097 17.973Z" fill="#740B99"/>
<path fill-rule="evenodd" clip-rule="evenodd" d="M56.9442 27.4446C57.4617 27.4446 57.8812 27.0251 57.8812 26.5076V1.30319C57.8812 0.785708 57.4617 0.366205 56.9442 0.366205C56.4268 0.366205 56.0073 0.785708 56.0073 1.30319V26.5076C56.0073 27.0251 56.4268 27.4446 56.9442 27.4446Z" fill="#740B99"/>
<path fill-rule="evenodd" clip-rule="evenodd" d="M56.9442 127.592C57.4617 127.592 57.8812 127.173 57.8812 126.655V100.189C57.8812 99.6712 57.4617 99.2517 56.9442 99.2517C56.4268 99.2517 56.0073 99.6712 56.0073 100.189V126.655C56.0073 127.173 56.4268 127.592 56.9442 127.592Z" fill="#740B99"/>
</svg>
