<svg width="156" height="130" viewBox="0 0 156 130" fill="none" xmlns="http://www.w3.org/2000/svg">
<path d="M78.3358 52.0204C96.1198 52.0204 110.537 66.4373 110.537 84.2213C110.537 102.005 96.1198 116.424 78.3358 116.424C60.5518 116.424 46.1348 102.007 46.1348 84.2213C46.1334 66.4373 60.5504 52.0204 78.3358 52.0204Z" stroke="#740B99" stroke-width="2.41584" stroke-miterlimit="10"/>
<path d="M79.2425 66.8284V66.9806L79.3924 67.0069C83.9216 67.8 87.3676 71.6704 87.3676 76.3151V76.702H84.2464V76.316C84.2464 72.7699 81.2967 69.8929 77.6806 69.8929C74.0637 69.8929 71.1149 72.7699 71.1149 76.316C71.1149 78.2343 72.0793 80.1273 73.6349 81.2635L73.635 81.2635C75.0064 82.2638 76.7273 82.8096 78.3572 83.3266L78.3707 83.3309L78.3708 83.3309C78.8691 83.4886 79.3618 83.6457 79.8431 83.8124C81.5978 84.4213 83.7559 85.3414 85.1561 87.1107L85.1561 87.1107C86.6484 88.9962 87.3667 90.9357 87.3667 93.0437C87.3667 97.6877 83.9216 101.558 79.3916 102.351L79.2417 102.377V102.53V104.898H76.1213V102.529V102.377L75.9716 102.35C71.501 101.561 68.0592 97.7519 67.9954 93.1849L67.9902 92.7931H71.1084L71.1159 93.1718C71.1159 93.1719 71.1159 93.1719 71.1159 93.172C71.1813 96.6475 74.1295 99.466 77.6815 99.466C81.2984 99.466 84.2472 96.5881 84.2472 93.0429C84.2472 90.5282 82.6881 88.3801 80.0185 87.1403C79.028 86.6793 77.9511 86.3344 76.9221 86.0047L76.8973 85.9968L76.8972 85.9968L76.8821 85.9919C76.2777 85.7985 75.6765 85.6061 75.0858 85.3914C70.6963 83.7946 67.9963 80.3105 67.9963 76.3151C67.9963 71.6704 71.4422 67.8 75.9722 67.0069L76.1221 66.9806V66.8284V64.46H79.2425V66.8284Z" fill="#740B99" stroke="white" stroke-width="0.362376"/>
<path d="M2 40.526L2 128H154.673V40.526L2 40.526Z" stroke="#740B99" stroke-width="2.41584" stroke-miterlimit="10"/>
<path d="M131.914 86.3977C131.914 85.4977 131.184 84.7679 130.284 84.7679C129.384 84.7679 128.654 85.4977 128.654 86.3977C128.654 87.2976 129.384 88.026 130.284 88.026C131.184 88.026 131.914 87.2976 131.914 86.3977Z" stroke="#740B99" stroke-width="2.41584" stroke-miterlimit="10"/>
<path d="M28.0121 86.3977C28.0121 85.4977 27.2823 84.7679 26.3837 84.7679C25.4837 84.7679 24.7539 85.4977 24.7539 86.3977C24.7539 87.2976 25.4837 88.026 26.3837 88.026C27.2823 88.026 28.0121 87.2976 28.0121 86.3977Z" stroke="#740B99" stroke-width="2.41584" stroke-miterlimit="10"/>
<path d="M15.7227 40.6733V18.2179H140.475V40.6733" stroke="#740B99" stroke-width="2.41584" stroke-miterlimit="10"/>
<path d="M25.7031 18.2178V2H130.495V18.2178" stroke="#740B99" stroke-width="2.41584" stroke-miterlimit="10"/>
</svg>
