<svg width="904" height="225" viewBox="0 0 904 225" fill="none" xmlns="http://www.w3.org/2000/svg">
<g filter="url(#filter0_d)">
<rect x="366.95" y="217" width="106.037" height="213" rx="7.53993" transform="rotate(-180 366.95 217)" fill="white"/>
</g>
<rect x="362.427" y="191.941" width="96.9914" height="168.896" rx="5.02662" transform="rotate(-180 362.427 191.941)" fill="#F7F7F7"/>
<rect x="299.358" y="16.2789" width="29.3989" height="2.0047" rx="1.00235" fill="#740B99"/>
<ellipse cx="314.057" cy="12.1439" rx="1.13073" ry="1.12764" fill="#740B99"/>
<ellipse cx="313.932" cy="203.718" rx="7.28692" ry="7.26705" fill="#740B99"/>
<rect x="272.974" y="132.802" width="82.1663" height="2.75647" rx="1.00532" fill="#E3E1E3"/>
<rect x="272.974" y="68.9022" width="82.1663" height="2.75647" rx="1.00532" fill="#E3E1E3"/>
<rect x="272.974" y="59.8809" width="82.1663" height="2.75647" rx="1.00532" fill="#E3E1E3"/>
<rect x="272.974" y="77.9235" width="82.1663" height="2.75646" rx="1.00532" fill="#E3E1E3"/>
<rect x="272.974" y="141.823" width="82.1663" height="2.75647" rx="1.00532" fill="#E3E1E3"/>
<rect x="272.974" y="150.845" width="82.1663" height="2.75648" rx="1.00532" fill="#E3E1E3"/>
<rect x="272.974" y="159.866" width="82.1663" height="2.75646" rx="1.00532" fill="#E3E1E3"/>
<rect x="272.974" y="168.887" width="82.1663" height="2.75646" rx="1.00532" fill="#E3E1E3"/>
<rect x="272.974" y="177.908" width="82.1663" height="2.75648" rx="1.00532" fill="#E3E1E3"/>
<rect width="39.9524" height="2.75646" rx="1.00532" transform="matrix(-1 0 0 1 312.927 32.818)" fill="#E3E1E3"/>
<rect width="38.1935" height="20.7988" rx="1.00532" transform="matrix(-1 0 0 1 355.141 32.818)" fill="#E3E1E3"/>
<rect width="39.9524" height="2.75647" rx="1.00532" transform="matrix(-1 0 0 1 312.927 41.8391)" fill="#E3E1E3"/>
<rect width="39.9524" height="2.75647" rx="1.00532" transform="matrix(-1 0 0 1 312.927 50.8602)" fill="#E3E1E3"/>
<rect x="272.974" y="86.9448" width="82.1663" height="39.5929" rx="2.01065" fill="#740B99"/>
<g filter="url(#filter1_d)">
<rect x="239.32" y="217" width="106.037" height="213" rx="7.53993" transform="rotate(-180 239.32 217)" fill="white"/>
</g>
<rect x="234.797" y="191.941" width="96.9914" height="168.896" rx="5.02662" transform="rotate(-180 234.797 191.941)" fill="#F7F7F7"/>
<rect x="171.728" y="16.2788" width="29.3989" height="2.0047" rx="1.00235" fill="#740B99"/>
<ellipse cx="186.427" cy="12.1441" rx="1.13073" ry="1.12764" fill="#740B99"/>
<ellipse cx="186.301" cy="203.718" rx="7.28692" ry="7.26705" fill="#740B99"/>
<rect x="145.344" y="32.3165" width="82.1663" height="32.3258" rx="2.01065" fill="#740B99"/>
<rect x="145.344" y="69.6541" width="82.1663" height="2.75647" rx="1.00532" fill="#E3E1E3"/>
<rect x="145.344" y="78.6752" width="82.1663" height="2.75646" rx="1.00532" fill="#E3E1E3"/>
<rect x="145.344" y="87.6964" width="82.1663" height="2.75646" rx="1.00532" fill="#E3E1E3"/>
<rect x="145.344" y="123.781" width="82.1663" height="2.75646" rx="1.00532" fill="#E3E1E3"/>
<rect x="145.344" y="132.802" width="82.1663" height="2.75646" rx="1.00532" fill="#E3E1E3"/>
<rect x="145.344" y="141.823" width="82.1663" height="2.75646" rx="1.00532" fill="#E3E1E3"/>
<rect x="145.344" y="150.844" width="82.1663" height="2.75648" rx="1.00532" fill="#E3E1E3"/>
<rect x="145.344" y="159.866" width="82.1663" height="2.75646" rx="1.00532" fill="#E3E1E3"/>
<rect x="145.344" y="168.887" width="82.1663" height="2.75646" rx="1.00532" fill="#E3E1E3"/>
<rect x="145.344" y="177.908" width="82.1663" height="2.75648" rx="1.00532" fill="#E3E1E3"/>
<rect x="187.558" y="96.7177" width="39.9524" height="2.75646" rx="1.00532" fill="#E3E1E3"/>
<rect x="145.344" y="96.7177" width="38.1935" height="20.7988" rx="1.00532" fill="#E3E1E3"/>
<rect x="187.558" y="105.739" width="39.9524" height="2.75646" rx="1.00532" fill="#E3E1E3"/>
<rect x="187.558" y="114.76" width="39.9524" height="2.75647" rx="1.00532" fill="#E3E1E3"/>
<path d="M178.443 49.6743C178.687 49.7421 178.879 49.8659 179.018 50.0456C179.158 50.2212 179.228 50.4448 179.228 50.7163C179.228 51.0796 179.09 51.3591 178.815 51.5547C178.543 51.7503 178.146 51.8481 177.623 51.8481H175.623V47.6561H177.503C177.982 47.6561 178.352 47.7519 178.611 47.9436C178.875 48.1352 179.006 48.4007 179.006 48.7401C179.006 48.9596 178.954 49.1493 178.851 49.309C178.751 49.4687 178.615 49.5904 178.443 49.6743ZM176.222 48.1412V49.4826H177.449C177.757 49.4826 177.992 49.4267 178.156 49.315C178.324 49.1992 178.407 49.0315 178.407 48.8119C178.407 48.5923 178.324 48.4266 178.156 48.3149C177.992 48.1991 177.757 48.1412 177.449 48.1412H176.222ZM177.599 51.3631C177.938 51.3631 178.194 51.3072 178.365 51.1954C178.537 51.0836 178.623 50.9079 178.623 50.6684C178.623 50.2013 178.282 49.9677 177.599 49.9677H176.222V51.3631H177.599ZM181.227 48.6442C181.666 48.6442 182.002 48.752 182.233 48.9676C182.469 49.1832 182.586 49.5046 182.586 49.9318V51.8481H182.042V51.4289C181.946 51.5767 181.808 51.6904 181.628 51.7703C181.453 51.8461 181.243 51.8841 180.999 51.8841C180.644 51.8841 180.359 51.7982 180.143 51.6266C179.932 51.4549 179.826 51.2293 179.826 50.9499C179.826 50.6704 179.928 50.4468 180.131 50.2791C180.335 50.1075 180.658 50.0216 181.101 50.0216H182.012V49.9078C182.012 49.6603 181.94 49.4707 181.796 49.3389C181.652 49.2072 181.441 49.1413 181.161 49.1413C180.974 49.1413 180.79 49.1732 180.61 49.2371C180.431 49.297 180.279 49.3788 180.155 49.4826L179.916 49.0515C180.079 48.9197 180.275 48.8199 180.502 48.752C180.73 48.6802 180.972 48.6442 181.227 48.6442ZM181.095 51.4409C181.315 51.4409 181.505 51.393 181.664 51.2972C181.824 51.1974 181.94 51.0576 182.012 50.878V50.4348H181.125C180.638 50.4348 180.395 50.5985 180.395 50.9259C180.395 51.0856 180.457 51.2114 180.58 51.3032C180.704 51.395 180.876 51.4409 181.095 51.4409ZM185.345 48.6442C185.748 48.6442 186.068 48.762 186.303 48.9976C186.543 49.2291 186.663 49.5705 186.663 50.0216V51.8481H186.088V50.0875C186.088 49.7801 186.014 49.5485 185.866 49.3928C185.718 49.2371 185.507 49.1593 185.231 49.1593C184.92 49.1593 184.674 49.2511 184.495 49.4347C184.315 49.6144 184.225 49.8739 184.225 50.2133V51.8481H183.65V48.6742H184.201V49.1533C184.317 48.9896 184.473 48.8638 184.668 48.776C184.868 48.6881 185.094 48.6442 185.345 48.6442ZM189.421 48.6442C189.825 48.6442 190.144 48.762 190.38 48.9976C190.619 49.2291 190.739 49.5705 190.739 50.0216V51.8481H190.164V50.0875C190.164 49.7801 190.09 49.5485 189.942 49.3928C189.795 49.2371 189.583 49.1593 189.308 49.1593C188.996 49.1593 188.751 49.2511 188.571 49.4347C188.391 49.6144 188.302 49.8739 188.302 50.2133V51.8481H187.727V48.6742H188.278V49.1533C188.393 48.9896 188.549 48.8638 188.745 48.776C188.944 48.6881 189.17 48.6442 189.421 48.6442ZM194.689 50.2791C194.689 50.323 194.685 50.3809 194.677 50.4528H192.102C192.138 50.7323 192.26 50.9578 192.467 51.1295C192.679 51.2972 192.94 51.381 193.252 51.381C193.631 51.381 193.936 51.2533 194.168 50.9978L194.485 51.3691C194.342 51.5367 194.162 51.6645 193.946 51.7523C193.735 51.8402 193.497 51.8841 193.234 51.8841C192.898 51.8841 192.601 51.8162 192.341 51.6805C192.082 51.5407 191.88 51.3471 191.737 51.0996C191.597 50.852 191.527 50.5726 191.527 50.2612C191.527 49.9537 191.595 49.6763 191.731 49.4287C191.87 49.1812 192.06 48.9896 192.3 48.8538C192.543 48.7141 192.817 48.6442 193.12 48.6442C193.423 48.6442 193.693 48.7141 193.928 48.8538C194.168 48.9896 194.354 49.1812 194.485 49.4287C194.621 49.6763 194.689 49.9597 194.689 50.2791ZM193.12 49.1293C192.844 49.1293 192.613 49.2132 192.425 49.3808C192.242 49.5485 192.134 49.7681 192.102 50.0396H194.138C194.106 49.7721 193.996 49.5545 193.809 49.3868C193.625 49.2151 193.395 49.1293 193.12 49.1293ZM196.038 49.2072C196.138 49.0235 196.286 48.8838 196.481 48.788C196.677 48.6921 196.915 48.6442 197.194 48.6442V49.2012C197.162 49.1972 197.118 49.1952 197.062 49.1952C196.751 49.1952 196.505 49.289 196.326 49.4767C196.15 49.6603 196.062 49.9238 196.062 50.2671V51.8481H195.487V48.6742H196.038V49.2072Z" fill="white"/>
<g filter="url(#filter2_d)">
<rect x="621.667" y="217" width="106.037" height="213" rx="7.53993" transform="rotate(-180 621.667 217)" fill="white"/>
</g>
<rect x="617.145" y="191.941" width="96.9914" height="168.896" rx="5.02662" transform="rotate(-180 617.145 191.941)" fill="#F7F7F7"/>
<rect x="554.075" y="16.2789" width="29.3989" height="2.0047" rx="1.00235" fill="#740B99"/>
<ellipse cx="568.775" cy="12.1441" rx="1.13073" ry="1.12765" fill="#740B99"/>
<ellipse cx="568.649" cy="203.718" rx="7.28692" ry="7.26704" fill="#740B99"/>
<rect x="527.71" y="32.473" width="82.3581" height="58.041" rx="2.01065" fill="#740B99"/>
<rect x="527.692" y="123.781" width="82.1663" height="2.75647" rx="1.00532" fill="#E3E1E3"/>
<rect x="527.692" y="132.802" width="82.1663" height="2.75646" rx="1.00532" fill="#E3E1E3"/>
<rect x="527.692" y="141.823" width="82.1663" height="2.75646" rx="1.00532" fill="#E3E1E3"/>
<rect x="527.692" y="150.844" width="82.1663" height="2.75648" rx="1.00532" fill="#E3E1E3"/>
<rect x="527.692" y="159.866" width="82.1663" height="2.75646" rx="1.00532" fill="#E3E1E3"/>
<rect x="527.692" y="168.887" width="82.1663" height="2.75646" rx="1.00532" fill="#E3E1E3"/>
<rect x="527.692" y="177.908" width="82.1663" height="2.75646" rx="1.00532" fill="#E3E1E3"/>
<rect x="569.906" y="96.7177" width="39.9524" height="2.75646" rx="1.00532" fill="#E3E1E3"/>
<rect x="527.692" y="96.7177" width="38.1935" height="20.7988" rx="1.00532" fill="#E3E1E3"/>
<rect x="569.906" y="105.739" width="39.9524" height="2.75646" rx="1.00532" fill="#E3E1E3"/>
<rect x="569.906" y="114.76" width="39.9524" height="2.75646" rx="1.00532" fill="#E3E1E3"/>
<path d="M554.258 63.1396V63.6606H551.216V59.4686H554.174V59.9896H551.814V61.2772H553.916V61.7862H551.814V63.1396H554.258ZM557.098 63.6606L556.181 62.445L555.253 63.6606H554.612L555.864 62.0377L554.672 60.4867H555.313L556.187 61.6305L557.056 60.4867H557.685L556.487 62.0377L557.75 63.6606H557.098ZM560.061 60.4567C560.368 60.4567 560.643 60.5246 560.887 60.6603C561.131 60.7961 561.32 60.9857 561.456 61.2293C561.596 61.4728 561.665 61.7543 561.665 62.0737C561.665 62.3931 561.596 62.6765 561.456 62.924C561.32 63.1676 561.131 63.3572 560.887 63.493C560.643 63.6287 560.368 63.6966 560.061 63.6966C559.833 63.6966 559.623 63.6527 559.432 63.5648C559.244 63.477 559.084 63.3492 558.953 63.1816V64.8224H558.378V60.4867H558.929V60.9897C559.056 60.8141 559.218 60.6823 559.414 60.5945C559.609 60.5026 559.825 60.4567 560.061 60.4567ZM560.013 63.1935C560.216 63.1935 560.398 63.1476 560.558 63.0558C560.721 62.96 560.849 62.8282 560.941 62.6605C561.037 62.4889 561.085 62.2932 561.085 62.0737C561.085 61.8541 561.037 61.6604 560.941 61.4928C560.849 61.3211 560.721 61.1893 560.558 61.0975C560.398 61.0057 560.216 60.9598 560.013 60.9598C559.813 60.9598 559.631 61.0077 559.468 61.1035C559.308 61.1953 559.18 61.3251 559.084 61.4928C558.993 61.6604 558.947 61.8541 558.947 62.0737C558.947 62.2932 558.993 62.4889 559.084 62.6605C559.176 62.8282 559.304 62.96 559.468 63.0558C559.631 63.1476 559.813 63.1935 560.013 63.1935ZM563.586 60.4567C564.026 60.4567 564.361 60.5645 564.592 60.7801C564.828 60.9957 564.946 61.3171 564.946 61.7443V63.6606H564.401V63.2414C564.305 63.3892 564.167 63.5029 563.988 63.5828C563.812 63.6586 563.602 63.6966 563.359 63.6966C563.003 63.6966 562.718 63.6107 562.502 63.4391C562.291 63.2674 562.185 63.0418 562.185 62.7624C562.185 62.4829 562.287 62.2593 562.49 62.0916C562.694 61.92 563.017 61.8341 563.461 61.8341H564.371V61.7203C564.371 61.4728 564.299 61.2832 564.155 61.1514C564.012 61.0197 563.8 60.9538 563.521 60.9538C563.333 60.9538 563.149 60.9857 562.97 61.0496C562.79 61.1095 562.638 61.1913 562.514 61.2951L562.275 60.864C562.439 60.7322 562.634 60.6324 562.862 60.5645C563.089 60.4927 563.331 60.4567 563.586 60.4567ZM563.455 63.2534C563.674 63.2534 563.864 63.2055 564.024 63.1097C564.183 63.0099 564.299 62.8701 564.371 62.6905V62.2473H563.485C562.998 62.2473 562.754 62.411 562.754 62.7384C562.754 62.8981 562.816 63.0239 562.94 63.1157C563.063 63.2075 563.235 63.2534 563.455 63.2534ZM567.704 60.4567C568.108 60.4567 568.427 60.5745 568.663 60.8101C568.902 61.0416 569.022 61.383 569.022 61.8341V63.6606H568.447V61.9C568.447 61.5926 568.373 61.361 568.226 61.2053C568.078 61.0496 567.866 60.9718 567.591 60.9718C567.279 60.9718 567.034 61.0636 566.854 61.2472C566.674 61.4269 566.585 61.6864 566.585 62.0258V63.6606H566.01V60.4867H566.561V60.9658C566.676 60.8021 566.832 60.6763 567.028 60.5885C567.227 60.5006 567.453 60.4567 567.704 60.4567ZM573.098 59.2171V63.6606H572.547V63.1576C572.419 63.3333 572.257 63.467 572.062 63.5588C571.866 63.6507 571.651 63.6966 571.415 63.6966C571.108 63.6966 570.832 63.6287 570.589 63.493C570.345 63.3572 570.153 63.1676 570.014 62.924C569.878 62.6765 569.81 62.3931 569.81 62.0737C569.81 61.7543 569.878 61.4728 570.014 61.2293C570.153 60.9857 570.345 60.7961 570.589 60.6603C570.832 60.5246 571.108 60.4567 571.415 60.4567C571.643 60.4567 571.852 60.5006 572.044 60.5885C572.235 60.6723 572.395 60.7981 572.523 60.9658V59.2171H573.098ZM571.463 63.1935C571.663 63.1935 571.844 63.1476 572.008 63.0558C572.172 62.96 572.299 62.8282 572.391 62.6605C572.483 62.4889 572.529 62.2932 572.529 62.0737C572.529 61.8541 572.483 61.6604 572.391 61.4928C572.299 61.3211 572.172 61.1893 572.008 61.0975C571.844 61.0057 571.663 60.9598 571.463 60.9598C571.259 60.9598 571.076 61.0057 570.912 61.0975C570.752 61.1893 570.625 61.3211 570.529 61.4928C570.437 61.6604 570.391 61.8541 570.391 62.0737C570.391 62.2932 570.437 62.4889 570.529 62.6605C570.625 62.8282 570.752 62.96 570.912 63.0558C571.076 63.1476 571.259 63.1935 571.463 63.1935ZM575.341 60.4567C575.781 60.4567 576.116 60.5645 576.347 60.7801C576.583 60.9957 576.701 61.3171 576.701 61.7443V63.6606H576.156V63.2414C576.06 63.3892 575.922 63.5029 575.743 63.5828C575.567 63.6586 575.357 63.6966 575.114 63.6966C574.758 63.6966 574.473 63.6107 574.257 63.4391C574.046 63.2674 573.94 63.0418 573.94 62.7624C573.94 62.4829 574.042 62.2593 574.245 62.0916C574.449 61.92 574.772 61.8341 575.216 61.8341H576.126V61.7203C576.126 61.4728 576.054 61.2832 575.91 61.1514C575.767 61.0197 575.555 60.9538 575.276 60.9538C575.088 60.9538 574.904 60.9857 574.725 61.0496C574.545 61.1095 574.393 61.1913 574.269 61.2951L574.03 60.864C574.194 60.7322 574.389 60.6324 574.617 60.5645C574.844 60.4927 575.086 60.4567 575.341 60.4567ZM575.21 63.2534C575.429 63.2534 575.619 63.2055 575.779 63.1097C575.938 63.0099 576.054 62.8701 576.126 62.6905V62.2473H575.24C574.753 62.2473 574.509 62.411 574.509 62.7384C574.509 62.8981 574.571 63.0239 574.695 63.1157C574.818 63.2075 574.99 63.2534 575.21 63.2534ZM579.448 60.4567C579.755 60.4567 580.03 60.5246 580.274 60.6603C580.517 60.7961 580.707 60.9857 580.843 61.2293C580.983 61.4728 581.052 61.7543 581.052 62.0737C581.052 62.3931 580.983 62.6765 580.843 62.924C580.707 63.1676 580.517 63.3572 580.274 63.493C580.03 63.6287 579.755 63.6966 579.448 63.6966C579.212 63.6966 578.996 63.6507 578.801 63.5588C578.605 63.467 578.443 63.3333 578.316 63.1576V63.6606H577.765V59.2171H578.34V60.9658C578.467 60.7981 578.627 60.6723 578.819 60.5885C579.01 60.5006 579.22 60.4567 579.448 60.4567ZM579.4 63.1935C579.603 63.1935 579.785 63.1476 579.945 63.0558C580.108 62.96 580.236 62.8282 580.328 62.6605C580.424 62.4889 580.472 62.2932 580.472 62.0737C580.472 61.8541 580.424 61.6604 580.328 61.4928C580.236 61.3211 580.108 61.1893 579.945 61.0975C579.785 61.0057 579.603 60.9598 579.4 60.9598C579.2 60.9598 579.018 61.0057 578.855 61.0975C578.691 61.1893 578.563 61.3211 578.471 61.4928C578.38 61.6604 578.334 61.8541 578.334 62.0737C578.334 62.2932 578.38 62.4889 578.471 62.6605C578.563 62.8282 578.691 62.96 578.855 63.0558C579.018 63.1476 579.2 63.1935 579.4 63.1935ZM581.847 59.2171H582.422V63.6606H581.847V59.2171ZM586.388 62.0916C586.388 62.1355 586.384 62.1934 586.376 62.2653H583.801C583.837 62.5448 583.959 62.7703 584.166 62.942C584.378 63.1097 584.639 63.1935 584.951 63.1935C585.33 63.1935 585.635 63.0658 585.867 62.8103L586.184 63.1816C586.041 63.3492 585.861 63.477 585.645 63.5648C585.434 63.6527 585.196 63.6966 584.933 63.6966C584.597 63.6966 584.3 63.6287 584.04 63.493C583.781 63.3532 583.579 63.1596 583.436 62.9121C583.296 62.6645 583.226 62.3851 583.226 62.0737C583.226 61.7662 583.294 61.4888 583.43 61.2412C583.569 60.9937 583.759 60.8021 583.998 60.6663C584.242 60.5266 584.516 60.4567 584.819 60.4567C585.122 60.4567 585.392 60.5266 585.627 60.6663C585.867 60.8021 586.053 60.9937 586.184 61.2412C586.32 61.4888 586.388 61.7722 586.388 62.0916ZM584.819 60.9418C584.543 60.9418 584.312 61.0257 584.124 61.1933C583.941 61.361 583.833 61.5806 583.801 61.8521H585.837C585.805 61.5846 585.695 61.367 585.508 61.1993C585.324 61.0276 585.094 60.9418 584.819 60.9418Z" fill="white"/>
<path d="M533.789 35.9394L533.788 35.3724L530.618 35.374L530.618 38.5362L531.185 38.5362L531.185 35.9394H533.789Z" fill="white"/>
<path d="M604.537 87.0478L604.539 87.6147L607.708 87.6131L607.708 84.451L607.141 84.451L607.141 87.0478L604.537 87.0478Z" fill="white"/>
<g filter="url(#filter3_d)">
<rect x="112.037" y="217" width="106.037" height="213" rx="7.53993" transform="rotate(-180 112.037 217)" fill="white"/>
</g>
<rect x="107.514" y="191.941" width="96.9914" height="168.896" rx="5.02662" transform="rotate(-180 107.514 191.941)" fill="#F7F7F7"/>
<rect x="44.4448" y="16.2788" width="29.3989" height="2.0047" rx="1.00235" fill="#740B99"/>
<ellipse cx="59.1444" cy="12.1441" rx="1.13073" ry="1.12765" fill="#740B99"/>
<ellipse cx="59.0186" cy="203.718" rx="7.28692" ry="7.26704" fill="#740B99"/>
<rect x="18.061" y="132.802" width="82.1663" height="2.75647" rx="1.00532" fill="#E3E1E3"/>
<rect x="18.061" y="68.9022" width="82.1663" height="2.75647" rx="1.00532" fill="#E3E1E3"/>
<rect x="18.061" y="59.8811" width="82.1663" height="2.75647" rx="1.00532" fill="#E3E1E3"/>
<rect x="18.061" y="77.9233" width="82.1663" height="2.75647" rx="1.00532" fill="#E3E1E3"/>
<rect x="18.061" y="141.823" width="82.1663" height="2.75646" rx="1.00532" fill="#E3E1E3"/>
<rect x="18.061" y="114.76" width="82.1663" height="2.75647" rx="1.00532" fill="#E3E1E3"/>
<rect x="18.061" y="123.781" width="82.1663" height="2.75647" rx="1.00532" fill="#E3E1E3"/>
<rect x="18.061" y="150.844" width="82.1663" height="2.75648" rx="1.00532" fill="#E3E1E3"/>
<rect x="18.061" y="159.866" width="82.1663" height="2.75646" rx="1.00532" fill="#E3E1E3"/>
<rect x="18.061" y="168.887" width="82.1663" height="2.75646" rx="1.00532" fill="#E3E1E3"/>
<rect x="18.061" y="177.908" width="82.1663" height="2.75646" rx="1.00532" fill="#E3E1E3"/>
<rect width="39.9524" height="2.75646" rx="1.00532" transform="matrix(-1 0 0 1 58.0134 32.8176)" fill="#E3E1E3"/>
<rect width="38.1935" height="20.7988" rx="1.00532" transform="matrix(-1 0 0 1 100.227 32.8176)" fill="#E3E1E3"/>
<rect width="39.9524" height="2.75647" rx="1.00532" transform="matrix(-1 0 0 1 58.0134 41.8387)" fill="#E3E1E3"/>
<rect width="39.9524" height="2.75646" rx="1.00532" transform="matrix(-1 0 0 1 58.0134 50.86)" fill="#E3E1E3"/>
<rect width="39.9524" height="2.75647" rx="1.00532" transform="matrix(-1 0 0 1 58.0134 86.9445)" fill="#E3E1E3"/>
<rect width="38.1935" height="20.7988" rx="1.00532" transform="matrix(-1 0 0 1 100.227 86.9446)" fill="#E3E1E3"/>
<rect width="39.9524" height="2.75646" rx="1.00532" transform="matrix(-1 0 0 1 58.0134 95.9657)" fill="#E3E1E3"/>
<rect width="39.9524" height="2.75647" rx="1.00532" transform="matrix(-1 0 0 1 58.0134 104.987)" fill="#E3E1E3"/>
<rect x="22.8352" y="40.3352" width="72.3666" height="131.308" rx="7.53993" fill="#740B99"/>
<path d="M52.5647 106.573C52.5671 106.698 52.5438 106.821 52.4963 106.935C52.4501 107.035 52.3817 107.121 52.297 107.187C52.2063 107.252 52.1057 107.3 51.9995 107.329C51.8679 107.361 51.7331 107.377 51.598 107.376H51.4225C51.3541 107.376 51.2827 107.376 51.2083 107.376L50.9793 107.351C50.908 107.343 50.8374 107.329 50.7681 107.31C50.6967 107.291 50.6581 107.253 50.6581 107.2V107.005C50.6575 106.993 50.6596 106.981 50.6643 106.971C50.6689 106.961 50.676 106.952 50.6848 106.945C50.7045 106.929 50.7287 106.921 50.7532 106.923H50.7741L50.9823 106.945L51.2083 106.964H51.4255H51.598C51.7317 106.972 51.8653 106.943 51.9847 106.879C52.033 106.845 52.0711 106.798 52.0943 106.742C52.1175 106.686 52.1249 106.624 52.1155 106.564C52.1168 106.481 52.0868 106.4 52.0322 106.34C51.9428 106.249 51.8429 106.17 51.7348 106.104L51.2053 105.771C51.0593 105.68 50.9286 105.564 50.8187 105.427C50.7191 105.302 50.6663 105.142 50.67 104.977C50.6665 104.853 50.692 104.73 50.7443 104.618C50.7919 104.527 50.8604 104.449 50.9436 104.392C51.0345 104.332 51.1355 104.291 51.2411 104.272C51.3658 104.249 51.4922 104.237 51.6188 104.238C51.7618 104.237 51.9048 104.244 52.0471 104.26C52.1839 104.26 52.3148 104.288 52.4368 104.31C52.5052 104.31 52.5379 104.36 52.5379 104.423V104.606C52.5393 104.619 52.538 104.632 52.534 104.644C52.5301 104.656 52.5235 104.667 52.5149 104.676C52.5064 104.685 52.4959 104.692 52.4844 104.696C52.473 104.7 52.4607 104.702 52.4487 104.7H52.4041L52.0382 104.672C51.8865 104.672 51.7408 104.672 51.5891 104.672C51.469 104.667 51.349 104.685 51.2351 104.726C51.1459 104.763 51.1012 104.851 51.1012 104.993C51.1008 105.034 51.1085 105.074 51.1239 105.112C51.1393 105.149 51.162 105.183 51.1905 105.21C51.2736 105.29 51.3655 105.358 51.4641 105.415L51.9847 105.73C52.1595 105.828 52.3126 105.964 52.4338 106.129C52.5204 106.259 52.5662 106.414 52.5647 106.573V106.573Z" fill="white"/>
<path d="M56.6225 107.307C56.6134 107.317 56.6024 107.326 56.5902 107.332C56.5779 107.338 56.5646 107.341 56.5511 107.341H56.2983C56.2702 107.341 56.2435 107.328 56.224 107.307C56.2144 107.297 56.2069 107.285 56.2018 107.272C56.1966 107.259 56.1941 107.245 56.1942 107.231V105.267C56.1966 105.169 56.1845 105.071 56.1585 104.977C56.1372 104.91 56.1028 104.847 56.0574 104.795C56.0152 104.75 55.963 104.718 55.9057 104.7C55.8439 104.681 55.7798 104.672 55.7153 104.672C55.6149 104.674 55.515 104.689 55.4179 104.716C55.3108 104.748 55.2067 104.782 55.1205 104.823C55.1549 104.964 55.1709 105.109 55.168 105.254V107.231C55.1682 107.259 55.1587 107.286 55.1413 107.307C55.1333 107.318 55.1229 107.327 55.111 107.333C55.0991 107.339 55.086 107.342 55.0729 107.341H54.7843C54.7716 107.342 54.7591 107.338 54.7477 107.332C54.7363 107.326 54.7264 107.318 54.7189 107.307C54.7037 107.285 54.6953 107.258 54.6951 107.231V105.254C54.6964 105.155 54.6885 105.056 54.6713 104.958C54.6605 104.894 54.635 104.834 54.597 104.782C54.5625 104.74 54.517 104.709 54.4661 104.694C54.4086 104.679 54.3497 104.672 54.2906 104.672C54.1886 104.676 54.088 104.698 53.9932 104.738C53.8792 104.781 53.7679 104.832 53.66 104.889V107.231C53.6598 107.258 53.6515 107.285 53.6362 107.307C53.6279 107.317 53.6175 107.326 53.6057 107.332C53.5938 107.338 53.5809 107.341 53.5678 107.341H53.2882C53.2755 107.341 53.2631 107.338 53.2517 107.332C53.2404 107.326 53.2305 107.317 53.2228 107.307C53.2075 107.285 53.1992 107.258 53.199 107.231V104.398C53.1997 104.369 53.2103 104.341 53.2287 104.319C53.2376 104.309 53.2487 104.301 53.261 104.295C53.2734 104.29 53.2867 104.287 53.3001 104.288H53.5619C53.5752 104.288 53.5883 104.291 53.6006 104.296C53.6129 104.301 53.624 104.309 53.6332 104.319C53.6508 104.341 53.6603 104.369 53.66 104.398V104.502C53.7718 104.431 53.8893 104.37 54.011 104.319C54.1444 104.268 54.2855 104.243 54.4274 104.244C54.5286 104.241 54.6295 104.258 54.7248 104.294C54.8135 104.333 54.8921 104.393 54.9539 104.471C55.0953 104.397 55.2439 104.34 55.3971 104.301C55.5363 104.264 55.679 104.245 55.8224 104.244C55.935 104.243 56.0472 104.259 56.1555 104.291C56.2571 104.325 56.3498 104.383 56.4262 104.461C56.5081 104.55 56.5701 104.658 56.6077 104.776C56.6555 104.932 56.6777 105.096 56.6731 105.261V107.225C56.6714 107.242 56.6659 107.258 56.6571 107.272C56.6484 107.287 56.6365 107.298 56.6225 107.307V107.307Z" fill="white"/>
<path d="M59.3771 107.228C59.3767 107.243 59.3736 107.257 59.368 107.27C59.3623 107.283 59.3543 107.294 59.3444 107.304C59.3349 107.315 59.3234 107.323 59.3106 107.329C59.2978 107.335 59.284 107.339 59.27 107.339H59.0291C59.0156 107.338 59.0023 107.335 58.9901 107.329C58.9778 107.323 58.9668 107.314 58.9577 107.304C58.9472 107.295 58.9387 107.283 58.933 107.27C58.9274 107.257 58.9246 107.243 58.925 107.228V107.106C58.8015 107.182 58.6721 107.247 58.5383 107.301C58.4036 107.351 58.2618 107.377 58.1189 107.376C58.0096 107.377 57.9007 107.363 57.7947 107.335C57.6947 107.309 57.602 107.259 57.524 107.187C57.4402 107.113 57.3748 107.018 57.3336 106.91C57.282 106.773 57.2577 106.627 57.2623 106.479V106.413C57.2608 106.279 57.283 106.145 57.3277 106.02C57.3738 105.906 57.449 105.809 57.5448 105.739C57.6618 105.654 57.7947 105.596 57.9345 105.569C58.1303 105.528 58.3297 105.509 58.5294 105.513H58.9161V105.292C58.9331 105.119 58.8886 104.945 58.7911 104.805C58.6693 104.699 58.5132 104.65 58.3569 104.666C58.1843 104.666 58.0356 104.666 57.9047 104.666C57.7739 104.666 57.6579 104.685 57.5538 104.697H57.527C57.504 104.698 57.4814 104.691 57.4616 104.679C57.4437 104.679 57.4348 104.644 57.4348 104.606V104.421C57.4348 104.361 57.4705 104.326 57.5448 104.313C57.6192 104.301 57.7709 104.279 57.8988 104.263C58.0267 104.247 58.1784 104.241 58.3569 104.241C58.4986 104.227 58.6415 104.244 58.7763 104.293C58.9112 104.341 59.0348 104.419 59.1391 104.521C59.3098 104.734 59.3961 105.008 59.38 105.286L59.3771 107.228ZM58.9131 105.862H58.5264C58.3949 105.86 58.2634 105.87 58.1338 105.894C58.046 105.906 57.9618 105.938 57.8869 105.988C57.8282 106.027 57.784 106.086 57.762 106.155C57.7349 106.236 57.7218 106.321 57.7233 106.407V106.473C57.715 106.546 57.7221 106.62 57.7442 106.69C57.7663 106.759 57.8029 106.823 57.8512 106.876C57.9563 106.951 58.0819 106.986 58.2081 106.977C58.327 106.978 58.4454 106.96 58.5591 106.923C58.6817 106.879 58.8002 106.823 58.9131 106.756V105.862Z" fill="white"/>
<path d="M61.2749 104.676C61.1552 104.676 61.036 104.694 60.921 104.729C60.7913 104.772 60.6673 104.832 60.5521 104.908V107.228C60.5523 107.242 60.5497 107.256 60.5446 107.269C60.5395 107.282 60.5319 107.294 60.5224 107.304C60.5029 107.325 60.4761 107.338 60.448 107.339H60.1922C60.1786 107.339 60.1651 107.336 60.1527 107.33C60.1404 107.324 60.1295 107.315 60.1208 107.304C60.1113 107.294 60.1037 107.282 60.0986 107.269C60.0935 107.256 60.0909 107.242 60.0911 107.228V104.395C60.0909 104.381 60.0934 104.366 60.0985 104.353C60.1036 104.339 60.1112 104.327 60.1208 104.317C60.1298 104.306 60.1408 104.298 60.1531 104.292C60.1655 104.287 60.1789 104.284 60.1922 104.285H60.4361C60.4495 104.284 60.4628 104.287 60.4752 104.292C60.4875 104.298 60.4986 104.306 60.5075 104.317C60.5271 104.339 60.5378 104.368 60.5372 104.399V104.515C60.6538 104.426 60.7821 104.356 60.918 104.307C61.0331 104.266 61.1536 104.245 61.2749 104.244C61.3493 104.244 61.385 104.279 61.385 104.348V104.578C61.385 104.644 61.3493 104.676 61.2749 104.676Z" fill="white"/>
<path d="M63.3204 107.353L63.1479 107.372H62.9784C62.8727 107.373 62.767 107.364 62.6631 107.343C62.5812 107.326 62.5052 107.286 62.443 107.227C62.3792 107.166 62.3328 107.088 62.3091 107C62.2762 106.88 62.2611 106.754 62.2645 106.629V104.693L61.7588 104.633C61.6904 104.633 61.6577 104.592 61.6577 104.532V104.381C61.6577 104.315 61.6904 104.284 61.7588 104.284H62.2645V103.739C62.2637 103.725 62.2655 103.711 62.2699 103.698C62.2743 103.685 62.2812 103.673 62.29 103.663C62.2989 103.652 62.3097 103.644 62.3216 103.638C62.3336 103.632 62.3465 103.629 62.3597 103.629L62.6333 103.585C62.6439 103.585 62.6544 103.587 62.6642 103.591C62.6739 103.595 62.6826 103.602 62.6898 103.61C62.6981 103.619 62.7045 103.63 62.7086 103.642C62.7127 103.654 62.7145 103.667 62.7137 103.679V104.284H63.2788C63.2926 104.283 63.3063 104.286 63.3191 104.291C63.3319 104.297 63.3436 104.305 63.3533 104.315C63.3631 104.325 63.3707 104.338 63.3758 104.351C63.3809 104.365 63.3833 104.379 63.3829 104.394V104.583C63.3833 104.597 63.3809 104.612 63.3758 104.625C63.3707 104.639 63.3631 104.651 63.3533 104.662C63.3436 104.672 63.3319 104.68 63.3191 104.685C63.3063 104.691 63.2926 104.693 63.2788 104.693H62.7137V106.626C62.7005 106.726 62.7227 106.828 62.7761 106.912C62.8401 106.96 62.9184 106.981 62.9962 106.972H63.2937C63.368 106.972 63.4037 107 63.4037 107.051V107.249C63.4126 107.309 63.3829 107.34 63.3204 107.353Z" fill="white"/>
<path d="M66.1397 104.384C66.1422 104.396 66.1422 104.409 66.1397 104.422L65.2741 107.617C65.2395 107.748 65.1948 107.877 65.1403 108.001C65.0977 108.097 65.0369 108.182 64.9618 108.252C64.8831 108.317 64.7932 108.366 64.6971 108.394C64.5724 108.425 64.4445 108.44 64.3164 108.438C64.2378 108.437 64.1594 108.432 64.0814 108.422C64.0121 108.418 63.9434 108.406 63.8762 108.388C63.8481 108.383 63.8209 108.374 63.7959 108.359C63.7858 108.354 63.7775 108.345 63.7722 108.334C63.7669 108.324 63.7648 108.312 63.7661 108.3V108.095C63.7661 108.035 63.7988 108.004 63.8643 108.004C63.9237 108.004 64.0041 108.004 64.0992 108.026C64.1944 108.048 64.2717 108.026 64.3312 108.026C64.3971 108.027 64.4629 108.02 64.5275 108.007C64.5797 107.994 64.6285 107.97 64.6703 107.934C64.714 107.894 64.7494 107.845 64.7744 107.79C64.8097 107.715 64.8357 107.635 64.8518 107.554L64.9023 107.327H64.8309C64.7934 107.332 64.7555 107.332 64.7179 107.327C64.6802 107.32 64.6446 107.304 64.6138 107.28C64.5756 107.248 64.5442 107.209 64.5216 107.163C64.4883 107.097 64.4614 107.027 64.4413 106.956L63.7453 104.422C63.7428 104.409 63.7428 104.396 63.7453 104.384C63.7453 104.321 63.778 104.289 63.8404 104.289H64.1379C64.1483 104.29 64.1585 104.292 64.1678 104.297C64.177 104.302 64.1851 104.309 64.1914 104.318C64.2077 104.334 64.22 104.355 64.2271 104.378L64.8458 106.789C64.85 106.828 64.8668 106.865 64.8934 106.893C64.9077 106.905 64.9256 106.911 64.944 106.911H65.0273L65.6667 104.371C65.6751 104.349 65.6883 104.33 65.7054 104.315C65.7136 104.306 65.7234 104.299 65.7342 104.295C65.7449 104.291 65.7564 104.289 65.7679 104.289H66.0653C66.11 104.289 66.1397 104.321 66.1397 104.384Z" fill="white"/>
<path d="M68.7064 107.229C68.7065 107.243 68.7039 107.257 68.6988 107.27C68.6937 107.283 68.6861 107.295 68.6766 107.305C68.6571 107.326 68.6304 107.339 68.6022 107.339H68.3613C68.3332 107.339 68.3065 107.326 68.287 107.305C68.2774 107.295 68.2699 107.283 68.2648 107.27C68.2596 107.257 68.2571 107.243 68.2572 107.229V107.106C68.1327 107.183 68.0024 107.248 67.8676 107.302C67.7331 107.353 67.5911 107.378 67.4482 107.377C67.3399 107.378 67.232 107.364 67.127 107.336C67.0261 107.31 66.9324 107.26 66.8533 107.188C66.7712 107.113 66.7071 107.018 66.6659 106.911C66.6143 106.774 66.59 106.627 66.5945 106.48V106.414C66.5916 106.28 66.6139 106.146 66.66 106.02C66.7059 105.908 66.7799 105.811 66.8741 105.74C66.9925 105.656 67.1262 105.598 67.2667 105.57C67.4625 105.529 67.662 105.51 67.8616 105.514H68.2483V105.293C68.2654 105.12 68.2208 104.946 68.1234 104.805C68.0016 104.7 67.8455 104.651 67.6891 104.667C67.5166 104.667 67.3679 104.667 67.237 104.667C67.1061 104.667 66.9902 104.686 66.8861 104.698H66.8593C66.8362 104.698 66.8136 104.692 66.7938 104.68C66.783 104.672 66.7746 104.66 66.7693 104.648C66.7641 104.635 66.7623 104.621 66.7641 104.607V104.421C66.7641 104.362 66.8028 104.327 66.8741 104.314C66.9455 104.302 67.1032 104.28 67.2281 104.264C67.353 104.248 67.5255 104.242 67.6891 104.242C67.825 104.22 67.9638 104.232 68.0947 104.276C68.2256 104.32 68.3451 104.396 68.4439 104.497C68.5426 104.598 68.618 104.722 68.664 104.859C68.7101 104.996 68.7256 105.143 68.7094 105.287L68.7064 107.229ZM68.2453 105.863H67.8735C67.742 105.86 67.6106 105.871 67.4809 105.895C67.393 105.906 67.3087 105.938 67.234 105.989C67.176 106.029 67.1313 106.087 67.1062 106.156C67.0802 106.237 67.0681 106.322 67.0705 106.408V106.474C67.0617 106.547 67.0684 106.62 67.09 106.69C67.1116 106.76 67.1476 106.824 67.1954 106.877C67.3007 106.951 67.4261 106.986 67.5523 106.977C67.6712 106.979 67.7896 106.961 67.9033 106.924C68.0271 106.881 68.1466 106.825 68.2602 106.757L68.2453 105.863Z" fill="white"/>
<path d="M71.5457 107.157C71.5484 107.187 71.541 107.217 71.5249 107.242C71.5249 107.264 71.4833 107.277 71.4357 107.283C71.2756 107.318 71.1137 107.342 70.9508 107.356C70.7902 107.356 70.6296 107.378 70.469 107.378C70.2949 107.382 70.1219 107.349 69.9604 107.28C69.8227 107.221 69.701 107.127 69.6064 107.006C69.5066 106.881 69.4344 106.734 69.3952 106.575C69.3483 106.39 69.3253 106.2 69.3268 106.008V105.609C69.3054 105.248 69.4055 104.891 69.6094 104.601C69.7189 104.479 69.8529 104.384 70.0016 104.323C70.1503 104.262 70.31 104.236 70.469 104.249C70.5493 104.249 70.6475 104.249 70.7664 104.265C70.8854 104.28 70.9866 104.287 71.0907 104.305V103.273C71.0898 103.259 71.0917 103.245 71.0963 103.232C71.101 103.219 71.1082 103.207 71.1175 103.198C71.1268 103.188 71.1379 103.18 71.1502 103.175C71.1625 103.17 71.1757 103.168 71.1888 103.169H71.4565C71.4691 103.169 71.4817 103.171 71.4934 103.176C71.5052 103.181 71.5159 103.188 71.5249 103.198C71.5423 103.218 71.5518 103.245 71.5517 103.273L71.5457 107.157ZM71.0847 104.715C70.9864 104.697 70.887 104.687 70.7873 104.683H70.4898C70.3791 104.681 70.269 104.701 70.1656 104.743C70.0809 104.781 70.0085 104.845 69.9574 104.926C69.8999 105.013 69.8613 105.113 69.8444 105.218C69.8193 105.349 69.8073 105.482 69.8087 105.615V105.996C69.7958 106.239 69.8473 106.481 69.9574 106.695C70.0175 106.782 70.0985 106.851 70.1921 106.894C70.2857 106.937 70.3885 106.953 70.4898 106.94C70.582 106.94 70.6832 106.94 70.7873 106.94L71.0847 106.918V104.715Z" fill="white"/>
<path d="M74.0819 106.573C74.0849 106.698 74.0604 106.822 74.0105 106.935C73.9653 107.036 73.8967 107.122 73.8112 107.187C73.7206 107.252 73.6199 107.3 73.5138 107.329C73.3822 107.361 73.2474 107.377 73.1123 107.376H72.9308C72.8624 107.376 72.791 107.376 72.7167 107.376L72.4876 107.351C72.4173 107.343 72.3477 107.329 72.2794 107.31C72.2051 107.291 72.1694 107.253 72.1694 107.2V107.005C72.1681 106.993 72.1697 106.982 72.1739 106.971C72.178 106.961 72.1847 106.952 72.1932 106.945C72.2128 106.929 72.237 106.921 72.2616 106.923H72.2824L72.4906 106.945L72.7196 106.964H72.9338H73.1063C73.2401 106.973 73.3737 106.943 73.493 106.879C73.5413 106.845 73.5794 106.798 73.6026 106.742C73.6259 106.686 73.6332 106.624 73.6238 106.564C73.6251 106.481 73.5952 106.4 73.5406 106.34C73.4512 106.249 73.3512 106.17 73.2431 106.104L72.7137 105.771C72.5676 105.68 72.4369 105.564 72.327 105.427C72.2283 105.301 72.1765 105.141 72.1813 104.977C72.177 104.853 72.2015 104.73 72.2526 104.618C72.3002 104.527 72.3687 104.449 72.4519 104.392C72.5428 104.332 72.6438 104.291 72.7494 104.272C72.8741 104.249 73.0005 104.237 73.1271 104.238C73.2692 104.237 73.4112 104.244 73.5525 104.26C73.6923 104.26 73.8202 104.288 73.9421 104.31C74.0105 104.31 74.0433 104.36 74.0433 104.423V104.606C74.0447 104.619 74.0434 104.632 74.0394 104.644C74.0354 104.656 74.0289 104.667 74.0203 104.676C74.0117 104.685 74.0013 104.692 73.9898 104.696C73.9783 104.7 73.9661 104.702 73.954 104.7H73.9392L73.5733 104.672C73.4216 104.672 73.2759 104.672 73.1271 104.672C73.007 104.666 72.887 104.685 72.7732 104.726C72.6839 104.763 72.6393 104.851 72.6393 104.993C72.6389 105.034 72.6466 105.074 72.662 105.112C72.6774 105.149 72.7 105.183 72.7285 105.21C72.8106 105.29 72.9015 105.359 72.9992 105.415L73.5197 105.73C73.6952 105.827 73.8485 105.963 73.9689 106.129C74.049 106.261 74.0885 106.417 74.0819 106.573V106.573Z" fill="white"/>
<path d="M45.0941 108.418C45.0619 108.418 45.0306 108.407 45.0049 108.386C44.9791 108.366 44.9603 108.337 44.9513 108.305C44.9459 108.285 44.9442 108.264 44.9464 108.244C44.9485 108.224 44.9545 108.204 44.9639 108.186C44.9733 108.168 44.986 108.153 45.0012 108.14C45.0164 108.127 45.0338 108.118 45.0525 108.113L45.8615 107.886H45.0911C45.0517 107.886 45.0138 107.869 44.986 107.84C44.9581 107.81 44.9424 107.77 44.9424 107.729C44.9424 107.687 44.9581 107.647 44.986 107.617C45.0138 107.588 45.0517 107.571 45.0911 107.571H46.9234C46.9429 107.568 46.9627 107.57 46.9817 107.575C47.0008 107.581 47.0186 107.59 47.0342 107.603C47.0498 107.616 47.0629 107.631 47.0727 107.649C47.0825 107.667 47.0889 107.687 47.0914 107.708C47.0939 107.729 47.0926 107.75 47.0875 107.77C47.0824 107.79 47.0735 107.809 47.0615 107.825C47.0495 107.842 47.0345 107.856 47.0175 107.866C47.0004 107.876 46.9816 107.883 46.962 107.886L45.1298 108.434L45.0941 108.418Z" fill="white"/>
<path d="M45.094 109.143C45.0617 109.144 45.0301 109.133 45.0043 109.113C44.9785 109.092 44.9598 109.063 44.9512 109.03C44.9411 108.99 44.946 108.948 44.9649 108.912C44.9838 108.876 45.0152 108.85 45.0524 108.838L46.8846 108.29C46.9241 108.279 46.9661 108.285 47.0015 108.306C47.0369 108.328 47.0628 108.364 47.0735 108.405C47.0841 108.447 47.0787 108.492 47.0583 108.529C47.038 108.567 47.0044 108.594 46.9649 108.605L45.1327 109.153L45.094 109.143Z" fill="white"/>
<path d="M46.0028 109.481C45.9706 109.481 45.9393 109.47 45.9136 109.45C45.8879 109.43 45.8691 109.401 45.8601 109.368C45.8547 109.349 45.853 109.328 45.8552 109.308C45.8573 109.288 45.8633 109.268 45.8727 109.25C45.8821 109.233 45.8948 109.217 45.91 109.204C45.9252 109.192 45.9426 109.182 45.9612 109.177L46.089 109.237C46.1693 109.215 46.3863 109.124 46.4012 109.205C46.4066 109.225 46.4083 109.245 46.4061 109.266C46.404 109.286 46.398 109.305 46.3886 109.323C46.3792 109.341 46.3665 109.357 46.3513 109.369C46.3361 109.382 46.3187 109.391 46.3001 109.397L46.0414 109.475L46.0028 109.481Z" fill="white"/>
<path d="M46.6799 107.202H45.3533C45.245 107.202 45.141 107.157 45.0641 107.076C44.9872 106.995 44.9437 106.885 44.9429 106.771V106.33C44.578 106.084 44.2984 105.72 44.146 105.291C43.9936 104.863 43.9766 104.394 44.0976 103.954C44.2187 103.515 44.4711 103.128 44.8172 102.854C45.1632 102.579 45.5841 102.431 46.0166 102.431C46.4492 102.431 46.8701 102.579 47.2161 102.854C47.5621 103.128 47.8146 103.515 47.9356 103.954C48.0566 104.394 48.0397 104.863 47.8873 105.291C47.7349 105.72 47.4552 106.084 47.0904 106.33V106.787C47.0858 106.898 47.0405 107.004 46.964 107.082C46.8876 107.159 46.7858 107.202 46.6799 107.202V107.202ZM46.0077 102.742C45.6321 102.741 45.2669 102.872 44.969 103.114C44.6711 103.356 44.4573 103.696 44.3609 104.08C44.2644 104.464 44.2908 104.871 44.4359 105.238C44.581 105.604 44.8366 105.91 45.163 106.107C45.1859 106.12 45.2049 106.139 45.218 106.163C45.2311 106.187 45.2378 106.214 45.2373 106.242V106.771C45.2373 106.787 45.2403 106.803 45.2462 106.817C45.2521 106.832 45.2607 106.845 45.2715 106.856C45.2823 106.868 45.2951 106.876 45.3092 106.882C45.3232 106.888 45.3383 106.891 45.3533 106.89H46.6799C46.695 106.891 46.71 106.888 46.7241 106.882C46.7381 106.876 46.751 106.868 46.7618 106.856C46.7726 106.845 46.7812 106.832 46.7871 106.817C46.7929 106.803 46.7959 106.787 46.7959 106.771V106.229C46.7958 106.202 46.8023 106.175 46.8148 106.152C46.8273 106.128 46.8454 106.108 46.8673 106.094C47.1889 105.894 47.4393 105.587 47.5801 105.222C47.7209 104.856 47.7442 104.452 47.6465 104.071C47.5488 103.69 47.3355 103.353 47.0394 103.113C46.7433 102.873 46.3808 102.742 46.0077 102.742V102.742Z" fill="white"/>
<path d="M47.6813 102.567C47.6547 102.567 47.6288 102.558 47.607 102.542C47.5852 102.526 47.5685 102.503 47.5592 102.477C47.5498 102.451 47.5482 102.422 47.5546 102.395C47.5611 102.367 47.5752 102.343 47.5951 102.324L48.1153 101.843C48.1418 101.819 48.176 101.807 48.2106 101.81C48.2451 101.813 48.2772 101.831 48.2997 101.859C48.3116 101.871 48.3211 101.886 48.3276 101.903C48.334 101.919 48.3374 101.937 48.3374 101.955C48.3374 101.972 48.334 101.99 48.3276 102.007C48.3211 102.023 48.3116 102.038 48.2997 102.051L47.7794 102.532C47.7663 102.545 47.7508 102.555 47.7339 102.561C47.717 102.566 47.699 102.569 47.6813 102.567V102.567Z" fill="white"/>
<path d="M45.9947 101.982C45.96 101.982 45.9267 101.968 45.9021 101.942C45.8776 101.916 45.8638 101.881 45.8638 101.844V100.78C45.861 100.76 45.8622 100.74 45.8674 100.721C45.8726 100.702 45.8816 100.684 45.8939 100.669C45.9062 100.654 45.9214 100.642 45.9386 100.633C45.9557 100.625 45.9743 100.621 45.9932 100.621C46.012 100.621 46.0306 100.625 46.0478 100.633C46.0649 100.642 46.0801 100.654 46.0924 100.669C46.1047 100.684 46.1138 100.702 46.119 100.721C46.1242 100.74 46.1254 100.76 46.1225 100.78V101.844C46.1226 101.88 46.1092 101.915 46.0853 101.941C46.0614 101.967 46.0288 101.982 45.9947 101.982V101.982Z" fill="white"/>
<path d="M48.5905 104.198C48.5586 104.197 48.528 104.184 48.5047 104.161C48.4814 104.138 48.4669 104.107 48.4639 104.073C48.461 104.039 48.4698 104.006 48.4888 103.978C48.5077 103.951 48.5355 103.932 48.5668 103.925L49.4799 103.74C49.5137 103.734 49.5482 103.743 49.5765 103.763C49.6047 103.783 49.6244 103.814 49.6316 103.85C49.6377 103.886 49.6302 103.922 49.6107 103.952C49.5912 103.982 49.5613 104.003 49.5275 104.01L48.6143 104.195L48.5905 104.198Z" fill="white"/>
<path d="M44.3006 102.567C44.2688 102.567 44.2379 102.555 44.2144 102.532L43.6971 102.051C43.6841 102.039 43.6735 102.025 43.6657 102.009C43.6579 101.993 43.6532 101.976 43.6518 101.958C43.6504 101.94 43.6524 101.922 43.6576 101.905C43.6629 101.888 43.6712 101.872 43.6823 101.859C43.7047 101.831 43.7368 101.813 43.7714 101.81C43.8059 101.807 43.8402 101.819 43.8666 101.843L44.3868 102.324C44.4112 102.35 44.4248 102.385 44.4248 102.422C44.4248 102.458 44.4112 102.493 44.3868 102.519C44.3651 102.546 44.3341 102.563 44.3006 102.567Z" fill="white"/>
<path d="M48.725 106.274C48.7006 106.274 48.6767 106.267 48.6567 106.252L48.2642 105.994C48.2359 105.974 48.2158 105.943 48.2081 105.908C48.2004 105.873 48.2055 105.836 48.2226 105.805C48.2317 105.79 48.2436 105.776 48.2577 105.765C48.2718 105.755 48.2877 105.747 48.3046 105.743C48.3214 105.739 48.3389 105.739 48.356 105.742C48.373 105.745 48.3893 105.751 48.4039 105.761L48.7934 106.019C48.8223 106.039 48.8429 106.069 48.8506 106.105C48.8584 106.14 48.8528 106.177 48.835 106.208C48.8231 106.228 48.8068 106.244 48.7877 106.255C48.7685 106.267 48.747 106.273 48.725 106.274Z" fill="white"/>
<path d="M43.2633 106.207C43.2407 106.208 43.2184 106.202 43.1986 106.19C43.1788 106.178 43.1621 106.162 43.1503 106.141C43.1333 106.11 43.1281 106.073 43.1358 106.038C43.1436 106.003 43.1636 105.972 43.1919 105.952L43.5844 105.695C43.6132 105.681 43.6457 105.679 43.6758 105.689C43.7059 105.699 43.7316 105.72 43.7483 105.748C43.7649 105.776 43.7713 105.81 43.7663 105.843C43.7613 105.876 43.7453 105.906 43.7211 105.927L43.3317 106.185C43.3113 106.199 43.2876 106.207 43.2633 106.207V106.207Z" fill="white"/>
<path d="M43.3937 104.197H43.3699L42.4568 104.012C42.4229 104.005 42.393 103.984 42.3736 103.954C42.3541 103.924 42.3466 103.887 42.3527 103.852C42.3598 103.816 42.3796 103.785 42.4078 103.765C42.436 103.744 42.4706 103.736 42.5044 103.742L43.4175 103.927C43.4488 103.934 43.4765 103.953 43.4955 103.98C43.5144 104.007 43.5232 104.041 43.5203 104.075C43.5174 104.108 43.5029 104.14 43.4795 104.163C43.4562 104.186 43.4257 104.199 43.3937 104.2V104.197Z" fill="white"/>
<g filter="url(#filter4_d)">
<rect x="494.056" y="217" width="106.037" height="213" rx="7.53993" transform="rotate(-180 494.056 217)" fill="white"/>
</g>
<rect x="489.533" y="191.941" width="96.9914" height="168.896" rx="5.02662" transform="rotate(-180 489.533 191.941)" fill="#F7F7F7"/>
<rect x="426.464" y="16.2789" width="29.3989" height="2.0047" rx="1.00235" fill="#740B99"/>
<ellipse cx="441.163" cy="12.1441" rx="1.13073" ry="1.12765" fill="#740B99"/>
<ellipse cx="441.038" cy="203.718" rx="7.28692" ry="7.26704" fill="#740B99"/>
<rect x="400.08" y="69.6541" width="82.1663" height="2.75647" rx="1.00532" fill="#E3E1E3"/>
<rect x="400.08" y="60.6329" width="82.1663" height="2.75647" rx="1.00532" fill="#E3E1E3"/>
<rect x="400.08" y="51.6118" width="82.1663" height="2.75647" rx="1.00532" fill="#E3E1E3"/>
<rect x="400.08" y="42.5907" width="82.1663" height="2.75647" rx="1.00532" fill="#E3E1E3"/>
<rect x="400.08" y="33.5695" width="82.1663" height="2.75646" rx="1.00532" fill="#E3E1E3"/>
<rect x="400.08" y="78.6752" width="82.1663" height="2.75646" rx="1.00532" fill="#E3E1E3"/>
<rect x="400.08" y="87.6964" width="82.1663" height="2.75645" rx="1.00532" fill="#E3E1E3"/>
<rect x="400.08" y="123.781" width="82.1663" height="2.75647" rx="1.00532" fill="#E3E1E3"/>
<rect x="400.08" y="132.802" width="82.1663" height="2.75646" rx="1.00532" fill="#E3E1E3"/>
<rect x="400.08" y="141.823" width="82.1663" height="2.75646" rx="1.00532" fill="#E3E1E3"/>
<rect x="400.08" y="150.844" width="82.1663" height="2.75648" rx="1.00532" fill="#E3E1E3"/>
<rect x="400.08" y="159.866" width="82.1663" height="2.75646" rx="1.00532" fill="#E3E1E3"/>
<rect x="400.08" y="168.887" width="82.1663" height="2.75646" rx="1.00532" fill="#E3E1E3"/>
<rect x="400.08" y="177.908" width="82.1663" height="2.75646" rx="1.00532" fill="#E3E1E3"/>
<rect x="442.294" y="96.7177" width="39.9524" height="2.75646" rx="1.00532" fill="#740B99"/>
<rect x="400.08" y="96.7177" width="38.1935" height="20.7988" rx="1.00532" fill="#740B99"/>
<rect x="442.294" y="105.739" width="39.9524" height="2.75646" rx="1.00532" fill="#740B99"/>
<rect x="442.294" y="114.76" width="39.9524" height="2.75646" rx="1.00532" fill="#740B99"/>
<g filter="url(#filter5_d)">
<path fill-rule="evenodd" clip-rule="evenodd" d="M807.257 6.73804C805.735 6.73804 804.501 7.97189 804.501 9.49393V24.4128H719.979C712.769 24.4128 706.925 30.2576 706.925 37.4676C706.925 40.7973 708.171 43.8358 710.223 46.142H654.612C648.243 46.142 643.08 51.3054 643.08 57.6747V194.473C643.08 200.843 648.243 206.006 654.612 206.006H733.106V209.46C733.106 213.624 736.481 217 740.646 217H800.434C804.598 217 807.974 213.624 807.974 209.46V206.006H886.467C892.837 206.006 898 200.843 898 194.473V57.6747C898 51.3054 892.837 46.142 886.467 46.142H830.857C832.909 43.8358 834.155 40.7973 834.155 37.4676C834.155 30.2576 828.31 24.4128 821.1 24.4128H810.013V9.49393C810.013 7.97189 808.779 6.73804 807.257 6.73804Z" fill="white"/>
</g>
<rect x="647.472" y="50.5426" width="246.525" height="151.126" rx="9.88525" fill="#740B99"/>
<path d="M780.322 125.168C781.55 125.875 781.55 127.647 780.322 128.354L767.241 135.886C766.016 136.591 764.486 135.707 764.486 134.293L764.486 119.229C764.486 117.815 766.016 116.931 767.241 117.636L780.322 125.168Z" fill="#FBB640"/>
<rect x="712.265" y="28.7734" width="117.275" height="17.3888" rx="8.69438" fill="#740B99"/>
<ellipse cx="720.326" cy="37.4678" rx="2.52624" ry="2.51935" fill="white"/>
<defs>
<filter id="filter0_d" x="255.886" y="0.732821" width="116.09" height="223.053" filterUnits="userSpaceOnUse" color-interpolation-filters="sRGB">
<feFlood flood-opacity="0" result="BackgroundImageFix"/>
<feColorMatrix in="SourceAlpha" type="matrix" values="0 0 0 0 0 0 0 0 0 0 0 0 0 0 0 0 0 0 127 0"/>
<feOffset dy="1.75932"/>
<feGaussianBlur stdDeviation="2.51331"/>
<feColorMatrix type="matrix" values="0 0 0 0 0 0 0 0 0 0 0 0 0 0 0 0 0 0 0.1 0"/>
<feBlend mode="normal" in2="BackgroundImageFix" result="effect1_dropShadow"/>
<feBlend mode="normal" in="SourceGraphic" in2="effect1_dropShadow" result="shape"/>
</filter>
<filter id="filter1_d" x="128.256" y="0.732821" width="116.09" height="223.053" filterUnits="userSpaceOnUse" color-interpolation-filters="sRGB">
<feFlood flood-opacity="0" result="BackgroundImageFix"/>
<feColorMatrix in="SourceAlpha" type="matrix" values="0 0 0 0 0 0 0 0 0 0 0 0 0 0 0 0 0 0 127 0"/>
<feOffset dy="1.75932"/>
<feGaussianBlur stdDeviation="2.51331"/>
<feColorMatrix type="matrix" values="0 0 0 0 0 0 0 0 0 0 0 0 0 0 0 0 0 0 0.1 0"/>
<feBlend mode="normal" in2="BackgroundImageFix" result="effect1_dropShadow"/>
<feBlend mode="normal" in="SourceGraphic" in2="effect1_dropShadow" result="shape"/>
</filter>
<filter id="filter2_d" x="510.604" y="0.732821" width="116.09" height="223.053" filterUnits="userSpaceOnUse" color-interpolation-filters="sRGB">
<feFlood flood-opacity="0" result="BackgroundImageFix"/>
<feColorMatrix in="SourceAlpha" type="matrix" values="0 0 0 0 0 0 0 0 0 0 0 0 0 0 0 0 0 0 127 0"/>
<feOffset dy="1.75932"/>
<feGaussianBlur stdDeviation="2.51331"/>
<feColorMatrix type="matrix" values="0 0 0 0 0 0 0 0 0 0 0 0 0 0 0 0 0 0 0.1 0"/>
<feBlend mode="normal" in2="BackgroundImageFix" result="effect1_dropShadow"/>
<feBlend mode="normal" in="SourceGraphic" in2="effect1_dropShadow" result="shape"/>
</filter>
<filter id="filter3_d" x="0.973382" y="0.732699" width="116.09" height="223.053" filterUnits="userSpaceOnUse" color-interpolation-filters="sRGB">
<feFlood flood-opacity="0" result="BackgroundImageFix"/>
<feColorMatrix in="SourceAlpha" type="matrix" values="0 0 0 0 0 0 0 0 0 0 0 0 0 0 0 0 0 0 127 0"/>
<feOffset dy="1.75932"/>
<feGaussianBlur stdDeviation="2.51331"/>
<feColorMatrix type="matrix" values="0 0 0 0 0 0 0 0 0 0 0 0 0 0 0 0 0 0 0.1 0"/>
<feBlend mode="normal" in2="BackgroundImageFix" result="effect1_dropShadow"/>
<feBlend mode="normal" in="SourceGraphic" in2="effect1_dropShadow" result="shape"/>
</filter>
<filter id="filter4_d" x="382.993" y="0.732821" width="116.09" height="223.053" filterUnits="userSpaceOnUse" color-interpolation-filters="sRGB">
<feFlood flood-opacity="0" result="BackgroundImageFix"/>
<feColorMatrix in="SourceAlpha" type="matrix" values="0 0 0 0 0 0 0 0 0 0 0 0 0 0 0 0 0 0 127 0"/>
<feOffset dy="1.75932"/>
<feGaussianBlur stdDeviation="2.51331"/>
<feColorMatrix type="matrix" values="0 0 0 0 0 0 0 0 0 0 0 0 0 0 0 0 0 0 0.1 0"/>
<feBlend mode="normal" in2="BackgroundImageFix" result="effect1_dropShadow"/>
<feBlend mode="normal" in="SourceGraphic" in2="effect1_dropShadow" result="shape"/>
</filter>
<filter id="filter5_d" x="637.588" y="2.89377" width="265.904" height="221.246" filterUnits="userSpaceOnUse" color-interpolation-filters="sRGB">
<feFlood flood-opacity="0" result="BackgroundImageFix"/>
<feColorMatrix in="SourceAlpha" type="matrix" values="0 0 0 0 0 0 0 0 0 0 0 0 0 0 0 0 0 0 127 0"/>
<feOffset dy="1.64754"/>
<feGaussianBlur stdDeviation="2.7459"/>
<feColorMatrix type="matrix" values="0 0 0 0 0 0 0 0 0 0 0 0 0 0 0 0 0 0 0.1 0"/>
<feBlend mode="normal" in2="BackgroundImageFix" result="effect1_dropShadow"/>
<feBlend mode="normal" in="SourceGraphic" in2="effect1_dropShadow" result="shape"/>
</filter>
</defs>
</svg>
