<svg width="213" height="408" viewBox="0 0 213 408" fill="none" xmlns="http://www.w3.org/2000/svg">
<g filter="url(#filter0_d)">
<rect x="203.127" y="395" width="193.127" height="389" rx="13.7294" transform="rotate(-180 203.127 395)" fill="white"/>
</g>
<rect x="194.889" y="349.235" width="176.652" height="308.454" rx="9.15294" transform="rotate(-180 194.889 349.235)" fill="#F7F7F7"/>
<rect x="80.02" y="28.4247" width="53.5447" height="3.66118" rx="1.83059" fill="#740B99"/>
<circle cx="106.792" cy="20.8736" r="2.05941" fill="#740B99"/>
<circle cx="106.563" cy="370.745" r="13.2718" fill="#740B99"/>
<rect x="31.967" y="241.231" width="149.651" height="5.03412" rx="1.83059" fill="#E3E1E3"/>
<rect x="31.967" y="124.531" width="149.651" height="5.03412" rx="1.83059" fill="#E3E1E3"/>
<rect x="31.967" y="108.055" width="149.651" height="5.03412" rx="1.83059" fill="#E3E1E3"/>
<rect x="31.967" y="141.006" width="149.651" height="5.03412" rx="1.83059" fill="#E3E1E3"/>
<rect x="31.967" y="257.706" width="149.651" height="5.03412" rx="1.83059" fill="#E3E1E3"/>
<rect x="31.967" y="208.28" width="149.651" height="5.03412" rx="1.83059" fill="#E3E1E3"/>
<rect x="31.967" y="224.755" width="149.651" height="5.03412" rx="1.83059" fill="#E3E1E3"/>
<rect x="31.967" y="274.181" width="149.651" height="5.03412" rx="1.83059" fill="#E3E1E3"/>
<rect x="31.967" y="290.657" width="149.651" height="5.03412" rx="1.83059" fill="#E3E1E3"/>
<rect x="31.967" y="307.132" width="149.651" height="5.03412" rx="1.83059" fill="#E3E1E3"/>
<rect x="31.967" y="323.607" width="149.651" height="5.03412" rx="1.83059" fill="#E3E1E3"/>
<rect width="72.7659" height="5.03412" rx="1.83059" transform="matrix(-1 0 0 1 104.733 58.6294)" fill="#E3E1E3"/>
<rect width="69.5623" height="37.9847" rx="1.83059" transform="matrix(-1 0 0 1 181.618 58.6295)" fill="#E3E1E3"/>
<rect width="72.7659" height="5.03412" rx="1.83059" transform="matrix(-1 0 0 1 104.733 75.1047)" fill="#E3E1E3"/>
<rect width="72.7659" height="5.03412" rx="1.83059" transform="matrix(-1 0 0 1 104.733 91.58)" fill="#E3E1E3"/>
<rect width="72.7659" height="5.03412" rx="1.83059" transform="matrix(-1 0 0 1 104.733 157.481)" fill="#E3E1E3"/>
<rect width="69.5623" height="37.9847" rx="1.83059" transform="matrix(-1 0 0 1 181.618 157.481)" fill="#E3E1E3"/>
<rect width="72.7659" height="5.03412" rx="1.83059" transform="matrix(-1 0 0 1 104.733 173.956)" fill="#E3E1E3"/>
<rect width="72.7659" height="5.03412" rx="1.83059" transform="matrix(-1 0 0 1 104.733 190.432)" fill="#E3E1E3"/>
<rect x="40.6622" y="72.3588" width="131.802" height="239.807" rx="13.7294" fill="#740B99"/>
<path d="M94.8091 193.329C94.8136 193.556 94.7711 193.782 94.6845 193.99C94.6004 194.172 94.4759 194.33 94.3216 194.45C94.1565 194.569 93.9732 194.656 93.7799 194.709C93.5402 194.768 93.2946 194.797 93.0485 194.795H92.7289C92.6043 194.795 92.4742 194.795 92.3388 194.795L91.9217 194.749C91.7919 194.734 91.6633 194.709 91.5371 194.674C91.407 194.64 91.3366 194.571 91.3366 194.473V194.117C91.3355 194.095 91.3394 194.074 91.3479 194.055C91.3564 194.036 91.3693 194.02 91.3853 194.007C91.4211 193.979 91.4653 193.964 91.51 193.967H91.5479L91.9271 194.007L92.3388 194.042H92.7343H93.0485C93.2921 194.058 93.5353 194.004 93.7528 193.887C93.8408 193.826 93.9101 193.739 93.9525 193.637C93.9948 193.535 94.0082 193.422 93.9911 193.312C93.9934 193.16 93.9389 193.013 93.8394 192.904C93.6766 192.736 93.4946 192.592 93.2977 192.472L92.3334 191.863C92.0674 191.697 91.8293 191.485 91.6291 191.236C91.4479 191.006 91.3516 190.714 91.3583 190.414C91.3519 190.187 91.3984 189.962 91.4937 189.759C91.5803 189.591 91.7051 189.449 91.8567 189.345C92.0222 189.236 92.2062 189.162 92.3984 189.127C92.6256 189.084 92.8558 189.063 93.0864 189.063C93.3469 189.062 93.6074 189.075 93.8665 189.104C94.1157 189.104 94.3541 189.155 94.5762 189.196C94.7008 189.196 94.7604 189.288 94.7604 189.403V189.736C94.763 189.759 94.7606 189.783 94.7534 189.805C94.7461 189.827 94.7342 189.847 94.7186 189.864C94.7029 189.881 94.6839 189.893 94.663 189.901C94.6421 189.909 94.6199 189.911 94.5979 189.908H94.5166L93.8503 189.857C93.574 189.857 93.3085 189.857 93.0323 189.857C92.8135 189.847 92.595 189.88 92.3876 189.954C92.2251 190.023 92.1438 190.184 92.1438 190.443C92.143 190.518 92.1571 190.591 92.1851 190.66C92.2131 190.728 92.2544 190.79 92.3063 190.84C92.4578 190.985 92.6251 191.11 92.8047 191.213L93.7528 191.788C94.0712 191.967 94.3501 192.216 94.5708 192.518C94.7286 192.755 94.812 193.039 94.8091 193.329Z" fill="white"/>
<path d="M102.2 194.669C102.183 194.688 102.163 194.703 102.141 194.714C102.118 194.725 102.094 194.731 102.07 194.732H101.609C101.558 194.73 101.509 194.708 101.474 194.669C101.456 194.651 101.443 194.629 101.433 194.606C101.424 194.582 101.419 194.556 101.42 194.531V190.943C101.424 190.765 101.402 190.586 101.355 190.415C101.316 190.291 101.253 190.177 101.17 190.081C101.093 190 100.998 189.94 100.894 189.909C100.782 189.873 100.665 189.856 100.547 189.857C100.364 189.861 100.183 189.888 100.006 189.937C99.8107 189.995 99.6211 190.058 99.464 190.133C99.5267 190.39 99.5558 190.655 99.5506 190.92V194.531C99.5509 194.581 99.5335 194.63 99.5019 194.669C99.4873 194.689 99.4684 194.705 99.4468 194.716C99.4251 194.727 99.4013 194.733 99.3773 194.732H98.8518C98.8286 194.732 98.8058 194.726 98.785 194.715C98.7643 194.704 98.7464 194.688 98.7326 194.669C98.7049 194.629 98.6897 194.58 98.6893 194.531V190.92C98.6917 190.739 98.6772 190.558 98.6459 190.38C98.6263 190.263 98.5798 190.152 98.5105 190.058C98.4478 189.981 98.3648 189.925 98.2721 189.897C98.1675 189.87 98.0602 189.857 97.9525 189.857C97.7668 189.864 97.5836 189.905 97.4108 189.978C97.2033 190.056 97.0006 190.148 96.804 190.254V194.531C96.8037 194.58 96.7885 194.629 96.7607 194.669C96.7456 194.688 96.7266 194.704 96.7051 194.715C96.6835 194.726 96.66 194.732 96.6361 194.732H96.1269C96.1038 194.732 96.0811 194.726 96.0604 194.715C96.0398 194.704 96.0217 194.688 96.0077 194.669C95.9799 194.629 95.9647 194.58 95.9644 194.531V189.357C95.9658 189.303 95.985 189.253 96.0185 189.213C96.0348 189.194 96.0549 189.178 96.0774 189.168C96.0999 189.159 96.1242 189.154 96.1486 189.156H96.6253C96.6495 189.155 96.6735 189.16 96.6958 189.17C96.7182 189.18 96.7384 189.195 96.7553 189.213C96.7873 189.253 96.8046 189.304 96.804 189.357V189.546C97.0077 189.416 97.2216 189.304 97.4433 189.213C97.6863 189.119 97.9432 189.073 98.2017 189.075C98.3861 189.07 98.5697 189.101 98.7435 189.167C98.9049 189.237 99.048 189.348 99.1606 189.489C99.4181 189.354 99.6888 189.25 99.9678 189.179C100.221 189.112 100.481 189.077 100.742 189.075C100.948 189.073 101.152 189.102 101.349 189.161C101.534 189.222 101.703 189.329 101.842 189.472C101.991 189.635 102.104 189.831 102.173 190.047C102.26 190.332 102.3 190.632 102.292 190.932V194.519C102.289 194.55 102.279 194.58 102.263 194.606C102.247 194.632 102.225 194.653 102.2 194.669Z" fill="white"/>
<path d="M107.216 194.525C107.216 194.551 107.21 194.577 107.2 194.601C107.19 194.624 107.175 194.646 107.157 194.663C107.14 194.683 107.119 194.699 107.095 194.71C107.072 194.721 107.047 194.726 107.021 194.726H106.583C106.558 194.726 106.534 194.72 106.512 194.709C106.489 194.698 106.469 194.682 106.453 194.663C106.433 194.647 106.418 194.625 106.408 194.602C106.397 194.578 106.392 194.552 106.393 194.525V194.301C106.168 194.441 105.932 194.56 105.689 194.657C105.443 194.75 105.185 194.796 104.925 194.795C104.726 194.797 104.527 194.772 104.334 194.721C104.152 194.673 103.983 194.581 103.841 194.451C103.689 194.314 103.57 194.141 103.495 193.945C103.401 193.694 103.356 193.426 103.365 193.157V193.036C103.362 192.791 103.402 192.547 103.484 192.318C103.568 192.111 103.705 191.934 103.879 191.806C104.092 191.65 104.334 191.544 104.589 191.496C104.946 191.42 105.309 191.385 105.672 191.392H106.377V190.99C106.408 190.673 106.327 190.355 106.149 190.099C105.927 189.907 105.643 189.816 105.358 189.846C105.044 189.846 104.773 189.846 104.535 189.846C104.296 189.846 104.085 189.88 103.896 189.903H103.847C103.805 189.903 103.764 189.891 103.728 189.869C103.695 189.869 103.679 189.806 103.679 189.737V189.397C103.679 189.288 103.744 189.225 103.879 189.202C104.015 189.179 104.291 189.139 104.524 189.11C104.757 189.081 105.033 189.07 105.358 189.07C105.616 189.043 105.877 189.075 106.122 189.164C106.368 189.252 106.593 189.394 106.783 189.581C107.094 189.969 107.251 190.47 107.222 190.978L107.216 194.525ZM106.371 192.03H105.667C105.427 192.025 105.188 192.045 104.952 192.088C104.792 192.11 104.639 192.169 104.502 192.26C104.395 192.331 104.315 192.438 104.275 192.565C104.225 192.713 104.202 192.868 104.204 193.025V193.146C104.189 193.279 104.202 193.414 104.242 193.541C104.283 193.669 104.349 193.785 104.437 193.881C104.629 194.018 104.857 194.083 105.087 194.065C105.304 194.068 105.52 194.035 105.727 193.968C105.95 193.887 106.166 193.785 106.371 193.663V192.03Z" fill="white"/>
<path d="M110.673 189.863C110.455 189.864 110.238 189.897 110.028 189.961C109.792 190.039 109.566 190.149 109.357 190.289V194.525C109.357 194.551 109.352 194.577 109.343 194.6C109.334 194.624 109.32 194.646 109.302 194.663C109.267 194.703 109.218 194.725 109.167 194.727H108.701C108.676 194.727 108.652 194.722 108.629 194.711C108.607 194.7 108.587 194.684 108.571 194.663C108.554 194.646 108.54 194.624 108.531 194.6C108.521 194.577 108.517 194.551 108.517 194.525V189.352C108.517 189.325 108.521 189.299 108.53 189.274C108.54 189.249 108.554 189.227 108.571 189.208C108.587 189.189 108.607 189.173 108.63 189.163C108.652 189.153 108.677 189.149 108.701 189.15H109.145C109.17 189.149 109.194 189.153 109.216 189.163C109.239 189.173 109.259 189.189 109.275 189.208C109.311 189.248 109.33 189.302 109.329 189.357V189.57C109.542 189.408 109.775 189.28 110.023 189.191C110.233 189.116 110.452 189.077 110.673 189.076C110.808 189.076 110.873 189.139 110.873 189.265V189.685C110.873 189.806 110.808 189.863 110.673 189.863Z" fill="white"/>
<path d="M114.399 194.753L114.084 194.787H113.776C113.583 194.79 113.391 194.773 113.201 194.735C113.052 194.704 112.914 194.63 112.801 194.523C112.684 194.412 112.6 194.268 112.557 194.109C112.497 193.888 112.469 193.66 112.476 193.43V189.895L111.555 189.786C111.43 189.786 111.37 189.711 111.37 189.602V189.326C111.37 189.205 111.43 189.147 111.555 189.147H112.476V188.153C112.474 188.128 112.477 188.102 112.485 188.078C112.493 188.054 112.506 188.032 112.522 188.013C112.538 187.995 112.558 187.979 112.58 187.969C112.601 187.958 112.625 187.952 112.649 187.952L113.147 187.871C113.167 187.871 113.186 187.875 113.203 187.882C113.221 187.89 113.237 187.902 113.25 187.917C113.265 187.934 113.277 187.954 113.284 187.976C113.292 187.997 113.295 188.02 113.294 188.044V189.147H114.323C114.348 189.147 114.373 189.151 114.396 189.161C114.42 189.171 114.441 189.186 114.459 189.205C114.476 189.223 114.49 189.246 114.5 189.271C114.509 189.295 114.513 189.322 114.512 189.349V189.694C114.513 189.72 114.509 189.747 114.5 189.771C114.49 189.796 114.476 189.819 114.459 189.838C114.441 189.856 114.42 189.871 114.396 189.881C114.373 189.891 114.348 189.896 114.323 189.895H113.294V193.425C113.27 193.608 113.31 193.794 113.407 193.948C113.524 194.035 113.666 194.074 113.808 194.057H114.35C114.485 194.057 114.55 194.109 114.55 194.201V194.563C114.567 194.672 114.512 194.73 114.399 194.753Z" fill="white"/>
<path d="M119.533 189.33C119.538 189.353 119.538 189.377 119.533 189.399L117.957 195.234C117.894 195.475 117.812 195.71 117.713 195.936C117.635 196.111 117.525 196.267 117.388 196.396C117.245 196.514 117.081 196.602 116.906 196.654C116.679 196.712 116.446 196.739 116.213 196.735C116.069 196.733 115.927 196.724 115.785 196.706C115.658 196.698 115.533 196.677 115.411 196.643C115.36 196.635 115.31 196.617 115.264 196.591C115.246 196.581 115.231 196.565 115.221 196.545C115.212 196.526 115.208 196.504 115.21 196.482V196.108C115.21 195.999 115.27 195.941 115.389 195.941C115.497 195.941 115.644 195.941 115.817 195.982C115.99 196.022 116.131 195.982 116.24 195.982C116.36 195.983 116.479 195.972 116.597 195.947C116.692 195.925 116.781 195.879 116.857 195.815C116.937 195.741 117.001 195.652 117.047 195.551C117.111 195.414 117.158 195.269 117.188 195.119L117.28 194.706H117.15C117.081 194.714 117.012 194.714 116.944 194.706C116.875 194.693 116.81 194.663 116.754 194.619C116.685 194.562 116.627 194.489 116.586 194.407C116.526 194.286 116.477 194.159 116.44 194.027L115.172 189.399C115.168 189.377 115.168 189.353 115.172 189.33C115.172 189.215 115.232 189.158 115.346 189.158H115.887C115.906 189.158 115.925 189.163 115.942 189.172C115.959 189.181 115.973 189.194 115.985 189.21C116.015 189.24 116.037 189.278 116.05 189.319L117.177 193.723C117.184 193.794 117.215 193.861 117.263 193.912C117.29 193.935 117.322 193.947 117.356 193.947H117.507L118.672 189.308C118.687 189.267 118.711 189.232 118.742 189.204C118.757 189.188 118.775 189.176 118.795 189.168C118.814 189.16 118.835 189.157 118.856 189.158H119.398C119.479 189.158 119.533 189.215 119.533 189.33Z" fill="white"/>
<path d="M124.208 194.527C124.208 194.553 124.204 194.578 124.194 194.602C124.185 194.626 124.171 194.647 124.154 194.665C124.118 194.704 124.07 194.727 124.018 194.728H123.58C123.528 194.727 123.48 194.704 123.444 194.665C123.427 194.647 123.413 194.626 123.404 194.602C123.394 194.578 123.39 194.553 123.39 194.527V194.303C123.163 194.442 122.926 194.561 122.68 194.659C122.435 194.752 122.177 194.799 121.916 194.797C121.719 194.798 121.523 194.773 121.331 194.722C121.148 194.675 120.977 194.582 120.833 194.452C120.684 194.314 120.567 194.141 120.492 193.946C120.398 193.696 120.353 193.428 120.362 193.159V193.038C120.356 192.792 120.397 192.548 120.481 192.319C120.565 192.114 120.699 191.937 120.871 191.808C121.087 191.653 121.33 191.547 121.586 191.497C121.943 191.421 122.306 191.387 122.669 191.394H123.374V190.991C123.405 190.675 123.324 190.357 123.146 190.1C122.924 189.908 122.64 189.818 122.355 189.847C122.041 189.847 121.77 189.847 121.532 189.847C121.293 189.847 121.082 189.882 120.893 189.905H120.844C120.802 189.905 120.761 189.893 120.725 189.87C120.705 189.856 120.69 189.836 120.68 189.812C120.67 189.789 120.667 189.763 120.671 189.738V189.399C120.671 189.29 120.741 189.226 120.871 189.203C121.001 189.18 121.288 189.14 121.516 189.112C121.743 189.083 122.057 189.071 122.355 189.071C122.603 189.031 122.856 189.053 123.094 189.133C123.332 189.214 123.55 189.352 123.73 189.537C123.91 189.722 124.047 189.948 124.131 190.198C124.215 190.449 124.243 190.716 124.213 190.98L124.208 194.527ZM123.368 192.032H122.691C122.452 192.027 122.212 192.046 121.976 192.089C121.816 192.111 121.662 192.17 121.526 192.262C121.421 192.335 121.339 192.442 121.294 192.567C121.246 192.715 121.224 192.87 121.229 193.026V193.147C121.213 193.28 121.225 193.415 121.264 193.542C121.303 193.67 121.369 193.786 121.456 193.883C121.648 194.018 121.876 194.083 122.106 194.067C122.323 194.07 122.538 194.037 122.745 193.969C122.971 193.89 123.189 193.788 123.395 193.665L123.368 192.032Z" fill="white"/>
<path d="M129.38 194.396C129.384 194.451 129.371 194.505 129.342 194.551C129.342 194.591 129.266 194.614 129.179 194.626C128.888 194.688 128.593 194.732 128.296 194.758C128.004 194.758 127.711 194.798 127.419 194.798C127.102 194.806 126.786 194.746 126.492 194.62C126.241 194.513 126.02 194.341 125.848 194.12C125.666 193.891 125.534 193.622 125.463 193.332C125.377 192.995 125.335 192.647 125.338 192.297V191.567C125.299 190.909 125.482 190.257 125.853 189.728C126.052 189.504 126.297 189.33 126.567 189.218C126.838 189.107 127.129 189.061 127.419 189.084C127.565 189.084 127.744 189.084 127.96 189.113C128.177 189.141 128.361 189.153 128.551 189.187V187.302C128.549 187.276 128.553 187.251 128.561 187.227C128.57 187.203 128.583 187.182 128.6 187.164C128.617 187.146 128.637 187.132 128.659 187.123C128.682 187.114 128.706 187.11 128.73 187.112H129.217C129.24 187.111 129.263 187.116 129.284 187.125C129.306 187.134 129.325 187.147 129.342 187.164C129.373 187.202 129.391 187.251 129.39 187.302L129.38 194.396ZM128.54 189.935C128.361 189.902 128.18 189.883 127.998 189.877H127.457C127.255 189.873 127.054 189.91 126.866 189.986C126.712 190.056 126.58 190.172 126.487 190.32C126.382 190.48 126.312 190.662 126.281 190.854C126.235 191.093 126.213 191.336 126.216 191.579V192.274C126.192 192.718 126.286 193.16 126.487 193.551C126.596 193.71 126.744 193.836 126.914 193.915C127.085 193.993 127.272 194.023 127.457 193.999C127.624 193.999 127.809 193.999 127.998 193.999L128.54 193.959V189.935Z" fill="white"/>
<path d="M133.999 193.329C134.004 193.557 133.96 193.783 133.869 193.99C133.786 194.173 133.661 194.332 133.506 194.45C133.341 194.569 133.157 194.656 132.964 194.709C132.724 194.768 132.479 194.797 132.233 194.795H131.902C131.778 194.795 131.648 194.795 131.512 194.795L131.095 194.749C130.967 194.735 130.84 194.71 130.716 194.674C130.58 194.64 130.515 194.571 130.515 194.473V194.117C130.513 194.096 130.516 194.075 130.523 194.056C130.531 194.037 130.543 194.02 130.559 194.007C130.594 193.979 130.639 193.964 130.683 193.967H130.721L131.1 194.007L131.518 194.042H131.908H132.222C132.465 194.058 132.709 194.005 132.926 193.887C133.014 193.826 133.083 193.739 133.126 193.637C133.168 193.535 133.181 193.422 133.164 193.312C133.167 193.16 133.112 193.013 133.013 192.904C132.85 192.736 132.668 192.592 132.471 192.472L131.507 191.863C131.241 191.697 131.003 191.485 130.802 191.236C130.623 191.006 130.528 190.714 130.537 190.414C130.529 190.188 130.574 189.963 130.667 189.759C130.754 189.591 130.878 189.449 131.03 189.345C131.195 189.235 131.379 189.161 131.572 189.127C131.799 189.084 132.029 189.062 132.26 189.063C132.518 189.062 132.777 189.075 133.034 189.104C133.289 189.104 133.522 189.155 133.744 189.196C133.869 189.196 133.928 189.288 133.928 189.403V189.736C133.931 189.759 133.928 189.783 133.921 189.805C133.914 189.827 133.902 189.847 133.886 189.864C133.871 189.881 133.852 189.893 133.831 189.901C133.81 189.909 133.788 189.911 133.766 189.908H133.739L133.072 189.857C132.796 189.857 132.531 189.857 132.26 189.857C132.041 189.847 131.822 189.88 131.615 189.954C131.452 190.023 131.371 190.184 131.371 190.443C131.37 190.518 131.385 190.591 131.413 190.66C131.441 190.728 131.482 190.79 131.534 190.84C131.683 190.985 131.849 191.111 132.027 191.213L132.975 191.788C133.294 191.965 133.573 192.215 133.793 192.518C133.939 192.759 134.011 193.043 133.999 193.329Z" fill="white"/>
<path d="M81.2028 196.698C81.1442 196.698 81.0872 196.677 81.0403 196.64C80.9934 196.603 80.9592 196.55 80.9428 196.491C80.9329 196.455 80.9298 196.417 80.9338 196.38C80.9377 196.343 80.9485 196.307 80.9657 196.274C80.9828 196.242 81.0059 196.213 81.0336 196.19C81.0613 196.167 81.093 196.15 81.127 196.14L82.6005 195.726H81.1974C81.1255 195.726 81.0567 195.696 81.0059 195.642C80.9551 195.588 80.9265 195.515 80.9265 195.439C80.9265 195.362 80.9551 195.289 81.0059 195.235C81.0567 195.182 81.1255 195.151 81.1974 195.151H84.5345C84.5701 195.146 84.6062 195.149 84.6408 195.159C84.6755 195.169 84.7079 195.186 84.7363 195.209C84.7647 195.232 84.7886 195.261 84.8065 195.294C84.8244 195.327 84.8359 195.364 84.8406 195.401C84.8452 195.439 84.8428 195.477 84.8334 195.514C84.8241 195.551 84.808 195.585 84.7861 195.615C84.7642 195.646 84.737 195.671 84.7059 195.69C84.6748 195.709 84.6405 195.721 84.6049 195.726L81.2678 196.726L81.2028 196.698Z" fill="white"/>
<path d="M81.2024 198.023C81.1436 198.024 81.0862 198.004 81.0391 197.967C80.992 197.929 80.958 197.876 80.9424 197.816C80.9239 197.743 80.9328 197.666 80.9672 197.601C81.0017 197.535 81.0589 197.487 81.1266 197.465L84.4637 196.465C84.5356 196.444 84.6122 196.455 84.6767 196.494C84.7412 196.534 84.7883 196.599 84.8077 196.675C84.8271 196.751 84.8172 196.832 84.7801 196.901C84.743 196.969 84.6819 197.019 84.61 197.04L81.2729 198.04L81.2024 198.023Z" fill="white"/>
<path d="M82.8576 198.64C82.799 198.64 82.742 198.62 82.6952 198.583C82.6483 198.546 82.6141 198.493 82.5977 198.434C82.5878 198.398 82.5848 198.361 82.5887 198.324C82.5926 198.287 82.6035 198.251 82.6206 198.218C82.6378 198.186 82.6608 198.157 82.6885 198.134C82.7162 198.111 82.7479 198.094 82.7818 198.084L83.0146 198.193C83.1608 198.153 83.5561 197.987 83.5831 198.136C83.593 198.172 83.5961 198.209 83.5922 198.246C83.5882 198.283 83.5774 198.319 83.5602 198.351C83.5431 198.384 83.52 198.413 83.4924 198.436C83.4647 198.459 83.433 198.476 83.399 198.486L82.928 198.629L82.8576 198.64Z" fill="white"/>
<path d="M84.091 194.477H81.6748C81.4775 194.477 81.2882 194.395 81.1481 194.247C81.0081 194.1 80.9287 193.899 80.9272 193.69V192.885C80.2627 192.436 79.7535 191.77 79.4759 190.988C79.1983 190.205 79.1674 189.348 79.3878 188.546C79.6082 187.743 80.0681 187.038 80.6983 186.536C81.3285 186.034 82.0951 185.763 82.8829 185.763C83.6707 185.763 84.4373 186.034 85.0675 186.536C85.6977 187.038 86.1576 187.743 86.378 188.546C86.5984 189.348 86.5675 190.205 86.2899 190.988C86.0123 191.77 85.503 192.436 84.8385 192.885V193.719C84.8302 193.923 84.7477 194.116 84.6084 194.257C84.4691 194.399 84.2837 194.478 84.091 194.477ZM82.8666 186.331C82.1826 186.33 81.5174 186.569 80.9749 187.011C80.4323 187.453 80.0428 188.074 79.8672 188.775C79.6916 189.477 79.7396 190.221 80.0039 190.89C80.2681 191.56 80.7338 192.118 81.3281 192.477C81.3698 192.501 81.4045 192.537 81.4283 192.58C81.4522 192.624 81.4644 192.674 81.4635 192.724V193.69C81.4635 193.719 81.469 193.748 81.4797 193.775C81.4904 193.802 81.5061 193.826 81.5257 193.846C81.5454 193.867 81.5688 193.883 81.5944 193.893C81.62 193.904 81.6473 193.909 81.6748 193.908H84.091C84.1184 193.909 84.1458 193.904 84.1714 193.893C84.197 193.883 84.2203 193.867 84.24 193.846C84.2597 193.826 84.2754 193.802 84.2861 193.775C84.2968 193.748 84.3022 193.719 84.3022 193.69V192.701C84.302 192.651 84.3138 192.603 84.3366 192.559C84.3594 192.516 84.3923 192.48 84.4322 192.454C85.0179 192.088 85.474 191.528 85.7305 190.861C85.9869 190.193 86.0294 189.454 85.8515 188.759C85.6735 188.063 85.285 187.448 84.7456 187.009C84.2063 186.571 83.5461 186.333 82.8666 186.331Z" fill="white"/>
<path d="M85.9149 186.012C85.8666 186.011 85.8194 185.996 85.7797 185.966C85.74 185.937 85.7096 185.896 85.6926 185.848C85.6755 185.8 85.6726 185.747 85.6843 185.698C85.696 185.648 85.7217 185.603 85.7579 185.569L86.7055 184.69C86.7536 184.647 86.816 184.625 86.8789 184.631C86.9419 184.636 87.0003 184.668 87.0412 184.719C87.063 184.742 87.0802 184.769 87.092 184.799C87.1038 184.829 87.1099 184.861 87.1099 184.894C87.1099 184.927 87.1038 184.959 87.092 184.989C87.0802 185.019 87.063 185.046 87.0412 185.069L86.0936 185.948C86.0698 185.972 86.0416 185.99 86.0107 186C85.9799 186.011 85.9472 186.015 85.9149 186.012Z" fill="white"/>
<path d="M82.843 184.945C82.7798 184.945 82.7191 184.918 82.6744 184.871C82.6297 184.823 82.6046 184.759 82.6046 184.692V182.749C82.5995 182.713 82.6017 182.676 82.6112 182.641C82.6207 182.606 82.6371 182.574 82.6595 182.546C82.6819 182.518 82.7096 182.496 82.7408 182.481C82.772 182.466 82.8059 182.458 82.8403 182.458C82.8746 182.458 82.9085 182.466 82.9397 182.481C82.9709 182.496 82.9987 182.518 83.021 182.546C83.0434 182.574 83.0599 182.606 83.0694 182.641C83.0788 182.676 83.0811 182.713 83.0759 182.749V184.692C83.0759 184.758 83.0516 184.821 83.008 184.869C82.9645 184.916 82.9053 184.943 82.843 184.945Z" fill="white"/>
<path d="M87.5711 188.992C87.5128 188.99 87.4572 188.966 87.4147 188.923C87.3722 188.881 87.3458 188.824 87.3405 188.763C87.3351 188.701 87.3512 188.64 87.3857 188.59C87.4203 188.54 87.4708 188.506 87.5278 188.493L89.1908 188.154C89.2524 188.144 89.3154 188.159 89.3667 188.197C89.4181 188.234 89.454 188.291 89.4671 188.355C89.4782 188.42 89.4646 188.488 89.4291 188.543C89.3936 188.597 89.3391 188.635 89.2775 188.648L87.6144 188.986L87.5711 188.992Z" fill="white"/>
<path d="M79.7576 186.012C79.6996 186.013 79.6434 185.99 79.6006 185.948L78.6584 185.069C78.6348 185.048 78.6153 185.022 78.6011 184.993C78.587 184.964 78.5784 184.933 78.5759 184.9C78.5733 184.867 78.5769 184.834 78.5865 184.803C78.596 184.772 78.6112 184.744 78.6313 184.719C78.6723 184.668 78.7307 184.636 78.7936 184.631C78.8566 184.625 78.9189 184.647 78.967 184.69L79.9146 185.569C79.9589 185.617 79.9838 185.68 79.9838 185.747C79.9838 185.814 79.9589 185.878 79.9146 185.925C79.875 185.975 79.8186 186.006 79.7576 186.012Z" fill="white"/>
<path d="M87.8159 192.782C87.7714 192.783 87.7279 192.769 87.6914 192.742L86.9766 192.271C86.9251 192.235 86.8885 192.179 86.8744 192.115C86.8603 192.051 86.8698 191.983 86.9008 191.926C86.9174 191.898 86.9391 191.873 86.9648 191.854C86.9904 191.834 87.0194 191.82 87.0501 191.813C87.0809 191.805 87.1127 191.804 87.1438 191.81C87.1748 191.816 87.2045 191.828 87.2311 191.846L87.9404 192.317C87.9931 192.353 88.0305 192.409 88.0447 192.473C88.0589 192.537 88.0487 192.605 88.0163 192.662C87.9945 192.698 87.9649 192.727 87.93 192.748C87.8952 192.769 87.856 192.781 87.8159 192.782Z" fill="white"/>
<path d="M77.8684 192.661C77.8272 192.661 77.7866 192.65 77.7505 192.629C77.7145 192.608 77.6842 192.577 77.6627 192.54C77.6316 192.483 77.6222 192.416 77.6363 192.352C77.6503 192.288 77.6869 192.232 77.7385 192.195L78.4532 191.724C78.5057 191.699 78.5648 191.696 78.6197 191.714C78.6745 191.732 78.7214 191.77 78.7517 191.822C78.782 191.874 78.7937 191.935 78.7846 191.995C78.7755 192.055 78.7463 192.11 78.7022 192.149L77.9929 192.62C77.9559 192.646 77.9127 192.66 77.8684 192.661Z" fill="white"/>
<path d="M78.106 188.989H78.0627L76.3995 188.651C76.3379 188.638 76.2835 188.601 76.248 188.546C76.2125 188.491 76.1988 188.424 76.2099 188.358C76.223 188.294 76.2589 188.237 76.3103 188.2C76.3617 188.163 76.4247 188.148 76.4862 188.158L78.1494 188.496C78.2063 188.509 78.2568 188.544 78.2913 188.593C78.3258 188.643 78.3419 188.705 78.3366 188.766C78.3313 188.827 78.3049 188.885 78.2624 188.927C78.2199 188.969 78.1643 188.993 78.106 188.995V188.989Z" fill="white"/>
<defs>
<filter id="filter0_d" x="0.84706" y="0.0505893" width="211.433" height="407.306" filterUnits="userSpaceOnUse" color-interpolation-filters="sRGB">
<feFlood flood-opacity="0" result="BackgroundImageFix"/>
<feColorMatrix in="SourceAlpha" type="matrix" values="0 0 0 0 0 0 0 0 0 0 0 0 0 0 0 0 0 0 127 0"/>
<feOffset dy="3.20353"/>
<feGaussianBlur stdDeviation="4.57647"/>
<feColorMatrix type="matrix" values="0 0 0 0 0 0 0 0 0 0 0 0 0 0 0 0 0 0 0.1 0"/>
<feBlend mode="normal" in2="BackgroundImageFix" result="effect1_dropShadow"/>
<feBlend mode="normal" in="SourceGraphic" in2="effect1_dropShadow" result="shape"/>
</filter>
</defs>
</svg>
