<svg width="117" height="224" viewBox="0 0 117 224" fill="none" xmlns="http://www.w3.org/2000/svg">
<g filter="url(#filter0_d)">
<rect x="111.32" y="217" width="106.037" height="213" rx="7.53993" transform="rotate(-180 111.32 217)" fill="white"/>
</g>
<rect x="106.797" y="191.941" width="96.9914" height="168.896" rx="5.02662" transform="rotate(-180 106.797 191.941)" fill="#F7F7F7"/>
<rect x="43.7275" y="16.2788" width="29.3989" height="2.0047" rx="1.00235" fill="#740B99"/>
<ellipse cx="58.4271" cy="12.1441" rx="1.13073" ry="1.12764" fill="#740B99"/>
<ellipse cx="58.3013" cy="203.718" rx="7.28692" ry="7.26705" fill="#740B99"/>
<rect x="17.3438" y="32.3165" width="82.1663" height="32.3258" rx="2.01065" fill="#740B99"/>
<rect x="17.3438" y="69.6541" width="82.1663" height="2.75647" rx="1.00532" fill="#E3E1E3"/>
<rect x="17.3438" y="78.6752" width="82.1663" height="2.75646" rx="1.00532" fill="#E3E1E3"/>
<rect x="17.3438" y="87.6964" width="82.1663" height="2.75646" rx="1.00532" fill="#E3E1E3"/>
<rect x="17.3438" y="123.781" width="82.1663" height="2.75646" rx="1.00532" fill="#E3E1E3"/>
<rect x="17.3438" y="132.802" width="82.1663" height="2.75646" rx="1.00532" fill="#E3E1E3"/>
<rect x="17.3438" y="141.823" width="82.1663" height="2.75646" rx="1.00532" fill="#E3E1E3"/>
<rect x="17.3438" y="150.844" width="82.1663" height="2.75648" rx="1.00532" fill="#E3E1E3"/>
<rect x="17.3438" y="159.866" width="82.1663" height="2.75646" rx="1.00532" fill="#E3E1E3"/>
<rect x="17.3438" y="168.887" width="82.1663" height="2.75646" rx="1.00532" fill="#E3E1E3"/>
<rect x="17.3438" y="177.908" width="82.1663" height="2.75648" rx="1.00532" fill="#E3E1E3"/>
<rect x="59.5579" y="96.7177" width="39.9524" height="2.75646" rx="1.00532" fill="#E3E1E3"/>
<rect x="17.3438" y="96.7177" width="38.1935" height="20.7988" rx="1.00532" fill="#E3E1E3"/>
<rect x="59.5579" y="105.739" width="39.9524" height="2.75646" rx="1.00532" fill="#E3E1E3"/>
<rect x="59.5579" y="114.76" width="39.9524" height="2.75647" rx="1.00532" fill="#E3E1E3"/>
<path d="M50.4433 49.6743C50.6869 49.7421 50.8785 49.8659 51.0182 50.0456C51.158 50.2212 51.2279 50.4448 51.2279 50.7163C51.2279 51.0796 51.0901 51.3591 50.8146 51.5547C50.5432 51.7503 50.1459 51.8481 49.6229 51.8481H47.6227V47.6561H49.5031C49.9822 47.6561 50.3515 47.7519 50.611 47.9436C50.8745 48.1352 51.0063 48.4007 51.0063 48.7401C51.0063 48.9596 50.9544 49.1493 50.8506 49.309C50.7508 49.4687 50.615 49.5904 50.4433 49.6743ZM48.2216 48.1412V49.4826H49.4492C49.7566 49.4826 49.9922 49.4267 50.1559 49.315C50.3236 49.1992 50.4074 49.0315 50.4074 48.8119C50.4074 48.5923 50.3236 48.4266 50.1559 48.3149C49.9922 48.1991 49.7566 48.1412 49.4492 48.1412H48.2216ZM49.5989 51.3631C49.9383 51.3631 50.1938 51.3072 50.3655 51.1954C50.5372 51.0836 50.623 50.9079 50.623 50.6684C50.623 50.2013 50.2816 49.9677 49.5989 49.9677H48.2216V51.3631H49.5989ZM53.2271 48.6442C53.6662 48.6442 54.0016 48.752 54.2332 48.9676C54.4687 49.1832 54.5865 49.5046 54.5865 49.9318V51.8481H54.0415V51.4289C53.9457 51.5767 53.808 51.6904 53.6283 51.7703C53.4526 51.8461 53.243 51.8841 52.9995 51.8841C52.6442 51.8841 52.3587 51.7982 52.1431 51.6266C51.9315 51.4549 51.8257 51.2293 51.8257 50.9499C51.8257 50.6704 51.9275 50.4468 52.1311 50.2791C52.3348 50.1075 52.6581 50.0216 53.1013 50.0216H54.0116V49.9078C54.0116 49.6603 53.9397 49.4707 53.796 49.3389C53.6523 49.2072 53.4407 49.1413 53.1612 49.1413C52.9735 49.1413 52.7899 49.1732 52.6102 49.2371C52.4306 49.297 52.2789 49.3788 52.1551 49.4826L51.9156 49.0515C52.0792 48.9197 52.2749 48.8199 52.5024 48.752C52.73 48.6802 52.9716 48.6442 53.2271 48.6442ZM53.0953 51.4409C53.3149 51.4409 53.5045 51.393 53.6642 51.2972C53.8239 51.1974 53.9397 51.0576 54.0116 50.878V50.4348H53.1253C52.6382 50.4348 52.3946 50.5985 52.3946 50.9259C52.3946 51.0856 52.4565 51.2114 52.5803 51.3032C52.7041 51.395 52.8757 51.4409 53.0953 51.4409ZM57.3452 48.6442C57.7484 48.6442 58.0678 48.762 58.3034 48.9976C58.5429 49.2291 58.6627 49.5705 58.6627 50.0216V51.8481H58.0878V50.0875C58.0878 49.7801 58.0139 49.5485 57.8662 49.3928C57.7185 49.2371 57.5069 49.1593 57.2314 49.1593C56.92 49.1593 56.6745 49.2511 56.4948 49.4347C56.3151 49.6144 56.2253 49.8739 56.2253 50.2133V51.8481H55.6504V48.6742H56.2014V49.1533C56.3171 48.9896 56.4728 48.8638 56.6685 48.776C56.8681 48.6881 57.0937 48.6442 57.3452 48.6442ZM61.4214 48.6442C61.8246 48.6442 62.144 48.762 62.3796 48.9976C62.6191 49.2291 62.7389 49.5705 62.7389 50.0216V51.8481H62.164V50.0875C62.164 49.7801 62.0901 49.5485 61.9424 49.3928C61.7947 49.2371 61.5831 49.1593 61.3076 49.1593C60.9962 49.1593 60.7507 49.2511 60.571 49.4347C60.3914 49.6144 60.3015 49.8739 60.3015 50.2133V51.8481H59.7266V48.6742H60.2776V49.1533C60.3934 48.9896 60.5491 48.8638 60.7447 48.776C60.9443 48.6881 61.1699 48.6442 61.4214 48.6442ZM66.689 50.2791C66.689 50.323 66.685 50.3809 66.677 50.4528H64.1019C64.1378 50.7323 64.2596 50.9578 64.4672 51.1295C64.6788 51.2972 64.9403 51.381 65.2517 51.381C65.631 51.381 65.9364 51.2533 66.168 50.9978L66.4854 51.3691C66.3416 51.5367 66.162 51.6645 65.9464 51.7523C65.7348 51.8402 65.4972 51.8841 65.2337 51.8841C64.8984 51.8841 64.6009 51.8162 64.3414 51.6805C64.0819 51.5407 63.8803 51.3471 63.7366 51.0996C63.5968 50.852 63.527 50.5726 63.527 50.2612C63.527 49.9537 63.5948 49.6763 63.7306 49.4287C63.8703 49.1812 64.06 48.9896 64.2995 48.8538C64.543 48.7141 64.8165 48.6442 65.1199 48.6442C65.4234 48.6442 65.6929 48.7141 65.9284 48.8538C66.168 48.9896 66.3536 49.1812 66.4854 49.4287C66.6211 49.6763 66.689 49.9597 66.689 50.2791ZM65.1199 49.1293C64.8445 49.1293 64.6129 49.2132 64.4253 49.3808C64.2416 49.5485 64.1338 49.7681 64.1019 50.0396H66.138C66.1061 49.7721 65.9963 49.5545 65.8086 49.3868C65.625 49.2151 65.3954 49.1293 65.1199 49.1293ZM68.0382 49.2072C68.138 49.0235 68.2858 48.8838 68.4814 48.788C68.677 48.6921 68.9146 48.6442 69.194 48.6442V49.2012C69.1621 49.1972 69.1182 49.1952 69.0623 49.1952C68.7509 49.1952 68.5053 49.289 68.3257 49.4767C68.15 49.6603 68.0622 49.9238 68.0622 50.2671V51.8481H67.4873V48.6742H68.0382V49.2072Z" fill="white"/>
<defs>
<filter id="filter0_d" x="0.256097" y="0.732821" width="116.09" height="223.053" filterUnits="userSpaceOnUse" color-interpolation-filters="sRGB">
<feFlood flood-opacity="0" result="BackgroundImageFix"/>
<feColorMatrix in="SourceAlpha" type="matrix" values="0 0 0 0 0 0 0 0 0 0 0 0 0 0 0 0 0 0 127 0"/>
<feOffset dy="1.75932"/>
<feGaussianBlur stdDeviation="2.51331"/>
<feColorMatrix type="matrix" values="0 0 0 0 0 0 0 0 0 0 0 0 0 0 0 0 0 0 0.1 0"/>
<feBlend mode="normal" in2="BackgroundImageFix" result="effect1_dropShadow"/>
<feBlend mode="normal" in="SourceGraphic" in2="effect1_dropShadow" result="shape"/>
</filter>
</defs>
</svg>
