<svg width="117" height="224" viewBox="0 0 117 224" fill="none" xmlns="http://www.w3.org/2000/svg">
<g filter="url(#filter0_d)">
<rect x="111.667" y="217" width="106.037" height="213" rx="7.53993" transform="rotate(-180 111.667 217)" fill="white"/>
</g>
<rect x="107.145" y="191.941" width="96.9914" height="168.896" rx="5.02662" transform="rotate(-180 107.145 191.941)" fill="#F7F7F7"/>
<rect x="44.0752" y="16.2789" width="29.3989" height="2.0047" rx="1.00235" fill="#740B99"/>
<ellipse cx="58.7748" cy="12.1441" rx="1.13073" ry="1.12765" fill="#740B99"/>
<ellipse cx="58.649" cy="203.718" rx="7.28692" ry="7.26704" fill="#740B99"/>
<rect x="17.7097" y="32.473" width="82.3581" height="58.041" rx="2.01065" fill="#740B99"/>
<rect x="17.6917" y="123.781" width="82.1663" height="2.75647" rx="1.00532" fill="#E3E1E3"/>
<rect x="17.6917" y="132.802" width="82.1663" height="2.75646" rx="1.00532" fill="#E3E1E3"/>
<rect x="17.6917" y="141.823" width="82.1663" height="2.75646" rx="1.00532" fill="#E3E1E3"/>
<rect x="17.6917" y="150.844" width="82.1663" height="2.75648" rx="1.00532" fill="#E3E1E3"/>
<rect x="17.6917" y="159.866" width="82.1663" height="2.75646" rx="1.00532" fill="#E3E1E3"/>
<rect x="17.6917" y="168.887" width="82.1663" height="2.75646" rx="1.00532" fill="#E3E1E3"/>
<rect x="17.6917" y="177.908" width="82.1663" height="2.75646" rx="1.00532" fill="#E3E1E3"/>
<rect x="59.9055" y="96.7177" width="39.9524" height="2.75646" rx="1.00532" fill="#E3E1E3"/>
<rect x="17.6917" y="96.7177" width="38.1935" height="20.7988" rx="1.00532" fill="#E3E1E3"/>
<rect x="59.9055" y="105.739" width="39.9524" height="2.75646" rx="1.00532" fill="#E3E1E3"/>
<rect x="59.9055" y="114.76" width="39.9524" height="2.75646" rx="1.00532" fill="#E3E1E3"/>
<path d="M44.2578 63.1396V63.6606H41.2156V59.4686H44.174V59.9896H41.8144V61.2772H43.9164V61.7862H41.8144V63.1396H44.2578ZM47.0976 63.6606L46.1814 62.445L45.2531 63.6606H44.6123L45.864 62.0377L44.6722 60.4867H45.313L46.1873 61.6305L47.0557 60.4867H47.6845L46.4868 62.0377L47.7504 63.6606H47.0976ZM50.0605 60.4567C50.368 60.4567 50.6434 60.5246 50.887 60.6603C51.1305 60.7961 51.3201 60.9857 51.4559 61.2293C51.5956 61.4728 51.6655 61.7543 51.6655 62.0737C51.6655 62.3931 51.5956 62.6765 51.4559 62.924C51.3201 63.1676 51.1305 63.3572 50.887 63.493C50.6434 63.6287 50.368 63.6966 50.0605 63.6966C49.833 63.6966 49.6234 63.6527 49.4317 63.5648C49.2441 63.477 49.0844 63.3492 48.9526 63.1816V64.8224H48.3777V60.4867H48.9287V60.9897C49.0564 60.8141 49.2181 60.6823 49.4138 60.5945C49.6094 60.5026 49.825 60.4567 50.0605 60.4567ZM50.0126 63.1935C50.2162 63.1935 50.3979 63.1476 50.5576 63.0558C50.7213 62.96 50.849 62.8282 50.9409 62.6605C51.0367 62.4889 51.0846 62.2932 51.0846 62.0737C51.0846 61.8541 51.0367 61.6604 50.9409 61.4928C50.849 61.3211 50.7213 61.1893 50.5576 61.0975C50.3979 61.0057 50.2162 60.9598 50.0126 60.9598C49.813 60.9598 49.6314 61.0077 49.4677 61.1035C49.308 61.1953 49.1802 61.3251 49.0844 61.4928C48.9926 61.6604 48.9467 61.8541 48.9467 62.0737C48.9467 62.2932 48.9926 62.4889 49.0844 62.6605C49.1762 62.8282 49.304 62.96 49.4677 63.0558C49.6314 63.1476 49.813 63.1935 50.0126 63.1935ZM53.5864 60.4567C54.0255 60.4567 54.3609 60.5645 54.5925 60.7801C54.828 60.9957 54.9458 61.3171 54.9458 61.7443V63.6606H54.4008V63.2414C54.305 63.3892 54.1673 63.5029 53.9876 63.5828C53.812 63.6586 53.6024 63.6966 53.3588 63.6966C53.0035 63.6966 52.718 63.6107 52.5024 63.4391C52.2908 63.2674 52.185 63.0418 52.185 62.7624C52.185 62.4829 52.2869 62.2593 52.4905 62.0916C52.6941 61.92 53.0175 61.8341 53.4606 61.8341H54.3709V61.7203C54.3709 61.4728 54.299 61.2832 54.1553 61.1514C54.0116 61.0197 53.8 60.9538 53.5205 60.9538C53.3329 60.9538 53.1492 60.9857 52.9696 61.0496C52.7899 61.1095 52.6382 61.1913 52.5144 61.2951L52.2749 60.864C52.4386 60.7322 52.6342 60.6324 52.8618 60.5645C53.0893 60.4927 53.3309 60.4567 53.5864 60.4567ZM53.4546 63.2534C53.6742 63.2534 53.8639 63.2055 54.0236 63.1097C54.1832 63.0099 54.299 62.8701 54.3709 62.6905V62.2473H53.4846C52.9975 62.2473 52.754 62.411 52.754 62.7384C52.754 62.8981 52.8158 63.0239 52.9396 63.1157C53.0634 63.2075 53.235 63.2534 53.4546 63.2534ZM57.7045 60.4567C58.1077 60.4567 58.4271 60.5745 58.6627 60.8101C58.9022 61.0416 59.022 61.383 59.022 61.8341V63.6606H58.4471V61.9C58.4471 61.5926 58.3732 61.361 58.2255 61.2053C58.0778 61.0496 57.8662 60.9718 57.5907 60.9718C57.2793 60.9718 57.0338 61.0636 56.8541 61.2472C56.6744 61.4269 56.5846 61.6864 56.5846 62.0258V63.6606H56.0097V60.4867H56.5607V60.9658C56.6764 60.8021 56.8321 60.6763 57.0278 60.5885C57.2274 60.5006 57.453 60.4567 57.7045 60.4567ZM63.0978 59.2171V63.6606H62.5469V63.1576C62.4191 63.3333 62.2574 63.467 62.0618 63.5588C61.8661 63.6507 61.6506 63.6966 61.415 63.6966C61.1076 63.6966 60.8321 63.6287 60.5886 63.493C60.345 63.3572 60.1534 63.1676 60.0137 62.924C59.8779 62.6765 59.8101 62.3931 59.8101 62.0737C59.8101 61.7543 59.8779 61.4728 60.0137 61.2293C60.1534 60.9857 60.345 60.7961 60.5886 60.6603C60.8321 60.5246 61.1076 60.4567 61.415 60.4567C61.6426 60.4567 61.8522 60.5006 62.0438 60.5885C62.2354 60.6723 62.3951 60.7981 62.5229 60.9658V59.2171H63.0978ZM61.4629 63.1935C61.6625 63.1935 61.8442 63.1476 62.0079 63.0558C62.1716 62.96 62.2993 62.8282 62.3911 62.6605C62.483 62.4889 62.5289 62.2932 62.5289 62.0737C62.5289 61.8541 62.483 61.6604 62.3911 61.4928C62.2993 61.3211 62.1716 61.1893 62.0079 61.0975C61.8442 61.0057 61.6625 60.9598 61.4629 60.9598C61.2593 60.9598 61.0756 61.0057 60.912 61.0975C60.7523 61.1893 60.6245 61.3211 60.5287 61.4928C60.4369 61.6604 60.391 61.8541 60.391 62.0737C60.391 62.2932 60.4369 62.4889 60.5287 62.6605C60.6245 62.8282 60.7523 62.96 60.912 63.0558C61.0756 63.1476 61.2593 63.1935 61.4629 63.1935ZM65.3414 60.4567C65.7806 60.4567 66.1159 60.5645 66.3475 60.7801C66.583 60.9957 66.7008 61.3171 66.7008 61.7443V63.6606H66.1558V63.2414C66.06 63.3892 65.9223 63.5029 65.7426 63.5828C65.567 63.6586 65.3574 63.6966 65.1138 63.6966C64.7585 63.6966 64.473 63.6107 64.2574 63.4391C64.0458 63.2674 63.94 63.0418 63.94 62.7624C63.94 62.4829 64.0419 62.2593 64.2455 62.0916C64.4491 61.92 64.7725 61.8341 65.2156 61.8341H66.1259V61.7203C66.1259 61.4728 66.054 61.2832 65.9103 61.1514C65.7666 61.0197 65.555 60.9538 65.2755 60.9538C65.0879 60.9538 64.9042 60.9857 64.7246 61.0496C64.5449 61.1095 64.3932 61.1913 64.2694 61.2951L64.0299 60.864C64.1936 60.7322 64.3892 60.6324 64.6168 60.5645C64.8443 60.4927 65.0859 60.4567 65.3414 60.4567ZM65.2096 63.2534C65.4292 63.2534 65.6189 63.2055 65.7786 63.1097C65.9383 63.0099 66.054 62.8701 66.1259 62.6905V62.2473H65.2396C64.7525 62.2473 64.509 62.411 64.509 62.7384C64.509 62.8981 64.5708 63.0239 64.6946 63.1157C64.8184 63.2075 64.9901 63.2534 65.2096 63.2534ZM69.4475 60.4567C69.7549 60.4567 70.0304 60.5246 70.2739 60.6603C70.5175 60.7961 70.7071 60.9857 70.8429 61.2293C70.9826 61.4728 71.0525 61.7543 71.0525 62.0737C71.0525 62.3931 70.9826 62.6765 70.8429 62.924C70.7071 63.1676 70.5175 63.3572 70.2739 63.493C70.0304 63.6287 69.7549 63.6966 69.4475 63.6966C69.212 63.6966 68.9964 63.6507 68.8007 63.5588C68.6051 63.467 68.4434 63.3333 68.3157 63.1576V63.6606H67.7647V59.2171H68.3396V60.9658C68.4674 60.7981 68.6271 60.6723 68.8187 60.5885C69.0104 60.5006 69.22 60.4567 69.4475 60.4567ZM69.3996 63.1935C69.6032 63.1935 69.7849 63.1476 69.9446 63.0558C70.1083 62.96 70.236 62.8282 70.3278 62.6605C70.4237 62.4889 70.4716 62.2932 70.4716 62.0737C70.4716 61.8541 70.4237 61.6604 70.3278 61.4928C70.236 61.3211 70.1083 61.1893 69.9446 61.0975C69.7849 61.0057 69.6032 60.9598 69.3996 60.9598C69.2 60.9598 69.0183 61.0057 68.8546 61.0975C68.691 61.1893 68.5632 61.3211 68.4714 61.4928C68.3795 61.6604 68.3336 61.8541 68.3336 62.0737C68.3336 62.2932 68.3795 62.4889 68.4714 62.6605C68.5632 62.8282 68.691 62.96 68.8546 63.0558C69.0183 63.1476 69.2 63.1935 69.3996 63.1935ZM71.8468 59.2171H72.4217V63.6606H71.8468V59.2171ZM76.388 62.0916C76.388 62.1355 76.384 62.1934 76.376 62.2653H73.8009C73.8368 62.5448 73.9586 62.7703 74.1662 62.942C74.3778 63.1097 74.6393 63.1935 74.9507 63.1935C75.33 63.1935 75.6354 63.0658 75.8669 62.8103L76.1843 63.1816C76.0406 63.3492 75.861 63.477 75.6454 63.5648C75.4338 63.6527 75.1962 63.6966 74.9327 63.6966C74.5974 63.6966 74.2999 63.6287 74.0404 63.493C73.7809 63.3532 73.5793 63.1596 73.4356 62.9121C73.2958 62.6645 73.226 62.3851 73.226 62.0737C73.226 61.7662 73.2938 61.4888 73.4296 61.2412C73.5693 60.9937 73.759 60.8021 73.9985 60.6663C74.242 60.5266 74.5155 60.4567 74.8189 60.4567C75.1224 60.4567 75.3918 60.5266 75.6274 60.6663C75.8669 60.8021 76.0526 60.9937 76.1843 61.2412C76.3201 61.4888 76.388 61.7722 76.388 62.0916ZM74.8189 60.9418C74.5435 60.9418 74.3119 61.0257 74.1243 61.1933C73.9406 61.361 73.8328 61.5806 73.8009 61.8521H75.837C75.8051 61.5846 75.6953 61.367 75.5076 61.1993C75.324 61.0276 75.0944 60.9418 74.8189 60.9418Z" fill="white"/>
<path d="M23.7893 35.9394L23.7877 35.3724L20.6185 35.374L20.6185 38.5362L21.1854 38.5362L21.1854 35.9394H23.7893Z" fill="white"/>
<path d="M94.5372 87.0478L94.5388 87.6147L97.708 87.6131L97.708 84.451L97.1411 84.451L97.1411 87.0478L94.5372 87.0478Z" fill="white"/>
<defs>
<filter id="filter0_d" x="0.603754" y="0.732821" width="116.09" height="223.053" filterUnits="userSpaceOnUse" color-interpolation-filters="sRGB">
<feFlood flood-opacity="0" result="BackgroundImageFix"/>
<feColorMatrix in="SourceAlpha" type="matrix" values="0 0 0 0 0 0 0 0 0 0 0 0 0 0 0 0 0 0 127 0"/>
<feOffset dy="1.75932"/>
<feGaussianBlur stdDeviation="2.51331"/>
<feColorMatrix type="matrix" values="0 0 0 0 0 0 0 0 0 0 0 0 0 0 0 0 0 0 0.1 0"/>
<feBlend mode="normal" in2="BackgroundImageFix" result="effect1_dropShadow"/>
<feBlend mode="normal" in="SourceGraphic" in2="effect1_dropShadow" result="shape"/>
</filter>
</defs>
</svg>
