<svg width="300" height="300" viewBox="0 0 300 300" fill="none" xmlns="http://www.w3.org/2000/svg">
<path opacity="0.2" d="M150 80.062C188.626 80.062 219.938 111.375 219.938 150.001L80.061 150.001C80.061 111.375 111.374 80.062 150 80.062Z" fill="#740B99"/>
<path opacity="0.4" d="M149.999 98.978C178.177 98.978 201.02 121.821 201.02 149.999L98.9779 149.999C98.9779 121.821 121.821 98.978 149.999 98.978Z" fill="#740B99"/>
<path d="M149.999 120.189C166.462 120.189 179.809 133.536 179.809 149.999L120.189 149.999C120.189 133.536 133.535 120.189 149.999 120.189Z" fill="#740B99"/>
<path opacity="0.2" d="M150 219.939C111.374 219.939 80.0613 188.626 80.0613 150L219.939 150C219.939 188.626 188.626 219.939 150 219.939Z" fill="#FBB640"/>
<path opacity="0.4" d="M150.001 201.023C121.823 201.023 98.9805 178.18 98.9805 150.002L201.022 150.002C201.022 178.18 178.179 201.023 150.001 201.023Z" fill="#FBB640"/>
<path d="M150.001 179.812C133.537 179.812 120.191 166.465 120.191 150.002L179.811 150.002C179.811 166.465 166.464 179.812 150.001 179.812Z" fill="#FBB640"/>
<path opacity="0.2" d="M80.0615 150C80.0615 111.374 111.374 80.0615 150 80.0615L150 219.939C111.374 219.939 80.0615 188.626 80.0615 150Z" fill="#740B99"/>
<path opacity="0.4" d="M98.9778 150.001C98.9778 121.823 121.821 98.9805 149.999 98.9805L149.999 201.022C121.821 201.022 98.9778 178.179 98.9778 150.001Z" fill="#740B99"/>
<path d="M120.191 150.003C120.191 133.539 133.538 120.193 150.001 120.193L150.001 179.813C133.538 179.813 120.191 166.466 120.191 150.003Z" fill="#740B99"/>
<path opacity="0.2" d="M219.939 150C219.939 188.626 188.626 219.939 150 219.939L150 80.0616C188.626 80.0616 219.939 111.374 219.939 150Z" fill="#FBB640"/>
<path opacity="0.4" d="M201.023 149.999C201.023 178.177 178.18 201.02 150.002 201.02L150.002 98.9783C178.18 98.9784 201.023 121.821 201.023 149.999Z" fill="#FBB640"/>
<path d="M179.809 149.998C179.809 166.461 166.463 179.808 149.999 179.808L149.999 120.188C166.463 120.188 179.809 133.534 179.809 149.998Z" fill="#FBB640"/>
<g opacity="0.1">
<path opacity="0.2" d="M150 300C67.1573 300 3.66357e-06 232.843 8.18282e-06 150L300 150C300 232.843 232.843 300 150 300Z" fill="#740B99"/>
<path opacity="0.4" d="M150.003 259.43C89.5687 259.43 40.5769 210.438 40.5769 150.004L259.429 150.004C259.429 210.438 210.438 259.43 150.003 259.43Z" fill="#740B99"/>
<path d="M150 213.936C114.69 213.936 86.0659 185.311 86.0659 150.001L213.935 150.001C213.935 185.311 185.31 213.936 150 213.936Z" fill="#740B99"/>
<path opacity="0.2" d="M150 -5.25373e-06C232.843 -2.35218e-06 300 67.1573 300 150L8.33699e-05 150C8.78892e-05 67.1573 67.1574 -8.15529e-06 150 -5.25373e-06Z" fill="#FBB640"/>
<path opacity="0.4" d="M149.997 40.5698C210.431 40.5698 259.423 89.5616 259.423 149.996L40.5707 149.996C40.5707 89.5616 89.5625 40.5698 149.997 40.5698Z" fill="#FBB640"/>
<path d="M149.999 86.0645C185.309 86.0645 213.934 114.689 213.934 149.999L86.065 149.999C86.065 114.689 114.689 86.0644 149.999 86.0645Z" fill="#FBB640"/>
</g>
<g opacity="0.8">
<path opacity="0.2" d="M150 219.938C111.374 219.938 80.0618 188.626 80.0618 150L219.939 150C219.939 188.626 188.626 219.938 150 219.938Z" fill="#740B99"/>
<path opacity="0.4" d="M150.002 201.022C121.823 201.022 98.9807 178.18 98.9807 150.002L201.022 150.002C201.022 178.18 178.18 201.022 150.002 201.022Z" fill="#740B99"/>
<path d="M150.001 179.811C133.538 179.811 120.191 166.464 120.191 150.001L179.811 150.001C179.811 166.464 166.465 179.811 150.001 179.811Z" fill="#740B99"/>
<path opacity="0.2" d="M150 80.0615C188.626 80.0615 219.939 111.374 219.939 150L80.0615 150C80.0615 111.374 111.374 80.0615 150 80.0615Z" fill="#FBB640"/>
<path opacity="0.4" d="M149.999 98.9775C178.177 98.9775 201.02 121.82 201.02 149.998L98.9784 149.998C98.9784 121.82 121.821 98.9775 149.999 98.9775Z" fill="#FBB640"/>
<path d="M149.999 120.189C166.463 120.189 179.809 133.535 179.809 149.999L120.19 149.999C120.19 133.535 133.536 120.189 149.999 120.189Z" fill="#FBB640"/>
</g>
</svg>
