<svg width="299" height="297" viewBox="0 0 299 297" fill="none" xmlns="http://www.w3.org/2000/svg">
<path opacity="0.2" fill-rule="evenodd" clip-rule="evenodd" d="M212.026 82.3313C202.937 87.585 199.823 99.2207 205.07 108.32C210.318 117.42 221.939 120.538 231.028 115.284C240.116 110.03 243.23 98.3947 237.983 89.295C232.735 80.1953 221.114 77.0776 212.026 82.3313Z" fill="#740B99"/>
<path opacity="0.4" fill-rule="evenodd" clip-rule="evenodd" d="M214.594 86.7884C207.964 90.621 205.693 99.1094 209.52 105.748C213.348 112.386 221.826 114.66 228.456 110.828C235.086 106.995 237.358 98.5068 233.53 91.8685C229.702 85.2302 221.224 82.9558 214.594 86.7884Z" fill="#740B99"/>
<path fill-rule="evenodd" clip-rule="evenodd" d="M217.485 91.7877C213.611 94.0269 212.284 98.9864 214.52 102.865C216.757 106.744 221.71 108.072 225.584 105.833C229.458 103.594 230.785 98.6344 228.548 94.7558C226.312 90.8773 221.358 89.5484 217.485 91.7877Z" fill="#740B99"/>
<g opacity="0.2">
<path opacity="0.2" fill-rule="evenodd" clip-rule="evenodd" d="M285.465 186.115C282.104 188.054 280.953 192.353 282.896 195.716C284.838 199.079 289.138 200.233 292.499 198.293C295.861 196.353 297.011 192.054 295.069 188.691C293.126 185.328 288.827 184.175 285.465 186.115Z" fill="#740B99"/>
<path opacity="0.4" fill-rule="evenodd" clip-rule="evenodd" d="M286.416 187.762C283.963 189.177 283.124 192.313 284.541 194.767C285.958 197.22 289.095 198.061 291.547 196.646C293.999 195.231 294.838 192.095 293.421 189.642C292.004 187.188 288.868 186.347 286.416 187.762Z" fill="#740B99"/>
<path fill-rule="evenodd" clip-rule="evenodd" d="M287.485 189.609C286.052 190.436 285.562 192.268 286.39 193.702C287.218 195.135 289.05 195.627 290.483 194.8C291.916 193.973 292.406 192.141 291.578 190.707C290.75 189.274 288.918 188.782 287.485 189.609Z" fill="#740B99"/>
</g>
<g opacity="0.3">
<path opacity="0.2" fill-rule="evenodd" clip-rule="evenodd" d="M260.528 123.559C252.844 128.001 250.212 137.838 254.648 145.531C259.084 153.224 268.909 155.859 276.592 151.418C284.275 146.976 286.908 137.139 282.472 129.446C278.036 121.753 268.211 119.118 260.528 123.559Z" fill="#740B99"/>
<path opacity="0.4" fill-rule="evenodd" clip-rule="evenodd" d="M262.7 127.331C257.094 130.571 255.174 137.747 258.41 143.359C261.646 148.971 268.813 150.894 274.419 147.654C280.024 144.414 281.944 137.238 278.708 131.626C275.472 126.013 268.305 124.091 262.7 127.331Z" fill="#740B99"/>
<path fill-rule="evenodd" clip-rule="evenodd" d="M265.144 131.554C261.869 133.447 260.747 137.64 262.638 140.919C264.529 144.198 268.716 145.321 271.991 143.428C275.266 141.535 276.388 137.342 274.498 134.063C272.607 130.784 268.419 129.661 265.144 131.554Z" fill="#740B99"/>
</g>
<g opacity="0.4">
<path opacity="0.2" fill-rule="evenodd" clip-rule="evenodd" d="M194.543 6.39633C186.86 10.8379 184.227 20.6748 188.663 28.3678C193.099 36.0607 202.924 38.6965 210.607 34.255C218.291 29.8135 220.923 19.9765 216.487 12.2836C212.051 4.5906 202.226 1.9548 194.543 6.39633Z" fill="#740B99"/>
<path opacity="0.4" fill-rule="evenodd" clip-rule="evenodd" d="M196.715 10.1684C191.109 13.4086 189.189 20.5847 192.425 26.1968C195.661 31.8088 202.829 33.7317 208.434 30.4915C214.039 27.2514 215.959 20.0753 212.723 14.4632C209.487 8.85113 202.32 6.92829 196.715 10.1684Z" fill="#740B99"/>
<path fill-rule="evenodd" clip-rule="evenodd" d="M199.16 14.392C195.885 16.2851 194.763 20.4779 196.653 23.7569C198.544 27.0358 202.732 28.1593 206.007 26.2662C209.282 24.3731 210.404 20.1803 208.513 16.9013C206.622 13.6223 202.435 12.4989 199.16 14.392Z" fill="#740B99"/>
</g>
<g opacity="0.5">
<path opacity="0.2" fill-rule="evenodd" clip-rule="evenodd" d="M162.477 262.856C159.753 264.431 158.819 267.919 160.392 270.646C161.965 273.374 165.448 274.308 168.173 272.734C170.897 271.159 171.83 267.671 170.258 264.943C168.685 262.216 165.201 261.281 162.477 262.856Z" fill="#740B99"/>
<path opacity="0.4" fill-rule="evenodd" clip-rule="evenodd" d="M163.246 264.193C161.259 265.342 160.578 267.887 161.726 269.877C162.873 271.866 165.414 272.548 167.402 271.399C169.389 270.25 170.07 267.706 168.922 265.716C167.775 263.726 165.234 263.045 163.246 264.193Z" fill="#740B99"/>
<path fill-rule="evenodd" clip-rule="evenodd" d="M164.112 265.689C162.95 266.361 162.552 267.847 163.223 269.01C163.893 270.173 165.378 270.571 166.54 269.9C167.701 269.228 168.099 267.742 167.429 266.579C166.758 265.416 165.273 265.018 164.112 265.689Z" fill="#740B99"/>
</g>
<g opacity="0.5">
<path opacity="0.2" fill-rule="evenodd" clip-rule="evenodd" d="M236.587 206.552C233.863 208.127 232.929 211.615 234.502 214.342C236.075 217.07 239.559 218.004 242.283 216.43C245.007 214.855 245.941 211.367 244.368 208.639C242.795 205.912 239.311 204.977 236.587 206.552Z" fill="#740B99"/>
<path opacity="0.4" fill-rule="evenodd" clip-rule="evenodd" d="M237.356 207.889C235.369 209.038 234.688 211.583 235.836 213.573C236.983 215.562 239.524 216.244 241.512 215.095C243.499 213.946 244.18 211.402 243.033 209.412C241.885 207.422 239.344 206.741 237.356 207.889Z" fill="#740B99"/>
<path fill-rule="evenodd" clip-rule="evenodd" d="M238.222 209.385C237.06 210.057 236.662 211.543 237.333 212.706C238.003 213.869 239.488 214.267 240.65 213.596C241.811 212.924 242.209 211.438 241.538 210.275C240.868 209.112 239.383 208.714 238.222 209.385Z" fill="#740B99"/>
</g>
<g opacity="0.7">
<path opacity="0.2" fill-rule="evenodd" clip-rule="evenodd" d="M229.79 250.849C220.346 256.308 217.111 268.399 222.563 277.855C228.015 287.311 240.091 290.55 249.535 285.091C258.979 279.632 262.215 267.541 256.763 258.085C251.31 248.63 239.234 245.39 229.79 250.849Z" fill="#740B99"/>
<path opacity="0.4" fill-rule="evenodd" clip-rule="evenodd" d="M232.458 255.485C225.569 259.467 223.208 268.288 227.186 275.186C231.163 282.084 239.973 284.447 246.862 280.464C253.752 276.482 256.112 267.662 252.135 260.764C248.157 253.866 239.348 251.502 232.458 255.485Z" fill="#740B99"/>
<path fill-rule="evenodd" clip-rule="evenodd" d="M235.464 260.676C231.439 263.003 230.06 268.156 232.384 272.186C234.708 276.217 239.855 277.597 243.88 275.271C247.906 272.944 249.285 267.79 246.961 263.76C244.637 259.73 239.49 258.349 235.464 260.676Z" fill="#740B99"/>
</g>
<g opacity="0.7">
<path opacity="0.2" fill-rule="evenodd" clip-rule="evenodd" d="M33.7928 211.597C28.7523 214.511 27.0253 220.964 29.9354 226.011C32.8456 231.058 39.291 232.787 44.3315 229.873C49.3721 226.959 51.0991 220.506 48.1889 215.459C45.2787 210.413 38.8334 208.684 33.7928 211.597Z" fill="#740B99"/>
<path opacity="0.4" fill-rule="evenodd" clip-rule="evenodd" d="M35.2159 214.071C31.5388 216.197 30.2789 220.905 32.4019 224.586C34.5249 228.268 39.2269 229.53 42.904 227.404C46.5811 225.278 47.841 220.571 45.718 216.889C43.595 213.207 38.8931 211.946 35.2159 214.071Z" fill="#740B99"/>
<path fill-rule="evenodd" clip-rule="evenodd" d="M36.8214 216.843C34.673 218.085 33.9368 220.836 35.1772 222.987C36.4177 225.138 39.1648 225.875 41.3133 224.633C43.4617 223.391 44.1978 220.641 42.9574 218.49C41.717 216.339 38.9698 215.602 36.8214 216.843Z" fill="#740B99"/>
</g>
<g opacity="0.7">
<path opacity="0.2" fill-rule="evenodd" clip-rule="evenodd" d="M119.955 111.95C117.612 113.304 116.809 116.304 118.162 118.651C119.515 120.997 122.511 121.801 124.855 120.446C127.198 119.091 128.001 116.091 126.648 113.745C125.295 111.399 122.299 110.595 119.955 111.95Z" fill="#740B99"/>
<path opacity="0.4" fill-rule="evenodd" clip-rule="evenodd" d="M120.617 113.099C118.908 114.087 118.322 116.276 119.309 117.987C120.296 119.699 122.482 120.285 124.191 119.297C125.901 118.309 126.486 116.12 125.499 114.409C124.512 112.697 122.326 112.111 120.617 113.099Z" fill="#740B99"/>
<path fill-rule="evenodd" clip-rule="evenodd" d="M121.362 114.387C120.363 114.965 120.021 116.244 120.597 117.244C121.174 118.244 122.452 118.587 123.451 118.009C124.45 117.432 124.792 116.153 124.215 115.153C123.638 114.152 122.361 113.81 121.362 114.387Z" fill="#740B99"/>
</g>
<g opacity="0.9">
<path opacity="0.2" fill-rule="evenodd" clip-rule="evenodd" d="M8.50617 84.2271C3.46563 87.1409 1.73861 93.5942 4.64874 98.641C7.55887 103.688 14.0042 105.417 19.0447 102.503C24.0852 99.5894 25.8123 93.1361 22.9021 88.0893C19.992 83.0425 13.5467 81.3134 8.50617 84.2271Z" fill="#740B99"/>
<path opacity="0.4" fill-rule="evenodd" clip-rule="evenodd" d="M9.92921 86.7009C6.2521 88.8265 4.99222 93.5342 7.11518 97.2159C9.23815 100.898 13.94 102.159 17.6171 100.033C21.2943 97.9077 22.5541 93.2 20.4312 89.5183C18.3082 85.8366 13.6063 84.5752 9.92921 86.7009Z" fill="#740B99"/>
<path fill-rule="evenodd" clip-rule="evenodd" d="M11.5348 89.4726C9.38642 90.7146 8.65031 93.4652 9.89069 95.6162C11.1311 97.7673 13.8783 98.5043 16.0267 97.2624C18.1751 96.0205 18.9112 93.2699 17.6708 91.1188C16.4304 88.9677 13.6833 88.2307 11.5348 89.4726Z" fill="#740B99"/>
</g>
<path opacity="0.2" fill-rule="evenodd" clip-rule="evenodd" d="M205.604 191.771C200.407 194.775 198.626 201.428 201.627 206.631C204.627 211.834 211.272 213.617 216.468 210.613C221.665 207.609 223.446 200.956 220.445 195.753C217.445 190.55 210.8 188.767 205.604 191.771Z" fill="#740B99"/>
<path opacity="0.4" fill-rule="evenodd" clip-rule="evenodd" d="M207.072 194.316C203.281 196.507 201.983 201.361 204.171 205.156C206.36 208.952 211.207 210.253 214.998 208.061C218.789 205.87 220.088 201.016 217.9 197.221C215.711 193.425 210.863 192.124 207.072 194.316Z" fill="#740B99"/>
<path fill-rule="evenodd" clip-rule="evenodd" d="M208.719 197.176C206.504 198.457 205.745 201.292 207.024 203.51C208.303 205.728 211.135 206.488 213.35 205.207C215.565 203.927 216.324 201.091 215.045 198.873C213.766 196.656 210.934 195.896 208.719 197.176Z" fill="#740B99"/>
<path opacity="0.2" fill-rule="evenodd" clip-rule="evenodd" d="M72.0355 165.445C66.8388 168.449 65.0584 175.102 68.0587 180.305C71.0589 185.508 77.7039 187.291 82.9005 184.287C88.0971 181.283 89.8776 174.63 86.8773 169.427C83.877 164.224 77.2321 162.441 72.0355 165.445Z" fill="#740B99"/>
<path opacity="0.4" fill-rule="evenodd" clip-rule="evenodd" d="M73.5046 167.99C69.7136 170.182 68.4148 175.035 70.6035 178.831C72.7922 182.626 77.6398 183.927 81.4307 181.735C85.2217 179.544 86.5206 174.691 84.3319 170.895C82.1431 167.099 77.2956 165.799 73.5046 167.99Z" fill="#740B99"/>
<path fill-rule="evenodd" clip-rule="evenodd" d="M75.1512 170.85C72.9362 172.131 72.1773 174.966 73.4562 177.184C74.735 179.402 77.5672 180.162 79.7822 178.881C81.9971 177.601 82.756 174.765 81.4772 172.548C80.1984 170.33 77.3662 169.57 75.1512 170.85Z" fill="#740B99"/>
<path opacity="0.2" fill-rule="evenodd" clip-rule="evenodd" d="M177.672 203.147C174.604 204.921 173.553 208.848 175.324 211.92C177.095 214.991 181.018 216.044 184.086 214.27C187.153 212.497 188.205 208.569 186.433 205.498C184.662 202.426 180.74 201.374 177.672 203.147Z" fill="#740B99"/>
<path opacity="0.4" fill-rule="evenodd" clip-rule="evenodd" d="M178.539 204.65C176.301 205.943 175.534 208.809 176.826 211.049C178.118 213.29 180.98 214.058 183.218 212.764C185.456 211.47 186.223 208.605 184.931 206.364C183.638 204.124 180.777 203.356 178.539 204.65Z" fill="#740B99"/>
<path fill-rule="evenodd" clip-rule="evenodd" d="M179.51 206.339C178.203 207.095 177.755 208.769 178.51 210.078C179.264 211.387 180.936 211.836 182.244 211.08C183.552 210.324 184 208.65 183.245 207.341C182.49 206.031 180.818 205.583 179.51 206.339Z" fill="#740B99"/>
<path opacity="0.2" fill-rule="evenodd" clip-rule="evenodd" d="M151.187 212.831C149.696 213.693 149.185 215.602 150.046 217.095C150.907 218.587 152.813 219.099 154.304 218.237C155.795 217.375 156.306 215.466 155.445 213.974C154.584 212.481 152.678 211.97 151.187 212.831Z" fill="#740B99"/>
<path opacity="0.4" fill-rule="evenodd" clip-rule="evenodd" d="M151.607 213.56C150.519 214.189 150.146 215.582 150.774 216.671C151.402 217.76 152.793 218.133 153.881 217.504C154.968 216.875 155.341 215.483 154.713 214.394C154.085 213.305 152.694 212.932 151.607 213.56Z" fill="#740B99"/>
<path fill-rule="evenodd" clip-rule="evenodd" d="M152.079 214.38C151.443 214.747 151.225 215.561 151.592 216.198C151.959 216.834 152.772 217.052 153.408 216.685C154.043 216.317 154.261 215.503 153.894 214.867C153.527 214.231 152.714 214.013 152.079 214.38Z" fill="#740B99"/>
<path opacity="0.2" fill-rule="evenodd" clip-rule="evenodd" d="M135.475 40.0105C123.174 47.1211 118.959 62.8694 126.061 75.1854C133.163 87.5013 148.892 91.7211 161.193 84.6105C173.494 77.4999 177.708 61.7515 170.606 49.4356C163.504 37.1197 147.775 32.8999 135.475 40.0105Z" fill="#740B99"/>
<path opacity="0.4" fill-rule="evenodd" clip-rule="evenodd" d="M138.963 46.0455C129.989 51.2327 126.914 62.7213 132.095 71.7058C137.276 80.6904 148.751 83.7688 157.724 78.5815C166.698 73.3943 169.772 61.9058 164.591 52.9212C159.41 43.9366 147.936 40.8582 138.963 46.0455Z" fill="#740B99"/>
<path fill-rule="evenodd" clip-rule="evenodd" d="M142.855 52.8079C137.612 55.8386 135.815 62.551 138.842 67.8005C141.869 73.0499 148.574 74.8485 153.817 71.8177C159.06 68.787 160.856 62.0746 157.829 56.8252C154.802 51.5757 148.098 49.7771 142.855 52.8079Z" fill="#740B99"/>
<path opacity="0.2" fill-rule="evenodd" clip-rule="evenodd" d="M134.505 135.091C129.465 138.004 127.739 144.456 130.648 149.502C133.558 154.548 140.002 156.277 145.042 153.364C150.082 150.45 151.808 143.998 148.899 138.952C145.989 133.906 139.545 132.177 134.505 135.091Z" fill="#740B99"/>
<path opacity="0.4" fill-rule="evenodd" clip-rule="evenodd" d="M135.934 137.563C132.258 139.689 130.998 144.395 133.121 148.077C135.243 151.758 139.944 153.019 143.621 150.894C147.297 148.768 148.557 144.061 146.434 140.38C144.312 136.699 139.611 135.438 135.934 137.563Z" fill="#740B99"/>
<path fill-rule="evenodd" clip-rule="evenodd" d="M137.529 140.334C135.381 141.576 134.645 144.326 135.885 146.476C137.125 148.627 139.872 149.364 142.02 148.122C144.168 146.881 144.904 144.131 143.664 141.98C142.423 139.829 139.677 139.092 137.529 140.334Z" fill="#740B99"/>
<path opacity="0.2" fill-rule="evenodd" clip-rule="evenodd" d="M106.383 208.559C99.3382 212.669 96.7079 221.674 100.508 228.672C104.308 235.67 113.1 238.012 120.145 233.902C127.19 229.792 129.82 220.787 126.02 213.789C122.22 206.791 113.428 204.45 106.383 208.559Z" fill="#740B99"/>
<path opacity="0.4" fill-rule="evenodd" clip-rule="evenodd" d="M108.242 211.984C103.102 214.982 101.184 221.551 103.956 226.656C106.728 231.761 113.142 233.469 118.281 230.471C123.42 227.473 125.339 220.904 122.567 215.799C119.794 210.694 113.381 208.985 108.242 211.984Z" fill="#740B99"/>
<path fill-rule="evenodd" clip-rule="evenodd" d="M110.335 215.831C107.333 217.583 106.211 221.421 107.831 224.404C109.451 227.386 113.198 228.385 116.201 226.633C119.203 224.881 120.325 221.043 118.705 218.06C117.085 215.077 113.338 214.079 110.335 215.831Z" fill="#740B99"/>
<path d="M63.2853 153.648L100.251 209.763C106.8 219.705 118.931 224.393 130.461 221.438L220.835 198.277C235.716 194.463 244.728 179.332 240.999 164.421L226.839 107.785C224.873 99.9254 219.594 93.3089 212.372 89.6524L163.898 65.1138C154.457 60.3343 143.124 61.3125 134.634 67.6398L69.928 115.861C58.0568 124.708 55.1423 141.287 63.2853 153.648Z" stroke="#740B99" stroke-width="1.04694"/>
<path opacity="0.2" fill-rule="evenodd" clip-rule="evenodd" d="M56.57 125.847C51.9945 128.589 50.1484 134.168 52.4468 138.309C54.7451 142.449 60.3175 143.583 64.893 140.841C69.4685 138.1 71.3146 132.52 69.0162 128.38C66.7179 124.24 61.1455 123.106 56.57 125.847Z" fill="#740B99"/>
<path opacity="0.4" fill-rule="evenodd" clip-rule="evenodd" d="M57.6993 127.881C54.3614 129.881 53.0146 133.951 54.6912 136.971C56.3678 139.992 60.4328 140.819 63.7707 138.819C67.1086 136.819 68.4553 132.749 66.7787 129.729C65.1022 126.708 61.0372 125.881 57.6993 127.881Z" fill="#740B99"/>
<path fill-rule="evenodd" clip-rule="evenodd" d="M58.9656 130.15C57.0159 131.318 56.2296 133.696 57.2092 135.461C58.1888 137.226 60.5634 137.709 62.5131 136.541C64.4627 135.373 65.2491 132.995 64.2695 131.23C63.2899 129.465 60.9152 128.982 58.9656 130.15Z" fill="#740B99"/>
</svg>
