<svg width="300" height="276" viewBox="0 0 300 276" fill="none" xmlns="http://www.w3.org/2000/svg">
<path d="M146.434 58.4215C129.418 59.75 112.617 65.4935 98.5166 74.8775C52.3126 105.52 39.714 167.874 70.3571 213.987C86.343 238.029 110.73 253.499 139.617 257.998C145.747 258.942 161.092 259.026 166.791 258.212C171.549 257.484 180.378 255.597 180.807 255.17C180.979 254.999 179.737 251.227 178.021 246.769C174.378 237.383 175.577 238.198 167.864 239.655C158.392 241.411 147.462 241.284 137.519 239.226C109.146 233.442 85.7444 212.959 76.1858 185.53C62.5144 146.36 80.5589 102.776 117.932 84.5641C166.192 61.0362 223.925 89.4931 234.725 142.119C236.525 151.033 236.868 161.833 235.54 170.231C235.281 171.944 235.239 173.531 235.453 173.702C235.624 173.916 239.439 175.16 243.854 176.531C250.112 178.46 251.997 178.887 252.255 178.46C252.727 177.732 253.413 173.446 254.056 167.489C254.657 161.833 254.314 150.09 253.37 143.919C247.455 105.477 221.054 74.5793 184.023 62.7519C172.749 59.1492 158.35 57.478 146.434 58.4215Z" fill="#E3CEEB"/>
<path d="M143.958 95.4478C130.329 97.7198 118.456 103.804 108.813 113.49C99.8131 122.447 93.8976 133.46 91.1558 146.275C89.9563 151.848 90.0853 165.989 91.3272 171.561C94.2426 184.588 99.4703 194.146 108.813 203.532C121.071 215.831 136.158 222.218 153.388 222.302C159.088 222.302 166.073 221.617 167.275 220.887C167.66 220.629 167.019 218.488 164.705 212.444C163.033 207.987 161.491 204.215 161.362 204.044C161.191 203.872 159.432 203.915 157.463 204.131C152.834 204.687 146.32 204.044 141.39 202.631C121.632 196.887 108.174 179.103 108.174 158.704C108.174 146.191 112.461 135.69 121.16 126.691C130.033 117.52 141.177 112.849 154.033 112.849C177.392 112.849 197.064 130.592 199.423 153.861C199.681 156.176 199.766 159.133 199.594 160.462C199.381 162.605 199.465 162.947 200.151 163.119C200.622 163.248 204.521 164.447 208.808 165.776C213.136 167.104 216.78 168.132 216.866 168.048C217.338 167.534 217.937 158.405 217.681 155.063C216.437 138.349 210.352 124.893 198.866 113.493C189.524 104.235 179.881 98.9214 167.108 96.0508C162.13 94.9337 149.057 94.591 143.958 95.4478Z" fill="#B780CA"/>
<path d="M147.301 132.132C141.944 133.545 138.773 135.389 134.742 139.417C130.627 143.532 128.827 146.66 127.456 152.146C124.285 164.532 130.543 177.688 142.242 183.173C145.672 184.802 149.7 185.788 152.228 185.616L154.329 185.487L149.615 173.273C146.658 165.558 144.815 160.288 144.728 158.915C144.343 154.458 148.242 149.916 152.914 149.402C154.5 149.188 157.115 149.874 167.745 153.132C174.817 155.317 180.773 156.988 180.902 156.817C181.458 156.26 179.745 149.531 178.202 146.36C175.888 141.689 170.531 136.288 165.944 134.103C159.986 131.275 153.301 130.547 147.301 132.132Z" fill="#740B99"/>
<path d="M154.416 159.687C154.63 160.201 164.618 186.173 176.66 217.414C188.66 248.654 198.775 274.839 199.076 275.567C199.677 276.982 199.804 276.595 211.034 247.455L222.348 217.885L247.12 206.656C260.749 200.443 271.766 195.256 271.592 195.085C271.378 194.914 245.104 186.771 213.174 176.958C181.243 167.144 154.886 159.002 154.585 158.915C154.2 158.788 154.158 159.002 154.416 159.687Z" fill="#740B99"/>
<g opacity="0.3">
<path opacity="0.2" fill-rule="evenodd" clip-rule="evenodd" d="M184.907 33.2319C181.734 33.2319 179.16 35.8036 179.156 38.9758C179.153 42.1481 181.722 44.7197 184.895 44.7197C188.067 44.7197 190.642 42.1481 190.645 38.9758C190.649 35.8036 188.08 33.2319 184.907 33.2319Z" fill="#740B99"/>
<path opacity="0.4" fill-rule="evenodd" clip-rule="evenodd" d="M184.904 34.7852C182.59 34.7852 180.712 36.6614 180.709 38.9758C180.707 41.2903 182.581 43.1665 184.895 43.1665C187.21 43.1665 189.088 41.2903 189.09 38.9758C189.093 36.6614 187.219 34.7852 184.904 34.7852Z" fill="#740B99"/>
<path fill-rule="evenodd" clip-rule="evenodd" d="M184.905 36.5288C183.553 36.5288 182.456 37.625 182.454 38.9773C182.453 40.3296 183.548 41.4258 184.9 41.4258C186.252 41.4258 187.35 40.3296 187.351 38.9773C187.353 37.625 186.258 36.5288 184.905 36.5288Z" fill="#740B99"/>
</g>
<path opacity="0.2" fill-rule="evenodd" clip-rule="evenodd" d="M294.257 99.1797C291.085 99.1797 288.51 101.751 288.507 104.924C288.503 108.096 291.072 110.667 294.245 110.667C297.418 110.667 299.992 108.096 299.996 104.924C299.999 101.751 297.43 99.1797 294.257 99.1797Z" fill="#740B99"/>
<path opacity="0.4" fill-rule="evenodd" clip-rule="evenodd" d="M294.255 100.733C291.94 100.733 290.062 102.609 290.059 104.924C290.057 107.238 291.931 109.114 294.246 109.114C296.56 109.114 298.438 107.238 298.441 104.924C298.443 102.609 296.569 100.733 294.255 100.733Z" fill="#740B99"/>
<path fill-rule="evenodd" clip-rule="evenodd" d="M294.256 102.477C292.903 102.477 291.806 103.573 291.805 104.925C291.803 106.277 292.898 107.374 294.25 107.374C295.603 107.374 296.7 106.277 296.702 104.925C296.703 103.573 295.608 102.477 294.256 102.477Z" fill="#740B99"/>
<path opacity="0.2" fill-rule="evenodd" clip-rule="evenodd" d="M142.365 0.568409C135.667 0.568409 130.232 5.99733 130.225 12.6942C130.217 19.3911 135.641 24.8201 142.339 24.8201C149.036 24.8201 154.472 19.3911 154.479 12.6942C154.486 5.99733 149.062 0.56841 142.365 0.568409Z" fill="#740B99"/>
<path opacity="0.4" fill-rule="evenodd" clip-rule="evenodd" d="M142.359 3.84948C137.473 3.84948 133.508 7.80992 133.502 12.6954C133.497 17.5808 137.454 21.5413 142.34 21.5413C147.226 21.5413 151.191 17.5808 151.196 12.6954C151.201 7.80992 147.245 3.84948 142.359 3.84948Z" fill="#740B99"/>
<path fill-rule="evenodd" clip-rule="evenodd" d="M142.361 7.52944C139.507 7.52944 137.19 9.8434 137.187 12.6978C137.184 15.5522 139.496 17.8662 142.35 17.8662C145.205 17.8662 147.522 15.5522 147.525 12.6978C147.528 9.8434 145.216 7.52944 142.361 7.52944Z" fill="#740B99"/>
<g opacity="0.6">
<path opacity="0.2" fill-rule="evenodd" clip-rule="evenodd" d="M86.2138 12.5288C75.7561 12.5288 67.2694 21.0056 67.2582 31.4622C67.247 41.9188 75.7156 50.3955 86.1733 50.3955C96.631 50.3955 105.118 41.9188 105.129 31.4622C105.14 21.0056 96.6715 12.5288 86.2138 12.5288Z" fill="#740B99"/>
<path opacity="0.4" fill-rule="evenodd" clip-rule="evenodd" d="M86.2043 17.6518C78.5754 17.6518 72.3842 23.8357 72.3761 31.4639C72.3679 39.092 78.5458 45.2759 86.1748 45.2759C93.8038 45.2759 99.9949 39.092 100.003 31.4639C100.011 23.8357 93.8333 17.6518 86.2043 17.6518Z" fill="#740B99"/>
<path fill-rule="evenodd" clip-rule="evenodd" d="M86.2087 23.3989C81.7513 23.3989 78.134 27.012 78.1292 31.4689C78.1245 35.9258 81.734 39.5388 86.1914 39.5388C90.6488 39.5388 94.2661 35.9258 94.2708 31.4689C94.2756 27.012 90.6661 23.3989 86.2087 23.3989Z" fill="#740B99"/>
</g>
<path opacity="0.2" fill-rule="evenodd" clip-rule="evenodd" d="M18.9826 118.896C8.52491 118.896 0.03819 127.373 0.0269995 137.829C0.0158091 148.286 8.48438 156.763 18.9421 156.763C29.3998 156.763 37.8865 148.286 37.8977 137.829C37.9089 127.373 29.4403 118.896 18.9826 118.896Z" fill="#740B99"/>
<path opacity="0.4" fill-rule="evenodd" clip-rule="evenodd" d="M18.9731 124.019C11.3442 124.019 5.15303 130.203 5.14487 137.831C5.1367 145.459 11.3146 151.643 18.9436 151.643C26.5726 151.643 32.7637 145.459 32.7719 137.831C32.78 130.203 26.6021 124.019 18.9731 124.019Z" fill="#740B99"/>
<path fill-rule="evenodd" clip-rule="evenodd" d="M18.9775 129.766C14.5201 129.766 10.9028 133.379 10.898 137.836C10.8933 142.293 14.5028 145.906 18.9602 145.906C23.4176 145.906 27.0349 142.293 27.0396 137.836C27.0444 133.379 23.4349 129.766 18.9775 129.766Z" fill="#740B99"/>
<g opacity="0.5">
<path opacity="0.2" fill-rule="evenodd" clip-rule="evenodd" d="M49.5856 75.4039C46.648 75.4039 44.2641 77.785 44.261 80.7222C44.2578 83.6594 46.6366 86.0405 49.5742 86.0405C52.5117 86.0405 54.8956 83.6594 54.8988 80.7222C54.9019 77.785 52.5231 75.4039 49.5856 75.4039Z" fill="#740B99"/>
<path opacity="0.4" fill-rule="evenodd" clip-rule="evenodd" d="M49.583 76.8422C47.44 76.8422 45.7009 78.5794 45.6986 80.7224C45.6963 82.8653 47.4317 84.6025 49.5747 84.6025C51.7176 84.6025 53.4567 82.8653 53.459 80.7224C53.4613 78.5794 51.7259 76.8422 49.583 76.8422Z" fill="#740B99"/>
<path fill-rule="evenodd" clip-rule="evenodd" d="M49.5842 78.4563C48.3321 78.4563 47.3161 79.4713 47.3147 80.7234C47.3134 81.9755 48.3273 82.9905 49.5794 82.9905C50.8314 82.9905 51.8475 81.9755 51.8489 80.7234C51.8502 79.4713 50.8363 78.4563 49.5842 78.4563Z" fill="#740B99"/>
</g>
<path opacity="0.2" fill-rule="evenodd" clip-rule="evenodd" d="M254.294 45.0144C244.539 45.0144 236.621 52.9223 236.611 62.6772C236.6 72.4322 244.501 80.3401 254.257 80.3401C264.013 80.3401 271.93 72.4322 271.94 62.6772C271.951 52.9223 264.05 45.0144 254.294 45.0144Z" fill="#740B99"/>
<path opacity="0.4" fill-rule="evenodd" clip-rule="evenodd" d="M254.286 49.7936C247.168 49.7936 241.393 55.5625 241.385 62.6788C241.378 69.7951 247.141 75.564 254.258 75.564C261.375 75.564 267.151 69.7951 267.158 62.6788C267.166 55.5625 261.403 49.7936 254.286 49.7936Z" fill="#740B99"/>
<path fill-rule="evenodd" clip-rule="evenodd" d="M254.29 55.1551C250.131 55.1551 246.757 58.5256 246.752 62.6835C246.748 66.8413 250.115 70.2119 254.274 70.2119C258.432 70.2119 261.806 66.8413 261.811 62.6835C261.815 58.5256 258.448 55.1551 254.29 55.1551Z" fill="#740B99"/>
<g opacity="0.8">
<path opacity="0.2" fill-rule="evenodd" clip-rule="evenodd" d="M286.189 138.421C279.491 138.421 274.056 143.85 274.049 150.547C274.041 157.243 279.465 162.672 286.163 162.672C292.86 162.672 298.296 157.243 298.303 150.547C298.31 143.85 292.886 138.421 286.189 138.421Z" fill="#740B99"/>
<path opacity="0.4" fill-rule="evenodd" clip-rule="evenodd" d="M286.183 141.702C281.297 141.702 277.332 145.662 277.326 150.548C277.321 155.433 281.278 159.394 286.164 159.394C291.05 159.394 295.015 155.433 295.02 150.548C295.025 145.662 291.069 141.702 286.183 141.702Z" fill="#740B99"/>
<path fill-rule="evenodd" clip-rule="evenodd" d="M286.185 145.382C283.331 145.382 281.014 147.696 281.011 150.55C281.008 153.405 283.32 155.719 286.174 155.719C289.029 155.719 291.346 153.405 291.349 150.55C291.352 147.696 289.04 145.382 286.185 145.382Z" fill="#740B99"/>
</g>
</svg>
