<svg width="296" height="188" viewBox="0 0 296 188" fill="none" xmlns="http://www.w3.org/2000/svg">
<path opacity="0.2" fill-rule="evenodd" clip-rule="evenodd" d="M62.1407 178.438C67.289 178.438 71.4626 174.264 71.4626 169.117C71.4626 163.969 67.289 159.796 62.1407 159.796C56.9924 159.796 52.8188 163.969 52.8188 169.117C52.8188 174.264 56.9924 178.438 62.1407 178.438Z" fill="#740B99"/>
<path opacity="0.4" fill-rule="evenodd" clip-rule="evenodd" d="M62.139 175.914C65.8947 175.914 68.9394 172.87 68.9394 169.115C68.9394 165.359 65.8947 162.315 62.139 162.315C58.3833 162.315 55.3386 165.359 55.3386 169.115C55.3386 172.87 58.3833 175.914 62.139 175.914Z" fill="#740B99"/>
<path fill-rule="evenodd" clip-rule="evenodd" d="M62.142 173.091C64.3363 173.091 66.1152 171.313 66.1152 169.119C66.1152 166.924 64.3363 165.146 62.142 165.146C59.9476 165.146 58.1687 166.924 58.1687 169.119C58.1687 171.313 59.9476 173.091 62.142 173.091Z" fill="#740B99"/>
<path d="M62.1416 169.117L88.8468 124.613C90.2311 122.306 93.1875 121.5 95.5509 122.786L131.728 142.458C134.644 144.044 138.268 142.415 139.018 139.181L149.747 92.896C150.621 89.1296 155.244 87.7218 158.068 90.3626L203.837 133.163C206.063 135.245 209.615 134.88 211.371 132.389L268.033 51.9988" stroke="#740B99" stroke-width="2.00842"/>
<path opacity="0.2" fill-rule="evenodd" clip-rule="evenodd" d="M91.7309 128.997C95.3123 128.997 98.2156 126.094 98.2156 122.513C98.2156 118.932 95.3123 116.029 91.7309 116.029C88.1494 116.029 85.2461 118.932 85.2461 122.513C85.2461 126.094 88.1494 128.997 91.7309 128.997Z" fill="#740B99"/>
<path opacity="0.4" fill-rule="evenodd" clip-rule="evenodd" d="M91.7275 127.243C94.3402 127.243 96.4582 125.126 96.4582 122.513C96.4582 119.901 94.3402 117.783 91.7275 117.783C89.1148 117.783 86.9968 119.901 86.9968 122.513C86.9968 125.126 89.1148 127.243 91.7275 127.243Z" fill="#740B99"/>
<path fill-rule="evenodd" clip-rule="evenodd" d="M91.734 125.278C93.2605 125.278 94.498 124.041 94.498 122.515C94.498 120.988 93.2605 119.751 91.734 119.751C90.2075 119.751 88.97 120.988 88.97 122.515C88.97 124.041 90.2075 125.278 91.734 125.278Z" fill="#740B99"/>
<path opacity="0.2" fill-rule="evenodd" clip-rule="evenodd" d="M135.499 153.312C141.319 153.312 146.037 148.595 146.037 142.775C146.037 136.956 141.319 132.239 135.499 132.239C129.68 132.239 124.962 136.956 124.962 142.775C124.962 148.595 129.68 153.312 135.499 153.312Z" fill="#740B99"/>
<path opacity="0.4" fill-rule="evenodd" clip-rule="evenodd" d="M135.495 150.461C139.74 150.461 143.182 147.02 143.182 142.775C143.182 138.53 139.74 135.088 135.495 135.088C131.249 135.088 127.807 138.53 127.807 142.775C127.807 147.02 131.249 150.461 135.495 150.461Z" fill="#740B99"/>
<path fill-rule="evenodd" clip-rule="evenodd" d="M135.505 147.268C137.986 147.268 139.996 145.257 139.996 142.777C139.996 140.297 137.986 138.286 135.505 138.286C133.024 138.286 131.013 140.297 131.013 142.777C131.013 145.257 133.024 147.268 135.505 147.268Z" fill="#740B99"/>
<path opacity="0.2" fill-rule="evenodd" clip-rule="evenodd" d="M153.335 103.871C161.393 103.871 167.926 97.3388 167.926 89.2815C167.926 81.2241 161.393 74.6924 153.335 74.6924C145.277 74.6924 138.744 81.2241 138.744 89.2815C138.744 97.3388 145.277 103.871 153.335 103.871Z" fill="#740B99"/>
<path opacity="0.4" fill-rule="evenodd" clip-rule="evenodd" d="M153.332 99.9239C159.21 99.9239 163.976 95.1589 163.976 89.281C163.976 83.4032 159.21 78.6382 153.332 78.6382C147.453 78.6382 142.688 83.4032 142.688 89.281C142.688 95.1589 147.453 99.9239 153.332 99.9239Z" fill="#740B99"/>
<path fill-rule="evenodd" clip-rule="evenodd" d="M153.343 95.5025C156.778 95.5025 159.562 92.7185 159.562 89.2842C159.562 85.8499 156.778 83.0659 153.343 83.0659C149.909 83.0659 147.124 85.8499 147.124 89.2842C147.124 92.7185 149.909 95.5025 153.343 95.5025Z" fill="#740B99"/>
<path opacity="0.2" fill-rule="evenodd" clip-rule="evenodd" d="M207.643 150.88C217.94 150.88 226.287 142.534 226.287 132.238C226.287 121.943 217.94 113.597 207.643 113.597C197.347 113.597 189 121.943 189 132.238C189 142.534 197.347 150.88 207.643 150.88Z" fill="#740B99"/>
<path opacity="0.4" fill-rule="evenodd" clip-rule="evenodd" d="M207.638 145.835C215.149 145.835 221.239 139.747 221.239 132.236C221.239 124.725 215.149 118.637 207.638 118.637C200.126 118.637 194.037 124.725 194.037 132.236C194.037 139.747 200.126 145.835 207.638 145.835Z" fill="#740B99"/>
<path fill-rule="evenodd" clip-rule="evenodd" d="M207.651 140.186C212.04 140.186 215.598 136.628 215.598 132.24C215.598 127.852 212.04 124.294 207.651 124.294C203.262 124.294 199.705 127.852 199.705 132.24C199.705 136.628 203.262 140.186 207.651 140.186Z" fill="#740B99"/>
<path d="M1 187.028L34.3886 115.222C35.7067 112.387 39.2669 111.433 41.8258 113.229L87.3498 145.177C90.3524 147.284 94.5275 145.565 95.176 141.954L109.334 63.1349C110.09 58.9301 115.417 57.5295 118.143 60.8189L175.862 130.475C178.126 133.207 182.433 132.793 184.134 129.678L254.415 1" stroke="url(#paint0_linear)" stroke-width="1.00421"/>
<path opacity="0.2" fill-rule="evenodd" clip-rule="evenodd" d="M265.602 83.6082C282.39 83.6082 296 70.0004 296 53.2143C296 36.4281 282.39 22.8203 265.602 22.8203C248.814 22.8203 235.205 36.4281 235.205 53.2143C235.205 70.0004 248.814 83.6082 265.602 83.6082Z" fill="#740B99"/>
<path opacity="0.4" fill-rule="evenodd" clip-rule="evenodd" d="M265.6 75.3851C277.847 75.3851 287.776 65.458 287.776 53.2124C287.776 40.9668 277.847 31.0398 265.6 31.0398C253.353 31.0398 243.425 40.9668 243.425 53.2124C243.425 65.458 253.353 75.3851 265.6 75.3851Z" fill="#740B99"/>
<path fill-rule="evenodd" clip-rule="evenodd" d="M265.608 66.1728C272.763 66.1728 278.564 60.3727 278.564 53.218C278.564 46.0632 272.763 40.2632 265.608 40.2632C258.452 40.2632 252.652 46.0632 252.652 53.218C252.652 60.3727 258.452 66.1728 265.608 66.1728Z" fill="#740B99"/>
<defs>
<linearGradient id="paint0_linear" x1="-114.935" y1="96.6498" x2="169.61" y2="210.195" gradientUnits="userSpaceOnUse">
<stop stop-color="#7D15A1"/>
<stop offset="1" stop-color="#B675A8" stop-opacity="0"/>
</linearGradient>
</defs>
</svg>
