<svg width="299" height="313" viewBox="0 0 299 313" fill="none" xmlns="http://www.w3.org/2000/svg">
<path opacity="0.2" fill-rule="evenodd" clip-rule="evenodd" d="M298.452 171.568C298.388 161.41 290.088 153.208 279.915 153.249C269.741 153.29 261.546 161.558 261.61 171.716C261.674 181.874 269.974 190.076 280.147 190.035C290.321 189.995 298.516 181.726 298.452 171.568Z" fill="#740B99"/>
<path opacity="0.4" fill-rule="evenodd" clip-rule="evenodd" d="M293.467 171.583C293.42 164.173 287.366 158.189 279.944 158.219C272.522 158.249 266.544 164.281 266.591 171.691C266.638 179.102 272.692 185.085 280.114 185.055C287.536 185.025 293.514 178.994 293.467 171.583Z" fill="#740B99"/>
<path fill-rule="evenodd" clip-rule="evenodd" d="M287.876 171.616C287.848 167.286 284.311 163.791 279.974 163.808C275.638 163.826 272.145 167.35 272.173 171.679C272.2 176.009 275.737 179.504 280.074 179.487C284.41 179.469 287.903 175.946 287.876 171.616Z" fill="#740B99"/>
<path opacity="0.2" fill-rule="evenodd" clip-rule="evenodd" d="M180.896 30.1537C180.792 13.7109 167.358 0.434954 150.891 0.50108C134.423 0.567206 121.158 13.9504 121.262 30.3932C121.366 46.836 134.8 60.1119 151.267 60.0458C167.735 59.9797 181 46.5965 180.896 30.1537Z" fill="#740B99"/>
<path opacity="0.4" fill-rule="evenodd" clip-rule="evenodd" d="M172.826 30.1789C172.75 18.1836 162.95 8.49874 150.937 8.54707C138.924 8.59539 129.247 18.3586 129.323 30.3539C129.399 42.3492 139.199 52.0341 151.212 51.9857C163.225 51.9374 172.902 42.1742 172.826 30.1789Z" fill="#740B99"/>
<path fill-rule="evenodd" clip-rule="evenodd" d="M163.775 30.2331C163.731 23.2249 158.005 17.5666 150.986 17.5948C143.968 17.6231 138.314 23.3273 138.358 30.3355C138.402 37.3436 144.128 43.002 151.147 42.9737C158.166 42.9455 163.819 37.2413 163.775 30.2331Z" fill="#740B99"/>
<path opacity="0.2" fill-rule="evenodd" clip-rule="evenodd" d="M280.159 77.156C280.066 62.3824 267.995 50.4542 253.199 50.5136C238.403 50.573 226.484 62.5975 226.578 77.3711C226.671 92.1447 238.741 104.073 253.538 104.014C268.334 103.954 280.253 91.9296 280.159 77.156Z" fill="#740B99"/>
<path opacity="0.4" fill-rule="evenodd" clip-rule="evenodd" d="M272.908 77.1785C272.839 66.4008 264.034 57.699 253.24 57.7425C242.446 57.786 233.751 66.5583 233.82 77.336C233.888 88.1138 242.693 96.8156 253.487 96.7721C264.281 96.7286 272.976 87.9563 272.908 77.1785Z" fill="#740B99"/>
<path fill-rule="evenodd" clip-rule="evenodd" d="M264.778 77.2269C264.738 70.9297 259.594 65.8453 253.287 65.8706C246.98 65.896 241.9 71.0215 241.94 77.3187C241.98 83.616 247.125 88.7004 253.432 88.675C259.738 88.6497 264.818 83.5242 264.778 77.2269Z" fill="#740B99"/>
<path opacity="0.2" fill-rule="evenodd" clip-rule="evenodd" d="M0.188483 139.595C0.292473 156.038 13.7264 169.314 30.1939 169.248C46.6615 169.182 59.9268 155.798 59.8228 139.356C59.7188 122.913 46.2849 109.637 29.8174 109.703C13.3498 109.769 0.0844932 123.152 0.188483 139.595Z" fill="#740B99"/>
<path opacity="0.4" fill-rule="evenodd" clip-rule="evenodd" d="M8.25715 139.569C8.33314 151.564 18.1334 161.249 30.1466 161.2C42.1598 161.152 51.8369 151.389 51.7609 139.394C51.6849 127.399 41.8847 117.714 29.8714 117.762C17.8582 117.81 8.18117 127.574 8.25715 139.569Z" fill="#740B99"/>
<path fill-rule="evenodd" clip-rule="evenodd" d="M17.3095 139.515C17.3539 146.524 23.0796 152.182 30.0982 152.154C37.1169 152.126 42.7706 146.422 42.7262 139.413C42.6818 132.405 36.956 126.747 29.9374 126.775C22.9188 126.803 17.265 132.507 17.3095 139.515Z" fill="#740B99"/>
<path opacity="0.2" fill-rule="evenodd" clip-rule="evenodd" d="M142.134 282.359C142.238 298.802 155.671 312.077 172.139 312.011C188.607 311.945 201.872 298.562 201.768 282.119C201.664 265.676 188.23 252.4 171.762 252.467C155.295 252.533 142.029 265.916 142.134 282.359Z" fill="#740B99"/>
<path opacity="0.4" fill-rule="evenodd" clip-rule="evenodd" d="M150.202 282.333C150.278 294.328 160.078 304.013 172.091 303.965C184.105 303.916 193.782 294.153 193.706 282.158C193.63 270.163 183.829 260.478 171.816 260.526C159.803 260.575 150.126 270.338 150.202 282.333Z" fill="#740B99"/>
<path fill-rule="evenodd" clip-rule="evenodd" d="M159.253 282.279C159.298 289.287 165.024 294.945 172.042 294.917C179.061 294.889 184.715 289.185 184.67 282.176C184.626 275.168 178.9 269.51 171.881 269.538C164.863 269.566 159.209 275.271 159.253 282.279Z" fill="#740B99"/>
<path opacity="0.2" fill-rule="evenodd" clip-rule="evenodd" d="M64.5165 269.306C77.0069 269.227 87.0868 259.052 87.0305 246.58C86.9743 234.107 76.8031 224.061 64.3127 224.14C51.8223 224.219 41.7424 234.393 41.7987 246.866C41.855 259.338 52.0261 269.385 64.5165 269.306Z" fill="#740B99"/>
<path opacity="0.4" fill-rule="evenodd" clip-rule="evenodd" d="M64.4939 263.194C73.606 263.137 80.9595 255.714 80.9186 246.616C80.8776 237.517 73.4576 230.188 64.3456 230.245C55.2335 230.303 47.8799 237.725 47.9208 246.824C47.9618 255.923 55.3818 263.252 64.4939 263.194Z" fill="#740B99"/>
<path fill-rule="evenodd" clip-rule="evenodd" d="M64.45 256.341C69.7738 256.308 74.0701 251.971 74.0462 246.655C74.0222 241.339 69.6871 237.056 64.3634 237.09C59.0396 237.124 54.7433 241.46 54.7672 246.777C54.7911 252.093 59.1263 256.375 64.45 256.341Z" fill="#740B99"/>
<path opacity="0.2" fill-rule="evenodd" clip-rule="evenodd" d="M108.528 156.748C108.689 182.273 129.544 202.883 155.107 202.78C180.671 202.677 201.264 181.902 201.103 156.376C200.941 130.851 180.087 110.242 154.523 110.345C128.959 110.447 108.366 131.223 108.528 156.748Z" fill="#740B99"/>
<path opacity="0.4" fill-rule="evenodd" clip-rule="evenodd" d="M121.055 156.707C121.173 175.328 136.386 190.362 155.035 190.287C173.684 190.212 188.707 175.056 188.589 156.435C188.471 137.814 173.257 122.78 154.608 122.855C135.959 122.93 120.937 138.086 121.055 156.707Z" fill="#740B99"/>
<path fill-rule="evenodd" clip-rule="evenodd" d="M135.098 156.627C135.167 167.507 144.056 176.292 154.953 176.248C165.85 176.204 174.627 167.349 174.558 156.468C174.489 145.588 165.6 136.803 154.703 136.847C143.807 136.891 135.029 145.747 135.098 156.627Z" fill="#740B99"/>
<path opacity="0.2" fill-rule="evenodd" clip-rule="evenodd" d="M143.353 156.606C143.393 162.928 148.559 168.033 154.891 168.008C161.223 167.982 166.324 162.836 166.283 156.514C166.243 150.191 161.078 145.086 154.746 145.112C148.414 145.137 143.313 150.283 143.353 156.606Z" fill="#FBB640"/>
<path opacity="0.4" fill-rule="evenodd" clip-rule="evenodd" d="M146.452 156.598C146.482 161.211 150.25 164.934 154.87 164.916C159.489 164.897 163.21 161.143 163.181 156.531C163.152 151.918 159.383 148.194 154.764 148.213C150.144 148.232 146.423 151.986 146.452 156.598Z" fill="#FBB640"/>
<path fill-rule="evenodd" clip-rule="evenodd" d="M149.93 156.579C149.947 159.275 152.15 161.451 154.849 161.44C157.549 161.429 159.724 159.235 159.707 156.539C159.69 153.844 157.487 151.667 154.788 151.678C152.088 151.689 149.913 153.883 149.93 156.579Z" fill="#FBB640"/>
<path opacity="0.2" fill-rule="evenodd" clip-rule="evenodd" d="M27.0107 157.075C27.4572 227.554 85.0399 284.458 155.625 284.174C226.211 283.89 283.069 226.525 282.623 156.046C282.176 85.5663 224.593 28.662 154.008 28.9463C83.4229 29.2305 26.5641 86.5956 27.0107 157.075Z" stroke="#740B99" stroke-width="1.03825"/>
<path opacity="0.2" fill-rule="evenodd" clip-rule="evenodd" d="M64.056 156.926C64.3731 206.976 105.265 247.386 155.391 247.184C205.516 246.982 245.894 206.245 245.577 156.195C245.26 106.144 204.368 65.7342 154.242 65.936C104.117 66.1378 63.7389 106.875 64.056 156.926Z" stroke="#740B99" stroke-width="1.03825"/>
<path opacity="0.2" fill-rule="evenodd" clip-rule="evenodd" d="M89.4101 156.823C89.6386 192.891 119.107 222.013 155.23 221.867C191.353 221.722 220.451 192.365 220.223 156.296C219.994 120.228 190.525 91.1067 154.403 91.2521C118.28 91.3976 89.1816 120.755 89.4101 156.823Z" stroke="#740B99" stroke-width="1.03825"/>
<path opacity="0.2" fill-rule="evenodd" clip-rule="evenodd" d="M49.7709 66.4369C49.8219 74.5009 56.4101 81.0119 64.4862 80.9794C72.5623 80.947 79.0679 74.3835 79.0169 66.3194C78.9659 58.2553 72.3776 51.7443 64.3015 51.7768C56.2255 51.8092 49.7199 58.3728 49.7709 66.4369Z" fill="#740B99"/>
<path opacity="0.4" fill-rule="evenodd" clip-rule="evenodd" d="M53.7277 66.4247C53.7649 72.3073 58.571 77.0569 64.4623 77.0331C70.3536 77.0093 75.0993 72.2213 75.0621 66.3387C75.0248 60.4561 70.2188 55.7065 64.3275 55.7303C58.4361 55.754 53.6905 60.5421 53.7277 66.4247Z" fill="#740B99"/>
<path fill-rule="evenodd" clip-rule="evenodd" d="M58.1627 66.4013C58.1844 69.8387 60.993 72.614 64.4358 72.6001C67.8786 72.5862 70.6519 69.7883 70.6302 66.3509C70.6084 62.9135 67.7999 60.1382 64.3571 60.1521C60.9143 60.166 58.1409 62.9639 58.1627 66.4013Z" fill="#740B99"/>
<path opacity="0.2" fill-rule="evenodd" clip-rule="evenodd" d="M225.26 246.78C225.33 257.776 234.314 266.654 245.326 266.61C256.338 266.565 265.209 257.616 265.139 246.62C265.07 235.624 256.086 226.746 245.074 226.79C234.061 226.835 225.191 235.784 225.26 246.78Z" fill="#740B99"/>
<path opacity="0.4" fill-rule="evenodd" clip-rule="evenodd" d="M230.655 246.764C230.706 254.786 237.259 261.262 245.293 261.23C253.327 261.197 259.798 254.668 259.747 246.647C259.696 238.625 253.142 232.149 245.109 232.181C237.075 232.214 230.604 238.743 230.655 246.764Z" fill="#740B99"/>
<path fill-rule="evenodd" clip-rule="evenodd" d="M236.705 246.73C236.735 251.416 240.565 255.2 245.259 255.181C249.953 255.163 253.734 251.348 253.704 246.661C253.674 241.974 249.845 238.19 245.151 238.209C240.457 238.228 236.676 242.043 236.705 246.73Z" fill="#740B99"/>
</svg>
