<svg width="300" height="300" viewBox="0 0 300 300" fill="none" xmlns="http://www.w3.org/2000/svg">
<g opacity="0.1">
<path opacity="0.2" fill-rule="evenodd" clip-rule="evenodd" d="M150 300C232.843 300 300 232.843 300 150C300 67.1573 232.843 0 150 0C67.1573 0 0 67.1573 0 150C0 232.843 67.1573 300 150 300Z" fill="#740B99"/>
<path opacity="0.4" fill-rule="evenodd" clip-rule="evenodd" d="M150.005 259.431C210.439 259.431 259.431 210.439 259.431 150.004C259.431 89.5699 210.439 40.5781 150.005 40.5781C89.5704 40.5781 40.5786 89.5699 40.5786 150.004C40.5786 210.439 89.5704 259.431 150.005 259.431Z" fill="#740B99"/>
<path fill-rule="evenodd" clip-rule="evenodd" d="M149.997 213.949C185.307 213.949 213.932 185.325 213.932 150.015C213.932 114.705 185.307 86.0806 149.997 86.0806C114.687 86.0806 86.063 114.705 86.063 150.015C86.063 185.325 114.687 213.949 149.997 213.949Z" fill="#740B99"/>
</g>
<path opacity="0.2" fill-rule="evenodd" clip-rule="evenodd" d="M150 270.896C216.769 270.896 270.896 216.769 270.896 150C270.896 83.2313 216.769 29.1045 150 29.1045C83.2313 29.1045 29.1045 83.2313 29.1045 150C29.1045 216.769 83.2313 270.896 150 270.896Z" fill="#740B99"/>
<path opacity="0.4" fill-rule="evenodd" clip-rule="evenodd" d="M150.001 238.198C198.71 238.198 238.196 198.712 238.196 150.004C238.196 101.295 198.71 61.8093 150.001 61.8093C101.293 61.8093 61.8071 101.295 61.8071 150.004C61.8071 198.712 101.293 238.198 150.001 238.198Z" fill="#740B99"/>
<path fill-rule="evenodd" clip-rule="evenodd" d="M149.999 201.539C178.458 201.539 201.528 178.469 201.528 150.01C201.528 121.551 178.458 98.4807 149.999 98.4807C121.54 98.4807 98.4697 121.551 98.4697 150.01C98.4697 178.469 121.54 201.539 149.999 201.539Z" fill="#740B99"/>
<path opacity="0.2" fill-rule="evenodd" clip-rule="evenodd" d="M150.002 173.336C162.888 173.336 173.335 162.89 173.335 150.003C173.335 137.116 162.888 126.67 150.002 126.67C137.115 126.67 126.668 137.116 126.668 150.003C126.668 162.89 137.115 173.336 150.002 173.336Z" fill="#FBB640"/>
<path opacity="0.4" fill-rule="evenodd" clip-rule="evenodd" d="M149.996 167.02C159.397 167.02 167.018 159.399 167.018 149.998C167.018 140.598 159.397 132.977 149.996 132.977C140.596 132.977 132.975 140.598 132.975 149.998C132.975 159.399 140.596 167.02 149.996 167.02Z" fill="#FBB640"/>
<path fill-rule="evenodd" clip-rule="evenodd" d="M150.002 159.952C155.495 159.952 159.948 155.499 159.948 150.006C159.948 144.513 155.495 140.061 150.002 140.061C144.51 140.061 140.057 144.513 140.057 150.006C140.057 155.499 144.51 159.952 150.002 159.952Z" fill="#FBB640"/>
</svg>
