<svg width="1440" height="672" viewBox="0 0 1440 672" fill="none" xmlns="http://www.w3.org/2000/svg">
<g filter="url(#filter0_d)">
<path fill-rule="evenodd" clip-rule="evenodd" d="M0 13H1440V568.266C1440 568.266 1310.5 645 727 645C143.5 645 0 568.266 0 568.266V13Z" fill="url(#paint0_linear)"/>
</g>
<mask id="mask0" mask-type="alpha" maskUnits="userSpaceOnUse" x="0" y="13" width="1440" height="632">
<path fill-rule="evenodd" clip-rule="evenodd" d="M0 13H1440V568.266C1440 568.266 1310.5 645 727 645C143.5 645 0 568.266 0 568.266V13Z" fill="url(#paint1_linear)"/>
</mask>
<g mask="url(#mask0)">
<g opacity="0.5" filter="url(#filter1_f)">
<path opacity="0.2" fill-rule="evenodd" clip-rule="evenodd" d="M1106.66 -1486.69C420.416 -1486.69 -136.487 -930.446 -137.221 -244.278C-137.956 441.889 417.757 998.138 1104 998.138C1790.24 998.138 2347.14 441.889 2347.88 -244.278C2348.61 -930.446 1792.9 -1486.69 1106.66 -1486.69Z" fill="url(#paint2_linear)"/>
<path opacity="0.4" fill-rule="evenodd" clip-rule="evenodd" d="M1106.03 -1150.5C605.413 -1150.5 199.147 -744.709 198.612 -244.144C198.076 256.421 603.473 662.209 1104.09 662.209C1604.71 662.209 2010.97 256.421 2011.51 -244.144C2012.05 -744.709 1606.65 -1150.5 1106.03 -1150.5Z" fill="url(#paint3_linear)"/>
<path fill-rule="evenodd" clip-rule="evenodd" d="M1106.3 -773.373C813.804 -773.373 576.435 -536.283 576.122 -243.818C575.809 48.6465 812.67 285.736 1105.17 285.736C1397.66 285.736 1635.03 48.6466 1635.34 -243.818C1635.66 -536.283 1398.8 -773.373 1106.3 -773.373Z" fill="url(#paint4_linear)"/>
</g>
<g style="mix-blend-mode:hard-light" opacity="0.4">
<path d="M682.041 56.0843C593.949 62.9618 506.975 92.6952 433.976 141.275C194.782 299.907 129.56 622.712 288.197 861.431C370.954 985.894 497.205 1065.98 646.751 1089.28C678.481 1094.16 757.92 1094.6 787.427 1090.38C812.059 1086.61 857.764 1076.85 859.988 1074.63C860.875 1073.75 854.446 1054.22 845.563 1031.15C826.703 982.553 832.913 986.77 792.98 994.315C743.945 1003.4 687.364 1002.75 635.887 992.092C489.002 962.151 367.855 856.109 318.371 714.112C247.596 511.335 341.01 285.703 534.488 191.422C784.327 69.6204 1083.2 216.939 1139.11 489.378C1148.44 535.528 1150.21 591.435 1143.33 634.911C1141.99 643.782 1141.78 651.996 1142.88 652.883C1143.77 653.989 1163.52 660.429 1186.37 667.525C1218.77 677.513 1228.53 679.725 1229.87 677.513C1232.31 673.746 1235.86 651.558 1239.19 620.719C1242.3 591.435 1240.53 530.643 1235.64 498.698C1205.02 299.688 1068.34 139.732 876.636 78.5025C818.269 59.8515 743.726 51.1997 682.041 56.0843Z" fill="#FBB640"/>
<path d="M669.224 247.765C598.668 259.527 537.202 291.023 487.28 341.17C440.687 387.539 410.064 444.552 395.87 510.896C389.66 539.742 390.328 612.952 396.757 641.799C411.85 709.237 438.913 758.716 487.28 807.308C550.739 870.98 628.842 904.042 718.04 904.48C747.546 904.48 783.711 900.932 789.933 897.153C791.926 895.817 788.608 884.735 776.626 853.446C767.973 830.371 759.989 810.845 759.321 809.958C758.434 809.071 749.332 809.289 739.136 810.407C715.171 813.287 681.448 809.958 655.929 802.642C553.642 772.909 483.973 680.84 483.973 575.236C483.973 510.458 506.163 456.095 551.2 409.508C597.135 362.033 654.823 337.853 721.381 337.853C842.309 337.853 944.146 429.702 956.358 550.168C957.695 562.149 958.133 577.459 957.246 584.337C956.139 595.43 956.577 597.204 960.126 598.092C962.568 598.76 982.754 604.969 1004.94 611.847C1027.35 618.724 1046.21 624.046 1046.66 623.609C1049.1 620.947 1052.2 573.692 1050.88 556.389C1044.44 469.861 1012.94 400.199 953.478 341.182C905.112 293.258 855.19 265.748 789.069 250.887C763.296 245.104 695.62 243.33 669.224 247.765Z" fill="#FBB640"/>
<path d="M686.528 437.675C658.796 444.99 642.378 454.54 621.513 475.392C600.21 496.692 590.889 512.89 583.792 541.287C567.374 605.408 599.772 673.514 660.34 701.911C678.094 710.344 698.948 715.448 712.036 714.561L722.912 713.892L698.51 650.659C683.198 610.718 673.658 583.439 673.209 576.331C671.216 553.256 691.401 529.744 715.585 527.083C723.799 525.977 737.337 529.525 792.363 546.39C828.977 557.703 859.808 566.355 860.476 565.467C863.357 562.587 854.485 527.751 846.501 511.335C834.519 487.154 806.787 459.195 783.042 447.882C752.199 433.24 717.589 429.473 686.528 437.675Z" fill="#FBB640"/>
<path d="M723.363 580.328C724.469 582.989 776.177 717.44 838.519 879.171C900.642 1040.9 953.006 1176.46 954.561 1180.23C957.672 1187.55 958.329 1185.55 1016.47 1034.69L1075.04 881.613L1203.28 823.483C1273.84 791.319 1330.87 764.466 1329.97 763.578C1328.87 762.691 1192.85 720.539 1027.55 669.736C862.241 618.932 725.794 576.78 724.239 576.331C722.246 575.674 722.027 576.78 723.363 580.328Z" fill="#FBB640"/>
<path opacity="0.2" fill-rule="evenodd" clip-rule="evenodd" d="M1447.31 267.091C1430.88 267.091 1417.56 280.404 1417.54 296.826C1417.52 313.249 1430.82 326.562 1447.24 326.562C1463.67 326.562 1477 313.249 1477.02 296.826C1477.03 280.404 1463.73 267.091 1447.31 267.091Z" fill="#FBB640"/>
<path opacity="0.4" fill-rule="evenodd" clip-rule="evenodd" d="M1447.29 275.133C1435.31 275.133 1425.59 284.846 1425.58 296.827C1425.56 308.809 1435.27 318.522 1447.25 318.522C1459.23 318.522 1468.95 308.809 1468.97 296.827C1468.98 284.846 1459.28 275.133 1447.29 275.133Z" fill="#FBB640"/>
<path fill-rule="evenodd" clip-rule="evenodd" d="M1447.3 284.159C1440.3 284.159 1434.62 289.834 1434.61 296.835C1434.6 303.835 1440.27 309.51 1447.27 309.51C1454.27 309.51 1459.95 303.835 1459.96 296.835C1459.97 289.834 1454.3 284.159 1447.3 284.159Z" fill="#FBB640"/>
<g opacity="0.6">
<path opacity="0.2" fill-rule="evenodd" clip-rule="evenodd" d="M370.285 -181.493C316.146 -181.493 272.211 -137.61 272.153 -83.4772C272.095 -29.3443 315.937 14.539 370.075 14.5391C424.214 14.5391 468.149 -29.3443 468.207 -83.4772C468.265 -137.61 424.424 -181.493 370.285 -181.493Z" fill="#FBB640"/>
</g>
<path opacity="0.2" fill-rule="evenodd" clip-rule="evenodd" d="M22.2351 369.16C-31.9035 369.16 -75.8385 413.044 -75.8964 467.177C-75.9543 521.31 -32.1133 565.193 22.0253 565.193C76.164 565.193 120.099 521.31 120.157 467.177C120.215 413.044 76.3738 369.16 22.2351 369.16Z" fill="#FBB640"/>
<path opacity="0.4" fill-rule="evenodd" clip-rule="evenodd" d="M22.1869 395.682C-17.3076 395.682 -49.3586 427.695 -49.4008 467.185C-49.4431 506.676 -17.4607 538.689 22.0339 538.689C61.5285 538.689 93.5794 506.676 93.6217 467.185C93.6639 427.695 61.6815 395.682 22.1869 395.682Z" fill="#FBB640"/>
<path fill-rule="evenodd" clip-rule="evenodd" d="M22.2077 425.435C-0.867796 425.435 -19.5942 444.14 -19.6189 467.213C-19.6436 490.286 -0.957214 508.99 22.1183 508.99C45.1938 508.99 63.9202 490.286 63.9449 467.213C63.9695 444.14 45.2832 425.435 22.2077 425.435Z" fill="#FBB640"/>
<g opacity="0.5">
<path opacity="0.2" fill-rule="evenodd" clip-rule="evenodd" d="M180.664 144.006C165.456 144.006 153.115 156.332 153.099 171.538C153.083 186.744 165.397 199.071 180.605 199.071C195.812 199.071 208.154 186.744 208.17 171.538C208.186 156.332 195.871 144.006 180.664 144.006Z" fill="#FBB640"/>
<path opacity="0.4" fill-rule="evenodd" clip-rule="evenodd" d="M180.65 151.451C169.557 151.451 160.553 160.445 160.542 171.539C160.53 182.633 169.514 191.626 180.607 191.626C191.701 191.626 200.704 182.633 200.716 171.539C200.728 160.445 191.744 151.451 180.65 151.451Z" fill="#FBB640"/>
<path fill-rule="evenodd" clip-rule="evenodd" d="M180.657 159.809C174.175 159.809 168.915 165.064 168.908 171.546C168.901 178.028 174.15 183.282 180.632 183.282C187.114 183.282 192.374 178.028 192.381 171.546C192.388 165.064 187.139 159.809 180.657 159.809Z" fill="#FBB640"/>
</g>
<g opacity="0.5">
<path opacity="0.2" fill-rule="evenodd" clip-rule="evenodd" d="M1289.6 345.749C1274.4 345.749 1262.06 358.076 1262.04 373.282C1262.02 388.488 1274.34 400.814 1289.55 400.814C1304.75 400.814 1317.09 388.488 1317.11 373.282C1317.13 358.076 1304.81 345.749 1289.6 345.749Z" fill="#FBB640"/>
<path opacity="0.4" fill-rule="evenodd" clip-rule="evenodd" d="M1289.59 353.195C1278.5 353.195 1269.49 362.188 1269.48 373.282C1269.47 384.376 1278.45 393.37 1289.55 393.37C1300.64 393.37 1309.64 384.376 1309.66 373.282C1309.67 362.188 1300.68 353.195 1289.59 353.195Z" fill="#FBB640"/>
<path fill-rule="evenodd" clip-rule="evenodd" d="M1289.6 361.553C1283.12 361.553 1277.86 366.808 1277.85 373.289C1277.84 379.771 1283.09 385.026 1289.57 385.026C1296.05 385.026 1301.31 379.771 1301.32 373.289C1301.33 366.808 1296.08 361.553 1289.6 361.553Z" fill="#FBB640"/>
</g>
<g opacity="0.5">
<path opacity="0.2" fill-rule="evenodd" clip-rule="evenodd" d="M1344.58 261.525C1337.17 261.525 1331.15 267.535 1331.15 274.948C1331.14 282.361 1337.14 288.37 1344.56 288.37C1351.97 288.37 1357.99 282.361 1357.99 274.948C1358 267.535 1352 261.525 1344.58 261.525Z" fill="#FBB640"/>
<path opacity="0.4" fill-rule="evenodd" clip-rule="evenodd" d="M1344.58 265.155C1339.17 265.155 1334.78 269.539 1334.77 274.948C1334.77 280.356 1339.15 284.741 1344.56 284.741C1349.96 284.741 1354.35 280.356 1354.36 274.948C1354.37 269.539 1349.99 265.155 1344.58 265.155Z" fill="#FBB640"/>
<path fill-rule="evenodd" clip-rule="evenodd" d="M1344.58 269.23C1341.42 269.23 1338.86 271.791 1338.85 274.951C1338.85 278.111 1341.41 280.673 1344.57 280.673C1347.73 280.673 1350.29 278.111 1350.3 274.951C1350.3 271.791 1347.74 269.23 1344.58 269.23Z" fill="#FBB640"/>
</g>
<g opacity="0.5">
<path opacity="0.2" fill-rule="evenodd" clip-rule="evenodd" d="M281.457 158.415C274.044 158.415 268.027 164.425 268.019 171.838C268.011 179.251 274.015 185.26 281.429 185.26C288.842 185.26 294.859 179.251 294.867 171.838C294.875 164.425 288.871 158.415 281.457 158.415Z" fill="#FBB640"/>
<path opacity="0.4" fill-rule="evenodd" clip-rule="evenodd" d="M281.451 162.045C276.042 162.045 271.653 166.43 271.647 171.838C271.642 177.246 276.021 181.631 281.43 181.631C286.838 181.631 291.227 177.246 291.233 171.838C291.239 166.43 286.859 162.045 281.451 162.045Z" fill="#FBB640"/>
<path fill-rule="evenodd" clip-rule="evenodd" d="M281.454 166.12C278.294 166.12 275.73 168.681 275.726 171.841C275.723 175.001 278.282 177.563 281.442 177.563C284.602 177.563 287.166 175.001 287.17 171.841C287.173 168.681 284.614 166.12 281.454 166.12Z" fill="#FBB640"/>
</g>
<g opacity="0.5">
<path opacity="0.2" fill-rule="evenodd" clip-rule="evenodd" d="M1430.18 85.3847C1399.23 85.3847 1374.11 110.471 1374.08 141.417C1374.05 172.363 1399.11 197.45 1430.06 197.45C1461.01 197.45 1486.12 172.363 1486.16 141.417C1486.19 110.471 1461.13 85.3847 1430.18 85.3847Z" fill="#FBB640"/>
<path opacity="0.4" fill-rule="evenodd" clip-rule="evenodd" d="M1430.15 100.537C1407.57 100.537 1389.25 118.84 1389.23 141.418C1389.2 163.996 1407.49 182.298 1430.06 182.298C1452.64 182.298 1470.96 163.996 1470.99 141.418C1471.01 118.84 1452.73 100.537 1430.15 100.537Z" fill="#FBB640"/>
<path fill-rule="evenodd" clip-rule="evenodd" d="M1430.16 117.547C1416.97 117.547 1406.27 128.241 1406.25 141.433C1406.24 154.624 1416.92 165.318 1430.11 165.318C1443.31 165.318 1454.01 154.624 1454.02 141.433C1454.04 128.241 1443.36 117.547 1430.16 117.547Z" fill="#FBB640"/>
</g>
<g opacity="0.5">
<path opacity="0.2" fill-rule="evenodd" clip-rule="evenodd" d="M345.161 -28.9806C303.685 -28.9806 270.027 4.6384 269.982 46.1095C269.938 87.5807 303.525 121.2 345 121.2C386.476 121.2 420.134 87.5807 420.179 46.1096C420.223 4.63841 386.637 -28.9806 345.161 -28.9806Z" fill="#FBB640"/>
<path opacity="0.4" fill-rule="evenodd" clip-rule="evenodd" d="M345.124 -8.67382C314.868 -8.67382 290.313 15.8541 290.281 46.1108C290.249 76.3676 314.75 100.896 345.007 100.896C375.264 100.896 399.818 76.3676 399.85 46.1108C399.883 15.8541 375.381 -8.67382 345.124 -8.67382Z" fill="#FBB640"/>
<path fill-rule="evenodd" clip-rule="evenodd" d="M345.143 14.1211C327.465 14.1211 313.119 28.452 313.1 46.1301C313.081 63.8082 327.396 78.1392 345.074 78.1392C362.753 78.1392 377.099 63.8082 377.118 46.1301C377.137 28.452 362.821 14.1211 345.143 14.1211Z" fill="#FBB640"/>
</g>
<path opacity="0.2" fill-rule="evenodd" clip-rule="evenodd" d="M1190.42 -13.3195C1139.92 -13.3195 1098.93 27.6192 1098.88 78.1196C1098.82 128.62 1139.72 169.559 1190.23 169.559C1240.73 169.559 1281.72 128.62 1281.78 78.1196C1281.83 27.6192 1240.93 -13.3195 1190.42 -13.3195Z" fill="#FBB640"/>
<path opacity="0.4" fill-rule="evenodd" clip-rule="evenodd" d="M1190.38 11.4239C1153.53 11.4239 1123.63 41.289 1123.59 78.1294C1123.55 114.97 1153.39 144.835 1190.24 144.835C1227.08 144.835 1256.98 114.97 1257.02 78.1294C1257.06 41.289 1227.22 11.4239 1190.38 11.4239Z" fill="#FBB640"/>
<path fill-rule="evenodd" clip-rule="evenodd" d="M1190.4 39.1794C1168.87 39.1794 1151.4 56.6286 1151.38 78.1534C1151.36 99.6782 1168.79 117.127 1190.31 117.127C1211.84 117.127 1229.31 99.6782 1229.33 78.1534C1229.36 56.6287 1211.93 39.1794 1190.4 39.1794Z" fill="#FBB640"/>
<g opacity="0.8">
<path opacity="0.2" fill-rule="evenodd" clip-rule="evenodd" d="M1405.54 470.239C1370.86 470.239 1342.73 498.344 1342.69 533.013C1342.65 567.683 1370.73 595.788 1405.4 595.788C1440.08 595.788 1468.21 567.683 1468.25 533.013C1468.29 498.344 1440.21 470.239 1405.54 470.239Z" fill="#FBB640"/>
<path opacity="0.4" fill-rule="evenodd" clip-rule="evenodd" d="M1405.51 487.225C1380.21 487.225 1359.68 507.728 1359.66 533.019C1359.63 558.311 1380.11 578.813 1405.41 578.813C1430.7 578.813 1451.23 558.311 1451.26 533.019C1451.28 507.728 1430.8 487.225 1405.51 487.225Z" fill="#FBB640"/>
<path fill-rule="evenodd" clip-rule="evenodd" d="M1405.52 506.274C1390.74 506.274 1378.75 518.253 1378.73 533.03C1378.72 547.807 1390.68 559.787 1405.46 559.787C1420.24 559.787 1432.23 547.807 1432.25 533.03C1432.27 518.253 1420.3 506.274 1405.52 506.274Z" fill="#FBB640"/>
</g>
</g>
</g>
<defs>
<filter id="filter0_d" x="-20" y="0" width="1480" height="672" filterUnits="userSpaceOnUse" color-interpolation-filters="sRGB">
<feFlood flood-opacity="0" result="BackgroundImageFix"/>
<feColorMatrix in="SourceAlpha" type="matrix" values="0 0 0 0 0 0 0 0 0 0 0 0 0 0 0 0 0 0 127 0"/>
<feOffset dy="7"/>
<feGaussianBlur stdDeviation="10"/>
<feColorMatrix type="matrix" values="0 0 0 0 0 0 0 0 0 0 0 0 0 0 0 0 0 0 0.1 0"/>
<feBlend mode="normal" in2="BackgroundImageFix" result="effect1_dropShadow"/>
<feBlend mode="normal" in="SourceGraphic" in2="effect1_dropShadow" result="shape"/>
</filter>
<filter id="filter1_f" x="-574.999" y="-1922.69" width="3359.75" height="3503.53" filterUnits="userSpaceOnUse" color-interpolation-filters="sRGB">
<feFlood flood-opacity="0" result="BackgroundImageFix"/>
<feBlend mode="normal" in="SourceGraphic" in2="BackgroundImageFix" result="shape"/>
<feGaussianBlur stdDeviation="218" result="effect1_foregroundBlur"/>
</filter>
<linearGradient id="paint0_linear" x1="-969" y1="-822" x2="-88.783" y2="1658.18" gradientUnits="userSpaceOnUse">
<stop stop-color="#0037F8"/>
<stop offset="0.447783" stop-color="#8112A8"/>
<stop offset="1" stop-color="#1F0B99"/>
</linearGradient>
<linearGradient id="paint1_linear" x1="-179.5" y1="503" x2="1053.21" y2="1285.55" gradientUnits="userSpaceOnUse">
<stop stop-color="#8B00F8"/>
<stop offset="0.489583" stop-color="#473579"/>
<stop offset="0.96875" stop-color="#5B3579"/>
</linearGradient>
<linearGradient id="paint2_linear" x1="-1676.61" y1="-1109.9" x2="4536.17" y2="759.905" gradientUnits="userSpaceOnUse">
<stop stop-color="#6CF6DA"/>
<stop offset="1" stop-color="#176DA0"/>
</linearGradient>
<linearGradient id="paint3_linear" x1="-924.383" y1="-875.62" x2="3607.89" y2="488.416" gradientUnits="userSpaceOnUse">
<stop stop-color="#6CF6DA"/>
<stop offset="1" stop-color="#176DA0"/>
</linearGradient>
<linearGradient id="paint4_linear" x1="-80.0101" y1="-612.771" x2="2568.06" y2="184.195" gradientUnits="userSpaceOnUse">
<stop stop-color="#6CF6DA"/>
<stop offset="1" stop-color="#176DA0"/>
</linearGradient>
</defs>
</svg>
