<svg width="311" height="109" viewBox="0 0 311 109" fill="none" xmlns="http://www.w3.org/2000/svg">
<path opacity="0.05" d="M0.334324 1.99999H48.0343C59.4343 1.99999 69.4843 4.19999 78.1843 8.6C86.9843 12.9 93.7843 19 98.5843 26.9C103.484 34.8 105.934 44 105.934 54.5C105.934 65 103.484 74.2 98.5843 82.1C93.7843 90 86.9843 96.15 78.1843 100.55C69.4843 104.85 59.4343 107 48.0343 107H0.334324V1.99999ZM46.8343 87.05C57.3343 87.05 65.6843 84.15 71.8843 78.35C78.1843 72.45 81.3343 64.5 81.3343 54.5C81.3343 44.5 78.1843 36.6 71.8843 30.8C65.6843 24.9 57.3343 21.95 46.8343 21.95H24.6343V87.05H46.8343ZM158.76 108.8C150.46 108.8 142.41 107.7 134.61 105.5C126.91 103.2 120.71 100.25 116.01 96.65L124.26 78.35C128.76 81.65 134.11 84.3 140.31 86.3C146.51 88.3 152.71 89.3 158.91 89.3C165.81 89.3 170.91 88.3 174.21 86.3C177.51 84.2 179.16 81.45 179.16 78.05C179.16 75.55 178.16 73.5 176.16 71.9C174.26 70.2 171.76 68.85 168.66 67.85C165.66 66.85 161.56 65.75 156.36 64.55C148.36 62.65 141.81 60.75 136.71 58.85C131.61 56.95 127.21 53.9 123.51 49.7C119.91 45.5 118.11 39.9 118.11 32.9C118.11 26.8 119.76 21.3 123.06 16.4C126.36 11.4 131.31 7.44999 137.91 4.55C144.61 1.65 152.76 0.199998 162.36 0.199998C169.06 0.199998 175.61 0.999997 182.01 2.59999C188.41 4.2 194.01 6.5 198.81 9.49999L191.31 27.95C181.61 22.45 171.91 19.7 162.21 19.7C155.41 19.7 150.36 20.8 147.06 23C143.86 25.2 142.26 28.1 142.26 31.7C142.26 35.3 144.11 38 147.81 39.8C151.61 41.5 157.36 43.2 165.06 44.9C173.06 46.8 179.61 48.7 184.71 50.6C189.81 52.5 194.16 55.5 197.76 59.6C201.46 63.7 203.31 69.25 203.31 76.25C203.31 82.25 201.61 87.75 198.21 92.75C194.91 97.65 189.91 101.55 183.21 104.45C176.51 107.35 168.36 108.8 158.76 108.8ZM265.364 1.99999C274.664 1.99999 282.714 3.54999 289.514 6.65C296.414 9.75 301.714 14.15 305.414 19.85C309.114 25.55 310.964 32.3 310.964 40.1C310.964 47.8 309.114 54.55 305.414 60.35C301.714 66.05 296.414 70.45 289.514 73.55C282.714 76.55 274.664 78.05 265.364 78.05H244.214V107H219.914V1.99999H265.364ZM264.014 58.25C271.314 58.25 276.864 56.7 280.664 53.6C284.464 50.4 286.364 45.9 286.364 40.1C286.364 34.2 284.464 29.7 280.664 26.6C276.864 23.4 271.314 21.8 264.014 21.8H244.214V58.25H264.014Z" fill="white"/>
</svg>
