<svg width="120" height="121" viewBox="0 0 120 121" fill="none" xmlns="http://www.w3.org/2000/svg">
<path fill-rule="evenodd" clip-rule="evenodd" d="M13.1429 38.1775C13.774 38.1775 14.2857 38.6892 14.2857 39.3204V47.3314C14.2857 51.5311 16.1031 55.4381 19.3122 58.089L19.3194 58.095L49.5498 83.4886C49.5539 83.4921 49.558 83.4955 49.5621 83.4991C49.5661 83.5025 49.5701 83.506 49.574 83.5095C51.1749 84.9325 52.0737 86.9045 52.0737 89.0494V102.804C52.0737 104.743 53.527 106.196 55.4654 106.196H64.5346C66.473 106.196 67.9263 104.743 67.9263 102.804V89.0494C67.9263 86.9045 68.8251 84.9325 70.426 83.5095C70.434 83.5024 70.442 83.4954 70.4502 83.4886L100.681 58.0951L100.688 58.089C103.897 55.4381 105.714 51.5311 105.714 47.3314V39.3204C105.714 38.6892 106.226 38.1775 106.857 38.1775C107.488 38.1775 108 38.6892 108 39.3204V47.3314C108 52.1993 105.889 56.7555 102.147 59.8483L102.144 59.8512L71.9332 85.228C70.8205 86.2224 70.212 87.5716 70.212 89.0494V102.804C70.212 106.005 67.7353 108.482 64.5346 108.482H55.4654C52.2647 108.482 49.788 106.005 49.788 102.804V89.0494C49.788 87.5716 49.1795 86.2224 48.0669 85.228L17.8565 59.8512L17.8528 59.8482C14.1112 56.7555 12 52.1993 12 47.3314V39.3204C12 38.6892 12.5117 38.1775 13.1429 38.1775Z" fill="#740B99"/>
<path fill-rule="evenodd" clip-rule="evenodd" d="M15.6475 36.3565C14.8444 36.9477 14.2857 37.8825 14.2857 39.3385C14.2857 40.3258 15.1171 41.6242 17.434 43.068C19.6748 44.4645 22.9901 45.7917 27.1802 46.9373C35.5443 49.2242 47.1539 50.7234 60 50.7234C72.8461 50.7234 84.4557 49.2243 92.8198 46.9375C97.0099 45.7919 100.325 44.4647 102.566 43.0683C104.883 41.6245 105.714 40.3261 105.714 39.3388C105.714 37.9991 105.279 37.5808 104.936 37.3855C104.447 37.1079 103.742 37.0531 102.857 37.0531C102.226 37.0531 101.714 36.5414 101.714 35.9102C101.714 35.279 102.226 34.7674 102.857 34.7674C103.687 34.7674 104.982 34.7832 106.064 35.398C107.292 36.0952 108 37.3911 108 39.3388C108 41.6013 106.205 43.4937 103.775 45.0081C101.269 46.57 97.7159 47.9684 93.4226 49.1423C84.8199 51.4943 73.0009 53.0091 60 53.0091C46.9991 53.0091 35.1801 51.4942 26.5774 49.1421C22.2841 47.9683 18.7314 46.5698 16.2251 45.0079C13.7948 43.4934 12 41.601 12 39.3385C12 37.1995 12.8699 35.5629 14.2925 34.5157C15.6723 33.5 17.464 33.1147 19.238 33.1908C19.8686 33.2179 20.3578 33.7511 20.3307 34.3817C20.3037 35.0123 19.7705 35.5015 19.1399 35.4745C17.7249 35.4137 16.4936 35.7337 15.6475 36.3565Z" fill="#740B99"/>
<path fill-rule="evenodd" clip-rule="evenodd" d="M54.3229 28.4376C54.3229 27.8064 54.8345 27.2947 55.4657 27.2947H60.0003C63.6564 27.2947 69.1429 27.3386 72.5714 27.3386C73.202 27.3672 71.7513 28.1612 71.7226 28.7918C71.6939 29.4223 70.9162 29.653 70.2857 29.6243C66.8571 29.6243 63.5994 29.5804 60.0003 29.5804H55.4657C54.8345 29.5804 54.3229 29.0687 54.3229 28.4376Z" fill="#740B99"/>
<path fill-rule="evenodd" clip-rule="evenodd" d="M86.3988 12.8162C86.8326 12.3824 87.5314 12.3685 87.9821 12.7845L107.632 30.9228C107.86 31.1337 107.993 31.4287 107.999 31.7397C108.006 32.0507 107.885 32.3507 107.665 32.5707L101.619 38.6168C101.172 39.0631 100.449 39.0631 100.003 38.6168C99.5562 38.1704 99.5562 37.4468 100.003 37.0005L105.207 31.7955L87.2386 15.2089L63.1273 39.3202L68.3653 44.5581C68.8116 45.0044 68.8116 45.7281 68.3653 46.1744C67.919 46.6207 67.1954 46.6207 66.749 46.1744L60.703 40.1283C60.2567 39.682 60.2567 38.9583 60.703 38.512L86.3988 12.8162Z" fill="#740B99"/>
<path fill-rule="evenodd" clip-rule="evenodd" d="M20.412 19.3826C20.3907 19.404 20.3311 19.4766 20.3311 19.6704V39.3202C20.3311 39.9513 19.8194 40.463 19.1882 40.463C18.5571 40.463 18.0454 39.9513 18.0454 39.3202V19.6704C18.0454 18.9572 18.2881 18.2741 18.7958 17.7664C19.3035 17.2587 19.9866 17.016 20.6998 17.016H53.9532C54.6664 17.016 55.3495 17.2587 55.8572 17.7664C56.3649 18.2741 56.6076 18.9572 56.6076 19.6704V45.3662C56.6076 45.9974 56.0959 46.5091 55.4647 46.5091C54.8336 46.5091 54.3219 45.9974 54.3219 45.3662V19.6704C54.3219 19.4766 54.2623 19.404 54.2409 19.3826C54.2196 19.3613 54.147 19.3017 53.9532 19.3017H20.6998C20.506 19.3017 20.4334 19.3613 20.412 19.3826Z" fill="#740B99"/>
<path fill-rule="evenodd" clip-rule="evenodd" d="M30.6799 26.256C31.0168 26.0478 31.4375 26.0288 31.7918 26.206L45.3955 33.0078C45.7827 33.2014 46.0272 33.5971 46.0272 34.03C46.0272 34.4629 45.7827 34.8586 45.3955 35.0522L31.7918 41.8541C31.4375 42.0312 31.0168 42.0123 30.6799 41.804C30.3429 41.5958 30.1378 41.228 30.1378 40.8319V27.2282C30.1378 26.8321 30.3429 26.4642 30.6799 26.256ZM32.4235 29.0774V38.9827L42.3289 34.03L32.4235 29.0774Z" fill="#740B99"/>
<path fill-rule="evenodd" clip-rule="evenodd" d="M77.0256 34.5231C77.1166 34.1376 77.4007 33.8267 77.7764 33.7015L89.1144 29.9222C89.525 29.7853 89.9778 29.8922 90.2839 30.1982C90.59 30.5043 90.6969 30.9571 90.56 31.3678L86.7807 42.7057C86.6554 43.0815 86.3445 43.3656 85.959 43.4566C85.5735 43.5476 85.1684 43.4325 84.8883 43.1524L77.3297 35.5938C77.0496 35.3137 76.9345 34.9086 77.0256 34.5231ZM80.2535 35.2851L85.197 40.2286L87.6688 32.8134L80.2535 35.2851Z" fill="#740B99"/>
</svg>
