<svg width="120" height="120" viewBox="0 0 120 120" fill="none" xmlns="http://www.w3.org/2000/svg">
<g clip-path="url(#clip0)">
<path d="M100.817 83.0445C100.663 82.8262 100.432 82.6744 100.17 82.6195C99.909 82.5646 99.6365 82.6107 99.4077 82.7486C84.8817 92.4139 71.6378 97.1338 58.8588 97.1338C46.432 97.1338 33.5967 92.6956 19.6201 83.5658C19.3847 83.4126 19.0981 83.3592 18.8233 83.4173C18.5485 83.4754 18.308 83.6403 18.1548 83.8757C18.0016 84.1112 17.9482 84.3978 18.0063 84.6726C18.0645 84.9474 18.2294 85.1878 18.4648 85.341C32.8218 94.6963 46.0375 99.2472 58.8588 99.2472C72.0463 99.2472 85.6284 94.4145 100.507 84.4816C100.735 84.3292 100.895 84.094 100.953 83.8258C101.01 83.5576 100.962 83.2774 100.817 83.0445Z" fill="#740B99"/>
<path d="M19.0553 35.6766C19.2492 35.6763 19.4393 35.6227 19.6048 35.5216C32.8065 27.3216 46.0222 23.1653 58.8576 23.1653C71.6929 23.1653 84.81 27.2934 97.9553 35.423C98.0737 35.496 98.2054 35.5451 98.3428 35.5673C98.4801 35.5895 98.6205 35.5844 98.7559 35.5524C98.8913 35.5203 99.0191 35.4619 99.132 35.3805C99.2448 35.299 99.3405 35.1962 99.4136 35.0778C99.4867 34.9594 99.5357 34.8277 99.5579 34.6903C99.5801 34.553 99.575 34.4126 99.543 34.2772C99.5109 34.1417 99.4525 34.014 99.3711 33.9011C99.2897 33.7883 99.1868 33.6926 99.0684 33.6195C85.6272 25.2787 72.0733 21.0519 58.8576 21.0519C45.6418 21.0519 32.0879 25.2787 18.4917 33.7322C18.2942 33.8529 18.1417 34.0351 18.0578 34.2508C17.9738 34.4665 17.963 34.7038 18.0271 34.9263C18.0911 35.1487 18.2263 35.344 18.4121 35.4821C18.5979 35.6202 18.8239 35.6934 19.0553 35.6906V35.6766Z" fill="#740B99"/>
<path d="M51.8145 59.8112C51.8138 60.6328 51.9568 61.4482 52.2371 62.2205C52.338 62.4764 52.5346 62.6829 52.7853 62.7961C53.036 62.9094 53.321 62.9204 53.5797 62.8268C53.8384 62.7332 54.0504 62.5425 54.1706 62.2951C54.2909 62.0477 54.3099 61.7632 54.2237 61.5019C53.8501 60.4654 53.8344 59.3335 54.1791 58.287C54.5238 57.2404 55.2091 56.3395 56.1256 55.7279C57.0421 55.1163 58.1371 54.8292 59.2358 54.9126C60.3345 54.9959 61.3736 55.4448 62.1874 56.1877C63.0012 56.9306 63.5427 57.9246 63.7256 59.0112C63.9085 60.0977 63.7222 61.2143 63.1965 62.1826C62.6707 63.151 61.8358 63.9153 60.825 64.3538C59.8141 64.7922 58.6855 64.8794 57.6192 64.6016C57.4817 64.5562 57.3362 64.5396 57.1919 64.5528C57.0477 64.566 56.9076 64.6088 56.7806 64.6784C56.6535 64.748 56.5421 64.843 56.4533 64.9575C56.3646 65.072 56.3002 65.2035 56.2644 65.3438C56.2286 65.4842 56.222 65.6305 56.2451 65.7735C56.2682 65.9165 56.3205 66.0533 56.3986 66.1753C56.4768 66.2972 56.5792 66.4018 56.6995 66.4826C56.8198 66.5633 56.9554 66.6184 57.0979 66.6445C58.52 67.0117 60.0212 66.9252 61.3917 66.3972C62.7621 65.8692 63.9333 64.9261 64.7414 63.6998C65.5495 62.4734 65.9542 61.0252 65.8987 59.5576C65.8433 58.09 65.3305 56.6764 64.4321 55.5145C63.5338 54.3526 62.2948 53.5006 60.8884 53.0775C59.482 52.6545 57.9785 52.6815 56.5882 53.155C55.198 53.6284 53.9904 54.5245 53.1345 55.718C52.2786 56.9114 51.817 58.3426 51.8145 59.8112Z" fill="#740B99"/>
<path d="M29.3843 59.8119C29.3843 65.6448 31.1141 71.3468 34.355 76.1965C37.5959 81.0462 42.2023 84.8259 47.5915 87.0574C52.9807 89.2889 58.9107 89.8721 64.6313 88.7331C70.352 87.5941 75.6064 84.7842 79.7299 80.6587C83.8535 76.5332 86.6609 71.2775 87.7971 65.5562C88.9334 59.835 88.3474 53.9054 86.1133 48.5172C83.8792 43.1291 80.0973 38.5245 75.2461 35.2859C70.3948 32.0473 64.692 30.3202 58.8591 30.323C51.0486 30.3527 43.5667 33.4696 38.0451 38.9938C32.5235 44.518 29.4103 52.0014 29.3843 59.8119ZM86.2486 59.8119C86.2486 65.2256 84.6435 70.5179 81.636 75.0194C78.6286 79.521 74.354 83.0298 69.3526 85.1022C64.3512 87.1746 58.8476 87.7175 53.5376 86.6624C48.2277 85.6072 43.3498 83.0014 39.5207 79.1743C35.6917 75.3471 33.0833 70.4706 32.0254 65.1612C30.9675 59.8518 31.5076 54.348 33.5775 49.3455C35.6473 44.343 39.1539 40.0666 43.6539 37.0568C48.1539 34.0471 53.4453 32.4392 58.8591 32.4364C66.1221 32.4364 73.0881 35.3197 78.2264 40.4528C83.3648 45.5859 86.2553 52.5489 86.2627 59.8119H86.2486Z" fill="#740B99"/>
<path d="M65.5092 42.6789C69.3196 44.1627 72.5304 46.8681 74.639 50.3716C74.714 50.491 74.8117 50.5944 74.9266 50.676C75.0415 50.7575 75.1713 50.8157 75.3087 50.8471C75.4461 50.8785 75.5883 50.8825 75.7272 50.859C75.8661 50.8354 75.9991 50.7847 76.1184 50.7098C76.2378 50.6348 76.3412 50.5371 76.4228 50.4222C76.5043 50.3073 76.5625 50.1775 76.5939 50.0401C76.6253 49.9027 76.6293 49.7605 76.6058 49.6216C76.5822 49.4827 76.5315 49.3497 76.4566 49.2304C74.0828 45.3692 70.5026 42.3981 66.27 40.7768C66.0084 40.6759 65.7175 40.6831 65.4612 40.7967C65.2049 40.9103 65.0042 41.1211 64.9033 41.3827C64.8025 41.6442 64.8096 41.9352 64.9232 42.1915C65.0368 42.4478 65.2476 42.6484 65.5092 42.7493V42.6789Z" fill="#740B99"/>
</g>
<defs>
<clipPath id="clip0">
<rect width="83" height="78.1955" fill="white" transform="translate(18 21.0519)"/>
</clipPath>
</defs>
</svg>
