<svg width="120" height="120" viewBox="0 0 120 120" fill="none" xmlns="http://www.w3.org/2000/svg">
<path d="M62.0962 22.3192C59.7779 21.7134 57.3376 21.9557 55.3853 23.1673C53.311 24.3789 51.8468 26.1962 51.2367 28.4982C50.0166 33.1022 52.7009 37.9485 57.4596 39.2812C57.8257 39.4024 58.3137 39.5235 58.8018 39.5235L58.6798 54.1836C58.6798 54.6682 59.0458 55.1528 59.5339 55.1528C60.022 55.1528 60.388 54.7894 60.51 54.3047L60.632 39.7659C61.8522 39.6447 63.0724 39.2812 64.1705 38.6754C66.2448 37.4639 67.709 35.6465 68.3191 33.3445C68.9292 31.0425 68.6852 28.7405 67.465 26.6809C66.2448 24.3789 64.2926 22.925 62.0962 22.3192ZM66.4889 32.4964C66.0008 34.3138 64.9026 35.7677 63.1944 36.7369C61.6082 37.7062 59.6559 37.9485 57.9477 37.4639C54.2872 36.4946 52.0909 32.6176 53.067 28.9829C54.0431 25.3481 57.9477 23.1673 61.6082 24.1366C63.4384 24.6212 64.9026 25.7116 65.8788 27.4078C66.7329 28.8617 66.9769 30.6791 66.4889 32.4964Z" fill="#740B99"/>
<path d="M60.5103 57.2127C59.0461 56.9704 57.5819 57.3338 56.3617 58.1819C55.1415 59.03 54.4094 60.2416 54.0434 61.6955C53.5553 64.7244 55.5076 67.511 58.558 67.9957C58.558 67.9957 58.558 67.9957 58.68 67.9957L58.558 84.4731C58.558 84.9577 58.924 85.4423 59.4121 85.4423C59.9002 85.4423 60.2662 85.0788 60.3882 84.5942L60.5103 67.9957C62.7066 67.6322 64.5368 65.8148 65.0249 63.5128C65.2689 62.059 64.9029 60.6051 64.0488 59.3935C63.1946 58.1819 61.9745 57.455 60.5103 57.2127ZM63.1946 63.1494C62.8286 65.0879 60.9983 66.4206 58.924 66.1783C56.9718 65.8148 55.6296 63.8763 55.8736 61.9378C55.9956 60.9685 56.6057 60.1204 57.3378 59.5147C58.1919 58.9089 59.1681 58.7877 60.1442 58.9089C61.1203 59.03 61.9745 59.6358 62.5846 60.3628C63.1946 61.2109 63.4387 62.3013 63.1946 63.1494Z" fill="#740B99"/>
<path d="M41.963 67.8742L41.8409 84.4728C41.8409 84.9574 42.207 85.442 42.6951 85.442C43.1831 85.442 43.5492 85.0785 43.6712 84.5939L43.7932 67.9954C46.1115 67.7531 48.1858 65.9357 48.5519 63.5125C48.7959 62.0587 48.4299 60.6048 47.5757 59.3932C46.7216 58.1816 45.5014 57.4547 44.0372 57.0912C42.573 56.8489 41.1088 57.2124 39.8887 58.0605C38.6685 58.9086 37.9364 60.1201 37.5703 61.574C37.2043 64.4818 39.0345 67.2684 41.963 67.8742ZM39.4006 61.9375C39.5226 60.9682 40.1327 60.1201 40.8648 59.5144C41.7189 58.9086 42.6951 58.7874 43.6712 58.9086C44.6473 59.0297 45.5014 59.6355 46.1115 60.3625C46.7216 61.2106 46.8436 62.1798 46.7216 63.1491C46.3556 65.0876 44.5253 66.4203 42.451 66.178C40.4987 65.8145 39.1566 63.9972 39.4006 61.9375Z" fill="#740B99"/>
<path d="M76.9824 57.2127C75.5182 56.9704 74.054 57.3338 72.8339 58.1819C71.6137 59.03 70.8816 60.2416 70.5155 61.6955C70.0275 64.7244 71.9797 67.511 75.0302 67.9957C75.1522 67.9957 75.2742 67.9957 75.3962 67.9957L75.2742 84.4731C75.2742 84.9577 75.6402 85.4423 76.1283 85.4423C76.6164 85.4423 76.9824 85.0788 77.1045 84.5942L77.2265 67.9957C79.3008 67.511 81.009 65.8148 81.375 63.634C81.6191 62.1801 81.253 60.7262 80.3989 59.5147C79.7888 58.1819 78.4466 57.455 76.9824 57.2127ZM79.6668 63.1494C79.3008 65.0879 77.4705 66.4206 75.3962 66.1783C73.4439 65.8148 72.1018 63.8763 72.3458 61.9378C72.4678 60.9685 73.0779 60.1204 73.81 59.5147C74.6641 58.9089 75.6402 58.7877 76.6164 58.9089C77.5925 59.03 78.4466 59.6358 79.0567 60.3628C79.6668 61.2109 79.9108 62.3013 79.6668 63.1494Z" fill="#740B99"/>
<path d="M60.5098 87.6232C57.4594 87.1385 54.653 89.077 54.1649 92.106C53.6769 95.1349 55.6291 97.9215 58.6796 98.4062C59.0456 98.4062 59.2897 98.5273 59.6557 98.5273C60.7539 98.5273 61.852 98.1638 62.8281 97.5581C64.0483 96.71 64.7804 95.4984 65.1465 94.0445C65.5125 91.0156 63.5603 88.1078 60.5098 87.6232ZM63.1942 93.681C63.0722 94.6503 62.4621 95.4984 61.73 96.1042C60.8759 96.71 59.8997 96.8311 58.9236 96.71C56.9713 96.3465 55.6291 94.408 55.8732 92.4695C56.2392 90.6521 57.7034 89.4405 59.5337 89.4405C59.7777 89.4405 59.8997 89.4405 60.1438 89.4405C62.2181 89.804 63.5603 91.6213 63.1942 93.681Z" fill="#740B99"/>
<path d="M28.4195 87.6232C25.3691 87.1385 22.5627 89.077 22.0746 92.106C21.5865 95.1349 23.5388 97.9215 26.5892 98.4062C26.9553 98.4062 27.1993 98.5273 27.5654 98.5273C28.6635 98.5273 29.7617 98.1638 30.7378 97.5581C31.958 96.71 32.6901 95.4984 33.0561 94.0445C33.3002 92.5906 32.9341 91.1367 32.08 89.9251C31.1039 88.7136 29.8837 87.8655 28.4195 87.6232ZM31.1039 93.681C30.9819 94.6503 30.3718 95.4984 29.6397 96.1042C28.7855 96.71 27.8094 96.8311 26.8333 96.71C24.881 96.3465 23.5388 94.408 23.7828 92.4695C24.1489 90.6521 25.6131 89.4405 27.4434 89.4405C27.6874 89.4405 27.8094 89.4405 28.0534 89.4405C29.0296 89.5617 29.8837 90.1675 30.4938 90.8944C31.1039 91.7425 31.2259 92.7118 31.1039 93.681Z" fill="#740B99"/>
<path d="M44.5255 87.6232C41.4751 87.1385 38.6687 89.077 38.1807 92.106C37.9366 93.5599 38.3027 95.0138 39.1568 96.2253C40.0109 97.4369 41.2311 98.1638 42.6953 98.5273C43.0613 98.5273 43.3054 98.6485 43.6714 98.6485C44.7696 98.6485 45.8677 98.285 46.8439 97.6792C48.064 96.8311 48.7961 95.6195 49.1622 94.1656C49.5282 91.0156 47.454 88.1078 44.5255 87.6232ZM47.2099 93.681C47.0879 94.6503 46.4778 95.4984 45.7457 96.1042C44.8916 96.71 43.9155 96.8311 42.9393 96.71C41.9632 96.5888 41.1091 95.983 40.499 95.2561C39.8889 94.408 39.7669 93.4387 39.8889 92.4694C40.255 90.6521 41.7192 89.4405 43.5494 89.4405C43.7934 89.4405 43.9155 89.4405 44.1595 89.4405C46.1118 89.804 47.454 91.6213 47.2099 93.681Z" fill="#740B99"/>
<path d="M76.6163 87.6232C73.5658 87.1385 70.7595 89.077 70.2714 92.106C69.7833 95.1349 71.7356 97.9215 74.786 98.4062C75.1521 98.4062 75.3961 98.5273 75.7622 98.5273C76.8603 98.5273 77.9585 98.1638 78.9346 97.5581C80.1548 96.71 80.8869 95.4984 81.2529 94.0445C81.4969 92.5906 81.1309 91.1367 80.2768 89.9251C79.3006 88.7136 78.0805 87.8655 76.6163 87.6232ZM79.3006 93.681C79.1786 94.6503 78.5685 95.4984 77.8364 96.1042C76.9823 96.71 76.0062 96.8311 75.0301 96.71C73.0778 96.3465 71.7356 94.408 71.9796 92.4695C72.3457 90.6521 73.8099 89.4405 75.6401 89.4405C75.8842 89.4405 76.0062 89.4405 76.2502 89.4405C77.2264 89.5617 78.0805 90.1675 78.6906 90.8944C79.1786 91.7425 79.4227 92.7118 79.3006 93.681Z" fill="#740B99"/>
<path d="M93.9426 87.9866C91.1362 86.775 87.8417 87.9866 86.6215 90.7732C86.0115 92.106 86.0115 93.5598 86.4995 95.0137C86.9876 96.3465 88.0858 97.4369 89.4279 98.0427C90.16 98.4061 90.8921 98.5273 91.6242 98.5273C93.6985 98.5273 95.7728 97.3157 96.6269 95.2561C97.9691 92.4694 96.749 89.1982 93.9426 87.9866ZM95.0407 94.5291C94.6747 95.3772 93.9426 96.1042 92.9664 96.4676C91.9903 96.8311 91.0142 96.8311 90.16 96.3465C89.3059 95.983 88.5738 95.2561 88.2078 94.2868C87.8417 93.3175 87.8417 92.3483 88.3298 91.5002C88.9399 90.1674 90.2821 89.3193 91.7463 89.3193C92.2343 89.3193 92.7224 89.4405 93.2105 89.6828C95.0407 90.5309 95.8948 92.7118 95.0407 94.5291Z" fill="#740B99"/>
</svg>
