<svg width="120" height="120" viewBox="0 0 120 120" fill="none" xmlns="http://www.w3.org/2000/svg">
<path d="M28.0782 86.635H22.7579C20.4967 86.635 18.7676 84.9059 18.7676 82.6447V22.7904C18.7676 20.5292 20.4967 18.8001 22.7579 18.8001H97.2432C99.5044 18.8001 101.234 20.5292 101.234 22.7904V82.6447C101.234 84.9059 99.5044 86.635 97.2432 86.635H91.9228" stroke="#740B99" stroke-width="2" stroke-miterlimit="10" stroke-linecap="square" stroke-linejoin="round"/>
<path d="M27.5782 26.1156C27.5782 26.9413 26.9088 27.6107 26.083 27.6107C25.2573 27.6107 24.5879 26.9413 24.5879 26.1156C24.5879 25.2898 25.2573 24.6204 26.083 24.6204C26.9088 24.6204 27.5782 25.2898 27.5782 26.1156Z" stroke="#740B99"/>
<path d="M34.2286 26.1156C34.2286 26.9413 33.5592 27.6107 32.7334 27.6107C31.9077 27.6107 31.2383 26.9413 31.2383 26.1156C31.2383 25.2898 31.9077 24.6204 32.7334 24.6204C33.5592 24.6204 34.2286 25.2898 34.2286 26.1156Z" stroke="#740B99"/>
<path d="M40.8785 26.1156C40.8785 26.9413 40.2091 27.6107 39.3833 27.6107C38.5576 27.6107 37.8882 26.9413 37.8882 26.1156C37.8882 25.2898 38.5576 24.6204 39.3833 24.6204C40.2091 24.6204 40.8785 25.2898 40.8785 26.1156Z" stroke="#740B99"/>
<path d="M18.7671 33.4312H101.233" stroke="#740B99" stroke-width="2" stroke-miterlimit="10" stroke-linecap="round" stroke-linejoin="round"/>
<path d="M84.8722 65.8854L81.946 58.8359C81.68 58.3038 81.813 57.7718 82.212 57.3728L83.5421 56.0427C84.0742 55.5106 84.0742 54.7126 83.5421 54.1805L77.9557 48.5941C77.4237 48.0621 76.6256 48.0621 76.0935 48.5941L74.7634 49.9242C74.3644 50.3232 73.8324 50.4563 73.3004 50.1902L66.2509 47.264C65.7188 46.998 65.4528 46.599 65.4528 46.0669V44.0718C65.4528 43.2737 64.9207 42.7417 64.1227 42.7417H56.1421C55.344 42.7417 54.812 43.2737 54.812 44.0718V45.9339C54.812 46.466 54.546 46.998 54.014 47.131L46.9645 50.0572C46.4324 50.3232 45.9004 50.1902 45.5013 49.7912L44.1712 48.4611C43.6392 47.9291 42.8412 47.9291 42.3092 48.4611L36.7227 54.0475C36.1907 54.5796 36.1907 55.3776 36.7227 55.9096L38.0528 57.2397C38.4519 57.6388 38.5849 58.1708 38.3189 58.7028L35.3926 65.7523C35.1266 66.2844 34.7276 66.5504 34.1955 66.5504H32.0674C31.2693 66.5504 30.7373 67.0824 30.7373 67.8805V75.8611C30.7373 76.6591 31.2693 77.1912 32.0674 77.1912H33.9296C34.4616 77.1912 34.9936 77.4572 35.1266 77.9892L38.0528 85.0387C38.3188 85.5708 38.1858 86.1028 37.7868 86.5018L36.4567 87.8319C35.9247 88.364 35.9247 89.162 36.4567 89.6941L42.0431 95.2805C42.5752 95.8125 43.3732 95.8125 43.9053 95.2805L45.2354 93.9504C45.6344 93.5514 46.1664 93.4183 46.6985 93.6843L53.7479 96.6106C54.28 96.8766 54.546 97.2756 54.546 97.8077V99.6698C54.546 100.468 55.0781 101 55.8761 101H63.8567C64.6548 101 65.1868 100.468 65.1868 99.6698V97.8077C65.1868 97.2756 65.4528 96.7436 65.9848 96.6106L73.0343 93.6843C73.5664 93.4183 74.0985 93.5514 74.4975 93.9504L75.8276 95.2805C76.3596 95.8125 77.1576 95.8125 77.6897 95.2805L83.2761 89.6941C83.8081 89.162 83.8081 88.364 83.2761 87.8319L81.946 86.5018C81.547 86.1028 81.4139 85.5708 81.68 85.0387L84.6062 77.9892C84.8722 77.4572 85.2713 77.1912 85.8033 77.1912H87.6654C88.4634 77.1912 88.9955 76.6591 88.9955 75.8611V67.8805C88.9955 67.0824 88.4634 66.5504 87.6654 66.5504H85.8033C85.5373 66.6834 85.0052 66.4174 84.8722 65.8854Z" stroke="#740B99" stroke-width="2" stroke-miterlimit="10" stroke-linecap="round" stroke-linejoin="round"/>
<path d="M59.9987 87.9651C68.8138 87.9651 75.9599 80.8191 75.9599 72.004C75.9599 63.1889 68.8138 56.0428 59.9987 56.0428C51.1836 56.0428 44.0376 63.1889 44.0376 72.004C44.0376 80.8191 51.1836 87.9651 59.9987 87.9651Z" stroke="#740B99" stroke-width="2" stroke-miterlimit="10" stroke-linecap="round" stroke-linejoin="round"/>
</svg>
