<svg width="120" height="120" viewBox="0 0 120 120" fill="none" xmlns="http://www.w3.org/2000/svg">
<path fill-rule="evenodd" clip-rule="evenodd" d="M86.355 19C77.7144 19 70.7098 26.0046 70.7098 34.6452C70.7098 43.2857 77.7144 50.2903 86.355 50.2903C94.9956 50.2903 102 43.2857 102 34.6452C102 26.0046 94.9956 19 86.355 19ZM68.7098 34.6452C68.7098 24.9 76.6099 17 86.355 17C96.1002 17 104 24.9 104 34.6452C104 42.5947 98.7432 49.3164 91.516 51.5236V56.8388C91.516 59.3105 89.6157 61.4784 87.2387 61.9187C87.313 62.0585 87.355 62.2179 87.355 62.3872V75.5647C87.355 83.3298 80.9428 89.7421 73.1776 89.7421C65.4124 89.7421 59.0002 83.3298 59.0002 75.5647V46.4356C59.0002 39.775 53.4834 34.2582 46.8228 34.2582C40.1622 34.2582 34.6454 39.775 34.6454 46.4356V51.7055C43.8917 52.2283 51.2903 59.951 51.2903 69.3225V87.3547C51.2903 97.0619 43.3523 105 33.6452 105C23.938 105 16 97.0619 16 87.3547V69.3225C16 59.9508 23.3989 52.2281 32.6454 51.7055V46.4356C32.6454 38.6704 39.0576 32.2582 46.8228 32.2582C54.588 32.2582 61.0002 38.6704 61.0002 46.4356V75.5647C61.0002 82.2253 66.517 87.7421 73.1776 87.7421C79.8382 87.7421 85.355 82.2253 85.355 75.5647V62.3872C85.355 62.218 85.3971 62.0585 85.4713 61.9188C83.0941 61.4787 81.1934 59.3107 81.1934 56.8388V51.5234C73.9665 49.3161 68.7098 42.5945 68.7098 34.6452ZM83.1934 52.0079V56.8388C83.1934 58.5059 84.6877 60.0001 86.3547 60.0001C88.0218 60.0001 89.516 58.5059 89.516 56.8388V52.008C88.4904 52.1935 87.434 52.2903 86.355 52.2903C85.2758 52.2903 84.2192 52.1934 83.1934 52.0079ZM32.6454 53.7092C24.5036 54.2294 18 61.0557 18 69.3225V71.1743C18.119 71.1243 18.2497 71.0967 18.3869 71.0967H32.6454V53.7092ZM33.6254 73.0967C33.6321 73.0968 33.6387 73.0969 33.6454 73.0969C33.652 73.0969 33.6587 73.0968 33.6653 73.0967H49.2903V87.3547C49.2903 95.9573 42.2477 103 33.6452 103C25.0426 103 18 95.9573 18 87.3547V73.0191C18.119 73.0691 18.2497 73.0967 18.3869 73.0967H33.6254ZM49.2903 71.0967H34.6454V53.7092C42.7869 54.2297 49.2903 61.0558 49.2903 69.3225V71.0967ZM86.3546 22.5484C86.9068 22.5484 87.3546 22.9961 87.3546 23.5484V25.3227H87.742V26.3227C87.742 25.3227 87.7425 25.3227 87.743 25.3227L87.744 25.3227L87.7464 25.3227L87.7519 25.3227L87.766 25.3229C87.7767 25.3231 87.7902 25.3234 87.8062 25.3239C87.8383 25.325 87.8808 25.3269 87.9327 25.3305C88.0363 25.3376 88.178 25.3513 88.3492 25.3777C88.6902 25.4301 89.1563 25.534 89.6738 25.741C90.7194 26.1592 91.9732 27.0007 92.7977 28.6497C93.0447 29.1437 92.8445 29.7443 92.3505 29.9913C91.8565 30.2383 91.2558 30.0381 91.0088 29.5441C90.4462 28.4189 89.6194 27.8733 88.9311 27.598C88.5817 27.4582 88.2675 27.3886 88.0451 27.3544C87.9345 27.3374 87.8486 27.3294 87.7951 27.3258C87.7792 27.3247 87.7662 27.3239 87.7564 27.3235C87.7497 27.3232 87.7444 27.323 87.7407 27.3228C87.7386 27.3228 87.737 27.3227 87.7359 27.3227H84.9678C83.2789 27.3227 81.8065 28.6998 81.8065 30.484C81.8065 32.2682 83.2789 33.6453 84.9678 33.6453H87.742C90.5136 33.6453 92.9033 36.0349 92.9033 38.8066C92.9033 41.5782 90.5136 43.9679 87.742 43.9679H87.3546V45.742C87.3546 46.2943 86.9068 46.742 86.3546 46.742C85.8023 46.742 85.3546 46.2943 85.3546 45.742V43.9679H84.9678V42.9679C84.9678 43.9679 84.9673 43.9679 84.9668 43.9679L84.9657 43.9679L84.9633 43.9679L84.9579 43.9678L84.9438 43.9677C84.933 43.9675 84.9196 43.9672 84.9035 43.9666C84.8714 43.9656 84.8289 43.9637 84.7771 43.9601C84.6735 43.9529 84.5318 43.9392 84.3606 43.9129C84.0195 43.8604 83.5535 43.7566 83.0359 43.5496C81.9903 43.1313 80.7365 42.2899 79.9121 40.6409C79.6651 40.1469 79.8653 39.5462 80.3593 39.2992C80.8532 39.0523 81.4539 39.2525 81.7009 39.7465C82.2635 40.8717 83.0904 41.4173 83.7787 41.6926C84.1281 41.8324 84.4422 41.9019 84.6647 41.9361C84.7753 41.9532 84.8611 41.9611 84.9147 41.9648C84.9414 41.9667 84.9598 41.9674 84.969 41.9677C84.9711 41.9678 84.9727 41.9678 84.9738 41.9679H86.3416C86.3459 41.9678 86.3502 41.9678 86.3546 41.9678C86.3589 41.9678 86.3632 41.9678 86.3675 41.9679H87.742C89.409 41.9679 90.9033 40.4736 90.9033 38.8066C90.9033 37.1395 89.409 35.6453 87.742 35.6453H84.9678C82.2179 35.6453 79.8065 33.4159 79.8065 30.484C79.8065 27.5521 82.2179 25.3227 84.9678 25.3227H85.3546V23.5484C85.3546 22.9961 85.8023 22.5484 86.3546 22.5484Z" fill="#740B99"/>
</svg>
