<svg width="120" height="120" viewBox="0 0 120 120" fill="none" xmlns="http://www.w3.org/2000/svg">
<mask id="path-1-outside-1" maskUnits="userSpaceOnUse" x="19" y="14" width="82" height="92" fill="black">
<rect fill="white" x="19" y="14" width="82" height="92"/>
<path fill-rule="evenodd" clip-rule="evenodd" d="M60.0091 84.8573C46.0815 84.8573 34.785 73.5443 34.785 59.5908C34.785 45.6362 46.0815 34.3244 60.0091 34.3244C73.9242 34.3244 85.2209 45.636 85.2209 59.5908C85.2209 73.5445 73.9242 84.8573 60.0091 84.8573ZM33.4513 59.5908C33.4513 74.2826 45.3452 86.1935 60.0091 86.1935C74.6609 86.1935 86.5546 74.2823 86.5546 59.5908C86.5546 44.8981 74.6609 32.9882 60.0091 32.9882C45.3453 32.9882 33.4513 44.8978 33.4513 59.5908Z"/>
<path fill-rule="evenodd" clip-rule="evenodd" d="M60.0027 76.7191C50.5603 76.7191 42.8999 69.051 42.8999 59.5917C42.8999 50.1336 50.5603 42.4655 60.0027 42.4655C69.4445 42.4655 77.0932 50.133 77.0932 59.5917C77.0932 69.0516 69.4445 76.7191 60.0027 76.7191ZM41.5716 59.5917C41.5716 69.7867 49.8274 78.05 60.0027 78.05C70.1786 78.05 78.4215 69.7861 78.4215 59.5917C78.4215 49.3984 70.1785 41.1347 60.0027 41.1347C49.8274 41.1347 41.5716 49.3978 41.5716 59.5917Z"/>
<path fill-rule="evenodd" clip-rule="evenodd" d="M60.0077 39.6506C60.3713 39.6506 60.666 39.3554 60.666 38.9911V36.5994C60.666 36.2352 60.3713 35.9399 60.0077 35.9399C59.6441 35.9399 59.3494 36.2352 59.3494 36.5994V38.9911C59.3494 39.3554 59.6441 39.6506 60.0077 39.6506Z"/>
<path fill-rule="evenodd" clip-rule="evenodd" d="M53.8553 40.6305C54.2002 40.5192 54.3898 40.1488 54.2787 39.8032L53.5473 37.5279C53.4362 37.1823 53.0665 36.9923 52.7215 37.1036C52.3766 37.215 52.187 37.5854 52.2981 37.931L53.0295 40.2063C53.1406 40.5519 53.5103 40.7418 53.8553 40.6305Z"/>
<path fill-rule="evenodd" clip-rule="evenodd" d="M48.3014 43.4615C48.5941 43.2492 48.6597 42.8394 48.4478 42.5461L47.05 40.611C46.8381 40.3177 46.4291 40.252 46.1363 40.4642C45.8436 40.6765 45.778 41.0863 45.9899 41.3796L47.3877 43.3147C47.5996 43.608 48.0086 43.6737 48.3014 43.4615Z"/>
<path fill-rule="evenodd" clip-rule="evenodd" d="M43.897 47.8729C44.1083 47.5802 44.0427 47.1714 43.7506 46.9597L41.8102 45.5539C41.5181 45.3423 41.11 45.408 40.8987 45.7007C40.6875 45.9934 40.753 46.4022 41.0452 46.6139L42.9855 48.0197C43.2777 48.2313 43.6858 48.1656 43.897 47.8729Z"/>
<path fill-rule="evenodd" clip-rule="evenodd" d="M41.0763 53.4243C41.1878 53.0814 41.0007 52.7128 40.6583 52.6012L38.3939 51.8623C38.0516 51.7507 37.6837 51.9381 37.5722 52.2811C37.4608 52.624 37.6479 52.9926 37.9902 53.1043L40.2547 53.8431C40.597 53.9548 40.9648 53.7673 41.0763 53.4243Z"/>
<path fill-rule="evenodd" clip-rule="evenodd" d="M36.4094 59.592C36.4094 59.9524 36.701 60.2447 37.0609 60.2447H39.4452C39.805 60.2447 40.0967 59.9524 40.0967 59.592C40.0967 59.2315 39.805 58.9392 39.4452 58.9392H37.0609C36.701 58.9392 36.4094 59.2315 36.4094 59.592Z"/>
<path fill-rule="evenodd" clip-rule="evenodd" d="M79.8917 59.5929C79.8917 59.9614 80.1898 60.2601 80.5576 60.2601H82.945C83.3127 60.2601 83.6109 59.9614 83.6109 59.5929C83.6109 59.2245 83.3127 58.9258 82.945 58.9258H80.5576C80.1898 58.9258 79.8917 59.2245 79.8917 59.5929Z"/>
<path fill-rule="evenodd" clip-rule="evenodd" d="M78.917 53.4331C79.0303 53.7834 79.4056 53.9755 79.7552 53.862L82.0301 53.1237C82.3797 53.0102 82.5714 52.6342 82.4581 52.2839C82.3449 51.9336 81.9696 51.7415 81.6199 51.855L79.3451 52.5933C78.9954 52.7068 78.8038 53.0828 78.917 53.4331Z"/>
<path fill-rule="evenodd" clip-rule="evenodd" d="M76.1009 47.8808C76.3172 48.1779 76.7328 48.243 77.0293 48.0263L78.9548 46.6191C79.2512 46.4024 79.3162 45.986 79.0999 45.689C78.8837 45.3919 78.468 45.3268 78.1716 45.5435L76.2461 46.9507C75.9497 47.1674 75.8847 47.5838 76.1009 47.8808Z"/>
<path fill-rule="evenodd" clip-rule="evenodd" d="M71.6988 43.4657C71.9949 43.6813 72.4094 43.6157 72.6246 43.3191L74.0282 41.385C74.2435 41.0884 74.178 40.6732 73.8819 40.4575C73.5859 40.2419 73.1714 40.3075 72.9561 40.6041L71.5525 42.5382C71.3373 42.8348 71.4028 43.25 71.6988 43.4657Z"/>
<path fill-rule="evenodd" clip-rule="evenodd" d="M66.1474 40.6366C66.4945 40.7494 66.8671 40.559 66.9796 40.2112L67.716 37.9365C67.8286 37.5888 67.6384 37.2155 67.2914 37.1028C66.9443 36.99 66.5717 37.1804 66.4592 37.5282L65.7228 39.8029C65.6102 40.1506 65.8003 40.5239 66.1474 40.6366Z"/>
<path fill-rule="evenodd" clip-rule="evenodd" d="M60.0009 105L60.1918 104.943C83.712 97.9779 93.5353 78.3401 97.4844 60.5984C99.4603 51.7215 99.9762 43.2837 99.9992 37.0688C100.011 33.9601 99.8989 31.4042 99.784 29.6235C99.7265 28.733 99.6682 28.0362 99.6242 27.5607C99.6022 27.323 99.5837 27.1405 99.5707 27.0169C99.5668 26.9799 99.5634 26.9482 99.5605 26.9218C99.5586 26.9041 99.5569 26.8888 99.5554 26.876L99.5528 26.8525L99.5513 26.8394L99.5502 26.8297L99.5499 26.8271C99.5499 26.8271 99.5497 26.8258 98.8808 26.9048L99.5497 26.8258L99.471 26.1556L98.802 26.2345C86.9558 27.6319 77.3609 24.9201 70.7267 21.8603C67.409 20.3302 64.8335 18.7136 63.0906 17.4825C62.2193 16.8671 61.5567 16.3484 61.1141 15.9855C60.8929 15.8041 60.7266 15.6617 60.6169 15.5658C60.562 15.5178 60.5212 15.4814 60.4948 15.4576C60.4816 15.4456 60.4719 15.4368 60.4659 15.4313L60.4595 15.4255L60.4585 15.4246L60.0008 15L59.5422 15.4255L59.5358 15.4313C59.5322 15.4347 59.5272 15.4392 59.521 15.4448L59.5069 15.4576C59.4804 15.4814 59.4397 15.5178 59.3848 15.5658C59.2751 15.6617 59.1088 15.8041 58.8876 15.9855C58.445 16.3484 57.7824 16.8671 56.9111 17.4825C55.1682 18.7136 52.5927 20.3302 49.275 21.8603C42.6408 24.9201 33.0458 27.6319 21.1997 26.2345L20.5309 26.1556L20.452 26.8257L21.1209 26.9048C20.452 26.8257 20.4518 26.8269 20.4518 26.8269L20.4504 26.8393C20.4494 26.8477 20.448 26.8599 20.4462 26.8759C20.4427 26.9079 20.4375 26.955 20.431 27.0168C20.4179 27.1404 20.3994 27.3229 20.3774 27.5606C20.3332 28.0361 20.2749 28.7329 20.2172 29.6234C20.102 31.4041 19.9897 33.96 20.0007 37.0687C20.0228 43.2836 20.5375 51.7214 22.5126 60.5984C26.4601 78.3401 36.2835 97.9779 59.8099 104.943L60.0009 105ZM21.722 27.6511C33.5524 28.903 43.1572 26.1678 49.8383 23.0864C53.242 21.5166 55.8885 19.8563 57.6874 18.5856C58.587 17.9502 59.2752 17.4117 59.7407 17.0301C59.837 16.9512 59.9237 16.879 60.0008 16.814C60.078 16.879 60.1647 16.9512 60.261 17.0301C60.7265 17.4117 61.4147 17.9502 62.3143 18.5856C64.1132 19.8563 66.7597 21.5166 70.1634 23.0864C76.8445 26.1678 86.4492 28.903 98.2796 27.6511C98.2806 27.6624 98.2817 27.6738 98.2827 27.6854C98.3257 28.1492 98.3829 28.8335 98.4395 29.7106C98.5527 31.4649 98.6633 33.9898 98.652 37.0638C98.6292 43.2145 98.1182 51.55 96.1695 60.3046C92.2803 77.7772 82.7064 96.7777 60.0008 103.592C37.289 96.7777 27.7152 77.7771 23.8275 60.3047C21.8796 51.5501 21.3697 43.2146 21.348 37.0639C21.3371 33.9899 21.4481 31.4651 21.5616 29.7107C21.6184 28.8336 21.6758 28.1493 21.7188 27.6855C21.7199 27.6739 21.7209 27.6624 21.722 27.6511Z"/>
<path fill-rule="evenodd" clip-rule="evenodd" d="M60.0077 34.3181C60.3713 34.3181 60.666 34.0228 60.666 33.6585V15.9173C60.666 15.5531 60.3713 15.2578 60.0077 15.2578C59.6441 15.2578 59.3494 15.5531 59.3494 15.9173V33.6585C59.3494 34.0228 59.6441 34.3181 60.0077 34.3181Z"/>
<path fill-rule="evenodd" clip-rule="evenodd" d="M60.0077 104.811C60.3713 104.811 60.666 104.516 60.666 104.152V85.5222C60.666 85.1579 60.3713 84.8627 60.0077 84.8627C59.6441 84.8627 59.3494 85.1579 59.3494 85.5222V104.152C59.3494 104.516 59.6441 104.811 60.0077 104.811Z"/>
</mask>
<path fill-rule="evenodd" clip-rule="evenodd" d="M60.0091 84.8573C46.0815 84.8573 34.785 73.5443 34.785 59.5908C34.785 45.6362 46.0815 34.3244 60.0091 34.3244C73.9242 34.3244 85.2209 45.636 85.2209 59.5908C85.2209 73.5445 73.9242 84.8573 60.0091 84.8573ZM33.4513 59.5908C33.4513 74.2826 45.3452 86.1935 60.0091 86.1935C74.6609 86.1935 86.5546 74.2823 86.5546 59.5908C86.5546 44.8981 74.6609 32.9882 60.0091 32.9882C45.3453 32.9882 33.4513 44.8978 33.4513 59.5908Z" fill="#740B99"/>
<path fill-rule="evenodd" clip-rule="evenodd" d="M60.0027 76.7191C50.5603 76.7191 42.8999 69.051 42.8999 59.5917C42.8999 50.1336 50.5603 42.4655 60.0027 42.4655C69.4445 42.4655 77.0932 50.133 77.0932 59.5917C77.0932 69.0516 69.4445 76.7191 60.0027 76.7191ZM41.5716 59.5917C41.5716 69.7867 49.8274 78.05 60.0027 78.05C70.1786 78.05 78.4215 69.7861 78.4215 59.5917C78.4215 49.3984 70.1785 41.1347 60.0027 41.1347C49.8274 41.1347 41.5716 49.3978 41.5716 59.5917Z" fill="#740B99"/>
<path fill-rule="evenodd" clip-rule="evenodd" d="M60.0077 39.6506C60.3713 39.6506 60.666 39.3554 60.666 38.9911V36.5994C60.666 36.2352 60.3713 35.9399 60.0077 35.9399C59.6441 35.9399 59.3494 36.2352 59.3494 36.5994V38.9911C59.3494 39.3554 59.6441 39.6506 60.0077 39.6506Z" fill="#740B99"/>
<path fill-rule="evenodd" clip-rule="evenodd" d="M53.8553 40.6305C54.2002 40.5192 54.3898 40.1488 54.2787 39.8032L53.5473 37.5279C53.4362 37.1823 53.0665 36.9923 52.7215 37.1036C52.3766 37.215 52.187 37.5854 52.2981 37.931L53.0295 40.2063C53.1406 40.5519 53.5103 40.7418 53.8553 40.6305Z" fill="#740B99"/>
<path fill-rule="evenodd" clip-rule="evenodd" d="M48.3014 43.4615C48.5941 43.2492 48.6597 42.8394 48.4478 42.5461L47.05 40.611C46.8381 40.3177 46.4291 40.252 46.1363 40.4642C45.8436 40.6765 45.778 41.0863 45.9899 41.3796L47.3877 43.3147C47.5996 43.608 48.0086 43.6737 48.3014 43.4615Z" fill="#740B99"/>
<path fill-rule="evenodd" clip-rule="evenodd" d="M43.897 47.8729C44.1083 47.5802 44.0427 47.1714 43.7506 46.9597L41.8102 45.5539C41.5181 45.3423 41.11 45.408 40.8987 45.7007C40.6875 45.9934 40.753 46.4022 41.0452 46.6139L42.9855 48.0197C43.2777 48.2313 43.6858 48.1656 43.897 47.8729Z" fill="#740B99"/>
<path fill-rule="evenodd" clip-rule="evenodd" d="M41.0763 53.4243C41.1878 53.0814 41.0007 52.7128 40.6583 52.6012L38.3939 51.8623C38.0516 51.7507 37.6837 51.9381 37.5722 52.2811C37.4608 52.624 37.6479 52.9926 37.9902 53.1043L40.2547 53.8431C40.597 53.9548 40.9648 53.7673 41.0763 53.4243Z" fill="#740B99"/>
<path fill-rule="evenodd" clip-rule="evenodd" d="M36.4094 59.592C36.4094 59.9524 36.701 60.2447 37.0609 60.2447H39.4452C39.805 60.2447 40.0967 59.9524 40.0967 59.592C40.0967 59.2315 39.805 58.9392 39.4452 58.9392H37.0609C36.701 58.9392 36.4094 59.2315 36.4094 59.592Z" fill="#740B99"/>
<path fill-rule="evenodd" clip-rule="evenodd" d="M79.8917 59.5929C79.8917 59.9614 80.1898 60.2601 80.5576 60.2601H82.945C83.3127 60.2601 83.6109 59.9614 83.6109 59.5929C83.6109 59.2245 83.3127 58.9258 82.945 58.9258H80.5576C80.1898 58.9258 79.8917 59.2245 79.8917 59.5929Z" fill="#740B99"/>
<path fill-rule="evenodd" clip-rule="evenodd" d="M78.917 53.4331C79.0303 53.7834 79.4056 53.9755 79.7552 53.862L82.0301 53.1237C82.3797 53.0102 82.5714 52.6342 82.4581 52.2839C82.3449 51.9336 81.9696 51.7415 81.6199 51.855L79.3451 52.5933C78.9954 52.7068 78.8038 53.0828 78.917 53.4331Z" fill="#740B99"/>
<path fill-rule="evenodd" clip-rule="evenodd" d="M76.1009 47.8808C76.3172 48.1779 76.7328 48.243 77.0293 48.0263L78.9548 46.6191C79.2512 46.4024 79.3162 45.986 79.0999 45.689C78.8837 45.3919 78.468 45.3268 78.1716 45.5435L76.2461 46.9507C75.9497 47.1674 75.8847 47.5838 76.1009 47.8808Z" fill="#740B99"/>
<path fill-rule="evenodd" clip-rule="evenodd" d="M71.6988 43.4657C71.9949 43.6813 72.4094 43.6157 72.6246 43.3191L74.0282 41.385C74.2435 41.0884 74.178 40.6732 73.8819 40.4575C73.5859 40.2419 73.1714 40.3075 72.9561 40.6041L71.5525 42.5382C71.3373 42.8348 71.4028 43.25 71.6988 43.4657Z" fill="#740B99"/>
<path fill-rule="evenodd" clip-rule="evenodd" d="M66.1474 40.6366C66.4945 40.7494 66.8671 40.559 66.9796 40.2112L67.716 37.9365C67.8286 37.5888 67.6384 37.2155 67.2914 37.1028C66.9443 36.99 66.5717 37.1804 66.4592 37.5282L65.7228 39.8029C65.6102 40.1506 65.8003 40.5239 66.1474 40.6366Z" fill="#740B99"/>
<path fill-rule="evenodd" clip-rule="evenodd" d="M60.0009 105L60.1918 104.943C83.712 97.9779 93.5353 78.3401 97.4844 60.5984C99.4603 51.7215 99.9762 43.2837 99.9992 37.0688C100.011 33.9601 99.8989 31.4042 99.784 29.6235C99.7265 28.733 99.6682 28.0362 99.6242 27.5607C99.6022 27.323 99.5837 27.1405 99.5707 27.0169C99.5668 26.9799 99.5634 26.9482 99.5605 26.9218C99.5586 26.9041 99.5569 26.8888 99.5554 26.876L99.5528 26.8525L99.5513 26.8394L99.5502 26.8297L99.5499 26.8271C99.5499 26.8271 99.5497 26.8258 98.8808 26.9048L99.5497 26.8258L99.471 26.1556L98.802 26.2345C86.9558 27.6319 77.3609 24.9201 70.7267 21.8603C67.409 20.3302 64.8335 18.7136 63.0906 17.4825C62.2193 16.8671 61.5567 16.3484 61.1141 15.9855C60.8929 15.8041 60.7266 15.6617 60.6169 15.5658C60.562 15.5178 60.5212 15.4814 60.4948 15.4576C60.4816 15.4456 60.4719 15.4368 60.4659 15.4313L60.4595 15.4255L60.4585 15.4246L60.0008 15L59.5422 15.4255L59.5358 15.4313C59.5322 15.4347 59.5272 15.4392 59.521 15.4448L59.5069 15.4576C59.4804 15.4814 59.4397 15.5178 59.3848 15.5658C59.2751 15.6617 59.1088 15.8041 58.8876 15.9855C58.445 16.3484 57.7824 16.8671 56.9111 17.4825C55.1682 18.7136 52.5927 20.3302 49.275 21.8603C42.6408 24.9201 33.0458 27.6319 21.1997 26.2345L20.5309 26.1556L20.452 26.8257L21.1209 26.9048C20.452 26.8257 20.4518 26.8269 20.4518 26.8269L20.4504 26.8393C20.4494 26.8477 20.448 26.8599 20.4462 26.8759C20.4427 26.9079 20.4375 26.955 20.431 27.0168C20.4179 27.1404 20.3994 27.3229 20.3774 27.5606C20.3332 28.0361 20.2749 28.7329 20.2172 29.6234C20.102 31.4041 19.9897 33.96 20.0007 37.0687C20.0228 43.2836 20.5375 51.7214 22.5126 60.5984C26.4601 78.3401 36.2835 97.9779 59.8099 104.943L60.0009 105ZM21.722 27.6511C33.5524 28.903 43.1572 26.1678 49.8383 23.0864C53.242 21.5166 55.8885 19.8563 57.6874 18.5856C58.587 17.9502 59.2752 17.4117 59.7407 17.0301C59.837 16.9512 59.9237 16.879 60.0008 16.814C60.078 16.879 60.1647 16.9512 60.261 17.0301C60.7265 17.4117 61.4147 17.9502 62.3143 18.5856C64.1132 19.8563 66.7597 21.5166 70.1634 23.0864C76.8445 26.1678 86.4492 28.903 98.2796 27.6511C98.2806 27.6624 98.2817 27.6738 98.2827 27.6854C98.3257 28.1492 98.3829 28.8335 98.4395 29.7106C98.5527 31.4649 98.6633 33.9898 98.652 37.0638C98.6292 43.2145 98.1182 51.55 96.1695 60.3046C92.2803 77.7772 82.7064 96.7777 60.0008 103.592C37.289 96.7777 27.7152 77.7771 23.8275 60.3047C21.8796 51.5501 21.3697 43.2146 21.348 37.0639C21.3371 33.9899 21.4481 31.4651 21.5616 29.7107C21.6184 28.8336 21.6758 28.1493 21.7188 27.6855C21.7199 27.6739 21.7209 27.6624 21.722 27.6511Z" fill="#740B99"/>
<path fill-rule="evenodd" clip-rule="evenodd" d="M60.0077 34.3181C60.3713 34.3181 60.666 34.0228 60.666 33.6585V15.9173C60.666 15.5531 60.3713 15.2578 60.0077 15.2578C59.6441 15.2578 59.3494 15.5531 59.3494 15.9173V33.6585C59.3494 34.0228 59.6441 34.3181 60.0077 34.3181Z" fill="#740B99"/>
<path fill-rule="evenodd" clip-rule="evenodd" d="M60.0077 104.811C60.3713 104.811 60.666 104.516 60.666 104.152V85.5222C60.666 85.1579 60.3713 84.8627 60.0077 84.8627C59.6441 84.8627 59.3494 85.1579 59.3494 85.5222V104.152C59.3494 104.516 59.6441 104.811 60.0077 104.811Z" fill="#740B99"/>
<path d="M53.8553 40.6305L53.7324 40.2498L53.8553 40.6305ZM54.2787 39.8032L54.6595 39.6808L54.2787 39.8032ZM53.5473 37.5279L53.1665 37.6503L53.5473 37.5279ZM52.7215 37.1036L52.5987 36.723L52.7215 37.1036ZM52.2981 37.931L51.9173 38.0534L52.2981 37.931ZM53.0295 40.2063L53.4103 40.0838L53.0295 40.2063ZM48.3014 43.4615L48.0666 43.1376L48.3014 43.4615ZM48.4478 42.5461L48.7721 42.3119V42.3119L48.4478 42.5461ZM47.05 40.611L46.7257 40.8452L47.05 40.611ZM46.1363 40.4642L46.3711 40.7881L46.1363 40.4642ZM45.9899 41.3796L46.3141 41.1454L45.9899 41.3796ZM47.3877 43.3147L47.0635 43.549L47.3877 43.3147ZM43.897 47.8729L43.5727 47.6388L43.897 47.8729ZM43.7506 46.9597L43.9853 46.6358L43.7506 46.9597ZM41.8102 45.5539L41.5756 45.8779L41.8102 45.5539ZM40.8987 45.7007L41.2231 45.9348L40.8987 45.7007ZM41.0452 46.6139L41.2799 46.29L41.0452 46.6139ZM42.9855 48.0197L42.7508 48.3436L42.9855 48.0197ZM40.6583 52.6012L40.7824 52.2209L40.7824 52.2209L40.6583 52.6012ZM38.3939 51.8623L38.2698 52.2426L38.3939 51.8623ZM37.5722 52.2811L37.9526 52.4047L37.5722 52.2811ZM37.9902 53.1043L38.1143 52.724L37.9902 53.1043ZM40.2547 53.8431L40.1306 54.2234L40.2547 53.8431ZM78.917 53.4331L78.5364 53.5561L78.917 53.4331ZM79.7552 53.862L79.6318 53.4815L79.7552 53.862ZM82.0301 53.1237L82.1536 53.5042L82.0301 53.1237ZM81.6199 51.855L81.4965 51.4746L81.6199 51.855ZM79.3451 52.5933L79.4686 52.9737L79.3451 52.5933ZM76.1009 47.8808L75.7776 48.1163L76.1009 47.8808ZM77.0293 48.0263L76.7932 47.7034L77.0293 48.0263ZM78.9548 46.6191L79.1908 46.942L78.9548 46.6191ZM79.0999 45.689L78.7766 45.9244L79.0999 45.689ZM78.1716 45.5435L77.9356 45.2205L78.1716 45.5435ZM76.2461 46.9507L76.0101 46.6278L76.2461 46.9507ZM71.6988 43.4657L71.4633 43.789L71.6988 43.4657ZM72.6246 43.3191L72.3009 43.0842L72.6246 43.3191ZM74.0282 41.385L74.352 41.62L74.0282 41.385ZM73.8819 40.4575L73.6464 40.7808L73.8819 40.4575ZM72.9561 40.6041L72.6324 40.3691L72.9561 40.6041ZM71.5525 42.5382L71.8763 42.7731L71.5525 42.5382ZM66.1474 40.6366L66.0238 41.0171L66.1474 40.6366ZM66.9796 40.2112L66.5991 40.0881L66.9796 40.2112ZM67.716 37.9365L68.0965 38.0597L67.716 37.9365ZM67.2914 37.1028L67.415 36.7223L67.2914 37.1028ZM66.4592 37.5282L66.8397 37.6514L66.4592 37.5282ZM65.7228 39.8029L65.3422 39.6797L65.7228 39.8029ZM60.0009 105L59.8873 105.384L60.0009 105.417L60.1145 105.384L60.0009 105ZM60.1918 104.943L60.0782 104.56H60.0782L60.1918 104.943ZM97.4844 60.5984L97.8749 60.6853L97.4844 60.5984ZM99.9992 37.0688L100.399 37.0703L99.9992 37.0688ZM99.784 29.6235L99.3848 29.6492V29.6492L99.784 29.6235ZM99.6242 27.5607L100.023 27.5238V27.5238L99.6242 27.5607ZM99.5707 27.0169L99.1729 27.0588L99.1729 27.0589L99.5707 27.0169ZM99.5605 26.9218L99.1628 26.9651V26.9651L99.5605 26.9218ZM99.5554 26.876L99.953 26.8316L99.9529 26.8314L99.5554 26.876ZM99.5528 26.8525L99.9503 26.8079L99.9502 26.8072L99.5528 26.8525ZM99.5513 26.8394L99.9487 26.7941L99.9487 26.7936L99.5513 26.8394ZM99.5502 26.8297L99.9476 26.784L99.9474 26.7827L99.5502 26.8297ZM99.5499 26.8271L99.1524 26.872L99.1527 26.8741L99.5499 26.8271ZM99.5497 26.8258L99.5966 27.2231L99.9937 27.1762L99.947 26.7791L99.5497 26.8258ZM99.471 26.1556L99.8682 26.1089L99.8215 25.7115L99.4241 25.7584L99.471 26.1556ZM98.802 26.2345L98.8489 26.6318L98.802 26.2345ZM70.7267 21.8603L70.5592 22.2236L70.7267 21.8603ZM63.0906 17.4825L63.3214 17.1558V17.1558L63.0906 17.4825ZM61.1141 15.9855L61.3677 15.6762L61.3677 15.6762L61.1141 15.9855ZM60.6169 15.5658L60.8802 15.2646V15.2646L60.6169 15.5658ZM60.4659 15.4313L60.1955 15.7261L60.1961 15.7266L60.4659 15.4313ZM60.4595 15.4255L60.1884 15.7196L60.1891 15.7202L60.4595 15.4255ZM60.4585 15.4246L60.1865 15.7178L60.1874 15.7187L60.4585 15.4246ZM60.0008 15L60.2729 14.7068L60.0008 14.4544L59.7288 14.7068L60.0008 15ZM59.5422 15.4255L59.8126 15.7203L59.8143 15.7187L59.5422 15.4255ZM59.5358 15.4313L59.8057 15.7265L59.8062 15.7261L59.5358 15.4313ZM59.521 15.4448L59.7892 15.7416L59.7897 15.7411L59.521 15.4448ZM59.5069 15.4576L59.7747 15.7547L59.7751 15.7544L59.5069 15.4576ZM59.3848 15.5658L59.1215 15.2646L59.1215 15.2646L59.3848 15.5658ZM58.8876 15.9855L59.1411 16.2949L59.1411 16.2949L58.8876 15.9855ZM56.9111 17.4825L56.6803 17.1558V17.1558L56.9111 17.4825ZM49.275 21.8603L49.4425 22.2236H49.4425L49.275 21.8603ZM21.1997 26.2345L21.2466 25.8373H21.2466L21.1997 26.2345ZM20.5309 26.1556L20.5777 25.7584L20.1804 25.7115L20.1336 26.1089L20.5309 26.1556ZM20.452 26.8257L20.0547 26.7789L20.008 27.176L20.405 27.223L20.452 26.8257ZM20.4518 26.8269L20.0546 26.78L20.0545 26.7809L20.4518 26.8269ZM20.4504 26.8393L20.053 26.7933L20.053 26.7937L20.4504 26.8393ZM20.4462 26.8759L20.8438 26.9203L20.8438 26.9203L20.4462 26.8759ZM20.431 27.0168L20.0332 26.9748L20.0332 26.9748L20.431 27.0168ZM20.3774 27.5606L19.9791 27.5236L19.9791 27.5236L20.3774 27.5606ZM20.2172 29.6234L20.6164 29.6492L20.6164 29.6492L20.2172 29.6234ZM20.0007 37.0687L20.4007 37.0673L20.0007 37.0687ZM22.5126 60.5984L22.903 60.5115L22.5126 60.5984ZM59.8099 104.943L59.6964 105.327L59.8099 104.943ZM21.722 27.6511L21.7641 27.2533L21.3614 27.2107L21.3237 27.6139L21.722 27.6511ZM49.8383 23.0864L50.0058 23.4496V23.4496L49.8383 23.0864ZM57.6874 18.5856L57.4566 18.2589V18.2589L57.6874 18.5856ZM59.7407 17.0301L59.4871 16.7208L59.4871 16.7208L59.7407 17.0301ZM60.0008 16.814L60.2586 16.5081L60.0008 16.291L59.7431 16.5081L60.0008 16.814ZM60.261 17.0301L60.5146 16.7208L60.5146 16.7208L60.261 17.0301ZM62.3143 18.5856L62.0835 18.9124V18.9124L62.3143 18.5856ZM70.1634 23.0864L69.9959 23.4496V23.4496L70.1634 23.0864ZM98.2796 27.6511L98.6778 27.6141L98.6404 27.2107L98.2375 27.2533L98.2796 27.6511ZM98.2827 27.6854L97.8844 27.7221L97.8845 27.7223L98.2827 27.6854ZM98.4395 29.7106L98.8387 29.6848L98.4395 29.7106ZM98.652 37.0638L99.052 37.0653L98.652 37.0638ZM96.1695 60.3046L96.5599 60.3916L96.1695 60.3046ZM60.0008 103.592L59.8859 103.975L60.0008 104.01L60.1158 103.975L60.0008 103.592ZM23.8275 60.3047L23.4371 60.3916L23.8275 60.3047ZM21.348 37.0639L21.748 37.0625L21.348 37.0639ZM21.5616 29.7107L21.1625 29.6848L21.5616 29.7107ZM21.7188 27.6855L21.3205 27.6486L21.3205 27.6486L21.7188 27.6855ZM60.0091 84.4573C46.303 84.4573 35.185 73.324 35.185 59.5908H34.385C34.385 73.7646 45.86 85.2573 60.0091 85.2573V84.4573ZM35.185 59.5908C35.185 45.8565 46.303 34.7244 60.0091 34.7244V33.9244C45.86 33.9244 34.385 45.4159 34.385 59.5908H35.185ZM60.0091 34.7244C73.7026 34.7244 84.8209 45.8562 84.8209 59.5908H85.6209C85.6209 45.4158 74.1459 33.9244 60.0091 33.9244V34.7244ZM84.8209 59.5908C84.8209 73.3243 73.7026 84.4573 60.0091 84.4573V85.2573C74.1459 85.2573 85.6209 73.7646 85.6209 59.5908H84.8209ZM33.0513 59.5908C33.0513 74.5029 45.1237 86.5935 60.0091 86.5935V85.7934C45.5668 85.7934 33.8513 74.0622 33.8513 59.5908H33.0513ZM60.0091 86.5935C74.8825 86.5935 86.9546 74.5025 86.9546 59.5908H86.1546C86.1546 74.0622 74.4392 85.7934 60.0091 85.7934V86.5935ZM86.9546 59.5908C86.9546 44.6779 74.8825 32.5882 60.0091 32.5882V33.3882C74.4392 33.3882 86.1546 45.1182 86.1546 59.5908H86.9546ZM60.0091 32.5882C45.1238 32.5882 33.0513 44.6775 33.0513 59.5908H33.8513C33.8513 45.1182 45.5668 33.3882 60.0091 33.3882V32.5882ZM60.0027 76.3191C50.7817 76.3191 43.2999 68.8306 43.2999 59.5917H42.4999C42.4999 69.2715 50.3389 77.1191 60.0027 77.1191V76.3191ZM43.2999 59.5917C43.2999 50.354 50.7816 42.8655 60.0027 42.8655V42.0655C50.3389 42.0655 42.4999 49.9131 42.4999 59.5917H43.2999ZM60.0027 42.8655C69.2227 42.8655 76.6932 50.3531 76.6932 59.5917H77.4932C77.4932 49.9129 69.6662 42.0655 60.0027 42.0655V42.8655ZM76.6932 59.5917C76.6932 68.8316 69.2227 76.3191 60.0027 76.3191V77.1191C69.6662 77.1191 77.4932 69.2717 77.4932 59.5917H76.6932ZM41.1716 59.5917C41.1716 70.0072 49.606 78.45 60.0027 78.45V77.65C50.0488 77.65 41.9716 69.5663 41.9716 59.5917H41.1716ZM60.0027 78.45C70.4003 78.45 78.8215 70.0062 78.8215 59.5917H78.0215C78.0215 69.5661 69.9568 77.65 60.0027 77.65V78.45ZM78.8215 59.5917C78.8215 49.1783 70.4003 40.7347 60.0027 40.7347V41.5347C69.9568 41.5347 78.0215 49.6185 78.0215 59.5917H78.8215ZM60.0027 40.7347C49.606 40.7347 41.1716 49.1774 41.1716 59.5917H41.9716C41.9716 49.6183 50.0488 41.5347 60.0027 41.5347V40.7347ZM60.0077 40.0506C60.5929 40.0506 61.066 39.5756 61.066 38.9911H60.266C60.266 39.1352 60.1497 39.2506 60.0077 39.2506V40.0506ZM61.066 38.9911V36.5994H60.266V38.9911H61.066ZM61.066 36.5994C61.066 36.015 60.5929 35.5399 60.0077 35.5399V36.3399C60.1497 36.3399 60.266 36.4554 60.266 36.5994H61.066ZM60.0077 35.5399C59.4225 35.5399 58.9494 36.015 58.9494 36.5994H59.7494C59.7494 36.4554 59.8658 36.3399 60.0077 36.3399V35.5399ZM58.9494 36.5994V38.9911H59.7494V36.5994H58.9494ZM58.9494 38.9911C58.9494 39.5756 59.4225 40.0506 60.0077 40.0506V39.2506C59.8658 39.2506 59.7494 39.1352 59.7494 38.9911H58.9494ZM53.9781 41.0112C54.5337 40.8319 54.838 40.236 54.6595 39.6808L53.8979 39.9256C53.9416 40.0616 53.8668 40.2065 53.7324 40.2498L53.9781 41.0112ZM54.6595 39.6808L53.9281 37.4055L53.1665 37.6503L53.8979 39.9256L54.6595 39.6808ZM53.9281 37.4055C53.7495 36.8499 53.1546 36.5436 52.5987 36.723L52.8444 37.4843C52.9784 37.4411 53.1229 37.5146 53.1665 37.6503L53.9281 37.4055ZM52.5987 36.723C52.0431 36.9022 51.7388 37.4982 51.9173 38.0534L52.6789 37.8085C52.6352 37.6726 52.71 37.5277 52.8444 37.4843L52.5987 36.723ZM51.9173 38.0534L52.6487 40.3287L53.4103 40.0838L52.6789 37.8085L51.9173 38.0534ZM52.6487 40.3287C52.8273 40.8842 53.4222 41.1905 53.9781 41.0112L53.7324 40.2498C53.5984 40.2931 53.4539 40.2195 53.4103 40.0838L52.6487 40.3287ZM48.5362 43.7853C49.0077 43.4434 49.113 42.7838 48.7721 42.3119L48.1236 42.7803C48.2064 42.8949 48.1805 43.055 48.0666 43.1376L48.5362 43.7853ZM48.7721 42.3119L47.3743 40.3767L46.7257 40.8452L48.1236 42.7803L48.7721 42.3119ZM47.3743 40.3767C47.033 39.9043 46.3735 39.7982 45.9015 40.1404L46.3711 40.7881C46.4846 40.7058 46.6433 40.731 46.7257 40.8452L47.3743 40.3767ZM45.9015 40.1404C45.43 40.4823 45.3247 41.1418 45.6656 41.6138L46.3141 41.1454C46.2313 41.0308 46.2572 40.8707 46.3711 40.7881L45.9015 40.1404ZM45.6656 41.6138L47.0635 43.549L47.712 43.0805L46.3141 41.1454L45.6656 41.6138ZM47.0635 43.549C47.4047 44.0214 48.0642 44.1275 48.5362 43.7853L48.0666 43.1376C47.9531 43.2199 47.7944 43.1947 47.712 43.0805L47.0635 43.549ZM44.2214 48.107C44.5616 47.6356 44.4563 46.977 43.9853 46.6358L43.5159 47.2836C43.6292 47.3657 43.655 47.5249 43.5727 47.6388L44.2214 48.107ZM43.9853 46.6358L42.0449 45.23L41.5756 45.8779L43.5159 47.2836L43.9853 46.6358ZM42.0449 45.23C41.5735 44.8885 40.915 44.9947 40.5744 45.4666L41.2231 45.9348C41.305 45.8212 41.4627 45.7961 41.5756 45.8779L42.0449 45.23ZM40.5744 45.4666C40.2341 45.938 40.3395 46.5966 40.8105 46.9378L41.2799 46.29C41.1666 46.2079 41.1408 46.0487 41.2231 45.9348L40.5744 45.4666ZM40.8105 46.9378L42.7508 48.3436L43.2202 47.6957L41.2799 46.29L40.8105 46.9378ZM42.7508 48.3436C43.2223 48.6852 43.8808 48.5789 44.2214 48.107L43.5727 47.6388C43.4908 47.7524 43.3331 47.7775 43.2202 47.6957L42.7508 48.3436ZM41.4567 53.548C41.6362 52.9957 41.3351 52.4012 40.7824 52.2209L40.5343 52.9814C40.6662 53.0245 40.7393 53.1671 40.6959 53.3007L41.4567 53.548ZM40.7824 52.2209L38.518 51.4821L38.2698 52.2426L40.5343 52.9814L40.7824 52.2209ZM38.518 51.4821C37.9649 51.3016 37.3715 51.6048 37.1918 52.1574L37.9526 52.4047C37.996 52.2715 38.1382 52.1997 38.2698 52.2426L38.518 51.4821ZM37.1918 52.1574C37.0123 52.7098 37.3134 53.3042 37.8661 53.4845L38.1143 52.724C37.9824 52.681 37.9092 52.5383 37.9526 52.4047L37.1918 52.1574ZM37.8661 53.4845L40.1306 54.2234L40.3787 53.4628L38.1143 52.724L37.8661 53.4845ZM40.1306 54.2234C40.6836 54.4038 41.2771 54.1007 41.4567 53.548L40.6959 53.3007C40.6526 53.4339 40.5103 53.5057 40.3787 53.4628L40.1306 54.2234ZM36.0094 59.592C36.0094 60.1727 36.4794 60.6447 37.0609 60.6447V59.8447C36.9227 59.8447 36.8094 59.7322 36.8094 59.592H36.0094ZM37.0609 60.6447H39.4452V59.8447H37.0609V60.6447ZM39.4452 60.6447C40.0266 60.6447 40.4967 60.1727 40.4967 59.592H39.6967C39.6967 59.7322 39.5834 59.8447 39.4452 59.8447V60.6447ZM40.4967 59.592C40.4967 59.0113 40.0266 58.5392 39.4452 58.5392V59.3392C39.5834 59.3392 39.6967 59.4517 39.6967 59.592H40.4967ZM39.4452 58.5392H37.0609V59.3392H39.4452V58.5392ZM37.0609 58.5392C36.4794 58.5392 36.0094 59.0113 36.0094 59.592H36.8094C36.8094 59.4517 36.9227 59.3392 37.0609 59.3392V58.5392ZM79.4917 59.5929C79.4917 60.1816 79.9682 60.6601 80.5576 60.6601V59.8601C80.4115 59.8601 80.2917 59.7412 80.2917 59.5929H79.4917ZM80.5576 60.6601H82.945V59.8601H80.5576V60.6601ZM82.945 60.6601C83.5344 60.6601 84.0109 60.1816 84.0109 59.5929H83.2109C83.2109 59.7412 83.0911 59.8601 82.945 59.8601V60.6601ZM84.0109 59.5929C84.0109 59.0043 83.5344 58.5258 82.945 58.5258V59.3258C83.0911 59.3258 83.2109 59.4447 83.2109 59.5929H84.0109ZM82.945 58.5258H80.5576V59.3258H82.945V58.5258ZM80.5576 58.5258C79.9682 58.5258 79.4917 59.0043 79.4917 59.5929H80.2917C80.2917 59.4447 80.4115 59.3258 80.5576 59.3258V58.5258ZM78.5364 53.5561C78.7175 54.1163 79.3182 54.4244 79.8787 54.2424L79.6318 53.4815C79.493 53.5266 79.3431 53.4506 79.2976 53.3101L78.5364 53.5561ZM79.8787 54.2424L82.1536 53.5042L81.9066 52.7433L79.6318 53.4815L79.8787 54.2424ZM82.1536 53.5042C82.7137 53.3224 83.0197 52.7207 82.8387 52.1609L82.0775 52.4069C82.1231 52.5478 82.0457 52.6981 81.9066 52.7433L82.1536 53.5042ZM82.8387 52.1609C82.6577 51.6007 82.057 51.2926 81.4965 51.4746L81.7434 52.2355C81.8822 52.1904 82.0321 52.2664 82.0775 52.4069L82.8387 52.1609ZM81.4965 51.4746L79.2216 52.2128L79.4686 52.9737L81.7434 52.2355L81.4965 51.4746ZM79.2216 52.2128C78.6614 52.3946 78.3555 52.9963 78.5364 53.5561L79.2976 53.3101C79.2521 53.1692 79.3294 53.0189 79.4686 52.9737L79.2216 52.2128ZM75.7776 48.1163C76.1239 48.5919 76.7901 48.6966 77.2653 48.3493L76.7932 47.7034C76.6755 47.7894 76.5105 47.7638 76.4243 47.6454L75.7776 48.1163ZM77.2653 48.3493L79.1908 46.942L78.7187 46.2961L76.7932 47.7034L77.2653 48.3493ZM79.1908 46.942C79.6655 46.595 79.7693 45.9287 79.4233 45.4535L78.7766 45.9244C78.8631 46.0432 78.8369 46.2098 78.7187 46.2961L79.1908 46.942ZM79.4233 45.4535C79.077 44.9779 78.4108 44.8732 77.9356 45.2205L78.4076 45.8664C78.5253 45.7804 78.6904 45.806 78.7766 45.9244L79.4233 45.4535ZM77.9356 45.2205L76.0101 46.6278L76.4821 47.2737L78.4076 45.8664L77.9356 45.2205ZM76.0101 46.6278C75.5353 46.9748 75.4315 47.6411 75.7776 48.1163L76.4243 47.6454C76.3378 47.5266 76.364 47.36 76.4821 47.2737L76.0101 46.6278ZM71.4633 43.789C71.9383 44.135 72.6033 44.0295 72.9483 43.5541L72.3009 43.0842C72.2154 43.2019 72.0514 43.2277 71.9343 43.1424L71.4633 43.789ZM72.9483 43.5541L74.352 41.62L73.7045 41.1501L72.3009 43.0842L72.9483 43.5541ZM74.352 41.62C74.6967 41.145 74.592 40.4799 74.1174 40.1342L73.6464 40.7808C73.7639 40.8664 73.7903 41.0319 73.7045 41.1501L74.352 41.62ZM74.1174 40.1342C73.6424 39.7882 72.9774 39.8937 72.6324 40.3691L73.2799 40.839C73.3653 40.7213 73.5293 40.6955 73.6464 40.7808L74.1174 40.1342ZM72.6324 40.3691L71.2288 42.3032L71.8763 42.7731L73.2799 40.839L72.6324 40.3691ZM71.2288 42.3032C70.8841 42.7782 70.9887 43.4433 71.4633 43.789L71.9343 43.1424C71.8168 43.0568 71.7905 42.8913 71.8763 42.7731L71.2288 42.3032ZM66.0238 41.0171C66.5817 41.1983 67.1797 40.8919 67.3602 40.3344L66.5991 40.0881C66.5544 40.226 66.4073 40.3005 66.271 40.2562L66.0238 41.0171ZM67.3602 40.3344L68.0965 38.0597L67.3354 37.8134L66.5991 40.0881L67.3602 40.3344ZM68.0965 38.0597C68.2769 37.5026 67.9725 36.9035 67.415 36.7223L67.1678 37.4832C67.3044 37.5276 67.3802 37.6751 67.3354 37.8134L68.0965 38.0597ZM67.415 36.7223C66.8571 36.5411 66.2591 36.8475 66.0786 37.405L66.8397 37.6514C66.8844 37.5134 67.0315 37.4389 67.1678 37.4832L67.415 36.7223ZM66.0786 37.405L65.3422 39.6797L66.1034 39.9261L66.8397 37.6514L66.0786 37.405ZM65.3422 39.6797C65.1619 40.2369 65.4663 40.8359 66.0238 41.0171L66.271 40.2562C66.1344 40.2118 66.0586 40.0643 66.1034 39.9261L65.3422 39.6797ZM60.1145 105.384L60.3054 105.327L60.0782 104.56L59.8873 104.616L60.1145 105.384ZM60.3054 105.327C84.0269 98.3018 93.9113 78.4919 97.8749 60.6853L97.094 60.5115C93.1593 78.1883 83.3971 97.6539 60.0782 104.56L60.3054 105.327ZM97.8749 60.6853C99.8588 51.7722 100.376 43.3042 100.399 37.0703L99.5992 37.0674C99.5763 43.2632 99.0618 51.6708 97.094 60.5115L97.8749 60.6853ZM100.399 37.0703C100.411 33.9513 100.299 31.3862 100.183 29.5977L99.3848 29.6492C99.4992 31.4222 99.6106 33.9689 99.5992 37.0674L100.399 37.0703ZM100.183 29.5977C100.125 28.7033 100.067 28.0028 100.023 27.5238L99.2259 27.5976C99.2696 28.0696 99.3276 28.7627 99.3848 29.6492L100.183 29.5977ZM100.023 27.5238C100 27.2843 99.9817 27.1002 99.9685 26.975L99.1729 27.0589C99.1858 27.1809 99.2041 27.3616 99.2259 27.5976L100.023 27.5238ZM99.9685 26.9751C99.9645 26.9375 99.9611 26.9052 99.9581 26.8784L99.1628 26.9651C99.1657 26.9911 99.169 27.0223 99.1729 27.0588L99.9685 26.9751ZM99.9581 26.8785C99.9562 26.8603 99.9544 26.8446 99.953 26.8316L99.1579 26.9204C99.1593 26.933 99.161 26.9479 99.1628 26.9651L99.9581 26.8785ZM99.9529 26.8314L99.9503 26.8079L99.1553 26.8971L99.1579 26.9206L99.9529 26.8314ZM99.9502 26.8072L99.9487 26.7941L99.1539 26.8847L99.1554 26.8978L99.9502 26.8072ZM99.9487 26.7936L99.9476 26.784L99.1528 26.8755L99.1539 26.8852L99.9487 26.7936ZM99.9474 26.7827L99.9471 26.78L99.1527 26.8741L99.153 26.8768L99.9474 26.7827ZM99.5499 26.8271C99.9473 26.7821 99.9242 26.6862 99.8783 26.5988C99.8629 26.578 99.8176 26.5298 99.7863 26.5044C99.7378 26.4689 99.6928 26.453 99.6742 26.4469C99.6342 26.4338 99.6013 26.4303 99.593 26.4294C99.5698 26.4269 99.5515 26.427 99.5478 26.4271C99.5358 26.4271 99.5264 26.4277 99.5246 26.4279C99.5184 26.4282 99.5133 26.4287 99.5118 26.4289C99.5075 26.4292 99.5025 26.4298 99.4969 26.4304C99.4849 26.4316 99.4628 26.4341 99.4208 26.4389C99.3364 26.4486 99.1685 26.4681 98.8339 26.5075L98.9276 27.302C99.262 27.2626 99.4287 27.2432 99.5116 27.2337C99.5532 27.229 99.573 27.2268 99.5819 27.2258C99.5867 27.2253 99.587 27.2253 99.5853 27.2255C99.5851 27.2255 99.5807 27.2259 99.5749 27.2263C99.5732 27.2264 99.5639 27.227 99.5519 27.2271C99.5483 27.2271 99.53 27.2272 99.5068 27.2247C99.4985 27.2238 99.4656 27.2203 99.4256 27.2073C99.4069 27.2012 99.362 27.1853 99.3134 27.1497C99.2822 27.1243 99.2369 27.0761 99.2214 27.0554C99.1755 26.968 99.1524 26.872 99.5499 26.8271ZM98.9276 27.302L99.5966 27.2231L99.5029 26.4286L98.8339 26.5075L98.9276 27.302ZM99.947 26.7791L99.8682 26.1089L99.0737 26.2023L99.1525 26.8725L99.947 26.7791ZM99.4241 25.7584L98.7551 25.8373L98.8489 26.6318L99.5178 26.5529L99.4241 25.7584ZM98.7551 25.8373C86.9971 27.2242 77.4766 24.5329 70.8943 21.4971L70.5592 22.2236C77.2452 25.3072 86.9145 28.0395 98.8489 26.6318L98.7551 25.8373ZM70.8943 21.4971C67.6021 19.9787 65.0476 18.3752 63.3214 17.1558L62.8598 17.8092C64.6193 19.0521 67.2159 20.6816 70.5592 22.2236L70.8943 21.4971ZM63.3214 17.1558C62.4585 16.5463 61.8035 16.0335 61.3677 15.6762L60.8605 16.2949C61.3099 16.6633 61.9801 17.1878 62.8598 17.8092L63.3214 17.1558ZM61.3677 15.6762C61.1499 15.4976 60.9869 15.3579 60.8802 15.2646L60.3536 15.8669C60.4664 15.9655 60.6359 16.1107 60.8605 16.2949L61.3677 15.6762ZM60.8802 15.2646C60.8268 15.218 60.7876 15.183 60.7626 15.1604L60.227 15.7547C60.2549 15.7798 60.2972 15.8176 60.3536 15.8669L60.8802 15.2646ZM60.7626 15.1604C60.7501 15.1491 60.7411 15.141 60.7356 15.136L60.1961 15.7266C60.2027 15.7327 60.2131 15.7421 60.227 15.7547L60.7626 15.1604ZM60.7362 15.1365L60.7299 15.1307L60.1891 15.7202L60.1955 15.7261L60.7362 15.1365ZM60.7306 15.1313L60.7296 15.1304L60.1874 15.7187L60.1884 15.7196L60.7306 15.1313ZM60.7306 15.1313L60.2729 14.7068L59.7288 15.2932L60.1865 15.7178L60.7306 15.1313ZM59.2718 15.1307L59.2655 15.1365L59.8062 15.7261L59.8126 15.7202L59.2718 15.1307ZM59.2659 15.1361C59.2628 15.139 59.2583 15.1431 59.2523 15.1485L59.7897 15.7411C59.7962 15.7352 59.8016 15.7303 59.8057 15.7265L59.2659 15.1361ZM59.2528 15.148L59.2387 15.1608L59.7751 15.7544L59.7892 15.7416L59.2528 15.148ZM59.2391 15.1604C59.2141 15.1829 59.1749 15.218 59.1215 15.2646L59.6481 15.8669C59.7045 15.8176 59.7468 15.7799 59.7747 15.7547L59.2391 15.1604ZM59.1215 15.2646C59.0148 15.3579 58.8518 15.4976 58.634 15.6762L59.1411 16.2949C59.3658 16.1107 59.5353 15.9655 59.6481 15.8669L59.1215 15.2646ZM58.634 15.6762C58.1982 16.0335 57.5432 16.5463 56.6803 17.1558L57.1419 17.8092C58.0216 17.1878 58.6918 16.6633 59.1411 16.2949L58.634 15.6762ZM56.6803 17.1558C54.9541 18.3752 52.3996 19.9787 49.1074 21.4971L49.4425 22.2236C52.7857 20.6816 55.3824 19.0521 57.1419 17.8092L56.6803 17.1558ZM49.1074 21.4971C42.5251 24.5329 33.0046 27.2242 21.2466 25.8373L21.1528 26.6318C33.0871 28.0395 42.7565 25.3072 49.4425 22.2236L49.1074 21.4971ZM21.2466 25.8373L20.5777 25.7584L20.484 26.5529L21.1528 26.6318L21.2466 25.8373ZM20.1336 26.1089L20.0547 26.7789L20.8492 26.8725L20.9281 26.2024L20.1336 26.1089ZM20.405 27.223L21.074 27.302L21.1679 26.5075L20.4989 26.4285L20.405 27.223ZM21.1679 26.5075C20.8333 26.468 20.6654 26.4485 20.581 26.4388C20.539 26.434 20.5169 26.4315 20.5049 26.4302C20.4993 26.4296 20.4943 26.4291 20.49 26.4287C20.4885 26.4286 20.4835 26.4281 20.4774 26.4277C20.4756 26.4276 20.4662 26.427 20.4543 26.4269C20.4507 26.4269 20.4325 26.4267 20.4096 26.4292C20.4014 26.43 20.3687 26.4334 20.329 26.4462C20.3106 26.4522 20.2659 26.4678 20.2174 26.5028C20.1862 26.5279 20.1406 26.5756 20.125 26.5962C20.0783 26.6837 20.0546 26.78 20.4518 26.8269C20.8491 26.8739 20.8253 26.9701 20.7786 27.0576C20.763 27.0783 20.7175 27.126 20.6862 27.1511C20.6378 27.1861 20.593 27.2017 20.5746 27.2076C20.5349 27.2204 20.5023 27.2238 20.4941 27.2247C20.4711 27.2271 20.453 27.2269 20.4493 27.2269C20.4375 27.2268 20.4282 27.2262 20.4266 27.2261C20.4208 27.2257 20.4164 27.2253 20.4162 27.2253C20.4146 27.2252 20.4148 27.2252 20.4196 27.2257C20.4286 27.2267 20.4484 27.2288 20.49 27.2336C20.5729 27.2431 20.7396 27.2625 21.074 27.302L21.1679 26.5075ZM20.053 26.7937C20.052 26.8024 20.0506 26.815 20.0487 26.8314L20.8438 26.9203C20.8455 26.9047 20.8469 26.8929 20.8478 26.8849L20.053 26.7937ZM20.0487 26.8314C20.0451 26.8642 20.0398 26.9121 20.0332 26.9748L20.8288 27.0588C20.8352 26.9978 20.8403 26.9515 20.8438 26.9203L20.0487 26.8314ZM20.0332 26.9748C20.02 27.1 20.0013 27.2842 19.9791 27.5236L20.7756 27.5976C20.7975 27.3616 20.8159 27.1808 20.8288 27.0588L20.0332 26.9748ZM19.9791 27.5236C19.9346 28.0026 19.8759 28.7031 19.8181 29.5975L20.6164 29.6492C20.6738 28.7627 20.7318 28.0696 20.7756 27.5976L19.9791 27.5236ZM19.8181 29.5975C19.7023 31.386 19.5897 33.9511 19.6008 37.0701L20.4007 37.0673C20.3898 33.9688 20.5017 31.4221 20.6164 29.6492L19.8181 29.5975ZM19.6008 37.0701C19.6228 43.304 20.1389 51.7721 22.1221 60.6852L22.903 60.5115C20.936 51.6707 20.4227 43.2632 20.4007 37.0673L19.6008 37.0701ZM22.1221 60.6852C26.0841 78.4919 35.9686 98.3018 59.6964 105.327L59.9235 104.56C36.5984 97.654 26.8361 78.1884 22.903 60.5115L22.1221 60.6852ZM59.6964 105.327L59.8873 105.384L60.1144 104.616L59.9235 104.56L59.6964 105.327ZM21.6799 28.0489C33.5965 29.3099 43.2739 26.5544 50.0058 23.4496L49.6708 22.7232C43.0405 25.7811 33.5082 28.4961 21.7641 27.2533L21.6799 28.0489ZM50.0058 23.4496C53.4351 21.8681 56.1027 20.1948 57.9182 18.9124L57.4566 18.2589C55.6744 19.5179 53.0489 21.1652 49.6708 22.7232L50.0058 23.4496ZM57.9182 18.9124C58.8262 18.2709 59.522 17.7266 59.9943 17.3395L59.4871 16.7208C59.0284 17.0968 58.3478 17.6294 57.4566 18.2589L57.9182 18.9124ZM59.9943 17.3395C60.092 17.2594 60.1801 17.186 60.2586 17.1199L59.7431 16.5081C59.6673 16.572 59.582 16.643 59.4871 16.7208L59.9943 17.3395ZM59.7431 17.1199C59.8216 17.186 59.9097 17.2594 60.0074 17.3395L60.5146 16.7208C60.4197 16.643 60.3344 16.572 60.2586 16.5081L59.7431 17.1199ZM60.0074 17.3395C60.4797 17.7266 61.1755 18.2709 62.0835 18.9124L62.5451 18.2589C61.6539 17.6294 60.9733 17.0968 60.5146 16.7208L60.0074 17.3395ZM62.0835 18.9124C63.899 20.1948 66.5666 21.8681 69.9959 23.4496L70.3309 22.7232C66.9528 21.1652 64.3273 19.5179 62.5451 18.2589L62.0835 18.9124ZM69.9959 23.4496C76.7277 26.5544 86.4051 29.3099 98.3217 28.0489L98.2375 27.2533C86.4934 28.4961 76.9612 25.7811 70.3309 22.7232L69.9959 23.4496ZM97.8813 27.6881C97.8823 27.6996 97.8834 27.7107 97.8844 27.7221L98.6811 27.6487C98.68 27.6369 98.6789 27.6252 98.6778 27.6141L97.8813 27.6881ZM97.8845 27.7223C97.9271 28.1826 97.984 28.8632 98.0404 29.7363L98.8387 29.6848C98.7819 28.8038 98.7243 28.1158 98.681 27.6485L97.8845 27.7223ZM98.0404 29.7363C98.1531 31.4829 98.2633 33.9986 98.252 37.0623L99.052 37.0653C99.0634 33.981 98.9524 31.447 98.8387 29.6848L98.0404 29.7363ZM98.252 37.0623C98.2293 43.194 97.7197 51.4993 95.779 60.2177L96.5599 60.3916C98.5167 51.6007 99.0291 43.2349 99.052 37.0653L98.252 37.0623ZM95.779 60.2177C91.9043 77.6255 82.3912 96.4547 59.8858 103.209L60.1158 103.975C83.0216 97.1007 92.6563 77.9289 96.5599 60.3916L95.779 60.2177ZM60.1158 103.209C37.6042 96.4547 28.0912 77.6254 24.218 60.2178L23.4371 60.3916C27.3391 77.9289 36.9738 97.1007 59.8859 103.975L60.1158 103.209ZM24.218 60.2178C22.2781 51.4994 21.7697 43.1941 21.748 37.0625L20.948 37.0653C20.9698 43.235 21.4811 51.6008 23.4371 60.3916L24.218 60.2178ZM21.748 37.0625C21.7371 33.9988 21.8478 31.4831 21.9608 29.7365L21.1625 29.6848C21.0484 31.447 20.937 33.9811 20.948 37.0653L21.748 37.0625ZM21.9608 29.7365C22.0173 28.8634 22.0744 28.1828 22.1171 27.7225L21.3205 27.6486C21.2771 28.1158 21.2195 28.8038 21.1625 29.6848L21.9608 29.7365ZM22.1171 27.7225C22.1181 27.7109 22.1192 27.6995 22.1203 27.6883L21.3237 27.6139C21.3227 27.6253 21.3216 27.6369 21.3205 27.6486L22.1171 27.7225ZM60.0077 34.7181C60.5929 34.7181 61.066 34.243 61.066 33.6585H60.266C60.266 33.8026 60.1497 33.9181 60.0077 33.9181V34.7181ZM61.066 33.6585V15.9173H60.266V33.6585H61.066ZM61.066 15.9173C61.066 15.3328 60.5929 14.8578 60.0077 14.8578V15.6578C60.1497 15.6578 60.266 15.7733 60.266 15.9173H61.066ZM60.0077 14.8578C59.4225 14.8578 58.9494 15.3328 58.9494 15.9173H59.7494C59.7494 15.7733 59.8658 15.6578 60.0077 15.6578V14.8578ZM58.9494 15.9173V33.6585H59.7494V15.9173H58.9494ZM58.9494 33.6585C58.9494 34.243 59.4225 34.7181 60.0077 34.7181V33.9181C59.8658 33.9181 59.7494 33.8026 59.7494 33.6585H58.9494ZM60.0077 105.211C60.5929 105.211 61.066 104.736 61.066 104.152H60.266C60.266 104.296 60.1497 104.411 60.0077 104.411V105.211ZM61.066 104.152V85.5222H60.266V104.152H61.066ZM61.066 85.5222C61.066 84.9377 60.5929 84.4627 60.0077 84.4627V85.2627C60.1497 85.2627 60.266 85.3782 60.266 85.5222H61.066ZM60.0077 84.4627C59.4225 84.4627 58.9494 84.9377 58.9494 85.5222H59.7494C59.7494 85.3782 59.8658 85.2627 60.0077 85.2627V84.4627ZM58.9494 85.5222V104.152H59.7494V85.5222H58.9494ZM58.9494 104.152C58.9494 104.736 59.4225 105.211 60.0077 105.211V104.411C59.8658 104.411 59.7494 104.296 59.7494 104.152H58.9494ZM59.7288 14.7068L59.2702 15.1322L59.8143 15.7187L60.2729 15.2932L59.7288 14.7068ZM20.0545 26.7809L20.053 26.7933L20.8477 26.8852L20.8492 26.8729L20.0545 26.7809Z" fill="#740B99" mask="url(#path-1-outside-1)"/>
</svg>
