<svg width="120" height="120" viewBox="0 0 120 120" fill="none" xmlns="http://www.w3.org/2000/svg">
<path fill-rule="evenodd" clip-rule="evenodd" d="M58.2008 63.8643L58.1982 63.9719L58.1976 63.9965C57.9416 74.5421 57.5551 90.4602 60.5386 97.6048C61.3067 99.4395 61.6627 101.042 61.8228 101.996H76.3115C76.4129 99.3205 76.7463 98.5629 77.3984 97.0837C80.0308 91.1121 79.6507 81.4017 79.6467 81.3042C79.6454 81.2627 79.6427 75.9673 79.6454 74.2622C79.648 73.3576 79.3333 72.6975 78.7332 72.3528C78.1691 72.0294 77.4384 72.0387 76.869 72.3755C76.4742 72.6107 76.0075 73.0904 75.9835 74.0605C75.9848 74.1086 75.9848 74.1567 75.9835 74.2048L76.0542 81.224V81.2347C76.0542 81.7839 75.6128 82.2315 75.0647 82.2368H75.054C74.5059 82.2368 74.0592 81.7946 74.0539 81.244L73.9832 74.2101C73.9832 74.195 73.9831 74.1797 73.9829 74.1644C73.9826 74.1338 73.9823 74.1032 73.9832 74.0738C73.9619 73.1091 73.4911 72.636 73.0911 72.4049C72.4776 72.0468 71.6655 72.0454 71.0801 72.4009C70.576 72.7042 70.3027 73.232 70.2813 73.9349C70.284 74.0217 70.284 74.1112 70.2827 74.1994V81.2387C70.2827 81.7919 69.8346 82.2409 69.2825 82.2409C68.7304 82.2409 68.2824 81.7919 68.2824 81.2387V74.1767C68.2797 74.1032 68.2784 74.0284 68.2797 73.9549C68.2317 73.0543 67.769 72.5879 67.3716 72.3501C66.7621 71.9866 65.9567 71.9639 65.3646 72.298C64.8165 72.608 64.4925 73.1772 64.4165 73.9562L64.4258 81.2988C64.4271 81.852 63.9804 82.301 63.4283 82.3023H63.4257C62.8749 82.3023 62.4282 81.856 62.4255 81.3042L62.3975 74.3224C62.3975 74.1727 62.4042 74.0284 62.4162 73.8854L62.4135 72.298C62.4082 66.9557 62.4082 60.6514 62.4255 57.6155C62.4322 56.5118 62.0401 55.6713 61.3227 55.2517C60.7359 54.9083 60.0078 54.907 59.4224 55.241C58.7063 55.6539 58.3116 56.4997 58.3116 57.6222C58.3116 59.2906 58.2598 61.4302 58.2008 63.8643ZM59.9993 16C82.6066 16 101 34.4306 101 57.0837C101 68.3922 96.5113 78.9297 88.3595 86.7546C88.3581 86.756 88.3555 86.756 88.3541 86.7573C87.298 87.7728 86.1712 88.7456 85.003 89.6476C84.8203 89.7879 84.6056 89.856 84.3936 89.856C84.0935 89.856 83.7975 89.7211 83.6001 89.4658C83.2627 89.0276 83.3441 88.3982 83.7815 88.0601C84.8923 87.2009 85.9685 86.2763 86.9739 85.3102C86.9746 85.3095 86.9749 85.3089 86.9752 85.3083C86.9756 85.3076 86.9759 85.3069 86.9766 85.3062C94.7298 77.8634 98.9997 67.8403 98.9997 57.0837C98.9997 35.5357 81.5038 18.0043 59.9993 18.0043C38.4949 18.0043 21.0003 35.5357 21.0003 57.0837C21.0003 77.7992 37.444 95.0112 57.9297 96.0989C57.0442 92.9561 56.5402 88.9354 56.2815 84.5993C42.5528 82.7566 32.2699 71.054 32.2699 57.0837C32.2699 41.7638 44.7091 29.2981 59.9993 29.2981C65.0107 29.2981 69.9208 30.6517 74.2001 33.2133C74.6748 33.4966 74.8295 34.1126 74.5455 34.5869C74.2641 35.0626 73.6507 35.219 73.1746 34.933C69.206 32.5585 64.6493 31.3025 59.9993 31.3025C45.8119 31.3025 34.2702 42.8689 34.2702 57.0837C34.2702 69.9195 43.6263 80.6868 56.1774 82.5575C56.0388 79.3319 56.0107 75.9993 56.0348 72.791C48.9177 70.9925 43.8183 64.5078 43.8183 57.0837C43.8183 56.6641 43.8343 56.2459 43.865 55.8356C43.909 55.2824 44.385 54.8749 44.9398 54.9123C45.4905 54.9564 45.9039 55.4388 45.8613 55.9893C45.8319 56.3514 45.8186 56.7162 45.8186 57.0837C45.8186 63.4294 50.0645 68.9975 56.0588 70.7333C56.0921 68.3254 56.1468 66.0177 56.1974 63.9225L56.2 63.8175C56.259 61.4023 56.3108 59.2792 56.3108 57.6222C56.3108 55.7795 57.0829 54.2789 58.4244 53.5053C59.6299 52.8104 61.1248 52.8158 62.329 53.52C63.6732 54.3043 64.436 55.8009 64.4253 57.6289C64.4106 60.3334 64.408 65.6355 64.412 70.5355C65.6228 69.866 67.187 69.9035 68.3992 70.6304C68.7246 70.8268 69.0126 71.0593 69.258 71.3292C69.4847 71.0807 69.7501 70.8642 70.0475 70.6838C71.257 69.9529 72.8465 69.9462 74.0921 70.6691C74.4268 70.8629 74.7202 71.0994 74.9722 71.372C75.2229 71.0914 75.5176 70.8468 75.8537 70.6491C77.0338 69.9542 78.554 69.9395 79.7276 70.613C80.9517 71.3172 81.6505 72.6494 81.6452 74.2676C81.6425 75.9699 81.6452 81.2601 81.6452 81.2601C81.6625 81.6355 82.0452 91.4996 79.2368 97.8747C78.5594 99.4087 78.334 99.9205 78.286 103.013C78.2767 103.56 77.8313 104 77.2859 104H60.9475C60.4247 104 59.9913 103.595 59.95 103.074C59.9487 103.054 59.774 100.961 58.6951 98.3798C58.6772 98.3381 58.6616 98.2925 58.646 98.247C58.6326 98.208 58.6192 98.169 58.6045 98.1326C36.7053 97.3897 19 79.1261 19 57.0837C19 34.4306 37.392 16 59.9993 16ZM71.7873 64.6328C71.4268 65.1353 71.0304 65.6181 70.6089 66.0651C70.2338 66.4658 70.2523 67.0926 70.6526 67.4669C70.8449 67.6468 71.0888 67.7367 71.334 67.7367C71.5991 67.7367 71.8629 67.6322 72.0591 67.4233C72.5402 66.9128 72.9923 66.3626 73.4032 65.79C73.4045 65.7887 73.4045 65.7873 73.4045 65.786C75.3677 63.0524 76.4056 59.8242 76.4056 56.4505C76.4056 47.6017 69.1892 40.4034 60.3199 40.4034C55.1595 40.4034 50.2788 42.9002 47.2605 47.082C46.9384 47.5263 47.0404 48.1466 47.4845 48.4666C47.9325 48.788 48.5529 48.6848 48.8724 48.2418C51.5182 44.5758 55.7984 42.3871 60.3199 42.3871C68.093 42.3871 74.4172 48.6954 74.4172 56.4505C74.4172 59.4076 73.5079 62.2351 71.79 64.6302L71.7873 64.6328ZM83.9896 69.7367C84.3543 69.7367 84.7044 69.5319 84.8788 69.1763C85.0307 68.8651 85.1747 68.5499 85.3161 68.2333C85.3161 68.2327 85.3168 68.232 85.3174 68.2313L85.3175 68.2312C85.3181 68.2306 85.3187 68.2299 85.3187 68.2293C86.9121 64.6096 87.7207 60.7501 87.7207 56.7532C87.7207 51.0307 86.0401 45.5277 82.86 40.8398C82.5508 40.3818 81.9311 40.2646 81.4806 40.5825C81.0314 40.9017 80.9191 41.5308 81.2296 41.9889C84.1799 46.3373 85.7389 51.4429 85.7389 56.7532C85.7389 60.4618 84.9898 64.0451 83.5087 67.4008V67.4035C83.3792 67.6958 83.2431 67.9881 83.1031 68.2764C82.8586 68.7749 83.0595 69.3811 83.5496 69.6316C83.691 69.703 83.8403 69.7367 83.9896 69.7367Z" fill="#740B99"/>
</svg>
