<svg width="1440" height="673" viewBox="0 0 1440 673" fill="none" xmlns="http://www.w3.org/2000/svg">
<path d="M0 0H1440V543.079V543.079C963.845 628.999 476.155 628.999 0 543.079V543.079V0Z" fill="url(#paint0_radial)"/>
<mask id="mask0" mask-type="alpha" maskUnits="userSpaceOnUse" x="0" y="0" width="1440" height="608">
<path d="M0 0H1440V543.079V543.079C963.845 628.999 476.155 628.999 0 543.079V543.079V0Z" fill="url(#paint1_radial)"/>
</mask>
<g mask="url(#mask0)">
<g style="mix-blend-mode:lighten" opacity="0.3">
<path opacity="0.2" fill-rule="evenodd" clip-rule="evenodd" d="M719.338 1137.71C998.904 1137.71 1225.76 911.458 1226.03 632.357C1226.3 353.256 999.886 127 720.319 127C440.752 127 213.899 353.256 213.628 632.357C213.357 911.458 439.771 1137.71 719.338 1137.71Z" fill="url(#paint2_linear)"/>
<path opacity="0.4" fill-rule="evenodd" clip-rule="evenodd" d="M719.61 1000.96C923.556 1000.96 1089.05 835.909 1089.25 632.303C1089.44 428.696 924.272 263.641 720.325 263.641C516.379 263.641 350.887 428.696 350.689 632.303C350.492 835.909 515.663 1000.96 719.61 1000.96Z" fill="url(#paint3_linear)"/>
<path fill-rule="evenodd" clip-rule="evenodd" d="M719.271 847.547C838.431 847.547 935.122 751.11 935.238 632.15C935.353 513.189 838.849 416.752 719.689 416.752C600.53 416.752 503.838 513.189 503.723 632.15C503.607 751.11 600.111 847.547 719.271 847.547Z" fill="url(#paint4_linear)"/>
</g>
</g>
<defs>
<radialGradient id="paint0_radial" cx="0" cy="0" r="1" gradientUnits="userSpaceOnUse" gradientTransform="translate(1946.5 -47.9993) rotate(169.687) scale(4689.26 10033.5)">
<stop stop-color="#740F97"/>
<stop offset="0.456115" stop-color="#B675A8"/>
<stop offset="1" stop-color="#580775"/>
</radialGradient>
<radialGradient id="paint1_radial" cx="0" cy="0" r="1" gradientUnits="userSpaceOnUse" gradientTransform="translate(1946.5 -47.9993) rotate(169.687) scale(4689.26 10033.5)">
<stop stop-color="#740F97"/>
<stop offset="0.456115" stop-color="#B675A8"/>
<stop offset="1" stop-color="#580775"/>
</radialGradient>
<linearGradient id="paint2_linear" x1="-297.241" y1="623.019" x2="717.176" y2="1627.83" gradientUnits="userSpaceOnUse">
<stop stop-color="#FBB63F"/>
<stop offset="0.981306" stop-color="#B069A1"/>
</linearGradient>
<linearGradient id="paint3_linear" x1="-21.9938" y1="625.49" x2="718.031" y2="1358.51" gradientUnits="userSpaceOnUse">
<stop stop-color="#FBB63F"/>
<stop offset="0.981306" stop-color="#B069A1"/>
</linearGradient>
<linearGradient id="paint4_linear" x1="285.975" y1="628.169" x2="718.349" y2="1056.45" gradientUnits="userSpaceOnUse">
<stop stop-color="#FBB63F"/>
<stop offset="0.981306" stop-color="#B069A1"/>
</linearGradient>
</defs>
</svg>
