<svg width="320" height="491" viewBox="0 0 320 491" fill="none" xmlns="http://www.w3.org/2000/svg">
<rect y="13" width="320" height="478" fill="url(#paint0_radial)"/>
<mask id="mask0" mask-type="alpha" maskUnits="userSpaceOnUse" x="0" y="13" width="320" height="478">
<rect y="13" width="320" height="478" fill="url(#paint1_linear)"/>
</mask>
<g mask="url(#mask0)">
<g style="mix-blend-mode:lighten" opacity="0.3">
<path opacity="0.2" fill-rule="evenodd" clip-rule="evenodd" d="M160.322 -229C15.5538 -229 -101.856 -111.899 -101.921 32.5534C-101.986 177.005 15.3193 294.107 160.087 294.107C304.855 294.107 422.265 177.005 422.33 32.5535C422.394 -111.898 305.089 -229 160.322 -229Z" fill="url(#paint2_linear)"/>
<path opacity="0.4" fill-rule="evenodd" clip-rule="evenodd" d="M160.217 -158.224C54.6083 -158.224 -31.043 -72.7978 -31.0903 32.581C-31.1375 137.96 54.4373 223.386 160.046 223.386C265.655 223.386 351.307 137.96 351.354 32.581C351.401 -72.7978 265.826 -158.224 160.217 -158.224Z" fill="url(#paint3_linear)"/>
<path fill-rule="evenodd" clip-rule="evenodd" d="M160.434 -78.8206C98.7301 -78.8206 48.6868 -28.9087 48.6592 32.6608C48.6316 94.2303 98.6302 144.142 160.334 144.142C222.038 144.142 272.081 94.2304 272.109 32.6609C272.137 -28.9087 222.138 -78.8206 160.434 -78.8206Z" fill="url(#paint4_linear)"/>
</g>
</g>
<defs>
<radialGradient id="paint0_radial" cx="0" cy="0" r="1" gradientUnits="userSpaceOnUse" gradientTransform="translate(432.556 -21.0916) rotate(149.818) scale(1186 6261.38)">
<stop stop-color="#740F97"/>
<stop offset="0.456115" stop-color="#B675A8"/>
<stop offset="1" stop-color="#580775"/>
</radialGradient>
<linearGradient id="paint1_linear" x1="-191.444" y1="235.807" x2="488.692" y2="390.382" gradientUnits="userSpaceOnUse">
<stop stop-color="#361F93"/>
<stop offset="1" stop-color="#740B99"/>
</linearGradient>
<linearGradient id="paint2_linear" x1="686.874" y1="37.3866" x2="161.574" y2="-482.936" gradientUnits="userSpaceOnUse">
<stop stop-color="#FBB63F"/>
<stop offset="0.981306" stop-color="#B069A1"/>
</linearGradient>
<linearGradient id="paint3_linear" x1="544.341" y1="36.1068" x2="161.13" y2="-343.472" gradientUnits="userSpaceOnUse">
<stop stop-color="#FBB63F"/>
<stop offset="0.981306" stop-color="#B069A1"/>
</linearGradient>
<linearGradient id="paint4_linear" x1="384.865" y1="34.7209" x2="160.967" y2="-187.055" gradientUnits="userSpaceOnUse">
<stop stop-color="#FBB63F"/>
<stop offset="0.981306" stop-color="#B069A1"/>
</linearGradient>
</defs>
</svg>
