<svg width="748" height="189" viewBox="0 0 748 189" fill="none" xmlns="http://www.w3.org/2000/svg">
<g opacity="0.05">
<path d="M265.614 20.979L211.302 187H170.034L133.509 74.5801L95.7985 187H54.7676L0.217773 20.979H40.0628L77.5362 137.668L116.67 20.979H152.246L190.193 138.617L228.853 20.979H265.614Z" fill="#740B99"/>
<path d="M365.485 57.5037C381.296 57.5037 394.024 62.2471 403.669 71.734C413.473 81.221 418.374 95.2932 418.374 113.951V187H381.375V119.643C381.375 109.524 379.161 102.013 374.734 97.1116C370.307 92.0519 363.903 89.522 355.523 89.522C346.194 89.522 338.763 92.4472 333.229 98.2974C327.695 103.99 324.928 112.528 324.928 123.912V187H287.929V11.0178H324.928V72.6827C329.83 67.7812 335.759 64.0654 342.716 61.5356C349.673 58.8476 357.263 57.5037 365.485 57.5037Z" fill="#740B99"/>
<path d="M451.912 59.401H488.911V187H451.912V59.401ZM470.411 41.6131C463.612 41.6131 458.078 39.6366 453.809 35.6838C449.54 31.7309 447.406 26.8293 447.406 20.979C447.406 15.1288 449.54 10.2272 453.809 6.2743C458.078 2.32142 463.612 0.344971 470.411 0.344971C477.21 0.344971 482.744 2.24236 487.013 6.03713C491.283 9.8319 493.417 14.5754 493.417 20.2675C493.417 26.434 491.283 31.5727 487.013 35.6838C482.744 39.6366 477.21 41.6131 470.411 41.6131Z" fill="#740B99"/>
<path d="M605.548 180.834C601.911 183.522 597.405 185.577 592.029 187C586.811 188.265 581.277 188.897 575.427 188.897C560.248 188.897 548.468 185.024 540.088 177.276C531.866 169.528 527.755 158.144 527.755 143.123V90.7079H508.07V62.2471H527.755V31.1775H564.754V62.2471H596.535V90.7079H564.754V142.649C564.754 148.025 566.098 152.215 568.786 155.219C571.632 158.065 575.585 159.488 580.645 159.488C586.495 159.488 591.476 157.907 595.587 154.745L605.548 180.834Z" fill="#740B99"/>
<path d="M747.37 123.675C747.37 124.149 747.133 127.47 746.659 133.636H650.129C651.868 141.542 655.979 147.788 662.462 152.373C668.945 156.958 677.009 159.251 686.654 159.251C693.295 159.251 699.145 158.302 704.205 156.405C709.422 154.349 714.245 151.187 718.672 146.918L738.357 168.263C726.341 182.019 708.79 188.897 685.705 188.897C671.317 188.897 658.588 186.13 647.52 180.596C636.452 174.904 627.914 167.078 621.906 157.116C615.897 147.155 612.893 135.85 612.893 123.201C612.893 110.709 615.818 99.4833 621.668 89.522C627.677 79.4026 635.82 71.5759 646.097 66.0419C656.533 60.3497 668.154 57.5037 680.962 57.5037C693.453 57.5037 704.758 60.1916 714.877 65.5675C724.997 70.9435 732.902 78.6911 738.595 88.8105C744.445 98.7718 747.37 110.393 747.37 123.675ZM681.199 85.4901C672.819 85.4901 665.782 87.8618 660.09 92.6053C654.398 97.3487 650.92 103.831 649.655 112.053H712.506C711.241 103.99 707.762 97.5859 702.07 92.8424C696.378 87.9409 689.421 85.4901 681.199 85.4901Z" fill="#740B99"/>
</g>
</svg>
