<svg width="108" height="56" viewBox="0 0 108 56" fill="none" xmlns="http://www.w3.org/2000/svg">
<path d="M29.9518 54.6182C29.9518 53.4029 31.7385 34.2399 31.7385 34.2399L44.6158 25.7972" stroke="#740B99" stroke-width="2" stroke-linejoin="round"/>
<path d="M44.6463 25.7972L45.942 41.6283L53.4994 35.0528L44.6463 25.7972Z" stroke="#740B99" stroke-width="2" stroke-linecap="round" stroke-linejoin="round"/>
<path d="M51.7169 42.6012L48.6264 54.6173" stroke="#740B99" stroke-width="2" stroke-linecap="round" stroke-linejoin="round"/>
<path d="M77.0479 54.6182C77.0479 53.4029 75.2612 34.2399 75.2612 34.2399L62.384 25.7972" stroke="#740B99" stroke-width="2" stroke-linejoin="round"/>
<path d="M62.3525 25.7972L61.0487 41.6283L53.4994 35.0528L62.3525 25.7972Z" stroke="#740B99" stroke-width="2" stroke-linecap="round" stroke-linejoin="round"/>
<path d="M53.4994 35.0528L49.4753 38.5618L51.7127 42.6021H53.4994H55.2861L57.5235 38.5618L53.4994 35.0528Z" stroke="#740B99" stroke-width="2" stroke-linecap="round" stroke-linejoin="round"/>
<path d="M55.2851 42.6012L58.3677 54.6173" stroke="#740B99" stroke-width="2" stroke-linecap="round" stroke-linejoin="round"/>
<path d="M62.3525 47.012H69.25" stroke="#740B99" stroke-width="2" stroke-linecap="round" stroke-linejoin="round"/>
<path d="M62.8935 12.5251C62.8935 6.15891 58.6842 1 53.5011 1C48.318 1 44.1087 6.15891 44.1087 12.5251C44.1087 18.8913 48.3099 24.0583 53.5011 24.0583C58.6922 24.0583 62.8935 18.8994 62.8935 12.5251Z" stroke="#740B99" stroke-width="2" stroke-linecap="round" stroke-linejoin="round"/>
<path d="M75.0537 34.4249L83.7298 28.7509" stroke="#740B99" stroke-width="2" stroke-linejoin="round"/>
<path d="M89.6785 34.9722L83.7308 28.7509" stroke="#740B99" stroke-width="2" stroke-linecap="round" stroke-linejoin="round"/>
<path d="M106.002 50.5206C106.002 49.7158 104.311 34.424 104.311 34.424L95.6272 28.7902" stroke="#740B99" stroke-width="2" stroke-linejoin="round"/>
<path d="M95.6234 28.743L89.6758 34.9724V47.0126" stroke="#740B99" stroke-width="2" stroke-linecap="round" stroke-linejoin="round"/>
<path d="M89.6761 27.5831C93.1609 27.5831 95.9859 24.1131 95.9859 19.8326C95.9859 15.5521 93.1609 12.0821 89.6761 12.0821C86.1912 12.0821 83.3661 15.5521 83.3661 19.8326C83.3661 24.1131 86.1912 27.5831 89.6761 27.5831Z" stroke="#740B99" stroke-width="2" stroke-linecap="round" stroke-linejoin="round"/>
<path d="M31.9471 34.4249L23.2711 28.7509" stroke="#740B99" stroke-width="2" stroke-linejoin="round"/>
<path d="M17.3229 34.9722L23.2706 28.7509" stroke="#740B99" stroke-width="2" stroke-linecap="round" stroke-linejoin="round"/>
<path d="M1 50.5206C1 49.7158 2.69012 34.424 2.69012 34.424L11.3662 28.7902" stroke="#740B99" stroke-width="2" stroke-linejoin="round"/>
<path d="M11.3716 28.743L17.3274 34.9724V47.0126" stroke="#740B99" stroke-width="2" stroke-linecap="round" stroke-linejoin="round"/>
<path d="M17.3231 27.5831C20.808 27.5831 23.633 24.1131 23.633 19.8326C23.633 15.5521 20.808 12.0821 17.3231 12.0821C13.8383 12.0821 11.0132 15.5521 11.0132 19.8326C11.0132 24.1131 13.8383 27.5831 17.3231 27.5831Z" stroke="#740B99" stroke-width="2" stroke-linecap="round" stroke-linejoin="round"/>
</svg>
