<svg width="85" height="98" viewBox="0 0 85 98" fill="none" xmlns="http://www.w3.org/2000/svg">
<path d="M58.8626 96.2095L82.9984 91.2066L79.8095 75.2382C79.0964 71.7008 77.1894 68.5159 74.4081 66.2168C72.8888 64.8867 71.0772 63.9335 69.1205 63.4347L55.4786 59.4731C55.1895 59.3879 54.9152 59.259 54.6651 59.0908C54.3108 58.8494 54.012 58.5351 53.789 58.169C53.5659 57.8028 53.4236 57.3932 53.3717 56.9676L52.7453 51.5661C56.894 47.7916 58.3095 44.432 58.5291 39.6325C58.5942 32.6123 55.6413 19.3934 55.6413 19.3934C52.3874 8.2732 42.1051 8.94838 42.1051 8.94838C42.1051 8.94838 31.831 8.2732 28.569 19.3934C28.569 19.3934 25.6161 32.6123 25.673 39.6325C25.9008 44.432 27.2999 47.7672 31.4649 51.5661L30.8304 56.9676C30.7755 57.393 30.6293 57.8015 30.4018 58.1651C30.1744 58.5288 29.871 58.839 29.5126 59.0745C29.263 59.2435 28.9885 59.3725 28.6991 59.4568L15.0572 63.4184C13.1012 63.919 11.29 64.872 9.76964 66.2005C6.99336 68.5026 5.08984 71.6866 4.37632 75.2219L1.1875 91.1904L25.3232 96.1932" stroke="#740B99" stroke-width="2" stroke-miterlimit="10" stroke-linecap="round"/>
<path d="M53.2198 55.7056L42.0915 65.6625L30.9632 55.7056" stroke="#740B99" stroke-width="2" stroke-linecap="round" stroke-linejoin="round"/>
<path d="M57.1776 65.029L49.3275 72.5699L42.0876 65.6635" stroke="#740B99" stroke-width="2" stroke-miterlimit="10" stroke-linecap="round"/>
<path d="M26.9864 65.029L34.8445 72.5699L42.0844 65.6635" stroke="#740B99" stroke-width="2" stroke-miterlimit="10" stroke-linecap="round"/>
<path d="M42.0876 84.1963V96.9515" stroke="#740B99" stroke-width="2" stroke-miterlimit="10" stroke-linecap="round"/>
<path d="M42.0876 78.1913V71.8544" stroke="#740B99" stroke-width="2" stroke-linecap="round" stroke-linejoin="round" stroke-dasharray="0.01 5"/>
<path d="M42.0876 1C50.0515 1 58.3977 5.43343 61.733 12.8848C63.0877 16.2225 63.9244 19.7475 64.2141 23.3379C64.7998 28.3733 65.0276 33.1566 67.468 37.7039C68.2706 39.3934 69.4958 40.8472 71.0249 41.9246C72.554 43.002 74.3354 43.6664 76.1965 43.8537C74.4449 46.535 71.9333 48.6329 68.983 49.8791C66.0327 51.1254 62.7776 51.4632 59.6342 50.8496" stroke="#740B99" stroke-width="2" stroke-miterlimit="10" stroke-linecap="round"/>
<path d="M42.0913 1C34.1274 1 25.8219 5.43343 22.4459 12.8848C21.0912 16.2225 20.2545 19.7475 19.9649 23.3379C19.3792 28.3733 19.1514 33.1566 16.711 37.7039C15.9077 39.393 14.6823 40.8463 13.1533 41.9236C11.6243 43.0009 9.84334 43.6657 7.98242 43.8537C9.73403 46.535 12.2456 48.6329 15.1959 49.8791C18.1463 51.1254 21.4013 51.4632 24.5447 50.8496" stroke="#740B99" stroke-width="2" stroke-miterlimit="10" stroke-linecap="round"/>
</svg>
