<svg width="39" height="55" viewBox="0 0 39 55" fill="none" xmlns="http://www.w3.org/2000/svg">
<path d="M19.3555 12C15.4965 12 12.3555 15.141 12.3555 19C12.3555 22.859 15.4965 26 19.3555 26C23.2145 26 26.3555 22.859 26.3555 19C26.3555 15.141 23.2145 12 19.3555 12ZM19.3555 24C16.5985 24 14.3555 21.757 14.3555 19C14.3555 16.243 16.5985 14 19.3555 14C22.1125 14 24.3555 16.243 24.3555 19C24.3555 21.757 22.1125 24 19.3555 24Z" fill="#740B99"/>
<path d="M32.7374 5.617C29.1154 1.995 24.2994 0 19.1774 0C14.0544 0 9.23945 1.995 5.61745 5.617C-1.08555 12.319 -1.91855 24.929 3.81345 32.569L19.1774 54.757L34.5184 32.6C40.2734 24.929 39.4404 12.319 32.7374 5.617ZM32.8964 31.431L19.1774 51.243L5.43645 31.4C0.237448 24.468 0.982448 13.08 7.03245 7.031C10.2764 3.787 14.5894 2 19.1774 2C23.7654 2 28.0784 3.787 31.3234 7.031C37.3734 13.08 38.1184 24.468 32.8964 31.431Z" fill="#740B99"/>
</svg>
