<svg width="55" height="55" viewBox="0 0 55 55" fill="none" xmlns="http://www.w3.org/2000/svg">
<path d="M54.7303 49.6416C54.6704 49.414 54.5224 49.2198 54.3192 49.1013L27.8517 33.6787C27.6484 33.5602 27.4059 33.5277 27.1789 33.5875C26.9671 33.6434 26.785 33.7762 26.665 33.9581L16.8171 28.2198C17.4347 27.6709 17.8249 26.8713 17.8249 25.9819V25.6782H19.9587C20.4487 25.6782 20.8458 25.2811 20.8458 24.7911V22.1968H26.3206C28.0303 22.1968 29.4214 20.8057 29.4214 19.096V6.921C29.4214 5.21127 28.0303 3.82019 26.3206 3.82019H17.9993V3.16858C17.9993 1.42148 16.5779 0 14.8307 0C13.0835 0 11.6621 1.42148 11.6621 3.16858V3.82019H3.34082C1.63109 3.82019 0.240124 5.21127 0.240124 6.921V19.0961C0.240124 20.8058 1.63109 22.1969 3.34082 22.1969H8.81573V24.7912C8.81573 25.2813 9.21279 25.6783 9.70282 25.6783H11.8365V25.9821C11.8365 27.1458 12.5043 28.1559 13.4765 28.6513L12.4353 30.4381C12.3169 30.6414 12.284 30.8834 12.3441 31.1109C12.4041 31.3385 12.5521 31.5327 12.7553 31.6512L24.1431 38.2868C23.9296 38.7032 24.0759 39.2183 24.4851 39.4569L50.9525 54.8794C51.093 54.9611 51.2467 55.0001 51.3984 55.0001C51.7037 55.0001 52.0009 54.8423 52.1657 54.5595L54.6393 50.3145C54.7575 50.1112 54.7904 49.8692 54.7303 49.6416ZM6.3457 20.4226V5.59438H23.3158V20.4226H6.3457ZM27.6472 6.921V19.0961C27.6472 19.8276 27.0521 20.4227 26.3206 20.4227H25.09V5.59438H26.3206C27.052 5.59438 27.6472 6.18944 27.6472 6.921ZM13.4363 3.16858C13.4363 2.39965 14.0618 1.77419 14.8307 1.77419C15.5996 1.77419 16.2251 2.39965 16.2251 3.16858V3.82019H13.4363V3.16858ZM2.01431 19.096V6.921C2.01431 6.18944 2.60938 5.59438 3.34082 5.59438H4.57151V20.4226H3.34082C2.60938 20.4226 2.01431 19.8275 2.01431 19.096ZM10.5899 22.1968H19.0716V23.904H10.5899V22.1968ZM16.0508 25.6782V25.9819C16.0508 26.6547 15.5035 27.202 14.8308 27.202C14.1582 27.202 13.6108 26.6546 13.6108 25.9819V25.6782H16.0508ZM15.1505 29.3022L25.7696 35.4899L25.0341 36.7525L14.4148 30.5648L15.1505 29.3022ZM51.0792 52.8997L26.1446 38.3705L27.7248 35.6583L52.6595 50.1876L51.0792 52.8997Z" fill="#740B99"/>
</svg>
