<svg width="62" height="35" viewBox="0 0 62 35" fill="none" xmlns="http://www.w3.org/2000/svg">
<path d="M20.5856 20.5885H18.5268V22.6473H20.5856V20.5885Z" fill="#740B99"/>
<path d="M20.5856 24.7041H18.5268V26.7629H20.5856V24.7041Z" fill="#740B99"/>
<path d="M20.5856 28.8223H18.5268V30.8811H20.5856V28.8223Z" fill="#740B99"/>
<path d="M20.5856 16.4703H18.5268V18.5291H20.5856V16.4703Z" fill="#740B99"/>
<path d="M20.5856 12.3521H18.5268V14.4109H20.5856V12.3521Z" fill="#740B99"/>
<path d="M20.5856 8.23645H18.5268V10.2953H20.5856V8.23645Z" fill="#740B99"/>
<path d="M20.5856 4.11823H18.5268V6.17705H20.5856V4.11823Z" fill="#740B99"/>
<path d="M6.17635 4.11755H4.11752V6.17638H6.17635V4.11755Z" fill="#740B99"/>
<path d="M57.6444 4.11823H55.5855V6.17705H57.6444V4.11823Z" fill="#740B99"/>
<path d="M57.6444 28.8223H55.5855V30.8811H57.6444V28.8223Z" fill="#740B99"/>
<path d="M6.17635 28.8236H4.11752V30.8824H6.17635V28.8236Z" fill="#740B99"/>
<path d="M60.7353 12.3529C61.3038 12.3529 61.7647 11.892 61.7647 11.3235V1.02941C61.7647 0.460919 61.3038 0 60.7353 0H1.02941C0.460919 0 0 0.460919 0 1.02941V11.3235C0 11.892 0.460919 12.3529 1.02941 12.3529C3.872 12.3529 6.17647 14.6574 6.17647 17.5C6.17647 20.3426 3.872 22.6471 1.02941 22.6471C0.460919 22.6471 0 23.108 0 23.6765V33.9706C0 34.5391 0.460919 35 1.02941 35H60.7353C61.3038 35 61.7647 34.5391 61.7647 33.9706V23.6765C61.7647 23.108 61.3038 22.6471 60.7353 22.6471C57.8927 22.6471 55.5882 20.3426 55.5882 17.5C55.5882 14.6574 57.8927 12.3529 60.7353 12.3529ZM53.5968 18.5238C54.0513 21.6905 56.5393 24.1783 59.7059 24.6328V32.9412H2.05882V24.6328C5.99812 24.0674 8.73327 20.4157 8.16787 16.4763C7.71338 13.3097 5.22555 10.8217 2.05882 10.3672V2.05882H59.7059V10.3672C55.7666 10.9326 53.0314 14.5843 53.5968 18.5238Z" fill="#740B99"/>
<path d="M30.8825 7.20569C28.6084 7.20569 26.7648 9.04924 26.7648 11.3233C26.7648 13.5974 28.6084 15.441 30.8825 15.441C33.1566 15.441 35.0001 13.5974 35.0001 11.3233C35.0001 9.04924 33.1566 7.20569 30.8825 7.20569ZM30.8825 13.3822C29.7454 13.3822 28.8237 12.4604 28.8237 11.3233C28.8237 10.1862 29.7454 9.26451 30.8825 9.26451C32.0196 9.26451 32.9413 10.1862 32.9413 11.3233C32.9413 12.4604 32.0196 13.3822 30.8825 13.3822Z" fill="#740B99"/>
<path d="M43.235 19.5587C40.9609 19.5587 39.1174 21.4023 39.1174 23.6764C39.1174 25.9505 40.9609 27.794 43.235 27.794C45.5091 27.794 47.3527 25.9505 47.3527 23.6764C47.3527 21.4023 45.5091 19.5587 43.235 19.5587ZM43.235 25.7352C42.0979 25.7352 41.1762 24.8135 41.1762 23.6764C41.1762 22.5392 42.0979 21.6175 43.235 21.6175C44.3722 21.6175 45.2939 22.5392 45.2939 23.6764C45.2939 24.8135 44.3722 25.7352 43.235 25.7352Z" fill="#740B99"/>
<path d="M44.5688 8.53418L28.0985 25.0044L29.5543 26.4602L46.0245 9.98997L44.5688 8.53418Z" fill="#740B99"/>
</svg>
