<svg width="52" height="75" viewBox="0 0 52 75" fill="none" xmlns="http://www.w3.org/2000/svg">
<path d="M17.9854 25.8738C17.9854 21.2287 21.768 17.446 26.4132 17.446C31.0583 17.446 34.841 21.2287 34.841 25.8738C34.841 30.519 31.0583 34.3016 26.4132 34.3016C21.768 34.3016 17.9854 30.519 17.9854 25.8738Z" stroke="#740B99" stroke-width="2"/>
<path d="M43.7324 8.55545L43.7324 8.5555C48.0435 12.8659 50.5058 19.1235 50.9331 25.5955C51.3603 32.0669 49.7458 38.6479 46.0383 43.5897L46.0269 43.6049L46.016 43.6206L26.1765 72.2748L6.30598 43.5788L6.29515 43.5631L6.28374 43.5479C2.59227 38.6277 0.984996 32.0577 1.41603 25.591C1.8471 19.1238 4.30948 12.8659 8.62057 8.5555L8.62062 8.55545C13.3113 3.86473 19.542 1.2832 26.1765 1.2832C32.8097 1.2832 39.0417 3.86475 43.7324 8.55545Z" stroke="#740B99" stroke-width="2"/>
</svg>
