<svg width="108" height="62" viewBox="0 0 108 62" fill="none" xmlns="http://www.w3.org/2000/svg">
<path d="M78.8722 33.7969C66.7577 41.9136 57.7689 28.5473 57.7689 28.5473C53.4965 22.7001 50.4356 28.7412 50.4356 28.7412C48.1903 34.2008 44.9517 33.7081 43.0376 32.7793C42.5727 32.5407 42.2064 32.1463 42.0027 31.6651C41.7989 31.1839 41.7708 30.6464 41.9231 30.1465L43.3607 25.1957C43.6768 24.1267 44.2221 23.1394 44.9585 22.3025C45.695 21.4657 46.6049 20.7993 47.625 20.3499L53.0765 17.927C55.031 17.0629 56.8239 17.2647 59.2387 17.7493L73.453 21.1172L78.8722 33.7969Z" stroke="#740B99" stroke-width="2" stroke-miterlimit="10"/>
<path d="M81.8753 40.814L72.5148 43.7861L66.6515 35.6129C66.6515 35.6129 73.492 38.4557 78.8708 33.7957L81.8753 40.814Z" stroke="#740B99" stroke-width="2" stroke-miterlimit="10"/>
<path d="M1 2V44.4975L9.31049 47.7926L24.2113 11.4089L1 2Z" stroke="#740B99" stroke-width="2" stroke-miterlimit="10"/>
<path d="M23.0088 14.3495L33.6211 18.8237L24.2122 40.8155L13.818 36.7773" stroke="#740B99" stroke-width="2" stroke-miterlimit="10"/>
<path d="M106.072 4.30143V46.7989L97.7616 50.094L82.8609 13.7103L106.072 4.30143Z" stroke="#740B99" stroke-width="2" stroke-miterlimit="10"/>
<path d="M84.0655 16.6509L73.4532 21.1171L82.8621 43.117L93.2482 39.0707" stroke="#740B99" stroke-width="2" stroke-miterlimit="10"/>
<path d="M65.9594 35.5655L74.0357 45.6852C74.3394 46.066 74.5416 46.5176 74.6236 46.9978C74.7055 47.478 74.6644 47.9711 74.5042 48.4311V48.4311C74.3181 48.9628 73.9981 49.4376 73.5752 49.8098C73.1522 50.1819 72.6406 50.4388 72.0895 50.5556C71.5384 50.6725 70.9665 50.6454 70.429 50.477C69.8914 50.3086 69.4062 50.0045 69.0203 49.5941L57.9316 37.835" stroke="#740B99" stroke-width="2" stroke-miterlimit="10" stroke-linecap="round"/>
<path d="M53.029 43.3674L62.3491 53.1235C62.9252 53.7219 63.6454 54.1623 64.4406 54.4022C65.2359 54.6421 66.0795 54.6735 66.8904 54.4935C67.7014 54.3135 68.4524 53.928 69.0714 53.3742C69.6904 52.8203 70.1567 52.1166 70.4254 51.3306L70.4739 51.169" stroke="#740B99" stroke-width="2" stroke-miterlimit="10" stroke-linecap="round"/>
<path d="M48.5524 47.9544L56.2652 56.5153C57.1085 57.4889 58.3006 58.0923 59.5846 58.1952C61.0383 58.276 62.8878 57.7187 64.4304 55.1827" stroke="#740B99" stroke-width="2" stroke-miterlimit="10" stroke-linecap="round"/>
<path d="M33.6207 18.8235C33.6207 18.8235 42.1088 18.1128 49.0383 19.7038" stroke="#740B99" stroke-width="2" stroke-miterlimit="10"/>
<path d="M25.8598 36.9631C33.7475 42.6395 41.1911 48.9087 48.1262 55.7163L51.7362 59.181C52.1453 59.5815 52.6555 59.8633 53.2123 59.9963C53.7691 60.1292 54.3516 60.1083 54.8975 59.9358C55.4433 59.7632 55.932 59.4455 56.3112 59.0167C56.6904 58.5878 56.946 58.064 57.0505 57.5011C57.0472 57.4662 57.0472 57.4311 57.0505 57.3961" stroke="#740B99" stroke-width="2" stroke-miterlimit="10"/>
<path d="M31.9813 41.5502L31.0282 42.6163C30.8054 42.8609 30.635 43.1486 30.5276 43.4616C30.4202 43.7746 30.3781 44.1064 30.4038 44.4363C30.4295 44.7662 30.5226 45.0874 30.6773 45.38C30.8319 45.6726 31.0448 45.9304 31.3029 46.1375V46.1375C31.8458 46.5836 32.5405 46.8017 33.2409 46.746C33.9414 46.6903 34.5928 46.365 35.0583 45.8387L35.9871 44.7888" stroke="#740B99" stroke-width="2" stroke-miterlimit="10"/>
<path d="M40.8987 48.9965L38.8149 51.266C38.2804 51.8501 37.5388 52.2024 36.7483 52.2477C35.9577 52.293 35.1807 52.0276 34.583 51.5082V51.5082C33.9747 50.9796 33.6008 50.2313 33.5433 49.4274C33.4857 48.6236 33.7492 47.8296 34.2761 47.2197L36.2225 44.9826" stroke="#740B99" stroke-width="2" stroke-miterlimit="10"/>
<path d="M40.8965 48.9955L39.5477 50.4654C39.0089 51.0506 38.7241 51.8256 38.7559 52.6205C38.7877 53.4154 39.1334 54.1652 39.7173 54.7055V54.7055C40.2997 55.2489 41.0736 55.5395 41.8697 55.5138C42.6658 55.488 43.4193 55.1481 43.9654 54.5682L45.3707 53.0741" stroke="#740B99" stroke-width="2" stroke-miterlimit="10"/>
<path d="M49.4979 57.0324L48.763 57.7916C48.503 58.0621 48.1921 58.2786 47.8482 58.4287C47.5043 58.5788 47.1342 58.6596 46.759 58.6663C46.3839 58.6731 46.011 58.6057 45.6619 58.4681C45.3129 58.3304 44.9945 58.1253 44.7249 57.8643V57.8643C44.4522 57.6065 44.2331 57.2973 44.0802 56.9545C43.9273 56.6118 43.8435 56.2422 43.8337 55.867C43.824 55.4919 43.8884 55.1185 44.0233 54.7682C44.1582 54.418 44.361 54.0979 44.6199 53.8262L45.1528 53.2608" stroke="#740B99" stroke-width="2" stroke-miterlimit="10"/>
</svg>
