<svg width="963" height="579" viewBox="0 0 963 579" fill="none" xmlns="http://www.w3.org/2000/svg">
<g opacity="0.2">
<path opacity="0.2" fill-rule="evenodd" clip-rule="evenodd" d="M481.5 764C747.425 764 963 548.425 963 282.5C963 16.5749 747.425 -199 481.5 -199C215.575 -199 0 16.5749 0 282.5C0 548.425 215.575 764 481.5 764Z" fill="white"/>
<path opacity="0.4" fill-rule="evenodd" clip-rule="evenodd" d="M481.5 633.759C675.494 633.759 832.758 476.495 832.758 282.5C832.758 88.5058 675.494 -68.7578 481.5 -68.7578C287.505 -68.7578 130.242 88.5058 130.242 282.5C130.242 476.495 287.505 633.759 481.5 633.759Z" fill="white"/>
<path fill-rule="evenodd" clip-rule="evenodd" d="M481.5 487.729C594.845 487.729 686.73 395.844 686.73 282.499C686.73 169.154 594.845 77.2695 481.5 77.2695C368.155 77.2695 276.271 169.154 276.271 282.499C276.271 395.844 368.155 487.729 481.5 487.729Z" fill="white"/>
</g>
</svg>
