<svg width="99" height="81" viewBox="0 0 99 81" fill="none" xmlns="http://www.w3.org/2000/svg">
<path d="M83.6216 22.4952C87.6109 22.4952 90.833 19.273 90.833 15.2837C90.833 11.2944 87.6109 8.07227 83.6216 8.07227C79.6323 8.07227 76.4102 11.2944 76.4102 15.2837C76.5636 19.273 79.7857 22.4952 83.6216 22.4952ZM83.6216 10.3738C86.3834 10.3738 88.5315 12.5219 88.5315 15.2837C88.5315 18.0456 86.3834 20.1937 83.6216 20.1937C80.8597 20.1937 78.7117 18.0456 78.7117 15.2837C78.7117 12.5219 81.0132 10.3738 83.6216 10.3738Z" fill="white"/>
<path d="M96.971 0.09375H33.9092H1.07406C0.460324 0.09375 0 0.554051 0 1.16779V38.1457V38.606V63.0021C0 63.6159 0.460324 64.0762 1.07406 64.0762H51.7076V78.3457H46.3374V70.367C46.3374 69.7533 45.8771 69.293 45.2634 69.293C44.6496 69.293 44.1893 69.7533 44.1893 70.367V78.3457H21.6344C21.0206 78.3457 20.5603 78.806 20.5603 79.4197C20.5603 80.0334 21.0206 80.4938 21.6344 80.4938H76.5642C77.1779 80.4938 77.6382 80.0334 77.6382 79.4197C77.6382 78.806 77.1779 78.3457 76.5642 78.3457H54.0092V64.0762L96.971 64.3831C97.5847 64.3831 98.0451 63.9227 98.0451 63.309V63.1556V63.0021V52.8754V50.4205V1.32124C98.0451 0.707495 97.5847 0.09375 96.971 0.09375ZM2.14813 38.7594V38.2991V2.39528H33.9092H95.8969V50.7273V53.1823V62.3884L78.4053 62.235L52.0145 26.7915C51.7077 26.3312 50.9405 26.1777 50.4802 26.4846C50.3268 26.638 50.1733 26.7915 50.1733 26.9449L42.8084 36.7648C42.5016 37.2251 42.5015 37.9922 42.9618 38.4525C43.1153 38.606 43.4221 38.7594 43.729 38.7594C44.0359 38.7594 44.4962 38.606 44.6496 38.2991L51.2474 29.5533L75.6435 62.3884L53.5489 62.235L28.3855 26.9449C28.0786 26.4846 27.3114 26.3312 26.8511 26.638C26.6977 26.7915 26.5443 26.9449 26.5443 27.0983L6.90458 53.796C6.59771 54.2563 6.59773 55.0235 7.21147 55.3304C7.3649 55.4838 7.67176 55.4838 7.8252 55.4838C8.13207 55.4838 8.59238 55.3304 8.74582 55.0235L27.4649 29.3999L50.6336 62.0816H2.30153V38.7594H2.14813Z" fill="white"/>
</svg>
