<svg width="39" height="69" viewBox="0 0 39 69" fill="none" xmlns="http://www.w3.org/2000/svg">
<path fill-rule="evenodd" clip-rule="evenodd" d="M33.0941 2.81165H5.70588C3.81512 2.81165 2.28235 4.34442 2.28235 6.23518V63.294C2.28235 65.1848 3.81512 66.7175 5.70588 66.7175H33.0941C34.9849 66.7175 36.5176 65.1848 36.5176 63.294V6.23518C36.5176 4.34442 34.9849 2.81165 33.0941 2.81165ZM5.70588 0.529297C2.55461 0.529297 0 3.08391 0 6.23518V63.294C0 66.4453 2.55461 68.9999 5.70588 68.9999H33.0941C36.2454 68.9999 38.8 66.4453 38.8 63.294V6.23518C38.8 3.08391 36.2454 0.529297 33.0941 0.529297H5.70588Z" fill="white"/>
<rect x="2.28174" y="7.4375" width="34.2353" height="2.28235" fill="white"/>
<rect x="2.28174" y="59.8633" width="34.2353" height="2.28235" fill="white"/>
<circle cx="19.4" cy="64.4498" r="1.14118" fill="white"/>
</svg>
