<svg width="100" height="81" viewBox="0 0 100 81" fill="none" xmlns="http://www.w3.org/2000/svg">
<path d="M98.9361 0H1.06376C0.455853 0 0 0.455946 0 1.06385V15.5015V53.1915V53.7994V78.7234C0 79.3313 0.455853 79.7872 1.06376 79.7872H53.6474L98.9361 80.0912C99.544 80.0912 100 79.6353 100 79.0274V78.8754V78.7234V68.3891V65.8055V15.5015V1.06385C100 0.607921 99.544 0 98.9361 0ZM2.27964 53.7994V53.1915V16.5654H34.6504H86.6262H90.5775C91.1854 16.5654 91.6413 16.1094 91.6413 15.5015C91.6413 14.8936 91.1854 14.4377 90.5775 14.4377H86.6262H34.6504H2.27964V2.27964H97.8723V15.5015V65.8055V68.3891V77.8116L53.7993 77.5076H2.27964V53.7994Z" fill="white"/>
<path d="M92.2492 8.3592C92.2492 7.44734 91.4893 6.6875 90.5775 6.6875C89.6656 6.6875 88.9058 7.44734 88.9058 8.3592C88.9058 9.27105 89.6656 10.0309 90.5775 10.0309C91.4893 10.0309 92.2492 9.27105 92.2492 8.3592Z" fill="white"/>
<path d="M83.8904 6.6875C82.9786 6.6875 82.2188 7.44734 82.2188 8.3592C82.2188 9.27105 82.9786 10.0309 83.8904 10.0309C84.8023 10.0309 85.5622 9.27105 85.5622 8.3592C85.5622 7.44734 84.8023 6.6875 83.8904 6.6875Z" fill="white"/>
<rect x="9" y="41" width="81" height="13" rx="1" stroke="white" stroke-width="2"/>
<rect x="9" y="58" width="81" height="13" rx="1" stroke="white" stroke-width="2"/>
<rect x="9" y="24" width="23" height="13" rx="1" stroke="white" stroke-width="2"/>
<rect x="36" y="24" width="25" height="13" rx="1" stroke="white" stroke-width="2"/>
<rect x="65" y="24" width="25" height="13" rx="1" stroke="white" stroke-width="2"/>
</svg>
