<svg width="100" height="84" viewBox="0 0 100 84" fill="none" xmlns="http://www.w3.org/2000/svg">
<path d="M39.51 57.003C39.6631 57.1556 39.8163 57.1556 40.1226 57.1556C40.4288 57.1556 40.582 57.1556 40.7351 57.003L67.2283 41.7457C67.5345 41.5931 67.8408 41.1354 67.8408 40.8302C67.8408 40.3725 67.6877 40.0673 67.2283 39.9148L40.7351 24.6574C40.4289 24.5048 39.9694 24.5048 39.51 24.6574C39.2037 24.81 38.8975 25.2677 38.8975 25.5729V55.935C38.8975 56.5453 39.2037 56.8504 39.51 57.003ZM41.1946 27.7089L64.1655 40.9828L41.1946 54.2567V27.7089Z" fill="white"/>
<path d="M98.6217 0.09375H1.22511C0.61255 0.09375 0 0.551476 0 1.31434V76.8383C0 77.4486 0.459411 78.0589 1.22511 78.0589C1.83767 78.0589 2.45023 77.6012 2.45023 76.8383V2.38236H97.5498V76.8383C97.5498 77.4486 98.0092 78.0589 98.7749 78.0589C99.3874 78.0589 100 77.6012 100 76.8383V1.31434C99.6937 0.551476 99.2343 0.09375 98.6217 0.09375Z" fill="white"/>
<path d="M90.1992 75.6172H40.1226C39.51 75.6172 38.8975 76.0749 38.8975 76.8378C38.8975 77.4481 39.3569 78.0583 40.1226 78.0583H90.1992C90.8117 78.0583 91.4243 77.6006 91.4243 76.8378C91.4243 76.2275 90.8117 75.6172 90.1992 75.6172Z" fill="white"/>
<path d="M26.9524 70.582C23.8896 70.582 21.4393 72.7181 20.8268 75.617H9.34133C8.72877 75.617 8.11621 76.0747 8.11621 76.8376C8.11621 77.4478 8.57563 78.0581 9.34133 78.0581H20.6736C21.2862 80.957 23.7364 83.0931 26.7992 83.0931C30.1683 83.0931 33.0779 80.3467 33.0779 76.8376C33.0779 73.3284 30.3214 70.582 26.9524 70.582ZM26.9524 80.6519C24.8084 80.6519 22.9707 78.821 22.9707 76.685C22.9707 74.5489 24.8084 72.7181 26.9524 72.7181C29.0963 72.7181 30.934 74.5489 30.934 76.685C30.7808 78.9736 29.0963 80.6519 26.9524 80.6519Z" fill="white"/>
<path d="M39.51 57.003C39.6631 57.1556 39.8163 57.1556 40.1226 57.1556C40.4288 57.1556 40.582 57.1556 40.7351 57.003L67.2283 41.7457C67.5345 41.5931 67.8408 41.1354 67.8408 40.8302C67.8408 40.3725 67.6877 40.0673 67.2283 39.9148L40.7351 24.6574C40.4289 24.5048 39.9694 24.5048 39.51 24.6574C39.2037 24.81 38.8975 25.2677 38.8975 25.5729V55.935C38.8975 56.5453 39.2037 56.8504 39.51 57.003ZM41.1946 27.7089L64.1655 40.9828L41.1946 54.2567V27.7089Z" fill="white"/>
<path d="M98.6217 0.09375H1.22511C0.61255 0.09375 0 0.551476 0 1.31434V76.8383C0 77.4486 0.459411 78.0589 1.22511 78.0589C1.83767 78.0589 2.45023 77.6012 2.45023 76.8383V2.38236H97.5498V76.8383C97.5498 77.4486 98.0092 78.0589 98.7749 78.0589C99.3874 78.0589 100 77.6012 100 76.8383V1.31434C99.6937 0.551476 99.2343 0.09375 98.6217 0.09375Z" fill="white"/>
<path d="M90.1992 75.6172H40.1226C39.51 75.6172 38.8975 76.0749 38.8975 76.8378C38.8975 77.4481 39.3569 78.0583 40.1226 78.0583H90.1992C90.8117 78.0583 91.4243 77.6006 91.4243 76.8378C91.4243 76.2275 90.8117 75.6172 90.1992 75.6172Z" fill="white"/>
<path d="M26.9524 70.582C23.8896 70.582 21.4393 72.7181 20.8268 75.617H9.34133C8.72877 75.617 8.11621 76.0747 8.11621 76.8376C8.11621 77.4478 8.57563 78.0581 9.34133 78.0581H20.6736C21.2862 80.957 23.7364 83.0931 26.7992 83.0931C30.1683 83.0931 33.0779 80.3467 33.0779 76.8376C33.0779 73.3284 30.3214 70.582 26.9524 70.582ZM26.9524 80.6519C24.8084 80.6519 22.9707 78.821 22.9707 76.685C22.9707 74.5489 24.8084 72.7181 26.9524 72.7181C29.0963 72.7181 30.934 74.5489 30.934 76.685C30.7808 78.9736 29.0963 80.6519 26.9524 80.6519Z" fill="white"/>
</svg>
