<svg width="120" height="120" viewBox="0 0 120 120" fill="none" xmlns="http://www.w3.org/2000/svg">
<path d="M50.1766 74.1102C50.3168 74.2499 50.4571 74.2499 50.7375 74.2499C51.018 74.2499 51.1582 74.2499 51.2984 74.1102L75.5571 60.1397C75.8376 59.9999 76.118 59.5808 76.118 59.3014C76.118 58.8823 75.9778 58.6029 75.5571 58.4632L51.2984 44.4926C51.018 44.3529 50.5973 44.3529 50.1766 44.4926C49.8962 44.6323 49.6157 45.0514 49.6157 45.3308V73.1323C49.6157 73.6911 49.8962 73.9705 50.1766 74.1102ZM51.7191 47.2867L72.7527 59.4411L51.7191 71.5955V47.2867Z" fill="url(#paint0_linear)"/>
<path d="M104.304 22H15.1218C14.5609 22 14 22.4191 14 23.1177V92.272C14 92.8308 14.4207 93.3897 15.1218 93.3897C15.6827 93.3897 16.2436 92.9706 16.2436 92.272V24.0956H103.323V92.272C103.323 92.8308 103.743 93.3897 104.444 93.3897C105.005 93.3897 105.566 92.9706 105.566 92.272V23.1177C105.286 22.4191 104.865 22 104.304 22Z" fill="url(#paint1_linear)"/>
<path d="M96.5907 91.1544H50.7375C50.1766 91.1544 49.6157 91.5735 49.6157 92.272C49.6157 92.8308 50.0364 93.3897 50.7375 93.3897H96.5907C97.1516 93.3897 97.7125 92.9705 97.7125 92.272C97.7125 91.7132 97.1516 91.1544 96.5907 91.1544Z" fill="url(#paint2_linear)"/>
<path d="M38.6787 86.544C35.8742 86.544 33.6306 88.4999 33.0697 91.1543H22.5529C21.9921 91.1543 21.4312 91.5734 21.4312 92.2719C21.4312 92.8308 21.8518 93.3896 22.5529 93.3896H32.9295C33.4904 96.044 35.734 97.9999 38.5385 97.9999C41.6234 97.9999 44.2876 95.4852 44.2876 92.2719C44.2876 89.0587 41.7636 86.544 38.6787 86.544ZM38.6787 95.7646C36.7155 95.7646 35.0329 94.0881 35.0329 92.1322C35.0329 90.1764 36.7155 88.4999 38.6787 88.4999C40.6418 88.4999 42.3245 90.1764 42.3245 92.1322C42.1843 94.2278 40.6418 95.7646 38.6787 95.7646Z" fill="url(#paint3_linear)"/>
<path d="M50.1766 74.1102C50.3168 74.2499 50.4571 74.2499 50.7375 74.2499C51.018 74.2499 51.1582 74.2499 51.2984 74.1102L75.5571 60.1397C75.8376 59.9999 76.118 59.5808 76.118 59.3014C76.118 58.8823 75.9778 58.6029 75.5571 58.4632L51.2984 44.4926C51.018 44.3529 50.5973 44.3529 50.1766 44.4926C49.8962 44.6323 49.6157 45.0514 49.6157 45.3308V73.1323C49.6157 73.6911 49.8962 73.9705 50.1766 74.1102ZM51.7191 47.2867L72.7527 59.4411L51.7191 71.5955V47.2867Z" fill="url(#paint4_linear)"/>
<path d="M104.304 22H15.1218C14.5609 22 14 22.4191 14 23.1177V92.272C14 92.8308 14.4207 93.3897 15.1218 93.3897C15.6827 93.3897 16.2436 92.9706 16.2436 92.272V24.0956H103.323V92.272C103.323 92.8308 103.743 93.3897 104.444 93.3897C105.005 93.3897 105.566 92.9706 105.566 92.272V23.1177C105.286 22.4191 104.865 22 104.304 22Z" fill="url(#paint5_linear)"/>
<path d="M96.5907 91.1544H50.7375C50.1766 91.1544 49.6157 91.5735 49.6157 92.272C49.6157 92.8308 50.0364 93.3897 50.7375 93.3897H96.5907C97.1516 93.3897 97.7125 92.9705 97.7125 92.272C97.7125 91.7132 97.1516 91.1544 96.5907 91.1544Z" fill="url(#paint6_linear)"/>
<path d="M38.6787 86.544C35.8742 86.544 33.6306 88.4999 33.0697 91.1543H22.5529C21.9921 91.1543 21.4312 91.5734 21.4312 92.2719C21.4312 92.8308 21.8518 93.3896 22.5529 93.3896H32.9295C33.4904 96.044 35.734 97.9999 38.5385 97.9999C41.6234 97.9999 44.2876 95.4852 44.2876 92.2719C44.2876 89.0587 41.7636 86.544 38.6787 86.544ZM38.6787 95.7646C36.7155 95.7646 35.0329 94.0881 35.0329 92.1322C35.0329 90.1764 36.7155 88.4999 38.6787 88.4999C40.6418 88.4999 42.3245 90.1764 42.3245 92.1322C42.1843 94.2278 40.6418 95.7646 38.6787 95.7646Z" fill="url(#paint7_linear)"/>
<defs>
<linearGradient id="paint0_linear" x1="36.2421" y1="59.043" x2="65.9868" y2="85.122" gradientUnits="userSpaceOnUse">
<stop stop-color="#FBB63F"/>
<stop offset="0.981306" stop-color="#B069A1"/>
</linearGradient>
<linearGradient id="paint1_linear" x1="-32.2061" y1="57.0353" x2="37.5545" y2="145.431" gradientUnits="userSpaceOnUse">
<stop stop-color="#FBB63F"/>
<stop offset="0.981306" stop-color="#B069A1"/>
</linearGradient>
<linearGradient id="paint2_linear" x1="25.3452" y1="92.2514" x2="25.556" y2="96.733" gradientUnits="userSpaceOnUse">
<stop stop-color="#FBB63F"/>
<stop offset="0.981306" stop-color="#B069A1"/>
</linearGradient>
<linearGradient id="paint3_linear" x1="9.89733" y1="92.1661" x2="19.1853" y2="110.473" gradientUnits="userSpaceOnUse">
<stop stop-color="#FBB63F"/>
<stop offset="0.981306" stop-color="#B069A1"/>
</linearGradient>
<linearGradient id="paint4_linear" x1="36.2421" y1="59.043" x2="65.9868" y2="85.122" gradientUnits="userSpaceOnUse">
<stop stop-color="#FBB63F"/>
<stop offset="0.981306" stop-color="#B069A1"/>
</linearGradient>
<linearGradient id="paint5_linear" x1="-32.2061" y1="57.0353" x2="37.5545" y2="145.431" gradientUnits="userSpaceOnUse">
<stop stop-color="#FBB63F"/>
<stop offset="0.981306" stop-color="#B069A1"/>
</linearGradient>
<linearGradient id="paint6_linear" x1="25.3452" y1="92.2514" x2="25.556" y2="96.733" gradientUnits="userSpaceOnUse">
<stop stop-color="#FBB63F"/>
<stop offset="0.981306" stop-color="#B069A1"/>
</linearGradient>
<linearGradient id="paint7_linear" x1="9.89733" y1="92.1661" x2="19.1853" y2="110.473" gradientUnits="userSpaceOnUse">
<stop stop-color="#FBB63F"/>
<stop offset="0.981306" stop-color="#B069A1"/>
</linearGradient>
</defs>
</svg>
