<svg width="120" height="120" viewBox="0 0 120 120" fill="none" xmlns="http://www.w3.org/2000/svg">
<path fill-rule="evenodd" clip-rule="evenodd" d="M13.1429 37.6961C13.774 37.6961 14.2857 38.2077 14.2857 38.8389V46.85C14.2857 51.0496 16.1031 54.9566 19.3122 57.6076L19.3194 57.6136L49.5498 83.0071C49.5539 83.0106 49.558 83.0141 49.5621 83.0176C49.5661 83.0211 49.5701 83.0245 49.574 83.028C51.1749 84.4511 52.0737 86.4231 52.0737 88.568V102.323C52.0737 104.261 53.527 105.715 55.4654 105.715H64.5346C66.473 105.715 67.9263 104.261 67.9263 102.323V88.568C67.9263 86.4231 68.8251 84.4511 70.426 83.028C70.434 83.021 70.442 83.014 70.4502 83.0071L100.681 57.6136L100.688 57.6076C103.897 54.9566 105.714 51.0496 105.714 46.85V38.8389C105.714 38.2077 106.226 37.6961 106.857 37.6961C107.488 37.6961 108 38.2077 108 38.8389V46.85C108 51.7179 105.889 56.2741 102.147 59.3668L102.144 59.3698L71.9332 84.7466C70.8205 85.741 70.212 87.0902 70.212 88.568V102.323C70.212 105.524 67.7353 108 64.5346 108H55.4654C52.2647 108 49.788 105.524 49.788 102.323V88.568C49.788 87.0902 49.1795 85.741 48.0669 84.7466L17.8565 59.3698L17.8528 59.3668C14.1112 56.274 12 51.7178 12 46.85V38.8389C12 38.2077 12.5117 37.6961 13.1429 37.6961Z" fill="url(#paint0_linear)"/>
<path fill-rule="evenodd" clip-rule="evenodd" d="M15.6475 35.875C14.8444 36.4662 14.2857 37.4011 14.2857 38.8571C14.2857 39.8444 15.1171 41.1428 17.434 42.5866C19.6748 43.983 22.9901 45.3102 27.1802 46.4559C35.5443 48.7428 47.1539 50.242 60 50.242C72.8461 50.242 84.4557 48.7428 92.8198 46.456C97.0099 45.3104 100.325 43.9832 102.566 42.5868C104.883 41.143 105.714 39.8446 105.714 38.8573C105.714 37.5177 105.279 37.0993 104.936 36.9041C104.447 36.6264 103.742 36.5716 102.857 36.5716C102.226 36.5716 101.714 36.06 101.714 35.4288C101.714 34.7976 102.226 34.2859 102.857 34.2859C103.687 34.2859 104.982 34.3017 106.064 34.9165C107.292 35.6137 108 36.9097 108 38.8573C108 41.1198 106.205 43.0122 103.775 44.5267C101.269 46.0885 97.7159 47.487 93.4226 48.6608C84.8199 51.0128 73.0009 52.5277 60 52.5277C46.9991 52.5277 35.1801 51.0128 26.5774 48.6607C22.2841 47.4868 18.7314 46.0883 16.2251 44.5265C13.7948 43.012 12 41.1195 12 38.8571C12 36.718 12.8699 35.0814 14.2925 34.0342C15.6723 33.0186 17.464 32.6332 19.238 32.7094C19.8686 32.7365 20.3578 33.2696 20.3307 33.9002C20.3037 34.5308 19.7705 35.0201 19.1399 34.993C17.7249 34.9322 16.4936 35.2523 15.6475 35.875Z" fill="url(#paint1_linear)"/>
<path fill-rule="evenodd" clip-rule="evenodd" d="M54.3229 27.9561C54.3229 27.3249 54.8345 26.8132 55.4657 26.8132H60.0003C63.6564 26.8132 69.1429 26.8571 72.5714 26.8571C73.202 26.8858 71.7513 27.6798 71.7226 28.3103C71.6939 28.9409 70.9162 29.1715 70.2857 29.1429C66.8571 29.1429 63.5994 29.099 60.0003 29.099H55.4657C54.8345 29.099 54.3229 28.5873 54.3229 27.9561Z" fill="url(#paint2_linear)"/>
<path fill-rule="evenodd" clip-rule="evenodd" d="M86.3988 12.3347C86.8326 11.901 87.5314 11.887 87.9821 12.3031L107.632 30.4413C107.86 30.6523 107.993 30.9473 107.999 31.2583C108.006 31.5692 107.885 31.8693 107.665 32.0892L101.619 38.1353C101.172 38.5816 100.449 38.5816 100.003 38.1353C99.5562 37.689 99.5562 36.9654 100.003 36.5191L105.207 31.3141L87.2386 14.7274L63.1273 38.8387L68.3653 44.0767C68.8116 44.523 68.8116 45.2466 68.3653 45.6929C67.919 46.1392 67.1954 46.1392 66.749 45.6929L60.703 39.6468C60.2567 39.2005 60.2567 38.4769 60.703 38.0306L86.3988 12.3347Z" fill="url(#paint3_linear)"/>
<path fill-rule="evenodd" clip-rule="evenodd" d="M20.412 18.9012C20.3907 18.9225 20.3311 18.9952 20.3311 19.1889V38.8387C20.3311 39.4699 19.8194 39.9816 19.1882 39.9816C18.5571 39.9816 18.0454 39.4699 18.0454 38.8387V19.1889C18.0454 18.4758 18.2881 17.7927 18.7958 17.285C19.3035 16.7773 19.9866 16.5346 20.6998 16.5346H53.9532C54.6664 16.5346 55.3495 16.7773 55.8572 17.285C56.3649 17.7927 56.6076 18.4758 56.6076 19.1889V44.8848C56.6076 45.516 56.0959 46.0276 55.4647 46.0276C54.8336 46.0276 54.3219 45.516 54.3219 44.8848V19.1889C54.3219 18.9952 54.2623 18.9225 54.2409 18.9012C54.2196 18.8799 54.147 18.8203 53.9532 18.8203H20.6998C20.506 18.8203 20.4334 18.8799 20.412 18.9012Z" fill="url(#paint4_linear)"/>
<path fill-rule="evenodd" clip-rule="evenodd" d="M30.6799 25.7746C31.0168 25.5663 31.4375 25.5474 31.7918 25.7245L45.3955 32.5264C45.7827 32.72 46.0272 33.1157 46.0272 33.5486C46.0272 33.9815 45.7827 34.3772 45.3955 34.5708L31.7918 41.3726C31.4375 41.5498 31.0168 41.5308 30.6799 41.3226C30.3429 41.1144 30.1378 40.7465 30.1378 40.3504V26.7467C30.1378 26.3506 30.3429 25.9828 30.6799 25.7746ZM32.4235 28.5959V38.5012L42.3289 33.5486L32.4235 28.5959Z" fill="url(#paint5_linear)"/>
<path fill-rule="evenodd" clip-rule="evenodd" d="M77.0256 34.0417C77.1166 33.6562 77.4007 33.3453 77.7764 33.22L89.1144 29.4407C89.525 29.3038 89.9778 29.4107 90.2839 29.7168C90.59 30.0229 90.6969 30.4757 90.56 30.8863L86.7807 42.2243C86.6554 42.6 86.3445 42.8842 85.959 42.9752C85.5735 43.0662 85.1684 42.9511 84.8883 42.671L77.3297 35.1124C77.0496 34.8323 76.9345 34.4272 77.0256 34.0417ZM80.2535 34.8037L85.197 39.7472L87.6688 32.3319L80.2535 34.8037Z" fill="url(#paint6_linear)"/>
<defs>
<linearGradient id="paint0_linear" x1="-36.4435" y1="59.1131" x2="60.0002" y2="154.391" gradientUnits="userSpaceOnUse">
<stop stop-color="#FBB63F"/>
<stop offset="0.981306" stop-color="#B069A1"/>
</linearGradient>
<linearGradient id="paint1_linear" x1="-36.4435" y1="59.1131" x2="60.0002" y2="154.391" gradientUnits="userSpaceOnUse">
<stop stop-color="#FBB63F"/>
<stop offset="0.981306" stop-color="#B069A1"/>
</linearGradient>
<linearGradient id="paint2_linear" x1="-36.4435" y1="59.1131" x2="60.0002" y2="154.391" gradientUnits="userSpaceOnUse">
<stop stop-color="#FBB63F"/>
<stop offset="0.981306" stop-color="#B069A1"/>
</linearGradient>
<linearGradient id="paint3_linear" x1="-36.4435" y1="59.1131" x2="60.0002" y2="154.391" gradientUnits="userSpaceOnUse">
<stop stop-color="#FBB63F"/>
<stop offset="0.981306" stop-color="#B069A1"/>
</linearGradient>
<linearGradient id="paint4_linear" x1="-36.4435" y1="59.1131" x2="60.0002" y2="154.391" gradientUnits="userSpaceOnUse">
<stop stop-color="#FBB63F"/>
<stop offset="0.981306" stop-color="#B069A1"/>
</linearGradient>
<linearGradient id="paint5_linear" x1="-36.4435" y1="59.1131" x2="60.0002" y2="154.391" gradientUnits="userSpaceOnUse">
<stop stop-color="#FBB63F"/>
<stop offset="0.981306" stop-color="#B069A1"/>
</linearGradient>
<linearGradient id="paint6_linear" x1="-36.4435" y1="59.1131" x2="60.0002" y2="154.391" gradientUnits="userSpaceOnUse">
<stop stop-color="#FBB63F"/>
<stop offset="0.981306" stop-color="#B069A1"/>
</linearGradient>
</defs>
</svg>
