<svg width="120" height="120" viewBox="0 0 120 120" fill="none" xmlns="http://www.w3.org/2000/svg">
<path d="M28.0784 86.635H22.758C20.4968 86.635 18.7677 84.9059 18.7677 82.6447V22.7904C18.7677 20.5292 20.4968 18.8001 22.758 18.8001H97.2433C99.5045 18.8001 101.234 20.5292 101.234 22.7904V82.6447C101.234 84.9059 99.5045 86.635 97.2433 86.635H91.923" stroke="#740B99" stroke-width="2" stroke-miterlimit="10" stroke-linecap="square" stroke-linejoin="round"/>
<path d="M27.578 26.1156C27.578 26.9413 26.9086 27.6107 26.0829 27.6107C25.2571 27.6107 24.5877 26.9413 24.5877 26.1156C24.5877 25.2898 25.2571 24.6204 26.0829 24.6204C26.9086 24.6204 27.578 25.2898 27.578 26.1156Z" fill="#464646" stroke="#740B99"/>
<path d="M34.2285 26.1156C34.2285 26.9413 33.5591 27.6107 32.7334 27.6107C31.9076 27.6107 31.2382 26.9413 31.2382 26.1156C31.2382 25.2898 31.9076 24.6204 32.7334 24.6204C33.5591 24.6204 34.2285 25.2898 34.2285 26.1156Z" fill="#464646" stroke="#740B99"/>
<path d="M40.8782 26.1156C40.8782 26.9413 40.2088 27.6107 39.3831 27.6107C38.5573 27.6107 37.8879 26.9413 37.8879 26.1156C37.8879 25.2898 38.5573 24.6204 39.3831 24.6204C40.2088 24.6204 40.8782 25.2898 40.8782 26.1156Z" fill="#464646" stroke="#740B99"/>
<path d="M18.767 33.4312H101.233" stroke="#740B99" stroke-width="2" stroke-miterlimit="10" stroke-linecap="round" stroke-linejoin="round"/>
<path d="M84.8723 65.8854L81.9461 58.8359C81.6801 58.3039 81.8131 57.7718 82.2121 57.3728L83.5422 56.0427C84.0743 55.5106 84.0743 54.7126 83.5422 54.1806L77.9558 48.5941C77.4238 48.0621 76.6257 48.0621 76.0937 48.5941L74.7636 49.9242C74.3645 50.3233 73.8325 50.4563 73.3005 50.1903L66.251 47.264C65.719 46.998 65.4529 46.599 65.4529 46.067V44.0718C65.4529 43.2738 64.9209 42.7417 64.1228 42.7417H56.1422C55.3442 42.7417 54.8121 43.2738 54.8121 44.0718V45.934C54.8121 46.466 54.5461 46.998 54.0141 47.131L46.9646 50.0573C46.4326 50.3233 45.9005 50.1902 45.5015 49.7912L44.1714 48.4611C43.6393 47.9291 42.8413 47.9291 42.3093 48.4611L36.7229 54.0475C36.1908 54.5796 36.1908 55.3776 36.7229 55.9097L38.053 57.2398C38.452 57.6388 38.585 58.1708 38.319 58.7029L35.3928 65.7524C35.1267 66.2844 34.7277 66.5504 34.1956 66.5504H32.0675C31.2695 66.5504 30.7374 67.0825 30.7374 67.8805V75.8611C30.7374 76.6592 31.2695 77.1912 32.0675 77.1912H33.9297C34.4617 77.1912 34.9937 77.4572 35.1267 77.9893L38.053 85.0388C38.319 85.5708 38.1859 86.1028 37.7869 86.5019L36.4568 87.832C35.9248 88.364 35.9248 89.1621 36.4568 89.6941L42.0432 95.2805C42.5753 95.8125 43.3734 95.8125 43.9054 95.2805L45.2355 93.9504C45.6345 93.5514 46.1665 93.4184 46.6986 93.6844L53.7481 96.6106C54.2801 96.8766 54.5462 97.2756 54.5462 97.8077V99.6698C54.5462 100.468 55.0782 101 55.8763 101H63.8568C64.6549 101 65.1869 100.468 65.1869 99.6698V97.8077C65.1869 97.2756 65.4529 96.7436 65.985 96.6106L73.0345 93.6844C73.5665 93.4184 74.0986 93.5514 74.4976 93.9504L75.8277 95.2805C76.3597 95.8125 77.1577 95.8125 77.6898 95.2805L83.2762 89.6941C83.8082 89.1621 83.8082 88.364 83.2762 87.832L81.9461 86.5019C81.5471 86.1028 81.4141 85.5708 81.6801 85.0388L84.6063 77.9893C84.8723 77.4572 85.2714 77.1912 85.8034 77.1912H87.6655C88.4636 77.1912 88.9956 76.6592 88.9956 75.8611V67.8805C88.9956 67.0825 88.4636 66.5504 87.6655 66.5504H85.8034C85.5374 66.6834 85.0053 66.4174 84.8723 65.8854Z" stroke="#740B99" stroke-width="2" stroke-miterlimit="10" stroke-linecap="round" stroke-linejoin="round"/>
<path d="M59.9991 87.9651C68.8142 87.9651 75.9603 80.8191 75.9603 72.004C75.9603 63.1889 68.8142 56.0428 59.9991 56.0428C51.184 56.0428 44.038 63.1889 44.038 72.004C44.038 80.8191 51.184 87.9651 59.9991 87.9651Z" stroke="#740B99" stroke-width="2" stroke-miterlimit="10" stroke-linecap="round" stroke-linejoin="round"/>
</svg>
