<svg width="120" height="120" viewBox="0 0 120 120" fill="none" xmlns="http://www.w3.org/2000/svg">
<path d="M35.471 51.0914L39.134 50.2041C40.0339 53.3982 41.5168 56.1106 43.7096 58.6075L40.9845 61.2058C40.807 61.3832 40.693 61.6241 40.693 61.8649C40.693 62.1184 40.7817 62.3592 40.9592 62.5493C44.3306 66.0856 48.0824 68.3797 52.772 69.7612C53.0128 69.8373 53.2789 69.7993 53.4944 69.6852C53.7099 69.5711 53.8747 69.3557 53.9508 69.1149L55.0154 65.5026C58.2348 66.3137 61.3275 66.3898 64.5722 65.7434L65.4594 69.3937C65.5608 69.8246 65.9537 70.1162 66.3847 70.1162C66.4607 70.1162 66.5368 70.1035 66.6128 70.0908C71.3658 68.9374 75.2189 66.8334 78.7678 63.4619C79.1481 63.0944 79.1608 62.4987 78.8059 62.1184L76.2203 59.3933C78.5398 57.0105 80.1495 54.3868 81.2015 51.2308L84.8137 52.2955C85.0545 52.3715 85.3207 52.3335 85.5362 52.2194C85.7517 52.1054 85.9164 51.8899 85.9925 51.6491C87.374 46.9594 87.4754 42.5613 86.3347 37.8083C86.2713 37.5675 86.1192 37.352 85.9037 37.2252C85.6883 37.0858 85.4221 37.0478 85.1813 37.1112L81.5309 37.9984C80.631 34.8043 79.1481 32.0919 76.9554 29.595L79.6805 26.9967C80.0607 26.6291 80.0733 26.0334 79.7185 25.6532C76.347 22.1169 72.5952 19.8228 67.9056 18.4412C67.3986 18.2891 66.8789 18.5807 66.7268 19.0877L65.6622 22.6999C62.4428 21.8761 59.3628 21.8 56.1054 22.4591L55.2182 18.8089C55.0915 18.3019 54.5718 17.9849 54.0775 18.1117C49.3245 19.2651 45.4586 21.3691 41.9224 24.7406C41.7449 24.9181 41.6309 25.1588 41.6309 25.3997C41.6309 25.6532 41.7196 25.894 41.8971 26.0841L44.4954 28.8092C42.1759 31.192 40.5662 33.8157 39.5142 36.9717L35.9019 35.9071C35.3949 35.755 34.8752 36.0465 34.7231 36.5535C33.3416 41.2431 33.2276 45.6413 34.381 50.3943C34.4443 50.9013 34.964 51.2055 35.471 51.0914ZM36.2314 38.011L39.8057 39.0631C40.0465 39.1391 40.3127 39.1011 40.5282 38.987C40.7437 38.8729 40.9084 38.6575 40.9845 38.4166C42.0365 34.8297 43.7096 32.0919 46.422 29.5189C46.8022 29.1514 46.8148 28.5557 46.46 28.1754L43.887 25.4757C46.7769 22.8901 49.8188 21.2424 53.5579 20.203L54.4324 23.828C54.5592 24.335 55.0788 24.6392 55.5858 24.5251C59.2108 23.6505 62.4301 23.7266 66.0044 24.7786C66.5114 24.9307 67.0311 24.6392 67.1832 24.1322L68.2351 20.5579C71.9108 21.7747 74.8768 23.5745 77.6399 26.2996L74.9401 28.8726C74.7627 29.05 74.6486 29.2908 74.6486 29.5316C74.6486 29.7851 74.7373 30.026 74.9148 30.2161C77.4877 32.9158 79.0214 35.7423 79.9086 39.3672C79.972 39.6081 80.1241 39.8236 80.3396 39.9503C80.5551 40.0771 80.8212 40.1277 81.062 40.0643L84.687 39.1898C85.4728 42.9795 85.3968 46.4524 84.4208 50.2041L80.8465 49.1522C80.3522 49.0128 79.8199 49.2915 79.6678 49.7985C78.6158 53.3855 76.9301 56.1233 74.2304 58.6962C73.8501 59.0638 73.8374 59.6595 74.1923 60.0397L76.7653 62.7395C73.8755 65.3251 70.8335 66.9728 67.0945 68.0121L66.2199 64.3872C66.1185 63.9562 65.7255 63.6647 65.2946 63.6647C65.2185 63.6647 65.1425 63.6774 65.0665 63.6901C61.4415 64.5646 58.2221 64.4886 54.6479 63.4366C54.1409 63.2971 53.6212 63.576 53.4691 64.083L52.4171 67.6573C48.7414 66.4405 45.7756 64.6406 43.0125 61.9156L45.7122 59.3426C45.8896 59.1652 46.0037 58.9244 46.0037 58.6835C46.0037 58.43 45.9149 58.1892 45.7375 57.9991C43.1645 55.2994 41.6309 52.4729 40.7436 48.8479C40.6169 48.3409 40.0973 48.0241 39.5903 48.1508L35.9653 49.0254C35.1668 45.223 35.2555 41.7628 36.2314 38.011Z" fill="#740B99"/>
<path d="M91.3279 79.9729L68.4753 73.3186C68.4373 73.3059 68.3866 73.3187 68.3486 73.306C68.2979 73.2933 68.2599 73.2806 68.2092 73.2806H51.3898C51.3391 73.2806 51.3011 73.306 51.2504 73.306C51.1997 73.3187 51.1616 73.3059 51.1109 73.3186L28.9301 79.9729C28.5245 80.0996 28.2584 80.4672 28.2584 80.8855V101.621C28.2584 102.141 28.6893 102.572 29.209 102.572H48.3605C48.8801 102.572 49.3111 102.141 49.3111 101.621C49.3111 101.102 48.8801 100.671 48.3605 100.671H30.1596V81.5953L50.4392 75.5114V85.8793C50.4392 85.9047 50.4518 85.93 50.4518 85.9554C50.4518 86.0188 50.4771 86.0821 50.4898 86.1455C50.5025 86.2088 50.5279 86.2595 50.5533 86.3102C50.5786 86.3609 50.6166 86.4116 50.6546 86.4623C50.6926 86.513 50.7307 86.5638 50.7814 86.6018C50.8067 86.6145 50.8067 86.6398 50.8321 86.6525C50.8701 86.6778 50.9208 86.6905 50.9588 86.7158C50.9968 86.7285 51.0222 86.7539 51.0602 86.7666C51.1743 86.8046 51.2757 86.8299 51.3898 86.8299C51.5292 86.8299 51.6686 86.7919 51.7827 86.7412C51.8207 86.7285 51.8461 86.7032 51.8841 86.6778C51.9728 86.6271 52.0489 86.5637 52.1122 86.4877C52.1249 86.475 52.1502 86.4624 52.1629 86.4497L54.5331 83.1796L56.409 90.024L53.7599 101.431C53.7473 101.469 53.7599 101.507 53.7599 101.545C53.7599 101.583 53.7346 101.609 53.7346 101.647C53.7346 101.672 53.7472 101.697 53.7472 101.723C53.7472 101.786 53.7726 101.849 53.7853 101.913C53.798 101.976 53.8233 102.027 53.8487 102.078C53.874 102.128 53.9121 102.179 53.9501 102.23C53.9881 102.28 54.0261 102.318 54.0768 102.356C54.1275 102.395 54.1655 102.42 54.2289 102.458C54.2796 102.496 54.343 102.521 54.4064 102.534C54.4317 102.547 54.457 102.559 54.4824 102.572C54.5584 102.585 54.6218 102.597 54.6978 102.597H58.513C59.0326 102.597 59.4636 102.166 59.4636 101.647C59.4636 101.127 59.0326 100.696 58.513 100.696H55.8893L58.3228 90.2141C58.3228 90.2014 58.3228 90.1888 58.3228 90.1761C58.3355 90.1127 58.3355 90.0493 58.3228 89.9859C58.3228 89.9226 58.3229 89.8592 58.3102 89.8085C58.3102 89.7958 58.3102 89.7831 58.3102 89.7578L55.9653 81.215L59.8058 75.8916L63.6462 81.215L61.3014 89.7578C61.3014 89.7705 61.3014 89.7831 61.3014 89.8085C61.2887 89.8718 61.2887 89.9352 61.2887 89.9859C61.2887 90.0493 61.276 90.1127 61.2887 90.1761C61.2887 90.1888 61.2887 90.2014 61.2887 90.2141L63.9884 101.862C64.0011 101.888 64.0138 101.913 64.0264 101.951C64.0391 102.002 64.0645 102.04 64.0772 102.078C64.1152 102.141 64.1532 102.192 64.1912 102.255C64.2166 102.293 64.2419 102.318 64.2799 102.356C64.3306 102.407 64.394 102.445 64.4701 102.483C64.5081 102.496 64.5335 102.521 64.5715 102.534C64.6856 102.572 64.7996 102.597 64.9137 102.597H91.049C91.5686 102.597 91.9996 102.166 91.9996 101.647V80.9109C92.0123 80.4672 91.7335 80.0869 91.3279 79.9729ZM61.6689 75.1819H67.2712V82.9388L61.6689 75.1819ZM52.3404 82.9388V75.1819H57.9426L52.3404 82.9388ZM67.4359 86.437C67.4486 86.4497 67.474 86.4623 67.4867 86.475C67.5501 86.5511 67.6261 86.6145 67.7148 86.6652C67.7528 86.6905 67.7782 86.7158 67.8162 86.7285C67.943 86.7792 68.0697 86.8172 68.2092 86.8172C68.3232 86.8172 68.4372 86.7919 68.5386 86.7539C68.5767 86.7412 68.602 86.7158 68.6401 86.7031C68.6781 86.6778 68.7288 86.6651 68.7668 86.6398C68.7922 86.6271 68.8048 86.6018 68.8175 86.5891C68.8682 86.5511 68.9062 86.5004 68.9442 86.4497C68.9823 86.399 69.0203 86.361 69.0457 86.2976C69.071 86.2469 69.0837 86.1962 69.109 86.1328C69.1217 86.0695 69.1471 86.0061 69.1471 85.9427C69.1471 85.9173 69.1598 85.892 69.1598 85.8666V75.486L90.1111 81.5826V100.658H65.6868L63.2153 89.9859L65.0911 83.1415L67.4359 86.437Z" fill="#740B99"/>
<path d="M60.0594 55.361C66.6502 55.361 72.0116 49.9996 72.0116 43.4087C72.0116 42.8383 71.9736 42.2553 71.8848 41.6849C71.8088 41.1653 71.3399 40.785 70.8075 40.8737C70.2879 40.9498 69.933 41.4314 69.9963 41.9511C70.0597 42.4327 70.0977 42.927 70.0977 43.4087C70.0977 48.9602 65.5855 53.4597 60.0467 53.4597C54.5078 53.4597 49.9956 48.9475 49.9956 43.4087C49.9956 37.8698 54.5078 33.3576 60.0467 33.3576C62.4676 33.3576 64.8123 34.2322 66.6375 35.8165C67.0304 36.1588 67.6389 36.1207 67.9811 35.7151C68.3233 35.3222 68.2853 34.7138 67.8797 34.3716C65.7123 32.4831 62.9239 31.4564 60.0467 31.4564C53.4558 31.4564 48.0944 36.8178 48.0944 43.4087C48.0944 49.9869 53.4685 55.361 60.0594 55.361Z" fill="#740B99"/>
</svg>
