<svg width="120" height="120" viewBox="0 0 120 120" fill="none" xmlns="http://www.w3.org/2000/svg">
<g clip-path="url(#clip0)">
<path d="M100.817 83.0447C100.663 82.8265 100.432 82.6746 100.171 82.6197C99.9092 82.5648 99.6367 82.611 99.4079 82.7488C84.8819 92.4141 71.6379 97.134 58.859 97.134C46.4322 97.134 33.5969 92.6959 19.6203 83.566C19.3849 83.4128 19.0982 83.3594 18.8235 83.4175C18.5487 83.4757 18.3082 83.6406 18.155 83.876C18.0018 84.1114 17.9484 84.398 18.0065 84.6728C18.0646 84.9476 18.2296 85.1881 18.465 85.3413C32.822 94.6966 46.0377 99.2474 58.859 99.2474C72.0465 99.2474 85.6286 94.4148 100.507 84.4818C100.735 84.3294 100.895 84.0942 100.953 83.826C101.011 83.5578 100.962 83.2776 100.817 83.0447Z" fill="#740B99"/>
<path d="M19.0552 35.6767C19.2491 35.6764 19.4392 35.6228 19.6047 35.5217C32.8063 27.3217 46.0221 23.1654 58.8574 23.1654C71.6928 23.1654 84.8099 27.2936 97.9552 35.4231C98.0736 35.4962 98.2053 35.5452 98.3426 35.5674C98.48 35.5896 98.6204 35.5845 98.7558 35.5525C98.8912 35.5204 99.019 35.462 99.1318 35.3806C99.2447 35.2992 99.3404 35.1963 99.4135 35.0779C99.4865 34.9595 99.5356 34.8278 99.5578 34.6905C99.58 34.5531 99.5749 34.4127 99.5429 34.2773C99.5108 34.1419 99.4524 34.0141 99.371 33.9013C99.2895 33.7884 99.1867 33.6927 99.0683 33.6196C85.6271 25.2788 72.0732 21.052 58.8574 21.052C45.6417 21.052 32.0878 25.2788 18.4916 33.7324C18.2941 33.853 18.1416 34.0352 18.0577 34.2509C17.9737 34.4666 17.9629 34.7039 18.0269 34.9264C18.0909 35.1488 18.2262 35.3441 18.412 35.4822C18.5978 35.6203 18.8237 35.6936 19.0552 35.6908V35.6767Z" fill="#740B99"/>
<path d="M51.8142 59.8113C51.8135 60.6329 51.9566 61.4483 52.2369 62.2206C52.3377 62.4765 52.5344 62.6831 52.7851 62.7963C53.0358 62.9095 53.3208 62.9205 53.5794 62.8269C53.8381 62.7334 54.0501 62.5426 54.1704 62.2952C54.2906 62.0478 54.3097 61.7633 54.2235 61.5021C53.8498 60.4655 53.8341 59.3336 54.1788 58.2871C54.5235 57.2405 55.2088 56.3396 56.1254 55.728C57.0419 55.1164 58.1369 54.8293 59.2356 54.9127C60.3343 54.996 61.3734 55.445 62.1872 56.1878C63.0009 56.9307 63.5425 57.9247 63.7254 59.0113C63.9083 60.0979 63.722 61.2144 63.1962 62.1827C62.6705 63.1511 61.8356 63.9154 60.8247 64.3539C59.8138 64.7923 58.6852 64.8796 57.619 64.6017C57.4814 64.5563 57.336 64.5397 57.1917 64.5529C57.0474 64.5662 56.9074 64.6089 56.7803 64.6785C56.6533 64.7481 56.5419 64.8431 56.4531 64.9576C56.3643 65.0721 56.3 65.2036 56.2642 65.344C56.2284 65.4844 56.2218 65.6306 56.2449 65.7736C56.268 65.9166 56.3202 66.0534 56.3984 66.1754C56.4765 66.2974 56.579 66.402 56.6993 66.4827C56.8196 66.5634 56.9552 66.6185 57.0977 66.6446C58.5197 67.0118 60.0209 66.9253 61.3914 66.3974C62.7619 65.8694 63.9331 64.9263 64.7412 63.6999C65.5493 62.4736 65.9539 61.0253 65.8985 59.5577C65.843 58.0901 65.3303 56.6765 64.4319 55.5146C63.5336 54.3528 62.2945 53.5007 60.8881 53.0777C59.4817 52.6546 57.9782 52.6817 56.588 53.1551C55.1977 53.6285 53.9902 54.5246 53.1342 55.7181C52.2783 56.9116 51.8168 58.3427 51.8142 59.8113Z" fill="#740B99"/>
<path d="M29.3841 59.812C29.3841 65.645 31.1139 71.3469 34.3548 76.1966C37.5958 81.0463 42.2021 84.826 47.5913 87.0575C52.9805 89.2891 58.9105 89.8722 64.6312 88.7332C70.3518 87.5943 75.6062 84.7843 79.7298 80.6588C83.8533 76.5333 86.6607 71.2776 87.797 65.5564C88.9332 59.8351 88.3472 53.9055 86.1131 48.5173C83.879 43.1292 80.0971 38.5246 75.2459 35.286C70.3946 32.0475 64.6918 30.3203 58.8589 30.3231C51.0484 30.3528 43.5665 33.4697 38.0449 38.9939C32.5233 44.5181 29.4101 52.0015 29.3841 59.812ZM86.2485 59.812C86.2485 65.2258 84.6433 70.518 81.6358 75.0195C78.6284 79.5211 74.3538 83.0299 69.3524 85.1023C64.351 87.1747 58.8474 87.7177 53.5375 86.6625C48.2275 85.6074 43.3497 83.0015 39.5206 79.1744C35.6915 75.3473 33.0831 70.4707 32.0252 65.1613C30.9673 59.8519 31.5075 54.3481 33.5773 49.3456C35.6471 44.3432 39.1537 40.0667 43.6537 37.057C48.1537 34.0472 53.4451 32.4393 58.8589 32.4365C66.1219 32.4365 73.0879 35.3198 78.2262 40.4529C83.3646 45.586 86.2551 52.549 86.2626 59.812H86.2485Z" fill="#740B99"/>
<path d="M65.5092 42.6791C69.3196 44.1629 72.5304 46.8683 74.639 50.3718C74.714 50.4911 74.8117 50.5946 74.9266 50.6761C75.0415 50.7577 75.1713 50.8159 75.3087 50.8473C75.4461 50.8787 75.5883 50.8827 75.7272 50.8591C75.8661 50.8356 75.9991 50.7849 76.1184 50.7099C76.2378 50.635 76.3412 50.5373 76.4228 50.4224C76.5043 50.3075 76.5625 50.1777 76.5939 50.0403C76.6253 49.9029 76.6293 49.7607 76.6058 49.6218C76.5822 49.4828 76.5315 49.3499 76.4566 49.2306C74.0828 45.3694 70.5026 42.3983 66.27 40.777C66.0084 40.6761 65.7175 40.6833 65.4612 40.7969C65.2049 40.9105 65.0042 41.1213 64.9033 41.3828C64.8025 41.6444 64.8096 41.9353 64.9232 42.1916C65.0368 42.4479 65.2476 42.6486 65.5092 42.7495V42.6791Z" fill="#740B99"/>
</g>
<defs>
<clipPath id="clip0">
<rect width="83" height="78.1955" fill="white" transform="translate(18 21.052)"/>
</clipPath>
</defs>
</svg>
