<svg width="120" height="120" viewBox="0 0 120 120" fill="none" xmlns="http://www.w3.org/2000/svg">
<path fill-rule="evenodd" clip-rule="evenodd" d="M24.0612 94.6265C24.3367 94.4888 24.6608 94.4888 24.9362 94.6265C26.2441 95.2804 27.5637 95.6123 28.5647 95.7791C29.0629 95.8621 29.4759 95.9032 29.7605 95.9236C29.9027 95.9337 30.0123 95.9387 30.084 95.941C30.1198 95.9422 30.1461 95.9428 30.1622 95.9431L30.1785 95.9433L30.1958 95.9431C30.2119 95.9428 30.2381 95.9422 30.274 95.941C30.3456 95.9387 30.4553 95.9337 30.5974 95.9236C30.882 95.9032 31.295 95.8621 31.7932 95.7791C32.7942 95.6123 34.1139 95.2804 35.4217 94.6265C35.6971 94.4888 36.0213 94.4888 36.2967 94.6265L39.1368 96.0465C39.1576 96.0569 39.178 96.0681 39.198 96.0799C41.304 97.3279 42.8243 99.2481 43.8046 100.802C44.2994 101.586 44.6681 102.295 44.914 102.811C45.0372 103.069 45.1301 103.279 45.1931 103.427C45.2246 103.502 45.2487 103.56 45.2654 103.602L45.2848 103.651L45.2904 103.665L45.2922 103.67L45.2928 103.671C45.2928 103.671 45.2933 103.672 44.3795 104.022L45.2933 103.672C45.4862 104.177 45.2336 104.743 44.7289 104.936C44.2246 105.128 43.6594 104.876 43.4661 104.372L43.4658 104.371L43.4634 104.365L43.4504 104.332C43.4381 104.302 43.4188 104.255 43.3923 104.192C43.3394 104.068 43.2581 103.883 43.1483 103.653C42.9283 103.192 42.5958 102.553 42.1499 101.846C41.2536 100.425 39.9436 98.8056 38.2297 97.7805L35.8486 96.5899C34.4713 97.2146 33.1337 97.5392 32.1149 97.709C31.548 97.8035 31.0735 97.8511 30.7368 97.8751C30.5683 97.8872 30.4339 97.8933 30.3391 97.8965C30.2918 97.8981 30.2542 97.8989 30.2273 97.8993L30.195 97.8997L30.1849 97.8998L30.1814 97.8998L30.1801 97.8998C30.1801 97.8998 30.179 97.8998 30.179 96.9215C30.179 97.8998 30.1785 97.8998 30.1785 97.8998L30.1765 97.8998L30.173 97.8998L30.163 97.8997L30.1306 97.8993C30.1037 97.8989 30.0662 97.8981 30.0188 97.8965C29.924 97.8933 29.7896 97.8872 29.6211 97.8751C29.2845 97.8511 28.8099 97.8035 28.2431 97.709C27.2242 97.5392 25.8866 97.2146 24.5093 96.5899L22.1282 97.7805C20.4143 98.8056 19.1043 100.425 18.2081 101.846C17.7621 102.553 17.4296 103.192 17.2096 103.653C17.0998 103.883 17.0185 104.068 16.9656 104.192C16.9392 104.255 16.9198 104.302 16.9076 104.332L16.8945 104.365L16.8921 104.371C16.699 104.876 16.1335 105.128 15.629 104.936C15.1244 104.743 14.8717 104.177 15.0647 103.672L15.9784 104.022C15.0647 103.672 15.0647 103.672 15.0647 103.672L15.0657 103.67L15.0675 103.665L15.0731 103.651L15.0926 103.602C15.1092 103.56 15.1333 103.502 15.1648 103.427C15.2278 103.279 15.3207 103.069 15.4439 102.811C15.6898 102.295 16.0585 101.586 16.5534 100.802C17.5336 99.2481 19.0539 97.3279 21.1599 96.0799C21.1799 96.0681 21.2003 96.0569 21.2211 96.0465L24.0612 94.6265Z" fill="url(#paint0_linear)"/>
<path fill-rule="evenodd" clip-rule="evenodd" d="M30.179 80.8591C27.5821 80.8591 25.477 82.9643 25.477 85.5611C25.477 88.1579 27.5821 90.263 30.179 90.263C32.7758 90.263 34.8809 88.1579 34.8809 85.5611C34.8809 82.9643 32.7758 80.8591 30.179 80.8591ZM23.5205 85.5611C23.5205 81.8837 26.5016 78.9026 30.179 78.9026C33.8563 78.9026 36.8375 81.8837 36.8375 85.5611C36.8375 89.2385 33.8563 92.2196 30.179 92.2196C26.5016 92.2196 23.5205 89.2385 23.5205 85.5611Z" fill="url(#paint1_linear)"/>
<path fill-rule="evenodd" clip-rule="evenodd" d="M53.8829 94.6266C54.1583 94.4889 54.4825 94.4889 54.7579 94.6266C56.0657 95.2805 57.3854 95.6123 58.3864 95.7791C58.8845 95.8622 59.2975 95.9033 59.5822 95.9236C59.7243 95.9338 59.834 95.9387 59.9056 95.9411C59.9414 95.9423 59.9677 95.9429 59.9838 95.9431L60.0001 95.9433L60.0174 95.9431C60.0335 95.9429 60.0598 95.9423 60.0956 95.9411C60.1673 95.9387 60.2769 95.9338 60.4191 95.9236C60.7037 95.9033 61.1167 95.8622 61.6149 95.7791C62.6158 95.6123 63.9355 95.2805 65.2433 94.6266C65.5188 94.4889 65.8429 94.4889 66.1183 94.6266L68.9584 96.0466C68.9792 96.057 68.9997 96.0682 69.0197 96.08C71.1256 97.328 72.646 99.2482 73.6262 100.802C74.121 101.586 74.4897 102.295 74.7357 102.811C74.8588 103.069 74.9518 103.279 75.0148 103.428C75.0463 103.502 75.0703 103.56 75.087 103.602L75.1065 103.651L75.1121 103.665L75.1138 103.67L75.1145 103.671C75.1145 103.671 75.1149 103.673 74.2012 104.022L75.1149 103.673C75.3079 104.177 75.0552 104.743 74.5505 104.936C74.0462 105.128 73.4811 104.876 73.2878 104.372L73.2874 104.371L73.285 104.365L73.272 104.332C73.2598 104.302 73.2404 104.255 73.214 104.192C73.161 104.068 73.0798 103.883 72.97 103.653C72.7499 103.192 72.4175 102.553 71.9715 101.846C71.0753 100.425 69.7653 98.8057 68.0514 97.7806L65.6703 96.59C64.2929 97.2147 62.9554 97.5392 61.9365 97.709C61.3696 97.8035 60.8951 97.8511 60.5585 97.8752C60.39 97.8872 60.2555 97.8934 60.1608 97.8966C60.1134 97.8981 60.0759 97.899 60.049 97.8994L60.0166 97.8998L60.0065 97.8998L60.003 97.8999H60.0017C60.0017 97.8999 60.0006 97.8999 60.0006 96.9216C60.0006 97.8999 60.0001 97.8999 60.0001 97.8999H59.9982L59.9947 97.8998L59.9846 97.8998L59.9522 97.8994C59.9253 97.899 59.8878 97.8981 59.8404 97.8966C59.7457 97.8934 59.6113 97.8872 59.4428 97.8752C59.1061 97.8511 58.6316 97.8035 58.0647 97.709C57.0458 97.5392 55.7083 97.2147 54.3309 96.59L51.9498 97.7805C50.236 98.8056 48.926 100.425 48.0297 101.846C47.5837 102.553 47.2513 103.192 47.0313 103.653C46.9215 103.883 46.8402 104.068 46.7873 104.192C46.7608 104.255 46.7415 104.302 46.7292 104.332L46.7162 104.365L46.7138 104.371C46.5207 104.876 45.9552 105.129 45.4507 104.936C44.946 104.743 44.6933 104.177 44.8863 103.673L45.8 104.022C44.8863 103.673 44.8863 103.673 44.8863 103.673L44.8874 103.67L44.8891 103.665L44.8947 103.651L44.9142 103.602C44.9309 103.56 44.955 103.502 44.9865 103.428C45.0495 103.279 45.1424 103.069 45.2655 102.811C45.5115 102.295 45.8802 101.586 46.375 100.802C47.3553 99.2482 48.8756 97.328 50.9816 96.08C51.0016 96.0682 51.022 96.057 51.0428 96.0466L53.8829 94.6266Z" fill="url(#paint2_linear)"/>
<path fill-rule="evenodd" clip-rule="evenodd" d="M60.0006 80.8592C57.4038 80.8592 55.2986 82.9643 55.2986 85.5612C55.2986 88.158 57.4038 90.2631 60.0006 90.2631C62.5974 90.2631 64.7026 88.158 64.7026 85.5612C64.7026 82.9643 62.5974 80.8592 60.0006 80.8592ZM53.3421 85.5612C53.3421 81.8838 56.3232 78.9027 60.0006 78.9027C63.678 78.9027 66.6591 81.8838 66.6591 85.5612C66.6591 89.2385 63.678 92.2196 60.0006 92.2196C56.3232 92.2196 53.3421 89.2385 53.3421 85.5612Z" fill="url(#paint3_linear)"/>
<path fill-rule="evenodd" clip-rule="evenodd" d="M83.7036 94.6266C83.979 94.4889 84.3032 94.4889 84.5786 94.6266C85.8864 95.2805 87.2061 95.6123 88.2071 95.7791C88.7052 95.8622 89.1182 95.9033 89.4029 95.9236C89.545 95.9338 89.6546 95.9387 89.7263 95.9411C89.7621 95.9423 89.7884 95.9429 89.8045 95.9431L89.8208 95.9433L89.8381 95.9431C89.8542 95.9429 89.8805 95.9423 89.9163 95.9411C89.988 95.9387 90.0976 95.9338 90.2397 95.9236C90.5244 95.9033 90.9374 95.8622 91.4355 95.7791C92.4365 95.6123 93.7562 95.2805 95.064 94.6266C95.3394 94.4889 95.6636 94.4889 95.939 94.6266L98.7791 96.0466C98.7999 96.057 98.8204 96.0682 98.8404 96.08C100.946 97.328 102.467 99.2482 103.447 100.802C103.942 101.586 104.31 102.295 104.556 102.811C104.68 103.069 104.772 103.279 104.835 103.428C104.867 103.502 104.891 103.56 104.908 103.602L104.927 103.651L104.933 103.665L104.935 103.67L104.935 103.671C104.935 103.671 104.936 103.673 104.022 104.022L104.936 103.673C105.129 104.177 104.876 104.743 104.371 104.936C103.867 105.128 103.302 104.876 103.108 104.372L103.108 104.371L103.106 104.365L103.093 104.332C103.08 104.302 103.061 104.255 103.035 104.192C102.982 104.068 102.9 103.883 102.791 103.653C102.571 103.192 102.238 102.553 101.792 101.846C100.896 100.425 99.586 98.8057 97.8721 97.7806L95.491 96.59C94.1136 97.2147 92.7761 97.5392 91.7572 97.709C91.1903 97.8035 90.7158 97.8511 90.3791 97.8752C90.2107 97.8872 90.0762 97.8934 89.9815 97.8966C89.9341 97.8981 89.8966 97.899 89.8697 97.8994L89.8373 97.8998L89.8272 97.8998L89.8237 97.8999H89.8224C89.8224 97.8999 89.8213 97.8999 89.8213 96.9216C89.8213 97.8999 89.8208 97.8999 89.8208 97.8999H89.8189L89.8154 97.8998L89.8053 97.8998L89.7729 97.8994C89.746 97.899 89.7085 97.8981 89.6611 97.8966C89.5664 97.8934 89.4319 97.8872 89.2635 97.8752C88.9268 97.8511 88.4523 97.8035 87.8854 97.709C86.8665 97.5392 85.529 97.2147 84.1516 96.59L81.7705 97.7805C80.0566 98.8056 78.7466 100.425 77.8504 101.846C77.4044 102.553 77.072 103.192 76.852 103.653C76.7421 103.883 76.6609 104.068 76.6079 104.192C76.5815 104.255 76.5622 104.302 76.5499 104.332L76.5369 104.365L76.5345 104.371C76.3414 104.876 75.7759 105.129 75.2714 104.936C74.7667 104.743 74.514 104.177 74.707 103.673L75.6207 104.022C74.707 103.673 74.707 103.673 74.707 103.673L74.7081 103.67L74.7098 103.665L74.7154 103.651L74.7349 103.602C74.7516 103.56 74.7756 103.502 74.8072 103.428C74.8702 103.279 74.9631 103.069 75.0862 102.811C75.3322 102.295 75.7009 101.586 76.1957 100.802C77.1759 99.2482 78.6963 97.328 80.8022 96.08C80.8223 96.0682 80.8427 96.057 80.8635 96.0466L83.7036 94.6266Z" fill="url(#paint4_linear)"/>
<path fill-rule="evenodd" clip-rule="evenodd" d="M89.8213 80.8592C87.2245 80.8592 85.1193 82.9643 85.1193 85.5612C85.1193 88.158 87.2245 90.2631 89.8213 90.2631C92.4181 90.2631 94.5233 88.158 94.5233 85.5612C94.5233 82.9643 92.4181 80.8592 89.8213 80.8592ZM83.1628 85.5612C83.1628 81.8838 86.1439 78.9027 89.8213 78.9027C93.4987 78.9027 96.4798 81.8838 96.4798 85.5612C96.4798 89.2385 93.4987 92.2196 89.8213 92.2196C86.1439 92.2196 83.1628 89.2385 83.1628 85.5612Z" fill="url(#paint5_linear)"/>
<path fill-rule="evenodd" clip-rule="evenodd" d="M49.0811 58.5798C49.0811 58.0396 49.5191 57.6016 50.0594 57.6016H79.8805C80.4208 57.6016 80.8588 58.0396 80.8588 58.5798C80.8588 59.1201 80.4208 59.5581 79.8805 59.5581H50.0594C49.5191 59.5581 49.0811 59.1201 49.0811 58.5798Z" fill="url(#paint6_linear)"/>
<path fill-rule="evenodd" clip-rule="evenodd" d="M39.1407 58.5798C39.1407 58.0396 39.5787 57.6016 40.119 57.6016H48.6393C49.1796 57.6016 49.6176 58.0396 49.6176 58.5798C49.6176 59.1201 49.1796 59.5581 48.6393 59.5581H40.119C39.5787 59.5581 39.1407 59.1201 39.1407 58.5798Z" fill="url(#paint7_linear)"/>
<path d="M47.2192 61.42C48.7878 61.42 50.0594 60.1484 50.0594 58.5798C50.0594 57.0113 48.7878 55.7397 47.2192 55.7397C45.6507 55.7397 44.3791 57.0113 44.3791 58.5798C44.3791 60.1484 45.6507 61.42 47.2192 61.42Z" fill="url(#paint8_linear)"/>
<path fill-rule="evenodd" clip-rule="evenodd" d="M46.6954 25.0927C46.9781 24.9132 47.3331 24.8909 47.6361 25.0335L71.7771 36.394C72.1199 36.5553 72.3388 36.9002 72.3388 37.2791C72.3388 37.658 72.1199 38.0029 71.7771 38.1643L47.6361 49.5247C47.3331 49.6673 46.9781 49.645 46.6954 49.4655C46.4126 49.2861 46.2413 48.9745 46.2413 48.6396V25.9187C46.2413 25.5838 46.4126 25.2721 46.6954 25.0927ZM48.1978 27.4602V47.098L69.063 37.2791L48.1978 27.4602Z" fill="url(#paint9_linear)"/>
<path fill-rule="evenodd" clip-rule="evenodd" d="M21.6586 16.9565C20.6368 16.9565 19.7968 17.7966 19.7968 18.8184V65.6802C19.7968 66.702 20.6368 67.5421 21.6586 67.5421H25.9188C26.2267 67.5421 26.5167 67.6871 26.7014 67.9334L30.4063 72.8733L38.1567 67.7064C38.3174 67.5993 38.5062 67.5421 38.6993 67.5421H52.8999C53.122 67.5421 53.3375 67.6177 53.511 67.7565L60.0001 72.9478L66.4893 67.7565C66.6628 67.6177 66.8783 67.5421 67.1004 67.5421H81.301C81.4941 67.5421 81.6829 67.5993 81.8436 67.7064L89.594 72.8733L93.2989 67.9334C93.4836 67.6871 93.7736 67.5421 94.0815 67.5421H98.3417C99.3635 67.5421 100.204 66.702 100.204 65.6802V18.8184C100.204 17.7966 99.3635 16.9565 98.3417 16.9565H21.6586ZM17.8403 18.8184C17.8403 16.716 19.5563 15 21.6586 15H98.3417C100.444 15 102.16 16.716 102.16 18.8184V65.6802C102.16 67.7826 100.444 69.4986 98.3417 69.4986H94.5706L90.6039 74.7875C90.2924 75.2029 89.7107 75.3025 89.2787 75.0145L81.0048 69.4986H67.4436L60.6113 74.9645C60.254 75.2503 59.7463 75.2503 59.389 74.9645L52.5567 69.4986H38.9955L30.7216 75.0145C30.2896 75.3025 29.7079 75.2029 29.3964 74.7875L25.4297 69.4986H21.6586C19.5563 69.4986 17.8403 67.7826 17.8403 65.6802V18.8184Z" fill="url(#paint10_linear)"/>
<defs>
<linearGradient id="paint0_linear" x1="-30.4161" y1="59.1687" x2="60" y2="148.492" gradientUnits="userSpaceOnUse">
<stop stop-color="#FBB63F"/>
<stop offset="0.981306" stop-color="#B069A1"/>
</linearGradient>
<linearGradient id="paint1_linear" x1="-30.4161" y1="59.1687" x2="60" y2="148.492" gradientUnits="userSpaceOnUse">
<stop stop-color="#FBB63F"/>
<stop offset="0.981306" stop-color="#B069A1"/>
</linearGradient>
<linearGradient id="paint2_linear" x1="-30.4161" y1="59.1687" x2="60" y2="148.492" gradientUnits="userSpaceOnUse">
<stop stop-color="#FBB63F"/>
<stop offset="0.981306" stop-color="#B069A1"/>
</linearGradient>
<linearGradient id="paint3_linear" x1="-30.4161" y1="59.1687" x2="60" y2="148.492" gradientUnits="userSpaceOnUse">
<stop stop-color="#FBB63F"/>
<stop offset="0.981306" stop-color="#B069A1"/>
</linearGradient>
<linearGradient id="paint4_linear" x1="-30.4161" y1="59.1687" x2="60" y2="148.492" gradientUnits="userSpaceOnUse">
<stop stop-color="#FBB63F"/>
<stop offset="0.981306" stop-color="#B069A1"/>
</linearGradient>
<linearGradient id="paint5_linear" x1="-30.4161" y1="59.1687" x2="60" y2="148.492" gradientUnits="userSpaceOnUse">
<stop stop-color="#FBB63F"/>
<stop offset="0.981306" stop-color="#B069A1"/>
</linearGradient>
<linearGradient id="paint6_linear" x1="-30.4161" y1="59.1687" x2="60" y2="148.492" gradientUnits="userSpaceOnUse">
<stop stop-color="#FBB63F"/>
<stop offset="0.981306" stop-color="#B069A1"/>
</linearGradient>
<linearGradient id="paint7_linear" x1="-30.4161" y1="59.1687" x2="60" y2="148.492" gradientUnits="userSpaceOnUse">
<stop stop-color="#FBB63F"/>
<stop offset="0.981306" stop-color="#B069A1"/>
</linearGradient>
<linearGradient id="paint8_linear" x1="-30.4161" y1="59.1687" x2="60" y2="148.492" gradientUnits="userSpaceOnUse">
<stop stop-color="#FBB63F"/>
<stop offset="0.981306" stop-color="#B069A1"/>
</linearGradient>
<linearGradient id="paint9_linear" x1="-30.4161" y1="59.1687" x2="60" y2="148.492" gradientUnits="userSpaceOnUse">
<stop stop-color="#FBB63F"/>
<stop offset="0.981306" stop-color="#B069A1"/>
</linearGradient>
<linearGradient id="paint10_linear" x1="-30.4161" y1="59.1687" x2="60" y2="148.492" gradientUnits="userSpaceOnUse">
<stop stop-color="#FBB63F"/>
<stop offset="0.981306" stop-color="#B069A1"/>
</linearGradient>
</defs>
</svg>
