<svg width="120" height="120" viewBox="0 0 120 120" fill="none" xmlns="http://www.w3.org/2000/svg">
<path fill-rule="evenodd" clip-rule="evenodd" d="M64.6482 23.0942C72.1295 23.9467 78.4466 26.9093 83.9043 32.1259L61.9426 54.2163L64.6482 23.0942ZM60.2946 57.769C60.4283 57.8329 60.5727 57.8635 60.7144 57.8635C60.9726 57.8635 61.2269 57.7623 61.4176 57.5705L86.0201 32.8225C86.2055 32.636 86.3101 32.3815 86.3101 32.1165C86.3101 31.8514 86.2055 31.5969 86.0201 31.4104C79.8221 25.1761 72.5647 21.7726 63.8332 21.004C63.5723 20.98 63.3088 21.0639 63.1075 21.2344C62.9062 21.4036 62.7804 21.6487 62.7565 21.9125L59.7251 56.7765C59.6894 57.1948 59.9171 57.5918 60.2946 57.769Z" fill="url(#paint0_linear)"/>
<path fill-rule="evenodd" clip-rule="evenodd" d="M87.9011 70.1023C87.8945 70.0703 87.8733 70.0437 87.864 70.0131C87.7594 69.676 87.4905 69.399 87.121 69.3257L57.4689 63.4271C56.9391 63.3258 56.4094 63.6722 56.3021 64.213C56.1948 64.7552 56.5445 65.2801 57.0822 65.388L85.7371 71.0867C81.8634 88.235 65.5342 99.6526 48.0898 97.1842C39.1491 95.92 31.2335 91.2296 25.7997 83.9776C20.3672 76.7256 18.0668 67.7778 19.3236 58.7847C20.7102 48.8644 26.3519 40.1018 34.8053 34.7454C40.8138 30.9355 47.6885 29.1571 54.75 29.5741L53.3528 45.6314V45.6327L52.0695 60.3792C52.0218 60.928 52.4271 61.4129 52.9727 61.4609C53.0018 61.4649 53.031 61.4662 53.0601 61.4662C53.57 61.4662 54.003 61.0732 54.0481 60.5537L55.2519 46.733V46.7317L56.816 28.7389C56.8398 28.4751 56.7564 28.2127 56.5868 28.0102C56.4187 27.8077 56.1763 27.6798 55.9141 27.6572C48.07 26.9672 40.4086 28.8334 33.7471 33.0536C24.7985 38.7244 18.8243 48.0026 17.3543 58.5063C16.026 68.0282 18.4602 77.5022 24.2131 85.1792C29.9674 92.8601 38.3479 97.8262 47.813 99.1624C49.5003 99.4008 51.1756 99.518 52.8336 99.518C69.6714 99.518 84.5651 87.5543 87.9037 70.4979C87.9276 70.3781 87.921 70.2595 87.9011 70.1449C87.8998 70.1303 87.9037 70.1156 87.9011 70.1023Z" fill="url(#paint1_linear)"/>
<path fill-rule="evenodd" clip-rule="evenodd" d="M101.555 62.785L70.0683 58.3345L92.5505 35.7192C99.6212 43.207 102.721 52.5251 101.555 62.785ZM93.2628 33.5904C92.8906 33.2161 92.2311 33.2161 91.859 33.5904L67.2565 58.3384C66.989 58.6061 66.8963 59.0031 67.0168 59.3615C67.136 59.7211 67.4472 59.9822 67.8194 60.0342L102.275 64.9044C102.321 64.911 102.366 64.915 102.413 64.915C102.629 64.915 102.838 64.8458 103.011 64.7139C103.222 64.554 103.36 64.3156 103.398 64.0545C105.02 52.4278 101.517 41.8935 93.2628 33.5904Z" fill="url(#paint2_linear)"/>
<defs>
<linearGradient id="paint0_linear" x1="46.3043" y1="39.0911" x2="81.3113" y2="64.0356" gradientUnits="userSpaceOnUse">
<stop stop-color="#FBB63F"/>
<stop offset="0.981306" stop-color="#B069A1"/>
</linearGradient>
<linearGradient id="paint1_linear" x1="-18.7869" y1="62.8523" x2="53.5251" y2="133.217" gradientUnits="userSpaceOnUse">
<stop stop-color="#FBB63F"/>
<stop offset="0.981306" stop-color="#B069A1"/>
</linearGradient>
<linearGradient id="paint2_linear" x1="48.3848" y1="48.8203" x2="79.8274" y2="85.0079" gradientUnits="userSpaceOnUse">
<stop stop-color="#FBB63F"/>
<stop offset="0.981306" stop-color="#B069A1"/>
</linearGradient>
</defs>
</svg>
