<svg width="488" height="488" viewBox="0 0 488 488" fill="none" xmlns="http://www.w3.org/2000/svg">
<g filter="url(#filter0_d)">
<circle cx="255" cy="245" r="64" fill="#740B99"/>
</g>
<path d="M248.347 266.446C248.099 266.447 247.859 266.36 247.672 266.202C247.485 266.043 247.364 265.824 247.33 265.584C247.296 265.344 247.353 265.101 247.489 264.899C247.626 264.697 247.833 264.55 248.071 264.486L253.682 262.916H248.351C248.081 262.916 247.821 262.811 247.63 262.623C247.439 262.436 247.331 262.183 247.331 261.918C247.331 261.654 247.439 261.4 247.63 261.213C247.821 261.026 248.081 260.921 248.351 260.921H261.07C261.318 260.92 261.558 261.006 261.745 261.165C261.932 261.323 262.054 261.543 262.087 261.783C262.121 262.022 262.064 262.266 261.928 262.468C261.791 262.67 261.584 262.816 261.346 262.88L248.622 266.41C248.532 266.434 248.44 266.446 248.347 266.446Z" fill="white"/>
<path d="M248.347 271.112C248.099 271.114 247.859 271.027 247.672 270.869C247.485 270.71 247.364 270.491 247.33 270.251C247.296 270.011 247.353 269.768 247.489 269.566C247.626 269.364 247.833 269.217 248.071 269.153L260.795 265.623C260.925 265.587 261.062 265.577 261.196 265.593C261.331 265.608 261.461 265.65 261.579 265.714C261.697 265.779 261.801 265.866 261.885 265.97C261.969 266.074 262.031 266.193 262.068 266.321C262.105 266.448 262.115 266.581 262.099 266.713C262.083 266.844 262.041 266.972 261.975 267.087C261.909 267.203 261.82 267.304 261.713 267.386C261.607 267.468 261.485 267.529 261.355 267.565L248.631 271.095C248.538 271.114 248.442 271.12 248.347 271.112Z" fill="white"/>
<path d="M254.673 273.279C254.425 273.281 254.186 273.194 253.999 273.035C253.811 272.877 253.69 272.657 253.656 272.418C253.622 272.178 253.679 271.934 253.815 271.732C253.952 271.53 254.159 271.384 254.398 271.32L255.3 271.708C255.842 271.558 257.309 270.985 257.462 271.514C257.499 271.64 257.509 271.772 257.494 271.902C257.478 272.032 257.436 272.158 257.371 272.272C257.306 272.386 257.218 272.487 257.113 272.568C257.008 272.649 256.887 272.709 256.758 272.745L254.953 273.239C254.862 273.265 254.768 273.279 254.673 273.279Z" fill="white"/>
<path d="M259.351 258.652H250.125C249.374 258.651 248.654 258.359 248.122 257.839C247.591 257.32 247.292 256.616 247.291 255.881V253.061C244.751 251.502 242.797 249.179 241.722 246.441C240.648 243.703 240.511 240.698 241.332 237.878C242.153 235.057 243.888 232.574 246.276 230.799C248.664 229.024 251.576 228.055 254.575 228.036C257.575 228.018 260.5 228.951 262.911 230.696C265.321 232.44 267.088 234.902 267.946 237.712C268.804 240.522 268.706 243.528 267.667 246.279C266.628 249.03 264.705 251.378 262.185 252.969V255.881C262.184 256.616 261.885 257.32 261.354 257.839C260.823 258.359 260.102 258.651 259.351 258.652ZM254.666 230.051C252.058 230.046 249.522 230.885 247.453 232.437C245.384 233.99 243.899 236.168 243.229 238.632C242.559 241.096 242.742 243.707 243.749 246.059C244.757 248.41 246.532 250.37 248.798 251.632C248.957 251.72 249.089 251.849 249.179 252.004C249.27 252.159 249.316 252.336 249.313 252.514V255.899C249.313 256.105 249.397 256.302 249.546 256.448C249.694 256.593 249.897 256.675 250.107 256.675H259.351C259.455 256.675 259.558 256.655 259.655 256.616C259.751 256.577 259.839 256.52 259.913 256.448C259.986 256.376 260.045 256.29 260.085 256.196C260.125 256.102 260.145 256.001 260.145 255.899V252.413C260.145 252.239 260.191 252.068 260.279 251.918C260.367 251.767 260.493 251.641 260.646 251.552C262.884 250.27 264.627 248.304 265.608 245.957C266.588 243.609 266.751 241.012 266.07 238.565C265.39 236.118 263.904 233.959 261.843 232.42C259.782 230.881 257.259 230.048 254.666 230.051Z" fill="white"/>
<path d="M266.319 228.938C266.134 228.939 265.954 228.885 265.803 228.782C265.651 228.68 265.535 228.535 265.47 228.366C265.405 228.198 265.394 228.014 265.44 227.839C265.485 227.664 265.584 227.508 265.723 227.389L269.334 224.301C269.421 224.214 269.525 224.147 269.64 224.101C269.755 224.056 269.879 224.035 270.003 224.039C270.127 224.042 270.249 224.071 270.361 224.122C270.473 224.174 270.573 224.248 270.655 224.339C270.737 224.43 270.798 224.537 270.836 224.652C270.874 224.768 270.887 224.89 270.874 225.01C270.862 225.131 270.824 225.248 270.763 225.353C270.702 225.459 270.62 225.551 270.521 225.624L266.91 228.713C266.747 228.856 266.537 228.936 266.319 228.938Z" fill="white"/>
<path d="M254.582 225.185C254.343 225.185 254.113 225.092 253.944 224.926C253.775 224.761 253.68 224.536 253.68 224.302V217.467C253.68 217.233 253.775 217.009 253.944 216.843C254.113 216.678 254.343 216.585 254.582 216.585C254.822 216.585 255.051 216.678 255.221 216.843C255.39 217.009 255.485 217.233 255.485 217.467V224.302C255.485 224.536 255.39 224.761 255.221 224.926C255.051 225.092 254.822 225.185 254.582 225.185Z" fill="white"/>
<path d="M272.637 239.392C272.397 239.414 272.159 239.341 271.974 239.191C271.789 239.041 271.672 238.825 271.65 238.591C271.628 238.357 271.702 238.124 271.856 237.943C272.009 237.762 272.23 237.649 272.47 237.627L278.788 236.44C279.024 236.396 279.267 236.445 279.465 236.577C279.663 236.708 279.8 236.912 279.845 237.142C279.889 237.372 279.839 237.609 279.704 237.803C279.57 237.997 279.362 238.13 279.127 238.174L272.808 239.361C272.752 239.377 272.695 239.387 272.637 239.392Z" fill="white"/>
<path d="M242.85 228.939C242.631 228.939 242.419 228.863 242.254 228.722L238.643 225.634C238.483 225.475 238.39 225.263 238.383 225.04C238.376 224.817 238.456 224.6 238.607 224.432C238.757 224.264 238.967 224.158 239.194 224.136C239.421 224.113 239.648 224.175 239.83 224.31L243.441 227.399C243.576 227.517 243.672 227.673 243.715 227.846C243.759 228.018 243.748 228.2 243.684 228.366C243.62 228.533 243.506 228.676 243.357 228.779C243.208 228.881 243.031 228.936 242.85 228.939Z" fill="white"/>
<path d="M235.63 252.267C235.434 252.268 235.242 252.206 235.085 252.09C234.928 251.975 234.814 251.813 234.76 251.628C234.705 251.443 234.714 251.246 234.785 251.067C234.856 250.888 234.985 250.736 235.152 250.635L237.86 248.98C238.063 248.864 238.304 248.83 238.532 248.884C238.76 248.939 238.957 249.079 239.081 249.274C239.206 249.468 239.248 249.703 239.199 249.927C239.149 250.152 239.012 250.348 238.817 250.476L236.109 252.13C235.965 252.219 235.8 252.266 235.63 252.267Z" fill="white"/>
<path d="M236.533 239.392C236.476 239.397 236.418 239.397 236.361 239.392L230.042 238.205C229.803 238.161 229.591 238.025 229.454 237.828C229.317 237.631 229.266 237.389 229.311 237.155C229.357 236.921 229.495 236.714 229.697 236.58C229.898 236.446 230.146 236.396 230.385 236.44L236.704 237.627C236.944 237.649 237.164 237.762 237.318 237.943C237.472 238.124 237.546 238.357 237.523 238.591C237.501 238.825 237.385 239.041 237.2 239.191C237.015 239.341 236.777 239.414 236.537 239.392H236.533Z" fill="white"/>
<defs>
<filter id="filter0_d" x="176.116" y="171.326" width="157.767" height="157.767" filterUnits="userSpaceOnUse" color-interpolation-filters="sRGB">
<feFlood flood-opacity="0" result="BackgroundImageFix"/>
<feColorMatrix in="SourceAlpha" type="matrix" values="0 0 0 0 0 0 0 0 0 0 0 0 0 0 0 0 0 0 127 0"/>
<feOffset dy="5.2093"/>
<feGaussianBlur stdDeviation="7.44186"/>
<feColorMatrix type="matrix" values="0 0 0 0 0 0 0 0 0 0 0 0 0 0 0 0 0 0 0.1 0"/>
<feBlend mode="normal" in2="BackgroundImageFix" result="effect1_dropShadow"/>
<feBlend mode="normal" in="SourceGraphic" in2="effect1_dropShadow" result="shape"/>
</filter>
</defs>
</svg>
