<?xml version="1.0" encoding="utf-8"?>
<!-- Generator: Adobe Illustrator 21.0.2, SVG Export Plug-In . SVG Version: 6.00 Build 0)  -->
<svg version="1.1" id="Layer_1" xmlns="http://www.w3.org/2000/svg" xmlns:xlink="http://www.w3.org/1999/xlink" x="0px" y="0px"
	 viewBox="0 0 58.9 55.5" style="enable-background:new 0 0 58.9 55.5;" xml:space="preserve">

<g>
	<path class="ad-view" d="M58.8,44c-0.2-0.3-0.7-0.4-1-0.2C47.5,50.7,38.1,54,29,54c-8.8,0-17.9-3.2-27.9-9.6c-0.3-0.2-0.8-0.1-1,0.2
		c-0.2,0.3-0.1,0.8,0.2,1c10.2,6.6,19.6,9.9,28.7,9.9c9.4,0,19-3.4,29.6-10.5C58.9,44.8,59,44.3,58.8,44z"/>
	<path class="ad-view" d="M0.8,10.4c0.1,0,0.3,0,0.4-0.1C10.5,4.5,19.9,1.5,29,1.5c9.1,0,18.4,2.9,27.7,8.7c0.4,0.2,0.8,0.1,1-0.2
		c0.2-0.4,0.1-0.8-0.2-1C48,3,38.4,0,29,0C19.6,0,10,3,0.4,9C0,9.2-0.1,9.7,0.1,10C0.3,10.3,0.5,10.4,0.8,10.4z"/>
	<path class="ad-view" d="M24,27.5c0,0.6,0.1,1.2,0.3,1.7c0.1,0.4,0.6,0.6,1,0.4c0.4-0.1,0.6-0.6,0.4-1c-0.1-0.4-0.2-0.8-0.2-1.2
		c0-1.9,1.6-3.5,3.5-3.5c1.9,0,3.5,1.6,3.5,3.5c0,1.9-1.6,3.5-3.5,3.5c-0.3,0-0.6,0-0.9-0.1c-0.4-0.1-0.8,0.1-0.9,0.5
		c-0.1,0.4,0.1,0.8,0.5,0.9c0.4,0.1,0.8,0.2,1.3,0.2c2.8,0,5-2.2,5-5c0-2.8-2.2-5-5-5S24,24.8,24,27.5z"/>
	<path class="ad-view" d="M8.1,27.5c0,11.5,9.4,20.9,20.9,20.9s20.9-9.4,20.9-20.9S40.6,6.6,29,6.6S8.1,16,8.1,27.5z M48.4,27.5
		c0,10.7-8.7,19.4-19.4,19.4c-10.7,0-19.4-8.7-19.4-19.4C9.6,16.8,18.3,8.1,29,8.1C39.7,8.1,48.4,16.8,48.4,27.5z"/>
	<path class="ad-view" d="M33.7,15.4c2.7,1,5,3,6.5,5.5c0.1,0.2,0.4,0.4,0.6,0.4c0.1,0,0.3,0,0.4-0.1c0.4-0.2,0.5-0.7,0.3-1
		c-1.7-2.8-4.2-4.9-7.2-6.1c-0.4-0.2-0.8,0-1,0.4C33.1,14.8,33.3,15.2,33.7,15.4z"/>
</g>
</svg>
