<?xml version="1.0" encoding="utf-8"?>
<!-- Generator: Adobe Illustrator 21.0.2, SVG Export Plug-In . SVG Version: 6.00 Build 0)  -->
<svg version="1.1" id="Layer_1" xmlns="http://www.w3.org/2000/svg" xmlns:xlink="http://www.w3.org/1999/xlink" x="0px" y="0px"
	 viewBox="0 0 153 153" style="enable-background:new 0 0 153 153;" xml:space="preserve">

<g>
	<g>
		<g>
			<path class="st0" d="M76.5,153C34.3,153,0,118.7,0,76.5C0,34.3,34.3,0,76.5,0C118.7,0,153,34.3,153,76.5
				C153,118.7,118.7,153,76.5,153z M76.5,3C36,3,3,36,3,76.5C3,117,36,150,76.5,150c40.5,0,73.5-33,73.5-73.5C150,36,117,3,76.5,3z"
				/>
		</g>
		<g>
			<path class="st0" d="M151,78h-11.5c-0.8,0-1.5-0.7-1.5-1.5c0-0.8,0.7-1.5,1.5-1.5H151c0.8,0,1.5,0.7,1.5,1.5
				C152.5,77.3,151.8,78,151,78z"/>
		</g>
		<g>
			<path class="st0" d="M15.2,78H3.7c-0.8,0-1.5-0.7-1.5-1.5c0-0.8,0.7-1.5,1.5-1.5h11.5c0.8,0,1.5,0.7,1.5,1.5
				C16.7,77.3,16,78,15.2,78z"/>
		</g>
		<g>
			<path class="st0" d="M76.5,17.6c-0.8,0-1.5-0.7-1.5-1.5V4.6c0-0.8,0.7-1.5,1.5-1.5c0.8,0,1.5,0.7,1.5,1.5v11.5
				C78,16.9,77.3,17.6,76.5,17.6z"/>
		</g>
		<g>
			<path class="st0" d="M76.5,150.1c-0.8,0-1.5-0.7-1.5-1.5v-11.5c0-0.8,0.7-1.5,1.5-1.5c0.8,0,1.5,0.7,1.5,1.5v11.5
				C78,149.4,77.3,150.1,76.5,150.1z"/>
		</g>
	</g>
	<g>
		<g>
			<g>
				<g>
					<path class="st0" d="M76.6,113.3c-17.1,0-35.3-4.2-35.3-12.1c0-6.5,6-13.4,13.3-15.3c6.9-1.9,10-2.7,11.4-3.1
						c0-0.6,0.1-1.6,0.1-2.8v-4c0-0.8,0.7-1.5,1.5-1.5s1.5,0.7,1.5,1.5v4c0,4,0,5.4-1.5,5.5c-1,0.3-8.5,2.3-12.2,3.3
						c-6,1.6-11.1,7.3-11.1,12.5c0,4.3,13.8,9.1,32.3,9.1s32.3-5,32.3-9.4c0-5.3-5.1-10.8-11.3-12.3c-5-1.3-13.5-4.5-13.5-8.6v-4
						c0-0.8,0.7-1.5,1.5-1.5s1.5,0.7,1.5,1.5v4c0.1,1,4.1,3.9,11.3,5.6c7.6,1.9,13.5,8.6,13.5,15.3C111.9,109,93.7,113.3,76.6,113.3
						z M67.3,82.5c-0.1,0-0.3,0-0.4,0.1C67.2,82.5,67.3,82.5,67.3,82.5z"/>
				</g>
			</g>
			<g>
				<g>
					<path class="st0" d="M67.8,77.5c-0.3,0-0.6-0.1-0.9-0.3c-4.4-3.1-7.5-9.5-7.5-15.7c0-9.5,7.8-17.3,17.3-17.3
						C86.2,44.2,94,52,94,61.5c0,6.1-3.1,12.6-7.5,15.7c-0.7,0.5-1.6,0.3-2.1-0.4c-0.5-0.7-0.3-1.6,0.4-2.1
						c3.6-2.6,6.3-8.2,6.3-13.3c0-7.9-6.4-14.3-14.3-14.3c-7.9,0-14.3,6.4-14.3,14.3c0,5.2,2.6,10.8,6.3,13.3
						c0.7,0.5,0.9,1.4,0.4,2.1C68.7,77.3,68.3,77.5,67.8,77.5z"/>
				</g>
			</g>
		</g>
		<g>
			<g>
				<path class="st0" d="M124.2,99.3c-0.8,0-1.5-0.7-1.5-1.5c0-5.6-3.4-12.5-10.8-15.4c-1.7-0.7-3.4-1.2-4.9-1.7
					c-4.6-1.5-7.8-2.6-7.8-5.3v-2.7c0-0.8,0.7-1.5,1.5-1.5s1.5,0.7,1.5,1.5v2.7c0.3,0.6,3.5,1.7,5.8,2.4c1.5,0.5,3.3,1.1,5.1,1.8
					c8.8,3.4,12.8,11.6,12.8,18.2C125.7,98.6,125,99.3,124.2,99.3z"/>
			</g>
			<g>
				<g>
					<path class="st0" d="M100.6,74.3c-0.5,0-1-0.2-1.2-0.7c-0.5-0.7-0.3-1.6,0.4-2.1c3.1-2.1,4.7-5.9,4.7-11.4
						c0-3.2-1.5-5.2-2.8-6.3c-2.1-1.9-5.2-2.8-8.2-2.4c-0.8,0.1-1.6-0.5-1.7-1.3c-0.1-0.8,0.5-1.6,1.3-1.7c3.8-0.5,7.8,0.7,10.5,3.1
						c2.5,2.2,3.8,5.2,3.8,8.6c0,6.5-2,11.1-6.1,13.8C101.2,74.2,100.9,74.3,100.6,74.3z"/>
				</g>
			</g>
		</g>
		<g>
			<g>
				<path class="st0" d="M28.8,99.3c-0.8,0-1.5-0.7-1.5-1.5c0-6.6,3.9-14.8,12.8-18.2c1.8-0.7,3.5-1.3,5.1-1.8
					c2.3-0.8,5.5-1.8,5.8-2.5l0-2.6c0-0.8,0.7-1.5,1.5-1.5s1.5,0.7,1.5,1.5v2.7c0,2.7-3.3,3.8-7.8,5.3c-1.5,0.5-3.2,1.1-4.9,1.7
					c-7.5,2.9-10.8,9.8-10.8,15.4C30.3,98.6,29.6,99.3,28.8,99.3z"/>
			</g>
			<g>
				<g>
					<path class="st0" d="M52.4,74.3c-0.3,0-0.6-0.1-0.8-0.3c-4-2.7-6.1-7.4-6.1-13.8c0-3.3,1.4-6.4,3.8-8.6
						c2.8-2.4,6.7-3.6,10.5-3.1c0.8,0.1,1.4,0.9,1.3,1.7c-0.1,0.8-0.9,1.4-1.7,1.3c-3-0.4-6.1,0.5-8.2,2.4C50,55,48.5,57,48.5,60.2
						c0,5.4,1.6,9.2,4.7,11.4c0.7,0.5,0.9,1.4,0.4,2.1C53.4,74.1,52.9,74.3,52.4,74.3z"/>
				</g>
			</g>
		</g>
	</g>
</g>
</svg>
