<?xml version="1.0" encoding="utf-8"?>
<!-- Generator: Adobe Illustrator 21.0.2, SVG Export Plug-In . SVG Version: 6.00 Build 0)  -->
<svg version="1.1" id="Isolation_Mode" xmlns="http://www.w3.org/2000/svg" xmlns:xlink="http://www.w3.org/1999/xlink" x="0px"
	 y="0px" viewBox="0 0 128.5 93.3" style="enable-background:new 0 0 128.5 93.3;" xml:space="preserve">

<g>
	<g>
		<g>
			<g>
				<path class="st0" d="M77.3,93.3H33.5c-1,0-1.8-0.6-2-1.4c-0.2-0.8,0.2-1.6,1-2c3.1-1.6,5.2-4.1,5.7-6.8c0.8-3.8,0.4-7.7,0.4-7.7
					c0-0.3,0.1-0.6,0.3-0.8c0.2-0.2,0.5-0.3,0.7-0.3h31.8c0.3,0,0.6,0.1,0.7,0.3c0.2,0.2,0.3,0.5,0.3,0.8c0,0-0.4,3.9,0.4,7.7
					c0.5,2.7,2.7,5.3,5.7,6.8c0.8,0.5,1.2,1.3,1,2.1C79.1,92.7,78.3,93.3,77.3,93.3z M33.9,91.3h43c-3.3-1.9-5.6-4.8-6.2-7.9
					c-0.6-2.9-0.6-5.7-0.5-7.2H40.6c0.1,1.5,0.1,4.3-0.5,7.2C39.5,86.6,37.2,89.4,33.9,91.3z"/>
			</g>
			<g>
				<path class="st0" d="M55.4,70.8c-1.2,0-2.1-0.9-2.1-2.1s0.9-2.1,2.1-2.1s2.1,0.9,2.1,2.1S56.6,70.8,55.4,70.8z M55.4,68.6
					c-0.1,0-0.1,0-0.1,0.1c0,0.1,0.2,0.1,0.2,0C55.5,68.6,55.5,68.6,55.4,68.6z"/>
			</g>
			<g>
				<path class="st0" d="M92,76.2H6.4c-3.5,0-6.4-2.9-6.4-6.4v-7.7c0-0.6,0.4-1,1-1h21c0.6,0,1,0.4,1,1s-0.4,1-1,1H2v6.7
					c0,2.5,1.9,4.4,4.4,4.4H92c0.6,0,1,0.4,1,1S92.6,76.2,92,76.2z"/>
			</g>
			<g>
				<path class="st0" d="M91.9,63.2H1c-0.6,0-1-0.4-1-1V6.8C0,3.1,3.1,0,6.8,0h97.1c3.7,0,6.8,3.1,6.8,6.8v27c0,0.6-0.4,1-1,1
					s-1-0.4-1-1v-27c0-2.6-2.2-4.8-4.8-4.8H6.8C4.2,2,2,4.2,2,6.8v54.4h89.9c0.6,0,1,0.4,1,1S92.5,63.2,91.9,63.2z"/>
			</g>
		</g>
		<g id="XMLID_2313_">
			<rect x="95.5" y="79.6" class="st0" width="28.4" height="2"/>
		</g>
		<g id="XMLID_2312_">
			<path class="st0" d="M124.8,93.3H94.7c-2,0-3.7-1.7-3.7-3.7V36.5c0-2,1.7-3.7,3.7-3.7h30c2,0,3.7,1.7,3.7,3.7v53
				c0.1,1-0.3,1.9-1,2.7C126.8,92.9,125.8,93.3,124.8,93.3z M94.7,34.8c-1,0-1.7,0.7-1.7,1.7v53.1c0,1,0.7,1.7,1.7,1.7h30.1
				c0.5,0,0.9-0.2,1.2-0.5c0.3-0.3,0.5-0.8,0.4-1.2l0-53.1c0-1-0.7-1.7-1.7-1.7H94.7z"/>
		</g>
		<g id="XMLID_2311_">
			<path class="st0" d="M109.7,88.4c-1,0-1.9-0.9-1.9-1.9s0.9-1.9,1.9-1.9c1,0,1.9,0.9,1.9,1.9S110.7,88.4,109.7,88.4z M109.7,86.4
				c-0.1,0-0.1,0-0.1,0.1C109.6,86.6,109.8,86.6,109.7,86.4C109.8,86.4,109.8,86.4,109.7,86.4z"/>
		</g>
		<g id="XMLID_2310_">
			<path class="st0" d="M113.2,40.7h-7c-0.6,0-1-0.4-1-1s0.4-1,1-1h7c0.6,0,1,0.4,1,1S113.8,40.7,113.2,40.7z"/>
		</g>
	</g>
	<g>
		<path class="st0" d="M59.8,37.6c0-1-0.3-1.8-1-2.5s-1.8-1.3-3.5-1.9c-2.2-0.7-3.9-1.6-5-2.7s-1.7-2.6-1.7-4.5
			c0-1.8,0.5-3.3,1.6-4.4c1-1.1,2.5-1.8,4.3-2.1V16H57v3.6c1.8,0.2,3.2,1,4.3,2.2c1,1.3,1.5,2.9,1.5,5.1h-3.2c0-1.4-0.3-2.5-1-3.4
			s-1.6-1.3-2.9-1.3c-1.3,0-2.3,0.3-2.9,1c-0.6,0.7-1,1.6-1,2.8c0,1.1,0.3,1.9,1,2.6s1.9,1.3,3.6,1.9c2.2,0.7,3.9,1.6,5,2.7
			s1.6,2.5,1.6,4.4s-0.6,3.4-1.7,4.5c-1.1,1.1-2.7,1.8-4.6,2v3.2h-2.6V44c-1.9-0.2-3.4-0.9-4.6-2.1c-1.2-1.2-1.8-2.9-1.7-5.2v-0.1
			h3.1c0,1.7,0.4,2.9,1.3,3.6c0.9,0.7,1.9,1.1,3.1,1.1c1.4,0,2.5-0.3,3.3-1C59.4,39.7,59.8,38.8,59.8,37.6z"/>
	</g>
	<g>
		<g>
			<g>
				<g>
					<g>
						<path class="st0" d="M70,33.1c-0.1,0-0.2,0-0.3,0c-0.1,0-0.2,0-0.3-0.1c-0.1,0-0.2-0.1-0.3-0.1c-0.1-0.1-0.2-0.1-0.2-0.2
							c-0.3-0.3-0.4-0.7-0.4-1.1c0-0.1,0-0.2,0-0.3c0-0.1,0-0.2,0.1-0.3c0-0.1,0.1-0.2,0.1-0.3c0.1-0.1,0.1-0.2,0.2-0.2
							c0.4-0.4,0.9-0.5,1.4-0.4c0.1,0,0.2,0,0.3,0.1c0.1,0,0.2,0.1,0.3,0.1c0.1,0.1,0.2,0.1,0.2,0.2c0.1,0.1,0.1,0.1,0.2,0.2
							c0,0.1,0.1,0.2,0.1,0.3c0,0.1,0.1,0.2,0.1,0.3c0,0.1,0,0.2,0,0.3c0,0.4-0.2,0.8-0.4,1.1c-0.1,0.1-0.1,0.1-0.2,0.2
							c-0.1,0.1-0.2,0.1-0.3,0.1c-0.1,0-0.2,0.1-0.3,0.1C70.2,33.1,70.1,33.1,70,33.1z"/>
					</g>
					<g>
						<path class="st0" d="M77.5,33.1c-0.8,0-1.5-0.7-1.5-1.5s0.7-1.5,1.5-1.5h0c0.8,0,1.5,0.7,1.5,1.5S78.3,33.1,77.5,33.1z"/>
					</g>
					<g>
						<path class="st0" d="M85,33.1c-0.1,0-0.2,0-0.3,0c-0.1,0-0.2,0-0.3-0.1c-0.1,0-0.2-0.1-0.3-0.1c-0.1-0.1-0.2-0.1-0.2-0.2
							c-0.1-0.1-0.1-0.1-0.2-0.2c0-0.1-0.1-0.2-0.1-0.3c0-0.1-0.1-0.2-0.1-0.3c0-0.1,0-0.2,0-0.3c0-0.1,0-0.2,0-0.3
							c0-0.1,0-0.2,0.1-0.3c0-0.1,0.1-0.2,0.1-0.3c0.1-0.1,0.1-0.2,0.2-0.2c0.1-0.1,0.1-0.1,0.2-0.2c0.1,0,0.2-0.1,0.3-0.1
							c0.1,0,0.2-0.1,0.3-0.1c0.2,0,0.4,0,0.6,0c0.1,0,0.2,0,0.3,0.1c0.1,0,0.2,0.1,0.3,0.1c0.1,0.1,0.2,0.1,0.2,0.2
							c0.1,0.1,0.1,0.1,0.2,0.2c0,0.1,0.1,0.2,0.1,0.3c0,0.1,0.1,0.2,0.1,0.3c0,0.1,0,0.2,0,0.3c0,0.1,0,0.2,0,0.3
							c0,0.1,0,0.2-0.1,0.3c0,0.1-0.1,0.2-0.1,0.3c-0.1,0.1-0.1,0.2-0.2,0.2c-0.1,0.1-0.1,0.1-0.2,0.2c-0.1,0.1-0.2,0.1-0.3,0.1
							c-0.1,0-0.2,0.1-0.3,0.1C85.2,33.1,85.1,33.1,85,33.1z"/>
					</g>
				</g>
			</g>
		</g>
		<g>
			<g>
				<g>
					<g>
						<path class="st0" d="M25.7,33.1c-0.1,0-0.2,0-0.3,0c-0.1,0-0.2,0-0.3-0.1c-0.1,0-0.2-0.1-0.3-0.1c-0.1-0.1-0.2-0.1-0.2-0.2
							c-0.3-0.3-0.4-0.7-0.4-1.1c0-0.1,0-0.2,0-0.3c0-0.1,0-0.2,0.1-0.3c0-0.1,0.1-0.2,0.1-0.3c0.1-0.1,0.1-0.2,0.2-0.2
							c0.1-0.1,0.2-0.1,0.2-0.2c0.1,0,0.2-0.1,0.3-0.1c0.1,0,0.2-0.1,0.3-0.1c0.5-0.1,1,0.1,1.4,0.4c0.1,0.1,0.1,0.1,0.2,0.2
							c0.1,0.1,0.1,0.2,0.1,0.3c0,0.1,0.1,0.2,0.1,0.3c0,0.1,0,0.2,0,0.3c0,0.4-0.2,0.8-0.4,1.1C26.5,32.9,26.1,33.1,25.7,33.1z"/>
					</g>
					<g>
						<path class="st0" d="M33.2,33.1c-0.8,0-1.5-0.7-1.5-1.5s0.7-1.5,1.5-1.5h0c0.8,0,1.5,0.7,1.5,1.5S34,33.1,33.2,33.1z"/>
					</g>
					<g>
						<path class="st0" d="M40.7,33.1c-0.4,0-0.8-0.2-1.1-0.4c-0.3-0.3-0.4-0.7-0.4-1.1c0-0.1,0-0.2,0-0.3c0-0.1,0-0.2,0.1-0.3
							c0-0.1,0.1-0.2,0.1-0.3c0.1-0.1,0.1-0.2,0.2-0.2c0.1-0.1,0.1-0.1,0.2-0.2c0.1,0,0.2-0.1,0.3-0.1c0.1,0,0.2-0.1,0.3-0.1
							c0.2,0,0.4,0,0.6,0c0.1,0,0.2,0,0.3,0.1c0.1,0,0.2,0.1,0.3,0.1c0.1,0.1,0.2,0.1,0.2,0.2c0.1,0.1,0.1,0.1,0.2,0.2
							c0.1,0.1,0.1,0.2,0.1,0.3c0,0.1,0.1,0.2,0.1,0.3c0,0.1,0,0.2,0,0.3c0,0.4-0.2,0.8-0.4,1.1c-0.1,0.1-0.1,0.1-0.2,0.2
							c-0.1,0.1-0.2,0.1-0.3,0.1c-0.1,0-0.2,0.1-0.3,0.1C40.9,33.1,40.8,33.1,40.7,33.1z"/>
					</g>
				</g>
			</g>
		</g>
	</g>
</g>
</svg>
