<?xml version="1.0" encoding="utf-8"?>
<!-- Generator: Adobe Illustrator 21.0.2, SVG Export Plug-In . SVG Version: 6.00 Build 0)  -->
<svg version="1.1" id="Layer_1" xmlns="http://www.w3.org/2000/svg" xmlns:xlink="http://www.w3.org/1999/xlink" x="0px" y="0px"
	 viewBox="0 0 140.9 140.9" style="enable-background:new 0 0 140.9 140.9;" xml:space="preserve">

<g>
	<g>
		<g>
			<g>
				<path class="st0" d="M76,98.9c-6.7,0-12.9-2.6-17.6-7.3l-9.2-9.2c-2-2-3.6-4.2-4.8-6.8c-0.4-0.7,0-1.6,0.7-2
					c0.7-0.4,1.6,0,2,0.7c1.1,2.3,2.5,4.3,4.2,6l9.2,9.2c4.1,4.1,9.6,6.4,15.5,6.4c5.9,0,11.4-2.3,15.5-6.4l40-40
					c8.5-8.5,8.5-22.4,0-31l-9.2-9.2c-8.5-8.5-22.4-8.5-31,0l-40,40c-0.6,0.6-1.5,0.6-2.1,0c-0.6-0.6-0.6-1.5,0-2.1l40-40
					c9.7-9.7,25.5-9.7,35.2,0l9.2,9.2c9.7,9.7,9.7,25.5,0,35.2l-40,40C88.9,96.3,82.6,98.9,76,98.9z"/>
			</g>
		</g>
	</g>
	<g>
		<g>
			<path class="st0" d="M77.7,80c-4,0-7.7-1.5-10.5-4.3l-1.9-1.9c-2.8-2.8-4.3-6.5-4.3-10.6c0-0.8,0.7-1.5,1.5-1.5s1.5,0.7,1.5,1.5
				c0,3.2,1.2,6.2,3.5,8.4l1.9,1.9c2.2,2.2,5.2,3.5,8.4,3.5c3.2,0,6.2-1.2,8.4-3.5L115.4,44c2.2-2.2,3.5-5.2,3.5-8.4
				s-1.2-6.2-3.5-8.4l-1.9-1.9c-2.2-2.2-5.2-3.5-8.4-3.5c-3.2,0-6.2,1.2-8.4,3.5L75.6,46.6c-0.6,0.6-1.5,0.6-2.1,0
				c-0.6-0.6-0.6-1.5,0-2.1l21.2-21.2c2.8-2.8,6.5-4.3,10.5-4.3s7.7,1.5,10.5,4.3l1.9,1.9c2.8,2.8,4.3,6.5,4.3,10.5
				s-1.5,7.7-4.3,10.5L88.2,75.7C85.4,78.5,81.6,80,77.7,80z"/>
		</g>
	</g>
	<g>
		<g>
			<g>
				<path class="st0" d="M34,140.8c-6.4,0-12.8-2.4-17.6-7.3l-9.2-9.2c-9.7-9.7-9.7-25.5,0-35.2l40-40c9.7-9.7,25.5-9.7,35.2,0
					l9.2,9.2c2.1,2.1,3.8,4.6,5,7.1c0.3,0.8,0,1.6-0.7,2c-0.8,0.3-1.6,0-2-0.7c-1-2.3-2.6-4.4-4.4-6.3l-9.2-9.2
					c-8.5-8.5-22.4-8.5-31,0l-40,40c-8.5,8.5-8.5,22.4,0,31l9.2,9.2c8.5,8.5,22.4,8.5,31,0l40-40c0.6-0.6,1.5-0.6,2.1,0
					s0.6,1.5,0,2.1l-40,40C46.8,138.4,40.4,140.8,34,140.8z"/>
			</g>
		</g>
	</g>
	<g>
		<g>
			<path class="st0" d="M35.8,122c-3.8,0-7.6-1.4-10.5-4.3l-1.9-1.9c-5.8-5.8-5.8-15.2,0-21l29.5-29.5c5.8-5.8,15.2-5.8,21,0
				l1.9,1.9c2.8,2.8,4.3,6.5,4.3,10.6c0,0.8-0.7,1.5-1.5,1.5s-1.5-0.7-1.5-1.5c0-3.2-1.2-6.2-3.5-8.4l-1.9-1.9
				c-4.6-4.6-12.2-4.6-16.8,0L25.5,96.9c-4.6,4.6-4.6,12.2,0,16.8l1.9,1.9c4.6,4.6,12.2,4.6,16.8,0l21-21c0.6-0.6,1.5-0.6,2.1,0
				s0.6,1.5,0,2.1l-21,21C43.4,120.6,39.6,122,35.8,122z"/>
		</g>
	</g>
</g>
</svg>
