<?xml version="1.0" encoding="utf-8"?>
<!-- Generator: Adobe Illustrator 21.0.2, SVG Export Plug-In . SVG Version: 6.00 Build 0)  -->
<svg version="1.1" id="Layer_1" xmlns="http://www.w3.org/2000/svg" xmlns:xlink="http://www.w3.org/1999/xlink" x="0px" y="0px"
	 viewBox="0 0 59.3 55.2" style="enable-background:new 0 0 59.3 55.2;" xml:space="preserve">

<g>
	<path class="cus" d="M9.6,36.8V0.8C9.6,0.3,9.2,0,8.8,0H3.2C2.8,0,2.5,0.3,2.5,0.8v32.6c0,0.4,0.3,0.8,0.8,0.8
		c0.4,0,0.8-0.3,0.8-0.8V1.5h4.1V36c-0.6-0.2-1.3-0.4-2.1-0.4c-3.3,0-6,2.7-6,6c0,2,1,3.7,2.5,4.8v8c0,0.4,0.3,0.8,0.8,0.8h5.6
		c0.4,0,0.8-0.3,0.8-0.8v-8c1.5-1.1,2.5-2.8,2.5-4.8C12,39.7,11,37.9,9.6,36.8z M8.1,53.7H4v-6.4c0.6,0.2,1.3,0.4,2.1,0.4
		s1.4-0.1,2.1-0.4V53.7z M6,46.1c-2.5,0-4.5-2-4.5-4.5c0-2.5,2-4.5,4.5-4.5s4.5,2,4.5,4.5C10.5,44.1,8.5,46.1,6,46.1z"/>
	<path class="cus" d="M33.2,9.5V0.8c0-0.4-0.3-0.8-0.8-0.8h-5.6c-0.4,0-0.8,0.3-0.8,0.8v8.7c-1.5,1.1-2.5,2.8-2.5,4.8
		c0,3.3,2.7,6,6,6c0.7,0,1.4-0.1,2.1-0.4v33.8h-4.1v-31c0-0.4-0.3-0.8-0.8-0.8c-0.4,0-0.8,0.3-0.8,0.8v31.7c0,0.4,0.3,0.8,0.8,0.8
		h5.6c0.4,0,0.8-0.3,0.8-0.8V19.1c1.5-1.1,2.5-2.8,2.5-4.8C35.6,12.3,34.7,10.6,33.2,9.5z M27.6,1.5h4.1v7.2
		c-0.6-0.2-1.3-0.4-2.1-0.4c-0.7,0-1.4,0.1-2.1,0.4V1.5z M29.6,18.8c-2.5,0-4.5-2-4.5-4.5c0-2.5,2-4.5,4.5-4.5s4.5,2,4.5,4.5
		C34.1,16.8,32.1,18.8,29.6,18.8z"/>
	<path class="cus" d="M59.3,35c0-2-1-3.7-2.5-4.8V0.8c0-0.4-0.3-0.8-0.8-0.8h-5.6c-0.4,0-0.8,0.3-0.8,0.8v26c0,0.4,0.3,0.8,0.8,0.8
		s0.8-0.3,0.8-0.8V1.5h4.1v27.9C54.7,29.2,54,29,53.3,29c-1.3,0-2.5,0.4-3.6,1.2c-1.5,1.1-2.4,2.9-2.4,4.8c0,2,1,3.7,2.5,4.8v14.6
		c0,0.4,0.3,0.8,0.8,0.8h5.6c0.4,0,0.8-0.3,0.8-0.8V39.9C58.3,38.8,59.3,37,59.3,35z M48.8,35c0-1.4,0.7-2.8,1.8-3.6
		c0.8-0.6,1.7-0.9,2.7-0.9c2.5,0,4.5,2,4.5,4.5c0,2.5-2,4.5-4.5,4.5C50.8,39.5,48.8,37.5,48.8,35z M55.3,53.7h-4.1v-13
		c0.6,0.2,1.3,0.4,2.1,0.4c0.7,0,1.4-0.1,2.1-0.4V53.7z"/>
</g>
</svg>
