<?xml version="1.0" encoding="utf-8"?>
<!-- Generator: Adobe Illustrator 21.0.2, SVG Export Plug-In . SVG Version: 6.00 Build 0)  -->
<svg version="1.1" id="Layer_1" xmlns="http://www.w3.org/2000/svg" xmlns:xlink="http://www.w3.org/1999/xlink" x="0px" y="0px"
	 viewBox="0 0 64 56.6" style="enable-background:new 0 0 64 56.6;" xml:space="preserve">

<g>
	<path class="fraud-free" d="M63.3,4h-8.4C54.9,3,55,1.9,55,0.8c0,0,0,0,0,0c0-0.1,0-0.1,0-0.2c0,0,0-0.1,0-0.1c0,0,0,0,0,0
		c0,0,0-0.1-0.1-0.1c0-0.1-0.1-0.1-0.1-0.1c0,0-0.1-0.1-0.1-0.1c0,0-0.1-0.1-0.1-0.1c-0.1,0-0.1,0-0.2,0c0,0-0.1,0-0.1,0
		c0,0,0,0,0,0c0,0-0.1,0-0.1,0c-0.1,0-0.1,0-0.2,0c0,0,0,0,0,0c-3.3,1.4-6.7,2.1-10.2,2.2C39.9,2.5,36,1.7,32.3,0.1L32,0l-0.3,0.2
		c-3.6,2-7.5,2.9-11.4,2.8c-3.5-0.1-6.9-1.1-10.1-2.8c0,0-0.1,0-0.1,0c0,0,0,0,0,0c-0.1,0-0.1,0-0.2,0c0,0,0,0,0,0c0,0-0.1,0-0.1,0
		c0,0-0.1,0-0.1,0c0,0-0.1,0-0.1,0.1c0,0-0.1,0-0.1,0.1c0,0-0.1,0.1-0.1,0.1c0,0,0,0-0.1,0.1c0,0,0,0,0,0c0,0,0,0.1,0,0.1
		c0,0.1,0,0.1,0,0.2c0,0,0,0,0,0c0,1.3,0.1,2.6,0.2,3.9c0.6,8.8,3.3,25.4,13.9,36.8c0.9,1,1.9,1.9,2.9,2.8H1.5V29.2v-0.3V5.5H7
		c0.4,0,0.7-0.3,0.7-0.7C7.7,4.3,7.4,4,7,4H0.7C0.3,4,0,4.3,0,4.7v24.1v0.3v15.9c0,0.4,0.3,0.7,0.7,0.7h27.1
		c1.2,0.9,2.5,1.8,3.8,2.6c0,0,0,0,0,0c0.1,0.1,0.2,0.1,0.3,0.1c0,0,0,0,0,0l0,0l0,0c0,0,0,0,0,0c0.1,0,0.2,0,0.3-0.1c0,0,0,0,0,0
		c0.4-0.3,0.9-0.6,1.3-0.8v7.6h-3.5V50c0-0.4-0.3-0.7-0.7-0.7c-0.4,0-0.7,0.3-0.7,0.7v5.2H14.1c-0.4,0-0.7,0.3-0.7,0.7
		c0,0.4,0.3,0.7,0.7,0.7h35.8c0.4,0,0.7-0.3,0.7-0.7c0-0.4-0.3-0.7-0.7-0.7H35.2v-8.6c2-1.5,3.9-3.1,5.7-5
		c4.7-5,12.4-16.2,13.9-36.1h7.7v31.5v1.6v6l-21.6-0.2c0,0,0,0,0,0c-0.4,0-0.7,0.3-0.7,0.7c0,0.4,0.3,0.7,0.7,0.7L63.3,46
		c0,0,0,0,0,0c0.4,0,0.7-0.3,0.7-0.7c0,0,0-0.1,0-0.1c0,0,0-0.1,0-0.1v-6.6v-1.6V4.7C64,4.3,63.7,4,63.3,4z M39.8,40.6
		c-2.3,2.5-4.9,4.6-7.8,6.3c-2.8-1.7-5.5-3.8-7.8-6.3C13.9,29.5,11.4,13.3,10.7,4.7c-0.1-0.9-0.1-1.7-0.1-2.6
		c3.1,1.5,6.3,2.3,9.6,2.4c0.2,0,0.5,0,0.7,0c3.8,0,7.7-1,11.2-2.9c3.8,1.6,7.8,2.3,11.7,2.2c3.3-0.1,6.5-0.7,9.7-1.9
		C53.2,10.3,51.1,28.5,39.8,40.6z"/>
	<path class="fraud-free" d="M26.8,15.4c-0.4,0-0.7,0.3-0.7,0.7v12.8c0,0.4,0.3,0.7,0.7,0.7c0.4,0,0.7-0.3,0.7-0.7V16.1
		C27.5,15.7,27.2,15.4,26.8,15.4z"/>
	<path class="fraud-free" d="M32,15.4c-0.4,0-0.7,0.3-0.7,0.7v12.8c0,0.4,0.3,0.7,0.7,0.7c0.4,0,0.7-0.3,0.7-0.7V16.1
		C32.8,15.7,32.5,15.4,32,15.4z"/>
	<path class="fraud-free" d="M37.3,15.4c-0.4,0-0.7,0.3-0.7,0.7v12.8c0,0.4,0.3,0.7,0.7,0.7c0.4,0,0.7-0.3,0.7-0.7V16.1
		C38,15.7,37.7,15.4,37.3,15.4z"/>
</g>
</svg>
