<?xml version="1.0" encoding="utf-8"?>
<!-- Generator: Adobe Illustrator 21.0.2, SVG Export Plug-In . SVG Version: 6.00 Build 0)  -->
<svg version="1.1" id="Isolation_Mode" xmlns="http://www.w3.org/2000/svg" xmlns:xlink="http://www.w3.org/1999/xlink" x="0px"
	 y="0px" viewBox="0 0 118.6 117.5" style="enable-background:new 0 0 118.6 117.5;" xml:space="preserve">

<g>
	<g>
		<polygon class="st0" points="113.7,51 111.7,51 111.7,34.9 101.4,34.9 101.4,51 99.4,51 99.4,32.9 113.7,32.9 		"/>
	</g>
	<g>
		<rect x="105.5" y="33.9" class="st0" width="2" height="17.1"/>
	</g>
	<g>
		<path class="st0" d="M106.5,9.6c-2.6,0-4.8-2.2-4.8-4.8c0-2.6,2.2-4.8,4.8-4.8s4.8,2.2,4.8,4.8C111.3,7.4,109.1,9.6,106.5,9.6z
			 M106.5,2c-1.5,0-2.8,1.3-2.8,2.8s1.3,2.8,2.8,2.8s2.8-1.3,2.8-2.8S108,2,106.5,2z"/>
	</g>
	<g>
		<rect x="105.5" y="13.1" class="st0" width="2" height="11.6"/>
	</g>
	<g>
		<polygon class="st0" points="113.7,34.9 99.4,34.9 99.4,20.9 101.4,20.9 101.4,32.9 111.7,32.9 111.7,20.9 113.7,20.9 		"/>
	</g>
	<g>
		<path class="st0" d="M118.5,30h-2V18.2c0-1.9-0.9-4.1-3.3-4.1v-2c3.2,0,5.3,2.5,5.3,6.1V30z"/>
	</g>
	<g>
		<g>
			<g>
				<g>
					<polygon class="st0" points="115.3,117.5 4.8,117.5 4.8,17.1 6.8,17.1 6.8,115.5 115.3,115.5 					"/>
				</g>
				<g>
					<g>
						<polygon class="st0" points="5.8,7 11.6,21.2 5.8,17.9 0,21.2 						"/>
					</g>
				</g>
			</g>
		</g>
	</g>
	<g>
		<path class="st0" d="M6.1,117.4l-0.7-1.9c0.2-0.1,16.9-5.9,35.1-22.2C57.4,78.4,79,51.2,86.5,6.9c0.2-0.7,0.7-1.1,1.3-1.2
			c0.6-0.1,1.1,0.2,1.4,0.8l3,7.4c0.4,0.8,1.1,1.4,2,1.6c0.9,0.2,1.8-0.1,2.4-0.7c1.8-1.7,4.3-2.7,6.8-2.7h9.9v2h-9.9
			c-2,0-4,0.8-5.4,2.1c-1.1,1.1-2.7,1.5-4.2,1.2c-1.5-0.3-2.8-1.4-3.4-2.8l-2.2-5.4c-7.9,43.7-29.5,70.7-46.3,85.7
			C23.3,111.4,6.3,117.4,6.1,117.4z"/>
	</g>
	<g>
		<rect x="99" y="63.7" class="st0" width="14.8" height="2"/>
	</g>
	<g>
		<rect x="99" y="74" class="st0" width="14.8" height="2"/>
	</g>
	<g>
		<rect x="99" y="84.3" class="st0" width="14.8" height="2"/>
	</g>
	<g>
		<rect x="99" y="94.7" class="st0" width="14.8" height="2"/>
	</g>
	<g>
		<rect x="99" y="105" class="st0" width="14.8" height="2"/>
	</g>
	<g>
		<path class="st0" d="M114.9,116.5H98V53.6h16.9V116.5z M100,114.5h12.9V55.6H100V114.5z"/>
	</g>
	<g>
		<path class="st0" d="M6.1,117.4l-0.6-1.9l21.5-7.2c6.6-2.2,13.6-3.3,20.6-3.3l9.3-11.4l6.9,9.3l9.5-18.5h12.9l12-10.2l1.3,1.5
			L87.1,86.4H74.6l-10.5,20.3l-7.3-9.9L48.6,107h-0.5c-7,0-13.9,1.1-20.5,3.3L6.1,117.4z"/>
	</g>
</g>
</svg>
