<?xml version="1.0" encoding="utf-8"?>
<!-- Generator: Adobe Illustrator 21.0.2, SVG Export Plug-In . SVG Version: 6.00 Build 0)  -->
<svg version="1.1" id="Isolation_Mode" xmlns="http://www.w3.org/2000/svg" xmlns:xlink="http://www.w3.org/1999/xlink" x="0px"
	 y="0px" viewBox="0 0 95 133.9" style="enable-background:new 0 0 95 133.9;" xml:space="preserve">

<g>
	<g id="XMLID_2046_">
		<rect x="7" y="115.4" class="st0" width="48.2" height="2"/>
	</g>
	<g id="XMLID_2045_">
		<rect x="7" y="44.1" class="st0" width="48.2" height="2"/>
	</g>
	<g id="XMLID_2044_">
		<path class="st0" d="M53.7,133.9H8.5c-4.7,0-8.5-3.8-8.5-8.5V41.2c0-4.7,3.8-8.5,8.5-8.5h45.3c4.7,0,8.5,3.8,8.5,8.5v84.2
			C62.2,130.2,58.4,133.9,53.7,133.9z M8.5,34.7c-3.6,0-6.5,2.9-6.5,6.5v84.2c0,3.6,2.9,6.5,6.5,6.5h45.2c3.6,0,6.5-2.9,6.6-6.5
			V41.2c0-3.6-2.9-6.5-6.5-6.5H8.5z"/>
	</g>
	<g id="XMLID_2043_">
		<path class="st0" d="M31.1,129.5c-2.6,0-4.8-2.2-4.8-4.8s2.2-4.8,4.8-4.8c2.6,0,4.8,2.2,4.8,4.8S33.7,129.5,31.1,129.5z
			 M31.1,121.9c-1.5,0-2.8,1.3-2.8,2.8s1.3,2.8,2.8,2.8s2.8-1.3,2.8-2.8S32.6,121.9,31.1,121.9z"/>
	</g>
	<g id="XMLID_2042_">
		<rect x="25.1" y="38.5" class="st0" width="12" height="2"/>
	</g>
	<g>
		<path class="st0" d="M66,67.2c-0.5,0-0.9-0.4-1-0.8c-0.1-0.5,0.3-1.1,0.8-1.1C81.3,62.9,93,49.4,93,33.8C93,16.3,78.7,2,61.2,2
			C45.5,2,32,13.6,29.8,29c-0.1,0.5-0.6,0.9-1.1,0.8c-0.5-0.1-0.9-0.6-0.8-1.1C30.2,12.4,44.6,0,61.2,0C79.8,0,95,15.2,95,33.8
			c0,16.5-12.4,30.9-28.8,33.4C66.1,67.2,66,67.2,66,67.2z"/>
	</g>
	<g>
		<path class="st0" d="M66.1,60.1c-0.5,0-0.9-0.3-1-0.8c-0.1-0.5,0.3-1.1,0.8-1.2C77.6,56,86,45.7,86,33.8C86,20.1,74.9,9,61.2,9
			c-11.8,0-22.1,8.4-24.3,20.1c-0.1,0.5-0.6,0.9-1.2,0.8c-0.5-0.1-0.9-0.6-0.8-1.2C37.3,16.1,48.4,7,61.2,7C76,7,88,19,88,33.8
			c0,12.9-9.1,24-21.7,26.3C66.2,60.1,66.2,60.1,66.1,60.1z"/>
	</g>
	<g>
		<g>
			<path class="st0" d="M28.8,95.2c-0.1,0-0.2,0-0.3,0c-0.3-0.1-0.5-0.2-0.7-0.5l-0.3-0.5c-0.5,0.1-1.1,0.1-1.7,0l-0.2,0.5
				c-0.4,0.6-1.1,0.7-1.6,0.4l-0.9-0.5c-0.3-0.2-0.5-0.5-0.5-0.8c-0.1-0.3,0-0.6,0.2-0.8l0.2-0.4c-0.4-0.4-0.7-0.9-0.9-1.5h-0.5
				c-0.6,0-1.1-0.5-1.1-1.1v-1c0-0.6,0.5-1.1,1.1-1.1h0.5c0.2-0.5,0.5-1.1,0.9-1.5l-0.2-0.5c-0.3-0.5-0.2-1.2,0.4-1.5l0.9-0.5
				c0.2-0.2,0.5-0.2,0.8-0.1c0.3,0.1,0.5,0.2,0.7,0.5l0.3,0.5c0.5-0.1,1.1-0.1,1.7,0l0.2-0.4c0.2-0.3,0.5-0.5,0.8-0.6
				c0.3-0.1,0.6,0,0.8,0.2l0.9,0.5c0.6,0.4,0.7,1.1,0.4,1.6l-0.2,0.4c0.4,0.4,0.7,0.9,0.9,1.5h0.5c0.6,0,1.1,0.5,1.1,1.1v1
				c0,0.6-0.5,1.1-1.1,1.1h-0.5c-0.2,0.5-0.5,1.1-0.9,1.5l0.2,0.5c0.1,0.2,0.2,0.5,0.1,0.8c-0.1,0.3-0.2,0.6-0.5,0.7L29.3,95
				C29.2,95.1,29,95.2,28.8,95.2z M28.1,93l0.6,1.2c0,0,0.1,0,0.2,0l0.9-0.5c0,0,0,0,0-0.1l0-0.1l-0.6-1.1l0.3-0.3
				c0.4-0.4,0.8-1.1,1-1.7l0.1-0.4h1.3c0,0,0.1-0.1,0.1-0.1l0-1c0,0-0.1-0.1-0.1-0.1h-1.3l-0.1-0.4c-0.2-0.7-0.5-1.2-1-1.7l-0.3-0.3
				l0.6-1.1c0.1-0.1,0-0.2,0-0.3l-1-0.5c0,0-0.1,0-0.1,0.1l-0.6,1.1l-0.4-0.1c-0.6-0.2-1.3-0.2-1.9,0l-0.4,0.1l-0.6-1.2
				c0,0-0.1,0-0.2,0l-0.9,0.5c0,0-0.1,0.1,0,0.2l0.6,1.2L24,86.8c-0.4,0.4-0.8,1.1-1,1.7l-0.1,0.4h-1.3c0,0-0.1,0.1-0.1,0.1v1
				c0,0,0.1,0.1,0.1,0.1h1.3l0.1,0.4c0.2,0.7,0.5,1.2,1,1.7l0.3,0.3l-0.6,1.3c0,0,0,0.1,0.1,0.1l0.9,0.5c0.1,0.1,0.2,0,0.2,0
				l0.5-1.1l0.4,0.1c0.7,0.2,1.3,0.2,1.9,0L28.1,93z"/>
		</g>
		<g>
			<path class="st0" d="M39.9,87.9c-0.1,0-0.3,0-0.4-0.1c-0.3-0.1-0.6-0.3-0.7-0.6l-0.4-0.7c-0.8,0.1-1.7,0.1-2.5-0.1l-0.4,0.7
				c-0.3,0.6-1.1,0.8-1.8,0.5l-1.1-0.7c-0.3-0.1-0.5-0.4-0.6-0.8c-0.1-0.3,0-0.7,0.1-1l0.4-0.7c-0.5-0.6-0.9-1.3-1.2-2.1h-0.8
				c-0.6,0-1.3-0.5-1.3-1.3v-1.3c0-0.6,0.5-1.3,1.3-1.3h0.8c0.2-0.7,0.6-1.4,1.2-2l-0.4-0.6c-0.2-0.3-0.2-0.7-0.1-1
				c0.1-0.4,0.3-0.6,0.6-0.8l1.1-0.7c0.7-0.4,1.5-0.1,1.8,0.5l0.4,0.7c0.8-0.1,1.6-0.1,2.4,0l0.4-0.7c0.1-0.3,0.4-0.5,0.8-0.6
				c0.3-0.1,0.7,0,1,0.1l1.1,0.7c0.6,0.3,0.8,1.1,0.5,1.7l-0.4,0.7c0.5,0.6,0.9,1.3,1.2,2.1h0.8c0.6,0,1.3,0.5,1.3,1.3v1.3
				c0,0.6-0.5,1.3-1.3,1.3h-0.8c-0.2,0.7-0.6,1.5-1.2,2.1l0.4,0.7c0.2,0.3,0.2,0.7,0.1,1c-0.1,0.4-0.3,0.6-0.6,0.8l-1.1,0.7
				C40.3,87.8,40.1,87.9,39.9,87.9z M38.8,85.4l0.8,1.3c0,0.1,0.1,0.1,0.1,0.1c0.1,0,0.2,0,0.3,0l1.1-0.7c0.1,0,0.1-0.1,0.2-0.2
				c0-0.1,0-0.2,0-0.3l-0.8-1.3l0.3-0.3c0.6-0.6,1.1-1.4,1.3-2.3l0.1-0.4h1.6c0.2,0,0.3-0.2,0.3-0.3v-1.3c0-0.2-0.2-0.3-0.3-0.3
				h-1.6L42,79.2c-0.2-0.8-0.6-1.6-1.3-2.3l-0.3-0.3l0.8-1.3c0.1-0.1,0-0.3-0.1-0.4L40,74.2c0,0-0.1,0-0.2,0c-0.1,0-0.1,0.1-0.1,0.1
				l-0.8,1.3l-0.4-0.1c-0.8-0.2-1.8-0.2-2.7,0l-0.3,0.1l-0.8-1.3c-0.1-0.2-0.3-0.2-0.4-0.1l-1.1,0.7C33.1,75,33,75,33,75.1
				c0,0.1,0,0.2,0,0.3l0.8,1.4L33.5,77c-0.6,0.5-1,1.1-1.3,2.1l-0.1,0.4h-1.6c-0.2,0-0.3,0.2-0.3,0.3v1.3c0,0.2,0.2,0.3,0.3,0.3h1.6
				l0.1,0.4c0.2,0.8,0.6,1.6,1.3,2.3l0.3,0.3l-0.8,1.3c0,0.1,0,0.2,0,0.2c0,0.1,0.1,0.1,0.1,0.1l1.1,0.7c0.1,0.1,0.3,0,0.4-0.1
				l0.8-1.4l0.4,0.1c0.9,0.3,1.9,0.3,2.8,0.1L38.8,85.4z"/>
		</g>
		<g>
			<path class="st0" d="M25,77.4c-0.1,0-0.3,0-0.4-0.1L23.7,77c-0.2-0.1-0.4-0.2-0.5-0.5c-0.1-0.3-0.2-0.6-0.1-0.9l0.3-0.6
				c-0.4-0.4-0.7-0.9-0.9-1.4L22,73.7c0,0,0,0,0,0c-0.7,0-1.2-0.5-1.2-1.1l-0.1-1c0-0.7,0.5-1.2,1.1-1.2l0.5-0.1
				c0.1-0.6,0.3-1.1,0.7-1.6l-0.3-0.4c-0.2-0.3-0.2-0.6-0.2-0.9c0.1-0.3,0.2-0.6,0.5-0.7l0.8-0.6C24,66,24.3,66,24.6,66
				c0.3,0.1,0.6,0.2,0.7,0.5l0.3,0.4c0.7-0.2,1.2-0.2,1.7-0.1l0.2-0.5c0.2-0.5,0.9-0.7,1.4-0.6l0.9,0.4c0.2,0.1,0.5,0.3,0.6,0.6
				c0.1,0.3,0.1,0.5,0,0.8l-0.3,0.6c0.4,0.4,0.7,0.9,0.9,1.4l0.5-0.1c0,0,0,0,0,0c0.7,0,1.2,0.5,1.2,1.1l0.1,1
				c0,0.7-0.5,1.3-1.1,1.3l-0.5,0.1c-0.1,0.6-0.4,1.1-0.7,1.5l0.3,0.4c0.4,0.5,0.2,1.3-0.3,1.6l-0.8,0.6c-0.3,0.2-0.6,0.2-0.9,0.2
				c-0.3-0.1-0.5-0.2-0.7-0.5L28,76.2c-0.7,0.2-1.2,0.2-1.7,0.1L26,76.8C25.9,77.2,25.5,77.4,25,77.4z M23.1,72.6l0.1,0.3
				c0.3,0.6,0.6,1.2,1.1,1.6l0.3,0.3L24,75.9c0,0,0,0.1,0,0.1l0.9,0.4c0,0,0.1,0,0.1,0l0.6-1.2l0.4,0.1c0.8,0.1,1.3,0.1,2-0.2
				l0.4-0.1l0.7,1c0,0.1,0.2,0.1,0.2,0.1l0.8-0.6c0.1-0.1,0.1-0.2,0.1-0.2l-0.7-1l0.2-0.3c0.4-0.6,0.7-1.1,0.8-1.8l0-0.4l1.3-0.1
				c0.1,0,0.2-0.1,0.2-0.2l-0.1-1c0-0.1-0.1-0.1-0.2-0.1l-1.2,0.1l-0.1-0.3c-0.3-0.6-0.6-1.2-1.1-1.6L29,68.3l0.6-1.1
				c0,0,0-0.1,0-0.1l-0.9-0.4c0,0-0.1,0-0.1,0l-0.6,1.2l-0.4-0.1c-0.8-0.1-1.3-0.1-2,0.2l-0.4,0.1l-0.7-1c0-0.1-0.1-0.1-0.1-0.1
				l-0.9,0.6c-0.1,0-0.1,0.1-0.1,0.1l0.7,1.1l-0.2,0.3c-0.5,0.6-0.7,1.1-0.8,1.7l0,0.4l-1.3,0.1c-0.1,0-0.2,0.1-0.2,0.2l0.1,1
				c0,0.1,0.1,0.2,0.2,0.2L23.1,72.6z"/>
		</g>
		<g>
			<path class="st0" d="M26.8,73.6c-1.2,0-2.1-0.9-2.1-2.1s0.9-2.1,2.1-2.1c1.2,0,2.1,0.9,2.1,2.1S28,73.6,26.8,73.6z M26.8,70.4
				c-0.6,0-1.1,0.5-1.1,1.1s0.5,1.1,1.1,1.1s1.1-0.5,1.1-1.1S27.4,70.4,26.8,70.4z"/>
		</g>
		<g>
			<path class="st0" d="M26.8,91.6c-1.2,0-2.1-0.9-2.1-2.1s0.9-2.1,2.1-2.1c1.2,0,2.1,0.9,2.1,2.1S28,91.6,26.8,91.6z M26.8,88.4
				c-0.6,0-1.1,0.5-1.1,1.1s0.5,1.1,1.1,1.1s1.1-0.5,1.1-1.1S27.4,88.4,26.8,88.4z"/>
		</g>
		<g>
			<path class="st0" d="M37.2,82.5c-0.5,0-1-0.2-1.4-0.6c-0.4-0.4-0.6-0.9-0.6-1.4c0-0.5,0.2-1,0.6-1.4l0,0l0,0c0.8-0.8,2-0.8,2.8,0
				c0.4,0.4,0.6,0.9,0.6,1.4c0,0.5-0.2,1-0.6,1.4C38.3,82.3,37.7,82.5,37.2,82.5z M37.2,79.5c-0.3,0-0.5,0.1-0.7,0.3l0,0
				c-0.2,0.2-0.3,0.4-0.3,0.7c0,0.3,0.1,0.5,0.3,0.7c0.4,0.4,1,0.4,1.4,0c0.2-0.2,0.3-0.4,0.3-0.7c0-0.3-0.1-0.5-0.3-0.7
				C37.7,79.6,37.5,79.5,37.2,79.5z"/>
		</g>
	</g>
</g>
</svg>
