<?xml version="1.0" encoding="utf-8"?>
<!-- Generator: Adobe Illustrator 21.0.2, SVG Export Plug-In . SVG Version: 6.00 Build 0)  -->
<svg version="1.1" id="Layer_1" xmlns="http://www.w3.org/2000/svg" xmlns:xlink="http://www.w3.org/1999/xlink" x="0px" y="0px"
	 viewBox="0 0 141.6 164.4" style="enable-background:new 0 0 141.6 164.4;" xml:space="preserve">

<g>
	<g>
		<path class="st0" d="M94.1,164.4H0.2v-26.5c-0.1-0.2-0.2-0.5-0.2-0.7s0.1-0.5,0.2-0.7V17.7C0.1,17.5,0,17.3,0,17s0.1-0.5,0.2-0.7
			V0h93.9v18.7l-3.2-0.2l-87.7,0v117.2h90.9V164.4z M3.2,161.4h87.9v-22.7H3.2V161.4z M3.2,15.5l87.9,0V3H3.2V15.5z"/>
	</g>
	<g>
		<circle cx="47.2" cy="151" r="4.2"/>
		<path class="st0" d="M47.2,155.7c-2.6,0-4.7-2.1-4.7-4.7s2.1-4.7,4.7-4.7c2.6,0,4.7,2.1,4.7,4.7S49.8,155.7,47.2,155.7z
			 M47.2,147.3c-2,0-3.7,1.7-3.7,3.7s1.7,3.7,3.7,3.7c2,0,3.7-1.7,3.7-3.7S49.2,147.3,47.2,147.3z"/>
	</g>
	<g>
		<g>
			<path class="st0" d="M99.4,126.9H82.7l-2.6-12.6c-2.7-0.8-5.5-2-8.2-3.4l-10.7,7.1l-11.8-11.8l7.1-10.7C55,92.8,53.8,90,53,87.2
				l-12.6-2.6V67.9L53,65.3c0.8-2.7,2-5.5,3.4-8.2l-7.2-10.7l11.8-11.8l10.7,7.1c2.6-1.4,5.4-2.6,8.3-3.4l2.6-12.6h16.8l2.6,12.6
				c2.7,0.8,5.5,2,8.2,3.4l10.7-7.1l11.8,11.8l-7.1,10.7c1.4,2.6,2.6,5.4,3.4,8.3l12.6,2.6v16.7l-12.5,2.6c-0.8,2.7-2,5.5-3.4,8.2
				l7.1,10.7l-11.8,11.8l-10.7-7.1c-2.6,1.4-5.4,2.6-8.3,3.4L99.4,126.9z M85.1,123.9H97l2.4-12l0.9-0.2c3.2-0.8,6.4-2.2,9.2-3.8
				l0.8-0.5l10.2,6.7l8.4-8.4l-6.7-10.1l0.5-0.8c1.8-3.1,3.1-6.2,3.9-9.2l0.2-0.9l11.9-2.4V70.3l-12-2.4l-0.2-0.9
				c-0.8-3.2-2.2-6.4-3.8-9.2L122,57l6.7-10.2l-8.4-8.4l-10.1,6.7l-0.8-0.5c-3.1-1.8-6.2-3.1-9.2-3.9l-0.9-0.2l-2.4-12H85l-2.4,12
				l-0.9,0.2c-3.2,0.8-6.4,2.2-9.2,3.8l-0.8,0.5l-10.2-6.7l-8.4,8.4L60,56.9l-0.5,0.8c-1.8,3.1-3.1,6.2-3.9,9.2l-0.2,0.9l-12,2.4
				v11.8l12,2.4l0.2,0.9c0.8,3.2,2.2,6.4,3.8,9.2l0.5,0.8l-6.7,10.2l8.4,8.4l10.1-6.7l0.8,0.5c3.1,1.8,6.2,3.1,9.2,3.9l0.9,0.2
				L85.1,123.9z M140.1,83.4L140.1,83.4L140.1,83.4z"/>
		</g>
		<g>
			<path class="st0" d="M91,97.2c-11.5,0-20.9-9.4-20.9-20.9S79.5,55.4,91,55.4s20.9,9.4,20.9,20.9S102.5,97.2,91,97.2z M91,58.4
				c-9.9,0-17.9,8-17.9,17.9s8,17.9,17.9,17.9s17.9-8,17.9-17.9S100.9,58.4,91,58.4z"/>
		</g>
	</g>
</g>
</svg>
