<?xml version="1.0" encoding="utf-8"?>
<!-- Generator: Adobe Illustrator 21.0.2, SVG Export Plug-In . SVG Version: 6.00 Build 0)  -->
<svg version="1.1" id="Слой_1" xmlns="http://www.w3.org/2000/svg" xmlns:xlink="http://www.w3.org/1999/xlink" x="0px" y="0px"
	 viewBox="0 0 61.6 63.3" style="enable-background:new 0 0 61.6 63.3;" xml:space="preserve">

<g>
	<path class="unl" d="M32.9,0.3C31-0.2,29,0,27.4,1c-1.7,1-2.9,2.5-3.4,4.4c-1,3.8,1.2,7.8,5.1,8.9c0.3,0.1,0.7,0.2,1.1,0.2
		l-0.1,12.1c0,0.4,0.3,0.8,0.7,0.8l0,0c0.4,0,0.7-0.3,0.8-0.7l0.1-12c1-0.1,2-0.4,2.9-0.9c1.7-1,2.9-2.5,3.4-4.4s0.3-3.8-0.7-5.5
		C36.3,2,34.7,0.8,32.9,0.3z M36.5,8.7c-0.4,1.5-1.3,2.7-2.7,3.5c-1.3,0.8-2.9,1-4.3,0.6c-3-0.8-4.8-4-4-7s4-4.8,7-4
		C34,2.2,35.2,3.1,36,4.5C36.7,5.7,36.9,7.2,36.5,8.7z"/>
	<path class="unl" d="M31.6,29.1c-1.2-0.2-2.4,0.1-3.4,0.8c-1,0.7-1.6,1.7-1.9,2.9c-0.4,2.5,1.2,4.8,3.7,5.2c0,0,0,0,0.1,0L30,51.6
		c0,0.4,0.3,0.8,0.7,0.8l0,0c0.4,0,0.7-0.3,0.8-0.7L31.6,38c1.8-0.3,3.3-1.8,3.7-3.7c0.2-1.2-0.1-2.4-0.8-3.4S32.8,29.3,31.6,29.1z
		 M33.8,34c-0.3,1.6-1.8,2.7-3.5,2.5c-1.6-0.3-2.7-1.9-2.5-3.5c0.1-0.8,0.6-1.5,1.2-2c0.7-0.5,1.5-0.6,2.3-0.5s1.5,0.6,2,1.2
		C33.8,32.4,34,33.3,33.8,34z"/>
	<path class="unl" d="M16.4,37.9l-0.1,13.7c0,0.4,0.3,0.8,0.7,0.8l0,0c0.4,0,0.7-0.3,0.8-0.7L17.9,38c1.9-0.2,3.6-1.7,3.9-3.7
		c0.2-1.2-0.1-2.4-0.8-3.4c-0.7-1-1.7-1.6-2.9-1.9c-1.2-0.2-2.4,0.1-3.4,0.8c-1,0.7-1.6,1.7-1.9,2.9C12.5,35.1,14,37.4,16.4,37.9z
		 M14.3,33c0.1-0.8,0.6-1.5,1.2-2c0.7-0.5,1.5-0.6,2.3-0.5s1.5,0.6,2,1.2c0.5,0.7,0.6,1.5,0.5,2.3c-0.3,1.6-1.8,2.7-3.5,2.5
		C15.2,36.2,14.1,34.7,14.3,33z"/>
	<path class="unl" d="M45.1,29.1c-1.2-0.2-2.4,0.1-3.4,0.8c-1,0.7-1.6,1.7-1.9,2.9c-0.4,2.5,1.2,4.8,3.7,5.2c0.1,0,0.2,0,0.3,0
		l-0.1,13.6c0,0.4,0.3,0.8,0.7,0.8l0,0c0.4,0,0.7-0.3,0.8-0.7L45.3,38c1.7-0.4,3.1-1.8,3.4-3.6c0.2-1.2-0.1-2.4-0.8-3.4
		C47.4,29.9,46.3,29.3,45.1,29.1z M47.3,34c-0.3,1.6-1.8,2.7-3.5,2.5c-1.6-0.3-2.7-1.9-2.5-3.5c0.1-0.8,0.6-1.5,1.2-2
		c0.7-0.5,1.5-0.6,2.3-0.5s1.5,0.6,2,1.2C47.3,32.4,47.5,33.3,47.3,34z"/>
	<path class="unl" d="M31.6,54.2c-2.5-0.4-4.8,1.2-5.2,3.7c-0.4,2.5,1.2,4.8,3.7,5.2c0.3,0,0.5,0.1,0.8,0.1c0.9,0,1.8-0.3,2.6-0.8
		c1-0.7,1.6-1.7,1.9-2.9C35.7,57,34.1,54.6,31.6,54.2z M33.8,59.2c-0.1,0.8-0.6,1.5-1.2,2c-0.7,0.5-1.5,0.6-2.3,0.5
		c-1.6-0.3-2.7-1.9-2.5-3.5c0.3-1.5,1.5-2.5,3-2.5c0.2,0,0.3,0,0.5,0C33,56,34.1,57.5,33.8,59.2z"/>
	<path class="unl" d="M5.3,54.2c-2.5-0.4-4.8,1.2-5.2,3.7s1.2,4.8,3.7,5.2c0.3,0,0.5,0.1,0.8,0.1c0.9,0,1.8-0.3,2.6-0.8
		c1-0.7,1.6-1.7,1.9-2.9c0.2-1.2-0.1-2.4-0.8-3.4C7.5,55.1,6.5,54.4,5.3,54.2z M7.5,59.2c-0.1,0.8-0.6,1.5-1.2,2
		c-0.7,0.5-1.5,0.6-2.3,0.5c-1.6-0.3-2.7-1.9-2.5-3.5c0.3-1.5,1.5-2.5,3-2.5c0.2,0,0.3,0,0.5,0c0.8,0.1,1.5,0.6,2,1.2
		C7.5,57.6,7.6,58.4,7.5,59.2z"/>
	<path class="unl" d="M18.5,54.2c-2.5-0.4-4.8,1.2-5.2,3.7c-0.2,1.2,0.1,2.4,0.8,3.4s1.7,1.6,2.9,1.9c0.3,0,0.5,0.1,0.8,0.1
		c0.9,0,1.8-0.3,2.6-0.8c1-0.7,1.6-1.7,1.9-2.9C22.6,57,20.9,54.6,18.5,54.2z M20.7,59.2c-0.1,0.8-0.6,1.5-1.2,2
		c-0.7,0.5-1.5,0.6-2.3,0.5s-1.5-0.6-2-1.2c-0.5-0.7-0.6-1.5-0.5-2.3c0.3-1.5,1.5-2.5,3-2.5c0.2,0,0.3,0,0.5,0
		C19.8,56,20.9,57.5,20.7,59.2z"/>
	<path class="unl" d="M44.8,54.2c-2.5-0.4-4.8,1.2-5.2,3.7s1.2,4.8,3.7,5.2c0.3,0,0.5,0.1,0.8,0.1c0.9,0,1.8-0.3,2.6-0.8
		c1-0.7,1.6-1.7,1.9-2.9c0.2-1.2-0.1-2.4-0.8-3.4C47,55.1,46,54.4,44.8,54.2z M47,59.2c-0.1,0.8-0.6,1.5-1.2,2
		c-0.7,0.5-1.5,0.6-2.3,0.5c-1.6-0.3-2.7-1.9-2.5-3.5c0.3-1.5,1.5-2.5,3-2.5c0.2,0,0.3,0,0.5,0c0.8,0.1,1.5,0.6,2,1.2
		C46.9,57.6,47.1,58.4,47,59.2z"/>
	<path class="unl" d="M59,54.5c-2.3-1-5,0-6,2.3c-0.5,1.1-0.5,2.3-0.1,3.5c0.4,1.1,1.3,2,2.4,2.5c0.6,0.3,1.2,0.4,1.8,0.4
		c1.7,0,3.4-1,4.1-2.7C62.3,58.2,61.3,55.5,59,54.5z M59.9,59.9c-0.3,0.7-0.9,1.3-1.7,1.6s-1.6,0.3-2.3-0.1
		c-0.7-0.3-1.3-0.9-1.6-1.7s-0.3-1.6,0.1-2.3c0.5-1.1,1.6-1.8,2.8-1.8c0.4,0,0.8,0.1,1.2,0.3C59.9,56.6,60.6,58.4,59.9,59.9z"/>
</g>
</svg>
