<?xml version="1.0" encoding="utf-8"?>
<!-- Generator: Adobe Illustrator 21.0.2, SVG Export Plug-In . SVG Version: 6.00 Build 0)  -->
<svg version="1.1" id="Layer_1" xmlns="http://www.w3.org/2000/svg" xmlns:xlink="http://www.w3.org/1999/xlink" x="0px" y="0px"
	 viewBox="0 0 199 163.5" style="enable-background:new 0 0 199 163.5;" xml:space="preserve">

<g>
	<g>
		<g>
			<path class="st0" d="M79.6,107.8c-0.6,0-1-0.2-1.2-0.3c-1.1-0.5-1.8-1.7-1.8-3.2V42c0-2.2,1.2-3,1.8-3.3c0.5-0.3,2-0.7,3.7,0.7
				l37.3,30.4c1,0.9,1.6,2.1,1.6,3.4c0,1.3-0.6,2.5-1.6,3.3l-37.3,30.3C81.2,107.6,80.3,107.8,79.6,107.8z M79.4,103.9L79.4,103.9
				L79.4,103.9z M80.6,43.4v59.5l36.2-29.4c0.1-0.1,0.2-0.2,0.2-0.2c0-0.1,0-0.2-0.2-0.3L80.6,43.4z"/>
		</g>
	</g>
	<g>
		<path class="st0" d="M199,140H0V0h199V140z M4,136h191V4H4V136z"/>
	</g>
	<g>
		<rect x="2" y="154" class="st0" width="195" height="4"/>
	</g>
	<g>
		<path class="st0" d="M25.3,163.5c-4.1,0-7.5-3.4-7.5-7.5s3.4-7.5,7.5-7.5s7.5,3.4,7.5,7.5S29.4,163.5,25.3,163.5z M25.3,152.5
			c-1.9,0-3.5,1.6-3.5,3.5s1.6,3.5,3.5,3.5s3.5-1.6,3.5-3.5S27.2,152.5,25.3,152.5z"/>
	</g>
</g>
</svg>
