<svg width="255" height="161" viewBox="0 0 255 161" fill="none" xmlns="http://www.w3.org/2000/svg">
<rect y="0.390625" width="255" height="160.351" rx="5" fill="white"/>
<path d="M128.649 12H11.6876C10.7599 12 10.0078 12.7521 10.0078 13.6798C10.0078 14.6075 10.7599 15.3596 11.6876 15.3596H128.649C129.577 15.3596 130.329 14.6075 130.329 13.6798C130.329 12.7521 129.577 12 128.649 12Z" fill="#D7D7D7" fill-opacity="0.47"/>
<path d="M128.649 23.8379H11.6876C10.7599 23.8379 10.0078 24.59 10.0078 25.5177C10.0078 26.4454 10.7599 27.1975 11.6876 27.1975H128.649C129.577 27.1975 130.329 26.4454 130.329 25.5177C130.329 24.59 129.577 23.8379 128.649 23.8379Z" fill="#D7D7D7" fill-opacity="0.47"/>
<path d="M128.649 35.6777H11.6876C10.7599 35.6777 10.0078 36.4298 10.0078 37.3575C10.0078 38.2852 10.7599 39.0373 11.6876 39.0373H128.649C129.577 39.0373 130.329 38.2852 130.329 37.3575C130.329 36.4298 129.577 35.6777 128.649 35.6777Z" fill="#D7D7D7" fill-opacity="0.47"/>
<path d="M173.978 47.5156H11.6876C10.7599 47.5156 10.0078 48.2677 10.0078 49.1954C10.0078 50.1231 10.7599 50.8752 11.6876 50.8752H173.978C174.905 50.8752 175.657 50.1231 175.657 49.1954C175.657 48.2677 174.905 47.5156 173.978 47.5156Z" fill="#D7D7D7" fill-opacity="0.47"/>
<path d="M173.503 12.002H138.343C137.329 12.002 136.508 12.7547 136.508 13.6833V37.1417C136.508 38.0702 137.329 38.823 138.343 38.823H173.503C174.517 38.823 175.338 38.0702 175.338 37.1417V13.6833C175.338 12.7547 174.517 12.002 173.503 12.002Z" fill="#D7D7D7" fill-opacity="0.47"/>
<rect x="10" y="12.1523" width="235" height="92" rx="3" fill="#740B99"/>
<path d="M128.649 109.904H11.6876C10.7599 109.904 10.0078 110.656 10.0078 111.584C10.0078 112.512 10.7599 113.264 11.6876 113.264H128.649C129.577 113.264 130.329 112.512 130.329 111.584C130.329 110.656 129.577 109.904 128.649 109.904Z" fill="#D7D7D7" fill-opacity="0.47"/>
<path d="M128.649 121.742H11.6876C10.7599 121.742 10.0078 122.494 10.0078 123.422C10.0078 124.35 10.7599 125.102 11.6876 125.102H128.649C129.577 125.102 130.329 124.35 130.329 123.422C130.329 122.494 129.577 121.742 128.649 121.742Z" fill="#D7D7D7" fill-opacity="0.47"/>
<path d="M128.649 133.582H11.6876C10.7599 133.582 10.0078 134.334 10.0078 135.262C10.0078 136.19 10.7599 136.942 11.6876 136.942H128.649C129.577 136.942 130.329 136.19 130.329 135.262C130.329 134.334 129.577 133.582 128.649 133.582Z" fill="#D7D7D7" fill-opacity="0.47"/>
<path d="M173.978 145.42H11.6876C10.7599 145.42 10.0078 146.172 10.0078 147.1C10.0078 148.027 10.7599 148.78 11.6876 148.78H173.978C174.905 148.78 175.657 148.027 175.657 147.1C175.657 146.172 174.905 145.42 173.978 145.42Z" fill="#D7D7D7" fill-opacity="0.47"/>
<path d="M173.503 110.076H138.343C137.329 110.076 136.508 110.829 136.508 111.757V135.216C136.508 136.144 137.329 136.897 138.343 136.897H173.503C174.517 136.897 175.338 136.144 175.338 135.216V111.757C175.338 110.829 174.517 110.076 173.503 110.076Z" fill="#D7D7D7" fill-opacity="0.47"/>
<path d="M242.07 110.152H185.93C184.312 110.152 183 111.247 183 112.597V146.708C183 148.058 184.312 149.152 185.93 149.152H242.07C243.688 149.152 245 148.058 245 146.708V112.597C245 111.247 243.688 110.152 242.07 110.152Z" fill="#D7D7D7" fill-opacity="0.47"/>
<path d="M113.061 53.9523V65.1523H110.933L105.349 58.3523V65.1523H102.789V53.9523H104.933L110.501 60.7523V53.9523H113.061ZM124.383 63.0723V65.1523H115.711V53.9523H124.175V56.0323H118.287V58.4643H123.487V60.4803H118.287V63.0723H124.383ZM143.217 53.9523L139.553 65.1523H136.769L134.305 57.5683L131.761 65.1523H128.993L125.313 53.9523H128.001L130.529 61.8243L133.169 53.9523H135.569L138.129 61.8883L140.737 53.9523H143.217ZM148.344 65.3443C147.459 65.3443 146.6 65.227 145.768 64.9923C144.947 64.747 144.285 64.4323 143.784 64.0483L144.664 62.0963C145.144 62.4483 145.715 62.731 146.376 62.9443C147.037 63.1577 147.699 63.2643 148.36 63.2643C149.096 63.2643 149.64 63.1577 149.992 62.9443C150.344 62.7203 150.52 62.427 150.52 62.0643C150.52 61.7977 150.413 61.579 150.2 61.4083C149.997 61.227 149.731 61.083 149.4 60.9763C149.08 60.8697 148.643 60.7523 148.088 60.6243C147.235 60.4217 146.536 60.219 145.992 60.0163C145.448 59.8137 144.979 59.4883 144.584 59.0403C144.2 58.5923 144.008 57.995 144.008 57.2483C144.008 56.5977 144.184 56.011 144.536 55.4883C144.888 54.955 145.416 54.5337 146.12 54.2243C146.835 53.915 147.704 53.7603 148.728 53.7603C149.443 53.7603 150.141 53.8457 150.824 54.0163C151.507 54.187 152.104 54.4323 152.616 54.7523L151.816 56.7203C150.781 56.1337 149.747 55.8403 148.712 55.8403C147.987 55.8403 147.448 55.9577 147.096 56.1923C146.755 56.427 146.584 56.7363 146.584 57.1203C146.584 57.5043 146.781 57.7923 147.176 57.9843C147.581 58.1657 148.195 58.347 149.016 58.5283C149.869 58.731 150.568 58.9337 151.112 59.1363C151.656 59.339 152.12 59.659 152.504 60.0963C152.899 60.5337 153.096 61.1257 153.096 61.8723C153.096 62.5123 152.915 63.099 152.552 63.6323C152.2 64.155 151.667 64.571 150.952 64.8803C150.237 65.1897 149.368 65.3443 148.344 65.3443Z" fill="white"/>
</svg>
