<svg width="555" height="349" viewBox="0 0 555 349" fill="none" xmlns="http://www.w3.org/2000/svg">
<rect width="555" height="349" rx="30" fill="white"/>
<path d="M280 25.2617H25.4373C23.4181 25.2617 21.7812 26.8986 21.7812 28.9177C21.7812 30.9369 23.4181 32.5737 25.4373 32.5737H280C282.019 32.5737 283.656 30.9369 283.656 28.9177C283.656 26.8986 282.019 25.2617 280 25.2617Z" fill="#D7D7D7" fill-opacity="0.47"/>
<path d="M280 51.0293H25.4373C23.4181 51.0293 21.7812 52.6661 21.7812 54.6853C21.7812 56.7045 23.4181 58.3413 25.4373 58.3413H280C282.019 58.3413 283.656 56.7045 283.656 54.6853C283.656 52.6661 282.019 51.0293 280 51.0293Z" fill="#D7D7D7" fill-opacity="0.47"/>
<path d="M280 76.7949H25.4373C23.4181 76.7949 21.7812 78.4318 21.7812 80.4509C21.7812 82.4701 23.4181 84.1069 25.4373 84.1069H280C282.019 84.1069 283.656 82.4701 283.656 80.4509C283.656 78.4318 282.019 76.7949 280 76.7949Z" fill="#D7D7D7" fill-opacity="0.47"/>
<path d="M378.657 102.559H25.4373C23.4181 102.559 21.7812 104.195 21.7812 106.215C21.7812 108.234 23.4181 109.871 25.4373 109.871H378.657C380.676 109.871 382.313 108.234 382.313 106.215C382.313 104.195 380.676 102.559 378.657 102.559Z" fill="#D7D7D7" fill-opacity="0.47"/>
<path d="M377.621 25.2695H301.096C298.89 25.2695 297.102 26.9079 297.102 28.9289V79.9854C297.102 82.0064 298.89 83.6447 301.096 83.6447H377.621C379.827 83.6447 381.615 82.0064 381.615 79.9854V28.9289C381.615 26.9079 379.827 25.2695 377.621 25.2695Z" fill="#D7D7D7" fill-opacity="0.47"/>
<path d="M527.336 25H399.664C395.983 25 393 30.3606 393 36.9731V204.027C393 210.639 395.983 216 399.664 216H527.336C531.017 216 534 210.639 534 204.027V36.9731C534 30.3606 531.017 25 527.336 25Z" fill="#D7D7D7" fill-opacity="0.47"/>
<rect y="235" width="555" height="114" rx="15" fill="#740B99"/>
<path d="M280 131.809H25.4373C23.4181 131.809 21.7812 133.445 21.7812 135.465C21.7812 137.484 23.4181 139.121 25.4373 139.121H280C282.019 139.121 283.656 137.484 283.656 135.465C283.656 133.445 282.019 131.809 280 131.809Z" fill="#D7D7D7" fill-opacity="0.47"/>
<path d="M280 157.574H25.4373C23.4181 157.574 21.7812 159.211 21.7812 161.23C21.7812 163.249 23.4181 164.886 25.4373 164.886H280C282.019 164.886 283.656 163.249 283.656 161.23C283.656 159.211 282.019 157.574 280 157.574Z" fill="#D7D7D7" fill-opacity="0.47"/>
<path d="M280 183.34H25.4373C23.4181 183.34 21.7812 184.977 21.7812 186.996C21.7812 189.015 23.4181 190.652 25.4373 190.652H280C282.019 190.652 283.656 189.015 283.656 186.996C283.656 184.977 282.019 183.34 280 183.34Z" fill="#D7D7D7" fill-opacity="0.47"/>
<path d="M378.657 209.107H25.4373C23.4181 209.107 21.7812 210.744 21.7812 212.763C21.7812 214.783 23.4181 216.419 25.4373 216.419H378.657C380.676 216.419 382.313 214.783 382.313 212.763C382.313 210.744 380.676 209.107 378.657 209.107Z" fill="#D7D7D7" fill-opacity="0.47"/>
<path d="M377.621 132.436H301.096C298.89 132.436 297.102 134.074 297.102 136.095V187.151C297.102 189.172 298.89 190.811 301.096 190.811H377.621C379.827 190.811 381.615 189.172 381.615 187.151V136.095C381.615 134.074 379.827 132.436 377.621 132.436Z" fill="#D7D7D7" fill-opacity="0.47"/>
<path d="M256.883 297.863C256.892 298.296 256.806 298.727 256.631 299.124C256.461 299.472 256.209 299.773 255.896 300.002C255.562 300.228 255.191 300.395 254.799 300.495C254.314 300.609 253.817 300.664 253.318 300.66H252.671C252.419 300.66 252.156 300.66 251.881 300.66L251.037 300.572C250.774 300.544 250.513 300.497 250.258 300.429C249.995 300.363 249.852 300.232 249.852 300.045V299.365C249.85 299.325 249.858 299.285 249.875 299.248C249.892 299.212 249.918 299.181 249.951 299.157C250.023 299.102 250.112 299.075 250.203 299.08H250.28L251.048 299.157L251.881 299.223H252.682H253.318C253.812 299.253 254.304 299.151 254.744 298.927C254.923 298.81 255.063 298.645 255.149 298.45C255.234 298.255 255.262 298.04 255.227 297.83C255.232 297.54 255.121 297.26 254.92 297.051C254.59 296.732 254.222 296.455 253.823 296.228L251.87 295.065C251.332 294.749 250.85 294.345 250.444 293.869C250.077 293.43 249.882 292.873 249.896 292.301C249.883 291.868 249.977 291.438 250.17 291.05C250.345 290.73 250.598 290.458 250.905 290.26C251.24 290.052 251.613 289.91 252.002 289.844C252.462 289.763 252.928 289.722 253.395 289.723C253.923 289.72 254.45 289.746 254.975 289.8C255.479 289.8 255.962 289.898 256.412 289.975C256.664 289.975 256.785 290.151 256.785 290.37V291.007C256.79 291.051 256.785 291.096 256.771 291.138C256.756 291.181 256.732 291.219 256.7 291.251C256.668 291.282 256.63 291.307 256.588 291.321C256.545 291.336 256.5 291.341 256.456 291.335H256.291L254.942 291.237C254.382 291.237 253.845 291.237 253.285 291.237C252.843 291.219 252.4 291.282 251.98 291.423C251.651 291.555 251.486 291.862 251.486 292.356C251.485 292.498 251.513 292.639 251.57 292.769C251.627 292.9 251.71 293.017 251.815 293.113C252.122 293.39 252.461 293.629 252.825 293.826L254.744 294.922C255.389 295.264 255.954 295.739 256.401 296.316C256.72 296.768 256.889 297.309 256.883 297.863V297.863Z" fill="white"/>
<path d="M271.849 300.411C271.815 300.447 271.775 300.477 271.729 300.498C271.684 300.518 271.635 300.53 271.585 300.531H270.653C270.549 300.529 270.451 300.485 270.379 300.411C270.344 300.377 270.316 300.336 270.297 300.29C270.278 300.245 270.269 300.196 270.269 300.147V293.302C270.278 292.961 270.233 292.621 270.137 292.293C270.059 292.057 269.932 291.841 269.765 291.657C269.609 291.502 269.416 291.389 269.205 291.328C268.977 291.26 268.741 291.227 268.503 291.229C268.133 291.236 267.764 291.288 267.406 291.383C267.011 291.492 266.627 291.613 266.309 291.756C266.436 292.246 266.495 292.752 266.485 293.258V300.147C266.485 300.244 266.45 300.338 266.386 300.411C266.356 300.449 266.318 300.481 266.274 300.501C266.23 300.522 266.182 300.533 266.134 300.531H265.07C265.023 300.532 264.976 300.521 264.934 300.5C264.892 300.479 264.856 300.448 264.828 300.411C264.772 300.334 264.741 300.242 264.74 300.147V293.258C264.745 292.913 264.716 292.567 264.653 292.227C264.613 292.003 264.519 291.792 264.378 291.613C264.251 291.465 264.083 291.359 263.896 291.306C263.684 291.255 263.467 291.229 263.249 291.229C262.872 291.243 262.501 291.321 262.152 291.46C261.731 291.609 261.321 291.785 260.923 291.986V300.147C260.922 300.242 260.892 300.334 260.835 300.411C260.805 300.448 260.766 300.478 260.723 300.499C260.679 300.52 260.631 300.531 260.583 300.531H259.552C259.505 300.531 259.459 300.52 259.417 300.499C259.375 300.478 259.339 300.448 259.31 300.411C259.254 300.334 259.223 300.242 259.223 300.147V290.275C259.226 290.173 259.264 290.076 259.332 290.001C259.365 289.964 259.406 289.935 259.452 289.916C259.497 289.897 259.546 289.888 259.596 289.891H260.561C260.61 289.89 260.659 289.9 260.704 289.919C260.749 289.938 260.79 289.965 260.824 290.001C260.889 290.077 260.924 290.174 260.923 290.275V290.637C261.335 290.388 261.768 290.175 262.217 290.001C262.71 289.822 263.23 289.733 263.753 289.737C264.126 289.728 264.498 289.788 264.85 289.913C265.177 290.047 265.467 290.257 265.695 290.527C266.216 290.27 266.764 290.072 267.329 289.935C267.843 289.808 268.369 289.741 268.898 289.737C269.313 289.734 269.727 289.789 270.126 289.902C270.501 290.018 270.843 290.221 271.125 290.494C271.427 290.806 271.655 291.18 271.794 291.591C271.971 292.136 272.052 292.708 272.035 293.28V300.125C272.029 300.184 272.009 300.241 271.976 300.291C271.944 300.34 271.9 300.381 271.849 300.411V300.411Z" fill="white"/>
<path d="M282.008 300.146C282.007 300.196 281.996 300.245 281.975 300.29C281.954 300.335 281.924 300.376 281.888 300.409C281.853 300.447 281.811 300.478 281.763 300.498C281.716 300.519 281.665 300.53 281.614 300.53H280.725C280.675 300.528 280.626 300.517 280.581 300.496C280.536 300.475 280.495 300.446 280.462 300.409C280.423 300.377 280.392 300.337 280.371 300.292C280.35 300.246 280.34 300.196 280.341 300.146V299.718C279.886 299.985 279.409 300.212 278.915 300.398C278.418 300.574 277.895 300.663 277.368 300.661C276.965 300.665 276.564 300.617 276.173 300.519C275.804 300.428 275.462 300.251 275.174 300.003C274.865 299.744 274.624 299.412 274.472 299.038C274.282 298.561 274.192 298.049 274.209 297.535V297.305C274.204 296.837 274.286 296.372 274.45 295.934C274.62 295.539 274.898 295.201 275.251 294.957C275.683 294.66 276.172 294.458 276.688 294.365C277.41 294.22 278.146 294.154 278.882 294.167H280.308V293.4C280.371 292.795 280.207 292.189 279.847 291.699C279.398 291.333 278.823 291.16 278.246 291.217C277.61 291.217 277.061 291.217 276.578 291.217C276.096 291.217 275.668 291.282 275.284 291.326H275.185C275.1 291.326 275.017 291.304 274.944 291.261C274.878 291.261 274.845 291.14 274.845 291.008V290.361C274.845 290.153 274.977 290.032 275.251 289.988C275.525 289.944 276.085 289.867 276.557 289.813C277.028 289.758 277.588 289.736 278.246 289.736C278.768 289.686 279.296 289.747 279.793 289.915C280.29 290.083 280.746 290.355 281.131 290.712C281.76 291.453 282.079 292.408 282.019 293.378L282.008 300.146ZM280.297 295.385H278.871C278.386 295.376 277.901 295.413 277.423 295.495C277.099 295.537 276.789 295.65 276.513 295.824C276.296 295.958 276.133 296.164 276.052 296.405C275.952 296.687 275.904 296.984 275.909 297.283V297.513C275.879 297.768 275.905 298.026 275.986 298.269C276.068 298.511 276.203 298.733 276.381 298.917C276.769 299.178 277.232 299.301 277.697 299.269C278.136 299.274 278.573 299.211 278.992 299.082C279.444 298.929 279.881 298.734 280.297 298.5V295.385Z" fill="white"/>
<path d="M289.003 291.249C288.561 291.25 288.122 291.313 287.697 291.435C287.219 291.585 286.762 291.795 286.337 292.061V300.145C286.338 300.194 286.328 300.243 286.309 300.288C286.29 300.334 286.263 300.374 286.227 300.409C286.155 300.483 286.057 300.527 285.953 300.529H285.01C284.96 300.531 284.91 300.521 284.864 300.5C284.819 300.479 284.778 300.447 284.747 300.409C284.711 300.374 284.683 300.334 284.665 300.288C284.646 300.243 284.636 300.194 284.637 300.145V290.273C284.636 290.222 284.645 290.172 284.664 290.125C284.683 290.077 284.711 290.035 284.747 289.998C284.779 289.962 284.82 289.932 284.866 289.913C284.911 289.894 284.961 289.886 285.01 289.889H285.909C285.959 289.886 286.008 289.894 286.053 289.913C286.099 289.932 286.14 289.962 286.173 289.998C286.245 290.076 286.284 290.178 286.282 290.284V290.69C286.712 290.38 287.185 290.136 287.686 289.965C288.111 289.823 288.555 289.749 289.003 289.746C289.277 289.746 289.409 289.867 289.409 290.108V290.909C289.409 291.139 289.277 291.249 289.003 291.249Z" fill="white"/>
<path d="M296.546 300.574L295.91 300.64H295.285C294.895 300.646 294.505 300.612 294.122 300.541C293.82 300.481 293.539 300.341 293.31 300.135C293.075 299.923 292.904 299.65 292.816 299.345C292.695 298.925 292.639 298.488 292.652 298.051V291.305L290.787 291.096C290.535 291.096 290.414 290.954 290.414 290.745V290.219C290.414 289.988 290.535 289.879 290.787 289.879H292.652V287.981C292.649 287.933 292.656 287.884 292.672 287.838C292.688 287.792 292.713 287.75 292.746 287.714C292.779 287.679 292.818 287.65 292.863 287.63C292.907 287.609 292.954 287.598 293.003 287.597L294.012 287.443C294.051 287.442 294.09 287.45 294.126 287.465C294.162 287.48 294.194 287.502 294.221 287.531C294.251 287.563 294.275 287.601 294.29 287.642C294.305 287.684 294.311 287.728 294.308 287.772V289.879H296.393C296.443 289.877 296.494 289.886 296.541 289.905C296.589 289.923 296.631 289.952 296.667 289.988C296.703 290.024 296.732 290.067 296.75 290.114C296.769 290.161 296.778 290.212 296.777 290.262V290.921C296.778 290.972 296.769 291.022 296.75 291.069C296.732 291.117 296.703 291.16 296.667 291.196C296.631 291.231 296.589 291.26 296.541 291.279C296.494 291.297 296.443 291.306 296.393 291.305H294.308V298.04C294.26 298.39 294.342 298.745 294.539 299.038C294.775 299.204 295.063 299.279 295.35 299.247H296.447C296.722 299.247 296.853 299.346 296.853 299.521V300.212C296.886 300.42 296.776 300.53 296.546 300.574Z" fill="white"/>
<path d="M306.947 290.232C306.956 290.275 306.956 290.32 306.947 290.363L303.755 301.497C303.627 301.956 303.462 302.404 303.261 302.836C303.104 303.17 302.88 303.469 302.603 303.713C302.313 303.94 301.981 304.108 301.626 304.207C301.167 304.316 300.695 304.368 300.222 304.361C299.933 304.358 299.644 304.339 299.356 304.306C299.1 304.29 298.847 304.249 298.599 304.185C298.495 304.169 298.395 304.136 298.303 304.086C298.266 304.067 298.235 304.036 298.216 303.999C298.196 303.962 298.188 303.92 298.193 303.878V303.165C298.193 302.956 298.314 302.847 298.555 302.847C298.774 302.847 299.071 302.847 299.422 302.924C299.773 303 300.058 302.924 300.277 302.924C300.52 302.927 300.763 302.904 301.001 302.858C301.194 302.814 301.374 302.728 301.528 302.605C301.689 302.465 301.819 302.293 301.912 302.101C302.042 301.84 302.138 301.563 302.197 301.278L302.383 300.488H302.12C301.982 300.505 301.842 300.505 301.703 300.488C301.564 300.464 301.433 300.408 301.319 300.324C301.179 300.214 301.063 300.076 300.979 299.918C300.857 299.687 300.757 299.445 300.683 299.194L298.116 290.363C298.107 290.32 298.107 290.275 298.116 290.232C298.116 290.012 298.237 289.903 298.467 289.903H299.564C299.602 289.903 299.64 289.912 299.674 289.929C299.709 289.946 299.738 289.971 299.762 290.001C299.822 290.059 299.867 290.131 299.893 290.21L302.175 298.613C302.19 298.75 302.252 298.878 302.351 298.975C302.403 299.017 302.469 299.04 302.537 299.04H302.844L305.203 290.188C305.233 290.111 305.282 290.043 305.345 289.99C305.375 289.961 305.412 289.937 305.451 289.922C305.491 289.907 305.533 289.901 305.576 289.903H306.673C306.837 289.903 306.947 290.012 306.947 290.232Z" fill="white"/>
<path d="M316.412 300.149C316.412 300.198 316.403 300.247 316.384 300.292C316.365 300.337 316.337 300.378 316.302 300.412C316.23 300.487 316.131 300.53 316.028 300.533H315.139C315.035 300.53 314.937 300.487 314.865 300.412C314.83 300.378 314.802 300.337 314.783 300.292C314.764 300.247 314.755 300.198 314.755 300.149V299.721C314.296 299.987 313.815 300.215 313.318 300.401C312.822 300.579 312.298 300.668 311.771 300.664C311.372 300.667 310.974 300.619 310.587 300.522C310.215 300.431 309.869 300.254 309.577 300.006C309.275 299.743 309.038 299.412 308.886 299.041C308.696 298.563 308.606 298.052 308.623 297.538V297.308C308.612 296.839 308.694 296.373 308.865 295.937C309.034 295.545 309.307 295.207 309.654 294.96C310.091 294.665 310.584 294.463 311.102 294.368C311.824 294.223 312.56 294.157 313.296 294.17H314.722V293.403C314.785 292.798 314.621 292.192 314.261 291.702C313.812 291.336 313.237 291.163 312.66 291.22C312.024 291.22 311.475 291.22 310.993 291.22C310.51 291.22 310.082 291.285 309.698 291.329H309.599C309.514 291.329 309.431 291.307 309.358 291.263C309.318 291.236 309.287 291.197 309.268 291.153C309.248 291.108 309.242 291.059 309.248 291.011V290.364C309.248 290.155 309.391 290.035 309.654 289.991C309.918 289.947 310.499 289.87 310.96 289.815C311.42 289.761 312.057 289.739 312.66 289.739C313.161 289.662 313.673 289.703 314.156 289.857C314.639 290.011 315.079 290.275 315.443 290.627C315.808 290.98 316.086 291.412 316.255 291.889C316.425 292.367 316.482 292.877 316.423 293.381L316.412 300.149ZM314.711 295.388H313.34C312.855 295.379 312.37 295.415 311.892 295.498C311.568 295.538 311.257 295.651 310.982 295.827C310.768 295.967 310.603 296.17 310.51 296.408C310.414 296.691 310.37 296.988 310.378 297.286V297.516C310.346 297.77 310.371 298.027 310.45 298.27C310.53 298.513 310.663 298.735 310.839 298.92C311.227 299.178 311.69 299.302 312.155 299.271C312.594 299.277 313.031 299.214 313.45 299.085C313.906 298.934 314.347 298.739 314.766 298.503L314.711 295.388Z" fill="white"/>
<path d="M326.877 299.893C326.887 299.998 326.86 300.103 326.801 300.19C326.801 300.266 326.647 300.31 326.472 300.332C325.881 300.452 325.284 300.536 324.683 300.585C324.091 300.585 323.499 300.661 322.906 300.661C322.264 300.676 321.626 300.561 321.031 300.321C320.523 300.117 320.074 299.789 319.725 299.367C319.357 298.93 319.091 298.417 318.946 297.864C318.773 297.22 318.688 296.556 318.694 295.89V294.496C318.615 293.24 318.984 291.996 319.736 290.986C320.14 290.559 320.634 290.227 321.183 290.014C321.731 289.802 322.32 289.714 322.906 289.757C323.203 289.757 323.565 289.757 324.003 289.812C324.442 289.867 324.815 289.889 325.199 289.955V286.357C325.196 286.309 325.203 286.26 325.22 286.215C325.237 286.169 325.264 286.128 325.298 286.094C325.332 286.059 325.373 286.033 325.419 286.016C325.464 285.999 325.513 285.992 325.561 285.995H326.548C326.595 285.994 326.641 286.002 326.684 286.019C326.728 286.036 326.767 286.061 326.801 286.094C326.865 286.166 326.9 286.26 326.899 286.357L326.877 299.893ZM325.177 291.381C324.814 291.319 324.448 291.283 324.08 291.271H322.983C322.575 291.263 322.169 291.334 321.787 291.48C321.475 291.613 321.208 291.834 321.02 292.116C320.808 292.421 320.665 292.77 320.603 293.136C320.51 293.591 320.466 294.054 320.471 294.518V295.846C320.423 296.693 320.613 297.536 321.02 298.281C321.241 298.585 321.54 298.825 321.885 298.975C322.23 299.126 322.609 299.181 322.983 299.137C323.323 299.137 323.696 299.137 324.08 299.137L325.177 299.06V291.381Z" fill="white"/>
<path d="M336.235 297.863C336.246 298.298 336.155 298.729 335.971 299.124C335.805 299.474 335.552 299.776 335.236 300.002C334.902 300.228 334.531 300.395 334.139 300.495C333.654 300.609 333.157 300.664 332.659 300.66H331.989C331.737 300.66 331.474 300.66 331.2 300.66L330.355 300.572C330.096 300.545 329.839 300.498 329.587 300.429C329.313 300.363 329.181 300.232 329.181 300.045V299.365C329.177 299.326 329.182 299.286 329.198 299.25C329.213 299.213 329.238 299.181 329.269 299.157C329.341 299.102 329.431 299.075 329.521 299.08H329.598L330.366 299.157L331.211 299.223H332H332.637C333.13 299.254 333.623 299.152 334.063 298.927C334.241 298.81 334.381 298.645 334.467 298.45C334.553 298.255 334.58 298.04 334.545 297.83C334.55 297.54 334.44 297.26 334.238 297.051C333.909 296.732 333.54 296.455 333.141 296.228L331.189 295.065C330.65 294.749 330.168 294.345 329.763 293.869C329.399 293.429 329.207 292.872 329.225 292.301C329.209 291.869 329.3 291.439 329.488 291.05C329.664 290.73 329.916 290.458 330.223 290.26C330.558 290.051 330.931 289.91 331.32 289.844C331.78 289.762 332.246 289.721 332.714 289.723C333.237 289.72 333.761 289.746 334.282 289.8C334.798 289.8 335.269 289.898 335.719 289.975C335.971 289.975 336.092 290.151 336.092 290.37V291.006C336.097 291.051 336.093 291.096 336.078 291.138C336.063 291.181 336.039 291.219 336.007 291.251C335.976 291.282 335.937 291.306 335.895 291.321C335.853 291.336 335.807 291.341 335.763 291.335H335.708L334.359 291.237C333.8 291.237 333.262 291.237 332.714 291.237C332.271 291.217 331.828 291.281 331.408 291.423C331.079 291.555 330.914 291.862 330.914 292.356C330.913 292.498 330.941 292.639 330.998 292.769C331.055 292.9 331.138 293.017 331.243 293.113C331.546 293.39 331.881 293.629 332.242 293.825L334.161 294.922C334.808 295.261 335.374 295.736 335.818 296.316C336.113 296.776 336.259 297.316 336.235 297.863V297.863Z" fill="white"/>
<path d="M229.329 304.287C229.21 304.287 229.095 304.249 229 304.178C228.905 304.107 228.836 304.007 228.802 303.893C228.782 303.824 228.776 303.752 228.784 303.682C228.792 303.611 228.814 303.542 228.849 303.48C228.884 303.418 228.93 303.363 228.986 303.319C229.042 303.275 229.107 303.242 229.175 303.223L232.159 302.434H229.318C229.173 302.434 229.033 302.376 228.93 302.273C228.827 302.17 228.77 302.031 228.77 301.885C228.77 301.74 228.827 301.6 228.93 301.497C229.033 301.394 229.173 301.337 229.318 301.337H236.075C236.147 301.327 236.221 301.332 236.291 301.351C236.361 301.37 236.426 301.403 236.484 301.447C236.542 301.491 236.59 301.546 236.626 301.609C236.662 301.672 236.686 301.742 236.695 301.814C236.705 301.886 236.7 301.959 236.681 302.029C236.662 302.099 236.629 302.165 236.585 302.223C236.541 302.28 236.485 302.328 236.422 302.365C236.359 302.401 236.29 302.424 236.218 302.434L229.461 304.342L229.329 304.287Z" fill="white"/>
<path d="M229.335 306.818C229.216 306.819 229.099 306.782 229.004 306.71C228.909 306.639 228.84 306.537 228.808 306.423C228.771 306.284 228.789 306.137 228.858 306.012C228.928 305.887 229.044 305.794 229.181 305.754L235.938 303.845C236.084 303.806 236.239 303.826 236.37 303.901C236.5 303.976 236.596 304.1 236.635 304.245C236.674 304.391 236.654 304.546 236.579 304.676C236.504 304.807 236.38 304.903 236.235 304.942L229.477 306.851L229.335 306.818Z" fill="white"/>
<path d="M232.681 307.999C232.562 307.999 232.447 307.961 232.352 307.89C232.257 307.819 232.188 307.719 232.154 307.605C232.134 307.536 232.128 307.465 232.136 307.394C232.144 307.323 232.166 307.254 232.201 307.192C232.236 307.13 232.282 307.075 232.338 307.031C232.394 306.987 232.459 306.955 232.527 306.936L232.999 307.144C233.295 307.067 234.095 306.749 234.15 307.034C234.17 307.103 234.176 307.175 234.168 307.245C234.16 307.316 234.138 307.385 234.104 307.447C234.069 307.509 234.022 307.564 233.966 307.608C233.91 307.652 233.846 307.684 233.777 307.703L232.823 307.978L232.681 307.999Z" fill="white"/>
<path d="M235.173 300.048H230.281C229.881 300.048 229.498 299.89 229.214 299.608C228.931 299.327 228.77 298.945 228.767 298.545V297.009C227.421 296.152 226.39 294.882 225.828 293.389C225.266 291.896 225.204 290.261 225.65 288.729C226.096 287.198 227.027 285.852 228.303 284.895C229.58 283.937 231.132 283.42 232.727 283.42C234.322 283.42 235.875 283.937 237.151 284.895C238.427 285.852 239.358 287.198 239.804 288.729C240.251 290.261 240.188 291.896 239.626 293.389C239.064 294.882 238.033 296.152 236.687 297.009V298.6C236.67 298.99 236.503 299.358 236.221 299.628C235.939 299.898 235.564 300.048 235.173 300.048V300.048ZM232.694 284.504C231.309 284.502 229.962 284.958 228.863 285.802C227.765 286.645 226.976 287.829 226.621 289.167C226.265 290.506 226.362 291.925 226.897 293.203C227.432 294.48 228.375 295.545 229.579 296.231C229.663 296.277 229.733 296.345 229.782 296.428C229.83 296.511 229.855 296.606 229.853 296.702V298.545C229.853 298.601 229.864 298.656 229.886 298.707C229.907 298.758 229.939 298.805 229.979 298.844C230.019 298.882 230.066 298.913 230.118 298.933C230.17 298.954 230.225 298.963 230.281 298.962H235.173C235.229 298.963 235.284 298.954 235.336 298.933C235.388 298.913 235.435 298.882 235.475 298.844C235.515 298.805 235.547 298.758 235.568 298.707C235.59 298.656 235.601 298.601 235.601 298.545V296.658C235.601 296.564 235.625 296.47 235.671 296.388C235.717 296.305 235.784 296.236 235.864 296.187C237.05 295.489 237.974 294.421 238.493 293.147C239.012 291.873 239.098 290.463 238.738 289.135C238.378 287.808 237.591 286.635 236.499 285.798C235.407 284.961 234.07 284.506 232.694 284.504V284.504Z" fill="white"/>
<path d="M238.872 283.897C238.774 283.896 238.679 283.866 238.598 283.81C238.518 283.755 238.456 283.676 238.422 283.584C238.387 283.493 238.381 283.393 238.405 283.298C238.429 283.203 238.481 283.117 238.554 283.052L240.473 281.375C240.57 281.292 240.696 281.251 240.824 281.261C240.951 281.272 241.07 281.332 241.153 281.43C241.197 281.474 241.232 281.525 241.255 281.583C241.279 281.64 241.292 281.702 241.292 281.764C241.292 281.826 241.279 281.888 241.255 281.945C241.232 282.002 241.197 282.055 241.153 282.098L239.234 283.776C239.186 283.821 239.128 283.855 239.066 283.876C239.004 283.896 238.937 283.904 238.872 283.897V283.897Z" fill="white"/>
<path d="M232.648 281.861C232.52 281.861 232.397 281.81 232.307 281.719C232.216 281.629 232.166 281.506 232.166 281.378V277.67C232.155 277.602 232.16 277.532 232.179 277.465C232.198 277.398 232.231 277.336 232.277 277.283C232.322 277.231 232.378 277.188 232.441 277.159C232.505 277.13 232.573 277.115 232.643 277.115C232.712 277.115 232.781 277.13 232.844 277.159C232.907 277.188 232.964 277.231 233.009 277.283C233.054 277.336 233.088 277.398 233.107 277.465C233.126 277.532 233.13 277.602 233.12 277.67V281.378C233.12 281.504 233.071 281.626 232.983 281.716C232.894 281.806 232.774 281.858 232.648 281.861V281.861Z" fill="white"/>
<path d="M242.223 289.586C242.105 289.583 241.992 289.536 241.906 289.455C241.82 289.375 241.767 289.265 241.756 289.148C241.745 289.03 241.778 288.913 241.848 288.818C241.917 288.723 242.02 288.656 242.135 288.632L245.503 287.985C245.627 287.965 245.755 287.994 245.859 288.065C245.963 288.137 246.036 288.245 246.062 288.368C246.085 288.493 246.057 288.622 245.985 288.727C245.913 288.832 245.803 288.904 245.678 288.928L242.311 289.575L242.223 289.586Z" fill="white"/>
<path d="M226.398 283.897C226.281 283.898 226.167 283.855 226.08 283.776L224.173 282.098C224.125 282.058 224.085 282.009 224.057 281.954C224.028 281.898 224.011 281.838 224.005 281.776C224 281.713 224.008 281.65 224.027 281.591C224.046 281.532 224.077 281.477 224.118 281.43C224.201 281.332 224.319 281.272 224.446 281.261C224.574 281.251 224.7 281.292 224.798 281.375L226.716 283.052C226.806 283.143 226.856 283.265 226.856 283.392C226.856 283.519 226.806 283.642 226.716 283.732C226.636 283.827 226.522 283.886 226.398 283.897Z" fill="white"/>
<path d="M242.72 296.82C242.63 296.822 242.542 296.795 242.468 296.744L241.021 295.845C240.916 295.775 240.842 295.668 240.814 295.546C240.785 295.424 240.804 295.295 240.867 295.187C240.901 295.132 240.945 295.085 240.997 295.048C241.049 295.011 241.107 294.985 241.17 294.97C241.232 294.956 241.296 294.954 241.359 294.965C241.422 294.976 241.482 294.999 241.536 295.033L242.972 295.932C243.079 296 243.155 296.107 243.183 296.23C243.212 296.353 243.191 296.482 243.126 296.59C243.082 296.658 243.022 296.715 242.951 296.755C242.881 296.795 242.801 296.817 242.72 296.82Z" fill="white"/>
<path d="M222.577 296.582C222.493 296.583 222.411 296.562 222.338 296.522C222.265 296.482 222.204 296.423 222.16 296.352C222.097 296.243 222.078 296.115 222.107 295.993C222.135 295.87 222.209 295.764 222.314 295.694L223.761 294.795C223.867 294.748 223.987 294.741 224.098 294.775C224.209 294.81 224.304 294.883 224.365 294.982C224.427 295.08 224.45 295.198 224.432 295.313C224.414 295.427 224.354 295.532 224.265 295.606L222.829 296.505C222.754 296.554 222.666 296.581 222.577 296.582V296.582Z" fill="white"/>
<path d="M223.058 289.581H222.97L219.602 288.934C219.478 288.91 219.368 288.837 219.296 288.733C219.224 288.628 219.196 288.499 219.219 288.374C219.245 288.251 219.318 288.142 219.422 288.071C219.526 288 219.653 287.971 219.778 287.99L223.146 288.637C223.261 288.662 223.363 288.728 223.433 288.824C223.503 288.919 223.536 289.036 223.525 289.154C223.514 289.271 223.461 289.38 223.375 289.461C223.289 289.542 223.176 289.589 223.058 289.592V289.581Z" fill="white"/>
</svg>
