<svg width="255" height="161" viewBox="0 0 255 161" fill="none" xmlns="http://www.w3.org/2000/svg">
<rect y="0.628906" width="255" height="160.351" rx="5" fill="white"/>
<rect x="183.949" y="12.2402" width="61.248" height="136.907" rx="3" fill="#740B99"/>
<path d="M128.649 61.1914H11.6876C10.7599 61.1914 10.0078 61.9435 10.0078 62.8712C10.0078 63.7989 10.7599 64.551 11.6876 64.551H128.649C129.577 64.551 130.329 63.7989 130.329 62.8712C130.329 61.9435 129.577 61.1914 128.649 61.1914Z" fill="#D7D7D7" fill-opacity="0.47"/>
<path d="M128.649 73.0312H11.6876C10.7599 73.0312 10.0078 73.7833 10.0078 74.711C10.0078 75.6388 10.7599 76.3908 11.6876 76.3908H128.649C129.577 76.3908 130.329 75.6388 130.329 74.711C130.329 73.7833 129.577 73.0312 128.649 73.0312Z" fill="#D7D7D7" fill-opacity="0.47"/>
<path d="M128.649 84.8672H11.6876C10.7599 84.8672 10.0078 85.6193 10.0078 86.547C10.0078 87.4747 10.7599 88.2268 11.6876 88.2268H128.649C129.577 88.2268 130.329 87.4747 130.329 86.547C130.329 85.6193 129.577 84.8672 128.649 84.8672Z" fill="#D7D7D7" fill-opacity="0.47"/>
<path d="M173.978 96.709H11.6876C10.7599 96.709 10.0078 97.4611 10.0078 98.3888C10.0078 99.3165 10.7599 100.069 11.6876 100.069H173.978C174.905 100.069 175.657 99.3165 175.657 98.3888C175.657 97.4611 174.905 96.709 173.978 96.709Z" fill="#D7D7D7" fill-opacity="0.47"/>
<path d="M173.503 61.4824H138.343C137.329 61.4824 136.508 62.2352 136.508 63.1637V86.6221C136.508 87.5507 137.329 88.3035 138.343 88.3035H173.503C174.517 88.3035 175.338 87.5507 175.338 86.6221V63.1637C175.338 62.2352 174.517 61.4824 173.503 61.4824Z" fill="#D7D7D7" fill-opacity="0.47"/>
<path d="M128.649 110.143H11.6876C10.7599 110.143 10.0078 110.895 10.0078 111.822C10.0078 112.75 10.7599 113.502 11.6876 113.502H128.649C129.577 113.502 130.329 112.75 130.329 111.822C130.329 110.895 129.577 110.143 128.649 110.143Z" fill="#D7D7D7" fill-opacity="0.47"/>
<path d="M128.649 121.98H11.6876C10.7599 121.98 10.0078 122.733 10.0078 123.66C10.0078 124.588 10.7599 125.34 11.6876 125.34H128.649C129.577 125.34 130.329 124.588 130.329 123.66C130.329 122.733 129.577 121.98 128.649 121.98Z" fill="#D7D7D7" fill-opacity="0.47"/>
<path d="M128.649 133.82H11.6876C10.7599 133.82 10.0078 134.572 10.0078 135.5C10.0078 136.428 10.7599 137.18 11.6876 137.18H128.649C129.577 137.18 130.329 136.428 130.329 135.5C130.329 134.572 129.577 133.82 128.649 133.82Z" fill="#D7D7D7" fill-opacity="0.47"/>
<path d="M173.978 145.658H11.6876C10.7599 145.658 10.0078 146.41 10.0078 147.338C10.0078 148.266 10.7599 149.018 11.6876 149.018H173.978C174.905 149.018 175.657 148.266 175.657 147.338C175.657 146.41 174.905 145.658 173.978 145.658Z" fill="#D7D7D7" fill-opacity="0.47"/>
<rect x="10" y="12.3906" width="166" height="39" rx="3" fill="#FBB640"/>
<path d="M173.503 110.314H138.343C137.329 110.314 136.508 111.067 136.508 111.996V135.454C136.508 136.383 137.329 137.135 138.343 137.135H173.503C174.517 137.135 175.338 136.383 175.338 135.454V111.996C175.338 111.067 174.517 110.314 173.503 110.314Z" fill="#D7D7D7" fill-opacity="0.47"/>
<path d="M68.0483 38.582C67.1629 38.582 66.3043 38.4647 65.4723 38.23C64.6509 37.9847 63.9896 37.67 63.4883 37.286L64.3683 35.334C64.8483 35.686 65.4189 35.9687 66.0803 36.182C66.7416 36.3954 67.4029 36.502 68.0643 36.502C68.8003 36.502 69.3443 36.3954 69.6963 36.182C70.0483 35.958 70.2243 35.6647 70.2243 35.302C70.2243 35.0354 70.1176 34.8167 69.9043 34.646C69.7016 34.4647 69.4349 34.3207 69.1043 34.214C68.7843 34.1074 68.3469 33.99 67.7923 33.862C66.9389 33.6594 66.2403 33.4567 65.6963 33.254C65.1523 33.0514 64.6829 32.726 64.2883 32.278C63.9043 31.83 63.7123 31.2327 63.7123 30.486C63.7123 29.8354 63.8883 29.2487 64.2403 28.726C64.5923 28.1927 65.1203 27.7714 65.8243 27.462C66.5389 27.1527 67.4083 26.998 68.4323 26.998C69.1469 26.998 69.8456 27.0834 70.5283 27.254C71.2109 27.4247 71.8083 27.67 72.3203 27.99L71.5203 29.958C70.4856 29.3714 69.4509 29.078 68.4163 29.078C67.6909 29.078 67.1523 29.1954 66.8003 29.43C66.4589 29.6647 66.2883 29.974 66.2883 30.358C66.2883 30.742 66.4856 31.03 66.8803 31.222C67.2856 31.4034 67.8989 31.5847 68.7203 31.766C69.5736 31.9687 70.2723 32.1714 70.8163 32.374C71.3603 32.5767 71.8243 32.8967 72.2083 33.334C72.6029 33.7714 72.8003 34.3634 72.8003 35.11C72.8003 35.75 72.6189 36.3367 72.2563 36.87C71.9043 37.3927 71.3709 37.8087 70.6563 38.118C69.9416 38.4274 69.0723 38.582 68.0483 38.582Z" fill="#740B99"/>
<path d="M79.4194 27.19C80.4114 27.19 81.2701 27.3554 81.9954 27.686C82.7314 28.0167 83.2967 28.486 83.6914 29.094C84.0861 29.702 84.2834 30.422 84.2834 31.254C84.2834 32.0754 84.0861 32.7954 83.6914 33.414C83.2967 34.022 82.7314 34.4914 81.9954 34.822C81.2701 35.142 80.4114 35.302 79.4194 35.302H77.1634V38.39H74.5714V27.19H79.4194ZM79.2754 33.19C80.0541 33.19 80.6461 33.0247 81.0514 32.694C81.4567 32.3527 81.6594 31.8727 81.6594 31.254C81.6594 30.6247 81.4567 30.1447 81.0514 29.814C80.6461 29.4727 80.0541 29.302 79.2754 29.302H77.1634V33.19H79.2754Z" fill="#740B99"/>
<path d="M91.7142 38.582C90.5515 38.582 89.5008 38.3314 88.5622 37.83C87.6342 37.3287 86.9035 36.6407 86.3702 35.766C85.8475 34.8807 85.5862 33.8887 85.5862 32.79C85.5862 31.6914 85.8475 30.7047 86.3702 29.83C86.9035 28.9447 87.6342 28.2514 88.5622 27.75C89.5008 27.2487 90.5515 26.998 91.7142 26.998C92.8768 26.998 93.9222 27.2487 94.8502 27.75C95.7782 28.2514 96.5088 28.9447 97.0422 29.83C97.5755 30.7047 97.8422 31.6914 97.8422 32.79C97.8422 33.8887 97.5755 34.8807 97.0422 35.766C96.5088 36.6407 95.7782 37.3287 94.8502 37.83C93.9222 38.3314 92.8768 38.582 91.7142 38.582ZM91.7142 36.374C92.3755 36.374 92.9728 36.2247 93.5062 35.926C94.0395 35.6167 94.4555 35.19 94.7542 34.646C95.0635 34.102 95.2182 33.4834 95.2182 32.79C95.2182 32.0967 95.0635 31.478 94.7542 30.934C94.4555 30.39 94.0395 29.9687 93.5062 29.67C92.9728 29.3607 92.3755 29.206 91.7142 29.206C91.0528 29.206 90.4555 29.3607 89.9222 29.67C89.3888 29.9687 88.9675 30.39 88.6582 30.934C88.3595 31.478 88.2102 32.0967 88.2102 32.79C88.2102 33.4834 88.3595 34.102 88.6582 34.646C88.9675 35.19 89.3888 35.6167 89.9222 35.926C90.4555 36.2247 91.0528 36.374 91.7142 36.374Z" fill="#740B99"/>
<path d="M106.926 38.39L104.766 35.27H104.638H102.382V38.39H99.7902V27.19H104.638C105.63 27.19 106.489 27.3554 107.214 27.686C107.95 28.0167 108.515 28.486 108.91 29.094C109.305 29.702 109.502 30.422 109.502 31.254C109.502 32.086 109.299 32.806 108.894 33.414C108.499 34.0114 107.934 34.47 107.198 34.79L109.71 38.39H106.926ZM106.878 31.254C106.878 30.6247 106.675 30.1447 106.27 29.814C105.865 29.4727 105.273 29.302 104.494 29.302H102.382V33.206H104.494C105.273 33.206 105.865 33.0354 106.27 32.694C106.675 32.3527 106.878 31.8727 106.878 31.254Z" fill="#740B99"/>
<path d="M113.72 29.302H110.136V27.19H119.896V29.302H116.312V38.39H113.72V29.302Z" fill="#740B99"/>
<path d="M202.382 73.4075V76.0003H200.689V73.3866L197.855 68.6821H199.654L201.609 71.9335L203.564 68.6821H205.226L202.382 73.4075Z" fill="white"/>
<path d="M209.162 76.1257C208.402 76.1257 207.716 75.9619 207.103 75.6344C206.496 75.3068 206.019 74.8572 205.67 74.2857C205.329 73.7072 205.158 73.0591 205.158 72.3412C205.158 71.6233 205.329 70.9786 205.67 70.4071C206.019 69.8286 206.496 69.3756 207.103 69.048C207.716 68.7204 208.402 68.5566 209.162 68.5566C209.922 68.5566 210.605 68.7204 211.211 69.048C211.818 69.3756 212.295 69.8286 212.644 70.4071C212.992 70.9786 213.166 71.6233 213.166 72.3412C213.166 73.0591 212.992 73.7072 212.644 74.2857C212.295 74.8572 211.818 75.3068 211.211 75.6344C210.605 75.9619 209.922 76.1257 209.162 76.1257ZM209.162 74.683C209.594 74.683 209.985 74.5854 210.333 74.3903C210.682 74.1882 210.953 73.9094 211.149 73.5539C211.351 73.1985 211.452 72.7942 211.452 72.3412C211.452 71.8882 211.351 71.4839 211.149 71.1285C210.953 70.773 210.682 70.4977 210.333 70.3025C209.985 70.1004 209.594 69.9994 209.162 69.9994C208.73 69.9994 208.34 70.1004 207.991 70.3025C207.643 70.4977 207.367 70.773 207.165 71.1285C206.97 71.4839 206.873 71.8882 206.873 72.3412C206.873 72.7942 206.97 73.1985 207.165 73.5539C207.367 73.9094 207.643 74.1882 207.991 74.3903C208.34 74.5854 208.73 74.683 209.162 74.683Z" fill="white"/>
<path d="M217.69 76.1257C216.645 76.1257 215.83 75.8365 215.244 75.258C214.666 74.6795 214.376 73.8536 214.376 72.7803V68.6821H216.07V72.7175C216.07 74.0279 216.614 74.683 217.701 74.683C218.231 74.683 218.635 74.5262 218.914 74.2125C219.192 73.8919 219.332 73.3936 219.332 72.7175V68.6821H221.005V72.7803C221.005 73.8536 220.712 74.6795 220.126 75.258C219.548 75.8365 218.736 76.1257 217.69 76.1257Z" fill="white"/>
<path d="M227.341 76.0003L225.93 73.9616H225.846H224.372V76.0003H222.678V68.6821H225.846C226.494 68.6821 227.055 68.7901 227.529 69.0062C228.01 69.2222 228.379 69.5289 228.637 69.9262C228.895 70.3235 229.024 70.7939 229.024 71.3375C229.024 71.8812 228.892 72.3516 228.627 72.7489C228.369 73.1392 228 73.4389 227.519 73.648L229.16 76.0003H227.341ZM227.31 71.3375C227.31 70.9263 227.177 70.6127 226.912 70.3966C226.647 70.1736 226.261 70.0621 225.752 70.0621H224.372V72.613H225.752C226.261 72.613 226.647 72.5015 226.912 72.2785C227.177 72.0554 227.31 71.7418 227.31 71.3375Z" fill="white"/>
<path d="M203.689 87.4321H200.291L199.643 89.0003H197.908L201.17 81.6821H202.842L206.115 89.0003H204.337L203.689 87.4321ZM203.156 86.1462L201.995 83.3444L200.835 86.1462H203.156Z" fill="white"/>
<path d="M206.874 81.6821H210.198C210.993 81.6821 211.693 81.8354 212.3 82.1421C212.913 82.4418 213.387 82.8669 213.722 83.4175C214.063 83.9682 214.234 84.6094 214.234 85.3412C214.234 86.073 214.063 86.7142 213.722 87.2648C213.387 87.8154 212.913 88.2441 212.3 88.5507C211.693 88.8504 210.993 89.0003 210.198 89.0003H206.874V81.6821ZM210.115 87.6098C210.847 87.6098 211.429 87.4077 211.861 87.0035C212.3 86.5922 212.519 86.0382 212.519 85.3412C212.519 84.6442 212.3 84.0936 211.861 83.6894C211.429 83.2782 210.847 83.0725 210.115 83.0725H208.567V87.6098H210.115Z" fill="white"/>
</svg>
