<svg width="255" height="161" viewBox="0 0 255 161" fill="none" xmlns="http://www.w3.org/2000/svg">
<rect y="0.390625" width="255" height="160" rx="5" fill="#740B99"/>
<path d="M128.649 11.2383H11.6876C10.7599 11.2383 10.0078 11.9903 10.0078 12.9181C10.0078 13.8458 10.7599 14.5979 11.6876 14.5979H128.649C129.577 14.5979 130.329 13.8458 130.329 12.9181C130.329 11.9903 129.577 11.2383 128.649 11.2383Z" fill="#D7D7D7" fill-opacity="0.47"/>
<path d="M128.649 23.0762H11.6876C10.7599 23.0762 10.0078 23.8282 10.0078 24.756C10.0078 25.6837 10.7599 26.4358 11.6876 26.4358H128.649C129.577 26.4358 130.329 25.6837 130.329 24.756C130.329 23.8282 129.577 23.0762 128.649 23.0762Z" fill="#D7D7D7" fill-opacity="0.47"/>
<path d="M128.649 34.916H11.6876C10.7599 34.916 10.0078 35.6681 10.0078 36.5958C10.0078 37.5235 10.7599 38.2756 11.6876 38.2756H128.649C129.577 38.2756 130.329 37.5235 130.329 36.5958C130.329 35.6681 129.577 34.916 128.649 34.916Z" fill="#D7D7D7" fill-opacity="0.47"/>
<path d="M173.978 46.7539H11.6876C10.7599 46.7539 10.0078 47.506 10.0078 48.4337C10.0078 49.3614 10.7599 50.1135 11.6876 50.1135H173.978C174.905 50.1135 175.657 49.3614 175.657 48.4337C175.657 47.506 174.905 46.7539 173.978 46.7539Z" fill="#D7D7D7" fill-opacity="0.47"/>
<path d="M173.503 11.2402H138.343C137.329 11.2402 136.508 11.993 136.508 12.9216V36.3799C136.508 37.3085 137.329 38.0613 138.343 38.0613H173.503C174.517 38.0613 175.338 37.3085 175.338 36.3799V12.9216C175.338 11.993 174.517 11.2402 173.503 11.2402Z" fill="#D7D7D7" fill-opacity="0.47"/>
<path d="M197.347 60.3906H12.6526C11.1876 60.3906 10 61.0622 10 61.8906C10 62.7191 11.1876 63.3906 12.6526 63.3906H197.347C198.812 63.3906 200 62.7191 200 61.8906C200 61.0622 198.812 60.3906 197.347 60.3906Z" fill="white"/>
<path d="M197.347 72.3906H12.6526C11.1876 72.3906 10 73.0622 10 73.8906C10 74.7191 11.1876 75.3906 12.6526 75.3906H197.347C198.812 75.3906 200 74.7191 200 73.8906C200 73.0622 198.812 72.3906 197.347 72.3906Z" fill="white"/>
<path d="M197.347 84.3906H12.6526C11.1876 84.3906 10 85.0622 10 85.8906C10 86.7191 11.1876 87.3906 12.6526 87.3906H197.347C198.812 87.3906 200 86.7191 200 85.8906C200 85.0622 198.812 84.3906 197.347 84.3906Z" fill="white"/>
<path d="M242.617 96.3906H12.383C11.0669 96.3906 10 97.0622 10 97.8906C10 98.7191 11.0669 99.3906 12.383 99.3906H242.617C243.933 99.3906 245 98.7191 245 97.8906C245 97.0622 243.933 96.3906 242.617 96.3906Z" fill="white"/>
<path d="M242.995 60.3906H207.835C206.822 60.3906 206 61.1434 206 62.0719V85.5303C206 86.4589 206.822 87.2117 207.835 87.2117H242.995C244.009 87.2117 244.83 86.4589 244.83 85.5303V62.0719C244.83 61.1434 244.009 60.3906 242.995 60.3906Z" fill="white"/>
<path d="M197.347 109.391H12.6526C11.1876 109.391 10 110.062 10 110.891C10 111.719 11.1876 112.391 12.6526 112.391H197.347C198.812 112.391 200 111.719 200 110.891C200 110.062 198.812 109.391 197.347 109.391Z" fill="white"/>
<path d="M197.347 121.391H12.6526C11.1876 121.391 10 122.062 10 122.891C10 123.719 11.1876 124.391 12.6526 124.391H197.347C198.812 124.391 200 123.719 200 122.891C200 122.062 198.812 121.391 197.347 121.391Z" fill="white"/>
<path d="M197.347 132.391H12.6526C11.1876 132.391 10 133.062 10 133.891C10 134.719 11.1876 135.391 12.6526 135.391H197.347C198.812 135.391 200 134.719 200 133.891C200 133.062 198.812 132.391 197.347 132.391Z" fill="white"/>
<path d="M242.617 144.391H12.383C11.0669 144.391 10 145.062 10 145.891C10 146.719 11.0669 147.391 12.383 147.391H242.617C243.933 147.391 245 146.719 245 145.891C245 145.062 243.933 144.391 242.617 144.391Z" fill="white"/>
<rect x="10" y="11.3906" width="235" height="39" rx="3" fill="white"/>
<path d="M242.995 109.211H207.835C206.822 109.211 206 109.964 206 110.892V134.351C206 135.279 206.822 136.032 207.835 136.032H242.995C244.009 136.032 244.83 135.279 244.83 134.351V110.892C244.83 109.964 244.009 109.211 242.995 109.211Z" fill="white"/>
<path d="M68.528 34.5906H64.628L63.884 36.3906H61.892L65.636 27.9906H67.556L71.312 36.3906H69.272L68.528 34.5906ZM67.916 33.1146L66.584 29.8986L65.252 33.1146H67.916ZM72.1835 27.9906H75.9995C76.9115 27.9906 77.7155 28.1666 78.4115 28.5186C79.1155 28.8626 79.6595 29.3506 80.0435 29.9826C80.4355 30.6146 80.6315 31.3506 80.6315 32.1906C80.6315 33.0306 80.4355 33.7666 80.0435 34.3986C79.6595 35.0306 79.1155 35.5226 78.4115 35.8746C77.7155 36.2186 76.9115 36.3906 75.9995 36.3906H72.1835V27.9906ZM75.9035 34.7946C76.7435 34.7946 77.4115 34.5626 77.9075 34.0986C78.4115 33.6266 78.6635 32.9906 78.6635 32.1906C78.6635 31.3906 78.4115 30.7586 77.9075 30.2946C77.4115 29.8226 76.7435 29.5866 75.9035 29.5866H74.1275V34.7946H75.9035ZM89.8923 27.9906L86.2563 36.3906H84.3363L80.7123 27.9906H82.8123L85.3683 33.9906L87.9603 27.9906H89.8923ZM97.0977 34.8306V36.3906H90.5937V27.9906H96.9417V29.5506H92.5257V31.3746H96.4257V32.8866H92.5257V34.8306H97.0977ZM103.996 36.3906L102.376 34.0506H102.28H100.588V36.3906H98.6444V27.9906H102.28C103.024 27.9906 103.668 28.1146 104.212 28.3626C104.764 28.6106 105.188 28.9626 105.484 29.4186C105.78 29.8746 105.928 30.4146 105.928 31.0386C105.928 31.6626 105.776 32.2026 105.472 32.6586C105.176 33.1066 104.752 33.4506 104.2 33.6906L106.084 36.3906H103.996ZM103.96 31.0386C103.96 30.5666 103.808 30.2066 103.504 29.9586C103.2 29.7026 102.756 29.5746 102.172 29.5746H100.588V32.5026H102.172C102.756 32.5026 103.2 32.3746 103.504 32.1186C103.808 31.8626 103.96 31.5026 103.96 31.0386ZM109.091 29.5746H106.403V27.9906H113.723V29.5746H111.035V36.3906H109.091V29.5746ZM114.769 27.9906H116.713V36.3906H114.769V27.9906ZM121.467 36.5346C120.803 36.5346 120.159 36.4466 119.535 36.2706C118.919 36.0866 118.423 35.8506 118.047 35.5626L118.707 34.0986C119.067 34.3626 119.495 34.5746 119.991 34.7346C120.487 34.8946 120.983 34.9746 121.479 34.9746C122.031 34.9746 122.439 34.8946 122.703 34.7346C122.967 34.5666 123.099 34.3466 123.099 34.0746C123.099 33.8746 123.019 33.7106 122.859 33.5826C122.707 33.4466 122.507 33.3386 122.259 33.2586C122.019 33.1786 121.691 33.0906 121.275 32.9946C120.635 32.8426 120.111 32.6906 119.703 32.5386C119.295 32.3866 118.943 32.1426 118.647 31.8066C118.359 31.4706 118.215 31.0226 118.215 30.4626C118.215 29.9746 118.347 29.5346 118.611 29.1426C118.875 28.7426 119.271 28.4266 119.799 28.1946C120.335 27.9626 120.987 27.8466 121.755 27.8466C122.291 27.8466 122.815 27.9106 123.327 28.0386C123.839 28.1666 124.287 28.3506 124.671 28.5906L124.071 30.0666C123.295 29.6266 122.519 29.4066 121.743 29.4066C121.199 29.4066 120.795 29.4946 120.531 29.6706C120.275 29.8466 120.147 30.0786 120.147 30.3666C120.147 30.6546 120.295 30.8706 120.591 31.0146C120.895 31.1506 121.355 31.2866 121.971 31.4226C122.611 31.5746 123.135 31.7266 123.543 31.8786C123.951 32.0306 124.299 32.2706 124.587 32.5986C124.883 32.9266 125.031 33.3706 125.031 33.9306C125.031 34.4106 124.895 34.8506 124.623 35.2506C124.359 35.6426 123.959 35.9546 123.423 36.1866C122.887 36.4186 122.235 36.5346 121.467 36.5346ZM132.863 34.8306V36.3906H126.359V27.9906H132.707V29.5506H128.291V31.3746H132.191V32.8866H128.291V34.8306H132.863ZM134.41 27.9906H138.226C139.138 27.9906 139.942 28.1666 140.638 28.5186C141.342 28.8626 141.886 29.3506 142.27 29.9826C142.662 30.6146 142.858 31.3506 142.858 32.1906C142.858 33.0306 142.662 33.7666 142.27 34.3986C141.886 35.0306 141.342 35.5226 140.638 35.8746C139.942 36.2186 139.138 36.3906 138.226 36.3906H134.41V27.9906ZM138.13 34.7946C138.97 34.7946 139.638 34.5626 140.134 34.0986C140.638 33.6266 140.89 32.9906 140.89 32.1906C140.89 31.3906 140.638 30.7586 140.134 30.2946C139.638 29.8226 138.97 29.5866 138.13 29.5866H136.354V34.7946H138.13ZM153.891 32.0226C154.371 32.1746 154.747 32.4306 155.019 32.7906C155.291 33.1426 155.427 33.5786 155.427 34.0986C155.427 34.8346 155.139 35.4026 154.563 35.8026C153.995 36.1946 153.163 36.3906 152.067 36.3906H147.723V27.9906H151.827C152.851 27.9906 153.635 28.1866 154.179 28.5786C154.731 28.9706 155.007 29.5026 155.007 30.1746C155.007 30.5826 154.907 30.9466 154.707 31.2666C154.515 31.5866 154.243 31.8386 153.891 32.0226ZM149.655 29.4546V31.4346H151.587C152.067 31.4346 152.431 31.3506 152.679 31.1826C152.927 31.0146 153.051 30.7666 153.051 30.4386C153.051 30.1106 152.927 29.8666 152.679 29.7066C152.431 29.5386 152.067 29.4546 151.587 29.4546H149.655ZM151.923 34.9266C152.435 34.9266 152.819 34.8426 153.075 34.6746C153.339 34.5066 153.471 34.2466 153.471 33.8946C153.471 33.1986 152.955 32.8506 151.923 32.8506H149.655V34.9266H151.923ZM162.25 36.3906L160.63 34.0506H160.534H158.842V36.3906H156.898V27.9906H160.534C161.278 27.9906 161.922 28.1146 162.466 28.3626C163.018 28.6106 163.442 28.9626 163.738 29.4186C164.034 29.8746 164.182 30.4146 164.182 31.0386C164.182 31.6626 164.03 32.2026 163.726 32.6586C163.43 33.1066 163.006 33.4506 162.454 33.6906L164.338 36.3906H162.25ZM162.214 31.0386C162.214 30.5666 162.062 30.2066 161.758 29.9586C161.454 29.7026 161.01 29.5746 160.426 29.5746H158.842V32.5026H160.426C161.01 32.5026 161.454 32.3746 161.758 32.1186C162.062 31.8626 162.214 31.5026 162.214 31.0386ZM171.255 34.5906H167.355L166.611 36.3906H164.619L168.363 27.9906H170.283L174.039 36.3906H171.999L171.255 34.5906ZM170.643 33.1146L169.311 29.8986L167.979 33.1146H170.643ZM182.614 27.9906V36.3906H181.018L176.83 31.2906V36.3906H174.91V27.9906H176.518L180.694 33.0906V27.9906H182.614ZM184.601 27.9906H188.417C189.329 27.9906 190.133 28.1666 190.829 28.5186C191.533 28.8626 192.077 29.3506 192.461 29.9826C192.853 30.6146 193.049 31.3506 193.049 32.1906C193.049 33.0306 192.853 33.7666 192.461 34.3986C192.077 35.0306 191.533 35.5226 190.829 35.8746C190.133 36.2186 189.329 36.3906 188.417 36.3906H184.601V27.9906ZM188.321 34.7946C189.161 34.7946 189.829 34.5626 190.325 34.0986C190.829 33.6266 191.081 32.9906 191.081 32.1906C191.081 31.3906 190.829 30.7586 190.325 30.2946C189.829 29.8226 189.161 29.5866 188.321 29.5866H186.545V34.7946H188.321Z" fill="#740B99"/>
</svg>
