<svg width="555" height="349" viewBox="0 0 555 349" fill="none" xmlns="http://www.w3.org/2000/svg">
<rect width="555" height="349" rx="30" fill="white"/>
<path d="M280 25.2617H25.4373C23.4181 25.2617 21.7812 26.8986 21.7812 28.9177C21.7812 30.9369 23.4181 32.5737 25.4373 32.5737H280C282.019 32.5737 283.656 30.9369 283.656 28.9177C283.656 26.8986 282.019 25.2617 280 25.2617Z" fill="#D7D7D7" fill-opacity="0.47"/>
<path d="M280 51.0293H25.4373C23.4181 51.0293 21.7812 52.6661 21.7812 54.6853C21.7812 56.7045 23.4181 58.3413 25.4373 58.3413H280C282.019 58.3413 283.656 56.7045 283.656 54.6853C283.656 52.6661 282.019 51.0293 280 51.0293Z" fill="#D7D7D7" fill-opacity="0.47"/>
<path d="M280 76.7949H25.4373C23.4181 76.7949 21.7812 78.4318 21.7812 80.4509C21.7812 82.4701 23.4181 84.1069 25.4373 84.1069H280C282.019 84.1069 283.656 82.4701 283.656 80.4509C283.656 78.4318 282.019 76.7949 280 76.7949Z" fill="#D7D7D7" fill-opacity="0.47"/>
<path d="M378.657 102.559H25.4373C23.4181 102.559 21.7812 104.195 21.7812 106.215C21.7812 108.234 23.4181 109.871 25.4373 109.871H378.657C380.676 109.871 382.313 108.234 382.313 106.215C382.313 104.195 380.676 102.559 378.657 102.559Z" fill="#D7D7D7" fill-opacity="0.47"/>
<path d="M377.623 25.2695H301.098C298.892 25.2695 297.104 26.9079 297.104 28.9289V79.9854C297.104 82.0064 298.892 83.6447 301.098 83.6447H377.623C379.829 83.6447 381.617 82.0064 381.617 79.9854V28.9289C381.617 26.9079 379.829 25.2695 377.623 25.2695Z" fill="#D7D7D7" fill-opacity="0.47"/>
<rect x="400.352" y="25.2695" width="133.305" height="297.975" rx="15" fill="#740B99"/>
<path d="M280 131.809H25.4373C23.4181 131.809 21.7812 133.445 21.7812 135.465C21.7812 137.484 23.4181 139.121 25.4373 139.121H280C282.019 139.121 283.656 137.484 283.656 135.465C283.656 133.445 282.019 131.809 280 131.809Z" fill="#D7D7D7" fill-opacity="0.47"/>
<path d="M280 157.574H25.4373C23.4181 157.574 21.7812 159.211 21.7812 161.23C21.7812 163.249 23.4181 164.886 25.4373 164.886H280C282.019 164.886 283.656 163.249 283.656 161.23C283.656 159.211 282.019 157.574 280 157.574Z" fill="#D7D7D7" fill-opacity="0.47"/>
<path d="M280 183.34H25.4373C23.4181 183.34 21.7812 184.977 21.7812 186.996C21.7812 189.015 23.4181 190.652 25.4373 190.652H280C282.019 190.652 283.656 189.015 283.656 186.996C283.656 184.977 282.019 183.34 280 183.34Z" fill="#D7D7D7" fill-opacity="0.47"/>
<path d="M378.657 209.107H25.4373C23.4181 209.107 21.7812 210.744 21.7812 212.763C21.7812 214.783 23.4181 216.419 25.4373 216.419H378.657C380.676 216.419 382.313 214.783 382.313 212.763C382.313 210.744 380.676 209.107 378.657 209.107Z" fill="#D7D7D7" fill-opacity="0.47"/>
<path d="M377.623 132.436H301.098C298.892 132.436 297.104 134.074 297.104 136.095V187.151C297.104 189.172 298.892 190.811 301.098 190.811H377.623C379.829 190.811 381.617 189.172 381.617 187.151V136.095C381.617 134.074 379.829 132.436 377.623 132.436Z" fill="#D7D7D7" fill-opacity="0.47"/>
<path d="M280 238.35H25.4373C23.4181 238.35 21.7812 239.986 21.7812 242.006C21.7812 244.025 23.4181 245.662 25.4373 245.662H280C282.019 245.662 283.656 244.025 283.656 242.006C283.656 239.986 282.019 238.35 280 238.35Z" fill="#D7D7D7" fill-opacity="0.47"/>
<path d="M280 264.115H25.4373C23.4181 264.115 21.7812 265.752 21.7812 267.771C21.7812 269.79 23.4181 271.427 25.4373 271.427H280C282.019 271.427 283.656 269.79 283.656 267.771C283.656 265.752 282.019 264.115 280 264.115Z" fill="#D7D7D7" fill-opacity="0.47"/>
<path d="M280 289.879H25.4373C23.4181 289.879 21.7812 291.516 21.7812 293.535C21.7812 295.554 23.4181 297.191 25.4373 297.191H280C282.019 297.191 283.656 295.554 283.656 293.535C283.656 291.516 282.019 289.879 280 289.879Z" fill="#D7D7D7" fill-opacity="0.47"/>
<path d="M378.657 315.646H25.4373C23.4181 315.646 21.7812 317.283 21.7812 319.302C21.7812 321.322 23.4181 322.959 25.4373 322.959H378.657C380.676 322.959 382.313 321.322 382.313 319.302C382.313 317.283 380.676 315.646 378.657 315.646Z" fill="#D7D7D7" fill-opacity="0.47"/>
<path d="M377.623 238.73H301.098C298.892 238.73 297.104 240.369 297.104 242.39V293.446C297.104 295.467 298.892 297.106 301.098 297.106H377.623C379.829 297.106 381.617 295.467 381.617 293.446V242.39C381.617 240.369 379.829 238.73 377.623 238.73Z" fill="#D7D7D7" fill-opacity="0.47"/>
<path d="M452.417 66.2711C452.423 66.559 452.365 66.8447 452.249 67.1082C452.136 67.339 451.969 67.5389 451.761 67.6906C451.54 67.8412 451.293 67.952 451.033 68.0182C450.711 68.0937 450.381 68.1303 450.051 68.1273H449.621C449.454 68.1273 449.279 68.1273 449.097 68.1273L448.536 68.0692C448.362 68.0509 448.189 68.0191 448.02 67.9745C447.845 67.9308 447.75 67.8436 447.75 67.7198V67.2684C447.749 67.2417 447.754 67.215 447.765 67.1909C447.777 67.1667 447.794 67.1458 447.816 67.1301C447.864 67.0939 447.923 67.0758 447.983 67.0791H448.034L448.544 67.1301L449.097 67.1738H449.628H450.051C450.378 67.1941 450.705 67.1262 450.997 66.9772C451.115 66.9 451.209 66.7901 451.265 66.6609C451.322 66.5316 451.34 66.3886 451.317 66.2492C451.32 66.0568 451.247 65.871 451.114 65.7324C450.895 65.5207 450.65 65.3372 450.386 65.1864L449.09 64.4147C448.732 64.2048 448.412 63.9365 448.143 63.6211C447.9 63.3298 447.77 62.9598 447.779 62.5801C447.771 62.2927 447.833 62.0076 447.961 61.7501C448.078 61.5375 448.245 61.3574 448.449 61.226C448.672 61.0875 448.919 60.9937 449.177 60.9494C449.482 60.8956 449.792 60.8687 450.102 60.8693C450.452 60.8674 450.802 60.8844 451.15 60.9203C451.485 60.9203 451.805 60.9857 452.104 61.0367C452.271 61.0367 452.351 61.1533 452.351 61.2989V61.7212C452.355 61.7507 452.351 61.7805 452.342 61.8086C452.332 61.8367 452.316 61.8622 452.295 61.8832C452.274 61.9043 452.248 61.9203 452.22 61.93C452.192 61.9397 452.162 61.9429 452.133 61.9394H452.024L451.128 61.874C450.757 61.874 450.4 61.874 450.029 61.874C449.735 61.8619 449.441 61.9038 449.163 61.9977C448.944 62.0851 448.835 62.289 448.835 62.6166C448.834 62.711 448.853 62.8044 448.89 62.891C448.928 62.9776 448.984 63.0552 449.053 63.1188C449.257 63.3027 449.482 63.4615 449.723 63.592L450.997 64.32C451.425 64.5465 451.8 64.8617 452.096 65.2445C452.308 65.5445 452.42 65.9038 452.417 66.2711V66.2711Z" fill="white"/>
<path d="M462.348 67.9629C462.326 67.9872 462.299 68.0069 462.269 68.0206C462.239 68.0344 462.206 68.042 462.173 68.043H461.554C461.486 68.0413 461.42 68.0124 461.372 67.9629C461.349 67.9402 461.331 67.9131 461.318 67.8831C461.306 67.853 461.299 67.8207 461.3 67.7881V63.2455C461.305 63.0191 461.276 62.7932 461.212 62.5758C461.16 62.4193 461.076 62.2754 460.965 62.1535C460.861 62.0506 460.734 61.9754 460.593 61.9351C460.442 61.8904 460.285 61.8684 460.128 61.8697C459.882 61.8744 459.637 61.9085 459.4 61.9715C459.138 62.0443 458.883 62.1244 458.672 62.2191C458.756 62.5446 458.795 62.8801 458.788 63.2163V67.7881C458.788 67.8524 458.765 67.9146 458.723 67.9629C458.703 67.9885 458.678 68.0092 458.648 68.0231C458.619 68.037 458.587 68.0439 458.555 68.043H457.849C457.818 68.0433 457.787 68.0361 457.759 68.0222C457.731 68.0083 457.707 67.9879 457.689 67.9629C457.651 67.9122 457.631 67.8511 457.631 67.7881V63.2163C457.634 62.9869 457.614 62.7577 457.572 62.5321C457.546 62.3833 457.483 62.2433 457.39 62.1243C457.306 62.0263 457.195 61.9555 457.07 61.9207C456.929 61.8867 456.785 61.8696 456.641 61.8697C456.391 61.8786 456.145 61.9303 455.913 62.0225C455.634 62.1217 455.361 62.2384 455.097 62.3719V67.7881C455.097 67.8511 455.076 67.9122 455.039 67.9629C455.019 67.9877 454.993 68.0078 454.964 68.0217C454.935 68.0355 454.904 68.0428 454.871 68.043H454.187C454.156 68.0427 454.126 68.0354 454.098 68.0215C454.07 68.0076 454.046 67.9875 454.027 67.9629C453.99 67.9122 453.969 67.8511 453.969 67.7881V61.2362C453.971 61.1688 453.996 61.1043 454.042 61.0542C454.063 61.0298 454.09 61.0105 454.121 60.9979C454.151 60.9853 454.184 60.9798 454.216 60.9815H454.857C454.889 60.9812 454.922 60.9875 454.952 61C454.982 61.0125 455.009 61.0309 455.032 61.0542C455.075 61.105 455.098 61.1696 455.097 61.2362V61.4765C455.371 61.3113 455.658 61.17 455.956 61.0542C456.283 60.9356 456.628 60.8765 456.975 60.8795C457.223 60.8734 457.47 60.913 457.703 60.9961C457.92 61.0849 458.113 61.2246 458.264 61.4036C458.61 61.2332 458.974 61.1015 459.349 61.0107C459.689 60.9263 460.039 60.8822 460.39 60.8795C460.665 60.8771 460.94 60.914 461.205 60.9888C461.454 61.0661 461.681 61.2008 461.867 61.382C462.068 61.5885 462.22 61.8372 462.312 62.11C462.429 62.4717 462.483 62.8508 462.472 63.2309V67.7736C462.468 67.8127 462.454 67.8503 462.433 67.8832C462.411 67.9161 462.382 67.9434 462.348 67.9629V67.9629Z" fill="white"/>
<path d="M469.087 67.7851C469.086 67.8181 469.079 67.8506 469.065 67.8806C469.051 67.9106 469.032 67.9375 469.007 67.9598C468.984 67.985 468.956 68.0052 468.925 68.019C468.894 68.0328 468.86 68.0399 468.825 68.04H468.236C468.203 68.039 468.17 68.0313 468.14 68.0176C468.11 68.0038 468.083 67.9842 468.061 67.9598C468.035 67.9387 468.015 67.9121 468.001 67.8818C467.987 67.8515 467.98 67.8184 467.981 67.7851V67.5013C467.679 67.678 467.362 67.8289 467.035 67.9525C466.705 68.0693 466.358 68.1284 466.008 68.1273C465.741 68.1294 465.474 68.0977 465.215 68.0327C464.97 67.9724 464.743 67.8551 464.552 67.6906C464.347 67.5182 464.187 67.2981 464.086 67.0498C463.96 66.733 463.9 66.3935 463.911 66.0526V65.8997C463.908 65.5891 463.962 65.2805 464.072 64.9897C464.184 64.7281 464.369 64.5034 464.603 64.3417C464.889 64.1444 465.215 64.0104 465.557 63.9486C466.036 63.8526 466.524 63.8087 467.013 63.8176H467.959V63.308C468.001 62.907 467.892 62.5047 467.653 62.1796C467.355 61.9367 466.973 61.8216 466.591 61.8593C466.168 61.8593 465.804 61.8593 465.484 61.8593C465.164 61.8593 464.88 61.9029 464.625 61.932H464.559C464.503 61.9322 464.448 61.9172 464.399 61.8885C464.356 61.8885 464.334 61.8084 464.334 61.7211V61.2915C464.334 61.1532 464.421 61.073 464.603 61.0439C464.785 61.0148 465.156 60.9639 465.469 60.9275C465.782 60.8911 466.154 60.8765 466.591 60.8765C466.937 60.8432 467.287 60.8839 467.617 60.9956C467.947 61.1072 468.25 61.2875 468.505 61.5245C468.923 62.0159 469.134 62.6498 469.095 63.2935L469.087 67.7851ZM467.952 64.6258H467.005C466.684 64.6196 466.362 64.6439 466.045 64.6984C465.83 64.7267 465.624 64.8013 465.44 64.9169C465.297 65.0061 465.189 65.1425 465.135 65.3027C465.068 65.4896 465.036 65.6869 465.04 65.8852V66.038C465.019 66.2068 465.037 66.378 465.091 66.5392C465.145 66.7004 465.235 66.8476 465.353 66.9699C465.61 67.1427 465.918 67.2247 466.227 67.2029C466.518 67.2062 466.807 67.1644 467.085 67.079C467.386 66.9774 467.676 66.8482 467.952 66.6931V64.6258Z" fill="white"/>
<path d="M473.73 61.8822C473.436 61.883 473.145 61.9246 472.863 62.0059C472.546 62.105 472.242 62.2445 471.96 62.4209V67.7861C471.961 67.8186 471.955 67.851 471.942 67.881C471.929 67.911 471.911 67.9381 471.888 67.9608C471.84 68.0104 471.775 68.0392 471.706 68.041H471.08C471.046 68.0418 471.013 68.0351 470.983 68.0212C470.953 68.0074 470.926 67.9866 470.905 67.9608C470.882 67.9381 470.863 67.911 470.851 67.881C470.838 67.851 470.832 67.8186 470.832 67.7861V61.2342C470.832 61.2005 470.838 61.1671 470.85 61.1359C470.863 61.1047 470.881 61.0762 470.905 61.0522C470.927 61.0277 470.954 61.0085 470.984 60.9958C471.014 60.9832 471.047 60.9777 471.08 60.9795H471.677C471.709 60.9777 471.742 60.9832 471.772 60.9958C471.802 61.0085 471.829 61.0277 471.851 61.0522C471.899 61.1034 471.925 61.1713 471.924 61.2415V61.5109C472.209 61.3056 472.523 61.1436 472.856 61.0303C473.138 60.936 473.432 60.8869 473.73 60.8848C473.912 60.8848 473.999 60.9649 473.999 61.1251V61.6565C473.999 61.8094 473.912 61.8822 473.73 61.8822Z" fill="white"/>
<path d="M478.737 68.0696L478.315 68.1133H477.9C477.642 68.117 477.383 68.095 477.129 68.0477C476.928 68.0077 476.742 67.9146 476.59 67.7783C476.434 67.6377 476.32 67.4561 476.262 67.2541C476.182 66.9752 476.145 66.6854 476.153 66.3951V61.9181L474.915 61.7796C474.748 61.7796 474.668 61.6851 474.668 61.5468V61.1974C474.668 61.0445 474.748 60.9717 474.915 60.9717H476.153V59.7122C476.151 59.6801 476.156 59.6479 476.166 59.6175C476.177 59.5871 476.194 59.5592 476.216 59.5354C476.237 59.5116 476.264 59.4925 476.293 59.4791C476.322 59.4657 476.354 59.4583 476.386 59.4574L477.056 59.3555C477.082 59.3548 477.107 59.3597 477.131 59.3698C477.155 59.3798 477.176 59.3947 477.194 59.4137C477.214 59.4348 477.23 59.46 477.24 59.4876C477.25 59.5152 477.254 59.5445 477.252 59.5738V60.9717H478.636C478.669 60.9706 478.703 60.9764 478.734 60.9889C478.766 61.0013 478.794 61.0201 478.818 61.044C478.842 61.0679 478.861 61.0963 478.873 61.1277C478.885 61.1591 478.891 61.1926 478.89 61.2263V61.6632C478.891 61.6969 478.885 61.7305 478.873 61.7618C478.861 61.7932 478.842 61.8217 478.818 61.8456C478.794 61.8694 478.766 61.8882 478.734 61.9007C478.703 61.9131 478.669 61.9191 478.636 61.9181H477.252V66.3879C477.22 66.62 477.275 66.8557 477.405 67.0503C477.562 67.1605 477.754 67.2098 477.944 67.1887H478.672C478.854 67.1887 478.941 67.2542 478.941 67.3707V67.8293C478.963 67.9676 478.89 68.0404 478.737 68.0696Z" fill="white"/>
<path d="M485.638 61.2068C485.644 61.2356 485.644 61.2654 485.638 61.2942L483.52 68.6833C483.435 68.9878 483.326 69.285 483.192 69.5716C483.088 69.7935 482.939 69.9915 482.755 70.1538C482.563 70.3041 482.343 70.4155 482.108 70.4816C481.802 70.5539 481.489 70.5881 481.176 70.5834C480.984 70.5815 480.792 70.5693 480.601 70.547C480.431 70.5362 480.263 70.5095 480.098 70.467C480.03 70.4564 479.963 70.4341 479.902 70.4014C479.877 70.3884 479.857 70.3682 479.844 70.3435C479.831 70.3188 479.826 70.2908 479.829 70.2631V69.7898C479.829 69.6515 479.909 69.5787 480.069 69.5787C480.215 69.5787 480.411 69.5787 480.644 69.6297C480.877 69.6807 481.067 69.6297 481.212 69.6297C481.373 69.6316 481.534 69.617 481.693 69.586C481.82 69.5573 481.94 69.5 482.042 69.4185C482.149 69.3254 482.236 69.2115 482.297 69.0837C482.383 68.9106 482.447 68.7271 482.486 68.5377L482.61 68.0136H482.435C482.343 68.0247 482.25 68.0247 482.159 68.0136C482.066 67.9974 481.979 67.9601 481.904 67.9044C481.81 67.8316 481.733 67.7397 481.678 67.635C481.597 67.4818 481.531 67.3209 481.481 67.1546L479.778 61.2942C479.772 61.2654 479.772 61.2356 479.778 61.2068C479.778 61.0612 479.858 60.9885 480.011 60.9885H480.739C480.764 60.9888 480.789 60.9948 480.812 61.0061C480.835 61.0175 480.855 61.0338 480.87 61.0539C480.91 61.0923 480.94 61.1399 480.957 61.1924L482.472 66.7687C482.482 66.8598 482.523 66.9446 482.588 67.009C482.623 67.0373 482.667 67.0526 482.712 67.0526H482.916L484.481 61.1778C484.501 61.1271 484.534 61.0819 484.575 61.0466C484.596 61.0269 484.62 61.0115 484.646 61.0015C484.672 60.9915 484.7 60.9872 484.728 60.9885H485.456C485.566 60.9885 485.638 61.0612 485.638 61.2068Z" fill="white"/>
<path d="M491.92 67.7889C491.92 67.8214 491.914 67.8538 491.902 67.8838C491.889 67.9138 491.871 67.9409 491.847 67.9636C491.799 68.0132 491.734 68.042 491.665 68.0438H491.076C491.007 68.042 490.941 68.0132 490.894 67.9636C490.87 67.9409 490.852 67.9138 490.839 67.8838C490.827 67.8538 490.821 67.8214 490.821 67.7889V67.5051C490.516 67.6819 490.197 67.8328 489.867 67.9563C489.538 68.0744 489.19 68.1335 488.841 68.131C488.576 68.1327 488.311 68.101 488.054 68.0365C487.808 67.9762 487.578 67.859 487.385 67.6943C487.184 67.5196 487.027 67.3001 486.926 67.0536C486.8 66.7368 486.74 66.3973 486.751 66.0564V65.9035C486.744 65.5926 486.799 65.2833 486.912 64.9935C487.024 64.7338 487.205 64.5096 487.436 64.3455C487.725 64.1495 488.053 64.0157 488.397 63.9524C488.876 63.8564 489.364 63.8125 489.853 63.8214H490.799V63.3118C490.841 62.9108 490.732 62.5085 490.493 62.1834C490.195 61.9405 489.813 61.8254 489.43 61.8631C489.008 61.8631 488.644 61.8631 488.324 61.8631C488.003 61.8631 487.72 61.9067 487.465 61.9358H487.399C487.343 61.9359 487.288 61.921 487.239 61.8923C487.213 61.8738 487.192 61.8482 487.179 61.8187C487.166 61.7892 487.162 61.7568 487.166 61.7249V61.2953C487.166 61.157 487.261 61.0768 487.436 61.0477C487.61 61.0186 487.996 60.9677 488.302 60.9313C488.608 60.8949 489.03 60.8803 489.43 60.8803C489.763 60.8297 490.103 60.8567 490.423 60.959C490.743 61.0613 491.036 61.2362 491.278 61.4702C491.519 61.7041 491.704 61.9907 491.816 62.3076C491.929 62.6246 491.967 62.9632 491.927 63.2973L491.92 67.7889ZM490.792 64.6295H489.882C489.56 64.6234 489.238 64.6477 488.921 64.7022C488.706 64.7291 488.499 64.8038 488.317 64.9207C488.175 65.0136 488.065 65.1485 488.004 65.3065C487.94 65.4939 487.91 65.6912 487.916 65.8889V66.0418C487.895 66.2101 487.911 66.3809 487.964 66.5421C488.017 66.7033 488.105 66.8507 488.222 66.9736C488.48 67.1449 488.787 67.2268 489.096 67.2067C489.387 67.2105 489.676 67.1686 489.954 67.0828C490.257 66.9827 490.55 66.8534 490.828 66.6969L490.792 64.6295Z" fill="white"/>
<path d="M498.867 67.6186C498.874 67.6881 498.856 67.7577 498.817 67.8152C498.817 67.8662 498.715 67.8954 498.598 67.9099C498.206 67.9892 497.81 68.0451 497.411 68.0774C497.018 68.0774 496.625 68.1282 496.232 68.1282C495.806 68.1383 495.383 68.0616 494.987 67.9026C494.65 67.7669 494.353 67.5491 494.121 67.2692C493.877 66.9793 493.7 66.6387 493.604 66.272C493.489 65.8448 493.433 65.4039 493.437 64.9615V64.037C493.384 63.2031 493.629 62.3777 494.128 61.7074C494.396 61.4238 494.724 61.2035 495.088 61.0624C495.452 60.9214 495.843 60.8632 496.232 60.892C496.429 60.892 496.669 60.892 496.96 60.9284C497.251 60.9648 497.499 60.9793 497.754 61.023V58.6353C497.752 58.6032 497.756 58.5709 497.768 58.5408C497.779 58.5107 497.796 58.4834 497.819 58.4606C497.842 58.4379 497.869 58.4202 497.899 58.4089C497.93 58.3976 497.962 58.3929 497.994 58.395H498.649C498.68 58.3943 498.711 58.3998 498.739 58.411C498.768 58.4223 498.794 58.4392 498.817 58.4606C498.859 58.5088 498.882 58.571 498.882 58.6353L498.867 67.6186ZM497.739 61.9694C497.498 61.9285 497.255 61.9043 497.011 61.8967H496.283C496.012 61.8911 495.743 61.938 495.49 62.035C495.282 62.1231 495.105 62.2699 494.98 62.4573C494.839 62.6599 494.745 62.891 494.703 63.1343C494.642 63.4361 494.613 63.7436 494.616 64.0515V64.9324C494.584 65.4945 494.71 66.0542 494.98 66.5485C495.127 66.7505 495.325 66.9096 495.554 67.0094C495.783 67.1092 496.035 67.1461 496.283 67.1164C496.509 67.1164 496.756 67.1164 497.011 67.1164L497.739 67.0653V61.9694Z" fill="white"/>
<path d="M505.077 66.2711C505.084 66.5599 505.024 66.8464 504.902 67.1082C504.791 67.3404 504.623 67.5409 504.414 67.6906C504.192 67.8412 503.946 67.952 503.686 68.0182C503.364 68.0937 503.034 68.1303 502.703 68.1273H502.259C502.092 68.1273 501.917 68.1273 501.735 68.1273L501.175 68.0692C501.002 68.0516 500.832 68.0198 500.665 67.9745C500.483 67.9308 500.396 67.8435 500.396 67.7198V67.2683C500.393 67.2422 500.396 67.2158 500.407 67.1915C500.417 67.1673 500.433 67.1462 500.454 67.1301C500.502 67.0938 500.561 67.0757 500.621 67.079H500.672L501.182 67.1301L501.742 67.1738H502.267H502.689C503.016 67.1948 503.343 67.1268 503.635 66.9772C503.753 66.9 503.847 66.7901 503.904 66.6608C503.96 66.5316 503.978 66.3885 503.955 66.2492C503.958 66.0567 503.885 65.8709 503.752 65.7324C503.533 65.5206 503.288 65.3372 503.024 65.1864L501.728 64.4147C501.37 64.2047 501.05 63.9365 500.781 63.6211C500.54 63.329 500.413 62.959 500.425 62.5801C500.414 62.2933 500.474 62.0083 500.599 61.7501C500.716 61.5375 500.883 61.3574 501.087 61.226C501.309 61.0872 501.557 60.9933 501.815 60.9494C502.12 60.8949 502.43 60.8681 502.74 60.8693C503.087 60.8675 503.435 60.8846 503.781 60.9203C504.123 60.9203 504.436 60.9857 504.734 61.0367C504.902 61.0367 504.982 61.1532 504.982 61.2988V61.7211C504.985 61.7507 504.982 61.7805 504.972 61.8086C504.963 61.8367 504.947 61.8622 504.926 61.8832C504.905 61.9042 504.879 61.9202 504.851 61.93C504.823 61.9397 504.793 61.9429 504.763 61.9394H504.727L503.832 61.874C503.46 61.874 503.104 61.874 502.74 61.874C502.446 61.8612 502.152 61.9031 501.873 61.9977C501.655 62.085 501.546 62.2889 501.546 62.6165C501.545 62.7109 501.564 62.8044 501.601 62.891C501.639 62.9775 501.694 63.0552 501.764 63.1188C501.965 63.3029 502.187 63.4617 502.427 63.5919L503.701 64.3199C504.13 64.5444 504.505 64.8599 504.8 65.2445C504.996 65.5498 505.093 65.9085 505.077 66.2711V66.2711Z" fill="white"/>
<path d="M434.129 70.5336C434.05 70.5336 433.974 70.5081 433.911 70.4609C433.848 70.4136 433.802 70.3472 433.78 70.2716C433.766 70.2262 433.762 70.1786 433.768 70.1316C433.773 70.0845 433.787 70.039 433.81 69.9977C433.833 69.9564 433.865 69.9199 433.902 69.8907C433.939 69.8615 433.982 69.84 434.027 69.8275L436.007 69.3033H434.122C434.025 69.3033 433.933 69.2649 433.864 69.1967C433.796 69.1284 433.758 69.0359 433.758 68.9393C433.758 68.8428 433.796 68.7502 433.864 68.682C433.933 68.6137 434.025 68.5753 434.122 68.5753H438.606C438.654 68.5691 438.703 68.5724 438.749 68.5849C438.796 68.5975 438.839 68.6191 438.877 68.6486C438.916 68.678 438.948 68.7145 438.972 68.7563C438.996 68.798 439.011 68.8442 439.018 68.892C439.024 68.9398 439.021 68.9884 439.008 69.0349C438.995 69.0815 438.974 69.1251 438.944 69.1633C438.915 69.2015 438.878 69.2334 438.837 69.2575C438.795 69.2815 438.749 69.2971 438.701 69.3033L434.216 70.57L434.129 70.5336Z" fill="white"/>
<path d="M434.132 72.2144C434.053 72.2156 433.975 72.1905 433.912 72.1431C433.849 72.0957 433.803 72.0284 433.782 71.9522C433.757 71.8605 433.769 71.7629 433.816 71.6799C433.862 71.597 433.939 71.5353 434.03 71.5082L438.514 70.2415C438.611 70.2155 438.714 70.2289 438.8 70.2787C438.887 70.3285 438.95 70.4107 438.976 70.5073C439.002 70.6038 438.989 70.7067 438.939 70.7934C438.889 70.8801 438.807 70.9435 438.711 70.9695L434.226 72.2362L434.132 72.2144Z" fill="white"/>
<path d="M436.352 72.999C436.273 72.999 436.197 72.9734 436.134 72.9261C436.071 72.8789 436.025 72.8125 436.003 72.737C435.989 72.6916 435.985 72.644 435.991 72.597C435.996 72.55 436.01 72.5045 436.033 72.4632C436.056 72.4219 436.087 72.3857 436.125 72.3564C436.162 72.3272 436.204 72.3058 436.25 72.2932L436.563 72.4314C436.759 72.3805 437.291 72.1694 437.327 72.3586C437.34 72.404 437.344 72.4516 437.339 72.4986C437.334 72.5456 437.319 72.591 437.296 72.6323C437.273 72.6736 437.242 72.7099 437.205 72.7391C437.168 72.7683 437.125 72.7899 437.08 72.8025L436.446 72.9844L436.352 72.999Z" fill="white"/>
<path d="M438.008 67.7206H434.761C434.496 67.7206 434.241 67.6158 434.053 67.4289C433.865 67.2421 433.758 66.9883 433.756 66.7232V65.704C432.863 65.1353 432.179 64.2923 431.806 63.3015C431.433 62.3106 431.391 61.2255 431.688 60.2091C431.984 59.1927 432.602 58.2996 433.449 57.6643C434.295 57.029 435.326 56.6855 436.384 56.6855C437.443 56.6855 438.473 57.029 439.32 57.6643C440.167 58.2996 440.785 59.1927 441.081 60.2091C441.377 61.2255 441.336 62.3106 440.963 63.3015C440.59 64.2923 439.905 65.1353 439.012 65.704V66.7596C439.001 67.0184 438.89 67.2628 438.703 67.4419C438.516 67.621 438.267 67.7208 438.008 67.7206V67.7206ZM436.362 57.4048C435.443 57.4035 434.549 57.7063 433.82 58.2661C433.091 58.826 432.568 59.6114 432.332 60.4999C432.096 61.3883 432.16 62.3299 432.515 63.1777C432.871 64.0256 433.496 64.7321 434.295 65.1872C434.351 65.2178 434.398 65.263 434.43 65.3182C434.462 65.3734 434.478 65.4364 434.477 65.5002V66.7232C434.477 66.7601 434.484 66.7966 434.499 66.8307C434.513 66.8647 434.534 66.8955 434.561 66.9213C434.587 66.9471 434.618 66.9674 434.653 66.9809C434.687 66.9943 434.724 67.0009 434.761 66.9999H438.008C438.045 67.0009 438.081 66.9943 438.116 66.9809C438.15 66.9674 438.182 66.9471 438.208 66.9213C438.235 66.8955 438.256 66.8647 438.27 66.8307C438.284 66.7966 438.292 66.7601 438.292 66.7232V65.471C438.291 65.4082 438.307 65.3464 438.338 65.2915C438.368 65.2367 438.413 65.1907 438.466 65.158C439.253 64.695 439.866 63.9862 440.211 63.1406C440.556 62.2951 440.613 61.3597 440.373 60.4785C440.134 59.5973 439.612 58.819 438.887 58.2636C438.163 57.7083 437.276 57.4065 436.362 57.4048V57.4048Z" fill="white"/>
<path d="M440.46 57.0038C440.395 57.0037 440.332 56.9837 440.278 56.9466C440.225 56.9096 440.184 56.8573 440.161 56.7965C440.138 56.7357 440.134 56.6693 440.15 56.6063C440.166 56.5432 440.2 56.4865 440.249 56.4436L441.522 55.3303C441.587 55.2753 441.671 55.2481 441.755 55.2549C441.84 55.2618 441.919 55.3021 441.974 55.3667C442.003 55.3958 442.026 55.4302 442.042 55.4683C442.058 55.5064 442.066 55.5473 442.066 55.5886C442.066 55.6298 442.058 55.6706 442.042 55.7086C442.026 55.7467 442.003 55.7814 441.974 55.8104L440.7 56.9237C440.668 56.9534 440.63 56.976 440.589 56.9898C440.547 57.0036 440.503 57.0084 440.46 57.0038V57.0038Z" fill="white"/>
<path d="M436.328 55.6514C436.243 55.6514 436.161 55.6176 436.101 55.5575C436.041 55.4975 436.008 55.416 436.008 55.3311V52.8704C436.001 52.8248 436.004 52.7782 436.016 52.7339C436.029 52.6895 436.051 52.6486 436.081 52.6136C436.111 52.5786 436.149 52.5504 436.191 52.5311C436.232 52.5119 436.278 52.502 436.324 52.502C436.37 52.502 436.416 52.5119 436.458 52.5311C436.5 52.5504 436.537 52.5786 436.567 52.6136C436.597 52.6486 436.619 52.6895 436.632 52.7339C436.645 52.7782 436.648 52.8248 436.641 52.8704V55.3311C436.641 55.4148 436.608 55.4952 436.55 55.555C436.491 55.6149 436.412 55.6495 436.328 55.6514V55.6514Z" fill="white"/>
<path d="M442.682 60.7778C442.604 60.7756 442.529 60.7446 442.472 60.691C442.415 60.6374 442.38 60.5648 442.372 60.4868C442.365 60.4088 442.387 60.331 442.433 60.2679C442.48 60.2047 442.548 60.1608 442.624 60.1443L444.859 59.7149C444.942 59.7019 445.026 59.721 445.095 59.7684C445.164 59.8158 445.213 59.8877 445.23 59.9696C445.245 60.0526 445.227 60.1381 445.179 60.2076C445.131 60.2771 445.058 60.325 444.976 60.3409L442.741 60.7705L442.682 60.7778Z" fill="white"/>
<path d="M432.187 57.0038C432.109 57.0051 432.033 56.9764 431.976 56.9237L430.71 55.8104C430.678 55.7838 430.652 55.7513 430.633 55.7145C430.614 55.6777 430.602 55.6375 430.599 55.5962C430.595 55.5549 430.6 55.5132 430.613 55.4738C430.626 55.4344 430.646 55.3981 430.673 55.3667C430.728 55.3021 430.807 55.2618 430.891 55.2549C430.976 55.2481 431.06 55.2753 431.124 55.3303L432.398 56.4436C432.457 56.5035 432.491 56.5845 432.491 56.669C432.491 56.7535 432.457 56.8346 432.398 56.8946C432.344 56.9573 432.269 56.9966 432.187 57.0038Z" fill="white"/>
<path d="M443.016 65.5796C442.956 65.5807 442.898 65.563 442.849 65.5288L441.888 64.9321C441.819 64.8859 441.77 64.8151 441.751 64.734C441.732 64.6529 441.745 64.5675 441.786 64.4954C441.809 64.4594 441.838 64.4282 441.872 64.4036C441.907 64.3789 441.946 64.3614 441.987 64.3519C442.028 64.3424 442.071 64.3412 442.113 64.3483C442.154 64.3555 442.194 64.3709 442.23 64.3936L443.183 64.9904C443.254 65.0353 443.304 65.1061 443.323 65.1877C443.342 65.2693 443.329 65.3552 443.285 65.4268C443.256 65.4721 443.216 65.5096 443.169 65.5363C443.122 65.5629 443.07 65.5777 443.016 65.5796Z" fill="white"/>
<path d="M429.649 65.4222C429.593 65.4228 429.539 65.4092 429.49 65.3824C429.442 65.3556 429.401 65.3166 429.372 65.2694C429.33 65.1973 429.318 65.1121 429.337 65.031C429.356 64.9499 429.405 64.8791 429.474 64.8329L430.435 64.2362C430.505 64.2051 430.585 64.2005 430.658 64.2233C430.732 64.246 430.795 64.2945 430.836 64.36C430.876 64.4256 430.892 64.5036 430.88 64.5798C430.868 64.656 430.828 64.7252 430.769 64.7747L429.816 65.3714C429.766 65.4039 429.708 65.4215 429.649 65.4222V65.4222Z" fill="white"/>
<path d="M429.967 60.7763H429.909L427.674 60.3468C427.591 60.3309 427.518 60.283 427.47 60.2135C427.423 60.144 427.404 60.0584 427.419 59.9755C427.437 59.8936 427.485 59.8217 427.554 59.7743C427.623 59.7269 427.708 59.7078 427.79 59.7208L430.025 60.1502C430.102 60.1666 430.17 60.2106 430.216 60.2737C430.263 60.3368 430.284 60.4147 430.277 60.4927C430.27 60.5707 430.234 60.6433 430.177 60.6969C430.12 60.7505 430.045 60.7814 429.967 60.7836V60.7763Z" fill="white"/>
</svg>
