<svg width="555" height="349" viewBox="0 0 555 349" fill="none" xmlns="http://www.w3.org/2000/svg">
<rect width="555" height="349" rx="30" fill="white"/>
<rect x="393" y="25" width="139" height="298" rx="5" fill="#ECECEC"/>
<path d="M280 25.2617H25.4373C23.4181 25.2617 21.7812 26.8986 21.7812 28.9177C21.7812 30.9369 23.4181 32.5737 25.4373 32.5737H280C282.019 32.5737 283.656 30.9369 283.656 28.9177C283.656 26.8986 282.019 25.2617 280 25.2617Z" fill="#D7D7D7" fill-opacity="0.47"/>
<path d="M280 51.0273H25.4373C23.4181 51.0273 21.7812 52.6642 21.7812 54.6834C21.7812 56.7025 23.4181 58.3394 25.4373 58.3394H280C282.019 58.3394 283.656 56.7025 283.656 54.6834C283.656 52.6642 282.019 51.0273 280 51.0273Z" fill="#D7D7D7" fill-opacity="0.47"/>
<path d="M280 76.793H25.4373C23.4181 76.793 21.7812 78.4298 21.7812 80.449C21.7812 82.4681 23.4181 84.105 25.4373 84.105H280C282.019 84.105 283.656 82.4681 283.656 80.449C283.656 78.4298 282.019 76.793 280 76.793Z" fill="#D7D7D7" fill-opacity="0.47"/>
<path d="M378.657 102.559H25.4373C23.4181 102.559 21.7812 104.195 21.7812 106.215C21.7812 108.234 23.4181 109.871 25.4373 109.871H378.657C380.676 109.871 382.313 108.234 382.313 106.215C382.313 104.195 380.676 102.559 378.657 102.559Z" fill="#D7D7D7" fill-opacity="0.47"/>
<path d="M377.621 25.2695H301.096C298.89 25.2695 297.102 26.9079 297.102 28.9289V79.9854C297.102 82.0064 298.89 83.6447 301.096 83.6447H377.621C379.827 83.6447 381.615 82.0064 381.615 79.9854V28.9289C381.615 26.9079 379.827 25.2695 377.621 25.2695Z" fill="#D7D7D7" fill-opacity="0.47"/>
<path d="M280 131.809H25.4373C23.4181 131.809 21.7812 133.445 21.7812 135.465C21.7812 137.484 23.4181 139.121 25.4373 139.121H280C282.019 139.121 283.656 137.484 283.656 135.465C283.656 133.445 282.019 131.809 280 131.809Z" fill="#D7D7D7" fill-opacity="0.47"/>
<path d="M280 157.572H25.4373C23.4181 157.572 21.7812 159.209 21.7812 161.228C21.7812 163.247 23.4181 164.884 25.4373 164.884H280C282.019 164.884 283.656 163.247 283.656 161.228C283.656 159.209 282.019 157.572 280 157.572Z" fill="#D7D7D7" fill-opacity="0.47"/>
<path d="M280 183.34H25.4373C23.4181 183.34 21.7812 184.977 21.7812 186.996C21.7812 189.015 23.4181 190.652 25.4373 190.652H280C282.019 190.652 283.656 189.015 283.656 186.996C283.656 184.977 282.019 183.34 280 183.34Z" fill="#D7D7D7" fill-opacity="0.47"/>
<path d="M378.657 209.107H25.4373C23.4181 209.107 21.7812 210.744 21.7812 212.763C21.7812 214.783 23.4181 216.419 25.4373 216.419H378.657C380.676 216.419 382.313 214.783 382.313 212.763C382.313 210.744 380.676 209.107 378.657 209.107Z" fill="#D7D7D7" fill-opacity="0.47"/>
<path d="M377.621 132.436H301.096C298.89 132.436 297.102 134.074 297.102 136.095V187.151C297.102 189.172 298.89 190.811 301.096 190.811H377.621C379.827 190.811 381.615 189.172 381.615 187.151V136.095C381.615 134.074 379.827 132.436 377.621 132.436Z" fill="#D7D7D7" fill-opacity="0.47"/>
<path d="M280 238.35H25.4373C23.4181 238.35 21.7812 239.986 21.7812 242.006C21.7812 244.025 23.4181 245.662 25.4373 245.662H280C282.019 245.662 283.656 244.025 283.656 242.006C283.656 239.986 282.019 238.35 280 238.35Z" fill="#D7D7D7" fill-opacity="0.47"/>
<path d="M280 264.113H25.4373C23.4181 264.113 21.7812 265.75 21.7812 267.769C21.7812 269.788 23.4181 271.425 25.4373 271.425H280C282.019 271.425 283.656 269.788 283.656 267.769C283.656 265.75 282.019 264.113 280 264.113Z" fill="#D7D7D7" fill-opacity="0.47"/>
<path d="M280 289.879H25.4373C23.4181 289.879 21.7812 291.516 21.7812 293.535C21.7812 295.554 23.4181 297.191 25.4373 297.191H280C282.019 297.191 283.656 295.554 283.656 293.535C283.656 291.516 282.019 289.879 280 289.879Z" fill="#D7D7D7" fill-opacity="0.47"/>
<path d="M378.657 315.646H25.4373C23.4181 315.646 21.7812 317.283 21.7812 319.302C21.7812 321.322 23.4181 322.959 25.4373 322.959H378.657C380.676 322.959 382.313 321.322 382.313 319.302C382.313 317.283 380.676 315.646 378.657 315.646Z" fill="#D7D7D7" fill-opacity="0.47"/>
<path d="M377.621 238.729H301.096C298.89 238.729 297.102 240.367 297.102 242.388V293.444C297.102 295.465 298.89 297.104 301.096 297.104H377.621C379.827 297.104 381.615 295.465 381.615 293.444V242.388C381.615 240.367 379.827 238.729 377.621 238.729Z" fill="#D7D7D7" fill-opacity="0.47"/>
<g filter="url(#filter0_d)">
<rect x="129" y="84" width="297" height="180" rx="15" fill="#FBB640"/>
</g>
<path d="M252.691 180.329C252.7 180.801 252.607 181.269 252.416 181.701C252.231 182.079 251.957 182.407 251.617 182.655C251.253 182.902 250.85 183.084 250.424 183.192C249.896 183.316 249.355 183.376 248.813 183.371H248.109C247.835 183.371 247.549 183.371 247.25 183.371L246.332 183.276C246.046 183.246 245.763 183.194 245.485 183.121C245.198 183.049 245.043 182.906 245.043 182.703V181.963C245.041 181.92 245.049 181.876 245.068 181.836C245.087 181.797 245.115 181.763 245.151 181.737C245.229 181.677 245.327 181.648 245.425 181.653H245.509L246.344 181.737L247.25 181.808H248.121H248.813C249.35 181.842 249.885 181.73 250.364 181.486C250.558 181.36 250.711 181.18 250.804 180.968C250.897 180.756 250.927 180.522 250.889 180.293C250.894 179.978 250.774 179.673 250.555 179.446C250.196 179.099 249.796 178.799 249.362 178.552L247.238 177.287C246.653 176.943 246.128 176.503 245.688 175.986C245.288 175.509 245.076 174.903 245.091 174.28C245.077 173.81 245.18 173.342 245.389 172.92C245.58 172.572 245.855 172.277 246.189 172.061C246.553 171.834 246.958 171.681 247.382 171.608C247.882 171.52 248.389 171.476 248.897 171.477C249.471 171.474 250.044 171.502 250.615 171.56C251.164 171.56 251.688 171.668 252.178 171.751C252.452 171.751 252.583 171.942 252.583 172.181V172.873C252.589 172.921 252.584 172.97 252.568 173.016C252.552 173.062 252.526 173.104 252.491 173.138C252.457 173.173 252.415 173.199 252.369 173.215C252.323 173.231 252.274 173.236 252.225 173.23H252.046L250.579 173.123C249.971 173.123 249.386 173.123 248.778 173.123C248.296 173.103 247.815 173.172 247.358 173.326C247 173.469 246.821 173.803 246.821 174.34C246.819 174.495 246.85 174.648 246.912 174.79C246.974 174.932 247.065 175.059 247.179 175.163C247.512 175.465 247.881 175.725 248.276 175.939L250.364 177.132C251.066 177.503 251.68 178.019 252.166 178.647C252.513 179.138 252.697 179.727 252.691 180.329V180.329Z" fill="#740B99"/>
<path d="M268.97 183.103C268.933 183.143 268.889 183.175 268.84 183.198C268.791 183.22 268.738 183.233 268.683 183.234H267.669C267.557 183.232 267.45 183.184 267.371 183.103C267.333 183.066 267.303 183.022 267.282 182.972C267.262 182.923 267.251 182.87 267.252 182.817V175.372C267.261 175.001 267.213 174.631 267.109 174.275C267.023 174.018 266.885 173.783 266.703 173.583C266.534 173.414 266.324 173.291 266.095 173.225C265.847 173.152 265.59 173.116 265.331 173.118C264.928 173.125 264.528 173.181 264.138 173.285C263.709 173.404 263.291 173.535 262.945 173.69C263.083 174.224 263.147 174.774 263.136 175.325V182.817C263.137 182.922 263.098 183.024 263.029 183.103C262.997 183.145 262.955 183.179 262.907 183.202C262.86 183.225 262.807 183.236 262.754 183.234H261.597C261.546 183.235 261.496 183.223 261.45 183.2C261.404 183.178 261.365 183.144 261.335 183.103C261.273 183.02 261.24 182.92 261.239 182.817V175.325C261.244 174.949 261.212 174.573 261.144 174.203C261.1 173.96 260.998 173.73 260.845 173.535C260.707 173.374 260.525 173.258 260.321 173.201C260.09 173.146 259.854 173.118 259.617 173.118C259.208 173.132 258.804 173.217 258.424 173.368C257.967 173.531 257.52 173.722 257.087 173.941V182.817C257.087 182.92 257.053 183.02 256.992 183.103C256.959 183.144 256.917 183.177 256.869 183.2C256.822 183.222 256.77 183.234 256.718 183.234H255.596C255.545 183.234 255.495 183.222 255.45 183.199C255.404 183.176 255.365 183.144 255.334 183.103C255.273 183.02 255.239 182.92 255.238 182.817V172.08C255.241 171.969 255.284 171.864 255.358 171.781C255.393 171.741 255.438 171.71 255.487 171.689C255.537 171.668 255.59 171.659 255.644 171.662H256.694C256.747 171.662 256.8 171.672 256.849 171.693C256.898 171.713 256.943 171.743 256.98 171.781C257.051 171.865 257.089 171.971 257.087 172.08V172.473C257.536 172.203 258.007 171.971 258.495 171.781C259.03 171.587 259.596 171.49 260.165 171.495C260.571 171.485 260.976 171.55 261.358 171.686C261.714 171.832 262.029 172.061 262.277 172.354C262.844 172.075 263.44 171.859 264.055 171.71C264.613 171.572 265.186 171.5 265.761 171.495C266.212 171.491 266.662 171.552 267.097 171.674C267.504 171.801 267.876 172.022 268.183 172.319C268.511 172.657 268.76 173.065 268.91 173.512C269.102 174.104 269.191 174.726 269.173 175.349V182.793C269.166 182.857 269.144 182.919 269.109 182.973C269.073 183.027 269.026 183.071 268.97 183.103V183.103Z" fill="#740B99"/>
<path d="M280.008 182.813C280.006 182.867 279.994 182.92 279.971 182.969C279.949 183.018 279.917 183.063 279.877 183.099C279.839 183.14 279.793 183.173 279.741 183.196C279.69 183.219 279.635 183.23 279.578 183.23H278.612C278.558 183.229 278.505 183.216 278.456 183.194C278.407 183.171 278.362 183.139 278.326 183.099C278.284 183.065 278.25 183.021 278.227 182.971C278.204 182.922 278.193 182.867 278.195 182.813V182.348C277.699 182.637 277.18 182.885 276.644 183.087C276.104 183.279 275.534 183.375 274.961 183.373C274.523 183.377 274.086 183.325 273.661 183.219C273.26 183.12 272.888 182.928 272.575 182.658C272.239 182.375 271.977 182.015 271.812 181.608C271.605 181.089 271.507 180.532 271.526 179.974V179.723C271.52 179.214 271.609 178.708 271.788 178.232C271.973 177.803 272.275 177.435 272.659 177.17C273.128 176.846 273.661 176.627 274.222 176.526C275.007 176.368 275.807 176.296 276.608 176.311H278.159V175.476C278.227 174.819 278.049 174.159 277.658 173.627C277.169 173.229 276.543 173.04 275.916 173.102C275.224 173.102 274.627 173.102 274.103 173.102C273.578 173.102 273.112 173.173 272.695 173.221H272.587C272.495 173.221 272.404 173.197 272.325 173.15C272.253 173.15 272.218 173.018 272.218 172.875V172.171C272.218 171.945 272.361 171.813 272.659 171.765C272.957 171.718 273.566 171.634 274.079 171.575C274.592 171.515 275.2 171.491 275.916 171.491C276.484 171.437 277.058 171.503 277.598 171.686C278.139 171.869 278.635 172.165 279.054 172.553C279.738 173.358 280.084 174.397 280.02 175.452L280.008 182.813ZM278.147 177.635H276.596C276.068 177.625 275.541 177.665 275.021 177.754C274.669 177.801 274.331 177.923 274.031 178.112C273.796 178.259 273.618 178.482 273.53 178.745C273.421 179.051 273.369 179.374 273.375 179.699V179.95C273.341 180.226 273.37 180.507 273.459 180.771C273.547 181.035 273.694 181.276 273.888 181.477C274.309 181.76 274.813 181.894 275.319 181.859C275.796 181.864 276.271 181.796 276.727 181.656C277.219 181.489 277.694 181.277 278.147 181.023V177.635Z" fill="#740B99"/>
<path d="M287.627 173.137C287.147 173.138 286.669 173.206 286.207 173.339C285.687 173.502 285.19 173.73 284.728 174.019V182.812C284.729 182.865 284.718 182.918 284.698 182.967C284.677 183.016 284.647 183.061 284.609 183.098C284.531 183.179 284.423 183.226 284.311 183.229H283.285C283.23 183.231 283.176 183.22 283.126 183.197C283.077 183.174 283.033 183.14 282.998 183.098C282.96 183.061 282.93 183.016 282.909 182.967C282.889 182.918 282.878 182.865 282.879 182.812V172.075C282.878 172.019 282.888 171.965 282.909 171.914C282.929 171.862 282.96 171.816 282.998 171.776C283.034 171.736 283.078 171.705 283.128 171.684C283.177 171.663 283.231 171.654 283.285 171.657H284.263C284.317 171.654 284.37 171.663 284.42 171.684C284.469 171.705 284.513 171.736 284.549 171.776C284.628 171.86 284.671 171.972 284.668 172.087V172.528C285.136 172.192 285.65 171.926 286.196 171.74C286.657 171.586 287.14 171.506 287.627 171.502C287.926 171.502 288.069 171.633 288.069 171.896V172.767C288.069 173.017 287.926 173.137 287.627 173.137Z" fill="#740B99"/>
<path d="M295.833 183.278L295.141 183.35H294.461C294.037 183.356 293.613 183.32 293.196 183.243C292.868 183.177 292.563 183.025 292.314 182.801C292.058 182.571 291.872 182.273 291.777 181.942C291.645 181.485 291.584 181.01 291.598 180.534V173.198L289.57 172.971C289.295 172.971 289.164 172.816 289.164 172.589V172.017C289.164 171.766 289.295 171.647 289.57 171.647H291.598V169.583C291.595 169.53 291.602 169.477 291.62 169.427C291.637 169.378 291.665 169.332 291.7 169.293C291.736 169.254 291.779 169.223 291.827 169.201C291.875 169.179 291.927 169.167 291.98 169.165L293.077 168.998C293.12 168.997 293.162 169.005 293.201 169.021C293.24 169.038 293.275 169.062 293.304 169.093C293.337 169.128 293.363 169.169 293.379 169.215C293.396 169.26 293.403 169.308 293.399 169.356V171.647H295.666C295.721 171.645 295.776 171.654 295.828 171.675C295.879 171.695 295.926 171.726 295.965 171.765C296.004 171.804 296.035 171.851 296.055 171.902C296.076 171.954 296.085 172.009 296.084 172.064V172.78C296.085 172.835 296.076 172.89 296.055 172.942C296.035 172.993 296.004 173.04 295.965 173.079C295.926 173.118 295.879 173.149 295.828 173.169C295.776 173.189 295.721 173.199 295.666 173.198H293.399V180.523C293.347 180.903 293.436 181.289 293.65 181.608C293.907 181.789 294.221 181.87 294.533 181.835H295.726C296.024 181.835 296.167 181.942 296.167 182.133V182.885C296.203 183.111 296.083 183.231 295.833 183.278Z" fill="#740B99"/>
<path d="M307.143 172.03C307.153 172.077 307.153 172.126 307.143 172.173L303.671 184.282C303.532 184.781 303.352 185.268 303.134 185.738C302.963 186.102 302.719 186.426 302.418 186.692C302.102 186.938 301.742 187.121 301.356 187.229C300.856 187.348 300.343 187.404 299.829 187.396C299.514 187.393 299.2 187.373 298.887 187.336C298.609 187.319 298.333 187.275 298.064 187.205C297.951 187.188 297.842 187.151 297.742 187.098C297.701 187.077 297.668 187.043 297.647 187.003C297.626 186.962 297.617 186.917 297.622 186.871V186.096C297.622 185.869 297.754 185.75 298.016 185.75C298.255 185.75 298.577 185.75 298.958 185.833C299.34 185.917 299.65 185.833 299.889 185.833C300.153 185.836 300.417 185.812 300.676 185.762C300.886 185.714 301.081 185.621 301.249 185.487C301.424 185.335 301.566 185.148 301.667 184.938C301.808 184.655 301.912 184.354 301.977 184.044L302.18 183.185H301.893C301.743 183.203 301.59 183.203 301.44 183.185C301.289 183.158 301.146 183.097 301.022 183.006C300.869 182.887 300.743 182.736 300.652 182.564C300.519 182.313 300.411 182.05 300.33 181.777L297.539 172.173C297.529 172.126 297.529 172.077 297.539 172.03C297.539 171.791 297.67 171.672 297.92 171.672H299.113C299.155 171.673 299.196 171.683 299.233 171.701C299.271 171.72 299.303 171.746 299.328 171.779C299.394 171.842 299.443 171.92 299.471 172.006L301.953 181.145C301.97 181.294 302.037 181.433 302.144 181.539C302.201 181.585 302.273 181.61 302.347 181.61H302.681L305.246 171.982C305.279 171.899 305.332 171.825 305.401 171.768C305.434 171.735 305.473 171.71 305.516 171.694C305.559 171.677 305.605 171.67 305.651 171.672H306.844C307.023 171.672 307.143 171.791 307.143 172.03Z" fill="#740B99"/>
<path d="M317.437 182.817C317.438 182.871 317.428 182.924 317.407 182.973C317.387 183.022 317.356 183.067 317.318 183.104C317.24 183.185 317.133 183.232 317.02 183.235H316.054C315.941 183.232 315.834 183.185 315.755 183.104C315.717 183.067 315.687 183.022 315.666 182.973C315.646 182.924 315.635 182.871 315.636 182.817V182.352C315.137 182.642 314.614 182.889 314.073 183.092C313.534 183.285 312.964 183.382 312.391 183.378C311.957 183.381 311.524 183.329 311.103 183.223C310.698 183.124 310.322 182.932 310.005 182.662C309.676 182.376 309.418 182.016 309.253 181.612C309.046 181.093 308.949 180.537 308.967 179.978V179.728C308.955 179.218 309.045 178.711 309.23 178.236C309.414 177.811 309.711 177.443 310.089 177.174C310.563 176.853 311.099 176.634 311.663 176.53C312.449 176.373 313.248 176.301 314.049 176.316H315.6V175.48C315.669 174.823 315.49 174.164 315.099 173.631C314.611 173.233 313.984 173.045 313.357 173.106C312.665 173.106 312.069 173.106 311.544 173.106C311.019 173.106 310.554 173.178 310.136 173.226H310.029C309.936 173.226 309.846 173.201 309.766 173.154C309.723 173.124 309.689 173.082 309.668 173.034C309.647 172.985 309.64 172.932 309.647 172.88V172.176C309.647 171.949 309.802 171.818 310.089 171.77C310.375 171.722 311.007 171.639 311.508 171.579C312.009 171.52 312.701 171.496 313.357 171.496C313.902 171.413 314.459 171.457 314.984 171.625C315.509 171.792 315.989 172.079 316.385 172.462C316.781 172.846 317.083 173.316 317.268 173.835C317.452 174.354 317.514 174.909 317.449 175.457L317.437 182.817ZM315.588 177.64H314.097C313.569 177.63 313.042 177.67 312.522 177.759C312.17 177.803 311.831 177.925 311.532 178.117C311.299 178.269 311.12 178.49 311.019 178.749C310.915 179.056 310.867 179.38 310.876 179.704V179.954C310.841 180.23 310.868 180.51 310.954 180.774C311.041 181.038 311.185 181.28 311.377 181.481C311.799 181.762 312.302 181.896 312.809 181.863C313.286 181.87 313.76 181.801 314.216 181.66C314.713 181.496 315.192 181.284 315.648 181.028L315.588 177.64Z" fill="#740B99"/>
<path d="M328.817 182.54C328.828 182.654 328.799 182.768 328.734 182.862C328.734 182.946 328.567 182.994 328.376 183.017C327.734 183.147 327.084 183.239 326.431 183.292C325.787 183.292 325.143 183.375 324.499 183.375C323.801 183.392 323.107 183.266 322.459 183.005C321.907 182.783 321.419 182.426 321.039 181.967C320.639 181.492 320.349 180.934 320.192 180.333C320.004 179.633 319.911 178.911 319.918 178.186V176.671C319.832 175.304 320.233 173.951 321.051 172.853C321.49 172.388 322.028 172.027 322.624 171.796C323.221 171.565 323.861 171.469 324.499 171.517C324.821 171.517 325.215 171.517 325.692 171.576C326.169 171.636 326.575 171.66 326.992 171.731V167.818C326.989 167.766 326.996 167.713 327.015 167.663C327.034 167.614 327.062 167.569 327.1 167.532C327.137 167.495 327.182 167.466 327.231 167.447C327.28 167.429 327.333 167.421 327.386 167.425H328.46C328.51 167.423 328.56 167.432 328.608 167.451C328.655 167.469 328.698 167.497 328.734 167.532C328.804 167.611 328.842 167.713 328.841 167.818L328.817 182.54ZM326.968 173.282C326.574 173.215 326.175 173.176 325.775 173.163H324.582C324.138 173.154 323.697 173.231 323.282 173.39C322.942 173.534 322.652 173.775 322.447 174.082C322.216 174.414 322.061 174.793 321.993 175.191C321.893 175.686 321.845 176.19 321.85 176.694V178.138C321.798 179.059 322.005 179.976 322.447 180.786C322.688 181.117 323.013 181.378 323.388 181.542C323.764 181.705 324.176 181.766 324.582 181.717C324.952 181.717 325.358 181.717 325.775 181.717L326.968 181.633V173.282Z" fill="#740B99"/>
<path d="M338.997 180.329C339.009 180.802 338.911 181.272 338.711 181.701C338.529 182.082 338.254 182.41 337.911 182.655C337.548 182.902 337.144 183.084 336.718 183.192C336.191 183.316 335.65 183.376 335.108 183.371H334.38C334.106 183.371 333.819 183.371 333.521 183.371L332.602 183.276C332.32 183.247 332.041 183.195 331.767 183.121C331.469 183.049 331.326 182.906 331.326 182.703V181.963C331.321 181.921 331.327 181.877 331.344 181.838C331.361 181.798 331.387 181.763 331.421 181.737C331.5 181.677 331.597 181.648 331.696 181.653H331.779L332.614 181.737L333.533 181.808H334.392H335.084C335.62 181.843 336.156 181.731 336.635 181.486C336.829 181.36 336.981 181.18 337.075 180.968C337.168 180.756 337.197 180.522 337.16 180.293C337.165 179.978 337.045 179.673 336.826 179.446C336.467 179.099 336.066 178.799 335.633 178.552L333.509 177.287C332.923 176.943 332.399 176.503 331.958 175.986C331.562 175.508 331.354 174.901 331.374 174.28C331.356 173.811 331.455 173.343 331.66 172.92C331.851 172.572 332.126 172.277 332.459 172.061C332.824 171.834 333.229 171.68 333.652 171.608C334.152 171.519 334.659 171.475 335.167 171.477C335.737 171.474 336.307 171.502 336.873 171.56C337.434 171.56 337.947 171.668 338.436 171.751C338.711 171.751 338.842 171.942 338.842 172.181V172.873C338.848 172.921 338.842 172.97 338.826 173.016C338.81 173.062 338.784 173.104 338.75 173.138C338.715 173.173 338.674 173.199 338.628 173.215C338.581 173.231 338.532 173.236 338.484 173.23H338.424L336.957 173.123C336.349 173.123 335.764 173.123 335.167 173.123C334.686 173.102 334.204 173.171 333.748 173.326C333.39 173.469 333.211 173.803 333.211 174.34C333.209 174.495 333.24 174.648 333.302 174.79C333.363 174.932 333.454 175.059 333.569 175.163C333.898 175.465 334.262 175.725 334.654 175.939L336.742 177.132C337.446 177.499 338.061 178.017 338.544 178.647C338.865 179.147 339.023 179.735 338.997 180.329V180.329Z" fill="#740B99"/>
<path d="M222.726 187.316C222.597 187.316 222.471 187.274 222.368 187.197C222.264 187.119 222.189 187.01 222.153 186.886C222.131 186.812 222.124 186.734 222.133 186.657C222.142 186.58 222.166 186.505 222.203 186.438C222.241 186.37 222.292 186.31 222.353 186.262C222.414 186.214 222.484 186.179 222.559 186.159L225.804 185.3H222.714C222.555 185.3 222.404 185.237 222.292 185.125C222.18 185.013 222.117 184.861 222.117 184.703C222.117 184.545 222.18 184.393 222.292 184.281C222.404 184.169 222.555 184.107 222.714 184.107H230.063C230.141 184.096 230.221 184.102 230.297 184.122C230.373 184.143 230.445 184.178 230.507 184.227C230.57 184.275 230.622 184.335 230.662 184.403C230.701 184.472 230.727 184.547 230.737 184.626C230.747 184.704 230.742 184.784 230.721 184.86C230.7 184.936 230.665 185.007 230.617 185.07C230.569 185.133 230.509 185.185 230.44 185.224C230.372 185.264 230.296 185.289 230.218 185.3L222.869 187.375L222.726 187.316Z" fill="#740B99"/>
<path d="M222.734 190.067C222.604 190.069 222.478 190.028 222.374 189.95C222.271 189.872 222.196 189.762 222.161 189.637C222.121 189.487 222.14 189.327 222.216 189.191C222.292 189.055 222.418 188.954 222.567 188.91L229.916 186.834C230.074 186.791 230.243 186.813 230.385 186.895C230.527 186.976 230.631 187.111 230.674 187.269C230.716 187.427 230.694 187.596 230.613 187.738C230.531 187.88 230.396 187.984 230.238 188.027L222.889 190.103L222.734 190.067Z" fill="#740B99"/>
<path d="M226.365 191.354C226.236 191.354 226.111 191.312 226.008 191.235C225.904 191.157 225.829 191.048 225.793 190.925C225.771 190.85 225.765 190.772 225.773 190.695C225.782 190.618 225.806 190.544 225.843 190.476C225.881 190.408 225.932 190.349 225.993 190.301C226.054 190.253 226.124 190.218 226.199 190.197L226.711 190.424C227.033 190.34 227.904 189.994 227.963 190.304C227.985 190.379 227.992 190.457 227.983 190.534C227.974 190.611 227.951 190.685 227.913 190.753C227.875 190.821 227.824 190.88 227.763 190.928C227.702 190.976 227.633 191.011 227.558 191.032L226.52 191.33L226.365 191.354Z" fill="#740B99"/>
<path d="M229.088 182.709H223.767C223.332 182.709 222.915 182.537 222.607 182.231C222.298 181.925 222.124 181.509 222.12 181.074V179.404C220.657 178.472 219.536 177.091 218.924 175.467C218.313 173.843 218.245 172.065 218.73 170.399C219.216 168.734 220.228 167.27 221.616 166.229C223.004 165.188 224.692 164.625 226.427 164.625C228.162 164.625 229.85 165.188 231.238 166.229C232.626 167.27 233.639 168.734 234.124 170.399C234.61 172.065 234.541 173.843 233.93 175.467C233.319 177.091 232.197 178.472 230.734 179.404V181.134C230.715 181.558 230.534 181.959 230.227 182.252C229.92 182.546 229.512 182.709 229.088 182.709V182.709ZM226.391 165.804C224.885 165.802 223.42 166.298 222.225 167.215C221.03 168.133 220.173 169.42 219.786 170.876C219.399 172.332 219.505 173.875 220.087 175.264C220.669 176.654 221.694 177.812 223.003 178.557C223.095 178.607 223.171 178.681 223.224 178.772C223.277 178.862 223.303 178.966 223.302 179.07V181.074C223.301 181.135 223.314 181.195 223.337 181.251C223.361 181.306 223.395 181.357 223.438 181.399C223.482 181.441 223.533 181.475 223.59 181.497C223.646 181.519 223.706 181.529 223.767 181.528H229.088C229.148 181.529 229.208 181.519 229.265 181.497C229.321 181.475 229.373 181.441 229.416 181.399C229.459 181.357 229.494 181.306 229.517 181.251C229.541 181.195 229.553 181.135 229.553 181.074V179.022C229.552 178.919 229.578 178.818 229.629 178.728C229.679 178.638 229.751 178.563 229.839 178.509C231.129 177.751 232.133 176.589 232.698 175.203C233.263 173.818 233.356 172.285 232.965 170.841C232.573 169.397 231.717 168.121 230.529 167.211C229.342 166.301 227.888 165.807 226.391 165.804V165.804Z" fill="#740B99"/>
<path d="M233.109 165.141C233.003 165.141 232.899 165.108 232.812 165.047C232.724 164.987 232.657 164.901 232.62 164.801C232.582 164.702 232.576 164.593 232.601 164.49C232.627 164.386 232.684 164.293 232.764 164.223L234.85 162.399C234.956 162.308 235.094 162.264 235.232 162.275C235.371 162.286 235.499 162.352 235.59 162.458C235.638 162.506 235.676 162.562 235.702 162.625C235.728 162.687 235.741 162.754 235.741 162.822C235.741 162.889 235.728 162.956 235.702 163.019C235.676 163.081 235.638 163.138 235.59 163.185L233.503 165.01C233.45 165.059 233.388 165.096 233.32 165.118C233.252 165.141 233.181 165.149 233.109 165.141V165.141Z" fill="#740B99"/>
<path d="M226.339 162.927C226.2 162.927 226.067 162.871 225.968 162.773C225.87 162.675 225.815 162.541 225.815 162.402V158.369C225.803 158.295 225.808 158.218 225.829 158.146C225.85 158.073 225.886 158.006 225.935 157.949C225.985 157.891 226.046 157.845 226.114 157.813C226.183 157.782 226.258 157.766 226.334 157.766C226.409 157.766 226.484 157.782 226.553 157.813C226.621 157.845 226.682 157.891 226.732 157.949C226.781 158.006 226.817 158.073 226.838 158.146C226.859 158.218 226.864 158.295 226.852 158.369V162.402C226.853 162.539 226.799 162.671 226.703 162.769C226.607 162.867 226.477 162.924 226.339 162.927V162.927Z" fill="#740B99"/>
<path d="M236.748 171.328C236.62 171.325 236.498 171.274 236.404 171.186C236.31 171.098 236.252 170.979 236.24 170.852C236.229 170.724 236.264 170.596 236.34 170.493C236.416 170.389 236.527 170.317 236.653 170.29L240.315 169.587C240.451 169.565 240.59 169.597 240.703 169.674C240.816 169.752 240.895 169.87 240.924 170.004C240.948 170.14 240.918 170.28 240.84 170.394C240.762 170.508 240.642 170.586 240.506 170.612L236.844 171.316L236.748 171.328Z" fill="#740B99"/>
<path d="M219.546 165.141C219.418 165.143 219.294 165.096 219.2 165.01L217.125 163.185C217.073 163.142 217.03 163.089 216.999 163.028C216.968 162.968 216.949 162.902 216.943 162.834C216.938 162.767 216.946 162.698 216.966 162.634C216.987 162.569 217.021 162.51 217.065 162.458C217.155 162.352 217.284 162.286 217.423 162.275C217.561 162.264 217.699 162.308 217.805 162.399L219.891 164.223C219.989 164.321 220.044 164.454 220.044 164.592C220.044 164.731 219.989 164.864 219.891 164.962C219.804 165.065 219.68 165.129 219.546 165.141Z" fill="#740B99"/>
<path d="M237.291 179.195C237.193 179.197 237.097 179.168 237.016 179.112L235.442 178.134C235.329 178.058 235.248 177.942 235.217 177.809C235.186 177.677 235.207 177.537 235.275 177.418C235.312 177.359 235.36 177.308 235.416 177.268C235.473 177.228 235.536 177.199 235.604 177.183C235.672 177.168 235.742 177.166 235.81 177.177C235.879 177.189 235.944 177.214 236.003 177.252L237.565 178.23C237.681 178.303 237.763 178.419 237.794 178.553C237.826 178.687 237.803 178.827 237.732 178.945C237.684 179.019 237.619 179.081 237.542 179.124C237.465 179.168 237.379 179.192 237.291 179.195Z" fill="#740B99"/>
<path d="M215.385 178.937C215.294 178.938 215.205 178.916 215.125 178.872C215.046 178.828 214.979 178.764 214.932 178.687C214.863 178.569 214.842 178.429 214.873 178.296C214.904 178.163 214.985 178.047 215.099 177.972L216.673 176.994C216.788 176.943 216.918 176.935 217.039 176.973C217.16 177.01 217.263 177.089 217.33 177.197C217.397 177.304 217.422 177.432 217.402 177.557C217.382 177.682 217.318 177.795 217.221 177.876L215.659 178.854C215.577 178.907 215.482 178.936 215.385 178.937V178.937Z" fill="#740B99"/>
<path d="M215.906 171.324H215.811L212.148 170.62C212.013 170.594 211.893 170.516 211.815 170.402C211.737 170.288 211.706 170.148 211.731 170.012C211.76 169.878 211.839 169.76 211.952 169.682C212.065 169.604 212.204 169.573 212.339 169.594L216.002 170.298C216.127 170.325 216.239 170.397 216.315 170.501C216.391 170.604 216.426 170.732 216.414 170.859C216.403 170.987 216.344 171.106 216.251 171.194C216.157 171.282 216.035 171.333 215.906 171.336V171.324Z" fill="#740B99"/>
<circle cx="406" cy="103" r="3" fill="white"/>
<defs>
<filter id="filter0_d" x="109" y="71" width="337" height="220" filterUnits="userSpaceOnUse" color-interpolation-filters="sRGB">
<feFlood flood-opacity="0" result="BackgroundImageFix"/>
<feColorMatrix in="SourceAlpha" type="matrix" values="0 0 0 0 0 0 0 0 0 0 0 0 0 0 0 0 0 0 127 0"/>
<feOffset dy="7"/>
<feGaussianBlur stdDeviation="10"/>
<feColorMatrix type="matrix" values="0 0 0 0 0 0 0 0 0 0 0 0 0 0 0 0 0 0 0.1 0"/>
<feBlend mode="normal" in2="BackgroundImageFix" result="effect1_dropShadow"/>
<feBlend mode="normal" in="SourceGraphic" in2="effect1_dropShadow" result="shape"/>
</filter>
</defs>
</svg>
