<svg width="555" height="350" viewBox="0 0 555 350" fill="none" xmlns="http://www.w3.org/2000/svg">
<rect width="555" height="349.38" rx="30" fill="white"/>
<path d="M280 25.2598H25.4373C23.4181 25.2598 21.7812 26.8966 21.7812 28.9158C21.7812 30.9349 23.4181 32.5718 25.4373 32.5718H280C282.019 32.5718 283.656 30.9349 283.656 28.9158C283.656 26.8966 282.019 25.2598 280 25.2598Z" fill="#D7D7D7" fill-opacity="0.47"/>
<path d="M280 51.0254H25.4373C23.4181 51.0254 21.7812 52.6622 21.7812 54.6814C21.7812 56.7006 23.4181 58.3374 25.4373 58.3374H280C282.019 58.3374 283.656 56.7006 283.656 54.6814C283.656 52.6622 282.019 51.0254 280 51.0254Z" fill="#D7D7D7" fill-opacity="0.47"/>
<path d="M280 76.791H25.4373C23.4181 76.791 21.7812 78.4279 21.7812 80.447C21.7812 82.4662 23.4181 84.103 25.4373 84.103H280C282.019 84.103 283.656 82.4662 283.656 80.447C283.656 78.4279 282.019 76.791 280 76.791Z" fill="#D7D7D7" fill-opacity="0.47"/>
<path d="M378.657 102.557H25.4373C23.4181 102.557 21.7812 104.193 21.7812 106.213C21.7812 108.232 23.4181 109.869 25.4373 109.869H378.657C380.676 109.869 382.313 108.232 382.313 106.213C382.313 104.193 380.676 102.557 378.657 102.557Z" fill="#D7D7D7" fill-opacity="0.47"/>
<path d="M377.623 25.2656H301.098C298.892 25.2656 297.104 26.904 297.104 28.925V79.9815C297.104 82.0025 298.892 83.6408 301.098 83.6408H377.623C379.829 83.6408 381.617 82.0025 381.617 79.9815V28.925C381.617 26.904 379.829 25.2656 377.623 25.2656Z" fill="#D7D7D7" fill-opacity="0.47"/>
<rect x="399.914" y="25.2656" width="133.305" height="84.5133" rx="15" fill="#740B99"/>
<rect x="399.914" y="132.432" width="133.305" height="190.808" rx="15" fill="#ECECEC"/>
<path d="M280 131.807H25.4373C23.4181 131.807 21.7812 133.443 21.7812 135.463C21.7812 137.482 23.4181 139.119 25.4373 139.119H280C282.019 139.119 283.656 137.482 283.656 135.463C283.656 133.443 282.019 131.807 280 131.807Z" fill="#D7D7D7" fill-opacity="0.47"/>
<path d="M280 157.57H25.4373C23.4181 157.57 21.7812 159.207 21.7812 161.226C21.7812 163.245 23.4181 164.882 25.4373 164.882H280C282.019 164.882 283.656 163.245 283.656 161.226C283.656 159.207 282.019 157.57 280 157.57Z" fill="#D7D7D7" fill-opacity="0.47"/>
<path d="M280 183.338H25.4373C23.4181 183.338 21.7812 184.975 21.7812 186.994C21.7812 189.013 23.4181 190.65 25.4373 190.65H280C282.019 190.65 283.656 189.013 283.656 186.994C283.656 184.975 282.019 183.338 280 183.338Z" fill="#D7D7D7" fill-opacity="0.47"/>
<path d="M378.657 209.104H25.4373C23.4181 209.104 21.7812 210.74 21.7812 212.76C21.7812 214.779 23.4181 216.416 25.4373 216.416H378.657C380.676 216.416 382.313 214.779 382.313 212.76C382.313 210.74 380.676 209.104 378.657 209.104Z" fill="#D7D7D7" fill-opacity="0.47"/>
<path d="M377.623 132.432H301.098C298.892 132.432 297.104 134.07 297.104 136.091V187.147C297.104 189.168 298.892 190.807 301.098 190.807H377.623C379.829 190.807 381.617 189.168 381.617 187.147V136.091C381.617 134.07 379.829 132.432 377.623 132.432Z" fill="#D7D7D7" fill-opacity="0.47"/>
<path d="M280 238.348H25.4373C23.4181 238.348 21.7812 239.985 21.7812 242.004C21.7812 244.023 23.4181 245.66 25.4373 245.66H280C282.019 245.66 283.656 244.023 283.656 242.004C283.656 239.985 282.019 238.348 280 238.348Z" fill="#D7D7D7" fill-opacity="0.47"/>
<path d="M280 264.111H25.4373C23.4181 264.111 21.7812 265.748 21.7812 267.767C21.7812 269.787 23.4181 271.423 25.4373 271.423H280C282.019 271.423 283.656 269.787 283.656 267.767C283.656 265.748 282.019 264.111 280 264.111Z" fill="#D7D7D7" fill-opacity="0.47"/>
<path d="M280 289.877H25.4373C23.4181 289.877 21.7812 291.514 21.7812 293.533C21.7812 295.552 23.4181 297.189 25.4373 297.189H280C282.019 297.189 283.656 295.552 283.656 293.533C283.656 291.514 282.019 289.877 280 289.877Z" fill="#D7D7D7" fill-opacity="0.47"/>
<path d="M378.657 315.645H25.4373C23.4181 315.645 21.7812 317.281 21.7812 319.301C21.7812 321.32 23.4181 322.957 25.4373 322.957H378.657C380.676 322.957 382.313 321.32 382.313 319.301C382.313 317.281 380.676 315.645 378.657 315.645Z" fill="#D7D7D7" fill-opacity="0.47"/>
<path d="M377.623 238.729H301.098C298.892 238.729 297.104 240.367 297.104 242.388V293.444C297.104 295.465 298.892 297.104 301.098 297.104H377.623C379.829 297.104 381.617 295.465 381.617 293.444V242.388C381.617 240.367 379.829 238.729 377.623 238.729Z" fill="#D7D7D7" fill-opacity="0.47"/>
<path d="M482.5 66.5129C483.167 66.8978 483.167 67.86 482.5 68.2449L458.5 82.1013C457.833 82.4862 457 82.0051 457 81.2353L457 53.5225C457 52.7527 457.833 52.2716 458.5 52.6565L482.5 66.5129Z" fill="#FBB640"/>
</svg>
