<svg width="555" height="350" viewBox="0 0 555 350" fill="none" xmlns="http://www.w3.org/2000/svg">
<rect width="555" height="349.38" rx="30" fill="white"/>
<path d="M280 25.2598H25.4373C23.4181 25.2598 21.7812 26.8966 21.7812 28.9158C21.7812 30.9349 23.4181 32.5718 25.4373 32.5718H280C282.019 32.5718 283.656 30.9349 283.656 28.9158C283.656 26.8966 282.019 25.2598 280 25.2598Z" fill="#D7D7D7" fill-opacity="0.47"/>
<path d="M280 51.0254H25.4373C23.4181 51.0254 21.7812 52.6622 21.7812 54.6814C21.7812 56.7006 23.4181 58.3374 25.4373 58.3374H280C282.019 58.3374 283.656 56.7006 283.656 54.6814C283.656 52.6622 282.019 51.0254 280 51.0254Z" fill="#D7D7D7" fill-opacity="0.47"/>
<path d="M280 76.791H25.4373C23.4181 76.791 21.7812 78.4279 21.7812 80.447C21.7812 82.4662 23.4181 84.103 25.4373 84.103H280C282.019 84.103 283.656 82.4662 283.656 80.447C283.656 78.4279 282.019 76.791 280 76.791Z" fill="#D7D7D7" fill-opacity="0.47"/>
<path d="M378.657 102.557H25.4373C23.4181 102.557 21.7812 104.193 21.7812 106.213C21.7812 108.232 23.4181 109.869 25.4373 109.869H378.657C380.676 109.869 382.313 108.232 382.313 106.213C382.313 104.193 380.676 102.557 378.657 102.557Z" fill="#D7D7D7" fill-opacity="0.47"/>
<path d="M377.621 25.2656H301.096C298.89 25.2656 297.102 26.904 297.102 28.925V79.9815C297.102 82.0025 298.89 83.6408 301.096 83.6408H377.621C379.827 83.6408 381.615 82.0025 381.615 79.9815V28.925C381.615 26.904 379.827 25.2656 377.621 25.2656Z" fill="#D7D7D7" fill-opacity="0.47"/>
<rect x="399.914" y="25.2656" width="133.305" height="84.5133" rx="15" fill="#ECECEC"/>
<rect x="399.914" y="132.432" width="133.305" height="190.808" rx="15" fill="#ECECEC"/>
<path d="M280 131.807H25.4373C23.4181 131.807 21.7812 133.443 21.7812 135.463C21.7812 137.482 23.4181 139.119 25.4373 139.119H280C282.019 139.119 283.656 137.482 283.656 135.463C283.656 133.443 282.019 131.807 280 131.807Z" fill="#FBB640"/>
<path d="M280 157.57H25.4373C23.4181 157.57 21.7812 159.207 21.7812 161.226C21.7812 163.245 23.4181 164.882 25.4373 164.882H280C282.019 164.882 283.656 163.245 283.656 161.226C283.656 159.207 282.019 157.57 280 157.57Z" fill="#FBB640"/>
<path d="M280 183.338H25.4373C23.4181 183.338 21.7812 184.975 21.7812 186.994C21.7812 189.013 23.4181 190.65 25.4373 190.65H280C282.019 190.65 283.656 189.013 283.656 186.994C283.656 184.975 282.019 183.338 280 183.338Z" fill="#FBB640"/>
<path d="M378.657 209.104H25.4373C23.4181 209.104 21.7812 210.74 21.7812 212.76C21.7812 214.779 23.4181 216.416 25.4373 216.416H378.657C380.676 216.416 382.313 214.779 382.313 212.76C382.313 210.74 380.676 209.104 378.657 209.104Z" fill="#D7D7D7" fill-opacity="0.47"/>
<path d="M377.621 132.432H301.096C298.89 132.432 297.102 134.07 297.102 136.091V187.147C297.102 189.168 298.89 190.807 301.096 190.807H377.621C379.827 190.807 381.615 189.168 381.615 187.147V136.091C381.615 134.07 379.827 132.432 377.621 132.432Z" fill="#FBB640"/>
<path d="M336.48 174.447C336.367 174.447 336.256 174.41 336.166 174.342C336.075 174.274 336.009 174.178 335.977 174.069C335.958 174.004 335.952 173.935 335.959 173.867C335.967 173.8 335.988 173.734 336.021 173.675C336.054 173.615 336.099 173.563 336.153 173.52C336.206 173.478 336.268 173.447 336.333 173.429L339.186 172.674H336.47C336.331 172.674 336.197 172.619 336.099 172.521C336.001 172.422 335.945 172.289 335.945 172.15C335.945 172.011 336.001 171.877 336.099 171.779C336.197 171.681 336.331 171.626 336.47 171.626H342.93C342.999 171.617 343.069 171.621 343.136 171.639C343.203 171.657 343.266 171.689 343.321 171.731C343.376 171.773 343.422 171.826 343.456 171.886C343.491 171.946 343.514 172.013 343.522 172.082C343.531 172.151 343.527 172.221 343.509 172.288C343.491 172.355 343.459 172.417 343.417 172.472C343.375 172.528 343.322 172.574 343.262 172.608C343.202 172.643 343.135 172.665 343.066 172.674L336.606 174.499L336.48 174.447Z" fill="white"/>
<path d="M336.483 176.869C336.369 176.87 336.257 176.834 336.166 176.766C336.075 176.698 336.009 176.601 335.979 176.491C335.943 176.359 335.961 176.218 336.027 176.099C336.094 175.979 336.205 175.89 336.336 175.851L342.796 174.027C342.935 173.989 343.083 174.008 343.208 174.08C343.333 174.152 343.424 174.27 343.462 174.409C343.5 174.548 343.48 174.697 343.408 174.822C343.337 174.946 343.218 175.038 343.079 175.075L336.619 176.9L336.483 176.869Z" fill="white"/>
<path d="M339.68 178.001C339.567 178.001 339.456 177.964 339.366 177.896C339.275 177.828 339.209 177.732 339.177 177.623C339.158 177.558 339.152 177.489 339.159 177.422C339.167 177.354 339.188 177.288 339.221 177.229C339.254 177.169 339.299 177.117 339.353 177.075C339.406 177.033 339.468 177.002 339.533 176.984L339.984 177.183C340.267 177.11 341.032 176.806 341.085 177.078C341.104 177.144 341.11 177.212 341.102 177.28C341.095 177.348 341.074 177.413 341.04 177.473C341.007 177.532 340.963 177.584 340.909 177.626C340.855 177.668 340.794 177.7 340.728 177.718L339.816 177.98L339.68 178.001Z" fill="white"/>
<path d="M342.07 170.397H337.392C337.01 170.397 336.644 170.246 336.373 169.977C336.102 169.708 335.948 169.342 335.945 168.96V167.492C334.659 166.673 333.673 165.458 333.136 164.031C332.598 162.603 332.538 161.04 332.965 159.576C333.392 158.112 334.282 156.825 335.502 155.91C336.722 154.995 338.206 154.5 339.731 154.5C341.256 154.5 342.74 154.995 343.96 155.91C345.18 156.825 346.071 158.112 346.497 159.576C346.924 161.04 346.864 162.603 346.327 164.031C345.789 165.458 344.803 166.673 343.517 167.492V169.013C343.501 169.385 343.341 169.738 343.072 169.996C342.802 170.253 342.443 170.397 342.07 170.397V170.397ZM339.7 155.536C338.375 155.534 337.088 155.97 336.037 156.777C334.987 157.583 334.233 158.715 333.893 159.995C333.553 161.275 333.646 162.631 334.158 163.853C334.669 165.074 335.571 166.092 336.721 166.747C336.802 166.791 336.869 166.857 336.915 166.936C336.961 167.016 336.985 167.106 336.983 167.198V168.96C336.983 169.013 336.994 169.066 337.015 169.115C337.035 169.164 337.066 169.208 337.104 169.246C337.142 169.283 337.187 169.312 337.237 169.331C337.286 169.351 337.339 169.36 337.392 169.359H342.07C342.123 169.36 342.176 169.351 342.226 169.331C342.275 169.312 342.32 169.283 342.358 169.246C342.397 169.208 342.427 169.164 342.448 169.115C342.468 169.066 342.479 169.013 342.479 168.96V167.156C342.478 167.066 342.501 166.977 342.545 166.898C342.589 166.819 342.653 166.752 342.731 166.705C343.864 166.038 344.747 165.017 345.244 163.799C345.74 162.581 345.822 161.234 345.478 159.964C345.133 158.695 344.381 157.573 343.337 156.773C342.293 155.973 341.015 155.539 339.7 155.536V155.536Z" fill="white"/>
<path d="M345.605 154.957C345.511 154.956 345.42 154.927 345.343 154.874C345.266 154.821 345.207 154.745 345.174 154.658C345.141 154.57 345.136 154.475 345.158 154.384C345.181 154.293 345.231 154.211 345.301 154.149L347.135 152.546C347.228 152.466 347.349 152.427 347.471 152.437C347.593 152.447 347.706 152.505 347.785 152.598C347.827 152.64 347.861 152.69 347.883 152.744C347.906 152.799 347.918 152.858 347.918 152.918C347.918 152.977 347.906 153.036 347.883 153.091C347.861 153.146 347.827 153.195 347.785 153.237L345.951 154.841C345.905 154.884 345.85 154.916 345.79 154.936C345.73 154.956 345.667 154.963 345.605 154.957V154.957Z" fill="white"/>
<path d="M339.646 153.01C339.524 153.01 339.407 152.961 339.32 152.874C339.234 152.788 339.185 152.671 339.185 152.548V149.003C339.175 148.938 339.179 148.871 339.198 148.807C339.216 148.743 339.248 148.684 339.291 148.633C339.335 148.583 339.388 148.542 339.449 148.515C339.509 148.487 339.575 148.473 339.641 148.473C339.708 148.473 339.773 148.487 339.834 148.515C339.894 148.542 339.948 148.583 339.991 148.633C340.034 148.684 340.066 148.743 340.085 148.807C340.103 148.871 340.107 148.938 340.097 149.003V152.548C340.097 152.669 340.05 152.785 339.966 152.871C339.882 152.957 339.767 153.007 339.646 153.01V153.01Z" fill="white"/>
<path d="M348.804 160.396C348.691 160.393 348.583 160.349 348.501 160.271C348.419 160.194 348.368 160.089 348.357 159.977C348.347 159.865 348.378 159.753 348.445 159.662C348.512 159.571 348.61 159.507 348.72 159.484L351.94 158.865C352.059 158.846 352.181 158.874 352.28 158.942C352.38 159.01 352.449 159.114 352.474 159.232C352.496 159.352 352.469 159.475 352.401 159.575C352.332 159.675 352.227 159.744 352.107 159.767L348.888 160.386L348.804 160.396Z" fill="white"/>
<path d="M333.68 154.957C333.568 154.958 333.459 154.917 333.376 154.841L331.552 153.237C331.506 153.199 331.469 153.152 331.441 153.099C331.414 153.046 331.397 152.988 331.392 152.929C331.387 152.869 331.394 152.809 331.413 152.752C331.431 152.696 331.461 152.643 331.5 152.598C331.579 152.505 331.692 152.447 331.814 152.437C331.936 152.427 332.056 152.466 332.149 152.546L333.984 154.149C334.07 154.236 334.118 154.352 334.118 154.474C334.118 154.596 334.07 154.713 333.984 154.799C333.907 154.889 333.798 154.946 333.68 154.957Z" fill="white"/>
<path d="M349.28 167.31C349.194 167.311 349.11 167.286 349.039 167.236L347.656 166.377C347.556 166.31 347.485 166.208 347.458 166.092C347.43 165.975 347.449 165.852 347.509 165.748C347.541 165.696 347.583 165.651 347.633 165.616C347.682 165.58 347.738 165.555 347.798 165.541C347.857 165.527 347.919 165.526 347.979 165.536C348.039 165.546 348.097 165.568 348.148 165.601L349.521 166.461C349.623 166.526 349.696 166.628 349.723 166.745C349.751 166.863 349.731 166.986 349.668 167.09C349.626 167.155 349.569 167.209 349.501 167.247C349.434 167.286 349.358 167.307 349.28 167.31Z" fill="white"/>
<path d="M330.024 167.088C329.945 167.088 329.866 167.069 329.796 167.03C329.726 166.992 329.668 166.935 329.626 166.867C329.566 166.764 329.548 166.641 329.575 166.524C329.602 166.407 329.673 166.305 329.773 166.239L331.156 165.379C331.258 165.334 331.372 165.328 331.479 165.36C331.585 165.393 331.676 165.463 331.734 165.557C331.793 165.652 331.816 165.764 331.798 165.874C331.78 165.984 331.724 166.083 331.639 166.155L330.265 167.014C330.194 167.061 330.11 167.087 330.024 167.088V167.088Z" fill="white"/>
<path d="M330.483 160.394H330.399L327.179 159.775C327.06 159.752 326.954 159.683 326.886 159.583C326.817 159.483 326.79 159.359 326.812 159.24C326.837 159.122 326.907 159.018 327.006 158.95C327.106 158.882 327.228 158.854 327.347 158.873L330.566 159.492C330.677 159.515 330.775 159.579 330.841 159.669C330.908 159.76 330.939 159.873 330.929 159.985C330.919 160.097 330.868 160.202 330.785 160.279C330.703 160.356 330.595 160.401 330.483 160.404V160.394Z" fill="white"/>
<path d="M280 238.348H25.4373C23.4181 238.348 21.7812 239.985 21.7812 242.004C21.7812 244.023 23.4181 245.66 25.4373 245.66H280C282.019 245.66 283.656 244.023 283.656 242.004C283.656 239.985 282.019 238.348 280 238.348Z" fill="#D7D7D7" fill-opacity="0.47"/>
<path d="M280 264.111H25.4373C23.4181 264.111 21.7812 265.748 21.7812 267.767C21.7812 269.787 23.4181 271.423 25.4373 271.423H280C282.019 271.423 283.656 269.787 283.656 267.767C283.656 265.748 282.019 264.111 280 264.111Z" fill="#D7D7D7" fill-opacity="0.47"/>
<path d="M280 289.877H25.4373C23.4181 289.877 21.7812 291.514 21.7812 293.533C21.7812 295.552 23.4181 297.189 25.4373 297.189H280C282.019 297.189 283.656 295.552 283.656 293.533C283.656 291.514 282.019 289.877 280 289.877Z" fill="#D7D7D7" fill-opacity="0.47"/>
<path d="M378.657 315.645H25.4373C23.4181 315.645 21.7812 317.281 21.7812 319.301C21.7812 321.32 23.4181 322.957 25.4373 322.957H378.657C380.676 322.957 382.313 321.32 382.313 319.301C382.313 317.281 380.676 315.645 378.657 315.645Z" fill="#D7D7D7" fill-opacity="0.47"/>
<path d="M377.621 238.729H301.096C298.89 238.729 297.102 240.367 297.102 242.388V293.444C297.102 295.465 298.89 297.104 301.096 297.104H377.621C379.827 297.104 381.615 295.465 381.615 293.444V242.388C381.615 240.367 379.827 238.729 377.621 238.729Z" fill="#D7D7D7" fill-opacity="0.47"/>
</svg>
