<svg width="1148" height="387" viewBox="0 0 1148 387" fill="none" xmlns="http://www.w3.org/2000/svg">
<path d="M1029.94 64.1269L1025.86 57.0589L1034 57.112L1029.94 64.1269ZM1030.33 262.508L1034.4 269.576L1026.27 269.523L1030.33 262.508ZM116.132 123.892L112.058 116.824L120.19 116.877L116.132 123.892ZM116.346 325.578L120.441 332.634L112.309 332.606L116.346 325.578ZM999.692 4.02184L999.687 3.31768L999.692 4.02184ZM116.036 33.3967L115.332 33.3921L116.036 33.3967ZM116.463 353.659L115.759 353.657L116.463 353.659ZM145.82 2.88976L999.687 3.31768L999.697 4.72603L145.83 4.29809L145.82 2.88976ZM146.672 383.056L1000.63 383.484L1000.64 384.893L146.682 384.465L146.672 383.056ZM1030.61 34.2206L1030.64 57.7942L1029.23 57.785L1029.2 34.2114L1030.61 34.2206ZM1029.72 354.381L1029.63 268.84L1031.04 268.85L1031.13 354.39L1029.72 354.381ZM116.74 33.4013L116.829 117.559L115.421 117.55L115.332 33.3921L116.74 33.4013ZM115.759 353.657L115.668 331.914L117.077 331.918L117.167 353.662L115.759 353.657ZM1000.63 383.484C1016.74 383.492 1029.74 370.491 1029.72 354.381L1031.13 354.39C1031.15 371.274 1017.53 384.901 1000.64 384.893L1000.63 383.484ZM999.687 3.31768C1016.72 3.32624 1030.59 17.1921 1030.61 34.2206L1029.2 34.2114C1029.18 17.964 1015.95 4.73417 999.697 4.72603L999.687 3.31768ZM145.83 4.29809C129.719 4.29004 116.723 17.2917 116.74 33.4013L115.332 33.3921C115.314 16.508 128.934 2.8813 145.82 2.88976L145.83 4.29809ZM146.682 384.465C129.689 384.456 115.829 370.648 115.759 353.657L117.167 353.662C117.235 369.874 130.458 383.048 146.672 383.056L146.682 384.465Z" fill="#FBB640"/>
<g filter="url(#filter0_d)">
<circle cx="115.302" cy="193.878" r="95.3015" fill="#740B99"/>
</g>
<g filter="url(#filter1_d)">
<rect x="267.877" y="153.973" width="180.275" height="79.8092" rx="14.084" fill="#740B99"/>
</g>
<g filter="url(#filter2_d)">
<rect x="522.328" y="153.973" width="93.8931" height="79.8092" rx="14.084" fill="#740B99"/>
</g>
<g filter="url(#filter3_d)">
<rect x="768.328" y="153.973" width="93.8931" height="79.8092" rx="14.084" fill="#740B99"/>
</g>
<g filter="url(#filter4_d)">
<rect x="616.219" y="45.9961" width="152.107" height="79.8092" rx="14.084" fill="#740B99"/>
</g>
<g filter="url(#filter5_d)">
<rect x="616.219" y="261.949" width="152.107" height="79.8092" rx="14.084" fill="#740B99"/>
</g>
<path d="M91.4186 201.238H85.9258L84.878 203.773H82.0725L87.3455 191.943H90.0496L95.3396 203.773H92.4664L91.4186 201.238ZM90.5566 199.16L88.6807 194.63L86.8047 199.16H90.5566ZM105.678 194.681V202.252C105.678 203.92 105.245 205.159 104.377 205.971C103.51 206.782 102.242 207.187 100.574 207.187C99.6956 207.187 98.8618 207.08 98.0731 206.866C97.2844 206.652 96.6309 206.342 96.1126 205.937L97.1605 204.044C97.5436 204.359 98.0281 204.607 98.614 204.787C99.1998 204.979 99.7857 205.075 100.372 205.075C101.284 205.075 101.955 204.866 102.383 204.449C102.822 204.044 103.042 203.424 103.042 202.59V202.202C102.355 202.957 101.397 203.334 100.169 203.334C99.3351 203.334 98.5689 203.154 97.8703 202.793C97.183 202.421 96.6366 201.903 96.2309 201.238C95.8253 200.574 95.6225 199.807 95.6225 198.94C95.6225 198.072 95.8253 197.306 96.2309 196.641C96.6366 195.977 97.183 195.464 97.8703 195.103C98.5689 194.732 99.3351 194.546 100.169 194.546C101.487 194.546 102.49 194.979 103.177 195.847V194.681H105.678ZM100.693 201.171C101.391 201.171 101.96 200.968 102.4 200.562C102.85 200.145 103.076 199.605 103.076 198.94C103.076 198.275 102.85 197.74 102.4 197.334C101.96 196.917 101.391 196.709 100.693 196.709C99.9942 196.709 99.4196 196.917 98.9689 197.334C98.5182 197.74 98.2928 198.275 98.2928 198.94C98.2928 199.605 98.5182 200.145 98.9689 200.562C99.4196 200.968 99.9942 201.171 100.693 201.171ZM117.039 199.261C117.039 199.295 117.022 199.531 116.988 199.971H110.11C110.234 200.534 110.527 200.979 110.989 201.306C111.451 201.633 112.025 201.796 112.712 201.796C113.186 201.796 113.603 201.728 113.963 201.593C114.335 201.447 114.679 201.221 114.994 200.917L116.397 202.438C115.541 203.419 114.29 203.909 112.645 203.909C111.62 203.909 110.713 203.711 109.924 203.317C109.135 202.911 108.527 202.354 108.099 201.644C107.67 200.934 107.456 200.129 107.456 199.227C107.456 198.337 107.665 197.537 108.082 196.827C108.51 196.106 109.09 195.548 109.822 195.154C110.566 194.748 111.394 194.546 112.307 194.546C113.197 194.546 114.003 194.737 114.724 195.12C115.445 195.503 116.008 196.055 116.414 196.777C116.831 197.486 117.039 198.314 117.039 199.261ZM112.324 196.54C111.727 196.54 111.225 196.709 110.82 197.047C110.414 197.385 110.166 197.847 110.076 198.433H114.555C114.465 197.858 114.217 197.402 113.811 197.064C113.405 196.715 112.91 196.54 112.324 196.54ZM124.321 194.546C125.448 194.546 126.355 194.884 127.042 195.56C127.741 196.236 128.09 197.238 128.09 198.568V203.773H125.453V198.974C125.453 198.253 125.296 197.717 124.98 197.368C124.665 197.007 124.208 196.827 123.611 196.827C122.946 196.827 122.417 197.036 122.022 197.453C121.628 197.858 121.431 198.467 121.431 199.278V203.773H118.794V194.681H121.313V195.746C121.662 195.362 122.096 195.07 122.614 194.867C123.132 194.653 123.701 194.546 124.321 194.546ZM134.973 203.909C134.004 203.909 133.131 203.711 132.353 203.317C131.587 202.911 130.984 202.354 130.545 201.644C130.117 200.934 129.903 200.129 129.903 199.227C129.903 198.326 130.117 197.52 130.545 196.81C130.984 196.1 131.587 195.548 132.353 195.154C133.131 194.748 134.004 194.546 134.973 194.546C135.931 194.546 136.764 194.748 137.474 195.154C138.195 195.548 138.719 196.117 139.046 196.861L137.001 197.96C136.528 197.126 135.846 196.709 134.956 196.709C134.269 196.709 133.7 196.934 133.249 197.385C132.798 197.836 132.573 198.45 132.573 199.227C132.573 200.005 132.798 200.619 133.249 201.069C133.7 201.52 134.269 201.745 134.956 201.745C135.857 201.745 136.539 201.328 137.001 200.495L139.046 201.61C138.719 202.331 138.195 202.895 137.474 203.3C136.764 203.706 135.931 203.909 134.973 203.909ZM149.457 194.681L145.35 204.331C144.933 205.379 144.415 206.117 143.795 206.545C143.187 206.973 142.449 207.187 141.581 207.187C141.108 207.187 140.64 207.114 140.178 206.968C139.717 206.821 139.339 206.618 139.046 206.359L140.009 204.483C140.212 204.664 140.443 204.804 140.702 204.906C140.973 205.007 141.238 205.058 141.497 205.058C141.857 205.058 142.15 204.968 142.376 204.787C142.601 204.618 142.804 204.331 142.984 203.926L143.018 203.841L139.08 194.681H141.801L144.353 200.85L146.922 194.681H149.457Z" fill="#FBB640"/>
<g filter="url(#filter6_d)">
<circle cx="1031.7" cy="193.878" r="95.3015" fill="#740B99"/>
</g>
<path d="M997.37 191.169C998.418 191.169 999.325 191.344 1000.09 191.693C1000.87 192.043 1001.47 192.538 1001.88 193.181C1002.3 193.823 1002.51 194.583 1002.51 195.462C1002.51 196.33 1002.3 197.09 1001.88 197.744C1001.47 198.386 1000.87 198.882 1000.09 199.231C999.325 199.569 998.418 199.738 997.37 199.738H994.987V203H992.249V191.169H997.37ZM997.218 197.507C998.04 197.507 998.665 197.333 999.094 196.983C999.522 196.623 999.736 196.116 999.736 195.462C999.736 194.797 999.522 194.29 999.094 193.941C998.665 193.581 998.04 193.4 997.218 193.4H994.987V197.507H997.218ZM1013.6 193.907V203H1011.1V201.918C1010.75 202.313 1010.33 202.617 1009.85 202.831C1009.37 203.034 1008.84 203.135 1008.28 203.135C1007.08 203.135 1006.14 202.792 1005.44 202.104C1004.74 201.417 1004.39 200.397 1004.39 199.045V193.907H1007.03V198.657C1007.03 200.121 1007.64 200.854 1008.87 200.854C1009.5 200.854 1010.01 200.651 1010.39 200.245C1010.77 199.828 1010.97 199.214 1010.97 198.403V193.907H1013.6ZM1021.42 193.772C1022.26 193.772 1023.03 193.969 1023.72 194.364C1024.42 194.747 1024.96 195.293 1025.36 196.003C1025.75 196.702 1025.95 197.519 1025.95 198.454C1025.95 199.389 1025.75 200.211 1025.36 200.921C1024.96 201.62 1024.42 202.166 1023.72 202.561C1023.03 202.944 1022.26 203.135 1021.42 203.135C1020.17 203.135 1019.22 202.741 1018.56 201.952V203H1016.04V190.46H1018.68V194.871C1019.35 194.138 1020.26 193.772 1021.42 193.772ZM1020.96 200.972C1021.64 200.972 1022.19 200.747 1022.62 200.296C1023.06 199.834 1023.28 199.22 1023.28 198.454C1023.28 197.688 1023.06 197.079 1022.62 196.628C1022.19 196.166 1021.64 195.935 1020.96 195.935C1020.29 195.935 1019.73 196.166 1019.29 196.628C1018.86 197.079 1018.65 197.688 1018.65 198.454C1018.65 199.22 1018.86 199.834 1019.29 200.296C1019.73 200.747 1020.29 200.972 1020.96 200.972ZM1027.71 190.46H1030.35V203H1027.71V190.46ZM1032.8 193.907H1035.43V203H1032.8V193.907ZM1034.11 192.64C1033.63 192.64 1033.24 192.499 1032.93 192.217C1032.63 191.936 1032.48 191.586 1032.48 191.169C1032.48 190.753 1032.63 190.403 1032.93 190.122C1033.24 189.84 1033.63 189.699 1034.11 189.699C1034.6 189.699 1034.99 189.834 1035.3 190.105C1035.6 190.375 1035.75 190.713 1035.75 191.119C1035.75 191.558 1035.6 191.924 1035.3 192.217C1034.99 192.499 1034.6 192.64 1034.11 192.64ZM1040.94 203.135C1040.18 203.135 1039.45 203.045 1038.72 202.865C1038 202.673 1037.43 202.437 1037 202.155L1037.88 200.262C1038.29 200.521 1038.78 200.735 1039.35 200.904C1039.92 201.062 1040.49 201.141 1041.04 201.141C1042.16 201.141 1042.71 200.865 1042.71 200.313C1042.71 200.054 1042.56 199.868 1042.26 199.755C1041.95 199.642 1041.49 199.547 1040.85 199.468C1040.11 199.355 1039.5 199.225 1039.01 199.079C1038.53 198.933 1038.11 198.673 1037.74 198.302C1037.4 197.93 1037.22 197.4 1037.22 196.713C1037.22 196.138 1037.38 195.631 1037.71 195.192C1038.05 194.741 1038.53 194.392 1039.16 194.144C1039.81 193.896 1040.56 193.772 1041.43 193.772C1042.07 193.772 1042.71 193.845 1043.34 193.992C1043.98 194.127 1044.51 194.319 1044.93 194.567L1044.05 196.443C1043.25 195.992 1042.38 195.766 1041.43 195.766C1040.87 195.766 1040.44 195.845 1040.16 196.003C1039.88 196.161 1039.74 196.364 1039.74 196.612C1039.74 196.893 1039.89 197.09 1040.2 197.203C1040.5 197.316 1040.98 197.423 1041.65 197.524C1042.39 197.648 1043 197.783 1043.47 197.93C1043.95 198.065 1044.36 198.318 1044.71 198.69C1045.06 199.062 1045.23 199.58 1045.23 200.245C1045.23 200.809 1045.06 201.31 1044.72 201.749C1044.39 202.189 1043.89 202.532 1043.24 202.78C1042.6 203.017 1041.83 203.135 1040.94 203.135ZM1052.38 193.772C1053.51 193.772 1054.42 194.11 1055.11 194.786C1055.8 195.462 1056.15 196.465 1056.15 197.795V203H1053.52V198.2C1053.52 197.479 1053.36 196.944 1053.04 196.595C1052.73 196.234 1052.27 196.054 1051.68 196.054C1051.01 196.054 1050.48 196.262 1050.09 196.679C1049.69 197.085 1049.49 197.693 1049.49 198.504V203H1046.86V190.46H1049.49V194.854C1049.84 194.505 1050.27 194.24 1050.76 194.059C1051.26 193.868 1051.8 193.772 1052.38 193.772ZM1067.55 198.487C1067.55 198.521 1067.53 198.758 1067.5 199.197H1060.62C1060.74 199.761 1061.04 200.206 1061.5 200.532C1061.96 200.859 1062.54 201.023 1063.22 201.023C1063.7 201.023 1064.11 200.955 1064.47 200.82C1064.85 200.673 1065.19 200.448 1065.5 200.144L1066.91 201.665C1066.05 202.645 1064.8 203.135 1063.16 203.135C1062.13 203.135 1061.22 202.938 1060.43 202.544C1059.65 202.138 1059.04 201.58 1058.61 200.871C1058.18 200.161 1057.97 199.355 1057.97 198.454C1057.97 197.564 1058.18 196.764 1058.59 196.054C1059.02 195.333 1059.6 194.775 1060.33 194.381C1061.08 193.975 1061.9 193.772 1062.82 193.772C1063.71 193.772 1064.51 193.964 1065.23 194.347C1065.96 194.73 1066.52 195.282 1066.92 196.003C1067.34 196.713 1067.55 197.541 1067.55 198.487ZM1062.83 195.766C1062.24 195.766 1061.74 195.935 1061.33 196.273C1060.92 196.612 1060.68 197.073 1060.59 197.659H1065.06C1064.97 197.085 1064.73 196.628 1064.32 196.29C1063.92 195.941 1063.42 195.766 1062.83 195.766ZM1071.82 195.107C1072.14 194.668 1072.56 194.336 1073.09 194.11C1073.63 193.885 1074.25 193.772 1074.95 193.772V196.206C1074.66 196.183 1074.46 196.172 1074.36 196.172C1073.6 196.172 1073.01 196.386 1072.58 196.814C1072.16 197.231 1071.94 197.862 1071.94 198.707V203H1069.3V193.907H1071.82V195.107Z" fill="#FBB640"/>
<path d="M551.177 191.169H556.551C557.835 191.169 558.968 191.417 559.948 191.913C560.94 192.398 561.706 193.085 562.247 193.975C562.799 194.865 563.075 195.902 563.075 197.085C563.075 198.268 562.799 199.304 562.247 200.194C561.706 201.085 560.94 201.778 559.948 202.273C558.968 202.758 557.835 203 556.551 203H551.177V191.169ZM556.416 200.752C557.599 200.752 558.54 200.425 559.238 199.772C559.948 199.107 560.303 198.211 560.303 197.085C560.303 195.958 559.948 195.068 559.238 194.414C558.54 193.75 557.599 193.417 556.416 193.417H553.915V200.752H556.416ZM569.027 203.203C568.092 203.203 567.185 203.079 566.306 202.831C565.438 202.572 564.74 202.239 564.21 201.834L565.14 199.772C565.647 200.144 566.249 200.442 566.948 200.668C567.646 200.893 568.345 201.006 569.044 201.006C569.821 201.006 570.396 200.893 570.767 200.668C571.139 200.431 571.325 200.121 571.325 199.738C571.325 199.456 571.213 199.225 570.987 199.045C570.773 198.854 570.491 198.702 570.142 198.589C569.804 198.476 569.342 198.352 568.756 198.217C567.855 198.003 567.117 197.789 566.542 197.575C565.968 197.361 565.472 197.017 565.055 196.544C564.649 196.071 564.447 195.44 564.447 194.651C564.447 193.964 564.633 193.344 565.004 192.792C565.376 192.229 565.934 191.784 566.677 191.457C567.432 191.13 568.351 190.967 569.432 190.967C570.187 190.967 570.925 191.057 571.646 191.237C572.367 191.417 572.998 191.676 573.539 192.015L572.694 194.093C571.601 193.474 570.508 193.164 569.415 193.164C568.649 193.164 568.08 193.288 567.708 193.536C567.348 193.783 567.168 194.11 567.168 194.516C567.168 194.921 567.376 195.226 567.793 195.428C568.221 195.62 568.869 195.812 569.737 196.003C570.638 196.217 571.376 196.431 571.951 196.645C572.525 196.859 573.015 197.197 573.421 197.659C573.838 198.121 574.046 198.747 574.046 199.535C574.046 200.211 573.855 200.831 573.472 201.394C573.1 201.947 572.536 202.386 571.782 202.713C571.027 203.039 570.108 203.203 569.027 203.203ZM581.038 191.169C582.086 191.169 582.993 191.344 583.759 191.693C584.536 192.043 585.134 192.538 585.551 193.181C585.967 193.823 586.176 194.583 586.176 195.462C586.176 196.33 585.967 197.09 585.551 197.744C585.134 198.386 584.536 198.882 583.759 199.231C582.993 199.569 582.086 199.738 581.038 199.738H578.655V203H575.917V191.169H581.038ZM580.886 197.507C581.708 197.507 582.334 197.333 582.762 196.983C583.19 196.623 583.404 196.116 583.404 195.462C583.404 194.797 583.19 194.29 582.762 193.941C582.334 193.581 581.708 193.4 580.886 193.4H578.655V197.507H580.886Z" fill="white"/>
<path d="M310.05 193.467H306.684V191.484H315.848V193.467H312.483V202H310.05V193.467ZM319.055 194.984C319.335 194.594 319.711 194.298 320.182 194.098C320.662 193.898 321.213 193.797 321.834 193.797V195.961C321.574 195.941 321.399 195.931 321.308 195.931C320.637 195.931 320.112 196.121 319.731 196.502C319.35 196.872 319.16 197.433 319.16 198.184V202H316.817V193.918H319.055V194.984ZM326.444 193.797C327.696 193.797 328.657 194.098 329.328 194.699C329.999 195.29 330.335 196.186 330.335 197.388V202H328.141V200.993C327.701 201.745 326.879 202.12 325.678 202.12C325.057 202.12 324.516 202.015 324.055 201.805C323.604 201.594 323.259 201.304 323.018 200.933C322.778 200.563 322.658 200.142 322.658 199.671C322.658 198.92 322.938 198.329 323.499 197.899C324.07 197.468 324.946 197.253 326.128 197.253H327.991C327.991 196.742 327.836 196.351 327.525 196.081C327.215 195.801 326.749 195.66 326.128 195.66C325.698 195.66 325.272 195.73 324.851 195.871C324.441 196.001 324.09 196.181 323.8 196.411L322.958 194.774C323.399 194.464 323.925 194.223 324.536 194.053C325.157 193.883 325.793 193.797 326.444 193.797ZM326.263 200.543C326.664 200.543 327.02 200.453 327.33 200.272C327.641 200.082 327.861 199.807 327.991 199.446V198.62H326.384C325.422 198.62 324.941 198.935 324.941 199.566C324.941 199.867 325.057 200.107 325.287 200.287C325.527 200.458 325.853 200.543 326.263 200.543ZM340.776 190.853V202H338.538V201.069C337.957 201.77 337.116 202.12 336.014 202.12C335.253 202.12 334.562 201.95 333.941 201.609C333.33 201.269 332.849 200.783 332.499 200.152C332.148 199.521 331.973 198.79 331.973 197.959C331.973 197.128 332.148 196.396 332.499 195.765C332.849 195.135 333.33 194.649 333.941 194.308C334.562 193.968 335.253 193.797 336.014 193.797C337.046 193.797 337.852 194.123 338.433 194.774V190.853H340.776ZM336.42 200.197C337.011 200.197 337.501 199.997 337.892 199.596C338.282 199.186 338.478 198.64 338.478 197.959C338.478 197.278 338.282 196.737 337.892 196.336C337.501 195.926 337.011 195.72 336.42 195.72C335.819 195.72 335.323 195.926 334.932 196.336C334.542 196.737 334.346 197.278 334.346 197.959C334.346 198.64 334.542 199.186 334.932 199.596C335.323 199.997 335.819 200.197 336.42 200.197ZM342.945 193.918H345.289V202H342.945V193.918ZM344.117 192.791C343.686 192.791 343.336 192.666 343.066 192.415C342.795 192.165 342.66 191.855 342.66 191.484C342.66 191.113 342.795 190.803 343.066 190.553C343.336 190.302 343.686 190.177 344.117 190.177C344.548 190.177 344.898 190.297 345.169 190.538C345.439 190.778 345.574 191.078 345.574 191.439C345.574 191.829 345.439 192.155 345.169 192.415C344.898 192.666 344.548 192.791 344.117 192.791ZM352.376 193.797C353.378 193.797 354.184 194.098 354.795 194.699C355.416 195.3 355.727 196.191 355.727 197.373V202H353.383V197.733C353.383 197.093 353.243 196.617 352.962 196.306C352.682 195.986 352.276 195.826 351.745 195.826C351.155 195.826 350.684 196.011 350.333 196.381C349.983 196.742 349.808 197.283 349.808 198.004V202H347.464V193.918H349.702V194.864C350.013 194.524 350.398 194.263 350.859 194.083C351.32 193.893 351.826 193.797 352.376 193.797ZM366.277 193.918V200.648C366.277 202.13 365.891 203.232 365.12 203.953C364.349 204.674 363.222 205.035 361.74 205.035C360.958 205.035 360.217 204.939 359.516 204.749C358.815 204.559 358.234 204.283 357.774 203.923L358.705 202.24C359.046 202.521 359.476 202.741 359.997 202.901C360.518 203.072 361.039 203.157 361.559 203.157C362.371 203.157 362.967 202.971 363.347 202.601C363.738 202.24 363.933 201.69 363.933 200.948V200.603C363.322 201.274 362.471 201.609 361.379 201.609C360.638 201.609 359.957 201.449 359.336 201.129C358.725 200.798 358.239 200.337 357.879 199.747C357.518 199.156 357.338 198.475 357.338 197.703C357.338 196.932 357.518 196.251 357.879 195.66C358.239 195.069 358.725 194.614 359.336 194.293C359.957 193.963 360.638 193.797 361.379 193.797C362.551 193.797 363.442 194.183 364.053 194.954V193.918H366.277ZM361.845 199.686C362.466 199.686 362.972 199.506 363.362 199.146C363.763 198.775 363.963 198.294 363.963 197.703C363.963 197.113 363.763 196.637 363.362 196.276C362.972 195.906 362.466 195.72 361.845 195.72C361.224 195.72 360.713 195.906 360.312 196.276C359.912 196.637 359.712 197.113 359.712 197.703C359.712 198.294 359.912 198.775 360.312 199.146C360.713 199.506 361.224 199.686 361.845 199.686ZM380.945 190.853V202H378.707V201.069C378.126 201.77 377.284 202.12 376.183 202.12C375.422 202.12 374.73 201.95 374.11 201.609C373.499 201.269 373.018 200.783 372.667 200.152C372.317 199.521 372.142 198.79 372.142 197.959C372.142 197.128 372.317 196.396 372.667 195.765C373.018 195.135 373.499 194.649 374.11 194.308C374.73 193.968 375.422 193.797 376.183 193.797C377.214 193.797 378.02 194.123 378.601 194.774V190.853H380.945ZM376.588 200.197C377.179 200.197 377.67 199.997 378.061 199.596C378.451 199.186 378.646 198.64 378.646 197.959C378.646 197.278 378.451 196.737 378.061 196.336C377.67 195.926 377.179 195.72 376.588 195.72C375.987 195.72 375.492 195.926 375.101 196.336C374.71 196.737 374.515 197.278 374.515 197.959C374.515 198.64 374.71 199.186 375.101 199.596C375.492 199.997 375.987 200.197 376.588 200.197ZM391.031 197.989C391.031 198.019 391.016 198.229 390.986 198.62H384.872C384.982 199.121 385.242 199.516 385.653 199.807C386.063 200.097 386.574 200.242 387.185 200.242C387.606 200.242 387.976 200.182 388.297 200.062C388.627 199.932 388.933 199.732 389.213 199.461L390.46 200.813C389.699 201.685 388.587 202.12 387.125 202.12C386.214 202.12 385.407 201.945 384.706 201.594C384.005 201.234 383.465 200.738 383.084 200.107C382.703 199.476 382.513 198.76 382.513 197.959C382.513 197.168 382.698 196.457 383.069 195.826C383.449 195.185 383.965 194.689 384.616 194.338C385.277 193.978 386.013 193.797 386.825 193.797C387.616 193.797 388.332 193.968 388.973 194.308C389.614 194.649 390.115 195.14 390.475 195.781C390.846 196.411 391.031 197.148 391.031 197.989ZM386.84 195.57C386.309 195.57 385.863 195.72 385.503 196.021C385.142 196.321 384.922 196.732 384.842 197.253H388.823C388.743 196.742 388.522 196.336 388.162 196.036C387.801 195.725 387.36 195.57 386.84 195.57ZM395.31 202.12C394.639 202.12 393.983 202.04 393.342 201.88C392.701 201.71 392.191 201.499 391.81 201.249L392.591 199.566C392.952 199.797 393.388 199.987 393.898 200.137C394.409 200.277 394.91 200.347 395.401 200.347C396.392 200.347 396.888 200.102 396.888 199.611C396.888 199.381 396.753 199.216 396.482 199.116C396.212 199.015 395.796 198.93 395.235 198.86C394.574 198.76 394.028 198.645 393.598 198.515C393.167 198.384 392.792 198.154 392.471 197.824C392.161 197.493 392.005 197.022 392.005 196.411C392.005 195.901 392.151 195.45 392.441 195.059C392.742 194.659 393.172 194.348 393.733 194.128C394.304 193.908 394.975 193.797 395.746 193.797C396.317 193.797 396.883 193.863 397.444 193.993C398.015 194.113 398.485 194.283 398.856 194.504L398.075 196.171C397.364 195.771 396.587 195.57 395.746 195.57C395.245 195.57 394.87 195.64 394.619 195.781C394.369 195.921 394.244 196.101 394.244 196.321C394.244 196.572 394.379 196.747 394.649 196.847C394.92 196.947 395.351 197.042 395.941 197.133C396.602 197.243 397.143 197.363 397.564 197.493C397.985 197.613 398.35 197.839 398.661 198.169C398.971 198.5 399.126 198.96 399.126 199.551C399.126 200.052 398.976 200.498 398.676 200.888C398.375 201.279 397.934 201.584 397.354 201.805C396.783 202.015 396.102 202.12 395.31 202.12ZM404.043 198.83L402.916 199.942V202H400.572V190.853H402.916V197.163L406.341 193.918H409.135L405.77 197.343L409.436 202H406.596L404.043 198.83Z" fill="white"/>
<path d="M648.959 89.6665H644.077L643.145 91.9199H640.652L645.339 81.4039H647.742L652.445 91.9199H649.891L648.959 89.6665ZM648.193 87.8187L646.526 83.7925L644.858 87.8187H648.193ZM661.53 80.7729V91.9199H659.291V90.9885C658.71 91.6896 657.869 92.0401 656.767 92.0401C656.006 92.0401 655.315 91.8698 654.694 91.5293C654.083 91.1888 653.603 90.7031 653.252 90.0721C652.901 89.4411 652.726 88.71 652.726 87.8788C652.726 87.0475 652.901 86.3164 653.252 85.6854C653.603 85.0545 654.083 84.5687 654.694 84.2282C655.315 83.8877 656.006 83.7174 656.767 83.7174C657.799 83.7174 658.605 84.0429 659.186 84.6939V80.7729H661.53ZM657.173 90.1172C657.764 90.1172 658.255 89.9169 658.645 89.5163C659.036 89.1056 659.231 88.5598 659.231 87.8788C659.231 87.1977 659.036 86.6569 658.645 86.2563C658.255 85.8457 657.764 85.6403 657.173 85.6403C656.572 85.6403 656.076 85.8457 655.686 86.2563C655.295 86.6569 655.1 87.1977 655.1 87.8788C655.1 88.5598 655.295 89.1056 655.686 89.5163C656.076 89.9169 656.572 90.1172 657.173 90.1172ZM675.87 87.9088C675.87 87.9389 675.855 88.1492 675.825 88.5398H669.711C669.821 89.0405 670.081 89.4361 670.492 89.7266C670.903 90.017 671.413 90.1622 672.024 90.1622C672.445 90.1622 672.816 90.1022 673.136 89.982C673.467 89.8518 673.772 89.6515 674.052 89.3811L675.299 90.7331C674.538 91.6044 673.427 92.0401 671.964 92.0401C671.053 92.0401 670.247 91.8648 669.546 91.5143C668.845 91.1538 668.304 90.658 667.923 90.027C667.543 89.3961 667.352 88.68 667.352 87.8788C667.352 87.0876 667.538 86.3765 667.908 85.7455C668.289 85.1045 668.804 84.6088 669.455 84.2582C670.116 83.8977 670.853 83.7174 671.664 83.7174C672.455 83.7174 673.171 83.8877 673.812 84.2282C674.453 84.5687 674.954 85.0595 675.314 85.7004C675.685 86.3314 675.87 87.0675 675.87 87.9088ZM671.679 85.4901C671.148 85.4901 670.702 85.6403 670.342 85.9408C669.981 86.2413 669.761 86.6519 669.681 87.1727H673.662C673.582 86.6619 673.361 86.2563 673.001 85.9558C672.64 85.6454 672.2 85.4901 671.679 85.4901ZM682.348 91.9199L680.576 89.4411L678.743 91.9199H676.189L679.299 87.8487L676.294 83.8376H678.923L680.636 86.1962L682.393 83.8376H684.887L681.883 87.7886L685.007 91.9199H682.348ZM689.802 92.0401C688.94 92.0401 688.164 91.8648 687.473 91.5143C686.792 91.1538 686.256 90.658 685.866 90.027C685.485 89.3961 685.295 88.68 685.295 87.8788C685.295 87.0775 685.485 86.3614 685.866 85.7305C686.256 85.0995 686.792 84.6088 687.473 84.2582C688.164 83.8977 688.94 83.7174 689.802 83.7174C690.653 83.7174 691.394 83.8977 692.025 84.2582C692.666 84.6088 693.132 85.1145 693.422 85.7756L691.604 86.752C691.184 86.0109 690.578 85.6403 689.787 85.6403C689.176 85.6403 688.67 85.8407 688.269 86.2413C687.869 86.6419 687.668 87.1877 687.668 87.8788C687.668 88.5698 687.869 89.1156 688.269 89.5163C688.67 89.9169 689.176 90.1172 689.787 90.1172C690.588 90.1172 691.194 89.7466 691.604 89.0055L693.422 89.997C693.132 90.638 692.666 91.1387 692.025 91.4993C691.394 91.8598 690.653 92.0401 689.802 92.0401ZM699.625 83.7174C700.627 83.7174 701.433 84.0179 702.044 84.6188C702.665 85.2197 702.975 86.1111 702.975 87.2929V91.9199H700.632V87.6534C700.632 87.0124 700.492 86.5367 700.211 86.2262C699.931 85.9058 699.525 85.7455 698.994 85.7455C698.403 85.7455 697.933 85.9308 697.582 86.3014C697.232 86.6619 697.056 87.2027 697.056 87.9238V91.9199H694.713V80.7729H697.056V84.6789C697.367 84.3684 697.742 84.1331 698.183 83.9728C698.624 83.8025 699.104 83.7174 699.625 83.7174ZM708.36 83.7174C709.612 83.7174 710.573 84.0179 711.244 84.6188C711.915 85.2097 712.251 86.1061 712.251 87.3079V91.9199H710.057V90.9134C709.617 91.6645 708.795 92.0401 707.593 92.0401C706.973 92.0401 706.432 91.9349 705.971 91.7246C705.52 91.5143 705.175 91.2239 704.934 90.8533C704.694 90.4827 704.574 90.0621 704.574 89.5914C704.574 88.8402 704.854 88.2493 705.415 87.8187C705.986 87.388 706.862 87.1727 708.044 87.1727H709.907C709.907 86.6619 709.752 86.2713 709.441 86.0009C709.131 85.7205 708.665 85.5803 708.044 85.5803C707.613 85.5803 707.188 85.6504 706.767 85.7906C706.357 85.9208 706.006 86.1011 705.716 86.3314L704.874 84.6939C705.315 84.3834 705.841 84.1431 706.452 83.9728C707.073 83.8025 707.709 83.7174 708.36 83.7174ZM708.179 90.4627C708.58 90.4627 708.936 90.3726 709.246 90.1923C709.556 90.002 709.777 89.7266 709.907 89.366V88.5398H708.3C707.338 88.5398 706.857 88.8553 706.857 89.4862C706.857 89.7867 706.973 90.027 707.203 90.2073C707.443 90.3776 707.769 90.4627 708.179 90.4627ZM719.284 83.7174C720.286 83.7174 721.092 84.0179 721.703 84.6188C722.324 85.2197 722.634 86.1111 722.634 87.2929V91.9199H720.291V87.6534C720.291 87.0124 720.15 86.5367 719.87 86.2262C719.59 85.9058 719.184 85.7455 718.653 85.7455C718.062 85.7455 717.592 85.9308 717.241 86.3014C716.89 86.6619 716.715 87.2027 716.715 87.9238V91.9199H714.372V83.8376H716.61V84.784C716.92 84.4435 717.306 84.1831 717.767 84.0029C718.227 83.8126 718.733 83.7174 719.284 83.7174ZM733.184 83.8376V90.5679C733.184 92.0501 732.799 93.1518 732.028 93.8729C731.256 94.594 730.13 94.9545 728.647 94.9545C727.866 94.9545 727.125 94.8594 726.424 94.6691C725.723 94.4788 725.142 94.2034 724.681 93.8429L725.613 92.1603C725.953 92.4407 726.384 92.6611 726.905 92.8213C727.425 92.9916 727.946 93.0767 728.467 93.0767C729.278 93.0767 729.874 92.8914 730.255 92.5208C730.645 92.1603 730.841 91.6094 730.841 90.8683V90.5228C730.23 91.1938 729.378 91.5293 728.287 91.5293C727.546 91.5293 726.865 91.3691 726.244 91.0486C725.633 90.7181 725.147 90.2574 724.786 89.6665C724.426 89.0756 724.246 88.3945 724.246 87.6234C724.246 86.8522 724.426 86.1712 724.786 85.5803C725.147 84.9894 725.633 84.5337 726.244 84.2132C726.865 83.8827 727.546 83.7174 728.287 83.7174C729.459 83.7174 730.35 84.103 730.961 84.8742V83.8376H733.184ZM728.753 89.6064C729.373 89.6064 729.879 89.4261 730.27 89.0656C730.67 88.695 730.871 88.2143 730.871 87.6234C730.871 87.0325 730.67 86.5567 730.27 86.1962C729.879 85.8256 729.373 85.6403 728.753 85.6403C728.132 85.6403 727.621 85.8256 727.22 86.1962C726.82 86.5567 726.619 87.0325 726.619 87.6234C726.619 88.2143 726.82 88.695 727.22 89.0656C727.621 89.4261 728.132 89.6064 728.753 89.6064ZM743.283 87.9088C743.283 87.9389 743.268 88.1492 743.238 88.5398H737.123C737.233 89.0405 737.494 89.4361 737.904 89.7266C738.315 90.017 738.826 90.1622 739.437 90.1622C739.857 90.1622 740.228 90.1022 740.548 89.982C740.879 89.8518 741.184 89.6515 741.465 89.3811L742.712 90.7331C741.951 91.6044 740.839 92.0401 739.377 92.0401C738.465 92.0401 737.659 91.8648 736.958 91.5143C736.257 91.1538 735.716 90.658 735.335 90.027C734.955 89.3961 734.765 88.68 734.765 87.8788C734.765 87.0876 734.95 86.3765 735.32 85.7455C735.701 85.1045 736.217 84.6088 736.868 84.2582C737.529 83.8977 738.265 83.7174 739.076 83.7174C739.867 83.7174 740.583 83.8877 741.224 84.2282C741.865 84.5687 742.366 85.0595 742.727 85.7004C743.097 86.3314 743.283 87.0675 743.283 87.9088ZM739.091 85.4901C738.56 85.4901 738.115 85.6403 737.754 85.9408C737.394 86.2413 737.173 86.6519 737.093 87.1727H741.074C740.994 86.6619 740.774 86.2563 740.413 85.9558C740.053 85.6454 739.612 85.4901 739.091 85.4901Z" fill="white"/>
<path d="M653.757 308.559H648.875L647.943 310.812H645.45L650.137 300.296H652.54L657.243 310.812H654.689L653.757 308.559ZM652.991 306.711L651.324 302.685L649.656 306.711H652.991ZM666.328 299.666V310.812H664.089V309.881C663.508 310.582 662.667 310.933 661.565 310.933C660.804 310.933 660.113 310.762 659.492 310.422C658.881 310.081 658.401 309.596 658.05 308.965C657.699 308.334 657.524 307.603 657.524 306.771C657.524 305.94 657.699 305.209 658.05 304.578C658.401 303.947 658.881 303.461 659.492 303.121C660.113 302.78 660.804 302.61 661.565 302.61C662.597 302.61 663.403 302.935 663.984 303.586V299.666H666.328ZM661.971 309.01C662.562 309.01 663.053 308.809 663.443 308.409C663.834 307.998 664.029 307.452 664.029 306.771C664.029 306.09 663.834 305.549 663.443 305.149C663.053 304.738 662.562 304.533 661.971 304.533C661.37 304.533 660.874 304.738 660.484 305.149C660.093 305.549 659.898 306.09 659.898 306.771C659.898 307.452 660.093 307.998 660.484 308.409C660.874 308.809 661.37 309.01 661.971 309.01ZM677.664 302.61C678.665 302.61 679.471 302.91 680.082 303.511C680.703 304.112 681.014 305.004 681.014 306.185V310.812H678.67V306.546C678.67 305.905 678.53 305.429 678.25 305.119C677.969 304.798 677.564 304.638 677.033 304.638C676.442 304.638 675.971 304.823 675.621 305.194C675.27 305.554 675.095 306.095 675.095 306.816V310.812H672.751V302.73H674.99V303.677C675.3 303.336 675.686 303.076 676.146 302.895C676.607 302.705 677.113 302.61 677.664 302.61ZM691.143 306.801C691.143 306.831 691.128 307.042 691.098 307.432H684.984C685.094 307.933 685.354 308.329 685.765 308.619C686.176 308.91 686.686 309.055 687.297 309.055C687.718 309.055 688.089 308.995 688.409 308.875C688.74 308.744 689.045 308.544 689.325 308.274L690.572 309.626C689.811 310.497 688.699 310.933 687.237 310.933C686.326 310.933 685.52 310.757 684.819 310.407C684.118 310.046 683.577 309.551 683.196 308.92C682.816 308.289 682.625 307.573 682.625 306.771C682.625 305.98 682.811 305.269 683.181 304.638C683.562 303.997 684.077 303.501 684.728 303.151C685.389 302.79 686.126 302.61 686.937 302.61C687.728 302.61 688.444 302.78 689.085 303.121C689.726 303.461 690.227 303.952 690.587 304.593C690.958 305.224 691.143 305.96 691.143 306.801ZM686.952 304.383C686.421 304.383 685.975 304.533 685.615 304.833C685.254 305.134 685.034 305.544 684.954 306.065H688.935C688.855 305.554 688.634 305.149 688.274 304.848C687.913 304.538 687.473 304.383 686.952 304.383ZM697.916 310.422C697.686 310.592 697.401 310.722 697.06 310.812C696.73 310.893 696.379 310.933 696.009 310.933C695.047 310.933 694.301 310.687 693.77 310.197C693.249 309.706 692.989 308.985 692.989 308.033V304.713H691.742V302.91H692.989V300.942H695.332V302.91H697.346V304.713H695.332V308.003C695.332 308.344 695.418 308.609 695.588 308.799C695.768 308.98 696.019 309.07 696.339 309.07C696.71 309.07 697.025 308.97 697.285 308.769L697.916 310.422ZM712.065 302.73L709.136 310.812H706.882L705.064 305.795L703.187 310.812H700.933L698.019 302.73H700.227L702.135 308.199L704.118 302.73H706.101L708.024 308.199L709.992 302.73H712.065ZM716.78 310.933C715.929 310.933 715.163 310.757 714.482 310.407C713.811 310.046 713.285 309.551 712.904 308.92C712.524 308.289 712.334 307.573 712.334 306.771C712.334 305.97 712.524 305.254 712.904 304.623C713.285 303.992 713.811 303.501 714.482 303.151C715.163 302.79 715.929 302.61 716.78 302.61C717.632 302.61 718.393 302.79 719.064 303.151C719.735 303.501 720.261 303.992 720.641 304.623C721.022 305.254 721.212 305.97 721.212 306.771C721.212 307.573 721.022 308.289 720.641 308.92C720.261 309.551 719.735 310.046 719.064 310.407C718.393 310.757 717.632 310.933 716.78 310.933ZM716.78 309.01C717.381 309.01 717.872 308.809 718.253 308.409C718.643 307.998 718.839 307.452 718.839 306.771C718.839 306.09 718.643 305.549 718.253 305.149C717.872 304.738 717.381 304.533 716.78 304.533C716.179 304.533 715.684 304.738 715.293 305.149C714.903 305.549 714.707 306.09 714.707 306.771C714.707 307.452 714.903 307.998 715.293 308.409C715.684 308.809 716.179 309.01 716.78 309.01ZM725.017 303.797C725.297 303.406 725.673 303.111 726.144 302.91C726.624 302.71 727.175 302.61 727.796 302.61V304.773C727.536 304.753 727.361 304.743 727.27 304.743C726.599 304.743 726.074 304.934 725.693 305.314C725.312 305.685 725.122 306.246 725.122 306.997V310.812H722.779V302.73H725.017V303.797ZM732.66 307.643L731.533 308.754V310.812H729.19V299.666H731.533V305.975L734.959 302.73H737.753L734.388 306.155L738.053 310.812H735.214L732.66 307.643Z" fill="white"/>
<path d="M805.363 202.18C804.532 202.18 803.725 202.07 802.944 201.85C802.173 201.619 801.552 201.324 801.081 200.963L801.908 199.131C802.358 199.461 802.894 199.727 803.515 199.927C804.136 200.127 804.757 200.227 805.378 200.227C806.069 200.227 806.58 200.127 806.91 199.927C807.241 199.717 807.406 199.441 807.406 199.101C807.406 198.85 807.306 198.645 807.106 198.485C806.915 198.314 806.665 198.179 806.354 198.079C806.054 197.979 805.643 197.869 805.123 197.749C804.321 197.558 803.665 197.368 803.155 197.178C802.644 196.987 802.203 196.682 801.833 196.261C801.472 195.841 801.292 195.28 801.292 194.579C801.292 193.968 801.457 193.417 801.788 192.926C802.118 192.425 802.614 192.03 803.275 191.739C803.946 191.449 804.762 191.304 805.724 191.304C806.395 191.304 807.051 191.384 807.692 191.544C808.332 191.704 808.893 191.935 809.374 192.235L808.623 194.083C807.651 193.532 806.68 193.257 805.708 193.257C805.027 193.257 804.522 193.367 804.191 193.587C803.871 193.808 803.71 194.098 803.71 194.459C803.71 194.819 803.896 195.089 804.266 195.27C804.647 195.44 805.223 195.61 805.994 195.781C806.795 195.971 807.451 196.161 807.962 196.351C808.473 196.542 808.908 196.842 809.269 197.253C809.639 197.663 809.825 198.219 809.825 198.92C809.825 199.521 809.654 200.072 809.314 200.573C808.983 201.064 808.483 201.454 807.812 201.745C807.141 202.035 806.324 202.18 805.363 202.18ZM814.943 202.18C814.112 202.18 813.305 202.07 812.524 201.85C811.753 201.619 811.132 201.324 810.661 200.963L811.488 199.131C811.938 199.461 812.474 199.727 813.095 199.927C813.716 200.127 814.337 200.227 814.958 200.227C815.649 200.227 816.16 200.127 816.49 199.927C816.821 199.717 816.986 199.441 816.986 199.101C816.986 198.85 816.886 198.645 816.686 198.485C816.495 198.314 816.245 198.179 815.934 198.079C815.634 197.979 815.223 197.869 814.703 197.749C813.901 197.558 813.245 197.368 812.735 197.178C812.224 196.987 811.783 196.682 811.413 196.261C811.052 195.841 810.872 195.28 810.872 194.579C810.872 193.968 811.037 193.417 811.368 192.926C811.698 192.425 812.194 192.03 812.855 191.739C813.526 191.449 814.342 191.304 815.304 191.304C815.975 191.304 816.631 191.384 817.272 191.544C817.913 191.704 818.473 191.935 818.954 192.235L818.203 194.083C817.231 193.532 816.26 193.257 815.289 193.257C814.607 193.257 814.102 193.367 813.771 193.587C813.451 193.808 813.29 194.098 813.29 194.459C813.29 194.819 813.476 195.089 813.846 195.27C814.227 195.44 814.803 195.61 815.574 195.781C816.375 195.971 817.031 196.161 817.542 196.351C818.053 196.542 818.488 196.842 818.849 197.253C819.22 197.663 819.405 198.219 819.405 198.92C819.405 199.521 819.235 200.072 818.894 200.573C818.564 201.064 818.063 201.454 817.392 201.745C816.721 202.035 815.904 202.18 814.943 202.18ZM825.62 191.484C826.551 191.484 827.357 191.639 828.038 191.95C828.729 192.26 829.26 192.701 829.631 193.272C830.001 193.843 830.187 194.519 830.187 195.3C830.187 196.071 830.001 196.747 829.631 197.328C829.26 197.899 828.729 198.339 828.038 198.65C827.357 198.95 826.551 199.101 825.62 199.101H823.501V202H821.068V191.484H825.62ZM825.484 197.118C826.216 197.118 826.771 196.962 827.152 196.652C827.533 196.331 827.723 195.881 827.723 195.3C827.723 194.709 827.533 194.258 827.152 193.948C826.771 193.627 826.216 193.467 825.484 193.467H823.501V197.118H825.484Z" fill="white"/>
<path d="M256.611 193.438L249.516 197.5L249.623 189.369L256.611 193.438ZM242.842 193.432L242.833 194.136L242.832 194.136L242.842 193.432ZM250.264 194.139L242.833 194.136L242.851 192.727L250.283 192.731L250.264 194.139ZM242.832 194.136L230.066 194.122L230.085 192.714L242.852 192.727L242.832 194.136Z" fill="#FBB640"/>
<path d="M221.406 193.414L228.502 189.352L228.395 197.482L221.406 193.414ZM235.176 193.42L235.185 192.716L235.185 192.716L235.176 193.42ZM227.753 192.713L235.185 192.716L235.166 194.124L227.735 194.121L227.753 192.713ZM235.185 192.716L247.952 192.73L247.932 194.138L235.166 194.124L235.185 192.716Z" fill="#FBB640"/>
<path d="M500.734 193.449L493.659 197.51L493.726 189.379L500.734 193.449ZM487.697 193.441L487.691 194.145L487.69 194.145L487.697 193.441ZM494.391 194.149L487.691 194.145L487.702 192.737L494.402 192.741L494.391 194.149ZM487.69 194.145L475.602 194.125L475.615 192.717L487.703 192.737L487.69 194.145Z" fill="#FBB640"/>
<path d="M467.398 193.42L474.474 189.359L474.407 197.49L467.398 193.42ZM480.436 193.428L480.442 192.724L480.443 192.724L480.436 193.428ZM473.742 192.72L480.442 192.724L480.43 194.132L473.73 194.128L473.742 192.72ZM480.443 192.724L492.531 192.744L492.518 194.152L480.43 194.132L480.443 192.724Z" fill="#FBB640"/>
<path d="M914.332 193.449L907.257 197.51L907.323 189.379L914.332 193.449ZM901.294 193.441L901.288 194.145L901.288 194.145L901.294 193.441ZM907.988 194.149L901.288 194.145L901.3 192.737L908 192.741L907.988 194.149ZM901.288 194.145L889.2 194.125L889.213 192.717L901.301 192.737L901.288 194.145Z" fill="#FBB640"/>
<path d="M881 193.42L888.075 189.359L888.009 197.49L881 193.42ZM894.038 193.428L894.044 192.724L894.044 192.724L894.038 193.428ZM887.344 192.72L894.044 192.724L894.032 194.132L887.332 194.128L887.344 192.72ZM894.044 192.724L906.132 192.744L906.119 194.152L894.031 194.132L894.044 192.724Z" fill="#FBB640"/>
<path d="M738.281 193.473L731.206 197.534L731.273 189.403L738.281 193.473ZM702.109 193.45L702.103 194.154L702.102 194.154L702.109 193.45ZM731.938 194.173L702.103 194.154L702.114 192.745L731.949 192.764L731.938 194.173ZM702.102 194.154L668.565 194.099L668.578 192.691L702.115 192.745L702.102 194.154Z" fill="#FBB640"/>
<path d="M645.797 193.391L652.872 189.33L652.805 197.461L645.797 193.391ZM681.97 193.414L681.975 192.71L681.976 192.71L681.97 193.414ZM652.14 192.691L681.975 192.71L681.964 194.118L652.129 194.099L652.14 192.691ZM681.976 192.71L715.513 192.764L715.5 194.173L681.963 194.118L681.976 192.71Z" fill="#FBB640"/>
<path d="M551.865 132.919L547.799 125.847L555.931 125.909L551.865 132.919ZM598.385 78.0225L591.374 82.088L591.312 73.957L598.385 78.0225ZM551.161 126.577L551.161 114.165L552.57 114.176L552.569 126.587L551.161 126.577ZM588.012 77.3183L592.042 77.3184L592.053 78.7267L588.023 78.7267L588.012 77.3183ZM551.161 114.165C551.161 93.7701 567.615 77.3183 588.012 77.3183L588.023 78.7267C568.399 78.7266 552.57 94.5543 552.57 114.176L551.161 114.165Z" fill="#FBB640"/>
<path d="M785.584 81.854L792.699 77.8631L792.551 85.9938L785.584 81.854ZM839.988 128.949L835.997 121.896L844.128 121.919L839.988 128.949ZM791.934 81.2169L804.344 81.348L804.319 82.7563L791.908 82.6251L791.934 81.2169ZM840.802 118.584L840.759 122.614L839.351 122.61L839.393 118.58L840.802 118.584ZM804.344 81.348C824.738 81.5625 841.016 98.188 840.802 118.584L839.393 118.58C839.6 98.9575 823.939 82.9626 804.319 82.7563L804.344 81.348Z" fill="#FBB640"/>
<path d="M551.865 255.378L547.799 262.45L555.931 262.388L551.865 255.378ZM598.385 310.274L591.374 306.209L591.312 314.34L598.385 310.274ZM551.161 261.72L551.161 274.132L552.57 274.121L552.569 261.71L551.161 261.72ZM588.012 310.979L592.042 310.979L592.053 309.57L588.023 309.57L588.012 310.979ZM551.161 274.132C551.161 294.527 567.615 310.979 588.012 310.979L588.023 309.57C568.399 309.57 552.57 293.743 552.57 274.121L551.161 274.132Z" fill="#FBB640"/>
<path d="M785.584 306.441L792.699 310.432L792.551 302.301L785.584 306.441ZM839.988 259.346L835.997 266.399L844.128 266.376L839.988 259.346ZM791.934 307.078L804.344 306.947L804.319 305.539L791.908 305.67L791.934 307.078ZM840.802 269.711L840.759 265.681L839.351 265.685L839.393 269.715L840.802 269.711ZM804.344 306.947C824.738 306.732 841.016 290.107 840.802 269.711L839.393 269.715C839.6 289.337 823.939 305.332 804.319 305.539L804.344 306.947Z" fill="#FBB640"/>
<path d="M692.004 239.678L687.943 232.602L696.074 232.669L692.004 239.678ZM692.027 203.505L691.323 203.499L691.323 203.499L692.027 203.505ZM691.304 233.334L691.323 203.499L692.731 203.511L692.712 233.346L691.304 233.334ZM691.323 203.499L691.377 169.961L692.786 169.974L692.731 203.512L691.323 203.499Z" fill="#FBB640"/>
<path d="M692.086 147.195L696.147 154.271L688.016 154.204L692.086 147.195ZM692.063 183.368L692.767 183.374L692.767 183.374L692.063 183.368ZM692.786 153.539L692.767 183.374L691.359 183.362L691.378 153.527L692.786 153.539ZM692.767 183.374L692.712 216.912L691.304 216.899L691.359 183.362L692.767 183.374Z" fill="#FBB640"/>
<defs>
<filter id="filter0_d" x="0" y="85.5762" width="230.603" height="230.603" filterUnits="userSpaceOnUse" color-interpolation-filters="sRGB">
<feFlood flood-opacity="0" result="BackgroundImageFix"/>
<feColorMatrix in="SourceAlpha" type="matrix" values="0 0 0 0 0 0 0 0 0 0 0 0 0 0 0 0 0 0 127 0"/>
<feOffset dy="7"/>
<feGaussianBlur stdDeviation="10"/>
<feColorMatrix type="matrix" values="0 0 0 0 0 0 0 0 0 0 0 0 0 0 0 0 0 0 0.1 0"/>
<feBlend mode="normal" in2="BackgroundImageFix" result="effect1_dropShadow"/>
<feBlend mode="normal" in="SourceGraphic" in2="effect1_dropShadow" result="shape"/>
</filter>
<filter id="filter1_d" x="247.877" y="140.973" width="220.275" height="119.809" filterUnits="userSpaceOnUse" color-interpolation-filters="sRGB">
<feFlood flood-opacity="0" result="BackgroundImageFix"/>
<feColorMatrix in="SourceAlpha" type="matrix" values="0 0 0 0 0 0 0 0 0 0 0 0 0 0 0 0 0 0 127 0"/>
<feOffset dy="7"/>
<feGaussianBlur stdDeviation="10"/>
<feColorMatrix type="matrix" values="0 0 0 0 0 0 0 0 0 0 0 0 0 0 0 0 0 0 0.1 0"/>
<feBlend mode="normal" in2="BackgroundImageFix" result="effect1_dropShadow"/>
<feBlend mode="normal" in="SourceGraphic" in2="effect1_dropShadow" result="shape"/>
</filter>
<filter id="filter2_d" x="502.328" y="140.973" width="133.893" height="119.809" filterUnits="userSpaceOnUse" color-interpolation-filters="sRGB">
<feFlood flood-opacity="0" result="BackgroundImageFix"/>
<feColorMatrix in="SourceAlpha" type="matrix" values="0 0 0 0 0 0 0 0 0 0 0 0 0 0 0 0 0 0 127 0"/>
<feOffset dy="7"/>
<feGaussianBlur stdDeviation="10"/>
<feColorMatrix type="matrix" values="0 0 0 0 0 0 0 0 0 0 0 0 0 0 0 0 0 0 0.1 0"/>
<feBlend mode="normal" in2="BackgroundImageFix" result="effect1_dropShadow"/>
<feBlend mode="normal" in="SourceGraphic" in2="effect1_dropShadow" result="shape"/>
</filter>
<filter id="filter3_d" x="748.328" y="140.973" width="133.893" height="119.809" filterUnits="userSpaceOnUse" color-interpolation-filters="sRGB">
<feFlood flood-opacity="0" result="BackgroundImageFix"/>
<feColorMatrix in="SourceAlpha" type="matrix" values="0 0 0 0 0 0 0 0 0 0 0 0 0 0 0 0 0 0 127 0"/>
<feOffset dy="7"/>
<feGaussianBlur stdDeviation="10"/>
<feColorMatrix type="matrix" values="0 0 0 0 0 0 0 0 0 0 0 0 0 0 0 0 0 0 0.1 0"/>
<feBlend mode="normal" in2="BackgroundImageFix" result="effect1_dropShadow"/>
<feBlend mode="normal" in="SourceGraphic" in2="effect1_dropShadow" result="shape"/>
</filter>
<filter id="filter4_d" x="596.219" y="32.9961" width="192.107" height="119.809" filterUnits="userSpaceOnUse" color-interpolation-filters="sRGB">
<feFlood flood-opacity="0" result="BackgroundImageFix"/>
<feColorMatrix in="SourceAlpha" type="matrix" values="0 0 0 0 0 0 0 0 0 0 0 0 0 0 0 0 0 0 127 0"/>
<feOffset dy="7"/>
<feGaussianBlur stdDeviation="10"/>
<feColorMatrix type="matrix" values="0 0 0 0 0 0 0 0 0 0 0 0 0 0 0 0 0 0 0.1 0"/>
<feBlend mode="normal" in2="BackgroundImageFix" result="effect1_dropShadow"/>
<feBlend mode="normal" in="SourceGraphic" in2="effect1_dropShadow" result="shape"/>
</filter>
<filter id="filter5_d" x="596.219" y="248.949" width="192.107" height="119.809" filterUnits="userSpaceOnUse" color-interpolation-filters="sRGB">
<feFlood flood-opacity="0" result="BackgroundImageFix"/>
<feColorMatrix in="SourceAlpha" type="matrix" values="0 0 0 0 0 0 0 0 0 0 0 0 0 0 0 0 0 0 127 0"/>
<feOffset dy="7"/>
<feGaussianBlur stdDeviation="10"/>
<feColorMatrix type="matrix" values="0 0 0 0 0 0 0 0 0 0 0 0 0 0 0 0 0 0 0.1 0"/>
<feBlend mode="normal" in2="BackgroundImageFix" result="effect1_dropShadow"/>
<feBlend mode="normal" in="SourceGraphic" in2="effect1_dropShadow" result="shape"/>
</filter>
<filter id="filter6_d" x="916.398" y="85.5762" width="230.603" height="230.603" filterUnits="userSpaceOnUse" color-interpolation-filters="sRGB">
<feFlood flood-opacity="0" result="BackgroundImageFix"/>
<feColorMatrix in="SourceAlpha" type="matrix" values="0 0 0 0 0 0 0 0 0 0 0 0 0 0 0 0 0 0 127 0"/>
<feOffset dy="7"/>
<feGaussianBlur stdDeviation="10"/>
<feColorMatrix type="matrix" values="0 0 0 0 0 0 0 0 0 0 0 0 0 0 0 0 0 0 0.1 0"/>
<feBlend mode="normal" in2="BackgroundImageFix" result="effect1_dropShadow"/>
<feBlend mode="normal" in="SourceGraphic" in2="effect1_dropShadow" result="shape"/>
</filter>
</defs>
</svg>
