<svg width="70" height="71" viewBox="0 0 70 71" fill="none" xmlns="http://www.w3.org/2000/svg">
<circle cx="35" cy="35.1523" r="35" fill="white"/>
<mask id="mask0" mask-type="alpha" maskUnits="userSpaceOnUse" x="0" y="0" width="70" height="71">
<circle cx="35" cy="35.1523" r="35" fill="#C4C4C4"/>
</mask>
<g mask="url(#mask0)">
<path d="M46.4887 24.9436L46.2166 24.8123C45.0918 21.452 41.9453 19.1855 38.4021 19.1836H22.7637L24.64 24.8123C22.4589 25.9024 21.3481 28.3781 21.9851 30.7318L23.7019 36.0697H25.5781V31.3791C25.5781 31.3791 31.2068 31.3791 34.0212 30.441L42.4642 27.6267L46.2167 34.1935V36.0697H48.0929L49.1999 30.5254C49.6539 28.2664 48.545 25.9831 46.4887 24.9436Z" fill="#FBB640"/>
<path d="M24.6387 24.8125C22.4622 25.9054 21.359 28.3829 22.0026 30.732L23.7006 36.0699H25.5768V31.3793C25.5768 31.3793 27.7813 31.3793 30.1172 31.1541C27.7176 29.6128 25.8152 27.4101 24.6387 24.8125Z" fill="#FBB640"/>
<path d="M50.7064 57.9389L44.1865 57.0664L43.7363 58.1078C41.8741 62.439 36.8534 64.441 32.5221 62.5788C30.5145 61.7157 28.915 60.1153 28.0511 58.1078L27.6008 57.0664L21.0809 57.9389C18.2862 58.3103 16.1971 60.6923 16.1934 63.5113V73.596H55.5942V63.5113C55.5903 60.6923 53.5011 58.3103 50.7064 57.9389Z" fill="#FBB640"/>
<path d="M35.9004 63.2738C39.3133 63.2756 42.3987 61.2419 43.7431 58.1047L44.1934 57.0634L43.1614 56.9226C42.2214 56.7997 41.5206 55.9949 41.529 55.0464V51.0781H30.2717V55.1026C30.2802 56.051 29.5794 56.8559 28.6394 56.9788L27.6074 57.1196L28.0577 58.1609C29.419 61.2766 32.5007 63.2851 35.9004 63.2738Z" fill="#FEDAC6"/>
<path d="M41.6387 55.6842C41.5637 55.4862 41.5252 55.2761 41.5262 55.0651V51.0781H30.2688V55.1026C30.2698 55.3137 30.2313 55.5238 30.1562 55.7217C33.7718 57.5388 38.0354 57.5247 41.6387 55.6842Z" fill="#F5C4B0"/>
<path d="M19.9458 58.2188C17.7028 59.0115 16.2 61.1297 16.1934 63.5097V73.5945H19.9458V58.2188Z" fill="#F8AF32"/>
<path d="M46.2174 35.1309H45.2793V40.7596H46.2174C47.7718 40.7596 49.0318 39.4996 49.0318 37.9452C49.0318 36.3908 47.7718 35.1309 46.2174 35.1309Z" fill="#FEDAC6"/>
<path d="M22.7637 37.9452C22.7637 39.4996 24.0236 40.7596 25.578 40.7596H26.5161V35.1309H25.578C24.0236 35.1309 22.7637 36.3908 22.7637 37.9452Z" fill="#F5C4B0"/>
<path d="M46.2156 44.316C46.2278 45.6951 45.7343 47.0299 44.8272 48.0685L40.7746 52.6558C40.0635 53.4654 39.0381 53.9307 37.9602 53.9317H33.8513C32.7734 53.9307 31.7481 53.4654 31.037 52.6558L26.9843 48.0216C26.0771 46.983 25.5837 45.6482 25.5959 44.2691V31.3794C25.5959 31.3794 31.2246 31.3794 34.039 30.4413L42.4821 27.627L46.2345 34.1938L46.2156 44.316Z" fill="#FEDAC6"/>
<path d="M29.3308 31.2207C27.3138 31.3802 25.5783 31.3802 25.5783 31.3802V44.3167C25.5661 45.6958 26.0596 47.0307 26.9667 48.0692L29.3307 50.7147V31.2207H29.3308Z" fill="#F5C4B0"/>
<path d="M25.5762 34.1934H34.0192V37.0077C34.0192 38.5621 32.7593 39.8221 31.2049 39.8221H28.3905C26.8361 39.8221 25.5762 38.5621 25.5762 37.0077V34.1934V34.1934Z" fill="white"/>
<path d="M37.7715 34.1934H46.2146V37.0077C46.2146 38.5621 44.9546 39.8221 43.4002 39.8221H40.5858C39.0314 39.8221 37.7715 38.5621 37.7715 37.0077V34.1934Z" fill="white"/>
<path d="M17.1341 73.5942H15.2578V63.547C15.255 60.2383 17.7297 57.4333 21.0141 57.0252L28.5096 56.0131C28.9825 55.9521 29.3333 55.5487 29.3296 55.0749V52.0176H31.2058V55.0664C31.218 56.4792 30.1654 57.6894 28.7564 57.8723L21.2553 58.8855C18.8987 59.1791 17.1313 61.181 17.1332 63.546V73.5942H17.1341Z" fill="#740B99"/>
<path d="M56.538 73.5942H54.6617V63.547C54.6636 61.182 52.8962 59.1791 50.5499 58.8864L43.0347 57.8723C41.6303 57.6894 40.5777 56.4792 40.5899 55.058V52.0176H42.4662V55.0664C42.4615 55.5485 42.8123 55.951 43.2824 56.013L50.791 57.0261C54.066 57.4342 56.5407 60.2382 56.5379 63.5478V73.5942H56.538Z" fill="#740B99"/>
<path d="M46.2174 41.6983H45.2793V39.8221H46.2174C47.2522 39.8221 48.0937 38.9806 48.0937 37.9458C48.0937 36.9111 47.2522 36.0696 46.2174 36.0696H45.2793V34.1934H46.2174C48.2869 34.1934 49.9699 35.8763 49.9699 37.9458C49.9699 40.0154 48.2868 41.6983 46.2174 41.6983Z" fill="#740B99"/>
<path d="M26.5187 41.6983H25.5806C23.5111 41.6983 21.8281 40.0154 21.8281 37.9458C21.8281 35.8763 23.5111 34.1934 25.5806 34.1934H26.5187V36.0696H25.5806C24.5458 36.0696 23.7044 36.9111 23.7044 37.9458C23.7044 38.9806 24.5458 39.8221 25.5806 39.8221H26.5187V41.6983Z" fill="#740B99"/>
<path d="M35.9016 64.2104C35.8978 64.2104 35.8942 64.2104 35.8914 64.2104C32.0995 64.2104 28.6858 61.9589 27.1922 58.4729L26.5918 57.0761L28.316 56.3359L28.9164 57.7337C30.1144 60.5284 32.8518 62.3343 35.8922 62.3343C35.895 62.3343 35.8978 62.3343 35.9007 62.3343C38.9411 62.3343 41.6794 60.5284 42.8784 57.7337L43.4788 56.3359L45.203 57.0761L44.6026 58.4739C43.1083 61.9589 39.6926 64.2104 35.9016 64.2104Z" fill="#740B99"/>
<path d="M36.8313 42.6374H33.0789C32.7899 42.6374 32.5169 42.5043 32.3387 42.2763C32.1614 42.0483 32.0985 41.7509 32.1689 41.4713L34.0451 34.0039L35.8641 34.4607L34.2815 40.7611H36.8313V42.6374Z" fill="#740B99"/>
<path d="M34.737 46.3867H33.084V44.5104H34.735C35.9621 44.5076 37.1948 44.2168 38.2962 43.6699L39.1302 45.351C37.7718 46.0245 36.2529 46.3829 34.737 46.3867Z" fill="#740B99"/>
<path d="M37.9599 54.8681H33.849C32.5 54.8663 31.2186 54.2846 30.3302 53.2733L26.2766 48.638C25.2176 47.4241 24.6424 45.8696 24.6565 44.2598V31.3777C24.6565 30.8599 25.0768 30.4396 25.5946 30.4396C25.649 30.4396 31.1051 30.4284 33.7412 29.5494L42.1842 26.735C42.6092 26.5953 43.0736 26.7716 43.2958 27.16L47.0483 33.7268C47.1299 33.8684 47.1722 34.0298 47.1722 34.1941L47.1515 44.3107C47.1656 45.9186 46.5896 47.4712 45.5304 48.6832L41.475 53.2753C40.5885 54.2846 39.3061 54.8662 37.9599 54.8681ZM26.5318 32.3017V44.2673C26.5215 45.4258 26.9323 46.5366 27.6885 47.4034L31.7402 52.0358C32.272 52.6418 33.0413 52.9908 33.85 52.9918H37.958C38.7638 52.9908 39.5341 52.6418 40.0679 52.034L44.1214 47.4447C44.8747 46.5816 45.2856 45.4709 45.2743 44.3217C45.2743 44.3179 45.2743 44.3151 45.2743 44.3114L45.2931 34.4397L42.0454 28.7575L34.3331 31.3289C32.0911 32.0766 28.2917 32.2576 26.5318 32.3017Z" fill="#740B99"/>
<path d="M22.8085 36.3565L21.1011 31.0186C20.4022 28.4772 21.4098 25.8261 23.5102 24.3908L21.8732 19.4816C21.7775 19.1955 21.8263 18.8812 22.0027 18.6363C22.18 18.3905 22.4633 18.2461 22.7645 18.2461H38.4122C42.2322 18.2499 45.6254 20.6064 46.9762 24.1487C49.359 25.3739 50.6565 28.0625 50.1208 30.7118L49.0139 36.2541L47.1743 35.8863L48.2813 30.3421C48.6546 28.4949 47.739 26.6225 46.0533 25.7847L45.7859 25.6459C45.5701 25.5333 45.4059 25.3419 45.3291 25.1102C44.3328 22.1298 41.5531 20.125 38.4114 20.1222H24.0656L25.531 24.5166C25.6792 24.9604 25.4775 25.4445 25.0591 25.6527C23.2823 26.5382 22.3743 28.5693 22.9005 30.484L24.5966 35.7844L22.8085 36.3565Z" fill="#740B99"/>
<path d="M31.2016 40.7589H28.3872C26.3177 40.7589 24.6348 39.0759 24.6348 37.0064V34.192C24.6348 33.6742 25.0551 33.2539 25.5729 33.2539H34.0159C34.5338 33.2539 34.9541 33.6742 34.9541 34.192V37.0064C34.9541 39.0759 33.2711 40.7589 31.2016 40.7589ZM26.511 35.1301V37.0064C26.511 38.0411 27.3525 38.8826 28.3872 38.8826H31.2016C32.2364 38.8826 33.0778 38.0411 33.0778 37.0064V35.1301H26.511Z" fill="#740B99"/>
<path d="M43.3989 40.7589H40.5845C38.515 40.7589 36.832 39.0759 36.832 37.0064V34.192C36.832 33.6742 37.2523 33.2539 37.7701 33.2539H46.2132C46.732 33.2539 47.1513 33.6742 47.1513 34.192V37.0064C47.1513 39.0759 45.4683 40.7589 43.3989 40.7589ZM38.7083 35.1301V37.0064C38.7083 38.0411 39.5497 38.8826 40.5845 38.8826H43.3989C44.4336 38.8826 45.2751 38.0411 45.2751 37.0064V35.1301H38.7083Z" fill="#740B99"/>
<path d="M37.772 33.2539H34.0195V35.1301H37.772V33.2539Z" fill="#740B99"/>
</g>
</svg>
