<svg width="134" height="110" viewBox="0 0 134 110" fill="none" xmlns="http://www.w3.org/2000/svg">
<g filter="url(#filter0_d)">
<path d="M98.5855 29.8396C98.5855 39.1399 91.0461 46.6792 81.7459 46.6792C72.4456 46.6792 64.9062 39.1399 64.9062 29.8396C64.9062 20.5394 72.4456 13 81.7459 13C91.0461 13 98.5855 20.5394 98.5855 29.8396Z" fill="white"/>
</g>
<path d="M77.8751 30.4273H78.8524V32.3028C78.6015 32.4921 78.3109 32.6374 77.9807 32.7386C77.6506 32.8399 77.3182 32.8905 76.9836 32.8905C76.5037 32.8905 76.0723 32.7892 75.6892 32.5867C75.3062 32.3798 75.0046 32.0959 74.7845 31.7348C74.5688 31.3694 74.4609 30.9578 74.4609 30.4999C74.4609 30.0421 74.5688 29.6326 74.7845 29.2716C75.0046 28.9062 75.3084 28.6223 75.6958 28.4198C76.0833 28.2128 76.5191 28.1094 77.0034 28.1094C77.4084 28.1094 77.776 28.1776 78.1062 28.3141C78.4364 28.4506 78.7138 28.6487 78.9383 28.9084L78.2515 29.5424C77.9213 29.1946 77.5229 29.0207 77.0562 29.0207C76.7613 29.0207 76.4993 29.0823 76.2704 29.2056C76.0414 29.3289 75.8631 29.5028 75.7355 29.7273C75.6078 29.9518 75.544 30.2094 75.544 30.4999C75.544 30.7861 75.6078 31.0415 75.7355 31.266C75.8631 31.4905 76.0392 31.6666 76.2638 31.7943C76.4927 31.9176 76.7524 31.9792 77.043 31.9792C77.3512 31.9792 77.6285 31.9131 77.8751 31.7811V30.4273Z" fill="#740B99"/>
<path d="M83.4255 31.9528V32.8113H79.8462V28.1886H83.3396V29.0471H80.9094V30.0509H83.0556V30.883H80.9094V31.9528H83.4255Z" fill="#740B99"/>
<path d="M86.5025 32.8905C86.0226 32.8905 85.5889 32.787 85.2015 32.5801C84.8185 32.3732 84.5169 32.0892 84.2968 31.7282C84.0811 31.3628 83.9732 30.9534 83.9732 30.4999C83.9732 30.0465 84.0811 29.6392 84.2968 29.2782C84.5169 28.9128 84.8185 28.6267 85.2015 28.4198C85.5889 28.2128 86.0226 28.1094 86.5025 28.1094C86.9823 28.1094 87.4138 28.2128 87.7968 28.4198C88.1798 28.6267 88.4814 28.9128 88.7015 29.2782C88.9216 29.6392 89.0317 30.0465 89.0317 30.4999C89.0317 30.9534 88.9216 31.3628 88.7015 31.7282C88.4814 32.0892 88.1798 32.3732 87.7968 32.5801C87.4138 32.787 86.9823 32.8905 86.5025 32.8905ZM86.5025 31.9792C86.7754 31.9792 87.022 31.9176 87.2421 31.7943C87.4622 31.6666 87.6339 31.4905 87.7572 31.266C87.8848 31.0415 87.9487 30.7861 87.9487 30.4999C87.9487 30.2138 87.8848 29.9584 87.7572 29.7339C87.6339 29.5094 87.4622 29.3355 87.2421 29.2122C87.022 29.0845 86.7754 29.0207 86.5025 29.0207C86.2295 29.0207 85.983 29.0845 85.7628 29.2122C85.5427 29.3355 85.3688 29.5094 85.2411 29.7339C85.1179 29.9584 85.0562 30.2138 85.0562 30.4999C85.0562 30.7861 85.1179 31.0415 85.2411 31.266C85.3688 31.4905 85.5427 31.6666 85.7628 31.7943C85.983 31.9176 86.2295 31.9792 86.5025 31.9792Z" fill="#740B99"/>
<g filter="url(#filter1_d)">
<path d="M69.5269 33.1424C69.5269 42.4426 61.9875 49.982 52.6873 49.982C43.387 49.982 35.8477 42.4426 35.8477 33.1424C35.8477 23.8421 43.387 16.3027 52.6873 16.3027C61.9875 16.3027 69.5269 23.8421 69.5269 33.1424Z" fill="white"/>
</g>
<path d="M49.7344 31.4902H50.8042V36.1129H49.7344V31.4902Z" fill="#740B99"/>
<path d="M53.9022 31.4902C54.3116 31.4902 54.666 31.5585 54.9654 31.695C55.2692 31.8314 55.5025 32.0251 55.6654 32.2761C55.8283 32.527 55.9097 32.8242 55.9097 33.1676C55.9097 33.5066 55.8283 33.8038 55.6654 34.0591C55.5025 34.31 55.2692 34.5038 54.9654 34.6402C54.666 34.7723 54.3116 34.8383 53.9022 34.8383H52.971V36.1129H51.9012V31.4902H53.9022ZM53.8427 33.9666C54.1641 33.9666 54.4085 33.8984 54.5758 33.7619C54.7431 33.6211 54.8267 33.4229 54.8267 33.1676C54.8267 32.9078 54.7431 32.7097 54.5758 32.5733C54.4085 32.4324 54.1641 32.3619 53.8427 32.3619H52.971V33.9666H53.8427Z" fill="#740B99"/>
<g filter="url(#filter2_d)">
<path d="M113.113 58.2361C113.113 67.5364 105.573 75.0757 96.2732 75.0757C86.9729 75.0757 79.4336 67.5364 79.4336 58.2361C79.4336 48.9358 86.9729 41.3965 96.2732 41.3965C105.573 41.3965 113.113 48.9358 113.113 58.2361Z" fill="white"/>
</g>
<path d="M94.1699 61.287C93.69 61.287 93.2563 61.1835 92.8689 60.9766C92.4859 60.7697 92.1843 60.4857 91.9642 60.1247C91.7485 59.7593 91.6406 59.3499 91.6406 58.8964C91.6406 58.443 91.7485 58.0357 91.9642 57.6747C92.1843 57.3093 92.4859 57.0232 92.8689 56.8162C93.2563 56.6093 93.69 56.5059 94.1699 56.5059C94.6497 56.5059 95.0812 56.6093 95.4642 56.8162C95.8472 57.0232 96.1488 57.3093 96.3689 57.6747C96.5891 58.0357 96.6991 58.443 96.6991 58.8964C96.6991 59.3499 96.5891 59.7593 96.3689 60.1247C96.1488 60.4857 95.8472 60.7697 95.4642 60.9766C95.0812 61.1835 94.6497 61.287 94.1699 61.287ZM94.1699 60.3757C94.4428 60.3757 94.6894 60.314 94.9095 60.1908C95.1296 60.0631 95.3013 59.887 95.4246 59.6625C95.5523 59.4379 95.6161 59.1826 95.6161 58.8964C95.6161 58.6103 95.5523 58.3549 95.4246 58.1304C95.3013 57.9059 95.1296 57.732 94.9095 57.6087C94.6894 57.481 94.4428 57.4172 94.1699 57.4172C93.8969 57.4172 93.6504 57.481 93.4302 57.6087C93.2101 57.732 93.0362 57.9059 92.9085 58.1304C92.7853 58.3549 92.7236 58.6103 92.7236 58.8964C92.7236 59.1826 92.7853 59.4379 92.9085 59.6625C93.0362 59.887 93.2101 60.0631 93.4302 60.1908C93.6504 60.314 93.8969 60.3757 94.1699 60.3757Z" fill="#740B99"/>
<path d="M99.022 61.287C98.6566 61.287 98.3022 61.2386 97.9588 61.1417C97.6198 61.0405 97.3468 60.9106 97.1399 60.7521L97.5031 59.9464C97.7012 60.0917 97.9368 60.2084 98.2097 60.2964C98.4827 60.3845 98.7556 60.4285 99.0286 60.4285C99.3324 60.4285 99.5569 60.3845 99.7022 60.2964C99.8475 60.204 99.9201 60.0829 99.9201 59.9332C99.9201 59.8232 99.8761 59.7329 99.788 59.6625C99.7044 59.5876 99.5943 59.5282 99.4578 59.4842C99.3258 59.4401 99.1453 59.3917 98.9163 59.3389C98.5641 59.2552 98.2758 59.1716 98.0512 59.0879C97.8267 59.0043 97.633 58.87 97.4701 58.6851C97.3116 58.5002 97.2324 58.2537 97.2324 57.9455C97.2324 57.6769 97.305 57.4348 97.4503 57.2191C97.5956 56.9989 97.8135 56.825 98.1041 56.6974C98.399 56.5697 98.7578 56.5059 99.1805 56.5059C99.4755 56.5059 99.7638 56.5411 100.046 56.6115C100.327 56.682 100.574 56.7832 100.785 56.9153L100.455 57.7276C100.028 57.4854 99.6009 57.3643 99.1739 57.3643C98.8745 57.3643 98.6522 57.4128 98.5069 57.5096C98.366 57.6065 98.2956 57.7342 98.2956 57.8927C98.2956 58.0511 98.377 58.17 98.5399 58.2493C98.7072 58.3241 98.9604 58.3989 99.2994 58.4738C99.6516 58.5574 99.9399 58.6411 100.164 58.7247C100.389 58.8084 100.58 58.9405 100.739 59.121C100.902 59.3015 100.983 59.5458 100.983 59.854C100.983 60.1181 100.908 60.3603 100.759 60.5804C100.614 60.7961 100.393 60.9678 100.098 61.0955C99.8034 61.2232 99.4446 61.287 99.022 61.287Z" fill="#740B99"/>
<g filter="url(#filter3_d)">
<path d="M53.6792 61.5369C53.6792 70.8372 46.1399 78.3765 36.8396 78.3765C27.5394 78.3765 20 70.8372 20 61.5369C20 52.2366 27.5394 44.6973 36.8396 44.6973C46.1399 44.6973 53.6792 52.2366 53.6792 61.5369Z" fill="white"/>
</g>
<path d="M32.8433 63.5199H30.6971L30.2876 64.5105H29.1914L31.2518 59.8878H32.3084L34.3754 64.5105H33.2527L32.8433 63.5199ZM32.5065 62.7077L31.7735 60.9378L31.0405 62.7077H32.5065Z" fill="#740B99"/>
<path d="M37.9141 62.1265H38.8914V64.002C38.6405 64.1913 38.3499 64.3366 38.0197 64.4378C37.6895 64.5391 37.3571 64.5897 37.0226 64.5897C36.5427 64.5897 36.1112 64.4885 35.7282 64.286C35.3452 64.079 35.0436 63.7951 34.8235 63.4341C34.6078 63.0687 34.4999 62.657 34.4999 62.1992C34.4999 61.7413 34.6078 61.3319 34.8235 60.9709C35.0436 60.6054 35.3474 60.3215 35.7348 60.119C36.1222 59.9121 36.5581 59.8086 37.0424 59.8086C37.4474 59.8086 37.815 59.8768 38.1452 60.0133C38.4754 60.1498 38.7527 60.3479 38.9773 60.6077L38.2905 61.2416C37.9603 60.8938 37.5619 60.7199 37.0952 60.7199C36.8002 60.7199 36.5383 60.7815 36.3093 60.9048C36.0804 61.0281 35.9021 61.202 35.7744 61.4265C35.6468 61.651 35.5829 61.9086 35.5829 62.1992C35.5829 62.4853 35.6468 62.7407 35.7744 62.9652C35.9021 63.1897 36.0782 63.3658 36.3027 63.4935C36.5317 63.6168 36.7914 63.6784 37.082 63.6784C37.3902 63.6784 37.6675 63.6124 37.9141 63.4803V62.1265Z" fill="#740B99"/>
<path d="M43.4644 63.652V64.5105H39.8852V59.8878H43.3786V60.7463H40.9484V61.7501H43.0946V62.5822H40.9484V63.652H43.4644Z" fill="#740B99"/>
<g filter="url(#filter4_d)">
<path d="M88.6795 59.8866C88.6795 72.6517 78.3314 82.9999 65.5663 82.9999C52.8013 82.9999 42.4531 72.6517 42.4531 59.8866C42.4531 47.1216 52.8013 36.7734 65.5663 36.7734C78.3314 36.7734 88.6795 47.1216 88.6795 59.8866Z" fill="white"/>
</g>
<mask id="mask0" mask-type="alpha" maskUnits="userSpaceOnUse" x="42" y="36" width="47" height="47">
<path d="M88.6795 59.8866C88.6795 72.6517 78.3314 82.9999 65.5663 82.9999C52.8013 82.9999 42.4531 72.6517 42.4531 59.8866C42.4531 47.1216 52.8013 36.7734 65.5663 36.7734C78.3314 36.7734 88.6795 47.1216 88.6795 59.8866Z" fill="#C4C4C4"/>
</mask>
<g mask="url(#mask0)">
<path d="M73.1549 53.1456L72.9752 53.0589C72.2324 50.8398 70.1546 49.3431 67.8148 49.3418H57.4875L58.7265 53.0589C57.2862 53.7788 56.5527 55.4136 56.9733 56.968L58.107 60.493H59.3461V57.3955C59.3461 57.3955 63.0631 57.3955 64.9217 56.7759L70.4973 54.9174L72.9753 59.254V60.493H74.2143L74.9454 56.8317C75.2452 55.3399 74.5129 53.832 73.1549 53.1456Z" fill="#FBB640"/>
<path d="M58.7245 53.0586C57.2872 53.7803 56.5587 55.4164 56.9837 56.9677L58.105 60.4927H59.344V57.3952C59.344 57.3952 60.7998 57.3952 62.3424 57.2465C60.7577 56.2286 59.5014 54.774 58.7245 53.0586Z" fill="#FBB640"/>
<path d="M75.9401 74.9356L71.6345 74.3594L71.3372 75.0471C70.1074 77.9073 66.7918 79.2294 63.9316 77.9996C62.6058 77.4297 61.5495 76.3728 60.979 75.0471L60.6817 74.3594L56.3761 74.9356C54.5305 75.1808 53.1509 76.7538 53.1484 78.6154V85.2752H79.1679V78.6154C79.1653 76.7538 77.7856 75.1808 75.9401 74.9356Z" fill="#FBB640"/>
<path d="M66.164 78.458C68.4178 78.4592 70.4554 77.1162 71.3431 75.0445L71.6405 74.3568L70.959 74.2639C70.3383 74.1827 69.8755 73.6512 69.881 73.0248V70.4043H62.447V73.062C62.4525 73.6883 61.9898 74.2198 61.369 74.301L60.6875 74.3939L60.9848 75.0816C61.8838 77.1391 63.9189 78.4655 66.164 78.458Z" fill="#FEDAC6"/>
<path d="M69.9539 73.446C69.9043 73.3153 69.8789 73.1765 69.8795 73.0372V70.4043H62.4454V73.062C62.4461 73.2014 62.4206 73.3401 62.3711 73.4708C64.7587 74.6708 67.5743 74.6615 69.9539 73.446Z" fill="#F5C4B0"/>
<path d="M55.6265 75.1191C54.1452 75.6426 53.1528 77.0415 53.1484 78.6132V85.2729H55.6265V75.1191Z" fill="#F8AF32"/>
<path d="M72.9789 59.873H72.3594V63.5901H72.9789C74.0054 63.5901 74.8374 62.7581 74.8374 61.7316C74.8374 60.7051 74.0054 59.873 72.9789 59.873Z" fill="#FEDAC6"/>
<path d="M57.4883 61.7316C57.4883 62.7581 58.3203 63.5901 59.3468 63.5901H59.9663V59.873H59.3468C58.3203 59.873 57.4883 60.7051 57.4883 61.7316Z" fill="#F5C4B0"/>
<path d="M72.9763 65.939C72.9844 66.8498 72.6585 67.7313 72.0594 68.4171L69.3832 71.4465C68.9136 71.9811 68.2364 72.2884 67.5246 72.289H64.8112C64.0994 72.2884 63.4223 71.9811 62.9527 71.4465L60.2764 68.3861C59.6773 67.7003 59.3515 66.8188 59.3595 65.9081V57.396C59.3595 57.396 63.0766 57.396 64.9351 56.7765L70.5107 54.918L72.9888 59.2546L72.9763 65.939Z" fill="#FEDAC6"/>
<path d="M61.8259 57.291C60.4939 57.3963 59.3478 57.3963 59.3478 57.3963V65.9393C59.3397 66.85 59.6656 67.7316 60.2646 68.4174L61.8258 70.1644V57.291H61.8259Z" fill="#F5C4B0"/>
<path d="M59.3477 59.2539H64.9233V61.1124C64.9233 62.1389 64.0912 62.971 63.0647 62.971H61.2062C60.1797 62.971 59.3477 62.1389 59.3477 61.1124V59.2539Z" fill="white"/>
<path d="M67.4023 59.2539H72.978V61.1124C72.978 62.1389 72.1459 62.971 71.1194 62.971H69.2609C68.2344 62.971 67.4023 62.1389 67.4023 61.1124V59.2539Z" fill="white"/>
<path d="M53.7703 85.2741H52.5313V78.6391C52.5294 76.4542 54.1636 74.6018 56.3326 74.3323L61.2824 73.6639C61.5947 73.6237 61.8264 73.3572 61.8239 73.0444V71.0254H63.063V73.0388C63.071 73.9717 62.3759 74.7709 61.4454 74.8917L56.4918 75.5608C54.9356 75.7547 53.7685 77.0767 53.7697 78.6385V85.2741H53.7703Z" fill="#740B99"/>
<path d="M79.7935 85.2741H78.5545V78.6391C78.5557 77.0774 77.3886 75.7547 75.8391 75.5614L70.8762 74.8917C69.9488 74.7709 69.2537 73.9717 69.2618 73.0332V71.0254H70.5008V73.0388C70.4977 73.3572 70.7294 73.6229 71.0398 73.6638L75.9983 74.3329C78.161 74.6024 79.7953 76.4541 79.7934 78.6397V85.2741H79.7935Z" fill="#740B99"/>
<path d="M72.9789 64.21H72.3594V62.971H72.9789C73.6622 62.971 74.2179 62.4153 74.2179 61.732C74.2179 61.0486 73.6622 60.4929 72.9789 60.4929H72.3594V59.2539H72.9789C74.3456 59.2539 75.4569 60.3653 75.4569 61.732C75.4569 63.0986 74.3455 64.21 72.9789 64.21Z" fill="#740B99"/>
<path d="M59.9687 64.21H59.3491C57.9825 64.21 56.8711 63.0986 56.8711 61.732C56.8711 60.3653 57.9825 59.2539 59.3491 59.2539H59.9687V60.4929H59.3491C58.6658 60.4929 58.1101 61.0486 58.1101 61.732C58.1101 62.4153 58.6658 62.971 59.3491 62.971H59.9687V64.21Z" fill="#740B99"/>
<path d="M66.1636 79.0771C66.1611 79.0771 66.1587 79.0771 66.1568 79.0771C63.6528 79.0771 61.3984 77.5902 60.4121 75.2882L60.0156 74.3658L61.1543 73.877L61.5508 74.8C62.3419 76.6456 64.1496 77.8381 66.1574 77.8381C66.1593 77.8381 66.1611 77.8381 66.163 77.8381C68.1708 77.8381 69.9791 76.6456 70.7709 74.8L71.1674 73.877L72.3061 74.3658L71.9096 75.2888C70.9228 77.5902 68.6671 79.0771 66.1636 79.0771Z" fill="#740B99"/>
<path d="M66.7773 64.8303H64.2993C64.1085 64.8303 63.9282 64.7424 63.8105 64.5918C63.6934 64.4412 63.6519 64.2448 63.6983 64.0602L64.9374 59.1289L66.1386 59.4306L65.0935 63.5912H66.7773V64.8303Z" fill="#740B99"/>
<path d="M65.3924 67.3058H64.3008V66.0668H65.3911C66.2014 66.0649 67.0155 65.8729 67.7428 65.5117L68.2936 66.6219C67.3965 67.0666 66.3935 67.3033 65.3924 67.3058Z" fill="#740B99"/>
<path d="M67.5237 72.9067H64.809C63.9181 72.9055 63.0719 72.5214 62.4852 71.8535L59.8084 68.7925C59.109 67.9909 58.7292 66.9643 58.7384 65.9013V57.3942C58.7384 57.0523 59.016 56.7747 59.358 56.7747C59.3939 56.7747 62.9969 56.7673 64.7377 56.1868L70.3134 54.3283C70.594 54.236 70.9007 54.3524 71.0474 54.6089L73.5255 58.9455C73.5794 59.039 73.6073 59.1456 73.6073 59.254L73.5937 65.9348C73.6029 66.9966 73.2226 68.0219 72.5231 68.8223L69.845 71.8549C69.2596 72.5214 68.4127 72.9054 67.5237 72.9067ZM59.9768 58.0044V65.9062C59.97 66.6713 60.2413 67.4048 60.7407 67.9772L63.4163 71.0363C63.7676 71.4365 64.2756 71.667 64.8096 71.6676H67.5225C68.0546 71.667 68.5633 71.4365 68.9158 71.0351L71.5926 68.0044C72.0901 67.4345 72.3614 66.701 72.354 65.9421C72.354 65.9396 72.354 65.9377 72.354 65.9353L72.3664 59.4162L70.2217 55.6639L65.1287 57.3619C63.6481 57.8557 61.139 57.9752 59.9768 58.0044Z" fill="#740B99"/>
<path d="M57.5152 60.6824L56.3876 57.1573C55.9261 55.479 56.5915 53.7283 57.9785 52.7805L56.8975 49.5386C56.8343 49.3496 56.8665 49.1421 56.983 48.9804C57.1001 48.818 57.2872 48.7227 57.4861 48.7227H67.8195C70.3422 48.7252 72.5829 50.2814 73.475 52.6206C75.0485 53.4297 75.9053 55.2052 75.5516 56.9547L74.8206 60.6147L73.6058 60.3719L74.3368 56.7106C74.5834 55.4907 73.9787 54.2542 72.8655 53.701L72.6889 53.6093C72.5464 53.535 72.438 53.4085 72.3872 53.2556C71.7293 51.2874 69.8937 49.9635 67.819 49.9616H58.3453L59.313 52.8636C59.4109 53.1566 59.2777 53.4763 59.0014 53.6138C57.8281 54.1986 57.2284 55.5399 57.5759 56.8043L58.696 60.3046L57.5152 60.6824Z" fill="#740B99"/>
<path d="M63.0631 63.5889H61.2046C59.8379 63.5889 58.7266 62.4775 58.7266 61.1109V59.2523C58.7266 58.9104 59.0041 58.6328 59.3461 58.6328H64.9217C65.2636 58.6328 65.5412 58.9104 65.5412 59.2523V61.1109C65.5412 62.4775 64.4298 63.5889 63.0631 63.5889ZM59.9656 59.8718V61.1109C59.9656 61.7942 60.5213 62.3499 61.2046 62.3499H63.0631C63.7465 62.3499 64.3022 61.7942 64.3022 61.1109V59.8718H59.9656Z" fill="#740B99"/>
<path d="M71.1139 63.5889H69.2554C67.8887 63.5889 66.7773 62.4775 66.7773 61.1109V59.2523C66.7773 58.9104 67.0549 58.6328 67.3969 58.6328H72.9725C73.3151 58.6328 73.592 58.9104 73.592 59.2523V61.1109C73.592 62.4775 72.4805 63.5889 71.1139 63.5889ZM68.0164 59.8718V61.1109C68.0164 61.7942 68.5721 62.3499 69.2554 62.3499H71.1139C71.7973 62.3499 72.353 61.7942 72.353 61.1109V59.8718H68.0164Z" fill="#740B99"/>
<path d="M67.3999 58.6328H64.9219V59.8718H67.3999V58.6328Z" fill="#740B99"/>
</g>
<defs>
<filter id="filter0_d" x="44.9062" y="0" width="73.6792" height="73.6792" filterUnits="userSpaceOnUse" color-interpolation-filters="sRGB">
<feFlood flood-opacity="0" result="BackgroundImageFix"/>
<feColorMatrix in="SourceAlpha" type="matrix" values="0 0 0 0 0 0 0 0 0 0 0 0 0 0 0 0 0 0 127 0"/>
<feOffset dy="7"/>
<feGaussianBlur stdDeviation="10"/>
<feColorMatrix type="matrix" values="0 0 0 0 0 0 0 0 0 0 0 0 0 0 0 0 0 0 0.201568 0"/>
<feBlend mode="normal" in2="BackgroundImageFix" result="effect1_dropShadow"/>
<feBlend mode="normal" in="SourceGraphic" in2="effect1_dropShadow" result="shape"/>
</filter>
<filter id="filter1_d" x="15.8477" y="3.30273" width="73.6792" height="73.6792" filterUnits="userSpaceOnUse" color-interpolation-filters="sRGB">
<feFlood flood-opacity="0" result="BackgroundImageFix"/>
<feColorMatrix in="SourceAlpha" type="matrix" values="0 0 0 0 0 0 0 0 0 0 0 0 0 0 0 0 0 0 127 0"/>
<feOffset dy="7"/>
<feGaussianBlur stdDeviation="10"/>
<feColorMatrix type="matrix" values="0 0 0 0 0 0 0 0 0 0 0 0 0 0 0 0 0 0 0.201568 0"/>
<feBlend mode="normal" in2="BackgroundImageFix" result="effect1_dropShadow"/>
<feBlend mode="normal" in="SourceGraphic" in2="effect1_dropShadow" result="shape"/>
</filter>
<filter id="filter2_d" x="59.4336" y="28.3965" width="73.6792" height="73.6792" filterUnits="userSpaceOnUse" color-interpolation-filters="sRGB">
<feFlood flood-opacity="0" result="BackgroundImageFix"/>
<feColorMatrix in="SourceAlpha" type="matrix" values="0 0 0 0 0 0 0 0 0 0 0 0 0 0 0 0 0 0 127 0"/>
<feOffset dy="7"/>
<feGaussianBlur stdDeviation="10"/>
<feColorMatrix type="matrix" values="0 0 0 0 0 0 0 0 0 0 0 0 0 0 0 0 0 0 0.201568 0"/>
<feBlend mode="normal" in2="BackgroundImageFix" result="effect1_dropShadow"/>
<feBlend mode="normal" in="SourceGraphic" in2="effect1_dropShadow" result="shape"/>
</filter>
<filter id="filter3_d" x="0" y="31.6973" width="73.6792" height="73.6792" filterUnits="userSpaceOnUse" color-interpolation-filters="sRGB">
<feFlood flood-opacity="0" result="BackgroundImageFix"/>
<feColorMatrix in="SourceAlpha" type="matrix" values="0 0 0 0 0 0 0 0 0 0 0 0 0 0 0 0 0 0 127 0"/>
<feOffset dy="7"/>
<feGaussianBlur stdDeviation="10"/>
<feColorMatrix type="matrix" values="0 0 0 0 0 0 0 0 0 0 0 0 0 0 0 0 0 0 0.201568 0"/>
<feBlend mode="normal" in2="BackgroundImageFix" result="effect1_dropShadow"/>
<feBlend mode="normal" in="SourceGraphic" in2="effect1_dropShadow" result="shape"/>
</filter>
<filter id="filter4_d" x="22.4531" y="23.7734" width="86.2264" height="86.2264" filterUnits="userSpaceOnUse" color-interpolation-filters="sRGB">
<feFlood flood-opacity="0" result="BackgroundImageFix"/>
<feColorMatrix in="SourceAlpha" type="matrix" values="0 0 0 0 0 0 0 0 0 0 0 0 0 0 0 0 0 0 127 0"/>
<feOffset dy="7"/>
<feGaussianBlur stdDeviation="10"/>
<feColorMatrix type="matrix" values="0 0 0 0 0 0 0 0 0 0 0 0 0 0 0 0 0 0 0.201568 0"/>
<feBlend mode="normal" in2="BackgroundImageFix" result="effect1_dropShadow"/>
<feBlend mode="normal" in="SourceGraphic" in2="effect1_dropShadow" result="shape"/>
</filter>
</defs>
</svg>
