<svg width="142" height="140" viewBox="0 0 142 140" fill="none" xmlns="http://www.w3.org/2000/svg">
<path d="M32.4361 87.1254C32.4361 91.6311 28.8074 95.2839 24.3314 95.2839C19.8553 95.2839 16.2266 91.6311 16.2266 87.1254C16.2266 82.6196 19.8553 78.9668 24.3314 78.9668C28.8074 78.9668 32.4361 82.6196 32.4361 87.1254Z" stroke="#740B99" stroke-width="2" stroke-miterlimit="10"/>
<path d="M24.3359 102.352V116.363" stroke="#740B99" stroke-width="2" stroke-miterlimit="10"/>
<path d="M37.3125 138.468V118.934" stroke="#740B99" stroke-width="2" stroke-miterlimit="10"/>
<path d="M11.3516 118.934V138.468" stroke="#740B99" stroke-width="2" stroke-miterlimit="10"/>
<path d="M1 138.471V113.229C1 107.222 4.19015 102.352 10.1594 102.352H38.5088" stroke="#740B99" stroke-width="2" stroke-miterlimit="10"/>
<path d="M38.5078 102.352C44.4759 102.352 47.6672 107.222 47.6672 113.229V127.196" stroke="#740B99" stroke-width="2" stroke-miterlimit="10"/>
<path d="M79.108 87.1254C79.108 91.6311 75.4793 95.2839 71.0032 95.2839C66.5272 95.2839 62.8984 91.6311 62.8984 87.1254C62.8984 82.6196 66.5272 78.9668 71.0032 78.9668C75.4793 78.9668 79.108 82.6196 79.108 87.1254Z" stroke="#740B99" stroke-width="2" stroke-miterlimit="10"/>
<path d="M71 102.352V116.363" stroke="#740B99" stroke-width="2" stroke-miterlimit="10"/>
<path d="M83.9766 138.47V118.936" stroke="#740B99" stroke-width="2" stroke-miterlimit="10"/>
<path d="M58.0234 118.936V138.47" stroke="#740B99" stroke-width="2" stroke-miterlimit="10"/>
<path d="M47.6641 127.196V113.229C47.6641 107.222 50.8542 102.352 56.8234 102.352H85.1728" stroke="#740B99" stroke-width="2" stroke-miterlimit="10"/>
<path d="M85.1719 102.352C91.1399 102.352 94.3313 107.222 94.3313 113.229V127.196" stroke="#740B99" stroke-width="2" stroke-miterlimit="10"/>
<path d="M125.776 87.1254C125.776 91.6311 122.147 95.2839 117.671 95.2839C113.195 95.2839 109.566 91.6311 109.566 87.1254C109.566 82.6196 113.195 78.9668 117.671 78.9668C122.147 78.9668 125.776 82.6196 125.776 87.1254Z" stroke="#740B99" stroke-width="2" stroke-miterlimit="10"/>
<path d="M117.664 102.352V116.363" stroke="#740B99" stroke-width="2" stroke-miterlimit="10"/>
<path d="M130.645 138.47V118.936" stroke="#740B99" stroke-width="2" stroke-miterlimit="10"/>
<path d="M104.691 118.936V138.47" stroke="#740B99" stroke-width="2" stroke-miterlimit="10"/>
<path d="M94.332 127.196V113.229C94.332 107.222 97.5222 102.352 103.491 102.352H131.841" stroke="#740B99" stroke-width="2" stroke-miterlimit="10"/>
<path d="M131.84 102.352C137.808 102.352 140.999 107.222 140.999 113.229V138.471" stroke="#740B99" stroke-width="2" stroke-miterlimit="10"/>
<path d="M119.659 10.1035H22.3438V60.8041H119.659V10.1035Z" stroke="#740B99" stroke-width="2" stroke-miterlimit="10" stroke-linecap="round"/>
<path d="M120.839 10.1048H21.1628C19.1855 10.1048 17.582 8.14926 17.582 5.73535C17.582 3.32265 19.1855 1.36719 21.1628 1.36719H120.839C122.816 1.36719 124.42 3.32265 124.42 5.73535C124.42 8.14926 122.816 10.1048 120.839 10.1048Z" stroke="#740B99" stroke-width="2" stroke-miterlimit="10" stroke-linecap="round"/>
<path d="M74.7812 60.8066V69.8265" stroke="#740B99" stroke-width="2" stroke-miterlimit="10" stroke-linecap="round"/>
<path d="M67.2188 69.8265V60.8066" stroke="#740B99" stroke-width="2" stroke-miterlimit="10" stroke-linecap="round"/>
<path d="M11.3516 138.469H130.639" stroke="#740B99" stroke-width="2" stroke-miterlimit="10" stroke-linecap="round"/>
<path d="M39.2539 45.5867L56.6955 32.1226L64.9525 40.5804L78.9522 29.5651L85.8586 36.7526L102.752 24.0195" stroke="#740B99" stroke-width="2" stroke-miterlimit="10" stroke-linecap="round"/>
</svg>
