<svg width="108" height="107" viewBox="0 0 108 107" fill="none" xmlns="http://www.w3.org/2000/svg">
<path d="M52.5264 73.5052C47.4707 73.5052 43.1639 69.3778 43.1639 64.1248C43.1639 63.3743 42.415 62.6239 41.666 62.6239C40.917 62.6239 40.168 63.3743 40.168 64.1248C40.168 70.5035 44.8492 75.5689 51.0284 76.3194V81.1972C51.0284 81.9477 51.7774 82.6981 52.5264 82.6981C53.2754 82.6981 54.0244 81.9477 54.0244 81.1972V76.6946C60.2036 75.9442 64.8848 70.6911 64.8848 64.5C64.8848 57.746 59.2674 52.1178 52.5264 52.1178C46.5822 52.1178 43.1639 47.9904 43.1639 42.7373C43.1639 37.6718 47.2834 33.3568 52.5264 33.3568C57.3949 33.3568 61.5143 37.109 61.8888 41.9869C61.8888 42.7373 62.6378 43.4877 63.5741 43.4877C64.3231 43.4877 65.0721 42.7373 65.0721 41.7992C64.6976 35.7957 60.0164 31.1055 54.2116 30.3551V25.8524C54.2116 25.102 53.4626 24.3516 52.7136 24.3516C51.9646 24.3516 51.2157 25.102 51.2157 25.8524V30.3551C45.0364 31.1055 40.3552 36.3586 40.3552 42.5497C40.3552 49.3036 44.2962 54.9319 52.7136 54.9319C57.7694 54.9319 62.0761 59.0593 62.0761 64.3124C61.7016 69.3778 57.5821 73.5052 52.5264 73.5052Z" fill="#740B99"/>
<path d="M40.2222 103.661H3.33412V66.702C3.33412 65.9516 2.77238 65.2012 1.83613 65.2012C0.899889 65.2012 0.525391 65.9516 0.525391 66.702V104.974C0.525391 105.725 1.08714 106.475 2.02338 106.475H40.4094C41.1584 106.475 41.9074 105.912 41.9074 104.974C41.7202 104.224 41.1584 103.661 40.2222 103.661Z" fill="#740B99"/>
<path d="M105.892 0.525391H68.6291C67.8801 0.525391 67.3184 1.08822 67.3184 1.83866C67.3184 2.5891 67.8801 3.15192 68.6291 3.15192H104.581V38.9853C104.581 39.7358 105.143 40.2986 105.892 40.2986C106.641 40.2986 107.202 39.7358 107.202 38.9853V2.02627C107.39 1.27583 106.641 0.525391 105.892 0.525391Z" fill="#740B99"/>
<path d="M1.96895 40.6738C2.71794 40.6738 3.27969 40.111 3.27969 39.3606V3.33953H39.0442C39.7932 3.33953 40.355 2.7767 40.355 2.02627C40.355 1.27583 39.9805 0.525391 39.2315 0.525391H1.96895C1.21995 0.525391 0.658203 1.08822 0.658203 1.83866V39.1729C0.658203 40.111 1.21995 40.6738 1.96895 40.6738Z" fill="#740B99"/>
<path d="M105.892 66.377C105.143 66.377 104.581 66.9398 104.581 67.6902V103.711H68.8166C68.0676 103.711 67.5059 104.274 67.5059 105.025C67.5059 105.775 68.0676 106.338 68.8166 106.338H106.079C106.828 106.338 107.39 105.775 107.39 105.025V67.6902C107.39 66.9398 106.641 66.377 105.892 66.377Z" fill="#740B99"/>
</svg>
