<svg width="141" height="104" viewBox="0 0 141 104" fill="none" xmlns="http://www.w3.org/2000/svg">
<mask id="path-1-inside-1" fill="white">
<path fill-rule="evenodd" clip-rule="evenodd" d="M55.784 14.4552H84.55V3.99056H55.784V14.4552ZM139.037 7.69045H95.6246C94.7815 7.69045 94.0972 8.37653 94.0972 9.22187C94.0972 10.0672 94.7815 10.7533 95.6246 10.7533H137.51V100.086H4.01963V10.7533H52.7293V15.9866C52.7293 16.832 53.4136 17.518 54.2567 17.518H86.0774C86.9205 17.518 87.6048 16.832 87.6048 15.9866V2.45915C87.6048 1.61177 86.9205 0.927734 86.0774 0.927734H54.2567C53.4136 0.927734 52.7293 1.61177 52.7293 2.45915V7.69045H2.49224C1.64912 7.69045 0.964844 8.37653 0.964844 9.22187V101.617C0.964844 102.462 1.64912 103.149 2.49224 103.149H139.037C139.88 103.149 140.565 102.462 140.565 101.617V9.22187C140.565 8.37653 139.88 7.69045 139.037 7.69045V7.69045Z"/>
</mask>
<path fill-rule="evenodd" clip-rule="evenodd" d="M55.784 14.4552H84.55V3.99056H55.784V14.4552ZM139.037 7.69045H95.6246C94.7815 7.69045 94.0972 8.37653 94.0972 9.22187C94.0972 10.0672 94.7815 10.7533 95.6246 10.7533H137.51V100.086H4.01963V10.7533H52.7293V15.9866C52.7293 16.832 53.4136 17.518 54.2567 17.518H86.0774C86.9205 17.518 87.6048 16.832 87.6048 15.9866V2.45915C87.6048 1.61177 86.9205 0.927734 86.0774 0.927734H54.2567C53.4136 0.927734 52.7293 1.61177 52.7293 2.45915V7.69045H2.49224C1.64912 7.69045 0.964844 8.37653 0.964844 9.22187V101.617C0.964844 102.462 1.64912 103.149 2.49224 103.149H139.037C139.88 103.149 140.565 102.462 140.565 101.617V9.22187C140.565 8.37653 139.88 7.69045 139.037 7.69045V7.69045Z" fill="#740B99"/>
<path d="M55.784 14.4552H55.584V14.6552H55.784V14.4552ZM84.55 14.4552V14.6552H84.75V14.4552H84.55ZM84.55 3.99056H84.75V3.79056H84.55V3.99056ZM55.784 3.99056V3.79056H55.584V3.99056H55.784ZM137.51 10.7533H137.71V10.5533H137.51V10.7533ZM137.51 100.086V100.286H137.71V100.086H137.51ZM4.01963 100.086H3.81963V100.286H4.01963V100.086ZM4.01963 10.7533V10.5533H3.81963V10.7533H4.01963ZM52.7293 10.7533H52.9293V10.5533H52.7293V10.7533ZM52.7293 7.69045V7.89045H52.9293V7.69045H52.7293ZM55.784 14.6552H84.55V14.2552H55.784V14.6552ZM84.75 14.4552V3.99056H84.35V14.4552H84.75ZM84.55 3.79056H55.784V4.19056H84.55V3.79056ZM55.584 3.99056V14.4552H55.984V3.99056H55.584ZM139.037 7.49045H95.6246V7.89045H139.037V7.49045ZM95.6246 7.49045C94.6706 7.49045 93.8972 8.26657 93.8972 9.22187H94.2972C94.2972 8.48649 94.8925 7.89045 95.6246 7.89045V7.49045ZM93.8972 9.22187C93.8972 10.1772 94.6706 10.9533 95.6246 10.9533V10.5533C94.8925 10.5533 94.2972 9.95725 94.2972 9.22187H93.8972ZM95.6246 10.9533H137.51V10.5533H95.6246V10.9533ZM137.31 10.7533V100.086H137.71V10.7533H137.31ZM137.51 99.8857H4.01963V100.286H137.51V99.8857ZM4.21963 100.086V10.7533H3.81963V100.086H4.21963ZM4.01963 10.9533H52.7293V10.5533H4.01963V10.9533ZM52.5293 10.7533V15.9866H52.9293V10.7533H52.5293ZM52.5293 15.9866C52.5293 16.9419 53.3026 17.718 54.2567 17.718V17.318C53.5245 17.318 52.9293 16.722 52.9293 15.9866H52.5293ZM54.2567 17.718H86.0774V17.318H54.2567V17.718ZM86.0774 17.718C87.0315 17.718 87.8048 16.9419 87.8048 15.9866H87.4048C87.4048 16.722 86.8096 17.318 86.0774 17.318V17.718ZM87.8048 15.9866V2.45915H87.4048V15.9866H87.8048ZM87.8048 2.45915C87.8048 1.50163 87.0313 0.727734 86.0774 0.727734V1.12773C86.8097 1.12773 87.4048 1.7219 87.4048 2.45915H87.8048ZM86.0774 0.727734H54.2567V1.12773H86.0774V0.727734ZM54.2567 0.727734C53.3028 0.727734 52.5293 1.50163 52.5293 2.45915H52.9293C52.9293 1.7219 53.5243 1.12773 54.2567 1.12773V0.727734ZM52.5293 2.45915V7.69045H52.9293V2.45915H52.5293ZM52.7293 7.49045H2.49224V7.89045H52.7293V7.49045ZM2.49224 7.49045C1.53816 7.49045 0.764844 8.26656 0.764844 9.22187H1.16484C1.16484 8.48649 1.76007 7.89045 2.49224 7.89045V7.49045ZM0.764844 9.22187V101.617H1.16484V9.22187H0.764844ZM0.764844 101.617C0.764844 102.572 1.53816 103.349 2.49224 103.349V102.949C1.76007 102.949 1.16484 102.352 1.16484 101.617H0.764844ZM2.49224 103.349H139.037V102.949H2.49224V103.349ZM139.037 103.349C139.991 103.349 140.765 102.572 140.765 101.617H140.365C140.365 102.352 139.769 102.949 139.037 102.949V103.349ZM140.765 101.617V9.22187H140.365V101.617H140.765ZM140.765 9.22187C140.765 8.26657 139.991 7.49045 139.037 7.49045V7.89045C139.769 7.89045 140.365 8.48649 140.365 9.22187H140.765Z" fill="white" mask="url(#path-1-inside-1)"/>
<path d="M78.1758 30.7426H122.265C123.052 30.7426 123.692 31.3836 123.692 32.174C123.692 32.9644 123.052 33.6054 122.265 33.6054H78.1758C77.3882 33.6054 76.7484 32.9644 76.7484 32.174C76.7484 31.3836 77.3882 30.7426 78.1758 30.7426Z" fill="#740B99" stroke="white" stroke-width="0.2"/>
<path d="M122.265 54.7094C123.052 54.7094 123.692 55.3504 123.692 56.1408C123.692 56.9311 123.052 57.5722 122.265 57.5722H78.1758C77.3882 57.5722 76.7484 56.9311 76.7484 56.1408C76.7484 55.3504 77.3882 54.7094 78.1758 54.7094H122.265Z" fill="#740B99" stroke="white" stroke-width="0.2"/>
<path d="M76.7484 80.1037C76.7484 79.3133 77.3882 78.6723 78.1758 78.6723H90.1649C90.9525 78.6723 91.5923 79.3133 91.5923 80.1037C91.5923 80.894 90.9525 81.5351 90.1649 81.5351H78.1758C77.3882 81.5351 76.7484 80.894 76.7484 80.1037Z" fill="#740B99" stroke="white" stroke-width="0.2"/>
<mask id="path-6-inside-2" fill="white">
<path fill-rule="evenodd" clip-rule="evenodd" d="M34.7782 28.9553C36.1366 27.8404 38.0306 27.2503 40.2524 27.2503C42.4682 27.2503 44.4171 27.8221 45.8875 28.9104C47.9444 30.4275 48.9871 32.839 48.9871 36.0815C48.9871 42.8952 44.4965 50.1031 40.2524 50.1031C35.7028 50.1031 32.0391 42.4338 32.0391 36.0815C32.0391 32.843 32.9596 30.4479 34.7782 28.9553ZM40.2525 53.1659C46.8916 53.1659 52.0419 43.9815 52.0419 36.0815C52.0419 30.7624 49.6796 27.9017 47.698 26.4438C45.7002 24.9675 43.126 24.1875 40.2525 24.1875C37.3178 24.1875 34.7539 25.0165 32.8436 26.5847C30.3183 28.6551 28.9844 31.9385 28.9844 36.0815C28.9844 44.1469 33.8028 53.1659 40.2525 53.1659V53.1659Z"/>
</mask>
<path fill-rule="evenodd" clip-rule="evenodd" d="M34.7782 28.9553C36.1366 27.8404 38.0306 27.2503 40.2524 27.2503C42.4682 27.2503 44.4171 27.8221 45.8875 28.9104C47.9444 30.4275 48.9871 32.839 48.9871 36.0815C48.9871 42.8952 44.4965 50.1031 40.2524 50.1031C35.7028 50.1031 32.0391 42.4338 32.0391 36.0815C32.0391 32.843 32.9596 30.4479 34.7782 28.9553ZM40.2525 53.1659C46.8916 53.1659 52.0419 43.9815 52.0419 36.0815C52.0419 30.7624 49.6796 27.9017 47.698 26.4438C45.7002 24.9675 43.126 24.1875 40.2525 24.1875C37.3178 24.1875 34.7539 25.0165 32.8436 26.5847C30.3183 28.6551 28.9844 31.9385 28.9844 36.0815C28.9844 44.1469 33.8028 53.1659 40.2525 53.1659V53.1659Z" fill="#740B99"/>
<path d="M34.7782 28.9553L34.9051 29.1099L34.9051 29.1099L34.7782 28.9553ZM45.8875 28.9104L45.7685 29.0711L45.7688 29.0713L45.8875 28.9104ZM47.698 26.4438L47.5792 26.6046L47.5795 26.6049L47.698 26.4438ZM32.8436 26.5847L32.9704 26.7393L32.9705 26.7393L32.8436 26.5847ZM34.9051 29.1099C36.2191 28.0314 38.0644 27.4503 40.2524 27.4503V27.0503C37.9968 27.0503 36.0541 27.6494 34.6514 28.8007L34.9051 29.1099ZM40.2524 27.4503C42.4349 27.4503 44.3395 28.0134 45.7685 29.0711L46.0065 28.7496C44.4947 27.6307 42.5015 27.0503 40.2524 27.0503V27.4503ZM45.7688 29.0713C47.7611 30.5408 48.7871 32.8836 48.7871 36.0815H49.1871C49.1871 32.7943 48.1277 30.3142 46.0062 28.7494L45.7688 29.0713ZM48.7871 36.0815C48.7871 39.4479 47.6766 42.917 46.0415 45.5417C45.2243 46.8535 44.2803 47.9476 43.2858 48.7118C42.2907 49.4765 41.2561 49.9031 40.2524 49.9031V50.3031C41.3708 50.3031 42.489 49.8286 43.5296 49.029C44.5708 48.2288 45.5451 47.0951 46.3811 45.7532C48.0523 43.0705 49.1871 39.5288 49.1871 36.0815H48.7871ZM40.2524 49.9031C38.0932 49.9031 36.0914 48.0745 34.6151 45.3783C33.1464 42.6961 32.2391 39.2237 32.2391 36.0815H31.8391C31.8391 39.2915 32.7637 42.8299 34.2642 45.5704C35.7572 48.297 37.862 50.3031 40.2524 50.3031V49.9031ZM32.2391 36.0815C32.2391 32.8791 33.1485 30.5516 34.9051 29.1099L34.6514 28.8007C32.7708 30.3442 31.8391 32.807 31.8391 36.0815H32.2391ZM40.2525 53.3659C43.6695 53.3659 46.6702 51.005 48.8049 47.6946C50.9428 44.3793 52.2419 40.0707 52.2419 36.0815H51.8419C51.8419 39.9923 50.5658 44.2259 48.4688 47.4778C46.3686 50.7347 43.4745 52.9659 40.2525 52.9659V53.3659ZM52.2419 36.0815C52.2419 30.6917 49.8433 27.7739 47.8165 26.2827L47.5795 26.6049C49.5158 28.0295 51.8419 30.833 51.8419 36.0815H52.2419ZM47.8169 26.2829C45.7794 24.7774 43.1618 23.9875 40.2525 23.9875V24.3875C43.0902 24.3875 45.6209 25.1576 47.5792 26.6046L47.8169 26.2829ZM40.2525 23.9875C37.2807 23.9875 34.6692 24.8273 32.7167 26.4301L32.9705 26.7393C34.8385 25.2058 37.355 24.3875 40.2525 24.3875V23.9875ZM32.7168 26.43C30.1331 28.5483 28.7844 31.8961 28.7844 36.0815H29.1844C29.1844 31.9809 30.5035 28.762 32.9704 26.7393L32.7168 26.43ZM28.7844 36.0815C28.7844 40.1501 29.9987 44.4577 32.0295 47.7532C34.0571 51.0433 36.9276 53.3659 40.2525 53.3659V52.9659C37.1276 52.9659 34.3641 50.779 32.3701 47.5433C30.3793 44.3128 29.1844 40.0782 29.1844 36.0815H28.7844Z" fill="white" mask="url(#path-6-inside-2)"/>
<path d="M63.9807 80.1033C63.9807 80.8936 63.341 81.5347 62.5533 81.5347C61.7657 81.5347 61.1259 80.8936 61.1259 80.1033V71.462C61.1259 64.5586 55.5258 58.9433 48.6418 58.9433H32.3822C25.4982 58.9433 19.9001 64.5586 19.9001 71.462V80.1033C19.9001 80.8936 19.2604 81.5347 18.4727 81.5347C17.6851 81.5347 17.0453 80.8936 17.0453 80.1033V71.462C17.0453 62.9799 23.925 56.0805 32.3822 56.0805H48.6418C57.099 56.0805 63.9807 62.9799 63.9807 71.462V80.1033Z" fill="#740B99" stroke="white" stroke-width="0.2"/>
</svg>
