<svg width="103" height="136" viewBox="0 0 103 136" fill="none" xmlns="http://www.w3.org/2000/svg">
<path d="M41.1895 8.94922H61.0278" stroke="#740B99" stroke-width="2" stroke-miterlimit="10" stroke-linecap="round" stroke-linejoin="round"/>
<path d="M93.2993 134.402H8.92376C4.54705 134.402 1 130.854 1 126.479V8.92376C1 4.5482 4.5482 1 8.92376 1H93.2993C97.676 1 101.223 4.5482 101.223 8.92376V126.479C101.223 130.855 97.676 134.402 93.2993 134.402Z" stroke="#740B99" stroke-width="2" stroke-miterlimit="10" stroke-linecap="round" stroke-linejoin="round"/>
<path d="M41.1895 126.449H61.0278" stroke="#740B99" stroke-width="2" stroke-miterlimit="10" stroke-linecap="round" stroke-linejoin="round"/>
<path d="M1 16.9062H101.223" stroke="#740B99" stroke-width="2" stroke-miterlimit="10" stroke-linecap="round" stroke-linejoin="round"/>
<path d="M101.223 118.496H1" stroke="#740B99" stroke-width="2" stroke-miterlimit="10" stroke-linecap="round" stroke-linejoin="round"/>
<path d="M21.899 41.6192H15.7007C13.6346 41.6192 11.959 39.9436 11.959 37.8775V31.6792C11.959 29.6131 13.6346 27.9375 15.7007 27.9375H21.899C23.9651 27.9375 25.6407 29.6131 25.6407 31.6792V37.8775C25.6407 39.9436 23.9651 41.6192 21.899 41.6192Z" stroke="#740B99" stroke-width="2" stroke-miterlimit="10" stroke-linecap="round" stroke-linejoin="round"/>
<path d="M43.108 41.6192H36.9096C34.8435 41.6192 33.168 39.9436 33.168 37.8775V31.6792C33.168 29.6131 34.8435 27.9375 36.9096 27.9375H43.108C45.1741 27.9375 46.8497 29.6131 46.8497 31.6792V37.8775C46.8497 39.9436 45.1741 41.6192 43.108 41.6192Z" stroke="#740B99" stroke-width="2" stroke-miterlimit="10" stroke-linecap="round" stroke-linejoin="round"/>
<path d="M64.3111 41.6192H58.1128C56.0467 41.6192 54.3711 39.9436 54.3711 37.8775V31.6792C54.3711 29.6131 56.0467 27.9375 58.1128 27.9375H64.3111C66.3772 27.9375 68.0528 29.6131 68.0528 31.6792V37.8775C68.0528 39.9436 66.3784 41.6192 64.3111 41.6192Z" stroke="#740B99" stroke-width="2" stroke-miterlimit="10" stroke-linecap="round" stroke-linejoin="round"/>
<path d="M85.5201 41.6192H79.3218C77.2557 41.6192 75.5801 39.9436 75.5801 37.8775V31.6792C75.5801 29.6131 77.2557 27.9375 79.3218 27.9375H85.5201C87.5862 27.9375 89.2618 29.6131 89.2618 31.6792V37.8775C89.2618 39.9436 87.5862 41.6192 85.5201 41.6192Z" stroke="#740B99" stroke-width="2" stroke-miterlimit="10" stroke-linecap="round" stroke-linejoin="round"/>
<path d="M21.899 63.7462H15.7007C13.6346 63.7462 11.959 62.0706 11.959 60.0045V53.8062C11.959 51.7401 13.6346 50.0645 15.7007 50.0645H21.899C23.9651 50.0645 25.6407 51.7401 25.6407 53.8062V60.0045C25.6407 62.0706 23.9651 63.7462 21.899 63.7462Z" stroke="#740B99" stroke-width="2" stroke-miterlimit="10" stroke-linecap="round" stroke-linejoin="round"/>
<path d="M43.108 63.7462H36.9096C34.8435 63.7462 33.168 62.0706 33.168 60.0045V53.8062C33.168 51.7401 34.8435 50.0645 36.9096 50.0645H43.108C45.1741 50.0645 46.8497 51.7401 46.8497 53.8062V60.0045C46.8497 62.0706 45.1741 63.7462 43.108 63.7462Z" fill="#740B99"/>
<path d="M64.3111 63.7462H58.1128C56.0467 63.7462 54.3711 62.0706 54.3711 60.0045V53.8062C54.3711 51.7401 56.0467 50.0645 58.1128 50.0645H64.3111C66.3772 50.0645 68.0528 51.7401 68.0528 53.8062V60.0045C68.0528 62.0706 66.3784 63.7462 64.3111 63.7462Z" stroke="#740B99" stroke-width="2" stroke-miterlimit="10" stroke-linecap="round" stroke-linejoin="round"/>
<path d="M85.5201 63.7462H79.3218C77.2557 63.7462 75.5801 62.0706 75.5801 60.0045V53.8062C75.5801 51.7401 77.2557 50.0645 79.3218 50.0645H85.5201C87.5862 50.0645 89.2618 51.7401 89.2618 53.8062V60.0045C89.2618 62.0706 87.5862 63.7462 85.5201 63.7462Z" stroke="#740B99" stroke-width="2" stroke-miterlimit="10" stroke-linecap="round" stroke-linejoin="round"/>
<path d="M21.899 85.8711H15.7007C13.6346 85.8711 11.959 84.1955 11.959 82.1293V75.931C11.959 73.8649 13.6346 72.1895 15.7007 72.1895H21.899C23.9651 72.1895 25.6407 73.8649 25.6407 75.931V82.1293C25.6407 84.1955 23.9651 85.8711 21.899 85.8711Z" stroke="#740B99" stroke-width="2" stroke-miterlimit="10" stroke-linecap="round" stroke-linejoin="round"/>
<path d="M43.108 85.8711H36.9096C34.8435 85.8711 33.168 84.1955 33.168 82.1293V75.931C33.168 73.8649 34.8435 72.1895 36.9096 72.1895H43.108C45.1741 72.1895 46.8497 73.8649 46.8497 75.931V82.1293C46.8497 84.1955 45.1741 85.8711 43.108 85.8711Z" stroke="#740B99" stroke-width="2" stroke-miterlimit="10" stroke-linecap="round" stroke-linejoin="round"/>
<path d="M64.3111 85.8711H58.1128C56.0467 85.8711 54.3711 84.1955 54.3711 82.1293V75.931C54.3711 73.8649 56.0467 72.1895 58.1128 72.1895H64.3111C66.3772 72.1895 68.0528 73.8649 68.0528 75.931V82.1293C68.0528 84.1955 66.3784 85.8711 64.3111 85.8711Z" stroke="#740B99" stroke-width="2" stroke-miterlimit="10" stroke-linecap="round" stroke-linejoin="round"/>
<path d="M85.5201 85.8711H79.3218C77.2557 85.8711 75.5801 84.1955 75.5801 82.1293V75.931C75.5801 73.8649 77.2557 72.1895 79.3218 72.1895H85.5201C87.5862 72.1895 89.2618 73.8649 89.2618 75.931V82.1293C89.2618 84.1955 87.5862 85.8711 85.5201 85.8711Z" stroke="#740B99" stroke-width="2" stroke-miterlimit="10" stroke-linecap="round" stroke-linejoin="round"/>
<path d="M37.8701 107.236C38.1652 107.236 38.4043 106.997 38.4043 106.702C38.4043 106.407 38.1652 106.168 37.8701 106.168C37.5751 106.168 37.3359 106.407 37.3359 106.702C37.3359 106.997 37.5751 107.236 37.8701 107.236Z" stroke="#740B99" stroke-width="3" stroke-miterlimit="10" stroke-linecap="round" stroke-linejoin="round"/>
<path d="M50.917 107.236C51.212 107.236 51.4512 106.997 51.4512 106.702C51.4512 106.407 51.212 106.168 50.917 106.168C50.622 106.168 50.3828 106.407 50.3828 106.702C50.3828 106.997 50.622 107.236 50.917 107.236Z" stroke="#740B99" stroke-width="3" stroke-miterlimit="10" stroke-linecap="round" stroke-linejoin="round"/>
<path d="M63.9561 107.236C64.2511 107.236 64.4903 106.997 64.4903 106.702C64.4903 106.407 64.2511 106.168 63.9561 106.168C63.661 106.168 63.4219 106.407 63.4219 106.702C63.4219 106.997 63.661 107.236 63.9561 107.236Z" stroke="#740B99" stroke-width="3" stroke-miterlimit="10" stroke-linecap="round" stroke-linejoin="round"/>
</svg>
