<svg width="320" height="518" viewBox="0 0 320 518" fill="none" xmlns="http://www.w3.org/2000/svg">
<path d="M0 0H320V488C320 504.569 306.569 518 290 518H30C13.4315 518 0 504.569 0 488V0Z" fill="url(#paint0_linear)"/>
<path d="M0 504C14.7628 435.616 112.032 376.204 177.832 355.389C280.418 322.936 216.832 89.5075 321 79.5" stroke="white" stroke-opacity="0.6"/>
<path opacity="0.2" fill-rule="evenodd" clip-rule="evenodd" d="M268 137C274.627 137 280 131.627 280 125C280 118.373 274.627 113 268 113C261.373 113 256 118.373 256 125C256 131.627 261.373 137 268 137Z" fill="#FBB63F"/>
<path opacity="0.4" fill-rule="evenodd" clip-rule="evenodd" d="M268 133.754C272.835 133.754 276.754 129.835 276.754 125C276.754 120.165 272.835 116.246 268 116.246C263.165 116.246 259.246 120.165 259.246 125C259.246 129.835 263.165 133.754 268 133.754Z" fill="#FBB63F"/>
<path fill-rule="evenodd" clip-rule="evenodd" d="M268.001 130.114C270.826 130.114 273.116 127.824 273.116 125C273.116 122.175 270.826 119.885 268.001 119.885C265.177 119.885 262.887 122.175 262.887 125C262.887 127.824 265.177 130.114 268.001 130.114Z" fill="#FBB63F"/>
<path opacity="0.2" fill-rule="evenodd" clip-rule="evenodd" d="M214 347C220.627 347 226 341.627 226 335C226 328.373 220.627 323 214 323C207.373 323 202 328.373 202 335C202 341.627 207.373 347 214 347Z" fill="#FBB63F"/>
<path opacity="0.4" fill-rule="evenodd" clip-rule="evenodd" d="M214 343.754C218.835 343.754 222.754 339.835 222.754 335C222.754 330.165 218.835 326.246 214 326.246C209.165 326.246 205.246 330.165 205.246 335C205.246 339.835 209.165 343.754 214 343.754Z" fill="#FBB63F"/>
<path fill-rule="evenodd" clip-rule="evenodd" d="M214.001 340.114C216.826 340.114 219.116 337.824 219.116 335C219.116 332.175 216.826 329.885 214.001 329.885C211.177 329.885 208.887 332.175 208.887 335C208.887 337.824 211.177 340.114 214.001 340.114Z" fill="#FBB63F"/>
<path opacity="0.2" fill-rule="evenodd" clip-rule="evenodd" d="M56 435C62.6274 435 68 429.627 68 423C68 416.373 62.6274 411 56 411C49.3726 411 44 416.373 44 423C44 429.627 49.3726 435 56 435Z" fill="#FBB63F"/>
<path opacity="0.4" fill-rule="evenodd" clip-rule="evenodd" d="M56.0002 431.754C60.8349 431.754 64.7543 427.835 64.7543 423C64.7543 418.165 60.8349 414.246 56.0002 414.246C51.1654 414.246 47.2461 418.165 47.2461 423C47.2461 427.835 51.1654 431.754 56.0002 431.754Z" fill="#FBB63F"/>
<path fill-rule="evenodd" clip-rule="evenodd" d="M56.0015 428.114C58.8263 428.114 61.1162 425.824 61.1162 423C61.1162 420.175 58.8263 417.885 56.0015 417.885C53.1767 417.885 50.8867 420.175 50.8867 423C50.8867 425.824 53.1767 428.114 56.0015 428.114Z" fill="#FBB63F"/>
<defs>
<linearGradient id="paint0_linear" x1="-161.478" y1="254.214" x2="301.365" y2="536.685" gradientUnits="userSpaceOnUse">
<stop stop-color="#FBB63F"/>
<stop offset="0.981306" stop-color="#B069A1"/>
</linearGradient>
</defs>
</svg>
