<svg width="1440" height="652" viewBox="0 0 1440 652" fill="none" xmlns="http://www.w3.org/2000/svg">
<rect x="-1" y="1" width="1440" height="650" fill="url(#paint0_linear)"/>
<path d="M0 651.5C32.3077 584.907 245.176 527.052 389.176 506.782C613.681 475.179 574.121 251.942 802.088 242.197C977.878 234.682 968.736 200.292 1045.88 161.311C1123.02 122.329 1193.17 117.587 1245.66 124.766C1402.42 146.205 1391.54 48.9145 1440 1" stroke="white" stroke-opacity="0.6"/>
<path opacity="0.2" fill-rule="evenodd" clip-rule="evenodd" d="M1387 96C1393.63 96 1399 90.6274 1399 84C1399 77.3726 1393.63 72 1387 72C1380.37 72 1375 77.3726 1375 84C1375 90.6274 1380.37 96 1387 96Z" fill="#FBB63F"/>
<path opacity="0.4" fill-rule="evenodd" clip-rule="evenodd" d="M1387 92.7543C1391.83 92.7543 1395.75 88.8349 1395.75 84.0002C1395.75 79.1654 1391.83 75.2461 1387 75.2461C1382.17 75.2461 1378.25 79.1654 1378.25 84.0002C1378.25 88.8349 1382.17 92.7543 1387 92.7543Z" fill="#FBB63F"/>
<path fill-rule="evenodd" clip-rule="evenodd" d="M1387 89.1143C1389.83 89.1143 1392.12 86.8243 1392.12 83.9995C1392.12 81.1747 1389.83 78.8848 1387 78.8848C1384.18 78.8848 1381.89 81.1747 1381.89 83.9995C1381.89 86.8243 1384.18 89.1143 1387 89.1143Z" fill="#FBB63F"/>
<path opacity="0.2" fill-rule="evenodd" clip-rule="evenodd" d="M1116 146C1122.63 146 1128 140.627 1128 134C1128 127.373 1122.63 122 1116 122C1109.37 122 1104 127.373 1104 134C1104 140.627 1109.37 146 1116 146Z" fill="#FBB640"/>
<path opacity="0.4" fill-rule="evenodd" clip-rule="evenodd" d="M1116 142.754C1120.83 142.754 1124.75 138.835 1124.75 134C1124.75 129.165 1120.83 125.246 1116 125.246C1111.17 125.246 1107.25 129.165 1107.25 134C1107.25 138.835 1111.17 142.754 1116 142.754Z" fill="#FBB640"/>
<path fill-rule="evenodd" clip-rule="evenodd" d="M1116 139.114C1118.83 139.114 1121.12 136.824 1121.12 134C1121.12 131.175 1118.83 128.885 1116 128.885C1113.18 128.885 1110.89 131.175 1110.89 134C1110.89 136.824 1113.18 139.114 1116 139.114Z" fill="#FBB640"/>
<path opacity="0.2" fill-rule="evenodd" clip-rule="evenodd" d="M92 597C98.6274 597 104 591.627 104 585C104 578.373 98.6274 573 92 573C85.3726 573 80 578.373 80 585C80 591.627 85.3726 597 92 597Z" fill="#FBB63F"/>
<path opacity="0.4" fill-rule="evenodd" clip-rule="evenodd" d="M92.0002 593.754C96.8349 593.754 100.754 589.835 100.754 585C100.754 580.165 96.8349 576.246 92.0002 576.246C87.1654 576.246 83.2461 580.165 83.2461 585C83.2461 589.835 87.1654 593.754 92.0002 593.754Z" fill="#FBB63F"/>
<path fill-rule="evenodd" clip-rule="evenodd" d="M92.0015 590.114C94.8263 590.114 97.1162 587.824 97.1162 585C97.1162 582.175 94.8263 579.885 92.0015 579.885C89.1767 579.885 86.8867 582.175 86.8867 585C86.8867 587.824 89.1767 590.114 92.0015 590.114Z" fill="#FBB63F"/>
<path opacity="0.2" fill-rule="evenodd" clip-rule="evenodd" d="M463 498C469.627 498 475 492.627 475 486C475 479.373 469.627 474 463 474C456.373 474 451 479.373 451 486C451 492.627 456.373 498 463 498Z" fill="#FBB640"/>
<path opacity="0.4" fill-rule="evenodd" clip-rule="evenodd" d="M463 494.754C467.835 494.754 471.754 490.835 471.754 486C471.754 481.165 467.835 477.246 463 477.246C458.165 477.246 454.246 481.165 454.246 486C454.246 490.835 458.165 494.754 463 494.754Z" fill="#FBB640"/>
<path fill-rule="evenodd" clip-rule="evenodd" d="M463.001 491.114C465.826 491.114 468.116 488.824 468.116 486C468.116 483.175 465.826 480.885 463.001 480.885C460.177 480.885 457.887 483.175 457.887 486C457.887 488.824 460.177 491.114 463.001 491.114Z" fill="#FBB640"/>
<path opacity="0.2" fill-rule="evenodd" clip-rule="evenodd" d="M806 255C812.627 255 818 249.627 818 243C818 236.373 812.627 231 806 231C799.373 231 794 236.373 794 243C794 249.627 799.373 255 806 255Z" fill="#FBB63F"/>
<path opacity="0.4" fill-rule="evenodd" clip-rule="evenodd" d="M806 251.754C810.835 251.754 814.754 247.835 814.754 243C814.754 238.165 810.835 234.246 806 234.246C801.165 234.246 797.246 238.165 797.246 243C797.246 247.835 801.165 251.754 806 251.754Z" fill="#FBB63F"/>
<path fill-rule="evenodd" clip-rule="evenodd" d="M806.001 248.114C808.826 248.114 811.116 245.824 811.116 243C811.116 240.175 808.826 237.885 806.001 237.885C803.177 237.885 800.887 240.175 800.887 243C800.887 245.824 803.177 248.114 806.001 248.114Z" fill="#FBB63F"/>
<defs>
<linearGradient id="paint0_linear" x1="-727.652" y1="319.995" x2="-233.95" y2="1400.52" gradientUnits="userSpaceOnUse">
<stop stop-color="#FBB63F"/>
<stop offset="0.981306" stop-color="#B069A1"/>
</linearGradient>
</defs>
</svg>
