<svg width="320" height="518" viewBox="0 0 320 518" fill="none" xmlns="http://www.w3.org/2000/svg">
<path d="M0 0H320V488C320 504.569 306.569 518 290 518H30C13.4315 518 0 504.569 0 488V0Z" fill="white"/>
<g opacity="0.05">
<path d="M182.46 333.078L290.762 368.261L290.762 394.994L217.426 418.655L290.762 443.083L290.762 469.663L182.46 505L182.46 479.189L258.581 454.914L182.46 429.563L182.46 406.517L259.2 381.935L182.46 356.892L182.46 333.078Z" fill="#740B99"/>
<path d="M206.287 268.383C206.287 258.14 209.381 249.895 215.57 243.647C221.758 237.296 230.938 234.121 243.109 234.121L290.762 234.121L290.762 258.089L246.823 258.089C240.221 258.089 235.322 259.523 232.125 262.391C228.824 265.259 227.174 269.407 227.174 274.836C227.174 280.879 229.082 285.693 232.898 289.278C236.611 292.863 242.181 294.655 249.608 294.655L290.762 294.655L290.762 318.623L175.962 318.623L175.962 294.655L216.189 294.655C212.991 291.48 210.567 287.639 208.917 283.132C207.164 278.625 206.287 273.709 206.287 268.383Z" fill="#740B99"/>
<path d="M207.525 212.396L207.525 188.428L290.762 188.428L290.762 212.396L207.525 212.396ZM195.921 200.412C195.921 204.816 194.631 208.401 192.053 211.167C189.474 213.932 186.277 215.315 182.46 215.315C178.644 215.315 175.447 213.932 172.868 211.167C170.289 208.401 169 204.816 169 200.412C169 196.008 170.238 192.423 172.713 189.657C175.189 186.892 178.283 185.509 181.996 185.509C186.019 185.509 189.371 186.892 192.053 189.657C194.631 192.423 195.921 196.008 195.921 200.412Z" fill="#740B99"/>
<path d="M286.74 112.871C288.493 115.227 289.834 118.146 290.762 121.629C291.587 125.009 292 128.594 292 132.383C292 142.216 289.473 149.847 284.419 155.276C279.365 160.602 271.938 163.265 262.14 163.265L227.947 163.265L227.947 176.017L209.381 176.017L209.381 163.265L189.113 163.265L189.113 139.297L209.381 139.297L209.381 118.71L227.947 118.71L227.947 139.297L261.83 139.297C265.337 139.297 268.07 138.427 270.03 136.685C271.887 134.842 272.815 132.281 272.815 129.003C272.815 125.214 271.784 121.987 269.721 119.324L286.74 112.871Z" fill="#740B99"/>
<path d="M249.453 21C249.762 21 251.928 21.1537 255.951 21.4609L255.951 83.992C261.108 82.8653 265.182 80.2022 268.174 76.0028C271.165 71.8033 272.66 66.5796 272.66 60.3316C272.66 56.0297 272.041 52.2399 270.804 48.9623C269.463 45.5822 267.4 42.4582 264.615 39.5903L278.54 26.8383C287.513 34.6226 292 45.9919 292 60.9461C292 70.2669 290.195 78.5122 286.585 85.682C282.872 92.8518 277.766 98.3828 271.268 102.275C264.77 106.167 257.395 108.113 249.143 108.113C240.995 108.113 233.672 106.218 227.174 102.429C220.572 98.5365 215.467 93.2615 211.857 86.6038C208.143 79.8437 206.287 72.3154 206.287 64.0189C206.287 55.9272 208.04 48.6038 211.547 42.0485C215.054 35.4933 220.108 30.372 226.709 26.6846C233.208 22.8949 240.789 21 249.453 21ZM224.543 63.8653C224.543 69.2939 226.091 73.8518 229.185 77.5392C232.279 81.2265 236.508 83.4799 241.872 84.2993L241.872 43.5849C236.611 44.4043 232.434 46.6577 229.34 50.3451C226.142 54.0324 224.543 58.5391 224.543 63.8653Z" fill="#740B99"/>
</g>
</svg>
