<svg width="1438" height="652" viewBox="0 0 1438 652" fill="none" xmlns="http://www.w3.org/2000/svg">
<rect width="1438" height="650" fill="white"/>
<mask id="mask0" mask-type="alpha" maskUnits="userSpaceOnUse" x="0" y="2" width="1438" height="650">
<rect y="2" width="1438" height="650" fill="white"/>
</mask>
<g mask="url(#mask0)">
<g opacity="0.05">
<path d="M504.448 335.15L401.398 650.15H323.098L253.798 436.85L182.248 650.15H104.398L0.898438 335.15H76.4984L147.598 556.55L221.848 335.15H289.348L361.348 558.35L434.698 335.15H504.448Z" fill="#740B99"/>
<path d="M693.937 404.45C723.937 404.45 748.087 413.45 766.387 431.45C784.987 449.45 794.287 476.15 794.287 511.55V650.15H724.087V522.35C724.087 503.15 719.887 488.9 711.487 479.6C703.087 470 690.937 465.2 675.037 465.2C657.337 465.2 643.237 470.75 632.737 481.85C622.237 492.65 616.987 508.85 616.987 530.45V650.15H546.787V316.25H616.987V433.25C626.287 423.95 637.537 416.9 650.737 412.1C663.937 407 678.337 404.45 693.937 404.45Z" fill="#740B99"/>
<path d="M857.92 408.05H928.12V650.15H857.92V408.05ZM893.02 374.3C880.12 374.3 869.62 370.55 861.52 363.05C853.42 355.55 849.37 346.25 849.37 335.15C849.37 324.05 853.42 314.75 861.52 307.25C869.62 299.75 880.12 296 893.02 296C905.92 296 916.42 299.6 924.52 306.8C932.62 314 936.67 323 936.67 333.8C936.67 345.5 932.62 355.25 924.52 363.05C916.42 370.55 905.92 374.3 893.02 374.3Z" fill="#740B99"/>
<path d="M1149.42 638.45C1142.52 643.55 1133.97 647.45 1123.77 650.15C1113.87 652.55 1103.37 653.75 1092.27 653.75C1063.47 653.75 1041.12 646.4 1025.22 631.7C1009.62 617 1001.82 595.4 1001.82 566.9V467.45H964.471V413.45H1001.82V354.5H1072.02V413.45H1132.32V467.45H1072.02V566C1072.02 576.2 1074.57 584.15 1079.67 589.85C1085.07 595.25 1092.57 597.95 1102.17 597.95C1113.27 597.95 1122.72 594.95 1130.52 588.95L1149.42 638.45Z" fill="#740B99"/>
<path d="M1418.51 530C1418.51 530.9 1418.06 537.2 1417.16 548.9H1234.01C1237.31 563.9 1245.11 575.75 1257.41 584.45C1269.71 593.15 1285.01 597.5 1303.31 597.5C1315.91 597.5 1327.01 595.7 1336.61 592.1C1346.51 588.2 1355.66 582.2 1364.06 574.1L1401.41 614.6C1378.61 640.7 1345.31 653.75 1301.51 653.75C1274.21 653.75 1250.06 648.5 1229.06 638C1208.06 627.2 1191.86 612.35 1180.46 593.45C1169.06 574.55 1163.36 553.1 1163.36 529.1C1163.36 505.4 1168.91 484.1 1180.01 465.2C1191.41 446 1206.86 431.15 1226.36 420.65C1246.16 409.85 1268.21 404.45 1292.51 404.45C1316.21 404.45 1337.66 409.55 1356.86 419.75C1376.06 429.95 1391.06 444.65 1401.86 463.85C1412.96 482.75 1418.51 504.8 1418.51 530ZM1292.96 457.55C1277.06 457.55 1263.71 462.05 1252.91 471.05C1242.11 480.05 1235.51 492.35 1233.11 507.95H1352.36C1349.96 492.65 1343.36 480.5 1332.56 471.5C1321.76 462.2 1308.56 457.55 1292.96 457.55Z" fill="#740B99"/>
</g>
</g>
</svg>
