<svg width="1440" height="650" viewBox="0 0 1440 650" fill="none" xmlns="http://www.w3.org/2000/svg">
<mask id="mask0" mask-type="alpha" maskUnits="userSpaceOnUse" x="0" y="0" width="1440" height="650">
<rect x="0" y="0" width="1438" height="650" fill="url(#paint0_linear)"/>
</mask>
<g mask="url(#mask0)">
<rect x="-22" y="-515" width="1476" height="1195.94" rx="30" fill="#1C94ED"/>
<mask id="mask1" mask-type="alpha" maskUnits="userSpaceOnUse" x="-22" y="-515" width="1476" height="1196">
<rect x="-22" y="-515" width="1476" height="1195.94" rx="30" fill="white"/>
</mask>
<g mask="url(#mask1)">
<g opacity="0.5">
<path opacity="0.60681" d="M17.4209 -176.476V160.842" stroke="white" stroke-width="0.5" stroke-linecap="square" stroke-dasharray="2 2 2"/>
<path opacity="0.60681" d="M90.5888 -176.476V160.842" stroke="white" stroke-width="0.5" stroke-linecap="square" stroke-dasharray="2 2 2"/>
<path opacity="0.60681" d="M163.757 -176.476V160.842" stroke="white" stroke-width="0.5" stroke-linecap="square" stroke-dasharray="2 2 2"/>
<path opacity="0.60681" d="M238.186 -176.476V160.842" stroke="white" stroke-width="0.5" stroke-linecap="square" stroke-dasharray="2 2 2"/>
<path opacity="0.60681" d="M311.358 -176.476V160.842" stroke="white" stroke-width="0.5" stroke-linecap="square" stroke-dasharray="2 2 2"/>
<path opacity="0.60681" d="M384.526 -176.476V160.842" stroke="white" stroke-width="0.5" stroke-linecap="square" stroke-dasharray="2 2 2"/>
<path opacity="0.60681" d="M458.956 -176.476V160.842" stroke="white" stroke-width="0.5" stroke-linecap="square" stroke-dasharray="2 2 2"/>
<path opacity="0.60681" d="M532.128 -176.476V160.842" stroke="white" stroke-width="0.5" stroke-linecap="square" stroke-dasharray="2 2 2"/>
<path opacity="0.60681" d="M605.296 -176.476V160.842" stroke="white" stroke-width="0.5" stroke-linecap="square" stroke-dasharray="2 2 2"/>
<path opacity="0.60681" d="M680.991 -176.476V160.842" stroke="white" stroke-width="0.5" stroke-linecap="square" stroke-dasharray="2 2 2"/>
<path opacity="0.60681" d="M754.159 -176.476V160.842" stroke="white" stroke-width="0.5" stroke-linecap="square" stroke-dasharray="2 2 2"/>
<path opacity="0.60681" d="M828.593 -176.476V160.842" stroke="white" stroke-width="0.5" stroke-linecap="square" stroke-dasharray="2 2 2"/>
<path opacity="0.60681" d="M901.761 -176.476V160.842" stroke="white" stroke-width="0.5" stroke-linecap="square" stroke-dasharray="2 2 2"/>
<path opacity="0.60681" d="M974.929 -176.476V160.842" stroke="white" stroke-width="0.5" stroke-linecap="square" stroke-dasharray="2 2 2"/>
<path opacity="0.60681" d="M1049.36 -176.476V160.842" stroke="white" stroke-width="0.5" stroke-linecap="square" stroke-dasharray="2 2 2"/>
<path opacity="0.60681" d="M1122.53 -176.476V160.842" stroke="white" stroke-width="0.5" stroke-linecap="square" stroke-dasharray="2 2 2"/>
<path opacity="0.60681" d="M1195.7 -176.476V160.842" stroke="white" stroke-width="0.5" stroke-linecap="square" stroke-dasharray="2 2 2"/>
<path opacity="0.60681" d="M1270.13 -176.476V160.842" stroke="white" stroke-width="0.5" stroke-linecap="square" stroke-dasharray="2 2 2"/>
<path opacity="0.60681" d="M1343.3 -176.476V160.842" stroke="white" stroke-width="0.5" stroke-linecap="square" stroke-dasharray="2 2 2"/>
<path opacity="0.60681" d="M1416.47 -176.476V160.842" stroke="white" stroke-width="0.5" stroke-linecap="square" stroke-dasharray="2 2 2"/>
<path opacity="0.756413" d="M-200.708 92.1142H681.626" stroke="white" stroke-width="0.5" stroke-linecap="square" stroke-dasharray="2 2 2 2"/>
<path opacity="0.756413" d="M682.37 92.1142H1564.7" stroke="white" stroke-width="0.5" stroke-linecap="square" stroke-dasharray="2 2 2"/>
<path opacity="0.756413" d="M-200.708 25.2529H681.626" stroke="white" stroke-width="0.5" stroke-linecap="square" stroke-dasharray="2 2 2 2"/>
</g>
<g opacity="0.5">
<path opacity="0.60681" d="M17.4209 161.616V498.933" stroke="white" stroke-width="0.5" stroke-linecap="square" stroke-dasharray="2 2 2"/>
<path opacity="0.60681" d="M90.5888 161.616V498.933" stroke="white" stroke-width="0.5" stroke-linecap="square" stroke-dasharray="2 2 2"/>
<path opacity="0.60681" d="M163.757 161.616V498.933" stroke="white" stroke-width="0.5" stroke-linecap="square" stroke-dasharray="2 2 2"/>
<path opacity="0.60681" d="M238.186 161.616V498.933" stroke="white" stroke-width="0.5" stroke-linecap="square" stroke-dasharray="2 2 2"/>
<path opacity="0.60681" d="M311.358 161.616V498.933" stroke="white" stroke-width="0.5" stroke-linecap="square" stroke-dasharray="2 2 2"/>
<path opacity="0.60681" d="M384.526 161.616V498.933" stroke="white" stroke-width="0.5" stroke-linecap="square" stroke-dasharray="2 2 2"/>
<path opacity="0.60681" d="M458.956 161.616V498.933" stroke="white" stroke-width="0.5" stroke-linecap="square" stroke-dasharray="2 2 2"/>
<path opacity="0.60681" d="M532.128 161.616V498.933" stroke="white" stroke-width="0.5" stroke-linecap="square" stroke-dasharray="2 2 2"/>
<path opacity="0.60681" d="M605.296 161.616V498.933" stroke="white" stroke-width="0.5" stroke-linecap="square" stroke-dasharray="2 2 2"/>
<path opacity="0.60681" d="M680.991 161.616V498.933" stroke="white" stroke-width="0.5" stroke-linecap="square" stroke-dasharray="2 2 2"/>
<path opacity="0.60681" d="M754.159 161.616V498.933" stroke="white" stroke-width="0.5" stroke-linecap="square" stroke-dasharray="2 2 2"/>
<path opacity="0.60681" d="M828.593 161.616V498.933" stroke="white" stroke-width="0.5" stroke-linecap="square" stroke-dasharray="2 2 2"/>
<path opacity="0.60681" d="M901.761 161.616V498.933" stroke="white" stroke-width="0.5" stroke-linecap="square" stroke-dasharray="2 2 2"/>
<path opacity="0.60681" d="M974.929 161.616V498.933" stroke="white" stroke-width="0.5" stroke-linecap="square" stroke-dasharray="2 2 2"/>
<path opacity="0.60681" d="M1049.36 161.616V498.933" stroke="white" stroke-width="0.5" stroke-linecap="square" stroke-dasharray="2 2 2"/>
<path opacity="0.60681" d="M1122.53 161.616V498.933" stroke="white" stroke-width="0.5" stroke-linecap="square" stroke-dasharray="2 2 2"/>
<path opacity="0.60681" d="M1195.7 161.616V498.933" stroke="white" stroke-width="0.5" stroke-linecap="square" stroke-dasharray="2 2 2"/>
<path opacity="0.60681" d="M1270.13 161.616V498.933" stroke="white" stroke-width="0.5" stroke-linecap="square" stroke-dasharray="2 2 2"/>
<path opacity="0.60681" d="M1343.3 161.616V498.933" stroke="white" stroke-width="0.5" stroke-linecap="square" stroke-dasharray="2 2 2"/>
<path opacity="0.60681" d="M1416.47 161.616V498.933" stroke="white" stroke-width="0.5" stroke-linecap="square" stroke-dasharray="2 2 2"/>
<path opacity="0.756413" d="M-200.708 430.206H681.626" stroke="white" stroke-width="0.5" stroke-linecap="square" stroke-dasharray="2 2 2 2"/>
<path opacity="0.756413" d="M753.014 161.499H1635.35" stroke="white" stroke-width="0.5" stroke-linecap="square" stroke-dasharray="2 2 2 2"/>
<path opacity="0.756413" d="M-200.708 161.499H681.626" stroke="white" stroke-width="0.5" stroke-linecap="square" stroke-dasharray="2 2 2"/>
<path opacity="0.756413" d="M682.37 430.206H1564.7" stroke="white" stroke-width="0.5" stroke-linecap="square" stroke-dasharray="2 2 2"/>
<path opacity="0.756413" d="M-200.708 228.36H681.626" stroke="white" stroke-width="0.5" stroke-linecap="square" stroke-dasharray="2 2 2 2"/>
<path opacity="0.756413" d="M682.37 161.499H1564.7" stroke="white" stroke-width="0.5" stroke-linecap="square" stroke-dasharray="2 2 2 2"/>
<path opacity="0.756413" d="M-200.708 295.222H681.626" stroke="white" stroke-width="0.5" stroke-linecap="square" stroke-dasharray="2 2 2 2"/>
<path opacity="0.756413" d="M682.37 228.36H1564.7" stroke="white" stroke-width="0.5" stroke-linecap="square" stroke-dasharray="2 2 2 2"/>
<path opacity="0.756413" d="M-198 360.5H5921.85" stroke="white" stroke-width="0.5" stroke-linecap="square" stroke-dasharray="2 2 2 2"/>
<path opacity="0.756413" d="M682.37 295.222H1564.7" stroke="white" stroke-width="0.5" stroke-linecap="square" stroke-dasharray="2 2 2 2"/>
</g>
<g opacity="0.5">
<path opacity="0.60681" d="M17.4209 499.71V837.027" stroke="white" stroke-width="0.5" stroke-linecap="square" stroke-dasharray="2 2 2"/>
<path opacity="0.60681" d="M90.5888 499.71V837.027" stroke="white" stroke-width="0.5" stroke-linecap="square" stroke-dasharray="2 2 2"/>
<path opacity="0.60681" d="M163.757 499.71V837.027" stroke="white" stroke-width="0.5" stroke-linecap="square" stroke-dasharray="2 2 2"/>
<path opacity="0.60681" d="M238.186 499.71V837.027" stroke="white" stroke-width="0.5" stroke-linecap="square" stroke-dasharray="2 2 2"/>
<path opacity="0.60681" d="M311.358 499.71V837.027" stroke="white" stroke-width="0.5" stroke-linecap="square" stroke-dasharray="2 2 2"/>
<path opacity="0.60681" d="M384.526 499.71V837.027" stroke="white" stroke-width="0.5" stroke-linecap="square" stroke-dasharray="2 2 2"/>
<path opacity="0.60681" d="M458.956 499.71V837.027" stroke="white" stroke-width="0.5" stroke-linecap="square" stroke-dasharray="2 2 2"/>
<path opacity="0.60681" d="M532.128 499.71V837.027" stroke="white" stroke-width="0.5" stroke-linecap="square" stroke-dasharray="2 2 2"/>
<path opacity="0.60681" d="M605.296 499.71V837.027" stroke="white" stroke-width="0.5" stroke-linecap="square" stroke-dasharray="2 2 2"/>
<path opacity="0.60681" d="M680.991 499.71V837.027" stroke="white" stroke-width="0.5" stroke-linecap="square" stroke-dasharray="2 2 2"/>
<path opacity="0.60681" d="M754.159 499.71V837.027" stroke="white" stroke-width="0.5" stroke-linecap="square" stroke-dasharray="2 2 2"/>
<path opacity="0.60681" d="M828.593 499.71V837.027" stroke="white" stroke-width="0.5" stroke-linecap="square" stroke-dasharray="2 2 2"/>
<path opacity="0.60681" d="M901.761 499.71V837.027" stroke="white" stroke-width="0.5" stroke-linecap="square" stroke-dasharray="2 2 2"/>
<path opacity="0.60681" d="M974.929 499.71V837.027" stroke="white" stroke-width="0.5" stroke-linecap="square" stroke-dasharray="2 2 2"/>
<path opacity="0.60681" d="M1049.36 499.71V837.027" stroke="white" stroke-width="0.5" stroke-linecap="square" stroke-dasharray="2 2 2"/>
<path opacity="0.60681" d="M1122.53 499.71V837.027" stroke="white" stroke-width="0.5" stroke-linecap="square" stroke-dasharray="2 2 2"/>
<path opacity="0.60681" d="M1195.7 499.71V837.027" stroke="white" stroke-width="0.5" stroke-linecap="square" stroke-dasharray="2 2 2"/>
<path opacity="0.60681" d="M1270.13 499.71V837.027" stroke="white" stroke-width="0.5" stroke-linecap="square" stroke-dasharray="2 2 2"/>
<path opacity="0.60681" d="M1343.3 499.71V837.027" stroke="white" stroke-width="0.5" stroke-linecap="square" stroke-dasharray="2 2 2"/>
<path opacity="0.60681" d="M1416.47 499.71V837.027" stroke="white" stroke-width="0.5" stroke-linecap="square" stroke-dasharray="2 2 2"/>
<path opacity="0.756413" d="M753.014 499.593H1635.35" stroke="white" stroke-width="0.5" stroke-linecap="square" stroke-dasharray="2 2 2 2"/>
<path opacity="0.756413" d="M-200.708 499.593H681.626" stroke="white" stroke-width="0.5" stroke-linecap="square" stroke-dasharray="2 2 2"/>
<path opacity="0.756413" d="M-200.708 566.454H681.626" stroke="white" stroke-width="0.5" stroke-linecap="square" stroke-dasharray="2 2 2 2"/>
<path opacity="0.756413" d="M682.37 499.593H1564.7" stroke="white" stroke-width="0.5" stroke-linecap="square" stroke-dasharray="2 2 2 2"/>
<path opacity="0.756413" d="M-200.708 633.315H681.626" stroke="white" stroke-width="0.5" stroke-linecap="square" stroke-dasharray="2 2 2 2"/>
<path opacity="0.756413" d="M682.37 566.454H1564.7" stroke="white" stroke-width="0.5" stroke-linecap="square" stroke-dasharray="2 2 2 2"/>
<path opacity="0.756413" d="M682.37 633.315H1564.7" stroke="white" stroke-width="0.5" stroke-linecap="square" stroke-dasharray="2 2 2 2"/>
</g>
<path opacity="0.463504" fill-rule="evenodd" clip-rule="evenodd" d="M-192.309 531.367C-192.309 531.367 -68.2685 248.764 14 210C96.2685 171.236 50 351.922 217 319.5C384 287.078 316.67 416.233 413.5 367.5C510.33 318.767 498 479 655.5 433.5C813 388 925 113.319 1046 142C1181 174 1229.38 224.497 1272 185C1314.62 145.503 1406.23 43.6031 1466 38.5C1525.77 33.3969 1513.86 150.484 1607.5 159.5C1701.14 168.516 1303.88 -259.171 1388.86 -261.216C1473.83 -263.262 1514.98 -307.011 1548.06 -318.217C1581.14 -329.423 1611.38 -261.216 1611.38 -261.216L1645.75 -149.929V680.939H-192.309V531.367Z" fill="url(#paint1_linear)" stroke="white" stroke-opacity="0.331776" stroke-width="3"/>
<path opacity="0.463504" d="M755.5 374.5C735.667 411 673.2 487.3 582 500.5C468 517 477.5 459 422 447.5C366.5 436 234.5 502.5 211 447.5C187.5 392.5 16 374.5 -15 411" stroke="white" stroke-opacity="0.331776" stroke-width="3"/>
<path opacity="0.463504" d="M753.999 372C742.596 416.299 697.804 513.275 609.859 546.786C499.926 588.675 496.084 522.864 438.079 521.76C380.073 520.655 263.668 621.319 227.594 565.679C191.521 510.039 16.307 525.926 -6.2351 572.55" stroke="white" stroke-opacity="0.331776" stroke-width="3"/>
<path opacity="0.2" fill-rule="evenodd" clip-rule="evenodd" d="M91 284C95.9706 284 100 279.971 100 275C100 270.029 95.9706 266 91 266C86.0294 266 82 270.029 82 275C82 279.971 86.0294 284 91 284Z" fill="white"/>
<path opacity="0.4" fill-rule="evenodd" clip-rule="evenodd" d="M90.9992 281.565C94.6252 281.565 97.5647 278.625 97.5647 274.999C97.5647 271.373 94.6252 268.434 90.9992 268.434C87.3731 268.434 84.4336 271.373 84.4336 274.999C84.4336 278.625 87.3731 281.565 90.9992 281.565Z" fill="white"/>
<path fill-rule="evenodd" clip-rule="evenodd" d="M91.0001 278.836C93.1187 278.836 94.8362 277.119 94.8362 275C94.8362 272.882 93.1187 271.164 91.0001 271.164C88.8815 271.164 87.1641 272.882 87.1641 275C87.1641 277.119 88.8815 278.836 91.0001 278.836Z" fill="white"/>
<path opacity="0.2" fill-rule="evenodd" clip-rule="evenodd" d="M345 471C354.389 471 362 463.389 362 454C362 444.611 354.389 437 345 437C335.611 437 328 444.611 328 454C328 463.389 335.611 471 345 471Z" fill="white"/>
<path opacity="0.4" fill-rule="evenodd" clip-rule="evenodd" d="M344.999 466.401C351.849 466.401 357.401 460.849 357.401 453.999C357.401 447.15 351.849 441.598 344.999 441.598C338.15 441.598 332.598 447.15 332.598 453.999C332.598 460.849 338.15 466.401 344.999 466.401Z" fill="white"/>
<path fill-rule="evenodd" clip-rule="evenodd" d="M345 461.246C349.002 461.246 352.246 458.002 352.246 454C352.246 449.998 349.002 446.754 345 446.754C340.998 446.754 337.754 449.998 337.754 454C337.754 458.002 340.998 461.246 345 461.246Z" fill="white"/>
<path opacity="0.2" fill-rule="evenodd" clip-rule="evenodd" d="M611 569C624.807 569 636 557.807 636 544C636 530.193 624.807 519 611 519C597.193 519 586 530.193 586 544C586 557.807 597.193 569 611 569Z" fill="white"/>
<path opacity="0.4" fill-rule="evenodd" clip-rule="evenodd" d="M610.999 562.237C621.072 562.237 629.237 554.072 629.237 543.999C629.237 533.927 621.072 525.762 610.999 525.762C600.927 525.762 592.762 533.927 592.762 543.999C592.762 554.072 600.927 562.237 610.999 562.237Z" fill="white"/>
<path fill-rule="evenodd" clip-rule="evenodd" d="M610.999 554.655C616.884 554.655 621.655 549.884 621.655 543.999C621.655 538.114 616.884 533.344 610.999 533.344C605.114 533.344 600.344 538.114 600.344 543.999C600.344 549.884 605.114 554.655 610.999 554.655Z" fill="white"/>
<path opacity="0.2" fill-rule="evenodd" clip-rule="evenodd" d="M939 261C953.359 261 965 249.359 965 235C965 220.641 953.359 209 939 209C924.641 209 913 220.641 913 235C913 249.359 924.641 261 939 261Z" fill="white"/>
<path opacity="0.4" fill-rule="evenodd" clip-rule="evenodd" d="M938.998 253.968C949.474 253.968 957.966 245.476 957.966 235C957.966 224.525 949.474 216.033 938.998 216.033C928.523 216.033 920.031 224.525 920.031 235C920.031 245.476 928.523 253.968 938.998 253.968Z" fill="white"/>
<path fill-rule="evenodd" clip-rule="evenodd" d="M939 246.082C945.12 246.082 950.082 241.12 950.082 235C950.082 228.88 945.12 223.918 939 223.918C932.88 223.918 927.918 228.88 927.918 235C927.918 241.12 932.88 246.082 939 246.082Z" fill="white"/>
<path opacity="0.2" fill-rule="evenodd" clip-rule="evenodd" d="M754 387C761.18 387 767 381.18 767 374C767 366.82 761.18 361 754 361C746.82 361 741 366.82 741 374C741 381.18 746.82 387 754 387Z" fill="white"/>
<path opacity="0.4" fill-rule="evenodd" clip-rule="evenodd" d="M753.999 383.483C759.237 383.483 763.483 379.237 763.483 373.999C763.483 368.762 759.237 364.516 753.999 364.516C748.762 364.516 744.516 368.762 744.516 373.999C744.516 379.237 748.762 383.483 753.999 383.483Z" fill="white"/>
<path fill-rule="evenodd" clip-rule="evenodd" d="M754.002 379.541C757.062 379.541 759.543 377.06 759.543 374C759.543 370.94 757.062 368.459 754.002 368.459C750.942 368.459 748.461 370.94 748.461 374C748.461 377.06 750.942 379.541 754.002 379.541Z" fill="white"/>
</g>
<path opacity="0.2" fill-rule="evenodd" clip-rule="evenodd" d="M1226 111C1232.63 111 1238 105.627 1238 99C1238 92.3726 1232.63 87 1226 87C1219.37 87 1214 92.3726 1214 99C1214 105.627 1219.37 111 1226 111Z" fill="white"/>
<path opacity="0.4" fill-rule="evenodd" clip-rule="evenodd" d="M1226 107.754C1230.83 107.754 1234.75 103.835 1234.75 99.0002C1234.75 94.1654 1230.83 90.2461 1226 90.2461C1221.17 90.2461 1217.25 94.1654 1217.25 99.0002C1217.25 103.835 1221.17 107.754 1226 107.754Z" fill="white"/>
<path fill-rule="evenodd" clip-rule="evenodd" d="M1226 104.114C1228.83 104.114 1231.12 101.824 1231.12 98.9995C1231.12 96.1747 1228.83 93.8848 1226 93.8848C1223.18 93.8848 1220.89 96.1747 1220.89 98.9995C1220.89 101.824 1223.18 104.114 1226 104.114Z" fill="white"/>
<path opacity="0.2" fill-rule="evenodd" clip-rule="evenodd" d="M1102 174C1110.84 174 1118 166.837 1118 158C1118 149.163 1110.84 142 1102 142C1093.16 142 1086 149.163 1086 158C1086 166.837 1093.16 174 1102 174Z" fill="white"/>
<path opacity="0.4" fill-rule="evenodd" clip-rule="evenodd" d="M1102 169.672C1108.45 169.672 1113.67 164.447 1113.67 158C1113.67 151.554 1108.45 146.328 1102 146.328C1095.55 146.328 1090.33 151.554 1090.33 158C1090.33 164.447 1095.55 169.672 1102 169.672Z" fill="white"/>
<path fill-rule="evenodd" clip-rule="evenodd" d="M1102 164.819C1105.77 164.819 1108.82 161.766 1108.82 157.999C1108.82 154.233 1105.77 151.18 1102 151.18C1098.23 151.18 1095.18 154.233 1095.18 157.999C1095.18 161.766 1098.23 164.819 1102 164.819Z" fill="white"/>
<path opacity="0.463504" d="M756.5 375.485C843 304 980.233 158.792 1079 216.984C1171.5 271.484 1215.5 344 1285 320.5C1354.5 297 1392.5 207.5 1521.5 192" stroke="white" stroke-opacity="0.331776" stroke-width="3"/>
<path opacity="0.463504" d="M754.213 374.605C794.387 279.03 887.398 60.8664 1014 71.0939C1132.57 80.6725 1212.71 130.538 1273.39 75.4329C1334.08 20.3276 1333.47 -83.8999 1458.5 -158.999" stroke="white" stroke-opacity="0.331776" stroke-width="3"/>
</g>
<defs>
<linearGradient id="paint0_linear" x1="-643.87" y1="341.211" x2="-169.77" y2="1390.07" gradientUnits="userSpaceOnUse">
<stop stop-color="#7D15A1"/>
<stop offset="1" stop-color="#B675A8"/>
</linearGradient>
<linearGradient id="paint1_linear" x1="1470.56" y1="648.535" x2="1470.56" y2="-161.156" gradientUnits="userSpaceOnUse">
<stop stop-color="#009CF2" stop-opacity="0.0873245"/>
<stop offset="1" stop-color="white" stop-opacity="0.370358"/>
</linearGradient>
</defs>
</svg>
