<svg width="320" height="518" viewBox="0 0 320 518" fill="none" xmlns="http://www.w3.org/2000/svg">
<path d="M0 0H320V488C320 504.569 306.569 518 290 518H30C13.4315 518 0 504.569 0 488V0Z" fill="url(#paint0_linear)"/>
<mask id="mask0" mask-type="alpha" maskUnits="userSpaceOnUse" x="0" y="0" width="320" height="518">
<path d="M0 0H320V488C320 504.569 306.569 518 290 518H30C13.4315 518 0 504.569 0 488V0Z" fill="url(#paint1_linear)"/>
</mask>
<g mask="url(#mask0)">
<path fill-rule="evenodd" clip-rule="evenodd" d="M217.304 142.271L214.282 151.51H211.985L209.953 145.254L207.854 151.51H205.571L202.535 142.271H204.753L206.838 148.765L209.016 142.271H210.995L213.107 148.818L215.259 142.271H217.304ZM221.924 151.615C221.176 151.615 220.505 151.458 219.911 151.146C219.317 150.834 218.853 150.4 218.519 149.846C218.185 149.292 218.017 148.663 218.017 147.959C218.017 147.255 218.185 146.626 218.519 146.071C218.853 145.517 219.317 145.084 219.911 144.771C220.505 144.459 221.176 144.303 221.924 144.303C222.672 144.303 223.341 144.459 223.93 144.771C224.52 145.084 224.982 145.517 225.316 146.071C225.651 146.626 225.818 147.255 225.818 147.959C225.818 148.663 225.651 149.292 225.316 149.846C224.982 150.4 224.52 150.834 223.93 151.146C223.341 151.458 222.672 151.615 221.924 151.615ZM221.926 149.925C222.454 149.925 222.888 149.747 223.226 149.391C223.565 149.035 223.735 148.557 223.735 147.959C223.735 147.361 223.565 146.883 223.226 146.527C222.888 146.171 222.454 145.992 221.926 145.992C221.398 145.992 220.963 146.171 220.62 146.527C220.277 146.883 220.105 147.361 220.105 147.959C220.105 148.557 220.277 149.035 220.62 149.391C220.963 149.747 221.398 149.925 221.926 149.925ZM229.154 145.345C229.401 145.002 229.733 144.743 230.151 144.567C230.569 144.391 231.051 144.303 231.596 144.303V146.203C231.367 146.186 231.213 146.177 231.134 146.177C230.545 146.177 230.083 146.342 229.748 146.672C229.414 147.002 229.247 147.497 229.247 148.157V151.509H227.188V144.408H229.154V145.345ZM235.925 148.725L234.936 149.702V151.51H232.877V141.717H234.936V147.26L237.945 144.409H240.4L237.443 147.419L240.664 151.51H238.169L235.925 148.725ZM243.846 144.568H245.668V146.152H243.899V151.51H241.84V146.152H240.744V144.568H241.84V144.251C241.84 143.442 242.08 142.799 242.559 142.324C243.039 141.849 243.714 141.611 244.585 141.611C244.893 141.611 245.186 141.644 245.463 141.71C245.74 141.776 245.971 141.871 246.156 141.994L245.615 143.486C245.377 143.318 245.1 143.235 244.783 143.235C244.158 143.235 243.846 143.578 243.846 144.264V144.568ZM246.697 141.717H248.756V151.51H246.697V141.717ZM254.05 151.615C253.303 151.615 252.632 151.458 252.038 151.146C251.444 150.834 250.98 150.4 250.645 149.846C250.311 149.292 250.144 148.663 250.144 147.959C250.144 147.255 250.311 146.626 250.645 146.071C250.98 145.517 251.444 145.084 252.038 144.771C252.632 144.459 253.303 144.303 254.05 144.303C254.798 144.303 255.467 144.459 256.057 144.771C256.646 145.084 257.108 145.517 257.442 146.071C257.777 146.626 257.944 147.255 257.944 147.959C257.944 148.663 257.777 149.292 257.442 149.846C257.108 150.4 256.646 150.834 256.057 151.146C255.467 151.458 254.798 151.615 254.05 151.615ZM254.053 149.925C254.581 149.925 255.014 149.747 255.353 149.391C255.691 149.035 255.861 148.557 255.861 147.959C255.861 147.361 255.691 146.883 255.353 146.527C255.014 146.171 254.581 145.992 254.053 145.992C253.525 145.992 253.089 146.171 252.746 146.527C252.403 146.883 252.231 147.361 252.231 147.959C252.231 148.557 252.403 149.035 252.746 149.391C253.089 149.747 253.525 149.925 254.053 149.925ZM270.718 144.408L268.145 151.509H266.165L264.568 147.101L262.918 151.509H260.938L258.378 144.408H260.318L261.994 149.212L263.736 144.408H265.478L267.168 149.212L268.897 144.408H270.718Z" fill="white" fill-opacity="0.5"/>
<path opacity="0.2" fill-rule="evenodd" clip-rule="evenodd" d="M236.492 131.288C264.738 131.288 287.636 108.39 287.636 80.1442C287.636 51.8981 264.738 29 236.492 29C208.246 29 185.348 51.8981 185.348 80.1442C185.348 108.39 208.246 131.288 236.492 131.288Z" fill="white" fill-opacity="0.5"/>
<path opacity="0.4" fill-rule="evenodd" clip-rule="evenodd" d="M236.494 117.454C257.1 117.454 273.804 100.75 273.804 80.1441C273.804 59.5383 257.1 42.834 236.494 42.834C215.888 42.834 199.184 59.5383 199.184 80.1441C199.184 100.75 215.888 117.454 236.494 117.454Z" fill="white" fill-opacity="0.5"/>
<path fill-rule="evenodd" clip-rule="evenodd" d="M236.491 101.944C248.53 101.944 258.29 92.1842 258.29 80.1449C258.29 68.1055 248.53 58.3457 236.491 58.3457C224.451 58.3457 214.691 68.1055 214.691 80.1449C214.691 92.1842 224.451 101.944 236.491 101.944Z" fill="white" fill-opacity="0.5"/>
<path fill-rule="evenodd" clip-rule="evenodd" d="M261.375 272.421H258.372L257.799 273.807H256.266L259.148 267.34H260.626L263.518 273.807H261.948L261.375 272.421ZM260.908 271.284L259.882 268.808L258.857 271.284H260.908ZM269.098 268.836V273.806H267.731V273.215C267.54 273.431 267.312 273.595 267.047 273.709C266.782 273.823 266.496 273.88 266.188 273.88C265.535 273.88 265.018 273.692 264.636 273.317C264.254 272.941 264.063 272.383 264.063 271.644V268.836H265.504V271.432C265.504 272.233 265.84 272.633 266.511 272.633C266.856 272.633 267.134 272.52 267.343 272.296C267.552 272.071 267.657 271.737 267.657 271.293V268.836H269.098ZM275.504 266.952V273.808H274.127V273.235C273.77 273.666 273.253 273.882 272.575 273.882C272.107 273.882 271.684 273.777 271.305 273.567C270.926 273.358 270.629 273.059 270.413 272.671C270.198 272.283 270.09 271.834 270.09 271.322C270.09 270.811 270.198 270.361 270.413 269.973C270.629 269.585 270.926 269.287 271.305 269.077C271.684 268.868 272.107 268.763 272.575 268.763C273.21 268.763 273.705 268.963 274.063 269.364V266.952H275.504ZM272.826 272.7C273.189 272.7 273.491 272.575 273.731 272.325C273.971 272.076 274.091 271.742 274.091 271.323C274.091 270.904 273.971 270.57 273.731 270.321C273.491 270.071 273.189 269.946 272.826 269.946C272.456 269.946 272.151 270.071 271.911 270.321C271.671 270.57 271.551 270.904 271.551 271.323C271.551 271.742 271.671 272.076 271.911 272.325C272.151 272.575 272.456 272.7 272.826 272.7ZM276.828 268.836H278.269V273.806H276.828V268.836ZM277.555 268.143C277.29 268.143 277.074 268.066 276.908 267.912C276.742 267.758 276.659 267.567 276.659 267.339C276.659 267.111 276.742 266.92 276.908 266.766C277.074 266.612 277.29 266.535 277.555 266.535C277.82 266.535 278.035 266.609 278.202 266.757C278.368 266.905 278.451 267.089 278.451 267.311C278.451 267.551 278.368 267.75 278.202 267.907C278.035 268.064 277.82 268.143 277.555 268.143ZM284.485 271.343C284.485 271.361 284.475 271.491 284.457 271.731H280.697C280.764 272.039 280.925 272.282 281.177 272.461C281.43 272.639 281.744 272.729 282.119 272.729C282.378 272.729 282.608 272.69 282.808 272.613C283.008 272.536 283.194 272.415 283.367 272.248L284.134 273.08C283.665 273.616 282.982 273.884 282.082 273.884C281.522 273.884 281.026 273.774 280.595 273.556C280.164 273.337 279.831 273.034 279.597 272.646C279.363 272.258 279.246 271.817 279.246 271.324C279.246 270.838 279.362 270.399 279.593 270.008C279.824 269.617 280.141 269.312 280.544 269.093C280.948 268.875 281.399 268.765 281.898 268.765C282.384 268.765 282.825 268.87 283.219 269.079C283.613 269.289 283.923 269.589 284.147 269.98C284.372 270.371 284.485 270.826 284.485 271.343ZM281.901 269.851C281.574 269.851 281.3 269.944 281.078 270.128C280.857 270.313 280.721 270.566 280.672 270.886H283.12C283.071 270.572 282.935 270.321 282.714 270.133C282.492 269.945 282.221 269.851 281.901 269.851ZM288.463 268.765C289.079 268.765 289.576 268.95 289.955 269.32C290.334 269.689 290.523 270.237 290.523 270.964V273.81H289.082V271.186C289.082 270.792 288.996 270.498 288.823 270.304C288.651 270.11 288.401 270.013 288.075 270.013C287.712 270.013 287.422 270.125 287.207 270.35C286.991 270.575 286.883 270.909 286.883 271.352V273.81H285.442V268.839H286.818V269.421C287.009 269.212 287.247 269.05 287.53 268.936C287.813 268.822 288.124 268.765 288.463 268.765ZM294.233 273.884C293.704 273.884 293.228 273.774 292.806 273.556C292.384 273.337 292.054 273.034 291.817 272.646C291.58 272.258 291.462 271.817 291.462 271.324C291.462 270.832 291.58 270.391 291.817 270.003C292.054 269.615 292.384 269.312 292.806 269.093C293.228 268.875 293.704 268.765 294.233 268.765C294.757 268.765 295.214 268.875 295.605 269.093C295.996 269.312 296.281 269.624 296.46 270.031L295.342 270.632C295.083 270.176 294.711 269.948 294.224 269.948C293.848 269.948 293.537 270.071 293.291 270.317C293.045 270.564 292.921 270.899 292.921 271.324C292.921 271.749 293.045 272.085 293.291 272.332C293.537 272.578 293.848 272.701 294.224 272.701C294.717 272.701 295.089 272.473 295.342 272.017L296.46 272.627C296.281 273.021 295.996 273.329 295.605 273.551C295.214 273.773 294.757 273.884 294.233 273.884ZM302.153 271.343C302.153 271.361 302.144 271.491 302.125 271.731H298.365C298.433 272.039 298.593 272.282 298.845 272.461C299.098 272.639 299.412 272.729 299.788 272.729C300.047 272.729 300.276 272.69 300.476 272.613C300.676 272.536 300.863 272.415 301.035 272.248L301.802 273.08C301.334 273.616 300.65 273.884 299.751 273.884C299.19 273.884 298.695 273.774 298.263 273.556C297.832 273.337 297.5 273.034 297.266 272.646C297.032 272.258 296.915 271.817 296.915 271.324C296.915 270.838 297.03 270.399 297.261 270.008C297.492 269.617 297.809 269.312 298.213 269.093C298.616 268.875 299.067 268.765 299.566 268.765C300.053 268.765 300.493 268.87 300.887 269.079C301.281 269.289 301.591 269.589 301.816 269.98C302.041 270.371 302.153 270.826 302.153 271.343ZM299.583 269.851C299.257 269.851 298.983 269.944 298.761 270.128C298.539 270.313 298.404 270.566 298.354 270.886H300.803C300.753 270.572 300.618 270.321 300.396 270.133C300.174 269.945 299.903 269.851 299.583 269.851ZM310.81 273.916L310.034 273.196C309.418 273.676 308.698 273.916 307.872 273.916C307.404 273.916 306.982 273.841 306.607 273.69C306.231 273.539 305.937 273.328 305.724 273.057C305.512 272.786 305.405 272.481 305.405 272.142C305.405 271.742 305.518 271.389 305.743 271.085C305.968 270.78 306.329 270.489 306.828 270.212C306.594 269.971 306.425 269.742 306.32 269.523C306.215 269.305 306.163 269.078 306.163 268.844C306.163 268.53 306.246 268.253 306.413 268.013C306.579 267.772 306.814 267.586 307.119 267.454C307.424 267.321 307.777 267.255 308.177 267.255C308.738 267.255 309.187 267.389 309.526 267.657C309.865 267.925 310.034 268.287 310.034 268.743C310.034 269.075 309.934 269.371 309.734 269.629C309.534 269.888 309.212 270.138 308.768 270.378L309.951 271.477C310.093 271.182 310.201 270.846 310.274 270.47L311.429 270.831C311.306 271.403 311.109 271.893 310.838 272.3L311.596 273.002L310.81 273.916ZM308.167 268.235C307.951 268.235 307.781 268.291 307.654 268.402C307.528 268.513 307.465 268.654 307.465 268.827C307.465 268.956 307.499 269.078 307.566 269.192C307.634 269.306 307.767 269.458 307.964 269.649C308.278 269.483 308.497 269.333 308.62 269.201C308.743 269.069 308.805 268.925 308.805 268.771C308.805 268.611 308.749 268.482 308.638 268.383C308.527 268.285 308.37 268.235 308.167 268.235ZM307.968 272.79C308.418 272.79 308.822 272.664 309.179 272.411L307.617 270.951C307.328 271.118 307.122 271.281 306.998 271.441C306.875 271.601 306.814 271.783 306.814 271.986C306.814 272.226 306.918 272.42 307.128 272.568C307.337 272.716 307.617 272.79 307.968 272.79ZM316.512 268.559H314.442V267.34H320.078V268.559H318.008V273.807H316.512V268.559ZM322.783 268.765C323.553 268.765 324.144 268.949 324.557 269.315C324.97 269.681 325.176 270.234 325.176 270.973V273.81H323.827V273.191C323.556 273.653 323.051 273.884 322.312 273.884C321.93 273.884 321.599 273.819 321.319 273.69C321.038 273.56 320.824 273.382 320.676 273.154C320.529 272.926 320.455 272.667 320.455 272.378C320.455 271.916 320.629 271.552 320.977 271.288C321.325 271.023 321.862 270.89 322.589 270.89H323.735C323.735 270.576 323.639 270.334 323.448 270.165C323.257 269.996 322.971 269.911 322.589 269.911C322.324 269.911 322.064 269.952 321.808 270.036C321.553 270.119 321.336 270.231 321.157 270.373L320.64 269.366C320.911 269.175 321.235 269.027 321.614 268.922C321.993 268.818 322.383 268.765 322.783 268.765ZM322.672 272.91C322.919 272.91 323.137 272.853 323.328 272.739C323.519 272.625 323.655 272.457 323.735 272.236V271.728H322.746C322.155 271.728 321.859 271.922 321.859 272.31C321.859 272.494 321.932 272.641 322.076 272.749C322.221 272.856 322.42 272.91 322.672 272.91ZM327.858 269.495C328.031 269.255 328.263 269.073 328.556 268.95C328.848 268.827 329.185 268.765 329.567 268.765V270.096C329.407 270.083 329.299 270.077 329.244 270.077C328.831 270.077 328.508 270.193 328.274 270.424C328.04 270.655 327.923 271.001 327.923 271.463V273.81H326.482V268.839H327.858V269.495ZM335.591 268.839V272.978C335.591 273.89 335.353 274.567 334.879 275.011C334.405 275.454 333.712 275.676 332.8 275.676C332.32 275.676 331.864 275.617 331.433 275.5C331.002 275.383 330.645 275.214 330.361 274.992L330.934 273.958C331.144 274.13 331.408 274.267 331.729 274.369C332.049 274.47 332.369 274.521 332.689 274.521C333.188 274.521 333.556 274.409 333.794 274.184C334.031 273.959 334.149 273.619 334.149 273.163V272.951C333.774 273.363 333.25 273.57 332.579 273.57C332.123 273.57 331.706 273.469 331.327 273.269C330.948 273.069 330.648 272.787 330.426 272.424C330.204 272.06 330.093 271.642 330.093 271.167C330.093 270.693 330.204 270.274 330.426 269.911C330.648 269.547 330.948 269.266 331.327 269.066C331.706 268.865 332.123 268.765 332.579 268.765C333.299 268.765 333.847 269.002 334.223 269.477V268.839H335.591ZM332.866 272.385C333.248 272.385 333.561 272.273 333.804 272.048C334.047 271.823 334.169 271.529 334.169 271.166C334.169 270.802 334.047 270.508 333.804 270.284C333.561 270.059 333.248 269.946 332.866 269.946C332.484 269.946 332.17 270.059 331.924 270.284C331.677 270.508 331.554 270.802 331.554 271.166C331.554 271.529 331.677 271.823 331.924 272.048C332.17 272.273 332.484 272.385 332.866 272.385ZM341.802 271.343C341.802 271.361 341.793 271.491 341.774 271.731H338.014C338.082 272.039 338.242 272.282 338.495 272.461C338.747 272.639 339.061 272.729 339.437 272.729C339.696 272.729 339.925 272.69 340.125 272.613C340.325 272.536 340.512 272.415 340.684 272.248L341.451 273.08C340.983 273.616 340.299 273.884 339.4 273.884C338.84 273.884 338.344 273.774 337.913 273.556C337.481 273.337 337.149 273.034 336.915 272.646C336.681 272.258 336.564 271.817 336.564 271.324C336.564 270.838 336.679 270.399 336.91 270.008C337.141 269.617 337.458 269.312 337.862 269.093C338.265 268.875 338.716 268.765 339.215 268.765C339.702 268.765 340.142 268.87 340.536 269.079C340.931 269.289 341.24 269.589 341.465 269.98C341.69 270.371 341.802 270.826 341.802 271.343ZM339.218 269.851C338.892 269.851 338.618 269.944 338.396 270.128C338.174 270.313 338.039 270.566 337.989 270.886H340.438C340.388 270.572 340.253 270.321 340.031 270.133C339.809 269.945 339.538 269.851 339.218 269.851ZM345.969 273.564C345.827 273.668 345.653 273.747 345.447 273.799C345.24 273.852 345.023 273.878 344.795 273.878C344.204 273.878 343.747 273.727 343.423 273.425C343.1 273.123 342.938 272.68 342.938 272.095V270.053H342.171V268.944H342.938V267.734H344.38V268.944H345.618V270.053H344.38V272.076C344.38 272.286 344.433 272.447 344.541 272.561C344.649 272.675 344.802 272.732 344.999 272.732C345.227 272.732 345.421 272.671 345.581 272.547L345.969 273.564ZM346.78 268.836H348.221V273.806H346.78V268.836ZM347.5 268.143C347.235 268.143 347.019 268.066 346.853 267.912C346.687 267.758 346.604 267.567 346.604 267.339C346.604 267.111 346.687 266.92 346.853 266.766C347.019 266.612 347.235 266.535 347.5 266.535C347.765 266.535 347.98 266.609 348.146 266.757C348.313 266.905 348.396 267.089 348.396 267.311C348.396 267.551 348.313 267.75 348.146 267.907C347.98 268.064 347.765 268.143 347.5 268.143ZM352.582 268.765C353.198 268.765 353.695 268.95 354.074 269.32C354.453 269.689 354.642 270.237 354.642 270.964V273.81H353.201V271.186C353.201 270.792 353.115 270.498 352.942 270.304C352.77 270.11 352.52 270.013 352.194 270.013C351.83 270.013 351.541 270.125 351.325 270.35C351.11 270.575 351.002 270.909 351.002 271.352V273.81H349.561V268.839H350.937V269.421C351.128 269.212 351.365 269.05 351.649 268.936C351.932 268.822 352.243 268.765 352.582 268.765ZM361.07 268.839V272.978C361.07 273.89 360.833 274.567 360.359 275.011C359.885 275.454 359.192 275.676 358.28 275.676C357.8 275.676 357.344 275.617 356.913 275.5C356.482 275.383 356.125 275.214 355.841 274.992L356.414 273.958C356.623 274.13 356.888 274.267 357.209 274.369C357.529 274.47 357.849 274.521 358.169 274.521C358.668 274.521 359.036 274.409 359.273 274.184C359.511 273.959 359.629 273.619 359.629 273.163V272.951C359.253 273.363 358.73 273.57 358.059 273.57C357.603 273.57 357.185 273.469 356.807 273.269C356.428 273.069 356.128 272.787 355.906 272.424C355.684 272.06 355.573 271.642 355.573 271.167C355.573 270.693 355.684 270.274 355.906 269.911C356.128 269.547 356.428 269.266 356.807 269.066C357.185 268.865 357.603 268.765 358.059 268.765C358.779 268.765 359.327 269.002 359.703 269.477V268.839H361.07ZM358.353 272.385C358.735 272.385 359.048 272.273 359.291 272.048C359.534 271.823 359.656 271.529 359.656 271.166C359.656 270.802 359.534 270.508 359.291 270.284C359.048 270.059 358.735 269.946 358.353 269.946C357.971 269.946 357.657 270.059 357.411 270.284C357.164 270.508 357.041 270.802 357.041 271.166C357.041 271.529 357.164 271.823 357.411 272.048C357.657 272.273 357.971 272.385 358.353 272.385Z" fill="white" fill-opacity="0.5"/>
<path opacity="0.2" fill-rule="evenodd" clip-rule="evenodd" d="M309.047 259.93C328.819 259.93 344.848 243.901 344.848 224.129C344.848 204.357 328.819 188.328 309.047 188.328C289.275 188.328 273.246 204.357 273.246 224.129C273.246 243.901 289.275 259.93 309.047 259.93Z" fill="white" fill-opacity="0.5"/>
<path opacity="0.4" fill-rule="evenodd" clip-rule="evenodd" d="M309.047 250.246C323.471 250.246 335.164 238.553 335.164 224.129C335.164 209.705 323.471 198.012 309.047 198.012C294.623 198.012 282.93 209.705 282.93 224.129C282.93 238.553 294.623 250.246 309.047 250.246Z" fill="white" fill-opacity="0.5"/>
<path fill-rule="evenodd" clip-rule="evenodd" d="M309.048 239.388C317.476 239.388 324.308 232.556 324.308 224.129C324.308 215.701 317.476 208.869 309.048 208.869C300.621 208.869 293.789 215.701 293.789 224.129C293.789 232.556 300.621 239.388 309.048 239.388Z" fill="white" fill-opacity="0.5"/>
<path fill-rule="evenodd" clip-rule="evenodd" d="M175.244 297.705C174.727 297.705 174.261 297.594 173.846 297.371C173.431 297.148 173.106 296.841 172.872 296.45C172.637 296.058 172.52 295.619 172.52 295.13C172.52 294.642 172.637 294.202 172.872 293.81C173.106 293.419 173.431 293.112 173.846 292.889C174.261 292.666 174.727 292.555 175.244 292.555C175.761 292.555 176.226 292.666 176.639 292.889C177.051 293.112 177.376 293.419 177.613 293.81C177.85 294.202 177.969 294.642 177.969 295.13C177.969 295.619 177.85 296.058 177.613 296.45C177.376 296.841 177.051 297.148 176.639 297.371C176.226 297.594 175.761 297.705 175.244 297.705ZM175.25 296.726C175.544 296.726 175.809 296.658 176.047 296.523C176.284 296.388 176.47 296.199 176.605 295.957C176.74 295.716 176.808 295.441 176.808 295.132C176.808 294.824 176.74 294.549 176.605 294.307C176.47 294.065 176.284 293.877 176.047 293.741C175.809 293.606 175.544 293.539 175.25 293.539C174.956 293.539 174.69 293.606 174.453 293.741C174.216 293.877 174.03 294.065 173.895 294.307C173.759 294.549 173.692 294.824 173.692 295.132C173.692 295.441 173.759 295.716 173.895 295.957C174.03 296.199 174.216 296.388 174.453 296.523C174.69 296.658 174.956 296.726 175.25 296.726ZM181.027 293.732C181.382 293.732 181.706 293.814 181.998 293.978C182.29 294.141 182.518 294.371 182.684 294.668C182.85 294.964 182.933 295.309 182.933 295.703C182.933 296.097 182.85 296.442 182.684 296.738C182.518 297.034 182.29 297.264 181.998 297.428C181.706 297.592 181.382 297.674 181.027 297.674C180.538 297.674 180.154 297.519 179.874 297.211V298.997H178.765V293.789H179.825V294.23C180.1 293.898 180.5 293.732 181.027 293.732ZM180.827 296.766C181.111 296.766 181.345 296.67 181.528 296.478C181.71 296.286 181.802 296.028 181.802 295.706C181.802 295.383 181.71 295.126 181.528 294.934C181.345 294.742 181.111 294.646 180.827 294.646C180.542 294.646 180.309 294.742 180.126 294.934C179.944 295.126 179.852 295.383 179.852 295.706C179.852 296.028 179.944 296.286 180.126 296.478C180.309 296.67 180.542 296.766 180.827 296.766ZM186.135 297.434C186.025 297.515 185.891 297.576 185.733 297.616C185.574 297.656 185.407 297.676 185.231 297.676C184.776 297.676 184.424 297.56 184.175 297.328C183.926 297.095 183.801 296.754 183.801 296.303V294.731H183.211V293.877H183.801V292.946H184.911V293.877H185.864V294.731H184.911V296.289C184.911 296.45 184.952 296.575 185.035 296.663C185.118 296.75 185.236 296.794 185.388 296.794C185.563 296.794 185.712 296.747 185.836 296.652L186.135 297.434ZM186.766 293.792H187.876V297.62H186.766V293.792ZM187.322 293.259C187.119 293.259 186.953 293.2 186.824 293.081C186.696 292.963 186.632 292.816 186.632 292.64C186.632 292.465 186.696 292.318 186.824 292.199C186.953 292.081 187.119 292.021 187.322 292.021C187.526 292.021 187.692 292.078 187.82 292.192C187.949 292.306 188.013 292.448 188.013 292.619C188.013 292.804 187.949 292.957 187.82 293.078C187.692 293.199 187.526 293.259 187.322 293.259ZM193.805 293.732C194.284 293.732 194.664 293.873 194.946 294.156C195.229 294.438 195.37 294.861 195.37 295.425V297.617H194.26V295.596C194.26 295.293 194.197 295.066 194.071 294.917C193.946 294.767 193.767 294.693 193.534 294.693C193.273 294.693 193.067 294.777 192.915 294.945C192.764 295.114 192.688 295.364 192.688 295.696V297.617H191.578V295.596C191.578 294.994 191.336 294.693 190.852 294.693C190.596 294.693 190.392 294.777 190.24 294.945C190.089 295.114 190.013 295.364 190.013 295.696V297.617H188.903V293.789H189.963V294.23C190.105 294.069 190.28 293.946 190.486 293.86C190.692 293.775 190.919 293.732 191.165 293.732C191.436 293.732 191.68 293.786 191.898 293.892C192.116 293.999 192.292 294.154 192.424 294.358C192.581 294.159 192.779 294.005 193.018 293.896C193.258 293.787 193.52 293.732 193.805 293.732ZM196.363 293.792H197.472V297.62H196.363V293.792ZM196.919 293.259C196.715 293.259 196.549 293.2 196.421 293.081C196.293 292.963 196.229 292.816 196.229 292.64C196.229 292.465 196.293 292.318 196.421 292.199C196.549 292.081 196.715 292.021 196.919 292.021C197.123 292.021 197.289 292.078 197.417 292.192C197.545 292.306 197.609 292.448 197.609 292.619C197.609 292.804 197.545 292.957 197.417 293.078C197.289 293.199 197.123 293.259 196.919 293.259ZM201.654 296.766V297.62H198.239V296.951L200.188 294.646H198.289V293.792H201.59V294.461L199.64 296.766H201.654ZM203.911 293.732C204.504 293.732 204.959 293.873 205.277 294.156C205.595 294.438 205.753 294.863 205.753 295.433V297.617H204.715V297.14C204.506 297.496 204.117 297.674 203.548 297.674C203.254 297.674 202.999 297.624 202.783 297.524C202.568 297.425 202.403 297.287 202.289 297.111C202.175 296.936 202.118 296.737 202.118 296.514C202.118 296.158 202.252 295.878 202.52 295.674C202.788 295.471 203.202 295.369 203.762 295.369H204.644C204.644 295.127 204.57 294.941 204.423 294.81C204.276 294.68 204.056 294.614 203.762 294.614C203.558 294.614 203.357 294.646 203.16 294.711C202.964 294.775 202.796 294.861 202.659 294.97L202.26 294.195C202.469 294.048 202.719 293.934 203.011 293.853C203.303 293.773 203.603 293.732 203.911 293.732ZM203.825 296.929C204.015 296.929 204.183 296.886 204.33 296.798C204.477 296.71 204.581 296.581 204.643 296.41V296.019H203.882C203.427 296.019 203.199 296.168 203.199 296.467C203.199 296.609 203.255 296.722 203.366 296.805C203.478 296.888 203.631 296.929 203.825 296.929ZM209.228 297.434C209.119 297.515 208.985 297.576 208.826 297.616C208.667 297.656 208.5 297.676 208.324 297.676C207.869 297.676 207.517 297.56 207.268 297.328C207.019 297.095 206.894 296.754 206.894 296.303V294.731H206.304V293.877H206.894V292.946H208.004V293.877H208.957V294.731H208.004V296.289C208.004 296.45 208.046 296.575 208.129 296.663C208.212 296.75 208.329 296.794 208.481 296.794C208.656 296.794 208.806 296.747 208.929 296.652L209.228 297.434ZM209.852 293.792H210.962V297.62H209.852V293.792ZM210.409 293.259C210.205 293.259 210.039 293.2 209.911 293.081C209.783 292.963 209.719 292.816 209.719 292.64C209.719 292.465 209.783 292.318 209.911 292.199C210.039 292.081 210.205 292.021 210.409 292.021C210.613 292.021 210.779 292.078 210.907 292.192C211.035 292.306 211.099 292.448 211.099 292.619C211.099 292.804 211.035 292.957 210.907 293.078C210.779 293.199 210.613 293.259 210.409 293.259ZM213.813 297.674C213.41 297.674 213.048 297.589 212.728 297.421C212.408 297.253 212.158 297.019 211.978 296.72C211.798 296.421 211.708 296.082 211.708 295.703C211.708 295.324 211.798 294.984 211.978 294.686C212.158 294.387 212.408 294.153 212.728 293.985C213.048 293.817 213.41 293.732 213.813 293.732C214.216 293.732 214.577 293.817 214.895 293.985C215.212 294.153 215.461 294.387 215.642 294.686C215.822 294.984 215.912 295.324 215.912 295.703C215.912 296.082 215.822 296.421 215.642 296.72C215.461 297.019 215.212 297.253 214.895 297.421C214.577 297.589 214.216 297.674 213.813 297.674ZM213.819 296.766C214.104 296.766 214.337 296.67 214.52 296.478C214.703 296.286 214.794 296.028 214.794 295.706C214.794 295.383 214.703 295.126 214.52 294.934C214.337 294.742 214.104 294.646 213.819 294.646C213.535 294.646 213.3 294.742 213.115 294.934C212.93 295.126 212.838 295.383 212.838 295.706C212.838 296.028 212.93 296.286 213.115 296.478C213.3 296.67 213.535 296.766 213.819 296.766ZM218.98 293.732C219.454 293.732 219.837 293.875 220.129 294.159C220.42 294.444 220.566 294.866 220.566 295.425V297.617H219.456V295.596C219.456 295.293 219.39 295.066 219.257 294.917C219.124 294.767 218.932 294.693 218.681 294.693C218.401 294.693 218.178 294.779 218.012 294.952C217.846 295.126 217.763 295.383 217.763 295.724V297.617H216.654V293.789H217.714V294.237C217.861 294.076 218.043 293.952 218.261 293.864C218.479 293.776 218.719 293.732 218.98 293.732Z" fill="white" fill-opacity="0.5"/>
<path opacity="0.2" fill-rule="evenodd" clip-rule="evenodd" d="M196.649 286.766C211.873 286.766 224.216 274.424 224.216 259.2C224.216 243.975 211.873 231.633 196.649 231.633C181.424 231.633 169.082 243.975 169.082 259.2C169.082 274.424 181.424 286.766 196.649 286.766Z" fill="white" fill-opacity="0.5"/>
<path opacity="0.4" fill-rule="evenodd" clip-rule="evenodd" d="M196.649 279.31C207.756 279.31 216.759 270.307 216.759 259.2C216.759 248.093 207.756 239.09 196.649 239.09C185.543 239.09 176.539 248.093 176.539 259.2C176.539 270.307 185.543 279.31 196.649 279.31Z" fill="white" fill-opacity="0.5"/>
<path fill-rule="evenodd" clip-rule="evenodd" d="M196.648 270.949C203.137 270.949 208.398 265.688 208.398 259.199C208.398 252.71 203.137 247.449 196.648 247.449C190.159 247.449 184.898 252.71 184.898 259.199C184.898 265.688 190.159 270.949 196.648 270.949Z" fill="white" fill-opacity="0.5"/>
<path opacity="0.7" d="M50.75 182.085C69.9792 152.867 96.4506 110.686 205.583 205.56C244.648 239.521 290.241 241.531 306.973 222.301" stroke="url(#paint2_linear)" stroke-width="3"/>
<path opacity="0.7" d="M49.4992 181.833C47.5846 151.865 100.944 112.743 155.638 122.647C216.323 133.635 224.067 107.663 235.055 79.4434" stroke="url(#paint3_linear)" stroke-width="3"/>
<path opacity="0.7" d="M49 183.085C51.9968 145.875 116.177 116.906 177.861 142.129C228.563 162.862 311.716 215.3 364.409 69.957" stroke="url(#paint4_linear)" stroke-width="3"/>
<path opacity="0.7" d="M50.0039 184.581C53.2504 164.353 85.7153 108.37 188.604 169.348C331.45 254.006 419.188 135.301 504.762 73.7012" stroke="url(#paint5_linear)" stroke-width="3"/>
<path opacity="0.7" d="M50.25 182.085C59.49 161.856 115.159 123.897 143.393 188.581C218.062 359.643 393.372 276.232 530.724 236.032" stroke="url(#paint6_linear)" stroke-width="3"/>
</g>
<defs>
<linearGradient id="paint0_linear" x1="-160" y1="259" x2="303.222" y2="545.16" gradientUnits="userSpaceOnUse">
<stop stop-color="#17E9B5"/>
<stop offset="1" stop-color="#A024EA"/>
</linearGradient>
<linearGradient id="paint1_linear" x1="-160" y1="259" x2="303.222" y2="545.16" gradientUnits="userSpaceOnUse">
<stop stop-color="#17E9B5"/>
<stop offset="1" stop-color="#A024EA"/>
</linearGradient>
<linearGradient id="paint2_linear" x1="61.2387" y1="236.902" x2="306.973" y2="236.902" gradientUnits="userSpaceOnUse">
<stop stop-color="white" stop-opacity="0.01"/>
<stop offset="0.510996" stop-color="white"/>
<stop offset="1" stop-color="white" stop-opacity="0.01"/>
</linearGradient>
<linearGradient id="paint3_linear" x1="61.4304" y1="171.594" x2="235.05" y2="171.594" gradientUnits="userSpaceOnUse">
<stop stop-color="white" stop-opacity="0.01"/>
<stop offset="0.510996" stop-color="white"/>
<stop offset="1" stop-color="white" stop-opacity="0.01"/>
</linearGradient>
<linearGradient id="paint4_linear" x1="61.7362" y1="170.349" x2="364.409" y2="170.349" gradientUnits="userSpaceOnUse">
<stop stop-color="white" stop-opacity="0.01"/>
<stop offset="0.510996" stop-color="white"/>
<stop offset="1" stop-color="white" stop-opacity="0.01"/>
</linearGradient>
<linearGradient id="paint5_linear" x1="61.7412" y1="204.607" x2="504.762" y2="204.607" gradientUnits="userSpaceOnUse">
<stop stop-color="white" stop-opacity="0.01"/>
<stop offset="0.510996" stop-color="white"/>
<stop offset="1" stop-color="white" stop-opacity="0.01"/>
</linearGradient>
<linearGradient id="paint6_linear" x1="62.2839" y1="292.082" x2="530.731" y2="292.082" gradientUnits="userSpaceOnUse">
<stop stop-color="white" stop-opacity="0.01"/>
<stop offset="0.510996" stop-color="white"/>
<stop offset="1" stop-color="white" stop-opacity="0.01"/>
</linearGradient>
</defs>
</svg>
