<svg width="1440" height="650" viewBox="0 0 1440 650" fill="none" xmlns="http://www.w3.org/2000/svg">
<rect x="0.5" y="0.5" width="1439" height="649" fill="url(#paint0_linear)" stroke="#979797"/>
<path fill-rule="evenodd" clip-rule="evenodd" d="M1244.29 531.855C1244.93 532.058 1245.43 532.397 1245.79 532.872C1246.16 533.347 1246.34 533.932 1246.34 534.626C1246.34 535.608 1245.95 536.363 1245.19 536.892C1244.43 537.421 1243.32 537.685 1241.85 537.685H1236.05V526.474H1241.53C1242.9 526.474 1243.95 526.736 1244.68 527.259C1245.41 527.782 1245.78 528.492 1245.78 529.389C1245.78 529.933 1245.65 530.419 1245.38 530.846C1245.12 531.273 1244.76 531.61 1244.29 531.855ZM1238.63 528.429V531.072H1241.21C1241.85 531.072 1242.34 530.959 1242.67 530.735C1243 530.511 1243.16 530.18 1243.16 529.742C1243.16 529.304 1243 528.976 1242.67 528.757C1242.34 528.538 1241.85 528.429 1241.21 528.429H1238.63ZM1241.66 535.732C1242.34 535.732 1242.86 535.62 1243.2 535.396C1243.55 535.172 1243.73 534.825 1243.73 534.355C1243.73 533.426 1243.04 532.962 1241.66 532.962H1238.63V535.732H1241.66ZM1250.52 530.206C1250.81 529.79 1251.22 529.475 1251.72 529.262C1252.23 529.048 1252.82 528.941 1253.48 528.941V531.247C1253.2 531.226 1253.01 531.215 1252.92 531.215C1252.2 531.215 1251.64 531.416 1251.24 531.816C1250.83 532.216 1250.63 532.817 1250.63 533.618V537.686H1248.13V529.069H1250.52V530.206ZM1258.51 528.941C1259.84 528.941 1260.87 529.259 1261.58 529.894C1262.3 530.529 1262.66 531.488 1262.66 532.769V537.686H1260.32V536.613C1259.85 537.413 1258.97 537.814 1257.69 537.814C1257.03 537.814 1256.45 537.702 1255.97 537.477C1255.48 537.253 1255.11 536.944 1254.86 536.549C1254.6 536.154 1254.47 535.705 1254.47 535.203C1254.47 534.403 1254.77 533.773 1255.38 533.313C1255.98 532.854 1256.91 532.625 1258.17 532.625H1260.16C1260.16 532.08 1259.99 531.661 1259.66 531.368C1259.33 531.074 1258.83 530.927 1258.17 530.927C1257.71 530.927 1257.26 530.999 1256.82 531.143C1256.37 531.288 1256 531.482 1255.69 531.728L1254.79 529.982C1255.26 529.651 1255.82 529.395 1256.48 529.214C1257.14 529.032 1257.81 528.941 1258.51 528.941ZM1258.32 536.132C1258.74 536.132 1259.12 536.033 1259.45 535.836C1259.79 535.638 1260.02 535.347 1260.16 534.963V534.082H1258.45C1257.42 534.082 1256.91 534.419 1256.91 535.091C1256.91 535.411 1257.03 535.665 1257.28 535.852C1257.54 536.039 1257.88 536.132 1258.32 536.132ZM1270.15 528.941C1271.22 528.941 1272.08 529.262 1272.74 529.902C1273.39 530.543 1273.72 531.493 1273.72 532.753V537.686H1271.22V533.137C1271.22 532.454 1271.07 531.944 1270.77 531.608C1270.48 531.271 1270.04 531.103 1269.48 531.103C1268.85 531.103 1268.35 531.298 1267.97 531.688C1267.6 532.078 1267.41 532.657 1267.41 533.426V537.686H1264.91V529.069H1267.3V530.078C1267.63 529.715 1268.04 529.435 1268.53 529.238C1269.02 529.04 1269.56 528.941 1270.15 528.941ZM1284.76 525.802V537.686H1282.37V536.693C1281.75 537.44 1280.85 537.814 1279.68 537.814C1278.87 537.814 1278.13 537.632 1277.48 537.269C1276.82 536.906 1276.31 536.389 1275.93 535.716C1275.56 535.043 1275.37 534.264 1275.37 533.378C1275.37 532.491 1275.56 531.712 1275.93 531.039C1276.31 530.367 1276.82 529.849 1277.48 529.486C1278.13 529.123 1278.87 528.941 1279.68 528.941C1280.78 528.941 1281.64 529.288 1282.26 529.982V525.802H1284.76ZM1280.11 535.763C1280.74 535.763 1281.27 535.547 1281.68 535.114C1282.1 534.682 1282.31 534.103 1282.31 533.377C1282.31 532.651 1282.1 532.071 1281.68 531.639C1281.27 531.207 1280.74 530.99 1280.11 530.99C1279.47 530.99 1278.94 531.207 1278.53 531.639C1278.11 532.071 1277.9 532.651 1277.9 533.377C1277.9 534.103 1278.11 534.682 1278.53 535.114C1278.94 535.547 1279.47 535.763 1280.11 535.763ZM1295.46 537.877C1294.57 537.877 1293.71 537.757 1292.89 537.517C1292.06 537.277 1291.39 536.964 1290.89 536.58L1291.77 534.626C1292.25 534.978 1292.83 535.261 1293.49 535.475C1294.15 535.688 1294.81 535.795 1295.47 535.795C1296.21 535.795 1296.75 535.686 1297.11 535.467C1297.46 535.248 1297.64 534.957 1297.64 534.594C1297.64 534.327 1297.53 534.106 1297.32 533.929C1297.11 533.753 1296.85 533.612 1296.52 533.505C1296.2 533.398 1295.76 533.281 1295.2 533.153C1294.35 532.95 1293.65 532.747 1293.1 532.544C1292.56 532.341 1292.09 532.016 1291.7 531.567C1291.31 531.119 1291.12 530.521 1291.12 529.773C1291.12 529.122 1291.29 528.532 1291.65 528.004C1292 527.475 1292.53 527.056 1293.24 526.747C1293.95 526.437 1294.82 526.282 1295.84 526.282C1296.56 526.282 1297.26 526.367 1297.94 526.538C1298.62 526.709 1299.22 526.955 1299.73 527.275L1298.93 529.245C1297.9 528.658 1296.86 528.364 1295.83 528.364C1295.1 528.364 1294.56 528.482 1294.22 528.716C1293.87 528.951 1293.7 529.261 1293.7 529.645C1293.7 530.03 1293.9 530.315 1294.3 530.502C1294.7 530.689 1295.31 530.873 1296.13 531.055C1296.98 531.258 1297.68 531.46 1298.23 531.663C1298.77 531.866 1299.24 532.186 1299.63 532.624C1300.02 533.062 1300.21 533.655 1300.21 534.402C1300.21 535.043 1300.04 535.627 1299.68 536.156C1299.32 536.684 1298.78 537.103 1298.07 537.413C1297.35 537.722 1296.48 537.877 1295.46 537.877ZM1305.29 528.941C1306.62 528.941 1307.65 529.259 1308.37 529.894C1309.08 530.529 1309.44 531.488 1309.44 532.769V537.686H1307.1V536.613C1306.63 537.413 1305.75 537.814 1304.47 537.814C1303.81 537.814 1303.24 537.702 1302.75 537.477C1302.27 537.253 1301.9 536.944 1301.64 536.549C1301.38 536.154 1301.25 535.705 1301.25 535.203C1301.25 534.403 1301.56 533.773 1302.16 533.313C1302.76 532.854 1303.69 532.625 1304.95 532.625H1306.94C1306.94 532.08 1306.77 531.661 1306.44 531.368C1306.11 531.074 1305.62 530.927 1304.95 530.927C1304.49 530.927 1304.04 530.999 1303.6 531.143C1303.16 531.288 1302.78 531.482 1302.47 531.728L1301.57 529.982C1302.04 529.651 1302.61 529.395 1303.26 529.214C1303.92 529.032 1304.6 528.941 1305.29 528.941ZM1305.1 536.132C1305.52 536.132 1305.9 536.033 1306.23 535.836C1306.56 535.638 1306.8 535.347 1306.94 534.963V534.082H1305.22C1304.2 534.082 1303.69 534.419 1303.69 535.091C1303.69 535.411 1303.81 535.665 1304.06 535.852C1304.31 536.039 1304.66 536.132 1305.1 536.132ZM1314.43 529.261H1316.64V531.183H1314.5V537.685H1312V531.183H1310.67V529.261H1312V528.877C1312 527.895 1312.29 527.115 1312.87 526.539C1313.46 525.962 1314.27 525.674 1315.33 525.674C1315.71 525.674 1316.06 525.714 1316.4 525.794C1316.73 525.874 1317.01 525.989 1317.24 526.138L1316.58 527.948C1316.29 527.745 1315.96 527.644 1315.57 527.644C1314.81 527.644 1314.43 528.06 1314.43 528.893V529.261ZM1326.33 533.41C1326.33 533.442 1326.32 533.666 1326.29 534.082H1319.77C1319.88 534.616 1320.16 535.038 1320.6 535.347C1321.04 535.657 1321.58 535.812 1322.23 535.812C1322.68 535.812 1323.08 535.745 1323.43 535.612C1323.77 535.478 1324.1 535.267 1324.4 534.979L1325.73 536.42C1324.91 537.349 1323.73 537.814 1322.17 537.814C1321.2 537.814 1320.34 537.624 1319.59 537.245C1318.84 536.866 1318.27 536.34 1317.86 535.668C1317.46 534.995 1317.25 534.232 1317.25 533.378C1317.25 532.534 1317.45 531.773 1317.85 531.095C1318.25 530.417 1318.8 529.889 1319.5 529.51C1320.2 529.131 1320.98 528.941 1321.85 528.941C1322.69 528.941 1323.46 529.123 1324.14 529.486C1324.82 529.849 1325.36 530.369 1325.75 531.047C1326.14 531.725 1326.33 532.513 1326.33 533.41ZM1321.87 530.831C1321.3 530.831 1320.83 530.991 1320.44 531.312C1320.06 531.632 1319.82 532.07 1319.74 532.625H1323.98C1323.9 532.08 1323.66 531.645 1323.28 531.32C1322.89 530.994 1322.42 530.831 1321.87 530.831ZM1333.56 537.269C1333.31 537.451 1333.01 537.587 1332.65 537.678C1332.29 537.769 1331.92 537.814 1331.52 537.814C1330.5 537.814 1329.7 537.552 1329.14 537.029C1328.58 536.506 1328.3 535.737 1328.3 534.723V531.184H1326.97V529.262H1328.3V527.164H1330.8V529.262H1332.95V531.184H1330.8V534.691C1330.8 535.054 1330.89 535.334 1331.08 535.532C1331.27 535.729 1331.53 535.828 1331.87 535.828C1332.27 535.828 1332.61 535.721 1332.88 535.508L1333.56 537.269ZM1343.52 529.07L1339.63 538.215C1339.23 539.208 1338.74 539.907 1338.16 540.313C1337.58 540.718 1336.88 540.921 1336.06 540.921C1335.61 540.921 1335.16 540.852 1334.73 540.713C1334.29 540.574 1333.93 540.382 1333.65 540.136L1334.57 538.359C1334.76 538.53 1334.98 538.663 1335.23 538.759C1335.48 538.855 1335.73 538.903 1335.98 538.903C1336.32 538.903 1336.59 538.821 1336.81 538.655C1337.02 538.49 1337.21 538.215 1337.39 537.83L1337.42 537.75L1333.69 529.07H1336.26L1338.68 534.915L1341.12 529.07H1343.52Z" fill="white"/>
<path opacity="0.2" fill-rule="evenodd" clip-rule="evenodd" d="M1289.06 513.12C1323.33 513.12 1351.12 485.335 1351.12 451.06C1351.12 416.785 1323.33 389 1289.06 389C1254.79 389 1227 416.785 1227 451.06C1227 485.335 1254.79 513.12 1289.06 513.12Z" fill="white"/>
<path opacity="0.4" fill-rule="evenodd" clip-rule="evenodd" d="M1289.06 496.334C1314.06 496.334 1334.33 476.064 1334.33 451.06C1334.33 426.057 1314.06 405.787 1289.06 405.787C1264.05 405.787 1243.79 426.057 1243.79 451.06C1243.79 476.064 1264.05 496.334 1289.06 496.334Z" fill="white"/>
<path fill-rule="evenodd" clip-rule="evenodd" d="M1289.06 477.511C1303.67 477.511 1315.51 465.668 1315.51 451.059C1315.51 436.45 1303.67 424.607 1289.06 424.607C1274.45 424.607 1262.61 436.45 1262.61 451.059C1262.61 465.668 1274.45 477.511 1289.06 477.511Z" fill="white"/>
<path fill-rule="evenodd" clip-rule="evenodd" d="M1186.02 195.921H1182.66V193.939H1191.82V195.921H1188.46V204.45H1186.02V195.921ZM1195.2 197.437C1195.48 197.047 1195.86 196.752 1196.33 196.551C1196.81 196.351 1197.35 196.251 1197.98 196.251V198.413C1197.71 198.393 1197.54 198.383 1197.45 198.383C1196.78 198.383 1196.25 198.571 1195.87 198.946C1195.49 199.322 1195.3 199.885 1195.3 200.635V204.449H1192.96V196.371H1195.2V197.437ZM1202.69 196.251C1203.94 196.251 1204.9 196.549 1205.57 197.144C1206.24 197.74 1206.58 198.638 1206.58 199.84V204.449H1204.39V203.443C1203.94 204.194 1203.12 204.569 1201.92 204.569C1201.3 204.569 1200.76 204.464 1200.31 204.254C1199.85 204.044 1199.51 203.753 1199.27 203.383C1199.03 203.013 1198.9 202.592 1198.9 202.122C1198.9 201.371 1199.19 200.78 1199.75 200.35C1200.32 199.92 1201.19 199.704 1202.37 199.704H1204.24C1204.24 199.194 1204.08 198.801 1203.77 198.526C1203.46 198.251 1202.99 198.113 1202.37 198.113C1201.94 198.113 1201.52 198.18 1201.1 198.316C1200.69 198.451 1200.34 198.633 1200.05 198.864L1199.21 197.227C1199.65 196.917 1200.17 196.676 1200.79 196.506C1201.4 196.336 1202.04 196.251 1202.69 196.251ZM1202.51 202.993C1202.91 202.993 1203.27 202.901 1203.58 202.716C1203.89 202.531 1204.11 202.258 1204.24 201.897V201.072H1202.63C1201.67 201.072 1201.19 201.387 1201.19 202.018C1201.19 202.318 1201.31 202.556 1201.54 202.731C1201.78 202.906 1202.1 202.993 1202.51 202.993ZM1213.6 196.251C1214.61 196.251 1215.41 196.551 1216.03 197.152C1216.64 197.753 1216.95 198.643 1216.95 199.825V204.449H1214.61V200.185C1214.61 199.544 1214.47 199.066 1214.19 198.751C1213.91 198.436 1213.5 198.278 1212.97 198.278C1212.38 198.278 1211.91 198.461 1211.56 198.826C1211.21 199.191 1211.04 199.734 1211.04 200.455V204.449H1208.69V196.371H1210.93V197.317C1211.24 196.977 1211.63 196.714 1212.09 196.529C1212.55 196.344 1213.05 196.251 1213.6 196.251ZM1221.79 204.569C1221.12 204.569 1220.46 204.487 1219.82 204.321C1219.18 204.156 1218.67 203.949 1218.29 203.698L1219.07 202.017C1219.43 202.247 1219.87 202.435 1220.38 202.58C1220.89 202.725 1221.39 202.797 1221.88 202.797C1222.87 202.797 1223.36 202.552 1223.36 202.062C1223.36 201.831 1223.23 201.666 1222.96 201.566C1222.69 201.466 1222.27 201.381 1221.71 201.311C1221.05 201.211 1220.51 201.096 1220.08 200.966C1219.64 200.836 1219.27 200.605 1218.96 200.275C1218.64 199.945 1218.48 199.474 1218.48 198.864C1218.48 198.353 1218.63 197.9 1218.93 197.505C1219.22 197.109 1219.65 196.802 1220.22 196.581C1220.78 196.361 1221.45 196.251 1222.22 196.251C1222.79 196.251 1223.36 196.314 1223.93 196.439C1224.49 196.564 1224.96 196.737 1225.33 196.957L1224.55 198.623C1223.84 198.223 1223.06 198.023 1222.22 198.023C1221.72 198.023 1221.35 198.093 1221.1 198.233C1220.85 198.373 1220.72 198.553 1220.72 198.774C1220.72 199.024 1220.86 199.199 1221.13 199.299C1221.4 199.399 1221.83 199.494 1222.42 199.584C1223.08 199.694 1223.62 199.812 1224.04 199.937C1224.46 200.062 1224.82 200.29 1225.14 200.62C1225.45 200.951 1225.6 201.411 1225.6 202.002C1225.6 202.502 1225.45 202.948 1225.15 203.338C1224.85 203.728 1224.41 204.031 1223.84 204.246C1223.26 204.462 1222.58 204.569 1221.79 204.569ZM1231.82 196.251C1232.57 196.251 1233.25 196.424 1233.87 196.769C1234.48 197.114 1234.97 197.6 1235.32 198.225C1235.67 198.851 1235.84 199.579 1235.84 200.41C1235.84 201.241 1235.67 201.969 1235.32 202.595C1234.97 203.22 1234.48 203.706 1233.87 204.051C1233.25 204.396 1232.57 204.569 1231.82 204.569C1230.79 204.569 1229.98 204.244 1229.38 203.593V207.362H1227.04V196.371H1229.28V197.302C1229.86 196.601 1230.71 196.251 1231.82 196.251ZM1231.41 202.648C1232.01 202.648 1232.51 202.445 1232.89 202.04C1233.28 201.634 1233.47 201.091 1233.47 200.411C1233.47 199.73 1233.28 199.187 1232.89 198.782C1232.51 198.376 1232.01 198.174 1231.41 198.174C1230.81 198.174 1230.32 198.376 1229.93 198.782C1229.55 199.187 1229.36 199.73 1229.36 200.411C1229.36 201.091 1229.55 201.634 1229.93 202.04C1230.32 202.445 1230.81 202.648 1231.41 202.648ZM1240.66 196.251C1241.91 196.251 1242.88 196.549 1243.55 197.144C1244.22 197.74 1244.55 198.638 1244.55 199.84V204.449H1242.36V203.443C1241.92 204.194 1241.1 204.569 1239.9 204.569C1239.28 204.569 1238.74 204.464 1238.28 204.254C1237.83 204.044 1237.48 203.753 1237.24 203.383C1237 203.013 1236.88 202.592 1236.88 202.122C1236.88 201.371 1237.16 200.78 1237.73 200.35C1238.29 199.92 1239.17 199.704 1240.35 199.704H1242.21C1242.21 199.194 1242.05 198.801 1241.74 198.526C1241.43 198.251 1240.97 198.113 1240.35 198.113C1239.92 198.113 1239.49 198.18 1239.08 198.316C1238.66 198.451 1238.31 198.633 1238.02 198.864L1237.18 197.227C1237.62 196.917 1238.15 196.676 1238.76 196.506C1239.38 196.336 1240.01 196.251 1240.66 196.251ZM1240.48 202.993C1240.88 202.993 1241.24 202.901 1241.55 202.716C1241.86 202.531 1242.08 202.258 1242.21 201.897V201.072H1240.6C1239.64 201.072 1239.16 201.387 1239.16 202.018C1239.16 202.318 1239.28 202.556 1239.51 202.731C1239.75 202.906 1240.07 202.993 1240.48 202.993ZM1248.91 197.437C1249.19 197.047 1249.56 196.752 1250.04 196.551C1250.52 196.351 1251.06 196.251 1251.68 196.251V198.413C1251.42 198.393 1251.25 198.383 1251.16 198.383C1250.49 198.383 1249.96 198.571 1249.58 198.946C1249.2 199.322 1249.01 199.885 1249.01 200.635V204.449H1246.67V196.371H1248.91V197.437ZM1261.05 200.44C1261.05 200.47 1261.04 200.68 1261.01 201.071H1254.89C1255 201.571 1255.27 201.967 1255.68 202.257C1256.09 202.547 1256.6 202.692 1257.21 202.692C1257.63 202.692 1258 202.63 1258.33 202.505C1258.65 202.38 1258.95 202.182 1259.23 201.912L1260.48 203.263C1259.72 204.134 1258.61 204.569 1257.15 204.569C1256.24 204.569 1255.43 204.391 1254.73 204.036C1254.03 203.681 1253.49 203.188 1253.11 202.557C1252.73 201.927 1252.54 201.211 1252.54 200.41C1252.54 199.619 1252.73 198.906 1253.1 198.271C1253.48 197.635 1253.99 197.139 1254.65 196.784C1255.3 196.429 1256.04 196.251 1256.85 196.251C1257.64 196.251 1258.35 196.421 1258.99 196.762C1259.63 197.102 1260.14 197.59 1260.5 198.225C1260.87 198.861 1261.05 199.599 1261.05 200.44ZM1256.86 198.023C1256.33 198.023 1255.89 198.173 1255.53 198.474C1255.17 198.774 1254.95 199.184 1254.87 199.705H1258.84C1258.76 199.194 1258.54 198.787 1258.18 198.481C1257.82 198.176 1257.38 198.023 1256.86 198.023ZM1267.52 196.251C1268.52 196.251 1269.33 196.551 1269.95 197.152C1270.56 197.753 1270.87 198.643 1270.87 199.825V204.449H1268.53V200.185C1268.53 199.544 1268.39 199.066 1268.11 198.751C1267.83 198.436 1267.42 198.278 1266.89 198.278C1266.3 198.278 1265.83 198.461 1265.48 198.826C1265.13 199.191 1264.96 199.734 1264.96 200.455V204.449H1262.61V196.371H1264.85V197.317C1265.16 196.977 1265.55 196.714 1266.01 196.529C1266.47 196.344 1266.97 196.251 1267.52 196.251ZM1276.89 204.569C1276.03 204.569 1275.26 204.391 1274.57 204.036C1273.89 203.681 1273.35 203.188 1272.97 202.557C1272.58 201.927 1272.39 201.211 1272.39 200.41C1272.39 199.609 1272.58 198.894 1272.97 198.263C1273.35 197.632 1273.89 197.139 1274.57 196.784C1275.26 196.429 1276.03 196.251 1276.89 196.251C1277.74 196.251 1278.49 196.429 1279.12 196.784C1279.76 197.139 1280.22 197.647 1280.51 198.308L1278.69 199.284C1278.27 198.543 1277.67 198.173 1276.88 198.173C1276.27 198.173 1275.76 198.373 1275.36 198.774C1274.96 199.174 1274.76 199.719 1274.76 200.41C1274.76 201.101 1274.96 201.646 1275.36 202.047C1275.76 202.447 1276.27 202.647 1276.88 202.647C1277.68 202.647 1278.28 202.277 1278.69 201.536L1280.51 202.527C1280.22 203.168 1279.76 203.668 1279.12 204.029C1278.49 204.389 1277.74 204.569 1276.89 204.569ZM1289.88 196.372L1286.23 204.946C1285.86 205.877 1285.4 206.532 1284.85 206.913C1284.31 207.293 1283.65 207.483 1282.88 207.483C1282.46 207.483 1282.04 207.418 1281.63 207.288C1281.22 207.158 1280.89 206.978 1280.63 206.747L1281.48 205.081C1281.66 205.241 1281.87 205.366 1282.11 205.456C1282.34 205.546 1282.58 205.591 1282.81 205.591C1283.13 205.591 1283.39 205.514 1283.59 205.359C1283.79 205.203 1283.97 204.946 1284.13 204.585L1284.16 204.51L1280.66 196.372H1283.08L1285.34 201.853L1287.62 196.372H1289.88Z" fill="white"/>
<path opacity="0.2" fill-rule="evenodd" clip-rule="evenodd" d="M1236.18 181.363C1268.31 181.363 1294.36 155.314 1294.36 123.181C1294.36 91.0486 1268.31 65 1236.18 65C1204.05 65 1178 91.0486 1178 123.181C1178 155.314 1204.05 181.363 1236.18 181.363Z" fill="white"/>
<path opacity="0.4" fill-rule="evenodd" clip-rule="evenodd" d="M1236.18 165.626C1259.62 165.626 1278.63 146.623 1278.63 123.182C1278.63 99.741 1259.62 80.7383 1236.18 80.7383C1212.74 80.7383 1193.74 99.741 1193.74 123.182C1193.74 146.623 1212.74 165.626 1236.18 165.626Z" fill="white"/>
<path fill-rule="evenodd" clip-rule="evenodd" d="M1236.18 147.98C1249.88 147.98 1260.98 136.877 1260.98 123.181C1260.98 109.486 1249.88 98.3828 1236.18 98.3828C1222.49 98.3828 1211.38 109.486 1211.38 123.181C1211.38 136.877 1222.49 147.98 1236.18 147.98Z" fill="white"/>
<path fill-rule="evenodd" clip-rule="evenodd" d="M997.11 389.621H990.603L989.362 392.624H986.039L992.285 378.611H995.488L1001.75 392.624H998.351L997.11 389.621ZM996.088 387.16L993.866 381.795L991.643 387.16H996.088ZM1009.54 381.693C1010.88 381.693 1011.96 382.094 1012.78 382.894C1013.6 383.695 1014.01 384.883 1014.01 386.458V392.624H1010.88V386.938C1010.88 386.084 1010.7 385.447 1010.32 385.027C1009.95 384.606 1009.41 384.396 1008.7 384.396C1007.92 384.396 1007.29 384.64 1006.82 385.127C1006.35 385.614 1006.12 386.338 1006.12 387.299V392.624H1003V381.853H1005.98V383.115C1006.39 382.661 1006.91 382.311 1007.52 382.064C1008.14 381.817 1008.81 381.693 1009.54 381.693ZM1021.17 381.693C1022.84 381.693 1024.12 382.09 1025.02 382.884C1025.91 383.679 1026.36 384.876 1026.36 386.478V392.624H1023.44V391.283C1022.85 392.284 1021.75 392.784 1020.15 392.784C1019.32 392.784 1018.61 392.644 1018 392.364C1017.39 392.083 1016.93 391.696 1016.61 391.203C1016.29 390.709 1016.13 390.148 1016.13 389.521C1016.13 388.52 1016.51 387.733 1017.26 387.159C1018.01 386.585 1019.18 386.298 1020.75 386.298H1023.24C1023.24 385.617 1023.03 385.093 1022.61 384.726C1022.2 384.359 1021.58 384.176 1020.75 384.176C1020.18 384.176 1019.61 384.266 1019.06 384.446C1018.51 384.626 1018.04 384.87 1017.65 385.177L1016.53 382.995C1017.12 382.581 1017.82 382.261 1018.64 382.034C1019.46 381.807 1020.31 381.693 1021.17 381.693ZM1020.93 390.682C1021.46 390.682 1021.94 390.559 1022.35 390.312C1022.77 390.065 1023.06 389.701 1023.23 389.221V388.12H1021.09C1019.81 388.12 1019.17 388.54 1019.17 389.381C1019.17 389.781 1019.33 390.098 1019.64 390.332C1019.95 390.565 1020.38 390.682 1020.93 390.682ZM1029.18 377.771H1032.3V392.625H1029.18V377.771ZM1045.9 381.854L1041.03 393.285C1040.54 394.527 1039.93 395.401 1039.2 395.908C1038.47 396.415 1037.59 396.669 1036.57 396.669C1036.01 396.669 1035.45 396.582 1034.91 396.409C1034.36 396.235 1033.91 395.995 1033.56 395.688L1034.71 393.466C1034.95 393.679 1035.22 393.846 1035.54 393.966C1035.85 394.086 1036.16 394.146 1036.47 394.146C1036.89 394.146 1037.24 394.043 1037.51 393.836C1037.77 393.629 1038.02 393.285 1038.23 392.805L1038.27 392.705L1033.6 381.854H1036.83L1039.85 389.161L1042.89 381.854H1045.9ZM1054.13 392.104C1053.82 392.331 1053.44 392.501 1053 392.615C1052.55 392.728 1052.08 392.785 1051.58 392.785C1050.3 392.785 1049.31 392.458 1048.61 391.804C1047.91 391.15 1047.56 390.189 1047.56 388.921V384.497H1045.9V382.095H1047.56V379.472H1050.68V382.095H1053.37V384.497H1050.68V388.881C1050.68 389.335 1050.8 389.685 1051.03 389.932C1051.27 390.179 1051.6 390.303 1052.02 390.303C1052.52 390.303 1052.94 390.169 1053.29 389.902L1054.13 392.104ZM1055.89 381.854H1059.01V392.625H1055.89V381.854ZM1057.45 380.353C1056.88 380.353 1056.41 380.186 1056.05 379.852C1055.69 379.518 1055.51 379.105 1055.51 378.611C1055.51 378.117 1055.69 377.703 1056.05 377.37C1056.41 377.036 1056.88 376.869 1057.45 376.869C1058.02 376.869 1058.49 377.029 1058.85 377.35C1059.21 377.67 1059.39 378.07 1059.39 378.551C1059.39 379.071 1059.21 379.502 1058.85 379.842C1058.49 380.182 1058.02 380.353 1057.45 380.353ZM1067.12 392.784C1065.97 392.784 1064.94 392.547 1064.02 392.073C1063.11 391.6 1062.4 390.942 1061.88 390.101C1061.37 389.261 1061.11 388.306 1061.11 387.239C1061.11 386.171 1061.37 385.217 1061.88 384.376C1062.4 383.535 1063.11 382.878 1064.02 382.404C1064.94 381.93 1065.97 381.693 1067.12 381.693C1068.25 381.693 1069.24 381.93 1070.09 382.404C1070.94 382.878 1071.56 383.555 1071.94 384.436L1069.52 385.737C1068.96 384.75 1068.15 384.256 1067.1 384.256C1066.28 384.256 1065.61 384.523 1065.08 385.057C1064.54 385.59 1064.27 386.318 1064.27 387.239C1064.27 388.16 1064.54 388.887 1065.08 389.421C1065.61 389.955 1066.28 390.222 1067.1 390.222C1068.17 390.222 1068.97 389.728 1069.52 388.74L1071.94 390.061C1071.56 390.916 1070.94 391.583 1070.09 392.063C1069.24 392.544 1068.25 392.784 1067.12 392.784ZM1077.37 392.784C1076.47 392.784 1075.6 392.674 1074.75 392.454C1073.89 392.234 1073.21 391.957 1072.7 391.623L1073.75 389.381C1074.23 389.688 1074.81 389.938 1075.49 390.131C1076.17 390.325 1076.83 390.422 1077.49 390.422C1078.81 390.422 1079.47 390.095 1079.47 389.441C1079.47 389.134 1079.29 388.914 1078.93 388.78C1078.57 388.647 1078.02 388.533 1077.27 388.44C1076.39 388.306 1075.66 388.153 1075.09 387.979C1074.51 387.806 1074.02 387.499 1073.6 387.059C1073.17 386.618 1072.96 385.991 1072.96 385.177C1072.96 384.496 1073.16 383.892 1073.56 383.365C1073.95 382.838 1074.52 382.427 1075.28 382.134C1076.03 381.84 1076.92 381.693 1077.95 381.693C1078.71 381.693 1079.47 381.777 1080.22 381.944C1080.98 382.11 1081.6 382.341 1082.09 382.634L1081.05 384.856C1080.1 384.323 1079.07 384.056 1077.95 384.056C1077.28 384.056 1076.78 384.149 1076.45 384.336C1076.11 384.523 1075.95 384.763 1075.95 385.057C1075.95 385.39 1076.13 385.624 1076.49 385.757C1076.85 385.891 1077.42 386.018 1078.21 386.138C1079.09 386.284 1079.81 386.441 1080.37 386.608C1080.93 386.775 1081.42 387.079 1081.83 387.519C1082.25 387.959 1082.45 388.573 1082.45 389.361C1082.45 390.028 1082.25 390.622 1081.85 391.142C1081.45 391.663 1080.87 392.067 1080.1 392.354C1079.33 392.641 1078.42 392.784 1077.37 392.784Z" fill="white"/>
<path opacity="0.2" fill-rule="evenodd" clip-rule="evenodd" d="M1034.58 362.15C1077.42 362.15 1112.15 327.419 1112.15 284.575C1112.15 241.732 1077.42 207 1034.58 207C991.732 207 957 241.732 957 284.575C957 327.419 991.732 362.15 1034.58 362.15Z" fill="white"/>
<path opacity="0.4" fill-rule="evenodd" clip-rule="evenodd" d="M1034.58 341.168C1065.83 341.168 1091.17 315.831 1091.17 284.576C1091.17 253.321 1065.83 227.984 1034.58 227.984C1003.32 227.984 977.984 253.321 977.984 284.576C977.984 315.831 1003.32 341.168 1034.58 341.168Z" fill="white"/>
<path fill-rule="evenodd" clip-rule="evenodd" d="M1034.58 317.639C1052.84 317.639 1067.64 302.836 1067.64 284.575C1067.64 266.313 1052.84 251.51 1034.58 251.51C1016.32 251.51 1001.51 266.313 1001.51 284.575C1001.51 302.836 1016.32 317.639 1034.58 317.639Z" fill="white"/>
<path fill-rule="evenodd" clip-rule="evenodd" d="M660.988 260.786L654.937 279.284H650.339L646.269 266.758L642.067 279.284H637.496L631.418 260.786H635.857L640.033 273.788L644.393 260.786H648.357L652.585 273.893L656.892 260.786H660.988ZM670.238 279.495C668.74 279.495 667.397 279.183 666.208 278.557C665.019 277.932 664.089 277.064 663.42 275.954C662.751 274.844 662.416 273.585 662.416 272.175C662.416 270.766 662.751 269.507 663.42 268.397C664.089 267.287 665.019 266.419 666.208 265.794C667.397 265.168 668.74 264.856 670.238 264.856C671.735 264.856 673.074 265.168 674.254 265.794C675.435 266.419 676.36 267.287 677.029 268.397C677.699 269.507 678.033 270.766 678.033 272.175C678.033 273.585 677.699 274.844 677.029 275.954C676.36 277.064 675.435 277.932 674.254 278.557C673.074 279.183 671.735 279.495 670.238 279.495ZM670.237 276.114C671.294 276.114 672.162 275.757 672.84 275.043C673.518 274.33 673.857 273.374 673.857 272.176C673.857 270.978 673.518 270.023 672.84 269.309C672.162 268.596 671.294 268.239 670.237 268.239C669.18 268.239 668.308 268.596 667.621 269.309C666.934 270.023 666.59 270.978 666.59 272.176C666.59 273.374 666.934 274.33 667.621 275.043C668.308 275.757 669.18 276.114 670.237 276.114ZM684.72 266.943C685.213 266.256 685.878 265.736 686.715 265.384C687.551 265.032 688.516 264.856 689.608 264.856V268.661C689.15 268.626 688.842 268.608 688.683 268.608C687.503 268.608 686.578 268.938 685.909 269.599C685.239 270.26 684.905 271.251 684.905 272.572V279.284H680.782V265.067H684.72V266.943ZM698.276 273.709L696.294 275.664V279.284H692.172V259.677H696.294V270.775L702.319 265.067H707.234L701.315 271.092L707.763 279.284H702.769L698.276 273.709ZM714.131 265.384H717.777V268.555H714.236V279.284H710.114V268.555H707.921V265.384H710.114V264.75C710.114 263.129 710.594 261.843 711.554 260.892C712.514 259.94 713.866 259.465 715.61 259.465C716.227 259.465 716.813 259.531 717.368 259.663C717.923 259.795 718.385 259.985 718.755 260.231L717.672 263.217C717.196 262.883 716.641 262.715 716.007 262.715C714.756 262.715 714.131 263.402 714.131 264.776V265.384ZM719.839 259.677H723.961V279.284H719.839V259.677ZM734.558 279.495C733.06 279.495 731.717 279.183 730.528 278.557C729.339 277.932 728.409 277.064 727.74 275.954C727.071 274.844 726.736 273.585 726.736 272.175C726.736 270.766 727.071 269.507 727.74 268.397C728.409 267.287 729.339 266.419 730.528 265.794C731.717 265.168 733.06 264.856 734.558 264.856C736.055 264.856 737.394 265.168 738.575 265.794C739.755 266.419 740.68 267.287 741.349 268.397C742.019 269.507 742.353 270.766 742.353 272.175C742.353 273.585 742.019 274.844 741.349 275.954C740.68 277.064 739.755 277.932 738.575 278.557C737.394 279.183 736.055 279.495 734.558 279.495ZM734.557 276.114C735.614 276.114 736.482 275.757 737.16 275.043C737.838 274.33 738.177 273.374 738.177 272.176C738.177 270.978 737.838 270.023 737.16 269.309C736.482 268.596 735.614 268.239 734.557 268.239C733.5 268.239 732.628 268.596 731.941 269.309C731.254 270.023 730.91 270.978 730.91 272.176C730.91 273.374 731.254 274.33 731.941 275.043C732.628 275.757 733.5 276.114 734.557 276.114ZM767.931 265.067L762.778 279.284H758.814L755.617 270.458L752.314 279.284H748.35L743.223 265.067H747.108L750.464 274.686L753.952 265.067H757.44L760.823 274.686L764.284 265.067H767.931Z" fill="white"/>
<path opacity="0.2" fill-rule="evenodd" clip-rule="evenodd" d="M699.399 238.798C755.952 238.798 801.798 192.952 801.798 136.399C801.798 79.8456 755.952 34 699.399 34C642.846 34 597 79.8456 597 136.399C597 192.952 642.846 238.798 699.399 238.798Z" fill="white"/>
<path opacity="0.4" fill-rule="evenodd" clip-rule="evenodd" d="M699.4 211.099C740.656 211.099 774.101 177.654 774.101 136.398C774.101 95.142 740.656 61.6973 699.4 61.6973C658.144 61.6973 624.699 95.142 624.699 136.398C624.699 177.654 658.144 211.099 699.4 211.099Z" fill="white"/>
<path fill-rule="evenodd" clip-rule="evenodd" d="M699.399 180.045C723.504 180.045 743.045 160.504 743.045 136.399C743.045 112.295 723.504 92.7539 699.399 92.7539C675.295 92.7539 655.754 112.295 655.754 136.399C655.754 160.504 675.295 180.045 699.399 180.045Z" fill="white"/>
<path fill-rule="evenodd" clip-rule="evenodd" d="M749.229 521.367H743.218L742.071 524.142H739L744.771 511.193H747.731L753.521 524.142H750.376L749.229 521.367ZM748.287 519.092L746.234 514.135L744.181 519.092H748.287ZM764.693 514.189V524.141H761.955V522.957C761.573 523.389 761.116 523.719 760.586 523.947C760.056 524.175 759.482 524.289 758.866 524.289C757.558 524.289 756.523 523.913 755.758 523.161C754.993 522.408 754.611 521.292 754.611 519.812V514.189H757.497V519.387C757.497 520.99 758.169 521.792 759.513 521.792C760.204 521.792 760.759 521.567 761.178 521.117C761.597 520.666 761.807 519.997 761.807 519.11V514.189H764.693ZM777.514 510.417V524.142H774.758V522.995C774.043 523.858 773.007 524.29 771.65 524.29C770.713 524.29 769.865 524.08 769.107 523.661C768.348 523.242 767.753 522.644 767.322 521.867C766.89 521.09 766.674 520.19 766.674 519.166C766.674 518.143 766.89 517.242 767.322 516.465C767.753 515.689 768.348 515.09 769.107 514.671C769.865 514.252 770.713 514.042 771.65 514.042C772.92 514.042 773.913 514.443 774.628 515.245V510.417H777.514ZM772.149 521.923C772.876 521.923 773.481 521.673 773.962 521.173C774.442 520.674 774.683 520.005 774.683 519.166C774.683 518.328 774.442 517.659 773.962 517.159C773.481 516.66 772.876 516.41 772.149 516.41C771.409 516.41 770.798 516.66 770.317 517.159C769.836 517.659 769.596 518.328 769.596 519.166C769.596 520.005 769.836 520.674 770.317 521.173C770.798 521.673 771.409 521.923 772.149 521.923ZM780.175 514.189H783.06V524.141H780.175V514.189ZM781.618 512.803C781.088 512.803 780.656 512.648 780.323 512.34C779.99 512.032 779.824 511.65 779.824 511.193C779.824 510.737 779.99 510.355 780.323 510.046C780.656 509.738 781.088 509.584 781.618 509.584C782.148 509.584 782.58 509.732 782.913 510.028C783.246 510.324 783.412 510.694 783.412 511.138C783.412 511.619 783.246 512.016 782.913 512.331C782.58 512.645 782.148 512.803 781.618 512.803ZM795.493 519.203C795.493 519.24 795.474 519.499 795.437 519.98H787.909C788.044 520.597 788.365 521.084 788.87 521.442C789.376 521.799 790.005 521.978 790.757 521.978C791.275 521.978 791.735 521.901 792.135 521.747C792.536 521.593 792.909 521.349 793.254 521.016L794.79 522.681C793.853 523.754 792.484 524.29 790.683 524.29C789.561 524.29 788.568 524.071 787.705 523.634C786.842 523.196 786.176 522.589 785.707 521.812C785.239 521.035 785.004 520.153 785.004 519.166C785.004 518.192 785.236 517.314 785.698 516.53C786.161 515.747 786.796 515.137 787.603 514.699C788.411 514.261 789.314 514.043 790.313 514.043C791.288 514.043 792.169 514.252 792.959 514.671C793.748 515.091 794.367 515.692 794.818 516.475C795.268 517.258 795.493 518.168 795.493 519.203ZM790.332 516.226C789.678 516.226 789.13 516.411 788.686 516.781C788.242 517.151 787.97 517.656 787.872 518.297H792.774C792.675 517.668 792.404 517.166 791.96 516.79C791.516 516.414 790.973 516.226 790.332 516.226ZM803.464 514.043C804.697 514.043 805.693 514.412 806.451 515.152C807.21 515.892 807.589 516.99 807.589 518.445V524.142H804.703V518.889C804.703 518.1 804.531 517.511 804.185 517.122C803.84 516.734 803.341 516.54 802.687 516.54C801.959 516.54 801.38 516.765 800.948 517.215C800.517 517.665 800.301 518.334 800.301 519.222V524.142H797.415V514.19H800.171V515.356C800.554 514.937 801.028 514.613 801.596 514.385C802.163 514.157 802.786 514.043 803.464 514.043ZM815.01 524.29C813.949 524.29 812.996 524.071 812.152 523.634C811.307 523.196 810.647 522.589 810.172 521.812C809.698 521.035 809.46 520.153 809.46 519.166C809.46 518.18 809.698 517.298 810.172 516.521C810.647 515.744 811.307 515.137 812.152 514.699C812.996 514.261 813.949 514.043 815.01 514.043C816.058 514.043 816.973 514.261 817.757 514.699C818.54 515.137 819.11 515.763 819.468 516.577L817.229 517.779C816.711 516.867 815.965 516.41 814.991 516.41C814.239 516.41 813.616 516.657 813.123 517.15C812.63 517.643 812.383 518.316 812.383 519.166C812.383 520.017 812.63 520.689 813.123 521.183C813.616 521.676 814.239 521.923 814.991 521.923C815.978 521.923 816.724 521.466 817.229 520.554L819.468 521.775C819.11 522.564 818.54 523.18 817.757 523.624C816.973 524.068 816.058 524.29 815.01 524.29ZM830.879 519.203C830.879 519.24 830.86 519.499 830.823 519.98H823.294C823.43 520.597 823.751 521.084 824.256 521.442C824.762 521.799 825.391 521.978 826.143 521.978C826.661 521.978 827.12 521.901 827.521 521.747C827.922 521.593 828.295 521.349 828.64 521.016L830.176 522.681C829.238 523.754 827.87 524.29 826.069 524.29C824.947 524.29 823.954 524.071 823.091 523.634C822.228 523.196 821.562 522.589 821.093 521.812C820.625 521.035 820.39 520.153 820.39 519.166C820.39 518.192 820.621 517.314 821.084 516.53C821.546 515.747 822.181 515.137 822.989 514.699C823.797 514.261 824.7 514.043 825.699 514.043C826.673 514.043 827.555 514.252 828.344 514.671C829.134 515.091 829.753 515.692 830.203 516.475C830.653 517.258 830.879 518.168 830.879 519.203ZM825.718 516.226C825.064 516.226 824.515 516.411 824.071 516.781C823.628 517.151 823.356 517.656 823.258 518.297H828.16C828.061 517.668 827.79 517.166 827.346 516.79C826.902 516.414 826.359 516.226 825.718 516.226ZM848.195 524.364L846.641 522.921C845.408 523.883 843.965 524.364 842.312 524.364C841.375 524.364 840.53 524.213 839.778 523.91C839.026 523.608 838.437 523.186 838.012 522.643C837.586 522.101 837.374 521.49 837.374 520.812C837.374 520.011 837.599 519.305 838.049 518.694C838.499 518.084 839.223 517.501 840.222 516.946C839.754 516.465 839.414 516.006 839.205 515.568C838.995 515.13 838.89 514.677 838.89 514.208C838.89 513.579 839.057 513.024 839.39 512.544C839.723 512.063 840.194 511.69 840.805 511.424C841.415 511.159 842.121 511.027 842.923 511.027C844.045 511.027 844.945 511.295 845.624 511.831C846.302 512.368 846.641 513.092 846.641 514.005C846.641 514.671 846.441 515.263 846.04 515.781C845.639 516.299 844.995 516.798 844.107 517.279L846.474 519.48C846.758 518.888 846.974 518.216 847.122 517.464L849.434 518.185C849.187 519.332 848.793 520.313 848.25 521.127L849.767 522.532L848.195 524.364ZM842.921 512.987C842.489 512.987 842.147 513.098 841.894 513.32C841.642 513.542 841.515 513.826 841.515 514.171C841.515 514.43 841.583 514.674 841.719 514.902C841.854 515.13 842.119 515.435 842.514 515.817C843.143 515.484 843.581 515.185 843.827 514.92C844.074 514.655 844.197 514.368 844.197 514.06C844.197 513.739 844.086 513.48 843.864 513.283C843.642 513.086 843.328 512.987 842.921 512.987ZM842.513 522.108C843.414 522.108 844.221 521.855 844.936 521.349L841.81 518.427C841.231 518.76 840.818 519.087 840.571 519.407C840.324 519.728 840.201 520.092 840.201 520.499C840.201 520.98 840.411 521.368 840.83 521.664C841.249 521.96 841.81 522.108 842.513 522.108ZM859.626 513.635H855.483V511.193H866.766V513.635H862.623V524.142H859.626V513.635ZM872.186 514.043C873.727 514.043 874.911 514.409 875.737 515.143C876.563 515.877 876.977 516.984 876.977 518.464V524.142H874.276V522.903C873.733 523.828 872.722 524.29 871.242 524.29C870.478 524.29 869.815 524.161 869.254 523.902C868.693 523.643 868.264 523.285 867.968 522.829C867.672 522.373 867.524 521.855 867.524 521.275C867.524 520.35 867.873 519.623 868.569 519.092C869.266 518.562 870.342 518.297 871.797 518.297H874.091C874.091 517.668 873.9 517.184 873.518 516.845C873.135 516.506 872.562 516.336 871.797 516.336C871.267 516.336 870.746 516.419 870.234 516.586C869.722 516.752 869.288 516.978 868.93 517.261L867.894 515.245C868.437 514.863 869.087 514.567 869.846 514.357C870.604 514.147 871.384 514.043 872.186 514.043ZM871.961 522.348C872.455 522.348 872.892 522.234 873.275 522.005C873.657 521.777 873.928 521.441 874.089 520.997V519.98H872.109C870.926 519.98 870.334 520.368 870.334 521.145C870.334 521.515 870.479 521.808 870.768 522.024C871.058 522.24 871.456 522.348 871.961 522.348ZM882.34 515.504C882.685 515.023 883.151 514.659 883.737 514.412C884.322 514.166 884.997 514.043 885.762 514.043V516.706C885.441 516.682 885.226 516.669 885.115 516.669C884.288 516.669 883.641 516.9 883.172 517.363C882.704 517.825 882.469 518.519 882.469 519.444V524.142H879.584V514.19H882.34V515.504ZM897.824 514.19V522.478C897.824 524.303 897.349 525.659 896.399 526.547C895.45 527.435 894.062 527.879 892.237 527.879C891.275 527.879 890.363 527.762 889.499 527.527C888.636 527.293 887.921 526.954 887.354 526.51L888.501 524.438C888.92 524.784 889.45 525.058 890.091 525.261C890.733 525.465 891.374 525.567 892.015 525.567C893.014 525.567 893.751 525.342 894.226 524.892C894.7 524.441 894.938 523.76 894.938 522.848V522.422C894.186 523.248 893.137 523.661 891.793 523.661C890.881 523.661 890.045 523.461 889.287 523.06C888.528 522.659 887.927 522.095 887.483 521.368C887.039 520.64 886.817 519.802 886.817 518.852C886.817 517.902 887.039 517.064 887.483 516.336C887.927 515.609 888.528 515.044 889.287 514.644C890.045 514.243 890.881 514.043 891.793 514.043C893.236 514.043 894.334 514.517 895.086 515.467V514.19H897.824ZM892.366 521.294C893.13 521.294 893.756 521.069 894.243 520.619C894.73 520.168 894.974 519.58 894.974 518.852C894.974 518.124 894.73 517.536 894.243 517.085C893.756 516.635 893.13 516.41 892.366 516.41C891.601 516.41 890.972 516.635 890.479 517.085C889.986 517.536 889.739 518.124 889.739 518.852C889.739 519.58 889.986 520.168 890.479 520.619C890.972 521.069 891.601 521.294 892.366 521.294ZM910.252 519.203C910.252 519.24 910.234 519.499 910.197 519.98H902.668C902.804 520.597 903.124 521.084 903.63 521.442C904.136 521.799 904.764 521.978 905.517 521.978C906.035 521.978 906.494 521.901 906.895 521.747C907.296 521.593 907.669 521.349 908.014 521.016L909.549 522.681C908.612 523.754 907.243 524.29 905.443 524.29C904.32 524.29 903.328 524.071 902.465 523.634C901.601 523.196 900.935 522.589 900.467 521.812C899.998 521.035 899.764 520.153 899.764 519.166C899.764 518.192 899.995 517.314 900.458 516.53C900.92 515.747 901.555 515.137 902.363 514.699C903.171 514.261 904.074 514.043 905.073 514.043C906.047 514.043 906.929 514.252 907.718 514.671C908.507 515.091 909.127 515.692 909.577 516.475C910.027 517.258 910.252 518.168 910.252 519.203ZM905.091 516.226C904.438 516.226 903.889 516.411 903.445 516.781C903.001 517.151 902.73 517.656 902.631 518.297H907.533C907.434 517.668 907.163 517.166 906.719 516.79C906.275 516.414 905.733 516.226 905.091 516.226ZM918.597 523.66C918.313 523.87 917.965 524.027 917.552 524.132C917.139 524.237 916.704 524.289 916.248 524.289C915.064 524.289 914.148 523.987 913.501 523.383C912.853 522.778 912.53 521.89 912.53 520.719V516.631H910.994V514.411H912.53V511.988H915.415V514.411H917.894V516.631H915.415V520.682C915.415 521.101 915.523 521.425 915.739 521.653C915.955 521.881 916.26 521.995 916.655 521.995C917.111 521.995 917.499 521.872 917.82 521.625L918.597 523.66ZM920.223 514.189H923.108V524.141H920.223V514.189ZM921.666 512.803C921.136 512.803 920.704 512.648 920.371 512.34C920.038 512.032 919.872 511.65 919.872 511.193C919.872 510.737 920.038 510.355 920.371 510.046C920.704 509.738 921.136 509.584 921.666 509.584C922.196 509.584 922.628 509.732 922.961 510.028C923.294 510.324 923.46 510.694 923.46 511.138C923.46 511.619 923.294 512.016 922.961 512.331C922.628 512.645 922.196 512.803 921.666 512.803ZM931.84 514.043C933.073 514.043 934.069 514.412 934.827 515.152C935.586 515.892 935.965 516.99 935.965 518.445V524.142H933.079V518.889C933.079 518.1 932.906 517.511 932.561 517.122C932.216 516.734 931.716 516.54 931.063 516.54C930.335 516.54 929.756 516.765 929.324 517.215C928.892 517.665 928.677 518.334 928.677 519.222V524.142H925.791V514.19H928.547V515.356C928.929 514.937 929.404 514.613 929.971 514.385C930.539 514.157 931.161 514.043 931.84 514.043ZM948.839 514.19V522.478C948.839 524.303 948.364 525.659 947.414 526.547C946.465 527.435 945.077 527.879 943.252 527.879C942.29 527.879 941.378 527.762 940.515 527.527C939.651 527.293 938.936 526.954 938.369 526.51L939.516 524.438C939.935 524.784 940.465 525.058 941.106 525.261C941.748 525.465 942.389 525.567 943.03 525.567C944.029 525.567 944.766 525.342 945.241 524.892C945.716 524.441 945.953 523.76 945.953 522.848V522.422C945.201 523.248 944.152 523.661 942.808 523.661C941.896 523.661 941.06 523.461 940.302 523.06C939.543 522.659 938.942 522.095 938.498 521.368C938.054 520.64 937.832 519.802 937.832 518.852C937.832 517.902 938.054 517.064 938.498 516.336C938.942 515.609 939.543 515.044 940.302 514.644C941.06 514.243 941.896 514.043 942.808 514.043C944.251 514.043 945.349 514.517 946.101 515.467V514.19H948.839ZM943.384 521.294C944.149 521.294 944.775 521.069 945.262 520.619C945.749 520.168 945.993 519.58 945.993 518.852C945.993 518.124 945.749 517.536 945.262 517.085C944.775 516.635 944.149 516.41 943.384 516.41C942.62 516.41 941.991 516.635 941.498 517.085C941.004 517.536 940.758 518.124 940.758 518.852C940.758 519.58 941.004 520.168 941.498 520.619C941.991 521.069 942.62 521.294 943.384 521.294Z" fill="white"/>
<path opacity="0.2" fill-rule="evenodd" clip-rule="evenodd" d="M844.679 496.359C884.267 496.359 916.359 464.267 916.359 424.679C916.359 385.092 884.267 353 844.679 353C805.092 353 773 385.092 773 424.679C773 464.267 805.092 496.359 844.679 496.359Z" fill="white"/>
<path opacity="0.4" fill-rule="evenodd" clip-rule="evenodd" d="M844.677 476.97C873.557 476.97 896.968 453.559 896.968 424.679C896.968 395.8 873.557 372.389 844.677 372.389C815.798 372.389 792.387 395.8 792.387 424.679C792.387 453.559 815.798 476.97 844.677 476.97Z" fill="white"/>
<path fill-rule="evenodd" clip-rule="evenodd" d="M844.681 455.231C861.554 455.231 875.233 441.552 875.233 424.679C875.233 407.805 861.554 394.127 844.681 394.127C827.807 394.127 814.129 407.805 814.129 424.679C814.129 441.552 827.807 455.231 844.681 455.231Z" fill="white"/>
<path fill-rule="evenodd" clip-rule="evenodd" d="M576.779 571.997C575.744 571.997 574.811 571.774 573.981 571.328C573.15 570.882 572.499 570.267 572.029 569.483C571.559 568.7 571.324 567.819 571.324 566.841C571.324 565.863 571.559 564.983 572.029 564.199C572.499 563.416 573.15 562.801 573.981 562.355C574.811 561.908 575.744 561.685 576.779 561.685C577.814 561.685 578.745 561.908 579.571 562.355C580.397 562.801 581.048 563.416 581.522 564.199C581.997 564.983 582.235 565.863 582.235 566.841C582.235 567.819 581.997 568.7 581.522 569.483C581.048 570.267 580.397 570.882 579.571 571.328C578.745 571.774 577.814 571.997 576.779 571.997ZM576.779 570.032C577.367 570.032 577.899 569.897 578.374 569.626C578.849 569.356 579.221 568.978 579.492 568.494C579.763 568.01 579.898 567.459 579.898 566.842C579.898 566.224 579.763 565.674 579.492 565.189C579.221 564.705 578.849 564.328 578.374 564.057C577.899 563.786 577.367 563.651 576.779 563.651C576.19 563.651 575.658 563.786 575.183 564.057C574.709 564.328 574.336 564.705 574.065 565.189C573.795 565.674 573.659 566.224 573.659 566.842C573.659 567.459 573.795 568.01 574.065 568.494C574.336 568.978 574.709 569.356 575.183 569.626C575.658 569.897 576.19 570.032 576.779 570.032ZM588.344 564.049C589.056 564.049 589.704 564.213 590.288 564.541C590.872 564.868 591.33 565.329 591.663 565.922C591.995 566.516 592.161 567.207 592.161 567.995C592.161 568.783 591.995 569.474 591.663 570.067C591.33 570.661 590.872 571.121 590.288 571.449C589.704 571.776 589.056 571.94 588.344 571.94C587.366 571.94 586.597 571.632 586.037 571.014V574.589H583.815V564.163H585.937V565.046C586.488 564.382 587.29 564.049 588.344 564.049ZM587.96 570.117C588.53 570.117 588.997 569.924 589.363 569.54C589.728 569.155 589.911 568.64 589.911 567.994C589.911 567.349 589.728 566.834 589.363 566.449C588.997 566.064 588.53 565.872 587.96 565.872C587.39 565.872 586.923 566.064 586.557 566.449C586.191 566.834 586.009 567.349 586.009 567.994C586.009 568.64 586.191 569.155 586.557 569.54C586.923 569.924 587.39 570.117 587.96 570.117ZM598.586 571.457C598.367 571.618 598.099 571.739 597.781 571.82C597.463 571.901 597.128 571.941 596.777 571.941C595.865 571.941 595.16 571.708 594.662 571.243C594.163 570.778 593.914 570.094 593.914 569.192V566.044H592.732V564.335H593.914V562.469H596.136V564.335H598.044V566.044H596.136V569.163C596.136 569.486 596.219 569.736 596.385 569.911C596.551 570.087 596.786 570.175 597.09 570.175C597.441 570.175 597.741 570.08 597.987 569.89L598.586 571.457ZM599.838 564.163H602.06V571.826H599.838V564.163ZM600.952 563.096C600.544 563.096 600.212 562.977 599.955 562.739C599.699 562.502 599.571 562.208 599.571 561.856C599.571 561.505 599.699 561.211 599.955 560.973C600.212 560.736 600.544 560.617 600.952 560.617C601.36 560.617 601.693 560.731 601.949 560.959C602.206 561.187 602.334 561.472 602.334 561.814C602.334 562.184 602.206 562.49 601.949 562.732C601.693 562.974 601.36 563.096 600.952 563.096ZM613.939 564.049C614.898 564.049 615.66 564.332 616.225 564.897C616.79 565.462 617.072 566.309 617.072 567.439V571.826H614.85V567.781C614.85 567.173 614.724 566.72 614.473 566.421C614.221 566.122 613.863 565.972 613.397 565.972C612.875 565.972 612.462 566.141 612.158 566.478C611.854 566.815 611.703 567.316 611.703 567.98V571.826H609.481V567.781C609.481 566.575 608.996 565.972 608.028 565.972C607.515 565.972 607.107 566.141 606.803 566.478C606.499 566.815 606.347 567.316 606.347 567.98V571.826H604.125V564.163H606.247V565.046C606.532 564.724 606.881 564.477 607.294 564.306C607.707 564.135 608.161 564.049 608.654 564.049C609.196 564.049 609.685 564.156 610.121 564.37C610.558 564.583 610.91 564.894 611.176 565.303C611.489 564.904 611.885 564.595 612.365 564.377C612.844 564.159 613.369 564.049 613.939 564.049ZM619.066 564.163H621.288V571.826H619.066V564.163ZM620.18 563.096C619.772 563.096 619.439 562.977 619.183 562.739C618.927 562.502 618.799 562.208 618.799 561.856C618.799 561.505 618.927 561.211 619.183 560.973C619.439 560.736 619.772 560.617 620.18 560.617C620.588 560.617 620.921 560.731 621.177 560.959C621.434 561.187 621.562 561.472 621.562 561.814C621.562 562.184 621.434 562.49 621.177 562.732C620.921 562.974 620.588 563.096 620.18 563.096ZM629.665 570.117V571.826H622.828V570.487L626.731 565.873H622.928V564.163H629.537V565.502L625.634 570.117H629.665ZM634.179 564.049C635.366 564.049 636.278 564.332 636.914 564.897C637.55 565.462 637.869 566.314 637.869 567.453V571.826H635.789V570.872C635.371 571.584 634.593 571.94 633.453 571.94C632.864 571.94 632.354 571.84 631.922 571.641C631.49 571.442 631.16 571.166 630.932 570.815C630.704 570.464 630.59 570.065 630.59 569.618C630.59 568.906 630.858 568.346 631.395 567.938C631.931 567.529 632.76 567.325 633.88 567.325H635.647C635.647 566.841 635.499 566.468 635.205 566.207C634.911 565.946 634.469 565.816 633.88 565.816C633.472 565.816 633.071 565.88 632.677 566.008C632.283 566.136 631.948 566.309 631.673 566.528L630.875 564.975C631.293 564.681 631.794 564.453 632.378 564.291C632.962 564.13 633.562 564.049 634.179 564.049ZM634.009 570.445C634.388 570.445 634.725 570.357 635.02 570.182C635.314 570.006 635.523 569.747 635.647 569.405V568.622H634.123C633.211 568.622 632.755 568.921 632.755 569.519C632.755 569.804 632.867 570.03 633.09 570.196C633.313 570.362 633.619 570.445 634.009 570.445ZM644.822 571.457C644.603 571.618 644.335 571.739 644.017 571.82C643.699 571.901 643.364 571.941 643.013 571.941C642.101 571.941 641.396 571.708 640.898 571.243C640.399 570.778 640.15 570.094 640.15 569.192V566.044H638.968V564.335H640.15V562.469H642.372V564.335H644.281V566.044H642.372V569.163C642.372 569.486 642.455 569.736 642.621 569.911C642.787 570.087 643.022 570.175 643.326 570.175C643.678 570.175 643.977 570.08 644.224 569.89L644.822 571.457ZM646.075 564.163H648.297V571.826H646.075V564.163ZM647.185 563.096C646.776 563.096 646.444 562.977 646.188 562.739C645.931 562.502 645.803 562.208 645.803 561.856C645.803 561.505 645.931 561.211 646.188 560.973C646.444 560.736 646.776 560.617 647.185 560.617C647.593 560.617 647.925 560.731 648.182 560.959C648.438 561.187 648.566 561.472 648.566 561.814C648.566 562.184 648.438 562.49 648.182 562.732C647.925 562.974 647.593 563.096 647.185 563.096ZM654.009 571.94C653.202 571.94 652.478 571.772 651.837 571.435C651.196 571.097 650.695 570.63 650.334 570.032C649.973 569.433 649.793 568.754 649.793 567.995C649.793 567.235 649.973 566.556 650.334 565.958C650.695 565.36 651.196 564.892 651.837 564.555C652.478 564.218 653.202 564.049 654.009 564.049C654.816 564.049 655.538 564.218 656.174 564.555C656.81 564.892 657.309 565.36 657.669 565.958C658.03 566.556 658.211 567.235 658.211 567.995C658.211 568.754 658.03 569.433 657.669 570.032C657.309 570.63 656.81 571.097 656.174 571.435C655.538 571.772 654.816 571.94 654.009 571.94ZM654.007 570.117C654.576 570.117 655.044 569.924 655.41 569.54C655.775 569.155 655.958 568.64 655.958 567.994C655.958 567.349 655.775 566.834 655.41 566.449C655.044 566.064 654.576 565.872 654.007 565.872C653.437 565.872 652.967 566.064 652.597 566.449C652.226 566.834 652.041 567.349 652.041 567.994C652.041 568.64 652.226 569.155 652.597 569.54C652.967 569.924 653.437 570.117 654.007 570.117ZM664.349 564.049C665.298 564.049 666.065 564.334 666.649 564.904C667.233 565.474 667.525 566.319 667.525 567.439V571.826H665.303V567.781C665.303 567.173 665.17 566.72 664.904 566.421C664.638 566.122 664.254 565.972 663.75 565.972C663.19 565.972 662.744 566.145 662.411 566.492C662.079 566.839 661.913 567.354 661.913 568.037V571.826H659.691V564.163H661.813V565.061C662.108 564.738 662.473 564.488 662.91 564.313C663.347 564.137 663.826 564.049 664.349 564.049Z" fill="white"/>
<path opacity="0.2" fill-rule="evenodd" clip-rule="evenodd" d="M619.638 550.091C650.121 550.091 674.831 525.38 674.831 494.898C674.831 464.416 650.121 439.705 619.638 439.705C589.156 439.705 564.445 464.416 564.445 494.898C564.445 525.38 589.156 550.091 619.638 550.091Z" fill="white"/>
<path opacity="0.4" fill-rule="evenodd" clip-rule="evenodd" d="M619.639 535.162C641.876 535.162 659.903 517.136 659.903 494.899C659.903 472.661 641.876 454.635 619.639 454.635C597.402 454.635 579.375 472.661 579.375 494.899C579.375 517.136 597.402 535.162 619.639 535.162Z" fill="white"/>
<path fill-rule="evenodd" clip-rule="evenodd" d="M619.638 518.423C632.631 518.423 643.163 507.89 643.163 494.898C643.163 481.906 632.631 471.373 619.638 471.373C606.646 471.373 596.113 481.906 596.113 494.898C596.113 507.89 606.646 518.423 619.638 518.423Z" fill="white"/>
<path opacity="0.2" fill-rule="evenodd" clip-rule="evenodd" d="M1055.81 559.626C1078.91 559.626 1097.63 540.906 1097.63 517.813C1097.63 494.72 1078.91 476 1055.81 476C1032.72 476 1014 494.72 1014 517.813C1014 540.906 1032.72 559.626 1055.81 559.626Z" fill="white"/>
<path opacity="0.4" fill-rule="evenodd" clip-rule="evenodd" d="M1055.81 548.316C1072.66 548.316 1086.31 534.66 1086.31 517.813C1086.31 500.967 1072.66 487.311 1055.81 487.311C1038.97 487.311 1025.31 500.967 1025.31 517.813C1025.31 534.66 1038.97 548.316 1055.81 548.316Z" fill="white"/>
<path fill-rule="evenodd" clip-rule="evenodd" d="M1055.81 535.634C1065.66 535.634 1073.64 527.655 1073.64 517.812C1073.64 507.969 1065.66 499.99 1055.81 499.99C1045.97 499.99 1037.99 507.969 1037.99 517.812C1037.99 527.655 1045.97 535.634 1055.81 535.634Z" fill="white"/>
<path fill-rule="evenodd" clip-rule="evenodd" d="M1038.8 575.303C1038.01 575.303 1037.29 575.131 1036.65 574.786C1036.01 574.441 1035.5 573.963 1035.14 573.351C1034.77 572.74 1034.59 572.048 1034.59 571.277C1034.59 570.506 1034.77 569.815 1035.14 569.203C1035.5 568.591 1036.01 568.113 1036.65 567.768C1037.29 567.423 1038.01 567.251 1038.81 567.251C1039.49 567.251 1040.1 567.37 1040.64 567.607C1041.19 567.844 1041.64 568.185 1042.02 568.63L1040.86 569.698C1040.33 569.09 1039.68 568.786 1038.9 568.786C1038.42 568.786 1037.99 568.892 1037.61 569.103C1037.23 569.314 1036.94 569.609 1036.73 569.987C1036.52 570.365 1036.41 570.795 1036.41 571.277C1036.41 571.759 1036.52 572.189 1036.73 572.567C1036.94 572.945 1037.23 573.24 1037.61 573.451C1037.99 573.663 1038.42 573.768 1038.9 573.768C1039.68 573.768 1040.33 573.461 1040.86 572.845L1042.02 573.913C1041.64 574.365 1041.18 574.71 1040.64 574.947C1040.09 575.185 1039.48 575.303 1038.8 575.303ZM1045.84 575.259C1045.21 575.259 1044.64 575.127 1044.14 574.864C1043.64 574.601 1043.25 574.236 1042.97 573.769C1042.69 573.302 1042.55 572.771 1042.55 572.178C1042.55 571.585 1042.69 571.055 1042.97 570.588C1043.25 570.121 1043.64 569.755 1044.14 569.492C1044.64 569.229 1045.21 569.097 1045.84 569.097C1046.47 569.097 1047.03 569.229 1047.53 569.492C1048.03 569.755 1048.42 570.121 1048.7 570.588C1048.98 571.055 1049.12 571.585 1049.12 572.178C1049.12 572.771 1048.98 573.302 1048.7 573.769C1048.42 574.236 1048.03 574.601 1047.53 574.864C1047.03 575.127 1046.47 575.259 1045.84 575.259ZM1045.84 573.836C1046.29 573.836 1046.65 573.686 1046.94 573.386C1047.22 573.086 1047.37 572.683 1047.37 572.179C1047.37 571.675 1047.22 571.273 1046.94 570.973C1046.65 570.672 1046.29 570.522 1045.84 570.522C1045.4 570.522 1045.03 570.672 1044.74 570.973C1044.45 571.273 1044.31 571.675 1044.31 572.179C1044.31 572.683 1044.45 573.086 1044.74 573.386C1045.03 573.686 1045.4 573.836 1045.84 573.836ZM1054.01 569.097C1054.76 569.097 1055.36 569.32 1055.81 569.765C1056.27 570.21 1056.5 570.87 1056.5 571.744V575.17H1054.76V572.011C1054.76 571.537 1054.66 571.183 1054.45 570.949C1054.24 570.716 1053.94 570.599 1053.55 570.599C1053.11 570.599 1052.76 570.734 1052.5 571.005C1052.24 571.275 1052.11 571.678 1052.11 572.212V575.17H1050.38V569.186H1052.04V569.887C1052.27 569.635 1052.55 569.44 1052.89 569.303C1053.23 569.166 1053.61 569.097 1054.01 569.097ZM1062.02 574.881C1061.85 575.007 1061.64 575.101 1061.39 575.164C1061.14 575.227 1060.88 575.259 1060.61 575.259C1059.9 575.259 1059.35 575.077 1058.96 574.714C1058.57 574.351 1058.37 573.817 1058.37 573.112V570.654H1057.45V569.32H1058.37V567.863H1060.11V569.32H1061.6V570.654H1060.11V573.09C1060.11 573.342 1060.17 573.537 1060.3 573.674C1060.43 573.811 1060.61 573.88 1060.85 573.88C1061.13 573.88 1061.36 573.806 1061.55 573.657L1062.02 574.881ZM1064.76 569.976C1064.96 569.687 1065.24 569.468 1065.6 569.32C1065.95 569.172 1066.36 569.097 1066.81 569.097V570.699C1066.62 570.684 1066.49 570.677 1066.43 570.677C1065.93 570.677 1065.54 570.816 1065.26 571.094C1064.98 571.372 1064.84 571.789 1064.84 572.345V575.17H1063.1V569.186H1064.76V569.976ZM1070.74 575.259C1070.11 575.259 1069.54 575.127 1069.04 574.864C1068.54 574.601 1068.15 574.236 1067.87 573.769C1067.59 573.302 1067.45 572.771 1067.45 572.178C1067.45 571.585 1067.59 571.055 1067.87 570.588C1068.15 570.121 1068.54 569.755 1069.04 569.492C1069.54 569.229 1070.11 569.097 1070.74 569.097C1071.37 569.097 1071.93 569.229 1072.43 569.492C1072.93 569.755 1073.32 570.121 1073.6 570.588C1073.88 571.055 1074.02 571.585 1074.02 572.178C1074.02 572.771 1073.88 573.302 1073.6 573.769C1073.32 574.236 1072.93 574.601 1072.43 574.864C1071.93 575.127 1071.37 575.259 1070.74 575.259ZM1070.74 573.836C1071.18 573.836 1071.55 573.686 1071.83 573.386C1072.12 573.086 1072.26 572.683 1072.26 572.179C1072.26 571.675 1072.12 571.273 1071.83 570.973C1071.55 570.672 1071.18 570.522 1070.74 570.522C1070.29 570.522 1069.93 570.672 1069.64 570.973C1069.35 571.273 1069.2 571.675 1069.2 572.179C1069.2 572.683 1069.35 573.086 1069.64 573.386C1069.93 573.686 1070.29 573.836 1070.74 573.836ZM1075.28 566.918H1077.01V575.17H1075.28V566.918Z" fill="white"/>
<path fill-rule="evenodd" clip-rule="evenodd" d="M933.961 176.886C933.191 176.886 932.495 176.719 931.873 176.385C931.25 176.05 930.761 175.586 930.405 174.993C930.049 174.399 929.871 173.728 929.871 172.98C929.871 172.232 930.049 171.561 930.405 170.968C930.761 170.374 931.25 169.91 931.873 169.576C932.495 169.241 933.195 169.074 933.971 169.074C934.626 169.074 935.218 169.189 935.746 169.419C936.275 169.65 936.719 169.98 937.079 170.412L935.957 171.448C935.446 170.858 934.813 170.563 934.058 170.563C933.59 170.563 933.173 170.666 932.806 170.871C932.439 171.076 932.153 171.362 931.948 171.728C931.743 172.095 931.641 172.513 931.641 172.98C931.641 173.448 931.743 173.865 931.948 174.232C932.153 174.599 932.439 174.885 932.806 175.09C933.173 175.295 933.59 175.397 934.058 175.397C934.813 175.397 935.446 175.099 935.957 174.502L937.079 175.537C936.719 175.976 936.273 176.311 935.741 176.541C935.209 176.771 934.615 176.886 933.961 176.886ZM941.665 170.865C942.384 170.865 942.965 171.081 943.408 171.512C943.85 171.944 944.071 172.584 944.071 173.433V176.757H942.388V173.692C942.388 173.232 942.287 172.888 942.086 172.662C941.884 172.435 941.593 172.322 941.212 172.322C940.787 172.322 940.449 172.453 940.197 172.715C939.946 172.978 939.82 173.368 939.82 173.886V176.757H938.136V168.75H939.82V171.556C940.043 171.333 940.313 171.162 940.629 171.043C940.946 170.924 941.291 170.865 941.665 170.865ZM947.934 170.864C948.833 170.864 949.523 171.078 950.005 171.506C950.487 171.934 950.728 172.58 950.728 173.443V176.756H949.153V176.033C948.836 176.572 948.246 176.842 947.383 176.842C946.937 176.842 946.551 176.767 946.223 176.616C945.896 176.465 945.646 176.256 945.473 175.99C945.301 175.724 945.214 175.421 945.214 175.083C945.214 174.544 945.418 174.119 945.824 173.81C946.23 173.501 946.858 173.346 947.707 173.346H949.045C949.045 172.979 948.933 172.697 948.71 172.499C948.487 172.301 948.153 172.202 947.707 172.202C947.398 172.202 947.094 172.251 946.795 172.348C946.497 172.445 946.243 172.576 946.034 172.742L945.43 171.566C945.747 171.343 946.126 171.17 946.569 171.048C947.011 170.925 947.466 170.864 947.934 170.864ZM947.804 175.71C948.092 175.71 948.347 175.644 948.57 175.511C948.793 175.378 948.951 175.181 949.045 174.923V174.329H947.89C947.2 174.329 946.854 174.556 946.854 175.009C946.854 175.225 946.939 175.395 947.108 175.521C947.277 175.647 947.509 175.71 947.804 175.71ZM955.777 170.864C956.497 170.864 957.078 171.08 957.52 171.512C957.962 171.943 958.184 172.584 958.184 173.432V176.756H956.5V173.691C956.5 173.231 956.4 172.888 956.198 172.661C955.997 172.434 955.705 172.321 955.324 172.321C954.9 172.321 954.562 172.452 954.31 172.715C954.058 172.977 953.932 173.368 953.932 173.886V176.756H952.249V170.951H953.857V171.63C954.08 171.386 954.357 171.197 954.687 171.064C955.018 170.931 955.382 170.864 955.777 170.864ZM963.235 170.864C963.955 170.864 964.536 171.08 964.978 171.512C965.42 171.943 965.642 172.584 965.642 173.432V176.756H963.958V173.691C963.958 173.231 963.858 172.888 963.656 172.661C963.455 172.434 963.163 172.321 962.782 172.321C962.358 172.321 962.02 172.452 961.768 172.715C961.516 172.977 961.39 173.368 961.39 173.886V176.756H959.707V170.951H961.315V171.63C961.538 171.386 961.815 171.197 962.145 171.064C962.476 170.931 962.84 170.864 963.235 170.864ZM972.849 173.875C972.849 173.896 972.838 174.047 972.816 174.328H968.424C968.504 174.688 968.691 174.972 968.986 175.18C969.281 175.389 969.647 175.493 970.086 175.493C970.388 175.493 970.656 175.448 970.89 175.359C971.124 175.269 971.341 175.127 971.543 174.932L972.439 175.903C971.892 176.529 971.093 176.842 970.043 176.842C969.388 176.842 968.809 176.715 968.306 176.459C967.802 176.204 967.414 175.849 967.14 175.396C966.867 174.943 966.73 174.429 966.73 173.853C966.73 173.285 966.865 172.772 967.135 172.316C967.405 171.859 967.775 171.503 968.246 171.247C968.718 170.992 969.245 170.864 969.827 170.864C970.396 170.864 970.91 170.987 971.37 171.231C971.831 171.476 972.192 171.826 972.455 172.283C972.717 172.74 972.849 173.271 972.849 173.875ZM969.838 172.139C969.457 172.139 969.137 172.247 968.878 172.462C968.619 172.678 968.461 172.973 968.403 173.347H971.262C971.205 172.98 971.047 172.687 970.788 172.468C970.529 172.248 970.212 172.139 969.838 172.139ZM973.971 168.75H975.654V176.757H973.971V168.75ZM979.172 176.842C978.69 176.842 978.219 176.783 977.758 176.664C977.298 176.545 976.931 176.396 976.658 176.216L977.219 175.008C977.478 175.173 977.791 175.308 978.157 175.412C978.524 175.517 978.884 175.569 979.236 175.569C979.949 175.569 980.305 175.393 980.305 175.04C980.305 174.875 980.208 174.756 980.013 174.684C979.819 174.612 979.521 174.551 979.118 174.501C978.643 174.429 978.251 174.346 977.942 174.253C977.632 174.159 977.364 173.994 977.138 173.756C976.911 173.519 976.798 173.181 976.798 172.742C976.798 172.375 976.904 172.049 977.116 171.765C977.328 171.481 977.638 171.26 978.044 171.102C978.451 170.943 978.931 170.864 979.485 170.864C979.895 170.864 980.303 170.909 980.709 170.999C981.116 171.089 981.452 171.213 981.718 171.371L981.157 172.569C980.646 172.281 980.089 172.138 979.485 172.138C979.125 172.138 978.855 172.188 978.675 172.289C978.495 172.389 978.406 172.519 978.406 172.677C978.406 172.857 978.503 172.983 978.697 173.055C978.891 173.127 979.2 173.195 979.625 173.26C980.1 173.339 980.488 173.423 980.79 173.513C981.092 173.603 981.355 173.767 981.578 174.004C981.801 174.242 981.912 174.573 981.912 174.997C981.912 175.357 981.805 175.677 981.589 175.957C981.373 176.238 981.058 176.456 980.645 176.61C980.231 176.765 979.74 176.842 979.172 176.842Z" fill="white"/>
<path opacity="0.2" fill-rule="evenodd" clip-rule="evenodd" d="M955.813 160.626C978.906 160.626 997.626 141.906 997.626 118.813C997.626 95.7203 978.906 77 955.813 77C932.72 77 914 95.7203 914 118.813C914 141.906 932.72 160.626 955.813 160.626Z" fill="white"/>
<path opacity="0.4" fill-rule="evenodd" clip-rule="evenodd" d="M955.811 149.316C972.658 149.316 986.314 135.66 986.314 118.813C986.314 101.967 972.658 88.3105 955.811 88.3105C938.965 88.3105 925.309 101.967 925.309 118.813C925.309 135.66 938.965 149.316 955.811 149.316Z" fill="white"/>
<path fill-rule="evenodd" clip-rule="evenodd" d="M955.814 136.634C965.657 136.634 973.636 128.655 973.636 118.812C973.636 108.969 965.657 100.99 955.814 100.99C945.971 100.99 937.992 108.969 937.992 118.812C937.992 128.655 945.971 136.634 955.814 136.634Z" fill="white"/>
<path opacity="0.7" d="M327.5 340.5C366 282 419 197.548 637.5 387.5C715.714 455.495 807 459.519 840.5 421.019" stroke="url(#paint1_linear)" stroke-width="3"/>
<path opacity="0.7" d="M324.999 340C321.165 280 428 201.671 537.506 221.5C659.006 243.5 674.512 191.5 696.512 135" stroke="url(#paint2_linear)" stroke-width="3"/>
<path opacity="0.7" d="M324 342.5C330 268 458.5 210 582 260.5C683.514 302.01 850 407 955.5 116" stroke="url(#paint3_linear)" stroke-width="3"/>
<path opacity="0.7" d="M326 345.5C332.5 305 397.5 192.913 603.5 315C889.5 484.5 1065.17 246.834 1236.5 123.5" stroke="url(#paint4_linear)" stroke-width="3"/>
<path opacity="0.7" d="M326.5 340.501C345 300 456.458 224.001 512.987 353.507C662.486 696.001 1013.49 529 1288.49 448.511" stroke="url(#paint5_linear)" stroke-width="3"/>
<defs>
<linearGradient id="paint0_linear" x1="-720" y1="325" x2="-232.52" y2="1404.96" gradientUnits="userSpaceOnUse">
<stop stop-color="#17E9B5"/>
<stop offset="1" stop-color="#A024EA"/>
</linearGradient>
<linearGradient id="paint1_linear" x1="348.5" y1="450.252" x2="840.5" y2="450.252" gradientUnits="userSpaceOnUse">
<stop stop-color="white" stop-opacity="0.01"/>
<stop offset="0.510996" stop-color="white"/>
<stop offset="1" stop-color="white" stop-opacity="0.01"/>
</linearGradient>
<linearGradient id="paint2_linear" x1="348.887" y1="319.5" x2="696.502" y2="319.5" gradientUnits="userSpaceOnUse">
<stop stop-color="white" stop-opacity="0.01"/>
<stop offset="0.510996" stop-color="white"/>
<stop offset="1" stop-color="white" stop-opacity="0.01"/>
</linearGradient>
<linearGradient id="paint3_linear" x1="349.5" y1="317" x2="955.5" y2="317" gradientUnits="userSpaceOnUse">
<stop stop-color="white" stop-opacity="0.01"/>
<stop offset="0.510996" stop-color="white"/>
<stop offset="1" stop-color="white" stop-opacity="0.01"/>
</linearGradient>
<linearGradient id="paint4_linear" x1="349.5" y1="385.595" x2="1236.5" y2="385.595" gradientUnits="userSpaceOnUse">
<stop stop-color="white" stop-opacity="0.01"/>
<stop offset="0.510996" stop-color="white"/>
<stop offset="1" stop-color="white" stop-opacity="0.01"/>
</linearGradient>
<linearGradient id="paint5_linear" x1="350.594" y1="560.733" x2="1288.5" y2="560.733" gradientUnits="userSpaceOnUse">
<stop stop-color="white" stop-opacity="0.01"/>
<stop offset="0.510996" stop-color="white"/>
<stop offset="1" stop-color="white" stop-opacity="0.01"/>
</linearGradient>
</defs>
</svg>
