<svg width="32" height="32" viewBox="0 0 32 32" fill="none" xmlns="http://www.w3.org/2000/svg">
<path opacity="0.2" fill-rule="evenodd" clip-rule="evenodd" d="M16 32C24.8366 32 32 24.8366 32 16C32 7.16344 24.8366 0 16 0C7.16344 0 0 7.16344 0 16C0 24.8366 7.16344 32 16 32Z" fill="#740B99"/>
<path opacity="0.4" fill-rule="evenodd" clip-rule="evenodd" d="M16.0003 27.6724C22.4466 27.6724 27.6724 22.4466 27.6724 16.0003C27.6724 9.55392 22.4466 4.32812 16.0003 4.32812C9.55392 4.32812 4.32812 9.55392 4.32812 16.0003C4.32812 22.4466 9.55392 27.6724 16.0003 27.6724Z" fill="#740B99"/>
<path fill-rule="evenodd" clip-rule="evenodd" d="M15.9994 22.819C19.7658 22.819 22.819 19.7658 22.819 15.9994C22.819 12.233 19.7658 9.17969 15.9994 9.17969C12.233 9.17969 9.17969 12.233 9.17969 15.9994C9.17969 19.7658 12.233 22.819 15.9994 22.819Z" fill="#740B99"/>
</svg>
