<svg width="91" height="123" viewBox="0 0 91 123" fill="none" xmlns="http://www.w3.org/2000/svg">
<path d="M10.5339 100.568H15.7209C16.9866 100.568 18.1111 100.816 19.0942 101.313C20.0774 101.799 20.8402 102.494 21.3827 103.398C21.9251 104.291 22.1963 105.325 22.1963 106.5C22.1963 107.676 21.9251 108.715 21.3827 109.62C20.8402 110.512 20.0774 111.207 19.0942 111.705C18.1111 112.19 16.9866 112.433 15.7209 112.433H10.5339V100.568ZM15.6192 110.569C16.4894 110.569 17.2522 110.405 17.9077 110.077C18.5744 109.738 19.0829 109.264 19.4333 108.653C19.7949 108.032 19.9757 107.314 19.9757 106.5C19.9757 105.687 19.7949 104.975 19.4333 104.365C19.0829 103.743 18.5744 103.268 17.9077 102.941C17.2522 102.602 16.4894 102.432 15.6192 102.432H12.7375V110.569H15.6192ZM32.8446 107.958C32.8446 108.105 32.8333 108.314 32.8107 108.585H25.7081C25.8324 109.252 26.1545 109.783 26.6743 110.179C27.2055 110.563 27.8609 110.755 28.6407 110.755C29.6351 110.755 30.4545 110.428 31.0986 109.772L32.2343 111.077C31.8275 111.563 31.3133 111.931 30.6918 112.179C30.0702 112.428 29.3696 112.552 28.5898 112.552C27.5954 112.552 26.7195 112.354 25.9624 111.959C25.2052 111.563 24.6176 111.015 24.1995 110.315C23.7926 109.603 23.5892 108.8 23.5892 107.907C23.5892 107.026 23.787 106.235 24.1825 105.534C24.5893 104.822 25.1487 104.269 25.8607 103.873C26.5726 103.478 27.375 103.28 28.2678 103.28C29.1492 103.28 29.9346 103.478 30.624 103.873C31.3246 104.257 31.8671 104.805 32.2513 105.517C32.6468 106.218 32.8446 107.032 32.8446 107.958ZM28.2678 104.975C27.5897 104.975 27.0134 105.178 26.5387 105.585C26.0754 105.981 25.7929 106.512 25.6912 107.179H30.8274C30.737 106.523 30.4601 105.992 29.9968 105.585C29.5334 105.178 28.9571 104.975 28.2678 104.975ZM37.6769 112.552C36.9423 112.552 36.2247 112.456 35.5241 112.264C34.8234 112.072 34.264 111.829 33.8459 111.535L34.6595 109.925C35.0664 110.196 35.5523 110.416 36.1174 110.586C36.6937 110.744 37.2587 110.823 37.8125 110.823C39.0782 110.823 39.711 110.49 39.711 109.823C39.711 109.507 39.5471 109.286 39.2194 109.162C38.903 109.038 38.3888 108.919 37.6769 108.806C36.931 108.693 36.3208 108.563 35.8461 108.416C35.3828 108.269 34.976 108.015 34.6256 107.653C34.2866 107.28 34.1171 106.766 34.1171 106.111C34.1171 105.252 34.4731 104.568 35.185 104.06C35.9083 103.54 36.8802 103.28 38.1006 103.28C38.7222 103.28 39.3437 103.353 39.9653 103.5C40.5868 103.636 41.0954 103.822 41.4909 104.06L40.6772 105.67C39.9088 105.218 39.0443 104.992 38.0837 104.992C37.4621 104.992 36.9875 105.088 36.6598 105.28C36.3434 105.461 36.1852 105.704 36.1852 106.009C36.1852 106.348 36.3547 106.591 36.6937 106.738C37.044 106.873 37.5808 107.003 38.3041 107.128C39.0273 107.241 39.6206 107.371 40.0839 107.518C40.5473 107.664 40.9428 107.913 41.2705 108.263C41.6095 108.614 41.7791 109.111 41.7791 109.755C41.7791 110.603 41.4118 111.281 40.6772 111.789C39.9427 112.298 38.9426 112.552 37.6769 112.552ZM47.2992 108.552L45.7227 110.043V112.433H43.6038V99.8556H45.7227V107.45L50.1131 103.381H52.6558L48.8756 107.179L53.0117 112.433H50.4352L47.2992 108.552ZM59.8218 111.942C59.5731 112.145 59.268 112.298 58.9064 112.4C58.5561 112.501 58.1831 112.552 57.7876 112.552C56.7931 112.552 56.0247 112.292 55.4822 111.772C54.9398 111.252 54.6686 110.495 54.6686 109.501V105.144H53.1769V103.449H54.6686V101.381H56.7875V103.449H59.2115V105.144H56.7875V109.45C56.7875 109.891 56.8948 110.23 57.1096 110.467C57.3243 110.693 57.635 110.806 58.0419 110.806C58.5165 110.806 58.912 110.682 59.2285 110.433L59.8218 111.942ZM65.3351 112.552C64.4198 112.552 63.5948 112.354 62.8603 111.959C62.1257 111.563 61.5494 111.015 61.1312 110.315C60.7244 109.603 60.521 108.8 60.521 107.907C60.521 107.015 60.7244 106.218 61.1312 105.517C61.5494 104.817 62.1257 104.269 62.8603 103.873C63.5948 103.478 64.4198 103.28 65.3351 103.28C66.2618 103.28 67.0924 103.478 67.827 103.873C68.5615 104.269 69.1322 104.817 69.539 105.517C69.9572 106.218 70.1662 107.015 70.1662 107.907C70.1662 108.8 69.9572 109.603 69.539 110.315C69.1322 111.015 68.5615 111.563 67.827 111.959C67.0924 112.354 66.2618 112.552 65.3351 112.552ZM65.3351 110.738C66.1149 110.738 66.759 110.478 67.2676 109.959C67.7761 109.439 68.0304 108.755 68.0304 107.907C68.0304 107.06 67.7761 106.376 67.2676 105.856C66.759 105.337 66.1149 105.077 65.3351 105.077C64.5554 105.077 63.9112 105.337 63.4027 105.856C62.9055 106.376 62.6568 107.06 62.6568 107.907C62.6568 108.755 62.9055 109.439 63.4027 109.959C63.9112 110.478 64.5554 110.738 65.3351 110.738ZM77.21 103.28C78.0914 103.28 78.8768 103.472 79.5662 103.856C80.2668 104.24 80.8149 104.783 81.2105 105.483C81.606 106.184 81.8038 106.992 81.8038 107.907C81.8038 108.823 81.606 109.636 81.2105 110.348C80.8149 111.049 80.2668 111.592 79.5662 111.976C78.8768 112.36 78.0914 112.552 77.21 112.552C75.9895 112.552 75.0233 112.145 74.3113 111.332V115.722H72.1924V103.381H74.2096V104.568C74.5599 104.139 74.9894 103.817 75.4979 103.602C76.0177 103.387 76.5884 103.28 77.21 103.28ZM76.9727 110.738C77.7524 110.738 78.3909 110.478 78.8881 109.959C79.3967 109.439 79.6509 108.755 79.6509 107.907C79.6509 107.06 79.3967 106.376 78.8881 105.856C78.3909 105.337 77.7524 105.077 76.9727 105.077C76.4641 105.077 76.0064 105.195 75.5996 105.433C75.1928 105.659 74.8707 105.986 74.6334 106.416C74.3961 106.845 74.2774 107.342 74.2774 107.907C74.2774 108.472 74.3961 108.97 74.6334 109.399C74.8707 109.829 75.1928 110.162 75.5996 110.399C76.0064 110.625 76.4641 110.738 76.9727 110.738Z" fill="white"/>
<path fill-rule="evenodd" clip-rule="evenodd" d="M31.9294 0H89.544C90.1048 0 90.5253 0.560731 90.5253 1.12146V45.9796V48.2225V57.4745V57.6147V57.7548C90.5253 58.3156 90.1048 58.7361 89.544 58.7361L50.2932 58.4558V71.4927H70.8999C71.4606 71.4927 71.8811 71.9132 71.8811 72.4739C71.8811 73.0347 71.4606 73.4552 70.8999 73.4552H20.7148C20.1541 73.4552 19.7336 73.0347 19.7336 72.4739C19.7336 71.9132 20.1541 71.4927 20.7148 71.4927H41.3216V64.2032C41.3216 63.6425 41.7421 63.2219 42.3028 63.2219C42.8635 63.2219 43.2841 63.6425 43.2841 64.2032V71.4927H48.1905V58.4558H1.93051C1.36978 58.4558 0.949219 58.0352 0.949219 57.4745V35.1856V34.7651V0.981268C0.949219 0.420541 1.36978 0 1.93051 0H31.9294ZM88.5304 1.88347H2.83269V56.504H88.5304V1.88347Z" fill="white"/>
<rect x="2.83276" y="50.8536" width="85.6977" height="1.88347" fill="white"/>
</svg>
