<svg width="60" height="119" viewBox="0 0 60 119" fill="none" xmlns="http://www.w3.org/2000/svg">
<path d="M12.6172 108.521L12.6002 100.656L8.70146 107.165H7.71829L3.81952 100.758V108.521H1.71757V96.6555H3.53134L8.24378 104.521L12.8715 96.6555H14.6852L14.7022 108.521H12.6172ZM21.7722 108.64C20.8568 108.64 20.0318 108.442 19.2973 108.047C18.5627 107.651 17.9864 107.103 17.5683 106.402C17.1614 105.691 16.958 104.888 16.958 103.995C16.958 103.103 17.1614 102.306 17.5683 101.605C17.9864 100.905 18.5627 100.357 19.2973 99.961C20.0318 99.5655 20.8568 99.3677 21.7722 99.3677C22.6988 99.3677 23.5294 99.5655 24.264 99.961C24.9985 100.357 25.5692 100.905 25.9761 101.605C26.3942 102.306 26.6033 103.103 26.6033 103.995C26.6033 104.888 26.3942 105.691 25.9761 106.402C25.5692 107.103 24.9985 107.651 24.264 108.047C23.5294 108.442 22.6988 108.64 21.7722 108.64ZM21.7722 106.826C22.5519 106.826 23.1961 106.566 23.7046 106.046C24.2131 105.527 24.4674 104.843 24.4674 103.995C24.4674 103.148 24.2131 102.464 23.7046 101.944C23.1961 101.424 22.5519 101.165 21.7722 101.165C20.9924 101.165 20.3483 101.424 19.8397 101.944C19.3425 102.464 19.0939 103.148 19.0939 103.995C19.0939 104.843 19.3425 105.527 19.8397 106.046C20.3483 106.566 20.9924 106.826 21.7722 106.826ZM33.647 99.3677C34.5285 99.3677 35.3139 99.5598 36.0032 99.9441C36.7039 100.328 37.252 100.871 37.6475 101.571C38.043 102.272 38.2408 103.08 38.2408 103.995C38.2408 104.911 38.043 105.724 37.6475 106.436C37.252 107.137 36.7039 107.679 36.0032 108.064C35.3139 108.448 34.5285 108.64 33.647 108.64C33.0255 108.64 32.4548 108.533 31.9349 108.318C31.4264 108.103 30.997 107.781 30.6466 107.352V108.521H28.6295V95.9436H30.7484V100.571C31.11 100.176 31.5338 99.8762 32.0197 99.6728C32.5169 99.4694 33.0594 99.3677 33.647 99.3677ZM33.4097 106.826C34.1894 106.826 34.8279 106.566 35.3252 106.046C35.8337 105.527 36.088 104.843 36.088 103.995C36.088 103.148 35.8337 102.464 35.3252 101.944C34.8279 101.424 34.1894 101.165 33.4097 101.165C32.9012 101.165 32.4435 101.283 32.0366 101.521C31.6298 101.747 31.3077 102.074 31.0704 102.504C30.8331 102.933 30.7145 103.43 30.7145 103.995C30.7145 104.56 30.8331 105.058 31.0704 105.487C31.3077 105.917 31.6298 106.25 32.0366 106.487C32.4435 106.713 32.9012 106.826 33.4097 106.826ZM40.2503 99.4694H42.3692V108.521H40.2503V99.4694ZM41.3182 97.9777C40.934 97.9777 40.6119 97.8591 40.352 97.6217C40.0921 97.3731 39.9621 97.068 39.9621 96.7064C39.9621 96.3447 40.0921 96.0453 40.352 95.808C40.6119 95.5593 40.934 95.435 41.3182 95.435C41.7024 95.435 42.0245 95.5537 42.2844 95.791C42.5444 96.017 42.6743 96.3052 42.6743 96.6555C42.6743 97.0284 42.5444 97.3449 42.2844 97.6048C42.0358 97.8534 41.7138 97.9777 41.3182 97.9777ZM45.1503 95.9436H47.2692V108.521H45.1503V95.9436ZM58.5597 104.046C58.5597 104.193 58.5484 104.402 58.5258 104.673H51.4233C51.5476 105.34 51.8696 105.871 52.3895 106.267C52.9206 106.651 53.5761 106.843 54.3558 106.843C55.3503 106.843 56.1696 106.515 56.8137 105.86L57.9495 107.165C57.5426 107.651 57.0285 108.018 56.4069 108.267C55.7854 108.516 55.0847 108.64 54.305 108.64C53.3105 108.64 52.4347 108.442 51.6775 108.047C50.9204 107.651 50.3327 107.103 49.9146 106.402C49.5078 105.691 49.3044 104.888 49.3044 103.995C49.3044 103.114 49.5021 102.323 49.8977 101.622C50.3045 100.91 50.8639 100.357 51.5758 99.961C52.2878 99.5655 53.0901 99.3677 53.9829 99.3677C54.8644 99.3677 55.6498 99.5655 56.3391 99.961C57.0398 100.345 57.5822 100.893 57.9664 101.605C58.362 102.306 58.5597 103.12 58.5597 104.046ZM53.9829 101.063C53.3048 101.063 52.7285 101.266 52.2539 101.673C51.7905 102.069 51.508 102.6 51.4063 103.266H56.5425C56.4521 102.611 56.1752 102.08 55.7119 101.673C55.2486 101.266 54.6722 101.063 53.9829 101.063Z" fill="white"/>
<path fill-rule="evenodd" clip-rule="evenodd" d="M42.4666 2.14937H16.6742C14.8936 2.14937 13.4501 3.59283 13.4501 5.37342V59.1076C13.4501 60.8882 14.8936 62.3317 16.6742 62.3317H42.4666C44.2472 62.3317 45.6907 60.8882 45.6907 59.1076V5.37342C45.6907 3.59283 44.2472 2.14937 42.4666 2.14937ZM16.6742 0C13.7065 0 11.3008 2.40576 11.3008 5.37342V59.1076C11.3008 62.0753 13.7065 64.481 16.6742 64.481H42.4666C45.4343 64.481 47.84 62.0753 47.84 59.1076V5.37342C47.84 2.40576 45.4343 0 42.4666 0H16.6742Z" fill="white"/>
<rect x="13.4504" y="6.50629" width="32.2405" height="2.14937" fill="white"/>
<rect x="13.4504" y="55.8775" width="32.2405" height="2.14937" fill="white"/>
<circle cx="29.5708" cy="60.1954" r="1.07468" fill="white"/>
</svg>
