<svg width="55" height="124" viewBox="0 0 55 124" fill="none" xmlns="http://www.w3.org/2000/svg">
<path d="M4.508 103.083H0.575322V101.219H10.6443V103.083H6.71166V113.084H4.508V103.083ZM15.0727 103.931C16.4062 103.931 17.4233 104.253 18.1239 104.897C18.8359 105.53 19.1918 106.49 19.1918 107.779V113.084H17.1916V111.983C16.9317 112.378 16.5588 112.683 16.0728 112.898C15.5982 113.101 15.0219 113.203 14.3438 113.203C13.6658 113.203 13.0725 113.09 12.5639 112.864C12.0554 112.627 11.6599 112.305 11.3773 111.898C11.1061 111.48 10.9705 111.011 10.9705 110.491C10.9705 109.677 11.27 109.027 11.8689 108.541C12.4792 108.044 13.4341 107.796 14.7337 107.796H17.0729V107.66C17.0729 107.027 16.8808 106.541 16.4966 106.202C16.1237 105.863 15.5643 105.694 14.8184 105.694C14.3099 105.694 13.807 105.773 13.3098 105.931C12.8238 106.089 12.4114 106.31 12.0723 106.592L11.2417 105.05C11.7164 104.688 12.2871 104.411 12.9538 104.219C13.6206 104.027 14.3269 103.931 15.0727 103.931ZM14.7845 111.661C15.3157 111.661 15.7847 111.542 16.1915 111.305C16.6096 111.056 16.9034 110.706 17.0729 110.254V109.203H14.8862C13.6658 109.203 13.0555 109.604 13.0555 110.406C13.0555 110.79 13.2081 111.095 13.5132 111.321C13.8183 111.548 14.2421 111.661 14.7845 111.661ZM26.9287 103.931C27.8102 103.931 28.5956 104.123 29.285 104.507C29.9856 104.891 30.5337 105.434 30.9292 106.134C31.3248 106.835 31.5225 107.643 31.5225 108.558C31.5225 109.474 31.3248 110.287 30.9292 110.999C30.5337 111.7 29.9856 112.243 29.285 112.627C28.5956 113.011 27.8102 113.203 26.9287 113.203C26.3072 113.203 25.7365 113.096 25.2167 112.881C24.7081 112.666 24.2787 112.344 23.9284 111.915V113.084H21.9112V100.507H24.0301V105.134C24.3917 104.739 24.8155 104.439 25.3014 104.236C25.7987 104.032 26.3411 103.931 26.9287 103.931ZM26.6914 111.389C27.4712 111.389 28.1097 111.129 28.6069 110.61C29.1155 110.09 29.3697 109.406 29.3697 108.558C29.3697 107.711 29.1155 107.027 28.6069 106.507C28.1097 105.988 27.4712 105.728 26.6914 105.728C26.1829 105.728 25.7252 105.846 25.3184 106.084C24.9116 106.31 24.5895 106.637 24.3522 107.067C24.1148 107.496 23.9962 107.993 23.9962 108.558C23.9962 109.123 24.1148 109.621 24.3522 110.05C24.5895 110.48 24.9116 110.813 25.3184 111.05C25.7252 111.276 26.1829 111.389 26.6914 111.389ZM33.532 100.507H35.6509V113.084H33.532V100.507ZM46.9415 108.609C46.9415 108.756 46.9302 108.965 46.9076 109.236H39.805C39.9293 109.903 40.2514 110.434 40.7713 110.83C41.3024 111.214 41.9578 111.406 42.7376 111.406C43.7321 111.406 44.5514 111.079 45.1955 110.423L46.3313 111.728C45.9244 112.214 45.4102 112.582 44.7887 112.83C44.1671 113.079 43.4665 113.203 42.6867 113.203C41.6923 113.203 40.8165 113.005 40.0593 112.61C39.3022 112.214 38.7145 111.666 38.2964 110.966C37.8896 110.254 37.6861 109.451 37.6861 108.558C37.6861 107.677 37.8839 106.886 38.2794 106.185C38.6863 105.473 39.2456 104.92 39.9576 104.524C40.6695 104.129 41.4719 103.931 42.3647 103.931C43.2461 103.931 44.0315 104.129 44.7209 104.524C45.4215 104.908 45.964 105.456 46.3482 106.168C46.7437 106.869 46.9415 107.683 46.9415 108.609ZM42.3647 105.626C41.6866 105.626 41.1103 105.829 40.6356 106.236C40.1723 106.632 39.8898 107.163 39.7881 107.83H44.9243C44.8339 107.174 44.557 106.643 44.0937 106.236C43.6304 105.829 43.054 105.626 42.3647 105.626ZM54.4182 112.593C54.1695 112.796 53.8644 112.949 53.5028 113.051C53.1525 113.152 52.7795 113.203 52.384 113.203C51.3896 113.203 50.6211 112.943 50.0787 112.423C49.5362 111.903 49.265 111.146 49.265 110.152V105.795H47.7733V104.1H49.265V102.032H51.3839V104.1H53.8079V105.795H51.3839V110.101C51.3839 110.542 51.4913 110.881 51.706 111.118C51.9207 111.344 52.2315 111.457 52.6383 111.457C53.1129 111.457 53.5085 111.333 53.8249 111.084L54.4182 112.593Z" fill="white"/>
<path fill-rule="evenodd" clip-rule="evenodd" d="M5.97942 1.88347H49.2992C50.8595 1.88347 52.1244 3.14835 52.1244 4.70867V7.53387H3.15422V4.70866C3.15422 3.14835 4.4191 1.88347 5.97942 1.88347ZM1.27075 9.41733V7.53387V4.70866C1.27075 2.10813 3.37889 0 5.97942 0H49.2992C51.8997 0 54.0078 2.10814 54.0078 4.70867V68.7466C54.0078 71.3471 51.8997 73.4552 49.2992 73.4552H5.97942C3.3789 73.4552 1.27075 71.3471 1.27075 68.7465V65.9213V64.0379V9.41733ZM3.15422 68.7465V65.9213H52.1244V68.7466C52.1244 70.3069 50.8595 71.5717 49.2992 71.5717H5.97942C4.4191 71.5717 3.15422 70.3069 3.15422 68.7465ZM52.1244 9.41733V64.0379H3.15422V9.41733H52.1244ZM27.9218 69.7972C28.5979 69.7972 29.1461 69.249 29.1461 68.5729C29.1461 67.8968 28.5979 67.3487 27.9218 67.3487C27.2457 67.3487 26.6976 67.8968 26.6976 68.5729C26.6976 69.249 27.2457 69.7972 27.9218 69.7972Z" fill="white"/>
</svg>
