<svg width="99" height="129" viewBox="0 0 99 129" fill="none" xmlns="http://www.w3.org/2000/svg">
<path d="M42.6558 107.764H38.7231V105.9H48.7921V107.764H44.8594V117.766H42.6558V107.764ZM61.1291 105.9L55.959 117.766H53.7893L48.6022 105.9H50.9923L54.9419 115.053L58.9255 105.9H61.1291Z" fill="white"/>
<path fill-rule="evenodd" clip-rule="evenodd" d="M66.5517 2H31.4323C29.5863 2 28.0898 3.49647 28.0898 5.34247C28.0898 7.18846 29.5863 8.68493 31.4323 8.68493H66.5517C68.3977 8.68493 69.8942 7.18846 69.8942 5.34247C69.8942 3.49647 68.3977 2 66.5517 2ZM31.4323 0C28.4817 0 26.0898 2.3919 26.0898 5.34247C26.0898 8.29303 28.4818 10.6849 31.4323 10.6849H66.5517C69.5023 10.6849 71.8942 8.29303 71.8942 5.34247C71.8942 2.3919 69.5023 0 66.5517 0H31.4323ZM5.52539 14.8219H93.5254C95.1822 14.8219 96.5254 16.1651 96.5254 17.8219V69.2603C96.5254 70.9171 95.1822 72.2603 93.5254 72.2603H5.52539C3.86854 72.2603 2.52539 70.9171 2.52539 69.2603V17.8219C2.52539 16.1651 3.86854 14.8219 5.52539 14.8219ZM0.525391 17.8219C0.525391 15.0605 2.76397 12.8219 5.52539 12.8219H93.5254C96.2868 12.8219 98.5254 15.0605 98.5254 17.8219V69.2603C98.5254 72.0217 96.2868 74.2603 93.5254 74.2603H60.1469C59.8952 76.3686 58.174 78 56.0881 78H38.7037C36.6178 78 34.8965 76.3686 34.6449 74.2603H5.52539C2.76396 74.2603 0.525391 72.0217 0.525391 69.2603V17.8219ZM36.8026 74.2603C37.0106 75.182 37.7507 75.863 38.7037 75.863H56.0881C57.0411 75.863 57.7812 75.182 57.9892 74.2603H36.8026ZM32.4812 6.41096C33.0695 6.41096 33.5465 5.93258 33.5465 5.34246C33.5465 4.75235 33.0695 4.27397 32.4812 4.27397C31.8929 4.27397 31.416 4.75235 31.416 5.34246C31.416 5.93258 31.8929 6.41096 32.4812 6.41096Z" fill="white"/>
</svg>
