<svg width="93" height="131" viewBox="0 0 93 131" fill="none" xmlns="http://www.w3.org/2000/svg">
<path d="M15.2275 108.102H20.4145C21.6802 108.102 22.8046 108.35 23.7878 108.847C24.771 109.333 25.5338 110.028 26.0762 110.932C26.6187 111.825 26.8899 112.859 26.8899 114.034C26.8899 115.21 26.6187 116.249 26.0762 117.153C25.5338 118.046 24.771 118.741 23.7878 119.238C22.8046 119.724 21.6802 119.967 20.4145 119.967H15.2275V108.102ZM20.3128 118.103C21.183 118.103 21.9458 117.939 22.6012 117.611C23.268 117.272 23.7765 116.798 24.1268 116.187C24.4885 115.566 24.6693 114.848 24.6693 114.034C24.6693 113.221 24.4885 112.509 24.1268 111.899C23.7765 111.277 23.268 110.802 22.6012 110.475C21.9458 110.136 21.183 109.966 20.3128 109.966H17.4311V118.103H20.3128ZM29.0286 110.915H31.1475V119.967H29.0286V110.915ZM30.0966 109.424C29.7123 109.424 29.3903 109.305 29.1304 109.068C28.8704 108.819 28.7405 108.514 28.7405 108.152C28.7405 107.791 28.8704 107.491 29.1304 107.254C29.3903 107.005 29.7123 106.881 30.0966 106.881C30.4808 106.881 30.8029 107 31.0628 107.237C31.3227 107.463 31.4527 107.751 31.4527 108.102C31.4527 108.474 31.3227 108.791 31.0628 109.051C30.8142 109.299 30.4921 109.424 30.0966 109.424ZM36.7256 120.086C35.991 120.086 35.2734 119.99 34.5727 119.798C33.8721 119.606 33.3127 119.363 32.8946 119.069L33.7082 117.459C34.1151 117.73 34.601 117.95 35.166 118.12C35.7424 118.278 36.3074 118.357 36.8612 118.357C38.1269 118.357 38.7597 118.024 38.7597 117.357C38.7597 117.04 38.5958 116.82 38.2681 116.696C37.9517 116.571 37.4375 116.453 36.7256 116.34C35.9797 116.227 35.3695 116.097 34.8948 115.95C34.4315 115.803 34.0247 115.549 33.6743 115.187C33.3353 114.814 33.1658 114.3 33.1658 113.645C33.1658 112.786 33.5218 112.102 34.2337 111.593C34.957 111.074 35.9288 110.814 37.1493 110.814C37.7709 110.814 38.3924 110.887 39.014 111.034C39.6355 111.17 40.144 111.356 40.5396 111.593L39.7259 113.204C38.9575 112.752 38.0929 112.526 37.1324 112.526C36.5108 112.526 36.0362 112.622 35.7085 112.814C35.3921 112.995 35.2338 113.238 35.2338 113.543C35.2338 113.882 35.4034 114.125 35.7424 114.272C36.0927 114.407 36.6295 114.537 37.3527 114.662C38.076 114.775 38.6693 114.905 39.1326 115.052C39.596 115.198 39.9915 115.447 40.3192 115.797C40.6582 116.148 40.8277 116.645 40.8277 117.289C40.8277 118.137 40.4605 118.815 39.7259 119.323C38.9914 119.832 37.9912 120.086 36.7256 120.086ZM47.6701 110.814C48.5515 110.814 49.3369 111.006 50.0263 111.39C50.7269 111.774 51.275 112.317 51.6706 113.017C52.0661 113.718 52.2638 114.526 52.2638 115.441C52.2638 116.357 52.0661 117.17 51.6706 117.882C51.275 118.583 50.7269 119.125 50.0263 119.51C49.3369 119.894 48.5515 120.086 47.6701 120.086C46.4496 120.086 45.4834 119.679 44.7714 118.866V123.256H42.6525V110.915H44.6697V112.102C45.02 111.673 45.4495 111.351 45.958 111.136C46.4778 110.921 47.0485 110.814 47.6701 110.814ZM47.4328 118.272C48.2125 118.272 48.851 118.012 49.3482 117.493C49.8568 116.973 50.111 116.289 50.111 115.441C50.111 114.594 49.8568 113.91 49.3482 113.39C48.851 112.87 48.2125 112.611 47.4328 112.611C46.9242 112.611 46.4665 112.729 46.0597 112.967C45.6529 113.193 45.3308 113.52 45.0935 113.95C44.8562 114.379 44.7375 114.876 44.7375 115.441C44.7375 116.006 44.8562 116.504 45.0935 116.933C45.3308 117.363 45.6529 117.696 46.0597 117.933C46.4665 118.159 46.9242 118.272 47.4328 118.272ZM54.2734 107.39H56.3923V119.967H54.2734V107.39ZM62.6314 110.814C63.9649 110.814 64.9819 111.136 65.6826 111.78C66.3945 112.413 66.7505 113.373 66.7505 114.662V119.967H64.7503V118.866C64.4903 119.261 64.1174 119.566 63.6315 119.781C63.1568 119.984 62.5805 120.086 61.9025 120.086C61.2244 120.086 60.6311 119.973 60.1226 119.747C59.614 119.51 59.2185 119.188 58.936 118.781C58.6648 118.363 58.5292 117.894 58.5292 117.374C58.5292 116.56 58.8286 115.91 59.4276 115.424C60.0378 114.927 60.9927 114.679 62.2923 114.679H64.6316V114.543C64.6316 113.91 64.4395 113.424 64.0553 113.085C63.6823 112.746 63.1229 112.577 62.3771 112.577C61.8686 112.577 61.3657 112.656 60.8684 112.814C60.3825 112.972 59.97 113.193 59.631 113.475L58.8004 111.933C59.275 111.571 59.8457 111.294 60.5125 111.102C61.1792 110.91 61.8855 110.814 62.6314 110.814ZM62.3432 118.543C62.8743 118.543 63.3433 118.425 63.7501 118.188C64.1683 117.939 64.4621 117.589 64.6316 117.137V116.086H62.4449C61.2244 116.086 60.6142 116.487 60.6142 117.289C60.6142 117.673 60.7667 117.978 61.0718 118.204C61.377 118.43 61.8007 118.543 62.3432 118.543ZM77.7799 110.915L73.5421 120.696C73.1466 121.679 72.6663 122.369 72.1013 122.764C71.5362 123.171 70.8525 123.375 70.0502 123.375C69.5981 123.375 69.1517 123.301 68.711 123.154C68.2703 123.007 67.9087 122.804 67.6261 122.544L68.4737 120.984C68.6771 121.177 68.9144 121.329 69.1856 121.442C69.4682 121.555 69.7507 121.612 70.0332 121.612C70.4061 121.612 70.7113 121.516 70.9486 121.323C71.1972 121.131 71.4232 120.809 71.6266 120.357L71.7792 120.001L67.8296 110.915H70.0332L72.881 117.611L75.7458 110.915H77.7799Z" fill="white"/>
<path d="M78.7492 21.0965C82.5061 21.0965 85.5405 18.0621 85.5405 14.3052C85.5405 10.5483 82.5061 7.51392 78.7492 7.51392C74.9924 7.51392 71.958 10.5483 71.958 14.3052C72.1025 18.0621 75.1369 21.0965 78.7492 21.0965ZM78.7492 9.68134C81.3502 9.68134 83.3731 11.7043 83.3731 14.3052C83.3731 16.9061 81.3502 18.929 78.7492 18.929C76.1483 18.929 74.1254 16.9061 74.1254 14.3052C74.1254 11.7043 76.2928 9.68134 78.7492 9.68134Z" fill="white"/>
<path d="M91.3208 0H31.9334H1.01148C0.433502 0 0 0.433481 0 1.01146V35.8348V36.2682V59.2429C0 59.8209 0.433502 60.2544 1.01148 60.2544H48.6948V73.6924H43.6375V66.1787C43.6375 65.6007 43.204 65.1672 42.626 65.1672C42.048 65.1672 41.6146 65.6007 41.6146 66.1787V73.6924H20.3738C19.7958 73.6924 19.3624 74.1259 19.3624 74.7039C19.3624 75.2819 19.7958 75.7154 20.3738 75.7154H72.103C72.681 75.7154 73.1145 75.2819 73.1145 74.7039C73.1145 74.1259 72.681 73.6924 72.103 73.6924H50.8622V60.2544L91.3208 60.5434C91.8988 60.5434 92.3323 60.1099 92.3323 59.5319V59.3874V59.2429V49.7063V47.3944V1.15596C92.3323 0.577984 91.8988 0 91.3208 0ZM2.02296 36.4127V35.9793V2.16742H31.9334H90.3093V47.6833V49.9953V58.665L73.8369 58.5205L48.9838 25.1421C48.6948 24.7087 47.9724 24.5641 47.5389 24.8531C47.3944 24.9976 47.2499 25.1421 47.2499 25.2866L40.3141 34.5343C40.0251 34.9678 40.0251 35.6903 40.4586 36.1237C40.6031 36.2682 40.8921 36.4127 41.1811 36.4127C41.4701 36.4127 41.9035 36.2682 42.048 35.9793L48.2614 27.743L71.236 58.665L50.4288 58.5205L26.7316 25.2866C26.4426 24.8531 25.7201 24.7086 25.2866 24.9976C25.1421 25.1421 24.9977 25.2866 24.9977 25.4311L6.50227 50.5732C6.21328 51.0067 6.2133 51.7292 6.79128 52.0182C6.93578 52.1627 7.22476 52.1627 7.36925 52.1627C7.65824 52.1627 8.09173 52.0182 8.23623 51.7292L25.8646 27.5985L47.6833 58.376H2.16742V36.4127H2.02296Z" fill="white"/>
</svg>
