<svg width="95" height="131" viewBox="0 0 95 131" fill="none" xmlns="http://www.w3.org/2000/svg">
<path d="M31.123 107.811V119.677H29.3093L22.7661 111.642V119.677H20.5794V107.811H22.3932L28.9363 115.846V107.811H31.123ZM37.5572 110.523C38.8907 110.523 39.9078 110.845 40.6084 111.489C41.3204 112.122 41.6763 113.082 41.6763 114.371V119.677H39.6761V118.575C39.4162 118.97 39.0433 119.275 38.5573 119.49C38.0827 119.693 37.5064 119.795 36.8283 119.795C36.1503 119.795 35.557 119.682 35.0484 119.456C34.5399 119.219 34.1444 118.897 33.8618 118.49C33.5906 118.072 33.455 117.603 33.455 117.083C33.455 116.269 33.7545 115.62 34.3534 115.134C34.9637 114.636 35.9186 114.388 37.2182 114.388H39.5574V114.252C39.5574 113.619 39.3653 113.133 38.9811 112.794C38.6082 112.455 38.0488 112.286 37.3029 112.286C36.7944 112.286 36.2915 112.365 35.7943 112.523C35.3083 112.681 34.8959 112.902 34.5568 113.184L33.7262 111.642C34.2009 111.28 34.7716 111.003 35.4383 110.811C36.1051 110.619 36.8114 110.523 37.5572 110.523ZM37.269 118.253C37.8002 118.253 38.2692 118.134 38.676 117.897C39.0941 117.648 39.3879 117.298 39.5574 116.846V115.795H37.3707C36.1503 115.795 35.54 116.196 35.54 116.998C35.54 117.382 35.6926 117.688 35.9977 117.914C36.3028 118.14 36.7266 118.253 37.269 118.253ZM49.837 119.185C49.5884 119.388 49.2833 119.541 48.9217 119.643C48.5713 119.744 48.1984 119.795 47.8029 119.795C46.8084 119.795 46.04 119.535 45.4975 119.015C44.9551 118.496 44.6839 117.738 44.6839 116.744V112.387H43.1922V110.692H44.6839V108.624H46.8028V110.692H49.2268V112.387H46.8028V116.693C46.8028 117.134 46.9101 117.473 47.1248 117.71C47.3396 117.936 47.6503 118.049 48.0572 118.049C48.5318 118.049 48.9273 117.925 49.2437 117.676L49.837 119.185ZM51.5801 110.625H53.699V119.677H51.5801V110.625ZM52.648 109.133C52.2638 109.133 51.9417 109.014 51.6818 108.777C51.4219 108.528 51.2919 108.223 51.2919 107.862C51.2919 107.5 51.4219 107.2 51.6818 106.963C51.9417 106.714 52.2638 106.59 52.648 106.59C53.0322 106.59 53.3543 106.709 53.6142 106.946C53.8741 107.172 54.0041 107.46 54.0041 107.811C54.0041 108.184 53.8741 108.5 53.6142 108.76C53.3656 109.009 53.0435 109.133 52.648 109.133ZM64.9556 110.625L61.0738 119.677H58.8871L55.0053 110.625H57.2089L60.0228 117.337L62.9215 110.625H64.9556ZM74.5412 115.201C74.5412 115.348 74.5298 115.557 74.5072 115.829H67.4047C67.529 116.495 67.8511 117.026 68.3709 117.422C68.902 117.806 69.5575 117.998 70.3373 117.998C71.3317 117.998 72.151 117.671 72.7952 117.015L73.9309 118.32C73.5241 118.806 73.0099 119.174 72.3883 119.422C71.7668 119.671 71.0662 119.795 70.2864 119.795C69.2919 119.795 68.4161 119.597 67.659 119.202C66.9018 118.806 66.3142 118.258 65.896 117.558C65.4892 116.846 65.2858 116.043 65.2858 115.151C65.2858 114.269 65.4836 113.478 65.8791 112.777C66.2859 112.065 66.8453 111.512 67.5573 111.116C68.2692 110.721 69.0716 110.523 69.9643 110.523C70.8458 110.523 71.6312 110.721 72.3205 111.116C73.0212 111.5 73.5636 112.048 73.9479 112.76C74.3434 113.461 74.5412 114.275 74.5412 115.201ZM69.9643 112.218C69.2863 112.218 68.7099 112.421 68.2353 112.828C67.772 113.224 67.4894 113.755 67.3877 114.422H72.524C72.4336 113.766 72.1567 113.235 71.6933 112.828C71.23 112.421 70.6537 112.218 69.9643 112.218Z" fill="white"/>
<path fill-rule="evenodd" clip-rule="evenodd" d="M1.00177 0H93.1715C93.744 0 94.1733 0.557552 94.1733 0.975703V14.2171V60.3531V62.7226V72.2007V72.3402V72.4795C94.1733 73.037 93.744 73.4552 93.1715 73.4552L50.5216 73.1764H1.00177C0.429292 73.1764 0 72.7583 0 72.2007V49.3419V48.7843V14.2171V0.975703C0 0.418168 0.429292 0 1.00177 0ZM2.14681 48.7843V49.3419V71.0857H50.6646L92.1696 71.3645V62.7226V60.3531V14.2171V2.09075H2.14681V13.2414H32.6315H81.5787H85.2999C85.8723 13.2414 86.3017 13.6596 86.3017 14.2171C86.3017 14.7747 85.8723 15.1929 85.2999 15.1929H81.5787H32.6315H2.14681V48.7843ZM85.3003 6.13288C86.159 6.13288 86.8746 6.82976 86.8746 7.66606C86.8746 8.50237 86.159 9.19929 85.3003 9.19929C84.4416 9.19929 83.726 8.50237 83.726 7.66606C83.726 6.82976 84.4416 6.13288 85.3003 6.13288ZM79.0024 6.13288C78.1437 6.13288 77.4281 6.82976 77.4281 7.66606C77.4281 8.50237 78.1437 9.19929 79.0024 9.19929C79.8612 9.19929 80.5768 8.50237 80.5768 7.66606C80.5768 6.82976 79.8612 6.13288 79.0024 6.13288ZM9.41733 38.5692L83.8143 38.5692V48.5595H9.41733V38.5692ZM7.53387 38.5692C7.53387 37.529 8.37712 36.6858 9.41733 36.6858H83.8143C84.8545 36.6858 85.6977 37.529 85.6977 38.5692V48.5595C85.6977 49.5997 84.8545 50.4429 83.8143 50.4429H9.41734C8.37713 50.4429 7.53387 49.5997 7.53387 48.5595V38.5692ZM83.8143 54.1607H9.41733V64.1509H83.8143V54.1607ZM9.41733 52.2772C8.37712 52.2772 7.53387 53.1205 7.53387 54.1607V64.1509C7.53387 65.1911 8.37713 66.0344 9.41734 66.0344H83.8143C84.8545 66.0344 85.6977 65.1912 85.6977 64.1509V54.1607C85.6977 53.1205 84.8545 52.2772 83.8143 52.2772H9.41733ZM9.41733 22.9777H29.1937V32.968L9.41733 32.968V22.9777ZM7.53387 22.9777C7.53387 21.9375 8.37712 21.0943 9.41733 21.0943H29.1937C30.2339 21.0943 31.0772 21.9375 31.0772 22.9777V32.968C31.0772 34.0082 30.2339 34.8514 29.1937 34.8514H9.41733C8.37712 34.8514 7.53387 34.0082 7.53387 32.968V22.9777ZM56.504 22.9777H34.8441L34.8441 32.968L56.504 32.968V22.9777ZM34.8441 21.0943C33.8039 21.0943 32.9607 21.9375 32.9607 22.9777V32.968C32.9607 34.0082 33.8039 34.8514 34.8441 34.8514H56.504C57.5442 34.8514 58.3875 34.0082 58.3875 32.968V22.9777C58.3875 21.9375 57.5442 21.0943 56.504 21.0943H34.8441ZM62.1544 22.9777H83.8143L83.8143 32.968L62.1544 32.968L62.1544 22.9777ZM60.2709 22.9777C60.2709 21.9375 61.1142 21.0943 62.1544 21.0943H83.8143C84.8545 21.0943 85.6977 21.9375 85.6977 22.9777V32.968C85.6977 34.0082 84.8545 34.8514 83.8143 34.8514H62.1544C61.1142 34.8514 60.2709 34.0082 60.2709 32.968V22.9777Z" fill="white"/>
</svg>
