<svg width="97" height="130" viewBox="0 0 97 130" fill="none" xmlns="http://www.w3.org/2000/svg">
<path d="M9.39477 119.591L6.97075 116.116C6.86904 116.127 6.71648 116.133 6.51306 116.133H3.83477V119.591H1.63112V107.725H6.51306C7.54144 107.725 8.4342 107.894 9.19135 108.233C9.95981 108.572 10.5475 109.058 10.9543 109.691C11.3611 110.324 11.5645 111.076 11.5645 111.946C11.5645 112.838 11.3442 113.607 10.9034 114.251C10.474 114.895 9.85245 115.375 9.03879 115.692L11.7679 119.591H9.39477ZM9.34392 111.946C9.34392 111.189 9.0953 110.607 8.59806 110.2C8.10083 109.793 7.37193 109.589 6.41136 109.589H3.83477V114.319H6.41136C7.37193 114.319 8.10083 114.115 8.59806 113.709C9.0953 113.29 9.34392 112.703 9.34392 111.946ZM13.8266 110.539H15.9455V119.591H13.8266V110.539ZM14.8945 109.047C14.5103 109.047 14.1882 108.928 13.9283 108.691C13.6684 108.442 13.5384 108.137 13.5384 107.776C13.5384 107.414 13.6684 107.115 13.9283 106.877C14.1882 106.629 14.5103 106.504 14.8945 106.504C15.2787 106.504 15.6008 106.623 15.8607 106.86C16.1206 107.086 16.2506 107.375 16.2506 107.725C16.2506 108.098 16.1206 108.414 15.8607 108.674C15.6121 108.923 15.29 109.047 14.8945 109.047ZM22.8796 119.709C21.9416 119.709 21.0997 119.512 20.3539 119.116C19.608 118.721 19.026 118.172 18.6079 117.472C18.1897 116.76 17.9807 115.957 17.9807 115.065C17.9807 114.172 18.1897 113.375 18.6079 112.675C19.026 111.974 19.6023 111.426 20.3369 111.03C21.0828 110.635 21.9303 110.437 22.8796 110.437C23.7723 110.437 24.5521 110.618 25.2188 110.979C25.8969 111.341 26.4054 111.861 26.7445 112.539L25.1171 113.488C24.8572 113.07 24.5295 112.759 24.134 112.556C23.7497 112.341 23.326 112.234 22.8626 112.234C22.0716 112.234 21.4161 112.494 20.8963 113.014C20.3765 113.522 20.1165 114.206 20.1165 115.065C20.1165 115.924 20.3708 116.613 20.8793 117.133C21.3992 117.641 22.0603 117.896 22.8626 117.896C23.326 117.896 23.7497 117.794 24.134 117.59C24.5295 117.376 24.8572 117.059 25.1171 116.641L26.7445 117.59C26.3941 118.268 25.8799 118.794 25.2019 119.167C24.5351 119.529 23.761 119.709 22.8796 119.709ZM33.6296 110.437C34.7709 110.437 35.6863 110.77 36.3757 111.437C37.065 112.104 37.4097 113.093 37.4097 114.404V119.591H35.2908V114.675C35.2908 113.884 35.1043 113.29 34.7314 112.895C34.3585 112.488 33.8273 112.285 33.138 112.285C32.3582 112.285 31.7423 112.522 31.2903 112.997C30.8383 113.46 30.6122 114.132 30.6122 115.014V119.591H28.4933V107.013H30.6122V111.59C30.9626 111.217 31.392 110.934 31.9005 110.742C32.4204 110.539 32.9967 110.437 33.6296 110.437ZM55.8854 119.591L55.8685 111.725L51.9697 118.235H50.9865L47.0878 111.827V119.591H44.9858V107.725H46.7996L51.512 115.59L56.1397 107.725H57.9535L57.9704 119.591H55.8854ZM69.4816 115.116C69.4816 115.262 69.4703 115.472 69.4477 115.743H62.3452C62.4695 116.409 62.7915 116.941 63.3114 117.336C63.8425 117.72 64.498 117.912 65.2777 117.912C66.2722 117.912 67.0915 117.585 67.7356 116.929L68.8714 118.235C68.4645 118.721 67.9504 119.088 67.3288 119.336C66.7073 119.585 66.0066 119.709 65.2269 119.709C64.2324 119.709 63.3566 119.512 62.5994 119.116C61.8423 118.721 61.2546 118.172 60.8365 117.472C60.4297 116.76 60.2263 115.957 60.2263 115.065C60.2263 114.183 60.424 113.392 60.8195 112.692C61.2264 111.98 61.7858 111.426 62.4977 111.03C63.2097 110.635 64.012 110.437 64.9048 110.437C65.7863 110.437 66.5717 110.635 67.261 111.03C67.9617 111.415 68.5041 111.963 68.8883 112.675C69.2839 113.375 69.4816 114.189 69.4816 115.116ZM64.9048 112.132C64.2267 112.132 63.6504 112.336 63.1758 112.742C62.7124 113.138 62.4299 113.669 62.3282 114.336H67.4644C67.374 113.68 67.0971 113.149 66.6338 112.742C66.1705 112.336 65.5941 112.132 64.9048 112.132ZM80.3824 107.013V119.591H78.3483V118.421C77.998 118.85 77.5629 119.173 77.043 119.387C76.5345 119.602 75.9695 119.709 75.3479 119.709C74.4778 119.709 73.6924 119.517 72.9917 119.133C72.3024 118.749 71.7599 118.206 71.3644 117.506C70.9689 116.794 70.7711 115.98 70.7711 115.065C70.7711 114.149 70.9689 113.341 71.3644 112.641C71.7599 111.94 72.3024 111.398 72.9917 111.013C73.6924 110.629 74.4778 110.437 75.3479 110.437C75.9469 110.437 76.495 110.539 76.9922 110.742C77.4894 110.946 77.9132 111.251 78.2635 111.658V107.013H80.3824ZM75.6022 117.896C76.1107 117.896 76.5684 117.783 76.9752 117.557C77.3821 117.319 77.7041 116.986 77.9415 116.556C78.1788 116.127 78.2974 115.63 78.2974 115.065C78.2974 114.5 78.1788 114.002 77.9415 113.573C77.7041 113.144 77.3821 112.816 76.9752 112.59C76.5684 112.353 76.1107 112.234 75.6022 112.234C75.0937 112.234 74.636 112.353 74.2291 112.59C73.8223 112.816 73.5002 113.144 73.2629 113.573C73.0256 114.002 72.907 114.5 72.907 115.065C72.907 115.63 73.0256 116.127 73.2629 116.556C73.5002 116.986 73.8223 117.319 74.2291 117.557C74.636 117.783 75.0937 117.896 75.6022 117.896ZM83.1543 110.539H85.2733V119.591H83.1543V110.539ZM84.2223 109.047C83.838 109.047 83.516 108.928 83.2561 108.691C82.9961 108.442 82.8662 108.137 82.8662 107.776C82.8662 107.414 82.9961 107.115 83.2561 106.877C83.516 106.629 83.838 106.504 84.2223 106.504C84.6065 106.504 84.9286 106.623 85.1885 106.86C85.4484 107.086 85.5784 107.375 85.5784 107.725C85.5784 108.098 85.4484 108.414 85.1885 108.674C84.9399 108.923 84.6178 109.047 84.2223 109.047ZM91.5124 110.437C92.8458 110.437 93.8629 110.759 94.5636 111.403C95.2755 112.036 95.6315 112.997 95.6315 114.285V119.591H93.6313V118.489C93.3713 118.884 92.9984 119.189 92.5125 119.404C92.0378 119.608 91.4615 119.709 90.7834 119.709C90.1054 119.709 89.5121 119.596 89.0036 119.37C88.495 119.133 88.0995 118.811 87.817 118.404C87.5458 117.986 87.4102 117.517 87.4102 116.997C87.4102 116.183 87.7096 115.534 88.3086 115.048C88.9188 114.551 89.8737 114.302 91.1733 114.302H93.5126V114.166C93.5126 113.533 93.3205 113.048 92.9363 112.708C92.5633 112.369 92.0039 112.2 91.2581 112.2C90.7495 112.2 90.2467 112.279 89.7494 112.437C89.2635 112.595 88.851 112.816 88.512 113.098L87.6814 111.556C88.156 111.194 88.7267 110.917 89.3935 110.725C90.0602 110.533 90.7665 110.437 91.5124 110.437ZM91.2242 118.167C91.7553 118.167 92.2243 118.048 92.6311 117.811C93.0493 117.562 93.3431 117.212 93.5126 116.76V115.709H91.3259C90.1054 115.709 89.4952 116.11 89.4952 116.912C89.4952 117.297 89.6477 117.602 89.9528 117.828C90.258 118.054 90.6817 118.167 91.2242 118.167Z" fill="white"/>
<path d="M38.1494 53.5939C38.2936 53.7376 38.4378 53.7376 38.7262 53.7376C39.0147 53.7376 39.1589 53.7376 39.3031 53.5939L64.2526 39.2256C64.541 39.0819 64.8294 38.6508 64.8294 38.3635C64.8294 37.9324 64.6852 37.645 64.2526 37.5013L39.3031 23.133C39.0147 22.9893 38.582 22.9893 38.1494 23.133C37.8609 23.2767 37.5725 23.7077 37.5725 23.9951V52.5881C37.5725 53.1629 37.8609 53.4502 38.1494 53.5939ZM39.7358 26.0066L61.3682 38.5071L39.7358 51.0076V26.0066Z" fill="white"/>
<path d="M93.817 0H2.09538C1.51851 0 0.94165 0.431056 0.94165 1.14947V72.2729C0.94165 72.8477 1.37429 73.4224 2.09538 73.4224C2.67224 73.4224 3.24911 72.9913 3.24911 72.2729V2.15526H92.8075V72.2729C92.8075 72.8477 93.2402 73.4224 93.9613 73.4224C94.5381 73.4224 95.115 72.9913 95.115 72.2729V1.14947C94.8266 0.431056 94.3939 0 93.817 0Z" fill="white"/>
<path d="M85.885 71.1234H38.7262C38.1494 71.1234 37.5725 71.5544 37.5725 72.2729C37.5725 72.8476 38.0052 73.4223 38.7262 73.4223H85.885C86.4619 73.4223 87.0388 72.9913 87.0388 72.2729C87.0388 71.6981 86.4619 71.1234 85.885 71.1234Z" fill="white"/>
<path d="M26.3236 66.3818C23.4393 66.3818 21.1318 68.3934 20.5549 71.1234H9.7387C9.16183 71.1234 8.58496 71.5544 8.58496 72.2729C8.58496 72.8476 9.01761 73.4223 9.7387 73.4223H20.4107C20.9876 76.1523 23.295 78.1639 26.1794 78.1639C29.3521 78.1639 32.0922 75.5776 32.0922 72.2729C32.0922 68.9681 29.4963 66.3818 26.3236 66.3818ZM26.3236 75.865C24.3046 75.865 22.574 74.1408 22.574 72.1292C22.574 70.1176 24.3046 68.3934 26.3236 68.3934C28.3426 68.3934 30.0732 70.1176 30.0732 72.1292C29.929 74.2844 28.3426 75.865 26.3236 75.865Z" fill="white"/>
<path d="M38.1494 53.5939C38.2936 53.7376 38.4378 53.7376 38.7262 53.7376C39.0147 53.7376 39.1589 53.7376 39.3031 53.5939L64.2526 39.2256C64.541 39.0819 64.8294 38.6508 64.8294 38.3635C64.8294 37.9324 64.6852 37.645 64.2526 37.5013L39.3031 23.133C39.0147 22.9893 38.582 22.9893 38.1494 23.133C37.8609 23.2767 37.5725 23.7077 37.5725 23.9951V52.5881C37.5725 53.1629 37.8609 53.4502 38.1494 53.5939ZM39.7358 26.0066L61.3682 38.5071L39.7358 51.0076V26.0066Z" fill="white"/>
<path d="M93.817 0H2.09538C1.51851 0 0.94165 0.431056 0.94165 1.14947V72.2729C0.94165 72.8477 1.37429 73.4224 2.09538 73.4224C2.67224 73.4224 3.24911 72.9913 3.24911 72.2729V2.15526H92.8075V72.2729C92.8075 72.8477 93.2402 73.4224 93.9613 73.4224C94.5381 73.4224 95.115 72.9913 95.115 72.2729V1.14947C94.8266 0.431056 94.3939 0 93.817 0Z" fill="white"/>
<path d="M85.885 71.1234H38.7262C38.1494 71.1234 37.5725 71.5544 37.5725 72.2729C37.5725 72.8476 38.0052 73.4223 38.7262 73.4223H85.885C86.4619 73.4223 87.0388 72.9913 87.0388 72.2729C87.0388 71.6981 86.4619 71.1234 85.885 71.1234Z" fill="white"/>
<path d="M26.3236 66.3818C23.4393 66.3818 21.1318 68.3934 20.5549 71.1234H9.7387C9.16183 71.1234 8.58496 71.5544 8.58496 72.2729C8.58496 72.8476 9.01761 73.4223 9.7387 73.4223H20.4107C20.9876 76.1523 23.295 78.1639 26.1794 78.1639C29.3521 78.1639 32.0922 75.5776 32.0922 72.2729C32.0922 68.9681 29.4963 66.3818 26.3236 66.3818ZM26.3236 75.865C24.3046 75.865 22.574 74.1408 22.574 72.1292C22.574 70.1176 24.3046 68.3934 26.3236 68.3934C28.3426 68.3934 30.0732 70.1176 30.0732 72.1292C29.929 74.2844 28.3426 75.865 26.3236 75.865Z" fill="white"/>
</svg>
