<svg width="95" height="130" viewBox="0 0 95 130" fill="none" xmlns="http://www.w3.org/2000/svg">
<path d="M34.4332 107.725L29.2631 119.591H27.0933L21.9062 107.725H24.2964L28.246 116.878L32.2295 107.725H34.4332ZM35.5647 110.539H37.6836V119.591H35.5647V110.539ZM36.6326 109.047C36.2484 109.047 35.9263 108.928 35.6664 108.691C35.4065 108.442 35.2765 108.137 35.2765 107.776C35.2765 107.414 35.4065 107.115 35.6664 106.877C35.9263 106.629 36.2484 106.504 36.6326 106.504C37.0168 106.504 37.3389 106.623 37.5988 106.86C37.8587 107.086 37.9887 107.374 37.9887 107.725C37.9887 108.098 37.8587 108.414 37.5988 108.674C37.3502 108.923 37.0281 109.047 36.6326 109.047ZM49.3301 107.013V119.591H47.296V118.421C46.9456 118.85 46.5105 119.173 45.9907 119.387C45.4822 119.602 44.9171 119.709 44.2956 119.709C43.4254 119.709 42.64 119.517 41.9394 119.133C41.25 118.749 40.7076 118.206 40.3121 117.506C39.9165 116.794 39.7188 115.98 39.7188 115.065C39.7188 114.149 39.9165 113.341 40.3121 112.641C40.7076 111.94 41.25 111.398 41.9394 111.013C42.64 110.629 43.4254 110.437 44.2956 110.437C44.8945 110.437 45.4426 110.539 45.9399 110.742C46.4371 110.946 46.8609 111.251 47.2112 111.657V107.013H49.3301ZM44.5499 117.896C45.0584 117.896 45.5161 117.783 45.9229 117.556C46.3297 117.319 46.6518 116.986 46.8891 116.556C47.1264 116.127 47.2451 115.63 47.2451 115.065C47.2451 114.5 47.1264 114.002 46.8891 113.573C46.6518 113.144 46.3297 112.816 45.9229 112.59C45.5161 112.352 45.0584 112.234 44.5499 112.234C44.0413 112.234 43.5836 112.352 43.1768 112.59C42.77 112.816 42.4479 113.144 42.2106 113.573C41.9733 114.002 41.8546 114.5 41.8546 115.065C41.8546 115.63 41.9733 116.127 42.2106 116.556C42.4479 116.986 42.77 117.319 43.1768 117.556C43.5836 117.783 44.0413 117.896 44.5499 117.896ZM60.6115 115.116C60.6115 115.262 60.6002 115.471 60.5776 115.743H53.4751C53.5994 116.409 53.9214 116.941 54.4413 117.336C54.9724 117.72 55.6279 117.912 56.4076 117.912C57.4021 117.912 58.2214 117.585 58.8655 116.929L60.0013 118.235C59.5944 118.72 59.0803 119.088 58.4587 119.336C57.8372 119.585 57.1365 119.709 56.3568 119.709C55.3623 119.709 54.4865 119.512 53.7293 119.116C52.9722 118.72 52.3845 118.172 51.9664 117.472C51.5596 116.76 51.3562 115.957 51.3562 115.065C51.3562 114.183 51.5539 113.392 51.9495 112.691C52.3563 111.98 52.9157 111.426 53.6276 111.03C54.3396 110.635 55.1419 110.437 56.0347 110.437C56.9162 110.437 57.7016 110.635 58.3909 111.03C59.0916 111.415 59.634 111.963 60.0182 112.675C60.4138 113.375 60.6115 114.189 60.6115 115.116ZM56.0347 112.132C55.3566 112.132 54.7803 112.336 54.3057 112.742C53.8423 113.138 53.5598 113.669 53.4581 114.336H58.5943C58.5039 113.68 58.2271 113.149 57.7637 112.742C57.3004 112.336 56.724 112.132 56.0347 112.132ZM66.7151 119.709C65.7998 119.709 64.9748 119.512 64.2403 119.116C63.5057 118.72 62.9294 118.172 62.5112 117.472C62.1044 116.76 61.901 115.957 61.901 115.065C61.901 114.172 62.1044 113.375 62.5112 112.675C62.9294 111.974 63.5057 111.426 64.2403 111.03C64.9748 110.635 65.7998 110.437 66.7151 110.437C67.6418 110.437 68.4724 110.635 69.207 111.03C69.9415 111.426 70.5122 111.974 70.919 112.675C71.3372 113.375 71.5462 114.172 71.5462 115.065C71.5462 115.957 71.3372 116.76 70.919 117.472C70.5122 118.172 69.9415 118.72 69.207 119.116C68.4724 119.512 67.6418 119.709 66.7151 119.709ZM66.7151 117.896C67.4949 117.896 68.139 117.636 68.6476 117.116C69.1561 116.596 69.4104 115.912 69.4104 115.065C69.4104 114.217 69.1561 113.533 68.6476 113.014C68.139 112.494 67.4949 112.234 66.7151 112.234C65.9354 112.234 65.2912 112.494 64.7827 113.014C64.2855 113.533 64.0369 114.217 64.0369 115.065C64.0369 115.912 64.2855 116.596 64.7827 117.116C65.2912 117.636 65.9354 117.896 66.7151 117.896Z" fill="white"/>
<path d="M37.208 53.5939C37.3522 53.7376 37.4964 53.7376 37.7848 53.7376C38.0733 53.7376 38.2175 53.7376 38.3617 53.5939L63.3112 39.2256C63.5996 39.0819 63.888 38.6508 63.888 38.3635C63.888 37.9324 63.7438 37.645 63.3112 37.5013L38.3617 23.133C38.0733 22.9893 37.6406 22.9893 37.208 23.133C36.9195 23.2767 36.6311 23.7077 36.6311 23.9951V52.5881C36.6311 53.1629 36.9195 53.4502 37.208 53.5939ZM38.7944 26.0066L60.4268 38.5071L38.7944 51.0076V26.0066Z" fill="white"/>
<path d="M92.8754 0H1.15373C0.576859 0 0 0.431056 0 1.14947V72.2729C0 72.8477 0.432643 73.4224 1.15373 73.4224C1.73059 73.4224 2.30746 72.9913 2.30746 72.2729V2.15526H91.8659V72.2729C91.8659 72.8477 92.2985 73.4224 93.0196 73.4224C93.5965 73.4224 94.1733 72.9913 94.1733 72.2729V1.14947C93.8849 0.431056 93.4523 0 92.8754 0Z" fill="white"/>
<path d="M84.9436 71.1234H37.7848C37.208 71.1234 36.6311 71.5544 36.6311 72.2729C36.6311 72.8476 37.0637 73.4223 37.7848 73.4223H84.9436C85.5205 73.4223 86.0974 72.9913 86.0974 72.2729C86.0974 71.6981 85.5205 71.1234 84.9436 71.1234Z" fill="white"/>
<path d="M25.3819 66.3818C22.4976 66.3818 20.1901 68.3934 19.6133 71.1234H8.79705C8.22018 71.1234 7.64331 71.5544 7.64331 72.2729C7.64331 72.8476 8.07596 73.4223 8.79705 73.4223H19.4691C20.0459 76.1523 22.3534 78.1639 25.2377 78.1639C28.4105 78.1639 31.1506 75.5776 31.1506 72.2729C31.1506 68.9681 28.5547 66.3818 25.3819 66.3818ZM25.3819 75.865C23.3629 75.865 21.6323 74.1408 21.6323 72.1292C21.6323 70.1176 23.3629 68.3934 25.3819 68.3934C27.401 68.3934 29.1316 70.1176 29.1316 72.1292C28.9873 74.2844 27.401 75.865 25.3819 75.865Z" fill="white"/>
<path d="M37.208 53.5939C37.3522 53.7376 37.4964 53.7376 37.7848 53.7376C38.0733 53.7376 38.2175 53.7376 38.3617 53.5939L63.3112 39.2256C63.5996 39.0819 63.888 38.6508 63.888 38.3635C63.888 37.9324 63.7438 37.645 63.3112 37.5013L38.3617 23.133C38.0733 22.9893 37.6406 22.9893 37.208 23.133C36.9195 23.2767 36.6311 23.7077 36.6311 23.9951V52.5881C36.6311 53.1629 36.9195 53.4502 37.208 53.5939ZM38.7944 26.0066L60.4268 38.5071L38.7944 51.0076V26.0066Z" fill="white"/>
<path d="M92.8754 0H1.15373C0.576859 0 0 0.431056 0 1.14947V72.2729C0 72.8477 0.432643 73.4224 1.15373 73.4224C1.73059 73.4224 2.30746 72.9913 2.30746 72.2729V2.15526H91.8659V72.2729C91.8659 72.8477 92.2985 73.4224 93.0196 73.4224C93.5965 73.4224 94.1733 72.9913 94.1733 72.2729V1.14947C93.8849 0.431056 93.4523 0 92.8754 0Z" fill="white"/>
<path d="M84.9436 71.1234H37.7848C37.208 71.1234 36.6311 71.5544 36.6311 72.2729C36.6311 72.8476 37.0637 73.4223 37.7848 73.4223H84.9436C85.5205 73.4223 86.0974 72.9913 86.0974 72.2729C86.0974 71.6981 85.5205 71.1234 84.9436 71.1234Z" fill="white"/>
<path d="M25.3819 66.3818C22.4976 66.3818 20.1901 68.3934 19.6133 71.1234H8.79705C8.22018 71.1234 7.64331 71.5544 7.64331 72.2729C7.64331 72.8476 8.07596 73.4223 8.79705 73.4223H19.4691C20.0459 76.1523 22.3534 78.1639 25.2377 78.1639C28.4105 78.1639 31.1506 75.5776 31.1506 72.2729C31.1506 68.9681 28.5547 66.3818 25.3819 66.3818ZM25.3819 75.865C23.3629 75.865 21.6323 74.1408 21.6323 72.1292C21.6323 70.1176 23.3629 68.3934 25.3819 68.3934C27.401 68.3934 29.1316 70.1176 29.1316 72.1292C28.9873 74.2844 27.401 75.865 25.3819 75.865Z" fill="white"/>
</svg>
