<svg width="156" height="182" viewBox="0 0 156 182" fill="none" xmlns="http://www.w3.org/2000/svg">
<g opacity="0.3">
<path opacity="0.2" fill-rule="evenodd" clip-rule="evenodd" d="M136 272C211.111 272 272 211.111 272 136C272 60.8893 211.111 0 136 0C60.8893 0 0 60.8893 0 136C0 211.111 60.8893 272 136 272Z" fill="#740B99"/>
<path opacity="0.4" fill-rule="evenodd" clip-rule="evenodd" d="M136 235.213C190.794 235.213 235.213 190.794 235.213 136C235.213 81.2063 190.794 36.7871 136 36.7871C81.2063 36.7871 36.7871 81.2063 36.7871 136C36.7871 190.794 81.2063 235.213 136 235.213Z" fill="#740B99"/>
<path fill-rule="evenodd" clip-rule="evenodd" d="M136 193.968C168.015 193.968 193.968 168.015 193.968 136C193.968 103.986 168.015 78.0332 136 78.0332C103.986 78.0332 78.0332 103.986 78.0332 136C78.0332 168.015 103.986 193.968 136 193.968Z" fill="#740B99"/>
</g>
</svg>
