<svg width="560" height="286" viewBox="0 0 560 286" fill="none" xmlns="http://www.w3.org/2000/svg">
<g filter="url(#filter0_d)">
<rect x="364" y="13" width="176" height="245" rx="10" fill="white"/>
</g>
<path d="M451.99 236.984C463.48 236.984 474.499 232.443 482.624 224.359C490.749 216.276 495.313 205.312 495.313 193.881C495.313 182.449 490.749 171.485 482.624 163.402C474.499 155.319 463.48 150.777 451.99 150.777C450.836 150.777 449.729 151.234 448.912 152.046C448.096 152.858 447.638 153.959 447.638 155.108C447.638 156.256 448.096 157.358 448.912 158.17C449.729 158.982 450.836 159.438 451.99 159.438C457.406 159.439 462.746 160.704 467.58 163.132C472.415 165.559 476.61 169.082 479.828 173.416C483.046 177.749 485.197 182.774 486.108 188.085C487.019 193.397 486.666 198.847 485.075 203.997C483.484 209.148 480.701 213.855 476.949 217.741C473.198 221.627 468.582 224.583 463.473 226.371C458.365 228.159 452.905 228.73 447.535 228.037C442.164 227.345 437.032 225.408 432.55 222.383C431.595 221.741 430.424 221.502 429.292 221.718C428.161 221.934 427.161 222.588 426.513 223.536C425.865 224.484 425.622 225.649 425.835 226.775C426.049 227.902 426.703 228.898 427.654 229.545C434.828 234.406 443.31 236.999 451.99 236.984Z" fill="#740B99"/>
<path d="M414.551 172.329C408.835 182.229 407.286 193.994 410.245 205.036C413.204 216.079 420.428 225.493 430.328 231.209C440.228 236.925 451.993 238.474 463.035 235.515C474.078 232.556 483.492 225.332 489.208 215.432C489.782 214.437 489.938 213.255 489.641 212.146C489.343 211.037 488.618 210.091 487.623 209.517C486.628 208.942 485.446 208.787 484.337 209.084C483.228 209.381 482.282 210.107 481.707 211.102C478.301 217.001 473.223 221.758 467.113 224.771C461.003 227.784 454.138 228.917 447.384 228.028C440.63 227.139 434.292 224.267 429.17 219.776C424.048 215.284 420.374 209.375 418.611 202.795C416.848 196.215 417.075 189.26 419.265 182.809C421.455 176.359 425.508 170.702 430.912 166.555C436.317 162.409 442.829 159.957 449.627 159.512C456.424 159.066 463.201 160.646 469.101 164.052C470.095 164.622 471.275 164.774 472.381 164.475C473.487 164.177 474.43 163.452 475.003 162.46C475.576 161.467 475.732 160.288 475.437 159.181C475.143 158.074 474.421 157.128 473.431 156.552C463.528 150.849 451.767 149.308 440.729 152.265C429.69 155.223 420.276 162.438 414.551 172.329Z" fill="#FBB640"/>
<path d="M444.159 193.712C444.981 193.814 445.607 194.093 446.039 194.551C446.471 195.008 446.686 195.579 446.686 196.265C446.686 196.781 446.555 197.251 446.293 197.674C446.03 198.098 445.632 198.436 445.099 198.69C444.574 198.936 443.931 199.059 443.169 199.059C442.534 199.059 441.92 198.97 441.328 198.792C440.743 198.606 440.244 198.352 439.829 198.03L440.54 196.747C440.862 197.018 441.251 197.234 441.709 197.395C442.174 197.547 442.652 197.624 443.143 197.624C443.728 197.624 444.185 197.505 444.515 197.268C444.854 197.023 445.023 196.692 445.023 196.278C445.023 195.863 444.862 195.541 444.54 195.313C444.227 195.075 443.745 194.957 443.093 194.957H442.28V193.827L444.299 191.427H440.261V190.043H446.318V191.147L444.159 193.712ZM451.488 193.712C452.31 193.814 452.936 194.093 453.368 194.551C453.8 195.008 454.015 195.579 454.015 196.265C454.015 196.781 453.884 197.251 453.622 197.674C453.359 198.098 452.961 198.436 452.428 198.69C451.903 198.936 451.26 199.059 450.498 199.059C449.863 199.059 449.249 198.97 448.657 198.792C448.072 198.606 447.573 198.352 447.158 198.03L447.869 196.747C448.191 197.018 448.58 197.234 449.038 197.395C449.503 197.547 449.982 197.624 450.473 197.624C451.057 197.624 451.514 197.505 451.844 197.268C452.183 197.023 452.352 196.692 452.352 196.278C452.352 195.863 452.191 195.541 451.869 195.313C451.556 195.075 451.074 194.957 450.422 194.957H449.609V193.827L451.628 191.427H447.59V190.043H453.647V191.147L451.488 193.712ZM456.952 194.83C456.317 194.83 455.805 194.606 455.416 194.157C455.026 193.708 454.832 193.12 454.832 192.392C454.832 191.664 455.026 191.075 455.416 190.627C455.805 190.178 456.317 189.954 456.952 189.954C457.587 189.954 458.099 190.178 458.489 190.627C458.887 191.067 459.086 191.655 459.086 192.392C459.086 193.128 458.887 193.721 458.489 194.17C458.099 194.61 457.587 194.83 456.952 194.83ZM462.286 190.043H463.53L457.46 198.932H456.216L462.286 190.043ZM456.952 193.941C457.299 193.941 457.566 193.806 457.752 193.535C457.947 193.264 458.044 192.883 458.044 192.392C458.044 191.901 457.947 191.52 457.752 191.249C457.566 190.978 457.299 190.843 456.952 190.843C456.622 190.843 456.355 190.982 456.152 191.262C455.958 191.533 455.86 191.909 455.86 192.392C455.86 192.874 455.958 193.255 456.152 193.535C456.355 193.806 456.622 193.941 456.952 193.941ZM462.781 199.021C462.146 199.021 461.634 198.796 461.244 198.347C460.855 197.899 460.66 197.31 460.66 196.582C460.66 195.854 460.855 195.266 461.244 194.817C461.634 194.369 462.146 194.144 462.781 194.144C463.416 194.144 463.928 194.369 464.318 194.817C464.715 195.266 464.914 195.854 464.914 196.582C464.914 197.31 464.715 197.899 464.318 198.347C463.928 198.796 463.416 199.021 462.781 199.021ZM462.781 198.132C463.12 198.132 463.386 197.996 463.581 197.725C463.776 197.446 463.873 197.065 463.873 196.582C463.873 196.1 463.776 195.723 463.581 195.452C463.386 195.173 463.12 195.033 462.781 195.033C462.442 195.033 462.176 195.169 461.981 195.439C461.786 195.71 461.689 196.091 461.689 196.582C461.689 197.073 461.786 197.454 461.981 197.725C462.176 197.996 462.442 198.132 462.781 198.132Z" fill="black"/>
<path d="M416.758 116.414C424.346 116.405 431.624 113.4 437.008 108.052C442.393 102.704 445.447 95.4472 445.508 87.8591C445.513 87.093 445.214 86.3562 444.676 85.8107C444.138 85.2653 443.405 84.9558 442.639 84.9506H442.619C441.856 84.9506 441.124 85.2523 440.583 85.7898C440.042 86.3273 439.736 87.0569 439.73 87.8196C439.682 93.8828 437.241 99.6815 432.939 103.954C428.636 108.227 422.821 110.629 416.758 110.637C416.704 110.637 416.651 110.636 416.597 110.636C413.58 110.615 410.596 110 407.817 108.827C405.037 107.653 402.516 105.943 400.397 103.795C396.118 99.4566 393.738 93.5962 393.78 87.5029C393.801 84.4858 394.415 81.5024 395.589 78.7229C396.763 75.9434 398.473 73.4223 400.621 71.3036C404.959 67.0247 410.82 64.6444 416.913 64.6863C417.679 64.6916 418.416 64.3924 418.962 63.8543C419.507 63.3163 419.817 62.5837 419.822 61.8175C419.827 61.0514 419.528 60.3145 418.99 59.7691C418.452 59.2236 417.719 58.9142 416.953 58.9089C416.886 58.9085 416.817 58.9082 416.75 58.9082C409.141 58.9097 401.844 61.9265 396.456 67.2978C391.067 72.669 388.028 79.9568 388.002 87.5648C387.977 95.1728 390.968 102.481 396.32 107.888C401.672 113.295 408.949 116.361 416.557 116.413C416.624 116.414 416.691 116.414 416.758 116.414Z" fill="#FBB640"/>
<path d="M416.753 116.414C424.379 116.414 431.692 113.385 437.084 107.993C442.477 102.6 445.506 95.2869 445.506 87.6612C445.506 80.0354 442.477 72.722 437.084 67.3297C431.692 61.9375 424.379 58.9082 416.753 58.9082C415.987 58.9082 415.252 59.2126 414.71 59.7543C414.169 60.296 413.864 61.0308 413.864 61.7969C413.864 62.5631 414.169 63.2978 414.71 63.8396C415.252 64.3813 415.987 64.6857 416.753 64.6857C421.297 64.6857 425.739 66.0331 429.517 68.5577C433.296 71.0823 436.241 74.6706 437.98 78.8688C439.719 83.067 440.174 87.6866 439.287 92.1434C438.401 96.6003 436.212 100.694 432.999 103.907C429.786 107.12 425.692 109.309 421.235 110.195C416.778 111.082 412.159 110.627 407.961 108.888C403.762 107.149 400.174 104.204 397.65 100.426C395.125 96.6474 393.777 92.2053 393.777 87.6612C393.775 86.8968 393.469 86.1648 392.928 85.6253C392.386 85.0858 391.653 84.7829 390.889 84.7829C390.124 84.7829 389.391 85.0858 388.85 85.6253C388.308 86.1648 388.003 86.8968 388 87.6612C388.009 95.2843 391.041 102.593 396.431 107.983C401.821 113.373 409.13 116.406 416.753 116.414Z" fill="#FBB640"/>
<path d="M416.605 116.414C424.269 116.414 431.62 113.385 437.04 107.993C442.46 102.6 445.504 95.2869 445.504 87.6612C445.504 80.0354 442.46 72.722 437.04 67.3297C431.62 61.9375 424.269 58.9082 416.605 58.9082C415.835 58.9082 415.096 59.2126 414.552 59.7543C414.007 60.296 413.701 61.0308 413.701 61.7969C413.701 62.5631 414.007 63.2978 414.552 63.8396C415.096 64.3813 415.835 64.6857 416.605 64.6857C420.217 64.6863 423.78 65.5302 427.005 67.1495C430.23 68.7689 433.028 71.1185 435.175 74.0095C437.321 76.9005 438.756 80.2522 439.364 83.7953C439.972 87.3383 439.736 90.9739 438.675 94.4096C437.614 97.8454 435.757 100.986 433.254 103.578C430.752 106.17 427.673 108.141 424.265 109.334C420.857 110.527 417.216 110.908 413.633 110.446C410.05 109.984 406.627 108.692 403.637 106.674C403 106.246 402.219 106.087 401.464 106.231C400.709 106.375 400.042 106.811 399.61 107.443C399.178 108.076 399.015 108.853 399.158 109.604C399.301 110.356 399.737 111.02 400.371 111.452C405.157 114.695 410.815 116.424 416.605 116.414Z" fill="#740B99"/>
<path d="M409.706 87.8447C410.681 87.8447 411.403 88.0358 411.871 88.4181C412.339 88.7938 412.573 89.3079 412.573 89.9604C412.573 90.3756 412.471 90.7513 412.266 91.0874C412.062 91.4235 411.755 91.6905 411.347 91.8882C410.938 92.0859 410.434 92.1848 409.834 92.1848C409.34 92.1848 408.862 92.1156 408.401 91.9772C407.939 91.8322 407.55 91.6345 407.234 91.384L407.778 90.3855C408.035 90.5964 408.341 90.7645 408.697 90.8897C409.06 91.0083 409.432 91.0676 409.814 91.0676C410.269 91.0676 410.625 90.9754 410.882 90.7908C411.146 90.5997 411.278 90.3393 411.278 90.0098C411.278 89.6539 411.136 89.3869 410.852 89.209C410.576 89.0244 410.098 88.9322 409.419 88.9322H407.748L408.104 85.1654H412.167V86.2431H409.192L409.043 87.8447H409.706ZM416.212 88.0226C416.851 88.1017 417.339 88.3192 417.675 88.6751C418.011 89.031 418.179 89.4759 418.179 90.0098C418.179 90.4118 418.077 90.7776 417.873 91.1072C417.668 91.4367 417.359 91.7004 416.943 91.8981C416.535 92.0892 416.034 92.1848 415.441 92.1848C414.946 92.1848 414.469 92.1156 414.007 91.9772C413.552 91.8322 413.164 91.6345 412.841 91.384L413.394 90.3855C413.645 90.5964 413.948 90.7645 414.304 90.8897C414.666 91.0083 415.039 91.0676 415.421 91.0676C415.876 91.0676 416.232 90.9754 416.489 90.7908C416.752 90.5997 416.884 90.3426 416.884 90.0197C416.884 89.6967 416.759 89.4463 416.508 89.2683C416.265 89.0838 415.889 88.9915 415.381 88.9915H414.749V88.1116L416.321 86.2431H413.177V85.1654H417.893V86.0256L416.212 88.0226ZM420.466 88.8926C419.971 88.8926 419.573 88.718 419.269 88.3686C418.966 88.0193 418.815 87.5612 418.815 86.9944C418.815 86.4276 418.966 85.9695 419.269 85.6202C419.573 85.2709 419.971 85.0962 420.466 85.0962C420.96 85.0962 421.359 85.2709 421.662 85.6202C421.972 85.9629 422.127 86.421 422.127 86.9944C422.127 87.5678 421.972 88.0292 421.662 88.3785C421.359 88.7213 420.96 88.8926 420.466 88.8926ZM424.618 85.1654H425.587L420.861 92.0859H419.892L424.618 85.1654ZM420.466 88.2006C420.736 88.2006 420.944 88.0951 421.089 87.8842C421.24 87.6733 421.316 87.3767 421.316 86.9944C421.316 86.6122 421.24 86.3156 421.089 86.1046C420.944 85.8937 420.736 85.7883 420.466 85.7883C420.209 85.7883 420.001 85.897 419.843 86.1145C419.691 86.3254 419.615 86.6187 419.615 86.9944C419.615 87.3701 419.691 87.6667 419.843 87.8842C420.001 88.0951 420.209 88.2006 420.466 88.2006ZM425.004 92.1551C424.509 92.1551 424.11 91.9805 423.807 91.6312C423.504 91.2818 423.353 90.8238 423.353 90.2569C423.353 89.6901 423.504 89.2321 423.807 88.8827C424.11 88.5334 424.509 88.3588 425.004 88.3588C425.498 88.3588 425.897 88.5334 426.2 88.8827C426.51 89.2321 426.664 89.6901 426.664 90.2569C426.664 90.8238 426.51 91.2818 426.2 91.6312C425.897 91.9805 425.498 92.1551 425.004 92.1551ZM425.004 91.4631C425.267 91.4631 425.475 91.3576 425.626 91.1467C425.778 90.9292 425.854 90.6326 425.854 90.2569C425.854 89.8813 425.778 89.588 425.626 89.3771C425.475 89.1596 425.267 89.0508 425.004 89.0508C424.74 89.0508 424.532 89.1563 424.381 89.3672C424.229 89.5781 424.153 89.8747 424.153 90.2569C424.153 90.6392 424.229 90.9358 424.381 91.1467C424.532 91.3576 424.74 91.4631 425.004 91.4631Z" fill="black"/>
<path d="M479.828 85.1654V92.0859H478.542V86.2431H477.079V85.1654H479.828ZM487.369 90.514H486.144V92.0859H484.898V90.514H481.101V89.6242L484.512 85.1654H485.887L482.673 89.4265H484.937V88.0325H486.144V89.4265H487.369V90.514ZM489.153 88.8926C488.659 88.8926 488.26 88.718 487.957 88.3686C487.654 88.0193 487.502 87.5612 487.502 86.9944C487.502 86.4276 487.654 85.9695 487.957 85.6202C488.26 85.2709 488.659 85.0962 489.153 85.0962C489.648 85.0962 490.046 85.2709 490.35 85.6202C490.659 85.9629 490.814 86.421 490.814 86.9944C490.814 87.5678 490.659 88.0292 490.35 88.3785C490.046 88.7213 489.648 88.8926 489.153 88.8926ZM493.306 85.1654H494.275L489.549 92.0859H488.58L493.306 85.1654ZM489.153 88.2006C489.424 88.2006 489.631 88.0951 489.776 87.8842C489.928 87.6733 490.004 87.3767 490.004 86.9944C490.004 86.6122 489.928 86.3156 489.776 86.1046C489.631 85.8937 489.424 85.7883 489.153 85.7883C488.896 85.7883 488.689 85.897 488.531 86.1145C488.379 86.3254 488.303 86.6187 488.303 86.9944C488.303 87.3701 488.379 87.6667 488.531 87.8842C488.689 88.0951 488.896 88.2006 489.153 88.2006ZM493.691 92.1551C493.197 92.1551 492.798 91.9805 492.495 91.6312C492.192 91.2818 492.04 90.8238 492.04 90.2569C492.04 89.6901 492.192 89.2321 492.495 88.8827C492.798 88.5334 493.197 88.3588 493.691 88.3588C494.186 88.3588 494.584 88.5334 494.887 88.8827C495.197 89.2321 495.352 89.6901 495.352 90.2569C495.352 90.8238 495.197 91.2818 494.887 91.6312C494.584 91.9805 494.186 92.1551 493.691 92.1551ZM493.691 91.4631C493.955 91.4631 494.162 91.3576 494.314 91.1467C494.466 90.9292 494.541 90.6326 494.541 90.2569C494.541 89.8813 494.466 89.588 494.314 89.3771C494.162 89.1596 493.955 89.0508 493.691 89.0508C493.428 89.0508 493.22 89.1563 493.068 89.3672C492.917 89.5781 492.841 89.8747 492.841 90.2569C492.841 90.6392 492.917 90.9358 493.068 91.1467C493.22 91.3576 493.428 91.4631 493.691 91.4631Z" fill="black"/>
<path d="M486.756 116.414C494.344 116.405 501.622 113.4 507.006 108.052C512.391 102.704 515.445 95.4472 515.506 87.8591C515.511 87.093 515.212 86.3562 514.674 85.8107C514.136 85.2653 513.403 84.9558 512.637 84.9506H512.617C511.854 84.9506 511.122 85.2523 510.581 85.7898C510.04 86.3273 509.734 87.0569 509.728 87.8196C509.68 93.8828 507.239 99.6815 502.937 103.954C498.634 108.227 492.819 110.629 486.756 110.637C486.702 110.637 486.649 110.636 486.595 110.636C483.578 110.615 480.594 110 477.815 108.827C475.035 107.653 472.514 105.943 470.395 103.795C466.116 99.4566 463.736 93.5962 463.778 87.5029C463.799 84.4858 464.414 81.5024 465.587 78.7229C466.761 75.9434 468.471 73.4223 470.619 71.3036C474.957 67.0247 480.818 64.6444 486.911 64.6863C487.678 64.6916 488.414 64.3924 488.96 63.8543C489.505 63.3163 489.815 62.5837 489.82 61.8175C489.825 61.0514 489.526 60.3145 488.988 59.7691C488.45 59.2236 487.717 58.9142 486.951 58.9089C486.884 58.9085 486.815 58.9082 486.748 58.9082C479.139 58.9097 471.842 61.9265 466.454 67.2978C461.065 72.669 458.026 79.9568 458 87.5648C457.975 95.1728 460.966 102.481 466.318 107.888C471.67 113.295 478.947 116.361 486.555 116.413C486.622 116.414 486.689 116.414 486.756 116.414Z" fill="#FBB640"/>
<path d="M486.603 116.414C494.268 116.414 501.618 113.385 507.038 107.993C512.458 102.6 515.502 95.2869 515.502 87.6612C515.502 80.0354 512.458 72.722 507.038 67.3297C501.618 61.9375 494.268 58.9082 486.603 58.9082C485.833 58.9082 485.094 59.2126 484.55 59.7543C484.005 60.296 483.7 61.0308 483.7 61.7969C483.7 62.5631 484.005 63.2978 484.55 63.8396C485.094 64.3813 485.833 64.6857 486.603 64.6857C490.216 64.6863 493.778 65.5302 497.003 67.1495C500.228 68.7689 503.026 71.1185 505.173 74.0095C507.319 76.9005 508.754 80.2522 509.362 83.7953C509.97 87.3383 509.734 90.9739 508.673 94.4096C507.612 97.8454 505.755 100.986 503.253 103.578C500.75 106.17 497.671 108.141 494.263 109.334C490.855 110.527 487.214 110.908 483.631 110.446C480.048 109.984 476.625 108.692 473.635 106.674C472.998 106.246 472.217 106.087 471.462 106.231C470.707 106.375 470.04 106.811 469.608 107.443C469.176 108.076 469.013 108.853 469.156 109.604C469.299 110.356 469.735 111.02 470.369 111.452C475.155 114.695 480.813 116.424 486.603 116.414Z" fill="#740B99"/>
<path d="M402.9 41.36C403.287 41.4867 403.593 41.7 403.82 42C404.047 42.2933 404.16 42.66 404.16 43.1C404.16 43.7067 403.927 44.1767 403.46 44.51C402.993 44.8367 402.313 45 401.42 45H397.94V38H401.22C402.047 38 402.683 38.1633 403.13 38.49C403.577 38.81 403.8 39.2533 403.8 39.82C403.8 40.1667 403.72 40.4733 403.56 40.74C403.4 41.0067 403.18 41.2133 402.9 41.36ZM399.24 39.02V40.95H401.08C401.533 40.95 401.88 40.87 402.12 40.71C402.367 40.5433 402.49 40.3033 402.49 39.99C402.49 39.67 402.367 39.43 402.12 39.27C401.88 39.1033 401.533 39.02 401.08 39.02H399.24ZM401.34 43.98C402.347 43.98 402.85 43.6433 402.85 42.97C402.85 42.2967 402.347 41.96 401.34 41.96H399.24V43.98H401.34ZM407.467 39.6C408.254 39.6 408.854 39.79 409.267 40.17C409.687 40.5433 409.897 41.11 409.897 41.87V45H408.717V44.35C408.564 44.5833 408.344 44.7633 408.057 44.89C407.777 45.01 407.437 45.07 407.037 45.07C406.637 45.07 406.287 45.0033 405.987 44.87C405.687 44.73 405.454 44.54 405.287 44.3C405.127 44.0533 405.047 43.7767 405.047 43.47C405.047 42.99 405.224 42.6067 405.577 42.32C405.937 42.0267 406.501 41.88 407.267 41.88H408.647V41.8C408.647 41.4267 408.534 41.14 408.307 40.94C408.087 40.74 407.757 40.64 407.317 40.64C407.017 40.64 406.721 40.6867 406.427 40.78C406.141 40.8733 405.897 41.0033 405.697 41.17L405.207 40.26C405.487 40.0467 405.824 39.8833 406.217 39.77C406.611 39.6567 407.027 39.6 407.467 39.6ZM407.297 44.16C407.611 44.16 407.887 44.09 408.127 43.95C408.374 43.8033 408.547 43.5967 408.647 43.33V42.71H407.357C406.637 42.71 406.277 42.9467 406.277 43.42C406.277 43.6467 406.367 43.8267 406.547 43.96C406.727 44.0933 406.977 44.16 407.297 44.16ZM414.532 39.6C415.205 39.6 415.745 39.7967 416.152 40.19C416.558 40.5833 416.762 41.1667 416.762 41.94V45H415.512V42.1C415.512 41.6333 415.402 41.2833 415.182 41.05C414.962 40.81 414.648 40.69 414.242 40.69C413.782 40.69 413.418 40.83 413.152 41.11C412.885 41.3833 412.752 41.78 412.752 42.3V45H411.502V39.66H412.692V40.35C412.898 40.1033 413.158 39.9167 413.472 39.79C413.785 39.6633 414.138 39.6 414.532 39.6ZM421.377 39.6C422.051 39.6 422.591 39.7967 422.997 40.19C423.404 40.5833 423.607 41.1667 423.607 41.94V45H422.357V42.1C422.357 41.6333 422.247 41.2833 422.027 41.05C421.807 40.81 421.494 40.69 421.087 40.69C420.627 40.69 420.264 40.83 419.997 41.11C419.731 41.3833 419.597 41.78 419.597 42.3V45H418.347V39.66H419.537V40.35C419.744 40.1033 420.004 39.9167 420.317 39.79C420.631 39.6633 420.984 39.6 421.377 39.6ZM430.262 42.36C430.262 42.4467 430.255 42.57 430.242 42.73H426.052C426.125 43.1233 426.315 43.4367 426.622 43.67C426.935 43.8967 427.322 44.01 427.782 44.01C428.369 44.01 428.852 43.8167 429.232 43.43L429.902 44.2C429.662 44.4867 429.359 44.7033 428.992 44.85C428.625 44.9967 428.212 45.07 427.752 45.07C427.165 45.07 426.649 44.9533 426.202 44.72C425.755 44.4867 425.409 44.1633 425.162 43.75C424.922 43.33 424.802 42.8567 424.802 42.33C424.802 41.81 424.919 41.3433 425.152 40.93C425.392 40.51 425.722 40.1833 426.142 39.95C426.562 39.7167 427.035 39.6 427.562 39.6C428.082 39.6 428.545 39.7167 428.952 39.95C429.365 40.1767 429.685 40.5 429.912 40.92C430.145 41.3333 430.262 41.8133 430.262 42.36ZM427.562 40.6C427.162 40.6 426.822 40.72 426.542 40.96C426.269 41.1933 426.102 41.5067 426.042 41.9H429.072C429.019 41.5133 428.855 41.2 428.582 40.96C428.309 40.72 427.969 40.6 427.562 40.6ZM432.653 40.44C433.013 39.88 433.646 39.6 434.553 39.6V40.79C434.446 40.77 434.349 40.76 434.263 40.76C433.776 40.76 433.396 40.9033 433.123 41.19C432.849 41.47 432.713 41.8767 432.713 42.41V45H431.463V39.66H432.653V40.44Z" fill="black"/>
<path d="M477.16 38V45H476.09L472.23 40.26V45H470.94V38H472.01L475.87 42.74V38H477.16ZM480.956 39.6C481.742 39.6 482.342 39.79 482.756 40.17C483.176 40.5433 483.386 41.11 483.386 41.87V45H482.206V44.35C482.052 44.5833 481.832 44.7633 481.546 44.89C481.266 45.01 480.926 45.07 480.526 45.07C480.126 45.07 479.776 45.0033 479.476 44.87C479.176 44.73 478.942 44.54 478.776 44.3C478.616 44.0533 478.536 43.7767 478.536 43.47C478.536 42.99 478.712 42.6067 479.066 42.32C479.426 42.0267 479.989 41.88 480.756 41.88H482.136V41.8C482.136 41.4267 482.022 41.14 481.796 40.94C481.576 40.74 481.246 40.64 480.806 40.64C480.506 40.64 480.209 40.6867 479.916 40.78C479.629 40.8733 479.386 41.0033 479.186 41.17L478.696 40.26C478.976 40.0467 479.312 39.8833 479.706 39.77C480.099 39.6567 480.516 39.6 480.956 39.6ZM480.786 44.16C481.099 44.16 481.376 44.09 481.616 43.95C481.862 43.8033 482.036 43.5967 482.136 43.33V42.71H480.846C480.126 42.71 479.766 42.9467 479.766 43.42C479.766 43.6467 479.856 43.8267 480.036 43.96C480.216 44.0933 480.466 44.16 480.786 44.16ZM488.2 44.71C488.053 44.83 487.873 44.92 487.66 44.98C487.453 45.04 487.233 45.07 487 45.07C486.413 45.07 485.96 44.9167 485.64 44.61C485.32 44.3033 485.16 43.8567 485.16 43.27V40.7H484.28V39.7H485.16V38.48H486.41V39.7H487.84V40.7H486.41V43.24C486.41 43.5 486.473 43.7 486.6 43.84C486.727 43.9733 486.91 44.04 487.15 44.04C487.43 44.04 487.663 43.9667 487.85 43.82L488.2 44.71ZM489.228 39.66H490.478V45H489.228V39.66ZM489.858 38.78C489.632 38.78 489.442 38.71 489.288 38.57C489.135 38.4233 489.058 38.2433 489.058 38.03C489.058 37.8167 489.135 37.64 489.288 37.5C489.442 37.3533 489.632 37.28 489.858 37.28C490.085 37.28 490.275 37.35 490.428 37.49C490.582 37.6233 490.658 37.7933 490.658 38C490.658 38.22 490.582 38.4067 490.428 38.56C490.282 38.7067 490.092 38.78 489.858 38.78ZM497.119 39.66L494.829 45H493.539L491.249 39.66H492.549L494.209 43.62L495.919 39.66H497.119ZM502.774 42.36C502.774 42.4467 502.767 42.57 502.754 42.73H498.564C498.637 43.1233 498.827 43.4367 499.134 43.67C499.447 43.8967 499.834 44.01 500.294 44.01C500.88 44.01 501.364 43.8167 501.744 43.43L502.414 44.2C502.174 44.4867 501.87 44.7033 501.504 44.85C501.137 44.9967 500.724 45.07 500.264 45.07C499.677 45.07 499.16 44.9533 498.714 44.72C498.267 44.4867 497.92 44.1633 497.674 43.75C497.434 43.33 497.314 42.8567 497.314 42.33C497.314 41.81 497.43 41.3433 497.664 40.93C497.904 40.51 498.234 40.1833 498.654 39.95C499.074 39.7167 499.547 39.6 500.074 39.6C500.594 39.6 501.057 39.7167 501.464 39.95C501.877 40.1767 502.197 40.5 502.424 40.92C502.657 41.3333 502.774 41.8133 502.774 42.36ZM500.074 40.6C499.674 40.6 499.334 40.72 499.054 40.96C498.78 41.1933 498.614 41.5067 498.554 41.9H501.584C501.53 41.5133 501.367 41.2 501.094 40.96C500.82 40.72 500.48 40.6 500.074 40.6Z" fill="black"/>
<path d="M443.34 132L440.29 139H439.01L435.95 132H437.36L439.69 137.4L442.04 132H443.34ZM444.008 133.66H445.258V139H444.008V133.66ZM444.638 132.78C444.411 132.78 444.221 132.71 444.068 132.57C443.914 132.423 443.838 132.243 443.838 132.03C443.838 131.817 443.914 131.64 444.068 131.5C444.221 131.353 444.411 131.28 444.638 131.28C444.864 131.28 445.054 131.35 445.208 131.49C445.361 131.623 445.438 131.793 445.438 132C445.438 132.22 445.361 132.407 445.208 132.56C445.061 132.707 444.871 132.78 444.638 132.78ZM452.128 131.58V139H450.928V138.31C450.721 138.563 450.465 138.753 450.158 138.88C449.858 139.007 449.525 139.07 449.158 139.07C448.645 139.07 448.181 138.957 447.768 138.73C447.361 138.503 447.041 138.183 446.808 137.77C446.575 137.35 446.458 136.87 446.458 136.33C446.458 135.79 446.575 135.313 446.808 134.9C447.041 134.487 447.361 134.167 447.768 133.94C448.181 133.713 448.645 133.6 449.158 133.6C449.511 133.6 449.835 133.66 450.128 133.78C450.421 133.9 450.671 134.08 450.878 134.32V131.58H452.128ZM449.308 138C449.608 138 449.878 137.933 450.118 137.8C450.358 137.66 450.548 137.463 450.688 137.21C450.828 136.957 450.898 136.663 450.898 136.33C450.898 135.997 450.828 135.703 450.688 135.45C450.548 135.197 450.358 135.003 450.118 134.87C449.878 134.73 449.608 134.66 449.308 134.66C449.008 134.66 448.738 134.73 448.498 134.87C448.258 135.003 448.068 135.197 447.928 135.45C447.788 135.703 447.718 135.997 447.718 136.33C447.718 136.663 447.788 136.957 447.928 137.21C448.068 137.463 448.258 137.66 448.498 137.8C448.738 137.933 449.008 138 449.308 138ZM458.783 136.36C458.783 136.447 458.777 136.57 458.763 136.73H454.573C454.647 137.123 454.837 137.437 455.143 137.67C455.457 137.897 455.843 138.01 456.303 138.01C456.89 138.01 457.373 137.817 457.753 137.43L458.423 138.2C458.183 138.487 457.88 138.703 457.513 138.85C457.147 138.997 456.733 139.07 456.273 139.07C455.687 139.07 455.17 138.953 454.723 138.72C454.277 138.487 453.93 138.163 453.683 137.75C453.443 137.33 453.323 136.857 453.323 136.33C453.323 135.81 453.44 135.343 453.673 134.93C453.913 134.51 454.243 134.183 454.663 133.95C455.083 133.717 455.557 133.6 456.083 133.6C456.603 133.6 457.067 133.717 457.473 133.95C457.887 134.177 458.207 134.5 458.433 134.92C458.667 135.333 458.783 135.813 458.783 136.36ZM456.083 134.6C455.683 134.6 455.343 134.72 455.063 134.96C454.79 135.193 454.623 135.507 454.563 135.9H457.593C457.54 135.513 457.377 135.2 457.103 134.96C456.83 134.72 456.49 134.6 456.083 134.6ZM462.384 139.07C461.844 139.07 461.357 138.953 460.924 138.72C460.491 138.487 460.151 138.163 459.904 137.75C459.664 137.33 459.544 136.857 459.544 136.33C459.544 135.803 459.664 135.333 459.904 134.92C460.151 134.507 460.491 134.183 460.924 133.95C461.357 133.717 461.844 133.6 462.384 133.6C462.931 133.6 463.421 133.717 463.854 133.95C464.287 134.183 464.624 134.507 464.864 134.92C465.111 135.333 465.234 135.803 465.234 136.33C465.234 136.857 465.111 137.33 464.864 137.75C464.624 138.163 464.287 138.487 463.854 138.72C463.421 138.953 462.931 139.07 462.384 139.07ZM462.384 138C462.844 138 463.224 137.847 463.524 137.54C463.824 137.233 463.974 136.83 463.974 136.33C463.974 135.83 463.824 135.427 463.524 135.12C463.224 134.813 462.844 134.66 462.384 134.66C461.924 134.66 461.544 134.813 461.244 135.12C460.951 135.427 460.804 135.83 460.804 136.33C460.804 136.83 460.951 137.233 461.244 137.54C461.544 137.847 461.924 138 462.384 138Z" fill="black"/>
<g filter="url(#filter1_d)">
<rect x="20" y="14" width="330" height="245" rx="10" fill="white"/>
</g>
<path d="M47.1597 235.048C46.7277 235.048 46.3411 234.933 45.9997 234.704C45.6637 234.475 45.3997 234.147 45.2077 233.72C45.0211 233.288 44.9277 232.781 44.9277 232.2C44.9277 231.619 45.0211 231.115 45.2077 230.688C45.3997 230.256 45.6637 229.925 45.9997 229.696C46.3411 229.467 46.7277 229.352 47.1597 229.352C47.5917 229.352 47.9757 229.467 48.3117 229.696C48.6531 229.925 48.9197 230.256 49.1117 230.688C49.3037 231.115 49.3997 231.619 49.3997 232.2C49.3997 232.781 49.3037 233.288 49.1117 233.72C48.9197 234.147 48.6531 234.475 48.3117 234.704C47.9757 234.933 47.5917 235.048 47.1597 235.048ZM47.1597 234.52C47.4851 234.52 47.7704 234.429 48.0157 234.248C48.2664 234.067 48.4611 233.803 48.5997 233.456C48.7384 233.109 48.8077 232.691 48.8077 232.2C48.8077 231.709 48.7384 231.291 48.5997 230.944C48.4611 230.597 48.2664 230.333 48.0157 230.152C47.7704 229.971 47.4851 229.88 47.1597 229.88C46.8344 229.88 46.5464 229.971 46.2957 230.152C46.0504 230.333 45.8584 230.597 45.7197 230.944C45.5811 231.291 45.5117 231.709 45.5117 232.2C45.5117 232.691 45.5811 233.109 45.7197 233.456C45.8584 233.803 46.0504 234.067 46.2957 234.248C46.5464 234.429 46.8344 234.52 47.1597 234.52ZM52.4566 232.368L51.3126 233.528V235H50.7206V229.4H51.3126V232.784L54.6006 229.4H55.2806L52.8566 231.936L55.4486 235H54.7446L52.4566 232.368Z" fill="#B4C3D4"/>
<path d="M328.999 162.377H67.9258V162.652H328.999V162.377Z" fill="#AEC3CE"/>
<path d="M328.999 185.652H67.9258V185.928H328.999V185.652Z" fill="#AEC3CE"/>
<path d="M328.999 208.928H67.9258V209.203H328.999V208.928Z" fill="#AEC3CE"/>
<path d="M328.999 232.203H67.9258V232.479H328.999V232.203Z" fill="#AEC3CE"/>
<path d="M328.999 69.2754H67.9258V69.5508H328.999V69.2754Z" fill="#AEC3CE"/>
<path d="M328.999 92.5508H67.9258V92.8262H328.999V92.5508Z" fill="#AEC3CE"/>
<path d="M328.999 115.826H67.9258V116.102H328.999V115.826Z" fill="#AEC3CE"/>
<path d="M328.999 139.102H67.9258V139.377H328.999V139.102Z" fill="#AEC3CE"/>
<path d="M42.968 206.4V212H42.392V206.912H41.072V206.4H42.968ZM46.5386 212.048C46.1066 212.048 45.72 211.933 45.3786 211.704C45.0426 211.475 44.7786 211.147 44.5866 210.72C44.4 210.288 44.3066 209.781 44.3066 209.2C44.3066 208.619 44.4 208.115 44.5866 207.688C44.7786 207.256 45.0426 206.925 45.3786 206.696C45.72 206.467 46.1066 206.352 46.5386 206.352C46.9706 206.352 47.3546 206.467 47.6906 206.696C48.032 206.925 48.2986 207.256 48.4906 207.688C48.6826 208.115 48.7786 208.619 48.7786 209.2C48.7786 209.781 48.6826 210.288 48.4906 210.72C48.2986 211.147 48.032 211.475 47.6906 211.704C47.3546 211.933 46.9706 212.048 46.5386 212.048ZM46.5386 211.52C46.864 211.52 47.1493 211.429 47.3946 211.248C47.6453 211.067 47.84 210.803 47.9786 210.456C48.1173 210.109 48.1866 209.691 48.1866 209.2C48.1866 208.709 48.1173 208.291 47.9786 207.944C47.84 207.597 47.6453 207.333 47.3946 207.152C47.1493 206.971 46.864 206.88 46.5386 206.88C46.2133 206.88 45.9253 206.971 45.6746 207.152C45.4293 207.333 45.2373 207.597 45.0986 207.944C44.96 208.291 44.8906 208.709 44.8906 209.2C44.8906 209.691 44.96 210.109 45.0986 210.456C45.2373 210.803 45.4293 211.067 45.6746 211.248C45.9253 211.429 46.2133 211.52 46.5386 211.52ZM51.8355 209.368L50.6915 210.528V212H50.0995V206.4H50.6915V209.784L53.9795 206.4H54.6595L52.2355 208.936L54.8275 212H54.1235L51.8355 209.368Z" fill="#B4C3D4"/>
<path d="M45.24 188.488V189H41.312V188.592L43.64 186.312C43.9333 186.024 44.1307 185.776 44.232 185.568C44.3387 185.355 44.392 185.141 44.392 184.928C44.392 184.597 44.2773 184.341 44.048 184.16C43.824 183.973 43.5013 183.88 43.08 183.88C42.424 183.88 41.9147 184.088 41.552 184.504L41.144 184.152C41.3627 183.896 41.64 183.699 41.976 183.56C42.3173 183.421 42.7013 183.352 43.128 183.352C43.6987 183.352 44.1493 183.488 44.48 183.76C44.816 184.027 44.984 184.395 44.984 184.864C44.984 185.152 44.92 185.429 44.792 185.696C44.664 185.963 44.4213 186.269 44.064 186.616L42.16 188.488H45.24ZM48.1636 189.048C47.7316 189.048 47.345 188.933 47.0036 188.704C46.6676 188.475 46.4036 188.147 46.2116 187.72C46.025 187.288 45.9316 186.781 45.9316 186.2C45.9316 185.619 46.025 185.115 46.2116 184.688C46.4036 184.256 46.6676 183.925 47.0036 183.696C47.345 183.467 47.7316 183.352 48.1636 183.352C48.5956 183.352 48.9796 183.467 49.3156 183.696C49.657 183.925 49.9236 184.256 50.1156 184.688C50.3076 185.115 50.4036 185.619 50.4036 186.2C50.4036 186.781 50.3076 187.288 50.1156 187.72C49.9236 188.147 49.657 188.475 49.3156 188.704C48.9796 188.933 48.5956 189.048 48.1636 189.048ZM48.1636 188.52C48.489 188.52 48.7743 188.429 49.0196 188.248C49.2703 188.067 49.465 187.803 49.6036 187.456C49.7423 187.109 49.8116 186.691 49.8116 186.2C49.8116 185.709 49.7423 185.291 49.6036 184.944C49.465 184.597 49.2703 184.333 49.0196 184.152C48.7743 183.971 48.489 183.88 48.1636 183.88C47.8383 183.88 47.5503 183.971 47.2996 184.152C47.0543 184.333 46.8623 184.597 46.7236 184.944C46.585 185.291 46.5156 185.709 46.5156 186.2C46.5156 186.691 46.585 187.109 46.7236 187.456C46.8623 187.803 47.0543 188.067 47.2996 188.248C47.5503 188.429 47.8383 188.52 48.1636 188.52ZM53.4605 186.368L52.3165 187.528V189H51.7245V183.4H52.3165V186.784L55.6045 183.4H56.2845L53.8605 185.936L56.4525 189H55.7485L53.4605 186.368Z" fill="#B4C3D4"/>
<path d="M43.32 161.8C43.9067 161.832 44.352 161.992 44.656 162.28C44.9653 162.563 45.12 162.933 45.12 163.392C45.12 163.712 45.0427 163.997 44.888 164.248C44.7333 164.493 44.504 164.688 44.2 164.832C43.896 164.976 43.5253 165.048 43.088 165.048C42.6827 165.048 42.2987 164.984 41.936 164.856C41.5787 164.723 41.2907 164.547 41.072 164.328L41.352 163.872C41.5387 164.064 41.7867 164.221 42.096 164.344C42.4053 164.461 42.736 164.52 43.088 164.52C43.5467 164.52 43.9013 164.421 44.152 164.224C44.4027 164.021 44.528 163.744 44.528 163.392C44.528 163.045 44.4027 162.773 44.152 162.576C43.9013 162.379 43.5227 162.28 43.016 162.28H42.616V161.856L44.168 159.912H41.304V159.4H44.904V159.808L43.32 161.8ZM48.1636 165.048C47.7316 165.048 47.345 164.933 47.0036 164.704C46.6676 164.475 46.4036 164.147 46.2116 163.72C46.025 163.288 45.9316 162.781 45.9316 162.2C45.9316 161.619 46.025 161.115 46.2116 160.688C46.4036 160.256 46.6676 159.925 47.0036 159.696C47.345 159.467 47.7316 159.352 48.1636 159.352C48.5956 159.352 48.9796 159.467 49.3156 159.696C49.657 159.925 49.9236 160.256 50.1156 160.688C50.3076 161.115 50.4036 161.619 50.4036 162.2C50.4036 162.781 50.3076 163.288 50.1156 163.72C49.9236 164.147 49.657 164.475 49.3156 164.704C48.9796 164.933 48.5956 165.048 48.1636 165.048ZM48.1636 164.52C48.489 164.52 48.7743 164.429 49.0196 164.248C49.2703 164.067 49.465 163.803 49.6036 163.456C49.7423 163.109 49.8116 162.691 49.8116 162.2C49.8116 161.709 49.7423 161.291 49.6036 160.944C49.465 160.597 49.2703 160.333 49.0196 160.152C48.7743 159.971 48.489 159.88 48.1636 159.88C47.8383 159.88 47.5503 159.971 47.2996 160.152C47.0543 160.333 46.8623 160.597 46.7236 160.944C46.585 161.291 46.5156 161.709 46.5156 162.2C46.5156 162.691 46.585 163.109 46.7236 163.456C46.8623 163.803 47.0543 164.067 47.2996 164.248C47.5503 164.429 47.8383 164.52 48.1636 164.52ZM53.4605 162.368L52.3165 163.528V165H51.7245V159.4H52.3165V162.784L55.6045 159.4H56.2845L53.8605 161.936L56.4525 165H55.7485L53.4605 162.368Z" fill="#B4C3D4"/>
<path d="M46.176 140.528H45.056V142H44.48V140.528H41.32V140.112L44.288 136.4H44.928L42.064 140.016H44.496V138.72H45.056V140.016H46.176V140.528ZM48.9371 142.048C48.5051 142.048 48.1184 141.933 47.7771 141.704C47.4411 141.475 47.1771 141.147 46.9851 140.72C46.7984 140.288 46.7051 139.781 46.7051 139.2C46.7051 138.619 46.7984 138.115 46.9851 137.688C47.1771 137.256 47.4411 136.925 47.7771 136.696C48.1184 136.467 48.5051 136.352 48.9371 136.352C49.3691 136.352 49.7531 136.467 50.0891 136.696C50.4304 136.925 50.6971 137.256 50.8891 137.688C51.0811 138.115 51.1771 138.619 51.1771 139.2C51.1771 139.781 51.0811 140.288 50.8891 140.72C50.6971 141.147 50.4304 141.475 50.0891 141.704C49.7531 141.933 49.3691 142.048 48.9371 142.048ZM48.9371 141.52C49.2624 141.52 49.5477 141.429 49.7931 141.248C50.0437 141.067 50.2384 140.803 50.3771 140.456C50.5157 140.109 50.5851 139.691 50.5851 139.2C50.5851 138.709 50.5157 138.291 50.3771 137.944C50.2384 137.597 50.0437 137.333 49.7931 137.152C49.5477 136.971 49.2624 136.88 48.9371 136.88C48.6117 136.88 48.3237 136.971 48.0731 137.152C47.8277 137.333 47.6357 137.597 47.4971 137.944C47.3584 138.291 47.2891 138.709 47.2891 139.2C47.2891 139.691 47.3584 140.109 47.4971 140.456C47.6357 140.803 47.8277 141.067 48.0731 141.248C48.3237 141.429 48.6117 141.52 48.9371 141.52ZM54.2339 139.368L53.0899 140.528V142H52.4979V136.4H53.0899V139.784L56.3779 136.4H57.0579L54.6339 138.936L57.2259 142H56.5219L54.2339 139.368Z" fill="#B4C3D4"/>
<path d="M42.888 115.696C43.6987 115.696 44.288 115.843 44.656 116.136C45.0293 116.424 45.216 116.829 45.216 117.352C45.216 117.677 45.1387 117.968 44.984 118.224C44.8347 118.48 44.608 118.683 44.304 118.832C44 118.976 43.6267 119.048 43.184 119.048C42.784 119.048 42.4027 118.984 42.04 118.856C41.6827 118.723 41.3947 118.547 41.176 118.328L41.456 117.872C41.6427 118.064 41.888 118.221 42.192 118.344C42.496 118.461 42.824 118.52 43.176 118.52C43.64 118.52 43.9973 118.416 44.248 118.208C44.504 118 44.632 117.723 44.632 117.376C44.632 116.992 44.488 116.701 44.2 116.504C43.9173 116.307 43.4373 116.208 42.76 116.208H41.568L41.856 113.4H44.92V113.912H42.36L42.168 115.696H42.888ZM48.1793 119.048C47.7473 119.048 47.3606 118.933 47.0193 118.704C46.6833 118.475 46.4193 118.147 46.2273 117.72C46.0406 117.288 45.9473 116.781 45.9473 116.2C45.9473 115.619 46.0406 115.115 46.2273 114.688C46.4193 114.256 46.6833 113.925 47.0193 113.696C47.3606 113.467 47.7473 113.352 48.1793 113.352C48.6113 113.352 48.9953 113.467 49.3313 113.696C49.6726 113.925 49.9393 114.256 50.1313 114.688C50.3233 115.115 50.4193 115.619 50.4193 116.2C50.4193 116.781 50.3233 117.288 50.1313 117.72C49.9393 118.147 49.6726 118.475 49.3313 118.704C48.9953 118.933 48.6113 119.048 48.1793 119.048ZM48.1793 118.52C48.5046 118.52 48.7899 118.429 49.0353 118.248C49.2859 118.067 49.4806 117.803 49.6193 117.456C49.7579 117.109 49.8273 116.691 49.8273 116.2C49.8273 115.709 49.7579 115.291 49.6193 114.944C49.4806 114.597 49.2859 114.333 49.0353 114.152C48.7899 113.971 48.5046 113.88 48.1793 113.88C47.8539 113.88 47.5659 113.971 47.3153 114.152C47.0699 114.333 46.8779 114.597 46.7393 114.944C46.6006 115.291 46.5312 115.709 46.5312 116.2C46.5312 116.691 46.6006 117.109 46.7393 117.456C46.8779 117.803 47.0699 118.067 47.3153 118.248C47.5659 118.429 47.8539 118.52 48.1793 118.52ZM53.4761 116.368L52.3321 117.528V119H51.7401V113.4H52.3321V116.784L55.6201 113.4H56.3001L53.8761 115.936L56.4681 119H55.7641L53.4761 116.368Z" fill="#B4C3D4"/>
<path d="M43.736 92.648C44.104 92.648 44.4293 92.7173 44.712 92.856C45 92.9947 45.224 93.192 45.384 93.448C45.544 93.6987 45.624 93.992 45.624 94.328C45.624 94.6693 45.5413 94.9707 45.376 95.232C45.2107 95.4933 44.9813 95.696 44.688 95.84C44.4 95.9787 44.0747 96.048 43.712 96.048C42.9707 96.048 42.4027 95.8053 42.008 95.32C41.6133 94.8293 41.416 94.1387 41.416 93.248C41.416 92.624 41.5227 92.096 41.736 91.664C41.9493 91.232 42.248 90.9067 42.632 90.688C43.016 90.464 43.464 90.352 43.976 90.352C44.5307 90.352 44.9733 90.4533 45.304 90.656L45.072 91.12C44.8053 90.944 44.4427 90.856 43.984 90.856C43.3653 90.856 42.88 91.0533 42.528 91.448C42.176 91.8373 42 92.4053 42 93.152C42 93.2853 42.008 93.4373 42.024 93.608C42.1627 93.304 42.384 93.0693 42.688 92.904C42.992 92.7333 43.3413 92.648 43.736 92.648ZM43.688 95.56C44.0933 95.56 44.4213 95.4507 44.672 95.232C44.928 95.008 45.056 94.712 45.056 94.344C45.056 93.976 44.928 93.6827 44.672 93.464C44.4213 93.2453 44.08 93.136 43.648 93.136C43.3653 93.136 43.1147 93.1893 42.896 93.296C42.6827 93.4027 42.5147 93.5493 42.392 93.736C42.2693 93.9227 42.208 94.1307 42.208 94.36C42.208 94.5733 42.264 94.7707 42.376 94.952C42.4933 95.1333 42.664 95.28 42.888 95.392C43.112 95.504 43.3787 95.56 43.688 95.56ZM48.523 96.048C48.091 96.048 47.7043 95.9333 47.363 95.704C47.027 95.4747 46.763 95.1467 46.571 94.72C46.3843 94.288 46.291 93.7813 46.291 93.2C46.291 92.6187 46.3843 92.1147 46.571 91.688C46.763 91.256 47.027 90.9253 47.363 90.696C47.7043 90.4667 48.091 90.352 48.523 90.352C48.955 90.352 49.339 90.4667 49.675 90.696C50.0163 90.9253 50.283 91.256 50.475 91.688C50.667 92.1147 50.763 92.6187 50.763 93.2C50.763 93.7813 50.667 94.288 50.475 94.72C50.283 95.1467 50.0163 95.4747 49.675 95.704C49.339 95.9333 48.955 96.048 48.523 96.048ZM48.523 95.52C48.8483 95.52 49.1337 95.4293 49.379 95.248C49.6297 95.0667 49.8243 94.8027 49.963 94.456C50.1017 94.1093 50.171 93.6907 50.171 93.2C50.171 92.7093 50.1017 92.2907 49.963 91.944C49.8243 91.5973 49.6297 91.3333 49.379 91.152C49.1337 90.9707 48.8483 90.88 48.523 90.88C48.1977 90.88 47.9097 90.9707 47.659 91.152C47.4137 91.3333 47.2217 91.5973 47.083 91.944C46.9443 92.2907 46.875 92.7093 46.875 93.2C46.875 93.6907 46.9443 94.1093 47.083 94.456C47.2217 94.8027 47.4137 95.0667 47.659 95.248C47.9097 95.4293 48.1977 95.52 48.523 95.52ZM53.8199 93.368L52.6759 94.528V96H52.0839V90.4H52.6759V93.784L55.9639 90.4H56.6439L54.2199 92.936L56.8119 96H56.1079L53.8199 93.368Z" fill="#B4C3D4"/>
<path d="M45.368 66.4V66.808L43.024 72H42.4L44.704 66.912H41.824V67.96H41.256V66.4H45.368ZM48.2027 72.048C47.7707 72.048 47.384 71.9333 47.0427 71.704C46.7067 71.4747 46.4427 71.1467 46.2507 70.72C46.064 70.288 45.9707 69.7813 45.9707 69.2C45.9707 68.6187 46.064 68.1147 46.2507 67.688C46.4427 67.256 46.7067 66.9253 47.0427 66.696C47.384 66.4667 47.7707 66.352 48.2027 66.352C48.6347 66.352 49.0187 66.4667 49.3547 66.696C49.696 66.9253 49.9627 67.256 50.1547 67.688C50.3467 68.1147 50.4427 68.6187 50.4427 69.2C50.4427 69.7813 50.3467 70.288 50.1547 70.72C49.9627 71.1467 49.696 71.4747 49.3547 71.704C49.0187 71.9333 48.6347 72.048 48.2027 72.048ZM48.2027 71.52C48.528 71.52 48.8134 71.4293 49.0587 71.248C49.3094 71.0667 49.504 70.8027 49.6427 70.456C49.7814 70.1093 49.8507 69.6907 49.8507 69.2C49.8507 68.7093 49.7814 68.2907 49.6427 67.944C49.504 67.5973 49.3094 67.3333 49.0587 67.152C48.8134 66.9707 48.528 66.88 48.2027 66.88C47.8774 66.88 47.5894 66.9707 47.3387 67.152C47.0934 67.3333 46.9014 67.5973 46.7627 67.944C46.624 68.2907 46.5547 68.7093 46.5547 69.2C46.5547 69.6907 46.624 70.1093 46.7627 70.456C46.9014 70.8027 47.0934 71.0667 47.3387 71.248C47.5894 71.4293 47.8774 71.52 48.2027 71.52ZM53.4996 69.368L52.3556 70.528V72H51.7636V66.4H52.3556V69.784L55.6436 66.4H56.3236L53.8996 68.936L56.4916 72H55.7876L53.4996 69.368Z" fill="#B4C3D4"/>
<path d="M46.9 41.36C47.2867 41.4867 47.5933 41.7 47.82 42C48.0467 42.2933 48.16 42.66 48.16 43.1C48.16 43.7067 47.9267 44.1767 47.46 44.51C46.9933 44.8367 46.3133 45 45.42 45H41.94V38H45.22C46.0467 38 46.6833 38.1633 47.13 38.49C47.5767 38.81 47.8 39.2533 47.8 39.82C47.8 40.1667 47.72 40.4733 47.56 40.74C47.4 41.0067 47.18 41.2133 46.9 41.36ZM43.24 39.02V40.95H45.08C45.5333 40.95 45.88 40.87 46.12 40.71C46.3667 40.5433 46.49 40.3033 46.49 39.99C46.49 39.67 46.3667 39.43 46.12 39.27C45.88 39.1033 45.5333 39.02 45.08 39.02H43.24ZM45.34 43.98C46.3467 43.98 46.85 43.6433 46.85 42.97C46.85 42.2967 46.3467 41.96 45.34 41.96H43.24V43.98H45.34ZM49.4274 39.66H50.6774V45H49.4274V39.66ZM50.0574 38.78C49.8308 38.78 49.6408 38.71 49.4874 38.57C49.3341 38.4233 49.2574 38.2433 49.2574 38.03C49.2574 37.8167 49.3341 37.64 49.4874 37.5C49.6408 37.3533 49.8308 37.28 50.0574 37.28C50.2841 37.28 50.4741 37.35 50.6274 37.49C50.7808 37.6233 50.8574 37.7933 50.8574 38C50.8574 38.22 50.7808 38.4067 50.6274 38.56C50.4808 38.7067 50.2908 38.78 50.0574 38.78ZM57.548 37.58V45H56.348V44.31C56.1414 44.5633 55.8847 44.7533 55.578 44.88C55.278 45.0067 54.9447 45.07 54.578 45.07C54.0647 45.07 53.6014 44.9567 53.188 44.73C52.7814 44.5033 52.4614 44.1833 52.228 43.77C51.9947 43.35 51.878 42.87 51.878 42.33C51.878 41.79 51.9947 41.3133 52.228 40.9C52.4614 40.4867 52.7814 40.1667 53.188 39.94C53.6014 39.7133 54.0647 39.6 54.578 39.6C54.9314 39.6 55.2547 39.66 55.548 39.78C55.8414 39.9 56.0914 40.08 56.298 40.32V37.58H57.548ZM54.728 44C55.028 44 55.298 43.9333 55.538 43.8C55.778 43.66 55.968 43.4633 56.108 43.21C56.248 42.9567 56.318 42.6633 56.318 42.33C56.318 41.9967 56.248 41.7033 56.108 41.45C55.968 41.1967 55.778 41.0033 55.538 40.87C55.298 40.73 55.028 40.66 54.728 40.66C54.428 40.66 54.158 40.73 53.918 40.87C53.678 41.0033 53.488 41.1967 53.348 41.45C53.208 41.7033 53.138 41.9967 53.138 42.33C53.138 42.6633 53.208 42.9567 53.348 43.21C53.488 43.4633 53.678 43.66 53.918 43.8C54.158 43.9333 54.428 44 54.728 44ZM60.8333 45.07C60.3999 45.07 59.9766 45.0133 59.5633 44.9C59.1499 44.7867 58.8199 44.6433 58.5733 44.47L59.0533 43.52C59.2933 43.68 59.5799 43.81 59.9133 43.91C60.2533 44.0033 60.5866 44.05 60.9133 44.05C61.6599 44.05 62.0333 43.8533 62.0333 43.46C62.0333 43.2733 61.9366 43.1433 61.7433 43.07C61.5566 42.9967 61.2533 42.9267 60.8333 42.86C60.3933 42.7933 60.0333 42.7167 59.7533 42.63C59.4799 42.5433 59.2399 42.3933 59.0333 42.18C58.8333 41.96 58.7333 41.6567 58.7333 41.27C58.7333 40.7633 58.9433 40.36 59.3633 40.06C59.7899 39.7533 60.3633 39.6 61.0833 39.6C61.4499 39.6 61.8166 39.6433 62.1833 39.73C62.5499 39.81 62.8499 39.92 63.0833 40.06L62.6033 41.01C62.1499 40.7433 61.6399 40.61 61.0733 40.61C60.7066 40.61 60.4266 40.6667 60.2333 40.78C60.0466 40.8867 59.9533 41.03 59.9533 41.21C59.9533 41.41 60.0533 41.5533 60.2533 41.64C60.4599 41.72 60.7766 41.7967 61.2033 41.87C61.6299 41.9367 61.9799 42.0133 62.2533 42.1C62.5266 42.1867 62.7599 42.3333 62.9533 42.54C63.1533 42.7467 63.2533 43.04 63.2533 43.42C63.2533 43.92 63.0366 44.32 62.6033 44.62C62.1699 44.92 61.5799 45.07 60.8333 45.07Z" fill="black"/>
<path d="M85.94 38H87.24V45H85.94V38ZM95.7534 39.6C96.4267 39.6 96.96 39.7967 97.3534 40.19C97.7467 40.5767 97.9434 41.16 97.9434 41.94V45H96.6934V42.1C96.6934 41.6333 96.59 41.2833 96.3834 41.05C96.1767 40.81 95.88 40.69 95.4934 40.69C95.0734 40.69 94.7367 40.83 94.4834 41.11C94.23 41.3833 94.1034 41.7767 94.1034 42.29V45H92.8534V42.1C92.8534 41.6333 92.75 41.2833 92.5434 41.05C92.3367 40.81 92.04 40.69 91.6534 40.69C91.2267 40.69 90.8867 40.8267 90.6334 41.1C90.3867 41.3733 90.2634 41.77 90.2634 42.29V45H89.0134V39.66H90.2034V40.34C90.4034 40.1 90.6534 39.9167 90.9534 39.79C91.2534 39.6633 91.5867 39.6 91.9534 39.6C92.3534 39.6 92.7067 39.6767 93.0134 39.83C93.3267 39.9767 93.5734 40.1967 93.7534 40.49C93.9734 40.21 94.2567 39.9933 94.6034 39.84C94.95 39.68 95.3334 39.6 95.7534 39.6ZM102.501 39.6C103.021 39.6 103.484 39.7133 103.891 39.94C104.304 40.1667 104.627 40.4867 104.861 40.9C105.094 41.3133 105.211 41.79 105.211 42.33C105.211 42.87 105.094 43.35 104.861 43.77C104.627 44.1833 104.304 44.5033 103.891 44.73C103.484 44.9567 103.021 45.07 102.501 45.07C101.781 45.07 101.211 44.83 100.791 44.35V46.94H99.5407V39.66H100.731V40.36C100.937 40.1067 101.191 39.9167 101.491 39.79C101.797 39.6633 102.134 39.6 102.501 39.6ZM102.361 44C102.821 44 103.197 43.8467 103.491 43.54C103.791 43.2333 103.941 42.83 103.941 42.33C103.941 41.83 103.791 41.4267 103.491 41.12C103.197 40.8133 102.821 40.66 102.361 40.66C102.061 40.66 101.791 40.73 101.551 40.87C101.311 41.0033 101.121 41.1967 100.981 41.45C100.841 41.7033 100.771 41.9967 100.771 42.33C100.771 42.6633 100.841 42.9567 100.981 43.21C101.121 43.4633 101.311 43.66 101.551 43.8C101.791 43.9333 102.061 44 102.361 44ZM107.586 40.44C107.946 39.88 108.58 39.6 109.486 39.6V40.79C109.38 40.77 109.283 40.76 109.196 40.76C108.71 40.76 108.33 40.9033 108.056 41.19C107.783 41.47 107.646 41.8767 107.646 42.41V45H106.396V39.66H107.586V40.44ZM115.518 42.36C115.518 42.4467 115.511 42.57 115.498 42.73H111.308C111.381 43.1233 111.571 43.4367 111.878 43.67C112.191 43.8967 112.578 44.01 113.038 44.01C113.624 44.01 114.108 43.8167 114.488 43.43L115.158 44.2C114.918 44.4867 114.614 44.7033 114.248 44.85C113.881 44.9967 113.468 45.07 113.008 45.07C112.421 45.07 111.904 44.9533 111.458 44.72C111.011 44.4867 110.664 44.1633 110.418 43.75C110.178 43.33 110.058 42.8567 110.058 42.33C110.058 41.81 110.174 41.3433 110.408 40.93C110.648 40.51 110.978 40.1833 111.398 39.95C111.818 39.7167 112.291 39.6 112.818 39.6C113.338 39.6 113.801 39.7167 114.208 39.95C114.621 40.1767 114.941 40.5 115.168 40.92C115.401 41.3333 115.518 41.8133 115.518 42.36ZM112.818 40.6C112.418 40.6 112.078 40.72 111.798 40.96C111.524 41.1933 111.358 41.5067 111.298 41.9H114.328C114.274 41.5133 114.111 41.2 113.838 40.96C113.564 40.72 113.224 40.6 112.818 40.6ZM118.368 45.07C117.935 45.07 117.512 45.0133 117.098 44.9C116.685 44.7867 116.355 44.6433 116.108 44.47L116.588 43.52C116.828 43.68 117.115 43.81 117.448 43.91C117.788 44.0033 118.122 44.05 118.448 44.05C119.195 44.05 119.568 43.8533 119.568 43.46C119.568 43.2733 119.472 43.1433 119.278 43.07C119.092 42.9967 118.788 42.9267 118.368 42.86C117.928 42.7933 117.568 42.7167 117.288 42.63C117.015 42.5433 116.775 42.3933 116.568 42.18C116.368 41.96 116.268 41.6567 116.268 41.27C116.268 40.7633 116.478 40.36 116.898 40.06C117.325 39.7533 117.898 39.6 118.618 39.6C118.985 39.6 119.352 39.6433 119.718 39.73C120.085 39.81 120.385 39.92 120.618 40.06L120.138 41.01C119.685 40.7433 119.175 40.61 118.608 40.61C118.242 40.61 117.962 40.6667 117.768 40.78C117.582 40.8867 117.488 41.03 117.488 41.21C117.488 41.41 117.588 41.5533 117.788 41.64C117.995 41.72 118.312 41.7967 118.738 41.87C119.165 41.9367 119.515 42.0133 119.788 42.1C120.062 42.1867 120.295 42.3333 120.488 42.54C120.688 42.7467 120.788 43.04 120.788 43.42C120.788 43.92 120.572 44.32 120.138 44.62C119.705 44.92 119.115 45.07 118.368 45.07ZM123.515 45.07C123.082 45.07 122.658 45.0133 122.245 44.9C121.832 44.7867 121.502 44.6433 121.255 44.47L121.735 43.52C121.975 43.68 122.262 43.81 122.595 43.91C122.935 44.0033 123.268 44.05 123.595 44.05C124.342 44.05 124.715 43.8533 124.715 43.46C124.715 43.2733 124.618 43.1433 124.425 43.07C124.238 42.9967 123.935 42.9267 123.515 42.86C123.075 42.7933 122.715 42.7167 122.435 42.63C122.162 42.5433 121.922 42.3933 121.715 42.18C121.515 41.96 121.415 41.6567 121.415 41.27C121.415 40.7633 121.625 40.36 122.045 40.06C122.472 39.7533 123.045 39.6 123.765 39.6C124.132 39.6 124.498 39.6433 124.865 39.73C125.232 39.81 125.532 39.92 125.765 40.06L125.285 41.01C124.832 40.7433 124.322 40.61 123.755 40.61C123.388 40.61 123.108 40.6667 122.915 40.78C122.728 40.8867 122.635 41.03 122.635 41.21C122.635 41.41 122.735 41.5533 122.935 41.64C123.142 41.72 123.458 41.7967 123.885 41.87C124.312 41.9367 124.662 42.0133 124.935 42.1C125.208 42.1867 125.442 42.3333 125.635 42.54C125.835 42.7467 125.935 43.04 125.935 43.42C125.935 43.92 125.718 44.32 125.285 44.62C124.852 44.92 124.262 45.07 123.515 45.07ZM127.011 39.66H128.261V45H127.011V39.66ZM127.641 38.78C127.415 38.78 127.225 38.71 127.071 38.57C126.918 38.4233 126.841 38.2433 126.841 38.03C126.841 37.8167 126.918 37.64 127.071 37.5C127.225 37.3533 127.415 37.28 127.641 37.28C127.868 37.28 128.058 37.35 128.211 37.49C128.365 37.6233 128.441 37.7933 128.441 38C128.441 38.22 128.365 38.4067 128.211 38.56C128.065 38.7067 127.875 38.78 127.641 38.78ZM132.302 45.07C131.762 45.07 131.275 44.9533 130.842 44.72C130.409 44.4867 130.069 44.1633 129.822 43.75C129.582 43.33 129.462 42.8567 129.462 42.33C129.462 41.8033 129.582 41.3333 129.822 40.92C130.069 40.5067 130.409 40.1833 130.842 39.95C131.275 39.7167 131.762 39.6 132.302 39.6C132.849 39.6 133.339 39.7167 133.772 39.95C134.205 40.1833 134.542 40.5067 134.782 40.92C135.029 41.3333 135.152 41.8033 135.152 42.33C135.152 42.8567 135.029 43.33 134.782 43.75C134.542 44.1633 134.205 44.4867 133.772 44.72C133.339 44.9533 132.849 45.07 132.302 45.07ZM132.302 44C132.762 44 133.142 43.8467 133.442 43.54C133.742 43.2333 133.892 42.83 133.892 42.33C133.892 41.83 133.742 41.4267 133.442 41.12C133.142 40.8133 132.762 40.66 132.302 40.66C131.842 40.66 131.462 40.8133 131.162 41.12C130.869 41.4267 130.722 41.83 130.722 42.33C130.722 42.83 130.869 43.2333 131.162 43.54C131.462 43.8467 131.842 44 132.302 44ZM139.377 39.6C140.051 39.6 140.591 39.7967 140.997 40.19C141.404 40.5833 141.607 41.1667 141.607 41.94V45H140.357V42.1C140.357 41.6333 140.247 41.2833 140.027 41.05C139.807 40.81 139.494 40.69 139.087 40.69C138.627 40.69 138.264 40.83 137.997 41.11C137.731 41.3833 137.597 41.78 137.597 42.3V45H136.347V39.66H137.537V40.35C137.744 40.1033 138.004 39.9167 138.317 39.79C138.631 39.6633 138.984 39.6 139.377 39.6ZM144.843 45.07C144.41 45.07 143.986 45.0133 143.573 44.9C143.16 44.7867 142.83 44.6433 142.583 44.47L143.063 43.52C143.303 43.68 143.59 43.81 143.923 43.91C144.263 44.0033 144.596 44.05 144.923 44.05C145.67 44.05 146.043 43.8533 146.043 43.46C146.043 43.2733 145.946 43.1433 145.753 43.07C145.566 42.9967 145.263 42.9267 144.843 42.86C144.403 42.7933 144.043 42.7167 143.763 42.63C143.49 42.5433 143.25 42.3933 143.043 42.18C142.843 41.96 142.743 41.6567 142.743 41.27C142.743 40.7633 142.953 40.36 143.373 40.06C143.8 39.7533 144.373 39.6 145.093 39.6C145.46 39.6 145.826 39.6433 146.193 39.73C146.56 39.81 146.86 39.92 147.093 40.06L146.613 41.01C146.16 40.7433 145.65 40.61 145.083 40.61C144.716 40.61 144.436 40.6667 144.243 40.78C144.056 40.8867 143.963 41.03 143.963 41.21C143.963 41.41 144.063 41.5533 144.263 41.64C144.47 41.72 144.786 41.7967 145.213 41.87C145.64 41.9367 145.99 42.0133 146.263 42.1C146.536 42.1867 146.77 42.3333 146.963 42.54C147.163 42.7467 147.263 43.04 147.263 43.42C147.263 43.92 147.046 44.32 146.613 44.62C146.18 44.92 145.59 45.07 144.843 45.07Z" fill="black"/>
<path d="M170.18 45.1C169.473 45.1 168.833 44.9467 168.26 44.64C167.693 44.3267 167.247 43.8967 166.92 43.35C166.6 42.8033 166.44 42.1867 166.44 41.5C166.44 40.8133 166.603 40.1967 166.93 39.65C167.257 39.1033 167.703 38.6767 168.27 38.37C168.843 38.0567 169.483 37.9 170.19 37.9C170.763 37.9 171.287 38 171.76 38.2C172.233 38.4 172.633 38.69 172.96 39.07L172.12 39.86C171.613 39.3133 170.99 39.04 170.25 39.04C169.77 39.04 169.34 39.1467 168.96 39.36C168.58 39.5667 168.283 39.8567 168.07 40.23C167.857 40.6033 167.75 41.0267 167.75 41.5C167.75 41.9733 167.857 42.3967 168.07 42.77C168.283 43.1433 168.58 43.4367 168.96 43.65C169.34 43.8567 169.77 43.96 170.25 43.96C170.99 43.96 171.613 43.6833 172.12 43.13L172.96 43.93C172.633 44.31 172.23 44.6 171.75 44.8C171.277 45 170.753 45.1 170.18 45.1ZM174.086 37.58H175.336V45H174.086V37.58ZM176.976 39.66H178.226V45H176.976V39.66ZM177.606 38.78C177.38 38.78 177.19 38.71 177.036 38.57C176.883 38.4233 176.806 38.2433 176.806 38.03C176.806 37.8167 176.883 37.64 177.036 37.5C177.19 37.3533 177.38 37.28 177.606 37.28C177.833 37.28 178.023 37.35 178.176 37.49C178.33 37.6233 178.406 37.7933 178.406 38C178.406 38.22 178.33 38.4067 178.176 38.56C178.03 38.7067 177.84 38.78 177.606 38.78ZM182.317 45.07C181.764 45.07 181.267 44.9533 180.827 44.72C180.387 44.4867 180.044 44.1633 179.797 43.75C179.55 43.33 179.427 42.8567 179.427 42.33C179.427 41.8033 179.55 41.3333 179.797 40.92C180.044 40.5067 180.384 40.1833 180.817 39.95C181.257 39.7167 181.757 39.6 182.317 39.6C182.844 39.6 183.304 39.7067 183.697 39.92C184.097 40.1333 184.397 40.44 184.597 40.84L183.637 41.4C183.484 41.1533 183.29 40.97 183.057 40.85C182.83 40.7233 182.58 40.66 182.307 40.66C181.84 40.66 181.454 40.8133 181.147 41.12C180.84 41.42 180.687 41.8233 180.687 42.33C180.687 42.8367 180.837 43.2433 181.137 43.55C181.444 43.85 181.834 44 182.307 44C182.58 44 182.83 43.94 183.057 43.82C183.29 43.6933 183.484 43.5067 183.637 43.26L184.597 43.82C184.39 44.22 184.087 44.53 183.687 44.75C183.294 44.9633 182.837 45.07 182.317 45.07ZM187.809 42.71L186.879 43.59V45H185.629V37.58H186.879V42.06L189.469 39.66H190.969L188.739 41.9L191.179 45H189.659L187.809 42.71ZM193.47 45.07C193.037 45.07 192.613 45.0133 192.2 44.9C191.787 44.7867 191.457 44.6433 191.21 44.47L191.69 43.52C191.93 43.68 192.217 43.81 192.55 43.91C192.89 44.0033 193.223 44.05 193.55 44.05C194.297 44.05 194.67 43.8533 194.67 43.46C194.67 43.2733 194.573 43.1433 194.38 43.07C194.193 42.9967 193.89 42.9267 193.47 42.86C193.03 42.7933 192.67 42.7167 192.39 42.63C192.117 42.5433 191.877 42.3933 191.67 42.18C191.47 41.96 191.37 41.6567 191.37 41.27C191.37 40.7633 191.58 40.36 192 40.06C192.427 39.7533 193 39.6 193.72 39.6C194.087 39.6 194.453 39.6433 194.82 39.73C195.187 39.81 195.487 39.92 195.72 40.06L195.24 41.01C194.787 40.7433 194.277 40.61 193.71 40.61C193.343 40.61 193.063 40.6667 192.87 40.78C192.683 40.8867 192.59 41.03 192.59 41.21C192.59 41.41 192.69 41.5533 192.89 41.64C193.097 41.72 193.413 41.7967 193.84 41.87C194.267 41.9367 194.617 42.0133 194.89 42.1C195.163 42.1867 195.397 42.3333 195.59 42.54C195.79 42.7467 195.89 43.04 195.89 43.42C195.89 43.92 195.673 44.32 195.24 44.62C194.807 44.92 194.217 45.07 193.47 45.07Z" fill="black"/>
<rect x="179" y="244" width="4" height="4" rx="1" fill="#811C90"/>
<rect x="187" y="244" width="4" height="4" rx="1" fill="#FBB640"/>
<rect x="195" y="244" width="4" height="4" rx="1" fill="black"/>
<path d="M73 232.5L99.0469 218.334C100.652 217.461 101.987 216.166 102.907 214.588L127.533 172.371C128.798 170.203 130.832 168.59 133.23 167.852L164.042 158.372C166.868 157.502 169.164 155.427 170.314 152.703L184.781 118.44C186.414 114.572 190.289 112.137 194.482 112.342L255.726 115.34C257.853 115.444 259.958 114.866 261.734 113.691L328.5 69.5" stroke="#FBB640" stroke-width="2"/>
<path d="M73 232L100.299 220.818C101.133 220.477 102.009 220.25 102.904 220.143L140.793 215.619C142.011 215.473 143.192 215.105 144.277 214.532L179.824 195.757C180.743 195.272 181.732 194.933 182.756 194.752L208.097 190.277C210.899 189.783 213.357 188.118 214.857 185.701L234.993 153.237C236.286 151.152 238.3 149.615 240.652 148.919L310.191 128.332C312.025 127.789 313.665 126.731 314.916 125.284L329 109" stroke="#740B99" stroke-width="2"/>
<path d="M73 232L100.821 225.978C101.31 225.872 101.807 225.803 102.306 225.772L141.588 223.293C142.285 223.249 142.975 223.132 143.647 222.945L179.892 212.828C180.768 212.584 181.672 212.46 182.581 212.46H233.106C236.194 212.46 239.108 211.034 241.003 208.596L261.664 182.007C263.169 180.07 265.333 178.754 267.744 178.309L329 167" stroke="black" stroke-width="2"/>
<defs>
<filter id="filter0_d" x="344" y="0" width="216" height="285" filterUnits="userSpaceOnUse" color-interpolation-filters="sRGB">
<feFlood flood-opacity="0" result="BackgroundImageFix"/>
<feColorMatrix in="SourceAlpha" type="matrix" values="0 0 0 0 0 0 0 0 0 0 0 0 0 0 0 0 0 0 127 0"/>
<feOffset dy="7"/>
<feGaussianBlur stdDeviation="10"/>
<feColorMatrix type="matrix" values="0 0 0 0 0 0 0 0 0 0 0 0 0 0 0 0 0 0 0.1 0"/>
<feBlend mode="normal" in2="BackgroundImageFix" result="effect1_dropShadow"/>
<feBlend mode="normal" in="SourceGraphic" in2="effect1_dropShadow" result="shape"/>
</filter>
<filter id="filter1_d" x="0" y="1" width="370" height="285" filterUnits="userSpaceOnUse" color-interpolation-filters="sRGB">
<feFlood flood-opacity="0" result="BackgroundImageFix"/>
<feColorMatrix in="SourceAlpha" type="matrix" values="0 0 0 0 0 0 0 0 0 0 0 0 0 0 0 0 0 0 127 0"/>
<feOffset dy="7"/>
<feGaussianBlur stdDeviation="10"/>
<feColorMatrix type="matrix" values="0 0 0 0 0 0 0 0 0 0 0 0 0 0 0 0 0 0 0.1 0"/>
<feBlend mode="normal" in2="BackgroundImageFix" result="effect1_dropShadow"/>
<feBlend mode="normal" in="SourceGraphic" in2="effect1_dropShadow" result="shape"/>
</filter>
</defs>
</svg>
