<svg width="558" height="285" viewBox="0 0 558 285" fill="none" xmlns="http://www.w3.org/2000/svg">
<g filter="url(#filter0_d)">
<rect x="20" y="13" width="330" height="245" rx="10" fill="white"/>
</g>
<path d="M46.648 234.048C46.216 234.048 45.8293 233.933 45.488 233.704C45.152 233.475 44.888 233.147 44.696 232.72C44.5093 232.288 44.416 231.781 44.416 231.2C44.416 230.619 44.5093 230.115 44.696 229.688C44.888 229.256 45.152 228.925 45.488 228.696C45.8293 228.467 46.216 228.352 46.648 228.352C47.08 228.352 47.464 228.467 47.8 228.696C48.1413 228.925 48.408 229.256 48.6 229.688C48.792 230.115 48.888 230.619 48.888 231.2C48.888 231.781 48.792 232.288 48.6 232.72C48.408 233.147 48.1413 233.475 47.8 233.704C47.464 233.933 47.08 234.048 46.648 234.048ZM46.648 233.52C46.9733 233.52 47.2587 233.429 47.504 233.248C47.7547 233.067 47.9493 232.803 48.088 232.456C48.2267 232.109 48.296 231.691 48.296 231.2C48.296 230.709 48.2267 230.291 48.088 229.944C47.9493 229.597 47.7547 229.333 47.504 229.152C47.2587 228.971 46.9733 228.88 46.648 228.88C46.3227 228.88 46.0347 228.971 45.784 229.152C45.5387 229.333 45.3467 229.597 45.208 229.944C45.0693 230.291 45 230.709 45 231.2C45 231.691 45.0693 232.109 45.208 232.456C45.3467 232.803 45.5387 233.067 45.784 233.248C46.0347 233.429 46.3227 233.52 46.648 233.52ZM51.6489 231.888L50.6569 232.8V234H50.0889V228.064H50.6569V232.088L53.1689 229.792H53.8729L52.0729 231.512L54.0409 234H53.3449L51.6489 231.888ZM58.6456 232.52C58.6456 232.931 58.4882 233.28 58.1736 233.568C57.8589 233.851 57.3976 234.008 56.7896 234.04V234.96H56.3896V234.048C56.0002 234.027 55.6322 233.952 55.2856 233.824C54.9442 233.691 54.6749 233.523 54.4776 233.32L54.7096 232.864C54.8962 233.045 55.1389 233.197 55.4376 233.32C55.7416 233.443 56.0589 233.515 56.3896 233.536V231.432C56.0216 231.341 55.7149 231.245 55.4696 231.144C55.2242 231.037 55.0189 230.885 54.8536 230.688C54.6936 230.485 54.6136 230.219 54.6136 229.888C54.6136 229.477 54.7629 229.133 55.0616 228.856C55.3602 228.573 55.8029 228.408 56.3896 228.36V227.44H56.7896V228.352C57.0936 228.363 57.3869 228.413 57.6696 228.504C57.9576 228.589 58.2056 228.704 58.4136 228.848L58.2136 229.32C57.9949 229.181 57.7629 229.072 57.5176 228.992C57.2722 228.912 57.0296 228.867 56.7896 228.856V230.976C57.1842 231.072 57.5069 231.171 57.7576 231.272C58.0082 231.368 58.2189 231.517 58.3896 231.72C58.5602 231.923 58.6456 232.189 58.6456 232.52ZM55.1976 229.872C55.1976 230.149 55.2989 230.36 55.5016 230.504C55.7096 230.648 56.0056 230.771 56.3896 230.872V228.872C55.9949 228.904 55.6962 229.013 55.4936 229.2C55.2962 229.381 55.1976 229.605 55.1976 229.872ZM56.7896 233.536C57.2109 233.504 57.5282 233.4 57.7416 233.224C57.9549 233.048 58.0616 232.824 58.0616 232.552C58.0616 232.264 57.9522 232.048 57.7336 231.904C57.5149 231.76 57.2002 231.637 56.7896 231.536V233.536Z" fill="#B4C3D4"/>
<path d="M328.999 161.377H67.9258V161.652H328.999V161.377Z" fill="#AEC3CE"/>
<path d="M328.999 184.652H67.9258V184.928H328.999V184.652Z" fill="#AEC3CE"/>
<path d="M328.999 207.928H67.9258V208.203H328.999V207.928Z" fill="#AEC3CE"/>
<path d="M328.999 231.203H67.9258V231.479H328.999V231.203Z" fill="#AEC3CE"/>
<path d="M328.999 68.2754H67.9258V68.5508H328.999V68.2754Z" fill="#AEC3CE"/>
<path d="M328.999 91.5508H67.9258V91.8262H328.999V91.5508Z" fill="#AEC3CE"/>
<path d="M328.999 114.826H67.9258V115.102H328.999V114.826Z" fill="#AEC3CE"/>
<path d="M328.999 138.102H67.9258V138.377H328.999V138.102Z" fill="#AEC3CE"/>
<path d="M47.968 205.4V211H47.392V205.912H46.072V205.4H47.968ZM51.2426 208.888L50.2506 209.8V211H49.6826V205.064H50.2506V209.088L52.7626 206.792H53.4666L51.6666 208.512L53.6346 211H52.9386L51.2426 208.888ZM58.2393 209.52C58.2393 209.931 58.082 210.28 57.7673 210.568C57.4526 210.851 56.9913 211.008 56.3833 211.04V211.96H55.9833V211.048C55.594 211.027 55.226 210.952 54.8793 210.824C54.538 210.691 54.2686 210.523 54.0713 210.32L54.3033 209.864C54.49 210.045 54.7326 210.197 55.0313 210.32C55.3353 210.443 55.6526 210.515 55.9833 210.536V208.432C55.6153 208.341 55.3086 208.245 55.0633 208.144C54.818 208.037 54.6126 207.885 54.4473 207.688C54.2873 207.485 54.2073 207.219 54.2073 206.888C54.2073 206.477 54.3566 206.133 54.6553 205.856C54.954 205.573 55.3966 205.408 55.9833 205.36V204.44H56.3833V205.352C56.6873 205.363 56.9806 205.413 57.2633 205.504C57.5513 205.589 57.7993 205.704 58.0073 205.848L57.8073 206.32C57.5886 206.181 57.3566 206.072 57.1113 205.992C56.866 205.912 56.6233 205.867 56.3833 205.856V207.976C56.778 208.072 57.1006 208.171 57.3513 208.272C57.602 208.368 57.8126 208.517 57.9833 208.72C58.154 208.923 58.2393 209.189 58.2393 209.52ZM54.7913 206.872C54.7913 207.149 54.8926 207.36 55.0953 207.504C55.3033 207.648 55.5993 207.771 55.9833 207.872V205.872C55.5886 205.904 55.29 206.013 55.0873 206.2C54.89 206.381 54.7913 206.605 54.7913 206.872ZM56.3833 210.536C56.8046 210.504 57.122 210.4 57.3353 210.224C57.5486 210.048 57.6553 209.824 57.6553 209.552C57.6553 209.264 57.546 209.048 57.3273 208.904C57.1086 208.76 56.794 208.637 56.3833 208.536V210.536Z" fill="#B4C3D4"/>
<path d="M41.968 182.4V188H41.392V182.912H40.072V182.4H41.968ZM43.7386 188.04C43.6213 188.04 43.52 187.997 43.4346 187.912C43.3546 187.827 43.3146 187.723 43.3146 187.6C43.3146 187.477 43.3546 187.376 43.4346 187.296C43.52 187.211 43.6213 187.168 43.7386 187.168C43.856 187.168 43.9573 187.211 44.0426 187.296C44.128 187.376 44.1706 187.477 44.1706 187.6C44.1706 187.723 44.128 187.827 44.0426 187.912C43.9573 187.997 43.856 188.04 43.7386 188.04ZM46.4739 184.696C47.2846 184.696 47.8739 184.843 48.2419 185.136C48.6153 185.424 48.8019 185.829 48.8019 186.352C48.8019 186.677 48.7246 186.968 48.5699 187.224C48.4206 187.48 48.1939 187.683 47.8899 187.832C47.5859 187.976 47.2126 188.048 46.7699 188.048C46.3699 188.048 45.9886 187.984 45.6259 187.856C45.2686 187.723 44.9806 187.547 44.7619 187.328L45.0419 186.872C45.2286 187.064 45.4739 187.221 45.7779 187.344C46.0819 187.461 46.4099 187.52 46.7619 187.52C47.2259 187.52 47.5833 187.416 47.8339 187.208C48.0899 187 48.2179 186.723 48.2179 186.376C48.2179 185.992 48.0739 185.701 47.7859 185.504C47.5033 185.307 47.0233 185.208 46.3459 185.208H45.1539L45.4419 182.4H48.5059V182.912H45.9459L45.7539 184.696H46.4739ZM51.4692 185.888L50.4772 186.8V188H49.9092V182.064H50.4772V186.088L52.9892 183.792H53.6932L51.8932 185.512L53.8612 188H53.1652L51.4692 185.888ZM58.4659 186.52C58.4659 186.931 58.3085 187.28 57.9939 187.568C57.6792 187.851 57.2179 188.008 56.6099 188.04V188.96H56.2099V188.048C55.8205 188.027 55.4525 187.952 55.1059 187.824C54.7645 187.691 54.4952 187.523 54.2979 187.32L54.5299 186.864C54.7165 187.045 54.9592 187.197 55.2579 187.32C55.5619 187.443 55.8792 187.515 56.2099 187.536V185.432C55.8419 185.341 55.5352 185.245 55.2899 185.144C55.0445 185.037 54.8392 184.885 54.6739 184.688C54.5139 184.485 54.4339 184.219 54.4339 183.888C54.4339 183.477 54.5832 183.133 54.8819 182.856C55.1805 182.573 55.6232 182.408 56.2099 182.36V181.44H56.6099V182.352C56.9139 182.363 57.2072 182.413 57.4899 182.504C57.7779 182.589 58.0259 182.704 58.2339 182.848L58.0339 183.32C57.8152 183.181 57.5832 183.072 57.3379 182.992C57.0925 182.912 56.8499 182.867 56.6099 182.856V184.976C57.0045 185.072 57.3272 185.171 57.5779 185.272C57.8285 185.368 58.0392 185.517 58.2099 185.72C58.3805 185.923 58.4659 186.189 58.4659 186.52ZM55.0179 183.872C55.0179 184.149 55.1192 184.36 55.3219 184.504C55.5299 184.648 55.8259 184.771 56.2099 184.872V182.872C55.8152 182.904 55.5165 183.013 55.3139 183.2C55.1165 183.381 55.0179 183.605 55.0179 183.872ZM56.6099 187.536C57.0312 187.504 57.3485 187.4 57.5619 187.224C57.7752 187.048 57.8819 186.824 57.8819 186.552C57.8819 186.264 57.7725 186.048 57.5539 185.904C57.3352 185.76 57.0205 185.637 56.6099 185.536V187.536Z" fill="#B4C3D4"/>
<path d="M48.24 163.488V164H44.312V163.592L46.64 161.312C46.9333 161.024 47.1307 160.776 47.232 160.568C47.3387 160.355 47.392 160.141 47.392 159.928C47.392 159.597 47.2773 159.341 47.048 159.16C46.824 158.973 46.5013 158.88 46.08 158.88C45.424 158.88 44.9147 159.088 44.552 159.504L44.144 159.152C44.3627 158.896 44.64 158.699 44.976 158.56C45.3173 158.421 45.7013 158.352 46.128 158.352C46.6987 158.352 47.1493 158.488 47.48 158.76C47.816 159.027 47.984 159.395 47.984 159.864C47.984 160.152 47.92 160.429 47.792 160.696C47.664 160.963 47.4213 161.269 47.064 161.616L45.16 163.488H48.24ZM50.8989 161.888L49.9069 162.8V164H49.3389V158.064H49.9069V162.088L52.4189 159.792H53.1229L51.3229 161.512L53.2909 164H52.5949L50.8989 161.888ZM57.8956 162.52C57.8956 162.931 57.7382 163.28 57.4236 163.568C57.1089 163.851 56.6476 164.008 56.0396 164.04V164.96H55.6396V164.048C55.2502 164.027 54.8822 163.952 54.5356 163.824C54.1942 163.691 53.9249 163.523 53.7276 163.32L53.9596 162.864C54.1462 163.045 54.3889 163.197 54.6876 163.32C54.9916 163.443 55.3089 163.515 55.6396 163.536V161.432C55.2716 161.341 54.9649 161.245 54.7196 161.144C54.4742 161.037 54.2689 160.885 54.1036 160.688C53.9436 160.485 53.8636 160.219 53.8636 159.888C53.8636 159.477 54.0129 159.133 54.3116 158.856C54.6102 158.573 55.0529 158.408 55.6396 158.36V157.44H56.0396V158.352C56.3436 158.363 56.6369 158.413 56.9196 158.504C57.2076 158.589 57.4556 158.704 57.6636 158.848L57.4636 159.32C57.2449 159.181 57.0129 159.072 56.7676 158.992C56.5222 158.912 56.2796 158.867 56.0396 158.856V160.976C56.4342 161.072 56.7569 161.171 57.0076 161.272C57.2582 161.368 57.4689 161.517 57.6396 161.72C57.8102 161.923 57.8956 162.189 57.8956 162.52ZM54.4476 159.872C54.4476 160.149 54.5489 160.36 54.7516 160.504C54.9596 160.648 55.2556 160.771 55.6396 160.872V158.872C55.2449 158.904 54.9462 159.013 54.7436 159.2C54.5462 159.381 54.4476 159.605 54.4476 159.872ZM56.0396 163.536C56.4609 163.504 56.7782 163.4 56.9916 163.224C57.2049 163.048 57.3116 162.824 57.3116 162.552C57.3116 162.264 57.2022 162.048 56.9836 161.904C56.7649 161.76 56.4502 161.637 56.0396 161.536V163.536Z" fill="#B4C3D4"/>
<path d="M41.24 140.488V141H37.312V140.592L39.64 138.312C39.9333 138.024 40.1307 137.776 40.232 137.568C40.3387 137.355 40.392 137.141 40.392 136.928C40.392 136.597 40.2773 136.341 40.048 136.16C39.824 135.973 39.5013 135.88 39.08 135.88C38.424 135.88 37.9147 136.088 37.552 136.504L37.144 136.152C37.3627 135.896 37.64 135.699 37.976 135.56C38.3173 135.421 38.7013 135.352 39.128 135.352C39.6987 135.352 40.1493 135.488 40.48 135.76C40.816 136.027 40.984 136.395 40.984 136.864C40.984 137.152 40.92 137.429 40.792 137.696C40.664 137.963 40.4213 138.269 40.064 138.616L38.16 140.488H41.24ZM42.473 141.04C42.3557 141.04 42.2543 140.997 42.169 140.912C42.089 140.827 42.049 140.723 42.049 140.6C42.049 140.477 42.089 140.376 42.169 140.296C42.2543 140.211 42.3557 140.168 42.473 140.168C42.5903 140.168 42.6917 140.211 42.777 140.296C42.8623 140.376 42.905 140.477 42.905 140.6C42.905 140.723 42.8623 140.827 42.777 140.912C42.6917 140.997 42.5903 141.04 42.473 141.04ZM45.2083 137.696C46.019 137.696 46.6083 137.843 46.9763 138.136C47.3496 138.424 47.5363 138.829 47.5363 139.352C47.5363 139.677 47.459 139.968 47.3043 140.224C47.155 140.48 46.9283 140.683 46.6243 140.832C46.3203 140.976 45.947 141.048 45.5043 141.048C45.1043 141.048 44.723 140.984 44.3603 140.856C44.003 140.723 43.715 140.547 43.4963 140.328L43.7763 139.872C43.963 140.064 44.2083 140.221 44.5123 140.344C44.8163 140.461 45.1443 140.52 45.4963 140.52C45.9603 140.52 46.3176 140.416 46.5683 140.208C46.8243 140 46.9523 139.723 46.9523 139.376C46.9523 138.992 46.8083 138.701 46.5203 138.504C46.2376 138.307 45.7576 138.208 45.0803 138.208H43.8883L44.1763 135.4H47.2403V135.912H44.6803L44.4883 137.696H45.2083ZM50.2036 138.888L49.2116 139.8V141H48.6436V135.064H49.2116V139.088L51.7236 136.792H52.4276L50.6276 138.512L52.5956 141H51.8996L50.2036 138.888ZM57.2003 139.52C57.2003 139.931 57.0429 140.28 56.7283 140.568C56.4136 140.851 55.9523 141.008 55.3443 141.04V141.96H54.9443V141.048C54.5549 141.027 54.1869 140.952 53.8403 140.824C53.4989 140.691 53.2296 140.523 53.0323 140.32L53.2643 139.864C53.4509 140.045 53.6936 140.197 53.9923 140.32C54.2963 140.443 54.6136 140.515 54.9443 140.536V138.432C54.5763 138.341 54.2696 138.245 54.0243 138.144C53.7789 138.037 53.5736 137.885 53.4083 137.688C53.2483 137.485 53.1683 137.219 53.1683 136.888C53.1683 136.477 53.3176 136.133 53.6163 135.856C53.9149 135.573 54.3576 135.408 54.9443 135.36V134.44H55.3443V135.352C55.6483 135.363 55.9416 135.413 56.2243 135.504C56.5123 135.589 56.7603 135.704 56.9683 135.848L56.7682 136.32C56.5496 136.181 56.3176 136.072 56.0723 135.992C55.8269 135.912 55.5843 135.867 55.3443 135.856V137.976C55.7389 138.072 56.0616 138.171 56.3123 138.272C56.5629 138.368 56.7736 138.517 56.9443 138.72C57.1149 138.923 57.2003 139.189 57.2003 139.52ZM53.7523 136.872C53.7523 137.149 53.8536 137.36 54.0563 137.504C54.2643 137.648 54.5603 137.771 54.9443 137.872V135.872C54.5496 135.904 54.2509 136.013 54.0483 136.2C53.8509 136.381 53.7523 136.605 53.7523 136.872ZM55.3443 140.536C55.7656 140.504 56.0829 140.4 56.2963 140.224C56.5096 140.048 56.6163 139.824 56.6163 139.552C56.6163 139.264 56.5069 139.048 56.2883 138.904C56.0696 138.76 55.7549 138.637 55.3443 138.536V140.536Z" fill="#B4C3D4"/>
<path d="M45.32 114.8C45.9067 114.832 46.352 114.992 46.656 115.28C46.9653 115.563 47.12 115.933 47.12 116.392C47.12 116.712 47.0427 116.997 46.888 117.248C46.7333 117.493 46.504 117.688 46.2 117.832C45.896 117.976 45.5253 118.048 45.088 118.048C44.6827 118.048 44.2987 117.984 43.936 117.856C43.5787 117.723 43.2907 117.547 43.072 117.328L43.352 116.872C43.5387 117.064 43.7867 117.221 44.096 117.344C44.4053 117.461 44.736 117.52 45.088 117.52C45.5467 117.52 45.9013 117.421 46.152 117.224C46.4027 117.021 46.528 116.744 46.528 116.392C46.528 116.045 46.4027 115.773 46.152 115.576C45.9013 115.379 45.5227 115.28 45.016 115.28H44.616V114.856L46.168 112.912H43.304V112.4H46.904V112.808L45.32 114.8ZM49.8676 115.888L48.8756 116.8V118H48.3076V112.064H48.8756V116.088L51.3876 113.792H52.0916L50.2916 115.512L52.2596 118H51.5636L49.8676 115.888ZM56.8643 116.52C56.8643 116.931 56.707 117.28 56.3923 117.568C56.0776 117.851 55.6163 118.008 55.0083 118.04V118.96H54.6083V118.048C54.219 118.027 53.851 117.952 53.5043 117.824C53.163 117.691 52.8936 117.523 52.6963 117.32L52.9283 116.864C53.115 117.045 53.3576 117.197 53.6563 117.32C53.9603 117.443 54.2776 117.515 54.6083 117.536V115.432C54.2403 115.341 53.9336 115.245 53.6883 115.144C53.443 115.037 53.2376 114.885 53.0723 114.688C52.9123 114.485 52.8323 114.219 52.8323 113.888C52.8323 113.477 52.9816 113.133 53.2803 112.856C53.579 112.573 54.0216 112.408 54.6083 112.36V111.44H55.0083V112.352C55.3123 112.363 55.6056 112.413 55.8883 112.504C56.1763 112.589 56.4243 112.704 56.6323 112.848L56.4323 113.32C56.2136 113.181 55.9816 113.072 55.7363 112.992C55.491 112.912 55.2483 112.867 55.0083 112.856V114.976C55.403 115.072 55.7256 115.171 55.9763 115.272C56.227 115.368 56.4376 115.517 56.6083 115.72C56.779 115.923 56.8643 116.189 56.8643 116.52ZM53.4163 113.872C53.4163 114.149 53.5176 114.36 53.7203 114.504C53.9283 114.648 54.2243 114.771 54.6083 114.872V112.872C54.2136 112.904 53.915 113.013 53.7123 113.2C53.515 113.381 53.4163 113.605 53.4163 113.872ZM55.0083 117.536C55.4296 117.504 55.747 117.4 55.9603 117.224C56.1736 117.048 56.2803 116.824 56.2803 116.552C56.2803 116.264 56.171 116.048 55.9523 115.904C55.7336 115.76 55.419 115.637 55.0083 115.536V117.536Z" fill="#B4C3D4"/>
<path d="M39.32 91.8C39.9067 91.832 40.352 91.992 40.656 92.28C40.9653 92.5627 41.12 92.9333 41.12 93.392C41.12 93.712 41.0427 93.9973 40.888 94.248C40.7333 94.4933 40.504 94.688 40.2 94.832C39.896 94.976 39.5253 95.048 39.088 95.048C38.6827 95.048 38.2987 94.984 37.936 94.856C37.5787 94.7227 37.2907 94.5467 37.072 94.328L37.352 93.872C37.5387 94.064 37.7867 94.2213 38.096 94.344C38.4053 94.4613 38.736 94.52 39.088 94.52C39.5467 94.52 39.9013 94.4213 40.152 94.224C40.4027 94.0213 40.528 93.744 40.528 93.392C40.528 93.0453 40.4027 92.7733 40.152 92.576C39.9013 92.3787 39.5227 92.28 39.016 92.28H38.616V91.856L40.168 89.912H37.304V89.4H40.904V89.808L39.32 91.8ZM42.3716 94.168C42.4943 94.168 42.5956 94.2107 42.6756 94.296C42.7556 94.376 42.7956 94.4773 42.7956 94.6C42.7956 94.664 42.785 94.7333 42.7636 94.808C42.7476 94.8827 42.721 94.968 42.6836 95.064L42.3476 96.168H41.9636L42.2356 95.008C42.1503 94.9813 42.081 94.9333 42.0276 94.864C41.9743 94.7893 41.9476 94.7013 41.9476 94.6C41.9476 94.4773 41.9876 94.376 42.0676 94.296C42.1476 94.2107 42.249 94.168 42.3716 94.168ZM45.0989 91.696C45.9096 91.696 46.4989 91.8427 46.8669 92.136C47.2403 92.424 47.4269 92.8293 47.4269 93.352C47.4269 93.6773 47.3496 93.968 47.1949 94.224C47.0456 94.48 46.8189 94.6827 46.5149 94.832C46.2109 94.976 45.8376 95.048 45.3949 95.048C44.9949 95.048 44.6136 94.984 44.2509 94.856C43.8936 94.7227 43.6056 94.5467 43.3869 94.328L43.6669 93.872C43.8536 94.064 44.0989 94.2213 44.4029 94.344C44.7069 94.4613 45.0349 94.52 45.3869 94.52C45.8509 94.52 46.2083 94.416 46.4589 94.208C46.7149 94 46.8429 93.7227 46.8429 93.376C46.8429 92.992 46.6989 92.7013 46.4109 92.504C46.1283 92.3067 45.6483 92.208 44.9709 92.208H43.7789L44.0669 89.4H47.1309V89.912H44.5709L44.3789 91.696H45.0989ZM50.0942 92.888L49.1022 93.8V95H48.5342V89.064H49.1022V93.088L51.6142 90.792H52.3182L50.5182 92.512L52.4862 95H51.7902L50.0942 92.888ZM57.0909 93.52C57.0909 93.9307 56.9335 94.28 56.6189 94.568C56.3042 94.8507 55.8429 95.008 55.2349 95.04V95.96H54.8349V95.048C54.4455 95.0267 54.0775 94.952 53.7309 94.824C53.3895 94.6907 53.1202 94.5227 52.9229 94.32L53.1549 93.864C53.3415 94.0453 53.5842 94.1973 53.8829 94.32C54.1869 94.4427 54.5042 94.5147 54.8349 94.536V92.432C54.4669 92.3413 54.1602 92.2453 53.9149 92.144C53.6695 92.0373 53.4642 91.8853 53.2989 91.688C53.1389 91.4853 53.0589 91.2187 53.0589 90.888C53.0589 90.4773 53.2082 90.1333 53.5069 89.856C53.8055 89.5733 54.2482 89.408 54.8349 89.36V88.44H55.2349V89.352C55.5389 89.3627 55.8322 89.4133 56.1149 89.504C56.4029 89.5893 56.6509 89.704 56.8589 89.848L56.6589 90.32C56.4402 90.1813 56.2082 90.072 55.9629 89.992C55.7175 89.912 55.4749 89.8667 55.2349 89.856V91.976C55.6295 92.072 55.9522 92.1707 56.2029 92.272C56.4535 92.368 56.6642 92.5173 56.8349 92.72C57.0055 92.9227 57.0909 93.1893 57.0909 93.52ZM53.6429 90.872C53.6429 91.1493 53.7442 91.36 53.9469 91.504C54.1549 91.648 54.4509 91.7707 54.8349 91.872V89.872C54.4402 89.904 54.1415 90.0133 53.9389 90.2C53.7415 90.3813 53.6429 90.6053 53.6429 90.872ZM55.2349 94.536C55.6562 94.504 55.9735 94.4 56.1869 94.224C56.4002 94.048 56.5069 93.824 56.5069 93.552C56.5069 93.264 56.3975 93.048 56.1789 92.904C55.9602 92.76 55.6455 92.6373 55.2349 92.536V94.536Z" fill="#B4C3D4"/>
<path d="M47.176 69.528H46.056V71H45.48V69.528H42.32V69.112L45.288 65.4H45.928L43.064 69.016H45.496V67.72H46.056V69.016H47.176V69.528ZM49.6411 68.888L48.6491 69.8V71H48.0811V65.064H48.6491V69.088L51.1611 66.792H51.8651L50.0651 68.512L52.0331 71H51.3371L49.6411 68.888ZM56.6378 69.52C56.6378 69.9307 56.4804 70.28 56.1658 70.568C55.8511 70.8507 55.3898 71.008 54.7818 71.04V71.96H54.3818V71.048C53.9924 71.0267 53.6244 70.952 53.2778 70.824C52.9364 70.6907 52.6671 70.5227 52.4698 70.32L52.7018 69.864C52.8884 70.0453 53.1311 70.1973 53.4298 70.32C53.7338 70.4427 54.0511 70.5147 54.3818 70.536V68.432C54.0138 68.3413 53.7071 68.2453 53.4618 68.144C53.2164 68.0373 53.0111 67.8853 52.8458 67.688C52.6858 67.4853 52.6058 67.2187 52.6058 66.888C52.6058 66.4773 52.7551 66.1333 53.0538 65.856C53.3524 65.5733 53.7951 65.408 54.3818 65.36V64.44H54.7818V65.352C55.0858 65.3627 55.3791 65.4133 55.6618 65.504C55.9498 65.5893 56.1978 65.704 56.4058 65.848L56.2057 66.32C55.9871 66.1813 55.7551 66.072 55.5098 65.992C55.2644 65.912 55.0218 65.8667 54.7818 65.856V67.976C55.1764 68.072 55.4991 68.1707 55.7498 68.272C56.0004 68.368 56.2111 68.5173 56.3818 68.72C56.5524 68.9227 56.6378 69.1893 56.6378 69.52ZM53.1898 66.872C53.1898 67.1493 53.2911 67.36 53.4938 67.504C53.7018 67.648 53.9978 67.7707 54.3818 67.872V65.872C53.9871 65.904 53.6884 66.0133 53.4858 66.2C53.2884 66.3813 53.1898 66.6053 53.1898 66.872ZM54.7818 70.536C55.2031 70.504 55.5204 70.4 55.7338 70.224C55.9471 70.048 56.0538 69.824 56.0538 69.552C56.0538 69.264 55.9444 69.048 55.7258 68.904C55.5071 68.76 55.1924 68.6373 54.7818 68.536V70.536Z" fill="#B4C3D4"/>
<path d="M102 231L121.125 199.192C123.384 195.434 127.828 193.587 132.085 194.635L166.388 203.08C170.779 204.161 175.349 202.161 177.534 198.202L196.45 163.926C198.209 160.737 201.563 158.758 205.205 158.758H213.279C216.639 158.758 219.774 157.07 221.625 154.266L243.449 121.202C244.558 119.522 246.148 118.215 248.011 117.454L268.907 108.912C271.007 108.053 272.753 106.506 273.857 104.525L282.32 89.3448C284.687 85.0991 289.765 83.1705 294.354 84.774L318 93.037" stroke="#740B99" stroke-width="2"/>
<path d="M95 213L104.678 188.133C105.517 185.978 107.077 184.18 109.092 183.046L126.912 173.014C128.552 172.09 129.899 170.722 130.797 169.067L144.389 144L157.274 121.953C160.875 115.791 169.585 115.276 173.887 120.971L182.767 132.726C186.925 138.23 195.276 137.971 199.084 132.219L208.416 118.124C210.954 114.292 215.777 112.682 220.107 114.223L254.698 126.534C258.82 128.001 263.416 126.619 266.045 123.122L318 54" stroke="#FBB640" stroke-width="2"/>
<path d="M46.52 48L45.09 45.95C45.03 45.9567 44.94 45.96 44.82 45.96H43.24V48H41.94V41H44.82C45.4267 41 45.9533 41.1 46.4 41.3C46.8533 41.5 47.2 41.7867 47.44 42.16C47.68 42.5333 47.8 42.9767 47.8 43.49C47.8 44.0167 47.67 44.47 47.41 44.85C47.1567 45.23 46.79 45.5133 46.31 45.7L47.92 48H46.52ZM46.49 43.49C46.49 43.0433 46.3433 42.7 46.05 42.46C45.7567 42.22 45.3267 42.1 44.76 42.1H43.24V44.89H44.76C45.3267 44.89 45.7567 44.77 46.05 44.53C46.3433 44.2833 46.49 43.9367 46.49 43.49ZM54.1545 45.36C54.1545 45.4467 54.1478 45.57 54.1345 45.73H49.9445C50.0178 46.1233 50.2078 46.4367 50.5145 46.67C50.8278 46.8967 51.2145 47.01 51.6745 47.01C52.2611 47.01 52.7445 46.8167 53.1245 46.43L53.7945 47.2C53.5545 47.4867 53.2511 47.7033 52.8845 47.85C52.5178 47.9967 52.1045 48.07 51.6445 48.07C51.0578 48.07 50.5411 47.9533 50.0945 47.72C49.6478 47.4867 49.3011 47.1633 49.0545 46.75C48.8145 46.33 48.6945 45.8567 48.6945 45.33C48.6945 44.81 48.8111 44.3433 49.0445 43.93C49.2845 43.51 49.6145 43.1833 50.0345 42.95C50.4545 42.7167 50.9278 42.6 51.4545 42.6C51.9745 42.6 52.4378 42.7167 52.8445 42.95C53.2578 43.1767 53.5778 43.5 53.8045 43.92C54.0378 44.3333 54.1545 44.8133 54.1545 45.36ZM51.4545 43.6C51.0545 43.6 50.7145 43.72 50.4345 43.96C50.1611 44.1933 49.9945 44.5067 49.9345 44.9H52.9645C52.9111 44.5133 52.7478 44.2 52.4745 43.96C52.2011 43.72 51.8611 43.6 51.4545 43.6ZM60.2575 42.66L57.9675 48H56.6775L54.3875 42.66H55.6875L57.3475 46.62L59.0575 42.66H60.2575ZM65.9123 45.36C65.9123 45.4467 65.9056 45.57 65.8923 45.73H61.7023C61.7756 46.1233 61.9656 46.4367 62.2723 46.67C62.5856 46.8967 62.9723 47.01 63.4323 47.01C64.0189 47.01 64.5023 46.8167 64.8823 46.43L65.5523 47.2C65.3123 47.4867 65.0089 47.7033 64.6423 47.85C64.2756 47.9967 63.8623 48.07 63.4023 48.07C62.8156 48.07 62.2989 47.9533 61.8523 47.72C61.4056 47.4867 61.0589 47.1633 60.8123 46.75C60.5723 46.33 60.4523 45.8567 60.4523 45.33C60.4523 44.81 60.5689 44.3433 60.8023 43.93C61.0423 43.51 61.3723 43.1833 61.7923 42.95C62.2123 42.7167 62.6856 42.6 63.2123 42.6C63.7323 42.6 64.1956 42.7167 64.6023 42.95C65.0156 43.1767 65.3356 43.5 65.5623 43.92C65.7956 44.3333 65.9123 44.8133 65.9123 45.36ZM63.2123 43.6C62.8123 43.6 62.4723 43.72 62.1923 43.96C61.9189 44.1933 61.7523 44.5067 61.6923 44.9H64.7223C64.6689 44.5133 64.5056 44.2 64.2323 43.96C63.9589 43.72 63.6189 43.6 63.2123 43.6ZM70.143 42.6C70.8163 42.6 71.3563 42.7967 71.763 43.19C72.1696 43.5833 72.373 44.1667 72.373 44.94V48H71.123V45.1C71.123 44.6333 71.013 44.2833 70.793 44.05C70.573 43.81 70.2596 43.69 69.853 43.69C69.393 43.69 69.0296 43.83 68.763 44.11C68.4963 44.3833 68.363 44.78 68.363 45.3V48H67.113V42.66H68.303V43.35C68.5096 43.1033 68.7696 42.9167 69.083 42.79C69.3963 42.6633 69.7496 42.6 70.143 42.6ZM79.1287 42.66V48H77.9387V47.32C77.7387 47.56 77.4887 47.7467 77.1887 47.88C76.8887 48.0067 76.5653 48.07 76.2187 48.07C75.5053 48.07 74.942 47.8733 74.5287 47.48C74.122 47.08 73.9187 46.49 73.9187 45.71V42.66H75.1687V45.54C75.1687 46.02 75.2753 46.38 75.4887 46.62C75.7087 46.8533 76.0187 46.97 76.4187 46.97C76.8653 46.97 77.2187 46.8333 77.4787 46.56C77.7453 46.28 77.8787 45.88 77.8787 45.36V42.66H79.1287ZM85.7853 45.36C85.7853 45.4467 85.7786 45.57 85.7653 45.73H81.5753C81.6486 46.1233 81.8386 46.4367 82.1453 46.67C82.4586 46.8967 82.8453 47.01 83.3053 47.01C83.892 47.01 84.3753 46.8167 84.7553 46.43L85.4253 47.2C85.1853 47.4867 84.882 47.7033 84.5153 47.85C84.1486 47.9967 83.7353 48.07 83.2753 48.07C82.6886 48.07 82.172 47.9533 81.7253 47.72C81.2786 47.4867 80.932 47.1633 80.6853 46.75C80.4453 46.33 80.3253 45.8567 80.3253 45.33C80.3253 44.81 80.442 44.3433 80.6753 43.93C80.9153 43.51 81.2453 43.1833 81.6653 42.95C82.0853 42.7167 82.5586 42.6 83.0853 42.6C83.6053 42.6 84.0686 42.7167 84.4753 42.95C84.8886 43.1767 85.2086 43.5 85.4353 43.92C85.6686 44.3333 85.7853 44.8133 85.7853 45.36ZM83.0853 43.6C82.6853 43.6 82.3453 43.72 82.0653 43.96C81.792 44.1933 81.6253 44.5067 81.5653 44.9H84.5953C84.542 44.5133 84.3786 44.2 84.1053 43.96C83.832 43.72 83.492 43.6 83.0853 43.6Z" fill="black"/>
<g filter="url(#filter1_d)">
<rect x="365" y="13" width="173" height="245" rx="10" fill="white"/>
</g>
<path d="M386.48 31.38H382.98L382.29 33H380.95L384.1 26H385.38L388.54 33H387.18L386.48 31.38ZM386.05 30.36L384.73 27.3L383.42 30.36H386.05ZM392.27 27.6C392.79 27.6 393.254 27.7133 393.66 27.94C394.074 28.1667 394.397 28.4867 394.63 28.9C394.864 29.3133 394.98 29.79 394.98 30.33C394.98 30.87 394.864 31.35 394.63 31.77C394.397 32.1833 394.074 32.5033 393.66 32.73C393.254 32.9567 392.79 33.07 392.27 33.07C391.55 33.07 390.98 32.83 390.56 32.35V34.94H389.31V27.66H390.5V28.36C390.707 28.1067 390.96 27.9167 391.26 27.79C391.567 27.6633 391.904 27.6 392.27 27.6ZM392.13 32C392.59 32 392.967 31.8467 393.26 31.54C393.56 31.2333 393.71 30.83 393.71 30.33C393.71 29.83 393.56 29.4267 393.26 29.12C392.967 28.8133 392.59 28.66 392.13 28.66C391.83 28.66 391.56 28.73 391.32 28.87C391.08 29.0033 390.89 29.1967 390.75 29.45C390.61 29.7033 390.54 29.9967 390.54 30.33C390.54 30.6633 390.61 30.9567 390.75 31.21C390.89 31.4633 391.08 31.66 391.32 31.8C391.56 31.9333 391.83 32 392.13 32ZM399.126 27.6C399.646 27.6 400.109 27.7133 400.516 27.94C400.929 28.1667 401.252 28.4867 401.486 28.9C401.719 29.3133 401.836 29.79 401.836 30.33C401.836 30.87 401.719 31.35 401.486 31.77C401.252 32.1833 400.929 32.5033 400.516 32.73C400.109 32.9567 399.646 33.07 399.126 33.07C398.406 33.07 397.836 32.83 397.416 32.35V34.94H396.166V27.66H397.356V28.36C397.562 28.1067 397.816 27.9167 398.116 27.79C398.422 27.6633 398.759 27.6 399.126 27.6ZM398.986 32C399.446 32 399.822 31.8467 400.116 31.54C400.416 31.2333 400.566 30.83 400.566 30.33C400.566 29.83 400.416 29.4267 400.116 29.12C399.822 28.8133 399.446 28.66 398.986 28.66C398.686 28.66 398.416 28.73 398.176 28.87C397.936 29.0033 397.746 29.1967 397.606 29.45C397.466 29.7033 397.396 29.9967 397.396 30.33C397.396 30.6633 397.466 30.9567 397.606 31.21C397.746 31.4633 397.936 31.66 398.176 31.8C398.416 31.9333 398.686 32 398.986 32ZM404.671 33.07C404.238 33.07 403.815 33.0133 403.401 32.9C402.988 32.7867 402.658 32.6433 402.411 32.47L402.891 31.52C403.131 31.68 403.418 31.81 403.751 31.91C404.091 32.0033 404.425 32.05 404.751 32.05C405.498 32.05 405.871 31.8533 405.871 31.46C405.871 31.2733 405.775 31.1433 405.581 31.07C405.395 30.9967 405.091 30.9267 404.671 30.86C404.231 30.7933 403.871 30.7167 403.591 30.63C403.318 30.5433 403.078 30.3933 402.871 30.18C402.671 29.96 402.571 29.6567 402.571 29.27C402.571 28.7633 402.781 28.36 403.201 28.06C403.628 27.7533 404.201 27.6 404.921 27.6C405.288 27.6 405.655 27.6433 406.021 27.73C406.388 27.81 406.688 27.92 406.921 28.06L406.441 29.01C405.988 28.7433 405.478 28.61 404.911 28.61C404.545 28.61 404.265 28.6667 404.071 28.78C403.885 28.8867 403.791 29.03 403.791 29.21C403.791 29.41 403.891 29.5533 404.091 29.64C404.298 29.72 404.615 29.7967 405.041 29.87C405.468 29.9367 405.818 30.0133 406.091 30.1C406.365 30.1867 406.598 30.3333 406.791 30.54C406.991 30.7467 407.091 31.04 407.091 31.42C407.091 31.92 406.875 32.32 406.441 32.62C406.008 32.92 405.418 33.07 404.671 33.07Z" fill="black"/>
<rect x="381" y="41" width="141" height="27" rx="5" fill="#740B99"/>
<rect x="381" y="73" width="141" height="27" rx="5" fill="#740B99"/>
<rect x="381" y="105" width="141" height="27" rx="5" fill="#740B99"/>
<path d="M392.17 141L389.85 148H388.47L386.74 142.82L384.98 148H383.59L381.27 141H382.62L384.36 146.32L386.17 141H387.37L389.14 146.35L390.93 141H392.17ZM397.729 145.36C397.729 145.447 397.722 145.57 397.709 145.73H393.519C393.592 146.123 393.782 146.437 394.089 146.67C394.402 146.897 394.789 147.01 395.249 147.01C395.835 147.01 396.319 146.817 396.699 146.43L397.369 147.2C397.129 147.487 396.825 147.703 396.459 147.85C396.092 147.997 395.679 148.07 395.219 148.07C394.632 148.07 394.115 147.953 393.669 147.72C393.222 147.487 392.875 147.163 392.629 146.75C392.389 146.33 392.269 145.857 392.269 145.33C392.269 144.81 392.385 144.343 392.619 143.93C392.859 143.51 393.189 143.183 393.609 142.95C394.029 142.717 394.502 142.6 395.029 142.6C395.549 142.6 396.012 142.717 396.419 142.95C396.832 143.177 397.152 143.5 397.379 143.92C397.612 144.333 397.729 144.813 397.729 145.36ZM395.029 143.6C394.629 143.6 394.289 143.72 394.009 143.96C393.735 144.193 393.569 144.507 393.509 144.9H396.539C396.485 144.513 396.322 144.2 396.049 143.96C395.775 143.72 395.435 143.6 395.029 143.6ZM401.889 142.6C402.409 142.6 402.873 142.713 403.279 142.94C403.693 143.167 404.016 143.487 404.249 143.9C404.483 144.313 404.599 144.79 404.599 145.33C404.599 145.87 404.483 146.35 404.249 146.77C404.016 147.183 403.693 147.503 403.279 147.73C402.873 147.957 402.409 148.07 401.889 148.07C401.523 148.07 401.186 148.007 400.879 147.88C400.579 147.753 400.326 147.563 400.119 147.31V148H398.929V140.58H400.179V143.31C400.393 143.077 400.643 142.9 400.929 142.78C401.223 142.66 401.543 142.6 401.889 142.6ZM401.749 147C402.209 147 402.586 146.847 402.879 146.54C403.179 146.233 403.329 145.83 403.329 145.33C403.329 144.83 403.179 144.427 402.879 144.12C402.586 143.813 402.209 143.66 401.749 143.66C401.449 143.66 401.179 143.73 400.939 143.87C400.699 144.003 400.509 144.197 400.369 144.45C400.229 144.703 400.159 144.997 400.159 145.33C400.159 145.663 400.229 145.957 400.369 146.21C400.509 146.463 400.699 146.66 400.939 146.8C401.179 146.933 401.449 147 401.749 147Z" fill="black"/>
<rect x="381" y="156" width="141" height="27" rx="5" fill="#FBB640"/>
<rect x="381" y="188" width="141" height="27" rx="5" fill="#FBB640"/>
<rect x="381" y="220" width="141" height="27" rx="5" fill="#FBB640"/>
<defs>
<filter id="filter0_d" x="0" y="0" width="370" height="285" filterUnits="userSpaceOnUse" color-interpolation-filters="sRGB">
<feFlood flood-opacity="0" result="BackgroundImageFix"/>
<feColorMatrix in="SourceAlpha" type="matrix" values="0 0 0 0 0 0 0 0 0 0 0 0 0 0 0 0 0 0 127 0"/>
<feOffset dy="7"/>
<feGaussianBlur stdDeviation="10"/>
<feColorMatrix type="matrix" values="0 0 0 0 0 0 0 0 0 0 0 0 0 0 0 0 0 0 0.1 0"/>
<feBlend mode="normal" in2="BackgroundImageFix" result="effect1_dropShadow"/>
<feBlend mode="normal" in="SourceGraphic" in2="effect1_dropShadow" result="shape"/>
</filter>
<filter id="filter1_d" x="345" y="0" width="213" height="285" filterUnits="userSpaceOnUse" color-interpolation-filters="sRGB">
<feFlood flood-opacity="0" result="BackgroundImageFix"/>
<feColorMatrix in="SourceAlpha" type="matrix" values="0 0 0 0 0 0 0 0 0 0 0 0 0 0 0 0 0 0 127 0"/>
<feOffset dy="7"/>
<feGaussianBlur stdDeviation="10"/>
<feColorMatrix type="matrix" values="0 0 0 0 0 0 0 0 0 0 0 0 0 0 0 0 0 0 0.1 0"/>
<feBlend mode="normal" in2="BackgroundImageFix" result="effect1_dropShadow"/>
<feBlend mode="normal" in="SourceGraphic" in2="effect1_dropShadow" result="shape"/>
</filter>
</defs>
</svg>
