<svg width="118" height="114" viewBox="0 0 118 114" fill="none" xmlns="http://www.w3.org/2000/svg">
<path d="M27.0479 71.0573C27.0479 74.738 24.0412 77.722 20.3325 77.722C16.6239 77.722 13.6172 74.738 13.6172 71.0573C13.6172 67.3766 16.6239 64.3926 20.3325 64.3926C24.0412 64.3926 27.0479 67.3766 27.0479 71.0573Z" stroke="#740B99" stroke-width="2" stroke-miterlimit="10"/>
<path d="M20.334 83.4941V94.9404" stroke="#740B99" stroke-width="2" stroke-miterlimit="10"/>
<path d="M31.0859 112.999V97.041" stroke="#740B99" stroke-width="2" stroke-miterlimit="10"/>
<path d="M9.58008 97.041V112.999" stroke="#740B99" stroke-width="2" stroke-miterlimit="10"/>
<path d="M1 113V92.3801C1 87.4725 3.64325 83.4941 8.58916 83.4941H32.0785" stroke="#740B99" stroke-width="2" stroke-miterlimit="10"/>
<path d="M32.0781 83.4941C37.023 83.4941 39.6673 87.4725 39.6673 92.3801V103.79" stroke="#740B99" stroke-width="2" stroke-miterlimit="10"/>
<path d="M65.7139 71.0573C65.7139 74.738 62.7072 77.722 58.9986 77.722C55.2899 77.722 52.2832 74.738 52.2832 71.0573C52.2832 67.3766 55.2899 64.3926 58.9986 64.3926C62.7072 64.3926 65.7139 67.3766 65.7139 71.0573Z" stroke="#740B99" stroke-width="2" stroke-miterlimit="10"/>
<path d="M58.998 83.4941V94.9404" stroke="#740B99" stroke-width="2" stroke-miterlimit="10"/>
<path d="M69.752 113.001V97.043" stroke="#740B99" stroke-width="2" stroke-miterlimit="10"/>
<path d="M48.2461 97.043V113.001" stroke="#740B99" stroke-width="2" stroke-miterlimit="10"/>
<path d="M39.6641 103.79V92.38C39.6641 87.4724 42.3073 83.4941 47.2532 83.4941H70.7426" stroke="#740B99" stroke-width="2" stroke-miterlimit="10"/>
<path d="M70.7422 83.4941C75.6871 83.4941 78.3313 87.4725 78.3313 92.3801V103.79" stroke="#740B99" stroke-width="2" stroke-miterlimit="10"/>
<path d="M104.382 71.0573C104.382 74.738 101.375 77.722 97.6665 77.722C93.9578 77.722 90.9512 74.738 90.9512 71.0573C90.9512 67.3766 93.9578 64.3926 97.6665 64.3926C101.375 64.3926 104.382 67.3766 104.382 71.0573Z" stroke="#740B99" stroke-width="2" stroke-miterlimit="10"/>
<path d="M97.666 83.4941V94.9404" stroke="#740B99" stroke-width="2" stroke-miterlimit="10"/>
<path d="M108.418 113.001V97.043" stroke="#740B99" stroke-width="2" stroke-miterlimit="10"/>
<path d="M86.9141 97.043V113.001" stroke="#740B99" stroke-width="2" stroke-miterlimit="10"/>
<path d="M78.332 103.79V92.38C78.332 87.4724 80.9753 83.4941 85.9212 83.4941H109.411" stroke="#740B99" stroke-width="2" stroke-miterlimit="10"/>
<path d="M109.41 83.4941C114.355 83.4941 116.999 87.4725 116.999 92.3801V113" stroke="#740B99" stroke-width="2" stroke-miterlimit="10"/>
<path d="M99.3155 8.13672H18.6836V49.5538H99.3155V8.13672Z" stroke="#740B99" stroke-width="2" stroke-miterlimit="10" stroke-linecap="round"/>
<path d="M100.293 8.1377H17.7052C16.0668 8.1377 14.7383 6.54025 14.7383 4.56834C14.7383 2.59741 16.0668 1 17.7052 1H100.293C101.932 1 103.26 2.59741 103.26 4.56834C103.26 6.54025 101.932 8.1377 100.293 8.1377Z" stroke="#740B99" stroke-width="2" stroke-miterlimit="10" stroke-linecap="round"/>
<path d="M62.1309 49.5547V56.923" stroke="#740B99" stroke-width="2" stroke-miterlimit="10" stroke-linecap="round"/>
<path d="M55.8691 56.923V49.5547" stroke="#740B99" stroke-width="2" stroke-miterlimit="10" stroke-linecap="round"/>
<path d="M9.58008 112.998H108.418" stroke="#740B99" stroke-width="2" stroke-miterlimit="10" stroke-linecap="round"/>
<path d="M32.6934 37.124L47.1448 26.1252L53.9863 33.0343L65.586 24.036L71.3084 29.9074L85.3061 19.5059" stroke="#740B99" stroke-width="2" stroke-miterlimit="10" stroke-linecap="round"/>
</svg>
