<svg width="118" height="86" viewBox="0 0 118 86" fill="none" xmlns="http://www.w3.org/2000/svg">
<path d="M58.9994 26.6836C72.5116 26.6836 83.4656 37.6375 83.4656 51.1498C83.4656 64.662 72.5116 75.617 58.9994 75.617C45.4872 75.617 34.5332 64.663 34.5332 51.1498C34.5322 37.6375 45.4861 26.6836 58.9994 26.6836Z" stroke="#740B99" stroke-width="2" stroke-miterlimit="10"/>
<path d="M59.6766 38.0632V37.9372V36.15H57.3304V37.9372V38.0632L57.2063 38.0849C53.7699 38.6866 51.1564 41.6224 51.1564 45.1451C51.1564 48.1747 53.2036 50.8178 56.5348 52.0296C56.9835 52.1927 57.4401 52.3389 57.8994 52.4859L57.9108 52.4895L57.9108 52.4895L57.9299 52.4956C58.7116 52.746 59.5305 53.0083 60.2839 53.3589M59.6766 38.0632L60.2206 53.4949M59.6766 38.0632L59.8007 38.0849M59.6766 38.0632L59.8007 38.0849M60.2839 53.3589L60.2206 53.4949M60.2839 53.3589C60.2838 53.3589 60.2838 53.3589 60.2838 53.3589L60.2206 53.4949M60.2839 53.3589C62.3154 54.3025 63.5038 55.9384 63.5038 57.8548C63.5038 60.5555 61.2576 62.7474 58.5029 62.7474C55.7976 62.7474 53.5517 60.6007 53.502 57.953M60.2206 53.4949C62.2116 54.4196 63.3538 56.0092 63.3538 57.8548C63.3538 60.4695 61.1779 62.5974 58.5029 62.5974C55.8759 62.5974 53.7001 60.5128 53.652 57.9502M53.502 57.953L53.502 57.9532L53.652 57.9502M53.502 57.953L53.4966 57.6774M53.502 57.953L53.652 57.9502M53.652 57.9502L53.4966 57.6774M53.4966 57.6774L53.4936 57.5303L53.6436 57.5274V57.6774H53.4966ZM59.8007 38.0849C63.2364 38.6866 65.85 41.6224 65.85 45.1451V45.4268M59.8007 38.0849L65.85 45.4268M65.85 45.4268H63.5032H65.85ZM51.15 57.5274H51L51.002 57.6774H51.152L51.15 57.5274ZM59.826 66.85H59.676V67H59.826V66.85ZM57.3298 67V66.85H57.1798V67H57.3298ZM51.1558 57.9625L51.0058 57.9646L51.1558 57.9626L51.1558 57.9625ZM60.1412 50.8532C60.1413 50.8532 60.1413 50.8532 60.1413 50.8532L60.1904 50.7115L60.1412 50.8532Z" fill="#740B99" stroke="white" stroke-width="0.3"/>
<path d="M1 17.9185L1 84.3809H117V17.9185H1Z" stroke="#740B99" stroke-width="2" stroke-miterlimit="10"/>
<path d="M99.7089 52.8047C99.7089 52.1209 99.1544 51.5664 98.4706 51.5664C97.7868 51.5664 97.2324 52.1209 97.2324 52.8047C97.2324 53.4884 97.7868 54.0419 98.4706 54.0419C99.1544 54.0419 99.7089 53.4884 99.7089 52.8047Z" stroke="#740B99" stroke-width="2" stroke-miterlimit="10"/>
<path d="M20.7666 52.8047C20.7666 52.1209 20.212 51.5664 19.5293 51.5664C18.8455 51.5664 18.291 52.1209 18.291 52.8047C18.291 53.4884 18.8455 54.0419 19.5293 54.0419C20.212 54.0419 20.7666 53.4884 20.7666 52.8047Z" stroke="#740B99" stroke-width="2" stroke-miterlimit="10"/>
<path d="M11.3359 17.9197V8.57227H106.663V17.9197" stroke="#740B99" stroke-width="2" stroke-miterlimit="10"/>
<path d="M19.3145 8.57332V1H98.6819V8.57332" stroke="#740B99" stroke-width="2" stroke-miterlimit="10"/>
</svg>
