<svg width="117" height="118" viewBox="0 0 117 118" fill="none" xmlns="http://www.w3.org/2000/svg">
<path d="M53.2802 30.5422V30.1238V27.5312H50.1501V30.1238V30.5422L49.7382 30.6159C44.5022 31.5536 40.5139 36.1318 40.5139 41.6307C40.5139 46.3435 43.6253 50.4757 48.7368 52.3776C49.4322 52.6361 50.1407 52.868 50.8594 53.1033L50.8742 53.1081L50.8743 53.1082L50.9117 53.1204C52.1265 53.5184 53.4183 53.9417 54.6096 54.5087C57.8555 56.0506 59.7853 58.7442 59.7853 61.9206C59.7853 66.3708 56.1655 69.9917 51.7141 69.9917C47.3425 69.9917 43.7233 66.4465 43.6431 62.0821C43.6431 62.0821 43.6431 62.082 43.6431 62.082L43.6396 61.8978H40.5104L40.5129 62.089L53.2802 30.5422ZM53.2802 30.5422L53.692 30.6159C58.927 31.5536 62.9154 36.1317 62.9154 41.6307V41.8197M53.2802 30.5422L62.9154 41.8197M62.9154 41.8197H59.7844V41.6317C59.7844 37.1804 56.1634 33.5606 51.7132 33.5606C47.2619 33.5606 43.642 37.1804 43.642 41.6317C43.642 44.0439 44.8255 46.4234 46.743 47.8559L46.7432 47.856C48.4075 49.0977 50.4863 49.7721 52.4037 50.3941L52.4421 50.4065L52.4424 50.4066C53.0334 50.5979 53.6142 50.7873 54.1808 50.988C56.2545 51.7241 58.7442 52.8179 60.351 54.8947L60.351 54.8948C62.0876 57.1388 62.9143 59.4329 62.9143 61.9216C62.9143 67.4196 58.9271 71.9976 53.691 72.9353L53.2792 73.0091V73.4275V76.0201H50.1491V73.4265V73.0087L49.7379 72.9345C44.5701 72.0014 40.5868 67.4947 40.5129 62.0894L62.9154 41.8197Z" fill="#740B99" stroke="white"/>
<path d="M61.5247 93.4455C84.6043 87.9958 98.8963 64.8681 93.4465 41.7884C87.9967 18.7088 64.869 4.41697 41.7894 9.86673C18.7097 15.3165 4.41789 38.4441 9.86765 61.5237C15.3174 84.6034 38.445 98.8953 61.5247 93.4455Z" stroke="#740B99" stroke-width="2" stroke-miterlimit="10" stroke-linecap="round"/>
<path d="M52.8535 102.081C80.0055 102.081 102.017 80.0699 102.017 52.918" stroke="#740B99" stroke-width="2" stroke-miterlimit="10" stroke-linecap="round"/>
<path d="M91.3971 83.4277L114.336 106.366C116.554 108.585 116.554 112.182 114.336 114.4C112.118 116.619 108.52 116.619 106.302 114.4L83.3633 91.4615" stroke="#740B99" stroke-width="2" stroke-miterlimit="10" stroke-linecap="round"/>
</svg>
