<svg width="92" height="121" viewBox="0 0 92 121" fill="none" xmlns="http://www.w3.org/2000/svg">
<path d="M37.1973 8.05664H54.8049" stroke="#740B99" stroke-width="2" stroke-miterlimit="10" stroke-linecap="round" stroke-linejoin="round"/>
<path d="M83.4444 119.402H8.55624C4.67165 119.402 1.52344 116.253 1.52344 112.37V8.0328C1.52344 4.14924 4.67268 1 8.55624 1H83.4444C87.329 1 90.4772 4.14924 90.4772 8.0328V112.37C90.4772 116.254 87.329 119.402 83.4444 119.402Z" stroke="#740B99" stroke-width="2" stroke-miterlimit="10" stroke-linecap="round" stroke-linejoin="round"/>
<path d="M37.1973 112.344H54.8049" stroke="#740B99" stroke-width="2" stroke-miterlimit="10" stroke-linecap="round" stroke-linejoin="round"/>
<path d="M1.52344 15.1172H90.4772" stroke="#740B99" stroke-width="2" stroke-miterlimit="10" stroke-linecap="round" stroke-linejoin="round"/>
<path d="M90.4772 105.285H1.52344" stroke="#740B99" stroke-width="2" stroke-miterlimit="10" stroke-linecap="round" stroke-linejoin="round"/>
<path d="M20.0704 37.0515H14.569C12.7352 37.0515 11.248 35.5644 11.248 33.7306V28.2292C11.248 26.3954 12.7352 24.9082 14.569 24.9082H20.0704C21.9042 24.9082 23.3914 26.3954 23.3914 28.2292V33.7306C23.3914 35.5644 21.9042 37.0515 20.0704 37.0515Z" stroke="#740B99" stroke-width="2" stroke-miterlimit="10" stroke-linecap="round" stroke-linejoin="round"/>
<path d="M38.8946 37.0515H33.3932C31.5594 37.0515 30.0723 35.5644 30.0723 33.7306V28.2292C30.0723 26.3954 31.5594 24.9082 33.3932 24.9082H38.8946C40.7284 24.9082 42.2156 26.3954 42.2156 28.2292V33.7306C42.2156 35.5644 40.7284 37.0515 38.8946 37.0515Z" stroke="#740B99" stroke-width="2" stroke-miterlimit="10" stroke-linecap="round" stroke-linejoin="round"/>
<path d="M57.7169 37.0515H52.2155C50.3817 37.0515 48.8945 35.5644 48.8945 33.7306V28.2292C48.8945 26.3954 50.3817 24.9082 52.2155 24.9082H57.7169C59.5507 24.9082 61.0379 26.3954 61.0379 28.2292V33.7306C61.0379 35.5644 59.5517 37.0515 57.7169 37.0515Z" stroke="#740B99" stroke-width="2" stroke-miterlimit="10" stroke-linecap="round" stroke-linejoin="round"/>
<path d="M76.5392 37.0515H71.0378C69.204 37.0515 67.7168 35.5644 67.7168 33.7306V28.2292C67.7168 26.3954 69.204 24.9082 71.0378 24.9082H76.5392C78.3729 24.9082 79.8601 26.3954 79.8601 28.2292V33.7306C79.8601 35.5644 78.3729 37.0515 76.5392 37.0515Z" stroke="#740B99" stroke-width="2" stroke-miterlimit="10" stroke-linecap="round" stroke-linejoin="round"/>
<path d="M20.0704 56.6902H14.569C12.7352 56.6902 11.248 55.203 11.248 53.3692V47.8679C11.248 46.0341 12.7352 44.5469 14.569 44.5469H20.0704C21.9042 44.5469 23.3914 46.0341 23.3914 47.8679V53.3692C23.3914 55.203 21.9042 56.6902 20.0704 56.6902Z" stroke="#740B99" stroke-width="2" stroke-miterlimit="10" stroke-linecap="round" stroke-linejoin="round"/>
<path d="M38.8946 56.6902H33.3932C31.5594 56.6902 30.0723 55.203 30.0723 53.3692V47.8679C30.0723 46.0341 31.5594 44.5469 33.3932 44.5469H38.8946C40.7284 44.5469 42.2156 46.0341 42.2156 47.8679V53.3692C42.2156 55.203 40.7284 56.6902 38.8946 56.6902Z" fill="#740B99"/>
<path d="M57.7169 56.6902H52.2155C50.3817 56.6902 48.8945 55.203 48.8945 53.3692V47.8679C48.8945 46.0341 50.3817 44.5469 52.2155 44.5469H57.7169C59.5507 44.5469 61.0379 46.0341 61.0379 47.8679V53.3692C61.0379 55.203 59.5517 56.6902 57.7169 56.6902Z" stroke="#740B99" stroke-width="2" stroke-miterlimit="10" stroke-linecap="round" stroke-linejoin="round"/>
<path d="M76.5392 56.6902H71.0378C69.204 56.6902 67.7168 55.203 67.7168 53.3692V47.8679C67.7168 46.0341 69.204 44.5469 71.0378 44.5469H76.5392C78.3729 44.5469 79.8601 46.0341 79.8601 47.8679V53.3692C79.8601 55.203 78.3729 56.6902 76.5392 56.6902Z" stroke="#740B99" stroke-width="2" stroke-miterlimit="10" stroke-linecap="round" stroke-linejoin="round"/>
<path d="M20.0704 76.3288H14.569C12.7352 76.3288 11.248 74.8416 11.248 73.0078V67.5064C11.248 65.6726 12.7352 64.1855 14.569 64.1855H20.0704C21.9042 64.1855 23.3914 65.6726 23.3914 67.5064V73.0078C23.3914 74.8416 21.9042 76.3288 20.0704 76.3288Z" stroke="#740B99" stroke-width="2" stroke-miterlimit="10" stroke-linecap="round" stroke-linejoin="round"/>
<path d="M38.8946 76.3288H33.3932C31.5594 76.3288 30.0723 74.8416 30.0723 73.0078V67.5064C30.0723 65.6726 31.5594 64.1855 33.3932 64.1855H38.8946C40.7284 64.1855 42.2156 65.6726 42.2156 67.5064V73.0078C42.2156 74.8416 40.7284 76.3288 38.8946 76.3288Z" stroke="#740B99" stroke-width="2" stroke-miterlimit="10" stroke-linecap="round" stroke-linejoin="round"/>
<path d="M57.7169 76.3288H52.2155C50.3817 76.3288 48.8945 74.8416 48.8945 73.0078V67.5064C48.8945 65.6726 50.3817 64.1855 52.2155 64.1855H57.7169C59.5507 64.1855 61.0379 65.6726 61.0379 67.5064V73.0078C61.0379 74.8416 59.5517 76.3288 57.7169 76.3288Z" stroke="#740B99" stroke-width="2" stroke-miterlimit="10" stroke-linecap="round" stroke-linejoin="round"/>
<path d="M76.5392 76.3288H71.0378C69.204 76.3288 67.7168 74.8416 67.7168 73.0078V67.5064C67.7168 65.6726 69.204 64.1855 71.0378 64.1855H76.5392C78.3729 64.1855 79.8601 65.6726 79.8601 67.5064V73.0078C79.8601 74.8416 78.3729 76.3288 76.5392 76.3288Z" stroke="#740B99" stroke-width="2" stroke-miterlimit="10" stroke-linecap="round" stroke-linejoin="round"/>
<path d="M34.2456 95.2899C34.5075 95.2899 34.7197 95.0777 34.7197 94.8159C34.7197 94.554 34.5075 94.3418 34.2456 94.3418C33.9838 94.3418 33.7715 94.554 33.7715 94.8159C33.7715 95.0777 33.9838 95.2899 34.2456 95.2899Z" stroke="#740B99" stroke-width="3" stroke-miterlimit="10" stroke-linecap="round" stroke-linejoin="round"/>
<path d="M45.8218 95.2899C46.0836 95.2899 46.2959 95.0777 46.2959 94.8159C46.2959 94.554 46.0836 94.3418 45.8218 94.3418C45.5599 94.3418 45.3477 94.554 45.3477 94.8159C45.3477 95.0777 45.5599 95.2899 45.8218 95.2899Z" stroke="#740B99" stroke-width="3" stroke-miterlimit="10" stroke-linecap="round" stroke-linejoin="round"/>
<path d="M57.398 95.2899C57.6598 95.2899 57.8721 95.0777 57.8721 94.8159C57.8721 94.554 57.6598 94.3418 57.398 94.3418C57.1361 94.3418 56.9238 94.554 56.9238 94.8159C56.9238 95.0777 57.1361 95.2899 57.398 95.2899Z" stroke="#740B99" stroke-width="3" stroke-miterlimit="10" stroke-linecap="round" stroke-linejoin="round"/>
</svg>
