<svg width="806" height="404" viewBox="0 0 806 404" fill="none" xmlns="http://www.w3.org/2000/svg">
<rect y="400.65" width="397.852" height="806" rx="50" transform="rotate(-90 0 400.65)" fill="black"/>
<path d="M186.264 2.79688C186.627 1.16233 188.077 -0.000568029 189.751 -0.000567916L276.374 -0.000562064C278.049 -0.00056195 279.498 1.16234 279.862 2.79688L186.264 2.79688Z" fill="#740B99"/>
<path d="M108.834 400.65C108.95 402.228 110.264 403.448 111.846 403.448L136.918 403.448C138.5 403.448 139.813 402.228 139.93 400.65L108.834 400.65Z" fill="#740B99"/>
<path d="M167.295 400.65C167.514 402.253 168.883 403.448 170.501 403.448L221.616 403.448C223.234 403.448 224.603 402.253 224.822 400.65L167.295 400.65Z" fill="#740B99"/>
<path d="M241.613 400.65C241.832 402.253 243.201 403.448 244.819 403.448L295.935 403.448C297.552 403.448 298.921 402.253 299.14 400.65L241.613 400.65Z" fill="#740B99"/>
<path d="M54.2187 387.346C32.1273 387.346 14.2188 369.437 14.2188 347.346L14.2188 56.3996C14.2188 34.3082 32.1274 16.3996 54.2188 16.3996L753.569 16.3996C775.661 16.3996 793.569 34.3082 793.569 56.3996L793.569 347.346C793.569 369.437 775.661 387.346 753.569 387.346L54.2187 387.346Z" fill="url(#paint0_linear)"/>
<defs>
<linearGradient id="paint0_linear" x1="414.938" y1="557.05" x2="694.674" y2="-30.6714" gradientUnits="userSpaceOnUse">
<stop stop-color="#7D15A1"/>
<stop offset="1" stop-color="#B675A8"/>
</linearGradient>
</defs>
</svg>
