<svg width="108" height="105" viewBox="0 0 108 105" fill="none" xmlns="http://www.w3.org/2000/svg">
<path d="M24.8018 65.4267C24.8018 68.8116 22.0543 71.5558 18.6653 71.5558C15.2763 71.5558 12.5287 68.8116 12.5287 65.4267C12.5287 62.0417 15.2763 59.2975 18.6653 59.2975C22.0543 59.2975 24.8018 62.0417 24.8018 65.4267Z" stroke="#740B99" stroke-width="2" stroke-miterlimit="10"/>
<path d="M18.6685 76.8649V87.3914" stroke="#740B99" stroke-width="2" stroke-miterlimit="10"/>
<path d="M28.4941 103.998V89.3231" stroke="#740B99" stroke-width="2" stroke-miterlimit="10"/>
<path d="M8.8374 89.3231V103.998" stroke="#740B99" stroke-width="2" stroke-miterlimit="10"/>
<path d="M1 104V85.0368C1 80.5235 3.41542 76.8649 7.93502 76.8649H29.3997" stroke="#740B99" stroke-width="2" stroke-miterlimit="10"/>
<path d="M29.3989 76.8649C33.9176 76.8649 36.3339 80.5235 36.3339 85.0368V95.5297" stroke="#740B99" stroke-width="2" stroke-miterlimit="10"/>
<path d="M60.1391 65.4267C60.1391 68.8116 57.3916 71.5558 54.0026 71.5558C50.6135 71.5558 47.866 68.8116 47.866 65.4267C47.866 62.0417 50.6135 59.2975 54.0026 59.2975C57.3916 59.2975 60.1391 62.0417 60.1391 65.4267Z" stroke="#740B99" stroke-width="2" stroke-miterlimit="10"/>
<path d="M54 76.8649V87.3914" stroke="#740B99" stroke-width="2" stroke-miterlimit="10"/>
<path d="M63.8252 104V89.3246" stroke="#740B99" stroke-width="2" stroke-miterlimit="10"/>
<path d="M44.1748 89.3246V104" stroke="#740B99" stroke-width="2" stroke-miterlimit="10"/>
<path d="M36.3311 95.5297V85.0368C36.3311 80.5235 38.7465 76.8649 43.2661 76.8649H64.7308" stroke="#740B99" stroke-width="2" stroke-miterlimit="10"/>
<path d="M64.73 76.8649C69.2487 76.8649 71.665 80.5235 71.665 85.0368V95.5297" stroke="#740B99" stroke-width="2" stroke-miterlimit="10"/>
<path d="M95.4735 65.4267C95.4735 68.8116 92.726 71.5558 89.337 71.5558C85.948 71.5558 83.2004 68.8116 83.2004 65.4267C83.2004 62.0417 85.948 59.2975 89.337 59.2975C92.726 59.2975 95.4735 62.0417 95.4735 65.4267Z" stroke="#740B99" stroke-width="2" stroke-miterlimit="10"/>
<path d="M89.332 76.8649V87.3914" stroke="#740B99" stroke-width="2" stroke-miterlimit="10"/>
<path d="M99.1602 104V89.3246" stroke="#740B99" stroke-width="2" stroke-miterlimit="10"/>
<path d="M79.5098 89.3246V104" stroke="#740B99" stroke-width="2" stroke-miterlimit="10"/>
<path d="M71.666 95.5297V85.0368C71.666 80.5235 74.0814 76.8649 78.601 76.8649H100.066" stroke="#740B99" stroke-width="2" stroke-miterlimit="10"/>
<path d="M100.065 76.8649C104.584 76.8649 107 80.5235 107 85.0368V104" stroke="#740B99" stroke-width="2" stroke-miterlimit="10"/>
<path d="M90.8421 7.56323H17.1602V45.6524H90.8421V7.56323Z" stroke="#740B99" stroke-width="2" stroke-miterlimit="10" stroke-linecap="round"/>
<path d="M91.7356 7.56417H16.2662C14.769 7.56417 13.555 6.09508 13.555 4.28161C13.555 2.46905 14.769 1 16.2662 1H91.7356C93.2328 1 94.4469 2.46905 94.4469 4.28161C94.4469 6.09508 93.2328 7.56417 91.7356 7.56417Z" stroke="#740B99" stroke-width="2" stroke-miterlimit="10" stroke-linecap="round"/>
<path d="M56.8633 45.6537V52.4299" stroke="#740B99" stroke-width="2" stroke-miterlimit="10" stroke-linecap="round"/>
<path d="M51.1372 52.4299V45.6537" stroke="#740B99" stroke-width="2" stroke-miterlimit="10" stroke-linecap="round"/>
<path d="M8.8374 103.998H99.1559" stroke="#740B99" stroke-width="2" stroke-miterlimit="10" stroke-linecap="round"/>
<path d="M29.9634 34.2206L43.1692 24.1057L49.421 30.4596L60.0209 22.1843L65.2501 27.584L78.0412 18.0182" stroke="#740B99" stroke-width="2" stroke-miterlimit="10" stroke-linecap="round"/>
</svg>
