<svg width="90" height="119" viewBox="0 0 90 119" fill="none" xmlns="http://www.w3.org/2000/svg">
<path d="M36.291 7.97375H53.7099" stroke="#740B99" stroke-width="2" stroke-miterlimit="10" stroke-linecap="round" stroke-linejoin="round"/>
<path d="M82.0426 118H7.95739C4.11445 118 1 114.888 1 111.05V7.9495C1 4.11194 4.11547 1 7.95739 1H82.0426C85.8855 1 89 4.11194 89 7.9495V111.05C89 114.889 85.8855 118 82.0426 118Z" stroke="#740B99" stroke-width="2" stroke-miterlimit="10" stroke-linecap="round" stroke-linejoin="round"/>
<path d="M36.291 111.025H53.7099" stroke="#740B99" stroke-width="2" stroke-miterlimit="10" stroke-linecap="round" stroke-linejoin="round"/>
<path d="M1 14.9504H89" stroke="#740B99" stroke-width="2" stroke-miterlimit="10" stroke-linecap="round" stroke-linejoin="round"/>
<path d="M89 104.049H1" stroke="#740B99" stroke-width="2" stroke-miterlimit="10" stroke-linecap="round" stroke-linejoin="round"/>
<path d="M19.3479 36.6251H13.9055C12.0914 36.6251 10.6201 35.1555 10.6201 33.3435V27.9073C10.6201 26.0952 12.0914 24.6256 13.9055 24.6256H19.3479C21.162 24.6256 22.6332 26.0952 22.6332 27.9073V33.3435C22.6332 35.1555 21.162 36.6251 19.3479 36.6251Z" stroke="#740B99" stroke-width="2" stroke-miterlimit="10" stroke-linecap="round" stroke-linejoin="round"/>
<path d="M37.9713 36.6248H32.5289C30.7147 36.6248 29.2435 35.1552 29.2435 33.3431V27.9069C29.2435 26.0948 30.7147 24.6252 32.5289 24.6252H37.9713C39.7854 24.6252 41.2566 26.0948 41.2566 27.9069V33.3431C41.2566 35.1552 39.7854 36.6248 37.9713 36.6248Z" stroke="#740B99" stroke-width="2" stroke-miterlimit="10" stroke-linecap="round" stroke-linejoin="round"/>
<path d="M56.5898 36.6248H51.1474C49.3333 36.6248 47.8621 35.1552 47.8621 33.3431V27.9069C47.8621 26.0948 49.3333 24.6252 51.1474 24.6252H56.5898C58.404 24.6252 59.8752 26.0948 59.8752 27.9069V33.3431C59.8752 35.1552 58.405 36.6248 56.5898 36.6248Z" stroke="#740B99" stroke-width="2" stroke-miterlimit="10" stroke-linecap="round" stroke-linejoin="round"/>
<path d="M75.2118 36.6248H69.7694C67.9553 36.6248 66.484 35.1552 66.484 33.3431V27.9069C66.484 26.0948 67.9553 24.6252 69.7694 24.6252H75.2118C77.0259 24.6252 78.4971 26.0948 78.4971 27.9069V33.3431C78.4971 35.1552 77.0259 36.6248 75.2118 36.6248Z" stroke="#740B99" stroke-width="2" stroke-miterlimit="10" stroke-linecap="round" stroke-linejoin="round"/>
<path d="M19.3479 56.0311H13.9055C12.0914 56.0311 10.6201 54.5615 10.6201 52.7495V47.3133C10.6201 45.5012 12.0914 44.0316 13.9055 44.0316H19.3479C21.162 44.0316 22.6332 45.5012 22.6332 47.3133V52.7495C22.6332 54.5615 21.162 56.0311 19.3479 56.0311Z" stroke="#740B99" stroke-width="2" stroke-miterlimit="10" stroke-linecap="round" stroke-linejoin="round"/>
<path d="M37.9713 56.0304H32.5289C30.7147 56.0304 29.2435 54.5608 29.2435 52.7487V47.3125C29.2435 45.5005 30.7147 44.0309 32.5289 44.0309H37.9713C39.7854 44.0309 41.2566 45.5005 41.2566 47.3125V52.7487C41.2566 54.5608 39.7854 56.0304 37.9713 56.0304Z" fill="#740B99"/>
<path d="M56.5898 56.0304H51.1474C49.3333 56.0304 47.8621 54.5608 47.8621 52.7487V47.3125C47.8621 45.5005 49.3333 44.0309 51.1474 44.0309H56.5898C58.404 44.0309 59.8752 45.5005 59.8752 47.3125V52.7487C59.8752 54.5608 58.405 56.0304 56.5898 56.0304Z" stroke="#740B99" stroke-width="2" stroke-miterlimit="10" stroke-linecap="round" stroke-linejoin="round"/>
<path d="M75.2118 56.0304H69.7694C67.9553 56.0304 66.484 54.5608 66.484 52.7487V47.3125C66.484 45.5005 67.9553 44.0309 69.7694 44.0309H75.2118C77.0259 44.0309 78.4971 45.5005 78.4971 47.3125V52.7487C78.4971 54.5608 77.0259 56.0304 75.2118 56.0304Z" stroke="#740B99" stroke-width="2" stroke-miterlimit="10" stroke-linecap="round" stroke-linejoin="round"/>
<path d="M19.3479 75.4365H13.9055C12.0914 75.4365 10.6201 73.9669 10.6201 72.1549V66.7187C10.6201 64.9066 12.0914 63.4371 13.9055 63.4371H19.3479C21.162 63.4371 22.6332 64.9066 22.6332 66.7187V72.1549C22.6332 73.9669 21.162 75.4365 19.3479 75.4365Z" stroke="#740B99" stroke-width="2" stroke-miterlimit="10" stroke-linecap="round" stroke-linejoin="round"/>
<path d="M37.9713 75.4362H32.5289C30.7147 75.4362 29.2435 73.9666 29.2435 72.1545V66.7183C29.2435 64.9062 30.7147 63.4368 32.5289 63.4368H37.9713C39.7854 63.4368 41.2566 64.9062 41.2566 66.7183V72.1545C41.2566 73.9666 39.7854 75.4362 37.9713 75.4362Z" stroke="#740B99" stroke-width="2" stroke-miterlimit="10" stroke-linecap="round" stroke-linejoin="round"/>
<path d="M56.5898 75.4362H51.1474C49.3333 75.4362 47.8621 73.9666 47.8621 72.1545V66.7183C47.8621 64.9062 49.3333 63.4368 51.1474 63.4368H56.5898C58.404 63.4368 59.8752 64.9062 59.8752 66.7183V72.1545C59.8752 73.9666 58.405 75.4362 56.5898 75.4362Z" stroke="#740B99" stroke-width="2" stroke-miterlimit="10" stroke-linecap="round" stroke-linejoin="round"/>
<path d="M75.2118 75.4362H69.7694C67.9553 75.4362 66.484 73.9666 66.484 72.1545V66.7183C66.484 64.9062 67.9553 63.4368 69.7694 63.4368H75.2118C77.0259 63.4368 78.4971 64.9062 78.4971 66.7183V72.1545C78.4971 73.9666 77.0259 75.4362 75.2118 75.4362Z" stroke="#740B99" stroke-width="2" stroke-miterlimit="10" stroke-linecap="round" stroke-linejoin="round"/>
<path d="M33.3714 94.1735C33.6304 94.1735 33.8404 93.9638 33.8404 93.705C33.8404 93.4463 33.6304 93.2366 33.3714 93.2366C33.1123 93.2366 32.9023 93.4463 32.9023 93.705C32.9023 93.9638 33.1123 94.1735 33.3714 94.1735Z" stroke="#740B99" stroke-width="3" stroke-miterlimit="10" stroke-linecap="round" stroke-linejoin="round"/>
<path d="M44.8244 94.1738C45.0834 94.1738 45.2934 93.9641 45.2934 93.7054C45.2934 93.4466 45.0834 93.2369 44.8244 93.2369C44.5653 93.2369 44.3553 93.4466 44.3553 93.7054C44.3553 93.9641 44.5653 94.1738 44.8244 94.1738Z" stroke="#740B99" stroke-width="3" stroke-miterlimit="10" stroke-linecap="round" stroke-linejoin="round"/>
<path d="M56.2757 94.1738C56.5348 94.1738 56.7448 93.9641 56.7448 93.7054C56.7448 93.4466 56.5348 93.2369 56.2757 93.2369C56.0167 93.2369 55.8067 93.4466 55.8067 93.7054C55.8067 93.9641 56.0167 94.1738 56.2757 94.1738Z" stroke="#740B99" stroke-width="3" stroke-miterlimit="10" stroke-linecap="round" stroke-linejoin="round"/>
</svg>
