<svg width="163" height="163" viewBox="0 0 163 163" fill="none" xmlns="http://www.w3.org/2000/svg">
<path d="M80.5257 101.505C75.4699 101.505 71.1632 97.3778 71.1632 92.1248C71.1632 91.3743 70.4142 90.6239 69.6652 90.6239C68.9162 90.6239 68.1672 91.3743 68.1672 92.1248C68.1672 98.5035 72.8485 103.569 79.0277 104.319V109.197C79.0277 109.948 79.7767 110.698 80.5257 110.698C81.2747 110.698 82.0237 109.948 82.0237 109.197V104.695C88.2029 103.944 92.8841 98.6911 92.8841 92.5C92.8841 85.746 87.2666 80.1177 80.5257 80.1177C74.5814 80.1177 71.1632 75.9903 71.1632 70.7373C71.1632 65.6718 75.2827 61.3568 80.5257 61.3568C85.3941 61.3568 89.5136 65.109 89.8881 69.9868C89.8881 70.7373 90.6371 71.4877 91.5734 71.4877C92.3223 71.4877 93.0713 70.7373 93.0713 69.7992C92.6968 63.7957 88.0156 59.1055 82.2109 58.3551V53.8524C82.2109 53.102 81.4619 52.3515 80.7129 52.3515C79.9639 52.3515 79.2149 53.102 79.2149 53.8524V58.3551C73.0357 59.1055 68.3545 64.3586 68.3545 70.5497C68.3545 77.3036 72.2954 82.9319 80.7129 82.9319C85.7686 82.9319 90.0754 87.0593 90.0754 92.3124C89.7009 97.3778 85.5814 101.505 80.5257 101.505Z" fill="#740B99"/>
<path d="M68.2218 131.661H31.3338V94.7017C31.3338 93.9513 30.772 93.2009 29.8358 93.2009C28.8995 93.2009 28.525 93.9513 28.525 94.7017V132.974C28.525 133.725 29.0868 134.475 30.023 134.475H68.409C69.158 134.475 69.907 133.912 69.907 132.974C69.7198 132.224 69.1581 131.661 68.2218 131.661Z" fill="#740B99"/>
<path d="M133.892 28.525H96.6291C95.8801 28.525 95.3184 29.0878 95.3184 29.8383C95.3184 30.5887 95.8801 31.1515 96.6291 31.1515H132.581V66.9849C132.581 67.7354 133.143 68.2982 133.892 68.2982C134.641 68.2982 135.202 67.7354 135.202 66.9849V30.0259C135.39 29.2754 134.641 28.525 133.892 28.525Z" fill="#740B99"/>
<path d="M29.968 68.6734C30.717 68.6734 31.2788 68.1106 31.2788 67.3602V31.3391H67.0433C67.7923 31.3391 68.3541 30.7763 68.3541 30.0259C68.3541 29.2754 67.9796 28.525 67.2306 28.525H29.968C29.219 28.525 28.6573 29.0878 28.6573 29.8383V67.1726C28.6573 68.1106 29.219 68.6734 29.968 68.6734Z" fill="#740B99"/>
<path d="M133.891 94.3756C133.142 94.3756 132.58 94.9385 132.58 95.6889V131.71H96.8159C96.0669 131.71 95.5052 132.273 95.5052 133.023C95.5052 133.774 96.0669 134.336 96.8159 134.336H134.078C134.827 134.336 135.389 133.774 135.389 133.023V95.6889C135.389 94.9385 134.64 94.3756 133.891 94.3756Z" fill="#740B99"/>
</svg>
