<svg width="127" height="129" viewBox="0 0 127 129" fill="none" xmlns="http://www.w3.org/2000/svg">
<mask id="path-1-inside-1" fill="white">
<path fill-rule="evenodd" clip-rule="evenodd" d="M50.9586 32.0732H75.4772V23.1687H50.9586V32.0732ZM121.919 26.317H84.9164C84.1978 26.317 83.6145 26.9008 83.6145 27.6201C83.6145 28.3394 84.1978 28.9232 84.9164 28.9232H120.617V104.937H6.83708V28.9232H48.3546V33.3763C48.3546 34.0957 48.9379 34.6794 49.6565 34.6794H76.7788C77.4975 34.6794 78.0807 34.0957 78.0807 33.3763V21.8656C78.0807 21.1446 77.4975 20.5625 76.7788 20.5625H49.6565C48.9379 20.5625 48.3546 21.1446 48.3546 21.8656V26.317H5.53521C4.81658 26.317 4.23334 26.9008 4.23334 27.6201V106.24C4.23334 106.96 4.81658 107.544 5.53521 107.544H121.919C122.638 107.544 123.221 106.96 123.221 106.24V27.6201C123.221 26.9008 122.638 26.317 121.919 26.317Z"/>
</mask>
<path fill-rule="evenodd" clip-rule="evenodd" d="M50.9586 32.0732H75.4772V23.1687H50.9586V32.0732ZM121.919 26.317H84.9164C84.1978 26.317 83.6145 26.9008 83.6145 27.6201C83.6145 28.3394 84.1978 28.9232 84.9164 28.9232H120.617V104.937H6.83708V28.9232H48.3546V33.3763C48.3546 34.0957 48.9379 34.6794 49.6565 34.6794H76.7788C77.4975 34.6794 78.0807 34.0957 78.0807 33.3763V21.8656C78.0807 21.1446 77.4975 20.5625 76.7788 20.5625H49.6565C48.9379 20.5625 48.3546 21.1446 48.3546 21.8656V26.317H5.53521C4.81658 26.317 4.23334 26.9008 4.23334 27.6201V106.24C4.23334 106.96 4.81658 107.544 5.53521 107.544H121.919C122.638 107.544 123.221 106.96 123.221 106.24V27.6201C123.221 26.9008 122.638 26.317 121.919 26.317Z" fill="#740B99"/>
<path d="M50.9586 32.0732H50.7989V32.233H50.9586V32.0732ZM75.4772 32.0732V32.233H75.6369V32.0732H75.4772ZM75.4772 23.1687H75.6369V23.009H75.4772V23.1687ZM50.9586 23.1687V23.009H50.7989V23.1687H50.9586ZM120.617 28.9232H120.777V28.7635H120.617V28.9232ZM120.617 104.937V105.097H120.777V104.937H120.617ZM6.83708 104.937H6.67733V105.097H6.83708V104.937ZM6.83708 28.9232V28.7635H6.67733V28.9232H6.83708ZM48.3546 28.9232H48.5144V28.7635H48.3546V28.9232ZM48.3546 26.317V26.4768H48.5144V26.317H48.3546ZM50.9586 32.233H75.4772V31.9135H50.9586V32.233ZM75.6369 32.0732V23.1687H75.3174V32.0732H75.6369ZM75.4772 23.009H50.9586V23.3285H75.4772V23.009ZM50.7989 23.1687V32.0732H51.1184V23.1687H50.7989ZM121.919 26.1573H84.9164V26.4768H121.919V26.1573ZM84.9164 26.1573C84.1094 26.1573 83.4548 26.8127 83.4548 27.6201H83.7743C83.7743 26.9889 84.2861 26.4768 84.9164 26.4768V26.1573ZM83.4548 27.6201C83.4548 28.4275 84.1094 29.083 84.9164 29.083V28.7635C84.2861 28.7635 83.7743 28.2513 83.7743 27.6201H83.4548ZM84.9164 29.083H120.617V28.7635H84.9164V29.083ZM120.457 28.9232V104.937H120.777V28.9232H120.457ZM120.617 104.778H6.83708V105.097H120.617V104.778ZM6.99683 104.937V28.9232H6.67733V104.937H6.99683ZM6.83708 29.083H48.3546V28.7635H6.83708V29.083ZM48.1949 28.9232V33.3763H48.5144V28.9232H48.1949ZM48.1949 33.3763C48.1949 34.1837 48.8495 34.8392 49.6565 34.8392V34.5197C49.0262 34.5197 48.5144 34.0076 48.5144 33.3763H48.1949ZM49.6565 34.8392H76.7788V34.5197H49.6565V34.8392ZM76.7788 34.8392C77.5858 34.8392 78.2405 34.1837 78.2405 33.3763H77.921C77.921 34.0076 77.4091 34.5197 76.7788 34.5197V34.8392ZM78.2405 33.3763V21.8656H77.921V33.3763H78.2405ZM78.2405 21.8656C78.2405 21.0564 77.5857 20.4028 76.7788 20.4028V20.7223C77.4092 20.7223 77.921 21.2328 77.921 21.8656H78.2405ZM76.7788 20.4028H49.6565V20.7223H76.7788V20.4028ZM49.6565 20.4028C48.8496 20.4028 48.1949 21.0564 48.1949 21.8656H48.5144C48.5144 21.2328 49.0261 20.7223 49.6565 20.7223V20.4028ZM48.1949 21.8656V26.317H48.5144V21.8656H48.1949ZM48.3546 26.1573H5.53521V26.4768H48.3546V26.1573ZM5.53521 26.1573C4.72821 26.1573 4.07359 26.8127 4.07359 27.6201H4.39309C4.39309 26.9889 4.90494 26.4768 5.53521 26.4768V26.1573ZM4.07359 27.6201V106.24H4.39309V27.6201H4.07359ZM4.07359 106.24C4.07359 107.048 4.72821 107.703 5.53521 107.703V107.384C4.90494 107.384 4.39309 106.872 4.39309 106.24H4.07359ZM5.53521 107.703H121.919V107.384H5.53521V107.703ZM121.919 107.703C122.726 107.703 123.381 107.048 123.381 106.24H123.061C123.061 106.872 122.549 107.384 121.919 107.384V107.703ZM123.381 106.24V27.6201H123.061V106.24H123.381ZM123.381 27.6201C123.381 26.8127 122.726 26.1573 121.919 26.1573V26.4768C122.549 26.4768 123.061 26.9889 123.061 27.6201H123.381Z" fill="white" mask="url(#path-1-inside-1)"/>
<mask id="path-3-inside-2" fill="white">
<path fill-rule="evenodd" clip-rule="evenodd" d="M107.623 45.8479H70.0438C69.3251 45.8479 68.7419 46.4317 68.7419 47.151C68.7419 47.8703 69.3251 48.4541 70.0438 48.4541H107.623C108.341 48.4541 108.925 47.8703 108.925 47.151C108.925 46.4317 108.341 45.8479 107.623 45.8479Z"/>
</mask>
<path fill-rule="evenodd" clip-rule="evenodd" d="M107.623 45.8479H70.0438C69.3251 45.8479 68.7419 46.4317 68.7419 47.151C68.7419 47.8703 69.3251 48.4541 70.0438 48.4541H107.623C108.341 48.4541 108.925 47.8703 108.925 47.151C108.925 46.4317 108.341 45.8479 107.623 45.8479Z" fill="#740B99"/>
<path d="M107.623 45.6882H70.0438V46.0076H107.623V45.6882ZM70.0438 45.6882C69.2368 45.6882 68.5821 46.3436 68.5821 47.151H68.9016C68.9016 46.5198 69.4135 46.0076 70.0438 46.0076V45.6882ZM68.5821 47.151C68.5821 47.9584 69.2368 48.6139 70.0438 48.6139V48.2944C69.4135 48.2944 68.9016 47.7822 68.9016 47.151H68.5821ZM70.0438 48.6139H107.623V48.2944H70.0438V48.6139ZM107.623 48.6139C108.43 48.6139 109.084 47.9584 109.084 47.151H108.765C108.765 47.7822 108.253 48.2944 107.623 48.2944V48.6139ZM109.084 47.151C109.084 46.3436 108.43 45.6882 107.623 45.6882V46.0076C108.253 46.0076 108.765 46.5198 108.765 47.151H109.084Z" fill="white" mask="url(#path-3-inside-2)"/>
<mask id="path-5-inside-3" fill="white">
<path fill-rule="evenodd" clip-rule="evenodd" d="M108.925 67.5436C108.925 66.8243 108.341 66.2405 107.623 66.2405H70.0438C69.3251 66.2405 68.7419 66.8243 68.7419 67.5436C68.7419 68.2629 69.3251 68.8467 70.0438 68.8467H107.623C108.341 68.8467 108.925 68.2629 108.925 67.5436Z"/>
</mask>
<path fill-rule="evenodd" clip-rule="evenodd" d="M108.925 67.5436C108.925 66.8243 108.341 66.2405 107.623 66.2405H70.0438C69.3251 66.2405 68.7419 66.8243 68.7419 67.5436C68.7419 68.2629 69.3251 68.8467 70.0438 68.8467H107.623C108.341 68.8467 108.925 68.2629 108.925 67.5436Z" fill="#740B99"/>
<path d="M109.084 67.5436C109.084 66.7362 108.43 66.0808 107.623 66.0808V66.4003C108.253 66.4003 108.765 66.9124 108.765 67.5436H109.084ZM107.623 66.0808H70.0438V66.4003H107.623V66.0808ZM70.0438 66.0808C69.2368 66.0808 68.5821 66.7362 68.5821 67.5436H68.9016C68.9016 66.9124 69.4135 66.4003 70.0438 66.4003V66.0808ZM68.5821 67.5436C68.5821 68.351 69.2368 69.0065 70.0438 69.0065V68.687C69.4135 68.687 68.9016 68.1749 68.9016 67.5436H68.5821ZM70.0438 69.0065H107.623V68.687H70.0438V69.0065ZM107.623 69.0065C108.43 69.0065 109.084 68.351 109.084 67.5436H108.765C108.765 68.1749 108.253 68.687 107.623 68.687V69.0065Z" fill="white" mask="url(#path-5-inside-3)"/>
<mask id="path-7-inside-4" fill="white">
<path fill-rule="evenodd" clip-rule="evenodd" d="M70.0438 86.6314C69.3251 86.6314 68.7419 87.2152 68.7419 87.9345C68.7419 88.6538 69.3251 89.2375 70.0438 89.2375H80.2626C80.9812 89.2375 81.5644 88.6538 81.5644 87.9345C81.5644 87.2152 80.9812 86.6314 80.2626 86.6314H70.0438Z"/>
</mask>
<path fill-rule="evenodd" clip-rule="evenodd" d="M70.0438 86.6314C69.3251 86.6314 68.7419 87.2152 68.7419 87.9345C68.7419 88.6538 69.3251 89.2375 70.0438 89.2375H80.2626C80.9812 89.2375 81.5644 88.6538 81.5644 87.9345C81.5644 87.2152 80.9812 86.6314 80.2626 86.6314H70.0438Z" fill="#740B99"/>
<path d="M70.0438 86.4716C69.2368 86.4716 68.5821 87.1271 68.5821 87.9345H68.9016C68.9016 87.3032 69.4135 86.7911 70.0438 86.7911V86.4716ZM68.5821 87.9345C68.5821 88.7419 69.2368 89.3973 70.0438 89.3973V89.0778C69.4135 89.0778 68.9016 88.5657 68.9016 87.9345H68.5821ZM70.0438 89.3973H80.2626V89.0778H70.0438V89.3973ZM80.2626 89.3973C81.0696 89.3973 81.7242 88.7419 81.7242 87.9345H81.4047C81.4047 88.5657 80.8928 89.0778 80.2626 89.0778V89.3973ZM81.7242 87.9345C81.7242 87.1271 81.0696 86.4716 80.2626 86.4716V86.7911C80.8928 86.7911 81.4047 87.3032 81.4047 87.9345H81.7242ZM80.2626 86.4716H70.0438V86.7911H80.2626V86.4716Z" fill="white" mask="url(#path-7-inside-4)"/>
<mask id="path-9-inside-5" fill="white">
<path fill-rule="evenodd" clip-rule="evenodd" d="M33.0532 44.411C34.211 43.4623 35.8253 42.9602 37.7191 42.9602C39.6077 42.9602 41.2689 43.4467 42.5221 44.3727C44.2753 45.6637 45.1641 47.7156 45.1641 50.4747C45.1641 56.2726 41.3366 62.4059 37.7191 62.4059C33.8413 62.4059 30.7185 55.88 30.7185 50.4747C30.7185 47.7191 31.5031 45.6811 33.0532 44.411ZM37.7191 65.0121C43.3779 65.0121 47.7678 57.197 47.7678 50.4747C47.7678 45.9486 45.7542 43.5144 44.0653 42.2739C42.3624 41.0177 40.1683 40.354 37.7191 40.354C35.2178 40.354 33.0323 41.0594 31.4041 42.3938C29.2517 44.1555 28.1147 46.9494 28.1147 50.4747C28.1147 57.3377 32.2217 65.0121 37.7191 65.0121Z"/>
</mask>
<path fill-rule="evenodd" clip-rule="evenodd" d="M33.0532 44.411C34.211 43.4623 35.8253 42.9602 37.7191 42.9602C39.6077 42.9602 41.2689 43.4467 42.5221 44.3727C44.2753 45.6637 45.1641 47.7156 45.1641 50.4747C45.1641 56.2726 41.3366 62.4059 37.7191 62.4059C33.8413 62.4059 30.7185 55.88 30.7185 50.4747C30.7185 47.7191 31.5031 45.6811 33.0532 44.411ZM37.7191 65.0121C43.3779 65.0121 47.7678 57.197 47.7678 50.4747C47.7678 45.9486 45.7542 43.5144 44.0653 42.2739C42.3624 41.0177 40.1683 40.354 37.7191 40.354C35.2178 40.354 33.0323 41.0594 31.4041 42.3938C29.2517 44.1555 28.1147 46.9494 28.1147 50.4747C28.1147 57.3377 32.2217 65.0121 37.7191 65.0121Z" fill="#740B99"/>
<path d="M33.0532 44.411L33.1544 44.5345L33.0532 44.411ZM42.5221 44.3727L42.4272 44.5012L42.4274 44.5014L42.5221 44.3727ZM44.0653 42.2739L43.9704 42.4024L43.9707 42.4026L44.0653 42.2739ZM31.4041 42.3938L31.5053 42.5174L31.5054 42.5173L31.4041 42.3938ZM33.1544 44.5345C34.2768 43.6149 35.8522 43.1199 37.7191 43.1199V42.8004C35.7984 42.8004 34.1452 43.3097 32.952 44.2874L33.1544 44.5345ZM37.7191 43.1199C39.5811 43.1199 41.207 43.5996 42.4272 44.5012L42.6171 44.2443C41.3308 43.2938 39.6342 42.8004 37.7191 42.8004V43.1199ZM42.4274 44.5014C44.129 45.7543 45.0043 47.7514 45.0043 50.4747H45.3238C45.3238 47.6799 44.4217 45.5731 42.6169 44.2441L42.4274 44.5014ZM45.0043 50.4747C45.0043 53.3413 44.0572 56.2951 42.6626 58.53C41.9656 59.647 41.1601 60.579 40.3113 61.2302C39.4619 61.8819 38.5777 62.2461 37.7191 62.2461V62.5656C38.6692 62.5656 39.62 62.1632 40.5057 61.4837C41.392 60.8038 42.2216 59.8401 42.9337 58.6991C44.3572 56.4179 45.3238 53.406 45.3238 50.4747H45.0043ZM37.7191 62.2461C35.8724 62.2461 34.1634 60.6853 32.9047 58.3905C31.652 56.1066 30.8783 53.1502 30.8783 50.4747H30.5588C30.5588 53.2045 31.3464 56.2137 32.6246 58.5441C33.8967 60.8635 35.688 62.5656 37.7191 62.5656V62.2461ZM30.8783 50.4747C30.8783 47.748 31.6539 45.764 33.1544 44.5345L32.952 44.2874C31.3523 45.5981 30.5588 47.6902 30.5588 50.4747H30.8783ZM37.7191 65.1718C40.6263 65.1718 43.181 63.1664 44.9997 60.3509C46.8209 57.5316 47.9275 53.8672 47.9275 50.4747H47.6081C47.6081 53.8045 46.5198 57.4088 44.7313 60.1776C42.9403 62.9502 40.4707 64.8523 37.7191 64.8523V65.1718ZM47.9275 50.4747C47.9275 45.8921 45.885 43.4122 44.1598 42.1451L43.9707 42.4026C45.6235 43.6166 47.6081 46.0052 47.6081 50.4747H47.9275ZM44.1601 42.1453C42.4256 40.8658 40.1969 40.1942 37.7191 40.1942V40.5137C40.1398 40.5137 42.2992 41.1696 43.9704 42.4024L44.1601 42.1453ZM37.7191 40.1942C35.1881 40.1942 32.9648 40.9082 31.3029 42.2702L31.5054 42.5173C33.0999 41.2106 35.2474 40.5137 37.7191 40.5137V40.1942ZM31.303 42.2701C29.1039 44.0701 27.955 46.9154 27.955 50.4747H28.2745C28.2745 46.9834 29.3996 44.241 31.5053 42.5174L31.303 42.2701ZM27.955 50.4747C27.955 53.935 28.9895 57.5985 30.7195 60.4009C32.4469 63.1992 34.8907 65.1718 37.7191 65.1718V64.8523C35.0501 64.8523 32.6918 62.9877 30.9913 60.2331C29.2934 57.4826 28.2745 53.8774 28.2745 50.4747H27.955Z" fill="white" mask="url(#path-9-inside-5)"/>
<mask id="path-11-inside-6" fill="white">
<path fill-rule="evenodd" clip-rule="evenodd" d="M56.7286 89.2376C57.4472 89.2376 58.0304 88.6538 58.0304 87.9345V80.5815C58.0304 73.3172 52.1269 67.4081 44.8711 67.4081H31.0123C23.7565 67.4081 17.8547 73.3172 17.8547 80.5815V87.9345C17.8547 88.6538 18.4379 89.2376 19.1565 89.2376C19.8752 89.2376 20.4584 88.6538 20.4584 87.9345V80.5815C20.4584 74.7541 25.192 70.0143 31.0123 70.0143H44.8711C50.6913 70.0143 55.4267 74.7541 55.4267 80.5815V87.9345C55.4267 88.6538 56.0099 89.2376 56.7286 89.2376Z"/>
</mask>
<path fill-rule="evenodd" clip-rule="evenodd" d="M56.7286 89.2376C57.4472 89.2376 58.0304 88.6538 58.0304 87.9345V80.5815C58.0304 73.3172 52.1269 67.4081 44.8711 67.4081H31.0123C23.7565 67.4081 17.8547 73.3172 17.8547 80.5815V87.9345C17.8547 88.6538 18.4379 89.2376 19.1565 89.2376C19.8752 89.2376 20.4584 88.6538 20.4584 87.9345V80.5815C20.4584 74.7541 25.192 70.0143 31.0123 70.0143H44.8711C50.6913 70.0143 55.4267 74.7541 55.4267 80.5815V87.9345C55.4267 88.6538 56.0099 89.2376 56.7286 89.2376Z" fill="#740B99"/>
<path d="M56.7286 89.3974C57.5356 89.3974 58.1902 88.7419 58.1902 87.9345H57.8707C57.8707 88.5657 57.3588 89.0779 56.7286 89.0779V89.3974ZM58.1902 87.9345V80.5815H57.8707V87.9345H58.1902ZM58.1902 80.5815C58.1902 73.2291 52.2153 67.2483 44.8711 67.2483V67.5678C52.0385 67.5678 57.8707 73.4053 57.8707 80.5815H58.1902ZM44.8711 67.2483H31.0123V67.5678H44.8711V67.2483ZM31.0123 67.2483C23.6681 67.2483 17.6949 73.2292 17.6949 80.5815H18.0144C18.0144 73.4052 23.8449 67.5678 31.0123 67.5678V67.2483ZM17.6949 80.5815V87.9345H18.0144V80.5815H17.6949ZM17.6949 87.9345C17.6949 88.7419 18.3495 89.3974 19.1565 89.3974V89.0779C18.5263 89.0779 18.0144 88.5657 18.0144 87.9345H17.6949ZM19.1565 89.3974C19.9635 89.3974 20.6182 88.7419 20.6182 87.9345H20.2987C20.2987 88.5657 19.7868 89.0779 19.1565 89.0779V89.3974ZM20.6182 87.9345V80.5815H20.2987V87.9345H20.6182ZM20.6182 80.5815C20.6182 74.8421 25.2804 70.174 31.0123 70.174V69.8545C25.1036 69.8545 20.2987 74.6661 20.2987 80.5815H20.6182ZM31.0123 70.174H44.8711V69.8545H31.0123V70.174ZM44.8711 70.174C50.603 70.174 55.2669 74.8422 55.2669 80.5815H55.5864C55.5864 74.666 50.7797 69.8545 44.8711 69.8545V70.174ZM55.2669 80.5815V87.9345H55.5864V80.5815H55.2669ZM55.2669 87.9345C55.2669 88.7419 55.9216 89.3974 56.7286 89.3974V89.0779C56.0983 89.0779 55.5864 88.5657 55.5864 87.9345H55.2669Z" fill="white" mask="url(#path-11-inside-6)"/>
</svg>
