<svg width="107" height="107" viewBox="0 0 107 107" fill="none" xmlns="http://www.w3.org/2000/svg">
<path d="M98.9847 62.2609L98.7941 63.1886L99.6187 63.6544L103.365 65.7709L103.99 64.6646L103.365 65.771C105.129 66.7673 105.714 68.959 104.713 70.6548L94.5107 87.9452C93.5001 89.6576 91.2258 90.2681 89.4462 89.2627L88.8067 90.3946L89.4461 89.2627L85.6907 87.1412L84.8953 86.6919L84.2031 87.2879C79.5968 91.2537 74.2026 94.3148 68.488 96.2079L67.5968 96.5031V97.4419V101.641C67.5968 103.592 65.9649 105.229 63.9017 105.229H43.496C41.4328 105.229 39.8009 103.592 39.8009 101.641V97.4423V96.5031L38.9093 96.2081C33.1615 94.3064 27.7604 91.2489 23.1726 87.3001L22.4804 86.7042L21.6851 87.1535L17.9516 89.2627C16.1715 90.2682 13.8975 89.6576 12.887 87.9451L2.68425 70.6548C1.68386 68.959 2.26863 66.7673 4.0324 65.771L7.76324 63.6634L8.58704 63.198L8.39748 62.271C7.79618 59.3307 7.49198 56.3489 7.49198 53.3922C7.49198 50.4813 7.80093 47.5028 8.41278 44.5231L8.60326 43.5955L7.77877 43.1298L4.03221 41.0133L4.03211 41.0132C3.17329 40.5281 2.57148 39.7553 2.31935 38.8343C2.06735 37.9138 2.19486 36.9588 2.68413 36.1298L2.68418 36.1297L12.887 18.8393C12.887 18.8393 12.887 18.8392 12.887 18.8392C13.3771 18.0089 14.1675 17.4114 15.1301 17.159C16.0932 16.9064 17.0915 17.0359 17.9516 17.5217L21.7072 19.6434L22.5026 20.0927L23.1949 19.4967C27.8011 15.5307 33.1953 12.4696 38.9097 10.5765L39.8009 10.2813V9.34249V5.14293C39.8009 3.19261 41.4328 1.55562 43.496 1.55562H63.9017C65.9649 1.55562 67.5968 3.19261 67.5968 5.14293V9.34228V10.2815L68.4884 10.5765C74.2357 12.478 79.6371 15.5355 84.2246 19.4843L84.9169 20.0802L85.7121 19.6309L89.4459 17.5217C90.3058 17.0359 91.304 16.9066 92.2676 17.159C93.2299 17.4112 94.0204 18.0089 94.5105 18.8393L104.713 36.1297L104.713 36.1298C105.203 36.9588 105.33 37.9138 105.078 38.8343C104.826 39.7553 104.224 40.5281 103.365 41.0132L103.365 41.0132L99.6344 43.1208L98.8106 43.5862L99.0002 44.5132C99.6015 47.4533 99.9057 50.4351 99.9057 53.3922C99.9057 56.303 99.5969 59.2814 98.9847 62.2609Z" stroke="#740B99" stroke-width="2.6"/>
<path d="M22.537 53.3919C22.537 36.6424 36.4906 22.9628 53.7026 22.9628C70.9147 22.9628 84.8683 36.6424 84.8683 53.3919C84.8683 70.1413 70.9147 83.8209 53.7026 83.8209C36.4906 83.8209 22.537 70.1413 22.537 53.3919Z" stroke="#740B99" stroke-width="2.6"/>
<path d="M69.5963 16.7467C68.4974 16.3233 67.3635 15.942 66.2255 15.6138" stroke="#740B99" stroke-width="2.6"/>
<path d="M18.2742 72.2947C18.8622 73.5597 19.5132 74.8042 20.209 75.9934C20.4837 76.4629 20.9272 76.7153 21.3785 76.7153" stroke="#740B99" stroke-width="2.6"/>
<path d="M25.6282 81.6919C32.2364 88.051 40.9072 91.9838 50.0427 92.7659C50.0886 92.7699 50.134 92.7718 50.1793 92.7718" stroke="#740B99" stroke-width="2.6"/>
<path d="M76.9028 20.4026C84.8776 25.7125 90.6469 33.6155 93.1476 42.6562" stroke="#740B99" stroke-width="2.6"/>
</svg>
