<svg width="276" height="278" viewBox="0 0 276 278" fill="none" xmlns="http://www.w3.org/2000/svg">
<path opacity="0.2" fill-rule="evenodd" clip-rule="evenodd" d="M76.5104 80.8656C81.3926 89.3158 92.2056 92.211 100.662 87.3323C109.118 82.4536 112.016 71.6484 107.133 63.1983C102.251 54.7481 91.4381 51.8529 82.9818 56.7316C74.5255 61.6103 71.6281 72.4155 76.5104 80.8656Z" fill="#740B99"/>
<path opacity="0.4" fill-rule="evenodd" clip-rule="evenodd" d="M80.6519 78.4763C84.2136 84.6408 92.1017 86.7529 98.2707 83.1938C104.44 79.6348 106.553 71.7523 102.992 65.5879C99.43 59.4234 91.5418 57.3113 85.3729 60.8704C79.2039 64.4294 77.0903 72.3119 80.6519 78.4763Z" fill="#740B99"/>
<path fill-rule="evenodd" clip-rule="evenodd" d="M85.2977 75.7903C87.3786 79.392 91.9874 80.6261 95.5918 78.5466C99.1961 76.4672 100.431 71.8617 98.3501 68.26C96.2691 64.6583 91.6603 63.4242 88.056 65.5037C84.4516 67.5831 83.2167 72.1886 85.2977 75.7903Z" fill="#740B99"/>
<g opacity="0.2">
<path opacity="0.2" fill-rule="evenodd" clip-rule="evenodd" d="M172.955 12.5822C174.759 15.7074 178.754 16.7772 181.879 14.9716C185.005 13.166 186.076 9.16882 184.273 6.0436C182.47 2.91838 178.475 1.8486 175.349 3.65419C172.224 5.45977 171.152 9.45698 172.955 12.5822Z" fill="#740B99"/>
<path opacity="0.4" fill-rule="evenodd" clip-rule="evenodd" d="M174.487 11.6979C175.802 13.9778 178.717 14.7582 180.997 13.441C183.277 12.1238 184.059 9.20781 182.743 6.92794C181.428 4.64807 178.513 3.86766 176.233 5.18485C173.953 6.50203 173.171 9.41803 174.487 11.6979Z" fill="#740B99"/>
<path fill-rule="evenodd" clip-rule="evenodd" d="M176.203 10.7039C176.971 12.0359 178.674 12.4919 180.006 11.7223C181.338 10.9527 181.795 9.24897 181.027 7.91691C180.258 6.58485 178.555 6.12888 177.223 6.89848C175.891 7.66807 175.434 9.3718 176.203 10.7039Z" fill="#740B99"/>
</g>
<g opacity="0.3">
<path opacity="0.2" fill-rule="evenodd" clip-rule="evenodd" d="M114.823 35.7701C118.951 42.9139 128.092 45.3616 135.241 41.2371C142.39 37.1126 144.84 27.9778 140.712 20.834C136.585 13.6901 127.443 11.2425 120.294 15.367C113.145 19.4915 110.696 28.6262 114.823 35.7701Z" fill="#740B99"/>
<path opacity="0.4" fill-rule="evenodd" clip-rule="evenodd" d="M118.328 33.7502C121.339 38.9617 128.008 40.7473 133.223 37.7384C138.438 34.7296 140.225 28.0657 137.214 22.8542C134.203 17.6427 127.534 15.8571 122.319 18.866C117.104 21.8748 115.317 28.5387 118.328 33.7502Z" fill="#740B99"/>
<path fill-rule="evenodd" clip-rule="evenodd" d="M122.252 31.478C124.012 34.5229 127.908 35.5662 130.955 33.8082C134.002 32.0502 135.046 28.1567 133.287 25.1118C131.528 22.0669 127.631 21.0236 124.584 22.7816C121.537 24.5396 120.493 28.4331 122.252 31.478Z" fill="#740B99"/>
</g>
<g opacity="0.4">
<path opacity="0.2" fill-rule="evenodd" clip-rule="evenodd" d="M5.94427 97.1202C10.0718 104.264 19.2132 106.712 26.3622 102.587C33.5113 98.4627 35.9607 89.3279 31.8332 82.1841C27.7057 75.0402 18.5643 72.5926 11.4152 76.7171C4.26622 80.8416 1.81678 89.9763 5.94427 97.1202Z" fill="#740B99"/>
<path opacity="0.4" fill-rule="evenodd" clip-rule="evenodd" d="M9.44928 95.1002C12.4603 100.312 19.1291 102.097 24.3443 99.0884C29.5596 96.0795 31.3465 89.4156 28.3355 84.2042C25.3244 78.9927 18.6557 77.2071 13.4404 80.2159C8.22512 83.2248 6.43824 89.8887 9.44928 95.1002Z" fill="#740B99"/>
<path fill-rule="evenodd" clip-rule="evenodd" d="M13.3743 92.8281C15.1335 95.873 19.0299 96.9163 22.077 95.1583C25.1241 93.4003 26.1682 89.5068 24.4089 86.4619C22.6496 83.417 18.7533 82.3737 15.7062 84.1317C12.659 85.8897 11.615 89.7832 13.3743 92.8281Z" fill="#740B99"/>
</g>
<g opacity="0.5">
<path opacity="0.2" fill-rule="evenodd" clip-rule="evenodd" d="M244.271 126.934C245.734 129.467 248.976 130.335 251.51 128.873C254.045 127.41 254.914 124.172 253.45 121.639C251.987 119.106 248.745 118.238 246.211 119.7C243.676 121.163 242.807 124.401 244.271 126.934Z" fill="#740B99"/>
<path opacity="0.4" fill-rule="evenodd" clip-rule="evenodd" d="M245.514 126.219C246.582 128.066 248.946 128.7 250.795 127.633C252.645 126.566 253.278 124.203 252.21 122.355C251.143 120.508 248.778 119.874 246.929 120.941C245.08 122.008 244.446 124.371 245.514 126.219Z" fill="#740B99"/>
<path fill-rule="evenodd" clip-rule="evenodd" d="M246.904 125.413C247.528 126.493 248.91 126.863 249.99 126.239C251.071 125.616 251.441 124.235 250.817 123.156C250.193 122.076 248.812 121.706 247.731 122.33C246.651 122.953 246.281 124.333 246.904 125.413Z" fill="#740B99"/>
</g>
<g opacity="0.5">
<path opacity="0.2" fill-rule="evenodd" clip-rule="evenodd" d="M191.948 58.0295C193.411 60.5624 196.652 61.4303 199.187 59.9679C201.722 58.5055 202.59 55.2666 201.127 52.7336C199.663 50.2007 196.422 49.3328 193.887 50.7953C191.353 52.2577 190.484 55.4965 191.948 58.0295Z" fill="#740B99"/>
<path opacity="0.4" fill-rule="evenodd" clip-rule="evenodd" d="M193.191 57.3136C194.258 59.1614 196.623 59.7945 198.472 58.7277C200.321 57.6608 200.955 55.298 199.887 53.4502C198.82 51.6024 196.455 50.9693 194.606 52.0362C192.757 53.103 192.123 55.4658 193.191 57.3136Z" fill="#740B99"/>
<path fill-rule="evenodd" clip-rule="evenodd" d="M194.581 56.508C195.205 57.5876 196.586 57.9575 197.667 57.3342C198.747 56.7108 199.117 55.3303 198.494 54.2507C197.87 53.1711 196.488 52.8012 195.408 53.4245C194.328 54.0478 193.957 55.4283 194.581 56.508Z" fill="#740B99"/>
</g>
<g opacity="0.7">
<path opacity="0.2" fill-rule="evenodd" clip-rule="evenodd" d="M233.113 64.3485C238.187 73.1292 249.423 76.1377 258.21 71.0681C266.997 65.9986 270.007 54.7708 264.934 45.9901C259.861 37.2095 248.625 34.201 239.838 39.2705C231.051 44.34 228.04 55.5678 233.113 64.3485Z" fill="#740B99"/>
<path opacity="0.4" fill-rule="evenodd" clip-rule="evenodd" d="M237.421 61.8681C241.122 68.2737 249.319 70.4684 255.729 66.7701C262.139 63.0719 264.335 54.8811 260.634 48.4755C256.933 42.0699 248.737 39.8752 242.326 43.5735C235.916 47.2717 233.72 55.4625 237.421 61.8681Z" fill="#740B99"/>
<path fill-rule="evenodd" clip-rule="evenodd" d="M242.245 59.0734C244.407 62.8159 249.196 64.0982 252.941 61.9375C256.687 59.7767 257.97 54.9911 255.808 51.2485C253.645 47.5059 248.856 46.2236 245.111 48.3844C241.366 50.5451 240.082 55.3308 242.245 59.0734Z" fill="#740B99"/>
</g>
<g opacity="0.7">
<path opacity="0.2" fill-rule="evenodd" clip-rule="evenodd" d="M196.637 246.581C199.344 251.267 205.341 252.873 210.031 250.167C214.721 247.461 216.328 241.469 213.62 236.782C210.913 232.096 204.916 230.49 200.226 233.196C195.536 235.901 193.929 241.894 196.637 246.581Z" fill="#740B99"/>
<path opacity="0.4" fill-rule="evenodd" clip-rule="evenodd" d="M198.936 245.256C200.912 248.675 205.286 249.847 208.708 247.873C212.129 245.899 213.301 241.527 211.326 238.108C209.351 234.69 204.976 233.518 201.554 235.492C198.133 237.466 196.961 241.838 198.936 245.256Z" fill="#740B99"/>
<path fill-rule="evenodd" clip-rule="evenodd" d="M201.512 243.765C202.666 245.762 205.222 246.447 207.221 245.293C209.22 244.14 209.905 241.586 208.751 239.588C207.597 237.591 205.04 236.906 203.041 238.06C201.042 239.213 200.358 241.767 201.512 243.765Z" fill="#740B99"/>
</g>
<g opacity="0.7">
<path opacity="0.2" fill-rule="evenodd" clip-rule="evenodd" d="M68.6733 217.288C69.9321 219.467 72.7201 220.214 74.9004 218.956C77.0807 217.698 77.8277 214.912 76.5689 212.733C75.3101 210.555 72.5222 209.808 70.3419 211.066C68.1616 212.324 67.4145 215.11 68.6733 217.288Z" fill="#740B99"/>
<path opacity="0.4" fill-rule="evenodd" clip-rule="evenodd" d="M69.7414 216.673C70.6597 218.262 72.6935 218.807 74.2841 217.889C75.8746 216.972 76.4196 214.939 75.5013 213.35C74.583 211.76 72.5491 211.216 70.9586 212.134C69.3681 213.051 68.8231 215.084 69.7414 216.673Z" fill="#740B99"/>
<path fill-rule="evenodd" clip-rule="evenodd" d="M70.9391 215.979C71.4756 216.908 72.6639 217.226 73.5932 216.69C74.5225 216.153 74.8409 214.966 74.3044 214.037C73.7678 213.109 72.5795 212.791 71.6502 213.327C70.7209 213.863 70.4025 215.05 70.9391 215.979Z" fill="#740B99"/>
</g>
<g opacity="0.9">
<path opacity="0.2" fill-rule="evenodd" clip-rule="evenodd" d="M78.2719 270.091C80.9796 274.778 86.9766 276.383 91.6666 273.678C96.3565 270.972 97.9634 264.979 95.2557 260.293C92.5479 255.606 86.5509 254 81.861 256.706C77.171 259.412 75.5641 265.404 78.2719 270.091Z" fill="#740B99"/>
<path opacity="0.4" fill-rule="evenodd" clip-rule="evenodd" d="M80.571 268.767C82.5463 272.186 86.9212 273.357 90.3425 271.383C93.7639 269.409 94.9361 265.038 92.9608 261.619C90.9855 258.2 86.6106 257.029 83.1893 259.002C79.7679 260.976 78.5957 265.348 80.571 268.767Z" fill="#740B99"/>
<path fill-rule="evenodd" clip-rule="evenodd" d="M83.1464 267.275C84.3006 269.273 86.8567 269.957 88.8557 268.804C90.8547 267.651 91.5396 265.096 90.3854 263.099C89.2313 261.101 86.6752 260.417 84.6762 261.57C82.6772 262.723 81.9923 265.278 83.1464 267.275Z" fill="#740B99"/>
</g>
<path opacity="0.2" fill-rule="evenodd" clip-rule="evenodd" d="M178.212 86.8365C181.004 91.6681 187.186 93.3235 192.021 90.534C196.856 87.7444 198.513 81.5663 195.722 76.7346C192.93 71.903 186.747 70.2476 181.912 73.0371C177.077 75.8267 175.42 82.0048 178.212 86.8365Z" fill="#740B99"/>
<path opacity="0.4" fill-rule="evenodd" clip-rule="evenodd" d="M180.577 85.4695C182.614 88.9943 187.124 90.2019 190.651 88.1669C194.178 86.1319 195.387 81.6249 193.351 78.1002C191.314 74.5755 186.804 73.3678 183.276 75.4028C179.749 77.4378 178.541 81.9448 180.577 85.4695Z" fill="#740B99"/>
<path fill-rule="evenodd" clip-rule="evenodd" d="M183.235 83.9399C184.425 85.9993 187.06 86.7049 189.121 85.5159C191.182 84.3269 191.888 81.6936 190.698 79.6342C189.508 77.5749 186.873 76.8693 184.812 78.0582C182.751 79.2472 182.045 81.8805 183.235 83.9399Z" fill="#740B99"/>
<path opacity="0.2" fill-rule="evenodd" clip-rule="evenodd" d="M153.747 211.023C156.539 215.855 162.722 217.51 167.557 214.721C172.392 211.931 174.048 205.753 171.257 200.922C168.465 196.09 162.283 194.434 157.448 197.224C152.612 200.014 150.956 206.192 153.747 211.023Z" fill="#740B99"/>
<path opacity="0.4" fill-rule="evenodd" clip-rule="evenodd" d="M156.113 209.656C158.149 213.181 162.659 214.389 166.187 212.354C169.714 210.319 170.923 205.812 168.886 202.287C166.85 198.762 162.339 197.555 158.812 199.59C155.285 201.625 154.076 206.132 156.113 209.656Z" fill="#740B99"/>
<path fill-rule="evenodd" clip-rule="evenodd" d="M158.77 208.127C159.96 210.186 162.595 210.892 164.656 209.703C166.717 208.514 167.423 205.881 166.233 203.821C165.044 201.762 162.408 201.056 160.347 202.245C158.287 203.434 157.58 206.068 158.77 208.127Z" fill="#740B99"/>
<path opacity="0.2" fill-rule="evenodd" clip-rule="evenodd" d="M188.784 112.807C190.432 115.659 194.082 116.636 196.936 114.99C199.791 113.343 200.769 109.696 199.121 106.843C197.473 103.991 193.823 103.014 190.968 104.661C188.114 106.307 187.136 109.955 188.784 112.807Z" fill="#740B99"/>
<path opacity="0.4" fill-rule="evenodd" clip-rule="evenodd" d="M190.18 112C191.383 114.081 194.045 114.794 196.127 113.593C198.21 112.391 198.923 109.731 197.721 107.65C196.519 105.569 193.856 104.856 191.774 106.057C189.692 107.259 188.978 109.919 190.18 112Z" fill="#740B99"/>
<path fill-rule="evenodd" clip-rule="evenodd" d="M191.75 111.097C192.452 112.312 194.008 112.729 195.225 112.027C196.441 111.325 196.858 109.771 196.156 108.555C195.453 107.339 193.898 106.923 192.681 107.625C191.464 108.326 191.048 109.881 191.75 111.097Z" fill="#740B99"/>
<path opacity="0.2" fill-rule="evenodd" clip-rule="evenodd" d="M197.783 137.431C198.584 138.817 200.358 139.292 201.745 138.492C203.132 137.692 203.607 135.919 202.807 134.533C202.006 133.147 200.232 132.672 198.845 133.472C197.458 134.273 196.982 136.045 197.783 137.431Z" fill="#740B99"/>
<path opacity="0.4" fill-rule="evenodd" clip-rule="evenodd" d="M198.461 137.04C199.045 138.052 200.339 138.398 201.351 137.814C202.363 137.23 202.71 135.937 202.126 134.926C201.541 133.915 200.247 133.569 199.235 134.152C198.223 134.736 197.877 136.029 198.461 137.04Z" fill="#740B99"/>
<path fill-rule="evenodd" clip-rule="evenodd" d="M199.223 136.601C199.564 137.192 200.32 137.394 200.912 137.053C201.503 136.712 201.706 135.957 201.364 135.366C201.023 134.775 200.267 134.573 199.676 134.914C199.084 135.255 198.882 136.01 199.223 136.601Z" fill="#740B99"/>
<path opacity="0.2" fill-rule="evenodd" clip-rule="evenodd" d="M37.1817 152.04C43.7896 163.477 58.4245 167.396 69.8696 160.793C81.3148 154.19 85.2362 139.565 78.6284 128.129C72.0205 116.692 57.3856 112.773 45.9405 119.376C34.4953 125.979 30.5739 140.604 37.1817 152.04Z" fill="#740B99"/>
<path opacity="0.4" fill-rule="evenodd" clip-rule="evenodd" d="M42.7896 148.798C47.6101 157.141 58.2863 160 66.6357 155.183C74.985 150.366 77.8457 139.697 73.0252 131.354C68.2047 123.011 57.5285 120.152 49.1791 124.969C40.8298 129.786 37.9691 140.455 42.7896 148.798Z" fill="#740B99"/>
<path fill-rule="evenodd" clip-rule="evenodd" d="M49.0738 145.179C51.8903 150.054 58.1281 151.724 63.0064 148.909C67.8847 146.095 69.5561 139.862 66.7396 134.987C63.9232 130.112 57.6853 128.442 52.8071 131.256C47.9288 134.071 46.2574 140.304 49.0738 145.179Z" fill="#740B99"/>
<path opacity="0.2" fill-rule="evenodd" clip-rule="evenodd" d="M194.121 177.05C197.803 183.35 205.743 185.63 211.855 182.143C217.968 178.656 219.94 170.722 216.258 164.422C212.576 158.122 204.636 155.841 198.524 159.328C192.411 162.815 190.439 170.749 194.121 177.05Z" fill="#740B99"/>
<path opacity="0.4" fill-rule="evenodd" clip-rule="evenodd" d="M197.112 175.343C199.798 179.939 205.59 181.603 210.05 179.059C214.509 176.515 215.947 170.727 213.261 166.131C210.576 161.535 204.783 159.872 200.324 162.415C195.864 164.959 194.427 170.747 197.112 175.343Z" fill="#740B99"/>
<path fill-rule="evenodd" clip-rule="evenodd" d="M200.474 173.423C202.043 176.109 205.427 177.081 208.033 175.594C210.638 174.108 211.478 170.726 209.909 168.041C208.34 165.356 204.956 164.384 202.35 165.87C199.745 167.356 198.905 170.738 200.474 173.423Z" fill="#740B99"/>
<path d="M149.357 214.828L189.974 188.058C202.18 180.013 207.936 165.115 204.309 150.955L186.312 80.6948C181.631 62.4229 163.06 51.3595 144.756 55.9384L103.86 66.1689C94.2087 68.5833 86.0838 75.0687 81.5942 83.9418L62.8347 121.018C56.9682 132.612 58.168 146.527 65.9328 156.952L102.969 206.675C113.828 221.253 134.181 224.83 149.357 214.828Z" stroke="#740B99" stroke-width="1.28545"/>
<path opacity="0.2" fill-rule="evenodd" clip-rule="evenodd" d="M116.688 225.656C119.092 229.77 124.277 231.26 128.268 228.983C132.26 226.706 133.547 221.525 131.143 217.411C128.739 213.297 123.555 211.808 119.563 214.085C115.571 216.362 114.284 221.543 116.688 225.656Z" fill="#740B99"/>
<path opacity="0.4" fill-rule="evenodd" clip-rule="evenodd" d="M118.649 224.537C120.403 227.538 124.185 228.625 127.097 226.964C130.009 225.302 130.948 221.523 129.194 218.522C127.441 215.521 123.659 214.434 120.747 216.095C117.835 217.756 116.896 221.536 118.649 224.537Z" fill="#740B99"/>
<path fill-rule="evenodd" clip-rule="evenodd" d="M120.837 223.284C121.862 225.037 124.072 225.672 125.773 224.701C127.474 223.731 128.023 221.522 126.998 219.769C125.974 218.015 123.764 217.381 122.062 218.351C120.361 219.322 119.812 221.53 120.837 223.284Z" fill="#740B99"/>
</svg>
