<svg width="295" height="164" viewBox="0 0 295 164" fill="none" xmlns="http://www.w3.org/2000/svg">
<path opacity="0.2" fill-rule="evenodd" clip-rule="evenodd" d="M61.8792 154.965C67.0054 154.965 71.1609 150.809 71.1609 145.683C71.1609 140.557 67.0054 136.401 61.8792 136.401C56.753 136.401 52.5975 140.557 52.5975 145.683C52.5975 150.809 56.753 154.965 61.8792 154.965Z" fill="#740B99"/>
<path opacity="0.4" fill-rule="evenodd" clip-rule="evenodd" d="M61.8774 152.452C65.617 152.452 68.6485 149.421 68.6485 145.681C68.6485 141.941 65.617 138.91 61.8774 138.91C58.1378 138.91 55.1063 141.941 55.1063 145.681C55.1063 149.421 58.1378 152.452 61.8774 152.452Z" fill="#740B99"/>
<path fill-rule="evenodd" clip-rule="evenodd" d="M61.8807 149.641C64.0657 149.641 65.8369 147.87 65.8369 145.685C65.8369 143.5 64.0657 141.729 61.8807 141.729C59.6958 141.729 57.9246 143.5 57.9246 145.685C57.9246 147.87 59.6958 149.641 61.8807 149.641Z" fill="#740B99"/>
<path d="M61.8792 145.683L88.4692 101.366C89.8476 99.0689 92.7919 98.2663 95.1455 99.5463L131.165 119.136C134.069 120.715 137.678 119.092 138.425 115.872L149.108 69.7825C149.977 66.0316 154.582 64.6297 157.394 67.2597L202.964 109.879C205.181 111.953 208.718 111.589 210.467 109.108L266.884 29.0559" stroke="#740B99" stroke-width="2"/>
<path opacity="0.2" fill-rule="evenodd" clip-rule="evenodd" d="M91.34 105.732C94.906 105.732 97.7968 102.841 97.7968 99.275C97.7968 95.7089 94.906 92.8181 91.34 92.8181C87.7739 92.8181 84.8831 95.7089 84.8831 99.275C84.8831 102.841 87.7739 105.732 91.34 105.732Z" fill="#740B99"/>
<path opacity="0.4" fill-rule="evenodd" clip-rule="evenodd" d="M91.3369 103.985C93.9384 103.985 96.0473 101.876 96.0473 99.275C96.0473 96.6736 93.9384 94.5647 91.3369 94.5647C88.7355 94.5647 86.6266 96.6736 86.6266 99.275C86.6266 101.876 88.7355 103.985 91.3369 103.985Z" fill="#740B99"/>
<path fill-rule="evenodd" clip-rule="evenodd" d="M91.3429 102.028C92.8628 102.028 94.095 100.796 94.095 99.2763C94.095 97.7563 92.8628 96.5242 91.3429 96.5242C89.8229 96.5242 88.5908 97.7563 88.5908 99.2763C88.5908 100.796 89.8229 102.028 91.3429 102.028Z" fill="#740B99"/>
<path opacity="0.2" fill-rule="evenodd" clip-rule="evenodd" d="M134.921 129.944C140.716 129.944 145.414 125.247 145.414 119.452C145.414 113.657 140.716 108.96 134.921 108.96C129.126 108.96 124.429 113.657 124.429 119.452C124.429 125.247 129.126 129.944 134.921 129.944Z" fill="#740B99"/>
<path opacity="0.4" fill-rule="evenodd" clip-rule="evenodd" d="M134.917 127.106C139.145 127.106 142.572 123.679 142.572 119.452C142.572 115.224 139.145 111.797 134.917 111.797C130.69 111.797 127.263 115.224 127.263 119.452C127.263 123.679 130.69 127.106 134.917 127.106Z" fill="#740B99"/>
<path fill-rule="evenodd" clip-rule="evenodd" d="M134.926 123.926C137.396 123.926 139.398 121.924 139.398 119.454C139.398 116.984 137.396 114.981 134.926 114.981C132.456 114.981 130.454 116.984 130.454 119.454C130.454 121.924 132.456 123.926 134.926 123.926Z" fill="#740B99"/>
<path opacity="0.2" fill-rule="evenodd" clip-rule="evenodd" d="M152.679 80.7106C160.702 80.7106 167.207 74.2063 167.207 66.1827C167.207 58.1592 160.702 51.6548 152.679 51.6548C144.655 51.6548 138.151 58.1592 138.151 66.1827C138.151 74.2063 144.655 80.7106 152.679 80.7106Z" fill="#740B99"/>
<path opacity="0.4" fill-rule="evenodd" clip-rule="evenodd" d="M152.675 76.7802C158.528 76.7802 163.273 72.0352 163.273 66.182C163.273 60.3287 158.528 55.5837 152.675 55.5837C146.822 55.5837 142.077 60.3287 142.077 66.182C142.077 72.0352 146.822 76.7802 152.675 76.7802Z" fill="#740B99"/>
<path fill-rule="evenodd" clip-rule="evenodd" d="M152.686 72.3774C156.106 72.3774 158.878 69.605 158.878 66.1851C158.878 62.7653 156.106 59.9929 152.686 59.9929C149.266 59.9929 146.494 62.7653 146.494 66.1851C146.494 69.605 149.266 72.3774 152.686 72.3774Z" fill="#740B99"/>
<path opacity="0.2" fill-rule="evenodd" clip-rule="evenodd" d="M206.753 127.522C217.006 127.522 225.317 119.211 225.317 108.959C225.317 98.7066 217.006 90.3955 206.753 90.3955C196.501 90.3955 188.19 98.7066 188.19 108.959C188.19 119.211 196.501 127.522 206.753 127.522Z" fill="#740B99"/>
<path opacity="0.4" fill-rule="evenodd" clip-rule="evenodd" d="M206.748 122.499C214.227 122.499 220.29 116.436 220.29 108.957C220.29 101.478 214.227 95.4146 206.748 95.4146C199.269 95.4146 193.206 101.478 193.206 108.957C193.206 116.436 199.269 122.499 206.748 122.499Z" fill="#740B99"/>
<path fill-rule="evenodd" clip-rule="evenodd" d="M206.762 116.873C211.132 116.873 214.674 113.331 214.674 108.961C214.674 104.591 211.132 101.049 206.762 101.049C202.392 101.049 198.849 104.591 198.849 108.961C198.849 113.331 202.392 116.873 206.762 116.873Z" fill="#740B99"/>
<path d="M1 163.528L34.3392 107.983C35.7177 105.686 38.6612 104.884 41.0145 106.164L87.722 131.557C90.6255 133.135 94.2344 131.513 94.9809 128.293L108.945 68.0718C109.814 64.3215 114.418 62.9196 117.23 65.5487L175.832 120.336C178.048 122.408 181.585 122.045 183.333 119.565L253.624 19.8633" stroke="url(#paint0_linear)"/>
<path opacity="0.2" fill-rule="evenodd" clip-rule="evenodd" d="M264.464 60.533C281.179 60.533 294.73 46.9822 294.73 30.2665C294.73 13.5508 281.179 0 264.464 0C247.748 0 234.197 13.5508 234.197 30.2665C234.197 46.9822 247.748 60.533 264.464 60.533Z" fill="#740B99"/>
<path opacity="0.4" fill-rule="evenodd" clip-rule="evenodd" d="M264.462 52.3444C276.656 52.3444 286.541 42.459 286.541 30.2647C286.541 18.0705 276.656 8.18506 264.462 8.18506C252.267 8.18506 242.382 18.0705 242.382 30.2647C242.382 42.459 252.267 52.3444 264.462 52.3444Z" fill="#740B99"/>
<path fill-rule="evenodd" clip-rule="evenodd" d="M264.467 43.1706C271.592 43.1706 277.368 37.3948 277.368 30.2701C277.368 23.1454 271.592 17.3696 264.467 17.3696C257.342 17.3696 251.567 23.1454 251.567 30.2701C251.567 37.3948 257.342 43.1706 264.467 43.1706Z" fill="#740B99"/>
<defs>
<linearGradient id="paint0_linear" x1="-114.573" y1="93.7315" x2="145.301" y2="227.591" gradientUnits="userSpaceOnUse">
<stop stop-color="#7D15A1"/>
<stop offset="1" stop-color="#B675A8" stop-opacity="0"/>
</linearGradient>
</defs>
</svg>
