<svg width="214" height="214" viewBox="0 0 214 214" fill="none" xmlns="http://www.w3.org/2000/svg">
<g opacity="0.1">
<path opacity="0.2" fill-rule="evenodd" clip-rule="evenodd" d="M107 214C166.094 214 214 166.094 214 107C214 47.9055 166.094 0 107 0C47.9055 0 0 47.9055 0 107C0 166.094 47.9055 214 107 214Z" fill="#740B99"/>
<path opacity="0.4" fill-rule="evenodd" clip-rule="evenodd" d="M107.003 185.061C150.113 185.061 185.061 150.113 185.061 107.003C185.061 63.8933 150.113 28.9458 107.003 28.9458C63.8934 28.9458 28.9459 63.8933 28.9459 107.003C28.9459 150.113 63.8934 185.061 107.003 185.061Z" fill="#740B99"/>
<path fill-rule="evenodd" clip-rule="evenodd" d="M106.998 152.617C132.186 152.617 152.605 132.198 152.605 107.011C152.605 81.8228 132.186 61.4041 106.998 61.4041C81.8102 61.4041 61.3915 81.8228 61.3915 107.011C61.3915 132.198 81.8102 152.617 106.998 152.617Z" fill="#740B99"/>
</g>
<path opacity="0.2" fill-rule="evenodd" clip-rule="evenodd" d="M107 193.239C154.628 193.239 193.239 154.628 193.239 107C193.239 59.3717 154.628 20.7612 107 20.7612C59.3716 20.7612 20.7612 59.3717 20.7612 107C20.7612 154.628 59.3716 193.239 107 193.239Z" fill="#740B99"/>
<path opacity="0.4" fill-rule="evenodd" clip-rule="evenodd" d="M107.001 169.914C141.746 169.914 169.913 141.748 169.913 107.002C169.913 72.2572 141.746 44.0906 107.001 44.0906C72.2556 44.0906 44.0889 72.2572 44.0889 107.002C44.0889 141.748 72.2556 169.914 107.001 169.914Z" fill="#740B99"/>
<path fill-rule="evenodd" clip-rule="evenodd" d="M106.999 143.765C127.3 143.765 143.757 127.308 143.757 107.007C143.757 86.7064 127.3 70.2495 106.999 70.2495C86.6985 70.2495 70.2416 86.7064 70.2416 107.007C70.2416 127.308 86.6985 143.765 106.999 143.765Z" fill="#740B99"/>
<path opacity="0.2" fill-rule="evenodd" clip-rule="evenodd" d="M107.001 127.836C118.507 127.836 127.835 118.509 127.835 107.003C127.835 95.4967 118.507 86.1693 107.001 86.1693C95.4954 86.1693 86.168 95.4967 86.168 107.003C86.168 118.509 95.4954 127.836 107.001 127.836Z" fill="#FBB640"/>
<path opacity="0.4" fill-rule="evenodd" clip-rule="evenodd" d="M106.997 122.197C115.391 122.197 122.195 115.392 122.195 106.999C122.195 98.6049 115.391 91.8005 106.997 91.8005C98.6035 91.8005 91.799 98.6049 91.799 106.999C91.799 115.392 98.6035 122.197 106.997 122.197Z" fill="#FBB640"/>
<path fill-rule="evenodd" clip-rule="evenodd" d="M107.002 115.885C111.906 115.885 115.881 111.909 115.881 107.005C115.881 102.101 111.906 98.1255 107.002 98.1255C102.098 98.1255 98.1219 102.101 98.1219 107.005C98.1219 111.909 102.098 115.885 107.002 115.885Z" fill="#FBB640"/>
</svg>
