<svg width="1440" height="671" viewBox="0 0 1440 671" fill="none" xmlns="http://www.w3.org/2000/svg">
<mask id="mask0" mask-type="alpha" maskUnits="userSpaceOnUse" x="0" y="11" width="1440" height="633">
<path fill-rule="evenodd" clip-rule="evenodd" d="M0 11.9098H1440V567.175C1440 567.175 1310.5 643.91 727 643.91C143.5 643.91 0 567.175 0 567.175V11.9098Z" fill="url(#paint0_linear)"/>
</mask>
<g mask="url(#mask0)">
<g style="mix-blend-mode:hard-light" opacity="0.25">
<path d="M902.145 639.846C735.147 735.178 518.192 672.848 417.583 500.548C316.974 328.248 370.858 111.308 537.856 15.9759C704.853 -79.3559 921.808 -17.0255 1022.42 155.274C1123.03 327.574 1069.14 544.515 902.145 639.846Z" stroke="url(#paint1_linear)" stroke-width="1.51666"/>
<path d="M870.452 585.568C732.564 664.282 553.42 612.819 470.342 470.543C387.265 328.268 431.762 149.138 569.65 70.4238C707.538 -8.29031 886.682 43.1722 969.759 185.448C1052.84 327.724 1008.34 506.854 870.452 585.568Z" stroke="url(#paint2_linear)" stroke-width="1.51666"/>
<path opacity="0.2" fill-rule="evenodd" clip-rule="evenodd" d="M996.669 334.743C1001.83 343.589 1012.98 346.791 1021.55 341.895C1030.13 336.998 1032.9 325.858 1027.73 317.012C1022.56 308.165 1011.42 304.963 1002.85 309.859C994.269 314.756 991.504 325.896 996.669 334.743Z" fill="#FBB63F"/>
<path opacity="0.4" fill-rule="evenodd" clip-rule="evenodd" d="M1000.87 332.344C1004.64 338.798 1012.77 341.134 1019.02 337.562C1025.28 333.99 1027.3 325.863 1023.53 319.409C1019.76 312.956 1011.63 310.62 1005.38 314.192C999.119 317.764 997.102 325.891 1000.87 332.344Z" fill="#FBB63F"/>
<path fill-rule="evenodd" clip-rule="evenodd" d="M1005.58 329.656C1007.78 333.426 1012.53 334.791 1016.19 332.704C1019.84 330.617 1021.02 325.869 1018.82 322.098C1016.62 318.328 1011.87 316.963 1008.21 319.05C1004.56 321.137 1003.38 325.885 1005.58 329.656Z" fill="#FBB63F"/>
<path opacity="0.2" fill-rule="evenodd" clip-rule="evenodd" d="M525.401 438.518C590.875 550.647 732.084 591.234 840.8 529.173C949.515 467.112 984.57 325.904 919.096 213.775C853.622 101.646 712.413 61.0584 603.697 123.119C494.982 185.181 459.927 326.389 525.401 438.518Z" fill="#FBB63F"/>
<path opacity="0.4" fill-rule="evenodd" clip-rule="evenodd" d="M578.647 408.122C626.41 489.921 729.423 519.53 808.732 474.256C888.041 428.982 913.614 325.969 865.85 244.17C818.086 162.372 715.073 132.762 635.764 178.037C556.455 223.311 530.883 326.323 578.647 408.122Z" fill="#FBB63F"/>
<path fill-rule="evenodd" clip-rule="evenodd" d="M638.346 374.042C666.253 421.835 726.44 439.135 772.778 412.682C819.116 386.23 834.057 326.043 806.151 278.25C778.244 230.458 718.056 213.158 671.718 239.61C625.381 266.062 610.439 326.25 638.346 374.042Z" fill="#FBB63F"/>
<path opacity="0.2" fill-rule="evenodd" clip-rule="evenodd" d="M421.193 268.954C426.358 277.8 437.499 281.002 446.076 276.106C454.653 271.21 457.419 260.069 452.253 251.223C447.088 242.376 435.947 239.174 427.37 244.07C418.793 248.967 416.027 260.107 421.193 268.954Z" fill="#FBB63F"/>
<path opacity="0.4" fill-rule="evenodd" clip-rule="evenodd" d="M425.394 266.556C429.162 273.009 437.289 275.345 443.546 271.773C449.803 268.201 451.821 260.074 448.052 253.621C444.284 247.167 436.157 244.831 429.9 248.403C423.643 251.975 421.625 260.102 425.394 266.556Z" fill="#FBB63F"/>
<path fill-rule="evenodd" clip-rule="evenodd" d="M430.103 263.867C432.305 267.638 437.054 269.002 440.709 266.915C444.365 264.829 445.544 260.08 443.342 256.31C441.141 252.539 436.392 251.174 432.736 253.261C429.081 255.348 427.902 260.096 430.103 263.867Z" fill="#FBB63F"/>
<path opacity="0.2" fill-rule="evenodd" clip-rule="evenodd" d="M413.762 136.845C418.927 145.692 430.068 148.894 438.645 143.998C447.222 139.101 449.988 127.961 444.822 119.114C439.656 110.268 428.516 107.066 419.939 111.962C411.362 116.858 408.596 127.999 413.762 136.845Z" fill="#FBB63F"/>
<path opacity="0.4" fill-rule="evenodd" clip-rule="evenodd" d="M417.962 134.447C421.731 140.901 429.858 143.237 436.115 139.665C442.372 136.093 444.389 127.966 440.621 121.512C436.853 115.059 428.726 112.723 422.469 116.295C416.212 119.866 414.194 127.994 417.962 134.447Z" fill="#FBB63F"/>
<path fill-rule="evenodd" clip-rule="evenodd" d="M422.672 131.759C424.874 135.529 429.622 136.894 433.278 134.807C436.934 132.72 438.113 127.972 435.911 124.201C433.709 120.431 428.961 119.066 425.305 121.153C421.649 123.24 420.471 127.988 422.672 131.759Z" fill="#FBB63F"/>
<path d="M934.453 695.175C737.825 807.421 482.385 734.029 363.931 531.169C245.477 328.309 308.915 72.8825 505.543 -39.3638C702.171 -151.61 957.611 -78.2176 1076.06 124.642C1194.52 327.502 1131.08 582.928 934.453 695.175Z" stroke="url(#paint3_linear)" stroke-width="1.51666"/>
<path d="M963.366 744.688C740.227 872.069 450.351 788.779 315.932 558.575C181.512 328.372 253.498 38.5116 476.636 -88.8686C699.775 -216.249 989.651 -132.959 1124.07 97.2444C1258.49 327.448 1186.5 617.308 963.366 744.688Z" stroke="url(#paint4_linear)" stroke-width="1.51666"/>
<path opacity="0.2" fill-rule="evenodd" clip-rule="evenodd" d="M1028.91 73.1889C1034.08 82.0353 1045.22 85.2375 1053.79 80.3412C1062.37 75.4449 1065.14 64.3043 1059.97 55.4579C1054.8 46.6116 1043.66 43.4094 1035.09 48.3057C1026.51 53.202 1023.74 64.3426 1028.91 73.1889Z" fill="#FBB63F"/>
<path opacity="0.4" fill-rule="evenodd" clip-rule="evenodd" d="M1033.11 70.7907C1036.88 77.2441 1045.01 79.5801 1051.26 76.0083C1057.52 72.4364 1059.54 64.3092 1055.77 57.8557C1052 51.4022 1043.87 49.0662 1037.62 52.6381C1031.36 56.21 1029.34 64.3372 1033.11 70.7907Z" fill="#FBB63F"/>
<path fill-rule="evenodd" clip-rule="evenodd" d="M1037.82 68.1021C1040.02 71.8727 1044.77 73.2376 1048.43 71.1506C1052.08 69.0637 1053.26 64.3152 1051.06 60.5446C1048.86 56.7741 1044.11 55.4092 1040.45 57.4962C1036.8 59.5831 1035.62 64.3315 1037.82 68.1021Z" fill="#FBB63F"/>
<path opacity="0.2" fill-rule="evenodd" clip-rule="evenodd" d="M288.694 311.032C293.859 319.878 305 323.08 313.577 318.184C322.154 313.288 324.92 302.147 319.754 293.301C314.589 284.454 303.448 281.252 294.871 286.148C286.294 291.045 283.528 302.185 288.694 311.032Z" fill="#FBB63F"/>
<path opacity="0.4" fill-rule="evenodd" clip-rule="evenodd" d="M292.895 308.634C296.663 315.087 304.79 317.423 311.047 313.851C317.304 310.279 319.322 302.152 315.553 295.699C311.785 289.245 303.658 286.909 297.401 290.481C291.144 294.053 289.126 302.18 292.895 308.634Z" fill="#FBB63F"/>
<path fill-rule="evenodd" clip-rule="evenodd" d="M297.604 305.945C299.806 309.716 304.555 311.08 308.21 308.994C311.866 306.907 313.045 302.158 310.843 298.388C308.642 294.617 303.893 293.252 300.237 295.339C296.582 297.426 295.403 302.174 297.604 305.945Z" fill="#FBB63F"/>
<path opacity="0.2" fill-rule="evenodd" clip-rule="evenodd" d="M1118.3 385.17C1123.46 394.016 1134.6 397.218 1143.18 392.322C1151.76 387.426 1154.52 376.285 1149.36 367.439C1144.19 358.592 1133.05 355.39 1124.47 360.286C1115.9 365.183 1113.13 376.323 1118.3 385.17Z" fill="#FBB63F"/>
<path opacity="0.4" fill-rule="evenodd" clip-rule="evenodd" d="M1122.5 382.771C1126.27 389.225 1134.39 391.561 1140.65 387.989C1146.91 384.417 1148.93 376.29 1145.16 369.837C1141.39 363.383 1133.26 361.047 1127 364.619C1120.75 368.191 1118.73 376.318 1122.5 382.771Z" fill="#FBB63F"/>
<path fill-rule="evenodd" clip-rule="evenodd" d="M1127.21 380.083C1129.41 383.854 1134.16 385.218 1137.81 383.131C1141.47 381.045 1142.65 376.296 1140.45 372.525C1138.25 368.755 1133.5 367.39 1129.84 369.477C1126.18 371.564 1125.01 376.312 1127.21 380.083Z" fill="#FBB63F"/>
<path opacity="0.2" fill-rule="evenodd" clip-rule="evenodd" d="M997.524 536.954C1002.69 545.801 1013.83 549.003 1022.41 544.107C1030.98 539.21 1033.75 528.07 1028.58 519.223C1023.42 510.377 1012.28 507.175 1003.7 512.071C995.124 516.967 992.359 528.108 997.524 536.954Z" fill="#FBB63F"/>
<path opacity="0.4" fill-rule="evenodd" clip-rule="evenodd" d="M1001.72 534.556C1005.49 541.01 1013.62 543.346 1019.88 539.774C1026.13 536.202 1028.15 528.075 1024.38 521.621C1020.62 515.168 1012.49 512.832 1006.23 516.404C999.974 519.976 997.957 528.103 1001.72 534.556Z" fill="#FBB63F"/>
<path fill-rule="evenodd" clip-rule="evenodd" d="M1006.43 531.868C1008.64 535.638 1013.38 537.003 1017.04 534.916C1020.7 532.829 1021.88 528.081 1019.67 524.31C1017.47 520.539 1012.72 519.175 1009.07 521.262C1005.41 523.348 1004.23 528.097 1006.43 531.868Z" fill="#FBB63F"/>
<path opacity="0.2" fill-rule="evenodd" clip-rule="evenodd" d="M343.589 30.7601C348.754 39.6065 359.895 42.8086 368.472 37.9123C377.049 33.016 379.815 21.8754 374.649 13.0291C369.484 4.18273 358.343 0.980578 349.766 5.87687C341.189 10.7732 338.423 21.9138 343.589 30.7601Z" fill="#FBB63F"/>
<path opacity="0.4" fill-rule="evenodd" clip-rule="evenodd" d="M347.79 28.3621C351.558 34.8155 359.685 37.1515 365.942 33.5797C372.199 30.0078 374.217 21.8806 370.448 15.4271C366.68 8.97365 358.553 6.63765 352.296 10.2095C346.039 13.7814 344.021 21.9086 347.79 28.3621Z" fill="#FBB63F"/>
<path fill-rule="evenodd" clip-rule="evenodd" d="M352.5 25.6735C354.701 29.4441 359.45 30.809 363.105 28.722C366.761 26.6351 367.94 21.8866 365.738 18.116C363.537 14.3455 358.788 12.9806 355.132 15.0676C351.477 17.1545 350.298 21.903 352.5 25.6735Z" fill="#FBB63F"/>
</g>
</g>
<defs>
<linearGradient id="paint0_linear" x1="-1937" y1="2052.3" x2="1280.4" y2="2405.56" gradientUnits="userSpaceOnUse">
<stop stop-color="#0037F8"/>
<stop offset="1" stop-color="#740B99"/>
</linearGradient>
<linearGradient id="paint1_linear" x1="1023.07" y1="154.899" x2="420.374" y2="506.827" gradientUnits="userSpaceOnUse">
<stop stop-color="#FBB640"/>
<stop offset="1" stop-color="white" stop-opacity="0"/>
</linearGradient>
<linearGradient id="paint2_linear" x1="970.416" y1="185.073" x2="472.533" y2="475.796" gradientUnits="userSpaceOnUse">
<stop stop-color="#FBB640"/>
<stop offset="1" stop-color="white" stop-opacity="0"/>
</linearGradient>
<linearGradient id="paint3_linear" x1="1076.72" y1="124.267" x2="367.332" y2="538.493" gradientUnits="userSpaceOnUse">
<stop stop-color="#FBB640"/>
<stop offset="1" stop-color="white" stop-opacity="0"/>
</linearGradient>
<linearGradient id="paint4_linear" x1="1124.73" y1="96.8693" x2="319.879" y2="566.835" gradientUnits="userSpaceOnUse">
<stop stop-color="#FBB640"/>
<stop offset="1" stop-color="white" stop-opacity="0"/>
</linearGradient>
</defs>
</svg>
