<?xml version="1.0" encoding="UTF-8"?>
<svg width="96px" height="104px" viewBox="0 0 96 104" version="1.1" xmlns="http://www.w3.org/2000/svg" xmlns:xlink="http://www.w3.org/1999/xlink">
    <!-- Generator: sketchtool 50.2 (55047) - http://www.bohemiancoding.com/sketch -->
    <title>DFE7F045-E2EA-4F8E-8B01-3988955328B5</title>
    <desc>Created with sketchtool.</desc>
    <defs></defs>
    <g id="Web" stroke="none" stroke-width="1" fill="none" fill-rule="evenodd">
        <g id="Quantum-Analytics-1" transform="translate(-175.000000, -3123.000000)" fill="#1C94ED" fill-rule="nonzero">
            <g id="bell" transform="translate(175.000000, 3123.000000)">
                <path d="M86.9146483,70.8652344 L86.9082798,70.8652344 C83.9079563,70.8636476 82.2139557,69.3116454 81.2443634,65.6791992 C80.2532776,61.9642335 80.2198432,56.5766602 80.1848169,50.8724976 C80.1426262,43.9614868 80.094863,36.128479 78.3714083,29.1230469 C78.1676187,28.2946777 77.3277831,27.7876586 76.4967039,27.9907836 C75.6664206,28.1939086 75.1577428,29.0302125 75.3607363,29.8585816 C76.9982171,36.5109253 77.0443883,44.151123 77.085783,50.8915406 C77.1224013,56.7980347 77.1558357,62.3768312 78.2488162,66.4726562 C78.7240598,68.2539672 79.4054811,69.7178954 80.2859157,70.8652344 L15.7140843,70.8652344 C16.5945189,69.7178954 17.2759402,68.2539672 17.7511838,66.4726562 C18.8441643,62.3768312 18.8783947,56.7980347 18.914217,50.8915406 C18.9691446,41.8739015 19.0320328,31.6533813 22.7336789,23.831482 C26.9002197,15.0264892 35.1648411,10.7457886 48.0003979,10.7457886 C55.0494464,10.7457886 60.8176459,12.0661011 65.1441932,14.6710204 C68.8959907,16.9291992 71.6503338,20.1387329 73.564841,24.4829102 C73.9087358,25.2636719 74.8234005,25.6191406 75.6067166,25.2755738 C76.3900327,24.9328003 76.7466644,24.0219117 76.4027695,23.2403563 C74.2526307,18.3621827 71.0039388,14.5892945 66.7466479,12.0264282 C64.0289232,10.3903199 60.8375471,9.21044922 57.2027695,8.49157725 C56.8365853,3.74908442 52.8507484,0 48.0003979,0 C43.1500476,0 39.1634147,3.74987803 38.7996185,8.49316406 C35.3320121,9.17791753 32.2664123,10.2816163 29.6354575,11.8010864 C25.4020483,14.246521 22.1366392,17.8511962 19.9299805,22.5135499 C15.9369791,30.9519653 15.8717027,41.5350953 15.8151831,50.8724976 C15.7801568,56.5766602 15.7475186,61.9642335 14.7556366,65.6791992 C13.7860443,69.3116454 12.0920437,70.8636476 9.09172016,70.8652344 L9.08535174,70.8652344 C4.07579087,70.8652344 0,74.9277344 0,79.921753 C0,84.9149781 4.07579087,88.9774781 9.08535174,88.9774781 L18.8935197,88.9774781 C19.7492764,88.9774781 20.4434346,88.2855835 20.4434346,87.4326172 C20.4434346,86.5796508 19.7492764,85.8885499 18.8935197,85.8885499 L9.08535174,85.8885499 C5.7849165,85.8885499 3.0990339,83.2114258 3.0990339,79.921753 C3.0990339,76.6320801 5.7841203,73.9557496 9.08455574,73.9549562 L9.08535174,73.9549562 L9.09092416,73.9549562 L86.9082798,73.9549562 L86.9138521,73.9549562 L86.9154443,73.9549562 C90.2150835,73.9557496 92.9001699,76.6320801 92.9001699,79.921753 C92.9001699,83.2114258 90.2142875,85.8885499 86.9138521,85.8885499 L25.0923835,85.8885499 C24.2366268,85.8885499 23.5432647,86.5796508 23.5432647,87.4326172 C23.5432647,88.2855835 24.2366268,88.9774781 25.0923835,88.9774781 L31.4536423,88.9774781 C32.2377544,97.3912964 39.3576516,104 48.0003979,104 C56.6423482,104 63.7622454,97.3912964 64.5463577,88.9774781 L86.9146483,88.9774781 C91.9242091,88.9774781 96,84.9149781 96,79.921753 C96,74.9277344 91.9242091,70.8652344 86.9146483,70.8652344 Z M48.0003979,3.08892817 C50.9680831,3.08892817 53.4501762,5.2019043 54.0129856,7.99725347 C52.1104191,7.77349848 50.10755,7.65686025 48.0003979,7.65686025 C45.893246,7.65686025 43.8903769,7.77270508 41.9886064,7.99646006 C42.5514158,5.20111089 45.0327127,3.08892817 48.0003979,3.08892817 Z M48.0003979,100.911072 C41.0683694,100.911072 35.3407687,95.6837769 34.5693933,88.9774781 L61.4306065,88.9774781 C60.6592313,95.6837769 54.9316306,100.911072 48.0003979,100.911072 Z" id="Shape"></path>
                <path d="M73.7650849,8.98652912 C73.7919762,9.00208697 76.4549756,10.6217361 79.0749488,14.3842675 C82.5846375,19.4233576 84.3632998,25.7185355 84.3632998,33.0953899 C84.3632998,33.975634 85.0332753,34.6896552 85.8592201,34.6896552 C86.6851646,34.6896552 87.3551402,33.975634 87.3551402,33.0953899 C87.3551402,22.9402395 84.1013025,16.1996172 81.3714593,12.333913 C78.3719356,8.08581429 75.3439839,6.27373987 75.2164427,6.19840735 C74.4949896,5.77425266 73.589908,6.05265521 73.1888446,6.81908165 C72.7877811,7.58632708 73.0467053,8.55582377 73.7650849,8.98652912 Z" id="Shape"></path>
                <path d="M83.7030038,9.78113831 C83.9510804,9.94027582 89.7836558,13.7743268 89.7836558,23.4203919 C89.7836558,24.2548939 90.4747831,24.9310345 91.3268036,24.9310345 C92.1788241,24.9310345 92.8691589,24.2548939 92.8691589,23.4203919 C92.8691589,12.0432205 85.6733507,7.42667848 85.3666233,7.2357135 C84.6509261,6.78935199 83.704589,6.99584278 83.2448943,7.69527174 C82.7851995,8.39392446 82.9920621,9.32701389 83.7030038,9.78113831 Z" id="Shape"></path>
                <path d="M10.4948987,34.6896552 C11.3207034,34.6896552 11.9905655,33.9756398 11.9905655,33.0954028 C11.9905655,25.7186083 13.7696943,19.4234815 17.27802,14.3844322 C19.8814175,10.6456773 22.5278335,9.022766 22.5862159,8.9867377 C23.3060103,8.56012991 23.567195,7.59227863 23.1685042,6.8234021 C22.768277,6.0528876 21.8587395,5.77366832 21.1358724,6.19863856 C21.0083527,6.27397046 17.9809143,8.08603017 14.9818989,12.3340944 C12.2532865,16.1997672 9,22.9403348 9,33.0954028 C9,33.9756398 9.66909391,34.6896552 10.4948987,34.6896552 Z" id="Shape"></path>
                <path d="M3.54236861,24.9310345 C4.39395869,24.9310345 5.08394488,24.254891 5.08394488,23.4203856 C5.08394488,13.7820429 10.9048612,9.94564724 11.1615266,9.78185125 C11.8744858,9.33238274 12.0836206,8.40161812 11.628119,7.69985734 C11.1710327,6.99576786 10.2180438,6.78849997 9.49874727,7.23641581 C9.19296686,7.42738179 2,12.0431666 2,23.4203856 C2,24.254891 2.69077832,24.9310345 3.54236861,24.9310345 Z" id="Shape"></path>
            </g>
        </g>
    </g>
</svg>