<?xml version="1.0" encoding="UTF-8"?>
<svg width="111px" height="119px" viewBox="0 0 111 119" version="1.1" xmlns="http://www.w3.org/2000/svg" xmlns:xlink="http://www.w3.org/1999/xlink">
    <!-- Generator: sketchtool 50.2 (55047) - http://www.bohemiancoding.com/sketch -->
    <title>82E45C11-5123-4F9B-AE10-F01F8B12B4CC</title>
    <desc>Created with sketchtool.</desc>
    <defs></defs>
    <g id="Web" stroke="none" stroke-width="1" fill="none" fill-rule="evenodd">
        <g id="Quantum-Analytics-1" transform="translate(-764.000000, -3438.000000)" fill="#1C94ED">
            <g id="Group-8-Copy-3" transform="translate(735.000000, 3395.000000)">
                <g id="click" transform="translate(29.000000, 43.000000)">
                    <path d="M71.4557765,65.7648066 C70.9677113,66.4443889 70.4311985,67.0971455 69.8605929,67.701616 C69.3527898,68.2434935 69.3779108,69.0911829 69.9198067,69.5972928 C70.1799885,69.8405118 70.5101502,69.9621212 70.8421063,69.9621212 C71.2009777,69.9621212 71.5580548,69.8208396 71.8236197,69.5382765 C72.4749714,68.847964 73.0868472,68.1040003 73.6430979,67.3296342 C73.6448923,67.3278458 73.6448923,67.3260574 73.6448923,67.324269 C76.3023354,63.6276992 77.7073171,59.2622774 77.7073171,54.7001344 C77.7073171,42.7341216 67.9388363,33 55.932792,33 C48.9473593,33 42.340536,36.3764508 38.2547845,42.0312905 C37.8187557,42.6321843 37.9569212,43.4709319 38.5580309,43.9037185 C39.1645237,44.3382934 40.0042828,44.1988002 40.4367229,43.5996948 C44.01826,38.6423211 49.8122395,35.6825615 55.932792,35.6825615 C66.4549029,35.6825615 75.0157812,44.2131072 75.0157812,54.7001344 C75.0157812,58.6989395 73.7848522,62.5224839 71.4593652,65.7612298 C71.4575708,65.7630182 71.4575708,65.7630182 71.4557765,65.7648066" id="Fill-498"></path>
                    <path d="M87.9737254,72.6666667 C88.4673457,72.6666667 88.9412926,72.3897737 89.1773718,71.9088543 C89.3830469,71.4880498 89.5779911,71.0617803 89.7693584,70.6336892 C89.7693584,70.6318675 89.7729354,70.6300459 89.7729354,70.6282242 C91.9298411,65.7334119 93.0243902,60.5143434 93.0243902,55.1094651 C93.0243902,47.3710348 90.7494449,39.9295357 86.4445759,33.5901436 C86.0260718,32.9707777 85.1872751,32.8122929 84.5774038,33.2422057 C83.9693209,33.6739401 83.8173002,34.5246574 84.2375927,35.1440233 C88.2312664,41.024356 90.3416717,47.9284641 90.3416717,55.1094651 C90.3416717,60.1245073 89.3276041,64.9701346 87.3227191,69.5079006 C87.3227191,69.5097223 87.3227191,69.5097223 87.3227191,69.5115439 C87.1474481,69.9068451 86.9632348,70.3021463 86.773656,70.6919825 C86.4427874,71.3659983 86.7146362,72.1857473 87.3781619,72.5245768 C87.5695292,72.6211251 87.7716273,72.6666667 87.9737254,72.6666667" id="Fill-499"></path>
                    <path d="M53.0603503,64.8711451 C53.1415817,61.5192614 53.2137874,58.5739405 53.2137874,56.2845407 C53.2137874,54.7667067 53.7481095,53.6229102 54.7174708,53.0645641 C55.5099283,52.6128278 56.4955359,52.6146347 57.2897985,53.0790197 C58.260965,53.6464005 58.7916768,54.7829692 58.7826511,56.275506 C58.7591843,60.3808859 58.7591843,68.906054 58.7664048,76.1302215 L58.7700151,78.2768726 C58.7537688,78.4702158 58.7447431,78.6653659 58.7447431,78.8677437 L58.7826511,88.3090332 C58.7862614,89.0553016 59.390984,89.6588214 60.1365078,89.6588214 C60.1383129,89.6588214 60.1401181,89.6588214 60.1401181,89.6588214 C60.8874469,89.6570144 61.4921696,89.0498808 61.4903644,88.3018054 L61.4777284,78.3726407 C61.5806216,77.3191916 62.0192711,76.5494329 62.7611846,76.1302215 C63.5626677,75.6784852 64.6529736,75.7092033 65.4779236,76.2006924 C66.015856,76.5223287 66.6422403,77.1529526 66.7072254,78.3708338 C66.7054203,78.4702158 66.7072254,78.5714047 66.7108357,78.6707867 L66.7108357,88.2204929 C66.7108357,88.9685683 67.3173635,89.5757019 68.0646924,89.5757019 C68.8120213,89.5757019 69.4185491,88.9685683 69.4185491,88.2204929 L69.4185491,78.7015048 C69.4203542,78.5822464 69.4203542,78.461181 69.4167439,78.3437296 C69.4456262,77.3932763 69.8156803,76.6795329 70.4980241,76.2693563 C71.2904815,75.7887089 72.3898131,75.7905158 73.2201786,76.2747772 C73.7617212,76.5873787 74.3989364,77.2270374 74.4278187,78.5316519 C74.4260136,78.5912811 74.4278187,78.6545242 74.4278187,78.7159603 L74.5234912,88.2277207 C74.5307118,88.9721822 75.1354345,89.5702811 75.8773479,89.5702811 C75.8809582,89.5702811 75.8863736,89.5702811 75.891789,89.5702811 C76.6337025,89.5630533 77.2312046,88.9577266 77.2312046,88.2150721 C77.2312046,88.2096512 77.2312046,88.2060373 77.2312046,88.2006165 L77.135532,78.7087326 C77.1373372,78.6436825 77.1373372,78.5786325 77.135532,78.5135825 C77.1680246,77.2017401 77.7998244,76.5530468 78.3341465,76.2350244 C79.1049422,75.7796741 80.0941601,75.7670255 80.8577353,76.2043063 C81.6700493,76.6704982 82.0960628,77.5631292 82.0924526,78.7864312 C82.0888423,81.0920935 82.0924526,88.2530179 82.0942577,88.3090332 C82.0996731,88.4409402 82.6141387,101.572012 79.0507879,109.647251 C78.1680734,111.647539 77.7167878,112.672077 77.579597,116.289582 L57.9667268,116.289582 C57.7501098,114.999423 57.2681368,112.832896 56.2283749,110.35196 C52.1866615,100.682995 52.713763,79.1315578 53.0603503,64.8711451 Z M111,55.5563418 C111,24.9231972 86.1016734,0 55.4990974,0 C24.8965214,0 0,24.9231972 0,55.5563418 C0,85.3637123 23.9668732,110.061041 53.6109187,111.065703 C53.6542421,111.172313 53.6885398,111.295185 53.7336683,111.399988 C55.1940284,114.891006 55.430502,117.720683 55.4323072,117.747787 C55.4882666,118.452496 56.0749378,119 56.7825535,119 L78.899156,119 C79.6374591,119 80.2403766,118.405515 80.2530126,117.664667 C80.3179978,113.483396 80.6230668,112.791336 81.540079,110.716963 C85.3417085,102.096026 84.8236327,88.7571557 84.8001659,88.249404 C84.8001659,88.249404 84.7965556,81.0957074 84.8001659,78.793659 C84.8073864,76.6054482 83.8614919,74.8039237 82.2043714,73.8516635 C80.6158462,72.940963 78.5579841,72.9608394 76.9604332,73.900451 C76.5055374,74.1678789 76.106601,74.4985499 75.7672342,74.8780084 C75.4260624,74.5093916 75.0289311,74.1895622 74.5758404,73.9275552 C72.8898375,72.9499977 70.738108,72.9590324 69.100844,73.9474316 C68.6982973,74.1913692 68.339074,74.4840943 68.0321998,74.8201862 C67.7000537,74.4551832 67.3101429,74.1407747 66.8696882,73.8751537 C65.228814,72.8921755 63.1113822,72.841581 61.472313,73.7468606 C61.4668976,67.120792 61.4705079,59.9508329 61.4903644,56.2935755 C61.5048056,53.8216742 60.4722642,51.7978954 58.6526809,50.7372185 C57.0226375,49.7849583 54.999073,49.7777305 53.3672245,50.7173421 C51.5512514,51.7635635 50.5060741,53.7927631 50.5060741,56.2845407 C50.5060741,58.557678 50.4338684,61.4795086 50.352637,64.8042881 C50.2840416,67.6375784 50.2100307,70.758173 50.1649022,74.0142885 C42.0507879,71.6670665 36.3032151,64.1375252 36.3032151,55.5563418 C36.3032151,55.0594318 36.3212665,54.5661357 36.3609797,54.0764535 C36.4187442,53.331992 35.8591501,52.6796848 35.1136264,52.6200556 C34.3626872,52.5694611 33.7182515,53.1205794 33.6586818,53.8686548 C33.6171635,54.423387 33.5955018,54.9889609 33.5955018,55.5563418 C33.5955018,65.5957301 40.4983656,74.3648359 50.1324096,76.7969844 C50.0999171,81.1354602 50.137825,85.6419819 50.3255598,90.0039479 C33.3355613,87.4742245 20.6706835,72.9138588 20.6706835,55.5563418 C20.6706835,36.3340571 36.2941894,20.6931382 55.4990974,20.6931382 C61.7936283,20.6931382 67.9617993,22.3916668 73.3339025,25.6026087 C73.9783383,25.989295 74.8087037,25.7778824 75.1895887,25.1346098 C75.574084,24.4931442 75.3646875,23.6601424 74.7220569,23.27707 C68.9293555,19.8131558 62.2828219,17.9827201 55.4990974,17.9827201 C34.8013368,17.9827201 17.9629702,34.8397133 17.9629702,55.5563418 C17.9629702,74.4479554 31.8824218,90.2731828 50.4663609,92.7649604 C50.8165585,98.6284981 51.4989023,104.065597 52.6975167,108.315532 C24.966922,106.844679 2.70771332,83.5694156 2.70771332,55.5563418 C2.70771332,26.417541 26.3893741,2.71041803 55.4990974,2.71041803 C84.6088208,2.71041803 108.292287,26.417541 108.292287,55.5563418 C108.292287,70.1022518 102.512221,83.6561489 92.0171245,93.7208345 C92.0153193,93.7226415 92.0153193,93.7244484 92.0135142,93.7262554 C90.6524369,95.0326769 89.1956872,96.283083 87.6920037,97.4449489 C87.0999171,97.9021061 86.9898034,98.7531773 87.4465044,99.3458554 C87.7136654,99.690982 88.114407,99.8734835 88.520564,99.8734835 C88.8075816,99.8734835 89.0982095,99.7813292 89.345514,99.5916 C90.9268186,98.3719119 92.4521637,97.0564557 93.8818364,95.6831772 C93.8836415,95.6813702 93.8872518,95.6813702 93.8890569,95.6795633 C104.923891,85.0980913 111,70.8485203 111,55.5563418 Z" id="Fill-500"></path>
                </g>
            </g>
        </g>
    </g>
</svg>