<?xml version="1.0" encoding="UTF-8"?>
<svg width="90px" height="83px" viewBox="0 0 90 83" version="1.1" xmlns="http://www.w3.org/2000/svg" xmlns:xlink="http://www.w3.org/1999/xlink">
    <!-- Generator: sketchtool 50.2 (55047) - http://www.bohemiancoding.com/sketch -->
    <title>5EAD50DB-EBC4-4C29-AA16-6D4AEC1AB265</title>
    <desc>Created with sketchtool.</desc>
    <defs></defs>
    <g id="Web" stroke="none" stroke-width="1" fill="none" fill-rule="evenodd">
        <g id="Quantum-Analytics-1" transform="translate(-180.000000, -3444.000000)" fill="#1C94ED" fill-rule="nonzero">
            <g id="filter" transform="translate(181.000000, 3445.000000)">
                <path d="M60,20 L63,20 C64.1,20 65,19.1 65,18 C65,16.9 64.1,16 63,16 L60,16 C58.9,16 58,16.9 58,18 C58,19.1 58.9,20 60,20 Z" id="Shape"></path>
                <path d="M87.5975527,2.12903226 C86.928292,0.774193548 85.5897707,0 84.1556407,0 L3.84435933,0 C2.41022931,0 1.07170795,0.870967742 0.402447275,2.12903226 C-0.266813403,3.48387097 -0.0755960666,5.03225806 0.784881948,6.19354839 L34.5347418,49.1612903 L34.5347418,77.1290323 C34.5347418,78.5806452 35.2996112,79.8387097 36.5425239,80.516129 C37.1161759,80.8064516 37.6898279,81 38.3590886,81 C39.1239579,81 39.8888273,80.8064516 40.5580879,80.3225806 L51.1706501,72.8709677 C52.7003888,71.7096774 53.5608668,69.9677419 53.5608668,68.1290323 L53.5608668,49.0645161 L87.2151181,6.19354839 C88.0755961,5.03225806 88.2668134,3.48387097 87.5975527,2.12903226 Z M50.1189548,47.2258065 C49.9277374,47.516129 49.7365201,47.9032258 49.7365201,48.3870968 L49.7365201,68.0322581 C49.7365201,68.7096774 49.4496941,69.2903226 48.9716507,69.6774194 L38.3590886,77.1290323 L38.3590886,48.3870968 C38.3590886,47.7096774 38.0722626,47.1290323 37.5942192,46.8387097 L15.9866602,19.3548387 L50.6926068,19.3548387 C51.7443021,19.3548387 52.6047801,18.483871 52.6047801,17.4193548 C52.6047801,16.3548387 51.7443021,15.483871 50.6926068,15.483871 L13.4052262,15.483871 C13.3096175,15.483871 13.1184002,15.483871 13.0227915,15.483871 L3.84435933,3.87096774 L84.1556407,3.87096774 L50.1189548,47.2258065 Z" id="Shape" stroke="#FFFFFF"></path>
            </g>
        </g>
    </g>
</svg>