<?xml version="1.0" encoding="UTF-8"?>
<svg width="1439px" height="803px" viewBox="0 0 1439 803" version="1.1" xmlns="http://www.w3.org/2000/svg" xmlns:xlink="http://www.w3.org/1999/xlink">
    <!-- Generator: sketchtool 50.2 (55047) - http://www.bohemiancoding.com/sketch -->
    <title>7F642AEF-78F2-4A6F-9896-913DE2B23E72</title>
    <desc>Created with sketchtool.</desc>
    <defs></defs>
    <g id="Web" stroke="none" stroke-width="1" fill="none" fill-rule="evenodd" opacity="0.5" stroke-linecap="square">
        <g id="Quantum-Analytics-1" transform="translate(-1.000000, -61.000000)" stroke="#FFFFFF" stroke-width="0.5">
            <g id="setka" transform="translate(-4.000000, 61.000000)">
                <g id="Chart-Block">
                    <g id="Group" transform="translate(57.000000, 0.000000)" opacity="0.606809701" stroke-dasharray="2,2,2">
                        <path d="M0.25,0.342710997 L0.25,267.72845" id="Line-Copy-6"></path>
                        <path d="M58.5797759,0.342710997 L58.5797759,267.72845" id="Line-Copy-7"></path>
                        <path d="M116.909552,0.342710997 L116.909552,267.72845" id="Line-Copy-8"></path>
                        <path d="M175.239328,0.342710997 L175.239328,267.72845" id="Line-Copy-9"></path>
                        <path d="M233.569104,0.342710997 L233.569104,267.72845" id="Line-Copy-10"></path>
                        <path d="M291.898879,0.342710997 L291.898879,267.72845" id="Line-Copy-11"></path>
                        <path d="M350.228655,0.342710997 L350.228655,267.72845" id="Line-Copy-12"></path>
                        <path d="M408.558431,0.342710997 L408.558431,267.72845" id="Line-Copy-13"></path>
                        <path d="M466.888207,0.342710997 L466.888207,267.72845" id="Line-Copy-14"></path>
                        <path d="M525.217983,0.342710997 L525.217983,267.72845" id="Line-Copy-15"></path>
                        <path d="M583.547759,0.342710997 L583.547759,267.72845" id="Line-Copy-16"></path>
                    </g>
                    <g id="Group-Copy" transform="translate(700.000000, 0.000000)" opacity="0.606809701" stroke-dasharray="2,2,2">
                        <path d="M0.25,0.342710997 L0.25,267.72845" id="Line-Copy-6"></path>
                        <path d="M58.5797759,0.342710997 L58.5797759,267.72845" id="Line-Copy-7"></path>
                        <path d="M116.909552,0.342710997 L116.909552,267.72845" id="Line-Copy-8"></path>
                        <path d="M175.239328,0.342710997 L175.239328,267.72845" id="Line-Copy-9"></path>
                        <path d="M233.569104,0.342710997 L233.569104,267.72845" id="Line-Copy-10"></path>
                        <path d="M291.898879,0.342710997 L291.898879,267.72845" id="Line-Copy-11"></path>
                        <path d="M350.228655,0.342710997 L350.228655,267.72845" id="Line-Copy-12"></path>
                        <path d="M408.558431,0.342710997 L408.558431,267.72845" id="Line-Copy-13"></path>
                        <path d="M466.888207,0.342710997 L466.888207,267.72845" id="Line-Copy-14"></path>
                        <path d="M525.217983,0.342710997 L525.217983,267.72845" id="Line-Copy-15"></path>
                        <path d="M583.547759,0.342710997 L583.547759,267.72845" id="Line-Copy-16"></path>
                        <path d="M642.25,0.342710997 L642.25,267.72845" id="Line-Copy-17"></path>
                        <path d="M699.25,0.342710997 L699.25,267.72845" id="Line-Copy-18"></path>
                    </g>
                    <path d="M1.34280118,213.25 L700.754323,213.25" id="Line-Copy" opacity="0.756413246" stroke-dasharray="2,2,2,2"></path>
                    <path d="M757.342801,0.25 L1456.75432,0.25" id="Line-Copy-19" opacity="0.756413246" stroke-dasharray="2,2,2,2"></path>
                    <path d="M1.34280118,0.25 L700.754323,0.25" id="Line-Copy-2" opacity="0.756413246" stroke-dasharray="2,2,2"></path>
                    <path d="M701.364835,213.25 L1445.73091,213.25" id="Line-Copy-20" opacity="0.756413246" stroke-dasharray="2,2,2"></path>
                    <path d="M1.34280118,53.25 L700.754323,53.25" id="Line-Copy-3" opacity="0.756413246" stroke-dasharray="2,2,2,2"></path>
                    <path d="M701.342801,0.25 L1400.75432,0.25" id="Line-Copy-21" opacity="0.756413246" stroke-dasharray="2,2,2,2"></path>
                    <path d="M1.34280118,106.25 L700.754323,106.25" id="Line-Copy-4" opacity="0.756413246" stroke-dasharray="2,2,2,2"></path>
                    <path d="M701.364835,53.25 L1445.73091,53.25" id="Line-Copy-22" opacity="0.756413246" stroke-dasharray="2,2,2,2"></path>
                    <path d="M1.34280118,160.25 L700.754323,160.25" id="Line-Copy-5" opacity="0.756413246" stroke-dasharray="2,2,2,2"></path>
                    <path d="M701.364835,106.25 L1445.73091,106.25" id="Line-Copy-23" opacity="0.756413246" stroke-dasharray="2,2,2,2"></path>
                </g>
                <g id="Chart-Block-Copy-2" transform="translate(0.000000, 267.000000)">
                    <g id="Group" transform="translate(57.000000, 1.000000)" opacity="0.606809701" stroke-dasharray="2,2,2">
                        <path d="M0.25,0.342710997 L0.25,267.72845" id="Line-Copy-6"></path>
                        <path d="M58.5797759,0.342710997 L58.5797759,267.72845" id="Line-Copy-7"></path>
                        <path d="M116.909552,0.342710997 L116.909552,267.72845" id="Line-Copy-8"></path>
                        <path d="M175.239328,0.342710997 L175.239328,267.72845" id="Line-Copy-9"></path>
                        <path d="M233.569104,0.342710997 L233.569104,267.72845" id="Line-Copy-10"></path>
                        <path d="M291.898879,0.342710997 L291.898879,267.72845" id="Line-Copy-11"></path>
                        <path d="M350.228655,0.342710997 L350.228655,267.72845" id="Line-Copy-12"></path>
                        <path d="M408.558431,0.342710997 L408.558431,267.72845" id="Line-Copy-13"></path>
                        <path d="M466.888207,0.342710997 L466.888207,267.72845" id="Line-Copy-14"></path>
                        <path d="M525.217983,0.342710997 L525.217983,267.72845" id="Line-Copy-15"></path>
                        <path d="M583.547759,0.342710997 L583.547759,267.72845" id="Line-Copy-16"></path>
                    </g>
                    <g id="Group-Copy" transform="translate(700.000000, 1.000000)" opacity="0.606809701" stroke-dasharray="2,2,2">
                        <path d="M0.25,0.342710997 L0.25,267.72845" id="Line-Copy-6"></path>
                        <path d="M58.5797759,0.342710997 L58.5797759,267.72845" id="Line-Copy-7"></path>
                        <path d="M116.909552,0.342710997 L116.909552,267.72845" id="Line-Copy-8"></path>
                        <path d="M175.239328,0.342710997 L175.239328,267.72845" id="Line-Copy-9"></path>
                        <path d="M233.569104,0.342710997 L233.569104,267.72845" id="Line-Copy-10"></path>
                        <path d="M291.898879,0.342710997 L291.898879,267.72845" id="Line-Copy-11"></path>
                        <path d="M350.228655,0.342710997 L350.228655,267.72845" id="Line-Copy-12"></path>
                        <path d="M408.558431,0.342710997 L408.558431,267.72845" id="Line-Copy-13"></path>
                        <path d="M466.888207,0.342710997 L466.888207,267.72845" id="Line-Copy-14"></path>
                        <path d="M525.217983,0.342710997 L525.217983,267.72845" id="Line-Copy-15"></path>
                        <path d="M583.547759,0.342710997 L583.547759,267.72845" id="Line-Copy-16"></path>
                        <path d="M642.25,0.342710997 L642.25,267.72845" id="Line-Copy-17"></path>
                        <path d="M699.25,0.342710997 L699.25,267.72845" id="Line-Copy-24"></path>
                    </g>
                    <path d="M1.34280118,214.25 L700.754323,214.25" id="Line-Copy" opacity="0.756413246" stroke-dasharray="2,2,2,2"></path>
                    <path d="M757.342801,1.25 L1456.75432,1.25" id="Line-Copy-19" opacity="0.756413246" stroke-dasharray="2,2,2,2"></path>
                    <path d="M1.34280118,1.25 L758.5,1.25" id="Line-Copy-2" opacity="0.756413246" stroke-dasharray="2,2,2"></path>
                    <path d="M701.342801,214.25 L1400.75432,214.25" id="Line-Copy-20" opacity="0.756413246" stroke-dasharray="2,2,2"></path>
                    <path d="M1.34280118,54.25 L700.754323,54.25" id="Line-Copy-3" opacity="0.756413246" stroke-dasharray="2,2,2,2"></path>
                    <path d="M1.34280118,107.25 L700.754323,107.25" id="Line-Copy-4" opacity="0.756413246" stroke-dasharray="2,2,2,2"></path>
                    <path d="M701.364835,54.25 L1445.73091,54.25" id="Line-Copy-22" opacity="0.756413246" stroke-dasharray="2,2,2,2"></path>
                    <path d="M1.34280118,161.25 L700.754323,161.25" id="Line-Copy-5" opacity="0.756413246" stroke-dasharray="2,2,2,2"></path>
                    <path d="M701.364835,107.25 L1445.73091,107.25" id="Line-Copy-23" opacity="0.756413246" stroke-dasharray="2,2,2,2"></path>
                </g>
                <g id="Chart-Block-Copy-3" transform="translate(0.000000, 536.000000)">
                    <g id="Group" transform="translate(57.000000, 0.000000)" opacity="0.606809701" stroke-dasharray="2,2,2">
                        <path d="M0.25,0.342710997 L0.25,267.72845" id="Line-Copy-6"></path>
                        <path d="M58.5797759,0.342710997 L58.5797759,267.72845" id="Line-Copy-7"></path>
                        <path d="M116.909552,0.342710997 L116.909552,267.72845" id="Line-Copy-8"></path>
                        <path d="M175.239328,0.342710997 L175.239328,267.72845" id="Line-Copy-9"></path>
                        <path d="M233.569104,0.342710997 L233.569104,267.72845" id="Line-Copy-10"></path>
                        <path d="M291.898879,0.342710997 L291.898879,267.72845" id="Line-Copy-11"></path>
                        <path d="M350.228655,0.342710997 L350.228655,267.72845" id="Line-Copy-12"></path>
                        <path d="M408.558431,0.342710997 L408.558431,267.72845" id="Line-Copy-13"></path>
                        <path d="M466.888207,0.342710997 L466.888207,267.72845" id="Line-Copy-14"></path>
                        <path d="M525.217983,0.342710997 L525.217983,267.72845" id="Line-Copy-15"></path>
                        <path d="M583.547759,0.342710997 L583.547759,267.72845" id="Line-Copy-16"></path>
                    </g>
                    <g id="Group-Copy" transform="translate(700.000000, 0.000000)" opacity="0.606809701" stroke-dasharray="2,2,2">
                        <path d="M0.25,0.342710997 L0.25,267.72845" id="Line-Copy-6"></path>
                        <path d="M58.5797759,0.342710997 L58.5797759,267.72845" id="Line-Copy-7"></path>
                        <path d="M116.909552,0.342710997 L116.909552,267.72845" id="Line-Copy-8"></path>
                        <path d="M175.239328,0.342710997 L175.239328,267.72845" id="Line-Copy-9"></path>
                        <path d="M233.569104,0.342710997 L233.569104,267.72845" id="Line-Copy-10"></path>
                        <path d="M291.898879,0.342710997 L291.898879,267.72845" id="Line-Copy-11"></path>
                        <path d="M350.228655,0.342710997 L350.228655,267.72845" id="Line-Copy-12"></path>
                        <path d="M408.558431,0.342710997 L408.558431,267.72845" id="Line-Copy-13"></path>
                        <path d="M466.888207,0.342710997 L466.888207,267.72845" id="Line-Copy-14"></path>
                        <path d="M525.217983,0.342710997 L525.217983,267.72845" id="Line-Copy-15"></path>
                        <path d="M583.547759,0.342710997 L583.547759,267.72845" id="Line-Copy-16"></path>
                        <path d="M642.563767,0.342710997 L642.563767,267.72845" id="Line-Copy-17"></path>
                    </g>
                    <path d="M1.34280118,213.25 L700.754323,213.25" id="Line-Copy" opacity="0.756413246" stroke-dasharray="2,2,2,2"></path>
                    <path d="M757.342801,0.25 L1456.75432,0.25" id="Line-Copy-19" opacity="0.756413246" stroke-dasharray="2,2,2,2"></path>
                    <path d="M1.34280118,0.25 L700.754323,0.25" id="Line-Copy-2" opacity="0.756413246" stroke-dasharray="2,2,2"></path>
                    <path d="M701.342801,213.25 L1400.75432,213.25" id="Line-Copy-20" opacity="0.756413246" stroke-dasharray="2,2,2"></path>
                    <path d="M1.34280118,53.25 L700.754323,53.25" id="Line-Copy-3" opacity="0.756413246" stroke-dasharray="2,2,2,2"></path>
                    <path d="M701.342801,0.25 L1400.75432,0.25" id="Line-Copy-21" opacity="0.756413246" stroke-dasharray="2,2,2,2"></path>
                    <path d="M1.34280118,106.25 L700.754323,106.25" id="Line-Copy-4" opacity="0.756413246" stroke-dasharray="2,2,2,2"></path>
                    <path d="M701.342801,53.25 L1400.75432,53.25" id="Line-Copy-22" opacity="0.756413246" stroke-dasharray="2,2,2,2"></path>
                    <path d="M1.34280118,160.25 L700.754323,160.25" id="Line-Copy-5" opacity="0.756413246" stroke-dasharray="2,2,2,2"></path>
                    <path d="M701.342801,106.25 L1400.75432,106.25" id="Line-Copy-23" opacity="0.756413246" stroke-dasharray="2,2,2,2"></path>
                </g>
                <g id="Chart-Block-Copy" transform="translate(702.000000, 160.000000)" stroke-dasharray="2,2,2">
                    <path d="M0.429109484,0.25 L744.795184,0.25" id="Line-Copy-2" opacity="0.756413246"></path>
                </g>
            </g>
        </g>
    </g>
</svg>