<?xml version="1.0" encoding="UTF-8"?>
<svg width="1440px" height="379px" viewBox="0 0 1440 379" version="1.1" xmlns="http://www.w3.org/2000/svg" xmlns:xlink="http://www.w3.org/1999/xlink">
    <!-- Generator: Sketch 50.2 (55047) - http://www.bohemiancoding.com/sketch -->
    <title>Path 34 Copy 2</title>
    <desc>Created with Sketch.</desc>
    <defs></defs>
    <g id="Web" stroke="none" stroke-width="1" fill="none" fill-rule="evenodd">
        <g id="Quantum-Analytics-1" transform="translate(0.000000, -474.000000)" fill="#FFFFFF">
            <g id="main_img" transform="translate(0.000000, 64.000000)">
                <path d="M-2,714.338711 C-2,714.338711 53.2362285,702.016199 118.435431,688.179912 C183.634634,674.343625 190.91097,646.827708 233.135842,639.737691 C275.360714,632.647673 278.265501,665.851991 355.005028,648.457291 C431.744556,631.06259 409.436789,592.998612 459.669153,588.388937 C509.901517,583.779261 540.177091,626.067551 587.27336,627.142713 C634.369629,628.217875 771.425739,467.817595 805.20414,453.719563 C838.982541,439.62153 896.913549,506.889812 944.278388,505.068317 C991.643228,503.246821 1034.94825,410.778892 1109.16023,413.996941 C1183.37221,417.214991 1183.75893,432.16619 1251.10199,431.436141 C1318.44505,430.706093 1351.059,415.090218 1377.27244,411.090408 C1403.48588,407.090598 1427.45387,431.436141 1427.45387,431.436141 L1454.69522,471.158762 L1454.69522,791.012726 L-7.16805587,791.012726" id="Path-34-Copy-2"></path>
            </g>
        </g>
    </g>
</svg>