<?xml version="1.0" encoding="UTF-8"?>
<svg width="1440px" height="714px" viewBox="0 0 1440 714" version="1.1" xmlns="http://www.w3.org/2000/svg" xmlns:xlink="http://www.w3.org/1999/xlink">
    <!-- Generator: sketchtool 50.2 (55047) - http://www.bohemiancoding.com/sketch -->
    <title>760C8073-7B5C-4045-BE9A-31C2592C536B</title>
    <desc>Created with sketchtool.</desc>
    <defs>
        <path d="M1440,449.730582 L1427.45387,431.436141 C1427.45387,431.436141 1403.48588,407.090598 1377.27244,411.090408 C1351.059,415.090218 1318.44505,430.706093 1251.10199,431.436141 C1183.75893,432.16619 1183.37221,417.214991 1109.16023,413.996941 C1034.94825,410.778892 991.643228,503.246821 944.278388,505.068317 C896.913549,506.889812 838.982541,439.62153 805.20414,453.719563 C771.425739,467.817595 634.369629,628.217875 587.27336,627.142713 C540.177091,626.067551 509.901517,583.779261 459.669153,588.388937 C409.436789,592.998612 431.744556,631.06259 355.005028,648.457291 C278.265501,665.851991 275.360714,632.647673 233.135842,639.737691 C190.91097,646.827708 183.634634,674.343625 118.435431,688.179912 C60.5107928,700.472423 10.4499297,711.570111 -2.304823e-13,713.893521 L0,0 L1440,0 L1440,449.730582 Z" id="path-1"></path>
    </defs>
    <g id="Web" stroke="none" stroke-width="1" fill="none" fill-rule="evenodd">
        <g id="Quantum-Analytics-1" transform="translate(0.000000, -64.000000)">
            <g id="main_img" transform="translate(0.000000, 64.000000)">
                <mask id="mask-2" fill="white">
                    <use xlink:href="#path-1"></use>
                </mask>
                <use id="back" fill="#1991EB" xlink:href="#path-1"></use>
            </g>
        </g>
    </g>
</svg>