<?xml version="1.0" encoding="UTF-8"?>
<svg width="1440px" height="609px" viewBox="0 0 1440 609" version="1.1" xmlns="http://www.w3.org/2000/svg" xmlns:xlink="http://www.w3.org/1999/xlink">
    <!-- Generator: sketchtool 50.2 (55047) - http://www.bohemiancoding.com/sketch -->
    <title>246DC17A-3EAD-47E4-81A7-54508170E391</title>
    <desc>Created with sketchtool.</desc>
    <defs>
        <path d="M-41,788 C-41,788 15.0799495,772.251868 81.2750554,754.569137 C147.470161,736.886406 154.857642,701.721152 197.727489,692.660132 C240.597336,683.599112 243.546493,726.034125 321.4582,703.803753 C399.369907,681.57338 376.721394,632.927737 427.721046,627.036586 C478.720698,621.145436 509.458724,675.189737 557.274378,676.56379 C605.090032,677.937844 697.288643,508.610747 731.583001,490.593506 C765.87736,472.576264 871.644251,522.880962 919.732578,520.553097 C967.820905,518.225232 1011.7874,400.05151 1087.13295,404.164167 C1162.4785,408.276824 1165.08436,365.592683 1233.45607,364.659684 C1301.82778,363.726685 1288.92491,369.771429 1315.53875,364.659684 C1342.1526,359.547939 1394.06688,348.895447 1414.14928,297.291711 C1434.23168,245.687975 1440,193.187012 1440,193.187012 L1500.04743,417.593241" id="path-1"></path>
        
    </defs>
    <g id="Web" stroke="none" stroke-width="1" fill="none" fill-rule="evenodd">
        <g id="Quantum-Analytics-1" transform="translate(0.000000, -186.000000)">
            <g id="line">
                <use fill="black" fill-opacity="1" filter="url(#filter-2)" xlink:href="#path-1"></use>
                <use stroke="#60C1F7" stroke-width="2" xlink:href="#path-1"></use>
            </g>
        </g>
    </g>
</svg>