<?xml version="1.0" encoding="UTF-8"?>
<svg width="120px" height="109px" viewBox="0 0 120 109" version="1.1" xmlns="http://www.w3.org/2000/svg" xmlns:xlink="http://www.w3.org/1999/xlink">
    <!-- Generator: sketchtool 50.2 (55047) - http://www.bohemiancoding.com/sketch -->
    <title>61F56FF6-A46F-4000-9257-8EDEF2060C4D</title>
    <desc>Created with sketchtool.</desc>
    <defs>
        <polygon id="path-1" points="0 0 138.999726 0 138.999726 110.380112 0 110.380112"></polygon>
    </defs>
    <g id="Web" stroke="none" stroke-width="1" fill="none" fill-rule="evenodd">
        <g id="Quantum-Analytics-1" transform="translate(-771.000000, -3121.000000)">
            <g id="pie" transform="translate(771.000000, 3119.000000)">
                <path d="M65.8032726,4.89199998 C76.1349963,6.06938784 84.8590752,10.1608106 92.3961673,17.3649526 L62.0667331,47.8721758 L65.8032726,4.89199998 Z M59.7915226,52.7785718 C59.9762463,52.8668759 60.1756015,52.9091882 60.3712989,52.9091882 C60.7279437,52.9091882 61.0791015,52.7693734 61.34247,52.5044612 L95.3188252,18.3270992 C95.5748779,18.0695457 95.7193647,17.718169 95.7193647,17.3520749 C95.7193647,16.9859809 95.5748779,16.6346042 95.3188252,16.3770506 C86.7593515,7.76740189 76.73672,3.0670488 64.67847,2.00556006 C64.3181673,1.97244603 63.9542068,2.08834515 63.6762068,2.32382272 C63.3982068,2.55746062 63.2244568,2.89595963 63.1915358,3.260214 L59.0050752,51.4080187 C58.9556937,51.9856746 59.2702726,52.5338959 59.7915226,52.7785718 Z" id="Fill-1" fill="#1C94ED"></path>
                <mask id="mask-2" fill="white">
                    <use xlink:href="#path-1"></use>
                </mask>
                <g id="Clip-4"></g>
                <path d="M97.9153492,69.810975 C97.9062044,69.7668229 97.8769413,69.7300296 97.8641387,69.6877172 C97.7196518,69.222281 97.3483755,68.83963 96.8380992,68.7384482 L55.8879676,60.592396 C55.1563887,60.4525812 54.4248097,60.930895 54.276665,61.6778004 C54.1285202,62.4265455 54.6113623,63.1513749 55.353915,63.3003881 L94.9268492,71.17049 C89.5771781,94.852543 67.0262571,110.620342 42.9353623,107.211436 C30.5881387,105.465591 19.6565202,98.9881178 12.1523492,88.9729624 C4.65000708,78.9578069 1.4731255,66.6007534 3.20879655,54.1811512 C5.12370444,40.4811396 12.9150202,28.3798001 24.5891913,20.9824929 C32.8871255,15.7210409 42.3811913,13.2650834 52.1331387,13.8408997 L50.2035992,36.0162641 L50.2035992,36.0181038 L48.4313492,56.3832344 C48.3655071,57.1411778 48.925165,57.8108172 49.6786913,57.8770452 C49.7189281,57.8825642 49.759165,57.8844039 49.7994018,57.8844039 C50.5035465,57.8844039 51.1016123,57.3417017 51.1637965,56.624231 L52.8263097,37.53767 L52.8263097,37.5358303 L54.9862965,12.6874275 C55.0192176,12.3231731 54.9039939,11.9607584 54.6698887,11.6811288 C54.4376123,11.4014992 54.102915,11.224891 53.7407834,11.1936167 C42.9079281,10.2406684 32.3274676,12.818044 23.1278623,18.6461139 C10.769665,26.4775828 2.51928339,39.2908741 0.489151812,53.7966604 C-1.3452824,66.9466111 2.01632286,80.0303336 9.96127023,90.6323434 C17.9080465,101.239872 29.4816255,108.098156 42.5531123,109.943344 C44.8831913,110.272645 47.1968097,110.434535 49.4866518,110.434535 C72.7398887,110.434535 93.3082308,93.9124724 97.9190071,70.3573565 C97.9519281,70.1917864 97.9427834,70.0280559 97.9153492,69.8698444 C97.9135202,69.849608 97.9190071,69.8293717 97.9153492,69.810975" id="Fill-3" fill="#1C94ED" mask="url(#mask-2)"></path>
                <path d="M116.770746,59.7058856 L73.2875227,53.5595531 L104.335733,22.3275005 C114.100483,32.6682772 118.382049,45.5367586 116.770746,59.7058856 M105.317878,19.3877101 C104.803944,18.8707633 103.893128,18.8707633 103.379194,19.3877101 L69.4028385,53.5650721 C69.0333911,53.9348454 68.9053648,54.4830667 69.071799,54.9779375 C69.2364042,55.474648 69.6662069,55.835223 70.1801411,55.9069701 L117.763865,62.6327982 C117.827878,62.6419966 117.890062,62.6475156 117.954075,62.6475156 C118.252194,62.6475156 118.541167,62.5518528 118.78076,62.3697256 C119.071562,62.1489654 119.261773,61.8196647 119.314812,61.4590897 C121.555273,45.4024628 116.717707,30.8543641 105.317878,19.3877101" id="Fill-6" fill="#1C94ED" mask="url(#mask-2)"></path>
            </g>
        </g>
    </g>
</svg>