<?xml version="1.0" encoding="UTF-8"?>
<svg width="1184px" height="571px" viewBox="0 0 1184 571" version="1.1" xmlns="http://www.w3.org/2000/svg" xmlns:xlink="http://www.w3.org/1999/xlink">
    <!-- Generator: Sketch 50.2 (55047) - http://www.bohemiancoding.com/sketch -->
    <title>Group 12</title>
    <desc>Created with Sketch.</desc>
    <defs>
        <linearGradient x1="-1.11022302e-14%" y1="50%" x2="100%" y2="50%" id="linearGradient-1">
            <stop stop-color="#FFFFFF" stop-opacity="0" offset="0%"></stop>
            <stop stop-color="#FFFFFF" offset="51.0996207%"></stop>
            <stop stop-color="#FFFFFF" stop-opacity="0" offset="100%"></stop>
        </linearGradient>
    </defs>
    <g id="-" stroke="none" stroke-width="1" fill="none" fill-rule="evenodd">
        <g id="In-House" transform="translate(-163.000000, -94.000000)">
            <g id="Group-12" transform="translate(163.000000, 94.000000)">
                <g id="circle/white" opacity="0.5" transform="translate(333.000000, 70.000000)" fill="#FFFFFF">
                    <g id="circle_yellow">
                        <circle id="Oval" opacity="0.2" cx="224" cy="224" r="224"></circle>
                        <circle id="Oval" opacity="0.4" cx="224" cy="224" r="163.409836"></circle>
                        <circle id="Oval" cx="224" cy="224" r="95.4754098"></circle>
                    </g>
                </g>
                <path d="M18.94976,377.13408 C19.6409635,377.352961 20.182398,377.718717 20.57408,378.23136 C20.965762,378.744003 21.1616,379.374716 21.1616,380.12352 C21.1616,381.183365 20.7497641,381.998397 19.92608,382.56864 C19.1023959,383.138883 17.9014479,383.424 16.3232,383.424 L10.06784,383.424 L10.06784,371.328 L15.9776,371.328 C17.4521674,371.328 18.5839961,371.610237 19.37312,372.17472 C20.1622439,372.739203 20.5568,373.505275 20.5568,374.47296 C20.5568,375.060483 20.4156814,375.584638 20.13344,376.04544 C19.8511986,376.506242 19.4566425,376.869119 18.94976,377.13408 Z M12.84992,373.43616 L12.84992,376.28736 L15.632,376.28736 C16.3232035,376.28736 16.8473582,376.166401 17.20448,375.92448 C17.5616018,375.682559 17.74016,375.325442 17.74016,374.85312 C17.74016,374.380798 17.5616018,374.026561 17.20448,373.7904 C16.8473582,373.554239 16.3232035,373.43616 15.632,373.43616 L12.84992,373.43616 Z M16.11584,381.31584 C16.8531237,381.31584 17.4089581,381.194881 17.78336,380.95296 C18.1577619,380.711039 18.34496,380.336643 18.34496,379.82976 C18.34496,378.827515 17.6019274,378.3264 16.11584,378.3264 L12.84992,378.3264 L12.84992,381.31584 L16.11584,381.31584 Z M25.67168,375.35424 C25.9942416,374.904958 26.4291173,374.565121 26.97632,374.33472 C27.5235227,374.104319 28.1542364,373.98912 28.86848,373.98912 L28.86848,376.47744 C28.5689585,376.4544 28.3673605,376.44288 28.26368,376.44288 C27.4918361,376.44288 26.8870422,376.658878 26.44928,377.09088 C26.0115178,377.522882 25.79264,378.170876 25.79264,379.03488 L25.79264,383.424 L23.09696,383.424 L23.09696,374.12736 L25.67168,374.12736 L25.67168,375.35424 Z M34.2944,373.98912 C35.7344072,373.98912 36.8403161,374.331837 37.61216,375.01728 C38.3840039,375.702723 38.76992,376.736633 38.76992,378.11904 L38.76992,383.424 L36.24704,383.424 L36.24704,382.26624 C35.7401575,383.130244 34.7955269,383.56224 33.41312,383.56224 C32.6988764,383.56224 32.0796826,383.441281 31.55552,383.19936 C31.0313574,382.957439 30.6310414,382.623362 30.35456,382.19712 C30.0780786,381.770878 29.93984,381.287043 29.93984,380.7456 C29.93984,379.881596 30.2652767,379.201922 30.91616,378.70656 C31.5670433,378.211198 32.5721532,377.96352 33.93152,377.96352 L36.07424,377.96352 C36.07424,377.375997 35.8956818,376.923842 35.53856,376.60704 C35.1814382,376.290238 34.6457636,376.13184 33.93152,376.13184 C33.4361575,376.13184 32.9494424,376.209599 32.47136,376.36512 C31.9932776,376.520641 31.5872017,376.730879 31.25312,376.99584 L30.28544,375.11232 C30.7923225,374.755198 31.3999965,374.478721 32.10848,374.28288 C32.8169635,374.087039 33.5455963,373.98912 34.2944,373.98912 Z M34.08704,381.74784 C34.5478423,381.74784 34.9567982,381.641281 35.31392,381.42816 C35.6710418,381.215039 35.9244793,380.901122 36.07424,380.4864 L36.07424,379.536 L34.22528,379.536 C33.1193545,379.536 32.5664,379.898876 32.5664,380.62464 C32.5664,380.970242 32.7017586,381.243839 32.97248,381.44544 C33.2432014,381.647041 33.6147176,381.74784 34.08704,381.74784 Z M46.85696,373.98912 C48.0089658,373.98912 48.9391965,374.334717 49.64768,375.02592 C50.3561635,375.717123 50.7104,376.742393 50.7104,378.10176 L50.7104,383.424 L48.01472,383.424 L48.01472,378.51648 C48.01472,377.779196 47.8534416,377.229122 47.53088,376.86624 C47.2083184,376.503358 46.7417631,376.32192 46.1312,376.32192 C45.4515166,376.32192 44.910082,376.532158 44.50688,376.95264 C44.103678,377.373122 43.90208,377.998076 43.90208,378.82752 L43.90208,383.424 L41.2064,383.424 L41.2064,374.12736 L43.78112,374.12736 L43.78112,375.216 C44.1382418,374.824318 44.5817574,374.521921 45.11168,374.3088 C45.6416026,374.095679 46.2233568,373.98912 46.85696,373.98912 Z M62.61632,370.60224 L62.61632,383.424 L60.0416,383.424 L60.0416,382.35264 C59.3734367,383.159044 58.4057663,383.56224 57.13856,383.56224 C56.2630356,383.56224 55.4710435,383.366402 54.76256,382.97472 C54.0540765,382.583038 53.498242,382.024324 53.09504,381.29856 C52.691838,380.572796 52.49024,379.731845 52.49024,378.77568 C52.49024,377.819515 52.691838,376.978564 53.09504,376.2528 C53.498242,375.527036 54.0540765,374.968322 54.76256,374.57664 C55.4710435,374.184958 56.2630356,373.98912 57.13856,373.98912 C58.3251259,373.98912 59.2524767,374.363516 59.92064,375.11232 L59.92064,370.60224 L62.61632,370.60224 Z M57.60512,381.3504 C58.2848034,381.3504 58.8492778,381.117122 59.29856,380.65056 C59.7478422,380.183998 59.97248,379.559044 59.97248,378.77568 C59.97248,377.992316 59.7478422,377.367362 59.29856,376.9008 C58.8492778,376.434238 58.2848034,376.20096 57.60512,376.20096 C56.9139165,376.20096 56.3436822,376.434238 55.8944,376.9008 C55.4451178,377.367362 55.22048,377.992316 55.22048,378.77568 C55.22048,379.559044 55.4451178,380.183998 55.8944,380.65056 C56.3436822,381.117122 56.9139165,381.3504 57.60512,381.3504 Z M74.15936,383.63136 C73.2031952,383.63136 72.2787245,383.501761 71.38592,383.24256 C70.4931155,382.983359 69.7760027,382.646402 69.23456,382.23168 L70.18496,380.12352 C70.7033626,380.503682 71.3196764,380.808959 72.03392,381.03936 C72.7481636,381.269761 73.4623964,381.38496 74.17664,381.38496 C74.971524,381.38496 75.5590381,381.266881 75.9392,381.03072 C76.3193619,380.794559 76.50944,380.480642 76.50944,380.08896 C76.50944,379.800959 76.3971211,379.561921 76.17248,379.37184 C75.9478389,379.181759 75.6598418,379.029121 75.30848,378.91392 C74.9571182,378.798719 74.481923,378.672001 73.88288,378.53376 C72.9612754,378.314879 72.2067229,378.096001 71.6192,377.87712 C71.0316771,377.658239 70.5276821,377.306882 70.1072,376.82304 C69.6867179,376.339198 69.47648,375.694084 69.47648,374.88768 C69.47648,374.184956 69.6665581,373.548483 70.04672,372.97824 C70.4268819,372.407997 70.9999962,371.955842 71.76608,371.62176 C72.5321638,371.287678 73.4681545,371.12064 74.57408,371.12064 C75.3459239,371.12064 76.1004763,371.212799 76.83776,371.39712 C77.5750437,371.581441 78.2201572,371.846398 78.77312,372.192 L77.90912,374.31744 C76.7916744,373.683837 75.6742456,373.36704 74.5568,373.36704 C73.7734361,373.36704 73.1945619,373.493759 72.82016,373.7472 C72.4457581,374.000641 72.25856,374.334718 72.25856,374.74944 C72.25856,375.164162 72.4745578,375.472319 72.90656,375.67392 C73.3385622,375.875521 73.9980756,376.074239 74.88512,376.27008 C75.8067246,376.488961 76.5612771,376.707839 77.1488,376.92672 C77.7363229,377.145601 78.2403179,377.491198 78.6608,377.96352 C79.0812821,378.435842 79.29152,379.075196 79.29152,379.8816 C79.29152,380.572803 79.0985619,381.203517 78.71264,381.77376 C78.3267181,382.344003 77.7478439,382.796158 76.976,383.13024 C76.2041561,383.464322 75.2652855,383.63136 74.15936,383.63136 Z M84.76928,373.98912 C86.2092872,373.98912 87.3151961,374.331837 88.08704,375.01728 C88.8588839,375.702723 89.2448,376.736633 89.2448,378.11904 L89.2448,383.424 L86.72192,383.424 L86.72192,382.26624 C86.2150375,383.130244 85.2704069,383.56224 83.888,383.56224 C83.1737564,383.56224 82.5545626,383.441281 82.0304,383.19936 C81.5062374,382.957439 81.1059214,382.623362 80.82944,382.19712 C80.5529586,381.770878 80.41472,381.287043 80.41472,380.7456 C80.41472,379.881596 80.7401567,379.201922 81.39104,378.70656 C82.0419233,378.211198 83.0470332,377.96352 84.4064,377.96352 L86.54912,377.96352 C86.54912,377.375997 86.3705618,376.923842 86.01344,376.60704 C85.6563182,376.290238 85.1206436,376.13184 84.4064,376.13184 C83.9110375,376.13184 83.4243224,376.209599 82.94624,376.36512 C82.4681576,376.520641 82.0620817,376.730879 81.728,376.99584 L80.76032,375.11232 C81.2672025,374.755198 81.8748765,374.478721 82.58336,374.28288 C83.2918435,374.087039 84.0204763,373.98912 84.76928,373.98912 Z M84.56192,381.74784 C85.0227223,381.74784 85.4316782,381.641281 85.7888,381.42816 C86.1459218,381.215039 86.3993593,380.901122 86.54912,380.4864 L86.54912,379.536 L84.70016,379.536 C83.5942345,379.536 83.04128,379.898876 83.04128,380.62464 C83.04128,380.970242 83.1766386,381.243839 83.44736,381.44544 C83.7180814,381.647041 84.0895976,381.74784 84.56192,381.74784 Z M94.63616,374.33472 L97.0208,374.33472 L97.0208,376.40832 L94.70528,376.40832 L94.70528,383.424 L92.0096,383.424 L92.0096,376.40832 L90.57536,376.40832 L90.57536,374.33472 L92.0096,374.33472 L92.0096,373.92 C92.0096,372.860155 92.3235169,372.019203 92.95136,371.39712 C93.5792031,370.775037 94.4633543,370.464 95.60384,370.464 C96.007042,370.464 96.3900782,370.5072 96.75296,370.5936 C97.1158418,370.68 97.4182388,370.803839 97.66016,370.96512 L96.95168,372.91776 C96.6406384,372.698879 96.2777621,372.58944 95.86304,372.58944 C95.0451159,372.58944 94.63616,373.038716 94.63616,373.93728 L94.63616,374.33472 Z M107.4752,378.81024 C107.4752,378.8448 107.45792,379.086718 107.42336,379.536 L100.3904,379.536 C100.517121,380.112003 100.816638,380.567038 101.28896,380.90112 C101.761282,381.235202 102.348796,381.40224 103.05152,381.40224 C103.535362,381.40224 103.964478,381.330241 104.33888,381.18624 C104.713282,381.042239 105.061758,380.814722 105.38432,380.50368 L106.81856,382.05888 C105.943036,383.061125 104.664328,383.56224 102.9824,383.56224 C101.934075,383.56224 101.006724,383.357762 100.20032,382.9488 C99.393916,382.539838 98.7718422,381.972484 98.33408,381.24672 C97.8963178,380.520956 97.67744,379.697285 97.67744,378.77568 C97.67744,377.865595 97.8934378,377.044804 98.32544,376.31328 C98.7574422,375.581756 99.3507162,375.011522 100.10528,374.60256 C100.859844,374.193598 101.703675,373.98912 102.6368,373.98912 C103.546885,373.98912 104.370556,374.184958 105.10784,374.57664 C105.845124,374.968322 106.423998,375.529916 106.84448,376.26144 C107.264962,376.992964 107.4752,377.842555 107.4752,378.81024 Z M102.65408,376.02816 C102.043517,376.02816 101.530882,376.200958 101.11616,376.54656 C100.701438,376.892162 100.448,377.364477 100.35584,377.96352 L104.93504,377.96352 C104.84288,377.375997 104.589442,376.906562 104.17472,376.5552 C103.759998,376.203838 103.253123,376.02816 102.65408,376.02816 Z M115.26848,382.97472 C115.003519,383.170561 114.678082,383.31744 114.29216,383.41536 C113.906238,383.51328 113.500162,383.56224 113.07392,383.56224 C111.967994,383.56224 111.112643,383.280003 110.50784,382.71552 C109.903037,382.151037 109.60064,381.321605 109.60064,380.2272 L109.60064,376.40832 L108.1664,376.40832 L108.1664,374.33472 L109.60064,374.33472 L109.60064,372.07104 L112.29632,372.07104 L112.29632,374.33472 L114.61184,374.33472 L114.61184,376.40832 L112.29632,376.40832 L112.29632,380.19264 C112.29632,380.584322 112.397119,380.886719 112.59872,381.09984 C112.800321,381.312961 113.085438,381.41952 113.45408,381.41952 C113.880322,381.41952 114.243199,381.304321 114.54272,381.07392 L115.26848,382.97472 Z M126.01664,374.12736 L121.8176,383.99424 C121.391358,385.065605 120.864323,385.820158 120.23648,386.25792 C119.608637,386.695682 118.851204,386.91456 117.96416,386.91456 C117.480318,386.91456 117.002242,386.839681 116.52992,386.68992 C116.057598,386.540159 115.671681,386.332801 115.37216,386.06784 L116.35712,384.14976 C116.564481,384.334081 116.803519,384.478079 117.07424,384.58176 C117.344961,384.685441 117.612799,384.73728 117.87776,384.73728 C118.246402,384.73728 118.545919,384.648001 118.77632,384.46944 C119.006721,384.290879 119.214079,383.994242 119.3984,383.57952 L119.43296,383.49312 L115.40672,374.12736 L118.1888,374.12736 L120.79808,380.43456 L123.42464,374.12736 L126.01664,374.12736 Z" id="Brand-Safety" fill="#FFFFFF"></path>
                <g id="circle/white" transform="translate(0.296000, 223.000000)" fill="#FFFFFF">
                    <g id="circle_yellow">
                        <circle id="Oval" opacity="0.2" cx="66.9415735" cy="66.9415735" r="66.9415735"></circle>
                        <circle id="Oval" opacity="0.4" cx="66.9415735" cy="66.9415735" r="48.8344265"></circle>
                        <circle id="Oval" cx="66.9415735" cy="66.9415735" r="28.5324739"></circle>
                    </g>
                </g>
                <path d="M243.4989,155.2584 L239.8701,155.2584 L239.8701,153.12 L249.7521,153.12 L249.7521,155.2584 L246.1233,155.2584 L246.1233,164.46 L243.4989,164.46 L243.4989,155.2584 Z M253.3971,156.8946 C253.699502,156.473398 254.107197,156.154801 254.6202,155.9388 C255.133203,155.722799 255.724497,155.6148 256.3941,155.6148 L256.3941,157.9476 C256.113299,157.926 255.9243,157.9152 255.8271,157.9152 C255.103496,157.9152 254.536502,158.117698 254.1261,158.5227 C253.715698,158.927702 253.5105,159.535196 253.5105,160.3452 L253.5105,164.46 L250.9833,164.46 L250.9833,155.7444 L253.3971,155.7444 L253.3971,156.8946 Z M261.4809,155.6148 C262.830907,155.6148 263.867696,155.936097 264.5913,156.5787 C265.314904,157.221303 265.6767,158.190594 265.6767,159.4866 L265.6767,164.46 L263.3115,164.46 L263.3115,163.3746 C262.836298,164.184604 261.950706,164.5896 260.6547,164.5896 C259.985097,164.5896 259.404602,164.476201 258.9132,164.2494 C258.421798,164.022599 258.046501,163.709402 257.7873,163.3098 C257.528099,162.910198 257.3985,162.456603 257.3985,161.949 C257.3985,161.138996 257.703597,160.501802 258.3138,160.0374 C258.924003,159.572998 259.866294,159.3408 261.1407,159.3408 L263.1495,159.3408 C263.1495,158.789997 262.982102,158.366101 262.6473,158.0691 C262.312498,157.772099 261.810303,157.6236 261.1407,157.6236 C260.676298,157.6236 260.220002,157.696499 259.7718,157.8423 C259.323598,157.988101 258.942902,158.185199 258.6297,158.4336 L257.7225,156.6678 C258.197702,156.332998 258.767397,156.073801 259.4316,155.8902 C260.095803,155.706599 260.778896,155.6148 261.4809,155.6148 Z M261.2865,162.8886 C261.718502,162.8886 262.101898,162.788701 262.4367,162.5889 C262.771502,162.389099 263.009099,162.094802 263.1495,161.706 L263.1495,160.815 L261.4161,160.815 C260.379295,160.815 259.8609,161.155197 259.8609,161.8356 C259.8609,162.159602 259.987799,162.416099 260.2416,162.6051 C260.495401,162.794101 260.843698,162.8886 261.2865,162.8886 Z M273.2583,155.6148 C274.338305,155.6148 275.210397,155.938797 275.8746,156.5868 C276.538803,157.234803 276.8709,158.195994 276.8709,159.4704 L276.8709,164.46 L274.3437,164.46 L274.3437,159.8592 C274.3437,159.167997 274.192502,158.652302 273.8901,158.3121 C273.587698,157.971898 273.150303,157.8018 272.5779,157.8018 C271.940697,157.8018 271.433102,157.998898 271.0551,158.3931 C270.677098,158.787302 270.4881,159.373196 270.4881,160.1508 L270.4881,164.46 L267.9609,164.46 L267.9609,155.7444 L270.3747,155.7444 L270.3747,156.765 C270.709502,156.397798 271.125298,156.114301 271.6221,155.9145 C272.118902,155.714699 272.664297,155.6148 273.2583,155.6148 Z M282.0873,164.5896 C281.363696,164.5896 280.656303,164.500501 279.9651,164.3223 C279.273897,164.144099 278.723102,163.920001 278.3127,163.65 L279.1551,161.8356 C279.543902,162.084001 280.013697,162.286499 280.5645,162.4431 C281.115303,162.599701 281.655297,162.678 282.1845,162.678 C283.253705,162.678 283.7883,162.413403 283.7883,161.8842 C283.7883,161.635799 283.642501,161.457601 283.3509,161.3496 C283.059299,161.241599 282.611103,161.1498 282.0063,161.0742 C281.293496,160.966199 280.704902,160.842001 280.2405,160.7016 C279.776098,160.561199 279.373802,160.312802 279.0336,159.9564 C278.693398,159.599998 278.5233,159.092403 278.5233,158.4336 C278.5233,157.882797 278.682598,157.394102 279.0012,156.9675 C279.319802,156.540898 279.784197,156.208801 280.3944,155.9712 C281.004603,155.733599 281.725496,155.6148 282.5571,155.6148 C283.172703,155.6148 283.785597,155.682299 284.3958,155.8173 C285.006003,155.952301 285.510898,156.138599 285.9105,156.3762 L285.0681,158.1744 C284.301296,157.742398 283.464305,157.5264 282.5571,157.5264 C282.017097,157.5264 281.612101,157.601999 281.3421,157.7532 C281.072099,157.904401 280.9371,158.098799 280.9371,158.3364 C280.9371,158.606401 281.082899,158.795399 281.3745,158.9034 C281.666101,159.011401 282.130497,159.114 282.7677,159.2112 C283.480504,159.330001 284.063698,159.456899 284.5173,159.5919 C284.970902,159.726901 285.365098,159.972598 285.6999,160.329 C286.034702,160.685402 286.2021,161.182197 286.2021,161.8194 C286.2021,162.359403 286.040102,162.839998 285.7161,163.2612 C285.392098,163.682402 284.919603,164.009099 284.2986,164.2413 C283.677597,164.473501 282.940504,164.5896 282.0873,164.5896 Z M292.9089,155.6148 C293.718904,155.6148 294.455997,155.801098 295.1202,156.1737 C295.784403,156.546302 296.305498,157.070097 296.6835,157.7451 C297.061502,158.420103 297.2505,159.205796 297.2505,160.1022 C297.2505,160.998604 297.061502,161.784297 296.6835,162.4593 C296.305498,163.134303 295.784403,163.658098 295.1202,164.0307 C294.455997,164.403302 293.718904,164.5896 292.9089,164.5896 C291.796494,164.5896 290.921703,164.238604 290.2845,163.5366 L290.2845,167.6028 L287.7573,167.6028 L287.7573,155.7444 L290.1711,155.7444 L290.1711,156.7488 C290.797503,155.992796 291.710094,155.6148 292.9089,155.6148 Z M292.4715,162.516 C293.119503,162.516 293.651398,162.297302 294.0672,161.8599 C294.483002,161.422498 294.6909,160.836604 294.6909,160.1022 C294.6909,159.367796 294.483002,158.781902 294.0672,158.3445 C293.651398,157.907098 293.119503,157.6884 292.4715,157.6884 C291.823497,157.6884 291.291602,157.907098 290.8758,158.3445 C290.459998,158.781902 290.2521,159.367796 290.2521,160.1022 C290.2521,160.836604 290.459998,161.422498 290.8758,161.8599 C291.291602,162.297302 291.823497,162.516 292.4715,162.516 Z M302.4507,155.6148 C303.800707,155.6148 304.837496,155.936097 305.5611,156.5787 C306.284704,157.221303 306.6465,158.190594 306.6465,159.4866 L306.6465,164.46 L304.2813,164.46 L304.2813,163.3746 C303.806098,164.184604 302.920506,164.5896 301.6245,164.5896 C300.954897,164.5896 300.374402,164.476201 299.883,164.2494 C299.391598,164.022599 299.016301,163.709402 298.7571,163.3098 C298.497899,162.910198 298.3683,162.456603 298.3683,161.949 C298.3683,161.138996 298.673397,160.501802 299.2836,160.0374 C299.893803,159.572998 300.836094,159.3408 302.1105,159.3408 L304.1193,159.3408 C304.1193,158.789997 303.951902,158.366101 303.6171,158.0691 C303.282298,157.772099 302.780103,157.6236 302.1105,157.6236 C301.646098,157.6236 301.189802,157.696499 300.7416,157.8423 C300.293398,157.988101 299.912702,158.185199 299.5995,158.4336 L298.6923,156.6678 C299.167502,156.332998 299.737197,156.073801 300.4014,155.8902 C301.065603,155.706599 301.748696,155.6148 302.4507,155.6148 Z M302.2563,162.8886 C302.688302,162.8886 303.071698,162.788701 303.4065,162.5889 C303.741302,162.389099 303.978899,162.094802 304.1193,161.706 L304.1193,160.815 L302.3859,160.815 C301.349095,160.815 300.8307,161.155197 300.8307,161.8356 C300.8307,162.159602 300.957599,162.416099 301.2114,162.6051 C301.465201,162.794101 301.813498,162.8886 302.2563,162.8886 Z M311.3445,156.8946 C311.646902,156.473398 312.054597,156.154801 312.5676,155.9388 C313.080603,155.722799 313.671897,155.6148 314.3415,155.6148 L314.3415,157.9476 C314.060699,157.926 313.8717,157.9152 313.7745,157.9152 C313.050896,157.9152 312.483902,158.117698 312.0735,158.5227 C311.663098,158.927702 311.4579,159.535196 311.4579,160.3452 L311.4579,164.46 L308.9307,164.46 L308.9307,155.7444 L311.3445,155.7444 L311.3445,156.8946 Z M324.4503,160.1346 C324.4503,160.167 324.4341,160.393798 324.4017,160.815 L317.8083,160.815 C317.927101,161.355003 318.207898,161.781598 318.6507,162.0948 C319.093502,162.408002 319.644297,162.5646 320.3031,162.5646 C320.756702,162.5646 321.158998,162.497101 321.51,162.3621 C321.861002,162.227099 322.187698,162.013801 322.4901,161.7222 L323.8347,163.1802 C323.013896,164.119805 321.815108,164.5896 320.2383,164.5896 C319.255495,164.5896 318.386104,164.397902 317.6301,164.0145 C316.874096,163.631098 316.290902,163.099203 315.8805,162.4188 C315.470098,161.738397 315.2649,160.966204 315.2649,160.1022 C315.2649,159.248996 315.467398,158.479503 315.8724,157.7937 C316.277402,157.107897 316.833596,156.573302 317.541,156.1899 C318.248404,155.806498 319.039496,155.6148 319.9143,155.6148 C320.767504,155.6148 321.539697,155.798398 322.2309,156.1656 C322.922103,156.532802 323.464798,157.059297 323.859,157.7451 C324.253202,158.430903 324.4503,159.227395 324.4503,160.1346 Z M319.9305,157.5264 C319.358097,157.5264 318.877502,157.688398 318.4887,158.0124 C318.099898,158.336402 317.8623,158.779197 317.7759,159.3408 L322.0689,159.3408 C321.9825,158.789997 321.744902,158.349902 321.3561,158.0205 C320.967298,157.691098 320.492103,157.5264 319.9305,157.5264 Z M331.4325,155.6148 C332.512505,155.6148 333.384597,155.938797 334.0488,156.5868 C334.713003,157.234803 335.0451,158.195994 335.0451,159.4704 L335.0451,164.46 L332.5179,164.46 L332.5179,159.8592 C332.5179,159.167997 332.366702,158.652302 332.0643,158.3121 C331.761898,157.971898 331.324503,157.8018 330.7521,157.8018 C330.114897,157.8018 329.607302,157.998898 329.2293,158.3931 C328.851298,158.787302 328.6623,159.373196 328.6623,160.1508 L328.6623,164.46 L326.1351,164.46 L326.1351,155.7444 L328.5489,155.7444 L328.5489,156.765 C328.883702,156.397798 329.299498,156.114301 329.7963,155.9145 C330.293102,155.714699 330.838497,155.6148 331.4325,155.6148 Z M341.5413,164.5896 C340.612495,164.5896 339.778204,164.397902 339.0384,164.0145 C338.298596,163.631098 337.720802,163.099203 337.305,162.4188 C336.889198,161.738397 336.6813,160.966204 336.6813,160.1022 C336.6813,159.238196 336.889198,158.466003 337.305,157.7856 C337.720802,157.105197 338.298596,156.573302 339.0384,156.1899 C339.778204,155.806498 340.612495,155.6148 341.5413,155.6148 C342.459305,155.6148 343.261197,155.806498 343.947,156.1899 C344.632803,156.573302 345.132298,157.121396 345.4455,157.8342 L343.4853,158.8872 C343.031698,158.087996 342.378304,157.6884 341.5251,157.6884 C340.866297,157.6884 340.320902,157.904398 339.8889,158.3364 C339.456898,158.768402 339.2409,159.356996 339.2409,160.1022 C339.2409,160.847404 339.456898,161.435998 339.8889,161.868 C340.320902,162.300002 340.866297,162.516 341.5251,162.516 C342.389104,162.516 343.042498,162.116404 343.4853,161.3172 L345.4455,162.3864 C345.132298,163.077603 344.632803,163.617598 343.947,164.0064 C343.261197,164.395202 342.459305,164.5896 341.5413,164.5896 Z M355.5543,155.7444 L351.6177,164.9946 C351.218098,165.999005 350.724003,166.706398 350.1354,167.1168 C349.546797,167.527202 348.836704,167.7324 348.0051,167.7324 C347.551498,167.7324 347.103302,167.662201 346.6605,167.5218 C346.217698,167.381399 345.855901,167.187001 345.5751,166.9386 L346.4985,165.1404 C346.692901,165.313201 346.916999,165.4482 347.1708,165.5454 C347.424601,165.6426 347.675699,165.6912 347.9241,165.6912 C348.269702,165.6912 348.550499,165.607501 348.7665,165.4401 C348.982501,165.272699 349.176899,164.994602 349.3497,164.6058 L349.3821,164.5248 L345.6075,155.7444 L348.2157,155.7444 L350.6619,161.6574 L353.1243,155.7444 L355.5543,155.7444 Z" id="Transparency" fill="#FFFFFF"></path>
                <g id="circle/white" transform="translate(234.840000, 14.000000)" fill="#FFFFFF">
                    <g id="circle_yellow">
                        <circle id="Oval" opacity="0.2" cx="62.8854545" cy="62.8854545" r="62.8854545"></circle>
                        <circle id="Oval" opacity="0.4" cx="62.8854545" cy="62.8854545" r="45.8754545"></circle>
                        <circle id="Oval" cx="62.8854545" cy="62.8854545" r="26.8036364"></circle>
                    </g>
                </g>
                <path d="M207.3956,563.04 L200.3756,563.04 L199.0364,566.28 L195.4508,566.28 L202.19,551.16 L205.646,551.16 L212.4068,566.28 L208.7348,566.28 L207.3956,563.04 Z M206.294,560.3832 L203.8964,554.5944 L201.4988,560.3832 L206.294,560.3832 Z M220.8092,554.4864 C222.249207,554.4864 223.411996,554.918396 224.2976,555.7824 C225.183204,556.646404 225.626,557.927992 225.626,559.6272 L225.626,566.28 L222.2564,566.28 L222.2564,560.1456 C222.2564,559.223995 222.054802,558.536402 221.6516,558.0828 C221.248398,557.629198 220.665204,557.4024 219.902,557.4024 C219.052396,557.4024 218.375603,557.665197 217.8716,558.1908 C217.367597,558.716403 217.1156,559.497595 217.1156,560.5344 L217.1156,566.28 L213.746,566.28 L213.746,554.6592 L216.9644,554.6592 L216.9644,556.02 C217.410802,555.530398 217.965197,555.152401 218.6276,554.886 C219.290003,554.619599 220.017196,554.4864 220.8092,554.4864 Z M233.3588,554.4864 C235.158809,554.4864 236.541195,554.914796 237.506,555.7716 C238.470805,556.628404 238.9532,557.920791 238.9532,559.6488 L238.9532,566.28 L235.7996,566.28 L235.7996,564.8328 C235.165997,565.912805 233.985209,566.4528 232.2572,566.4528 C231.364396,566.4528 230.590403,566.301602 229.9352,565.9992 C229.279997,565.696798 228.779602,565.279203 228.434,564.7464 C228.088398,564.213597 227.9156,563.608803 227.9156,562.932 C227.9156,561.851995 228.322396,561.002403 229.136,560.3832 C229.949604,559.763997 231.205992,559.4544 232.9052,559.4544 L235.5836,559.4544 C235.5836,558.719996 235.360402,558.154802 234.914,557.7588 C234.467598,557.362798 233.798004,557.1648 232.9052,557.1648 C232.285997,557.1648 231.677603,557.261999 231.08,557.4564 C230.482397,557.650801 229.974802,557.913598 229.5572,558.2448 L228.3476,555.8904 C228.981203,555.443998 229.740796,555.098401 230.6264,554.8536 C231.512004,554.608799 232.422795,554.4864 233.3588,554.4864 Z M233.0996,564.1848 C233.675603,564.1848 234.186798,564.051601 234.6332,563.7852 C235.079602,563.518799 235.396399,563.126403 235.5836,562.608 L235.5836,561.42 L233.2724,561.42 C231.889993,561.42 231.1988,561.873595 231.1988,562.7808 C231.1988,563.212802 231.367998,563.554799 231.7064,563.8068 C232.044802,564.058801 232.509197,564.1848 233.0996,564.1848 Z M241.9988,550.2528 L245.3684,550.2528 L245.3684,566.28 L241.9988,566.28 L241.9988,550.2528 Z M260.0348,554.6592 L254.786,566.9928 C254.253197,568.332007 253.594404,569.275197 252.8096,569.8224 C252.024796,570.369603 251.078006,570.6432 249.9692,570.6432 C249.364397,570.6432 248.766803,570.549601 248.1764,570.3624 C247.585997,570.175199 247.103602,569.916002 246.7292,569.5848 L247.9604,567.1872 C248.219601,567.417601 248.518398,567.597599 248.8568,567.7272 C249.195202,567.856801 249.529998,567.9216 249.8612,567.9216 C250.322002,567.9216 250.696399,567.810001 250.9844,567.5868 C251.272401,567.363599 251.531599,566.992803 251.762,566.4744 L251.8052,566.3664 L246.7724,554.6592 L250.25,554.6592 L253.5116,562.5432 L256.7948,554.6592 L260.0348,554.6592 Z M268.9124,565.7184 C268.581198,565.963201 268.174402,566.146799 267.692,566.2692 C267.209598,566.391601 266.702003,566.4528 266.1692,566.4528 C264.786793,566.4528 263.717604,566.100004 262.9616,565.3944 C262.205596,564.688796 261.8276,563.652007 261.8276,562.284 L261.8276,557.5104 L260.0348,557.5104 L260.0348,554.9184 L261.8276,554.9184 L261.8276,552.0888 L265.1972,552.0888 L265.1972,554.9184 L268.0916,554.9184 L268.0916,557.5104 L265.1972,557.5104 L265.1972,562.2408 C265.1972,562.730402 265.323199,563.108399 265.5752,563.3748 C265.827201,563.641201 266.183598,563.7744 266.6444,563.7744 C267.177203,563.7744 267.630798,563.630401 268.0052,563.3424 L268.9124,565.7184 Z M270.8132,554.6592 L274.1828,554.6592 L274.1828,566.28 L270.8132,566.28 L270.8132,554.6592 Z M272.498,553.0392 C271.878797,553.0392 271.374802,552.859202 270.986,552.4992 C270.597198,552.139198 270.4028,551.692803 270.4028,551.16 C270.4028,550.627197 270.597198,550.180802 270.986,549.8208 C271.374802,549.460798 271.878797,549.2808 272.498,549.2808 C273.117203,549.2808 273.621198,549.453598 274.01,549.7992 C274.398802,550.144802 274.5932,550.576797 274.5932,551.0952 C274.5932,551.656803 274.398802,552.121198 274.01,552.4884 C273.621198,552.855602 273.117203,553.0392 272.498,553.0392 Z M282.9308,566.4528 C281.692394,566.4528 280.580005,566.197203 279.5936,565.686 C278.607195,565.174797 277.836803,564.465605 277.2824,563.5584 C276.727997,562.651195 276.4508,561.621606 276.4508,560.4696 C276.4508,559.317594 276.727997,558.288005 277.2824,557.3808 C277.836803,556.473595 278.607195,555.764403 279.5936,555.2532 C280.580005,554.741997 281.692394,554.4864 282.9308,554.4864 C284.154806,554.4864 285.223995,554.741997 286.1384,555.2532 C287.052805,555.764403 287.718798,556.495195 288.1364,557.4456 L285.5228,558.8496 C284.917997,557.783995 284.046806,557.2512 282.9092,557.2512 C282.030796,557.2512 281.303603,557.539197 280.7276,558.1152 C280.151597,558.691203 279.8636,559.475995 279.8636,560.4696 C279.8636,561.463205 280.151597,562.247997 280.7276,562.824 C281.303603,563.400003 282.030796,563.688 282.9092,563.688 C284.061206,563.688 284.932397,563.155205 285.5228,562.0896 L288.1364,563.5152 C287.718798,564.436805 287.052805,565.156797 286.1384,565.6752 C285.223995,566.193603 284.154806,566.4528 282.9308,566.4528 Z M293.99,566.4528 C293.025195,566.4528 292.082005,566.334001 291.1604,566.0964 C290.238795,565.858799 289.504403,565.560002 288.9572,565.2 L290.0804,562.7808 C290.598803,563.112002 291.225196,563.381999 291.9596,563.5908 C292.694004,563.799601 293.413996,563.904 294.1196,563.904 C295.545207,563.904 296.258,563.551204 296.258,562.8456 C296.258,562.514398 296.063602,562.276801 295.6748,562.1328 C295.285998,561.988799 294.688404,561.866401 293.882,561.7656 C292.931595,561.621599 292.146803,561.456001 291.5276,561.2688 C290.908397,561.081599 290.372002,560.750402 289.9184,560.2752 C289.464798,559.799998 289.238,559.123204 289.238,558.2448 C289.238,557.510396 289.450398,556.858803 289.8752,556.29 C290.300002,555.721197 290.919196,555.278402 291.7328,554.9616 C292.546404,554.644798 293.507594,554.4864 294.6164,554.4864 C295.437204,554.4864 296.254396,554.576399 297.068,554.7564 C297.881604,554.936401 298.554797,555.184798 299.0876,555.5016 L297.9644,557.8992 C296.941995,557.323197 295.826006,557.0352 294.6164,557.0352 C293.896396,557.0352 293.356402,557.135999 292.9964,557.3376 C292.636398,557.539201 292.4564,557.798398 292.4564,558.1152 C292.4564,558.475202 292.650798,558.727199 293.0396,558.8712 C293.428402,559.015201 294.047596,559.151999 294.8972,559.2816 C295.847605,559.440001 296.625197,559.609199 297.23,559.7892 C297.834803,559.969201 298.360398,560.296798 298.8068,560.772 C299.253202,561.247202 299.4764,561.909596 299.4764,562.7592 C299.4764,563.479204 299.260402,564.119997 298.8284,564.6816 C298.396398,565.243203 297.766404,565.678798 296.9384,565.9884 C296.110396,566.298002 295.127606,566.4528 293.99,566.4528 Z" id="Analytics" fill="#FFFFFF"></path>
                <g id="circle/white" transform="translate(164.120000, 366.000000)" fill="#FFFFFF">
                    <g id="circle_yellow">
                        <circle id="Oval" opacity="0.2" cx="83.3481818" cy="83.3481818" r="83.3481818"></circle>
                        <circle id="Oval" opacity="0.4" cx="83.3481818" cy="83.3481818" r="60.8031818"></circle>
                        <circle id="Oval" cx="83.3481818" cy="83.3481818" r="35.5254545"></circle>
                    </g>
                </g>
                <path d="M850.280208,244.6912 L843.75096,264.6496 L838.789872,264.6496 L834.399024,251.134912 L829.865616,264.6496 L824.93304,264.6496 L818.37528,244.6912 L823.165296,244.6912 L827.670192,258.719104 L832.374672,244.6912 L836.651472,244.6912 L841.213392,258.833152 L845.860848,244.6912 L850.280208,244.6912 Z M860.259408,264.877696 C858.64372,264.877696 857.194374,264.540307 855.911328,263.86552 C854.628282,263.190733 853.62562,262.254598 852.903312,261.057088 C852.181004,259.859578 851.819856,258.50052 851.819856,256.979872 C851.819856,255.459224 852.181004,254.100166 852.903312,252.902656 C853.62562,251.705146 854.628282,250.769011 855.911328,250.094224 C857.194374,249.419437 858.64372,249.082048 860.259408,249.082048 C861.875096,249.082048 863.31969,249.419437 864.593232,250.094224 C865.866774,250.769011 866.864684,251.705146 867.586992,252.902656 C868.3093,254.100166 868.670448,255.459224 868.670448,256.979872 C868.670448,258.50052 868.3093,259.859578 867.586992,261.057088 C866.864684,262.254598 865.866774,263.190733 864.593232,263.86552 C863.31969,264.540307 861.875096,264.877696 860.259408,264.877696 Z M860.259408,261.22816 C861.399894,261.22816 862.336028,260.843252 863.06784,260.073424 C863.799652,259.303596 864.165552,258.272422 864.165552,256.979872 C864.165552,255.687322 863.799652,254.656148 863.06784,253.88632 C862.336028,253.116492 861.399894,252.731584 860.259408,252.731584 C859.118922,252.731584 858.178036,253.116492 857.43672,253.88632 C856.695404,254.656148 856.324752,255.687322 856.324752,256.979872 C856.324752,258.272422 856.695404,259.303596 857.43672,260.073424 C858.178036,260.843252 859.118922,261.22816 860.259408,261.22816 Z M875.883984,251.334496 C876.416211,250.59318 877.133755,250.03245 878.03664,249.652288 C878.939525,249.272126 879.980202,249.082048 881.158704,249.082048 L881.158704,253.187776 C880.664494,253.14976 880.331857,253.130752 880.160784,253.130752 C878.887242,253.130752 877.889332,253.487148 877.167024,254.199952 C876.444716,254.912756 876.083568,255.981945 876.083568,257.407552 L876.083568,264.6496 L871.635696,264.6496 L871.635696,249.310144 L875.883984,249.310144 L875.883984,251.334496 Z M890.51064,258.633568 L888.37224,260.743456 L888.37224,264.6496 L883.924368,264.6496 L883.924368,243.493696 L888.37224,243.493696 L888.37224,255.468736 L894.872976,249.310144 L900.176208,249.310144 L893.78952,255.81088 L900.746448,264.6496 L895.35768,264.6496 L890.51064,258.633568 Z M907.61784,249.652288 L911.552496,249.652288 L911.552496,253.073728 L907.731888,253.073728 L907.731888,264.6496 L903.284016,264.6496 L903.284016,253.073728 L900.91752,253.073728 L900.91752,249.652288 L903.284016,249.652288 L903.284016,248.968 C903.284016,247.219255 903.801979,245.831685 904.83792,244.805248 C905.873861,243.778811 907.332711,243.2656 909.214512,243.2656 C909.879795,243.2656 910.511805,243.336879 911.11056,243.47944 C911.709315,243.622001 912.20827,243.826335 912.60744,244.092448 L911.438448,247.314304 C910.925229,246.95315 910.326483,246.772576 909.642192,246.772576 C908.292617,246.772576 907.61784,247.513881 907.61784,248.996512 L907.61784,249.652288 Z M913.776432,243.493696 L918.224304,243.493696 L918.224304,264.6496 L913.776432,264.6496 L913.776432,243.493696 Z M929.657616,264.877696 C928.041928,264.877696 926.592582,264.540307 925.309536,263.86552 C924.02649,263.190733 923.023828,262.254598 922.30152,261.057088 C921.579212,259.859578 921.218064,258.50052 921.218064,256.979872 C921.218064,255.459224 921.579212,254.100166 922.30152,252.902656 C923.023828,251.705146 924.02649,250.769011 925.309536,250.094224 C926.592582,249.419437 928.041928,249.082048 929.657616,249.082048 C931.273304,249.082048 932.717898,249.419437 933.99144,250.094224 C935.264982,250.769011 936.262892,251.705146 936.9852,252.902656 C937.707508,254.100166 938.068656,255.459224 938.068656,256.979872 C938.068656,258.50052 937.707508,259.859578 936.9852,261.057088 C936.262892,262.254598 935.264982,263.190733 933.99144,263.86552 C932.717898,264.540307 931.273304,264.877696 929.657616,264.877696 Z M929.657616,261.22816 C930.798102,261.22816 931.734236,260.843252 932.466048,260.073424 C933.19786,259.303596 933.56376,258.272422 933.56376,256.979872 C933.56376,255.687322 933.19786,254.656148 932.466048,253.88632 C931.734236,253.116492 930.798102,252.731584 929.657616,252.731584 C928.51713,252.731584 927.576244,253.116492 926.834928,253.88632 C926.093612,254.656148 925.72296,255.687322 925.72296,256.979872 C925.72296,258.272422 926.093612,259.303596 926.834928,260.073424 C927.576244,260.843252 928.51713,261.22816 929.657616,261.22816 Z M965.668272,249.310144 L960.108432,264.6496 L955.831632,264.6496 L952.38168,255.126592 L948.81768,264.6496 L944.54088,264.6496 L939.009552,249.310144 L943.200816,249.310144 L946.82184,259.688512 L950.585424,249.310144 L954.349008,249.310144 L957.998544,259.688512 L961.733616,249.310144 L965.668272,249.310144 Z" id="Workflow" fill="#FFFFFF"></path>
                <g id="circle/white" transform="translate(781.238400, 0.000000)" fill="#FFFFFF">
                    <g id="circle_yellow">
                        <circle id="Oval" opacity="0.2" cx="110.451228" cy="110.451228" r="110.451228"></circle>
                        <circle id="Oval" opacity="0.4" cx="110.451228" cy="110.451228" r="80.5750759"></circle>
                        <circle id="Oval" cx="110.451228" cy="110.451228" r="47.0775724"></circle>
                    </g>
                </g>
                <path d="M968.220336,460.66096 L961.733856,460.66096 L960.496435,463.65472 L957.183341,463.65472 L963.410362,449.68384 L966.603706,449.68384 L972.850685,463.65472 L969.457757,463.65472 L968.220336,460.66096 Z M967.202458,458.206077 L964.987075,452.857226 L962.771693,458.206077 L967.202458,458.206077 Z M984.905558,452.917101 L984.905558,463.65472 L981.951715,463.65472 L981.951715,462.377382 C981.53924,462.843081 981.046937,463.199002 980.474794,463.445157 C979.90265,463.691312 979.283946,463.814387 978.618662,463.814387 C977.208262,463.814387 976.090603,463.40857 975.265651,462.596925 C974.4407,461.785279 974.02823,460.581134 974.02823,458.984454 L974.02823,452.917101 L977.141741,452.917101 L977.141741,458.525411 C977.141741,460.255148 977.866889,461.120003 979.317206,461.120003 C980.062324,461.120003 980.66107,460.877178 981.113462,460.391522 C981.565855,459.905865 981.792048,459.184043 981.792048,458.226035 L981.792048,452.917101 L984.905558,452.917101 Z M998.73673,448.845587 L998.73673,463.65472 L995.762928,463.65472 L995.762928,462.417299 C994.991199,463.348696 993.87354,463.814387 992.409917,463.814387 C991.398686,463.814387 990.483935,463.588194 989.665637,463.135802 C988.847338,462.683409 988.20535,462.038094 987.739651,461.199837 C987.273953,460.36158 987.041107,459.390281 987.041107,458.28591 C987.041107,457.18154 987.273953,456.210241 987.739651,455.371984 C988.20535,454.533727 988.847338,453.888412 989.665637,453.436019 C990.483935,452.983627 991.398686,452.757434 992.409917,452.757434 C993.7804,452.757434 994.851491,453.189861 995.623219,454.05473 L995.623219,448.845587 L998.73673,448.845587 Z M992.948794,461.259712 C993.733828,461.259712 994.385796,460.990276 994.904717,460.451397 C995.423638,459.912517 995.683094,459.190696 995.683094,458.28591 C995.683094,457.381125 995.423638,456.659303 994.904717,456.120424 C994.385796,455.581545 993.733828,455.312109 992.948794,455.312109 C992.150454,455.312109 991.491833,455.581545 990.972912,456.120424 C990.453991,456.659303 990.194534,457.381125 990.194534,458.28591 C990.194534,459.190696 990.453991,459.912517 990.972912,460.451397 C991.491833,460.990276 992.150454,461.259712 992.948794,461.259712 Z M1001.61074,452.917101 L1004.72425,452.917101 L1004.72425,463.65472 L1001.61074,463.65472 L1001.61074,452.917101 Z M1003.16749,451.420221 C1002.59535,451.420221 1002.12966,451.253902 1001.77041,450.921261 C1001.41115,450.588619 1001.23153,450.17615 1001.23153,449.68384 C1001.23153,449.19153 1001.41115,448.779061 1001.77041,448.446419 C1002.12966,448.113778 1002.59535,447.947459 1003.16749,447.947459 C1003.73964,447.947459 1004.20533,448.107125 1004.56458,448.426461 C1004.92384,448.745797 1005.10346,449.144961 1005.10346,449.623965 C1005.10346,450.142886 1004.92384,450.571987 1004.56458,450.911282 C1004.20533,451.250576 1003.73964,451.420221 1003.16749,451.420221 Z M1018.13629,458.325827 C1018.13629,458.365744 1018.11634,458.645159 1018.07642,459.16408 L1009.95335,459.16408 C1010.09971,459.829363 1010.44565,460.354929 1010.99119,460.740794 C1011.53672,461.126658 1012.2153,461.319587 1013.02694,461.319587 C1013.58578,461.319587 1014.08141,461.236428 1014.51384,461.070107 C1014.94628,460.903786 1015.34877,460.641003 1015.72133,460.28175 L1017.37788,462.078006 C1016.36664,463.235599 1014.88974,463.814387 1012.94711,463.814387 C1011.73629,463.814387 1010.6652,463.578215 1009.73381,463.105864 C1008.80241,462.633513 1008.08392,461.978219 1007.5783,461.139962 C1007.07269,460.301705 1006.81988,459.350364 1006.81988,458.28591 C1006.81988,457.234763 1007.06936,456.286748 1007.56832,455.441838 C1008.06728,454.596929 1008.75252,453.938308 1009.62404,453.465957 C1010.49556,452.993606 1011.47018,452.757434 1012.54794,452.757434 C1013.59909,452.757434 1014.55043,452.983627 1015.40199,453.436019 C1016.25356,453.888412 1016.92216,454.537053 1017.40781,455.381963 C1017.89347,456.226873 1018.13629,457.208151 1018.13629,458.325827 Z M1012.5679,455.112525 C1011.8627,455.112525 1011.27061,455.312107 1010.7916,455.711277 C1010.3126,456.110447 1010.01988,456.655971 1009.91343,457.347866 L1015.20241,457.347866 C1015.09596,456.669277 1014.80324,456.127079 1014.32424,455.721256 C1013.84524,455.315433 1013.2598,455.112525 1012.5679,455.112525 Z M1026.73836,452.757434 C1028.06893,452.757434 1029.14335,453.156598 1029.96165,453.954938 C1030.77994,454.753278 1031.18909,455.937464 1031.18909,457.507533 L1031.18909,463.65472 L1028.07558,463.65472 L1028.07558,457.986534 C1028.07558,457.134972 1027.8893,456.499636 1027.51674,456.080507 C1027.14418,455.661379 1026.60531,455.451818 1025.90011,455.451818 C1025.11508,455.451818 1024.48972,455.694642 1024.02402,456.180299 C1023.55832,456.665956 1023.32548,457.387778 1023.32548,458.345786 L1023.32548,463.65472 L1020.21197,463.65472 L1020.21197,452.917101 L1023.18577,452.917101 L1023.18577,454.17448 C1023.59825,453.722087 1024.11051,453.372819 1024.72257,453.126664 C1025.33463,452.880509 1026.00655,452.757434 1026.73836,452.757434 Z M1039.19241,463.814387 C1038.04812,463.814387 1037.02027,463.578215 1036.10883,463.105864 C1035.1974,462.633513 1034.48555,461.978219 1033.97328,461.139962 C1033.46102,460.301705 1033.20489,459.350364 1033.20489,458.28591 C1033.20489,457.221457 1033.46102,456.270116 1033.97328,455.431859 C1034.48555,454.593602 1035.1974,453.938308 1036.10883,453.465957 C1037.02027,452.993606 1038.04812,452.757434 1039.19241,452.757434 C1040.32339,452.757434 1041.31132,452.993606 1042.15623,453.465957 C1043.00114,453.938308 1043.61652,454.61356 1044.00238,455.491734 L1041.58741,456.78903 C1041.02858,455.804411 1040.2236,455.312109 1039.17245,455.312109 C1038.3608,455.312109 1037.68888,455.578218 1037.15665,456.110445 C1036.62442,456.642671 1036.35831,457.367819 1036.35831,458.28591 C1036.35831,459.204001 1036.62442,459.929149 1037.15665,460.461376 C1037.68888,460.993603 1038.3608,461.259712 1039.17245,461.259712 C1040.2369,461.259712 1041.04188,460.76741 1041.58741,459.78279 L1044.00238,461.100045 C1043.61652,461.951607 1043.00114,462.616881 1042.15623,463.095885 C1041.31132,463.574889 1040.32339,463.814387 1039.19241,463.814387 Z M1056.31671,458.325827 C1056.31671,458.365744 1056.29676,458.645159 1056.25684,459.16408 L1048.13377,459.16408 C1048.28013,459.829363 1048.62607,460.354929 1049.17161,460.740794 C1049.71714,461.126658 1050.39572,461.319587 1051.20736,461.319587 C1051.7662,461.319587 1052.26183,461.236428 1052.69426,461.070107 C1053.1267,460.903786 1053.52919,460.641003 1053.90175,460.28175 L1055.55829,462.078006 C1054.54706,463.235599 1053.07016,463.814387 1051.12753,463.814387 C1049.91671,463.814387 1048.84562,463.578215 1047.91423,463.105864 C1046.98283,462.633513 1046.26434,461.978219 1045.75872,461.139962 C1045.2531,460.301705 1045.0003,459.350364 1045.0003,458.28591 C1045.0003,457.234763 1045.24978,456.286748 1045.74874,455.441838 C1046.2477,454.596929 1046.93293,453.938308 1047.80446,453.465957 C1048.67598,452.993606 1049.6506,452.757434 1050.72836,452.757434 C1051.77951,452.757434 1052.73085,452.983627 1053.58241,453.436019 C1054.43398,453.888412 1055.10258,454.537053 1055.58823,455.381963 C1056.07389,456.226873 1056.31671,457.208151 1056.31671,458.325827 Z M1050.74832,455.112525 C1050.04312,455.112525 1049.45103,455.312107 1048.97202,455.711277 C1048.49302,456.110447 1048.2003,456.655971 1048.09385,457.347866 L1053.38283,457.347866 C1053.27638,456.669277 1052.98366,456.127079 1052.50466,455.721256 C1052.02566,455.315433 1051.44021,455.112525 1050.74832,455.112525 Z M1074.99778,463.894221 L1073.32127,462.337466 C1071.9907,463.375308 1070.43396,463.894221 1068.651,463.894221 C1067.63977,463.894221 1066.72835,463.731229 1065.9167,463.40524 C1065.10506,463.079251 1064.46972,462.623539 1064.01068,462.03809 C1063.55163,461.45264 1063.32211,460.79402 1063.32211,460.062208 C1063.32211,459.19734 1063.56494,458.435602 1064.05059,457.776971 C1064.53625,457.118341 1065.31795,456.489657 1066.39571,455.890902 C1065.89009,455.371981 1065.52419,454.876353 1065.29799,454.404002 C1065.0718,453.93165 1064.9587,453.442675 1064.9587,452.937059 C1064.9587,452.25847 1065.13832,451.659724 1065.49758,451.140803 C1065.85683,450.621882 1066.36576,450.219392 1067.0244,449.93332 C1067.68303,449.647248 1068.44476,449.504214 1069.30963,449.504214 C1070.52045,449.504214 1071.49175,449.793608 1072.22356,450.372405 C1072.95537,450.951201 1073.32127,451.732897 1073.32127,452.717517 C1073.32127,453.436023 1073.10506,454.074685 1072.67262,454.633523 C1072.24019,455.192361 1071.54498,455.731233 1070.58697,456.250154 L1073.14164,458.625203 C1073.44768,457.986531 1073.68052,457.261383 1073.84019,456.449738 L1076.33499,457.228115 C1076.06888,458.465542 1075.6431,459.523327 1075.05765,460.401501 L1076.69424,461.918339 L1074.99778,463.894221 Z M1069.30963,451.619805 C1068.84393,451.619805 1068.47471,451.739554 1068.20194,451.979056 C1067.92917,452.218558 1067.79279,452.524584 1067.79279,452.897142 C1067.79279,453.176561 1067.86597,453.439344 1068.01234,453.685499 C1068.1587,453.931654 1068.44477,454.260964 1068.87055,454.67344 C1069.54914,454.314187 1070.02148,453.991529 1070.28759,453.705458 C1070.55371,453.419386 1070.68676,453.110034 1070.68676,452.777392 C1070.68676,452.431445 1070.56701,452.15203 1070.32751,451.939139 C1070.08801,451.726249 1069.74872,451.619805 1069.30963,451.619805 Z M1068.87055,461.459296 C1069.84186,461.459296 1070.71337,461.186534 1071.4851,460.641002 L1068.11213,457.487574 C1067.48676,457.846827 1067.04103,458.199422 1066.77492,458.54537 C1066.5088,458.891317 1066.37575,459.283828 1066.37575,459.722915 C1066.37575,460.241836 1066.60194,460.660958 1067.05433,460.980294 C1067.50673,461.29963 1068.11212,461.459296 1068.87055,461.459296 Z M1087.33207,452.318349 L1082.86139,452.318349 L1082.86139,449.68384 L1095.03601,449.68384 L1095.03601,452.318349 L1090.56533,452.318349 L1090.56533,463.65472 L1087.33207,463.65472 L1087.33207,452.318349 Z M1100.88382,452.757434 C1102.54703,452.757434 1103.82435,453.153271 1104.71583,453.944958 C1105.60731,454.736646 1106.05305,455.930811 1106.05305,457.527491 L1106.05305,463.65472 L1103.13912,463.65472 L1103.13912,462.317507 C1102.55367,463.315432 1101.46262,463.814387 1099.86594,463.814387 C1099.04099,463.814387 1098.32582,463.67468 1097.72041,463.395261 C1097.11501,463.115842 1096.65264,462.729983 1096.33331,462.237674 C1096.01397,461.745364 1095.8543,461.186534 1095.8543,460.561168 C1095.8543,459.563243 1096.23018,458.77822 1096.98195,458.206077 C1097.73372,457.633933 1098.89463,457.347866 1100.46469,457.347866 L1102.93954,457.347866 C1102.93954,456.669277 1102.7333,456.147037 1102.32083,455.781131 C1101.90835,455.415225 1101.28965,455.232275 1100.46469,455.232275 C1099.89255,455.232275 1099.33039,455.322087 1098.77821,455.501714 C1098.22602,455.68134 1097.75701,455.924165 1097.37114,456.230195 L1096.25347,454.05473 C1096.83892,453.642254 1097.54078,453.322923 1098.35908,453.096726 C1099.17738,452.87053 1100.01895,452.757434 1100.88382,452.757434 Z M1100.64432,461.718755 C1101.17655,461.718755 1101.64889,461.59568 1102.06137,461.349525 C1102.47384,461.10337 1102.76656,460.740796 1102.93954,460.261792 L1102.93954,459.16408 L1100.80399,459.16408 C1099.52664,459.16408 1098.88798,459.583202 1098.88798,460.421459 C1098.88798,460.820629 1099.04432,461.136634 1099.357,461.369483 C1099.66969,461.602332 1100.09879,461.718755 1100.64432,461.718755 Z M1111.84098,454.334147 C1112.21354,453.815226 1112.71582,453.422715 1113.34784,453.156602 C1113.97986,452.890488 1114.70834,452.757434 1115.53329,452.757434 L1115.53329,455.631443 C1115.18734,455.604832 1114.95449,455.591526 1114.83474,455.591526 C1113.94326,455.591526 1113.24473,455.841004 1112.73911,456.339966 C1112.2335,456.838929 1111.98069,457.587361 1111.98069,458.585286 L1111.98069,463.65472 L1108.86718,463.65472 L1108.86718,452.917101 L1111.84098,452.917101 L1111.84098,454.334147 Z M1128.54616,452.917101 L1128.54616,461.858464 C1128.54616,463.827703 1128.0339,465.291304 1127.00937,466.249312 C1125.98483,467.20732 1124.48797,467.686317 1122.51873,467.686317 C1121.48088,467.686317 1120.49628,467.559915 1119.56488,467.307107 C1118.63349,467.0543 1117.86177,466.688399 1117.24971,466.209395 L1118.48713,463.974054 C1118.93952,464.346613 1119.51166,464.64266 1120.20355,464.862203 C1120.89545,465.081747 1121.58733,465.191517 1122.27923,465.191517 C1123.35698,465.191517 1124.15199,464.948692 1124.66425,464.463035 C1125.17652,463.977378 1125.43265,463.242251 1125.43265,462.257632 L1125.43265,461.798589 C1124.62101,462.690068 1123.49004,463.135802 1122.03972,463.135802 C1121.05511,463.135802 1120.15366,462.919588 1119.33536,462.487154 C1118.51706,462.054719 1117.86842,461.445994 1117.38942,460.66096 C1116.91041,459.875926 1116.67092,458.971154 1116.67092,457.946618 C1116.67092,456.922081 1116.91041,456.01731 1117.38942,455.232275 C1117.86842,454.447241 1118.51706,453.838516 1119.33536,453.406082 C1120.15366,452.973647 1121.05511,452.757434 1122.03972,452.757434 C1123.59649,452.757434 1124.78067,453.269694 1125.59232,454.29423 L1125.59232,452.917101 L1128.54616,452.917101 Z M1122.65844,460.581126 C1123.48339,460.581126 1124.15864,460.338302 1124.68421,459.852645 C1125.20979,459.366988 1125.47257,458.731652 1125.47257,457.946618 C1125.47257,457.161583 1125.20979,456.526247 1124.68421,456.04059 C1124.15864,455.554934 1123.48339,455.312109 1122.65844,455.312109 C1121.83348,455.312109 1121.15491,455.554934 1120.62268,456.04059 C1120.09045,456.526247 1119.82434,457.161583 1119.82434,457.946618 C1119.82434,458.731652 1120.09045,459.366988 1120.62268,459.852645 C1121.15491,460.338302 1121.83348,460.581126 1122.65844,460.581126 Z M1141.95821,458.325827 C1141.95821,458.365744 1141.93825,458.645159 1141.89833,459.16408 L1133.77526,459.16408 C1133.92163,459.829363 1134.26757,460.354929 1134.8131,460.740794 C1135.35863,461.126658 1136.03721,461.319587 1136.84886,461.319587 C1137.4077,461.319587 1137.90332,461.236428 1138.33576,461.070107 C1138.76819,460.903786 1139.17068,460.641003 1139.54324,460.28175 L1141.19979,462.078006 C1140.18856,463.235599 1138.71165,463.814387 1136.76902,463.814387 C1135.55821,463.814387 1134.48712,463.578215 1133.55572,463.105864 C1132.62432,462.633513 1131.90583,461.978219 1131.40021,461.139962 C1130.8946,460.301705 1130.6418,459.350364 1130.6418,458.28591 C1130.6418,457.234763 1130.89127,456.286748 1131.39024,455.441838 C1131.8892,454.596929 1132.57443,453.938308 1133.44595,453.465957 C1134.31747,452.993606 1135.2921,452.757434 1136.36986,452.757434 C1137.421,452.757434 1138.37234,452.983627 1139.22391,453.436019 C1140.07547,453.888412 1140.74407,454.537053 1141.22973,455.381963 C1141.71538,456.226873 1141.95821,457.208151 1141.95821,458.325827 Z M1136.38981,455.112525 C1135.68461,455.112525 1135.09252,455.312107 1134.61352,455.711277 C1134.13451,456.110447 1133.84179,456.655971 1133.73535,457.347866 L1139.02432,457.347866 C1138.91788,456.669277 1138.62516,456.127079 1138.14615,455.721256 C1137.66715,455.315433 1137.08171,455.112525 1136.38981,455.112525 Z M1150.95945,463.135802 C1150.65342,463.361998 1150.27754,463.531643 1149.8318,463.644741 C1149.38606,463.757839 1148.91704,463.814387 1148.42473,463.814387 C1147.14739,463.814387 1146.15945,463.488403 1145.46091,462.836426 C1144.76236,462.184448 1144.41309,461.226454 1144.41309,459.962416 L1144.41309,455.55161 L1142.75654,455.55161 L1142.75654,453.156602 L1144.41309,453.156602 L1144.41309,450.542051 L1147.5266,450.542051 L1147.5266,453.156602 L1150.20103,453.156602 L1150.20103,455.55161 L1147.5266,455.55161 L1147.5266,459.922499 C1147.5266,460.374892 1147.64302,460.72416 1147.87587,460.970315 C1148.10872,461.21647 1148.43803,461.339546 1148.86381,461.339546 C1149.35612,461.339546 1149.77525,461.206491 1150.12119,460.940378 L1150.95945,463.135802 Z M1152.71579,452.917101 L1155.8293,452.917101 L1155.8293,463.65472 L1152.71579,463.65472 L1152.71579,452.917101 Z M1154.27254,451.420221 C1153.7004,451.420221 1153.23471,451.253902 1152.87545,450.921261 C1152.5162,450.588619 1152.33658,450.17615 1152.33658,449.68384 C1152.33658,449.19153 1152.5162,448.779061 1152.87545,448.446419 C1153.23471,448.113778 1153.7004,447.947459 1154.27254,447.947459 C1154.84468,447.947459 1155.31038,448.107125 1155.66963,448.426461 C1156.02888,448.745797 1156.20851,449.144961 1156.20851,449.623965 C1156.20851,450.142886 1156.02888,450.571987 1155.66963,450.911282 C1155.31038,451.250576 1154.84468,451.420221 1154.27254,451.420221 Z M1165.24966,452.757434 C1166.58023,452.757434 1167.65464,453.156598 1168.47294,453.954938 C1169.29124,454.753278 1169.70038,455.937464 1169.70038,457.507533 L1169.70038,463.65472 L1166.58687,463.65472 L1166.58687,457.986534 C1166.58687,457.134972 1166.4006,456.499636 1166.02804,456.080507 C1165.65548,455.661379 1165.11661,455.451818 1164.41141,455.451818 C1163.62637,455.451818 1163.00102,455.694642 1162.53532,456.180299 C1162.06962,456.665956 1161.83677,457.387778 1161.83677,458.345786 L1161.83677,463.65472 L1158.72326,463.65472 L1158.72326,452.917101 L1161.69707,452.917101 L1161.69707,454.17448 C1162.10954,453.722087 1162.6218,453.372819 1163.23386,453.126664 C1163.84592,452.880509 1164.51785,452.757434 1165.24966,452.757434 Z M1183.59143,452.917101 L1183.59143,461.858464 C1183.59143,463.827703 1183.07917,465.291304 1182.05463,466.249312 C1181.0301,467.20732 1179.53323,467.686317 1177.56399,467.686317 C1176.52615,467.686317 1175.54155,467.559915 1174.61015,467.307107 C1173.67875,467.0543 1172.90704,466.688399 1172.29498,466.209395 L1173.5324,463.974054 C1173.98479,464.346613 1174.55692,464.64266 1175.24882,464.862203 C1175.94071,465.081747 1176.6326,465.191517 1177.32449,465.191517 C1178.40225,465.191517 1179.19725,464.948692 1179.70952,464.463035 C1180.22179,463.977378 1180.47792,463.242251 1180.47792,462.257632 L1180.47792,461.798589 C1179.66627,462.690068 1178.53531,463.135802 1177.08499,463.135802 C1176.10037,463.135802 1175.19893,462.919588 1174.38063,462.487154 C1173.56233,462.054719 1172.91369,461.445994 1172.43468,460.66096 C1171.95568,459.875926 1171.71618,458.971154 1171.71618,457.946618 C1171.71618,456.922081 1171.95568,456.01731 1172.43468,455.232275 C1172.91369,454.447241 1173.56233,453.838516 1174.38063,453.406082 C1175.19893,452.973647 1176.10037,452.757434 1177.08499,452.757434 C1178.64175,452.757434 1179.82594,453.269694 1180.63759,454.29423 L1180.63759,452.917101 L1183.59143,452.917101 Z M1177.7037,460.581126 C1178.52865,460.581126 1179.20391,460.338302 1179.72948,459.852645 C1180.25505,459.366988 1180.51784,458.731652 1180.51784,457.946618 C1180.51784,457.161583 1180.25505,456.526247 1179.72948,456.04059 C1179.20391,455.554934 1178.52865,455.312109 1177.7037,455.312109 C1176.87875,455.312109 1176.20017,455.554934 1175.66795,456.04059 C1175.13572,456.526247 1174.86961,457.161583 1174.86961,457.946618 C1174.86961,458.731652 1175.13572,459.366988 1175.66795,459.852645 C1176.20017,460.338302 1176.87875,460.581126 1177.7037,460.581126 Z" id="Audience-&amp;-Targeting" fill="#FFFFFF"></path>
                <g id="circle/white" transform="translate(993.866880, 279.000000)" fill="#FFFFFF">
                    <g id="circle_yellow">
                        <circle id="Oval" opacity="0.2" cx="77.6570667" cy="77.6570667" r="77.6570667"></circle>
                        <circle id="Oval" opacity="0.4" cx="77.6570667" cy="77.6570667" r="56.6514667"></circle>
                        <circle id="Oval" cx="77.6570667" cy="77.6570667" r="33.0997333"></circle>
                    </g>
                </g>
                <path d="M798.486158,556.73855 C797.369413,556.73855 796.362821,556.497788 795.466352,556.016256 C794.569883,555.534723 793.868086,554.871346 793.360941,554.026104 C792.853795,553.180861 792.600226,552.230618 792.600226,551.175346 C792.600226,550.120073 792.853795,549.16983 793.360941,548.324588 C793.868086,547.479345 794.569883,546.815968 795.466352,546.334436 C796.362821,545.852904 797.369413,545.612141 798.486158,545.612141 C799.602902,545.612141 800.606933,545.852904 801.49828,546.334436 C802.389626,546.815968 803.091423,547.479345 803.603691,548.324588 C804.115959,549.16983 804.37209,550.120073 804.37209,551.175346 C804.37209,552.230618 804.115959,553.180861 803.603691,554.026104 C803.091423,554.871346 802.389626,555.534723 801.49828,556.016256 C800.606933,556.497788 799.602902,556.73855 798.486158,556.73855 Z M798.486158,554.61777 C799.12137,554.61777 799.695102,554.471776 800.20737,554.179783 C800.719638,553.88779 801.121763,553.480543 801.413756,552.95803 C801.705749,552.435516 801.851743,551.841294 801.851743,551.175346 C801.851743,550.509397 801.705749,549.915175 801.413756,549.392661 C801.121763,548.870148 800.719638,548.462901 800.20737,548.170908 C799.695102,547.878915 799.12137,547.732921 798.486158,547.732921 C797.850945,547.732921 797.277214,547.878915 796.764945,548.170908 C796.252677,548.462901 795.850553,548.870148 795.55856,549.392661 C795.266567,549.915175 795.120573,550.509397 795.120573,551.175346 C795.120573,551.841294 795.266567,552.435516 795.55856,552.95803 C795.850553,553.480543 796.252677,553.88779 796.764945,554.179783 C797.277214,554.471776 797.850945,554.61777 798.486158,554.61777 Z M810.964948,548.163224 C811.73335,548.163224 812.432586,548.339954 813.062676,548.693419 C813.692765,549.046884 814.187097,549.543776 814.545684,550.184112 C814.904272,550.824447 815.083563,551.569786 815.083563,552.420151 C815.083563,553.270516 814.904272,554.015855 814.545684,554.65619 C814.187097,555.296526 813.692765,555.793418 813.062676,556.146883 C812.432586,556.500348 811.73335,556.677078 810.964948,556.677078 C809.909675,556.677078 809.079814,556.344109 808.475337,555.67816 L808.475337,559.53552 L806.077934,559.53552 L806.077934,548.286168 L808.367761,548.286168 L808.367761,549.238982 C808.961992,548.521806 809.827713,548.163224 810.964948,548.163224 Z M810.550013,554.709978 C811.164735,554.709978 811.669311,554.502513 812.063758,554.087576 C812.458204,553.672638 812.655424,553.116836 812.655424,552.420151 C812.655424,551.723466 812.458204,551.167664 812.063758,550.752726 C811.669311,550.337789 811.164735,550.130324 810.550013,550.130324 C809.935291,550.130324 809.430714,550.337789 809.036268,550.752726 C808.641821,551.167664 808.444601,551.723466 808.444601,552.420151 C808.444601,553.116836 808.641821,553.672638 809.036268,554.087576 C809.430714,554.502513 809.935291,554.709978 810.550013,554.709978 Z M822.014517,556.154567 C821.778874,556.328738 821.489446,556.459365 821.146227,556.54645 C820.803007,556.633536 820.441863,556.677078 820.062785,556.677078 C819.07923,556.677078 818.318523,556.426071 817.780642,555.924048 C817.24276,555.422025 816.973823,554.68437 816.973823,553.71106 L816.973823,550.314739 L815.698282,550.314739 L815.698282,548.470583 L816.973823,548.470583 L816.973823,546.457379 L819.371226,546.457379 L819.371226,548.470583 L821.430534,548.470583 L821.430534,550.314739 L819.371226,550.314739 L819.371226,553.680324 C819.371226,554.028667 819.460872,554.297603 819.640166,554.487143 C819.81946,554.676682 820.073029,554.77145 820.40088,554.77145 C820.779959,554.77145 821.102683,554.668998 821.369062,554.464091 L822.014517,556.154567 Z M823.366898,548.286168 L825.764301,548.286168 L825.764301,556.554134 L823.366898,556.554134 L823.366898,548.286168 Z M824.5656,547.13357 C824.125049,547.13357 823.766467,547.005505 823.489842,546.749371 C823.213217,546.493237 823.074907,546.175635 823.074907,545.796557 C823.074907,545.417478 823.213217,545.099877 823.489842,544.843743 C823.766467,544.587609 824.125049,544.459544 824.5656,544.459544 C825.00615,544.459544 825.364733,544.582486 825.641357,544.828375 C825.917982,545.074264 826.056292,545.38162 826.056292,545.750453 C826.056292,546.150022 825.917982,546.48043 825.641357,546.741687 C825.364733,547.002944 825.00615,547.13357 824.5656,547.13357 Z M838.581186,548.163224 C839.615968,548.163224 840.438146,548.468019 841.047745,549.077618 C841.657344,549.687217 841.962139,550.601602 841.962139,551.8208 L841.962139,556.554134 L839.564736,556.554134 L839.564736,552.189631 C839.564736,551.533928 839.428987,551.044719 839.157485,550.721991 C838.885983,550.399262 838.499226,550.2379 837.997204,550.2379 C837.433709,550.2379 836.988042,550.419752 836.66019,550.783462 C836.332339,551.147173 836.168415,551.687608 836.168415,552.404783 L836.168415,556.554134 L833.771012,556.554134 L833.771012,552.189631 C833.771012,550.88847 833.248507,550.2379 832.20348,550.2379 C831.65023,550.2379 831.209686,550.419752 830.881834,550.783462 C830.553983,551.147173 830.390059,551.687608 830.390059,552.404783 L830.390059,556.554134 L827.992656,556.554134 L827.992656,548.286168 L830.282484,548.286168 L830.282484,549.238982 C830.589845,548.890639 830.966356,548.624264 831.412029,548.439847 C831.857703,548.255431 832.346911,548.163224 832.87967,548.163224 C833.463656,548.163224 833.991284,548.278482 834.462571,548.509003 C834.933858,548.739524 835.31293,549.075054 835.599801,549.515605 C835.937898,549.0853 836.365635,548.75233 836.883026,548.516687 C837.400417,548.281044 837.966465,548.163224 838.581186,548.163224 Z M844.113655,548.286168 L846.511058,548.286168 L846.511058,556.554134 L844.113655,556.554134 L844.113655,548.286168 Z M845.312356,547.13357 C844.871806,547.13357 844.513223,547.005505 844.236599,546.749371 C843.959974,546.493237 843.821663,546.175635 843.821663,545.796557 C843.821663,545.417478 843.959974,545.099877 844.236599,544.843743 C844.513223,544.587609 844.871806,544.459544 845.312356,544.459544 C845.752907,544.459544 846.111489,544.582486 846.388114,544.828375 C846.664739,545.074264 846.803049,545.38162 846.803049,545.750453 C846.803049,546.150022 846.664739,546.48043 846.388114,546.741687 C846.111489,547.002944 845.752907,547.13357 845.312356,547.13357 Z M855.547423,554.709978 L855.547423,556.554134 L848.170798,556.554134 L848.170798,555.109545 L852.381622,550.130324 L848.278374,550.130324 L848.278374,548.286168 L855.409111,548.286168 L855.409111,549.730757 L851.198288,554.709978 L855.547423,554.709978 Z M860.419069,548.163224 C861.699739,548.163224 862.683279,548.468019 863.369719,549.077618 C864.056158,549.687217 864.399373,550.606725 864.399373,551.836168 L864.399373,556.554134 L862.155649,556.554134 L862.155649,555.524481 C861.704853,556.292883 860.864746,556.677078 859.635303,556.677078 C859.00009,556.677078 858.44941,556.569503 857.983246,556.354351 C857.517082,556.139198 857.161061,555.842087 856.915172,555.463009 C856.669284,555.08393 856.546341,554.653631 856.546341,554.172099 C856.546341,553.403697 856.835768,552.79923 857.414631,552.358679 C857.993494,551.918129 858.887389,551.697857 860.096342,551.697857 L862.00197,551.697857 C862.00197,551.175343 861.843169,550.773219 861.525563,550.491471 C861.207956,550.209724 860.731554,550.068852 860.096342,550.068852 C859.655791,550.068852 859.222931,550.138007 858.797748,550.276319 C858.372566,550.414632 858.011422,550.601607 857.714307,550.83725 L856.8537,549.162142 C857.304496,548.844536 857.844931,548.598651 858.475021,548.424479 C859.105111,548.250308 859.75312,548.163224 860.419069,548.163224 Z M860.234653,555.063442 C860.644468,555.063442 861.008173,554.968673 861.325779,554.779134 C861.643385,554.589595 861.86878,554.310413 862.00197,553.94158 L862.00197,553.096342 L860.357597,553.096342 C859.374042,553.096342 858.882272,553.419066 858.882272,554.064524 C858.882272,554.371884 859.002653,554.615208 859.243419,554.794502 C859.484185,554.973796 859.814593,555.063442 860.234653,555.063442 Z M871.898941,556.154567 C871.663298,556.328738 871.373871,556.459365 871.030651,556.54645 C870.687431,556.633536 870.326288,556.677078 869.947209,556.677078 C868.963654,556.677078 868.202947,556.426071 867.665066,555.924048 C867.127184,555.422025 866.858248,554.68437 866.858248,553.71106 L866.858248,550.314739 L865.582706,550.314739 L865.582706,548.470583 L866.858248,548.470583 L866.858248,546.457379 L869.255651,546.457379 L869.255651,548.470583 L871.314958,548.470583 L871.314958,550.314739 L869.255651,550.314739 L869.255651,553.680324 C869.255651,554.028667 869.345296,554.297603 869.52459,554.487143 C869.703884,554.676682 869.957453,554.77145 870.285304,554.77145 C870.664383,554.77145 870.987107,554.668998 871.253486,554.464091 L871.898941,556.154567 Z M873.251322,548.286168 L875.648725,548.286168 L875.648725,556.554134 L873.251322,556.554134 L873.251322,548.286168 Z M874.450024,547.13357 C874.009473,547.13357 873.650891,547.005505 873.374266,546.749371 C873.097641,546.493237 872.959331,546.175635 872.959331,545.796557 C872.959331,545.417478 873.097641,545.099877 873.374266,544.843743 C873.650891,544.587609 874.009473,544.459544 874.450024,544.459544 C874.890574,544.459544 875.249157,544.582486 875.525781,544.828375 C875.802406,545.074264 875.940717,545.38162 875.940717,545.750453 C875.940717,546.150022 875.802406,546.48043 875.525781,546.741687 C875.249157,547.002944 874.890574,547.13357 874.450024,547.13357 Z M881.81128,556.677078 C880.940425,556.677078 880.159227,556.495226 879.467665,556.131515 C878.776103,555.767805 878.235668,555.263228 877.846345,554.61777 C877.457021,553.972313 877.262362,553.23978 877.262362,552.420151 C877.262362,551.600522 877.457021,550.867989 877.846345,550.222532 C878.235668,549.577074 878.776103,549.072497 879.467665,548.708787 C880.159227,548.345076 880.940425,548.163224 881.81128,548.163224 C882.682136,548.163224 883.460772,548.345076 884.147212,548.708787 C884.833651,549.072497 885.371524,549.577074 885.760848,550.222532 C886.150172,550.867989 886.344831,551.600522 886.344831,552.420151 C886.344831,553.23978 886.150172,553.972313 885.760848,554.61777 C885.371524,555.263228 884.833651,555.767805 884.147212,556.131515 C883.460772,556.495226 882.682136,556.677078 881.81128,556.677078 Z M881.81128,554.709978 C882.426002,554.709978 882.930579,554.502513 883.325025,554.087576 C883.719472,553.672638 883.916692,553.116836 883.916692,552.420151 C883.916692,551.723466 883.719472,551.167664 883.325025,550.752726 C882.930579,550.337789 882.426002,550.130324 881.81128,550.130324 C881.196559,550.130324 880.689421,550.337789 880.289852,550.752726 C879.890282,551.167664 879.690501,551.723466 879.690501,552.420151 C879.690501,553.116836 879.890282,553.672638 880.289852,554.087576 C880.689421,554.502513 881.196559,554.709978 881.81128,554.709978 Z M892.968425,548.163224 C893.992961,548.163224 894.820262,548.47058 895.450352,549.085302 C896.080442,549.700024 896.395482,550.611847 896.395482,551.8208 L896.395482,556.554134 L893.998079,556.554134 L893.998079,552.189631 C893.998079,551.533928 893.854646,551.044719 893.567776,550.721991 C893.280906,550.399262 892.865975,550.2379 892.32297,550.2379 C891.718494,550.2379 891.236969,550.424875 890.878382,550.79883 C890.519794,551.172786 890.340503,551.728589 890.340503,552.466255 L890.340503,556.554134 L887.9431,556.554134 L887.9431,548.286168 L890.232927,548.286168 L890.232927,549.25435 C890.550533,548.906007 890.944974,548.63707 891.41626,548.447531 C891.887547,548.257992 892.40493,548.163224 892.968425,548.163224 Z" id="Optimization" fill="#FFFFFF"></path>
                <g id="circle/white" transform="translate(785.177498, 414.000000)" fill="#FFFFFF">
                    <g id="circle_yellow">
                        <circle id="Oval" opacity="0.2" cx="59.6556576" cy="59.6556576" r="59.6556576"></circle>
                        <circle id="Oval" opacity="0.4" cx="59.6556576" cy="59.6556576" r="43.5192912"></circle>
                        <circle id="Oval" cx="59.6556576" cy="59.6556576" r="25.4270016"></circle>
                    </g>
                </g>
                <g id="circle/white" transform="translate(35.255680, 74.000000)" fill="#FFFFFF">
                    <g id="circle_yellow">
                        <circle id="Oval" opacity="0.2" cx="45.0118141" cy="45.0118141" r="45.0118141"></circle>
                        <circle id="Oval" opacity="0.4" cx="45.0118141" cy="45.0118141" r="32.8364873"></circle>
                        <circle id="Oval" cx="45.0118141" cy="45.0118141" r="19.1853634"></circle>
                    </g>
                </g>
                <path d="M62.016,181.144 C61.1599957,181.144 60.3860035,180.958002 59.694,180.586 C59.0019965,180.213998 58.458002,179.698003 58.062,179.038 C57.665998,178.377997 57.468,177.632004 57.468,176.8 C57.468,175.967996 57.665998,175.222003 58.062,174.562 C58.458002,173.901997 59.0019965,173.386002 59.694,173.014 C60.3860035,172.641998 61.1639957,172.456 62.028,172.456 C62.7560036,172.456 63.4139971,172.583999 64.002,172.84 C64.5900029,173.096001 65.083998,173.463998 65.484,173.944 L64.236,175.096 C63.6679972,174.439997 62.9640042,174.112 62.124,174.112 C61.6039974,174.112 61.140002,174.225999 60.732,174.454 C60.323998,174.682001 60.0060011,174.999998 59.778,175.408 C59.5499989,175.816002 59.436,176.279997 59.436,176.8 C59.436,177.320003 59.5499989,177.783998 59.778,178.192 C60.0060011,178.600002 60.323998,178.917999 60.732,179.146 C61.140002,179.374001 61.6039974,179.488 62.124,179.488 C62.9640042,179.488 63.6679972,179.156003 64.236,178.492 L65.484,179.644 C65.083998,180.132002 64.588003,180.503999 63.996,180.76 C63.403997,181.016001 62.7440036,181.144 62.016,181.144 Z M69.6111429,181.096 C68.9311395,181.096 68.3211456,180.954001 67.7811429,180.67 C67.2411402,180.385999 66.8191444,179.992003 66.5151429,179.488 C66.2111414,178.983997 66.0591429,178.412003 66.0591429,177.772 C66.0591429,177.131997 66.2111414,176.560003 66.5151429,176.056 C66.8191444,175.551997 67.2411402,175.158001 67.7811429,174.874 C68.3211456,174.589999 68.9311395,174.448 69.6111429,174.448 C70.2911463,174.448 70.8991402,174.589999 71.4351429,174.874 C71.9711456,175.158001 72.3911414,175.551997 72.6951429,176.056 C72.9991444,176.560003 73.1511429,177.131997 73.1511429,177.772 C73.1511429,178.412003 72.9991444,178.983997 72.6951429,179.488 C72.3911414,179.992003 71.9711456,180.385999 71.4351429,180.67 C70.8991402,180.954001 70.2911463,181.096 69.6111429,181.096 Z M69.6111429,179.56 C70.0911453,179.56 70.4851414,179.398002 70.7931429,179.074 C71.1011444,178.749998 71.2551429,178.316003 71.2551429,177.772 C71.2551429,177.227997 71.1011444,176.794002 70.7931429,176.47 C70.4851414,176.145998 70.0911453,175.984 69.6111429,175.984 C69.1311405,175.984 68.7351445,176.145998 68.4231429,176.47 C68.1111413,176.794002 67.9551429,177.227997 67.9551429,177.772 C67.9551429,178.316003 68.1111413,178.749998 68.4231429,179.074 C68.7351445,179.398002 69.1311405,179.56 69.6111429,179.56 Z M78.4302858,174.448 C79.2302898,174.448 79.8762833,174.687998 80.3682858,175.168 C80.8602883,175.648002 81.1062858,176.359995 81.1062858,177.304 L81.1062858,181 L79.2342858,181 L79.2342858,177.592 C79.2342858,177.079997 79.1222869,176.698001 78.8982858,176.446 C78.6742847,176.193999 78.3502879,176.068 77.9262858,176.068 C77.4542834,176.068 77.0782872,176.213999 76.7982858,176.506 C76.5182844,176.798001 76.3782858,177.231997 76.3782858,177.808 L76.3782858,181 L74.5062858,181 L74.5062858,174.544 L76.2942858,174.544 L76.2942858,175.3 C76.542287,175.027999 76.850284,174.818001 77.2182858,174.67 C77.5862876,174.521999 77.9902836,174.448 78.4302858,174.448 Z M87.0694287,180.688 C86.8854278,180.824001 86.65943,180.926 86.3914287,180.994 C86.1234274,181.062 85.8414302,181.096 85.5454287,181.096 C84.7774249,181.096 84.1834308,180.900002 83.7634287,180.508 C83.3434266,180.115998 83.1334287,179.540004 83.1334287,178.78 L83.1334287,176.128 L82.1374287,176.128 L82.1374287,174.688 L83.1334287,174.688 L83.1334287,173.116 L85.0054287,173.116 L85.0054287,174.688 L86.6134287,174.688 L86.6134287,176.128 L85.0054287,176.128 L85.0054287,178.756 C85.0054287,179.028001 85.075428,179.237999 85.2154287,179.386 C85.3554294,179.534001 85.5534274,179.608 85.8094287,179.608 C86.1054302,179.608 86.3574277,179.528001 86.5654287,179.368 L87.0694287,180.688 Z M90.0205716,175.396 C90.2445727,175.083998 90.5465697,174.848001 90.9265716,174.688 C91.3065735,174.527999 91.7445691,174.448 92.2405716,174.448 L92.2405716,176.176 C92.0325706,176.16 91.892572,176.152 91.8205716,176.152 C91.2845689,176.152 90.8645731,176.301999 90.5605716,176.602 C90.2565701,176.902001 90.1045716,177.351997 90.1045716,177.952 L90.1045716,181 L88.2325716,181 L88.2325716,174.544 L90.0205716,174.544 L90.0205716,175.396 Z M96.4757145,181.096 C95.7957111,181.096 95.1857172,180.954001 94.6457145,180.67 C94.1057118,180.385999 93.683716,179.992003 93.3797145,179.488 C93.075713,178.983997 92.9237145,178.412003 92.9237145,177.772 C92.9237145,177.131997 93.075713,176.560003 93.3797145,176.056 C93.683716,175.551997 94.1057118,175.158001 94.6457145,174.874 C95.1857172,174.589999 95.7957111,174.448 96.4757145,174.448 C97.1557179,174.448 97.7637118,174.589999 98.2997145,174.874 C98.8357172,175.158001 99.255713,175.551997 99.5597145,176.056 C99.863716,176.560003 100.015715,177.131997 100.015715,177.772 C100.015715,178.412003 99.863716,178.983997 99.5597145,179.488 C99.255713,179.992003 98.8357172,180.385999 98.2997145,180.67 C97.7637118,180.954001 97.1557179,181.096 96.4757145,181.096 Z M96.4757145,179.56 C96.9557169,179.56 97.349713,179.398002 97.6577145,179.074 C97.965716,178.749998 98.1197145,178.316003 98.1197145,177.772 C98.1197145,177.227997 97.965716,176.794002 97.6577145,176.47 C97.349713,176.145998 96.9557169,175.984 96.4757145,175.984 C95.9957121,175.984 95.5997161,176.145998 95.2877145,176.47 C94.9757129,176.794002 94.8197145,177.227997 94.8197145,177.772 C94.8197145,178.316003 94.9757129,178.749998 95.2877145,179.074 C95.5997161,179.398002 95.9957121,179.56 96.4757145,179.56 Z M101.370857,172.096 L103.242857,172.096 L103.242857,181 L101.370857,181 L101.370857,172.096 Z" id="Control" fill="#FFFFFF"></path>
                <path d="M1083.79412,212.771629 C1082.96362,212.771629 1082.2127,212.591173 1081.54132,212.230257 C1080.86993,211.869341 1080.34215,211.368723 1079.95795,210.728388 C1079.57375,210.088052 1079.38165,209.36429 1079.38165,208.55708 C1079.38165,207.74987 1079.57375,207.026108 1079.95795,206.385772 C1080.34215,205.745437 1080.86993,205.244819 1081.54132,204.883903 C1082.2127,204.522987 1082.96751,204.342531 1083.80576,204.342531 C1084.51207,204.342531 1085.15046,204.466716 1085.72094,204.715088 C1086.29142,204.96346 1086.77069,205.32049 1087.15877,205.786189 L1085.94796,206.903859 C1085.39689,206.267405 1084.71387,205.949182 1083.8989,205.949182 C1083.3944,205.949182 1082.94423,206.059784 1082.54838,206.280991 C1082.15254,206.502198 1081.84402,206.810718 1081.62281,207.206562 C1081.40161,207.602405 1081.291,208.052573 1081.291,208.55708 C1081.291,209.061587 1081.40161,209.511755 1081.62281,209.907598 C1081.84402,210.303442 1082.15254,210.611962 1082.54838,210.833169 C1082.94423,211.054376 1083.3944,211.164978 1083.8989,211.164978 C1084.71387,211.164978 1085.39689,210.842874 1085.94796,210.198658 L1087.15877,211.316329 C1086.77069,211.789789 1086.28948,212.1507 1085.71512,212.399072 C1085.14075,212.647444 1084.50043,212.771629 1083.79412,212.771629 Z M1092.10679,206.27517 C1092.88296,206.27517 1093.5097,206.508015 1093.98704,206.973714 C1094.46438,207.439412 1094.70305,208.130187 1094.70305,209.046061 L1094.70305,212.63192 L1092.88683,212.63192 L1092.88683,209.325478 C1092.88683,208.828734 1092.77817,208.458121 1092.56085,208.213629 C1092.34352,207.969138 1092.02918,207.846894 1091.61781,207.846894 C1091.15988,207.846894 1090.79508,207.988541 1090.52343,208.271841 C1090.25177,208.555141 1090.11594,208.976204 1090.11594,209.535042 L1090.11594,212.63192 L1088.29973,212.63192 L1088.29973,203.993259 L1090.11594,203.993259 L1090.11594,207.020283 C1090.35655,206.779672 1090.64761,206.595336 1090.98912,206.467269 C1091.33064,206.339202 1091.70319,206.27517 1092.10679,206.27517 Z M1098.87103,206.27517 C1099.84123,206.27517 1100.58634,206.506075 1101.10637,206.967892 C1101.6264,207.42971 1101.88641,208.126307 1101.88641,209.057703 L1101.88641,212.63192 L1100.18662,212.63192 L1100.18662,211.851879 C1099.84511,212.434002 1099.20866,212.725059 1098.27727,212.725059 C1097.79604,212.725059 1097.37886,212.643563 1097.02571,212.480569 C1096.67255,212.317574 1096.40284,212.09249 1096.21656,211.80531 C1096.03028,211.518129 1095.93714,211.192145 1095.93714,210.827348 C1095.93714,210.245225 1096.15641,209.787295 1096.59494,209.453545 C1097.03347,209.119794 1097.71066,208.952922 1098.62654,208.952922 L1100.0702,208.952922 C1100.0702,208.557078 1099.94989,208.252438 1099.70928,208.038993 C1099.46867,207.825548 1099.10776,207.718827 1098.62654,207.718827 C1098.29279,207.718827 1097.96486,207.771217 1097.64275,207.876 C1097.32065,207.980782 1097.04705,208.12243 1096.82197,208.300947 L1096.16999,207.031926 C1096.5115,206.791315 1096.92092,206.605038 1097.39826,206.47309 C1097.87561,206.341143 1098.36652,206.27517 1098.87103,206.27517 Z M1098.73132,211.502607 C1099.04178,211.502607 1099.31732,211.430813 1099.55793,211.287223 C1099.79854,211.143632 1099.96929,210.932131 1100.0702,210.652712 L1100.0702,210.01238 L1098.82446,210.01238 C1098.07934,210.01238 1097.70679,210.256868 1097.70679,210.745851 C1097.70679,210.9787 1097.79799,211.163037 1097.98038,211.298865 C1098.16278,211.434694 1098.41309,211.502607 1098.73132,211.502607 Z M1107.33505,206.27517 C1108.11122,206.27517 1108.73796,206.508015 1109.2153,206.973714 C1109.69264,207.439412 1109.93131,208.130187 1109.93131,209.046061 L1109.93131,212.63192 L1108.11509,212.63192 L1108.11509,209.325478 C1108.11509,208.828734 1108.00643,208.458121 1107.78911,208.213629 C1107.57178,207.969138 1107.25744,207.846894 1106.84607,207.846894 C1106.38814,207.846894 1106.02334,207.988541 1105.75169,208.271841 C1105.48003,208.555141 1105.3442,208.976204 1105.3442,209.535042 L1105.3442,212.63192 L1103.52799,212.63192 L1103.52799,206.368309 L1105.26271,206.368309 L1105.26271,207.10178 C1105.50332,206.837884 1105.80214,206.634144 1106.15917,206.490554 C1106.51621,206.346964 1106.90816,206.27517 1107.33505,206.27517 Z M1115.37995,206.27517 C1116.15612,206.27517 1116.78286,206.508015 1117.2602,206.973714 C1117.73754,207.439412 1117.97621,208.130187 1117.97621,209.046061 L1117.97621,212.63192 L1116.15999,212.63192 L1116.15999,209.325478 C1116.15999,208.828734 1116.05133,208.458121 1115.834,208.213629 C1115.61668,207.969138 1115.30234,207.846894 1114.89097,207.846894 C1114.43303,207.846894 1114.06824,207.988541 1113.79658,208.271841 C1113.52493,208.555141 1113.3891,208.976204 1113.3891,209.535042 L1113.3891,212.63192 L1111.57289,212.63192 L1111.57289,206.368309 L1113.3076,206.368309 L1113.3076,207.10178 C1113.54821,206.837884 1113.84703,206.634144 1114.20407,206.490554 C1114.5611,206.346964 1114.95306,206.27517 1115.37995,206.27517 Z M1125.75333,209.523399 C1125.75333,209.546684 1125.74169,209.709676 1125.7184,210.01238 L1120.97995,210.01238 C1121.06532,210.400462 1121.26712,210.707042 1121.58535,210.93213 C1121.90358,211.157217 1122.29942,211.269759 1122.77288,211.269759 C1123.09886,211.269759 1123.38798,211.22125 1123.64023,211.124229 C1123.89249,211.027209 1124.12727,210.873919 1124.3446,210.664354 L1125.31092,211.71217 C1124.72103,212.387433 1123.8595,212.725059 1122.72631,212.725059 C1122.02,212.725059 1121.39519,212.587292 1120.85188,212.311754 C1120.30856,212.036216 1119.88944,211.653961 1119.5945,211.164978 C1119.29956,210.675994 1119.15209,210.121046 1119.15209,209.500114 C1119.15209,208.886945 1119.29762,208.333936 1119.58868,207.841072 C1119.87974,207.348208 1120.27946,206.964013 1120.78785,206.688475 C1121.29623,206.412937 1121.86476,206.27517 1122.49346,206.27517 C1123.10663,206.27517 1123.66158,206.407115 1124.15832,206.671011 C1124.65507,206.934907 1125.04508,207.313281 1125.32838,207.806145 C1125.61168,208.299009 1125.75333,208.871422 1125.75333,209.523399 Z M1122.5051,207.648973 C1122.09373,207.648973 1121.74835,207.765396 1121.46893,207.998245 C1121.18951,208.231094 1121.01875,208.549316 1120.95666,208.952922 L1124.0419,208.952922 C1123.9798,208.557078 1123.80905,208.240796 1123.52963,208.004066 C1123.25021,207.767336 1122.90871,207.648973 1122.5051,207.648973 Z M1126.96414,203.993259 L1128.78035,203.993259 L1128.78035,212.63192 L1126.96414,212.63192 L1126.96414,203.993259 Z M1132.57578,212.725059 C1132.05575,212.725059 1131.54737,212.661027 1131.05062,212.53296 C1130.55388,212.404893 1130.15804,212.243841 1129.8631,212.0498 L1130.4685,210.745851 C1130.74792,210.924369 1131.08555,211.069897 1131.48139,211.182441 C1131.87723,211.294985 1132.26531,211.351256 1132.64563,211.351256 C1133.41403,211.351256 1133.79823,211.161099 1133.79823,210.780778 C1133.79823,210.602261 1133.69345,210.474196 1133.48388,210.396579 C1133.27432,210.318963 1132.95222,210.25299 1132.51756,210.198658 C1132.0053,210.121042 1131.58229,210.031785 1131.24854,209.930883 C1130.91479,209.829982 1130.62568,209.651467 1130.38118,209.395333 C1130.13669,209.139199 1130.01445,208.774407 1130.01445,208.300947 C1130.01445,207.905104 1130.12893,207.553895 1130.3579,207.24731 C1130.58687,206.940725 1130.92061,206.702058 1131.35915,206.531302 C1131.79768,206.360546 1132.31576,206.27517 1132.91341,206.27517 C1133.35582,206.27517 1133.79629,206.323679 1134.23482,206.4207 C1134.67335,206.51772 1135.0362,206.651606 1135.32338,206.822362 L1134.71798,208.114669 C1134.1669,207.804203 1133.56538,207.648973 1132.91341,207.648973 C1132.52532,207.648973 1132.23427,207.703303 1132.04023,207.811966 C1131.84618,207.920629 1131.74917,208.060337 1131.74917,208.231093 C1131.74917,208.425134 1131.85395,208.56096 1132.06351,208.638577 C1132.27307,208.716193 1132.60682,208.789928 1133.06476,208.859782 C1133.57702,208.94516 1133.99615,209.036358 1134.32214,209.133379 C1134.64812,209.230399 1134.93142,209.406974 1135.17203,209.663108 C1135.41264,209.919242 1135.53295,210.276272 1135.53295,210.734209 C1135.53295,211.122291 1135.41652,211.467678 1135.18367,211.770382 C1134.95082,212.073086 1134.61126,212.307872 1134.16496,212.474748 C1133.71867,212.641623 1133.18895,212.725059 1132.57578,212.725059 Z" id="Channels" fill="#FFFFFF"></path>
                <g id="circle/white" transform="translate(1062.255680, 105.000000)" fill="#FFFFFF">
                    <g id="circle_yellow">
                        <circle id="Oval" opacity="0.2" cx="45.0118141" cy="45.0118141" r="45.0118141"></circle>
                        <circle id="Oval" opacity="0.4" cx="45.0118141" cy="45.0118141" r="32.8364873"></circle>
                        <circle id="Oval" cx="45.0118141" cy="45.0118141" r="19.1853634"></circle>
                    </g>
                </g>
                <path d="M70,293 C131.598344,273.156606 176.931677,270.23491 206,284.23491 C249.602484,305.23491 325.074534,364 421,301" id="Path-2" stroke="url(#linearGradient-1)" stroke-width="3" opacity="0.7"></path>
                <path d="M557,350.581681 C655.086957,309.335614 731.086957,318.808387 785,379 C865.869565,469.287419 1031,633.581681 1072,350.581681" id="Path-2" stroke="url(#linearGradient-1)" stroke-width="3" opacity="0.7" transform="translate(814.500000, 417.251222) scale(-1, 1) translate(-814.500000, -417.251222) "></path>
                <path d="M82,118 C144,70.6666667 201.333333,100 254,206 C333,365 490.043478,527.591497 557,346" id="Path-2" stroke="url(#linearGradient-1)" stroke-width="3" opacity="0.7"></path>
                <path d="M557,163.667871 C629.181053,123.352281 695.929123,148.33659 757.244211,238.620798 C849.216842,374.04711 1032.04851,512.532435 1110,357.864091" id="Path-2" stroke="url(#linearGradient-1)" stroke-width="3" opacity="0.7" transform="translate(833.500000, 285.510509) scale(-1, 1) translate(-833.500000, -285.510509) "></path>
                <path d="M254,443 C355,367 355,492 442,506 C494.593957,514.463395 542,451 569,312" id="Path-2" stroke="url(#linearGradient-1)" stroke-width="3" opacity="0.7"></path>
                <path d="M555.634468,471 C696.268935,373.505043 679.737636,530.099776 748.04495,548 C789.33865,558.821191 850.293682,490 839.806633,374" id="Path-2" stroke="url(#linearGradient-1)" stroke-width="3" opacity="0.7" transform="translate(698.317234, 461.556561) scale(-1, 1) translate(-698.317234, -461.556561) "></path>
                <path d="M298,93.650026 C331.806316,42.5748525 363.06807,74.2270727 391.785263,188.606687 C434.861053,360.176108 520.491076,546.946843 557,351" id="Path-2" stroke="url(#linearGradient-1)" stroke-width="3" opacity="0.7"></path>
                <path d="M557,126.32502 C596.941053,80.2709859 633.875789,108.811514 667.804211,211.946605 C718.696842,366.649242 819.865904,524.846307 863,348.162763" id="Path-2" stroke="url(#linearGradient-1)" stroke-width="3" opacity="0.7" transform="translate(710.000000, 265.510509) scale(-1, 1) translate(-710.000000, -265.510509) "></path>
            </g>
        </g>
    </g>
</svg>