<svg width="1440" height="673" viewBox="0 0 1440 673" fill="none" xmlns="http://www.w3.org/2000/svg">
<path d="M0 0H1440V543.079C963.845 628.999 476.155 628.999 0 543.079V0Z" fill="url(#paint0_linear)"/>
<mask id="mask0" mask-type="alpha" maskUnits="userSpaceOnUse" x="0" y="0" width="1440" height="608">
<path d="M0 0H1440V543.079C963.845 628.999 476.155 628.999 0 543.079V0Z" fill="url(#paint1_linear)"/>
</mask>
<g mask="url(#mask0)">
<mask id="mask1" mask-type="alpha" maskUnits="userSpaceOnUse" x="-54" y="0" width="1590" height="842">
<rect x="-54" width="1590" height="842" rx="30" fill="#740B99"/>
</mask>
<g mask="url(#mask1)">
<path d="M398 959.369C442.939 760.419 654.5 160.107 1110.45 390.506C1566.4 620.904 1632.18 18.7262 1604.23 -181.158" stroke="url(#paint2_linear)" stroke-opacity="0.6"/>
<g style="mix-blend-mode:soft-light" opacity="0.4">
<path d="M865.846 271.677C486.662 42.9544 579.259 -111.36 672.955 -159.927L1651.03 -372.521C1776.28 41.6715 1915.63 894.433 1471.05 991.933C915.323 1113.81 1339.83 557.58 865.846 271.677Z" fill="url(#paint3_linear)"/>
</g>
<path opacity="0.2" fill-rule="evenodd" clip-rule="evenodd" d="M956 351C961.523 351 966 346.523 966 341C966 335.477 961.523 331 956 331C950.477 331 946 335.477 946 341C946 346.523 950.477 351 956 351Z" fill="#FBB640"/>
<path opacity="0.4" fill-rule="evenodd" clip-rule="evenodd" d="M956 348.295C960.029 348.295 963.295 345.029 963.295 341C963.295 336.971 960.029 333.705 956 333.705C951.971 333.705 948.705 336.971 948.705 341C948.705 345.029 951.971 348.295 956 348.295Z" fill="#FBB640"/>
<path fill-rule="evenodd" clip-rule="evenodd" d="M956 345.262C958.354 345.262 960.262 343.354 960.262 341C960.262 338.646 958.354 336.738 956 336.738C953.646 336.738 951.738 338.646 951.738 341C951.738 343.354 953.646 345.262 956 345.262Z" fill="#FBB640"/>
<path opacity="0.2" fill-rule="evenodd" clip-rule="evenodd" d="M1094 389C1097.87 389 1101 385.866 1101 382C1101 378.134 1097.87 375 1094 375C1090.13 375 1087 378.134 1087 382C1087 385.866 1090.13 389 1094 389Z" fill="#FBB640"/>
<path opacity="0.4" fill-rule="evenodd" clip-rule="evenodd" d="M1094 387.107C1096.82 387.107 1099.11 384.82 1099.11 382C1099.11 379.18 1096.82 376.894 1094 376.894C1091.18 376.894 1088.89 379.18 1088.89 382C1088.89 384.82 1091.18 387.107 1094 387.107Z" fill="#FBB640"/>
<path fill-rule="evenodd" clip-rule="evenodd" d="M1094 384.984C1095.65 384.984 1096.98 383.648 1096.98 382C1096.98 380.352 1095.65 379.017 1094 379.017C1092.35 379.017 1091.02 380.352 1091.02 382C1091.02 383.648 1092.35 384.984 1094 384.984Z" fill="#FBB640"/>
<path opacity="0.2" fill-rule="evenodd" clip-rule="evenodd" d="M1190 429C1192.76 429 1195 426.761 1195 424C1195 421.239 1192.76 419 1190 419C1187.24 419 1185 421.239 1185 424C1185 426.761 1187.24 429 1190 429Z" fill="#FBB640"/>
<path opacity="0.4" fill-rule="evenodd" clip-rule="evenodd" d="M1190 427.648C1192.01 427.648 1193.65 426.015 1193.65 424C1193.65 421.986 1192.01 420.353 1190 420.353C1187.99 420.353 1186.35 421.986 1186.35 424C1186.35 426.015 1187.99 427.648 1190 427.648Z" fill="#FBB640"/>
<path fill-rule="evenodd" clip-rule="evenodd" d="M1190 426.131C1191.18 426.131 1192.13 425.177 1192.13 424C1192.13 422.823 1191.18 421.869 1190 421.869C1188.82 421.869 1187.87 422.823 1187.87 424C1187.87 425.177 1188.82 426.131 1190 426.131Z" fill="#FBB640"/>
<path opacity="0.2" fill-rule="evenodd" clip-rule="evenodd" d="M1078 519C1081.87 519 1085 515.866 1085 512C1085 508.134 1081.87 505 1078 505C1074.13 505 1071 508.134 1071 512C1071 515.866 1074.13 519 1078 519Z" fill="#FBB640"/>
<path opacity="0.4" fill-rule="evenodd" clip-rule="evenodd" d="M1078 517.106C1080.82 517.106 1083.11 514.82 1083.11 512C1083.11 509.18 1080.82 506.893 1078 506.893C1075.18 506.893 1072.89 509.18 1072.89 512C1072.89 514.82 1075.18 517.106 1078 517.106Z" fill="#FBB640"/>
<path fill-rule="evenodd" clip-rule="evenodd" d="M1078 514.984C1079.65 514.984 1080.98 513.648 1080.98 512C1080.98 510.352 1079.65 509.017 1078 509.017C1076.35 509.017 1075.02 510.352 1075.02 512C1075.02 513.648 1076.35 514.984 1078 514.984Z" fill="#FBB640"/>
<path opacity="0.2" fill-rule="evenodd" clip-rule="evenodd" d="M931 598C937.627 598 943 592.627 943 586C943 579.373 937.627 574 931 574C924.373 574 919 579.373 919 586C919 592.627 924.373 598 931 598Z" fill="#FBB640"/>
<path opacity="0.4" fill-rule="evenodd" clip-rule="evenodd" d="M931 594.754C935.835 594.754 939.754 590.835 939.754 586C939.754 581.165 935.835 577.246 931 577.246C926.165 577.246 922.246 581.165 922.246 586C922.246 590.835 926.165 594.754 931 594.754Z" fill="#FBB640"/>
<path fill-rule="evenodd" clip-rule="evenodd" d="M931 591.115C933.825 591.115 936.115 588.825 936.115 586C936.115 583.175 933.825 580.885 931 580.885C928.175 580.885 925.885 583.175 925.885 586C925.885 588.825 928.175 591.115 931 591.115Z" fill="#FBB640"/>
<path opacity="0.2" fill-rule="evenodd" clip-rule="evenodd" d="M739 417C755.016 417 768 404.016 768 388C768 371.984 755.016 359 739 359C722.984 359 710 371.984 710 388C710 404.016 722.984 417 739 417Z" fill="#FBB640"/>
<path opacity="0.4" fill-rule="evenodd" clip-rule="evenodd" d="M739 409.156C750.684 409.156 760.156 399.684 760.156 388C760.156 376.316 750.684 366.844 739 366.844C727.316 366.844 717.844 376.316 717.844 388C717.844 399.684 727.316 409.156 739 409.156Z" fill="#FBB640"/>
<path fill-rule="evenodd" clip-rule="evenodd" d="M739 400.361C745.827 400.361 751.361 394.827 751.361 388C751.361 381.174 745.827 375.64 739 375.64C732.173 375.64 726.639 381.174 726.639 388C726.639 394.827 732.173 400.361 739 400.361Z" fill="#FBB640"/>
<path opacity="0.2" fill-rule="evenodd" clip-rule="evenodd" d="M684 146C689.523 146 694 141.523 694 136C694 130.477 689.523 126 684 126C678.477 126 674 130.477 674 136C674 141.523 678.477 146 684 146Z" fill="#FBB640"/>
<path opacity="0.4" fill-rule="evenodd" clip-rule="evenodd" d="M684 143.295C688.029 143.295 691.295 140.029 691.295 136C691.295 131.971 688.029 128.705 684 128.705C679.971 128.705 676.705 131.971 676.705 136C676.705 140.029 679.971 143.295 684 143.295Z" fill="#FBB640"/>
<path fill-rule="evenodd" clip-rule="evenodd" d="M684 140.262C686.354 140.262 688.262 138.354 688.262 136C688.262 133.646 686.354 131.738 684 131.738C681.646 131.738 679.738 133.646 679.738 136C679.738 138.354 681.646 140.262 684 140.262Z" fill="#FBB640"/>
<path opacity="0.2" fill-rule="evenodd" clip-rule="evenodd" d="M876 78C879.314 78 882 75.3137 882 72C882 68.6863 879.314 66 876 66C872.686 66 870 68.6863 870 72C870 75.3137 872.686 78 876 78Z" fill="#FBB640"/>
<path opacity="0.4" fill-rule="evenodd" clip-rule="evenodd" d="M876 76.3771C878.417 76.3771 880.377 74.4175 880.377 72.0001C880.377 69.5827 878.417 67.623 876 67.623C873.583 67.623 871.623 69.5827 871.623 72.0001C871.623 74.4175 873.583 76.3771 876 76.3771Z" fill="#FBB640"/>
<path fill-rule="evenodd" clip-rule="evenodd" d="M876 74.5576C877.412 74.5576 878.557 73.4126 878.557 72.0002C878.557 70.5878 877.412 69.4429 876 69.4429C874.588 69.4429 873.443 70.5878 873.443 72.0002C873.443 73.4126 874.588 74.5576 876 74.5576Z" fill="#FBB640"/>
<path opacity="0.2" fill-rule="evenodd" clip-rule="evenodd" d="M1187 363C1189.21 363 1191 361.209 1191 359C1191 356.791 1189.21 355 1187 355C1184.79 355 1183 356.791 1183 359C1183 361.209 1184.79 363 1187 363Z" fill="#FBB640"/>
<path opacity="0.4" fill-rule="evenodd" clip-rule="evenodd" d="M1187 361.918C1188.61 361.918 1189.92 360.612 1189.92 359C1189.92 357.388 1188.61 356.082 1187 356.082C1185.39 356.082 1184.08 357.388 1184.08 359C1184.08 360.612 1185.39 361.918 1187 361.918Z" fill="#FBB640"/>
<path fill-rule="evenodd" clip-rule="evenodd" d="M1187 360.705C1187.94 360.705 1188.71 359.941 1188.71 359C1188.71 358.058 1187.94 357.295 1187 357.295C1186.06 357.295 1185.3 358.058 1185.3 359C1185.3 359.941 1186.06 360.705 1187 360.705Z" fill="#FBB640"/>
<path opacity="0.2" fill-rule="evenodd" clip-rule="evenodd" d="M931 190C937.075 190 942 185.075 942 179C942 172.925 937.075 168 931 168C924.925 168 920 172.925 920 179C920 185.075 924.925 190 931 190Z" fill="#FBB640"/>
<path opacity="0.4" fill-rule="evenodd" clip-rule="evenodd" d="M931 187.025C935.432 187.025 939.025 183.432 939.025 179C939.025 174.568 935.432 170.976 931 170.976C926.568 170.976 922.975 174.568 922.975 179C922.975 183.432 926.568 187.025 931 187.025Z" fill="#FBB640"/>
<path fill-rule="evenodd" clip-rule="evenodd" d="M931 183.689C933.589 183.689 935.689 181.589 935.689 179C935.689 176.411 933.589 174.312 931 174.312C928.411 174.312 926.312 176.411 926.312 179C926.312 181.589 928.411 183.689 931 183.689Z" fill="#FBB640"/>
<path opacity="0.2" fill-rule="evenodd" clip-rule="evenodd" d="M1202 226C1206.97 226 1211 221.971 1211 217C1211 212.029 1206.97 208 1202 208C1197.03 208 1193 212.029 1193 217C1193 221.971 1197.03 226 1202 226Z" fill="#FBB640"/>
<path opacity="0.4" fill-rule="evenodd" clip-rule="evenodd" d="M1202 223.566C1205.63 223.566 1208.57 220.626 1208.57 217C1208.57 213.374 1205.63 210.435 1202 210.435C1198.37 210.435 1195.43 213.374 1195.43 217C1195.43 220.626 1198.37 223.566 1202 223.566Z" fill="#FBB640"/>
<path fill-rule="evenodd" clip-rule="evenodd" d="M1202 220.836C1204.12 220.836 1205.84 219.119 1205.84 217C1205.84 214.882 1204.12 213.164 1202 213.164C1199.88 213.164 1198.16 214.882 1198.16 217C1198.16 219.119 1199.88 220.836 1202 220.836Z" fill="#FBB640"/>
<path d="M581 1107.36C638.595 908.407 909.738 308.096 1494.1 538.494C2078.45 768.892 2162.76 166.714 2126.94 -33.1694" stroke="url(#paint4_linear)" stroke-opacity="0.3"/>
<path d="M525 950.439C569.939 751.489 781.5 151.177 1237.45 381.575C1693.4 611.974 1759.18 9.79602 1731.23 -190.088" stroke="url(#paint5_linear)" stroke-opacity="0.3"/>
<path d="M497 789.527C541.939 590.576 753.5 -9.73486 1209.45 220.663C1665.4 451.062 1731.18 -151.116 1703.23 -351" stroke="url(#paint6_linear)" stroke-opacity="0.3"/>
<path d="M-188 655.74C-143.061 456.789 68.5 -143.522 524.449 86.8757C980.399 317.274 1046.18 -284.904 1018.23 -484.788" stroke="url(#paint7_linear)" stroke-opacity="0.4"/>
</g>
</g>
<defs>
<linearGradient id="paint0_linear" x1="-658.785" y1="346.036" x2="-157.122" y2="1419.43" gradientUnits="userSpaceOnUse">
<stop stop-color="#7D15A1"/>
<stop offset="1" stop-color="#B675A8"/>
</linearGradient>
<linearGradient id="paint1_linear" x1="-658.785" y1="312.368" x2="-235.961" y2="1314.59" gradientUnits="userSpaceOnUse">
<stop stop-color="#7D15A1"/>
<stop offset="1" stop-color="#B675A8"/>
</linearGradient>
<linearGradient id="paint2_linear" x1="1343.5" y1="9.56804" x2="495.285" y2="344.554" gradientUnits="userSpaceOnUse">
<stop stop-color="#FBB63F"/>
<stop offset="1" stop-color="#FBB63F" stop-opacity="0"/>
</linearGradient>
<linearGradient id="paint3_linear" x1="1120.5" y1="-207.949" x2="1044.22" y2="687.691" gradientUnits="userSpaceOnUse">
<stop stop-color="#FBB640"/>
<stop offset="1" stop-color="#FBB640" stop-opacity="0"/>
</linearGradient>
<linearGradient id="paint4_linear" x1="1270" y1="273.65" x2="738.567" y2="692.157" gradientUnits="userSpaceOnUse">
<stop stop-color="#FBB63F"/>
<stop offset="1" stop-color="#FBB63F" stop-opacity="0"/>
</linearGradient>
<linearGradient id="paint5_linear" x1="1470.5" y1="0.63786" x2="622.285" y2="335.624" gradientUnits="userSpaceOnUse">
<stop stop-color="#FBB63F"/>
<stop offset="1" stop-color="#FBB63F" stop-opacity="0"/>
</linearGradient>
<linearGradient id="paint6_linear" x1="1442.5" y1="-160.274" x2="594.285" y2="174.712" gradientUnits="userSpaceOnUse">
<stop stop-color="#FBB63F"/>
<stop offset="1" stop-color="#FBB63F" stop-opacity="0"/>
</linearGradient>
<linearGradient id="paint7_linear" x1="417.87" y1="-484.788" x2="1409.92" y2="95.8372" gradientUnits="userSpaceOnUse">
<stop stop-color="#FBB63F"/>
<stop offset="1" stop-color="#FBB63F" stop-opacity="0"/>
</linearGradient>
</defs>
</svg>
