<svg width="360" height="471" viewBox="0 0 360 471" fill="none" xmlns="http://www.w3.org/2000/svg">
<rect x="20" width="320" height="444" fill="url(#paint0_linear)"/>
<mask id="mask0" mask-type="alpha" maskUnits="userSpaceOnUse" x="20" y="0" width="320" height="444">
<rect x="20" width="320" height="444" fill="url(#paint1_linear)"/>
</mask>
<g mask="url(#mask0)">
<g opacity="0.5">
<path opacity="0.2" fill-rule="evenodd" clip-rule="evenodd" d="M280.988 433.691C277.933 400.446 302.407 371.02 335.652 367.965C368.896 364.91 398.323 389.384 401.378 422.629C404.432 455.874 379.959 485.3 346.714 488.355C313.469 491.41 284.042 466.936 280.988 433.691Z" fill="white"/>
<path opacity="0.4" fill-rule="evenodd" clip-rule="evenodd" d="M297.27 432.194C295.041 407.942 312.895 386.475 337.147 384.246C361.399 382.018 382.866 399.872 385.095 424.124C387.323 448.376 369.47 469.843 345.217 472.072C320.965 474.3 299.498 456.446 297.27 432.194Z" fill="white"/>
<path fill-rule="evenodd" clip-rule="evenodd" d="M315.526 430.509C314.224 416.339 324.655 403.797 338.825 402.495C352.995 401.193 365.537 411.624 366.839 425.794C368.142 439.964 357.71 452.506 343.54 453.808C329.37 455.11 316.828 444.679 315.526 430.509Z" fill="white"/>
<g opacity="0.7">
<path opacity="0.2" fill-rule="evenodd" clip-rule="evenodd" d="M188.29 353.4C186.767 341.05 195.544 329.804 207.893 328.28C220.243 326.757 231.489 335.534 233.013 347.884C234.536 360.233 225.759 371.479 213.41 373.003C201.06 374.526 189.814 365.749 188.29 353.4Z" fill="white"/>
<path opacity="0.4" fill-rule="evenodd" clip-rule="evenodd" d="M194.34 352.653C193.228 343.644 199.631 335.44 208.64 334.329C217.649 333.217 225.854 339.62 226.965 348.629C228.076 357.638 221.673 365.843 212.664 366.954C203.655 368.065 195.451 361.663 194.34 352.653Z" fill="white"/>
<path fill-rule="evenodd" clip-rule="evenodd" d="M201.122 351.814C200.472 346.55 204.213 341.757 209.477 341.107C214.741 340.458 219.534 344.199 220.184 349.463C220.833 354.726 217.092 359.52 211.828 360.169C206.564 360.818 201.771 357.078 201.122 351.814Z" fill="white"/>
</g>
<g opacity="0.7">
<path opacity="0.2" fill-rule="evenodd" clip-rule="evenodd" d="M238.587 315.197C237.369 301.935 247.131 290.197 260.393 288.978C273.654 287.76 285.392 297.523 286.611 310.784C287.83 324.045 278.067 335.784 264.805 337.002C251.544 338.221 239.806 328.458 238.587 315.197Z" fill="white"/>
<path opacity="0.4" fill-rule="evenodd" clip-rule="evenodd" d="M245.082 314.599C244.193 304.925 251.315 296.362 260.989 295.473C270.664 294.584 279.227 301.706 280.116 311.38C281.005 321.054 273.883 329.618 264.208 330.507C254.534 331.395 245.971 324.274 245.082 314.599Z" fill="white"/>
<path fill-rule="evenodd" clip-rule="evenodd" d="M252.364 313.928C251.845 308.275 256.006 303.272 261.658 302.752C267.311 302.233 272.314 306.394 272.833 312.047C273.353 317.699 269.192 322.702 263.539 323.222C257.887 323.741 252.884 319.58 252.364 313.928Z" fill="white"/>
</g>
<g opacity="0.7">
<path opacity="0.2" fill-rule="evenodd" clip-rule="evenodd" d="M160.436 415.816C159.279 403.225 168.548 392.081 181.139 390.924C193.73 389.767 204.875 399.036 206.032 411.627C207.188 424.217 197.919 435.362 185.329 436.519C172.738 437.676 161.593 428.407 160.436 415.816Z" fill="white"/>
<path opacity="0.4" fill-rule="evenodd" clip-rule="evenodd" d="M166.603 415.249C165.759 406.064 172.521 397.934 181.706 397.09C190.891 396.246 199.021 403.008 199.865 412.193C200.709 421.378 193.947 429.508 184.762 430.352C175.577 431.196 167.447 424.434 166.603 415.249Z" fill="white"/>
<path fill-rule="evenodd" clip-rule="evenodd" d="M173.517 414.611C173.024 409.245 176.975 404.494 182.341 404.001C187.708 403.508 192.458 407.459 192.951 412.825C193.444 418.192 189.494 422.942 184.127 423.435C178.76 423.928 174.01 419.978 173.517 414.611Z" fill="white"/>
</g>
<g opacity="0.5">
<path opacity="0.2" fill-rule="evenodd" clip-rule="evenodd" d="M134.29 280.51C133.085 270.734 140.032 261.833 149.807 260.627C159.582 259.421 168.484 266.368 169.69 276.144C170.896 285.919 163.949 294.821 154.173 296.026C144.398 297.232 135.496 290.285 134.29 280.51Z" fill="white"/>
<path opacity="0.4" fill-rule="evenodd" clip-rule="evenodd" d="M139.078 279.919C138.199 272.788 143.267 266.294 150.398 265.414C157.529 264.535 164.023 269.603 164.903 276.734C165.782 283.865 160.714 290.359 153.583 291.239C146.452 292.118 139.958 287.05 139.078 279.919Z" fill="white"/>
<path fill-rule="evenodd" clip-rule="evenodd" d="M144.446 279.254C143.932 275.088 146.893 271.294 151.06 270.78C155.226 270.266 159.021 273.227 159.534 277.393C160.048 281.56 157.087 285.354 152.921 285.868C148.754 286.382 144.96 283.421 144.446 279.254Z" fill="white"/>
</g>
<g opacity="0.5">
<path opacity="0.2" fill-rule="evenodd" clip-rule="evenodd" d="M212.351 198.687C211.192 186.073 220.478 174.908 233.092 173.749C245.707 172.589 256.872 181.876 258.031 194.49C259.19 207.104 249.904 218.27 237.29 219.429C224.676 220.588 213.51 211.302 212.351 198.687Z" fill="white"/>
<path opacity="0.4" fill-rule="evenodd" clip-rule="evenodd" d="M218.529 198.12C217.684 188.918 224.458 180.772 233.66 179.927C242.862 179.081 251.008 185.855 251.853 195.058C252.699 204.26 245.924 212.405 236.722 213.251C227.52 214.096 219.375 207.322 218.529 198.12Z" fill="white"/>
<path fill-rule="evenodd" clip-rule="evenodd" d="M225.456 197.48C224.962 192.104 228.92 187.345 234.297 186.851C239.673 186.357 244.432 190.315 244.926 195.691C245.42 201.068 241.462 205.827 236.086 206.321C230.709 206.815 225.95 202.857 225.456 197.48Z" fill="white"/>
</g>
<g opacity="0.5">
<path opacity="0.2" fill-rule="evenodd" clip-rule="evenodd" d="M84.3203 373.687C83.4592 364.316 90.3581 356.021 99.7295 355.16C109.101 354.298 117.396 361.197 118.257 370.569C119.118 379.94 112.219 388.235 102.848 389.096C93.4764 389.957 85.1814 383.058 84.3203 373.687Z" fill="white"/>
<path opacity="0.4" fill-rule="evenodd" clip-rule="evenodd" d="M88.9095 373.265C88.2814 366.428 93.3142 360.377 100.151 359.749C106.987 359.121 113.038 364.154 113.667 370.99C114.295 377.827 109.262 383.878 102.426 384.506C95.589 385.134 89.5377 380.101 88.9095 373.265Z" fill="white"/>
<path fill-rule="evenodd" clip-rule="evenodd" d="M94.0555 372.79C93.6885 368.795 96.629 365.26 100.623 364.893C104.618 364.526 108.153 367.466 108.52 371.46C108.887 375.455 105.947 378.99 101.953 379.357C97.9582 379.724 94.4226 376.784 94.0555 372.79Z" fill="white"/>
</g>
<g opacity="0.4">
<path opacity="0.2" fill-rule="evenodd" clip-rule="evenodd" d="M122.022 197.005C121.314 191.269 116.091 187.193 110.355 187.9C104.619 188.608 100.542 193.831 101.25 199.567C101.957 205.303 107.181 209.38 112.917 208.672C118.653 207.965 122.729 202.741 122.022 197.005Z" fill="white"/>
<path opacity="0.4" fill-rule="evenodd" clip-rule="evenodd" d="M119.213 197.352C118.697 193.167 114.886 190.193 110.702 190.71C106.517 191.226 103.544 195.036 104.06 199.221C104.576 203.405 108.386 206.379 112.571 205.863C116.755 205.347 119.729 201.536 119.213 197.352Z" fill="white"/>
<path fill-rule="evenodd" clip-rule="evenodd" d="M116.062 197.738C115.76 195.294 113.534 193.556 111.089 193.858C108.644 194.159 106.907 196.386 107.208 198.831C107.51 201.275 109.736 203.013 112.181 202.711C114.626 202.41 116.364 200.183 116.062 197.738Z" fill="white"/>
</g>
<g opacity="0.4">
<path opacity="0.2" fill-rule="evenodd" clip-rule="evenodd" d="M246.752 119.953C246.224 114.198 241.129 109.961 235.374 110.49C229.619 111.019 225.382 116.113 225.911 121.868C226.44 127.624 231.534 131.86 237.289 131.332C243.044 130.803 247.281 125.708 246.752 119.953Z" fill="white"/>
<path opacity="0.4" fill-rule="evenodd" clip-rule="evenodd" d="M243.934 120.212C243.548 116.013 239.832 112.923 235.633 113.308C231.435 113.694 228.344 117.41 228.73 121.609C229.116 125.807 232.832 128.898 237.031 128.512C241.229 128.127 244.32 124.41 243.934 120.212Z" fill="white"/>
<path fill-rule="evenodd" clip-rule="evenodd" d="M240.773 120.501C240.548 118.048 238.376 116.242 235.923 116.467C233.47 116.693 231.664 118.864 231.89 121.317C232.115 123.77 234.286 125.576 236.739 125.351C239.193 125.125 240.998 122.954 240.773 120.501Z" fill="white"/>
</g>
<g opacity="0.4">
<path opacity="0.2" fill-rule="evenodd" clip-rule="evenodd" d="M52.049 324.55C51.5202 318.795 46.426 314.558 40.6707 315.087C34.9155 315.616 30.6787 320.71 31.2075 326.465C31.7363 332.221 36.8306 336.458 42.5858 335.929C48.341 335.4 52.5779 330.306 52.049 324.55Z" fill="white"/>
<path opacity="0.4" fill-rule="evenodd" clip-rule="evenodd" d="M49.2304 324.809C48.8446 320.611 45.1283 317.52 40.9298 317.906C36.7313 318.291 33.6405 322.008 34.0263 326.206C34.4121 330.405 38.1284 333.495 42.3269 333.11C46.5254 332.724 49.6162 329.008 49.2304 324.809Z" fill="white"/>
<path fill-rule="evenodd" clip-rule="evenodd" d="M46.0695 325.099C45.8441 322.646 43.6728 320.84 41.2197 321.065C38.7667 321.29 36.9608 323.462 37.1862 325.915C37.4116 328.368 39.5829 330.174 42.036 329.948C44.489 329.723 46.2949 327.552 46.0695 325.099Z" fill="white"/>
</g>
<path opacity="0.2" fill-rule="evenodd" clip-rule="evenodd" d="M95.6265 109.04C96.0665 112.608 93.5314 115.856 89.9642 116.296C86.397 116.736 83.1485 114.201 82.7085 110.634C82.2685 107.067 84.8037 103.818 88.3709 103.378C91.9381 102.938 95.1866 105.473 95.6265 109.04Z" fill="white"/>
<path opacity="0.4" fill-rule="evenodd" clip-rule="evenodd" d="M93.8798 109.256C94.2008 111.858 92.3514 114.228 89.7491 114.549C87.1468 114.87 84.777 113.021 84.4561 110.418C84.1351 107.816 85.9845 105.446 88.5868 105.125C91.1891 104.804 93.5589 106.654 93.8798 109.256Z" fill="white"/>
<path fill-rule="evenodd" clip-rule="evenodd" d="M91.9205 109.499C92.1081 111.019 91.0275 112.404 89.5071 112.591C87.9866 112.779 86.6021 111.698 86.4145 110.178C86.227 108.657 87.3075 107.273 88.828 107.085C90.3484 106.898 91.733 107.978 91.9205 109.499Z" fill="white"/>
<path opacity="0.2" fill-rule="evenodd" clip-rule="evenodd" d="M257.593 35.9806C257.922 39.5598 255.287 42.7278 251.708 43.0567C248.129 43.3856 244.961 40.7507 244.632 37.1716C244.303 33.5924 246.938 30.4243 250.517 30.0954C254.096 29.7666 257.265 32.4014 257.593 35.9806Z" fill="white"/>
<path opacity="0.4" fill-rule="evenodd" clip-rule="evenodd" d="M255.841 36.1421C256.081 38.7531 254.159 41.0642 251.548 41.3042C248.937 41.5441 246.626 39.6219 246.386 37.0109C246.146 34.3999 248.068 32.0887 250.679 31.8488C253.29 31.6089 255.601 33.531 255.841 36.1421Z" fill="white"/>
<path fill-rule="evenodd" clip-rule="evenodd" d="M253.875 36.3235C254.015 37.849 252.892 39.1993 251.367 39.3395C249.841 39.4797 248.491 38.3566 248.351 36.8311C248.211 35.3055 249.334 33.9552 250.859 33.815C252.385 33.6749 253.735 34.7979 253.875 36.3235Z" fill="white"/>
<path d="M340.697 430.372C287.903 388.228 196.152 250.163 251.492 35.0503" stroke="url(#paint2_linear)" stroke-width="2.52156"/>
<path d="M338.257 428.733C272.532 413.131 130.658 327.387 88.9648 109.217" stroke="url(#paint3_linear)" stroke-width="2.52156"/>
<path d="M337.349 430.195C271.32 444.456 106.342 428.26 -25.3416 249.386" stroke="url(#paint4_linear)" stroke-width="2.52156"/>
</g>
<g opacity="0.05">
<path d="M133.621 333.587L107.504 413.422H87.6595L70.0958 359.363L51.962 413.422H32.2314L6 333.587H25.1603L43.1801 389.7L61.9983 333.587H79.1058L97.3537 390.156L115.944 333.587H133.621Z" fill="#740B99"/>
<path d="M181.646 351.151C189.249 351.151 195.37 353.432 200.008 357.994C204.722 362.556 207.079 369.323 207.079 378.295V413.422H189.287V381.032C189.287 376.166 188.223 372.554 186.094 370.197C183.965 367.764 180.886 366.548 176.856 366.548C172.37 366.548 168.796 367.954 166.135 370.767C163.474 373.505 162.144 377.61 162.144 383.085V413.422H144.352V328.797H162.144V358.45C164.501 356.093 167.352 354.306 170.697 353.09C174.043 351.797 177.692 351.151 181.646 351.151Z" fill="#740B99"/>
<path d="M223.206 352.063H240.998V413.422H223.206V352.063ZM232.102 343.51C228.833 343.51 226.172 342.559 224.119 340.658C222.066 338.758 221.039 336.401 221.039 333.587C221.039 330.774 222.066 328.417 224.119 326.516C226.172 324.615 228.833 323.665 232.102 323.665C235.372 323.665 238.033 324.577 240.086 326.402C242.139 328.227 243.165 330.508 243.165 333.245C243.165 336.21 242.139 338.682 240.086 340.658C238.033 342.559 235.372 343.51 232.102 343.51Z" fill="#740B99"/>
<path d="M297.086 410.457C295.337 411.749 293.17 412.738 290.585 413.422C288.076 414.03 285.415 414.334 282.601 414.334C275.302 414.334 269.638 412.472 265.608 408.746C261.654 405.02 259.677 399.546 259.677 392.323V367.118H250.211V353.432H259.677V338.491H277.469V353.432H292.752V367.118H277.469V392.095C277.469 394.68 278.115 396.695 279.408 398.139C280.776 399.508 282.677 400.192 285.11 400.192C287.924 400.192 290.319 399.432 292.296 397.911L297.086 410.457Z" fill="#740B99"/>
<path d="M365.284 382.971C365.284 383.199 365.17 384.796 364.941 387.761H318.523C319.36 391.563 321.337 394.566 324.454 396.771C327.571 398.976 331.449 400.078 336.087 400.078C339.28 400.078 342.094 399.622 344.527 398.71C347.036 397.721 349.355 396.201 351.484 394.148L360.95 404.412C355.171 411.027 346.732 414.334 335.631 414.334C328.712 414.334 322.591 413.004 317.269 410.343C311.946 407.605 307.841 403.842 304.951 399.052C302.062 394.262 300.618 388.825 300.618 382.743C300.618 376.736 302.024 371.338 304.837 366.548C307.727 361.682 311.642 357.918 316.584 355.257C321.603 352.52 327.191 351.151 333.35 351.151C339.356 351.151 344.793 352.444 349.659 355.029C354.525 357.614 358.327 361.339 361.064 366.206C363.877 370.996 365.284 376.584 365.284 382.971ZM333.464 364.609C329.434 364.609 326.051 365.749 323.313 368.03C320.576 370.311 318.903 373.429 318.295 377.382H348.518C347.91 373.505 346.237 370.425 343.5 368.144C340.763 365.787 337.418 364.609 333.464 364.609Z" fill="#740B99"/>
</g>
</g>
<defs>
<linearGradient id="paint0_linear" x1="-126.397" y1="228.292" x2="282.874" y2="523.262" gradientUnits="userSpaceOnUse">
<stop stop-color="#7D15A1"/>
<stop offset="1" stop-color="#B675A8"/>
</linearGradient>
<linearGradient id="paint1_linear" x1="-171.444" y1="206.959" x2="503.421" y2="372.081" gradientUnits="userSpaceOnUse">
<stop stop-color="#361F93"/>
<stop offset="1" stop-color="#740B99"/>
</linearGradient>
<linearGradient id="paint2_linear" x1="235.511" y1="62.043" x2="315.981" y2="401.98" gradientUnits="userSpaceOnUse">
<stop stop-color="white" stop-opacity="0"/>
<stop offset="0.618785" stop-color="white"/>
<stop offset="1" stop-color="white"/>
</linearGradient>
<linearGradient id="paint3_linear" x1="73.9114" y1="99.3336" x2="326.706" y2="442.356" gradientUnits="userSpaceOnUse">
<stop stop-color="white" stop-opacity="0"/>
<stop offset="0.618785" stop-color="white"/>
<stop offset="1" stop-color="white"/>
</linearGradient>
<linearGradient id="paint4_linear" x1="-13.5285" y1="273.791" x2="347.114" y2="440.643" gradientUnits="userSpaceOnUse">
<stop stop-color="white" stop-opacity="0"/>
<stop offset="0.618785" stop-color="white"/>
<stop offset="1" stop-color="white"/>
</linearGradient>
</defs>
</svg>
