<svg width="1440" height="673" viewBox="0 0 1440 673" fill="none" xmlns="http://www.w3.org/2000/svg">
<path d="M0 0H1440V543.079C963.845 628.999 476.155 628.999 0 543.079V0Z" fill="url(#paint0_linear)"/>
<mask id="mask0" mask-type="alpha" maskUnits="userSpaceOnUse" x="0" y="0" width="1440" height="608">
<path d="M0 0H1440V543.079C963.845 628.999 476.155 628.999 0 543.079V0Z" fill="url(#paint1_linear)"/>
</mask>
<g mask="url(#mask0)">
<g opacity="0.2">
<path opacity="0.2" fill-rule="evenodd" clip-rule="evenodd" d="M-564.307 173.416C-681.222 -121.521 -536.907 -455.392 -241.971 -572.307C52.9656 -689.222 386.837 -544.907 503.752 -249.971C620.667 44.9655 476.352 378.837 181.416 495.752C-113.52 612.667 -447.392 468.352 -564.307 173.416Z" fill="url(#paint2_linear)"/>
<path opacity="0.4" fill-rule="evenodd" clip-rule="evenodd" d="M-419.862 116.149C-505.153 -99.0095 -399.874 -342.571 -184.715 -427.862C30.4432 -513.152 274.005 -407.874 359.296 -192.715C444.586 22.4434 339.307 266.005 124.149 351.296C-91.0098 436.586 -334.572 331.307 -419.862 116.149Z" fill="url(#paint3_linear)"/>
<path fill-rule="evenodd" clip-rule="evenodd" d="M-257.92 51.8769C-307.753 -73.8336 -246.242 -216.139 -120.531 -265.972C5.17954 -315.805 147.485 -254.293 197.318 -128.583C247.151 -2.87238 185.639 139.433 59.9288 189.266C-65.7817 239.099 -208.088 177.587 -257.92 51.8769Z" fill="url(#paint4_linear)"/>
</g>
<g opacity="0.5">
<path opacity="0.2" fill-rule="evenodd" clip-rule="evenodd" d="M1327.49 555.468C1303.68 495.414 1333.07 427.433 1393.12 403.627C1453.17 379.822 1521.16 409.206 1544.96 469.26C1568.77 529.313 1539.38 597.295 1479.33 621.1C1419.27 644.906 1351.29 615.521 1327.49 555.468Z" fill="white"/>
<path opacity="0.4" fill-rule="evenodd" clip-rule="evenodd" d="M1356.9 543.807C1339.53 499.998 1360.97 450.405 1404.78 433.038C1448.59 415.672 1498.18 437.108 1515.55 480.918C1532.91 524.728 1511.48 574.32 1467.67 591.687C1423.86 609.053 1374.27 587.617 1356.9 543.807Z" fill="white"/>
<path fill-rule="evenodd" clip-rule="evenodd" d="M1389.87 530.721C1379.73 505.124 1392.25 476.148 1417.85 466.002C1443.44 455.855 1472.42 468.38 1482.57 493.976C1492.71 519.573 1480.19 548.549 1454.59 558.695C1429 568.842 1400.02 556.317 1389.87 530.721Z" fill="white"/>
<g opacity="0.7">
<path opacity="0.2" fill-rule="evenodd" clip-rule="evenodd" d="M1111.59 456.969C1102.03 434.873 1112.19 409.206 1134.29 399.642C1156.38 390.077 1182.05 400.236 1191.61 422.333C1201.18 444.43 1191.02 470.096 1168.92 479.661C1146.83 489.225 1121.16 479.066 1111.59 456.969Z" fill="white"/>
<path opacity="0.4" fill-rule="evenodd" clip-rule="evenodd" d="M1122.42 452.284C1115.44 436.164 1122.85 417.44 1138.97 410.463C1155.09 403.486 1173.82 410.897 1180.79 427.017C1187.77 443.136 1180.36 461.86 1164.24 468.838C1148.12 475.815 1129.4 468.404 1122.42 452.284Z" fill="white"/>
<path fill-rule="evenodd" clip-rule="evenodd" d="M1134.55 447.026C1130.47 437.608 1134.8 426.668 1144.22 422.591C1153.64 418.515 1164.58 422.845 1168.66 432.263C1172.73 441.681 1168.4 452.621 1158.99 456.698C1149.57 460.775 1138.63 456.444 1134.55 447.026Z" fill="white"/>
</g>
<g opacity="0.7">
<path opacity="0.2" fill-rule="evenodd" clip-rule="evenodd" d="M1184.13 358.608C1174.64 334.652 1186.36 307.535 1210.31 298.038C1234.27 288.542 1261.39 300.264 1270.88 324.219C1280.38 348.175 1268.66 375.293 1244.7 384.789C1220.75 394.285 1193.63 382.564 1184.13 358.608Z" fill="white"/>
<path opacity="0.4" fill-rule="evenodd" clip-rule="evenodd" d="M1195.87 353.956C1188.94 336.48 1197.49 316.697 1214.96 309.77C1232.44 302.842 1252.22 311.393 1259.15 328.869C1266.08 346.345 1257.53 366.128 1240.05 373.055C1222.58 379.983 1202.79 371.432 1195.87 353.956Z" fill="white"/>
<path fill-rule="evenodd" clip-rule="evenodd" d="M1209.02 348.736C1204.97 338.526 1209.97 326.967 1220.18 322.92C1230.39 318.872 1241.95 323.868 1245.99 334.079C1250.04 344.29 1245.05 355.848 1234.84 359.896C1224.62 363.943 1213.07 358.947 1209.02 348.736Z" fill="white"/>
</g>
<g opacity="0.7">
<path opacity="0.2" fill-rule="evenodd" clip-rule="evenodd" d="M1093.93 588.041C1084.91 565.297 1096.04 539.55 1118.79 530.534C1141.53 521.518 1167.28 532.647 1176.29 555.392C1185.31 578.136 1174.18 603.882 1151.44 612.898C1128.69 621.914 1102.95 610.785 1093.93 588.041Z" fill="white"/>
<path opacity="0.4" fill-rule="evenodd" clip-rule="evenodd" d="M1105.07 583.624C1098.49 567.032 1106.61 548.25 1123.2 541.673C1139.79 535.095 1158.58 543.214 1165.15 559.806C1171.73 576.398 1163.61 595.181 1147.02 601.758C1130.43 608.335 1111.65 600.216 1105.07 583.624Z" fill="white"/>
<path fill-rule="evenodd" clip-rule="evenodd" d="M1117.56 578.668C1113.71 568.974 1118.46 558 1128.15 554.157C1137.85 550.315 1148.82 555.058 1152.66 564.752C1156.51 574.446 1151.76 585.42 1142.07 589.263C1132.37 593.106 1121.4 588.363 1117.56 578.668Z" fill="white"/>
</g>
<g opacity="0.5">
<path opacity="0.2" fill-rule="evenodd" clip-rule="evenodd" d="M971.582 351.103C964.011 333.613 972.053 313.297 989.543 305.726C1007.03 298.155 1027.35 306.197 1034.92 323.687C1042.49 341.178 1034.45 361.494 1016.96 369.064C999.469 376.635 979.153 368.594 971.582 351.103Z" fill="white"/>
<path opacity="0.4" fill-rule="evenodd" clip-rule="evenodd" d="M980.149 347.395C974.626 334.635 980.492 319.815 993.252 314.292C1006.01 308.769 1020.83 314.635 1026.35 327.395C1031.88 340.154 1026.01 354.975 1013.25 360.498C1000.49 366.02 985.672 360.154 980.149 347.395Z" fill="white"/>
<path fill-rule="evenodd" clip-rule="evenodd" d="M989.752 343.233C986.525 335.778 989.953 327.119 997.407 323.892C1004.86 320.665 1013.52 324.093 1016.75 331.548C1019.98 339.002 1016.55 347.662 1009.09 350.889C1001.64 354.115 992.979 350.688 989.752 343.233Z" fill="white"/>
</g>
<g opacity="0.5">
<path opacity="0.2" fill-rule="evenodd" clip-rule="evenodd" d="M1071.87 156.616C1062.84 133.83 1073.99 108.035 1096.77 99.0026C1119.56 89.9699 1145.36 101.12 1154.39 123.906C1163.42 146.692 1152.27 172.487 1129.49 181.52C1106.7 190.552 1080.9 179.403 1071.87 156.616Z" fill="white"/>
<path opacity="0.4" fill-rule="evenodd" clip-rule="evenodd" d="M1083.03 152.192C1076.44 135.569 1084.58 116.752 1101.2 110.162C1117.82 103.573 1136.64 111.706 1143.23 128.329C1149.82 144.952 1141.68 163.77 1125.06 170.359C1108.44 176.948 1089.62 168.815 1083.03 152.192Z" fill="white"/>
<path fill-rule="evenodd" clip-rule="evenodd" d="M1095.54 147.226C1091.69 137.514 1096.45 126.519 1106.16 122.669C1115.87 118.819 1126.86 123.572 1130.71 133.284C1134.56 142.996 1129.81 153.991 1120.1 157.841C1110.39 161.691 1099.39 156.938 1095.54 147.226Z" fill="white"/>
</g>
<g opacity="0.5">
<path opacity="0.2" fill-rule="evenodd" clip-rule="evenodd" d="M929.638 551.347C922.927 534.419 931.21 515.256 948.139 508.545C965.067 501.834 984.231 510.118 990.941 527.046C997.652 543.975 989.369 563.138 972.44 569.849C955.512 576.559 936.348 568.276 929.638 551.347Z" fill="white"/>
<path opacity="0.4" fill-rule="evenodd" clip-rule="evenodd" d="M937.928 548.06C933.032 535.711 939.075 521.731 951.425 516.835C963.774 511.94 977.754 517.983 982.649 530.332C987.545 542.682 981.502 556.661 969.152 561.557C956.803 566.452 942.823 560.41 937.928 548.06Z" fill="white"/>
<path fill-rule="evenodd" clip-rule="evenodd" d="M947.222 544.371C944.362 537.155 947.892 528.987 955.108 526.127C962.323 523.267 970.491 526.798 973.351 534.013C976.212 541.228 972.681 549.396 965.466 552.257C958.25 555.117 950.082 551.586 947.222 544.371Z" fill="white"/>
</g>
<g opacity="0.4">
<path opacity="0.2" fill-rule="evenodd" clip-rule="evenodd" d="M903.255 202.766C898.812 192.503 886.891 187.784 876.628 192.227C866.365 196.669 861.646 208.59 866.089 218.853C870.531 229.117 882.452 233.835 892.715 229.393C902.979 224.951 907.697 213.029 903.255 202.766Z" fill="white"/>
<path opacity="0.4" fill-rule="evenodd" clip-rule="evenodd" d="M898.229 204.942C894.988 197.455 886.292 194.013 878.805 197.253C871.318 200.494 867.875 209.191 871.116 216.678C874.357 224.165 883.053 227.607 890.54 224.366C898.027 221.126 901.47 212.429 898.229 204.942Z" fill="white"/>
<path fill-rule="evenodd" clip-rule="evenodd" d="M892.59 207.379C890.696 203.004 885.615 200.993 881.241 202.887C876.866 204.78 874.855 209.861 876.748 214.236C878.642 218.61 883.723 220.621 888.097 218.728C892.472 216.834 894.483 211.753 892.59 207.379Z" fill="white"/>
</g>
<g opacity="0.4">
<path opacity="0.2" fill-rule="evenodd" clip-rule="evenodd" d="M1092.79 -8.32146C1088.67 -18.7178 1076.9 -23.8047 1066.5 -19.6836C1056.11 -15.5624 1051.02 -3.79369 1055.14 6.60261C1059.26 16.9989 1071.03 22.0859 1081.43 17.9647C1091.82 13.8436 1096.91 2.07483 1092.79 -8.32146Z" fill="white"/>
<path opacity="0.4" fill-rule="evenodd" clip-rule="evenodd" d="M1087.7 -6.30369C1084.69 -13.8879 1076.11 -17.5989 1068.52 -14.5924C1060.94 -11.586 1057.23 -3.00063 1060.23 4.58355C1063.24 12.1677 1071.83 15.8787 1079.41 12.8723C1086.99 9.86588 1090.71 1.28049 1087.7 -6.30369Z" fill="white"/>
<path fill-rule="evenodd" clip-rule="evenodd" d="M1081.99 -4.04269C1080.23 -8.47389 1075.22 -10.6421 1070.78 -8.88556C1066.35 -7.12899 1064.18 -2.11282 1065.94 2.31839C1067.7 6.7496 1072.71 8.91782 1077.15 7.16126C1081.58 5.40469 1083.74 0.388517 1081.99 -4.04269Z" fill="white"/>
</g>
<g opacity="0.4">
<path opacity="0.2" fill-rule="evenodd" clip-rule="evenodd" d="M842.922 477.726C838.8 467.33 827.032 462.243 816.635 466.364C806.239 470.485 801.152 482.254 805.273 492.65C809.394 503.047 821.163 508.134 831.56 504.013C841.956 499.891 847.043 488.123 842.922 477.726Z" fill="white"/>
<path opacity="0.4" fill-rule="evenodd" clip-rule="evenodd" d="M837.83 479.744C834.823 472.16 826.238 468.449 818.654 471.455C811.07 474.462 807.359 483.047 810.365 490.631C813.371 498.215 821.957 501.926 829.541 498.92C837.125 495.913 840.836 487.328 837.83 479.744Z" fill="white"/>
<path fill-rule="evenodd" clip-rule="evenodd" d="M832.119 482.005C830.363 477.574 825.346 475.406 820.915 477.162C816.484 478.919 814.316 483.935 816.072 488.366C817.829 492.797 822.845 494.966 827.276 493.209C831.708 491.453 833.876 486.436 832.119 482.005Z" fill="white"/>
</g>
<path opacity="0.2" fill-rule="evenodd" clip-rule="evenodd" d="M681.638 390.213C683.152 394.033 681.283 398.357 677.463 399.871C673.643 401.386 669.319 399.516 667.805 395.697C666.291 391.877 668.16 387.553 671.98 386.039C675.8 384.524 680.124 386.393 681.638 390.213Z" fill="white"/>
<path opacity="0.4" fill-rule="evenodd" clip-rule="evenodd" d="M679.768 390.955C680.873 393.742 679.51 396.896 676.723 398.001C673.936 399.105 670.782 397.742 669.677 394.955C668.573 392.169 669.936 389.014 672.723 387.91C675.509 386.805 678.664 388.168 679.768 390.955Z" fill="white"/>
<path fill-rule="evenodd" clip-rule="evenodd" d="M677.671 391.787C678.316 393.415 677.52 395.258 675.892 395.904C674.263 396.549 672.42 395.752 671.775 394.124C671.13 392.496 671.926 390.653 673.554 390.008C675.183 389.362 677.026 390.159 677.671 391.787Z" fill="white"/>
<path opacity="0.2" fill-rule="evenodd" clip-rule="evenodd" d="M806.268 53.8554C809.03 60.238 806.096 67.6517 799.713 70.4144C793.331 73.1771 785.917 70.2426 783.154 63.86C780.391 57.4774 783.326 50.0636 789.709 47.3009C796.091 44.5382 803.505 47.4727 806.268 53.8554Z" fill="white"/>
<path opacity="0.4" fill-rule="evenodd" clip-rule="evenodd" d="M803.143 55.209C805.158 59.8651 803.017 65.2735 798.361 67.2889C793.705 69.3044 788.296 67.1636 786.281 62.5074C784.266 57.8512 786.406 52.4428 791.063 50.4274C795.719 48.412 801.127 50.5528 803.143 55.209Z" fill="white"/>
<path fill-rule="evenodd" clip-rule="evenodd" d="M799.638 56.7275C800.815 59.4479 799.564 62.6079 796.844 63.7854C794.123 64.963 790.963 63.7122 789.786 60.9918C788.608 58.2713 789.859 55.1113 792.58 53.9338C795.3 52.7562 798.46 54.007 799.638 56.7275Z" fill="white"/>
<path d="M1436.53 516.736C1315.53 467.293 1069.88 261.02 1055.28 -168.531" stroke="url(#paint5_linear)" stroke-width="2.52156"/>
<path d="M1431.11 515.023C1300.57 521.91 990.409 440.112 793.997 57.8174" stroke="url(#paint6_linear)" stroke-width="2.52156"/>
<path d="M1430.22 518.234C1315.41 580.727 1000.29 640.65 658.243 380.397" stroke="url(#paint7_linear)" stroke-width="2.52156"/>
</g>
</g>
<defs>
<linearGradient id="paint0_linear" x1="-658.785" y1="346.036" x2="-157.122" y2="1419.43" gradientUnits="userSpaceOnUse">
<stop stop-color="#7D15A1"/>
<stop offset="1" stop-color="#B675A8"/>
</linearGradient>
<linearGradient id="paint1_linear" x1="-726.652" y1="330.282" x2="-203.895" y2="1435.29" gradientUnits="userSpaceOnUse">
<stop stop-color="#FBB63F"/>
<stop offset="0.981306" stop-color="#B069A1"/>
</linearGradient>
<linearGradient id="paint2_linear" x1="404.933" y1="1030.8" x2="-1080.44" y2="378.013" gradientUnits="userSpaceOnUse">
<stop stop-color="#FBB63F"/>
<stop offset="0.981306" stop-color="#B069A1"/>
</linearGradient>
<linearGradient id="paint3_linear" x1="287.206" y1="741.62" x2="-796.383" y2="265.404" gradientUnits="userSpaceOnUse">
<stop stop-color="#FBB63F"/>
<stop offset="0.981306" stop-color="#B069A1"/>
</linearGradient>
<linearGradient id="paint4_linear" x1="155.198" y1="417.321" x2="-477.909" y2="139.082" gradientUnits="userSpaceOnUse">
<stop stop-color="#FBB63F"/>
<stop offset="0.981306" stop-color="#B069A1"/>
</linearGradient>
<linearGradient id="paint5_linear" x1="1040.33" y1="-109.701" x2="1375.16" y2="477.507" gradientUnits="userSpaceOnUse">
<stop stop-color="white" stop-opacity="0"/>
<stop offset="0.618785" stop-color="white"/>
<stop offset="1" stop-color="white"/>
</linearGradient>
<linearGradient id="paint6_linear" x1="760.658" y1="47.6795" x2="1417.09" y2="546.617" gradientUnits="userSpaceOnUse">
<stop stop-color="white" stop-opacity="0"/>
<stop offset="0.618785" stop-color="white"/>
<stop offset="1" stop-color="white"/>
</linearGradient>
<linearGradient id="paint7_linear" x1="693.487" y1="419.263" x2="1454.04" y2="532.304" gradientUnits="userSpaceOnUse">
<stop stop-color="white" stop-opacity="0"/>
<stop offset="0.618785" stop-color="white"/>
<stop offset="1" stop-color="white"/>
</linearGradient>
</defs>
</svg>
