<svg width="354" height="444" viewBox="0 0 354 444" fill="none" xmlns="http://www.w3.org/2000/svg">
<rect x="14" width="320" height="444" fill="white"/>
<mask id="mask0" mask-type="alpha" maskUnits="userSpaceOnUse" x="14" y="0" width="320" height="444">
<rect x="14" width="320" height="444" fill="url(#paint0_linear)"/>
</mask>
<g mask="url(#mask0)">
<g opacity="0.05">
<path d="M127.621 333.587L101.504 413.422H81.6595L64.0958 359.363L45.962 413.422H26.2314L0 333.587H19.1603L37.1801 389.7L55.9983 333.587H73.1058L91.3537 390.156L109.944 333.587H127.621Z" fill="#740B99"/>
<path d="M175.646 351.151C183.249 351.151 189.37 353.432 194.008 357.994C198.722 362.556 201.079 369.323 201.079 378.295V413.422H183.287V381.032C183.287 376.166 182.223 372.554 180.094 370.197C177.965 367.764 174.886 366.548 170.856 366.548C166.37 366.548 162.796 367.954 160.135 370.767C157.474 373.505 156.144 377.61 156.144 383.085V413.422H138.352V328.797H156.144V358.45C158.501 356.093 161.352 354.306 164.697 353.09C168.043 351.797 171.692 351.151 175.646 351.151Z" fill="#740B99"/>
<path d="M217.206 352.063H234.998V413.422H217.206V352.063ZM226.102 343.51C222.833 343.51 220.172 342.559 218.119 340.658C216.066 338.758 215.039 336.401 215.039 333.587C215.039 330.774 216.066 328.417 218.119 326.516C220.172 324.615 222.833 323.665 226.102 323.665C229.372 323.665 232.033 324.577 234.086 326.402C236.139 328.227 237.165 330.508 237.165 333.245C237.165 336.21 236.139 338.682 234.086 340.658C232.033 342.559 229.372 343.51 226.102 343.51Z" fill="#740B99"/>
<path d="M291.086 410.457C289.337 411.749 287.17 412.738 284.585 413.422C282.076 414.03 279.415 414.334 276.601 414.334C269.302 414.334 263.638 412.472 259.608 408.746C255.654 405.02 253.677 399.546 253.677 392.323V367.118H244.211V353.432H253.677V338.491H271.469V353.432H286.752V367.118H271.469V392.095C271.469 394.68 272.115 396.695 273.408 398.139C274.776 399.508 276.677 400.192 279.11 400.192C281.924 400.192 284.319 399.432 286.296 397.911L291.086 410.457Z" fill="#740B99"/>
<path d="M359.284 382.971C359.284 383.199 359.17 384.796 358.941 387.761H312.523C313.36 391.563 315.337 394.566 318.454 396.771C321.571 398.976 325.449 400.078 330.087 400.078C333.28 400.078 336.094 399.622 338.527 398.71C341.036 397.721 343.355 396.201 345.484 394.148L354.95 404.412C349.171 411.027 340.732 414.334 329.631 414.334C322.712 414.334 316.591 413.004 311.269 410.343C305.946 407.605 301.841 403.842 298.951 399.052C296.062 394.262 294.618 388.825 294.618 382.743C294.618 376.736 296.024 371.338 298.837 366.548C301.727 361.682 305.642 357.918 310.584 355.257C315.603 352.52 321.191 351.151 327.35 351.151C333.356 351.151 338.793 352.444 343.659 355.029C348.525 357.614 352.327 361.339 355.064 366.206C357.877 370.996 359.284 376.584 359.284 382.971ZM327.464 364.609C323.434 364.609 320.051 365.749 317.313 368.03C314.576 370.311 312.903 373.429 312.295 377.382H342.518C341.91 373.505 340.237 370.425 337.5 368.144C334.763 365.787 331.418 364.609 327.464 364.609Z" fill="#740B99"/>
</g>
</g>
<defs>
<linearGradient id="paint0_linear" x1="-177.444" y1="206.959" x2="497.421" y2="372.081" gradientUnits="userSpaceOnUse">
<stop stop-color="#361F93"/>
<stop offset="1" stop-color="#740B99"/>
</linearGradient>
</defs>
</svg>
