<svg width="1440" height="673" viewBox="0 0 1440 673" fill="none" xmlns="http://www.w3.org/2000/svg">
<path d="M0 0H1440V543.079C963.845 628.999 476.155 628.999 0 543.079V0Z" fill="white"/>
<mask id="mask0" mask-type="alpha" maskUnits="userSpaceOnUse" x="0" y="0" width="1440" height="608">
<path d="M0 0H1440V543.079C963.845 628.999 476.155 628.999 0 543.079V0Z" fill="white"/>
</mask>
<g mask="url(#mask0)">
<g opacity="0.05">
<path d="M509.448 321.15L406.398 636.15H328.098L258.798 422.85L187.248 636.15H109.398L5.89844 321.15H81.4984L152.598 542.55L226.848 321.15H294.348L366.348 544.35L439.698 321.15H509.448Z" fill="#740B99"/>
<path d="M698.937 390.45C728.937 390.45 753.087 399.45 771.387 417.45C789.987 435.45 799.287 462.15 799.287 497.55V636.15H729.087V508.35C729.087 489.15 724.887 474.9 716.487 465.6C708.087 456 695.937 451.2 680.037 451.2C662.337 451.2 648.237 456.75 637.737 467.85C627.237 478.65 621.987 494.85 621.987 516.45V636.15H551.787V302.25H621.987V419.25C631.287 409.95 642.537 402.9 655.737 398.1C668.937 393 683.337 390.45 698.937 390.45Z" fill="#740B99"/>
<path d="M862.92 394.05H933.12V636.15H862.92V394.05ZM898.02 360.3C885.12 360.3 874.62 356.55 866.52 349.05C858.42 341.55 854.37 332.25 854.37 321.15C854.37 310.05 858.42 300.75 866.52 293.25C874.62 285.75 885.12 282 898.02 282C910.92 282 921.42 285.6 929.52 292.8C937.62 300 941.67 309 941.67 319.8C941.67 331.5 937.62 341.25 929.52 349.05C921.42 356.55 910.92 360.3 898.02 360.3Z" fill="#740B99"/>
<path d="M1154.42 624.45C1147.52 629.55 1138.97 633.45 1128.77 636.15C1118.87 638.55 1108.37 639.75 1097.27 639.75C1068.47 639.75 1046.12 632.4 1030.22 617.7C1014.62 603 1006.82 581.4 1006.82 552.9V453.45H969.471V399.45H1006.82V340.5H1077.02V399.45H1137.32V453.45H1077.02V552C1077.02 562.2 1079.57 570.15 1084.67 575.85C1090.07 581.25 1097.57 583.95 1107.17 583.95C1118.27 583.95 1127.72 580.95 1135.52 574.95L1154.42 624.45Z" fill="#740B99"/>
<path d="M1423.51 516C1423.51 516.9 1423.06 523.2 1422.16 534.9H1239.01C1242.31 549.9 1250.11 561.75 1262.41 570.45C1274.71 579.15 1290.01 583.5 1308.31 583.5C1320.91 583.5 1332.01 581.7 1341.61 578.1C1351.51 574.2 1360.66 568.2 1369.06 560.1L1406.41 600.6C1383.61 626.7 1350.31 639.75 1306.51 639.75C1279.21 639.75 1255.06 634.5 1234.06 624C1213.06 613.2 1196.86 598.35 1185.46 579.45C1174.06 560.55 1168.36 539.1 1168.36 515.1C1168.36 491.4 1173.91 470.1 1185.01 451.2C1196.41 432 1211.86 417.15 1231.36 406.65C1251.16 395.85 1273.21 390.45 1297.51 390.45C1321.21 390.45 1342.66 395.55 1361.86 405.75C1381.06 415.95 1396.06 430.65 1406.86 449.85C1417.96 468.75 1423.51 490.8 1423.51 516ZM1297.96 443.55C1282.06 443.55 1268.71 448.05 1257.91 457.05C1247.11 466.05 1240.51 478.35 1238.11 493.95H1357.36C1354.96 478.65 1348.36 466.5 1337.56 457.5C1326.76 448.2 1313.56 443.55 1297.96 443.55Z" fill="#740B99"/>
</g>
</g>
</svg>
