<?xml version="1.0" encoding="UTF-8"?>
<svg width="217px" height="40px" viewBox="0 0 217 40" version="1.1" xmlns="http://www.w3.org/2000/svg" xmlns:xlink="http://www.w3.org/1999/xlink">
    <!-- Generator: Sketch 46.2 (44496) - http://www.bohemiancoding.com/sketch -->
    <title>Group 6</title>
    <desc>Created with Sketch.</desc>
    <defs>
        <polygon id="path-1" points="2.14137708e-16 2.46251364 2.14137708e-16 0.101352326 5.88880814 0.101352326 5.88880814 2.46251364 0 2.46251364"></polygon>
    </defs>
    <g id="Smartyads_Docs" stroke="none" stroke-width="1" fill="none" fill-rule="evenodd">
        <g id="Retargeting-Copy-2" transform="translate(-13.000000, -8.000000)">
            <g id="Group-6" transform="translate(13.000000, 8.000000)">
                <g id="Page-1">
                    <path d="M49.2352941,27.169785 C49.2352941,27.823232 49.1232254,28.3860497 48.8989744,28.8588261 C48.6747235,29.3318375 48.3590689,29.7188042 47.9523515,30.0194909 C47.5451798,30.3201776 47.0556882,30.5439881 46.4826276,30.6898647 C45.9096806,30.8358588 45.2743975,30.9090909 44.5770053,30.9090909 C44.344125,30.9090909 44.0661673,30.9047416 43.7423376,30.8963958 C43.4185078,30.8872271 43.0778734,30.8660685 42.7210021,30.8316271 C42.3635631,30.7971856 42.0024907,30.7585125 41.6373306,30.7156076 C41.2718299,30.6730554 40.9397114,30.6086393 40.640975,30.5221243 C40.2920519,30.4363146 40.1176471,30.2643425 40.1176471,30.0064431 L40.1176471,29.1039128 C40.1176471,28.9836616 40.1588638,28.8890358 40.2422057,28.8201529 C40.3250934,28.7515052 40.4330745,28.7170637 40.566149,28.7170637 L40.6656142,28.7170637 C40.9646912,28.7515052 41.2923815,28.7859466 41.649707,28.8201529 C42.0066918,28.8548295 42.3678778,28.8844515 42.7333785,28.910547 C43.0985386,28.9361724 43.4390594,28.9579187 43.7547139,28.9748456 C44.0700278,28.992125 44.344125,29.0005885 44.5770053,29.0005885 C45.3903267,29.0005885 46.0049447,28.8717563 46.4202916,28.6139745 C46.8352978,28.35584 47.0429712,27.8749529 47.0429712,27.169785 C47.0429712,26.7743549 46.9100103,26.4304107 46.6445425,26.1381875 C46.3787342,25.8458466 45.8885613,25.4765122 45.1747051,25.0291261 L42.658666,23.4814947 C41.8946231,23.0006076 41.2800051,22.4719961 40.8152663,21.8954253 C40.3500733,21.3195597 40.1176471,20.6189761 40.1176471,19.7934395 C40.1176471,19.1230657 40.2338034,18.5687113 40.4663431,18.1301413 C40.6987693,17.6918064 41.0145374,17.3393988 41.4130796,17.0728009 C41.8116219,16.8064381 42.2849901,16.6215357 42.8329573,16.5184465 C43.3811516,16.4150047 43.9789649,16.3636364 44.626738,16.3636364 C45.3242436,16.3636364 46.0007435,16.3939636 46.6569189,16.4536778 C47.3127536,16.5142148 47.9314592,16.5957928 48.5129221,16.698882 C48.8281225,16.7502503 48.9862904,16.9225751 48.9862904,17.2145633 L48.9862904,18.0657253 C48.9862904,18.3583012 48.8449271,18.5039426 48.5627683,18.5039426 L48.4880558,18.5039426 C48.0559043,18.4698538 47.4790968,18.4265963 46.7566112,18.375228 C46.0342392,18.3235071 45.3242436,18.2978817 44.626738,18.2978817 C43.9292323,18.2978817 43.3686616,18.3840441 42.9451396,18.5556636 C42.5216175,18.7276357 42.30997,19.1402276 42.30997,19.7934395 C42.30997,20.1894573 42.4507655,20.5285821 42.7333785,20.8124595 C43.0156509,21.0958667 43.4472346,21.4099538 44.0288111,21.7536629 L46.495004,23.2754338 C47.5247418,23.9117188 48.238825,24.5307244 48.6374808,25.1322153 C49.036023,25.734294 49.2352941,26.4131312 49.2352941,27.169785" id="Fill-1" fill="#FEFEFE"></path>
                    <path d="M70.048798,30.7527367 C69.9443136,30.8569332 69.8220574,30.9090909 69.6825064,30.9090909 L68.4263087,30.9090909 C68.2867577,30.9090909 68.16474,30.8569332 68.0600171,30.7527367 C67.9554135,30.6485402 67.9031713,30.5269974 67.9031713,30.3879895 L67.9031713,21.160122 C67.9031713,20.6215554 67.841745,20.1693639 67.7199658,19.8046167 C67.5975903,19.439513 67.4321568,19.1529429 67.2228302,18.9443122 C67.0133844,18.7359191 66.7602842,18.5883569 66.4637681,18.501269 C66.1668942,18.4145376 65.8529641,18.3708155 65.5217391,18.3708155 C65.0507246,18.3708155 64.5490566,18.440557 64.0170929,18.5795649 C63.4846521,18.7188105 62.9658086,18.8834814 62.4600852,19.0747658 C62.616931,19.6482625 62.6955328,20.3258369 62.6955328,21.1079643 L62.6955328,30.3879895 C62.6955328,30.5269974 62.6517591,30.6485402 62.5646888,30.7527367 C62.4772607,30.8569332 62.3638308,30.9090909 62.2245183,30.9090909 L60.8375959,30.9090909 C60.6978063,30.9090909 60.5890281,30.8569332 60.5105456,30.7527367 C60.432063,30.6485402 60.3927025,30.5269974 60.3927025,30.3879895 L60.3927025,21.1079643 C60.3927025,20.5344676 60.3534612,20.069801 60.2749787,19.7132516 C60.1963769,19.3572964 60.0695882,19.0790429 59.8954476,18.8792042 C59.7208299,18.6797219 59.5070902,18.5447536 59.2544671,18.475012 C59.0012476,18.4059833 58.7089061,18.3708155 58.3776812,18.3708155 C57.9065474,18.3708155 57.3964109,18.4710913 56.8467946,18.6705735 C56.2972976,18.8706499 55.7432681,19.1095771 55.185064,19.387593 L55.185064,30.3879895 C55.185064,30.5269974 55.1414096,30.6485402 55.05422,30.7527367 C54.9669112,30.8569332 54.8536005,30.9090909 54.7141688,30.9090909 L53.3272464,30.9090909 C53.1873375,30.9090909 53.0786786,30.8569332 53.0000767,30.7527367 C52.9215942,30.6485402 52.8823529,30.5269974 52.8823529,30.3879895 L52.8823529,17.0934873 C52.8823529,16.9548358 52.930182,16.8329366 53.0261978,16.72874 C53.1218559,16.6245435 53.2395797,16.572267 53.3794885,16.572267 L54.6879284,16.572267 C54.8274794,16.572267 54.945084,16.6245435 55.0412191,16.72874 C55.1369964,16.8329366 55.185064,16.9548358 55.185064,17.0934873 L55.185064,17.5888069 C55.7085592,17.2587522 56.2928844,16.9723009 56.9385166,16.72874 C57.5835524,16.4856544 58.2729583,16.3636364 59.00578,16.3636364 C59.5638648,16.3636364 60.0565873,16.4464471 60.4843052,16.6114744 C60.911546,16.7767393 61.2910771,17.050478 61.6225405,17.4323339 C62.3553623,17.0849329 63.0922394,16.8197486 63.8338874,16.637375 C64.5750584,16.4550014 65.2861722,16.3636364 65.9666325,16.3636364 C66.5594262,16.3636364 67.1135749,16.4418135 67.6283631,16.5982865 C68.1426742,16.7547595 68.5919808,17.0199438 68.9760443,17.3936018 C69.3595114,17.767141 69.6603214,18.2624606 69.8787127,18.8792042 C70.096627,19.4964231 70.2058824,20.2568082 70.2058824,21.160122 L70.2058824,30.3879895 C70.2058824,30.5269974 70.1536402,30.6485402 70.048798,30.7527367" id="Fill-3" fill="#FEFEFE"></path>
                    <path d="M80.7804473,23.8684044 L78.9387688,23.8684044 C78.1922742,23.8684044 77.5699874,23.9162467 77.0723622,24.0105206 C76.57451,24.1051472 76.1845316,24.2513775 75.9026536,24.4487415 C75.6203219,24.6468108 75.4212491,24.9045947 75.3052083,25.2225634 C75.1890542,25.5408848 75.1310906,25.9317337 75.1310906,26.3959328 L75.1310906,26.7054381 C75.1310906,27.6337188 75.3302768,28.2573137 75.7284223,28.5752825 C76.1265679,28.8936039 76.6904373,29.0522944 77.4207112,29.0522944 C78.0012551,29.0522944 78.556844,28.966484 79.088045,28.7943929 C79.6190192,28.6227721 80.1830021,28.3649882 80.7804473,28.0206885 L80.7804473,23.8684044 Z M82.9705882,30.2129685 C82.9705882,30.3505003 82.9205648,30.4707525 82.8211986,30.5738425 C82.721492,30.6769326 82.6053379,30.7286539 82.4727361,30.7286539 L81.3278691,30.7286539 C81.1948136,30.7286539 81.0791132,30.6769326 80.9795201,30.5738425 C80.879927,30.4707525 80.8301304,30.3505003 80.8301304,30.2129685 L80.8301304,29.6453267 C80.2329121,30.0065533 79.6190192,30.3075951 78.9884519,30.5482169 C78.3578846,30.7888388 77.6944221,30.9090909 76.9976106,30.9090909 C76.466523,30.9090909 75.9563068,30.8446743 75.4669621,30.715606 C74.9775039,30.5868904 74.5462363,30.3589638 74.1730457,30.0322965 C73.7996282,29.7057467 73.5009623,29.2759892 73.2771614,28.7427891 C73.0531336,28.2101768 72.9411765,27.5394449 72.9411765,26.7311812 L72.9411765,26.4216759 C72.9411765,25.7343697 73.0445128,25.1282895 73.2522064,24.6035529 C73.4594463,24.079404 73.7996282,23.6408305 74.2724119,23.28842 C74.7454225,22.935892 75.363172,22.6735237 76.1265679,22.5015502 C76.8895101,22.3296942 77.8270238,22.2435312 78.9387688,22.2435312 L80.7804473,22.2435312 L80.7804473,21.2119253 C80.7804473,20.1289507 80.5813745,19.3722909 80.1830021,18.9425335 C79.7849699,18.5130112 79.0962121,18.2977798 78.1175226,18.2977798 C77.3044436,18.2977798 76.5908442,18.3195263 75.9772917,18.3621964 C75.363172,18.4054543 74.8075831,18.4525912 74.309731,18.5039599 L74.1852963,18.5039599 C74.0691422,18.5039599 73.9653521,18.4783343 73.8742664,18.426613 C73.7830672,18.3752443 73.7374676,18.2633381 73.7374676,18.0913646 L73.7374676,17.188827 C73.7374676,16.9139986 73.9115854,16.7501359 74.2601613,16.6987672 C74.7741207,16.6129568 75.3341335,16.5356099 75.9399726,16.4667264 C76.5453581,16.3980781 77.2713215,16.3636364 78.1175226,16.3636364 C79.8427067,16.3636364 81.0828564,16.7933938 81.8379718,17.6530261 C82.5929738,18.5130112 82.9705882,19.6990758 82.9705882,21.2119253 L82.9705882,30.2129685 Z" id="Fill-5" fill="#FEFEFE"></path>
                    <path d="M92.4573021,18.3742073 C91.854069,18.3742073 91.2728594,18.4571677 90.7132022,18.6221364 C90.1530739,18.7867481 89.5457187,19.0691945 88.8913721,19.4685235 L88.8913721,30.3879993 C88.8913721,30.5272586 88.839552,30.6486641 88.7366184,30.752811 C88.6329782,30.857434 88.5124964,30.9090909 88.374702,30.9090909 L87.1085248,30.9090909 C86.9703771,30.9090909 86.8541352,30.8568389 86.7596813,30.752454 C86.6647562,30.648069 86.6176471,30.5263064 86.6176471,30.3870471 L86.6176471,17.0685026 C86.6176471,16.9296004 86.6647562,16.8074807 86.7596813,16.7030958 C86.8541352,16.5987108 86.9703771,16.5464588 87.1085248,16.5464588 L88.3229997,16.5464588 C88.4606763,16.5464588 88.577036,16.599425 88.6717255,16.7053572 C88.7662972,16.8114085 88.814113,16.9355517 88.814113,17.0768344 L88.814113,17.6333954 C89.4682241,17.174911 90.0930097,16.8486634 90.6872921,16.6544145 C91.2814568,16.4607608 91.8716171,16.3636364 92.4573021,16.3636364 C92.8188652,16.3636364 93,16.5222967 93,16.8397365 L93,17.9248878 C93,18.2247118 92.8188652,18.3742073 92.4573021,18.3742073" id="Fill-7" fill="#FEFEFE"></path>
                    <path d="M101.676645,30.7828738 C101.431805,30.8164164 101.162626,30.8459247 100.86855,30.8711681 C100.574585,30.8966421 100.312998,30.9090909 100.084459,30.9090909 C99.5129418,30.9090909 99.0187958,30.8625231 98.6025788,30.7700792 C98.1862502,30.6776352 97.8431615,30.5045045 97.5736477,30.2517245 C97.3043571,29.9989444 97.0999329,29.6532593 96.9616033,29.2148997 C96.8226038,28.7765402 96.7533832,28.2119635 96.7533832,27.5203628 L96.7533832,18.6943853 L94.3772176,18.416016 C94.0668412,18.3825886 93.9117647,18.2307823 93.9117647,17.9608275 L93.9117647,17.2782176 C93.9117647,16.9747202 94.0668412,16.8229138 94.3772176,16.8229138 L96.7533832,16.8229138 L96.7533832,14.3444475 C96.7533832,14.0581248 96.9004212,13.8894895 97.1941623,13.8387721 L98.4679335,13.6363636 L98.5413967,13.6363636 C98.6393104,13.6363636 98.7250547,13.6742864 98.7986295,13.750132 C98.8722043,13.8260928 98.9089359,13.9315619 98.9089359,14.066424 L98.9089359,16.8229138 L101.554057,16.8229138 C101.684683,16.8229138 101.799344,16.8736312 101.897258,16.9747202 C101.995171,17.0756939 102.044184,17.1940729 102.044184,17.3285892 L102.044184,18.1883641 C102.044184,18.3235721 101.995171,18.4412594 101.897258,18.5426942 C101.799344,18.6436679 101.684683,18.6943853 101.554057,18.6943853 L98.9089359,18.6943853 L98.9089359,27.4990384 C98.9089359,28.1886796 99.006738,28.626117 99.2029003,28.8110049 C99.3987277,28.9958929 99.7413698,29.0883368 100.231497,29.0883368 L101.603181,29.0883368 C101.94627,29.0883368 102.117647,29.2085601 102.117647,29.4479692 L102.117647,30.3463585 C102.117647,30.5858829 101.970721,30.7315801 101.676645,30.7828738" id="Fill-9" fill="#FEFEFE"></path>
                    <path d="M115.794118,17.7065164 C115.794118,17.7921342 115.784995,17.8513454 115.767816,17.8854297 L111.479024,32.5862161 C111.271219,33.2838383 111.050382,33.8707158 110.816394,34.3471975 C110.582525,34.8234465 110.283612,35.2108205 109.919539,35.5083889 C109.555584,35.8060737 109.117701,36.0229101 108.607192,36.1592471 C108.095736,36.2953515 107.467464,36.3636364 106.722257,36.3636364 C106.358539,36.3636364 105.972547,36.3421156 105.565468,36.2996557 C105.158506,36.2570794 104.815758,36.2018234 104.539238,36.1338875 C104.383325,36.0994543 104.253121,36.0573433 104.149218,36.0061588 C104.045079,35.9553232 103.993305,35.8613297 103.993305,35.7255743 L103.993305,34.7812193 C103.993305,34.5086615 104.157749,34.3729061 104.487109,34.3729061 L104.565065,34.3729061 C104.859712,34.4067577 105.244993,34.440493 105.721499,34.4749262 C106.198005,34.5086615 106.583404,34.5261108 106.878288,34.5261108 C107.242243,34.5261108 107.562718,34.4962143 107.840304,34.4366541 C108.116943,34.3767449 108.355552,34.2664655 108.554827,34.1048851 C108.753983,33.9430721 108.927667,33.7220479 109.074813,33.4411145 C109.22184,33.1605301 109.347779,32.7988646 109.451919,32.3564672 L109.711497,31.310092 L109.347779,31.310092 C109.157035,31.310092 108.97091,31.293457 108.788696,31.2590238 C108.607192,31.2251722 108.433508,31.148628 108.268947,31.0292749 C108.104148,30.9105035 107.9525,30.7319392 107.81424,30.4934657 C107.675269,30.2554575 107.54542,29.9407888 107.42422,29.5492269 L103.967004,17.8854297 C103.949588,17.8513454 103.941176,17.7921342 103.941176,17.7065164 C103.941176,17.4175563 104.097208,17.2727273 104.409034,17.2727273 L105.838908,17.2727273 C105.942692,17.2727273 106.033443,17.3153035 106.1114,17.400805 C106.189475,17.4860738 106.24575,17.5797183 106.280582,17.6817384 L109.347779,28.7820402 C109.41685,29.0381956 109.49457,29.1959371 109.581649,29.25573 C109.668254,29.3152902 109.75474,29.3448377 109.841583,29.3448377 L110.25743,29.3448377 L113.428766,17.6562625 C113.463242,17.5542423 113.523901,17.464553 113.610625,17.3880089 C113.69723,17.3114647 113.801133,17.2727273 113.922332,17.2727273 L115.378271,17.2727273 C115.655147,17.2727273 115.794118,17.4175563 115.794118,17.7065164" id="Fill-11" fill="#FEFEFE"></path>
                    <path d="M126.368796,23.8684044 L124.527231,23.8684044 C123.780509,23.8684044 123.158223,23.9162467 122.660711,24.0105206 C122.163086,24.1051472 121.772767,24.2513775 121.491116,24.4487415 C121.208671,24.6468108 121.009825,24.9045947 120.893671,25.2225634 C120.77763,25.5408848 120.719553,25.9317337 120.719553,26.3959328 L120.719553,26.7054381 C120.719553,27.6337188 120.918739,28.2573137 121.316658,28.5752825 C121.715144,28.8936039 122.278786,29.0522944 123.008946,29.0522944 C123.589717,29.0522944 124.145306,28.966484 124.676507,28.7943929 C125.207368,28.6227721 125.771464,28.3649882 126.368796,28.0206885 L126.368796,23.8684044 Z M128.558824,30.2129685 C128.558824,30.3505003 128.50914,30.4707525 128.409434,30.5738425 C128.309954,30.6769326 128.193573,30.7286539 128.061198,30.7286539 L126.916331,30.7286539 C126.783276,30.7286539 126.667575,30.6769326 126.567755,30.5738425 C126.468276,30.4707525 126.418706,30.3505003 126.418706,30.2129685 L126.418706,29.6453267 C125.821374,30.0065533 125.207368,30.3075951 124.577028,30.5482169 C123.94612,30.7888388 123.282884,30.9090909 122.585959,30.9090909 C122.054872,30.9090909 121.544769,30.8446743 121.055538,30.715606 C120.565853,30.5868904 120.134472,30.3589638 119.761394,30.0322965 C119.38809,29.7057467 119.089311,29.2759892 118.865737,28.7427891 C118.641709,28.2101768 118.529412,27.5394449 118.529412,26.7311812 L118.529412,26.4216759 C118.529412,25.7343697 118.632862,25.1282895 118.840555,24.6035529 C119.047682,24.079404 119.38809,23.6408305 119.860874,23.28842 C120.333998,22.935892 120.951407,22.6735237 121.715144,22.5015502 C122.478086,22.3296942 123.415599,22.2435312 124.527231,22.2435312 L126.368796,22.2435312 L126.368796,21.2119253 C126.368796,20.1289507 126.16961,19.3722909 125.771464,18.9425335 C125.373319,18.5130112 124.684674,18.2977798 123.705758,18.2977798 C122.892792,18.2977798 122.17942,18.3195263 121.565754,18.3621964 C120.951407,18.4054543 120.396159,18.4525912 119.898193,18.5039599 L119.773645,18.5039599 C119.657604,18.5039599 119.553701,18.4783343 119.462729,18.426613 C119.371416,18.3752443 119.32593,18.2633381 119.32593,18.0913646 L119.32593,17.188827 C119.32593,16.9139986 119.500048,16.7501359 119.848397,16.6987672 C120.362583,16.6129568 120.922482,16.5356099 121.528435,16.4667264 C122.133593,16.3980781 122.859557,16.3636364 123.705758,16.3636364 C125.431282,16.3636364 126.671319,16.7933938 127.426434,17.6530261 C128.181323,18.5130112 128.558824,19.6990758 128.558824,21.2119253 L128.558824,30.2129685 Z" id="Fill-13" fill="#FEFEFE"></path>
                    <path d="M139.959228,18.8357874 C139.528088,18.752097 139.019021,18.7016536 138.433204,18.6849155 C137.846798,18.6684067 137.346573,18.6594645 136.932764,18.6594645 C136.294603,18.6594645 135.760188,18.752097 135.329166,18.9363304 C134.898027,19.1209077 134.553304,19.3933025 134.294409,19.7537441 C134.035866,20.1146443 133.850301,20.5585469 133.738419,21.0868278 C133.625948,21.6152232 133.570302,22.2148128 133.570302,22.8855965 L133.570302,24.6965175 C133.570302,26.0714463 133.811514,27.128008 134.294409,27.8656293 C134.777068,28.6038238 135.656559,28.9722905 136.932764,28.9722905 C137.381234,28.9722905 137.885586,28.9557817 138.446173,28.9221909 C139.006053,28.8886002 139.510404,28.8552387 139.959228,28.8216479 L139.959228,18.8357874 Z M142.235294,29.9029727 C142.235294,30.0710412 142.204995,30.2010478 142.144987,30.2929926 C142.084272,30.3852812 141.933603,30.4481063 141.692273,30.481697 C140.881279,30.6325689 140.084196,30.7413663 139.299491,30.8085479 C138.514669,30.8755001 137.725839,30.9090909 136.932764,30.9090909 C135.966974,30.9090909 135.130868,30.7622316 134.423856,30.4689715 C133.716609,30.1759408 133.130674,29.7609285 132.664992,29.2240493 C132.199428,28.6875141 131.854351,28.0335831 131.630352,27.2621418 C131.405999,26.4909297 131.294118,25.6357981 131.294118,24.6965175 L131.294118,22.8855965 C131.294118,20.9067216 131.7598,19.3850481 132.690811,18.320232 C133.622058,17.255416 135.035963,16.723008 136.932764,16.723008 C137.329243,16.723008 137.808011,16.7442172 138.368598,16.785833 C138.928832,16.8279075 139.459002,16.8907325 139.959228,16.9744229 L139.959228,12.2960192 C139.959228,12.1618854 140.006385,12.0486168 140.101408,11.9564428 C140.195959,11.8643835 140.312321,11.8181818 140.450611,11.8181818 L141.769848,11.8181818 C141.907548,11.8181818 142.01943,11.8643835 142.1062,11.9564428 C142.192145,12.0486168 142.235294,12.1618854 142.235294,12.2960192 L142.235294,29.9029727 Z" id="Fill-15" fill="#FEFEFE"></path>
                    <path d="M155,27.169785 C155,27.823232 154.887931,28.3860497 154.66368,28.8588261 C154.439429,29.3318375 154.123775,29.7188042 153.717057,30.0194909 C153.309772,30.3201776 152.820167,30.5439881 152.247334,30.6898647 C151.674159,30.8358588 151.039103,30.9090909 150.341598,30.9090909 C150.108944,30.9090909 149.830987,30.9047416 149.506816,30.8963958 C149.1831,30.8872271 148.842579,30.8660685 148.485594,30.8316271 C148.128155,30.7971856 147.766969,30.7585125 147.402036,30.7156076 C147.036422,30.6730554 146.704531,30.6086393 146.405567,30.5221243 C146.056644,30.4363146 145.882353,30.2643425 145.882353,30.0064431 L145.882353,29.1039128 C145.882353,28.9836616 145.923456,28.8890358 146.007025,28.8201529 C146.089913,28.7515052 146.197667,28.7170637 146.330741,28.7170637 L146.43032,28.7170637 C146.729284,28.7515052 147.057201,28.7859466 147.414299,28.8201529 C147.771398,28.8548295 148.132584,28.8844515 148.498084,28.910547 C148.863017,28.9361724 149.203765,28.9579187 149.51942,28.9748456 C149.834734,28.992125 150.108944,29.0005885 150.341598,29.0005885 C151.155033,29.0005885 151.769651,28.8717563 152.185111,28.6139745 C152.600004,28.35584 152.807904,27.8749529 152.807904,27.169785 C152.807904,26.7743549 152.674716,26.4304107 152.409135,26.1381875 C152.143326,25.8458466 151.653381,25.4765122 150.939184,25.0291261 L148.423372,23.4814947 C147.659329,23.0006076 147.044711,22.4719961 146.579859,21.8954253 C146.114779,21.3195597 145.882353,20.6189761 145.882353,19.7934395 C145.882353,19.1230657 145.998282,18.5687113 146.231163,18.1301413 C146.463589,17.6918064 146.779357,17.3393988 147.177786,17.0728009 C147.576328,16.8064381 148.049582,16.6215357 148.597663,16.5184465 C149.14563,16.4150047 149.743671,16.3636364 150.391217,16.3636364 C151.088836,16.3636364 151.765563,16.3939636 152.421625,16.4536778 C153.077573,16.5142148 153.696052,16.5957928 154.277742,16.698882 C154.592942,16.7502503 154.750996,16.9225751 154.750996,17.2145633 L154.750996,18.0657253 C154.750996,18.3583012 154.609633,18.5039426 154.327247,18.5039426 L154.252535,18.5039426 C153.820724,18.4698538 153.243803,18.4265963 152.521204,18.375228 C151.798832,18.3235071 151.088836,18.2978817 150.391217,18.2978817 C149.693711,18.2978817 149.133481,18.3840441 148.709845,18.5556636 C148.286437,18.7276357 148.074449,19.1402276 148.074449,19.7934395 C148.074449,20.1894573 148.215471,20.5285821 148.498084,20.8124595 C148.78013,21.0958667 149.211941,21.4099538 149.793517,21.7536629 L152.259823,23.2754338 C153.289334,23.9117188 154.003531,24.5307244 154.40196,25.1322153 C154.800502,25.734294 155,26.4131312 155,27.169785" id="Fill-17" fill="#FEFEFE"></path>
                    <path d="M13.4578576,35.4545455 C13.1553306,35.4545455 12.8773664,35.2649608 12.7909462,34.9747497 C12.6869491,34.6245909 12.9013657,34.2605156 13.2698064,34.1617089 L17.094378,33.1355327 L13.4581956,33.1355327 C13.0753328,33.1355327 12.7650314,32.8407184 12.7650314,32.4769643 C12.7650314,32.1132102 13.0753328,31.8181818 13.4581956,31.8181818 L22.1007765,31.8181818 C22.4469078,31.8181818 22.7401956,32.060863 22.7875183,32.3865075 C22.8349536,32.7123661 22.6223397,33.0214179 22.2891657,33.1108042 L13.6466975,35.4296029 C13.5837133,35.4464097 13.5201657,35.4545455 13.4578576,35.4545455" id="Fill-19" fill="#FEFEFE"></path>
                    <path d="M13.4578545,39.0909091 C13.155216,39.0909091 12.8773654,38.9012929 12.7909456,38.6108193 C12.6869488,38.2608163 12.9013647,37.8967875 13.2699167,37.7978573 L21.9122413,35.479315 C22.2794412,35.3810272 22.6637674,35.5839198 22.7678768,35.934351 C22.8718736,36.2844611 22.6574577,36.6484899 22.2891311,36.747313 L13.6465811,39.0659624 C13.5835971,39.082772 13.5201625,39.0909091 13.4578545,39.0909091" id="Fill-21" fill="#FEFEFE"></path>
                    <path d="M18.0514379,40 C17.7335188,40 17.4416297,39.8682551 17.3511168,39.6667367 C17.2417915,39.4237554 17.4671862,39.1711143 17.8540843,39.102604 L18.4888575,39.2804188 C18.8748091,39.2122057 19.9221553,38.9487902 20.0313624,39.1919201 C20.1403327,39.4349014 19.9152929,39.6875424 19.5281582,39.7560527 L18.2495013,39.9826867 C18.1833619,39.994427 18.1168674,40 18.0514379,40" id="Fill-23" fill="#FEFEFE"></path>
                    <path d="M18.2352941,9.60476822 C13.5196592,9.60476822 9.68317186,13.3000216 9.68317186,17.8422002 C9.68317186,20.7868408 11.3384755,23.5270631 14.0030463,24.9936023 C14.2332764,25.1202075 14.3753996,25.3559591 14.3753996,25.6113663 L14.3753996,28.0236869 C14.3753996,28.3289269 14.632998,28.5771656 14.9500145,28.5771656 L21.6251256,28.5771656 C21.942142,28.5771656 22.1999805,28.3289269 22.1999805,28.0236869 L22.1999805,25.550434 C22.1999805,25.2984954 22.3383826,25.0654031 22.5639312,24.9374104 C25.169204,23.4590778 26.7875364,20.7404767 26.7875364,17.8422002 C26.7875364,13.3000216 22.950929,9.60476822 18.2352941,9.60476822 M21.6251256,30 L14.9500145,30 C13.8185502,30 12.8981101,29.1134167 12.8981101,28.0236869 L12.8981101,26.0138437 C9.99322621,24.250158 8.20588235,21.1568286 8.20588235,17.8422002 C8.20588235,12.5154162 12.7052114,8.18181818 18.2352941,8.18181818 C23.7654969,8.18181818 28.2647059,12.5154162 28.2647059,17.8422002 C28.2647059,21.1047991 26.5172142,24.1730387 23.67727,25.9467834 L23.67727,28.0236869 C23.67727,29.1134167 22.7567099,30 21.6251256,30" id="Fill-25" fill="#FEFEFE"></path>
                    <path d="M26.1375061,9.09090909 C25.9682001,9.09090909 25.8000109,9.01462465 25.6797321,8.86509257 C25.4588302,8.59032282 25.4842931,8.17258047 25.7370237,7.93206583 L28.1685081,5.61814495 C28.4209036,5.37763031 28.8050809,5.40556888 29.0260944,5.68046011 C29.247108,5.95522986 29.2215334,6.3729722 28.9689146,6.61336537 L26.5375418,8.92740773 C26.4221769,9.03697551 26.2795623,9.09090909 26.1375061,9.09090909" id="Fill-27" fill="#FEFEFE"></path>
                    <path d="M17.7793699,6.36363636 C17.5275771,6.36363636 17.3235294,6.07117815 17.3235294,5.71043568 L17.3235294,0.653200685 C17.3235294,0.292458216 17.5275771,0 17.7793699,0 C18.0311627,0 18.2352941,0.292458216 18.2352941,0.653200685 L18.2352941,5.71043568 C18.2352941,6.07117815 18.0311627,6.36363636 17.7793699,6.36363636" id="Fill-29" fill="#FEFEFE"></path>
                    <path d="M30.6938586,16.3636364 C30.4089444,16.3636364 30.1547715,16.1825517 30.099192,15.9224046 C30.03615,15.6276179 30.2515621,15.3430134 30.5804721,15.2865118 L34.8382584,14.5551852 C35.1654977,14.498983 35.4848288,14.691947 35.5478709,14.9866339 C35.6109129,15.2813208 35.3953894,15.5660251 35.0665908,15.6225268 L30.8086931,16.3537536 C30.7702664,16.3604419 30.7317284,16.3636364 30.6938586,16.3636364" id="Fill-31" fill="#FEFEFE"></path>
                    <path d="M9.42122262,9.09090909 C9.27928201,9.09090909 9.13655965,9.03697198 9.02130968,8.92739703 L6.59000427,6.6132033 C6.33728073,6.37279441 6.31170685,5.95502474 6.53271431,5.68023701 C6.75394512,5.40544928 7.13788835,5.37787332 7.39038854,5.61791777 L9.82180562,7.93199003 C10.0745292,8.1725204 10.0999914,8.59029007 9.87909558,8.8650778 C9.75882017,9.01461966 9.59052394,9.09090909 9.42122262,9.09090909" id="Fill-33" fill="#FEFEFE"></path>
                    <path d="M30.4523852,25.4545455 C30.3535998,25.4545455 30.2534073,25.4315147 30.1633648,25.3832106 L28.5221991,24.5043341 C28.2659397,24.3671849 28.1877555,24.0775326 28.3477418,23.8575763 C28.5076275,23.6375337 28.8449855,23.5701667 29.1012449,23.7077472 L30.7424106,24.5866237 C30.9987705,24.7238592 31.0769548,25.0135115 30.9169685,25.2334678 C30.8132588,25.3761375 30.6348821,25.4545455 30.4523852,25.4545455" id="Fill-35" fill="#FEFEFE"></path>
                    <path d="M4.19467485,25.4545455 C4.01218043,25.4545455 3.83380621,25.3761385 3.73009793,25.2335569 C3.57011384,25.0135172 3.64829702,24.723955 3.90445245,24.586635 L5.54559578,23.7075976 C5.80245466,23.5702776 6.13940608,23.6375575 6.29928968,23.8572522 C6.45927377,24.0772919 6.38119108,24.3668541 6.12493516,24.5041741 L4.48379182,25.3832978 C4.39354954,25.431515 4.29345899,25.4545455 4.19467485,25.4545455" id="Fill-37" fill="#FEFEFE"></path>
                    <g id="Group-41" transform="translate(0.000000, 14.545455)">
                        <mask id="mask-2" fill="white">
                            <use xlink:href="#path-1"></use>
                        </mask>
                        <g id="Clip-40"></g>
                        <path d="M5.23688771,2.46251364 C5.19600282,2.46251364 5.15475823,2.45836515 5.11327385,2.44967927 L0.529849082,1.50006556 C0.175912964,1.42668926 -0.0560878448,1.05695571 0.0117738905,0.674258143 C0.0796356258,0.291560578 0.420742758,0.0410959107 0.775518155,0.113953645 L5.35894292,1.06369699 C5.71287904,1.13707329 5.94487985,1.5066772 5.87701811,1.88950441 C5.81706958,2.2273465 5.54358439,2.46251364 5.23688771,2.46251364" id="Fill-39" fill="#FEFEFE" mask="url(#mask-2)"></path>
                    </g>
                </g>
                <path d="M181.117188,22.9638672 C181.117188,25.816095 180.440111,27.8938737 179.085938,29.1972656 C177.731764,30.5006576 175.878267,31.1523438 173.525391,31.1523438 C171.49413,31.1523438 170.07227,31.0846361 169.259766,30.9492188 C169.132812,30.923828 169.027019,30.8645838 168.942383,30.7714844 C168.857747,30.678385 168.81543,30.5725917 168.81543,30.4541016 L168.81543,12.2490234 C168.81543,12.0035795 168.96354,11.8385421 169.259766,11.7539062 C170.07227,11.6184889 171.49413,11.5507812 173.525391,11.5507812 C174.676438,11.5507812 175.711096,11.6967759 176.629395,11.9887695 C177.547693,12.2807632 178.341142,12.7462533 179.009766,13.3852539 C179.678389,14.0242545 180.196776,14.8684843 180.564941,15.9179688 C180.933107,16.9674532 181.117188,18.2412034 181.117188,19.7392578 L181.117188,22.9638672 Z M179.974609,22.9638672 L179.974609,19.7392578 C179.974609,17.9619052 179.701663,16.546392 179.155762,15.4926758 C178.609861,14.4389596 177.858729,13.6878278 176.902344,13.2392578 C175.945959,12.7906879 174.820319,12.5664062 173.525391,12.5664062 C172.746741,12.5664062 172.181805,12.5769856 171.830566,12.5981445 C171.479328,12.6193035 170.855148,12.6595049 169.958008,12.71875 L169.958008,30.0351562 C170.982101,30.1028649 172.171217,30.1367188 173.525391,30.1367188 C174.803392,30.1367188 175.9248,29.9103213 176.889648,29.4575195 C177.854497,29.0047178 178.609861,28.2472384 179.155762,27.1850586 C179.701663,26.1228788 179.974609,24.7158291 179.974609,22.9638672 Z M194.294922,24.9443359 C194.294922,26.2477279 194.096031,27.3649042 193.698242,28.2958984 C193.300454,29.2268927 192.699548,29.9357072 191.895508,30.4223633 C191.091467,30.9090194 190.105475,31.1523438 188.9375,31.1523438 C187.769525,31.1523438 186.783533,30.9090194 185.979492,30.4223633 C185.175452,29.9357072 184.574546,29.2268927 184.176758,28.2958984 C183.778969,27.3649042 183.580078,26.2477279 183.580078,24.9443359 L183.580078,23.1162109 C183.580078,21.812819 183.778969,20.6956427 184.176758,19.7646484 C184.574546,18.8336542 185.175452,18.1248397 185.979492,17.6381836 C186.783533,17.1515275 187.769525,16.9082031 188.9375,16.9082031 C190.105475,16.9082031 191.091467,17.1515275 191.895508,17.6381836 C192.699548,18.1248397 193.300454,18.8336542 193.698242,19.7646484 C194.096031,20.6956427 194.294922,21.812819 194.294922,23.1162109 L194.294922,24.9443359 Z M193.152344,24.9443359 L193.152344,23.1162109 C193.152344,22.0328722 193.010581,21.1040078 192.727051,20.3295898 C192.443521,19.5551719 191.990726,18.9606141 191.368652,18.5458984 C190.746579,18.1311828 189.936203,17.9238281 188.9375,17.9238281 C187.938797,17.9238281 187.128421,18.1311828 186.506348,18.5458984 C185.884274,18.9606141 185.431479,19.5551719 185.147949,20.3295898 C184.864419,21.1040078 184.722656,22.0328722 184.722656,23.1162109 L184.722656,24.9443359 C184.722656,26.611662 185.056963,27.8938757 185.725586,28.7910156 C186.394209,29.6881555 187.464836,30.1367188 188.9375,30.1367188 C190.410164,30.1367188 191.480791,29.6881555 192.149414,28.7910156 C192.818037,27.8938757 193.152344,26.611662 193.152344,24.9443359 Z M201.785156,31.1523438 C200.583327,31.1523438 199.59945,30.8878607 198.833496,30.3588867 C198.067542,29.8299127 197.508954,29.0999396 197.157715,28.1689453 C196.806476,27.2379511 196.630859,26.1377017 196.630859,24.8681641 L196.630859,23.1162109 C196.630859,21.8551369 196.806476,20.7654668 197.157715,19.847168 C197.508954,18.9288691 198.071773,18.2094753 198.846191,17.6889648 C199.620609,17.1684544 200.600254,16.9082031 201.785156,16.9082031 C202.36068,16.9082031 202.934079,16.9780266 203.505371,17.1176758 C204.076663,17.2573249 204.548501,17.411783 204.920898,17.5810547 C205.098634,17.6487634 205.225586,17.7249345 205.301758,17.8095703 C205.37793,17.8942062 205.416016,18.0084628 205.416016,18.1523438 L205.416016,18.3173828 C205.416016,18.6305354 205.234051,18.71517 204.870117,18.5712891 C203.752924,18.1396463 202.724614,17.9238281 201.785156,17.9238281 C200.354811,17.9238281 199.328616,18.3639279 198.706543,19.2441406 C198.08447,20.1243534 197.773438,21.4150306 197.773438,23.1162109 L197.773438,24.8681641 C197.773438,25.9938207 197.904621,26.9459596 198.166992,27.7246094 C198.429363,28.5032591 198.854652,29.0999328 199.442871,29.5146484 C200.03109,29.9293641 200.811844,30.1367188 201.785156,30.1367188 C202.775396,30.1367188 203.803706,29.9209006 204.870117,29.4892578 C205.234051,29.3453769 205.416016,29.4342432 205.416016,29.7558594 L205.416016,29.9082031 C205.416016,30.0605476 205.375814,30.1769202 205.29541,30.2573242 C205.215006,30.3377283 205.09017,30.4117835 204.920898,30.4794922 C204.514646,30.665691 204.027998,30.8243809 203.460938,30.9555664 C202.893877,31.086752 202.335289,31.1523438 201.785156,31.1523438 Z M216.181641,27.546875 C216.181641,28.8333398 215.773279,29.7558566 214.956543,30.3144531 C214.139807,30.8730497 213.050137,31.1523438 211.6875,31.1523438 C211.086586,31.1523438 210.420088,31.0804044 209.687988,30.9365234 C208.955888,30.7926425 208.365562,30.6318368 207.916992,30.4541016 C207.654621,30.3356114 207.493815,30.2467451 207.43457,30.1875 C207.375325,30.1282549 207.345703,30.01823 207.345703,29.8574219 L207.345703,29.7558594 C207.345703,29.5696605 207.392252,29.453288 207.485352,29.4067383 C207.578451,29.3601886 207.730793,29.3707679 207.942383,29.4384766 C208.594079,29.6669933 209.228838,29.8447259 209.84668,29.9716797 C210.464521,30.0986334 211.095049,30.1621094 211.738281,30.1621094 C212.787766,30.1621094 213.600258,29.9716816 214.175781,29.5908203 C214.751305,29.209959 215.039062,28.5286507 215.039062,27.546875 C215.039062,27.0136692 214.852866,26.5545267 214.480469,26.1694336 C214.108071,25.7843405 213.375982,25.2955759 212.28418,24.703125 L210.621094,23.8017578 C209.859371,23.3785786 209.264813,23.0061865 208.837402,22.6845703 C208.409991,22.3629541 208.075685,21.9947937 207.834473,21.5800781 C207.593261,21.1653625 207.472656,20.674482 207.472656,20.1074219 C207.472656,19.3372357 207.654621,18.7151716 208.018555,18.2412109 C208.382489,17.7672502 208.873369,17.4265961 209.491211,17.2192383 C210.109053,17.0118805 210.798824,16.9082031 211.560547,16.9082031 C212.271488,16.9082031 212.963376,16.9759108 213.63623,17.1113281 C214.309085,17.2467455 214.874021,17.4033194 215.331055,17.5810547 C215.491863,17.6402998 215.59554,17.6974281 215.64209,17.7524414 C215.68864,17.8074547 215.711914,17.9069003 215.711914,18.0507812 L215.711914,18.203125 C215.711914,18.5501319 215.52995,18.6643886 215.166016,18.5458984 C214.708982,18.4020175 214.156742,18.2623705 213.509277,18.1269531 C212.861813,17.9915358 212.212243,17.9238281 211.560547,17.9238281 C210.604162,17.9238281 209.874189,18.0740545 209.370605,18.3745117 C208.867022,18.674969 208.615234,19.2525999 208.615234,20.1074219 C208.615234,20.6406277 208.814126,21.0997702 209.211914,21.4848633 C209.609703,21.8699564 210.252925,22.312172 211.141602,22.8115234 L212.880859,23.7763672 C214.082688,24.4365267 214.933266,25.024737 215.432617,25.5410156 C215.931969,26.0572942 216.181641,26.7259074 216.181641,27.546875 Z" id="Docs" fill="#FFFFFF"></path>
            </g>
        </g>
    </g>
</svg>