<?xml version="1.0" encoding="UTF-8"?>
<svg width="43px" height="40px" viewBox="0 0 43 40" version="1.1" xmlns="http://www.w3.org/2000/svg" xmlns:xlink="http://www.w3.org/1999/xlink">
    <!-- Generator: Sketch 46.2 (44496) - http://www.bohemiancoding.com/sketch -->
    <title>discuss-issue</title>
    <desc>Created with Sketch.</desc>
    <defs></defs>
    <g id="Smartyads_Docs" stroke="none" stroke-width="1" fill="none" fill-rule="evenodd">
        <g id="Retargeting-Copy-2" transform="translate(-1347.000000, -811.000000)" fill-rule="nonzero" fill="#740B99">
            <g id="support" transform="translate(1329.000000, 788.000000)">
                <g id="Group">
                    <g id="Group-7">
                        <g id="discuss-issue" transform="translate(18.400000, 23.200000)">
                            <path d="M32.4400882,9.24113811 C32.4400882,10.5448726 31.5049521,11.3377593 30.8221135,11.9196206 C30.5635085,12.1400119 30.0821576,12.5421458 30.0834424,12.6923533 C30.0881146,13.2815649 29.6213642,13.7521043 29.0407295,13.7521043 C29.0378094,13.7521043 29.0348893,13.7521043 29.0319691,13.7521043 C28.4554226,13.7521043 27.9856353,13.2960285 27.9809631,12.7097807 C27.9717355,11.5542383 28.8025653,10.8622407 29.4702193,10.2933017 C29.9940871,9.84682869 30.3376088,9.53266153 30.3376088,9.24516894 C30.3376088,8.66318909 29.871092,8.18968583 29.2976992,8.18968583 C28.7240727,8.18968583 28.2574391,8.66318909 28.2574391,9.24516894 C28.2574391,9.83449911 27.7868342,10.3121517 27.2061994,10.3121517 C26.6255647,10.3121517 26.1549598,9.83449911 26.1549598,9.24516894 C26.1549598,7.48654416 27.5646722,6.05572021 29.2974656,6.05572021 C31.0303758,6.05560166 32.4400882,7.48239478 32.4400882,9.24113811 Z M29.0610534,14.737048 C28.4804187,14.737048 28.0330579,15.2147007 28.0330579,15.8040308 L28.0330579,15.812211 C28.0330579,16.4015412 28.4805355,16.875163 29.0610534,16.875163 C29.6415713,16.875163 30.1122931,16.393361 30.1122931,15.8040308 C30.1122931,15.2147007 29.6416882,14.737048 29.0610534,14.737048 Z M7.87168264,22.1695317 C7.29104793,22.1695317 6.82044298,22.6471844 6.82044298,23.2365145 C6.82044298,23.8258447 7.29104793,24.3034973 7.87168264,24.3034973 L7.95928595,24.3034973 C8.53992066,24.3034973 9.01052562,23.8258447 9.01052562,23.2365145 C9.01052562,22.6471844 8.53992066,22.1695317 7.95928595,22.1695317 L7.87168264,22.1695317 Z M11.5252077,22.1695317 C10.944573,22.1695317 10.473968,22.6471844 10.473968,23.2365145 C10.473968,23.8258447 10.944573,24.3034973 11.5252077,24.3034973 L11.6126942,24.3034973 C12.1933289,24.3034973 12.6639339,23.8258447 12.6639339,23.2365145 C12.6639339,22.6471844 12.1933289,22.1695317 11.6126942,22.1695317 L11.5252077,22.1695317 Z M42.4,5.12756372 L42.4,17.1371666 C42.4,19.9806758 40.1536176,22.2880854 37.3520639,22.2880854 L23.7190039,22.2880854 C23.4524562,22.2880854 23.2329807,22.2865442 23.0493642,22.2826319 C22.8569873,22.2786011 22.640432,22.2770599 22.5559824,22.2865442 C22.4680287,22.345821 22.2524077,22.5462952 22.0446127,22.7406046 C21.9622656,22.8175459 21.8690556,22.9021932 21.7684871,22.9953764 L17.9113719,26.563604 C17.6037091,26.8484884 17.1485223,26.9222288 16.7675063,26.7517487 C16.3864904,26.58115 16.1190083,26.1982217 16.1190083,25.7755779 L16.1190083,14.4635448 L5.10668871,14.4635448 C3.46418512,14.4635448 2.10247934,15.8296384 2.10247934,17.4965027 L2.10247934,29.5061055 C2.10247934,31.1730883 3.46430193,32.4836989 5.10668871,32.4836989 L20.3349466,32.4836989 C20.5971725,32.4836989 20.8424617,32.6059277 21.0361234,32.7854179 L24.1785124,35.7260225 L24.1785124,25.5850622 C24.1785124,24.9957321 24.6491174,24.5180794 25.2297521,24.5180794 C25.8103868,24.5180794 26.2809917,24.9957321 26.2809917,25.5850622 L26.2809917,38.1443983 C26.2809917,38.5670421 26.0427107,38.9442798 25.661578,39.1148785 C25.5252672,39.1759336 25.3883725,39.2 25.2450534,39.2 C24.9876165,39.2 24.7336837,39.092709 24.5361675,38.9096621 L19.927416,34.6175459 L5.10668871,34.6175459 C2.30501818,34.6175459 0,32.3496147 0,29.505987 L0,17.4965027 C0,14.6529935 2.30501818,12.3295791 5.10668871,12.3295791 L16.1190083,12.3295791 L16.1190083,5.12756372 C16.1190083,2.28393598 18.4416639,0 21.2433344,0 L37.3521807,0 C40.1536176,0 42.4,2.28393598 42.4,5.12756372 Z M40.2975207,5.12756372 C40.2975207,3.46058091 38.9943339,2.13396562 37.3520639,2.13396562 L21.2433344,2.13396562 C19.6009477,2.13396562 18.2214876,3.46058091 18.2214876,5.12756372 L18.2214876,13.4065205 L18.2214876,23.3572021 L20.3350634,21.4184944 C20.4329455,21.3278008 20.5426248,21.2448133 20.6226358,21.1698874 C21.5877906,20.2672199 21.8347152,20.1229401 23.0936331,20.149259 C23.2653355,20.1529342 23.4698601,20.1542383 23.7190039,20.1542383 L37.3520639,20.1542383 C38.9943339,20.1542383 40.2975207,18.8041494 40.2975207,17.1372851 L40.2975207,5.12756372 Z" id="Shape"></path>
                        </g>
                    </g>
                </g>
            </g>
        </g>
    </g>
</svg>