<svg width="243" height="245" viewBox="0 0 243 245" fill="none" xmlns="http://www.w3.org/2000/svg">
<path opacity="0.2" fill-rule="evenodd" clip-rule="evenodd" d="M67.4057 71.7475C71.6809 79.1525 81.1497 81.6896 88.5547 77.4144C95.9597 73.1391 98.4968 63.6703 94.2215 56.2654C89.9463 48.8604 80.4775 46.3232 73.0725 50.5985C65.6675 54.8738 63.1304 64.3425 67.4057 71.7475Z" fill="#740B99"/>
<path opacity="0.4" fill-rule="evenodd" clip-rule="evenodd" d="M71.0321 69.6537C74.1509 75.0557 81.0584 76.9065 86.4604 73.7877C91.8624 70.6688 93.7133 63.7613 90.5944 58.3593C87.4756 52.9573 80.5681 51.1065 75.1661 54.2253C69.7641 57.3441 67.9132 64.2517 71.0321 69.6537Z" fill="#740B99"/>
<path fill-rule="evenodd" clip-rule="evenodd" d="M75.1002 67.3001C76.9225 70.4564 80.9583 71.5378 84.1146 69.7155C87.2708 67.8933 88.3522 63.8574 86.5299 60.7012C84.7077 57.545 80.6718 56.4636 77.5156 58.2858C74.3594 60.1081 73.278 64.1439 75.1002 67.3001Z" fill="#740B99"/>
<g opacity="0.2">
<path opacity="0.2" fill-rule="evenodd" clip-rule="evenodd" d="M151.86 11.8998C153.441 14.6376 156.941 15.5756 159.679 13.995C162.417 12.4143 163.355 8.9136 161.774 6.17587C160.193 3.43813 156.693 2.50011 153.955 4.08074C151.217 5.66138 150.279 9.16211 151.86 11.8998Z" fill="#740B99"/>
<path opacity="0.4" fill-rule="evenodd" clip-rule="evenodd" d="M153.201 11.1259C154.354 13.1231 156.908 13.8074 158.905 12.6543C160.902 11.5013 161.587 8.94744 160.434 6.95024C159.28 4.95304 156.727 4.26874 154.729 5.42183C152.732 6.57492 152.048 9.12873 153.201 11.1259Z" fill="#740B99"/>
<path fill-rule="evenodd" clip-rule="evenodd" d="M154.705 10.2557C155.379 11.4226 156.871 11.8224 158.038 11.1487C159.205 10.475 159.605 8.9829 158.931 7.81599C158.257 6.64909 156.765 6.24928 155.598 6.92299C154.431 7.5967 154.031 9.08882 154.705 10.2557Z" fill="#740B99"/>
</g>
<g opacity="0.3">
<path opacity="0.2" fill-rule="evenodd" clip-rule="evenodd" d="M100.954 32.2286C104.568 38.4889 112.573 40.6338 118.834 37.0194C125.094 33.4051 127.239 25.4001 123.624 19.1399C120.01 12.8796 112.005 10.7347 105.745 14.3491C99.4846 17.9634 97.3397 25.9684 100.954 32.2286Z" fill="#740B99"/>
<path opacity="0.4" fill-rule="evenodd" clip-rule="evenodd" d="M104.021 30.46C106.658 35.0269 112.497 36.5917 117.064 33.955C121.631 31.3183 123.196 25.4786 120.559 20.9117C117.923 16.3448 112.083 14.78 107.516 17.4168C102.949 20.0535 101.384 25.8931 104.021 30.46Z" fill="#740B99"/>
<path fill-rule="evenodd" clip-rule="evenodd" d="M107.459 28.4688C108.999 31.1371 112.411 32.0513 115.079 30.5108C117.748 28.9702 118.662 25.5583 117.121 22.89C115.581 20.2217 112.169 19.3075 109.501 20.848C106.832 22.3885 105.918 25.8005 107.459 28.4688Z" fill="#740B99"/>
</g>
<g opacity="0.4">
<path opacity="0.2" fill-rule="evenodd" clip-rule="evenodd" d="M5.61228 85.9903C9.22663 92.2506 17.2316 94.3955 23.4918 90.7812C29.7521 87.1668 31.897 79.1618 28.2827 72.9016C24.6683 66.6413 16.6633 64.4964 10.4031 68.1108C4.14284 71.7251 1.99792 79.7301 5.61228 85.9903Z" fill="#740B99"/>
<path opacity="0.4" fill-rule="evenodd" clip-rule="evenodd" d="M8.67931 84.2218C11.316 88.7887 17.1557 90.3534 21.7226 87.7167C26.2895 85.08 27.8542 79.2403 25.2175 74.6734C22.5808 70.1065 16.7412 68.5418 12.1742 71.1785C7.60734 73.8152 6.04261 79.6549 8.67931 84.2218Z" fill="#740B99"/>
<path fill-rule="evenodd" clip-rule="evenodd" d="M12.1169 82.2305C13.6574 84.8988 17.0694 85.8131 19.7377 84.2725C22.406 82.732 23.3202 79.32 21.7796 76.6517C20.2391 73.9834 16.8271 73.0692 14.1588 74.6097C11.4905 76.1503 10.5763 79.5622 12.1169 82.2305Z" fill="#740B99"/>
</g>
<g opacity="0.5">
<path opacity="0.2" fill-rule="evenodd" clip-rule="evenodd" d="M214.31 112.119C215.591 114.338 218.429 115.099 220.649 113.817C222.869 112.536 223.629 109.698 222.348 107.478C221.066 105.258 218.228 104.498 216.008 105.779C213.789 107.061 213.028 109.899 214.31 112.119Z" fill="#740B99"/>
<path opacity="0.4" fill-rule="evenodd" clip-rule="evenodd" d="M215.397 111.491C216.332 113.111 218.403 113.665 220.022 112.73C221.641 111.796 222.196 109.725 221.261 108.106C220.326 106.486 218.256 105.932 216.636 106.867C215.017 107.801 214.462 109.872 215.397 111.491Z" fill="#740B99"/>
<path fill-rule="evenodd" clip-rule="evenodd" d="M216.616 110.787C217.162 111.733 218.372 112.057 219.318 111.511C220.264 110.965 220.588 109.755 220.042 108.809C219.496 107.863 218.286 107.539 217.34 108.085C216.394 108.631 216.069 109.841 216.616 110.787Z" fill="#740B99"/>
</g>
<g opacity="0.5">
<path opacity="0.2" fill-rule="evenodd" clip-rule="evenodd" d="M168.491 51.736C169.773 53.9557 172.611 54.7162 174.831 53.4347C177.05 52.1531 177.811 49.3149 176.529 47.0952C175.248 44.8756 172.41 44.115 170.19 45.3966C167.97 46.6781 167.21 49.5164 168.491 51.736Z" fill="#740B99"/>
<path opacity="0.4" fill-rule="evenodd" clip-rule="evenodd" d="M169.579 51.1084C170.514 52.7277 172.584 53.2825 174.204 52.3476C175.823 51.4127 176.378 49.3422 175.443 47.7229C174.508 46.1037 172.437 45.5489 170.818 46.4838C169.199 47.4186 168.644 49.4892 169.579 51.1084Z" fill="#740B99"/>
<path fill-rule="evenodd" clip-rule="evenodd" d="M170.797 50.404C171.344 51.3501 172.553 51.6742 173.499 51.128C174.445 50.5818 174.77 49.372 174.223 48.4259C173.677 47.4798 172.467 47.1557 171.521 47.7019C170.575 48.2481 170.251 49.4579 170.797 50.404Z" fill="#740B99"/>
</g>
<g opacity="0.7">
<path opacity="0.2" fill-rule="evenodd" clip-rule="evenodd" d="M204.538 57.2721C208.981 64.9667 218.82 67.6031 226.515 63.1606C234.209 58.7181 236.846 48.879 232.403 41.1843C227.961 33.4897 218.122 30.8533 210.427 35.2958C202.732 39.7383 200.096 49.5774 204.538 57.2721Z" fill="#740B99"/>
<path opacity="0.4" fill-rule="evenodd" clip-rule="evenodd" d="M208.31 55.0992C211.551 60.7125 218.729 62.6357 224.342 59.3949C229.955 56.154 231.878 48.9763 228.638 43.363C225.397 37.7497 218.219 35.8264 212.606 39.0673C206.992 42.3081 205.069 49.4858 208.31 55.0992Z" fill="#740B99"/>
<path fill-rule="evenodd" clip-rule="evenodd" d="M212.534 52.649C214.428 55.9287 218.621 57.0524 221.901 55.1589C225.181 53.2653 226.304 49.0716 224.411 45.7919C222.517 42.5122 218.324 41.3885 215.044 43.2821C211.764 45.1756 210.641 49.3693 212.534 52.649Z" fill="#740B99"/>
</g>
<g opacity="0.7">
<path opacity="0.2" fill-rule="evenodd" clip-rule="evenodd" d="M172.597 216.964C174.968 221.071 180.219 222.478 184.326 220.107C188.433 217.736 189.84 212.484 187.469 208.378C185.098 204.271 179.846 202.864 175.74 205.235C171.633 207.606 170.226 212.857 172.597 216.964Z" fill="#740B99"/>
<path opacity="0.4" fill-rule="evenodd" clip-rule="evenodd" d="M174.611 215.804C176.34 218.8 180.171 219.826 183.167 218.097C186.163 216.367 187.19 212.536 185.46 209.54C183.73 206.544 179.899 205.517 176.903 207.247C173.907 208.977 172.881 212.808 174.611 215.804Z" fill="#740B99"/>
<path fill-rule="evenodd" clip-rule="evenodd" d="M176.864 214.497C177.875 216.248 180.113 216.848 181.863 215.837C183.614 214.826 184.214 212.588 183.203 210.837C182.192 209.087 179.954 208.487 178.204 209.498C176.453 210.509 175.853 212.747 176.864 214.497Z" fill="#740B99"/>
</g>
<g opacity="0.7">
<path opacity="0.2" fill-rule="evenodd" clip-rule="evenodd" d="M60.5429 191.296C61.6452 193.206 64.0865 193.86 65.9957 192.757C67.905 191.655 68.5591 189.214 67.4568 187.305C66.3545 185.395 63.9132 184.741 62.004 185.844C60.0947 186.946 59.4406 189.387 60.5429 191.296Z" fill="#740B99"/>
<path opacity="0.4" fill-rule="evenodd" clip-rule="evenodd" d="M61.4786 190.756C62.2828 192.149 64.0637 192.626 65.4565 191.822C66.8493 191.018 67.3266 189.237 66.5224 187.844C65.7183 186.451 63.9373 185.974 62.5445 186.778C61.1517 187.582 60.6745 189.363 61.4786 190.756Z" fill="#740B99"/>
<path fill-rule="evenodd" clip-rule="evenodd" d="M62.5268 190.149C62.9967 190.963 64.0372 191.242 64.851 190.772C65.6648 190.302 65.9436 189.262 65.4738 188.448C65.0039 187.634 63.9634 187.355 63.1496 187.825C62.3358 188.295 62.057 189.336 62.5268 190.149Z" fill="#740B99"/>
</g>
<g opacity="0.9">
<path opacity="0.2" fill-rule="evenodd" clip-rule="evenodd" d="M68.9483 237.566C71.3194 241.673 76.5708 243.08 80.6777 240.709C84.7846 238.337 86.1917 233.086 83.8206 228.979C81.4495 224.872 76.1981 223.465 72.0912 225.836C67.9843 228.207 66.5772 233.459 68.9483 237.566Z" fill="#740B99"/>
<path opacity="0.4" fill-rule="evenodd" clip-rule="evenodd" d="M70.9622 236.405C72.6919 239.401 76.5229 240.428 79.5189 238.698C82.5149 236.969 83.5414 233.138 81.8117 230.142C80.0819 227.146 76.2509 226.119 73.2549 227.849C70.2589 229.579 69.2324 233.409 70.9622 236.405Z" fill="#740B99"/>
<path fill-rule="evenodd" clip-rule="evenodd" d="M73.2155 235.099C74.2261 236.849 76.4645 237.449 78.2149 236.438C79.9654 235.428 80.5652 233.19 79.5545 231.439C78.5439 229.689 76.3056 229.089 74.5551 230.099C72.8046 231.11 72.2049 233.348 73.2155 235.099Z" fill="#740B99"/>
</g>
<path opacity="0.2" fill-rule="evenodd" clip-rule="evenodd" d="M156.464 76.9778C158.909 81.2118 164.323 82.6625 168.557 80.218C172.791 77.7735 174.242 72.3594 171.797 68.1254C169.353 63.8913 163.939 62.4407 159.705 64.8852C155.471 67.3297 154.02 72.7437 156.464 76.9778Z" fill="#740B99"/>
<path opacity="0.4" fill-rule="evenodd" clip-rule="evenodd" d="M158.534 75.7811C160.317 78.8698 164.267 79.9281 167.355 78.1448C170.444 76.3615 171.502 72.4119 169.719 69.3232C167.936 66.2344 163.986 65.1761 160.898 66.9594C157.809 68.7427 156.75 72.6923 158.534 75.7811Z" fill="#740B99"/>
<path fill-rule="evenodd" clip-rule="evenodd" d="M160.863 74.4392C161.905 76.2439 164.213 76.8622 166.017 75.8203C167.822 74.7784 168.44 72.4708 167.398 70.6661C166.356 68.8614 164.049 68.2431 162.244 69.285C160.439 70.3269 159.821 72.6346 160.863 74.4392Z" fill="#740B99"/>
<path opacity="0.2" fill-rule="evenodd" clip-rule="evenodd" d="M135.041 185.806C137.485 190.04 142.899 191.491 147.133 189.046C151.367 186.602 152.818 181.188 150.373 176.954C147.929 172.719 142.515 171.269 138.281 173.713C134.047 176.158 132.596 181.572 135.041 185.806Z" fill="#740B99"/>
<path opacity="0.4" fill-rule="evenodd" clip-rule="evenodd" d="M137.11 184.609C138.893 187.698 142.843 188.756 145.932 186.973C149.02 185.19 150.079 181.24 148.295 178.151C146.512 175.063 142.562 174.004 139.474 175.788C136.385 177.571 135.327 181.52 137.11 184.609Z" fill="#740B99"/>
<path fill-rule="evenodd" clip-rule="evenodd" d="M139.439 183.267C140.481 185.072 142.789 185.69 144.593 184.648C146.398 183.607 147.016 181.299 145.974 179.494C144.933 177.69 142.625 177.071 140.82 178.113C139.016 179.155 138.397 181.463 139.439 183.267Z" fill="#740B99"/>
<path opacity="0.2" fill-rule="evenodd" clip-rule="evenodd" d="M165.722 99.7361C167.165 102.236 170.361 103.092 172.86 101.649C175.36 100.206 176.216 97.0097 174.773 94.5102C173.33 92.0106 170.134 91.1542 167.634 92.5973C165.135 94.0404 164.278 97.2366 165.722 99.7361Z" fill="#740B99"/>
<path opacity="0.4" fill-rule="evenodd" clip-rule="evenodd" d="M166.944 99.03C167.996 100.853 170.328 101.478 172.151 100.425C173.975 99.3726 174.6 97.041 173.547 95.2176C172.494 93.3942 170.162 92.7694 168.339 93.8222C166.516 94.8749 165.891 97.2066 166.944 99.03Z" fill="#740B99"/>
<path fill-rule="evenodd" clip-rule="evenodd" d="M168.318 98.2385C168.933 99.3039 170.296 99.6689 171.361 99.0538C172.426 98.4387 172.791 97.0764 172.176 96.0111C171.561 94.9457 170.199 94.5807 169.133 95.1958C168.068 95.8108 167.703 97.1731 168.318 98.2385Z" fill="#740B99"/>
<path opacity="0.2" fill-rule="evenodd" clip-rule="evenodd" d="M173.599 121.317C174.301 122.532 175.854 122.948 177.069 122.247C178.283 121.546 178.7 119.992 177.998 118.778C177.297 117.563 175.744 117.147 174.529 117.848C173.314 118.549 172.898 120.103 173.599 121.317Z" fill="#740B99"/>
<path opacity="0.4" fill-rule="evenodd" clip-rule="evenodd" d="M174.194 120.973C174.706 121.859 175.839 122.163 176.725 121.651C177.611 121.139 177.915 120.006 177.403 119.12C176.891 118.234 175.758 117.93 174.872 118.442C173.986 118.954 173.682 120.087 174.194 120.973Z" fill="#740B99"/>
<path fill-rule="evenodd" clip-rule="evenodd" d="M174.862 120.588C175.161 121.106 175.823 121.283 176.34 120.985C176.858 120.686 177.035 120.024 176.737 119.506C176.438 118.988 175.776 118.811 175.258 119.11C174.74 119.409 174.563 120.071 174.862 120.588Z" fill="#740B99"/>
<path opacity="0.2" fill-rule="evenodd" clip-rule="evenodd" d="M32.9664 134.119C38.7528 144.141 51.5683 147.575 61.5905 141.789C71.6128 136.002 75.0467 123.187 69.2604 113.165C63.474 103.142 50.6585 99.7084 40.6362 105.495C30.614 111.281 27.1801 124.097 32.9664 134.119Z" fill="#740B99"/>
<path opacity="0.4" fill-rule="evenodd" clip-rule="evenodd" d="M37.8774 131.279C42.0986 138.59 51.4476 141.095 58.7589 136.874C66.0703 132.653 68.5753 123.304 64.3541 115.992C60.1329 108.681 50.7839 106.176 43.4726 110.397C36.1612 114.618 33.6562 123.967 37.8774 131.279Z" fill="#740B99"/>
<path fill-rule="evenodd" clip-rule="evenodd" d="M43.3789 128.106C45.8453 132.377 51.3076 133.841 55.5794 131.375C59.8512 128.908 61.3148 123.446 58.8485 119.174C56.3822 114.902 50.9198 113.439 46.648 115.905C42.3762 118.371 40.9126 123.834 43.3789 128.106Z" fill="#740B99"/>
<path opacity="0.2" fill-rule="evenodd" clip-rule="evenodd" d="M170.239 156.185C173.379 161.622 180.332 163.485 185.769 160.346C191.207 157.207 193.07 150.254 189.93 144.816C186.791 139.379 179.838 137.516 174.401 140.655C168.963 143.794 167.1 150.747 170.239 156.185Z" fill="#740B99"/>
<path opacity="0.4" fill-rule="evenodd" clip-rule="evenodd" d="M172.901 154.65C175.191 158.616 180.264 159.975 184.23 157.685C188.197 155.395 189.556 150.323 187.266 146.356C184.976 142.389 179.904 141.03 175.937 143.321C171.97 145.611 170.611 150.683 172.901 154.65Z" fill="#740B99"/>
<path fill-rule="evenodd" clip-rule="evenodd" d="M175.891 152.921C177.229 155.239 180.193 156.033 182.511 154.695C184.828 153.356 185.622 150.393 184.284 148.075C182.946 145.758 179.983 144.964 177.665 146.302C175.347 147.64 174.553 150.603 175.891 152.921Z" fill="#740B99"/>
<path d="M131.178 189.152L166.777 165.673C177.458 158.628 182.495 145.585 179.323 133.19L163.547 71.5579C159.453 55.5669 143.211 45.8867 127.198 49.8953L91.3488 58.8698C82.9019 60.9844 75.7906 66.6647 71.8617 74.4354L55.4208 106.953C50.2895 117.101 51.3377 129.279 58.1277 138.401L90.5948 182.021C100.093 194.782 117.899 197.911 131.178 189.152Z" stroke="#740B99" stroke-width="1.12491"/>
<path opacity="0.2" fill-rule="evenodd" clip-rule="evenodd" d="M102.489 198.727C104.539 202.278 109.079 203.494 112.629 201.444C116.18 199.395 117.396 194.854 115.346 191.304C113.297 187.753 108.756 186.537 105.206 188.587C101.655 190.637 100.439 195.177 102.489 198.727Z" fill="#740B99"/>
<path opacity="0.4" fill-rule="evenodd" clip-rule="evenodd" d="M104.232 197.721C105.728 200.311 109.04 201.198 111.63 199.703C114.22 198.207 115.107 194.895 113.612 192.305C112.117 189.715 108.805 188.828 106.214 190.323C103.624 191.818 102.737 195.13 104.232 197.721Z" fill="#740B99"/>
<path fill-rule="evenodd" clip-rule="evenodd" d="M106.18 196.592C107.054 198.105 108.989 198.624 110.502 197.75C112.015 196.876 112.534 194.941 111.66 193.428C110.786 191.914 108.851 191.396 107.338 192.27C105.825 193.143 105.306 195.078 106.18 196.592Z" fill="#740B99"/>
</svg>
