<svg width="490" height="794" viewBox="0 0 490 794" fill="none" xmlns="http://www.w3.org/2000/svg">
<g style="mix-blend-mode:hard-light" opacity="0.4">
<circle cx="492.001" cy="398" r="268.581" transform="rotate(-60 492.001 398)" stroke="url(#paint0_linear)" stroke-width="2"/>
<circle cx="492.037" cy="397.934" r="221.698" transform="rotate(-60 492.037 397.934)" stroke="url(#paint1_linear)" stroke-width="2"/>
<path opacity="0.2" fill-rule="evenodd" clip-rule="evenodd" d="M391.833 213.776C395.648 207.169 393.384 198.721 386.777 194.906C380.17 191.092 371.722 193.355 367.907 199.963C364.092 206.57 366.356 215.018 372.963 218.833C379.57 222.647 388.019 220.384 391.833 213.776Z" fill="#FBB63F"/>
<path opacity="0.4" fill-rule="evenodd" clip-rule="evenodd" d="M388.597 211.909C391.38 207.089 389.728 200.926 384.908 198.143C380.088 195.36 373.925 197.011 371.142 201.831C368.359 206.651 370.011 212.814 374.831 215.597C379.651 218.38 385.814 216.729 388.597 211.909Z" fill="#FBB63F"/>
<path fill-rule="evenodd" clip-rule="evenodd" d="M384.97 209.814C386.596 206.998 385.631 203.397 382.815 201.771C379.999 200.145 376.398 201.11 374.772 203.926C373.146 206.742 374.111 210.343 376.927 211.969C379.743 213.595 383.344 212.63 384.97 209.814Z" fill="#FBB63F"/>
<path opacity="0.2" fill-rule="evenodd" clip-rule="evenodd" d="M641.625 484.739C689.975 400.993 661.282 293.908 577.536 245.557C493.79 197.206 386.704 225.9 338.353 309.646C290.003 393.392 318.696 500.477 402.442 548.828C486.188 597.179 593.274 568.485 641.625 484.739Z" fill="#FBB63F"/>
<path opacity="0.4" fill-rule="evenodd" clip-rule="evenodd" d="M600.609 461.058C635.881 399.965 614.949 321.845 553.856 286.573C492.762 251.3 414.642 272.232 379.37 333.326C344.098 394.419 365.03 472.539 426.123 507.811C487.217 543.084 565.337 522.152 600.609 461.058Z" fill="#FBB63F"/>
<path fill-rule="evenodd" clip-rule="evenodd" d="M554.621 434.508C575.23 398.813 563 353.17 527.305 332.562C491.61 311.953 445.967 324.183 425.358 359.878C404.749 395.573 416.98 441.216 452.675 461.825C488.37 482.433 534.013 470.203 554.621 434.508Z" fill="#FBB63F"/>
<path opacity="0.2" fill-rule="evenodd" clip-rule="evenodd" d="M482.888 671.64C486.703 665.033 484.439 656.584 477.832 652.77C471.225 648.955 462.776 651.219 458.962 657.826C455.147 664.433 457.411 672.881 464.018 676.696C470.625 680.511 479.074 678.247 482.888 671.64Z" fill="#FBB63F"/>
<path opacity="0.4" fill-rule="evenodd" clip-rule="evenodd" d="M479.651 669.772C482.434 664.952 480.783 658.789 475.963 656.006C471.143 653.223 464.98 654.875 462.197 659.695C459.414 664.515 461.066 670.678 465.885 673.461C470.705 676.243 476.869 674.592 479.651 669.772Z" fill="#FBB63F"/>
<path fill-rule="evenodd" clip-rule="evenodd" d="M476.025 667.678C477.651 664.861 476.686 661.26 473.87 659.634C471.054 658.009 467.453 658.973 465.827 661.79C464.201 664.606 465.166 668.207 467.982 669.833C470.798 671.459 474.399 670.494 476.025 667.678Z" fill="#FBB63F"/>
<circle cx="491.998" cy="398.004" r="316.302" transform="rotate(-60 491.998 398.004)" stroke="url(#paint2_linear)" stroke-width="2"/>
<circle cx="492" cy="398" r="359" transform="rotate(-60 492 398)" stroke="url(#paint3_linear)" stroke-width="2"/>
<path opacity="0.2" fill-rule="evenodd" clip-rule="evenodd" d="M207.833 291.776C211.648 285.169 209.384 276.721 202.777 272.906C196.17 269.092 187.722 271.355 183.907 277.963C180.092 284.57 182.356 293.018 188.963 296.833C195.57 300.647 204.019 298.384 207.833 291.776Z" fill="#FBB63F"/>
<path opacity="0.4" fill-rule="evenodd" clip-rule="evenodd" d="M204.597 289.909C207.38 285.089 205.728 278.926 200.908 276.143C196.088 273.36 189.925 275.011 187.142 279.831C184.359 284.651 186.011 290.814 190.831 293.597C195.651 296.38 201.814 294.729 204.597 289.909Z" fill="#FBB63F"/>
<path fill-rule="evenodd" clip-rule="evenodd" d="M200.97 287.814C202.596 284.998 201.631 281.397 198.815 279.771C195.999 278.145 192.398 279.11 190.772 281.926C189.146 284.742 190.111 288.343 192.927 289.969C195.743 291.595 199.344 290.63 200.97 287.814Z" fill="#FBB63F"/>
<path opacity="0.2" fill-rule="evenodd" clip-rule="evenodd" d="M378.833 114.776C382.648 108.169 380.384 99.7209 373.777 95.9063C367.17 92.0917 358.722 94.3554 354.907 100.963C351.092 107.57 353.356 116.018 359.963 119.833C366.57 123.647 375.019 121.384 378.833 114.776Z" fill="#FBB63F"/>
<path opacity="0.4" fill-rule="evenodd" clip-rule="evenodd" d="M375.597 112.909C378.38 108.089 376.728 101.926 371.908 99.1427C367.088 96.3599 360.925 98.0114 358.142 102.831C355.359 107.651 357.011 113.814 361.831 116.597C366.651 119.38 372.814 117.729 375.597 112.909Z" fill="#FBB63F"/>
<path fill-rule="evenodd" clip-rule="evenodd" d="M371.97 110.814C373.596 107.998 372.631 104.397 369.815 102.771C366.999 101.145 363.398 102.11 361.772 104.926C360.146 107.742 361.111 111.343 363.927 112.969C366.743 114.595 370.344 113.63 371.97 110.814Z" fill="#FBB63F"/>
<path opacity="0.2" fill-rule="evenodd" clip-rule="evenodd" d="M196.33 590.3C200.144 583.693 197.88 575.244 191.273 571.43C184.666 567.615 176.218 569.879 172.403 576.486C168.588 583.093 170.852 591.542 177.459 595.356C184.066 599.171 192.515 596.907 196.33 590.3Z" fill="#FBB63F"/>
<path opacity="0.4" fill-rule="evenodd" clip-rule="evenodd" d="M193.093 588.432C195.876 583.612 194.224 577.449 189.404 574.666C184.584 571.883 178.421 573.535 175.638 578.355C172.856 583.175 174.507 589.338 179.327 592.121C184.147 594.904 190.31 593.252 193.093 588.432Z" fill="#FBB63F"/>
<path fill-rule="evenodd" clip-rule="evenodd" d="M189.466 586.338C191.092 583.522 190.127 579.921 187.311 578.295C184.495 576.669 180.894 577.634 179.268 580.45C177.642 583.266 178.607 586.867 181.423 588.493C184.239 590.119 187.84 589.154 189.466 586.338Z" fill="#FBB63F"/>
<path opacity="0.2" fill-rule="evenodd" clip-rule="evenodd" d="M439.826 757.95C443.64 751.343 441.376 742.895 434.769 739.08C428.162 735.265 419.714 737.529 415.899 744.136C412.085 750.743 414.348 759.192 420.955 763.007C427.563 766.821 436.011 764.557 439.826 757.95Z" fill="#FBB63F"/>
<path opacity="0.4" fill-rule="evenodd" clip-rule="evenodd" d="M436.589 756.083C439.372 751.263 437.72 745.099 432.9 742.317C428.08 739.534 421.917 741.185 419.134 746.005C416.352 750.825 418.003 756.988 422.823 759.771C427.643 762.554 433.806 760.902 436.589 756.083Z" fill="#FBB63F"/>
<path fill-rule="evenodd" clip-rule="evenodd" d="M432.962 753.988C434.588 751.172 433.623 747.571 430.807 745.945C427.991 744.319 424.39 745.284 422.764 748.1C421.138 750.916 422.103 754.517 424.919 756.143C427.736 757.769 431.337 756.804 432.962 753.988Z" fill="#FBB63F"/>
<path opacity="0.2" fill-rule="evenodd" clip-rule="evenodd" d="M345.998 677.675C349.812 671.068 347.548 662.619 340.941 658.805C334.334 654.99 325.886 657.254 322.071 663.861C318.256 670.468 320.52 678.917 327.127 682.731C333.734 686.546 342.183 684.282 345.998 677.675Z" fill="#FBB63F"/>
<path opacity="0.4" fill-rule="evenodd" clip-rule="evenodd" d="M342.761 675.807C345.544 670.987 343.892 664.824 339.072 662.041C334.252 659.258 328.089 660.91 325.306 665.73C322.523 670.55 324.175 676.713 328.995 679.496C333.815 682.279 339.978 680.627 342.761 675.807Z" fill="#FBB63F"/>
<path fill-rule="evenodd" clip-rule="evenodd" d="M339.134 673.713C340.76 670.897 339.795 667.296 336.979 665.67C334.163 664.044 330.562 665.009 328.936 667.825C327.31 670.641 328.275 674.242 331.091 675.868C333.907 677.494 337.508 676.529 339.134 673.713Z" fill="#FBB63F"/>
</g>
<defs>
<linearGradient id="paint0_linear" x1="-49.6524" y1="393.019" x2="492.001" y2="928.127" gradientUnits="userSpaceOnUse">
<stop stop-color="#FBB63F" stop-opacity="0.54"/>
<stop offset="0.981306" stop-color="#B069A1" stop-opacity="0"/>
</linearGradient>
<linearGradient id="paint1_linear" x1="44.584" y1="393.819" x2="492.037" y2="835.865" gradientUnits="userSpaceOnUse">
<stop stop-color="#FBB63F" stop-opacity="0.54"/>
<stop offset="0.981306" stop-color="#B069A1" stop-opacity="0"/>
</linearGradient>
<linearGradient id="paint2_linear" x1="-145.539" y1="392.141" x2="491.998" y2="1021.97" gradientUnits="userSpaceOnUse">
<stop stop-color="#FBB63F" stop-opacity="0.54"/>
<stop offset="0.981306" stop-color="#B069A1" stop-opacity="0"/>
</linearGradient>
<linearGradient id="paint3_linear" x1="-231.326" y1="391.348" x2="492" y2="1105.93" gradientUnits="userSpaceOnUse">
<stop stop-color="#FBB63F" stop-opacity="0.54"/>
<stop offset="0.981306" stop-color="#B069A1" stop-opacity="0"/>
</linearGradient>
</defs>
</svg>
