<svg width="295" height="164" viewBox="0 0 295 164" fill="none" xmlns="http://www.w3.org/2000/svg">
<path opacity="0.2" fill-rule="evenodd" clip-rule="evenodd" d="M61.9497 154.966C67.0759 154.966 71.2314 150.81 71.2314 145.684C71.2314 140.558 67.0759 136.402 61.9497 136.402C56.8235 136.402 52.668 140.558 52.668 145.684C52.668 150.81 56.8235 154.966 61.9497 154.966Z" fill="#740B99"/>
<path opacity="0.4" fill-rule="evenodd" clip-rule="evenodd" d="M61.9488 152.454C65.6884 152.454 68.7199 149.423 68.7199 145.683C68.7199 141.944 65.6884 138.912 61.9488 138.912C58.2093 138.912 55.1777 141.944 55.1777 145.683C55.1777 149.423 58.2093 152.454 61.9488 152.454Z" fill="#740B99"/>
<path fill-rule="evenodd" clip-rule="evenodd" d="M61.9503 149.643C64.1352 149.643 65.9064 147.872 65.9064 145.687C65.9064 143.502 64.1352 141.73 61.9503 141.73C59.7654 141.73 57.9941 143.502 57.9941 145.687C57.9941 147.872 59.7654 149.643 61.9503 149.643Z" fill="#740B99"/>
<path d="M61.9492 145.684L88.5392 101.367C89.9176 99.0696 92.8619 98.267 95.2155 99.547L131.235 119.137C134.139 120.716 137.748 119.093 138.495 115.873L149.178 69.7832C150.047 66.0324 154.652 64.6304 157.464 67.2605L203.034 109.88C205.251 111.953 208.788 111.59 210.537 109.109L266.954 29.0566" stroke="#740B99" stroke-width="2"/>
<path d="M1.07031 163.528L34.4096 107.983C35.788 105.686 38.7315 104.884 41.0848 106.164L87.7923 131.557C90.6958 133.135 94.3047 131.513 95.0512 128.293L109.015 68.0718C109.885 64.3215 114.488 62.9196 117.3 65.5487L175.902 120.336C178.119 122.408 181.655 122.045 183.403 119.565L253.695 19.8633" stroke="url(#paint0_linear)"/>
<path opacity="0.2" fill-rule="evenodd" clip-rule="evenodd" d="M91.41 105.732C94.976 105.732 97.8668 102.841 97.8668 99.2752C97.8668 95.7092 94.976 92.8184 91.41 92.8184C87.844 92.8184 84.9531 95.7092 84.9531 99.2752C84.9531 102.841 87.844 105.732 91.41 105.732Z" fill="#740B99"/>
<path opacity="0.4" fill-rule="evenodd" clip-rule="evenodd" d="M91.4076 103.985C94.009 103.985 96.1179 101.876 96.1179 99.2748C96.1179 96.6733 94.009 94.5645 91.4076 94.5645C88.8062 94.5645 86.6973 96.6733 86.6973 99.2748C86.6973 101.876 88.8062 103.985 91.4076 103.985Z" fill="#740B99"/>
<path fill-rule="evenodd" clip-rule="evenodd" d="M91.4123 102.03C92.9322 102.03 94.1644 100.797 94.1644 99.2775C94.1644 97.7575 92.9322 96.5254 91.4123 96.5254C89.8923 96.5254 88.6602 97.7575 88.6602 99.2775C88.6602 100.797 89.8923 102.03 91.4123 102.03Z" fill="#740B99"/>
<path opacity="0.2" fill-rule="evenodd" clip-rule="evenodd" d="M134.992 129.944C140.787 129.944 145.485 125.246 145.485 119.451C145.485 113.657 140.787 108.959 134.992 108.959C129.198 108.959 124.5 113.657 124.5 119.451C124.5 125.246 129.198 129.944 134.992 129.944Z" fill="#740B99"/>
<path opacity="0.4" fill-rule="evenodd" clip-rule="evenodd" d="M134.988 127.105C139.216 127.105 142.643 123.678 142.643 119.451C142.643 115.224 139.216 111.797 134.988 111.797C130.761 111.797 127.334 115.224 127.334 119.451C127.334 123.678 130.761 127.105 134.988 127.105Z" fill="#740B99"/>
<path fill-rule="evenodd" clip-rule="evenodd" d="M134.998 123.925C137.467 123.925 139.47 121.923 139.47 119.453C139.47 116.983 137.467 114.98 134.998 114.98C132.528 114.98 130.525 116.983 130.525 119.453C130.525 121.923 132.528 123.925 134.998 123.925Z" fill="#740B99"/>
<path opacity="0.2" fill-rule="evenodd" clip-rule="evenodd" d="M152.749 80.7101C160.772 80.7101 167.277 74.2058 167.277 66.1822C167.277 58.1587 160.772 51.6543 152.749 51.6543C144.725 51.6543 138.221 58.1587 138.221 66.1822C138.221 74.2058 144.725 80.7101 152.749 80.7101Z" fill="#740B99"/>
<path opacity="0.4" fill-rule="evenodd" clip-rule="evenodd" d="M152.745 76.7805C158.598 76.7805 163.343 72.0355 163.343 66.1822C163.343 60.329 158.598 55.584 152.745 55.584C146.891 55.584 142.146 60.329 142.146 66.1822C142.146 72.0355 146.891 76.7805 152.745 76.7805Z" fill="#740B99"/>
<path fill-rule="evenodd" clip-rule="evenodd" d="M152.757 72.3766C156.177 72.3766 158.949 69.6043 158.949 66.1844C158.949 62.7645 156.177 59.9922 152.757 59.9922C149.337 59.9922 146.564 62.7645 146.564 66.1844C146.564 69.6043 149.337 72.3766 152.757 72.3766Z" fill="#740B99"/>
<path opacity="0.2" fill-rule="evenodd" clip-rule="evenodd" d="M206.823 127.521C217.076 127.521 225.387 119.21 225.387 108.958C225.387 98.7057 217.076 90.3945 206.823 90.3945C196.571 90.3945 188.26 98.7057 188.26 108.958C188.26 119.21 196.571 127.521 206.823 127.521Z" fill="#740B99"/>
<path opacity="0.4" fill-rule="evenodd" clip-rule="evenodd" d="M206.818 122.498C214.297 122.498 220.36 116.435 220.36 108.956C220.36 101.477 214.297 95.4141 206.818 95.4141C199.338 95.4141 193.275 101.477 193.275 108.956C193.275 116.435 199.338 122.498 206.818 122.498Z" fill="#740B99"/>
<path fill-rule="evenodd" clip-rule="evenodd" d="M206.832 116.871C211.202 116.871 214.745 113.329 214.745 108.959C214.745 104.589 211.202 101.047 206.832 101.047C202.462 101.047 198.92 104.589 198.92 108.959C198.92 113.329 202.462 116.871 206.832 116.871Z" fill="#740B99"/>
<path opacity="0.2" fill-rule="evenodd" clip-rule="evenodd" d="M264.534 60.533C281.25 60.533 294.801 46.9822 294.801 30.2665C294.801 13.5508 281.25 0 264.534 0C247.818 0 234.268 13.5508 234.268 30.2665C234.268 46.9822 247.818 60.533 264.534 60.533Z" fill="#740B99"/>
<path opacity="0.4" fill-rule="evenodd" clip-rule="evenodd" d="M264.533 52.3449C276.727 52.3449 286.612 42.4595 286.612 30.2652C286.612 18.0709 276.727 8.18555 264.533 8.18555C252.339 8.18555 242.453 18.0709 242.453 30.2652C242.453 42.4595 252.339 52.3449 264.533 52.3449Z" fill="#740B99"/>
<path fill-rule="evenodd" clip-rule="evenodd" d="M264.537 43.1701C271.662 43.1701 277.438 37.3944 277.438 30.2696C277.438 23.1449 271.662 17.3691 264.537 17.3691C257.412 17.3691 251.637 23.1449 251.637 30.2696C251.637 37.3944 257.412 43.1701 264.537 43.1701Z" fill="#740B99"/>
<defs>
<linearGradient id="paint0_linear" x1="-114.503" y1="93.7315" x2="145.371" y2="227.591" gradientUnits="userSpaceOnUse">
<stop stop-color="#7D15A1"/>
<stop offset="1" stop-color="#B675A8" stop-opacity="0"/>
</linearGradient>
</defs>
</svg>
