<svg width="102" height="102" viewBox="0 0 102 102" fill="none" xmlns="http://www.w3.org/2000/svg">
<path d="M88.6276 66.1727L88.6276 65.5227L87.9776 65.5227L52.9126 65.5227L52.2626 65.5227L52.2626 66.1727L52.2626 79.5436L52.2626 80.0743L52.7827 80.1804C57.4809 81.1388 61.0288 85.305 61.0288 90.2799C61.0288 95.9627 56.4038 100.588 50.721 100.588C45.0382 100.588 40.4132 95.9627 40.4132 90.2799C40.4132 85.303 43.961 81.1388 48.6594 80.1804L49.1794 80.0743L49.1794 79.5436L49.1794 66.1727L49.1794 65.5227L48.5294 65.5227L13.4644 65.5227L12.8144 65.5227L12.8144 66.1727L12.8144 79.5436L12.8144 80.0743L13.3345 80.1804C18.0328 81.1388 21.5807 85.305 21.5807 90.2799C21.5807 95.9627 16.9557 100.588 11.2729 100.588C5.59008 100.588 0.965061 95.9626 0.965061 90.2799C0.965061 85.303 4.51291 81.1388 9.21122 80.1804L9.73131 80.0743L9.73131 79.5436L9.73131 63.9811C9.73131 63.1277 10.4194 62.4395 11.2729 62.4395L22.2307 62.4395L22.8807 62.4395L22.8807 61.7895L22.8807 53.0233L22.8807 52.3733L22.2307 52.3733L20.0391 52.3733C9.52163 52.3733 0.965063 43.8167 0.965064 33.2992C0.965064 24.7913 6.46647 17.4609 14.4914 15.0363L14.8249 14.9356L14.9256 14.6021C17.3502 6.57718 24.6806 1.07578 33.1885 1.07578C40.5598 1.07578 46.9675 5.27675 50.1437 11.4169L50.721 12.5329L51.2983 11.4169C54.4745 5.27675 60.8822 1.07578 68.2535 1.07578C76.7614 1.07578 84.0918 6.57718 86.5164 14.6021L86.6171 14.9356L86.9506 15.0363C94.9756 17.4609 100.477 24.7913 100.477 33.2992C100.477 43.8167 91.9204 52.3733 81.4029 52.3733L79.2113 52.3733L78.5613 52.3733L78.5613 53.0233L78.5613 61.7895L78.5613 62.4395L79.2113 62.4395L90.1691 62.4395C91.0226 62.4395 91.7107 63.1277 91.7107 63.9811L91.7107 79.5436L91.7107 80.0743L92.2308 80.1804C96.929 81.1388 100.477 85.305 100.477 90.2799C100.477 95.9627 95.8519 100.588 90.1691 100.588C84.4863 100.588 79.8613 95.9627 79.8613 90.2799C79.8613 85.303 83.4092 81.1388 88.1075 80.1804L88.6276 80.0743L88.6276 79.5436L88.6276 66.1727ZM25.9638 61.7895L25.9638 62.4395L26.6138 62.4395L48.5294 62.4395L49.1794 62.4395L49.1794 61.7895L49.1794 53.0233L49.1794 52.3733L48.5294 52.3733L26.6138 52.3733L25.9638 52.3733L25.9638 53.0233L25.9638 61.7895ZM52.9126 52.3733L52.2626 52.3733L52.2626 53.0233L52.2626 61.7895L52.2626 62.4395L52.9126 62.4395L74.8282 62.4395L75.4782 62.4395L75.4782 61.7895L75.4782 53.0233L75.4782 52.3733L74.8282 52.3733L52.9126 52.3733Z" stroke="url(#paint0_linear)" stroke-width="1.3"/>
<defs>
<linearGradient id="paint0_linear" x1="-224.341" y1="-135.18" x2="-235.3" y2="92.2515" gradientUnits="userSpaceOnUse">
<stop stop-color="#0037F8"/>
<stop offset="1" stop-color="#740B99"/>
</linearGradient>
</defs>
</svg>
