<svg width="84" height="118" viewBox="0 0 84 118" fill="none" xmlns="http://www.w3.org/2000/svg">
<path d="M42.6173 100.738C40.3259 100.738 38.4668 102.601 38.4668 104.896C38.4668 107.192 40.3259 109.052 42.6173 109.052C44.9088 109.052 46.766 107.192 46.766 104.896C46.766 102.601 44.9088 100.738 42.6173 100.738" stroke="url(#paint0_linear)" stroke-width="1.5"/>
<path d="M8.41235 95.7124V94.9624H7.66235V95.7124H8.41235ZM75.7839 95.7124H76.5339V94.9624H75.7839V95.7124ZM81.7595 39.7996L82.4868 39.6165L82.4868 39.6165L81.7595 39.7996ZM80.0625 38.7815L80.2486 39.5081L80.2494 39.5079L80.0625 38.7815ZM76.8362 39.608L77.022 40.3346L77.0223 40.3345L76.8362 39.608ZM74.4201 40.226L73.6999 40.4353L73.9026 41.1325L74.606 40.9526L74.4201 40.226ZM67.2149 27.2524L66.6894 26.7172L66.1775 27.2197L66.6568 27.7535L67.2149 27.2524ZM71.3875 23.1558L70.8622 22.6204L70.8621 22.6206L71.3875 23.1558ZM71.4117 21.1628L71.9514 20.642L71.9514 20.642L71.4117 21.1628ZM53.2122 10.2404L53.0022 10.9604L53.0069 10.9617L53.2122 10.2404ZM51.4873 11.2134L52.2095 11.4155L52.2103 11.4128L51.4873 11.2134ZM49.9058 16.8634L49.7272 17.5918L50.4323 17.7646L50.628 17.0655L49.9058 16.8634ZM35.1618 16.668L34.4345 16.8511L34.6116 17.555L35.321 17.4009L35.1618 16.668ZM33.7293 10.9767L33.002 11.1597L33.002 11.1598L33.7293 10.9767ZM32.0323 9.95676L31.8498 9.22928L31.8462 9.23022L32.0323 9.95676ZM13.5478 20.3927L14.0709 20.9303L14.0734 20.9277L13.5478 20.3927ZM13.125 21.3826L13.8749 21.3938L13.8749 21.3938L13.125 21.3826ZM13.5217 22.3838L12.9817 22.9042L12.9823 22.9048L13.5217 22.3838ZM17.5845 26.5893L18.1292 27.1049L18.6221 26.584L18.1239 26.0682L17.5845 26.5893ZM10.0439 39.3676L9.83879 40.089L10.5374 40.2876L10.7584 39.5957L10.0439 39.3676ZM5.61791 38.1072L5.41301 38.8287L6.36791 39.0999V38.1072H5.61791ZM4.44062 37.7729L4.229 38.4924L4.23573 38.4943L4.44062 37.7729ZM3.37883 37.8987L3.74921 38.5509L3.75245 38.549L3.37883 37.8987ZM2.71568 38.7458L1.99353 38.5434L1.9934 38.5438L2.71568 38.7458ZM2.43626 60.1024L1.70895 60.2855L1.70896 60.2855L2.43626 60.1024ZM3.0752 60.9664L3.46177 60.3237L3.45897 60.3221L3.0752 60.9664ZM4.13326 61.1223L4.31212 61.8507L4.31926 61.8489L4.13326 61.1223ZM9.77566 59.6779L10.4959 59.4686L10.2932 58.7712L9.58966 58.9513L9.77566 59.6779ZM16.9809 72.6496L17.5065 73.1847L18.0181 72.6821L17.539 72.1485L16.9809 72.6496ZM12.8083 76.7481L12.2827 76.2131L12.2821 76.2137L12.8083 76.7481ZM12.7841 78.7391L12.2444 79.26L12.2446 79.2602L12.7841 78.7391ZM30.9835 89.6616L31.1924 88.9413L31.1888 88.9402L30.9835 89.6616ZM32.7085 88.6886L31.9863 88.4865L31.9861 88.487L32.7085 88.6886ZM34.29 83.0386L34.4685 82.3102L33.7634 82.1374L33.5678 82.8365L34.29 83.0386ZM49.0359 83.2359L49.7632 83.0527L49.586 82.3491L48.8768 82.5029L49.0359 83.2359ZM50.4683 88.9253L51.1958 88.7428L51.1957 88.7422L50.4683 88.9253ZM52.1654 89.9452L51.9794 89.2186L51.9736 89.2202L52.1654 89.9452ZM70.648 79.5111L70.1227 78.9758L70.1226 78.9759L70.648 79.5111ZM70.674 77.5182L71.2137 76.9974L71.2135 76.9971L70.674 77.5182ZM66.6113 73.3127L66.0668 72.7969L65.5734 73.3177L66.0719 73.8338L66.6113 73.3127ZM78.5779 61.7948L78.7822 61.0731L77.8279 60.803V61.7948H78.5779ZM79.7589 62.1291L79.9751 61.4108L79.9632 61.4075L79.7589 62.1291ZM81.482 61.1561L80.7597 60.954L80.7595 60.9548L81.482 61.1561ZM64.2905 112.76H19.9058V114.26H64.2905V112.76ZM19.9058 112.76C13.9886 112.76 9.16235 107.902 9.16235 101.92H7.66235C7.66235 108.719 13.1485 114.26 19.9058 114.26V112.76ZM9.16235 101.92V95.7124H7.66235V101.92H9.16235ZM8.41235 96.4624H75.7839V94.9624H8.41235V96.4624ZM75.0339 95.7124V101.92H76.5339V95.7124H75.0339ZM75.0339 101.92C75.0339 107.902 70.2077 112.76 64.2905 112.76V114.26C71.0478 114.26 76.5339 108.719 76.5339 101.92H75.0339ZM82.4868 39.6165C82.3475 39.0631 81.9967 38.5873 81.5072 38.2929L80.734 39.5783C80.8815 39.667 80.989 39.8111 81.0322 39.9827L82.4868 39.6165ZM81.5072 38.2929C81.0154 37.9971 80.4268 37.9133 79.8756 38.0552L80.2494 39.5079C80.4135 39.4656 80.5887 39.4908 80.734 39.5783L81.5072 38.2929ZM79.8764 38.055L76.6501 38.8815L77.0223 40.3345L80.2486 39.5081L79.8764 38.055ZM76.6503 38.8814L74.2343 39.4994L74.606 40.9526L77.022 40.3346L76.6503 38.8814ZM75.1403 40.0166C73.6672 34.9481 71.2908 30.669 67.7729 26.7513L66.6568 27.7535C70.0238 31.5031 72.2895 35.5825 73.6999 40.4353L75.1403 40.0166ZM67.7403 27.7876L71.9129 23.6909L70.8621 22.6206L66.6894 26.7172L67.7403 27.7876ZM71.9128 23.6911C72.762 22.8579 72.7737 21.4942 71.9514 20.642L70.872 21.6837C71.1264 21.9473 71.1195 22.368 70.8622 22.6204L71.9128 23.6911ZM71.9514 20.642C66.6439 15.1431 60.7428 11.6046 53.4176 9.51905L53.0069 10.9617C60.0774 12.9747 65.7479 16.3747 70.8721 21.6837L71.9514 20.642ZM53.4223 9.52039C52.2645 9.18268 51.0799 9.87014 50.7643 11.0139L52.2103 11.4128C52.3083 11.0577 52.666 10.8623 53.0022 10.9604L53.4223 9.52039ZM50.7651 11.0112L49.1835 16.6612L50.628 17.0655L52.2095 11.4155L50.7651 11.0112ZM50.0843 16.1349C44.9925 14.8869 40.1306 14.8215 35.0026 15.9351L35.321 17.4009C40.226 16.3357 44.8569 16.398 49.7272 17.5918L50.0843 16.1349ZM35.8891 16.485L34.4566 10.7936L33.002 11.1598L34.4345 16.8511L35.8891 16.485ZM34.4566 10.7937C34.1653 9.63589 32.9916 8.94293 31.8498 9.22929L32.2148 10.6842C32.5558 10.5987 32.9133 10.8073 33.002 11.1597L34.4566 10.7937ZM31.8462 9.23022C24.466 11.1207 18.4756 14.5003 13.0222 19.8577L14.0734 20.9277C19.3385 15.7553 25.0949 12.5081 32.2184 10.6833L31.8462 9.23022ZM13.0248 19.8552C12.6128 20.2561 12.3835 20.8037 12.375 21.3714L13.8749 21.3938C13.8776 21.2139 13.9501 21.0478 14.0709 20.9302L13.0248 19.8552ZM12.375 21.3714C12.3664 21.9462 12.5894 22.4971 12.9817 22.9042L14.0618 21.8633C13.94 21.7369 13.8723 21.5666 13.8749 21.3938L12.375 21.3714ZM12.9823 22.9048L17.0451 27.1104L18.1239 26.0682L14.0611 21.8627L12.9823 22.9048ZM17.0398 26.0738C13.4228 29.8956 10.9358 34.1093 9.32945 39.1394L10.7584 39.5957C12.2964 34.7796 14.6676 30.7625 18.1292 27.1049L17.0398 26.0738ZM10.249 38.6462L8.61721 38.1822L8.20699 39.625L9.83879 40.089L10.249 38.6462ZM79.3279 35.0324V15.3814H77.8279V35.0324H79.3279ZM79.3279 15.3814C79.3279 7.02966 72.59 0.224609 64.2903 0.224609V1.72461C71.7497 1.72461 77.8279 7.84619 77.8279 15.3814H79.3279ZM64.2903 0.224609H19.9055V1.72461H64.2903V0.224609ZM19.9055 0.224609C11.6058 0.224609 4.86791 7.02966 4.86791 15.3814H6.36791C6.36791 7.84619 12.446 1.72461 19.9055 1.72461V0.224609ZM4.86791 15.3814V38.1072H6.36791V15.3814H4.86791ZM5.8228 37.3857L4.64552 37.0514L4.23573 38.4943L5.41301 38.8287L5.8228 37.3857ZM4.65224 37.0533C4.09692 36.89 3.50188 36.9631 3.00521 37.2484L3.75245 38.549C3.89658 38.4662 4.06902 38.4453 4.22901 38.4924L4.65224 37.0533ZM3.00846 37.2466C2.51282 37.528 2.14764 37.9937 1.99353 38.5434L3.43783 38.9483C3.48489 38.7805 3.5966 38.6376 3.74921 38.5509L3.00846 37.2466ZM1.9934 38.5438C-0.0721989 45.9292 -0.163377 52.8484 1.70895 60.2855L3.16357 59.9193C1.35502 52.7355 1.44267 46.0819 3.43796 38.9479L1.9934 38.5438ZM1.70896 60.2855C1.84779 60.8369 2.19774 61.3168 2.69142 61.6108L3.45897 60.3221C3.31558 60.2367 3.20729 60.0929 3.16356 59.9193L1.70896 60.2855ZM2.68863 61.6091C3.1828 61.9064 3.76696 61.9846 4.31211 61.8507L3.95441 60.394C3.78053 60.4367 3.60467 60.4097 3.46176 60.3237L2.68863 61.6091ZM4.31926 61.8489L9.96166 60.4045L9.58966 58.9513L3.94726 60.3958L4.31926 61.8489ZM9.05546 59.8872C10.5287 64.9559 12.905 69.233 16.4229 73.1507L17.539 72.1485C14.172 68.3989 11.9063 64.3212 10.4959 59.4686L9.05546 59.8872ZM16.4554 72.1145L12.2827 76.2131L13.3338 77.2832L17.5065 73.1847L16.4554 72.1145ZM12.2821 76.2137C11.4371 77.0456 11.4209 78.4067 12.2444 79.26L13.3238 78.2183C13.0705 77.9559 13.0767 77.5363 13.3345 77.2826L12.2821 76.2137ZM12.2446 79.2602C17.5556 84.7588 23.4547 88.2993 30.7783 90.383L31.1888 88.9402C24.1205 86.9292 18.4517 83.5274 13.3235 78.2181L12.2446 79.2602ZM30.7747 90.3819C31.9304 90.717 33.1129 90.0296 33.4309 88.8902L31.9861 88.487C31.8868 88.8428 31.5269 89.0383 31.1924 88.9413L30.7747 90.3819ZM33.4307 88.8908L35.0122 83.2408L33.5678 82.8365L31.9863 88.4865L33.4307 88.8908ZM34.1115 83.7671C39.2033 85.0151 44.0707 85.0805 49.1949 83.9688L48.8768 82.5029C43.9755 83.5663 39.339 83.504 34.4685 82.3102L34.1115 83.7671ZM48.3086 83.419L49.741 89.1084L51.1957 88.7422L49.7632 83.0527L48.3086 83.419ZM49.7409 89.1078C49.9858 90.0843 50.8572 90.7384 51.8207 90.7384V89.2384C51.5362 89.2384 51.2713 89.0436 51.1958 88.7428L49.7409 89.1078ZM51.8207 90.7384C51.9909 90.7384 52.1734 90.7189 52.3571 90.6703L51.9736 89.2202C51.93 89.2317 51.8779 89.2384 51.8207 89.2384V90.7384ZM52.3513 90.6718C59.7299 88.7831 65.7184 85.4016 71.1734 80.0463L70.1226 78.9759C64.8553 84.1468 59.1008 87.3958 51.9794 89.2187L52.3513 90.6718ZM71.1732 80.0465C72.0212 79.2145 72.0373 77.8509 71.2137 76.9974L70.1344 78.039C70.3875 78.3013 70.3813 78.7221 70.1227 78.9758L71.1732 80.0465ZM71.2135 76.9971L67.1507 72.7916L66.0719 73.8338L70.1346 78.0393L71.2135 76.9971ZM67.1558 73.8285C70.7768 70.0064 73.2619 65.7925 74.8664 60.7643L73.4374 60.3083C71.9012 65.1225 69.5319 69.1394 66.0668 72.7969L67.1558 73.8285ZM4.86791 65.2697V101.92H6.36791V65.2697H4.86791ZM4.86791 101.92C4.86791 110.271 11.6058 117.076 19.9055 117.076V115.576C12.446 115.576 6.36791 109.455 6.36791 101.92H4.86791ZM19.9055 117.076H64.2903V115.576H19.9055V117.076ZM64.2903 117.076C72.59 117.076 79.3279 110.271 79.3279 101.92H77.8279C77.8279 109.455 71.7497 115.576 64.2903 115.576V117.076ZM79.3279 101.92V61.7948H77.8279V101.92H79.3279ZM78.3736 62.5164L79.5546 62.8508L79.9632 61.4075L78.7822 61.0731L78.3736 62.5164ZM79.5427 62.8473C79.7435 62.9077 79.9454 62.9336 80.137 62.9336V61.4336C80.079 61.4336 80.0238 61.4256 79.9751 61.4109L79.5427 62.8473ZM80.137 62.9336C81.0788 62.9336 81.9393 62.3092 82.2044 61.3575L80.7595 60.9548C80.6782 61.2466 80.4173 61.4336 80.137 61.4336V62.9336ZM82.2042 61.3582C84.2699 53.9764 84.3591 47.0553 82.4868 39.6165L81.0322 39.9826C82.8408 47.1685 82.7549 53.824 80.7597 60.954L82.2042 61.3582Z" fill="url(#paint1_linear)"/>
<path d="M27.4546 32.7298C31.6333 29.0054 37.0186 26.9551 42.6186 26.9551C55.2028 26.9551 65.4405 37.2124 65.4405 49.8185C65.4405 62.4246 55.2028 72.6801 42.6186 72.6801C30.0326 72.6801 19.7949 62.4246 19.7949 49.8185C19.7949 47.555 20.1243 45.3174 20.7739 43.1706" stroke="url(#paint2_linear)" stroke-width="1.5"/>
<defs>
<linearGradient id="paint0_linear" x1="27.3032" y1="127.579" x2="46.0264" y2="128.479" gradientUnits="userSpaceOnUse">
<stop stop-color="#0037F8"/>
<stop offset="1" stop-color="#740B99"/>
</linearGradient>
<linearGradient id="paint1_linear" x1="-109.119" y1="373.383" x2="75.9827" y2="379.721" gradientUnits="userSpaceOnUse">
<stop stop-color="#0037F8"/>
<stop offset="1" stop-color="#740B99"/>
</linearGradient>
<linearGradient id="paint2_linear" x1="-41.6047" y1="174.577" x2="61.3725" y2="179.53" gradientUnits="userSpaceOnUse">
<stop stop-color="#0037F8"/>
<stop offset="1" stop-color="#740B99"/>
</linearGradient>
</defs>
</svg>
