<svg width="113" height="116" viewBox="0 0 113 116" fill="none" xmlns="http://www.w3.org/2000/svg">
<path d="M104.88 67.4133L104.767 67.9761L105.264 68.2634L109.227 70.5541L109.627 69.8615L109.227 70.5541C111.368 71.7913 112.105 74.5435 110.868 76.6876L100.077 95.401C98.8406 97.544 96.092 98.2808 93.9524 97.044L89.9801 94.7479L89.4823 94.4601L89.0509 94.8402C84.1217 99.1825 78.3506 102.533 72.2357 104.606L71.6925 104.79V105.364V109.909C71.6925 112.385 69.6797 114.399 67.209 114.399H45.6252C43.1545 114.399 41.1416 112.385 41.1416 109.909V105.364V104.791L40.5982 104.607C34.4489 102.525 28.6702 99.1779 23.76 94.8534L23.3286 94.4734L22.8309 94.7611L18.8818 97.0439C18.8818 97.0439 18.8818 97.044 18.8817 97.044C16.7416 98.2808 13.9936 97.544 12.7576 95.4009L1.96571 76.6876C0.729512 74.5435 1.46661 71.7913 3.60699 70.5541L3.20665 69.8615L3.607 70.5541L7.55324 68.2731L8.04978 67.9861L7.93738 67.4237C7.29329 64.2009 6.96723 60.9318 6.96723 57.6891C6.96723 54.4946 7.29858 51.2289 7.95367 47.9646L8.06661 47.4018L7.56966 47.1145L3.60678 44.8238L3.60672 44.8238C2.56837 44.2237 1.8279 43.2578 1.51756 42.0979C1.20718 40.9378 1.36587 39.7305 1.96564 38.6907L1.96567 38.6906L12.7575 19.9773C13.3574 18.9374 14.322 18.1965 15.48 17.8858C16.6379 17.5751 17.8431 17.7339 18.8817 18.3342C18.8818 18.3342 18.8818 18.3342 18.8818 18.3342L22.8543 20.6306L23.3521 20.9183L23.7835 20.5382C28.7127 16.1957 34.4837 12.8447 40.5984 10.772L41.1416 10.5879V10.0144V5.4692C41.1416 2.99352 43.1545 0.979688 45.6252 0.979688H67.209C69.6797 0.979688 71.6925 2.99352 71.6925 5.4692V10.0141V10.5879L72.236 10.7719C78.3848 12.8535 84.1637 16.2003 89.0737 20.5248L89.5051 20.9047L90.0028 20.6171L93.9521 18.3342C94.9907 17.734 96.1957 17.5753 97.3541 17.8858C98.5119 18.1963 99.4765 18.9373 100.076 19.9772C100.076 19.9773 100.076 19.9773 100.076 19.9773L110.868 38.6906L110.868 38.6907C111.468 39.7305 111.627 40.9378 111.316 42.0979C111.006 43.2578 110.266 44.2237 109.227 44.8238L109.227 44.8238L105.281 47.1049L104.784 47.3919L104.897 47.9543C105.541 51.1768 105.867 54.4459 105.867 57.6891C105.867 60.8834 105.536 64.1491 104.88 67.4133Z" stroke="url(#paint0_linear)" stroke-width="1.6"/>
<path d="M22.882 57.6878C22.882 39.1945 37.9286 24.1477 56.4222 24.1477C74.9157 24.1477 89.9623 39.1945 89.9623 57.6878C89.9623 76.1811 74.9157 91.228 56.4222 91.228C37.9286 91.228 22.882 76.1811 22.882 57.6878Z" stroke="url(#paint1_linear)" stroke-width="1.6"/>
<path d="M73.2372 18.025C72.0749 17.5668 70.8755 17.1541 69.6719 16.7988" stroke="url(#paint2_linear)" stroke-width="1.6"/>
<path d="M18.9492 78.1465C19.5712 79.5157 20.2598 80.8625 20.9957 82.1496C21.2863 82.6577 21.7554 82.9309 22.2327 82.9309" stroke="url(#paint3_linear)" stroke-width="1.6"/>
<path d="M26.7227 88.3125C33.7125 95.1949 42.8838 99.4514 52.5468 100.298C52.5953 100.302 52.6434 100.304 52.6913 100.304" stroke="url(#paint4_linear)" stroke-width="1.6"/>
<path d="M80.9648 21.9844C89.4001 27.7312 95.5025 36.2847 98.1477 46.0693" stroke="url(#paint5_linear)" stroke-width="1.6"/>
<defs>
<linearGradient id="paint0_linear" x1="-149.701" y1="371.514" x2="102.347" y2="383.31" gradientUnits="userSpaceOnUse">
<stop stop-color="#0037F8"/>
<stop offset="1" stop-color="#740B99"/>
</linearGradient>
<linearGradient id="paint1_linear" x1="-70.3025" y1="245.08" x2="84.6403" y2="252.546" gradientUnits="userSpaceOnUse">
<stop stop-color="#0037F8"/>
<stop offset="1" stop-color="#740B99"/>
</linearGradient>
<linearGradient id="paint2_linear" x1="64.876" y1="20.7575" x2="72.7829" y2="21.8654" gradientUnits="userSpaceOnUse">
<stop stop-color="#0037F8"/>
<stop offset="1" stop-color="#740B99"/>
</linearGradient>
<linearGradient id="paint3_linear" x1="14.5324" y1="93.5927" x2="21.9492" y2="93.838" gradientUnits="userSpaceOnUse">
<stop stop-color="#0037F8"/>
<stop offset="1" stop-color="#740B99"/>
</linearGradient>
<linearGradient id="paint4_linear" x1="-8.20873" y1="127.027" x2="49.8799" y2="133.089" gradientUnits="userSpaceOnUse">
<stop stop-color="#0037F8"/>
<stop offset="1" stop-color="#740B99"/>
</linearGradient>
<linearGradient id="paint5_linear" x1="57.8516" y1="99.7418" x2="96.6602" y2="101.076" gradientUnits="userSpaceOnUse">
<stop stop-color="#0037F8"/>
<stop offset="1" stop-color="#740B99"/>
</linearGradient>
</defs>
</svg>
