<svg width="90" height="100" viewBox="0 0 90 100" fill="none" xmlns="http://www.w3.org/2000/svg">
<path fill-rule="evenodd" clip-rule="evenodd" d="M45.0562 77.5801C29.6575 77.5801 17.1679 65.0957 17.1679 49.6974C17.1679 34.2977 29.6575 21.8146 45.0562 21.8146C60.4409 21.8146 72.9308 34.2975 72.9308 49.6974C72.9308 65.0959 60.4409 77.5801 45.0562 77.5801ZM15.6934 49.6974C15.6934 65.9104 28.8435 79.0547 45.0562 79.0547C61.2554 79.0547 74.4053 65.9102 74.4053 49.6974C74.4053 33.4832 61.2553 20.3401 45.0562 20.3401C28.8435 20.3401 15.6934 33.4829 15.6934 49.6974Z" fill="url(#paint0_linear)"/>
<path fill-rule="evenodd" clip-rule="evenodd" d="M45.0516 68.5978C34.6119 68.5978 26.1424 60.1357 26.1424 49.6968C26.1424 39.2593 34.6119 30.7972 45.0516 30.7972C55.4906 30.7972 63.9471 39.2586 63.9471 49.6968C63.9471 60.1363 55.4906 68.5978 45.0516 68.5978ZM24.6738 49.6968C24.6738 60.9475 33.8016 70.0664 45.0516 70.0664C56.3022 70.0664 65.4158 60.9469 65.4158 49.6968C65.4158 38.448 56.3022 29.3286 45.0516 29.3286C33.8017 29.3286 24.6738 38.4473 24.6738 49.6968Z" fill="url(#paint1_linear)"/>
<path fill-rule="evenodd" clip-rule="evenodd" d="M45.056 27.6914C45.4579 27.6914 45.7838 27.3655 45.7838 26.9636V24.3242C45.7838 23.9223 45.4579 23.5964 45.056 23.5964C44.654 23.5964 44.3281 23.9223 44.3281 24.3242V26.9636C44.3281 27.3655 44.654 27.6914 45.056 27.6914Z" fill="url(#paint2_linear)"/>
<path fill-rule="evenodd" clip-rule="evenodd" d="M38.2548 28.7715C38.6362 28.6487 38.8458 28.2399 38.723 27.8585L37.9143 25.3476C37.7915 24.9662 37.3827 24.7566 37.0013 24.8795C36.6199 25.0023 36.4103 25.4111 36.5332 25.7925L37.3418 28.3033C37.4647 28.6847 37.8734 28.8943 38.2548 28.7715Z" fill="url(#paint3_linear)"/>
<path fill-rule="evenodd" clip-rule="evenodd" d="M32.113 31.8977C32.4366 31.6635 32.5091 31.2112 32.2749 30.8876L30.7294 28.7521C30.4952 28.4284 30.0429 28.3559 29.7193 28.5901C29.3956 28.8244 29.3231 29.2766 29.5573 29.6003L31.1028 31.7358C31.337 32.0595 31.7893 32.132 32.113 31.8977Z" fill="url(#paint4_linear)"/>
<path fill-rule="evenodd" clip-rule="evenodd" d="M27.243 36.7656C27.4765 36.4426 27.404 35.9914 27.081 35.7578L24.9358 34.2064C24.6127 33.9729 24.1615 34.0454 23.928 34.3684C23.6944 34.6914 23.7669 35.1426 24.0899 35.3762L26.2352 36.9275C26.5582 37.1611 27.0094 37.0886 27.243 36.7656Z" fill="url(#paint5_linear)"/>
<path fill-rule="evenodd" clip-rule="evenodd" d="M24.1207 42.891C24.244 42.5125 24.0371 42.1058 23.6586 41.9825L21.155 41.1672C20.7765 41.044 20.3698 41.2508 20.2466 41.6293C20.1233 42.0078 20.3302 42.4145 20.7087 42.5377L23.2123 43.3531C23.5907 43.4763 23.9975 43.2694 24.1207 42.891Z" fill="url(#paint6_linear)"/>
<path fill-rule="evenodd" clip-rule="evenodd" d="M18.9629 49.6977C18.9629 50.0955 19.2854 50.418 19.6832 50.418H22.3194C22.7172 50.418 23.0397 50.0955 23.0397 49.6977C23.0397 49.2998 22.7172 48.9773 22.3194 48.9773H19.6832C19.2854 48.9773 18.9629 49.2998 18.9629 49.6977Z" fill="url(#paint7_linear)"/>
<path fill-rule="evenodd" clip-rule="evenodd" d="M67.043 49.6974C67.043 50.104 67.3726 50.4336 67.7792 50.4336H70.4187C70.8253 50.4336 71.1549 50.104 71.1549 49.6974C71.1549 49.2908 70.8253 48.9612 70.4187 48.9612H67.7792C67.3726 48.9612 67.043 49.2908 67.043 49.6974Z" fill="url(#paint8_linear)"/>
<path fill-rule="evenodd" clip-rule="evenodd" d="M65.9598 42.9009C66.085 43.2875 66.5 43.4994 66.8865 43.3742L69.4017 42.5595C69.7883 42.4343 70.0002 42.0194 69.8749 41.6328C69.7497 41.2462 69.3348 41.0343 68.9482 41.1595L66.4331 41.9742C66.0465 42.0994 65.8346 42.5143 65.9598 42.9009Z" fill="url(#paint9_linear)"/>
<path fill-rule="evenodd" clip-rule="evenodd" d="M62.8502 36.7725C63.0893 37.1003 63.5488 37.1721 63.8766 36.933L66.0054 35.3801C66.3332 35.1409 66.4051 34.6814 66.1659 34.3536C65.9268 34.0259 65.4673 33.954 65.1395 34.1931L63.0107 35.7461C62.6829 35.9852 62.6111 36.4447 62.8502 36.7725Z" fill="url(#paint10_linear)"/>
<path fill-rule="evenodd" clip-rule="evenodd" d="M57.9796 31.9009C58.3069 32.1389 58.7652 32.0664 59.0032 31.7391L60.5551 29.6048C60.793 29.2774 60.7206 28.8192 60.3933 28.5812C60.066 28.3432 59.6077 28.4156 59.3697 28.7429L57.8179 30.8773C57.5799 31.2046 57.6523 31.6629 57.9796 31.9009Z" fill="url(#paint11_linear)"/>
<path fill-rule="evenodd" clip-rule="evenodd" d="M51.8412 28.7786C52.2249 28.9031 52.6369 28.6929 52.7613 28.3092L53.5755 25.7989C53.6999 25.4152 53.4897 25.0033 53.106 24.8788C52.7223 24.7544 52.3103 24.9645 52.1859 25.3483L51.3718 27.8585C51.2473 28.2422 51.4575 28.6542 51.8412 28.7786Z" fill="url(#paint12_linear)"/>
<path fill-rule="evenodd" clip-rule="evenodd" d="M45.0479 99.8086L45.259 99.7462C71.2633 92.0593 82.1242 70.3881 86.4904 50.8093C88.675 41.0131 89.2453 31.7016 89.2708 24.8432C89.2835 21.4125 89.1599 18.592 89.0328 16.6268C88.9693 15.6442 88.9049 14.8752 88.8562 14.3505C88.8318 14.0881 88.8114 13.8868 88.797 13.7504C88.7927 13.7095 88.7889 13.6745 88.7857 13.6454C88.7836 13.6259 88.7817 13.609 88.7802 13.5949L88.7772 13.5689L88.7756 13.5545L88.7744 13.5438L88.774 13.5409C88.7739 13.5401 88.7739 13.5395 88.0342 13.6266L88.7739 13.5395L88.6868 12.7999L87.9471 12.887C74.8498 14.429 64.2415 11.4364 56.9066 8.05984C53.2385 6.37124 50.3909 4.5873 48.464 3.2287C47.5007 2.54954 46.7681 1.97711 46.2788 1.5767C46.0341 1.37651 45.8503 1.21937 45.729 1.11346C45.6683 1.06051 45.6233 1.02036 45.594 0.994055C45.5794 0.980899 45.5687 0.971203 45.562 0.965093L45.555 0.958638L45.5539 0.957657L45.5537 0.957456L45.5536 0.957378L45.0479 0.489115L44.5422 0.957378L44.5421 0.957456L44.5419 0.957657L44.5408 0.958638L44.5338 0.965093C44.5298 0.968775 44.5243 0.973755 44.5174 0.980009L44.5018 0.994055C44.4725 1.02036 44.4275 1.06051 44.3668 1.11346C44.2455 1.21937 44.0617 1.37651 43.817 1.5767C43.3277 1.9771 42.5951 2.54954 41.6318 3.2287C39.7049 4.5873 36.8573 6.37124 33.1892 8.05984C25.8543 11.4364 15.246 14.429 2.14867 12.887L1.40919 12.7999L1.32196 13.5394L2.06159 13.6266C1.32196 13.5394 1.3219 13.5399 1.3218 13.5407L1.32146 13.5437L1.32022 13.5543C1.31916 13.5636 1.31762 13.5771 1.31565 13.5947C1.31169 13.63 1.30598 13.682 1.29876 13.7502C1.28432 13.8867 1.26387 14.088 1.23948 14.3504C1.1907 14.8751 1.12615 15.6441 1.06244 16.6267C0.935035 18.5918 0.810918 21.4124 0.823094 24.843C0.847434 31.7015 1.41648 41.013 3.60022 50.8092C7.96471 70.3881 18.8256 92.0594 44.8368 99.7462L45.0479 99.8086ZM2.72614 14.4502C15.806 15.8318 26.4253 12.8133 33.812 9.41287C37.5752 7.68052 40.5013 5.84833 42.4901 4.44605C43.4848 3.74477 44.2457 3.15058 44.7603 2.72947C44.8667 2.64239 44.9626 2.56269 45.0479 2.49098C45.1332 2.56269 45.2291 2.64239 45.3355 2.72947C45.8502 3.15058 46.611 3.74477 47.6057 4.44605C49.5946 5.84833 52.5206 7.68052 56.2838 9.41287C63.6705 12.8133 74.2897 15.8318 87.3695 14.4502C87.3707 14.4627 87.3719 14.4753 87.3731 14.4881C87.4205 14.9999 87.4838 15.755 87.5464 16.7229C87.6716 18.659 87.7939 21.4453 87.7813 24.8376C87.7561 31.6252 87.1911 40.8239 85.0366 50.485C80.7366 69.7669 70.1516 90.7349 45.0479 98.255C19.9373 90.7349 9.35228 69.7668 5.05404 50.4851C2.9004 40.824 2.33668 31.6253 2.31259 24.8378C2.30055 21.4455 2.42331 18.6591 2.54883 16.7231C2.61158 15.7552 2.67501 15 2.72259 14.4882C2.72378 14.4754 2.72496 14.4627 2.72614 14.4502Z" fill="url(#paint13_linear)"/>
<path fill-rule="evenodd" clip-rule="evenodd" d="M45.056 21.8047C45.4579 21.8047 45.7838 21.4788 45.7838 21.0769V1.49866C45.7838 1.0967 45.4579 0.770837 45.056 0.770837C44.654 0.770837 44.3281 1.0967 44.3281 1.49866V21.0769C44.3281 21.4788 44.654 21.8047 45.056 21.8047Z" fill="url(#paint14_linear)"/>
<path fill-rule="evenodd" clip-rule="evenodd" d="M45.056 99.5977C45.4579 99.5977 45.7838 99.2718 45.7838 98.8698V78.3112C45.7838 77.9093 45.4579 77.5834 45.056 77.5834C44.654 77.5834 44.3281 77.9093 44.3281 78.3112V98.8698C44.3281 99.2718 44.654 99.5977 45.056 99.5977Z" fill="url(#paint15_linear)"/>
<defs>
<linearGradient id="paint0_linear" x1="-60.5626" y1="-106.479" x2="68.5651" y2="-112.701" gradientUnits="userSpaceOnUse">
<stop stop-color="#0037F8"/>
<stop offset="1" stop-color="#740B99"/>
</linearGradient>
<linearGradient id="paint1_linear" x1="-27.4198" y1="-57.4471" x2="61.1807" y2="-61.7171" gradientUnits="userSpaceOnUse">
<stop stop-color="#0037F8"/>
<stop offset="1" stop-color="#740B99"/>
</linearGradient>
<linearGradient id="paint2_linear" x1="44.7769" y1="18.4419" x2="45.2471" y2="18.4401" gradientUnits="userSpaceOnUse">
<stop stop-color="#0037F8"/>
<stop offset="1" stop-color="#740B99"/>
</linearGradient>
<linearGradient id="paint3_linear" x1="36.1368" y1="19.9737" x2="37.965" y2="19.9454" gradientUnits="userSpaceOnUse">
<stop stop-color="#0037F8"/>
<stop offset="1" stop-color="#740B99"/>
</linearGradient>
<linearGradient id="paint4_linear" x1="28.0637" y1="24.4181" x2="31.5541" y2="24.2963" gradientUnits="userSpaceOnUse">
<stop stop-color="#0037F8"/>
<stop offset="1" stop-color="#740B99"/>
</linearGradient>
<linearGradient id="paint5_linear" x1="21.628" y1="31.3333" x2="26.4575" y2="31.0115" gradientUnits="userSpaceOnUse">
<stop stop-color="#0037F8"/>
<stop offset="1" stop-color="#740B99"/>
</linearGradient>
<linearGradient id="paint6_linear" x1="17.5639" y1="40.0357" x2="23.1039" y2="39.216" gradientUnits="userSpaceOnUse">
<stop stop-color="#0037F8"/>
<stop offset="1" stop-color="#740B99"/>
</linearGradient>
<linearGradient id="paint7_linear" x1="16.1376" y1="49.0328" x2="20.454" y2="46.3685" gradientUnits="userSpaceOnUse">
<stop stop-color="#0037F8"/>
<stop offset="1" stop-color="#740B99"/>
</linearGradient>
<linearGradient id="paint8_linear" x1="64.2288" y1="49.0182" x2="68.5992" y2="46.3753" gradientUnits="userSpaceOnUse">
<stop stop-color="#0037F8"/>
<stop offset="1" stop-color="#740B99"/>
</linearGradient>
<linearGradient id="paint9_linear" x1="63.277" y1="40.0437" x2="68.8411" y2="39.2159" gradientUnits="userSpaceOnUse">
<stop stop-color="#0037F8"/>
<stop offset="1" stop-color="#740B99"/>
</linearGradient>
<linearGradient id="paint10_linear" x1="60.5798" y1="31.3261" x2="65.3727" y2="31.0095" gradientUnits="userSpaceOnUse">
<stop stop-color="#0037F8"/>
<stop offset="1" stop-color="#740B99"/>
</linearGradient>
<linearGradient id="paint11_linear" x1="56.3227" y1="24.4179" x2="59.8275" y2="24.2951" gradientUnits="userSpaceOnUse">
<stop stop-color="#0037F8"/>
<stop offset="1" stop-color="#740B99"/>
</linearGradient>
<linearGradient id="paint12_linear" x1="50.9713" y1="19.9797" x2="52.8118" y2="19.951" gradientUnits="userSpaceOnUse">
<stop stop-color="#0037F8"/>
<stop offset="1" stop-color="#740B99"/>
</linearGradient>
<linearGradient id="paint13_linear" x1="-115.407" y1="-215.834" x2="80.8681" y2="-224.267" gradientUnits="userSpaceOnUse">
<stop stop-color="#0037F8"/>
<stop offset="1" stop-color="#740B99"/>
</linearGradient>
<linearGradient id="paint14_linear" x1="44.7769" y1="-42.1313" x2="45.2471" y2="-42.1316" gradientUnits="userSpaceOnUse">
<stop stop-color="#0037F8"/>
<stop offset="1" stop-color="#740B99"/>
</linearGradient>
<linearGradient id="paint15_linear" x1="44.7769" y1="32.4965" x2="45.2471" y2="32.4963" gradientUnits="userSpaceOnUse">
<stop stop-color="#0037F8"/>
<stop offset="1" stop-color="#740B99"/>
</linearGradient>
</defs>
</svg>
