<svg width="214" height="214" viewBox="0 0 214 214" fill="none" xmlns="http://www.w3.org/2000/svg">
<g opacity="0.1">
<path opacity="0.2" fill-rule="evenodd" clip-rule="evenodd" d="M107 214C166.094 214 214 166.094 214 107C214 47.9055 166.094 0 107 0C47.9055 0 0 47.9055 0 107C0 166.094 47.9055 214 107 214Z" fill="#740B99"/>
<path opacity="0.4" fill-rule="evenodd" clip-rule="evenodd" d="M107.003 185.06C150.113 185.06 185.06 150.113 185.06 107.003C185.06 63.8928 150.113 28.9453 107.003 28.9453C63.8928 28.9453 28.9453 63.8928 28.9453 107.003C28.9453 150.113 63.8928 185.06 107.003 185.06Z" fill="#740B99"/>
<path fill-rule="evenodd" clip-rule="evenodd" d="M106.997 152.617C132.185 152.617 152.604 132.199 152.604 107.011C152.604 81.8231 132.185 61.4043 106.997 61.4043C81.8094 61.4043 61.3906 81.8231 61.3906 107.011C61.3906 132.199 81.8094 152.617 106.997 152.617Z" fill="#740B99"/>
</g>
<path opacity="0.2" fill-rule="evenodd" clip-rule="evenodd" d="M107.001 193.239C154.629 193.239 193.239 154.629 193.239 107.001C193.239 59.3721 154.629 20.7617 107.001 20.7617C59.3721 20.7617 20.7617 59.3721 20.7617 107.001C20.7617 154.629 59.3721 193.239 107.001 193.239Z" fill="#740B99"/>
<path opacity="0.4" fill-rule="evenodd" clip-rule="evenodd" d="M107.002 169.916C141.747 169.916 169.914 141.749 169.914 107.004C169.914 72.2584 141.747 44.0918 107.002 44.0918C72.2565 44.0918 44.0898 72.2584 44.0898 107.004C44.0898 141.749 72.2565 169.916 107.002 169.916Z" fill="#740B99"/>
<path fill-rule="evenodd" clip-rule="evenodd" d="M107 143.765C127.3 143.765 143.757 127.308 143.757 107.008C143.757 86.7069 127.3 70.25 107 70.25C86.6991 70.25 70.2422 86.7069 70.2422 107.008C70.2422 127.308 86.6991 143.765 107 143.765Z" fill="#740B99"/>
<path opacity="0.2" fill-rule="evenodd" clip-rule="evenodd" d="M107.001 127.837C118.507 127.837 127.835 118.509 127.835 107.003C127.835 95.4973 118.507 86.1699 107.001 86.1699C95.4954 86.1699 86.168 95.4973 86.168 107.003C86.168 118.509 95.4954 127.837 107.001 127.837Z" fill="#FBB640"/>
<path opacity="0.4" fill-rule="evenodd" clip-rule="evenodd" d="M106.997 122.197C115.391 122.197 122.195 115.393 122.195 106.999C122.195 98.6052 115.391 91.8008 106.997 91.8008C98.6032 91.8008 91.7988 98.6052 91.7988 106.999C91.7988 115.393 98.6032 122.197 106.997 122.197Z" fill="#FBB640"/>
<path fill-rule="evenodd" clip-rule="evenodd" d="M107.001 115.887C111.905 115.887 115.881 111.911 115.881 107.007C115.881 102.103 111.905 98.127 107.001 98.127C102.097 98.127 98.1211 102.103 98.1211 107.007C98.1211 111.911 102.097 115.887 107.001 115.887Z" fill="#FBB640"/>
</svg>
