<svg width="1440" height="620" viewBox="0 0 1440 620" fill="none" xmlns="http://www.w3.org/2000/svg">
<g id="main_img" style="mix-blend-mode:multiply">
<path id="Rectangle 6" fill-rule="evenodd" clip-rule="evenodd" d="M0 0H1440V570.379C1440 570.379 1076 459.879 708.5 570.379C341 680.879 0 570.379 0 570.379V0Z" fill="url(#paint0_linear)"/>
<g id="Mask Group">
<mask id="mask0" mask-type="alpha" maskUnits="userSpaceOnUse" x="0" y="0" width="1440" height="620">
<path id="Rectangle 6.1" fill-rule="evenodd" clip-rule="evenodd" d="M0 0H1440V570.379C1440 570.379 1076 459.879 708.5 570.379C341 680.879 0 570.379 0 570.379V0Z" fill="url(#paint1_linear)"/>
</mask>
<g mask="url(#mask0)">
<g id="Group">
<g id="chart1" style="mix-blend-mode:overlay">
<g id="Group_2" opacity="0.2">
<path id="Vector" opacity="0.2" d="M23.3706 186.178L-124.695 186.178L-124.695 678.744H23.3706V186.178Z" fill="white"/>
<path id="Vector_2" opacity="0.2" d="M237.169 80.3984L89.1035 80.3984L89.1035 678.715H237.169L237.169 80.3984Z" fill="white"/>
<path id="Vector_3" opacity="0.2" d="M450.959 201.291L302.893 201.291V678.739H450.959V201.291Z" fill="white"/>
<path id="Vector_4" opacity="0.2" d="M664.753 41.1211L516.688 41.1211V678.74H664.753V41.1211Z" fill="white"/>
<path id="Vector_5" opacity="0.5" d="M878.546 -70.6816L730.48 -70.6816V678.74H878.546V-70.6816Z" fill="#740B99"/>
<path id="Vector_6" opacity="0.2" d="M1092.34 68.3223L944.271 68.3223V678.744H1092.34V68.3223Z" fill="white"/>
<path id="Vector_7" opacity="0.2" d="M1518.29 68.3223L1370.23 68.3223V678.744H1518.29V68.3223Z" fill="white"/>
<path id="Vector_8" opacity="0.2" d="M1306.16 246.596L1158.09 246.596V678.715H1306.16V246.596Z" fill="white"/>
</g>
<path id="Vector_9" d="M-50.6465 554.341C-50.2648 554.682 -49.8442 554.978 -49.3933 555.221C-48.0895 555.987 -46.6499 556.494 -45.1537 556.714C-42.7415 557.093 -40.2789 557.002 -37.901 556.447C-34.6272 555.657 -31.4841 554.4 -28.5686 552.714C-20.5064 547.812 -13.241 541.707 -7.02401 534.609C1.54784 525.077 9.41669 514.936 16.5205 504.265C35.5494 475.167 52.5738 444.807 67.4756 413.394C71.9018 404.328 76.417 394.943 81.021 385.237C85.625 375.531 90.3535 365.514 95.2063 355.186C100.139 344.867 105.312 334.308 111.018 323.589C116.844 312.333 123.436 301.491 130.75 291.139C134.78 285.52 139.304 280.273 144.268 275.461C149.748 270.068 156.128 265.673 163.12 262.475C166.932 260.765 170.946 259.546 175.065 258.849C179.238 258.13 183.485 257.942 187.704 258.289C195.759 259.066 203.608 261.287 210.875 264.848C217.652 268.125 224.099 272.045 230.127 276.554C236 280.961 241.634 285.679 247.005 290.686C252.338 295.645 257.484 300.818 262.497 306.124L266.15 310.044C267.377 311.377 268.576 312.71 269.803 314.017L277.082 322.016C296.414 343.481 315.212 366.279 334.624 388.863C344.329 400.115 354.115 411.394 364.381 422.033C369.527 427.366 374.753 432.459 380.166 437.285C385.414 442.021 390.963 446.412 396.778 450.431C402.173 454.169 408.002 457.24 414.136 459.576C419.633 461.713 425.491 462.763 431.388 462.669C437.309 462.469 443.138 461.139 448.559 458.75C454.647 456.058 460.387 452.638 465.651 448.564C471.385 444.15 476.785 439.319 481.81 434.112C483.116 432.806 484.476 431.446 485.703 430.059L486.662 429.046L487.596 427.979L488.609 426.859L489.542 425.82C490.769 424.46 492.049 422.993 493.302 421.527L497.061 417.074C507.06 405.075 516.686 392.249 526.392 379.211C536.098 366.172 545.51 352.866 555.083 339.454C564.655 326.042 574.334 312.604 584.173 299.138C594.012 285.673 604.011 272.261 614.304 258.982C624.596 245.703 635.155 232.505 646.301 219.599C657.446 206.694 668.752 194.055 680.964 181.896C693.133 169.535 706.074 157.958 719.707 147.233C733.629 136.184 748.787 126.788 764.876 119.235C773.345 115.365 782.167 112.32 791.22 110.143C800.559 107.885 810.143 106.801 819.751 106.917C829.496 107.062 839.172 108.579 848.495 111.423C853.044 112.843 857.497 114.553 861.827 116.542C866.115 118.514 870.282 120.74 874.306 123.208C882.085 128.013 889.389 133.548 896.117 139.74C902.558 145.726 908.598 152.13 914.195 158.912C934.78 183.656 954.565 208.587 974.056 232.798C983.797 244.939 993.503 256.84 1003.17 268.501C1012.88 280.127 1022.61 291.486 1032.5 302.258C1042.4 313.03 1052.61 323.269 1063.09 332.628C1073.27 341.841 1084.26 350.13 1095.91 357.399C1107.08 364.328 1119.03 369.922 1131.51 374.065C1143.7 378.068 1156.3 380.688 1169.08 381.877C1175.42 382.49 1181.77 382.784 1188.09 382.864C1194.41 382.944 1200.7 382.677 1206.97 382.304C1219.37 381.493 1231.71 380.016 1243.95 377.877L1248.46 377.104L1249.58 376.891H1250.03H1250.62L1252.88 376.438L1257.39 375.531L1261.71 374.544C1267.41 373.291 1273.15 371.878 1278.69 370.198C1289.59 367.065 1300.28 363.236 1310.69 358.733C1329.87 350.288 1347.89 339.418 1364.31 326.389C1378.84 314.599 1392.65 301.955 1405.67 288.526C1416.83 276.735 1428.68 265.614 1441.16 255.222C1446.65 250.847 1452.46 246.89 1458.54 243.384C1463.93 240.319 1469.55 237.705 1475.37 235.571C1480.36 233.754 1485.48 232.345 1490.7 231.358C1493.07 230.878 1495.37 230.558 1497.55 230.265C1498.65 230.105 1499.71 230.025 1500.75 229.918C1501.79 229.812 1502.78 229.705 1503.77 229.652C1509.71 229.243 1515.68 229.243 1521.63 229.652C1523.66 229.785 1525.18 229.972 1526.19 230.052L1527.71 230.211H1526.19C1525.15 230.211 1523.52 230.211 1521.63 230.211C1515.72 230.23 1509.81 230.649 1503.95 231.465C1494.58 232.744 1485.43 235.311 1476.75 239.091C1471.31 241.487 1466.09 244.341 1461.13 247.623C1455.52 251.38 1450.17 255.523 1445.13 260.022C1433.51 270.959 1422.49 282.531 1412.15 294.685C1399.62 309.174 1386.19 322.853 1371.94 335.641C1355.33 350.293 1336.86 362.684 1317.01 372.491C1306.22 377.774 1295.11 382.361 1283.73 386.223C1277.87 388.143 1272.03 390.01 1265.87 391.556L1261.26 392.783L1256.78 393.876L1254.51 394.409L1253.95 394.569L1253.28 394.703L1252.11 394.969L1247.47 396.009C1234.72 398.86 1221.82 401.032 1208.83 402.515C1202.17 403.235 1195.37 403.742 1188.49 404.008C1181.61 404.275 1174.6 404.168 1167.53 403.768C1153.03 403.012 1138.65 400.624 1124.68 396.649C1110.22 392.441 1096.31 386.534 1083.25 379.051C1070.05 371.434 1057.56 362.662 1045.92 352.84C1034.2 342.99 1023.02 332.532 1012.4 321.509C991.068 299.512 970.91 275.994 950.778 252.183C930.647 228.372 910.409 204.054 889.664 179.736C884.927 174.175 879.823 168.937 874.386 164.058C869.131 159.382 863.454 155.204 857.427 151.579C845.971 144.541 832.822 140.735 819.377 140.567C812.57 140.563 805.788 141.414 799.193 143.1C792.267 144.888 785.519 147.307 779.035 150.326C765.334 156.894 752.44 165.027 740.612 174.563C728.193 184.421 716.41 195.054 705.335 206.4C694.056 217.813 683.177 229.838 672.618 242.237C651.527 267.061 631.582 293.219 612.064 319.696C592.546 346.174 573.427 373.025 553.643 399.529C543.724 412.861 533.618 425.9 522.712 438.725C521.326 440.325 520.046 441.925 518.553 443.498C517.059 445.071 515.886 446.644 514.26 448.297L512.127 450.617L511.007 451.79L509.887 452.964C508.394 454.51 506.874 456.057 505.327 457.577C499.058 463.837 492.339 469.63 485.222 474.908C477.723 480.499 469.565 485.147 460.931 488.747C456.366 490.606 451.646 492.06 446.826 493.093C441.892 494.153 436.862 494.707 431.814 494.746C421.888 494.761 412.05 492.879 402.83 489.2C394.387 485.806 386.391 481.391 379.019 476.055C372.141 471.133 365.611 465.743 359.474 459.923C353.448 454.323 347.822 448.564 342.463 442.725C331.797 431.072 321.825 419.26 312.306 407.501C302.787 395.742 293.641 384.143 284.388 372.838C275.136 361.532 266.15 350.333 257.058 339.534L250.232 331.535C249.085 330.202 247.938 328.869 246.819 327.562L243.379 323.643C238.899 318.523 234.34 313.59 229.674 308.951C225.12 304.392 220.322 300.084 215.302 296.045C210.639 292.273 205.641 288.935 200.37 286.073C195.752 283.52 190.712 281.822 185.491 281.06C180.815 280.441 176.058 281.038 171.679 282.793C166.876 284.787 162.462 287.612 158.64 291.139C154.409 294.951 150.511 299.117 146.988 303.591C139.788 312.865 133.231 322.62 127.363 332.788C121.364 342.867 115.844 353.026 110.431 362.972C99.7658 382.864 89.5536 402.035 79.5545 419.767C59.6097 455.31 40.3582 485.334 22.2266 508.478C14.2487 518.866 5.48599 528.627 -3.98426 537.676C-10.9446 544.514 -18.9342 550.218 -27.662 554.581C-30.844 556.091 -34.2312 557.124 -37.7144 557.647C-40.2476 558.02 -42.8292 557.893 -45.3137 557.274C-46.8069 556.886 -48.2228 556.246 -49.4999 555.381C-49.9149 555.072 -50.2988 554.724 -50.6465 554.341Z" fill="url(#paint2_linear)"/>
<path id="Vector_10" opacity="0.1" d="M-50.6445 601.644C-50.2526 601.919 -49.8325 602.152 -49.3913 602.338C-48.0435 602.935 -46.6149 603.33 -45.1517 603.511C-42.7363 603.806 -40.2897 603.725 -37.8991 603.271C-34.68 602.679 -31.5457 601.694 -28.5666 600.338C-20.7424 596.644 -13.4873 591.849 -7.02205 586.099C1.42139 578.764 9.29246 570.795 16.5224 562.261C35.2777 539.764 52.311 515.885 67.4775 490.828C71.9038 483.682 76.4367 476.323 81.023 468.67L95.2083 445.046C100.141 437.047 105.314 428.647 111.02 420.222C116.952 411.235 123.547 402.706 130.752 394.704C134.879 390.2 139.403 386.077 144.27 382.385C149.986 378.024 156.346 374.579 163.122 372.173C166.996 370.817 170.999 369.861 175.067 369.32C179.255 368.751 183.49 368.608 187.706 368.893C195.639 369.473 203.445 371.207 210.877 374.039C217.557 376.586 224.007 379.699 230.155 383.345C235.968 386.75 241.602 390.453 247.034 394.437C252.367 398.33 257.513 402.437 262.526 406.57L266.179 409.663L269.832 412.782L277.111 419.075C296.442 435.953 315.241 453.872 334.652 471.63C344.358 480.483 354.144 489.335 364.409 497.681C369.555 501.867 374.782 505.893 380.195 509.68C385.518 513.46 391.066 516.915 396.806 520.025C402.334 523.007 408.15 525.419 414.165 527.225C425.415 530.688 437.48 530.454 448.588 526.558C454.552 524.504 460.282 521.823 465.68 518.559C471.316 515.141 476.714 511.346 481.838 507.2C483.145 506.16 484.505 505.093 485.731 504L486.691 503.2L487.624 502.374L488.638 501.494L489.571 500.667C490.797 499.601 492.077 498.454 493.33 497.308L497.09 493.815C507.089 484.376 516.715 474.296 526.421 464.031C536.126 453.765 545.539 443.313 555.111 432.78C564.684 422.248 574.363 411.662 584.202 401.077C594.041 390.491 604.04 379.959 614.332 369.506C624.625 359.054 635.184 348.682 646.329 338.549C657.475 328.417 668.78 318.471 680.993 308.899C693.357 299.073 706.294 289.992 719.736 281.701C734.108 272.822 749.35 265.433 765.225 259.65C773.804 256.571 782.613 254.173 791.569 252.478C800.974 250.709 810.53 249.87 820.099 249.971C834.486 250.106 848.747 252.667 862.282 257.544C866.529 259.11 870.694 260.89 874.761 262.877C882.398 266.568 889.696 270.922 896.572 275.889C902.928 280.501 908.968 285.534 914.65 290.954C935.235 310.419 955.02 329.99 974.511 349.028C984.253 358.574 993.958 367.933 1003.63 377.106C1013.33 386.251 1023.07 395.157 1032.96 403.637C1042.85 412.116 1053.06 420.142 1063.54 427.501C1073.94 434.872 1084.92 441.391 1096.37 446.992C1107.77 452.522 1119.69 456.907 1131.96 460.084C1144.28 463.256 1156.85 465.317 1169.53 466.244C1175.88 466.688 1182.22 466.937 1188.54 466.991C1194.86 466.991 1201.16 466.857 1207.42 466.564C1219.93 465.924 1232.25 464.724 1244.27 463.071L1248.78 462.458L1249.9 462.298H1250.35H1250.94L1253.2 461.951L1257.71 461.231L1262.03 460.458C1267.74 459.471 1273.47 458.271 1279.02 457.045C1289.83 454.599 1300.51 451.59 1311.01 448.032C1329.78 441.595 1347.77 433.071 1364.63 422.621C1378.97 413.479 1392.78 403.535 1405.99 392.837C1417.36 383.508 1429.24 374.828 1441.59 366.84C1447.16 363.338 1452.97 360.229 1458.97 357.534C1464.42 355.077 1470.05 353.018 1475.8 351.375C1480.83 349.932 1485.95 348.827 1491.13 348.068C1493.5 347.669 1495.8 347.428 1497.98 347.189L1501.18 346.922C1502.19 346.922 1503.21 346.762 1504.19 346.735C1510.15 346.415 1516.11 346.415 1522.06 346.735L1526.62 347.082H1528.14H1526.62H1522.06C1518.03 347.082 1512.06 347.242 1504.38 348.042C1495.12 349.037 1486 351.049 1477.18 354.041C1471.82 355.915 1466.6 358.169 1461.56 360.787C1456.02 363.679 1450.67 366.93 1445.56 370.52C1434.08 378.959 1423.07 388.021 1412.58 397.664C1399.85 409.219 1386.42 419.976 1372.37 429.874C1355.25 441.642 1336.82 451.361 1317.44 458.831C1306.54 462.97 1295.43 466.53 1284.16 469.497C1278.3 470.99 1272.46 472.483 1266.3 473.737L1261.68 474.723L1257.2 475.576L1254.94 476.003H1254.38L1253.71 476.136L1252.54 476.323L1247.9 477.15C1235.47 479.309 1222.59 481.069 1209.26 482.269C1202.6 482.829 1195.8 483.229 1188.92 483.416C1182.04 483.602 1175.03 483.416 1167.96 483.256C1153.54 482.667 1139.2 480.793 1125.11 477.656C1110.87 474.426 1096.99 469.791 1083.67 463.817C1070.7 457.952 1058.22 451.059 1046.34 443.206C1034.77 435.558 1023.58 427.336 1012.83 418.568C991.496 401.29 971.338 382.812 951.207 364.014C931.075 345.215 910.837 326.177 890.093 307.059C885.279 302.618 880.175 298.503 874.814 294.74C869.459 290.98 863.784 287.697 857.856 284.928C845.948 279.332 832.963 276.401 819.806 276.342C813.029 276.353 806.269 277.023 799.621 278.342C792.772 279.74 786.035 281.638 779.463 284.021C765.892 289.077 752.874 295.51 740.614 303.219C728.362 310.849 716.582 319.21 705.337 328.257C694.058 337.216 683.179 346.682 672.62 356.441C651.529 375.932 631.584 396.437 612.066 417.315C592.548 438.193 573.43 459.285 553.645 480.083C543.726 490.482 533.62 500.801 522.714 510.88C521.328 512.16 520.048 513.413 518.555 514.666C517.061 515.919 515.888 517.146 514.262 518.426L512.129 520.239L511.009 521.172L509.889 522.079C508.396 523.305 506.876 524.532 505.329 525.732C498.948 530.729 492.231 535.282 485.224 539.357C477.534 543.831 469.392 547.478 460.933 550.236C456.316 551.698 451.603 552.839 446.828 553.649C441.867 554.479 436.847 554.907 431.816 554.929C421.99 554.969 412.215 553.503 402.832 550.582C394.552 547.986 386.57 544.518 379.021 540.237C372.244 536.435 365.716 532.204 359.477 527.571C353.45 523.172 347.824 518.639 342.465 514.053C331.799 504.88 321.827 495.601 312.308 486.349C302.789 477.096 293.643 467.977 284.39 459.045C275.138 450.112 266.152 441.366 257.06 432.86L250.234 426.514L246.821 423.208L243.381 420.115C238.901 416.115 234.342 412.116 229.676 408.596C225.062 404.966 220.265 401.575 215.303 398.437C210.547 395.424 205.553 392.802 200.372 390.598C195.628 388.574 190.616 387.245 185.493 386.651C180.844 386.16 176.145 386.623 171.681 388.011C167.028 389.525 162.631 391.737 158.642 394.571C154.495 397.506 150.597 400.779 146.99 404.356C139.895 411.528 133.336 419.21 127.365 427.341C121.366 435.34 115.846 443.339 110.433 451.045C99.7678 466.697 89.5555 481.762 79.5565 495.708C62.3472 520.449 43.1761 543.767 22.2286 565.434C14.1001 573.796 5.33695 581.516 -3.9823 588.526C-11.214 594.053 -19.1839 598.54 -27.6601 601.858C-30.9029 603.056 -34.2777 603.862 -37.7124 604.257C-40.2453 604.557 -42.8095 604.458 -45.3117 603.964C-46.7767 603.689 -48.1893 603.185 -49.498 602.471C-49.9012 602.226 -50.2846 601.949 -50.6445 601.644Z" fill="url(#paint3_linear)"/>
</g>
<g id="circle/violet">
<g id="circle_yellow">
<path id="Oval" opacity="0.2" fill-rule="evenodd" clip-rule="evenodd" d="M804 193C842.108 193 873 162.108 873 124C873 85.8924 842.108 55 804 55C765.892 55 735 85.8924 735 124C735 162.108 765.892 193 804 193Z" fill="#FBB63F"/>
<path id="Oval_2" opacity="0.4" fill-rule="evenodd" clip-rule="evenodd" d="M804 174.336C831.8 174.336 854.336 151.8 854.336 124C854.336 96.2003 831.8 73.6641 804 73.6641C776.2 73.6641 753.664 96.2003 753.664 124C753.664 151.8 776.2 174.336 804 174.336Z" fill="#FBB63F"/>
<path id="Oval_3" fill-rule="evenodd" clip-rule="evenodd" d="M804 153.41C820.242 153.41 833.41 140.242 833.41 124C833.41 107.757 820.242 94.5898 804 94.5898C787.757 94.5898 774.59 107.757 774.59 124C774.59 140.242 787.757 153.41 804 153.41Z" fill="#FBB63F"/>
</g>
</g>
<g id="circle/violet_2">
<g id="circle_yellow_2">
<path id="Oval_4" opacity="0.2" fill-rule="evenodd" clip-rule="evenodd" d="M1131.33 440.666C1162.44 440.666 1187.67 415.445 1187.67 384.333C1187.67 353.221 1162.44 328 1131.33 328C1100.22 328 1075 353.221 1075 384.333C1075 415.445 1100.22 440.666 1131.33 440.666Z" fill="#FBB63F"/>
<path id="Oval_5" opacity="0.4" fill-rule="evenodd" clip-rule="evenodd" d="M1131.33 425.429C1154.03 425.429 1172.43 407.03 1172.43 384.334C1172.43 361.637 1154.03 343.238 1131.33 343.238C1108.64 343.238 1090.24 361.637 1090.24 384.334C1090.24 407.03 1108.64 425.429 1131.33 425.429Z" fill="#FBB63F"/>
<path id="Oval_6" fill-rule="evenodd" clip-rule="evenodd" d="M1131.33 408.344C1144.59 408.344 1155.34 397.594 1155.34 384.333C1155.34 371.072 1144.59 360.322 1131.33 360.322C1118.07 360.322 1107.32 371.072 1107.32 384.333C1107.32 397.594 1118.07 408.344 1131.33 408.344Z" fill="#FBB63F"/>
</g>
</g>
<g id="circle/violet_3">
<g id="circle_yellow_3">
<path id="Oval_7" opacity="0.2" fill-rule="evenodd" clip-rule="evenodd" d="M1441.76 286.516C1456.54 286.516 1468.52 274.536 1468.52 259.758C1468.52 244.98 1456.54 233 1441.76 233C1426.98 233 1415 244.98 1415 259.758C1415 274.536 1426.98 286.516 1441.76 286.516Z" fill="#FBB63F"/>
<path id="Oval_8" opacity="0.4" fill-rule="evenodd" clip-rule="evenodd" d="M1441.76 279.279C1452.54 279.279 1461.28 270.539 1461.28 259.759C1461.28 248.978 1452.54 240.238 1441.76 240.238C1430.98 240.238 1422.24 248.978 1422.24 259.759C1422.24 270.539 1430.98 279.279 1441.76 279.279Z" fill="#FBB63F"/>
<path id="Oval_9" fill-rule="evenodd" clip-rule="evenodd" d="M1441.76 271.164C1448.06 271.164 1453.16 266.057 1453.16 259.759C1453.16 253.46 1448.06 248.354 1441.76 248.354C1435.46 248.354 1430.35 253.46 1430.35 259.759C1430.35 266.057 1435.46 271.164 1441.76 271.164Z" fill="#FBB63F"/>
</g>
</g>
</g>
</g>
</g>
</g>
<defs>
<linearGradient id="paint0_linear" x1="-1937" y1="2000" x2="1278.84" y2="2360.22" gradientUnits="userSpaceOnUse">
<stop stop-color="#0037F8"/>
<stop offset="1" stop-color="#740B99"/>
</linearGradient>
<linearGradient id="paint1_linear" x1="2091" y1="751" x2="1610.42" y2="-680.656" gradientUnits="userSpaceOnUse">
<stop stop-color="#0037F8"/>
<stop offset="1" stop-color="#EFAA42"/>
</linearGradient>
<linearGradient id="paint2_linear" x1="870" y1="60" x2="315.5" y2="439.5" gradientUnits="userSpaceOnUse">
<stop stop-color="#FBB63F" stop-opacity="0.27"/>
<stop offset="1" stop-color="#740B99" stop-opacity="0"/>
</linearGradient>
<linearGradient id="paint3_linear" x1="738.747" y1="249.963" x2="295.5" y2="535.5" gradientUnits="userSpaceOnUse">
<stop stop-color="#024231"/>
<stop offset="1" stop-color="#024231" stop-opacity="0"/>
</linearGradient>
</defs>
</svg>
