<svg width="17" height="20" viewBox="0 0 17 20" fill="none" xmlns="http://www.w3.org/2000/svg">
<path d="M1.18157 7.09375C0.85264 7.09375 0.573558 7.20845 0.344149 7.43786C0.114739 7.66727 0 7.94256 0 8.26385V13.197C0 13.5264 0.114705 13.8052 0.344149 14.0346C0.573558 14.264 0.85264 14.3788 1.18157 14.3788C1.51025 14.3788 1.78764 14.2641 2.01349 14.0346C2.2389 13.8052 2.35191 13.5264 2.35191 13.197V8.26385C2.35191 7.94252 2.23721 7.66727 2.00776 7.43786C1.77832 7.20845 1.50286 7.09375 1.18157 7.09375Z" fill="white"/>
<path d="M10.6814 2.66531L11.496 1.16265C11.5495 1.06317 11.5304 0.986883 11.4388 0.933241C11.3392 0.886987 11.2628 0.910425 11.2093 1.0019L10.3834 2.51657C9.65661 2.19524 8.88792 2.03428 8.07732 2.03428C7.26655 2.03428 6.49779 2.19527 5.77128 2.51657L4.94529 1.0019C4.89162 0.910425 4.81516 0.887194 4.71588 0.933241C4.62399 0.987125 4.60497 1.06317 4.65865 1.16265L5.47325 2.66531C4.64726 3.08654 3.98941 3.67318 3.49994 4.42651C3.01046 5.18025 2.76562 6.00393 2.76562 6.89899H13.3775C13.3775 6.00414 13.1326 5.18042 12.6432 4.42651C12.1537 3.67318 11.4996 3.08654 10.6814 2.66531ZM5.97197 4.85095C5.88388 4.93924 5.77867 4.98319 5.65637 4.98319C5.53383 4.98319 5.43076 4.93924 5.34667 4.85095C5.26258 4.76306 5.22054 4.65826 5.22054 4.53555C5.22054 4.41325 5.26258 4.30825 5.34667 4.22016C5.43076 4.13227 5.53407 4.08833 5.65637 4.08833C5.77867 4.08833 5.88388 4.13227 5.97197 4.22016C6.05986 4.30845 6.10401 4.41325 6.10401 4.53555C6.10376 4.65806 6.05965 4.76306 5.97197 4.85095ZM10.8075 4.85095C10.7233 4.93924 10.6199 4.98319 10.4979 4.98319C10.3753 4.98319 10.2701 4.93924 10.1822 4.85095C10.0941 4.76306 10.0502 4.65826 10.0502 4.53555C10.0502 4.41325 10.0941 4.30825 10.1822 4.22016C10.2701 4.13227 10.3753 4.08833 10.4979 4.08833C10.6202 4.08833 10.7232 4.13227 10.8075 4.22016C10.8917 4.30845 10.9337 4.41325 10.9337 4.53555C10.9337 4.65806 10.8916 4.76306 10.8075 4.85095Z" fill="white"/>
<path d="M2.80859 14.9513C2.80859 15.3035 2.93089 15.6016 3.17552 15.8462C3.42036 16.0909 3.71846 16.2132 4.07038 16.2132H4.9194L4.93103 18.8177C4.93103 19.1466 5.04573 19.4259 5.27514 19.6553C5.50455 19.8848 5.78004 19.9995 6.10113 19.9995C6.42985 19.9995 6.70911 19.8848 6.93855 19.6553C7.16799 19.4259 7.2827 19.1467 7.2827 18.8177V16.2134H8.86585V18.8177C8.86585 19.1466 8.98052 19.4259 9.20997 19.6553C9.43941 19.8848 9.71842 19.9995 10.0474 19.9995C10.3761 19.9995 10.6554 19.8848 10.8848 19.6553C11.1142 19.4259 11.2289 19.1467 11.2289 18.8177V16.2134H12.0894C12.4335 16.2134 12.7278 16.0911 12.9729 15.8464C13.2175 15.6018 13.3398 15.3037 13.3398 14.9516V7.31055H2.80859V14.9513Z" fill="white"/>
<path d="M14.9709 7.09375C14.6496 7.09375 14.3743 7.20676 14.1449 7.43217C13.9155 7.65799 13.8008 7.93538 13.8008 8.26385V13.197C13.8008 13.5264 13.9155 13.8052 14.1449 14.0346C14.3743 14.2641 14.6498 14.3788 14.9709 14.3788C15.2996 14.3788 15.5789 14.2641 15.8083 14.0346C16.0378 13.8052 16.1525 13.5264 16.1525 13.197V8.26385C16.1525 7.93534 16.0378 7.65799 15.8083 7.43217C15.5789 7.20676 15.2996 7.09375 14.9709 7.09375Z" fill="white"/>
</svg>
