<svg width="148" height="297" viewBox="0 0 148 297" fill="none" xmlns="http://www.w3.org/2000/svg">
<rect x="147.211" y="296.592" width="147.211" height="296.515" rx="9.54155" transform="rotate(-179.97 147.211 296.592)" fill="white"/>
<rect x="140.949" y="261.705" width="134.653" height="235.119" rx="6.97682" transform="rotate(-179.97 140.949 261.705)" fill="#301B52"/>
<g style="mix-blend-mode:hard-light">
<path d="M28.9219 146.79L34.1032 143.779L39.3179 146.79L34.1372 149.801L28.9219 146.79Z" fill="#C589EF"/>
<path d="M34.1395 149.802L39.3202 146.791L39.2862 158.775L34.1055 161.786L34.1395 149.802Z" fill="#9E78B8"/>
<path d="M28.9392 140.798L34.1199 137.787L34.1032 143.779L28.9219 146.79L28.9392 140.798Z" fill="#9E78B8"/>
<path d="M23.7266 137.788L28.9079 134.777L34.122 137.788L28.9413 140.799L23.7266 137.788Z" fill="#C589EF"/>
<path d="M28.9402 140.798L28.9229 146.79L34.1382 149.801L34.1042 161.786L28.8894 158.775L28.9062 152.783L23.6914 149.772L23.7254 137.787L28.9402 140.798Z" fill="#B212E4"/>
<path d="M37.448 196.723L32.2673 193.711L32.1992 169.742L37.3799 172.753L37.448 196.723Z" fill="#66E5EB"/>
<path d="M37.3799 172.754L32.1992 169.743L37.414 166.732L42.5947 169.744L37.3799 172.754Z" fill="#99EEF1"/>
<path d="M42.5937 169.744L42.6617 193.713L37.447 196.724L37.3789 172.755L42.5937 169.744Z" fill="#00D4DD"/>
<path d="M96.8308 149.65L91.6501 146.639L91.582 122.67L96.7633 125.681L96.8308 149.65Z" fill="#66E5EB"/>
<path d="M96.7633 125.682L91.582 122.671L96.7968 119.66L101.978 122.671L96.7633 125.682Z" fill="#99EEF1"/>
<path d="M101.976 122.67L102.044 146.639L96.8292 149.65L96.7617 125.681L101.976 122.67Z" fill="#00D4DD"/>
<path d="M67.7907 93.9955L72.9715 90.9844L72.9547 96.9766L67.7734 99.9876L67.7907 93.9955Z" fill="#B10024"/>
<path d="M62.5938 84.9935L67.7751 81.9824L72.9898 84.9929L67.8085 88.004L62.5938 84.9935Z" fill="#F46683"/>
<path d="M73.0379 85.0209L78.2187 82.0098L78.1852 93.9947L73.0039 97.0052L73.0379 85.0209Z" fill="#B10024"/>
<path d="M67.8242 82.0105L73.0049 79L78.2197 82.0105L73.039 85.0216L67.8242 82.0105Z" fill="#F46683"/>
<path d="M73.0394 85.0209L73.0054 97.0052L67.7907 93.9947L67.7734 99.9869L62.5586 96.9764L62.5926 84.992L67.8074 88.0025L67.8247 82.0098L73.0394 85.0209Z" fill="#EC0030"/>
<path d="M94.0206 206.472L99.2014 203.461L99.1846 209.454L94.0039 212.464L94.0206 206.472Z" fill="#9880C7"/>
<path d="M88.8242 197.47L94.0049 194.459L99.2197 197.47L94.0384 200.481L88.8242 197.47Z" fill="#BE90DB"/>
<path d="M99.2684 197.499L104.45 194.488L104.416 206.473L99.2344 209.484L99.2684 197.499Z" fill="#9880C7"/>
<path d="M94.0547 194.488L99.2354 191.477L104.451 194.488L99.2694 197.498L94.0547 194.488Z" fill="#BE90DB"/>
<path d="M99.2693 197.499L99.2353 209.484L94.0205 206.473L94.0038 212.465L88.7891 209.454L88.8231 197.47L94.0373 200.48L94.0546 194.488L99.2693 197.499Z" fill="#B256F3"/>
<path d="M42.6602 199.415L47.8409 196.404L53.0562 199.415L47.8749 202.426L42.6602 199.415Z" fill="#BFB40E"/>
<path d="M47.8761 202.425L53.0574 199.414L53.0401 205.406L47.8594 208.417L47.8761 202.425Z" fill="#FFF012"/>
<path d="M42.6769 193.421L47.8582 190.41L47.8409 196.403L42.6602 199.413L42.6769 193.421Z" fill="#BFB40E"/>
<path d="M37.4648 190.411L42.6456 187.4L47.8603 190.411L42.679 193.422L37.4648 190.411Z" fill="#FFF671"/>
<path d="M42.6784 193.421L42.6617 199.413L47.8764 202.425L47.8597 208.416L32.2148 199.384L32.2321 193.392L37.4469 196.403L37.4642 190.41L42.6784 193.421Z" fill="#FCEF4F"/>
<path d="M43.5312 128.757L48.7126 125.746L53.9273 128.757L48.7466 131.768L43.5312 128.757Z" fill="#19BFA9"/>
<path d="M53.9609 134.778L59.1417 131.768L64.357 134.778L59.1757 137.789L53.9609 134.778Z" fill="#66F1DF"/>
<path d="M59.1769 137.788L64.3582 134.777L64.3409 140.77L59.1602 143.78L59.1769 137.788Z" fill="#048674"/>
<path d="M53.9777 128.785L59.159 125.773L59.1417 131.766L53.9609 134.777L53.9777 128.785Z" fill="#369E90"/>
<path d="M48.7656 125.774L53.9469 122.764L59.1617 125.774L53.9804 128.785L48.7656 125.774Z" fill="#66F1DF"/>
<path d="M53.9792 128.785L53.9624 134.777L59.1772 137.788L59.1605 143.779L43.5156 134.747L43.5323 128.755L48.7477 131.766L48.7644 125.773L53.9792 128.785Z" fill="#00E8CA"/>
<path d="M98.2812 151.503L103.462 148.492L108.677 151.503L103.497 154.514L98.2812 151.503Z" fill="#19BFA9"/>
<path d="M108.711 157.525L113.892 154.514L119.107 157.525L113.926 160.535L108.711 157.525Z" fill="#66F1DF"/>
<path d="M113.927 160.534L119.108 157.523L119.091 163.516L113.91 166.526L113.927 160.534Z" fill="#048674"/>
<path d="M108.728 151.532L113.909 148.521L113.892 154.514L108.711 157.525L108.728 151.532Z" fill="#369E90"/>
<path d="M103.516 148.521L108.696 145.51L113.911 148.521L108.73 151.531L103.516 148.521Z" fill="#66F1DF"/>
<path d="M108.729 151.532L108.712 157.525L113.927 160.535L113.91 166.527L98.2656 157.495L98.2823 151.503L103.498 154.514L103.514 148.521L108.729 151.532Z" fill="#00E8CA"/>
<path d="M58.3231 202.454L63.5038 199.443L63.4698 211.428L58.2891 214.438L58.3231 202.454Z" fill="#B6006C"/>
<path d="M47.8945 196.433L53.0753 193.422L63.5054 199.444L58.3246 202.455L47.8945 196.433Z" fill="#F46683"/>
<path d="M58.3235 202.455L58.2895 214.44L47.8594 208.418L47.8934 196.434L58.3235 202.455Z" fill="#EC0030"/>
<path d="M120.495 131.796L125.676 128.785L125.642 140.77L120.461 143.781L120.495 131.796Z" fill="#B10024"/>
<path d="M110.066 125.774L115.247 122.764L125.677 128.785L120.496 131.796L110.066 125.774Z" fill="#F46683"/>
<path d="M120.495 131.796L120.461 143.78L110.031 137.758L110.065 125.773L120.495 131.796Z" fill="#EC0030"/>
<path d="M63.5245 205.464L68.7053 202.453L68.6885 208.445L63.5078 211.456L63.5245 205.464Z" fill="#00B960"/>
<path d="M58.3125 202.452L63.4932 199.441L68.708 202.452L63.5273 205.463L58.3125 202.452Z" fill="#66D5A0"/>
<path d="M73.9392 217.478L79.1199 214.467L79.1032 220.459L73.9219 223.47L73.9392 217.478Z" fill="#B6006C"/>
<path d="M63.5078 211.456L68.6885 208.445L79.1181 214.467L73.9373 217.478L63.5078 211.456Z" fill="#00B960"/>
<path d="M63.5261 205.464L63.5094 211.456L73.9389 217.478L73.9216 223.47L58.2773 214.437L58.2941 208.445L58.3114 202.453L63.5261 205.464Z" fill="#00F780"/>
<path d="M78.8019 88.4851L83.9826 85.4746L83.9659 91.4668L78.7852 94.4779L78.8019 88.4851Z" fill="#00B960"/>
<path d="M73.5898 85.474L78.7706 82.4629L83.9853 85.474L78.8046 88.4845L73.5898 85.474Z" fill="#66D5A0"/>
<path d="M89.2165 100.499L94.3972 97.4883L94.3805 103.48L89.1992 106.491L89.2165 100.499Z" fill="#007C40"/>
<path d="M78.7852 94.4779L83.9659 91.4668L94.3954 97.4884L89.2147 100.499L78.7852 94.4779Z" fill="#00B960"/>
<path d="M78.8035 88.4851L78.7867 94.4779L89.2163 100.499L89.199 106.491L73.5547 97.459L73.5714 91.4668L73.5887 85.4746L78.8035 88.4851Z" fill="#00F780"/>
<path d="M53.9531 159.031L59.1344 156.02L64.3492 159.031L59.1679 162.041L53.9531 159.031Z" fill="#BFB40E"/>
<path d="M64.4179 153.068L69.5992 150.057L69.5479 168.034L64.3672 171.044L64.4179 153.068Z" fill="#BFB40E"/>
<path d="M59.2031 150.056L64.3839 147.045L69.5992 150.056L64.4179 153.067L59.2031 150.056Z" fill="#FFF671"/>
<path d="M64.4178 153.068L64.367 171.044L59.1523 168.034L53.9375 165.023L53.9542 159.03L59.169 162.041L59.203 150.057L64.4178 153.068Z" fill="#FCEF4F"/>
<path d="M100.562 178.952L105.744 175.941L110.959 178.952L105.777 181.963L100.562 178.952Z" fill="#D56775"/>
<path d="M111.028 172.99L116.209 169.979L116.158 187.955L110.977 190.966L111.028 172.99Z" fill="#D73B24"/>
<path d="M105.812 169.978L110.994 166.967L116.209 169.978L111.028 172.989L105.812 169.978Z" fill="#E03B70"/>
<path d="M111.028 172.99L110.976 190.966L105.762 187.955L100.547 184.945L100.564 178.952L105.778 181.963L105.812 169.979L111.028 172.99Z" fill="#FB9845"/>
<path d="M79.1003 226.48L73.919 223.469L73.8516 199.5L79.0323 202.511L79.1003 226.48Z" fill="#00E8CA"/>
<path d="M79.0323 202.51L73.8516 199.499L79.0323 196.488L84.247 199.499L79.0323 202.51Z" fill="#66F1DF"/>
<path d="M84.246 199.5L84.3141 223.469L79.0993 226.48L79.0312 202.511L84.246 199.5Z" fill="#369E90"/>
</g>
<rect x="53.5195" y="17.1211" width="40.8144" height="2.79073" rx="1.39536" transform="rotate(0.0301048 53.5195 17.1211)" fill="#740B99"/>
<circle cx="73.9322" cy="11.3753" r="1.56978" transform="rotate(0.0301048 73.9322 11.3753)" fill="#740B99"/>
<circle cx="73.615" cy="278.065" r="10.1164" transform="rotate(0.0301048 73.615 278.065)" fill="#740B99"/>
<g style="mix-blend-mode:hard-light">
<path d="M6.37109 36.9629C6.37109 31.4546 10.8256 26.9835 16.334 26.963L130.962 26.5373C136.499 26.5167 140.999 30.9999 140.999 36.5372L140.999 252C140.999 257.523 136.522 262 130.999 262H16.3711C10.8482 262 6.37109 257.523 6.37109 252V36.9629Z" fill="#740B99" fill-opacity="0.68"/>
</g>
<path d="M6.32812 32.98C6.32812 29.125 9.45318 26 13.3081 26H133.999C137.854 26 140.979 29.1251 140.979 32.98V255.02C140.979 258.875 137.854 262 133.999 262H13.3081C9.45318 262 6.32812 258.875 6.32812 255.02V32.98Z" fill="#740B99"/>
<path d="M68 143.807C68 141.022 68 138.237 68 135.453C68 134.06 68.6962 133.632 69.8743 134.328C74.4261 137.006 78.9779 139.737 83.5297 142.468C84.8684 143.271 84.8684 144.556 83.4761 145.36C78.9779 148.037 74.4261 150.768 69.9278 153.446C68.6961 154.195 68 153.767 68 152.321C68 149.483 68 146.645 68 143.807Z" fill="white"/>
<circle cx="129" cy="39" r="4" fill="white"/>
<path fill-rule="evenodd" clip-rule="evenodd" d="M129.002 38.7168L130.06 37.6582C130.138 37.5801 130.265 37.5801 130.343 37.6582C130.421 37.7363 130.421 37.8629 130.343 37.941L129.284 38.9996L130.343 40.0582C130.421 40.1363 130.421 40.2629 130.343 40.341C130.265 40.4191 130.138 40.4191 130.06 40.341L129.002 39.2825L127.943 40.341C127.865 40.4191 127.738 40.4191 127.66 40.341C127.582 40.2629 127.582 40.1363 127.66 40.0582L128.719 38.9996L127.66 37.941C127.582 37.8629 127.582 37.7363 127.66 37.6582C127.738 37.5801 127.865 37.5801 127.943 37.6582L129.002 38.7168Z" fill="#740B99"/>
<mask id="mask0" mask-type="alpha" maskUnits="userSpaceOnUse" x="127" y="37" width="4" height="4">
<path fill-rule="evenodd" clip-rule="evenodd" d="M129.002 38.7168L130.06 37.6582C130.138 37.5801 130.265 37.5801 130.343 37.6582C130.421 37.7363 130.421 37.8629 130.343 37.941L129.284 38.9996L130.343 40.0582C130.421 40.1363 130.421 40.2629 130.343 40.341C130.265 40.4191 130.138 40.4191 130.06 40.341L129.002 39.2825L127.943 40.341C127.865 40.4191 127.738 40.4191 127.66 40.341C127.582 40.2629 127.582 40.1363 127.66 40.0582L128.719 38.9996L127.66 37.941C127.582 37.8629 127.582 37.7363 127.66 37.6582C127.738 37.5801 127.865 37.5801 127.943 37.6582L129.002 38.7168Z" fill="white"/>
</mask>
<g mask="url(#mask0)">
<rect x="126.602" y="36.5996" width="4.8" height="4.8" fill="#740B99"/>
</g>
</svg>
