<svg width="148" height="297" viewBox="0 0 148 297" fill="none" xmlns="http://www.w3.org/2000/svg">
<rect x="147.211" y="296.592" width="147.211" height="296.515" rx="9.54155" transform="rotate(-179.97 147.211 296.592)" fill="white"/>
<rect x="140.949" y="261.705" width="134.653" height="235.119" rx="9.15294" transform="rotate(-179.97 140.949 261.705)" fill="#F7F7F7"/>
<g opacity="0.5" clip-path="url(#clip0)">
<path d="M37.5352 185.208L44.6501 181.107L51.8047 185.208L44.6976 189.309L37.5352 185.208Z" fill="#C69BD5"/>
<path d="M44.6959 189.31L51.803 185.209L51.7555 201.533L44.6484 205.634L44.6959 189.31Z" fill="#A059BA"/>
<path d="M37.5589 177.046L44.6739 172.945L44.6501 181.107L37.5352 185.208L37.5589 177.046Z" fill="#A059BA"/>
<path d="M30.4023 172.946L37.5173 168.846L44.6718 172.946L37.5569 177.047L30.4023 172.946Z" fill="#C69BD5"/>
<path d="M37.5575 177.046L37.5337 185.208L44.6962 189.309L44.6487 205.633L37.4942 201.532L37.5179 193.37L30.3555 189.269L30.403 172.945L37.5575 177.046Z" fill="#BC8ACE"/>
<path d="M23.202 214.466L16.095 210.365L16 177.717L23.107 181.817L23.202 214.466Z" fill="#D3B1DE"/>
<path d="M23.107 181.817L16 177.716L23.1545 173.615L30.2695 177.716L23.107 181.817Z" fill="#E2CCEA"/>
<path d="M30.2679 177.717L30.355 210.365L23.2004 214.466L23.1055 181.817L30.2679 177.717Z" fill="#B57EC9"/>
<path d="M92.3973 106.386L85.2824 102.285L85.1953 69.6367L92.3023 73.7374L92.3973 106.386Z" fill="#D3B1DE"/>
<path d="M92.3023 73.7365L85.1953 69.6358L92.3498 65.5352L99.4568 69.6358L92.3023 73.7365Z" fill="#E2CCEA"/>
<path d="M99.4553 69.6367L99.5503 102.285L92.3958 106.386L92.3008 73.7374L99.4553 69.6367Z" fill="#B57EC9"/>
<path d="M51.8284 139.136L58.9354 135.035L58.9117 143.197L51.8047 147.298L51.8284 139.136Z" fill="#740B99"/>
<path d="M44.6953 126.872L51.8024 122.771L58.9569 126.872L51.8498 130.973L44.6953 126.872Z" fill="#B47BC8"/>
<path d="M59.028 126.913L66.1429 122.812L66.0954 139.137L58.9805 143.237L59.028 126.913Z" fill="#740B99"/>
<path d="M51.875 122.812L58.982 118.711L66.1445 122.812L59.0295 126.912L51.875 122.812Z" fill="#B47BC8"/>
<path d="M59.0287 126.913L58.9812 143.237L51.8267 139.137L51.803 147.299L44.6484 143.198L44.6959 126.874L51.8505 130.975L51.8742 122.812L59.0287 126.913Z" fill="#8223A3"/>
<path d="M88.5355 170.864L95.6504 166.764L95.6267 174.926L88.5117 179.026L88.5355 170.864Z" fill="#740B99"/>
<path d="M81.4023 158.603L88.5094 154.502L95.6638 158.603L88.5568 162.703L81.4023 158.603Z" fill="#B47BC8"/>
<path d="M95.735 158.642L102.85 154.541L102.802 170.865L95.6875 174.966L95.735 158.642Z" fill="#740B99"/>
<path d="M88.582 154.54L95.6891 150.439L102.852 154.54L95.7366 158.641L88.582 154.54Z" fill="#B47BC8"/>
<path d="M95.7357 158.642L95.6882 174.966L88.5337 170.865L88.51 179.027L81.3555 174.926L81.403 158.602L88.5574 162.703L88.5812 154.541L95.7357 158.642Z" fill="#8223A3"/>
<path d="M30.3555 218.134L37.4704 214.025L44.625 218.134L37.5179 222.235L30.3555 218.134Z" fill="#C091D1"/>
<path d="M37.5198 222.233L44.6269 218.133L44.6031 226.287L37.4961 230.396L37.5198 222.233Z" fill="#E6D3ED"/>
<path d="M30.3792 209.964L37.4942 205.863L37.4704 214.025L30.3555 218.134L30.3792 209.964Z" fill="#C091D1"/>
<path d="M23.2266 205.862L30.3336 201.762L37.4961 205.862L30.3811 209.963L23.2266 205.862Z" fill="#F0E4F4"/>
<path d="M30.38 209.964L30.3563 218.134L37.5187 222.235L37.495 230.397L16.0234 218.087L16.0472 209.925L23.2017 214.025L23.2255 205.863L30.38 209.964Z" fill="#EADAF0"/>
<path d="M44.5703 160.644L51.6774 156.543L58.8398 160.644L51.7248 164.744L44.5703 160.644Z" fill="#AD6FC3"/>
<path d="M58.8789 168.847L65.9939 164.746L73.1484 168.847L66.0414 172.947L58.8789 168.847Z" fill="#D7B8E1"/>
<path d="M66.0433 172.946L73.1503 168.846L73.1266 177.008L66.0195 181.108L66.0433 172.946Z" fill="#8D37AB"/>
<path d="M58.9026 160.685L66.0176 156.584L65.9939 164.746L58.8789 168.847L58.9026 160.685Z" fill="#A35EBC"/>
<path d="M51.75 156.583L58.8571 152.482L66.0195 156.583L58.9046 160.684L51.75 156.583Z" fill="#D7B8E1"/>
<path d="M58.9034 160.685L58.8797 168.847L66.0421 172.947L66.0184 181.109L44.5469 168.807L44.5706 160.645L51.7251 164.746L51.7489 156.584L58.9034 160.685Z" fill="#BC8ACE"/>
<path d="M81.3633 121.829L88.4783 117.729L95.6329 121.829L88.5258 125.93L81.3633 121.829Z" fill="#AD6FC3"/>
<path d="M95.6797 130.03L102.787 125.93L109.941 130.03L102.834 134.131L95.6797 130.03Z" fill="#D7B8E1"/>
<path d="M102.836 134.132L109.943 130.031L109.927 138.193L102.812 142.294L102.836 134.132Z" fill="#8D37AB"/>
<path d="M95.7034 121.87L102.81 117.77L102.787 125.932L95.6797 130.032L95.7034 121.87Z" fill="#A35EBC"/>
<path d="M88.5508 117.769L95.6579 113.668L102.812 117.769L95.7053 121.869L88.5508 117.769Z" fill="#D7B8E1"/>
<path d="M95.7042 121.87L95.6805 130.032L102.835 134.133L102.811 142.295L81.3477 129.993L81.3635 121.831L88.5259 125.932L88.5497 117.77L95.7042 121.87Z" fill="#BC8ACE"/>
<path d="M51.8522 222.273L58.9593 218.172L58.9118 234.496L51.8047 238.597L51.8522 222.273Z" fill="#7B179E"/>
<path d="M37.5352 214.064L44.6501 209.963L58.9592 218.172L51.8521 222.273L37.5352 214.064Z" fill="#B47BC8"/>
<path d="M51.8527 222.274L51.8052 238.598L37.4961 230.396L37.5357 214.064L51.8527 222.274Z" fill="#8223A3"/>
<path d="M124.868 94.9874L131.975 90.8867L131.927 107.211L124.82 111.312L124.868 94.9874Z" fill="#740B99"/>
<path d="M110.559 86.7862L117.666 82.6855L131.975 90.8869L124.868 94.9876L110.559 86.7862Z" fill="#B47BC8"/>
<path d="M124.868 94.9885L124.821 111.313L110.512 103.111L110.559 86.7871L124.868 94.9885Z" fill="#8223A3"/>
<path d="M58.9925 226.366L66.1075 222.266L66.0837 230.428L58.9688 234.528L58.9925 226.366Z" fill="#A059BA"/>
<path d="M51.8359 222.265L58.943 218.164L66.1054 222.265L58.9905 226.365L51.8359 222.265Z" fill="#C69BD5"/>
<path d="M73.2855 242.73L80.3926 238.629L80.3688 246.791L73.2617 250.892L73.2855 242.73Z" fill="#7B179E"/>
<path d="M58.9688 234.528L66.0837 230.428L80.3928 238.629L73.2858 242.73L58.9688 234.528Z" fill="#A059BA"/>
<path d="M58.9911 226.366L58.9673 234.528L73.2843 242.73L73.2606 250.892L51.7891 238.59L51.8128 230.428L51.8365 222.266L58.9911 226.366Z" fill="#BC8ACE"/>
<path d="M109.313 50.2022L116.428 46.1016L116.404 54.2636L109.289 58.3643L109.313 50.2022Z" fill="#A059BA"/>
<path d="M102.156 46.1007L109.263 42L116.426 46.1007L109.311 50.2014L102.156 46.1007Z" fill="#C69BD5"/>
<path d="M123.606 66.5655L130.713 62.4648L130.689 70.6269L123.582 74.7276L123.606 66.5655Z" fill="#8528A5"/>
<path d="M109.289 58.3624L116.404 54.2617L130.713 62.4631L123.606 66.5638L109.289 58.3624Z" fill="#A059BA"/>
<path d="M109.311 50.2022L109.288 58.3643L123.605 66.5657L123.581 74.7278L102.109 62.4257L102.133 54.2637L102.157 46.1016L109.311 50.2022Z" fill="#BC8ACE"/>
<path d="M58.8711 201.878L65.9781 197.777L73.1327 201.878L66.0256 205.979L58.8711 201.878Z" fill="#C091D1"/>
<path d="M73.2275 193.757L80.3424 189.656L80.2712 214.143L73.1562 218.243L73.2275 193.757Z" fill="#C091D1"/>
<path d="M66.0742 189.655L73.1813 185.555L80.3437 189.655L73.2287 193.756L66.0742 189.655Z" fill="#F0E4F4"/>
<path d="M73.2279 193.757L73.1567 218.243L66.0022 214.143L58.8477 210.042L58.8714 201.88L66.0259 205.98L66.0734 189.656L73.2279 193.757Z" fill="#EADAF0"/>
<path d="M110.535 146.3L117.642 142.199L124.797 146.3L117.69 150.401L110.535 146.3Z" fill="#C091D1"/>
<path d="M124.892 138.179L131.999 134.078L131.927 158.564L124.82 162.665L124.892 138.179Z" fill="#C091D1"/>
<path d="M117.738 134.077L124.845 129.977L132 134.077L124.893 138.178L117.738 134.077Z" fill="#F0E4F4"/>
<path d="M124.892 138.179L124.821 162.665L117.666 158.564L110.512 154.464L110.535 146.302L117.69 150.402L117.737 134.078L124.892 138.179Z" fill="#EADAF0"/>
<path d="M80.3583 255.001L73.2512 250.893L73.1562 218.244L80.2712 222.345L80.3583 255.001Z" fill="#BC8ACE"/>
<path d="M80.2712 222.344L73.1562 218.243L80.2712 214.143L87.4258 218.243L80.2712 222.344Z" fill="#D7B8E1"/>
<path d="M87.4242 218.244L87.5192 250.893L80.3566 255.001L80.2695 222.345L87.4242 218.244Z" fill="#A35EBC"/>
</g>
<rect x="53.5195" y="17.1211" width="40.8144" height="2.79073" rx="1.39536" transform="rotate(0.0301048 53.5195 17.1211)" fill="#740B99"/>
<circle cx="73.9322" cy="11.3753" r="1.56978" transform="rotate(0.0301048 73.9322 11.3753)" fill="#740B99"/>
<circle cx="73.615" cy="278.065" r="10.1164" transform="rotate(0.0301048 73.615 278.065)" fill="#740B99"/>
<g filter="url(#filter0_d)">
<rect x="24" y="58" width="99" height="181" rx="10" fill="#740B99"/>
</g>
<circle cx="111" cy="71" r="4" fill="white"/>
<path fill-rule="evenodd" clip-rule="evenodd" d="M111.002 70.7168L112.06 69.6582C112.138 69.5801 112.265 69.5801 112.343 69.6582C112.421 69.7363 112.421 69.8629 112.343 69.941L111.284 70.9996L112.343 72.0582C112.421 72.1363 112.421 72.2629 112.343 72.341C112.265 72.4191 112.138 72.4191 112.06 72.341L111.002 71.2825L109.943 72.341C109.865 72.4191 109.738 72.4191 109.66 72.341C109.582 72.2629 109.582 72.1363 109.66 72.0582L110.719 70.9996L109.66 69.941C109.582 69.8629 109.582 69.7363 109.66 69.6582C109.738 69.5801 109.865 69.5801 109.943 69.6582L111.002 70.7168Z" fill="#740B99"/>
<mask id="mask0" mask-type="alpha" maskUnits="userSpaceOnUse" x="109" y="69" width="4" height="4">
<path fill-rule="evenodd" clip-rule="evenodd" d="M111.002 70.7168L112.06 69.6582C112.138 69.5801 112.265 69.5801 112.343 69.6582C112.421 69.7363 112.421 69.8629 112.343 69.941L111.284 70.9996L112.343 72.0582C112.421 72.1363 112.421 72.2629 112.343 72.341C112.265 72.4191 112.138 72.4191 112.06 72.341L111.002 71.2825L109.943 72.341C109.865 72.4191 109.738 72.4191 109.66 72.341C109.582 72.2629 109.582 72.1363 109.66 72.0582L110.719 70.9996L109.66 69.941C109.582 69.8629 109.582 69.7363 109.66 69.6582C109.738 69.5801 109.865 69.5801 109.943 69.6582L111.002 70.7168Z" fill="white"/>
</mask>
<g mask="url(#mask0)">
<rect x="108.602" y="68.5996" width="4.8" height="4.8" fill="#740B99"/>
</g>
<path d="M66.3136 225.48C66.3168 225.634 66.2863 225.786 66.2242 225.927C66.1638 226.05 66.0743 226.157 65.9636 226.238C65.845 226.319 65.7134 226.378 65.5746 226.413C65.4025 226.454 65.2263 226.473 65.0495 226.472H64.8201C64.7306 226.472 64.6372 226.472 64.54 226.472L64.2405 226.441C64.1473 226.431 64.055 226.414 63.9644 226.39C63.871 226.367 63.8204 226.32 63.8204 226.254V226.013C63.8196 225.998 63.8224 225.984 63.8285 225.971C63.8347 225.958 63.8439 225.947 63.8554 225.939C63.8811 225.919 63.9128 225.91 63.9449 225.912H63.9721L64.2444 225.939L64.54 225.962H64.8239H65.0495C65.2244 225.973 65.399 225.937 65.5552 225.857C65.6184 225.816 65.6682 225.757 65.6985 225.688C65.7289 225.619 65.7386 225.543 65.7263 225.468C65.728 225.365 65.6888 225.266 65.6174 225.192C65.5005 225.079 65.3698 224.981 65.2284 224.9L64.5361 224.488C64.3451 224.376 64.1742 224.233 64.0305 224.064C63.9003 223.908 63.8312 223.711 63.836 223.508C63.8314 223.354 63.8648 223.202 63.9332 223.064C63.9954 222.951 64.085 222.855 64.1938 222.784C64.3127 222.71 64.4448 222.66 64.5828 222.637C64.7459 222.608 64.9112 222.594 65.0768 222.594C65.2638 222.593 65.4508 222.602 65.6368 222.621C65.8158 222.621 65.9869 222.656 66.1464 222.683C66.2358 222.683 66.2786 222.746 66.2786 222.823V223.049C66.2805 223.065 66.2788 223.081 66.2736 223.096C66.2684 223.111 66.2598 223.124 66.2486 223.136C66.2374 223.147 66.2237 223.155 66.2087 223.161C66.1937 223.166 66.1777 223.167 66.1619 223.166H66.1036L65.6252 223.131C65.4268 223.131 65.2362 223.131 65.0379 223.131C64.8808 223.124 64.7239 223.147 64.575 223.197C64.4583 223.243 64.4 223.352 64.4 223.527C64.3994 223.578 64.4095 223.628 64.4296 223.674C64.4497 223.72 64.4794 223.762 64.5167 223.796C64.6254 223.894 64.7456 223.979 64.8745 224.048L65.5552 224.437C65.7838 224.558 65.984 224.727 66.1425 224.931C66.2558 225.092 66.3156 225.284 66.3136 225.48V225.48Z" fill="white"/>
<path d="M71.6214 226.386C71.6095 226.399 71.5951 226.41 71.579 226.417C71.563 226.425 71.5456 226.429 71.528 226.429H71.1974C71.1606 226.428 71.1257 226.413 71.1002 226.386C71.0877 226.374 71.0778 226.36 71.0711 226.344C71.0645 226.328 71.0611 226.31 71.0613 226.293V223.866C71.0644 223.745 71.0486 223.624 71.0146 223.508C70.9868 223.425 70.9417 223.348 70.8824 223.283C70.8271 223.228 70.7589 223.187 70.684 223.166C70.6032 223.142 70.5193 223.13 70.4351 223.131C70.3037 223.133 70.1731 223.152 70.0461 223.185C69.9061 223.224 69.77 223.267 69.6572 223.318C69.7022 223.492 69.7231 223.671 69.7194 223.85V226.293C69.7196 226.327 69.7071 226.361 69.6844 226.386C69.6739 226.4 69.6604 226.411 69.6448 226.419C69.6293 226.426 69.6122 226.43 69.5949 226.429H69.2176C69.201 226.429 69.1846 226.426 69.1697 226.418C69.1548 226.411 69.1419 226.4 69.1321 226.386C69.1121 226.359 69.1012 226.327 69.101 226.293V223.85C69.1027 223.728 69.0923 223.605 69.0698 223.485C69.0557 223.405 69.0223 223.331 68.9726 223.267C68.9276 223.215 68.868 223.177 68.8015 223.158C68.7263 223.14 68.6493 223.131 68.572 223.131C68.4386 223.136 68.3071 223.163 68.183 223.213C68.0341 223.266 67.8885 223.328 67.7474 223.399V226.293C67.7471 226.327 67.7363 226.359 67.7163 226.386C67.7054 226.4 67.6918 226.41 67.6763 226.418C67.6609 226.425 67.644 226.429 67.6268 226.429H67.2612C67.2446 226.429 67.2283 226.425 67.2135 226.418C67.1987 226.41 67.1857 226.4 67.1757 226.386C67.1557 226.359 67.1448 226.327 67.1445 226.293V222.792C67.1455 222.756 67.1593 222.722 67.1834 222.695C67.1951 222.682 67.2095 222.672 67.2257 222.665C67.2418 222.658 67.2593 222.655 67.2768 222.656H67.6191C67.6364 222.656 67.6537 222.66 67.6697 222.666C67.6858 222.673 67.7003 222.683 67.7124 222.695C67.7354 222.722 67.7478 222.757 67.7474 222.792V222.921C67.8936 222.833 68.0472 222.757 68.2064 222.695C68.3809 222.632 68.5653 222.6 68.7509 222.602C68.8833 222.599 69.0151 222.62 69.1399 222.664C69.2558 222.712 69.3585 222.786 69.4394 222.882C69.6242 222.791 69.8186 222.72 70.0189 222.672C70.2009 222.627 70.3876 222.603 70.5751 222.602C70.7223 222.601 70.869 222.62 71.0107 222.66C71.1435 222.702 71.2648 222.774 71.3647 222.87C71.4718 222.981 71.5528 223.114 71.6019 223.259C71.6645 223.453 71.6935 223.655 71.6875 223.858V226.285C71.6853 226.306 71.6781 226.326 71.6666 226.344C71.6551 226.361 71.6396 226.376 71.6214 226.386V226.386Z" fill="white"/>
<path d="M75.2232 226.289C75.2226 226.307 75.2186 226.324 75.2113 226.34C75.2039 226.356 75.1934 226.37 75.1804 226.382C75.168 226.396 75.153 226.407 75.1363 226.414C75.1195 226.421 75.1014 226.425 75.0832 226.425H74.7681C74.7505 226.425 74.7332 226.421 74.7171 226.413C74.7011 226.406 74.6867 226.395 74.6748 226.382C74.661 226.371 74.65 226.357 74.6425 226.341C74.6351 226.324 74.6315 226.307 74.632 226.289V226.137C74.4705 226.232 74.3014 226.312 74.1263 226.378C73.9503 226.441 73.7647 226.472 73.5779 226.472C73.435 226.473 73.2926 226.456 73.154 226.421C73.0232 226.389 72.902 226.326 72.8 226.238C72.6904 226.146 72.6049 226.029 72.5511 225.896C72.4836 225.727 72.4518 225.545 72.4577 225.363V225.282C72.4559 225.116 72.4849 224.951 72.5433 224.795C72.6035 224.656 72.7019 224.536 72.8273 224.449C72.9802 224.344 73.1539 224.272 73.3368 224.239C73.5928 224.188 73.8536 224.164 74.1147 224.169H74.6203V223.897C74.6426 223.683 74.5844 223.468 74.4569 223.294C74.2977 223.164 74.0936 223.103 73.8891 223.123C73.6635 223.123 73.469 223.123 73.2979 223.123C73.1267 223.123 72.9751 223.146 72.8389 223.162H72.8039C72.7738 223.162 72.7443 223.154 72.7183 223.139C72.695 223.139 72.6834 223.096 72.6834 223.049V222.82C72.6834 222.746 72.73 222.703 72.8273 222.687C72.9245 222.672 73.1228 222.645 73.2901 222.625C73.4573 222.606 73.6557 222.598 73.8891 222.598C74.0744 222.58 74.2613 222.602 74.4376 222.661C74.6139 222.721 74.7756 222.817 74.912 222.944C75.1352 223.207 75.248 223.545 75.2271 223.889L75.2232 226.289ZM74.6164 224.601H74.1108C73.9388 224.598 73.7669 224.611 73.5974 224.64C73.4826 224.655 73.3725 224.695 73.2746 224.757C73.1978 224.804 73.1401 224.877 73.1112 224.963C73.0758 225.063 73.0587 225.168 73.0606 225.274V225.356C73.0497 225.446 73.059 225.537 73.088 225.623C73.1169 225.709 73.1647 225.788 73.2279 225.853C73.3653 225.946 73.5295 225.99 73.6946 225.978C73.8501 225.98 74.0049 225.957 74.1536 225.912C74.3139 225.857 74.4688 225.788 74.6164 225.706V224.601Z" fill="white"/>
<path d="M77.7043 223.134C77.5477 223.135 77.3919 223.157 77.2415 223.201C77.0719 223.254 76.9098 223.328 76.7592 223.422V226.289C76.7593 226.306 76.756 226.323 76.7493 226.34C76.7426 226.356 76.7327 226.37 76.7203 226.382C76.6947 226.409 76.6598 226.424 76.623 226.425H76.2885C76.2707 226.425 76.2531 226.422 76.2369 226.414C76.2207 226.407 76.2065 226.396 76.1952 226.382C76.1827 226.37 76.1728 226.356 76.1661 226.34C76.1595 226.323 76.1561 226.306 76.1563 226.289V222.788C76.156 222.77 76.1593 222.752 76.166 222.736C76.1727 222.719 76.1826 222.704 76.1952 222.691C76.2068 222.678 76.2212 222.668 76.2374 222.661C76.2536 222.654 76.2711 222.651 76.2885 222.652H76.6075C76.6249 222.651 76.6424 222.654 76.6585 222.661C76.6747 222.668 76.6892 222.678 76.7008 222.691C76.7264 222.718 76.7404 222.755 76.7397 222.792V222.936C76.8921 222.826 77.0598 222.74 77.2376 222.679C77.3881 222.629 77.5456 222.603 77.7043 222.602C77.8016 222.602 77.8482 222.644 77.8482 222.73V223.014C77.8482 223.096 77.8016 223.134 77.7043 223.134Z" fill="white"/>
<path d="M80.3773 226.443L80.1518 226.466H79.9301C79.7918 226.468 79.6537 226.456 79.5178 226.431C79.4107 226.41 79.3113 226.36 79.23 226.287C79.1465 226.212 79.0859 226.115 79.055 226.007C79.0118 225.858 78.9922 225.703 78.9966 225.548V223.156L78.3354 223.082C78.2459 223.082 78.2031 223.032 78.2031 222.958V222.771C78.2031 222.69 78.2459 222.651 78.3354 222.651H78.9966V221.978C78.9956 221.961 78.9979 221.943 79.0037 221.927C79.0094 221.911 79.0184 221.896 79.03 221.883C79.0416 221.871 79.0556 221.86 79.0713 221.853C79.0869 221.846 79.1038 221.842 79.121 221.842L79.4789 221.787C79.4927 221.787 79.5065 221.789 79.5192 221.795C79.5319 221.8 79.5434 221.808 79.5528 221.818C79.5636 221.83 79.572 221.843 79.5774 221.858C79.5827 221.872 79.585 221.888 79.5839 221.904V222.651H80.3229C80.341 222.65 80.3589 222.653 80.3756 222.66C80.3924 222.666 80.4076 222.677 80.4204 222.689C80.4331 222.702 80.4432 222.717 80.4498 222.734C80.4565 222.751 80.4596 222.769 80.4591 222.787V223.02C80.4596 223.038 80.4565 223.056 80.4498 223.073C80.4432 223.09 80.4331 223.105 80.4204 223.118C80.4076 223.13 80.3924 223.14 80.3756 223.147C80.3589 223.154 80.341 223.157 80.3229 223.156H79.5839V225.544C79.5667 225.668 79.5958 225.794 79.6656 225.898C79.7493 225.957 79.8517 225.984 79.9534 225.972H80.3424C80.4396 225.972 80.4863 226.007 80.4863 226.069V226.314C80.4979 226.388 80.459 226.427 80.3773 226.443Z" fill="white"/>
<path d="M84.0632 222.775C84.0665 222.79 84.0665 222.806 84.0632 222.822L82.9313 226.769C82.8861 226.932 82.8276 227.091 82.7563 227.244C82.7006 227.363 82.6211 227.468 82.5229 227.555C82.42 227.635 82.3024 227.695 82.1768 227.73C82.0137 227.769 81.8465 227.787 81.6789 227.785C81.5762 227.784 81.4737 227.777 81.3716 227.765C81.281 227.759 81.1912 227.745 81.1033 227.722C81.0666 227.717 81.0311 227.705 80.9983 227.687C80.9851 227.68 80.9743 227.67 80.9674 227.656C80.9604 227.643 80.9576 227.628 80.9593 227.614V227.361C80.9593 227.287 81.0021 227.248 81.0877 227.248C81.1655 227.248 81.2705 227.248 81.395 227.275C81.5195 227.302 81.6206 227.275 81.6984 227.275C81.7845 227.276 81.8705 227.268 81.9551 227.252C82.0233 227.236 82.0871 227.206 82.1418 227.162C82.1988 227.113 82.2452 227.052 82.2779 226.983C82.324 226.891 82.358 226.793 82.379 226.692L82.4452 226.412H82.3518C82.3027 226.418 82.2531 226.418 82.204 226.412C82.1547 226.403 82.1081 226.383 82.0679 226.353C82.018 226.314 81.9768 226.265 81.9473 226.209C81.9038 226.128 81.8686 226.042 81.8423 225.953L80.9321 222.822C80.9289 222.806 80.9289 222.79 80.9321 222.775C80.9321 222.697 80.9749 222.658 81.0566 222.658H81.4455C81.4591 222.658 81.4725 222.662 81.4846 222.668C81.4967 222.674 81.5073 222.683 81.5156 222.693C81.5369 222.714 81.5529 222.739 81.5622 222.767L82.3712 225.747C82.3767 225.795 82.3987 225.841 82.4335 225.875C82.4522 225.89 82.4755 225.898 82.4996 225.898H82.6085L83.4447 222.759C83.4556 222.732 83.473 222.708 83.4953 222.689C83.506 222.679 83.5188 222.671 83.5329 222.665C83.547 222.66 83.562 222.658 83.577 222.658H83.966C84.0243 222.658 84.0632 222.697 84.0632 222.775Z" fill="white"/>
<path d="M87.4224 226.29C87.4226 226.308 87.4193 226.325 87.4126 226.341C87.4059 226.357 87.396 226.372 87.3835 226.384C87.358 226.41 87.3231 226.426 87.2863 226.427H86.9713C86.9345 226.426 86.8995 226.41 86.874 226.384C86.8615 226.372 86.8516 226.357 86.845 226.341C86.8383 226.325 86.835 226.308 86.8351 226.29V226.139C86.6723 226.233 86.5019 226.314 86.3256 226.38C86.1497 226.443 85.964 226.474 85.7771 226.473C85.6356 226.474 85.4944 226.457 85.3571 226.423C85.2252 226.39 85.1026 226.328 84.9992 226.24C84.8919 226.146 84.808 226.029 84.7542 225.897C84.6867 225.728 84.6549 225.547 84.6609 225.365V225.283C84.657 225.117 84.6862 224.952 84.7465 224.797C84.8065 224.658 84.9033 224.538 85.0265 224.451C85.1813 224.346 85.3561 224.274 85.5399 224.241C85.7959 224.189 86.0567 224.166 86.3178 224.171H86.8234V223.898C86.8458 223.684 86.7875 223.469 86.6601 223.295C86.5008 223.166 86.2967 223.104 86.0922 223.124C85.8666 223.124 85.6721 223.124 85.501 223.124C85.3299 223.124 85.1782 223.148 85.0421 223.163H85.007C84.9769 223.163 84.9474 223.155 84.9215 223.14C84.9074 223.13 84.8963 223.116 84.8894 223.101C84.8826 223.085 84.8802 223.067 84.8826 223.05V222.821C84.8826 222.747 84.9331 222.704 85.0265 222.689C85.1198 222.673 85.326 222.646 85.4893 222.626C85.6527 222.607 85.8783 222.599 86.0922 222.599C86.2699 222.572 86.4514 222.587 86.6226 222.641C86.7938 222.696 86.95 222.789 87.0792 222.914C87.2083 223.039 87.3068 223.192 87.367 223.362C87.4273 223.531 87.4476 223.712 87.4263 223.891L87.4224 226.29ZM86.8196 224.602H86.3334C86.1614 224.599 85.9895 224.612 85.82 224.641C85.705 224.656 85.5947 224.695 85.4971 224.758C85.4213 224.808 85.3628 224.88 85.3299 224.964C85.296 225.064 85.2802 225.17 85.2832 225.275V225.357C85.2718 225.447 85.2805 225.538 85.3088 225.624C85.337 225.71 85.3841 225.789 85.4465 225.855C85.5843 225.946 85.7483 225.99 85.9133 225.979C86.0688 225.981 86.2237 225.959 86.3723 225.913C86.5341 225.86 86.6905 225.791 86.839 225.707L86.8196 224.602Z" fill="white"/>
<path d="M91.1357 226.202C91.1392 226.239 91.1296 226.276 91.1085 226.307C91.1085 226.334 91.0541 226.35 90.9918 226.357C90.7825 226.4 90.5708 226.43 90.3578 226.447C90.1478 226.447 89.9378 226.474 89.7277 226.474C89.5002 226.479 89.2739 226.438 89.0626 226.353C88.8826 226.281 88.7235 226.165 88.5998 226.015C88.4692 225.86 88.3749 225.678 88.3236 225.482C88.2622 225.254 88.2322 225.018 88.2342 224.782V224.288C88.2062 223.843 88.3371 223.402 88.6037 223.043C88.7469 222.892 88.9222 222.774 89.1166 222.699C89.311 222.623 89.5198 222.592 89.7277 222.608C89.8328 222.608 89.9611 222.608 90.1167 222.627C90.2723 222.647 90.4045 222.654 90.5407 222.678V221.402C90.5395 221.385 90.542 221.368 90.5481 221.352C90.5541 221.335 90.5636 221.321 90.5757 221.309C90.5879 221.297 90.6025 221.287 90.6185 221.281C90.6346 221.275 90.6519 221.273 90.669 221.274H91.0191C91.0356 221.273 91.052 221.276 91.0673 221.282C91.0827 221.288 91.0967 221.297 91.1085 221.309C91.1313 221.335 91.1437 221.368 91.1435 221.402L91.1357 226.202ZM90.5329 223.183C90.4043 223.162 90.2743 223.149 90.1439 223.145H89.755C89.6102 223.142 89.4662 223.167 89.331 223.218C89.2202 223.266 89.1256 223.344 89.0588 223.444C88.9835 223.552 88.9331 223.676 88.911 223.806C88.8782 223.967 88.8625 224.131 88.8643 224.296V224.766C88.8474 225.067 88.9147 225.366 89.0588 225.63C89.1373 225.738 89.2433 225.823 89.3657 225.876C89.488 225.929 89.6225 225.949 89.755 225.933C89.8756 225.933 90.0078 225.933 90.1439 225.933L90.5329 225.906V223.183Z" fill="white"/>
<path d="M94.4507 225.48C94.4546 225.634 94.4226 225.787 94.3574 225.927C94.2982 226.051 94.2085 226.158 94.0968 226.238C93.9782 226.319 93.8466 226.378 93.7078 226.413C93.5357 226.454 93.3595 226.473 93.1827 226.472H92.9455C92.856 226.472 92.7627 226.472 92.6655 226.472L92.366 226.441C92.274 226.431 92.1829 226.414 92.0937 226.39C91.9965 226.367 91.9498 226.32 91.9498 226.254V226.013C91.9481 225.999 91.9502 225.985 91.9556 225.972C91.9611 225.959 91.9698 225.947 91.9809 225.939C92.0066 225.919 92.0382 225.91 92.0703 225.912H92.0976L92.3698 225.939L92.6693 225.962H92.9494H93.175C93.3499 225.973 93.5246 225.937 93.6806 225.857C93.7438 225.816 93.7936 225.757 93.824 225.688C93.8544 225.619 93.864 225.543 93.8517 225.468C93.8534 225.365 93.8142 225.266 93.7429 225.192C93.6259 225.079 93.4952 224.981 93.3539 224.9L92.6616 224.488C92.4706 224.376 92.2997 224.233 92.1559 224.064C92.0268 223.908 91.9591 223.71 91.9653 223.508C91.9597 223.355 91.9918 223.202 92.0587 223.064C92.1209 222.951 92.2105 222.855 92.3193 222.784C92.4381 222.71 92.5702 222.66 92.7082 222.637C92.8713 222.608 93.0366 222.593 93.2022 222.594C93.388 222.593 93.5736 222.602 93.7584 222.621C93.9412 222.621 94.1085 222.656 94.2679 222.683C94.3574 222.683 94.4002 222.746 94.4002 222.823V223.049C94.402 223.065 94.4003 223.081 94.3951 223.096C94.3899 223.111 94.3814 223.124 94.3702 223.136C94.3589 223.147 94.3453 223.155 94.3303 223.161C94.3153 223.166 94.2992 223.167 94.2835 223.166H94.264L93.7856 223.131C93.5873 223.131 93.3967 223.131 93.2022 223.131C93.0452 223.124 92.8882 223.146 92.7393 223.197C92.6226 223.243 92.5643 223.352 92.5643 223.527C92.5638 223.578 92.5738 223.628 92.594 223.674C92.6141 223.72 92.6437 223.762 92.681 223.796C92.7882 223.894 92.9071 223.979 93.0349 224.048L93.7156 224.437C93.945 224.557 94.1455 224.726 94.3029 224.931C94.4077 225.095 94.4594 225.286 94.4507 225.48V225.48Z" fill="white"/>
<path d="M56.546 227.759C56.5039 227.759 56.463 227.745 56.4293 227.72C56.3957 227.695 56.3711 227.659 56.3593 227.619C56.3522 227.595 56.35 227.569 56.3529 227.544C56.3557 227.519 56.3635 227.495 56.3758 227.473C56.3881 227.45 56.4047 227.431 56.4245 227.415C56.4444 227.4 56.4672 227.388 56.4916 227.382L57.5495 227.102H56.5421C56.4906 227.102 56.4411 227.081 56.4046 227.045C56.3682 227.008 56.3477 226.959 56.3477 226.907C56.3477 226.855 56.3682 226.806 56.4046 226.77C56.4411 226.733 56.4906 226.713 56.5421 226.713H58.9381C58.9636 226.709 58.9896 226.711 59.0144 226.718C59.0393 226.724 59.0626 226.736 59.083 226.752C59.1034 226.767 59.1205 226.787 59.1334 226.809C59.1462 226.832 59.1545 226.856 59.1578 226.882C59.1612 226.907 59.1594 226.933 59.1527 226.958C59.146 226.983 59.1345 227.006 59.1187 227.027C59.103 227.047 59.0835 227.064 59.0612 227.077C59.0388 227.09 59.0142 227.098 58.9887 227.102L56.5927 227.778L56.546 227.759Z" fill="white"/>
<path d="M56.545 228.657C56.5028 228.657 56.4615 228.644 56.4277 228.619C56.394 228.593 56.3695 228.557 56.3583 228.517C56.3451 228.468 56.3515 228.415 56.3762 228.371C56.4009 228.327 56.4419 228.294 56.4906 228.279L58.8865 227.603C58.9381 227.589 58.9931 227.596 59.0394 227.623C59.0857 227.649 59.1196 227.693 59.1335 227.745C59.1474 227.796 59.1403 227.851 59.1137 227.898C59.087 227.944 59.0431 227.978 58.9915 227.992L56.5956 228.668L56.545 228.657Z" fill="white"/>
<path d="M57.7333 229.075C57.6913 229.075 57.6504 229.061 57.6167 229.036C57.5831 229.011 57.5585 228.975 57.5467 228.935C57.5396 228.911 57.5374 228.885 57.5403 228.86C57.5431 228.835 57.5509 228.811 57.5632 228.789C57.5755 228.767 57.592 228.747 57.6119 228.732C57.6318 228.716 57.6546 228.705 57.6789 228.698L57.8461 228.772C57.951 228.744 58.2348 228.632 58.2543 228.733C58.2614 228.757 58.2636 228.782 58.2608 228.808C58.2579 228.833 58.2501 228.857 58.2378 228.879C58.2255 228.901 58.209 228.92 58.1891 228.936C58.1692 228.952 58.1464 228.963 58.1221 228.97L57.7839 229.067L57.7333 229.075Z" fill="white"/>
<path d="M58.6178 226.257H56.8831C56.7414 226.257 56.6055 226.201 56.5049 226.101C56.4044 226.001 56.3474 225.866 56.3464 225.724V225.18C55.8693 224.876 55.5036 224.425 55.3043 223.896C55.105 223.367 55.0828 222.787 55.2411 222.244C55.3993 221.701 55.7295 221.224 56.182 220.884C56.6344 220.545 57.1848 220.361 57.7505 220.361C58.3161 220.361 58.8665 220.545 59.319 220.884C59.7715 221.224 60.1016 221.701 60.2599 222.244C60.4181 222.787 60.3959 223.367 60.1966 223.896C59.9973 224.425 59.6317 224.876 59.1546 225.18V225.744C59.1486 225.882 59.0894 226.013 58.9894 226.108C58.8893 226.204 58.7562 226.257 58.6178 226.257V226.257ZM57.7388 220.746C57.2477 220.745 56.7701 220.907 56.3805 221.206C55.991 221.505 55.7114 221.925 55.5853 222.399C55.4592 222.874 55.4937 223.377 55.6834 223.83C55.8731 224.283 56.2074 224.66 56.6342 224.904C56.6641 224.92 56.689 224.944 56.7061 224.974C56.7233 225.003 56.732 225.037 56.7314 225.071V225.724C56.7314 225.744 56.7354 225.763 56.743 225.782C56.7507 225.8 56.7619 225.816 56.7761 225.83C56.7902 225.844 56.807 225.855 56.8254 225.862C56.8437 225.869 56.8634 225.873 56.8831 225.872H58.6178C58.6376 225.873 58.6572 225.869 58.6756 225.862C58.694 225.855 58.7107 225.844 58.7249 225.83C58.739 225.816 58.7502 225.8 58.7579 225.782C58.7656 225.763 58.7695 225.744 58.7695 225.724V225.055C58.7693 225.022 58.7778 224.989 58.7942 224.959C58.8105 224.93 58.8342 224.905 58.8629 224.888C59.2833 224.641 59.6108 224.262 59.795 223.81C59.9791 223.358 60.0096 222.859 59.8818 222.388C59.7541 221.917 59.4751 221.501 59.0879 221.204C58.7006 220.908 58.2266 220.747 57.7388 220.746V220.746Z" fill="white"/>
<path d="M59.9285 220.529C59.8938 220.529 59.8599 220.518 59.8314 220.498C59.8029 220.478 59.781 220.45 59.7688 220.418C59.7566 220.385 59.7545 220.35 59.7629 220.316C59.7713 220.283 59.7897 220.252 59.8157 220.229L60.4961 219.635C60.5306 219.605 60.5754 219.591 60.6206 219.594C60.6658 219.598 60.7077 219.619 60.7371 219.654C60.7527 219.67 60.7651 219.688 60.7736 219.708C60.7821 219.729 60.7864 219.751 60.7864 219.773C60.7864 219.795 60.7821 219.816 60.7736 219.837C60.7651 219.857 60.7527 219.876 60.7371 219.891L60.0568 220.486C60.0397 220.502 60.0194 220.514 59.9973 220.521C59.9751 220.529 59.9517 220.531 59.9285 220.529V220.529Z" fill="white"/>
<path d="M57.7239 219.808C57.6785 219.808 57.6349 219.79 57.6028 219.758C57.5707 219.725 57.5527 219.682 57.5527 219.637V218.322C57.549 218.297 57.5506 218.273 57.5574 218.249C57.5642 218.225 57.5761 218.203 57.5921 218.185C57.6082 218.166 57.6281 218.151 57.6505 218.141C57.6729 218.13 57.6973 218.125 57.7219 218.125C57.7466 218.125 57.7709 218.13 57.7933 218.141C57.8157 218.151 57.8356 218.166 57.8517 218.185C57.8678 218.203 57.8796 218.225 57.8864 218.249C57.8932 218.273 57.8948 218.297 57.8911 218.322V219.637C57.8911 219.681 57.8736 219.724 57.8424 219.756C57.8111 219.788 57.7686 219.807 57.7239 219.808V219.808Z" fill="white"/>
<path d="M61.1155 222.547C61.0737 222.545 61.0337 222.529 61.0032 222.5C60.9727 222.472 60.9538 222.433 60.9499 222.391C60.9461 222.349 60.9577 222.308 60.9824 222.274C61.0072 222.24 61.0435 222.217 61.0844 222.208L62.2785 221.979C62.3227 221.972 62.3679 221.982 62.4048 222.007C62.4416 222.033 62.4674 222.071 62.4768 222.115C62.4848 222.159 62.475 222.205 62.4495 222.242C62.424 222.279 62.3849 222.305 62.3407 222.313L61.1466 222.543L61.1155 222.547Z" fill="white"/>
<path d="M55.5053 220.529C55.4636 220.529 55.4233 220.514 55.3925 220.486L54.7161 219.891C54.6991 219.877 54.6851 219.859 54.675 219.84C54.6648 219.82 54.6586 219.799 54.6568 219.777C54.655 219.755 54.6576 219.732 54.6644 219.711C54.6713 219.69 54.6822 219.671 54.6966 219.654C54.726 219.619 54.768 219.598 54.8132 219.594C54.8583 219.591 54.9031 219.605 54.9377 219.635L55.618 220.229C55.6498 220.261 55.6677 220.305 55.6677 220.35C55.6677 220.395 55.6498 220.438 55.618 220.47C55.5896 220.504 55.5491 220.525 55.5053 220.529Z" fill="white"/>
<path d="M61.2938 225.11C61.2619 225.11 61.2306 225.101 61.2044 225.082L60.6913 224.764C60.6542 224.739 60.628 224.701 60.6179 224.658C60.6077 224.614 60.6145 224.569 60.6368 224.53C60.6487 224.511 60.6643 224.494 60.6827 224.481C60.7011 224.468 60.722 224.459 60.744 224.454C60.7661 224.449 60.7889 224.448 60.8112 224.452C60.8335 224.456 60.8548 224.464 60.874 224.476L61.3832 224.795C61.421 224.819 61.4479 224.857 61.4581 224.9C61.4683 224.944 61.4609 224.99 61.4377 225.028C61.422 225.052 61.4008 225.072 61.3758 225.086C61.3507 225.101 61.3226 225.108 61.2938 225.11Z" fill="white"/>
<path d="M54.1517 225.027C54.1222 225.027 54.093 225.02 54.0671 225.006C54.0412 224.992 54.0195 224.971 54.004 224.945C53.9817 224.907 53.9749 224.861 53.985 224.818C53.9952 224.775 54.0214 224.737 54.0584 224.712L54.5716 224.393C54.6093 224.377 54.6517 224.374 54.6911 224.387C54.7305 224.399 54.7642 224.425 54.7859 224.46C54.8077 224.495 54.8161 224.536 54.8095 224.577C54.803 224.618 54.782 224.655 54.7504 224.681L54.2411 225C54.2145 225.017 54.1835 225.027 54.1517 225.027V225.027Z" fill="white"/>
<path d="M54.3211 222.545H54.2899L53.0959 222.315C53.0516 222.307 53.0125 222.281 52.9871 222.244C52.9616 222.207 52.9518 222.161 52.9597 222.117C52.9691 222.073 52.9949 222.035 53.0318 222.009C53.0687 221.984 53.1139 221.974 53.1581 221.981L54.3522 222.21C54.3931 222.219 54.4294 222.242 54.4541 222.276C54.4789 222.31 54.4905 222.351 54.4866 222.393C54.4828 222.435 54.4638 222.474 54.4333 222.502C54.4028 222.531 54.3629 222.547 54.3211 222.549V222.545Z" fill="white"/>
<defs>
<filter id="filter0_d" x="14.9574" y="52.9574" width="117.085" height="199.085" filterUnits="userSpaceOnUse" color-interpolation-filters="sRGB">
<feFlood flood-opacity="0" result="BackgroundImageFix"/>
<feColorMatrix in="SourceAlpha" type="matrix" values="0 0 0 0 0 0 0 0 0 0 0 0 0 0 0 0 0 0 127 0"/>
<feOffset dy="4"/>
<feGaussianBlur stdDeviation="4.52129"/>
<feColorMatrix type="matrix" values="0 0 0 0 0.214753 0 0 0 0 0.00629279 0 0 0 0 0.28821 0 0 0 0.29 0"/>
<feBlend mode="normal" in2="BackgroundImageFix" result="effect1_dropShadow"/>
<feBlend mode="normal" in="SourceGraphic" in2="effect1_dropShadow" result="shape"/>
</filter>
<clipPath id="clip0">
<rect width="116" height="213" fill="white" transform="translate(16 42)"/>
</clipPath>
</defs>
</svg>
