<svg width="149" height="297" viewBox="0 0 149 297" fill="none" xmlns="http://www.w3.org/2000/svg">
<rect x="147.945" y="296.592" width="147.211" height="296.515" rx="9.54155" transform="rotate(-179.97 147.945 296.592)" fill="white"/>
<rect x="141.684" y="261.705" width="134.653" height="235.119" rx="10" transform="rotate(-179.97 141.684 261.705)" fill="#F7F7F7"/>
<g opacity="0.5" clip-path="url(#clip0)">
<path d="M37.5352 185.208L44.6501 181.107L51.8047 185.208L44.6976 189.309L37.5352 185.208Z" fill="#C69BD5"/>
<path d="M44.6959 189.31L51.803 185.209L51.7555 201.533L44.6484 205.634L44.6959 189.31Z" fill="#A059BA"/>
<path d="M37.5589 177.046L44.6739 172.945L44.6501 181.107L37.5352 185.208L37.5589 177.046Z" fill="#A059BA"/>
<path d="M30.4023 172.946L37.5173 168.846L44.6718 172.946L37.5569 177.047L30.4023 172.946Z" fill="#C69BD5"/>
<path d="M37.5575 177.046L37.5337 185.208L44.6962 189.309L44.6487 205.633L37.4942 201.532L37.5179 193.37L30.3555 189.269L30.403 172.945L37.5575 177.046Z" fill="#BC8ACE"/>
<path d="M23.202 214.466L16.095 210.365L16 177.717L23.107 181.817L23.202 214.466Z" fill="#D3B1DE"/>
<path d="M23.107 181.817L16 177.716L23.1545 173.615L30.2695 177.716L23.107 181.817Z" fill="#E2CCEA"/>
<path d="M30.2679 177.717L30.355 210.365L23.2004 214.466L23.1055 181.817L30.2679 177.717Z" fill="#B57EC9"/>
<path d="M92.3973 106.386L85.2824 102.285L85.1953 69.6367L92.3023 73.7374L92.3973 106.386Z" fill="#D3B1DE"/>
<path d="M92.3023 73.7365L85.1953 69.6358L92.3498 65.5352L99.4568 69.6358L92.3023 73.7365Z" fill="#E2CCEA"/>
<path d="M99.4553 69.6367L99.5503 102.285L92.3958 106.386L92.3008 73.7374L99.4553 69.6367Z" fill="#B57EC9"/>
<path d="M51.8284 139.136L58.9354 135.035L58.9117 143.197L51.8047 147.298L51.8284 139.136Z" fill="#740B99"/>
<path d="M44.6953 126.872L51.8024 122.771L58.9569 126.872L51.8498 130.973L44.6953 126.872Z" fill="#B47BC8"/>
<path d="M59.028 126.913L66.1429 122.812L66.0954 139.137L58.9805 143.237L59.028 126.913Z" fill="#740B99"/>
<path d="M51.875 122.812L58.982 118.711L66.1445 122.812L59.0295 126.912L51.875 122.812Z" fill="#B47BC8"/>
<path d="M59.0287 126.913L58.9812 143.237L51.8267 139.137L51.803 147.299L44.6484 143.198L44.6959 126.874L51.8505 130.975L51.8742 122.812L59.0287 126.913Z" fill="#8223A3"/>
<path d="M88.5355 170.864L95.6504 166.764L95.6267 174.926L88.5117 179.026L88.5355 170.864Z" fill="#740B99"/>
<path d="M81.4023 158.603L88.5094 154.502L95.6638 158.603L88.5568 162.703L81.4023 158.603Z" fill="#B47BC8"/>
<path d="M95.735 158.642L102.85 154.541L102.802 170.865L95.6875 174.966L95.735 158.642Z" fill="#740B99"/>
<path d="M88.582 154.54L95.6891 150.439L102.852 154.54L95.7366 158.641L88.582 154.54Z" fill="#B47BC8"/>
<path d="M95.7357 158.642L95.6882 174.966L88.5337 170.865L88.51 179.027L81.3555 174.926L81.403 158.602L88.5574 162.703L88.5812 154.541L95.7357 158.642Z" fill="#8223A3"/>
<path d="M30.3555 218.134L37.4704 214.025L44.625 218.134L37.5179 222.235L30.3555 218.134Z" fill="#C091D1"/>
<path d="M37.5198 222.233L44.6269 218.133L44.6031 226.287L37.4961 230.396L37.5198 222.233Z" fill="#E6D3ED"/>
<path d="M30.3792 209.964L37.4942 205.863L37.4704 214.025L30.3555 218.134L30.3792 209.964Z" fill="#C091D1"/>
<path d="M23.2266 205.862L30.3336 201.762L37.4961 205.862L30.3811 209.963L23.2266 205.862Z" fill="#F0E4F4"/>
<path d="M30.38 209.964L30.3563 218.134L37.5187 222.235L37.495 230.397L16.0234 218.087L16.0472 209.925L23.2017 214.025L23.2255 205.863L30.38 209.964Z" fill="#EADAF0"/>
<path d="M44.5703 160.644L51.6774 156.543L58.8398 160.644L51.7248 164.744L44.5703 160.644Z" fill="#AD6FC3"/>
<path d="M58.8789 168.847L65.9939 164.746L73.1484 168.847L66.0414 172.947L58.8789 168.847Z" fill="#D7B8E1"/>
<path d="M66.0433 172.946L73.1503 168.846L73.1266 177.008L66.0195 181.108L66.0433 172.946Z" fill="#8D37AB"/>
<path d="M58.9026 160.685L66.0176 156.584L65.9939 164.746L58.8789 168.847L58.9026 160.685Z" fill="#A35EBC"/>
<path d="M51.75 156.583L58.8571 152.482L66.0195 156.583L58.9046 160.684L51.75 156.583Z" fill="#D7B8E1"/>
<path d="M58.9034 160.685L58.8797 168.847L66.0421 172.947L66.0184 181.109L44.5469 168.807L44.5706 160.645L51.7251 164.746L51.7489 156.584L58.9034 160.685Z" fill="#BC8ACE"/>
<path d="M81.3633 121.829L88.4783 117.729L95.6329 121.829L88.5258 125.93L81.3633 121.829Z" fill="#AD6FC3"/>
<path d="M95.6797 130.03L102.787 125.93L109.941 130.03L102.834 134.131L95.6797 130.03Z" fill="#D7B8E1"/>
<path d="M102.836 134.132L109.943 130.031L109.927 138.193L102.812 142.294L102.836 134.132Z" fill="#8D37AB"/>
<path d="M95.7034 121.87L102.81 117.77L102.787 125.932L95.6797 130.032L95.7034 121.87Z" fill="#A35EBC"/>
<path d="M88.5508 117.769L95.6579 113.668L102.812 117.769L95.7053 121.869L88.5508 117.769Z" fill="#D7B8E1"/>
<path d="M95.7042 121.87L95.6805 130.032L102.835 134.133L102.811 142.295L81.3477 129.993L81.3635 121.831L88.5259 125.932L88.5497 117.77L95.7042 121.87Z" fill="#BC8ACE"/>
<path d="M51.8522 222.273L58.9593 218.172L58.9118 234.496L51.8047 238.597L51.8522 222.273Z" fill="#7B179E"/>
<path d="M37.5352 214.064L44.6501 209.963L58.9592 218.172L51.8521 222.273L37.5352 214.064Z" fill="#B47BC8"/>
<path d="M51.8527 222.274L51.8052 238.598L37.4961 230.396L37.5357 214.064L51.8527 222.274Z" fill="#8223A3"/>
<path d="M124.868 94.9874L131.975 90.8867L131.927 107.211L124.82 111.312L124.868 94.9874Z" fill="#740B99"/>
<path d="M110.559 86.7862L117.666 82.6855L131.975 90.8869L124.868 94.9876L110.559 86.7862Z" fill="#B47BC8"/>
<path d="M124.868 94.9885L124.821 111.313L110.512 103.111L110.559 86.7871L124.868 94.9885Z" fill="#8223A3"/>
<path d="M58.9925 226.366L66.1075 222.266L66.0837 230.428L58.9688 234.528L58.9925 226.366Z" fill="#A059BA"/>
<path d="M51.8359 222.265L58.943 218.164L66.1054 222.265L58.9905 226.365L51.8359 222.265Z" fill="#C69BD5"/>
<path d="M73.2855 242.73L80.3926 238.629L80.3688 246.791L73.2617 250.892L73.2855 242.73Z" fill="#7B179E"/>
<path d="M58.9688 234.528L66.0837 230.428L80.3928 238.629L73.2858 242.73L58.9688 234.528Z" fill="#A059BA"/>
<path d="M58.9911 226.366L58.9673 234.528L73.2843 242.73L73.2606 250.892L51.7891 238.59L51.8128 230.428L51.8365 222.266L58.9911 226.366Z" fill="#BC8ACE"/>
<path d="M109.313 50.2022L116.428 46.1016L116.404 54.2636L109.289 58.3643L109.313 50.2022Z" fill="#A059BA"/>
<path d="M102.156 46.1007L109.263 42L116.426 46.1007L109.311 50.2014L102.156 46.1007Z" fill="#C69BD5"/>
<path d="M123.606 66.5655L130.713 62.4648L130.689 70.6269L123.582 74.7276L123.606 66.5655Z" fill="#8528A5"/>
<path d="M109.289 58.3624L116.404 54.2617L130.713 62.4631L123.606 66.5638L109.289 58.3624Z" fill="#A059BA"/>
<path d="M109.311 50.2022L109.288 58.3643L123.605 66.5657L123.581 74.7278L102.109 62.4257L102.133 54.2637L102.157 46.1016L109.311 50.2022Z" fill="#BC8ACE"/>
<path d="M58.8711 201.878L65.9781 197.777L73.1327 201.878L66.0256 205.979L58.8711 201.878Z" fill="#C091D1"/>
<path d="M73.2275 193.757L80.3424 189.656L80.2712 214.143L73.1562 218.243L73.2275 193.757Z" fill="#C091D1"/>
<path d="M66.0742 189.655L73.1813 185.555L80.3437 189.655L73.2287 193.756L66.0742 189.655Z" fill="#F0E4F4"/>
<path d="M73.2279 193.757L73.1567 218.243L66.0022 214.143L58.8477 210.042L58.8714 201.88L66.0259 205.98L66.0734 189.656L73.2279 193.757Z" fill="#EADAF0"/>
<path d="M110.535 146.3L117.642 142.199L124.797 146.3L117.69 150.401L110.535 146.3Z" fill="#C091D1"/>
<path d="M124.892 138.179L131.999 134.078L131.927 158.564L124.82 162.665L124.892 138.179Z" fill="#C091D1"/>
<path d="M117.738 134.077L124.845 129.977L132 134.077L124.893 138.178L117.738 134.077Z" fill="#F0E4F4"/>
<path d="M124.892 138.179L124.821 162.665L117.666 158.564L110.512 154.464L110.535 146.302L117.69 150.402L117.737 134.078L124.892 138.179Z" fill="#EADAF0"/>
<path d="M80.3583 255.001L73.2512 250.893L73.1562 218.244L80.2712 222.345L80.3583 255.001Z" fill="#BC8ACE"/>
<path d="M80.2712 222.344L73.1562 218.243L80.2712 214.143L87.4258 218.243L80.2712 222.344Z" fill="#D7B8E1"/>
<path d="M87.4242 218.244L87.5192 250.893L80.3566 255.001L80.2695 222.345L87.4242 218.244Z" fill="#A35EBC"/>
</g>
<rect x="54.2539" y="17.1211" width="40.8144" height="2.79073" rx="1.39536" transform="rotate(0.0301048 54.2539 17.1211)" fill="#740B99"/>
<circle cx="74.6666" cy="11.3753" r="1.56978" transform="rotate(0.0301048 74.6666 11.3753)" fill="#740B99"/>
<circle cx="74.3494" cy="278.065" r="10.1164" transform="rotate(0.0301048 74.3494 278.065)" fill="#740B99"/>
<rect x="12" y="31" width="125" height="35" rx="10" fill="#740B99"/>
<path d="M63.608 49.096C63.9333 49.1867 64.1893 49.352 64.376 49.592C64.5627 49.8267 64.656 50.1253 64.656 50.488C64.656 50.9733 64.472 51.3467 64.104 51.608C63.7413 51.8693 63.2107 52 62.512 52H59.84V46.4H62.352C62.992 46.4 63.4853 46.528 63.832 46.784C64.184 47.04 64.36 47.3947 64.36 47.848C64.36 48.1413 64.2907 48.3947 64.152 48.608C64.0187 48.8213 63.8373 48.984 63.608 49.096ZM60.64 47.048V48.84H62.28C62.6907 48.84 63.0053 48.7653 63.224 48.616C63.448 48.4613 63.56 48.2373 63.56 47.944C63.56 47.6507 63.448 47.4293 63.224 47.28C63.0053 47.1253 62.6907 47.048 62.28 47.048H60.64ZM62.48 51.352C62.9333 51.352 63.2747 51.2773 63.504 51.128C63.7333 50.9787 63.848 50.744 63.848 50.424C63.848 49.8 63.392 49.488 62.48 49.488H60.64V51.352H62.48ZM67.3267 47.72C67.9134 47.72 68.3614 47.864 68.6707 48.152C68.9854 48.44 69.1427 48.8693 69.1427 49.44V52H68.4147V51.44C68.2867 51.6373 68.1027 51.7893 67.8627 51.896C67.628 51.9973 67.348 52.048 67.0227 52.048C66.548 52.048 66.1667 51.9333 65.8787 51.704C65.596 51.4747 65.4547 51.1733 65.4547 50.8C65.4547 50.4267 65.5907 50.128 65.8627 49.904C66.1347 49.6747 66.5667 49.56 67.1587 49.56H68.3747V49.408C68.3747 49.0773 68.2787 48.824 68.0867 48.648C67.8947 48.472 67.612 48.384 67.2387 48.384C66.988 48.384 66.7427 48.4267 66.5027 48.512C66.2627 48.592 66.06 48.7013 65.8947 48.84L65.5747 48.264C65.7934 48.088 66.0547 47.9547 66.3587 47.864C66.6627 47.768 66.9854 47.72 67.3267 47.72ZM67.1507 51.456C67.444 51.456 67.6974 51.392 67.9107 51.264C68.124 51.1307 68.2787 50.944 68.3747 50.704V50.112H67.1907C66.54 50.112 66.2147 50.3307 66.2147 50.768C66.2147 50.9813 66.2974 51.1493 66.4627 51.272C66.628 51.3947 66.8574 51.456 67.1507 51.456ZM72.8279 47.72C73.3666 47.72 73.7933 47.8773 74.1079 48.192C74.4279 48.5013 74.5879 48.9573 74.5879 49.56V52H73.8199V49.648C73.8199 49.2373 73.7213 48.928 73.5239 48.72C73.3266 48.512 73.0439 48.408 72.6759 48.408C72.2599 48.408 71.9319 48.5307 71.6919 48.776C71.4519 49.016 71.3319 49.3627 71.3319 49.816V52H70.5639V47.76H71.2999V48.4C71.4546 48.1813 71.6626 48.0133 71.9239 47.896C72.1906 47.7787 72.4919 47.72 72.8279 47.72ZM78.2733 47.72C78.8119 47.72 79.2386 47.8773 79.5533 48.192C79.8733 48.5013 80.0333 48.9573 80.0333 49.56V52H79.2653V49.648C79.2653 49.2373 79.1666 48.928 78.9693 48.72C78.7719 48.512 78.4893 48.408 78.1213 48.408C77.7053 48.408 77.3773 48.5307 77.1373 48.776C76.8973 49.016 76.7773 49.3627 76.7773 49.816V52H76.0093V47.76H76.7453V48.4C76.8999 48.1813 77.1079 48.0133 77.3693 47.896C77.6359 47.7787 77.9373 47.72 78.2733 47.72ZM85.31 49.904C85.31 49.9627 85.3047 50.04 85.294 50.136H81.854C81.902 50.5093 82.0647 50.8107 82.342 51.04C82.6247 51.264 82.974 51.376 83.39 51.376C83.8967 51.376 84.3047 51.2053 84.614 50.864L85.038 51.36C84.846 51.584 84.606 51.7547 84.318 51.872C84.0353 51.9893 83.718 52.048 83.366 52.048C82.918 52.048 82.5207 51.9573 82.174 51.776C81.8273 51.5893 81.558 51.3307 81.366 51C81.1793 50.6693 81.086 50.296 81.086 49.88C81.086 49.4693 81.1767 49.0987 81.358 48.768C81.5447 48.4373 81.798 48.1813 82.118 48C82.4433 47.8133 82.8087 47.72 83.214 47.72C83.6193 47.72 83.9793 47.8133 84.294 48C84.614 48.1813 84.862 48.4373 85.038 48.768C85.2193 49.0987 85.31 49.4773 85.31 49.904ZM83.214 48.368C82.846 48.368 82.5367 48.48 82.286 48.704C82.0407 48.928 81.8967 49.2213 81.854 49.584H84.574C84.5313 49.2267 84.3847 48.936 84.134 48.712C83.8887 48.4827 83.582 48.368 83.214 48.368ZM87.1124 48.472C87.2458 48.2267 87.4431 48.04 87.7044 47.912C87.9658 47.784 88.2831 47.72 88.6564 47.72V48.464C88.6138 48.4587 88.5551 48.456 88.4804 48.456C88.0644 48.456 87.7364 48.5813 87.4964 48.832C87.2618 49.0773 87.1444 49.4293 87.1444 49.888V52H86.3764V47.76H87.1124V48.472Z" fill="white"/>
<defs>
<clipPath id="clip0">
<rect width="116" height="213" fill="white" transform="translate(16 42)"/>
</clipPath>
</defs>
</svg>
