<svg width="149" height="297" viewBox="0 0 149 297" fill="none" xmlns="http://www.w3.org/2000/svg">
<rect x="148.043" y="296.592" width="147.211" height="296.515" rx="9.54155" transform="rotate(-179.97 148.043 296.592)" fill="white"/>
<rect x="141.781" y="261.705" width="134.653" height="235.119" rx="6.97682" transform="rotate(-179.97 141.781 261.705)" fill="#301B52"/>
<g style="mix-blend-mode:hard-light">
<path d="M29.7539 146.79L34.9352 143.779L40.15 146.79L34.9692 149.801L29.7539 146.79Z" fill="#C589EF"/>
<path d="M34.9715 149.802L40.1523 146.791L40.1182 158.775L34.9375 161.786L34.9715 149.802Z" fill="#9E78B8"/>
<path d="M29.7712 140.798L34.9519 137.787L34.9352 143.779L29.7539 146.79L29.7712 140.798Z" fill="#9E78B8"/>
<path d="M24.5586 137.788L29.7399 134.777L34.9541 137.788L29.7733 140.799L24.5586 137.788Z" fill="#C589EF"/>
<path d="M29.7722 140.798L29.7549 146.79L34.9703 149.801L34.9362 161.786L29.7215 158.775L29.7382 152.783L24.5234 149.772L24.5575 137.787L29.7722 140.798Z" fill="#B212E4"/>
<path d="M38.28 196.723L33.0993 193.711L33.0312 169.742L38.212 172.753L38.28 196.723Z" fill="#66E5EB"/>
<path d="M38.212 172.754L33.0312 169.743L38.246 166.732L43.4267 169.744L38.212 172.754Z" fill="#99EEF1"/>
<path d="M43.4257 169.744L43.4937 193.713L38.279 196.724L38.2109 172.755L43.4257 169.744Z" fill="#00D4DD"/>
<path d="M97.6628 149.65L92.4821 146.639L92.4141 122.67L97.5954 125.681L97.6628 149.65Z" fill="#66E5EB"/>
<path d="M97.5954 125.682L92.4141 122.671L97.6288 119.66L102.81 122.671L97.5954 125.682Z" fill="#99EEF1"/>
<path d="M102.808 122.67L102.876 146.639L97.6612 149.65L97.5938 125.681L102.808 122.67Z" fill="#00D4DD"/>
<path d="M68.6228 93.9955L73.8035 90.9844L73.7868 96.9766L68.6055 99.9876L68.6228 93.9955Z" fill="#B10024"/>
<path d="M63.4258 84.9935L68.6071 81.9824L73.8218 84.9929L68.6405 88.004L63.4258 84.9935Z" fill="#F46683"/>
<path d="M73.87 85.0209L79.0507 82.0098L79.0172 93.9947L73.8359 97.0052L73.87 85.0209Z" fill="#B10024"/>
<path d="M68.6562 82.0105L73.837 79L79.0517 82.0105L73.871 85.0216L68.6562 82.0105Z" fill="#F46683"/>
<path d="M73.8715 85.0209L73.8374 97.0052L68.6227 93.9947L68.6054 99.9869L63.3906 96.9764L63.4247 84.992L68.6394 88.0025L68.6567 82.0098L73.8715 85.0209Z" fill="#EC0030"/>
<path d="M94.8527 206.472L100.033 203.461L100.017 209.454L94.8359 212.464L94.8527 206.472Z" fill="#9880C7"/>
<path d="M89.6562 197.47L94.837 194.459L100.052 197.47L94.8704 200.481L89.6562 197.47Z" fill="#BE90DB"/>
<path d="M100.1 197.499L105.282 194.488L105.248 206.473L100.066 209.484L100.1 197.499Z" fill="#9880C7"/>
<path d="M94.8867 194.488L100.067 191.477L105.283 194.488L100.101 197.498L94.8867 194.488Z" fill="#BE90DB"/>
<path d="M100.101 197.499L100.067 209.484L94.8526 206.473L94.8359 212.465L89.6211 209.454L89.6551 197.47L94.8693 200.48L94.8866 194.488L100.101 197.499Z" fill="#B256F3"/>
<path d="M43.4922 199.415L48.6729 196.404L53.8882 199.415L48.7069 202.426L43.4922 199.415Z" fill="#BFB40E"/>
<path d="M48.7081 202.425L53.8894 199.414L53.8721 205.406L48.6914 208.417L48.7081 202.425Z" fill="#FFF012"/>
<path d="M43.5089 193.421L48.6902 190.41L48.6729 196.403L43.4922 199.413L43.5089 193.421Z" fill="#BFB40E"/>
<path d="M38.2969 190.411L43.4776 187.4L48.6924 190.411L43.5111 193.422L38.2969 190.411Z" fill="#FFF671"/>
<path d="M43.5104 193.421L43.4937 199.413L48.7084 202.425L48.6917 208.416L33.0469 199.384L33.0642 193.392L38.2789 196.403L38.2962 190.41L43.5104 193.421Z" fill="#FCEF4F"/>
<path d="M44.3633 128.757L49.5446 125.746L54.7593 128.757L49.5786 131.768L44.3633 128.757Z" fill="#19BFA9"/>
<path d="M54.793 134.778L59.9737 131.768L65.189 134.778L60.0077 137.789L54.793 134.778Z" fill="#66F1DF"/>
<path d="M60.0089 137.788L65.1902 134.777L65.1729 140.77L59.9922 143.78L60.0089 137.788Z" fill="#048674"/>
<path d="M54.8097 128.785L59.991 125.773L59.9737 131.766L54.793 134.777L54.8097 128.785Z" fill="#369E90"/>
<path d="M49.5977 125.774L54.779 122.764L59.9937 125.774L54.8124 128.785L49.5977 125.774Z" fill="#66F1DF"/>
<path d="M54.8112 128.785L54.7945 134.777L60.0092 137.788L59.9925 143.779L44.3477 134.747L44.3644 128.755L49.5797 131.766L49.5964 125.773L54.8112 128.785Z" fill="#00E8CA"/>
<path d="M99.1133 151.503L104.294 148.492L109.509 151.503L104.329 154.514L99.1133 151.503Z" fill="#19BFA9"/>
<path d="M109.543 157.525L114.724 154.514L119.939 157.525L114.758 160.535L109.543 157.525Z" fill="#66F1DF"/>
<path d="M114.759 160.534L119.94 157.523L119.923 163.516L114.742 166.526L114.759 160.534Z" fill="#048674"/>
<path d="M109.56 151.532L114.741 148.521L114.724 154.514L109.543 157.525L109.56 151.532Z" fill="#369E90"/>
<path d="M104.348 148.521L109.528 145.51L114.743 148.521L109.562 151.531L104.348 148.521Z" fill="#66F1DF"/>
<path d="M109.561 151.532L109.544 157.525L114.759 160.535L114.742 166.527L99.0977 157.495L99.1144 151.503L104.33 154.514L104.346 148.521L109.561 151.532Z" fill="#00E8CA"/>
<path d="M59.1551 202.454L64.3359 199.443L64.3018 211.428L59.1211 214.438L59.1551 202.454Z" fill="#B6006C"/>
<path d="M48.7266 196.433L53.9073 193.422L64.3374 199.444L59.1567 202.455L48.7266 196.433Z" fill="#F46683"/>
<path d="M59.1555 202.455L59.1215 214.44L48.6914 208.418L48.7254 196.434L59.1555 202.455Z" fill="#EC0030"/>
<path d="M121.327 131.796L126.508 128.785L126.474 140.77L121.293 143.781L121.327 131.796Z" fill="#B10024"/>
<path d="M110.898 125.774L116.079 122.764L126.509 128.785L121.329 131.796L110.898 125.774Z" fill="#F46683"/>
<path d="M121.327 131.796L121.293 143.78L110.863 137.758L110.897 125.773L121.327 131.796Z" fill="#EC0030"/>
<path d="M64.3566 205.464L69.5373 202.453L69.5206 208.445L64.3398 211.456L64.3566 205.464Z" fill="#00B960"/>
<path d="M59.1445 202.452L64.3253 199.441L69.54 202.452L64.3593 205.463L59.1445 202.452Z" fill="#66D5A0"/>
<path d="M74.7712 217.478L79.9519 214.467L79.9352 220.459L74.7539 223.47L74.7712 217.478Z" fill="#B6006C"/>
<path d="M64.3398 211.456L69.5206 208.445L79.9501 214.467L74.7694 217.478L64.3398 211.456Z" fill="#00B960"/>
<path d="M64.3582 205.464L64.3414 211.456L74.7709 217.478L74.7536 223.47L59.1094 214.437L59.1261 208.445L59.1434 202.453L64.3582 205.464Z" fill="#00F780"/>
<path d="M79.6378 88.4851L84.8185 85.4746L84.8018 91.4668L79.6211 94.4779L79.6378 88.4851Z" fill="#00B960"/>
<path d="M74.4258 85.474L79.6065 82.4629L84.8213 85.474L79.6405 88.4845L74.4258 85.474Z" fill="#66D5A0"/>
<path d="M90.0525 100.499L95.2332 97.4883L95.2165 103.48L90.0352 106.491L90.0525 100.499Z" fill="#007C40"/>
<path d="M79.6211 94.4779L84.8018 91.4668L95.2313 97.4884L90.0506 100.499L79.6211 94.4779Z" fill="#00B960"/>
<path d="M79.6394 88.4851L79.6227 94.4779L90.0522 100.499L90.0349 106.491L74.3906 97.459L74.4073 91.4668L74.4246 85.4746L79.6394 88.4851Z" fill="#00F780"/>
<path d="M54.7852 159.031L59.9665 156.02L65.1812 159.031L59.9999 162.041L54.7852 159.031Z" fill="#BFB40E"/>
<path d="M65.25 153.068L70.4313 150.057L70.3799 168.034L65.1992 171.044L65.25 153.068Z" fill="#BFB40E"/>
<path d="M60.0352 150.056L65.2159 147.045L70.4312 150.056L65.2499 153.067L60.0352 150.056Z" fill="#FFF671"/>
<path d="M65.2498 153.068L65.199 171.044L59.9843 168.034L54.7695 165.023L54.7863 159.03L60.001 162.041L60.035 150.057L65.2498 153.068Z" fill="#FCEF4F"/>
<path d="M101.395 178.952L106.576 175.941L111.791 178.952L106.609 181.963L101.395 178.952Z" fill="#D56775"/>
<path d="M111.86 172.99L117.041 169.979L116.99 187.955L111.809 190.966L111.86 172.99Z" fill="#D73B24"/>
<path d="M106.645 169.978L111.826 166.967L117.041 169.978L111.86 172.989L106.645 169.978Z" fill="#E03B70"/>
<path d="M111.86 172.99L111.808 190.966L106.594 187.955L101.379 184.945L101.396 178.952L106.61 181.963L106.644 169.979L111.86 172.99Z" fill="#FB9845"/>
<path d="M79.9324 226.48L74.7511 223.469L74.6836 199.5L79.8643 202.511L79.9324 226.48Z" fill="#00E8CA"/>
<path d="M79.8643 202.51L74.6836 199.499L79.8643 196.488L85.0791 199.499L79.8643 202.51Z" fill="#66F1DF"/>
<path d="M85.078 199.5L85.1461 223.469L79.9313 226.48L79.8633 202.511L85.078 199.5Z" fill="#369E90"/>
</g>
<rect x="54.3516" y="17.1211" width="40.8144" height="2.79073" rx="1.39536" transform="rotate(0.0301048 54.3516 17.1211)" fill="#740B99"/>
<circle cx="74.7643" cy="11.3753" r="1.56978" transform="rotate(0.0301048 74.7643 11.3753)" fill="#740B99"/>
<circle cx="74.447" cy="278.065" r="10.1164" transform="rotate(0.0301048 74.447 278.065)" fill="#740B99"/>
<g style="mix-blend-mode:hard-light">
<path d="M7.20312 33.9541C7.20312 30.1093 10.3124 26.9885 14.1572 26.9742L134.825 26.526C138.69 26.5117 141.831 29.6409 141.831 33.506L141.831 255.02C141.831 258.875 138.706 262 134.851 262H14.1831C10.3282 262 7.20312 258.875 7.20312 255.02V33.9541Z" fill="#740B99" fill-opacity="0.68"/>
</g>
<path d="M7.16016 32.98C7.16016 29.125 10.2852 26 14.1402 26H134.831C138.686 26 141.811 29.1251 141.811 32.98V255.02C141.811 258.875 138.686 262 134.831 262H14.1402C10.2852 262 7.16016 258.875 7.16016 255.02V32.98Z" fill="#740B99"/>
<path opacity="0.9" d="M7 32.98C7 29.1251 10.1251 26 13.98 26H135.02C138.875 26 142 29.1251 142 32.98V104H7V32.98Z" fill="white"/>
<circle cx="19" cy="39" r="4" fill="#740B99"/>
<path fill-rule="evenodd" clip-rule="evenodd" d="M19.0016 38.7168L20.0601 37.6582C20.1382 37.5801 20.2649 37.5801 20.343 37.6582C20.4211 37.7363 20.4211 37.8629 20.343 37.941L19.2844 38.9996L20.343 40.0582C20.4211 40.1363 20.4211 40.2629 20.343 40.341C20.2649 40.4191 20.1382 40.4191 20.0601 40.341L19.0016 39.2825L17.943 40.341C17.8649 40.4191 17.7382 40.4191 17.6601 40.341C17.582 40.2629 17.582 40.1363 17.6601 40.0582L18.7187 38.9996L17.6601 37.941C17.582 37.8629 17.582 37.7363 17.6601 37.6582C17.7382 37.5801 17.8649 37.5801 17.943 37.6582L19.0016 38.7168Z" fill="white"/>
<mask id="mask0" mask-type="alpha" maskUnits="userSpaceOnUse" x="17" y="37" width="4" height="4">
<path fill-rule="evenodd" clip-rule="evenodd" d="M19.0016 38.7168L20.0601 37.6582C20.1382 37.5801 20.2649 37.5801 20.343 37.6582C20.4211 37.7363 20.4211 37.8629 20.343 37.941L19.2844 38.9996L20.343 40.0582C20.4211 40.1363 20.4211 40.2629 20.343 40.341C20.2649 40.4191 20.1382 40.4191 20.0601 40.341L19.0016 39.2825L17.943 40.341C17.8649 40.4191 17.7382 40.4191 17.6601 40.341C17.582 40.2629 17.582 40.1363 17.6601 40.0582L18.7187 38.9996L17.6601 37.941C17.582 37.8629 17.582 37.7363 17.6601 37.6582C17.7382 37.5801 17.8649 37.5801 17.943 37.6582L19.0016 38.7168Z" fill="white"/>
</mask>
<g mask="url(#mask0)">
<rect x="16.6016" y="36.5996" width="4.8" height="4.8" fill="white"/>
</g>
<path d="M43.3264 164.38H41.5177V163.725H45.8812V164.38H44.0725V169H43.3264V164.38ZM47.1942 165.677C47.3198 165.445 47.5057 165.27 47.7519 165.149C47.998 165.028 48.297 164.968 48.6487 164.968V165.669C48.6085 165.664 48.5532 165.661 48.4829 165.661C48.091 165.661 47.782 165.78 47.5559 166.016C47.3349 166.247 47.2243 166.578 47.2243 167.01V169H46.5008V165.006H47.1942V165.677ZM53.2368 165.006L51.3 169.399C51.1291 169.806 50.9282 170.093 50.6971 170.259C50.471 170.424 50.1972 170.507 49.8756 170.507C49.6797 170.507 49.4887 170.475 49.3029 170.409C49.122 170.349 48.9713 170.259 48.8507 170.138L49.1597 169.595C49.3657 169.791 49.6043 169.889 49.8756 169.889C50.0515 169.889 50.1972 169.842 50.3127 169.746C50.4333 169.656 50.5413 169.497 50.6368 169.271L50.7649 168.992L49.0014 165.006H49.755L51.1492 168.201L52.5284 165.006H53.2368ZM58.1817 168.766C58.0761 168.857 57.9455 168.927 57.7898 168.977C57.634 169.023 57.4732 169.045 57.3074 169.045C56.9055 169.045 56.594 168.937 56.373 168.721C56.1519 168.505 56.0414 168.196 56.0414 167.794V165.601H55.3631V165.006H56.0414V164.132H56.7648V165.006H57.9103V165.601H56.7648V167.764C56.7648 167.98 56.8176 168.146 56.9231 168.261C57.0336 168.377 57.1894 168.435 57.3903 168.435C57.6114 168.435 57.7998 168.372 57.9556 168.246L58.1817 168.766ZM61.1891 164.968C61.6965 164.968 62.0985 165.116 62.3949 165.413C62.6963 165.704 62.847 166.134 62.847 166.701V169H62.1236V166.784C62.1236 166.397 62.0306 166.106 61.8447 165.91C61.6588 165.714 61.3926 165.616 61.0459 165.616C60.654 165.616 60.345 165.732 60.1189 165.963C59.8928 166.189 59.7798 166.516 59.7798 166.943V169H59.0563V163.408H59.7798V165.571C59.9305 165.38 60.1265 165.232 60.3676 165.126C60.6138 165.021 60.8876 164.968 61.1891 164.968ZM67.8179 167.026C67.8179 167.081 67.8129 167.154 67.8028 167.244H64.5622C64.6075 167.596 64.7607 167.88 65.022 168.096C65.2882 168.307 65.6173 168.412 66.0092 168.412C66.4865 168.412 66.8708 168.251 67.1622 167.93L67.5617 168.397C67.3808 168.608 67.1547 168.769 66.8834 168.879C66.6171 168.99 66.3182 169.045 65.9866 169.045C65.5646 169.045 65.1903 168.96 64.8637 168.789C64.5371 168.613 64.2834 168.369 64.1025 168.058C63.9267 167.746 63.8388 167.395 63.8388 167.003C63.8388 166.616 63.9242 166.267 64.095 165.955C64.2708 165.644 64.5095 165.403 64.8109 165.232C65.1174 165.056 65.4616 164.968 65.8434 164.968C66.2252 164.968 66.5644 165.056 66.8608 165.232C67.1622 165.403 67.3959 165.644 67.5617 165.955C67.7325 166.267 67.8179 166.624 67.8179 167.026ZM65.8434 165.579C65.4967 165.579 65.2053 165.684 64.9692 165.895C64.7381 166.106 64.6024 166.382 64.5622 166.724H67.1246C67.0844 166.387 66.9462 166.114 66.7101 165.903C66.479 165.687 66.1901 165.579 65.8434 165.579ZM74.6673 165.006V168.457C74.6673 169.156 74.4939 169.671 74.1473 170.002C73.8006 170.339 73.2831 170.507 72.5948 170.507C72.218 170.507 71.8588 170.454 71.5171 170.349C71.1755 170.249 70.8992 170.103 70.6881 169.912L71.0348 169.354C71.2207 169.515 71.4493 169.641 71.7206 169.731C71.9969 169.826 72.2808 169.874 72.5722 169.874C73.0395 169.874 73.3836 169.764 73.6047 169.543C73.8308 169.322 73.9438 168.985 73.9438 168.533V168.216C73.773 168.422 73.562 168.578 73.3108 168.683C73.0646 168.784 72.7958 168.834 72.5044 168.834C72.1225 168.834 71.7759 168.754 71.4644 168.593C71.1579 168.427 70.9167 168.199 70.7409 167.907C70.5651 167.611 70.4771 167.274 70.4771 166.897C70.4771 166.521 70.5651 166.186 70.7409 165.895C70.9167 165.599 71.1579 165.37 71.4644 165.209C71.7759 165.049 72.1225 164.968 72.5044 164.968C72.8058 164.968 73.0847 165.023 73.3409 165.134C73.6022 165.244 73.8157 165.408 73.9815 165.624V165.006H74.6673ZM72.5873 168.201C72.8485 168.201 73.0822 168.146 73.2881 168.035C73.4992 167.925 73.6624 167.772 73.778 167.576C73.8986 167.375 73.9589 167.149 73.9589 166.897C73.9589 166.511 73.8308 166.199 73.5745 165.963C73.3183 165.722 72.9892 165.601 72.5873 165.601C72.1803 165.601 71.8487 165.722 71.5925 165.963C71.3363 166.199 71.2081 166.511 71.2081 166.897C71.2081 167.149 71.2659 167.375 71.3815 167.576C71.5021 167.772 71.6653 167.925 71.8713 168.035C72.0823 168.146 72.321 168.201 72.5873 168.201ZM77.5041 164.968C78.0568 164.968 78.4788 165.104 78.7702 165.375C79.0667 165.646 79.2149 166.051 79.2149 166.588V169H78.5291V168.472C78.4085 168.658 78.2352 168.802 78.0091 168.902C77.788 168.997 77.5242 169.045 77.2178 169.045C76.7706 169.045 76.4114 168.937 76.1401 168.721C75.8738 168.505 75.7407 168.221 75.7407 167.87C75.7407 167.518 75.8688 167.237 76.125 167.026C76.3812 166.809 76.7882 166.701 77.3459 166.701H78.4914V166.558C78.4914 166.247 78.401 166.008 78.2201 165.842C78.0392 165.677 77.7729 165.594 77.4212 165.594C77.1851 165.594 76.954 165.634 76.7279 165.714C76.5018 165.79 76.3109 165.893 76.1552 166.023L75.8537 165.481C76.0597 165.315 76.3059 165.189 76.5923 165.104C76.8786 165.013 77.1826 164.968 77.5041 164.968ZM77.3383 168.488C77.6147 168.488 77.8533 168.427 78.0543 168.307C78.2553 168.181 78.401 168.005 78.4914 167.779V167.221H77.376C76.7631 167.221 76.4566 167.427 76.4566 167.839C76.4566 168.04 76.5345 168.199 76.6902 168.314C76.846 168.43 77.062 168.488 77.3383 168.488ZM85.5502 164.968C86.0527 164.968 86.4496 165.114 86.741 165.405C87.0374 165.697 87.1856 166.129 87.1856 166.701V169H86.4621V166.784C86.4621 166.397 86.3717 166.106 86.1908 165.91C86.015 165.714 85.7613 165.616 85.4297 165.616C85.0629 165.616 84.7715 165.732 84.5555 165.963C84.3394 166.189 84.2314 166.516 84.2314 166.943V169H83.5079V166.784C83.5079 166.397 83.4175 166.106 83.2366 165.91C83.0608 165.714 82.8071 165.616 82.4755 165.616C82.1087 165.616 81.8173 165.732 81.6013 165.963C81.3852 166.189 81.2772 166.516 81.2772 166.943V169H80.5537V165.006H81.2471V165.601C81.3928 165.395 81.5837 165.239 81.8198 165.134C82.0559 165.023 82.3247 164.968 82.6262 164.968C82.9377 164.968 83.214 165.031 83.4552 165.157C83.6963 165.282 83.8822 165.466 84.0129 165.707C84.1636 165.476 84.3721 165.295 84.6384 165.164C84.9097 165.033 85.2136 164.968 85.5502 164.968ZM92.1487 167.026C92.1487 167.081 92.1437 167.154 92.1337 167.244H88.8931C88.9383 167.596 89.0915 167.88 89.3528 168.096C89.6191 168.307 89.9482 168.412 90.34 168.412C90.8173 168.412 91.2017 168.251 91.4931 167.93L91.8925 168.397C91.7116 168.608 91.4856 168.769 91.2143 168.879C90.948 168.99 90.649 169.045 90.3174 169.045C89.8954 169.045 89.5211 168.96 89.1945 168.789C88.868 168.613 88.6143 168.369 88.4334 168.058C88.2575 167.746 88.1696 167.395 88.1696 167.003C88.1696 166.616 88.255 166.267 88.4258 165.955C88.6017 165.644 88.8403 165.403 89.1418 165.232C89.4483 165.056 89.7924 164.968 90.1743 164.968C90.5561 164.968 90.8952 165.056 91.1916 165.232C91.4931 165.403 91.7267 165.644 91.8925 165.955C92.0633 166.267 92.1487 166.624 92.1487 167.026ZM90.1743 165.579C89.8276 165.579 89.5362 165.684 89.3 165.895C89.0689 166.106 88.9333 166.382 88.8931 166.724H91.4554C91.4152 166.387 91.2771 166.114 91.0409 165.903C90.8098 165.687 90.5209 165.579 90.1743 165.579ZM96.888 169.045C96.4911 169.045 96.1343 168.957 95.8178 168.781C95.5013 168.606 95.2526 168.364 95.0717 168.058C94.8959 167.746 94.808 167.395 94.808 167.003C94.808 166.611 94.8959 166.262 95.0717 165.955C95.2526 165.644 95.5013 165.403 95.8178 165.232C96.1343 165.056 96.4911 164.968 96.888 164.968C97.2849 164.968 97.6391 165.056 97.9506 165.232C98.2671 165.403 98.5133 165.644 98.6891 165.955C98.87 166.262 98.9604 166.611 98.9604 167.003C98.9604 167.395 98.87 167.746 98.6891 168.058C98.5133 168.364 98.2671 168.606 97.9506 168.781C97.6391 168.957 97.2849 169.045 96.888 169.045ZM96.888 168.412C97.1442 168.412 97.3728 168.354 97.5738 168.239C97.7798 168.118 97.9405 167.952 98.0561 167.741C98.1716 167.525 98.2294 167.279 98.2294 167.003C98.2294 166.727 98.1716 166.483 98.0561 166.272C97.9405 166.056 97.7798 165.89 97.5738 165.774C97.3728 165.659 97.1442 165.601 96.888 165.601C96.6317 165.601 96.4006 165.659 96.1946 165.774C95.9937 165.89 95.8329 166.056 95.7123 166.272C95.5968 166.483 95.539 166.727 95.539 167.003C95.539 167.279 95.5968 167.525 95.7123 167.741C95.8329 167.952 95.9937 168.118 96.1946 168.239C96.4006 168.354 96.6317 168.412 96.888 168.412ZM103.684 165.006V169H102.998V168.397C102.852 168.603 102.659 168.764 102.418 168.879C102.182 168.99 101.923 169.045 101.642 169.045C101.109 169.045 100.689 168.9 100.383 168.608C100.077 168.312 99.9233 167.877 99.9233 167.304V165.006H100.647V167.221C100.647 167.608 100.74 167.902 100.926 168.103C101.112 168.299 101.378 168.397 101.724 168.397C102.106 168.397 102.408 168.282 102.629 168.05C102.85 167.819 102.96 167.493 102.96 167.071V165.006H103.684ZM107.307 168.766C107.201 168.857 107.071 168.927 106.915 168.977C106.759 169.023 106.599 169.045 106.433 169.045C106.031 169.045 105.719 168.937 105.498 168.721C105.277 168.505 105.167 168.196 105.167 167.794V165.601H104.488V165.006H105.167V164.132H105.89V165.006H107.036V165.601H105.89V167.764C105.89 167.98 105.943 168.146 106.048 168.261C106.159 168.377 106.315 168.435 106.516 168.435C106.737 168.435 106.925 168.372 107.081 168.246L107.307 168.766ZM108.084 163.725H108.935L108.792 167.334H108.219L108.084 163.725ZM108.513 169.045C108.373 169.045 108.255 169 108.159 168.91C108.064 168.814 108.016 168.699 108.016 168.563C108.016 168.427 108.064 168.314 108.159 168.224C108.255 168.128 108.373 168.081 108.513 168.081C108.654 168.081 108.769 168.128 108.86 168.224C108.95 168.314 108.996 168.427 108.996 168.563C108.996 168.699 108.948 168.814 108.852 168.91C108.762 169 108.649 169.045 108.513 169.045Z" fill="white"/>
<rect x="21" y="52" width="35" height="35" rx="2.70667" fill="#740B99"/>
<path d="M70.8523 60.3308H71.5761V62.3893C71.3147 62.6054 71.0106 62.7713 70.6638 62.8869C70.3169 63.0025 69.955 63.0603 69.578 63.0603C69.0452 63.0603 68.5651 62.9447 68.1379 62.7135C67.7106 62.4772 67.3738 62.1555 67.1275 61.7484C66.8862 61.3362 66.7656 60.8737 66.7656 60.361C66.7656 59.8483 66.8862 59.3858 67.1275 58.9736C67.3738 58.5615 67.7106 58.2397 68.1379 58.0085C68.5702 57.7773 69.0552 57.6617 69.5931 57.6617C70.0153 57.6617 70.3973 57.7321 70.7392 57.8728C71.086 58.0085 71.3801 58.2096 71.6213 58.476L71.1539 58.9435C70.7316 58.5363 70.2214 58.3327 69.6232 58.3327C69.2211 58.3327 68.8592 58.4207 68.5375 58.5966C68.2208 58.7675 67.972 59.0088 67.791 59.3205C67.6101 59.6271 67.5196 59.9739 67.5196 60.361C67.5196 60.743 67.6101 61.0899 67.791 61.4015C67.972 61.7081 68.2208 61.9494 68.5375 62.1254C68.8592 62.3013 69.2186 62.3893 69.6157 62.3893C70.0882 62.3893 70.5004 62.2762 70.8523 62.05V60.3308ZM74.3694 58.9661C74.9223 58.9661 75.3446 59.1018 75.6361 59.3733C75.9327 59.6447 76.081 60.0493 76.081 60.5872V63H75.3948V62.4722C75.2742 62.6582 75.1008 62.8014 74.8746 62.902C74.6534 62.9975 74.3895 63.0452 74.0829 63.0452C73.6355 63.0452 73.2761 62.9372 73.0046 62.721C72.7382 62.5049 72.605 62.2209 72.605 61.869C72.605 61.5171 72.7332 61.2356 72.9896 61.0245C73.2459 60.8084 73.6531 60.7003 74.211 60.7003H75.3571V60.557C75.3571 60.2454 75.2666 60.0066 75.0857 59.8407C74.9047 59.6749 74.6383 59.5919 74.2864 59.5919C74.0502 59.5919 73.819 59.6321 73.5928 59.7126C73.3666 59.788 73.1755 59.891 73.0197 60.0217L72.7181 59.4788C72.9242 59.3129 73.1705 59.1873 73.457 59.1018C73.7436 59.0113 74.0477 58.9661 74.3694 58.9661ZM74.2035 62.4873C74.48 62.4873 74.7187 62.427 74.9198 62.3063C75.1209 62.1807 75.2666 62.0047 75.3571 61.7785V61.2206H74.2412C73.6279 61.2206 73.3213 61.4267 73.3213 61.8388C73.3213 62.0399 73.3992 62.1982 73.5551 62.3139C73.7109 62.4295 73.927 62.4873 74.2035 62.4873ZM82.4195 58.9661C82.9222 58.9661 83.3193 59.1119 83.6108 59.4034C83.9074 59.695 84.0557 60.1273 84.0557 60.7003V63H83.3318V60.7832C83.3318 60.3962 83.2414 60.1046 83.0604 59.9086C82.8845 59.7126 82.6306 59.6145 82.2989 59.6145C81.9319 59.6145 81.6404 59.7302 81.4242 59.9614C81.2081 60.1876 81.1 60.5143 81.1 60.9416V63H80.3762V60.7832C80.3762 60.3962 80.2857 60.1046 80.1047 59.9086C79.9288 59.7126 79.6749 59.6145 79.3432 59.6145C78.9762 59.6145 78.6847 59.7302 78.4685 59.9614C78.2524 60.1876 78.1443 60.5143 78.1443 60.9416V63H77.4205V59.0038H78.1142V59.5995C78.2599 59.3934 78.451 59.2375 78.6872 59.132C78.9235 59.0214 79.1924 58.9661 79.494 58.9661C79.8056 58.9661 80.0821 59.0289 80.3234 59.1546C80.5647 59.2803 80.7507 59.4637 80.8813 59.705C81.0321 59.4738 81.2408 59.2928 81.5072 59.1621C81.7786 59.0314 82.0827 58.9661 82.4195 58.9661ZM89.0213 61.0245C89.0213 61.0798 89.0163 61.1527 89.0062 61.2432H85.764C85.8093 61.595 85.9626 61.8791 86.224 62.0952C86.4904 62.3063 86.8196 62.4119 87.2117 62.4119C87.6892 62.4119 88.0738 62.251 88.3653 61.9293L88.7649 62.3968C88.584 62.6079 88.3578 62.7688 88.0863 62.8794C87.8199 62.9899 87.5208 63.0452 87.1891 63.0452C86.7668 63.0452 86.3924 62.9598 86.0656 62.7889C85.7389 62.6129 85.485 62.3692 85.3041 62.0575C85.1282 61.7458 85.0402 61.394 85.0402 61.0019C85.0402 60.6148 85.1256 60.2655 85.2965 59.9538C85.4725 59.6422 85.7112 59.4009 86.0128 59.23C86.3195 59.0541 86.6638 58.9661 87.0458 58.9661C87.4279 58.9661 87.7672 59.0541 88.0637 59.23C88.3653 59.4009 88.5991 59.6422 88.7649 59.9538C88.9359 60.2655 89.0213 60.6224 89.0213 61.0245ZM87.0458 59.5768C86.699 59.5768 86.4074 59.6824 86.1712 59.8935C85.94 60.1046 85.8042 60.3811 85.764 60.7229H88.3276C88.2874 60.3861 88.1492 60.1122 87.9129 59.9011C87.6817 59.6849 87.3927 59.5768 87.0458 59.5768ZM96.696 57.722V63H96.0777L92.9109 59.0641V63H92.1569V57.722H92.7752L95.942 61.6579V57.722H96.696ZM99.6254 58.9661C100.178 58.9661 100.601 59.1018 100.892 59.3733C101.189 59.6447 101.337 60.0493 101.337 60.5872V63H100.651V62.4722C100.53 62.6582 100.357 62.8014 100.131 62.902C99.9094 62.9975 99.6455 63.0452 99.3389 63.0452C98.8915 63.0452 98.5321 62.9372 98.2607 62.721C97.9943 62.5049 97.8611 62.2209 97.8611 61.869C97.8611 61.5171 97.9893 61.2356 98.2456 61.0245C98.502 60.8084 98.9091 60.7003 99.4671 60.7003H100.613V60.557C100.613 60.2454 100.523 60.0066 100.342 59.8407C100.161 59.6749 99.8944 59.5919 99.5425 59.5919C99.3062 59.5919 99.075 59.6321 98.8488 59.7126C98.6226 59.788 98.4316 59.891 98.2758 60.0217L97.9742 59.4788C98.1803 59.3129 98.4266 59.1873 98.7131 59.1018C98.9996 59.0113 99.3037 58.9661 99.6254 58.9661ZM99.4596 62.4873C99.736 62.4873 99.9748 62.427 100.176 62.3063C100.377 62.1807 100.523 62.0047 100.613 61.7785V61.2206H99.4973C98.884 61.2206 98.5774 61.4267 98.5774 61.8388C98.5774 62.0399 98.6553 62.1982 98.8111 62.3139C98.9669 62.4295 99.1831 62.4873 99.4596 62.4873ZM107.676 58.9661C108.178 58.9661 108.575 59.1119 108.867 59.4034C109.163 59.695 109.312 60.1273 109.312 60.7003V63H108.588V60.7832C108.588 60.3962 108.497 60.1046 108.316 59.9086C108.141 59.7126 107.887 59.6145 107.555 59.6145C107.188 59.6145 106.896 59.7302 106.68 59.9614C106.464 60.1876 106.356 60.5143 106.356 60.9416V63H105.632V60.7832C105.632 60.3962 105.542 60.1046 105.361 59.9086C105.185 59.7126 104.931 59.6145 104.599 59.6145C104.232 59.6145 103.941 59.7302 103.725 59.9614C103.508 60.1876 103.4 60.5143 103.4 60.9416V63H102.677V59.0038H103.37V59.5995C103.516 59.3934 103.707 59.2375 103.943 59.132C104.18 59.0214 104.448 58.9661 104.75 58.9661C105.062 58.9661 105.338 59.0289 105.579 59.1546C105.821 59.2803 106.007 59.4637 106.137 59.705C106.288 59.4738 106.497 59.2928 106.763 59.1621C107.035 59.0314 107.339 58.9661 107.676 58.9661ZM114.277 61.0245C114.277 61.0798 114.272 61.1527 114.262 61.2432H111.02C111.065 61.595 111.219 61.8791 111.48 62.0952C111.746 62.3063 112.076 62.4119 112.468 62.4119C112.945 62.4119 113.33 62.251 113.621 61.9293L114.021 62.3968C113.84 62.6079 113.614 62.7688 113.342 62.8794C113.076 62.9899 112.777 63.0452 112.445 63.0452C112.023 63.0452 111.648 62.9598 111.322 62.7889C110.995 62.6129 110.741 62.3692 110.56 62.0575C110.384 61.7458 110.296 61.394 110.296 61.0019C110.296 60.6148 110.382 60.2655 110.553 59.9538C110.729 59.6422 110.967 59.4009 111.269 59.23C111.576 59.0541 111.92 58.9661 112.302 58.9661C112.684 58.9661 113.023 59.0541 113.32 59.23C113.621 59.4009 113.855 59.6422 114.021 59.9538C114.192 60.2655 114.277 60.6224 114.277 61.0245ZM112.302 59.5768C111.955 59.5768 111.663 59.6824 111.427 59.8935C111.196 60.1046 111.06 60.3811 111.02 60.7229H113.584C113.543 60.3861 113.405 60.1122 113.169 59.9011C112.938 59.6849 112.649 59.5768 112.302 59.5768Z" fill="#740B99"/>
<path d="M69.0526 68L69.5135 69.4183H71.0048L69.7983 70.2949L70.2591 71.7132L69.0526 70.8367L67.8461 71.7132L68.307 70.2949L67.1005 69.4183H68.5918L69.0526 68Z" fill="#740B99"/>
<path d="M74.5253 68L74.9861 69.4183H76.4775L75.2709 70.2949L75.7318 71.7132L74.5253 70.8367L73.3188 71.7132L73.7796 70.2949L72.5731 69.4183H74.0644L74.5253 68Z" fill="#740B99"/>
<path d="M80.0019 68L80.4627 69.4183H81.954L80.7475 70.2949L81.2084 71.7132L80.0019 70.8367L78.7953 71.7132L79.2562 70.2949L78.0497 69.4183H79.541L80.0019 68Z" fill="#740B99"/>
<path d="M85.4745 68L85.9354 69.4183H87.4267L86.2202 70.2949L86.681 71.7132L85.4745 70.8367L84.268 71.7132L84.7288 70.2949L83.5223 69.4183H85.0137L85.4745 68Z" fill="#740B99"/>
<path d="M90.9472 68L91.408 69.4183H92.8993L91.6928 70.2949L92.1537 71.7132L90.9472 70.8367L89.7407 71.7132L90.2015 70.2949L88.995 69.4183H90.4863L90.9472 68Z" fill="white"/>
<rect x="67" y="75" width="53" height="11" rx="2.342" fill="#740B99"/>
<path d="M78.8009 79.2H79.9809C80.2769 79.2 80.5395 79.2587 80.7689 79.376C80.9982 79.4933 81.1755 79.6587 81.3009 79.872C81.4289 80.0827 81.4929 80.3253 81.4929 80.6C81.4929 80.8747 81.4289 81.1187 81.3009 81.332C81.1755 81.5427 80.9982 81.7067 80.7689 81.824C80.5395 81.9413 80.2769 82 79.9809 82H78.8009V79.2ZM79.9569 81.652C80.1835 81.652 80.3822 81.608 80.5529 81.52C80.7262 81.432 80.8595 81.3093 80.9529 81.152C81.0462 80.992 81.0929 80.808 81.0929 80.6C81.0929 80.392 81.0462 80.2093 80.9529 80.052C80.8595 79.892 80.7262 79.768 80.5529 79.68C80.3822 79.592 80.1835 79.548 79.9569 79.548H79.2009V81.652H79.9569ZM82.9575 82.024C82.7469 82.024 82.5575 81.9773 82.3895 81.884C82.2215 81.7907 82.0895 81.6627 81.9935 81.5C81.9002 81.3347 81.8535 81.148 81.8535 80.94C81.8535 80.732 81.9002 80.5467 81.9935 80.384C82.0895 80.2187 82.2215 80.0907 82.3895 80C82.5575 79.9067 82.7469 79.86 82.9575 79.86C83.1682 79.86 83.3562 79.9067 83.5215 80C83.6895 80.0907 83.8202 80.2187 83.9135 80.384C84.0095 80.5467 84.0575 80.732 84.0575 80.94C84.0575 81.148 84.0095 81.3347 83.9135 81.5C83.8202 81.6627 83.6895 81.7907 83.5215 81.884C83.3562 81.9773 83.1682 82.024 82.9575 82.024ZM82.9575 81.688C83.0935 81.688 83.2149 81.6573 83.3215 81.596C83.4309 81.532 83.5162 81.444 83.5775 81.332C83.6389 81.2173 83.6695 81.0867 83.6695 80.94C83.6695 80.7933 83.6389 80.664 83.5775 80.552C83.5162 80.4373 83.4309 80.3493 83.3215 80.288C83.2149 80.2267 83.0935 80.196 82.9575 80.196C82.8215 80.196 82.6989 80.2267 82.5895 80.288C82.4829 80.3493 82.3975 80.4373 82.3335 80.552C82.2722 80.664 82.2415 80.7933 82.2415 80.94C82.2415 81.0867 82.2722 81.2173 82.3335 81.332C82.3975 81.444 82.4829 81.532 82.5895 81.596C82.6989 81.6573 82.8215 81.688 82.9575 81.688ZM87.738 79.88L86.946 82H86.578L85.966 80.392L85.346 82H84.978L84.19 79.88H84.554L85.17 81.568L85.81 79.88H86.134L86.762 81.576L87.394 79.88H87.738ZM89.2597 79.86C89.529 79.86 89.7423 79.9387 89.8997 80.096C90.0597 80.2507 90.1397 80.4787 90.1397 80.78V82H89.7557V80.824C89.7557 80.6187 89.7063 80.464 89.6077 80.36C89.509 80.256 89.3677 80.204 89.1837 80.204C88.9757 80.204 88.8117 80.2653 88.6917 80.388C88.5717 80.508 88.5117 80.6813 88.5117 80.908V82H88.1277V79.88H88.4957V80.2C88.573 80.0907 88.677 80.0067 88.8077 79.948C88.941 79.8893 89.0917 79.86 89.2597 79.86ZM90.8503 79.032H91.2343V82H90.8503V79.032ZM92.8755 82.024C92.6648 82.024 92.4755 81.9773 92.3075 81.884C92.1395 81.7907 92.0075 81.6627 91.9115 81.5C91.8182 81.3347 91.7715 81.148 91.7715 80.94C91.7715 80.732 91.8182 80.5467 91.9115 80.384C92.0075 80.2187 92.1395 80.0907 92.3075 80C92.4755 79.9067 92.6648 79.86 92.8755 79.86C93.0862 79.86 93.2742 79.9067 93.4395 80C93.6075 80.0907 93.7382 80.2187 93.8315 80.384C93.9275 80.5467 93.9755 80.732 93.9755 80.94C93.9755 81.148 93.9275 81.3347 93.8315 81.5C93.7382 81.6627 93.6075 81.7907 93.4395 81.884C93.2742 81.9773 93.0862 82.024 92.8755 82.024ZM92.8755 81.688C93.0115 81.688 93.1328 81.6573 93.2395 81.596C93.3488 81.532 93.4342 81.444 93.4955 81.332C93.5568 81.2173 93.5875 81.0867 93.5875 80.94C93.5875 80.7933 93.5568 80.664 93.4955 80.552C93.4342 80.4373 93.3488 80.3493 93.2395 80.288C93.1328 80.2267 93.0115 80.196 92.8755 80.196C92.7395 80.196 92.6168 80.2267 92.5075 80.288C92.4008 80.3493 92.3155 80.4373 92.2515 80.552C92.1902 80.664 92.1595 80.7933 92.1595 80.94C92.1595 81.0867 92.1902 81.2173 92.2515 81.332C92.3155 81.444 92.4008 81.532 92.5075 81.596C92.6168 81.6573 92.7395 81.688 92.8755 81.688ZM95.259 79.86C95.5524 79.86 95.7764 79.932 95.931 80.076C96.0884 80.22 96.167 80.4347 96.167 80.72V82H95.803V81.72C95.739 81.8187 95.647 81.8947 95.527 81.948C95.4097 81.9987 95.2697 82.024 95.107 82.024C94.8697 82.024 94.679 81.9667 94.535 81.852C94.3937 81.7373 94.323 81.5867 94.323 81.4C94.323 81.2133 94.391 81.064 94.527 80.952C94.663 80.8373 94.879 80.78 95.175 80.78H95.783V80.704C95.783 80.5387 95.735 80.412 95.639 80.324C95.543 80.236 95.4017 80.192 95.215 80.192C95.0897 80.192 94.967 80.2133 94.847 80.256C94.727 80.296 94.6257 80.3507 94.543 80.42L94.383 80.132C94.4924 80.044 94.623 79.9773 94.775 79.932C94.927 79.884 95.0884 79.86 95.259 79.86ZM95.171 81.728C95.3177 81.728 95.4444 81.696 95.551 81.632C95.6577 81.5653 95.735 81.472 95.783 81.352V81.056H95.191C94.8657 81.056 94.703 81.1653 94.703 81.384C94.703 81.4907 94.7444 81.5747 94.827 81.636C94.9097 81.6973 95.0244 81.728 95.171 81.728ZM98.8894 79.032V82H98.5214V81.664C98.4361 81.7813 98.3281 81.8707 98.1974 81.932C98.0667 81.9933 97.9227 82.024 97.7654 82.024C97.5601 82.024 97.3761 81.9787 97.2134 81.888C97.0507 81.7973 96.9227 81.6707 96.8294 81.508C96.7387 81.3427 96.6934 81.1533 96.6934 80.94C96.6934 80.7267 96.7387 80.5387 96.8294 80.376C96.9227 80.2133 97.0507 80.0867 97.2134 79.996C97.3761 79.9053 97.5601 79.86 97.7654 79.86C97.9174 79.86 98.0574 79.8893 98.1854 79.948C98.3134 80.004 98.4201 80.088 98.5054 80.2V79.032H98.8894ZM97.7974 81.688C97.9307 81.688 98.0521 81.6573 98.1614 81.596C98.2707 81.532 98.3561 81.444 98.4174 81.332C98.4787 81.2173 98.5094 81.0867 98.5094 80.94C98.5094 80.7933 98.4787 80.664 98.4174 80.552C98.3561 80.4373 98.2707 80.3493 98.1614 80.288C98.0521 80.2267 97.9307 80.196 97.7974 80.196C97.6614 80.196 97.5387 80.2267 97.4294 80.288C97.3227 80.3493 97.2374 80.4373 97.1734 80.552C97.1121 80.664 97.0814 80.7933 97.0814 80.94C97.0814 81.0867 97.1121 81.2173 97.1734 81.332C97.2374 81.444 97.3227 81.532 97.4294 81.596C97.5387 81.6573 97.6614 81.688 97.7974 81.688ZM101.466 79.324C101.237 79.324 101.122 79.448 101.122 79.696V79.88H101.738V80.196H101.13V82H100.746V80.196H100.386V79.88H100.746V79.692C100.746 79.4813 100.808 79.3147 100.93 79.192C101.053 79.0693 101.225 79.008 101.446 79.008C101.532 79.008 101.612 79.0187 101.686 79.04C101.761 79.0613 101.825 79.092 101.878 79.132L101.762 79.424C101.674 79.3573 101.576 79.324 101.466 79.324ZM102.789 80.236C102.855 80.1133 102.954 80.02 103.085 79.956C103.215 79.892 103.374 79.86 103.561 79.86V80.232C103.539 80.2293 103.51 80.228 103.473 80.228C103.265 80.228 103.101 80.2907 102.981 80.416C102.863 80.5387 102.805 80.7147 102.805 80.944V82H102.421V79.88H102.789V80.236ZM105.93 80.952C105.93 80.9813 105.928 81.02 105.922 81.068H104.202C104.226 81.2547 104.308 81.4053 104.446 81.52C104.588 81.632 104.762 81.688 104.97 81.688C105.224 81.688 105.428 81.6027 105.582 81.432L105.794 81.68C105.698 81.792 105.578 81.8773 105.434 81.936C105.293 81.9947 105.134 82.024 104.958 82.024C104.734 82.024 104.536 81.9787 104.362 81.888C104.189 81.7947 104.054 81.6653 103.958 81.5C103.865 81.3347 103.818 81.148 103.818 80.94C103.818 80.7347 103.864 80.5493 103.954 80.384C104.048 80.2187 104.174 80.0907 104.334 80C104.497 79.9067 104.68 79.86 104.882 79.86C105.085 79.86 105.265 79.9067 105.422 80C105.582 80.0907 105.706 80.2187 105.794 80.384C105.885 80.5493 105.93 80.7387 105.93 80.952ZM104.882 80.184C104.698 80.184 104.544 80.24 104.418 80.352C104.296 80.464 104.224 80.6107 104.202 80.792H105.562C105.541 80.6133 105.468 80.468 105.342 80.356C105.22 80.2413 105.066 80.184 104.882 80.184ZM108.38 80.952C108.38 80.9813 108.377 81.02 108.372 81.068H106.652C106.676 81.2547 106.757 81.4053 106.896 81.52C107.037 81.632 107.212 81.688 107.42 81.688C107.673 81.688 107.877 81.6027 108.032 81.432L108.244 81.68C108.148 81.792 108.028 81.8773 107.884 81.936C107.742 81.9947 107.584 82.024 107.408 82.024C107.184 82.024 106.985 81.9787 106.812 81.888C106.638 81.7947 106.504 81.6653 106.408 81.5C106.314 81.3347 106.268 81.148 106.268 80.94C106.268 80.7347 106.313 80.5493 106.404 80.384C106.497 80.2187 106.624 80.0907 106.784 80C106.946 79.9067 107.129 79.86 107.332 79.86C107.534 79.86 107.714 79.9067 107.872 80C108.032 80.0907 108.156 80.2187 108.244 80.384C108.334 80.5493 108.38 80.7387 108.38 80.952ZM107.332 80.184C107.148 80.184 106.993 80.24 106.868 80.352C106.745 80.464 106.673 80.6107 106.652 80.792H108.012C107.99 80.6133 107.917 80.468 107.792 80.356C107.669 80.2413 107.516 80.184 107.332 80.184ZM108.861 79.2H109.313L109.237 81.116H108.933L108.861 79.2ZM109.089 82.024C109.014 82.024 108.951 82 108.901 81.952C108.85 81.9013 108.825 81.84 108.825 81.768C108.825 81.696 108.85 81.636 108.901 81.588C108.951 81.5373 109.014 81.512 109.089 81.512C109.163 81.512 109.225 81.5373 109.273 81.588C109.321 81.636 109.345 81.696 109.345 81.768C109.345 81.84 109.319 81.9013 109.269 81.952C109.221 82 109.161 82.024 109.089 82.024Z" fill="white"/>
<rect x="37" y="180" width="79" height="19" rx="2.32" fill="white"/>
<path d="M71.2485 187.725C71.9318 187.725 72.4694 187.888 72.8613 188.214C73.2532 188.541 73.4491 188.991 73.4491 189.563C73.4491 190.136 73.2532 190.586 72.8613 190.912C72.4694 191.239 71.9318 191.402 71.2485 191.402H69.9448V193H69.1912V187.725H71.2485ZM71.2259 190.747C71.7032 190.747 72.0675 190.646 72.3187 190.445C72.5699 190.239 72.6955 189.945 72.6955 189.563C72.6955 189.182 72.5699 188.89 72.3187 188.689C72.0675 188.483 71.7032 188.38 71.2259 188.38H69.9448V190.747H71.2259ZM74.5244 187.408H75.2479V193H74.5244V187.408ZM78.0837 188.968C78.6364 188.968 79.0584 189.104 79.3498 189.375C79.6462 189.646 79.7945 190.051 79.7945 190.588V193H79.1087V192.472C78.9881 192.658 78.8147 192.802 78.5887 192.902C78.3676 192.997 78.1038 193.045 77.7974 193.045C77.3502 193.045 76.991 192.937 76.7197 192.721C76.4534 192.505 76.3203 192.221 76.3203 191.87C76.3203 191.518 76.4484 191.237 76.7046 191.026C76.9608 190.809 77.3678 190.701 77.9255 190.701H79.071V190.558C79.071 190.247 78.9805 190.008 78.7997 189.842C78.6188 189.677 78.3525 189.594 78.0008 189.594C77.7647 189.594 77.5336 189.634 77.3075 189.714C77.0814 189.79 76.8905 189.893 76.7347 190.023L76.4333 189.481C76.6393 189.315 76.8855 189.189 77.1719 189.104C77.4582 189.013 77.7622 188.968 78.0837 188.968ZM77.9179 192.488C78.1943 192.488 78.4329 192.427 78.6339 192.307C78.8348 192.181 78.9805 192.005 79.071 191.779V191.221H77.9556C77.3427 191.221 77.0362 191.427 77.0362 191.839C77.0362 192.04 77.1141 192.199 77.2698 192.314C77.4256 192.43 77.6416 192.488 77.9179 192.488ZM84.5942 189.006L82.6574 193.399C82.4866 193.806 82.2856 194.093 82.0545 194.259C81.8284 194.424 81.5546 194.507 81.2331 194.507C81.0371 194.507 80.8462 194.475 80.6603 194.409C80.4794 194.349 80.3287 194.259 80.2081 194.138L80.5171 193.595C80.7231 193.791 80.9618 193.889 81.2331 193.889C81.4089 193.889 81.5546 193.842 81.6702 193.746C81.7907 193.656 81.8988 193.497 81.9942 193.271L82.1223 192.992L80.3589 189.006H81.1125L82.5067 192.201L83.8858 189.006H84.5942ZM85.1714 187.725H86.023L85.8798 191.334H85.3071L85.1714 187.725ZM85.601 193.045C85.4603 193.045 85.3423 193 85.2468 192.91C85.1513 192.814 85.1036 192.699 85.1036 192.563C85.1036 192.427 85.1513 192.314 85.2468 192.224C85.3423 192.128 85.4603 192.081 85.601 192.081C85.7417 192.081 85.8572 192.128 85.9477 192.224C86.0381 192.314 86.0833 192.427 86.0833 192.563C86.0833 192.699 86.0356 192.814 85.9401 192.91C85.8497 193 85.7367 193.045 85.601 193.045Z" fill="#740B99"/>
</svg>
