<svg width="148" height="297" viewBox="0 0 148 297" fill="none" xmlns="http://www.w3.org/2000/svg">
<rect x="147.312" y="296.592" width="147.211" height="296.515" rx="9.54155" transform="rotate(-179.97 147.312 296.592)" fill="white"/>
<rect x="140.688" y="265.705" width="134.653" height="235.119" rx="9.15294" transform="rotate(-179.97 140.688 265.705)" fill="#F7F7F7"/>
<g opacity="0.5" clip-path="url(#clip0)">
<path d="M36.5352 189.208L43.6501 185.107L50.8047 189.208L43.6976 193.309L36.5352 189.208Z" fill="#C69BD5"/>
<path d="M43.6959 193.31L50.803 189.209L50.7555 205.533L43.6484 209.634L43.6959 193.31Z" fill="#A059BA"/>
<path d="M36.5589 181.046L43.6739 176.945L43.6501 185.107L36.5352 189.208L36.5589 181.046Z" fill="#A059BA"/>
<path d="M29.4023 176.946L36.5173 172.846L43.6718 176.946L36.5569 181.047L29.4023 176.946Z" fill="#C69BD5"/>
<path d="M36.5575 181.046L36.5337 189.208L43.6962 193.309L43.6487 209.633L36.4942 205.532L36.5179 197.37L29.3555 193.269L29.403 176.945L36.5575 181.046Z" fill="#BC8ACE"/>
<path d="M22.202 218.466L15.095 214.365L15 181.717L22.107 185.817L22.202 218.466Z" fill="#D3B1DE"/>
<path d="M22.107 185.817L15 181.716L22.1545 177.615L29.2695 181.716L22.107 185.817Z" fill="#E2CCEA"/>
<path d="M29.2679 181.717L29.355 214.365L22.2004 218.466L22.1055 185.817L29.2679 181.717Z" fill="#B57EC9"/>
<path d="M91.3973 110.386L84.2824 106.285L84.1953 73.6367L91.3023 77.7374L91.3973 110.386Z" fill="#D3B1DE"/>
<path d="M91.3023 77.7365L84.1953 73.6358L91.3498 69.5352L98.4568 73.6358L91.3023 77.7365Z" fill="#E2CCEA"/>
<path d="M98.4553 73.6367L98.5503 106.285L91.3958 110.386L91.3008 77.7374L98.4553 73.6367Z" fill="#B57EC9"/>
<path d="M50.8284 143.136L57.9354 139.035L57.9117 147.197L50.8047 151.298L50.8284 143.136Z" fill="#740B99"/>
<path d="M43.6953 130.872L50.8024 126.771L57.9569 130.872L50.8498 134.973L43.6953 130.872Z" fill="#B47BC8"/>
<path d="M58.028 130.913L65.1429 126.812L65.0954 143.137L57.9805 147.237L58.028 130.913Z" fill="#740B99"/>
<path d="M50.875 126.812L57.982 122.711L65.1445 126.812L58.0295 130.912L50.875 126.812Z" fill="#B47BC8"/>
<path d="M58.0287 130.913L57.9812 147.237L50.8267 143.137L50.803 151.299L43.6484 147.198L43.6959 130.874L50.8505 134.975L50.8742 126.812L58.0287 130.913Z" fill="#8223A3"/>
<path d="M87.5355 174.864L94.6504 170.764L94.6267 178.926L87.5117 183.026L87.5355 174.864Z" fill="#740B99"/>
<path d="M80.4023 162.603L87.5094 158.502L94.6638 162.603L87.5568 166.703L80.4023 162.603Z" fill="#B47BC8"/>
<path d="M94.735 162.642L101.85 158.541L101.802 174.865L94.6875 178.966L94.735 162.642Z" fill="#740B99"/>
<path d="M87.582 158.54L94.6891 154.439L101.852 158.54L94.7366 162.641L87.582 158.54Z" fill="#B47BC8"/>
<path d="M94.7357 162.642L94.6882 178.966L87.5337 174.865L87.51 183.027L80.3555 178.926L80.403 162.602L87.5574 166.703L87.5812 158.541L94.7357 162.642Z" fill="#8223A3"/>
<path d="M29.3555 222.134L36.4704 218.025L43.625 222.134L36.5179 226.235L29.3555 222.134Z" fill="#C091D1"/>
<path d="M36.5198 226.233L43.6269 222.133L43.6031 230.287L36.4961 234.396L36.5198 226.233Z" fill="#E6D3ED"/>
<path d="M29.3792 213.964L36.4942 209.863L36.4704 218.025L29.3555 222.134L29.3792 213.964Z" fill="#C091D1"/>
<path d="M22.2266 209.862L29.3336 205.762L36.4961 209.862L29.3811 213.963L22.2266 209.862Z" fill="#F0E4F4"/>
<path d="M29.38 213.964L29.3563 222.134L36.5187 226.235L36.495 234.397L15.0234 222.087L15.0472 213.925L22.2017 218.025L22.2255 209.863L29.38 213.964Z" fill="#EADAF0"/>
<path d="M43.5703 164.644L50.6774 160.543L57.8398 164.644L50.7248 168.744L43.5703 164.644Z" fill="#AD6FC3"/>
<path d="M57.8789 172.847L64.9939 168.746L72.1484 172.847L65.0414 176.947L57.8789 172.847Z" fill="#D7B8E1"/>
<path d="M65.0433 176.946L72.1503 172.846L72.1266 181.008L65.0195 185.108L65.0433 176.946Z" fill="#8D37AB"/>
<path d="M57.9026 164.685L65.0176 160.584L64.9939 168.746L57.8789 172.847L57.9026 164.685Z" fill="#A35EBC"/>
<path d="M50.75 160.583L57.8571 156.482L65.0195 160.583L57.9046 164.684L50.75 160.583Z" fill="#D7B8E1"/>
<path d="M57.9034 164.685L57.8797 172.847L65.0421 176.947L65.0184 185.109L43.5469 172.807L43.5706 164.645L50.7251 168.746L50.7489 160.584L57.9034 164.685Z" fill="#BC8ACE"/>
<path d="M80.3633 125.829L87.4783 121.729L94.6329 125.829L87.5258 129.93L80.3633 125.829Z" fill="#AD6FC3"/>
<path d="M94.6797 134.03L101.787 129.93L108.941 134.03L101.834 138.131L94.6797 134.03Z" fill="#D7B8E1"/>
<path d="M101.836 138.132L108.943 134.031L108.927 142.193L101.812 146.294L101.836 138.132Z" fill="#8D37AB"/>
<path d="M94.7034 125.87L101.81 121.77L101.787 129.932L94.6797 134.032L94.7034 125.87Z" fill="#A35EBC"/>
<path d="M87.5508 121.769L94.6579 117.668L101.812 121.769L94.7053 125.869L87.5508 121.769Z" fill="#D7B8E1"/>
<path d="M94.7042 125.87L94.6805 134.032L101.835 138.133L101.811 146.295L80.3477 133.993L80.3635 125.831L87.5259 129.932L87.5497 121.77L94.7042 125.87Z" fill="#BC8ACE"/>
<path d="M50.8522 226.273L57.9593 222.172L57.9118 238.496L50.8047 242.597L50.8522 226.273Z" fill="#7B179E"/>
<path d="M36.5352 218.064L43.6501 213.963L57.9592 222.172L50.8521 226.273L36.5352 218.064Z" fill="#B47BC8"/>
<path d="M50.8527 226.274L50.8052 242.598L36.4961 234.396L36.5357 218.064L50.8527 226.274Z" fill="#8223A3"/>
<path d="M123.868 98.9874L130.975 94.8867L130.927 111.211L123.82 115.312L123.868 98.9874Z" fill="#740B99"/>
<path d="M109.559 90.7862L116.666 86.6855L130.975 94.8869L123.868 98.9876L109.559 90.7862Z" fill="#B47BC8"/>
<path d="M123.868 98.9885L123.821 115.313L109.512 107.111L109.559 90.7871L123.868 98.9885Z" fill="#8223A3"/>
<path d="M57.9925 230.366L65.1075 226.266L65.0837 234.428L57.9688 238.528L57.9925 230.366Z" fill="#A059BA"/>
<path d="M50.8359 226.265L57.943 222.164L65.1054 226.265L57.9905 230.365L50.8359 226.265Z" fill="#C69BD5"/>
<path d="M72.2855 246.73L79.3926 242.629L79.3688 250.791L72.2617 254.892L72.2855 246.73Z" fill="#7B179E"/>
<path d="M57.9688 238.528L65.0837 234.428L79.3928 242.629L72.2858 246.73L57.9688 238.528Z" fill="#A059BA"/>
<path d="M57.9911 230.366L57.9673 238.528L72.2843 246.73L72.2606 254.892L50.7891 242.59L50.8128 234.428L50.8365 226.266L57.9911 230.366Z" fill="#BC8ACE"/>
<path d="M108.313 54.2022L115.428 50.1016L115.404 58.2636L108.289 62.3643L108.313 54.2022Z" fill="#A059BA"/>
<path d="M101.156 50.1007L108.263 46L115.426 50.1007L108.311 54.2014L101.156 50.1007Z" fill="#C69BD5"/>
<path d="M122.606 70.5655L129.713 66.4648L129.689 74.6269L122.582 78.7276L122.606 70.5655Z" fill="#8528A5"/>
<path d="M108.289 62.3624L115.404 58.2617L129.713 66.4631L122.606 70.5638L108.289 62.3624Z" fill="#A059BA"/>
<path d="M108.311 54.2022L108.288 62.3643L122.605 70.5657L122.581 78.7278L101.109 66.4257L101.133 58.2637L101.157 50.1016L108.311 54.2022Z" fill="#BC8ACE"/>
<path d="M57.8711 205.878L64.9781 201.777L72.1327 205.878L65.0256 209.979L57.8711 205.878Z" fill="#C091D1"/>
<path d="M72.2275 197.757L79.3424 193.656L79.2712 218.143L72.1562 222.243L72.2275 197.757Z" fill="#C091D1"/>
<path d="M65.0742 193.655L72.1813 189.555L79.3437 193.655L72.2287 197.756L65.0742 193.655Z" fill="#F0E4F4"/>
<path d="M72.2279 197.757L72.1567 222.243L65.0022 218.143L57.8477 214.042L57.8714 205.88L65.0259 209.98L65.0734 193.656L72.2279 197.757Z" fill="#EADAF0"/>
<path d="M109.535 150.3L116.642 146.199L123.797 150.3L116.69 154.401L109.535 150.3Z" fill="#C091D1"/>
<path d="M123.892 142.179L130.999 138.078L130.927 162.564L123.82 166.665L123.892 142.179Z" fill="#C091D1"/>
<path d="M116.738 138.077L123.845 133.977L131 138.077L123.893 142.178L116.738 138.077Z" fill="#F0E4F4"/>
<path d="M123.892 142.179L123.821 166.665L116.666 162.564L109.512 158.464L109.535 150.302L116.69 154.402L116.737 138.078L123.892 142.179Z" fill="#EADAF0"/>
<path d="M79.3583 259.001L72.2512 254.893L72.1562 222.244L79.2712 226.345L79.3583 259.001Z" fill="#BC8ACE"/>
<path d="M79.2712 226.344L72.1562 222.243L79.2712 218.143L86.4258 222.243L79.2712 226.344Z" fill="#D7B8E1"/>
<path d="M86.4242 222.244L86.5192 254.893L79.3566 259.001L79.2695 226.345L86.4242 222.244Z" fill="#A35EBC"/>
</g>
<rect x="53.6211" y="17.1211" width="40.8144" height="2.79073" rx="1.39536" transform="rotate(0.0301048 53.6211 17.1211)" fill="#740B99"/>
<circle cx="74.0338" cy="11.3753" r="1.56978" transform="rotate(0.0301048 74.0338 11.3753)" fill="#740B99"/>
<circle cx="73.7165" cy="278.065" r="10.1164" transform="rotate(0.0301048 73.7165 278.065)" fill="#740B99"/>
<g filter="url(#filter0_d)">
<rect x="24" y="59" width="99" height="181" rx="10" fill="#740B99"/>
</g>
<path d="M69 153.355C69 151.266 69 149.178 69 147.09C69 146.045 69.5055 145.724 70.3609 146.246C73.6658 148.254 76.9708 150.303 80.2757 152.351C81.2478 152.953 81.2478 153.917 80.2369 154.52C76.9708 156.528 73.6658 158.576 70.3997 160.584C69.5055 161.147 69 160.825 69 159.741C69 157.612 69 155.484 69 153.355Z" fill="white"/>
<path d="M57.3213 79.7246L55.5579 85H54.7666L53.3271 80.7872L51.8877 85H51.0813L49.3179 79.7246H50.0941L51.5184 84.0128L53.0031 79.7246H53.6964L55.1509 84.0354L56.6054 79.7246H57.3213ZM59.2905 80.9681C59.8431 80.9681 60.2652 81.1038 60.5566 81.3751C60.853 81.6464 61.0012 82.0508 61.0012 82.5884V85H60.3154V84.4725C60.1948 84.6584 60.0215 84.8015 59.7954 84.902C59.5743 84.9975 59.3106 85.0452 59.0041 85.0452C58.557 85.0452 58.1977 84.9372 57.9264 84.7212C57.6601 84.5051 57.527 84.2213 57.527 83.8696C57.527 83.5179 57.6551 83.2365 57.9114 83.0255C58.1676 82.8095 58.5745 82.7014 59.1322 82.7014H60.2777V82.5583C60.2777 82.2468 60.1873 82.0081 60.0064 81.8423C59.8256 81.6765 59.5593 81.5936 59.2076 81.5936C58.9714 81.5936 58.7403 81.6338 58.5143 81.7142C58.2882 81.7896 58.0972 81.8926 57.9415 82.0232L57.64 81.4806C57.846 81.3148 58.0922 81.1892 58.3786 81.1038C58.665 81.0133 58.9689 80.9681 59.2905 80.9681ZM59.1247 84.4875C59.401 84.4875 59.6397 84.4272 59.8406 84.3067C60.0416 84.1811 60.1873 84.0052 60.2777 83.7791V83.2214H59.1624C58.5494 83.2214 58.2429 83.4274 58.2429 83.8394C58.2429 84.0404 58.3208 84.1986 58.4766 84.3142C58.6323 84.4298 58.8484 84.4875 59.1247 84.4875ZM64.5859 84.7664C64.4804 84.8568 64.3497 84.9271 64.194 84.9774C64.0382 85.0226 63.8775 85.0452 63.7117 85.0452C63.3097 85.0452 62.9982 84.9372 62.7772 84.7212C62.5561 84.5051 62.4456 84.1961 62.4456 83.7942V81.6012H61.7673V81.0058H62.4456V80.1316H63.1691V81.0058H64.3146V81.6012H63.1691V83.7641C63.1691 83.9801 63.2218 84.1459 63.3273 84.2614C63.4378 84.377 63.5936 84.4348 63.7946 84.4348C64.0156 84.4348 64.204 84.372 64.3598 84.2464L64.5859 84.7664ZM67.0689 85.0452C66.662 85.0452 66.2977 84.9573 65.9762 84.7814C65.6597 84.6056 65.411 84.3644 65.2301 84.058C65.0492 83.7465 64.9588 83.3948 64.9588 83.0029C64.9588 82.611 65.0492 82.2618 65.2301 81.9554C65.411 81.6439 65.6597 81.4027 65.9762 81.2319C66.2977 81.056 66.662 80.9681 67.0689 80.9681C67.4307 80.9681 67.7522 81.041 68.0336 81.1867C68.3199 81.3324 68.541 81.5434 68.6968 81.8197L68.1466 82.1739C68.021 81.983 67.8653 81.8398 67.6794 81.7443C67.4935 81.6489 67.2875 81.6012 67.0614 81.6012C66.8001 81.6012 66.564 81.6589 66.353 81.7745C66.147 81.89 65.9837 82.0558 65.8631 82.2719C65.7476 82.4829 65.6898 82.7266 65.6898 83.0029C65.6898 83.2843 65.7476 83.5329 65.8631 83.749C65.9837 83.96 66.147 84.1233 66.353 84.2388C66.564 84.3544 66.8001 84.4122 67.0614 84.4122C67.2875 84.4122 67.4935 84.3644 67.6794 84.269C67.8653 84.1735 68.021 84.0303 68.1466 83.8394L68.6968 84.1861C68.541 84.4624 68.3199 84.6759 68.0336 84.8267C67.7522 84.9724 67.4307 85.0452 67.0689 85.0452ZM71.7147 80.9681C72.2221 80.9681 72.624 81.1163 72.9205 81.4128C73.2219 81.7042 73.3726 82.1337 73.3726 82.7014V85H72.6492V82.7843C72.6492 82.3975 72.5562 82.1061 72.3703 81.9101C72.1844 81.7142 71.9181 81.6162 71.5715 81.6162C71.1796 81.6162 70.8706 81.7318 70.6445 81.9629C70.4184 82.189 70.3054 82.5156 70.3054 82.9426V85H69.5819V79.4081H70.3054V81.571C70.4561 81.3801 70.6521 81.2319 70.8932 81.1264C71.1394 81.0209 71.4132 80.9681 71.7147 80.9681ZM80.2699 81.0058L78.5215 85H77.783L76.0346 81.0058H76.7882L78.1598 84.2087L79.5615 81.0058H80.2699ZM80.9451 81.0058H81.6686V85H80.9451V81.0058ZM81.3069 80.2371C81.1662 80.2371 81.0481 80.1919 80.9527 80.1014C80.8622 80.011 80.817 79.9005 80.817 79.7699C80.817 79.6392 80.8622 79.5287 80.9527 79.4383C81.0481 79.3428 81.1662 79.2951 81.3069 79.2951C81.4476 79.2951 81.5631 79.3403 81.6535 79.4307C81.749 79.5161 81.7967 79.6242 81.7967 79.7548C81.7967 79.8904 81.749 80.006 81.6535 80.1014C81.5631 80.1919 81.4476 80.2371 81.3069 80.2371ZM86.8181 79.4081V85H86.1248V84.367C85.964 84.588 85.7605 84.7563 85.5143 84.8719C85.2681 84.9874 84.9968 85.0452 84.7004 85.0452C84.3136 85.0452 83.9669 84.9598 83.6604 84.789C83.3539 84.6182 83.1128 84.3795 82.9369 84.073C82.7661 83.7615 82.6807 83.4048 82.6807 83.0029C82.6807 82.601 82.7661 82.2468 82.9369 81.9403C83.1128 81.6338 83.3539 81.3952 83.6604 81.2243C83.9669 81.0535 84.3136 80.9681 84.7004 80.9681C84.9868 80.9681 85.2506 81.0234 85.4917 81.1339C85.7329 81.2394 85.9338 81.3977 86.0946 81.6087V79.4081H86.8181ZM84.7607 84.4122C85.0119 84.4122 85.2405 84.3544 85.4465 84.2388C85.6525 84.1183 85.8133 83.9525 85.9288 83.7414C86.0444 83.5254 86.1022 83.2792 86.1022 83.0029C86.1022 82.7266 86.0444 82.4829 85.9288 82.2719C85.8133 82.0558 85.6525 81.89 85.4465 81.7745C85.2405 81.6589 85.0119 81.6012 84.7607 81.6012C84.5045 81.6012 84.2734 81.6589 84.0674 81.7745C83.8664 81.89 83.7056 82.0558 83.5851 82.2719C83.4695 82.4829 83.4117 82.7266 83.4117 83.0029C83.4117 83.2792 83.4695 83.5254 83.5851 83.7414C83.7056 83.9525 83.8664 84.1183 84.0674 84.2388C84.2734 84.3544 84.5045 84.4122 84.7607 84.4122ZM91.7968 83.0255C91.7968 83.0808 91.7918 83.1536 91.7818 83.2441H88.5412C88.5864 83.5957 88.7396 83.8796 89.0009 84.0957C89.2672 84.3067 89.5963 84.4122 89.9881 84.4122C90.4654 84.4122 90.8498 84.2514 91.1412 83.9299L91.5406 84.3971C91.3597 84.6081 91.1337 84.7689 90.8623 84.8794C90.5961 84.99 90.2971 85.0452 89.9655 85.0452C89.5435 85.0452 89.1692 84.9598 88.8426 84.789C88.5161 84.6131 88.2623 84.3695 88.0815 84.058C87.9056 83.7465 87.8177 83.3948 87.8177 83.0029C87.8177 82.616 87.9031 82.2669 88.0739 81.9554C88.2498 81.6439 88.4884 81.4027 88.7899 81.2319C89.0964 81.056 89.4405 80.9681 89.8223 80.9681C90.2042 80.9681 90.5433 81.056 90.8397 81.2319C91.1412 81.4027 91.3748 81.6439 91.5406 81.9554C91.7114 82.2669 91.7968 82.6236 91.7968 83.0255ZM89.8223 81.5786C89.4757 81.5786 89.1843 81.6841 88.9481 81.8951C88.717 82.1061 88.5814 82.3824 88.5412 82.7241H91.1035C91.0633 82.3874 90.9252 82.1136 90.689 81.9026C90.4579 81.6866 90.169 81.5786 89.8223 81.5786ZM94.5122 85.0452C94.1153 85.0452 93.7586 84.9573 93.442 84.7814C93.1255 84.6056 92.8768 84.3644 92.6959 84.058C92.5201 83.7465 92.4322 83.3948 92.4322 83.0029C92.4322 82.611 92.5201 82.2618 92.6959 81.9554C92.8768 81.6439 93.1255 81.4027 93.442 81.2319C93.7586 81.056 94.1153 80.9681 94.5122 80.9681C94.9091 80.9681 95.2633 81.056 95.5748 81.2319C95.8913 81.4027 96.1375 81.6439 96.3133 81.9554C96.4942 82.2618 96.5846 82.611 96.5846 83.0029C96.5846 83.3948 96.4942 83.7465 96.3133 84.058C96.1375 84.3644 95.8913 84.6056 95.5748 84.7814C95.2633 84.9573 94.9091 85.0452 94.5122 85.0452ZM94.5122 84.4122C94.7684 84.4122 94.997 84.3544 95.198 84.2388C95.404 84.1183 95.5647 83.9525 95.6803 83.7414C95.7959 83.5254 95.8536 83.2792 95.8536 83.0029C95.8536 82.7266 95.7959 82.4829 95.6803 82.2719C95.5647 82.0558 95.404 81.89 95.198 81.7745C94.997 81.6589 94.7684 81.6012 94.5122 81.6012C94.2559 81.6012 94.0248 81.6589 93.8188 81.7745C93.6179 81.89 93.4571 82.0558 93.3365 82.2719C93.221 82.4829 93.1632 82.7266 93.1632 83.0029C93.1632 83.2792 93.221 83.5254 93.3365 83.7414C93.4571 83.9525 93.6179 84.1183 93.8188 84.2388C94.0248 84.3544 94.2559 84.4122 94.5122 84.4122ZM59.1433 89.9681C59.6959 89.9681 60.118 90.1038 60.4094 90.3751C60.7058 90.6464 60.854 91.0508 60.854 91.5884V94H60.1682V93.4725C60.0476 93.6584 59.8743 93.8015 59.6482 93.902C59.4272 93.9975 59.1634 94.0452 58.8569 94.0452C58.4098 94.0452 58.0505 93.9372 57.7792 93.7212C57.513 93.5051 57.3798 93.2213 57.3798 92.8696C57.3798 92.5179 57.5079 92.2365 57.7642 92.0255C58.0204 91.8095 58.4273 91.7014 58.985 91.7014H60.1305V91.5583C60.1305 91.2468 60.0401 91.0081 59.8592 90.8423C59.6784 90.6765 59.4121 90.5936 59.0604 90.5936C58.8243 90.5936 58.5931 90.6338 58.3671 90.7142C58.141 90.7896 57.9501 90.8926 57.7943 91.0232L57.4929 90.4806C57.6988 90.3148 57.945 90.1892 58.2314 90.1038C58.5178 90.0133 58.8217 89.9681 59.1433 89.9681ZM58.9775 93.4875C59.2538 93.4875 59.4925 93.4272 59.6934 93.3067C59.8944 93.1811 60.0401 93.0052 60.1305 92.7791V92.2214H59.0152C58.4022 92.2214 58.0958 92.4274 58.0958 92.8394C58.0958 93.0404 58.1736 93.1986 58.3294 93.3142C58.4851 93.4298 58.7012 93.4875 58.9775 93.4875ZM64.3256 89.9681C64.8331 89.9681 65.235 90.1163 65.5314 90.4128C65.8329 90.7042 65.9836 91.1337 65.9836 91.7014V94H65.2601V91.7843C65.2601 91.3975 65.1672 91.1061 64.9813 90.9101C64.7954 90.7142 64.5291 90.6162 64.1824 90.6162C63.7906 90.6162 63.4816 90.7318 63.2555 90.9629C63.0294 91.189 62.9164 91.5156 62.9164 91.9426V94H62.1929V90.0058H62.8862V90.6087C63.0319 90.4027 63.2278 90.2444 63.474 90.1339C63.7252 90.0234 64.0091 89.9681 64.3256 89.9681ZM71.1127 88.4081V94H70.4194V93.367C70.2586 93.588 70.0551 93.7563 69.8089 93.8719C69.5628 93.9874 69.2915 94.0452 68.995 94.0452C68.6082 94.0452 68.2615 93.9598 67.955 93.789C67.6486 93.6182 67.4074 93.3795 67.2316 93.073C67.0607 92.7615 66.9753 92.4048 66.9753 92.0029C66.9753 91.601 67.0607 91.2468 67.2316 90.9403C67.4074 90.6338 67.6486 90.3952 67.955 90.2243C68.2615 90.0535 68.6082 89.9681 68.995 89.9681C69.2814 89.9681 69.5452 90.0234 69.7863 90.1339C70.0275 90.2394 70.2285 90.3977 70.3892 90.6087V88.4081H71.1127ZM69.0553 93.4122C69.3065 93.4122 69.5351 93.3544 69.7411 93.2388C69.9471 93.1183 70.1079 92.9525 70.2234 92.7414C70.339 92.5254 70.3968 92.2792 70.3968 92.0029C70.3968 91.7266 70.339 91.4829 70.2234 91.2719C70.1079 91.0558 69.9471 90.89 69.7411 90.7745C69.5351 90.6589 69.3065 90.6012 69.0553 90.6012C68.7991 90.6012 68.568 90.6589 68.362 90.7745C68.161 90.89 68.0002 91.0558 67.8797 91.2719C67.7641 91.4829 67.7063 91.7266 67.7063 92.0029C67.7063 92.2792 67.7641 92.5254 67.8797 92.7414C68.0002 92.9525 68.161 93.1183 68.362 93.2388C68.568 93.3544 68.7991 93.4122 69.0553 93.4122ZM78.1153 92.0255C78.1153 92.0808 78.1103 92.1536 78.1003 92.2441H74.8597C74.9049 92.5957 75.0581 92.8796 75.3194 93.0957C75.5857 93.3067 75.9148 93.4122 76.3066 93.4122C76.7839 93.4122 77.1683 93.2514 77.4597 92.9299L77.8591 93.3971C77.6782 93.6081 77.4522 93.7689 77.1808 93.8794C76.9146 93.99 76.6156 94.0452 76.284 94.0452C75.862 94.0452 75.4877 93.9598 75.1611 93.789C74.8346 93.6131 74.5808 93.3695 74.4 93.058C74.2241 92.7465 74.1362 92.3948 74.1362 92.0029C74.1362 91.616 74.2216 91.2669 74.3924 90.9554C74.5683 90.6439 74.8069 90.4027 75.1084 90.2319C75.4149 90.056 75.759 89.9681 76.1408 89.9681C76.5227 89.9681 76.8618 90.056 77.1582 90.2319C77.4597 90.4027 77.6933 90.6439 77.8591 90.9554C78.0299 91.2669 78.1153 91.6236 78.1153 92.0255ZM76.1408 90.5786C75.7942 90.5786 75.5028 90.6841 75.2666 90.8951C75.0355 91.1061 74.8999 91.3824 74.8597 91.7241H77.422C77.3818 91.3874 77.2436 91.1136 77.0075 90.9026C76.7764 90.6866 76.4875 90.5786 76.1408 90.5786ZM80.4641 89.9681C81.0167 89.9681 81.4387 90.1038 81.7301 90.3751C82.0266 90.6464 82.1748 91.0508 82.1748 91.5884V94H81.489V93.4725C81.3684 93.6584 81.1951 93.8015 80.969 93.902C80.7479 93.9975 80.4842 94.0452 80.1777 94.0452C79.7305 94.0452 79.3713 93.9372 79.1 93.7212C78.8337 93.5051 78.7006 93.2213 78.7006 92.8696C78.7006 92.5179 78.8287 92.2365 79.0849 92.0255C79.3412 91.8095 79.7481 91.7014 80.3058 91.7014H81.4513V91.5583C81.4513 91.2468 81.3609 91.0081 81.18 90.8423C80.9991 90.6765 80.7329 90.5936 80.3812 90.5936C80.145 90.5936 79.9139 90.6338 79.6878 90.7142C79.4617 90.7896 79.2708 90.8926 79.1151 91.0232L78.8136 90.4806C79.0196 90.3148 79.2658 90.1892 79.5522 90.1038C79.8386 90.0133 80.1425 89.9681 80.4641 89.9681ZM80.2983 93.4875C80.5746 93.4875 80.8132 93.4272 81.0142 93.3067C81.2152 93.1811 81.3609 93.0052 81.4513 92.7791V92.2214H80.3359C79.723 92.2214 79.4165 92.4274 79.4165 92.8394C79.4165 93.0404 79.4944 93.1986 79.6501 93.3142C79.8059 93.4298 80.0219 93.4875 80.2983 93.4875ZM84.207 90.6765C84.3326 90.4454 84.5185 90.2696 84.7647 90.149C85.0108 90.0284 85.3098 89.9681 85.6615 89.9681V90.669C85.6213 90.664 85.566 90.6614 85.4957 90.6614C85.1038 90.6614 84.7948 90.7795 84.5687 91.0157C84.3476 91.2468 84.2371 91.5784 84.2371 92.0104V94H83.5136V90.0058H84.207V90.6765ZM88.6859 89.9681C89.1933 89.9681 89.5953 90.1163 89.8917 90.4128C90.1932 90.7042 90.3439 91.1337 90.3439 91.7014V94H89.6204V91.7843C89.6204 91.3975 89.5275 91.1061 89.3416 90.9101C89.1557 90.7142 88.8894 90.6162 88.5427 90.6162C88.1508 90.6162 87.8418 90.7318 87.6158 90.9629C87.3897 91.189 87.2766 91.5156 87.2766 91.9426V94H86.5532V90.0058H87.2465V90.6087C87.3922 90.4027 87.5881 90.2444 87.8343 90.1339C88.0855 90.0234 88.3694 89.9681 88.6859 89.9681ZM44.7737 99.9681C45.3263 99.9681 45.7484 100.104 46.0398 100.375C46.3362 100.646 46.4844 101.051 46.4844 101.588V104H45.7986V103.472C45.678 103.658 45.5047 103.802 45.2786 103.902C45.0575 103.997 44.7938 104.045 44.4873 104.045C44.0401 104.045 43.6809 103.937 43.4096 103.721C43.1433 103.505 43.0102 103.221 43.0102 102.87C43.0102 102.518 43.1383 102.237 43.3945 102.026C43.6508 101.809 44.0577 101.701 44.6154 101.701H45.7609V101.558C45.7609 101.247 45.6705 101.008 45.4896 100.842C45.3087 100.677 45.0425 100.594 44.6908 100.594C44.4546 100.594 44.2235 100.634 43.9974 100.714C43.7714 100.79 43.5804 100.893 43.4247 101.023L43.1232 100.481C43.3292 100.315 43.5754 100.189 43.8618 100.104C44.1482 100.013 44.4521 99.9681 44.7737 99.9681ZM44.6079 103.488C44.8842 103.488 45.1228 103.427 45.3238 103.307C45.5248 103.181 45.6705 103.005 45.7609 102.779V102.221H44.6456C44.0326 102.221 43.7261 102.427 43.7261 102.839C43.7261 103.04 43.804 103.199 43.9598 103.314C44.1155 103.43 44.3315 103.488 44.6079 103.488ZM51.6134 98.4081V104H50.9201V103.367C50.7593 103.588 50.5559 103.756 50.3097 103.872C50.0635 103.987 49.7922 104.045 49.4958 104.045C49.1089 104.045 48.7622 103.96 48.4558 103.789C48.1493 103.618 47.9081 103.38 47.7323 103.073C47.5615 102.762 47.4761 102.405 47.4761 102.003C47.4761 101.601 47.5615 101.247 47.7323 100.94C47.9081 100.634 48.1493 100.395 48.4558 100.224C48.7622 100.054 49.1089 99.9681 49.4958 99.9681C49.7821 99.9681 50.0459 100.023 50.2871 100.134C50.5282 100.239 50.7292 100.398 50.89 100.609V98.4081H51.6134ZM49.5561 103.412C49.8073 103.412 50.0359 103.354 50.2419 103.239C50.4478 103.118 50.6086 102.952 50.7242 102.741C50.8397 102.525 50.8975 102.279 50.8975 102.003C50.8975 101.727 50.8397 101.483 50.7242 101.272C50.6086 101.056 50.4478 100.89 50.2419 100.774C50.0359 100.659 49.8073 100.601 49.5561 100.601C49.2998 100.601 49.0687 100.659 48.8627 100.774C48.6618 100.89 48.501 101.056 48.3804 101.272C48.2648 101.483 48.2071 101.727 48.2071 102.003C48.2071 102.279 48.2648 102.525 48.3804 102.741C48.501 102.952 48.6618 103.118 48.8627 103.239C49.0687 103.354 49.2998 103.412 49.5561 103.412ZM56.7504 98.4081V104H56.0571V103.367C55.8963 103.588 55.6929 103.756 55.4467 103.872C55.2005 103.987 54.9292 104.045 54.6328 104.045C54.2459 104.045 53.8992 103.96 53.5928 103.789C53.2863 103.618 53.0451 103.38 52.8693 103.073C52.6985 102.762 52.6131 102.405 52.6131 102.003C52.6131 101.601 52.6985 101.247 52.8693 100.94C53.0451 100.634 53.2863 100.395 53.5928 100.224C53.8992 100.054 54.2459 99.9681 54.6328 99.9681C54.9191 99.9681 55.1829 100.023 55.4241 100.134C55.6652 100.239 55.8662 100.398 56.027 100.609V98.4081H56.7504ZM54.6931 103.412C54.9443 103.412 55.1729 103.354 55.3789 103.239C55.5848 103.118 55.7456 102.952 55.8612 102.741C55.9767 102.525 56.0345 102.279 56.0345 102.003C56.0345 101.727 55.9767 101.483 55.8612 101.272C55.7456 101.056 55.5848 100.89 55.3789 100.774C55.1729 100.659 54.9443 100.601 54.6931 100.601C54.4368 100.601 54.2057 100.659 53.9997 100.774C53.7988 100.89 53.638 101.056 53.5174 101.272C53.4018 101.483 53.3441 101.727 53.3441 102.003C53.3441 102.279 53.4018 102.525 53.5174 102.741C53.638 102.952 53.7988 103.118 53.9997 103.239C54.2057 103.354 54.4368 103.412 54.6931 103.412ZM58.1193 100.006H58.8428V104H58.1193V100.006ZM58.4811 99.2371C58.3404 99.2371 58.2223 99.1919 58.1269 99.1014C58.0364 99.011 57.9912 98.9005 57.9912 98.7699C57.9912 98.6392 58.0364 98.5287 58.1269 98.4383C58.2223 98.3428 58.3404 98.2951 58.4811 98.2951C58.6218 98.2951 58.7373 98.3403 58.8277 98.4307C58.9232 98.5161 58.9709 98.6242 58.9709 98.7548C58.9709 98.8904 58.9232 99.006 58.8277 99.1014C58.7373 99.1919 58.6218 99.2371 58.4811 99.2371ZM62.47 103.766C62.3645 103.857 62.2338 103.927 62.0781 103.977C61.9223 104.023 61.7616 104.045 61.5958 104.045C61.1938 104.045 60.8823 103.937 60.6613 103.721C60.4402 103.505 60.3297 103.196 60.3297 102.794V100.601H59.6514V100.006H60.3297V99.1316H61.0532V100.006H62.1987V100.601H61.0532V102.764C61.0532 102.98 61.1059 103.146 61.2114 103.261C61.322 103.377 61.4777 103.435 61.6787 103.435C61.8997 103.435 62.0881 103.372 62.2439 103.246L62.47 103.766ZM63.3447 100.006H64.0681V104H63.3447V100.006ZM63.7064 99.2371C63.5657 99.2371 63.4476 99.1919 63.3522 99.1014C63.2618 99.011 63.2165 98.9005 63.2165 98.7699C63.2165 98.6392 63.2618 98.5287 63.3522 98.4383C63.4476 98.3428 63.5657 98.2951 63.7064 98.2951C63.8471 98.2951 63.9626 98.3403 64.0531 98.4307C64.1485 98.5161 64.1962 98.6242 64.1962 98.7548C64.1962 98.8904 64.1485 99.006 64.0531 99.1014C63.9626 99.1919 63.8471 99.2371 63.7064 99.2371ZM67.1602 104.045C66.7633 104.045 66.4066 103.957 66.0901 103.781C65.7736 103.606 65.5249 103.364 65.344 103.058C65.1681 102.746 65.0802 102.395 65.0802 102.003C65.0802 101.611 65.1681 101.262 65.344 100.955C65.5249 100.644 65.7736 100.403 66.0901 100.232C66.4066 100.056 66.7633 99.9681 67.1602 99.9681C67.5571 99.9681 67.9113 100.056 68.2228 100.232C68.5394 100.403 68.7855 100.644 68.9614 100.955C69.1423 101.262 69.2327 101.611 69.2327 102.003C69.2327 102.395 69.1423 102.746 68.9614 103.058C68.7855 103.364 68.5394 103.606 68.2228 103.781C67.9113 103.957 67.5571 104.045 67.1602 104.045ZM67.1602 103.412C67.4165 103.412 67.6451 103.354 67.846 103.239C68.052 103.118 68.2128 102.952 68.3283 102.741C68.4439 102.525 68.5017 102.279 68.5017 102.003C68.5017 101.727 68.4439 101.483 68.3283 101.272C68.2128 101.056 68.052 100.89 67.846 100.774C67.6451 100.659 67.4165 100.601 67.1602 100.601C66.904 100.601 66.6729 100.659 66.4669 100.774C66.2659 100.89 66.1051 101.056 65.9846 101.272C65.869 101.483 65.8112 101.727 65.8112 102.003C65.8112 102.279 65.869 102.525 65.9846 102.741C66.1051 102.952 66.2659 103.118 66.4669 103.239C66.6729 103.354 66.904 103.412 67.1602 103.412ZM72.366 99.9681C72.8734 99.9681 73.2754 100.116 73.5718 100.413C73.8732 100.704 74.024 101.134 74.024 101.701V104H73.3005V101.784C73.3005 101.397 73.2075 101.106 73.0216 100.91C72.8358 100.714 72.5695 100.616 72.2228 100.616C71.8309 100.616 71.5219 100.732 71.2958 100.963C71.0698 101.189 70.9567 101.516 70.9567 101.943V104H70.2332V100.006H70.9266V100.609C71.0723 100.403 71.2682 100.244 71.5144 100.134C71.7656 100.023 72.0495 99.9681 72.366 99.9681ZM76.8174 99.9681C77.37 99.9681 77.7921 100.104 78.0835 100.375C78.3799 100.646 78.5281 101.051 78.5281 101.588V104H77.8423V103.472C77.7217 103.658 77.5484 103.802 77.3223 103.902C77.1012 103.997 76.8375 104.045 76.531 104.045C76.0838 104.045 75.7246 103.937 75.4533 103.721C75.187 103.505 75.0539 103.221 75.0539 102.87C75.0539 102.518 75.182 102.237 75.4382 102.026C75.6945 101.809 76.1014 101.701 76.6591 101.701H77.8046V101.558C77.8046 101.247 77.7142 101.008 77.5333 100.842C77.3524 100.677 77.0862 100.594 76.7345 100.594C76.4983 100.594 76.2672 100.634 76.0411 100.714C75.8151 100.79 75.6241 100.893 75.4684 101.023L75.1669 100.481C75.3729 100.315 75.6191 100.189 75.9055 100.104C76.1919 100.013 76.4958 99.9681 76.8174 99.9681ZM76.6516 103.488C76.9279 103.488 77.1666 103.427 77.3675 103.307C77.5685 103.181 77.7142 103.005 77.8046 102.779V102.221H76.6893C76.0763 102.221 75.7698 102.427 75.7698 102.839C75.7698 103.04 75.8477 103.199 76.0035 103.314C76.1592 103.43 76.3753 103.488 76.6516 103.488ZM79.867 98.4081H80.5904V104H79.867V98.4081ZM85.7366 104.045C85.3296 104.045 84.9654 103.957 84.6438 103.781C84.3273 103.606 84.0786 103.364 83.8977 103.058C83.7169 102.746 83.6264 102.395 83.6264 102.003C83.6264 101.611 83.7169 101.262 83.8977 100.955C84.0786 100.644 84.3273 100.403 84.6438 100.232C84.9654 100.056 85.3296 99.9681 85.7366 99.9681C86.0983 99.9681 86.4199 100.041 86.7012 100.187C86.9876 100.332 87.2086 100.543 87.3644 100.82L86.8142 101.174C86.6886 100.983 86.5329 100.84 86.347 100.744C86.1611 100.649 85.9551 100.601 85.729 100.601C85.4678 100.601 85.2316 100.659 85.0206 100.774C84.8146 100.89 84.6513 101.056 84.5308 101.272C84.4152 101.483 84.3574 101.727 84.3574 102.003C84.3574 102.284 84.4152 102.533 84.5308 102.749C84.6513 102.96 84.8146 103.123 85.0206 103.239C85.2316 103.354 85.4678 103.412 85.729 103.412C85.9551 103.412 86.1611 103.364 86.347 103.269C86.5329 103.174 86.6886 103.03 86.8142 102.839L87.3644 103.186C87.2086 103.462 86.9876 103.676 86.7012 103.827C86.4199 103.972 86.0983 104.045 85.7366 104.045ZM89.9529 104.045C89.556 104.045 89.1993 103.957 88.8828 103.781C88.5662 103.606 88.3175 103.364 88.1367 103.058C87.9608 102.746 87.8729 102.395 87.8729 102.003C87.8729 101.611 87.9608 101.262 88.1367 100.955C88.3175 100.644 88.5662 100.403 88.8828 100.232C89.1993 100.056 89.556 99.9681 89.9529 99.9681C90.3498 99.9681 90.704 100.056 91.0155 100.232C91.332 100.403 91.5782 100.644 91.7541 100.955C91.9349 101.262 92.0254 101.611 92.0254 102.003C92.0254 102.395 91.9349 102.746 91.7541 103.058C91.5782 103.364 91.332 103.606 91.0155 103.781C90.704 103.957 90.3498 104.045 89.9529 104.045ZM89.9529 103.412C90.2091 103.412 90.4377 103.354 90.6387 103.239C90.8447 103.118 91.0055 102.952 91.121 102.741C91.2366 102.525 91.2944 102.279 91.2944 102.003C91.2944 101.727 91.2366 101.483 91.121 101.272C91.0055 101.056 90.8447 100.89 90.6387 100.774C90.4377 100.659 90.2091 100.601 89.9529 100.601C89.6967 100.601 89.4656 100.659 89.2596 100.774C89.0586 100.89 88.8978 101.056 88.7773 101.272C88.6617 101.483 88.6039 101.727 88.6039 102.003C88.6039 102.279 88.6617 102.525 88.7773 102.741C88.8978 102.952 89.0586 103.118 89.2596 103.239C89.4656 103.354 89.6967 103.412 89.9529 103.412ZM93.0259 100.006H93.7494V104H93.0259V100.006ZM93.3877 99.2371C93.247 99.2371 93.1289 99.1919 93.0335 99.1014C92.943 99.011 92.8978 98.9005 92.8978 98.7699C92.8978 98.6392 92.943 98.5287 93.0335 98.4383C93.1289 98.3428 93.247 98.2951 93.3877 98.2951C93.5283 98.2951 93.6439 98.3403 93.7343 98.4307C93.8298 98.5161 93.8775 98.6242 93.8775 98.7548C93.8775 98.8904 93.8298 99.006 93.7343 99.1014C93.6439 99.1919 93.5283 99.2371 93.3877 99.2371ZM97.2635 99.9681C97.771 99.9681 98.1729 100.116 98.4693 100.413C98.7708 100.704 98.9215 101.134 98.9215 101.701V104H98.198V101.784C98.198 101.397 98.1051 101.106 97.9192 100.91C97.7333 100.714 97.467 100.616 97.1203 100.616C96.7285 100.616 96.4195 100.732 96.1934 100.963C95.9673 101.189 95.8543 101.516 95.8543 101.943V104H95.1308V100.006H95.8241V100.609C95.9698 100.403 96.1657 100.244 96.4119 100.134C96.6631 100.023 96.947 99.9681 97.2635 99.9681ZM101.406 104.045C101.079 104.045 100.765 104.003 100.464 103.917C100.162 103.827 99.9263 103.714 99.7555 103.578L100.057 103.005C100.233 103.131 100.446 103.231 100.698 103.307C100.949 103.382 101.202 103.42 101.459 103.42C102.092 103.42 102.408 103.239 102.408 102.877C102.408 102.757 102.366 102.661 102.28 102.591C102.195 102.52 102.087 102.47 101.956 102.44C101.83 102.405 101.65 102.367 101.413 102.327C101.092 102.277 100.828 102.219 100.622 102.154C100.421 102.088 100.248 101.978 100.102 101.822C99.9565 101.666 99.8836 101.448 99.8836 101.166C99.8836 100.805 100.034 100.516 100.336 100.3C100.637 100.079 101.042 99.9681 101.549 99.9681C101.815 99.9681 102.082 100.001 102.348 100.066C102.614 100.131 102.833 100.219 103.004 100.33L102.695 100.903C102.368 100.692 101.984 100.586 101.542 100.586C101.235 100.586 101.001 100.636 100.841 100.737C100.68 100.837 100.6 100.97 100.6 101.136C100.6 101.267 100.645 101.37 100.735 101.445C100.826 101.521 100.936 101.576 101.067 101.611C101.202 101.646 101.391 101.686 101.632 101.732C101.954 101.787 102.212 101.847 102.408 101.912C102.609 101.973 102.78 102.078 102.921 102.229C103.061 102.38 103.132 102.591 103.132 102.862C103.132 103.224 102.976 103.513 102.664 103.729C102.358 103.94 101.938 104.045 101.406 104.045ZM103.938 98.7246H104.79L104.646 102.334H104.074L103.938 98.7246ZM104.367 104.045C104.227 104.045 104.109 104 104.013 103.91C103.918 103.814 103.87 103.699 103.87 103.563C103.87 103.427 103.918 103.314 104.013 103.224C104.109 103.128 104.227 103.081 104.367 103.081C104.508 103.081 104.624 103.128 104.714 103.224C104.805 103.314 104.85 103.427 104.85 103.563C104.85 103.699 104.802 103.814 104.707 103.91C104.616 104 104.503 104.045 104.367 104.045Z" fill="white"/>
<defs>
<filter id="filter0_d" x="14.9574" y="53.9574" width="117.085" height="199.085" filterUnits="userSpaceOnUse" color-interpolation-filters="sRGB">
<feFlood flood-opacity="0" result="BackgroundImageFix"/>
<feColorMatrix in="SourceAlpha" type="matrix" values="0 0 0 0 0 0 0 0 0 0 0 0 0 0 0 0 0 0 127 0"/>
<feOffset dy="4"/>
<feGaussianBlur stdDeviation="4.52129"/>
<feColorMatrix type="matrix" values="0 0 0 0 0.214753 0 0 0 0 0.00629279 0 0 0 0 0.28821 0 0 0 0.29 0"/>
<feBlend mode="normal" in2="BackgroundImageFix" result="effect1_dropShadow"/>
<feBlend mode="normal" in="SourceGraphic" in2="effect1_dropShadow" result="shape"/>
</filter>
<clipPath id="clip0">
<rect width="116" height="213" fill="white" transform="translate(15 46)"/>
</clipPath>
</defs>
</svg>
