<svg width="148" height="297" viewBox="0 0 148 297" fill="none" xmlns="http://www.w3.org/2000/svg">
<rect x="147.68" y="296.592" width="147.211" height="296.515" rx="9.54155" transform="rotate(-179.97 147.68 296.592)" fill="white"/>
<rect x="141.418" y="261.705" width="134.653" height="235.119" rx="6.97682" transform="rotate(-179.97 141.418 261.705)" fill="#F7F7F7"/>
<g opacity="0.5" clip-path="url(#clip0)">
<path d="M34.5352 183.208L41.6501 179.107L48.8047 183.208L41.6976 187.309L34.5352 183.208Z" fill="#C69BD5"/>
<path d="M41.6959 187.31L48.803 183.209L48.7555 199.533L41.6484 203.634L41.6959 187.31Z" fill="#A059BA"/>
<path d="M34.5589 175.046L41.6739 170.945L41.6501 179.107L34.5352 183.208L34.5589 175.046Z" fill="#A059BA"/>
<path d="M27.4023 170.946L34.5173 166.846L41.6718 170.946L34.5569 175.047L27.4023 170.946Z" fill="#C69BD5"/>
<path d="M34.5575 175.046L34.5337 183.208L41.6962 187.309L41.6487 203.633L34.4942 199.532L34.5179 191.37L27.3555 187.269L27.403 170.945L34.5575 175.046Z" fill="#BC8ACE"/>
<path d="M20.202 212.466L13.095 208.365L13 175.717L20.107 179.817L20.202 212.466Z" fill="#D3B1DE"/>
<path d="M20.107 179.817L13 175.716L20.1545 171.615L27.2695 175.716L20.107 179.817Z" fill="#E2CCEA"/>
<path d="M27.2679 175.717L27.355 208.365L20.2004 212.466L20.1055 179.817L27.2679 175.717Z" fill="#B57EC9"/>
<path d="M89.3973 104.386L82.2824 100.285L82.1953 67.6367L89.3023 71.7374L89.3973 104.386Z" fill="#D3B1DE"/>
<path d="M89.3023 71.7365L82.1953 67.6358L89.3498 63.5352L96.4568 67.6358L89.3023 71.7365Z" fill="#E2CCEA"/>
<path d="M96.4553 67.6367L96.5503 100.285L89.3958 104.386L89.3008 71.7374L96.4553 67.6367Z" fill="#B57EC9"/>
<path d="M48.8284 137.136L55.9354 133.035L55.9117 141.197L48.8047 145.298L48.8284 137.136Z" fill="#740B99"/>
<path d="M41.6953 124.872L48.8024 120.771L55.9569 124.872L48.8498 128.973L41.6953 124.872Z" fill="#B47BC8"/>
<path d="M56.028 124.913L63.1429 120.812L63.0954 137.137L55.9805 141.237L56.028 124.913Z" fill="#740B99"/>
<path d="M48.875 120.812L55.982 116.711L63.1445 120.812L56.0295 124.912L48.875 120.812Z" fill="#B47BC8"/>
<path d="M56.0287 124.913L55.9812 141.237L48.8267 137.137L48.803 145.299L41.6484 141.198L41.6959 124.874L48.8505 128.975L48.8742 120.812L56.0287 124.913Z" fill="#8223A3"/>
<path d="M85.5355 168.864L92.6504 164.764L92.6267 172.926L85.5117 177.026L85.5355 168.864Z" fill="#740B99"/>
<path d="M78.4023 156.603L85.5094 152.502L92.6638 156.603L85.5568 160.703L78.4023 156.603Z" fill="#B47BC8"/>
<path d="M92.735 156.642L99.85 152.541L99.8025 168.865L92.6875 172.966L92.735 156.642Z" fill="#740B99"/>
<path d="M85.582 152.54L92.6891 148.439L99.8515 152.54L92.7366 156.641L85.582 152.54Z" fill="#B47BC8"/>
<path d="M92.7357 156.642L92.6882 172.966L85.5337 168.865L85.51 177.027L78.3555 172.926L78.403 156.602L85.5574 160.703L85.5812 152.541L92.7357 156.642Z" fill="#8223A3"/>
<path d="M27.3555 216.134L34.4704 212.025L41.625 216.134L34.5179 220.235L27.3555 216.134Z" fill="#C091D1"/>
<path d="M34.5198 220.233L41.6269 216.133L41.6031 224.287L34.4961 228.396L34.5198 220.233Z" fill="#E6D3ED"/>
<path d="M27.3792 207.964L34.4942 203.863L34.4704 212.025L27.3555 216.134L27.3792 207.964Z" fill="#C091D1"/>
<path d="M20.2266 203.862L27.3336 199.762L34.4961 203.862L27.3811 207.963L20.2266 203.862Z" fill="#F0E4F4"/>
<path d="M27.38 207.964L27.3563 216.134L34.5187 220.235L34.495 228.397L13.0234 216.087L13.0472 207.925L20.2017 212.025L20.2255 203.863L27.38 207.964Z" fill="#EADAF0"/>
<path d="M41.5703 158.644L48.6774 154.543L55.8398 158.644L48.7248 162.744L41.5703 158.644Z" fill="#AD6FC3"/>
<path d="M55.8789 166.847L62.9939 162.746L70.1484 166.847L63.0414 170.947L55.8789 166.847Z" fill="#D7B8E1"/>
<path d="M63.0433 170.946L70.1503 166.846L70.1266 175.008L63.0195 179.108L63.0433 170.946Z" fill="#8D37AB"/>
<path d="M55.9026 158.685L63.0176 154.584L62.9939 162.746L55.8789 166.847L55.9026 158.685Z" fill="#A35EBC"/>
<path d="M48.75 154.583L55.8571 150.482L63.0195 154.583L55.9046 158.684L48.75 154.583Z" fill="#D7B8E1"/>
<path d="M55.9034 158.685L55.8797 166.847L63.0421 170.947L63.0184 179.109L41.5469 166.807L41.5706 158.645L48.7251 162.746L48.7489 154.584L55.9034 158.685Z" fill="#BC8ACE"/>
<path d="M78.3633 119.829L85.4783 115.729L92.6329 119.829L85.5258 123.93L78.3633 119.829Z" fill="#AD6FC3"/>
<path d="M92.6797 128.03L99.7868 123.93L106.941 128.03L99.8343 132.131L92.6797 128.03Z" fill="#D7B8E1"/>
<path d="M99.8362 132.132L106.943 128.031L106.927 136.193L99.8125 140.294L99.8362 132.132Z" fill="#8D37AB"/>
<path d="M92.7034 119.87L99.8104 115.77L99.7867 123.932L92.6797 128.032L92.7034 119.87Z" fill="#A35EBC"/>
<path d="M85.5508 115.769L92.6579 111.668L99.8124 115.769L92.7053 119.869L85.5508 115.769Z" fill="#D7B8E1"/>
<path d="M92.7042 119.87L92.6805 128.032L99.835 132.133L99.8113 140.295L78.3477 127.993L78.3635 119.831L85.5259 123.932L85.5497 115.77L92.7042 119.87Z" fill="#BC8ACE"/>
<path d="M48.8522 220.273L55.9593 216.172L55.9118 232.496L48.8047 236.597L48.8522 220.273Z" fill="#7B179E"/>
<path d="M34.5352 212.064L41.6501 207.963L55.9592 216.172L48.8521 220.273L34.5352 212.064Z" fill="#B47BC8"/>
<path d="M48.8527 220.274L48.8052 236.598L34.4961 228.396L34.5357 212.064L48.8527 220.274Z" fill="#8223A3"/>
<path d="M121.868 92.9874L128.975 88.8867L128.927 105.211L121.82 109.312L121.868 92.9874Z" fill="#740B99"/>
<path d="M107.559 84.7862L114.666 80.6855L128.975 88.8869L121.868 92.9876L107.559 84.7862Z" fill="#B47BC8"/>
<path d="M121.868 92.9885L121.821 109.313L107.512 101.111L107.559 84.7871L121.868 92.9885Z" fill="#8223A3"/>
<path d="M55.9925 224.366L63.1075 220.266L63.0837 228.428L55.9688 232.528L55.9925 224.366Z" fill="#A059BA"/>
<path d="M48.8359 220.265L55.943 216.164L63.1054 220.265L55.9905 224.365L48.8359 220.265Z" fill="#C69BD5"/>
<path d="M70.2855 240.73L77.3926 236.629L77.3688 244.791L70.2617 248.892L70.2855 240.73Z" fill="#7B179E"/>
<path d="M55.9688 232.528L63.0837 228.428L77.3928 236.629L70.2858 240.73L55.9688 232.528Z" fill="#A059BA"/>
<path d="M55.9911 224.366L55.9673 232.528L70.2843 240.73L70.2606 248.892L48.7891 236.59L48.8128 228.428L48.8365 220.266L55.9911 224.366Z" fill="#BC8ACE"/>
<path d="M106.313 48.2022L113.428 44.1016L113.404 52.2636L106.289 56.3643L106.313 48.2022Z" fill="#A059BA"/>
<path d="M99.1562 44.1007L106.263 40L113.426 44.1007L106.311 48.2014L99.1562 44.1007Z" fill="#C69BD5"/>
<path d="M120.606 64.5655L127.713 60.4648L127.689 68.6269L120.582 72.7276L120.606 64.5655Z" fill="#8528A5"/>
<path d="M106.289 56.3624L113.404 52.2617L127.713 60.4631L120.606 64.5638L106.289 56.3624Z" fill="#A059BA"/>
<path d="M106.311 48.2022L106.288 56.3643L120.605 64.5657L120.581 72.7278L99.1094 60.4257L99.1331 52.2637L99.1569 44.1016L106.311 48.2022Z" fill="#BC8ACE"/>
<path d="M55.8711 199.878L62.9781 195.777L70.1327 199.878L63.0256 203.979L55.8711 199.878Z" fill="#C091D1"/>
<path d="M70.2275 191.757L77.3424 187.656L77.2712 212.143L70.1562 216.243L70.2275 191.757Z" fill="#C091D1"/>
<path d="M63.0742 187.655L70.1813 183.555L77.3437 187.655L70.2287 191.756L63.0742 187.655Z" fill="#F0E4F4"/>
<path d="M70.2279 191.757L70.1567 216.243L63.0022 212.143L55.8477 208.042L55.8714 199.88L63.0259 203.98L63.0734 187.656L70.2279 191.757Z" fill="#EADAF0"/>
<path d="M107.535 144.3L114.642 140.199L121.797 144.3L114.69 148.401L107.535 144.3Z" fill="#C091D1"/>
<path d="M121.892 136.179L128.999 132.078L128.927 156.564L121.82 160.665L121.892 136.179Z" fill="#C091D1"/>
<path d="M114.738 132.077L121.845 127.977L129 132.077L121.893 136.178L114.738 132.077Z" fill="#F0E4F4"/>
<path d="M121.892 136.179L121.821 160.665L114.666 156.564L107.512 152.464L107.535 144.302L114.69 148.402L114.737 132.078L121.892 136.179Z" fill="#EADAF0"/>
<path d="M77.3583 253.001L70.2512 248.893L70.1562 216.244L77.2712 220.345L77.3583 253.001Z" fill="#BC8ACE"/>
<path d="M77.2712 220.344L70.1562 216.243L77.2712 212.143L84.4258 216.243L77.2712 220.344Z" fill="#D7B8E1"/>
<path d="M84.4242 216.244L84.5192 248.893L77.3566 253.001L77.2695 220.345L84.4242 216.244Z" fill="#A35EBC"/>
</g>
<g style="mix-blend-mode:hard-light">
<path d="M29.3906 146.79L34.5719 143.779L39.7867 146.79L34.606 149.801L29.3906 146.79Z" fill="#C589EF"/>
<path d="M34.6082 149.802L39.789 146.791L39.7549 158.775L34.5742 161.786L34.6082 149.802Z" fill="#9E78B8"/>
<path d="M29.4079 140.798L34.5887 137.787L34.5719 143.779L29.3906 146.79L29.4079 140.798Z" fill="#9E78B8"/>
<path d="M24.1953 137.788L29.3766 134.777L34.5908 137.788L29.4101 140.799L24.1953 137.788Z" fill="#C589EF"/>
<path d="M29.4089 140.798L29.3916 146.79L34.607 149.801L34.5729 161.786L29.3582 158.775L29.3749 152.783L24.1602 149.772L24.1942 137.787L29.4089 140.798Z" fill="#B212E4"/>
<path d="M37.9168 196.723L32.736 193.711L32.668 169.742L37.8487 172.753L37.9168 196.723Z" fill="#66E5EB"/>
<path d="M37.8487 172.754L32.668 169.743L37.8827 166.732L43.0635 169.744L37.8487 172.754Z" fill="#99EEF1"/>
<path d="M43.0624 169.744L43.1305 193.713L37.9157 196.724L37.8477 172.755L43.0624 169.744Z" fill="#00D4DD"/>
<path d="M97.2996 149.65L92.1188 146.639L92.0508 122.67L97.2321 125.681L97.2996 149.65Z" fill="#66E5EB"/>
<path d="M97.2321 125.682L92.0508 122.671L97.2655 119.66L102.446 122.671L97.2321 125.682Z" fill="#99EEF1"/>
<path d="M102.445 122.67L102.513 146.639L97.2979 149.65L97.2305 125.681L102.445 122.67Z" fill="#00D4DD"/>
<path d="M68.2595 93.9955L73.4402 90.9844L73.4235 96.9766L68.2422 99.9876L68.2595 93.9955Z" fill="#B10024"/>
<path d="M63.0625 84.9935L68.2438 81.9824L73.4586 84.9929L68.2773 88.004L63.0625 84.9935Z" fill="#F46683"/>
<path d="M73.5067 85.0209L78.6874 82.0098L78.654 93.9947L73.4727 97.0052L73.5067 85.0209Z" fill="#B10024"/>
<path d="M68.293 82.0105L73.4737 79L78.6885 82.0105L73.5077 85.0216L68.293 82.0105Z" fill="#F46683"/>
<path d="M73.5082 85.0209L73.4742 97.0052L68.2594 93.9947L68.2421 99.9869L63.0273 96.9764L63.0614 84.992L68.2761 88.0025L68.2934 82.0098L73.5082 85.0209Z" fill="#EC0030"/>
<path d="M94.4894 206.472L99.6701 203.461L99.6534 209.454L94.4727 212.464L94.4894 206.472Z" fill="#9880C7"/>
<path d="M89.293 197.47L94.4737 194.459L99.6885 197.47L94.5071 200.481L89.293 197.47Z" fill="#BE90DB"/>
<path d="M99.7372 197.499L104.918 194.488L104.884 206.473L99.7031 209.484L99.7372 197.499Z" fill="#9880C7"/>
<path d="M94.5234 194.488L99.7042 191.477L104.919 194.488L99.7382 197.498L94.5234 194.488Z" fill="#BE90DB"/>
<path d="M99.7381 197.499L99.7041 209.484L94.4893 206.473L94.4726 212.465L89.2578 209.454L89.2918 197.47L94.506 200.48L94.5233 194.488L99.7381 197.499Z" fill="#B256F3"/>
<path d="M43.1289 199.415L48.3096 196.404L53.525 199.415L48.3437 202.426L43.1289 199.415Z" fill="#BFB40E"/>
<path d="M48.3449 202.425L53.5262 199.414L53.5089 205.406L48.3281 208.417L48.3449 202.425Z" fill="#FFF012"/>
<path d="M43.1456 193.421L48.3269 190.41L48.3096 196.403L43.1289 199.413L43.1456 193.421Z" fill="#BFB40E"/>
<path d="M37.9336 190.411L43.1143 187.4L48.3291 190.411L43.1478 193.422L37.9336 190.411Z" fill="#FFF671"/>
<path d="M43.1471 193.421L43.1304 199.413L48.3452 202.425L48.3284 208.416L32.6836 199.384L32.7009 193.392L37.9157 196.403L37.933 190.41L43.1471 193.421Z" fill="#FCEF4F"/>
<path d="M44 128.757L49.1813 125.746L54.3961 128.757L49.2153 131.768L44 128.757Z" fill="#19BFA9"/>
<path d="M54.4297 134.778L59.6104 131.768L64.8257 134.778L59.6444 137.789L54.4297 134.778Z" fill="#66F1DF"/>
<path d="M59.6456 137.788L64.8269 134.777L64.8096 140.77L59.6289 143.78L59.6456 137.788Z" fill="#048674"/>
<path d="M54.4464 128.785L59.6277 125.773L59.6104 131.766L54.4297 134.777L54.4464 128.785Z" fill="#369E90"/>
<path d="M49.2344 125.774L54.4157 122.764L59.6304 125.774L54.4491 128.785L49.2344 125.774Z" fill="#66F1DF"/>
<path d="M54.4479 128.785L54.4312 134.777L59.6459 137.788L59.6292 143.779L43.9844 134.747L44.0011 128.755L49.2164 131.766L49.2332 125.773L54.4479 128.785Z" fill="#00E8CA"/>
<path d="M98.75 151.503L103.931 148.492L109.146 151.503L103.965 154.514L98.75 151.503Z" fill="#19BFA9"/>
<path d="M109.18 157.525L114.361 154.514L119.576 157.525L114.395 160.535L109.18 157.525Z" fill="#66F1DF"/>
<path d="M114.396 160.534L119.577 157.523L119.56 163.516L114.379 166.526L114.396 160.534Z" fill="#048674"/>
<path d="M109.197 151.532L114.378 148.521L114.361 154.514L109.18 157.525L109.197 151.532Z" fill="#369E90"/>
<path d="M103.984 148.521L109.165 145.51L114.38 148.521L109.199 151.531L103.984 148.521Z" fill="#66F1DF"/>
<path d="M109.198 151.532L109.181 157.525L114.396 160.535L114.379 166.527L98.7344 157.495L98.7511 151.503L103.966 154.514L103.983 148.521L109.198 151.532Z" fill="#00E8CA"/>
<path d="M58.7918 202.454L63.9726 199.443L63.9385 211.428L58.7578 214.438L58.7918 202.454Z" fill="#B6006C"/>
<path d="M48.3633 196.433L53.544 193.422L63.9741 199.444L58.7934 202.455L48.3633 196.433Z" fill="#F46683"/>
<path d="M58.7922 202.455L58.7582 214.44L48.3281 208.418L48.3622 196.434L58.7922 202.455Z" fill="#EC0030"/>
<path d="M120.964 131.796L126.144 128.785L126.11 140.77L120.93 143.781L120.964 131.796Z" fill="#B10024"/>
<path d="M110.535 125.774L115.716 122.764L126.146 128.785L120.965 131.796L110.535 125.774Z" fill="#F46683"/>
<path d="M120.964 131.796L120.93 143.78L110.5 137.758L110.534 125.773L120.964 131.796Z" fill="#EC0030"/>
<path d="M63.9933 205.464L69.174 202.453L69.1573 208.445L63.9766 211.456L63.9933 205.464Z" fill="#00B960"/>
<path d="M58.7812 202.452L63.962 199.441L69.1767 202.452L63.996 205.463L58.7812 202.452Z" fill="#66D5A0"/>
<path d="M74.4079 217.478L79.5887 214.467L79.5719 220.459L74.3906 223.47L74.4079 217.478Z" fill="#B6006C"/>
<path d="M63.9766 211.456L69.1573 208.445L79.5868 214.467L74.4061 217.478L63.9766 211.456Z" fill="#00B960"/>
<path d="M63.9949 205.464L63.9782 211.456L74.4077 217.478L74.3904 223.47L58.7461 214.437L58.7628 208.445L58.7801 202.453L63.9949 205.464Z" fill="#00F780"/>
<path d="M79.2706 88.4851L84.4514 85.4746L84.4346 91.4668L79.2539 94.4779L79.2706 88.4851Z" fill="#00B960"/>
<path d="M74.0586 85.474L79.2393 82.4629L84.4541 85.474L79.2734 88.4845L74.0586 85.474Z" fill="#66D5A0"/>
<path d="M89.6853 100.499L94.866 97.4883L94.8493 103.48L89.668 106.491L89.6853 100.499Z" fill="#007C40"/>
<path d="M79.2539 94.4779L84.4346 91.4668L94.8642 97.4884L89.6834 100.499L79.2539 94.4779Z" fill="#00B960"/>
<path d="M79.2722 88.4851L79.2555 94.4779L89.685 100.499L89.6677 106.491L74.0234 97.459L74.0402 91.4668L74.0575 85.4746L79.2722 88.4851Z" fill="#00F780"/>
<path d="M54.4219 159.031L59.6032 156.02L64.8179 159.031L59.6366 162.041L54.4219 159.031Z" fill="#BFB40E"/>
<path d="M64.8867 153.068L70.068 150.057L70.0167 168.034L64.8359 171.044L64.8867 153.068Z" fill="#BFB40E"/>
<path d="M59.6719 150.056L64.8526 147.045L70.0679 150.056L64.8866 153.067L59.6719 150.056Z" fill="#FFF671"/>
<path d="M64.8865 153.068L64.8358 171.044L59.621 168.034L54.4062 165.023L54.423 159.03L59.6377 162.041L59.6718 150.057L64.8865 153.068Z" fill="#FCEF4F"/>
<path d="M101.031 178.952L106.213 175.941L111.427 178.952L106.246 181.963L101.031 178.952Z" fill="#D56775"/>
<path d="M111.497 172.99L116.677 169.979L116.627 187.955L111.445 190.966L111.497 172.99Z" fill="#D73B24"/>
<path d="M106.281 169.978L111.463 166.967L116.677 169.978L111.497 172.989L106.281 169.978Z" fill="#E03B70"/>
<path d="M111.496 172.99L111.445 190.966L106.23 187.955L101.016 184.945L101.032 178.952L106.247 181.963L106.281 169.979L111.496 172.99Z" fill="#FB9845"/>
<path d="M79.5691 226.48L74.3878 223.469L74.3203 199.5L79.501 202.511L79.5691 226.48Z" fill="#00E8CA"/>
<path d="M79.501 202.51L74.3203 199.499L79.501 196.488L84.7158 199.499L79.501 202.51Z" fill="#66F1DF"/>
<path d="M84.7148 199.5L84.7828 223.469L79.5681 226.48L79.5 202.511L84.7148 199.5Z" fill="#369E90"/>
</g>
<rect x="53.9883" y="17.1211" width="40.8144" height="2.79073" rx="1.39536" transform="rotate(0.0301048 53.9883 17.1211)" fill="#740B99"/>
<circle cx="74.401" cy="11.3753" r="1.56978" transform="rotate(0.0301048 74.401 11.3753)" fill="#740B99"/>
<circle cx="74.0837" cy="278.065" r="10.1164" transform="rotate(0.0301048 74.0837 278.065)" fill="#740B99"/>
<g filter="url(#filter0_d)">
<path d="M22 70C22 64.4772 26.4772 60 32 60H115C120.523 60 125 64.4772 125 70V224C125 229.523 120.523 234 115 234H32C26.4772 234 22 229.523 22 224V70Z" fill="#740B99"/>
</g>
<g filter="url(#filter1_d)">
<rect x="37.2812" y="202" width="74.2342" height="19" rx="2.31579" fill="white"/>
</g>
<path d="M68.2542 209.722C68.9378 209.722 69.4757 209.885 69.8678 210.212C70.2598 210.539 70.4559 210.989 70.4559 211.562C70.4559 212.135 70.2598 212.585 69.8678 212.911C69.4757 213.238 68.9378 213.402 68.2542 213.402H66.9498V215H66.1958V209.722H68.2542ZM68.2316 212.746C68.7091 212.746 69.0735 212.645 69.3249 212.444C69.5762 212.238 69.7019 211.944 69.7019 211.562C69.7019 211.18 69.5762 210.888 69.3249 210.687C69.0735 210.481 68.7091 210.378 68.2316 210.378H66.9498V212.746H68.2316ZM71.5317 209.405H72.2555V215H71.5317V209.405ZM75.0928 210.966C75.6457 210.966 76.068 211.102 76.3595 211.373C76.6561 211.645 76.8044 212.049 76.8044 212.587V215H76.1182V214.472C75.9976 214.658 75.8242 214.801 75.598 214.902C75.3768 214.997 75.1129 215.045 74.8063 215.045C74.3589 215.045 73.9995 214.937 73.7281 214.721C73.4616 214.505 73.3284 214.221 73.3284 213.869C73.3284 213.517 73.4566 213.236 73.713 213.025C73.9693 212.808 74.3765 212.7 74.9345 212.7H76.0805V212.557C76.0805 212.245 75.9901 212.007 75.8091 211.841C75.6281 211.675 75.3617 211.592 75.0099 211.592C74.7736 211.592 74.5424 211.632 74.3162 211.713C74.09 211.788 73.899 211.891 73.7431 212.022L73.4415 211.479C73.6476 211.313 73.8939 211.187 74.1805 211.102C74.467 211.011 74.7711 210.966 75.0928 210.966ZM74.9269 214.487C75.2034 214.487 75.4421 214.427 75.6432 214.306C75.8443 214.181 75.9901 214.005 76.0805 213.779V213.221H74.9646C74.3514 213.221 74.0447 213.427 74.0447 213.839C74.0447 214.04 74.1226 214.198 74.2785 214.314C74.4343 214.429 74.6504 214.487 74.9269 214.487ZM81.6065 211.004L79.6688 215.4C79.4978 215.807 79.2968 216.093 79.0656 216.259C78.8394 216.425 78.5654 216.508 78.2437 216.508C78.0477 216.508 77.8566 216.475 77.6707 216.41C77.4897 216.35 77.3389 216.259 77.2183 216.139L77.5274 215.596C77.7335 215.792 77.9723 215.89 78.2437 215.89C78.4196 215.89 78.5654 215.842 78.681 215.746C78.8017 215.656 78.9097 215.498 79.0052 215.271L79.1334 214.992L77.3691 211.004H78.1231L79.518 214.201L80.8978 211.004H81.6065Z" fill="#740B99"/>
<ellipse cx="114.933" cy="71" rx="3.93278" ry="4" fill="white"/>
<path fill-rule="evenodd" clip-rule="evenodd" d="M114.935 70.7168L115.976 69.6582C116.053 69.5801 116.177 69.5801 116.254 69.6582C116.331 69.7363 116.331 69.8629 116.254 69.941L115.213 70.9996L116.254 72.0582C116.331 72.1363 116.331 72.2629 116.254 72.341C116.177 72.4191 116.053 72.4191 115.976 72.341L114.935 71.2825L113.894 72.341C113.817 72.4191 113.693 72.4191 113.616 72.341C113.539 72.2629 113.539 72.1363 113.616 72.0582L114.657 70.9996L113.616 69.941C113.539 69.8629 113.539 69.7363 113.616 69.6582C113.693 69.5801 113.817 69.5801 113.894 69.6582L114.935 70.7168Z" fill="#740B99"/>
<mask id="mask0" mask-type="alpha" maskUnits="userSpaceOnUse" x="113" y="69" width="4" height="4">
<path fill-rule="evenodd" clip-rule="evenodd" d="M114.935 70.7168L115.976 69.6582C116.053 69.5801 116.177 69.5801 116.254 69.6582C116.331 69.7363 116.331 69.8629 116.254 69.941L115.213 70.9996L116.254 72.0582C116.331 72.1363 116.331 72.2629 116.254 72.341C116.177 72.4191 116.053 72.4191 115.976 72.341L114.935 71.2825L113.894 72.341C113.817 72.4191 113.693 72.4191 113.616 72.341C113.539 72.2629 113.539 72.1363 113.616 72.0582L114.657 70.9996L113.616 69.941C113.539 69.8629 113.539 69.7363 113.616 69.6582C113.693 69.5801 113.817 69.5801 113.894 69.6582L114.935 70.7168Z" fill="white"/>
</mask>
<g mask="url(#mask0)">
<rect x="112.574" y="68.5996" width="4.71934" height="4.8" fill="#740B99"/>
</g>
<rect x="33.4688" y="112.053" width="22.0909" height="22.0909" rx="2.32" fill="white"/>
<path d="M44.5104 127.078C43.8257 127.078 43.2088 126.929 42.6598 126.632C42.1107 126.328 41.6779 125.912 41.3614 125.382C41.0513 124.852 40.8963 124.261 40.8963 123.609C40.8963 122.956 41.0513 122.365 41.3614 121.836C41.6779 121.306 42.1107 120.892 42.6598 120.595C43.2088 120.292 43.8257 120.14 44.5104 120.14C45.1887 120.14 45.8024 120.292 46.3514 120.595C46.9005 120.892 47.3301 121.306 47.6401 121.836C47.9502 122.359 48.1052 122.95 48.1052 123.609C48.1052 124.268 47.9502 124.862 47.6401 125.392C47.3301 125.915 46.9005 126.328 46.3514 126.632C45.8024 126.929 45.1887 127.078 44.5104 127.078ZM44.5104 126.215C45.0078 126.215 45.4536 126.102 45.8476 125.876C46.2481 125.65 46.5614 125.34 46.7875 124.946C47.02 124.545 47.1363 124.1 47.1363 123.609C47.1363 123.118 47.02 122.675 46.7875 122.281C46.5614 121.881 46.2481 121.567 45.8476 121.341C45.4536 121.115 45.0078 121.002 44.5104 121.002C44.0131 121.002 43.5609 121.115 43.1539 121.341C42.7534 121.567 42.4369 121.881 42.2044 122.281C41.9783 122.675 41.8652 123.118 41.8652 123.609C41.8652 124.1 41.9783 124.545 42.2044 124.946C42.4369 125.34 42.7534 125.65 43.1539 125.876C43.5609 126.102 44.0131 126.215 44.5104 126.215Z" fill="#740B99"/>
<rect x="62.9219" y="112.053" width="22.0909" height="22.0909" rx="2.32" fill="white"/>
<rect x="92.375" y="112.053" width="22.0909" height="22.0909" rx="2.32" fill="white"/>
<rect x="33.4688" y="140.455" width="22.0909" height="22.0909" rx="2.32" fill="white"/>
<rect x="62.9219" y="140.455" width="22.0909" height="22.0909" rx="2.32" fill="white"/>
<rect x="92.375" y="140.455" width="22.0909" height="22.0909" rx="2.32" fill="white"/>
<rect x="33.4688" y="168.857" width="22.0909" height="22.0909" rx="2.32" fill="white"/>
<path fill-rule="evenodd" clip-rule="evenodd" d="M103.642 151.061L106.13 148.531C106.313 148.344 106.611 148.344 106.794 148.531C106.978 148.717 106.978 149.02 106.794 149.207L104.307 151.737L106.794 154.267C106.978 154.454 106.978 154.757 106.794 154.944C106.611 155.13 106.313 155.13 106.13 154.944L103.642 152.413L101.154 154.944C100.97 155.13 100.673 155.13 100.489 154.944C100.306 154.757 100.306 154.454 100.489 154.267L102.977 151.737L100.489 149.207C100.306 149.02 100.306 148.717 100.489 148.531C100.673 148.344 100.97 148.344 101.154 148.531L103.642 151.061Z" fill="#740B99"/>
<mask id="mask1" mask-type="alpha" maskUnits="userSpaceOnUse" x="100" y="148" width="7" height="8">
<path fill-rule="evenodd" clip-rule="evenodd" d="M103.642 151.061L106.13 148.531C106.313 148.344 106.611 148.344 106.794 148.531C106.978 148.717 106.978 149.02 106.794 149.207L104.307 151.737L106.794 154.267C106.978 154.454 106.978 154.757 106.794 154.944C106.611 155.13 106.313 155.13 106.13 154.944L103.642 152.413L101.154 154.944C100.97 155.13 100.673 155.13 100.489 154.944C100.306 154.757 100.306 154.454 100.489 154.267L102.977 151.737L100.489 149.207C100.306 149.02 100.306 148.717 100.489 148.531C100.673 148.344 100.97 148.344 101.154 148.531L103.642 151.061Z" fill="white"/>
</mask>
<g mask="url(#mask1)">
<rect x="98" y="146" width="11.2808" height="11.4736" fill="#740B99"/>
</g>
<path fill-rule="evenodd" clip-rule="evenodd" d="M73.5013 150.851L75.9272 148.425C76.1062 148.246 76.3964 148.246 76.5754 148.425C76.7544 148.604 76.7544 148.894 76.5754 149.073L74.1495 151.499L76.5754 153.925C76.7544 154.104 76.7544 154.394 76.5754 154.573C76.3964 154.752 76.1062 154.752 75.9272 154.573L73.5013 152.148L71.0754 154.573C70.8964 154.752 70.6062 154.752 70.4272 154.573C70.2482 154.394 70.2482 154.104 70.4272 153.925L72.8531 151.499L70.4272 149.073C70.2482 148.894 70.2482 148.604 70.4272 148.425C70.6062 148.246 70.8964 148.246 71.0754 148.425L73.5013 150.851Z" fill="#740B99"/>
<mask id="mask2" mask-type="alpha" maskUnits="userSpaceOnUse" x="70" y="148" width="7" height="7">
<path fill-rule="evenodd" clip-rule="evenodd" d="M73.5013 150.851L75.9272 148.425C76.1062 148.246 76.3964 148.246 76.5754 148.425C76.7544 148.604 76.7544 148.894 76.5754 149.073L74.1495 151.499L76.5754 153.925C76.7544 154.104 76.7544 154.394 76.5754 154.573C76.3964 154.752 76.1062 154.752 75.9272 154.573L73.5013 152.148L71.0754 154.573C70.8964 154.752 70.6062 154.752 70.4272 154.573C70.2482 154.394 70.2482 154.104 70.4272 153.925L72.8531 151.499L70.4272 149.073C70.2482 148.894 70.2482 148.604 70.4272 148.425C70.6062 148.246 70.8964 148.246 71.0754 148.425L73.5013 150.851Z" fill="white"/>
</mask>
<g mask="url(#mask2)">
<rect x="67" y="146" width="11" height="11" fill="#740B99"/>
</g>
<path fill-rule="evenodd" clip-rule="evenodd" d="M73.5013 122.851L75.9272 120.425C76.1062 120.246 76.3964 120.246 76.5754 120.425C76.7544 120.604 76.7544 120.894 76.5754 121.073L74.1495 123.499L76.5754 125.925C76.7544 126.104 76.7544 126.394 76.5754 126.573C76.3964 126.752 76.1062 126.752 75.9272 126.573L73.5013 124.148L71.0754 126.573C70.8964 126.752 70.6062 126.752 70.4272 126.573C70.2482 126.394 70.2482 126.104 70.4272 125.925L72.8531 123.499L70.4272 121.073C70.2482 120.894 70.2482 120.604 70.4272 120.425C70.6062 120.246 70.8964 120.246 71.0754 120.425L73.5013 122.851Z" fill="#740B99"/>
<mask id="mask3" mask-type="alpha" maskUnits="userSpaceOnUse" x="70" y="120" width="7" height="7">
<path fill-rule="evenodd" clip-rule="evenodd" d="M73.5013 122.851L75.9272 120.425C76.1062 120.246 76.3964 120.246 76.5754 120.425C76.7544 120.604 76.7544 120.894 76.5754 121.073L74.1495 123.499L76.5754 125.925C76.7544 126.104 76.7544 126.394 76.5754 126.573C76.3964 126.752 76.1062 126.752 75.9272 126.573L73.5013 124.148L71.0754 126.573C70.8964 126.752 70.6062 126.752 70.4272 126.573C70.2482 126.394 70.2482 126.104 70.4272 125.925L72.8531 123.499L70.4272 121.073C70.2482 120.894 70.2482 120.604 70.4272 120.425C70.6062 120.246 70.8964 120.246 71.0754 120.425L73.5013 122.851Z" fill="white"/>
</mask>
<g mask="url(#mask3)">
<rect x="67" y="118" width="11" height="11" fill="#740B99"/>
</g>
<path fill-rule="evenodd" clip-rule="evenodd" d="M44.5013 179.851L46.9272 177.425C47.1062 177.246 47.3964 177.246 47.5754 177.425C47.7544 177.604 47.7544 177.894 47.5754 178.073L45.1495 180.499L47.5754 182.925C47.7544 183.104 47.7544 183.394 47.5754 183.573C47.3964 183.752 47.1062 183.752 46.9272 183.573L44.5013 181.148L42.0754 183.573C41.8964 183.752 41.6062 183.752 41.4272 183.573C41.2482 183.394 41.2482 183.104 41.4272 182.925L43.8531 180.499L41.4272 178.073C41.2482 177.894 41.2482 177.604 41.4272 177.425C41.6062 177.246 41.8964 177.246 42.0754 177.425L44.5013 179.851Z" fill="#740B99"/>
<mask id="mask4" mask-type="alpha" maskUnits="userSpaceOnUse" x="41" y="177" width="7" height="7">
<path fill-rule="evenodd" clip-rule="evenodd" d="M44.5013 179.851L46.9272 177.425C47.1062 177.246 47.3964 177.246 47.5754 177.425C47.7544 177.604 47.7544 177.894 47.5754 178.073L45.1495 180.499L47.5754 182.925C47.7544 183.104 47.7544 183.394 47.5754 183.573C47.3964 183.752 47.1062 183.752 46.9272 183.573L44.5013 181.148L42.0754 183.573C41.8964 183.752 41.6062 183.752 41.4272 183.573C41.2482 183.394 41.2482 183.104 41.4272 182.925L43.8531 180.499L41.4272 178.073C41.2482 177.894 41.2482 177.604 41.4272 177.425C41.6062 177.246 41.8964 177.246 42.0754 177.425L44.5013 179.851Z" fill="white"/>
</mask>
<g mask="url(#mask4)">
<rect x="38" y="175" width="11" height="11" fill="#740B99"/>
</g>
<rect x="62.9219" y="168.857" width="22.0909" height="22.0909" rx="2.32" fill="white"/>
<rect x="92.375" y="168.857" width="22.0909" height="22.0909" rx="2.32" fill="white"/>
<path d="M103.51 184.078C102.826 184.078 102.209 183.929 101.66 183.632C101.111 183.328 100.678 182.912 100.361 182.382C100.051 181.852 99.8963 181.261 99.8963 180.609C99.8963 179.956 100.051 179.365 100.361 178.836C100.678 178.306 101.111 177.892 101.66 177.595C102.209 177.292 102.826 177.14 103.51 177.14C104.189 177.14 104.802 177.292 105.351 177.595C105.901 177.892 106.33 178.306 106.64 178.836C106.95 179.359 107.105 179.95 107.105 180.609C107.105 181.268 106.95 181.862 106.64 182.392C106.33 182.915 105.901 183.328 105.351 183.632C104.802 183.929 104.189 184.078 103.51 184.078ZM103.51 183.215C104.008 183.215 104.454 183.102 104.848 182.876C105.248 182.65 105.561 182.34 105.787 181.946C106.02 181.545 106.136 181.1 106.136 180.609C106.136 180.118 106.02 179.675 105.787 179.281C105.561 178.881 105.248 178.567 104.848 178.341C104.454 178.115 104.008 178.002 103.51 178.002C103.013 178.002 102.561 178.115 102.154 178.341C101.753 178.567 101.437 178.881 101.204 179.281C100.978 179.675 100.865 180.118 100.865 180.609C100.865 181.1 100.978 181.545 101.204 181.946C101.437 182.34 101.753 182.65 102.154 182.876C102.561 183.102 103.013 183.215 103.51 183.215Z" fill="#740B99"/>
<path d="M52.3674 82.3047C53.0507 82.3047 53.5883 82.468 53.9802 82.7946C54.3721 83.1211 54.568 83.5708 54.568 84.1436C54.568 84.7163 54.3721 85.166 53.9802 85.4925C53.5883 85.8191 53.0507 85.9824 52.3674 85.9824H51.0637V87.5801H50.31V82.3047H52.3674ZM52.3448 85.3267C52.8221 85.3267 53.1864 85.2263 53.4376 85.0253C53.6888 84.8193 53.8144 84.5254 53.8144 84.1436C53.8144 83.7617 53.6888 83.4703 53.4376 83.2694C53.1864 83.0634 52.8221 82.9604 52.3448 82.9604H51.0637V85.3267H52.3448ZM55.6433 81.9882H56.3668V87.5801H55.6433V81.9882ZM59.2026 83.5482C59.7553 83.5482 60.1773 83.6838 60.4687 83.9552C60.7651 84.2265 60.9133 84.6309 60.9133 85.1685V87.5801H60.2275V87.0525C60.107 87.2384 59.9336 87.3816 59.7075 87.4821C59.4865 87.5776 59.2227 87.6253 58.9162 87.6253C58.4691 87.6253 58.1099 87.5173 57.8386 87.3012C57.5723 87.0852 57.4391 86.8013 57.4391 86.4496C57.4391 86.098 57.5673 85.8166 57.8235 85.6056C58.0797 85.3895 58.4867 85.2815 59.0444 85.2815H60.1899V85.1383C60.1899 84.8268 60.0994 84.5882 59.9186 84.4224C59.7377 84.2566 59.4714 84.1737 59.1197 84.1737C58.8836 84.1737 58.6525 84.2139 58.4264 84.2943C58.2003 84.3696 58.0094 84.4726 57.8536 84.6033L57.5522 84.0607C57.7582 83.8949 58.0044 83.7693 58.2907 83.6838C58.5771 83.5934 58.8811 83.5482 59.2026 83.5482ZM59.0368 87.0676C59.3131 87.0676 59.5518 87.0073 59.7528 86.8867C59.9537 86.7611 60.0994 86.5853 60.1899 86.3592V85.8015H59.0745C58.4616 85.8015 58.1551 86.0075 58.1551 86.4195C58.1551 86.6205 58.233 86.7787 58.3887 86.8943C58.5445 87.0098 58.7605 87.0676 59.0368 87.0676ZM65.7131 83.5859L63.7763 87.9795C63.6055 88.3865 63.4045 88.6728 63.1734 88.8386C62.9473 89.0044 62.6735 89.0873 62.3519 89.0873C62.156 89.0873 61.9651 89.0547 61.7792 88.9894C61.5983 88.9291 61.4476 88.8386 61.327 88.718L61.636 88.1754C61.842 88.3714 62.0806 88.4694 62.3519 88.4694C62.5278 88.4694 62.6735 88.4216 62.789 88.3262C62.9096 88.2357 63.0176 88.0775 63.1131 87.8514L63.2412 87.5725L61.4777 83.5859H62.2314L63.6256 86.7812L65.0047 83.5859H65.7131ZM69.8667 83.5482C70.4193 83.5482 70.8414 83.6838 71.1328 83.9552C71.4292 84.2265 71.5774 84.6309 71.5774 85.1685V87.5801H70.8916V87.0525C70.771 87.2384 70.5977 87.3816 70.3716 87.4821C70.1505 87.5776 69.8868 87.6253 69.5803 87.6253C69.1332 87.6253 68.7739 87.5173 68.5026 87.3012C68.2363 87.0852 68.1032 86.8013 68.1032 86.4496C68.1032 86.098 68.2313 85.8166 68.4876 85.6056C68.7438 85.3895 69.1507 85.2815 69.7084 85.2815H70.8539V85.1383C70.8539 84.8268 70.7635 84.5882 70.5826 84.4224C70.4018 84.2566 70.1355 84.1737 69.7838 84.1737C69.5476 84.1737 69.3165 84.2139 69.0904 84.2943C68.8644 84.3696 68.6734 84.4726 68.5177 84.6033L68.2162 84.0607C68.4222 83.8949 68.6684 83.7693 68.9548 83.6838C69.2412 83.5934 69.5451 83.5482 69.8667 83.5482ZM69.7009 87.0676C69.9772 87.0676 70.2159 87.0073 70.4168 86.8867C70.6178 86.7611 70.7635 86.5853 70.8539 86.3592V85.8015H69.7386C69.1256 85.8015 68.8191 86.0075 68.8191 86.4195C68.8191 86.6205 68.897 86.7787 69.0528 86.8943C69.2085 87.0098 69.4246 87.0676 69.7009 87.0676ZM75.049 83.5482C75.5565 83.5482 75.9584 83.6964 76.2548 83.9928C76.5563 84.2842 76.707 84.7138 76.707 85.2815V87.5801H75.9835V85.3644C75.9835 84.9776 75.8906 84.6862 75.7047 84.4902C75.5188 84.2943 75.2525 84.1963 74.9058 84.1963C74.5139 84.1963 74.205 84.3119 73.9789 84.543C73.7528 84.7691 73.6397 85.0956 73.6397 85.5227V87.5801H72.9163V83.5859H73.6096V84.1888C73.7553 83.9828 73.9512 83.8245 74.1974 83.714C74.4486 83.6035 74.7325 83.5482 75.049 83.5482ZM81.8361 81.9882V87.5801H81.1428V86.947C80.982 87.1681 80.7785 87.3364 80.5323 87.452C80.2861 87.5675 80.0148 87.6253 79.7184 87.6253C79.3316 87.6253 78.9849 87.5399 78.6784 87.3691C78.3719 87.1982 78.1308 86.9596 77.9549 86.6531C77.7841 86.3416 77.6987 85.9849 77.6987 85.583C77.6987 85.181 77.7841 84.8268 77.9549 84.5204C78.1308 84.2139 78.3719 83.9752 78.6784 83.8044C78.9849 83.6336 79.3316 83.5482 79.7184 83.5482C80.0048 83.5482 80.2686 83.6035 80.5097 83.714C80.7509 83.8195 80.9518 83.9778 81.1126 84.1888V81.9882H81.8361ZM79.7787 86.9923C80.0299 86.9923 80.2585 86.9345 80.4645 86.8189C80.6705 86.6983 80.8313 86.5325 80.9468 86.3215C81.0624 86.1055 81.1202 85.8593 81.1202 85.583C81.1202 85.3066 81.0624 85.063 80.9468 84.852C80.8313 84.6359 80.6705 84.4701 80.4645 84.3546C80.2585 84.239 80.0299 84.1812 79.7787 84.1812C79.5225 84.1812 79.2914 84.239 79.0854 84.3546C78.8844 84.4701 78.7236 84.6359 78.6031 84.852C78.4875 85.063 78.4297 85.3066 78.4297 85.583C78.4297 85.8593 78.4875 86.1055 78.6031 86.3215C78.7236 86.5325 78.8844 86.6983 79.0854 86.8189C79.2914 86.9345 79.5225 86.9923 79.7787 86.9923ZM89.0498 83.5859V87.0375C89.0498 87.7358 88.8764 88.2508 88.5298 88.5824C88.1831 88.919 87.6656 89.0873 86.9773 89.0873C86.6005 89.0873 86.2412 89.0346 85.8996 88.9291C85.558 88.8286 85.2816 88.6829 85.0706 88.492L85.4173 87.9343C85.6032 88.0951 85.8318 88.2207 86.1031 88.3111C86.3794 88.4066 86.6633 88.4543 86.9547 88.4543C87.4219 88.4543 87.7661 88.3437 87.9871 88.1227C88.2132 87.9016 88.3263 87.565 88.3263 87.1128V86.7963C88.1555 87.0023 87.9444 87.158 87.6932 87.2636C87.447 87.364 87.1783 87.4143 86.8869 87.4143C86.505 87.4143 86.1583 87.3339 85.8469 87.1731C85.5404 87.0073 85.2992 86.7787 85.1234 86.4873C84.9475 86.1909 84.8596 85.8543 84.8596 85.4775C84.8596 85.1007 84.9475 84.7666 85.1234 84.4752C85.2992 84.1787 85.5404 83.9501 85.8469 83.7894C86.1583 83.6286 86.505 83.5482 86.8869 83.5482C87.1883 83.5482 87.4671 83.6035 87.7234 83.714C87.9846 83.8245 88.1982 83.9878 88.364 84.2038V83.5859H89.0498ZM86.9698 86.7812C87.231 86.7812 87.4646 86.726 87.6706 86.6154C87.8816 86.5049 88.0449 86.3517 88.1605 86.1557C88.2811 85.9548 88.3413 85.7287 88.3413 85.4775C88.3413 85.0906 88.2132 84.7791 87.957 84.543C87.7008 84.3018 87.3717 84.1812 86.9698 84.1812C86.5628 84.1812 86.2312 84.3018 85.975 84.543C85.7187 84.7791 85.5906 85.0906 85.5906 85.4775C85.5906 85.7287 85.6484 85.9548 85.764 86.1557C85.8845 86.3517 86.0478 86.5049 86.2538 86.6154C86.4648 86.726 86.7035 86.7812 86.9698 86.7812ZM94.042 85.6056C94.042 85.6609 94.0369 85.7337 94.0269 85.8241H90.7863C90.8315 86.1758 90.9848 86.4597 91.246 86.6757C91.5123 86.8867 91.8414 86.9923 92.2333 86.9923C92.7106 86.9923 93.0949 86.8315 93.3863 86.5099L93.7857 86.9772C93.6049 87.1882 93.3788 87.349 93.1075 87.4595C92.8412 87.57 92.5423 87.6253 92.2107 87.6253C91.7886 87.6253 91.4143 87.5399 91.0878 87.3691C90.7612 87.1932 90.5075 86.9495 90.3266 86.638C90.1508 86.3266 90.0628 85.9749 90.0628 85.583C90.0628 85.1961 90.1483 84.8469 90.3191 84.5354C90.4949 84.2239 90.7336 83.9828 91.035 83.812C91.3415 83.6361 91.6856 83.5482 92.0675 83.5482C92.4493 83.5482 92.7884 83.6361 93.0849 83.812C93.3863 83.9828 93.6199 84.2239 93.7857 84.5354C93.9566 84.8469 94.042 85.2037 94.042 85.6056ZM92.0675 84.1586C91.7208 84.1586 91.4294 84.2641 91.1933 84.4752C90.9622 84.6862 90.8265 84.9625 90.7863 85.3041H93.3486C93.3084 84.9675 93.1703 84.6937 92.9341 84.4827C92.703 84.2666 92.4141 84.1586 92.0675 84.1586ZM97.2924 87.3465C97.1869 87.4369 97.0562 87.5072 96.9005 87.5575C96.7448 87.6027 96.584 87.6253 96.4182 87.6253C96.0162 87.6253 95.7048 87.5173 95.4837 87.3012C95.2626 87.0852 95.1521 86.7762 95.1521 86.3743V84.1812H94.4738V83.5859H95.1521V82.7117H95.8756V83.5859H97.0211V84.1812H95.8756V86.3441C95.8756 86.5602 95.9283 86.726 96.0338 86.8415C96.1444 86.9571 96.3001 87.0149 96.5011 87.0149C96.7221 87.0149 96.9105 86.9521 97.0663 86.8265L97.2924 87.3465ZM45.2819 92.5482C45.8346 92.5482 46.2566 92.6838 46.548 92.9552C46.8444 93.2265 46.9927 93.6309 46.9927 94.1685V96.5801H46.3069V96.0525C46.1863 96.2384 46.0129 96.3816 45.7869 96.4821C45.5658 96.5776 45.302 96.6253 44.9956 96.6253C44.5484 96.6253 44.1892 96.5173 43.9179 96.3012C43.6516 96.0852 43.5185 95.8013 43.5185 95.4496C43.5185 95.098 43.6466 94.8166 43.9028 94.6056C44.159 94.3895 44.566 94.2815 45.1237 94.2815H46.2692V94.1383C46.2692 93.8268 46.1787 93.5882 45.9979 93.4224C45.817 93.2566 45.5507 93.1737 45.199 93.1737C44.9629 93.1737 44.7318 93.2139 44.5057 93.2943C44.2796 93.3696 44.0887 93.4726 43.9329 93.6033L43.6315 93.0607C43.8375 92.8949 44.0837 92.7693 44.37 92.6838C44.6564 92.5934 44.9604 92.5482 45.2819 92.5482ZM45.1161 96.0676C45.3925 96.0676 45.6311 96.0073 45.8321 95.8867C46.033 95.7611 46.1787 95.5853 46.2692 95.3592V94.8015H45.1538C44.5409 94.8015 44.2344 95.0075 44.2344 95.4195C44.2344 95.6205 44.3123 95.7787 44.468 95.8943C44.6238 96.0098 44.8398 96.0676 45.1161 96.0676ZM52.1217 90.9882V96.5801H51.4284V95.947C51.2676 96.1681 51.0641 96.3364 50.8179 96.452C50.5718 96.5675 50.3005 96.6253 50.004 96.6253C49.6172 96.6253 49.2705 96.5399 48.964 96.3691C48.6576 96.1982 48.4164 95.9596 48.2406 95.6531C48.0697 95.3416 47.9843 94.9849 47.9843 94.583C47.9843 94.181 48.0697 93.8268 48.2406 93.5204C48.4164 93.2139 48.6576 92.9752 48.964 92.8044C49.2705 92.6336 49.6172 92.5482 50.004 92.5482C50.2904 92.5482 50.5542 92.6035 50.7953 92.714C51.0365 92.8195 51.2375 92.9778 51.3982 93.1888V90.9882H52.1217ZM50.0643 95.9923C50.3155 95.9923 50.5441 95.9345 50.7501 95.8189C50.9561 95.6983 51.1169 95.5325 51.2324 95.3215C51.348 95.1055 51.4058 94.8593 51.4058 94.583C51.4058 94.3066 51.348 94.063 51.2324 93.852C51.1169 93.6359 50.9561 93.4701 50.7501 93.3546C50.5441 93.239 50.3155 93.1812 50.0643 93.1812C49.8081 93.1812 49.577 93.239 49.371 93.3546C49.17 93.4701 49.0092 93.6359 48.8887 93.852C48.7731 94.063 48.7153 94.3066 48.7153 94.583C48.7153 94.8593 48.7731 95.1055 48.8887 95.3215C49.0092 95.5325 49.17 95.6983 49.371 95.8189C49.577 95.9345 49.8081 95.9923 50.0643 95.9923ZM57.2587 90.9882V96.5801H56.5654V95.947C56.4046 96.1681 56.2011 96.3364 55.9549 96.452C55.7088 96.5675 55.4375 96.6253 55.141 96.6253C54.7542 96.6253 54.4075 96.5399 54.101 96.3691C53.7946 96.1982 53.5534 95.9596 53.3776 95.6531C53.2067 95.3416 53.1213 94.9849 53.1213 94.583C53.1213 94.181 53.2067 93.8268 53.3776 93.5204C53.5534 93.2139 53.7946 92.9752 54.101 92.8044C54.4075 92.6336 54.7542 92.5482 55.141 92.5482C55.4274 92.5482 55.6912 92.6035 55.9323 92.714C56.1735 92.8195 56.3745 92.9778 56.5352 93.1888V90.9882H57.2587ZM55.2013 95.9923C55.4525 95.9923 55.6811 95.9345 55.8871 95.8189C56.0931 95.6983 56.2539 95.5325 56.3694 95.3215C56.485 95.1055 56.5428 94.8593 56.5428 94.583C56.5428 94.3066 56.485 94.063 56.3694 93.852C56.2539 93.6359 56.0931 93.4701 55.8871 93.3546C55.6811 93.239 55.4525 93.1812 55.2013 93.1812C54.9451 93.1812 54.714 93.239 54.508 93.3546C54.307 93.4701 54.1462 93.6359 54.0257 93.852C53.9101 94.063 53.8523 94.3066 53.8523 94.583C53.8523 94.8593 53.9101 95.1055 54.0257 95.3215C54.1462 95.5325 54.307 95.6983 54.508 95.8189C54.714 95.9345 54.9451 95.9923 55.2013 95.9923ZM58.6276 92.5859H59.3511V96.5801H58.6276V92.5859ZM58.9893 91.8172C58.8487 91.8172 58.7306 91.772 58.6351 91.6815C58.5447 91.5911 58.4995 91.4806 58.4995 91.3499C58.4995 91.2193 58.5447 91.1088 58.6351 91.0183C58.7306 90.9229 58.8487 90.8752 58.9893 90.8752C59.13 90.8752 59.2456 90.9204 59.336 91.0108C59.4315 91.0962 59.4792 91.2042 59.4792 91.3349C59.4792 91.4705 59.4315 91.5861 59.336 91.6815C59.2456 91.772 59.13 91.8172 58.9893 91.8172ZM62.9782 96.3465C62.8727 96.4369 62.7421 96.5072 62.5864 96.5575C62.4306 96.6027 62.2698 96.6253 62.104 96.6253C61.7021 96.6253 61.3906 96.5173 61.1695 96.3012C60.9485 96.0852 60.838 95.7762 60.838 95.3743V93.1812H60.1597V92.5859H60.838V91.7117H61.5614V92.5859H62.7069V93.1812H61.5614V95.3441C61.5614 95.5602 61.6142 95.726 61.7197 95.8415C61.8302 95.9571 61.986 96.0149 62.1869 96.0149C62.408 96.0149 62.5964 95.9521 62.7522 95.8265L62.9782 96.3465ZM63.8529 92.5859H64.5764V96.5801H63.8529V92.5859ZM64.2147 91.8172C64.074 91.8172 63.9559 91.772 63.8605 91.6815C63.77 91.5911 63.7248 91.4806 63.7248 91.3499C63.7248 91.2193 63.77 91.1088 63.8605 91.0183C63.9559 90.9229 64.074 90.8752 64.2147 90.8752C64.3553 90.8752 64.4709 90.9204 64.5613 91.0108C64.6568 91.0962 64.7045 91.2042 64.7045 91.3349C64.7045 91.4705 64.6568 91.5861 64.5613 91.6815C64.4709 91.772 64.3553 91.8172 64.2147 91.8172ZM67.6685 96.6253C67.2716 96.6253 66.9149 96.5374 66.5983 96.3615C66.2818 96.1857 66.0331 95.9445 65.8523 95.638C65.6764 95.3266 65.5885 94.9749 65.5885 94.583C65.5885 94.1911 65.6764 93.8419 65.8523 93.5354C66.0331 93.2239 66.2818 92.9828 66.5983 92.812C66.9149 92.6361 67.2716 92.5482 67.6685 92.5482C68.0654 92.5482 68.4196 92.6361 68.7311 92.812C69.0476 92.9828 69.2938 93.2239 69.4696 93.5354C69.6505 93.8419 69.741 94.1911 69.741 94.583C69.741 94.9749 69.6505 95.3266 69.4696 95.638C69.2938 95.9445 69.0476 96.1857 68.7311 96.3615C68.4196 96.5374 68.0654 96.6253 67.6685 96.6253ZM67.6685 95.9923C67.9247 95.9923 68.1533 95.9345 68.3543 95.8189C68.5603 95.6983 68.721 95.5325 68.8366 95.3215C68.9522 95.1055 69.0099 94.8593 69.0099 94.583C69.0099 94.3066 68.9522 94.063 68.8366 93.852C68.721 93.6359 68.5603 93.4701 68.3543 93.3546C68.1533 93.239 67.9247 93.1812 67.6685 93.1812C67.4123 93.1812 67.1811 93.239 66.9752 93.3546C66.7742 93.4701 66.6134 93.6359 66.4928 93.852C66.3773 94.063 66.3195 94.3066 66.3195 94.583C66.3195 94.8593 66.3773 95.1055 66.4928 95.3215C66.6134 95.5325 66.7742 95.6983 66.9752 95.8189C67.1811 95.9345 67.4123 95.9923 67.6685 95.9923ZM72.8743 92.5482C73.3817 92.5482 73.7836 92.6964 74.0801 92.9928C74.3815 93.2842 74.5322 93.7138 74.5322 94.2815V96.5801H73.8087V94.3644C73.8087 93.9776 73.7158 93.6862 73.5299 93.4902C73.344 93.2943 73.0777 93.1963 72.7311 93.1963C72.3392 93.1963 72.0302 93.3119 71.8041 93.543C71.578 93.7691 71.465 94.0956 71.465 94.5227V96.5801H70.7415V92.5859H71.4348V93.1888C71.5805 92.9828 71.7765 92.8245 72.0227 92.714C72.2739 92.6035 72.5577 92.5482 72.8743 92.5482ZM77.3256 92.5482C77.8783 92.5482 78.3003 92.6838 78.5917 92.9552C78.8882 93.2265 79.0364 93.6309 79.0364 94.1685V96.5801H78.3506V96.0525C78.23 96.2384 78.0567 96.3816 77.8306 96.4821C77.6095 96.5776 77.3457 96.6253 77.0393 96.6253C76.5921 96.6253 76.2329 96.5173 75.9616 96.3012C75.6953 96.0852 75.5622 95.8013 75.5622 95.4496C75.5622 95.098 75.6903 94.8166 75.9465 94.6056C76.2027 94.3895 76.6097 94.2815 77.1674 94.2815H78.3129V94.1383C78.3129 93.8268 78.2225 93.5882 78.0416 93.4224C77.8607 93.2566 77.5944 93.1737 77.2427 93.1737C77.0066 93.1737 76.7755 93.2139 76.5494 93.2943C76.3233 93.3696 76.1324 93.4726 75.9767 93.6033L75.6752 93.0607C75.8812 92.8949 76.1274 92.7693 76.4138 92.6838C76.7001 92.5934 77.0041 92.5482 77.3256 92.5482ZM77.1598 96.0676C77.4362 96.0676 77.6748 96.0073 77.8758 95.8867C78.0767 95.7611 78.2225 95.5853 78.3129 95.3592V94.8015H77.1975C76.5846 94.8015 76.2781 95.0075 76.2781 95.4195C76.2781 95.6205 76.356 95.7787 76.5117 95.8943C76.6675 96.0098 76.8835 96.0676 77.1598 96.0676ZM80.3752 90.9882H81.0987V96.5801H80.3752V90.9882ZM86.2448 96.6253C85.8379 96.6253 85.4736 96.5374 85.1521 96.3615C84.8356 96.1857 84.5869 95.9445 84.406 95.638C84.2251 95.3266 84.1347 94.9749 84.1347 94.583C84.1347 94.1911 84.2251 93.8419 84.406 93.5354C84.5869 93.2239 84.8356 92.9828 85.1521 92.812C85.4736 92.6361 85.8379 92.5482 86.2448 92.5482C86.6066 92.5482 86.9281 92.621 87.2095 92.7667C87.4958 92.9124 87.7169 93.1235 87.8727 93.3998L87.3225 93.754C87.1969 93.5631 87.0412 93.4199 86.8553 93.3244C86.6694 93.229 86.4634 93.1812 86.2373 93.1812C85.976 93.1812 85.7399 93.239 85.5289 93.3546C85.3229 93.4701 85.1596 93.6359 85.039 93.852C84.9235 94.063 84.8657 94.3066 84.8657 94.583C84.8657 94.8643 84.9235 95.113 85.039 95.3291C85.1596 95.5401 85.3229 95.7034 85.5289 95.8189C85.7399 95.9345 85.976 95.9923 86.2373 95.9923C86.4634 95.9923 86.6694 95.9445 86.8553 95.8491C87.0412 95.7536 87.1969 95.6104 87.3225 95.4195L87.8727 95.7662C87.7169 96.0425 87.4958 96.256 87.2095 96.4067C86.9281 96.5524 86.6066 96.6253 86.2448 96.6253ZM90.4612 96.6253C90.0643 96.6253 89.7076 96.5374 89.391 96.3615C89.0745 96.1857 88.8258 95.9445 88.6449 95.638C88.4691 95.3266 88.3812 94.9749 88.3812 94.583C88.3812 94.1911 88.4691 93.8419 88.6449 93.5354C88.8258 93.2239 89.0745 92.9828 89.391 92.812C89.7076 92.6361 90.0643 92.5482 90.4612 92.5482C90.8581 92.5482 91.2123 92.6361 91.5238 92.812C91.8403 92.9828 92.0865 93.2239 92.2623 93.5354C92.4432 93.8419 92.5336 94.1911 92.5336 94.583C92.5336 94.9749 92.4432 95.3266 92.2623 95.638C92.0865 95.9445 91.8403 96.1857 91.5238 96.3615C91.2123 96.5374 90.8581 96.6253 90.4612 96.6253ZM90.4612 95.9923C90.7174 95.9923 90.946 95.9345 91.147 95.8189C91.353 95.6983 91.5137 95.5325 91.6293 95.3215C91.7448 95.1055 91.8026 94.8593 91.8026 94.583C91.8026 94.3066 91.7448 94.063 91.6293 93.852C91.5137 93.6359 91.353 93.4701 91.147 93.3546C90.946 93.239 90.7174 93.1812 90.4612 93.1812C90.2049 93.1812 89.9738 93.239 89.7678 93.3546C89.5669 93.4701 89.4061 93.6359 89.2855 93.852C89.17 94.063 89.1122 94.3066 89.1122 94.583C89.1122 94.8593 89.17 95.1055 89.2855 95.3215C89.4061 95.5325 89.5669 95.6983 89.7678 95.8189C89.9738 95.9345 90.2049 95.9923 90.4612 95.9923ZM93.5342 92.5859H94.2577V96.5801H93.5342V92.5859ZM93.8959 91.8172C93.7553 91.8172 93.6372 91.772 93.5417 91.6815C93.4513 91.5911 93.4061 91.4806 93.4061 91.3499C93.4061 91.2193 93.4513 91.1088 93.5417 91.0183C93.6372 90.9229 93.7553 90.8752 93.8959 90.8752C94.0366 90.8752 94.1522 90.9204 94.2426 91.0108C94.3381 91.0962 94.3858 91.2042 94.3858 91.3349C94.3858 91.4705 94.3381 91.5861 94.2426 91.6815C94.1522 91.772 94.0366 91.8172 93.8959 91.8172ZM97.7718 92.5482C98.2792 92.5482 98.6812 92.6964 98.9776 92.9928C99.279 93.2842 99.4298 93.7138 99.4298 94.2815V96.5801H98.7063V94.3644C98.7063 93.9776 98.6133 93.6862 98.4274 93.4902C98.2415 93.2943 97.9753 93.1963 97.6286 93.1963C97.2367 93.1963 96.9277 93.3119 96.7016 93.543C96.4756 93.7691 96.3625 94.0956 96.3625 94.5227V96.5801H95.639V92.5859H96.3324V93.1888C96.4781 92.9828 96.674 92.8245 96.9202 92.714C97.1714 92.6035 97.4553 92.5482 97.7718 92.5482ZM101.914 96.6253C101.588 96.6253 101.274 96.5826 100.972 96.4972C100.671 96.4067 100.435 96.2937 100.264 96.158L100.565 95.5853C100.741 95.7109 100.955 95.8114 101.206 95.8867C101.457 95.9621 101.711 95.9998 101.967 95.9998C102.6 95.9998 102.917 95.8189 102.917 95.4572C102.917 95.3366 102.874 95.2411 102.788 95.1708C102.703 95.1005 102.595 95.0502 102.464 95.0201C102.339 94.9849 102.158 94.9472 101.922 94.907C101.6 94.8568 101.336 94.799 101.13 94.7337C100.929 94.6684 100.756 94.5579 100.61 94.4021C100.465 94.2464 100.392 94.0278 100.392 93.7465C100.392 93.3847 100.543 93.0958 100.844 92.8798C101.145 92.6587 101.55 92.5482 102.057 92.5482C102.324 92.5482 102.59 92.5809 102.856 92.6462C103.122 92.7115 103.341 92.7994 103.512 92.9099L103.203 93.4827C102.876 93.2717 102.492 93.1662 102.05 93.1662C101.743 93.1662 101.51 93.2164 101.349 93.3169C101.188 93.4174 101.108 93.5505 101.108 93.7163C101.108 93.8469 101.153 93.9499 101.243 94.0253C101.334 94.1007 101.444 94.1559 101.575 94.1911C101.711 94.2263 101.899 94.2665 102.14 94.3117C102.462 94.3669 102.721 94.4272 102.917 94.4925C103.117 94.5528 103.288 94.6583 103.429 94.8091C103.57 94.9598 103.64 95.1708 103.64 95.4421C103.64 95.8038 103.484 96.0927 103.173 96.3088C102.866 96.5198 102.447 96.6253 101.914 96.6253Z" fill="white"/>
<defs>
<filter id="filter0_d" x="12.9574" y="54.2474" width="121.085" height="192.085" filterUnits="userSpaceOnUse" color-interpolation-filters="sRGB">
<feFlood flood-opacity="0" result="BackgroundImageFix"/>
<feColorMatrix in="SourceAlpha" type="matrix" values="0 0 0 0 0 0 0 0 0 0 0 0 0 0 0 0 0 0 127 0"/>
<feOffset dy="3.29"/>
<feGaussianBlur stdDeviation="4.52129"/>
<feColorMatrix type="matrix" values="0 0 0 0 0.214753 0 0 0 0 0.00629279 0 0 0 0 0.28821 0 0 0 0.29 0"/>
<feBlend mode="normal" in2="BackgroundImageFix" result="effect1_dropShadow"/>
<feBlend mode="normal" in="SourceGraphic" in2="effect1_dropShadow" result="shape"/>
</filter>
<filter id="filter1_d" x="33.2812" y="202" width="82.2342" height="27" filterUnits="userSpaceOnUse" color-interpolation-filters="sRGB">
<feFlood flood-opacity="0" result="BackgroundImageFix"/>
<feColorMatrix in="SourceAlpha" type="matrix" values="0 0 0 0 0 0 0 0 0 0 0 0 0 0 0 0 0 0 127 0"/>
<feOffset dy="4"/>
<feGaussianBlur stdDeviation="2"/>
<feColorMatrix type="matrix" values="0 0 0 0 0 0 0 0 0 0 0 0 0 0 0 0 0 0 0.1 0"/>
<feBlend mode="normal" in2="BackgroundImageFix" result="effect1_dropShadow"/>
<feBlend mode="normal" in="SourceGraphic" in2="effect1_dropShadow" result="shape"/>
</filter>
<clipPath id="clip0">
<rect width="116" height="213" fill="white" transform="translate(13 40)"/>
</clipPath>
</defs>
</svg>
