<svg width="86" height="97" viewBox="0 0 86 97" fill="none" xmlns="http://www.w3.org/2000/svg">
<path d="M29.3633 6.61523H43.3606" stroke="#740B99" stroke-width="2" stroke-linejoin="round"/>
<path d="M44.0302 95.1301H6.59234C5.10915 95.1301 3.68671 94.5409 2.63794 93.4921C1.58917 92.4433 1 91.0209 1 89.5377V6.59234C1 5.10915 1.58917 3.68671 2.63794 2.63794C3.68671 1.58917 5.10915 1 6.59234 1H66.1217C67.6049 1 69.0273 1.58917 70.0761 2.63794C71.1248 3.68671 71.7141 5.10915 71.7141 6.59234V33.1807" stroke="#740B99" stroke-width="2" stroke-linecap="round" stroke-linejoin="round"/>
<path d="M29.3633 89.5137H43.3606" stroke="#740B99" stroke-width="2" stroke-linejoin="round"/>
<path d="M1 12.2266H71.7141" stroke="#740B99" stroke-width="2" stroke-linecap="round" stroke-linejoin="round"/>
<path d="M43.3598 83.9043H1" stroke="#740B99" stroke-width="2" stroke-linecap="round" stroke-linejoin="round"/>
<path d="M15.7494 20.0098H11.3753C9.91675 20.0098 8.73438 21.1921 8.73438 22.6506V27.0247C8.73438 28.4832 9.91675 29.6656 11.3753 29.6656H15.7494C17.2079 29.6656 18.3902 28.4832 18.3902 27.0247V22.6506C18.3902 21.1921 17.2079 20.0098 15.7494 20.0098Z" stroke="#740B99" stroke-width="2" stroke-linecap="round" stroke-linejoin="round"/>
<path d="M30.7142 20.0098H26.34C24.8815 20.0098 23.6992 21.1921 23.6992 22.6506V27.0247C23.6992 28.4832 24.8815 29.6656 26.34 29.6656H30.7142C32.1727 29.6656 33.3551 28.4832 33.3551 27.0247V22.6506C33.3551 21.1921 32.1727 20.0098 30.7142 20.0098Z" stroke="#740B99" stroke-width="2" stroke-linecap="round" stroke-linejoin="round"/>
<path d="M45.6752 20.0098H41.301C39.8425 20.0098 38.6602 21.1921 38.6602 22.6506V27.0247C38.6602 28.4832 39.8425 29.6656 41.301 29.6656H45.6752C47.1337 29.6656 48.316 28.4832 48.316 27.0247V22.6506C48.316 21.1921 47.1337 20.0098 45.6752 20.0098Z" stroke="#740B99" stroke-width="2" stroke-linecap="round" stroke-linejoin="round"/>
<path d="M15.7494 35.625H11.3753C9.91675 35.625 8.73438 36.8073 8.73438 38.2658V42.64C8.73438 44.0985 9.91675 45.2808 11.3753 45.2808H15.7494C17.2079 45.2808 18.3902 44.0985 18.3902 42.64V38.2658C18.3902 36.8073 17.2079 35.625 15.7494 35.625Z" stroke="#740B99" stroke-width="2" stroke-linecap="round" stroke-linejoin="round"/>
<path d="M30.7142 35.625H26.34C24.8815 35.625 23.6992 36.8073 23.6992 38.2658V42.64C23.6992 44.0985 24.8815 45.2808 26.34 45.2808H30.7142C32.1727 45.2808 33.3551 44.0985 33.3551 42.64V38.2658C33.3551 36.8073 32.1727 35.625 30.7142 35.625Z" stroke="#740B99" stroke-width="2" stroke-linecap="round" stroke-linejoin="round"/>
<path d="M15.7494 51.2324H11.3753C9.91675 51.2324 8.73438 52.4148 8.73438 53.8732V58.2474C8.73438 59.7059 9.91675 60.8883 11.3753 60.8883H15.7494C17.2079 60.8883 18.3902 59.7059 18.3902 58.2474V53.8732C18.3902 52.4148 17.2079 51.2324 15.7494 51.2324Z" stroke="#740B99" stroke-width="2" stroke-linecap="round" stroke-linejoin="round"/>
<path d="M30.7142 51.2324H26.34C24.8815 51.2324 23.6992 52.4148 23.6992 53.8732V58.2474C23.6992 59.7059 24.8815 60.8883 26.34 60.8883H30.7142C32.1727 60.8883 33.3551 59.7059 33.3551 58.2474V53.8732C33.3551 52.4148 32.1727 51.2324 30.7142 51.2324Z" stroke="#740B99" stroke-width="2" stroke-linecap="round" stroke-linejoin="round"/>
<path d="M62.1992 47.4804V38.168H65.8375C66.8046 38.168 67.7321 38.5522 68.416 39.236C69.0998 39.9199 69.484 40.8474 69.484 41.8145" stroke="#740B99" stroke-width="2" stroke-linecap="round" stroke-linejoin="round"/>
<path d="M84.0547 54.8965C83.882 61.8064 82.7229 68.6562 80.6126 75.2383C80.2066 76.4865 79.8682 77.7556 79.5988 79.0402H63.9336" stroke="#740B99" stroke-width="2" stroke-linecap="round" stroke-linejoin="round"/>
<path d="M62.1983 38.169V28.4805C62.1983 28.0016 62.104 27.5274 61.9208 27.085C61.7375 26.6426 61.4689 26.2406 61.1303 25.902C60.7917 25.5634 60.3897 25.2948 59.9473 25.1116C59.5049 24.9283 59.0307 24.834 58.5519 24.834C57.5848 24.834 56.6572 25.2182 55.9734 25.902C55.2895 26.5859 54.9054 27.5134 54.9054 28.4805V55.4612L52.3871 48.9204C52.0745 48.1049 51.5219 47.4034 50.8023 46.9086C50.0826 46.4137 49.2298 46.1488 48.3564 46.1488V46.1488C47.2093 46.1488 46.1092 46.6045 45.2981 47.4156C44.487 48.2267 44.0313 49.3268 44.0313 50.4739V50.4739C44.0211 54.8517 45.1934 59.151 47.4243 62.9177C48.3258 64.4359 49.3659 65.8673 50.5312 67.1937C55.0117 72.2056 56.2053 78.9917 56.2053 78.9917" stroke="#740B99" stroke-width="2" stroke-linecap="round" stroke-linejoin="round"/>
<path d="M69.4883 50.2113V40.8906H73.1348C74.1019 40.8906 75.0294 41.2748 75.7132 41.9587C76.3971 42.6425 76.7813 43.57 76.7813 44.5371V53.3672" stroke="#740B99" stroke-width="2" stroke-linecap="round" stroke-linejoin="round"/>
<path d="M76.7852 45.5508H80.4316C80.9105 45.5508 81.3847 45.6451 81.8271 45.8283C82.2695 46.0116 82.6715 46.2802 83.0101 46.6188C83.3487 46.9574 83.6173 47.3594 83.8006 47.8018C83.9838 48.2442 84.0781 48.7184 84.0781 49.1973V54.8959" stroke="#740B99" stroke-width="2" stroke-linecap="round" stroke-linejoin="round"/>
<path d="M81.6084 83.9043H53.3359V95.13H81.6084V83.9043Z" stroke="#740B99" stroke-width="2" stroke-linecap="round" stroke-linejoin="round"/>
<path d="M76.3828 89.5134C76.3812 89.3051 76.3179 89.102 76.2011 88.9296C76.0842 88.7572 75.919 88.6233 75.7261 88.5448C75.5332 88.4662 75.3214 88.4465 75.1173 88.4881C74.9133 88.5297 74.7261 88.6308 74.5795 88.7786C74.4328 88.9264 74.3332 89.1144 74.2931 89.3187C74.2531 89.5231 74.2744 89.7348 74.3545 89.927C74.4346 90.1192 74.5697 90.2835 74.743 90.399C74.9162 90.5146 75.1198 90.5762 75.3281 90.5762C75.4673 90.5762 75.6051 90.5487 75.7336 90.4951C75.8621 90.4416 75.9787 90.3632 76.0768 90.2644C76.1748 90.1656 76.2524 90.0484 76.3049 89.9195C76.3574 89.7906 76.3839 89.6526 76.3828 89.5134V89.5134Z" stroke="#740B99" stroke-width="2" stroke-linecap="round" stroke-linejoin="round"/>
</svg>
