<svg width="85" height="98" viewBox="0 0 85 98" fill="none" xmlns="http://www.w3.org/2000/svg">
<path d="M59.6751 96.2104L83.8109 91.2076L80.622 75.2391C79.9089 71.7017 78.0019 68.5168 75.2206 66.2177C73.7013 64.8876 71.8897 63.9345 69.933 63.4356L56.2911 59.474C56.002 59.3888 55.7277 59.2599 55.4776 59.0917C55.1233 58.8503 54.8245 58.5361 54.6015 58.1699C54.3784 57.8038 54.2361 57.3942 54.1842 56.9686L53.5578 51.5671C57.7065 47.7926 59.122 44.433 59.3416 39.6335C59.4067 32.6132 56.4538 19.3943 56.4538 19.3943C53.1999 8.27414 42.9176 8.94932 42.9176 8.94932C42.9176 8.94932 32.6435 8.27414 29.3815 19.3943C29.3815 19.3943 26.4286 32.6132 26.4855 39.6335C26.7133 44.433 28.1124 47.7682 32.2774 51.5671L31.6429 56.9686C31.588 57.3939 31.4418 57.8024 31.2143 58.1661C30.9869 58.5297 30.6835 58.8399 30.3251 59.0754C30.0755 59.2444 29.801 59.3734 29.5116 59.4578L15.8697 63.4194C13.9137 63.9199 12.1025 64.8729 10.5821 66.2015C7.80586 68.5036 5.90234 71.6876 5.18882 75.2229L2 91.1913L26.1357 96.1942" stroke="#740B99" stroke-width="2" stroke-miterlimit="10" stroke-linecap="round"/>
<path d="M54.0339 55.7051L42.9056 65.662L31.7773 55.7051" stroke="#740B99" stroke-width="2" stroke-linecap="round" stroke-linejoin="round"/>
<path d="M57.9883 65.0293L50.1383 72.5702L42.8984 65.6638" stroke="#740B99" stroke-width="2" stroke-miterlimit="10" stroke-linecap="round"/>
<path d="M27.8008 65.0293L35.6589 72.5702L42.8988 65.6638" stroke="#740B99" stroke-width="2" stroke-miterlimit="10" stroke-linecap="round"/>
<path d="M42.8984 84.1973V96.9525" stroke="#740B99" stroke-width="2" stroke-miterlimit="10" stroke-linecap="round"/>
<path d="M42.8984 78.1905V71.8535" stroke="#740B99" stroke-width="2" stroke-linecap="round" stroke-linejoin="round" stroke-dasharray="0.01 5"/>
<path d="M42.8984 1C50.8623 1 59.2085 5.43343 62.5438 12.8848C63.8985 16.2225 64.7352 19.7475 65.0249 23.3379C65.6106 28.3733 65.8383 33.1566 68.2788 37.7039C69.0814 39.3934 70.3066 40.8472 71.8357 41.9246C73.3648 43.002 75.1462 43.6664 77.0073 43.8537C75.2557 46.535 72.7441 48.6329 69.7938 49.8791C66.8434 51.1254 63.5884 51.4632 60.445 50.8496" stroke="#740B99" stroke-width="2" stroke-miterlimit="10" stroke-linecap="round"/>
<path d="M42.9018 1C34.9379 1 26.6324 5.43343 23.2565 12.8848C21.9018 16.2225 21.0651 19.7475 20.7754 23.3379C20.1897 28.3733 19.9619 33.1566 17.5215 37.7039C16.7182 39.393 15.4929 40.8463 13.9639 41.9236C12.4349 43.0009 10.6539 43.6657 8.79297 43.8537C10.5446 46.535 13.0562 48.6329 16.0065 49.8791C18.9568 51.1254 22.2119 51.4632 25.3553 50.8496" stroke="#740B99" stroke-width="2" stroke-miterlimit="10" stroke-linecap="round"/>
</svg>
