<svg width="60" height="98" viewBox="0 0 60 98" fill="none" xmlns="http://www.w3.org/2000/svg">
<g id="Group 344">
<path id="Vector" d="M19.9189 96.4884H8.26455C6.33955 96.4884 4.49323 95.7243 3.13114 94.364C1.76904 93.0037 1.00257 91.1586 1 89.2336V8.25495C0.999999 7.30142 1.18798 6.35722 1.55318 5.47639C1.91837 4.59556 2.45359 3.79534 3.12829 3.12154C3.803 2.44774 4.60395 1.91353 5.48528 1.54951C6.3666 1.18549 7.31101 0.99873 8.26455 1.00001H51.7452C52.6982 0.998728 53.6422 1.18561 54.523 1.54974C55.4038 1.91388 56.2041 2.4482 56.878 3.12213C57.5519 3.79606 58.0862 4.59633 58.4504 5.4771C58.8145 6.35788 59.0013 7.30187 59 8.25495V68.0516" stroke="#740B99" stroke-width="2" stroke-miterlimit="10"/>
<path id="Vector_2" d="M34 79C34 79.7911 33.7653 80.5645 33.3258 81.2223C32.8863 81.8801 32.2617 82.3928 31.5308 82.6956C30.7999 82.9983 29.9956 83.0775 29.2196 82.9231C28.4437 82.7688 27.731 82.3879 27.1716 81.8285C26.6122 81.2691 26.2312 80.5563 26.0769 79.7804C25.9225 79.0045 26.0018 78.2002 26.3045 77.4692C26.6073 76.7383 27.12 76.1136 27.7778 75.6741C28.4356 75.2345 29.2089 75 30 75C31.0609 75 32.0782 75.4215 32.8284 76.1716C33.5785 76.9218 34 77.9391 34 79Z" stroke="#740B99" stroke-width="2" stroke-linecap="round" stroke-linejoin="round"/>
<path id="SDK" d="M18.7453 53.1712C17.956 53.1712 17.1905 53.0666 16.4488 52.8574C15.7166 52.6387 15.127 52.3581 14.6801 52.0158L15.4646 50.2756C15.8925 50.5894 16.4013 50.8414 16.9908 51.0316C17.5804 51.2218 18.17 51.3169 18.7595 51.3169C19.4156 51.3169 19.9006 51.2218 20.2144 51.0316C20.5282 50.8319 20.6851 50.5704 20.6851 50.2471C20.6851 50.0094 20.59 49.8145 20.3998 49.6623C20.2192 49.5007 19.9814 49.3723 19.6867 49.2772C19.4014 49.1821 19.0115 49.0775 18.517 48.9634C17.7563 48.7827 17.1335 48.602 16.6485 48.4214C16.1635 48.2407 15.7451 47.9507 15.3933 47.5513C15.051 47.1519 14.8798 46.6194 14.8798 45.9538C14.8798 45.3737 15.0367 44.8507 15.3505 44.3848C15.6643 43.9093 16.135 43.5337 16.7626 43.2579C17.3997 42.9822 18.1747 42.8443 19.0876 42.8443C19.7247 42.8443 20.3475 42.9204 20.9561 43.0725C21.5647 43.2246 22.0972 43.4434 22.5537 43.7286L21.8405 45.4831C20.9181 44.9601 19.9957 44.6986 19.0733 44.6986C18.4267 44.6986 17.9465 44.8032 17.6327 45.0124C17.3284 45.2216 17.1763 45.4973 17.1763 45.8396C17.1763 46.182 17.3522 46.4387 17.704 46.6099C18.0654 46.7715 18.6121 46.9332 19.3443 47.0948C20.1051 47.2755 20.7279 47.4562 21.2129 47.6369C21.6978 47.8175 22.1115 48.1028 22.4538 48.4927C22.8056 48.8826 22.9816 49.4103 22.9816 50.076C22.9816 50.6465 22.8199 51.1695 22.4966 51.645C22.1828 52.1109 21.7073 52.4818 21.0702 52.7575C20.4331 53.0333 19.6581 53.1712 18.7453 53.1712ZM24.5605 43.0154H29.0963C30.1804 43.0154 31.136 43.2246 31.9633 43.643C32.8001 44.0519 33.4467 44.632 33.9032 45.3832C34.3691 46.1344 34.6021 47.0093 34.6021 48.0077C34.6021 49.0062 34.3691 49.881 33.9032 50.6322C33.4467 51.3835 32.8001 51.9683 31.9633 52.3867C31.136 52.7956 30.1804 53 29.0963 53H24.5605V43.0154ZM28.9822 51.1029C29.9807 51.1029 30.7747 50.8272 31.3642 50.2756C31.9633 49.7146 32.2628 48.9586 32.2628 48.0077C32.2628 47.0568 31.9633 46.3056 31.3642 45.7541C30.7747 45.193 29.9807 44.9125 28.9822 44.9125H26.8712V51.1029H28.9822ZM39.9819 49.0775L38.6412 50.4753V53H36.3447V43.0154H38.6412V47.6797L43.0629 43.0154H45.6303L41.4939 47.4657L45.8728 53H43.177L39.9819 49.0775Z" fill="#740B99"/>
</g>
</svg>
