<svg width="430" height="486" viewBox="0 0 430 486" fill="none" xmlns="http://www.w3.org/2000/svg">
<g filter="url(#filter0_d)">
<rect x="282.129" y="350.463" width="166.293" height="334.951" rx="8.53679" transform="rotate(-180 282.129 350.463)" fill="white"/>
</g>
<rect x="275.035" y="311.057" width="152.107" height="265.596" rx="5.65249" transform="rotate(-180 275.035 311.057)" fill="url(#paint0_linear)"/>
<rect x="176.129" y="34.8203" width="46.105" height="3.15248" rx="1.57624" fill="#740B99"/>
<circle cx="199.18" cy="28.3182" r="1.77327" fill="#740B99"/>
<circle cx="198.982" cy="329.578" r="11.4277" fill="#740B99"/>
<path d="M199.733 137.616L199.718 136.689L200.061 136.699L200.065 137.606L199.733 137.616ZM199.716 135.157L199.701 134.231L200.033 134.221L200.037 135.128L199.716 135.157ZM199.708 132.668L199.693 131.741L200.036 131.751L200.04 132.658L199.708 132.668ZM199.711 130.198L199.696 129.272L200.039 129.281L200.043 130.188L199.711 130.198ZM199.703 127.709L199.699 126.802L200.031 126.792L200.035 127.699L199.703 127.709ZM199.686 125.25L199.671 124.324L200.014 124.333L200.018 125.24L199.686 125.25ZM199.689 122.78L199.685 121.873L200.017 121.863L200.029 121.883L200.033 122.79L199.689 122.78ZM199.681 120.291L199.666 119.364L200.009 119.374L200.013 120.281L199.681 120.291ZM199.664 117.832L199.649 116.906L199.981 116.896L199.985 117.803L199.664 117.832ZM199.656 115.343L199.641 114.416L199.984 114.426L199.988 115.333L199.656 115.343ZM199.659 112.873L199.644 111.947L199.987 111.956L199.991 112.863L199.659 112.873ZM199.631 110.395L199.616 109.468L199.948 109.459L199.952 110.366L199.631 110.395ZM199.634 107.925L199.619 106.999L199.962 107.008L199.966 107.915L199.634 107.925ZM199.626 105.436L199.622 104.529L199.954 104.519L199.958 105.426L199.626 105.436ZM199.609 102.977L199.594 102.051L199.938 102.06L199.942 102.967L199.609 102.977ZM199.612 100.507L199.597 99.5808L199.94 99.5904L199.945 100.497L199.612 100.507ZM199.604 98.0179L199.589 97.0914L199.932 97.101L199.947 98.0275L199.604 98.0179ZM199.588 95.5593L199.572 94.6328L199.916 94.6424L199.931 95.5689L199.588 95.5593ZM199.579 93.0699L199.564 92.1435L199.896 92.1336L199.911 93.0601L199.579 93.0699ZM199.582 90.6001L199.567 89.6736L199.91 89.6832L199.926 90.6097L199.582 90.6001Z" fill="white"/>
<path d="M199.733 223.137L199.718 222.211L200.061 222.22L200.065 223.127L199.733 223.137ZM199.716 220.679L199.701 219.752L200.033 219.742L200.037 220.649L199.716 220.679ZM199.708 218.189L199.693 217.263L200.036 217.273L200.04 218.18L199.708 218.189ZM199.711 215.72L199.696 214.793L200.039 214.803L200.043 215.71L199.711 215.72ZM199.703 213.23L199.699 212.323L200.031 212.313L200.035 213.22L199.703 213.23ZM199.686 210.772L199.671 209.845L200.014 209.855L200.018 210.762L199.686 210.772ZM199.689 208.302L199.685 207.395L200.017 207.385L200.029 207.404L200.033 208.311L199.689 208.302ZM199.681 205.812L199.666 204.886L200.009 204.895L200.013 205.802L199.681 205.812ZM199.664 203.354L199.649 202.427L199.981 202.417L199.985 203.324L199.664 203.354ZM199.656 200.864L199.641 199.938L199.984 199.948L199.988 200.855L199.656 200.864ZM199.659 198.395L199.644 197.468L199.987 197.478L199.991 198.385L199.659 198.395ZM199.631 195.916L199.616 194.99L199.948 194.98L199.952 195.887L199.631 195.916ZM199.634 193.447L199.619 192.52L199.962 192.53L199.966 193.437L199.634 193.447ZM199.626 190.957L199.622 190.05L199.954 190.04L199.958 190.947L199.626 190.957ZM199.609 188.499L199.594 187.572L199.938 187.582L199.942 188.489L199.609 188.499ZM199.612 186.029L199.597 185.102L199.94 185.112L199.945 186.019L199.612 186.029ZM199.604 183.539L199.589 182.613L199.932 182.623L199.947 183.549L199.604 183.539ZM199.588 181.081L199.572 180.154L199.916 180.164L199.931 181.09L199.588 181.081ZM199.579 178.591L199.564 177.665L199.896 177.655L199.911 178.582L199.579 178.591ZM199.582 176.122L199.567 175.195L199.91 175.205L199.926 176.131L199.582 176.122Z" fill="white"/>
<g filter="url(#filter1_f)">
<path d="M148.391 314.771C262.668 314.844 307.717 321.465 314.247 358.814H148.391V314.771Z" fill="#4E76A3" fill-opacity="0.2"/>
</g>
<g filter="url(#filter2_f)">
<path d="M101.004 355.426H297.324V385.917H101.004V355.426Z" fill="#001540" fill-opacity="0.44"/>
</g>
<path d="M133.161 390.999C141.574 390.999 148.393 386.449 148.393 380.835C148.393 375.222 141.574 370.672 133.161 370.672C124.749 370.672 117.93 375.222 117.93 380.835C117.93 386.449 124.749 390.999 133.161 390.999Z" fill="#792D91"/>
<path d="M265.169 389.304C273.581 389.304 280.401 384.753 280.401 379.14C280.401 373.527 273.581 368.977 265.169 368.977C256.757 368.977 249.938 373.527 249.938 379.14C249.938 384.753 256.757 389.304 265.169 389.304Z" fill="#792D91"/>
<g filter="url(#filter3_ddii)">
<path d="M77.3125 360.558C77.3125 365.949 79.4526 371.119 83.2613 374.931L86.3051 377.978C88.8195 380.495 91.8047 382.492 95.0901 383.854C98.3756 385.216 101.897 385.917 105.453 385.917H292.879C296.435 385.917 299.956 385.216 303.242 383.854C306.527 382.491 309.512 380.495 312.027 377.978L315.072 374.931C318.88 371.119 321.02 365.949 321.02 360.558V331.711C321.02 322.355 313.443 314.771 304.095 314.771H94.2366C84.8894 314.771 77.3125 322.355 77.3125 331.711V360.558Z" fill="url(#paint1_linear)"/>
<path d="M77.0742 343.805C77.0742 352.807 79.2155 361.441 83.0263 367.805L86.0718 372.893C88.5877 377.096 91.5745 380.43 94.8618 382.704C98.149 384.978 101.672 386.149 105.23 386.149H292.761C296.319 386.149 299.842 384.978 303.129 382.704C306.417 380.429 309.403 377.096 311.919 372.893L314.966 367.805C318.776 361.44 320.917 352.807 320.917 343.805V295.638C320.917 280.017 313.336 267.354 303.983 267.354H94.0077C84.6554 267.354 77.0742 280.017 77.0742 295.638V343.805Z" fill="#792D91"/>
<path d="M77.0748 343.805C77.0748 352.807 75.6864 363.236 79.4972 369.6L82.7272 374.445C86.361 378.079 89.9947 381.309 94.8397 383.328C98.8772 384.539 101.779 386.149 105.337 386.149H292.761C296.319 386.149 299.843 384.978 303.13 382.704C306.417 380.429 312.057 377.675 315.691 374.041L318.517 370.408C322.327 364.042 320.917 352.807 320.917 343.805V295.638C320.917 280.017 313.336 267.354 303.984 267.354H94.0083C84.6559 267.354 77.0748 280.017 77.0748 295.638V343.805Z" fill="url(#paint2_linear)"/>
</g>
<path d="M82.3867 374.059L86.3021 377.978C88.8165 380.495 91.8017 382.491 95.0871 383.853C98.3726 385.215 101.894 385.916 105.45 385.916H292.876C296.432 385.916 299.953 385.215 303.239 383.853C306.524 382.491 309.509 380.494 312.024 377.978L315.939 374.059L199.163 374.906L82.3867 374.059Z" fill="url(#paint3_linear)"/>
<path d="M82.3867 374.059L86.3021 377.978C88.8165 380.495 91.8017 382.491 95.0871 383.853C98.3726 385.215 101.894 385.916 105.45 385.916H292.876C296.432 385.916 299.953 385.215 303.239 383.853C306.524 382.491 309.509 380.494 312.024 377.978L315.939 374.059L199.163 374.906L82.3867 374.059Z" fill="url(#paint4_linear)"/>
<path d="M82.3242 374.041L86.7655 378.482C89.2779 381.053 92.1355 382.655 95.4183 384.046C98.7011 385.438 102.22 386.154 105.773 386.153H293.05C296.603 386.154 300.122 385.437 303.405 384.046C306.687 382.655 309.67 380.615 312.183 378.044L316.095 374.041L199.412 374.906L82.3242 374.041Z" fill="url(#paint5_linear)"/>
<g filter="url(#filter4_i)">
<path d="M137.831 333.711C136.941 333.711 136.077 333.593 135.24 333.357C134.413 333.11 133.748 332.793 133.244 332.407L134.129 330.443C134.612 330.797 135.186 331.082 135.851 331.296C136.517 331.511 137.182 331.618 137.848 331.618C138.588 331.618 139.135 331.511 139.489 331.296C139.844 331.071 140.021 330.776 140.021 330.411C140.021 330.142 139.913 329.922 139.699 329.751C139.495 329.568 139.227 329.423 138.894 329.316C138.572 329.209 138.132 329.091 137.574 328.962C136.715 328.758 136.012 328.554 135.465 328.35C134.918 328.146 134.446 327.819 134.049 327.368C133.662 326.918 133.469 326.317 133.469 325.565C133.469 324.911 133.646 324.321 134 323.795C134.354 323.258 134.886 322.834 135.594 322.523C136.313 322.212 137.188 322.056 138.218 322.056C138.937 322.056 139.64 322.142 140.327 322.314C141.013 322.485 141.614 322.732 142.129 323.054L141.325 325.034C140.284 324.444 139.243 324.149 138.202 324.149C137.472 324.149 136.93 324.267 136.576 324.503C136.232 324.739 136.061 325.05 136.061 325.437C136.061 325.823 136.259 326.113 136.656 326.306C137.064 326.488 137.681 326.671 138.508 326.853C139.366 327.057 140.069 327.261 140.616 327.465C141.164 327.669 141.63 327.991 142.017 328.431C142.414 328.871 142.612 329.466 142.612 330.218C142.612 330.862 142.43 331.452 142.065 331.988C141.711 332.514 141.174 332.933 140.455 333.244C139.736 333.555 138.862 333.711 137.831 333.711ZM155.308 324.728C156.392 324.728 157.251 325.05 157.884 325.694C158.528 326.327 158.85 327.283 158.85 328.56V333.518H156.339V328.946C156.339 328.259 156.194 327.749 155.904 327.417C155.625 327.073 155.222 326.902 154.697 326.902C154.106 326.902 153.64 327.095 153.296 327.481C152.953 327.857 152.781 328.42 152.781 329.171V333.518H150.27V328.946C150.27 327.583 149.723 326.902 148.628 326.902C148.048 326.902 147.587 327.095 147.244 327.481C146.9 327.857 146.728 328.42 146.728 329.171V333.518H144.217V324.857H146.616V325.855C146.938 325.49 147.329 325.211 147.791 325.018C148.263 324.825 148.778 324.728 149.336 324.728C149.948 324.728 150.501 324.852 150.994 325.099C151.488 325.335 151.885 325.684 152.185 326.145C152.54 325.694 152.985 325.345 153.522 325.099C154.069 324.852 154.664 324.728 155.308 324.728ZM164.594 324.728C165.935 324.728 166.965 325.05 167.684 325.694C168.404 326.327 168.763 327.288 168.763 328.576V333.518H166.413V332.439C165.941 333.244 165.061 333.646 163.773 333.646C163.107 333.646 162.528 333.534 162.034 333.308C161.551 333.083 161.181 332.772 160.924 332.375C160.666 331.978 160.537 331.527 160.537 331.022C160.537 330.218 160.838 329.584 161.439 329.123C162.05 328.662 162.989 328.431 164.256 328.431H166.252C166.252 327.883 166.085 327.465 165.753 327.175C165.42 326.875 164.921 326.724 164.256 326.724C163.794 326.724 163.338 326.8 162.887 326.95C162.447 327.089 162.072 327.283 161.761 327.529L160.859 325.775C161.331 325.442 161.895 325.184 162.549 325.002C163.215 324.82 163.896 324.728 164.594 324.728ZM164.401 331.956C164.83 331.956 165.211 331.86 165.544 331.666C165.876 331.462 166.112 331.167 166.252 330.781V329.896H164.529C163.499 329.896 162.984 330.234 162.984 330.91C162.984 331.232 163.107 331.489 163.354 331.682C163.612 331.865 163.961 331.956 164.401 331.956ZM173.434 326C173.735 325.582 174.137 325.265 174.642 325.05C175.157 324.836 175.747 324.728 176.412 324.728V327.046C176.133 327.025 175.945 327.014 175.849 327.014C175.13 327.014 174.566 327.218 174.159 327.626C173.751 328.023 173.547 328.624 173.547 329.429V333.518H171.036V324.857H173.434V326ZM183.79 333.099C183.543 333.281 183.237 333.421 182.872 333.518C182.518 333.603 182.143 333.646 181.746 333.646C180.715 333.646 179.916 333.383 179.347 332.858C178.789 332.332 178.51 331.559 178.51 330.54V326.982H177.174V325.05H178.51V322.942H181.021V325.05H183.178V326.982H181.021V330.507C181.021 330.872 181.112 331.157 181.295 331.361C181.488 331.554 181.756 331.65 182.1 331.65C182.497 331.65 182.835 331.543 183.114 331.328L183.79 333.099ZM193.638 324.857L189.727 334.049C189.33 335.047 188.836 335.75 188.246 336.158C187.666 336.565 186.963 336.769 186.137 336.769C185.686 336.769 185.241 336.7 184.801 336.56C184.361 336.42 184.001 336.227 183.722 335.98L184.64 334.194C184.833 334.365 185.053 334.5 185.3 334.596C185.558 334.693 185.81 334.741 186.057 334.741C186.4 334.741 186.679 334.655 186.894 334.483C187.108 334.322 187.301 334.049 187.473 333.662L187.505 333.582L183.755 324.857H186.346L188.777 330.733L191.224 324.857H193.638ZM201.805 331.103H196.574L195.576 333.518H192.903L197.926 322.249H200.501L205.54 333.518H202.803L201.805 331.103ZM200.984 329.123L199.197 324.809L197.411 329.123H200.984ZM215.275 321.573V333.518H212.876V332.52C212.254 333.271 211.352 333.646 210.172 333.646C209.356 333.646 208.616 333.464 207.95 333.099C207.296 332.734 206.781 332.214 206.405 331.538C206.029 330.862 205.842 330.078 205.842 329.187C205.842 328.297 206.029 327.513 206.405 326.837C206.781 326.161 207.296 325.641 207.95 325.276C208.616 324.911 209.356 324.728 210.172 324.728C211.277 324.728 212.141 325.077 212.763 325.775V321.573H215.275ZM210.606 331.586C211.24 331.586 211.765 331.371 212.184 330.942C212.602 330.502 212.812 329.917 212.812 329.187C212.812 328.458 212.602 327.878 212.184 327.449C211.765 327.009 211.24 326.789 210.606 326.789C209.962 326.789 209.431 327.009 209.013 327.449C208.594 327.878 208.385 328.458 208.385 329.187C208.385 329.917 208.594 330.502 209.013 330.942C209.431 331.371 209.962 331.586 210.606 331.586ZM220.512 333.646C219.793 333.646 219.091 333.561 218.404 333.389C217.717 333.206 217.17 332.981 216.762 332.713L217.599 330.91C217.985 331.157 218.452 331.361 218.999 331.521C219.547 331.672 220.083 331.747 220.609 331.747C221.671 331.747 222.203 331.484 222.203 330.958C222.203 330.711 222.058 330.534 221.768 330.427C221.478 330.32 221.033 330.228 220.432 330.153C219.724 330.046 219.139 329.922 218.677 329.783C218.216 329.643 217.813 329.397 217.47 329.042C217.137 328.688 216.971 328.184 216.971 327.529C216.971 326.982 217.127 326.499 217.438 326.081C217.76 325.651 218.221 325.319 218.822 325.083C219.434 324.846 220.153 324.728 220.979 324.728C221.591 324.728 222.197 324.798 222.798 324.938C223.41 325.066 223.914 325.249 224.311 325.485L223.474 327.272C222.712 326.843 221.881 326.628 220.979 326.628C220.443 326.628 220.04 326.703 219.772 326.853C219.504 327.003 219.37 327.197 219.37 327.433C219.37 327.701 219.514 327.889 219.804 327.996C220.094 328.103 220.555 328.205 221.189 328.302C221.897 328.42 222.476 328.549 222.927 328.688C223.378 328.817 223.769 329.059 224.102 329.413C224.435 329.767 224.601 330.261 224.601 330.894C224.601 331.43 224.44 331.908 224.118 332.326C223.796 332.745 223.324 333.072 222.702 333.308C222.09 333.534 221.36 333.646 220.512 333.646ZM234.589 333.711C233.698 333.711 232.834 333.593 231.997 333.357C231.171 333.11 230.505 332.793 230.001 332.407L230.886 330.443C231.369 330.797 231.944 331.082 232.609 331.296C233.274 331.511 233.94 331.618 234.605 331.618C235.345 331.618 235.893 331.511 236.247 331.296C236.601 331.071 236.778 330.776 236.778 330.411C236.778 330.142 236.671 329.922 236.456 329.751C236.252 329.568 235.984 329.423 235.651 329.316C235.329 329.209 234.889 329.091 234.331 328.962C233.473 328.758 232.77 328.554 232.223 328.35C231.675 328.146 231.203 327.819 230.806 327.368C230.42 326.918 230.226 326.317 230.226 325.565C230.226 324.911 230.404 324.321 230.758 323.795C231.112 323.258 231.643 322.834 232.351 322.523C233.07 322.212 233.945 322.056 234.975 322.056C235.694 322.056 236.397 322.142 237.084 322.314C237.771 322.485 238.372 322.732 238.887 323.054L238.082 325.034C237.041 324.444 236 324.149 234.959 324.149C234.229 324.149 233.687 324.267 233.333 324.503C232.99 324.739 232.818 325.05 232.818 325.437C232.818 325.823 233.017 326.113 233.414 326.306C233.822 326.488 234.439 326.671 235.265 326.853C236.123 327.057 236.826 327.261 237.374 327.465C237.921 327.669 238.388 327.991 238.774 328.431C239.171 328.871 239.37 329.466 239.37 330.218C239.37 330.862 239.187 331.452 238.822 331.988C238.468 332.514 237.932 332.933 237.213 333.244C236.494 333.555 235.619 333.711 234.589 333.711ZM241.152 322.249H246.271C247.494 322.249 248.573 322.485 249.506 322.958C250.451 323.419 251.18 324.074 251.696 324.922C252.221 325.769 252.484 326.757 252.484 327.883C252.484 329.01 252.221 329.998 251.696 330.845C251.18 331.693 250.451 332.353 249.506 332.825C248.573 333.287 247.494 333.518 246.271 333.518H241.152V322.249ZM246.142 331.377C247.269 331.377 248.165 331.065 248.83 330.443C249.506 329.81 249.844 328.957 249.844 327.883C249.844 326.81 249.506 325.963 248.83 325.34C248.165 324.707 247.269 324.39 246.142 324.39H243.76V331.377H246.142ZM258.556 329.091L257.043 330.668V333.518H254.451V322.249H257.043V327.513L262.033 322.249H264.93L260.262 327.272L265.204 333.518H262.162L258.556 329.091Z" fill="#6A2A85"/>
</g>
<g style="mix-blend-mode:hard-light">
<path d="M190.023 164.493V153.154L199.959 158.823V170.132L190.023 164.493Z" fill="#EBF2FA"/>
<path d="M209.688 153.154L209.718 164.493L199.961 170.132V158.823L209.688 153.154Z" fill="#EBF2FA"/>
<path d="M199.841 147.516L209.658 153.155L199.841 158.824L190.055 153.155L199.841 147.516Z" fill="#EBF2FA"/>
<path d="M180.297 170.133V158.824L190.024 164.493V175.802L180.297 170.133Z" fill="#EBF2FA"/>
<path d="M199.81 158.824V170.133L190.023 175.802V164.493L199.81 158.824Z" fill="#EBF2FA"/>
<path d="M190.051 153.184L199.838 158.823L190.051 164.492L180.234 158.823L190.051 153.184Z" fill="#EBF2FA"/>
<path d="M171.227 175.383V164.91L180.297 170.162V180.605L171.227 175.383Z" fill="#D7E5F2"/>
<path d="M189.338 164.91V175.383L180.297 180.605V170.162L189.338 164.91Z" fill="#EBF2FA"/>
<path d="M180.266 159.689L189.307 164.911L180.266 170.163L171.195 164.911L180.266 159.689Z" fill="#EBF2FA"/>
<path d="M190.023 175.801V164.463L199.751 170.132V181.441L190.023 175.801Z" fill="#EBF2FA"/>
<path d="M209.567 164.492V175.801L199.75 181.44V170.132L209.567 164.492Z" fill="#EBF2FA"/>
<path d="M199.81 158.824L209.627 164.493L199.81 170.133L190.023 164.464L199.81 158.824Z" fill="#EBF2FA"/>
<path d="M180.953 181.024V170.551L190.024 175.802V186.275L180.953 181.024Z" fill="#D7E5F2"/>
<path d="M199.094 170.58V181.023L190.023 186.275V175.802L199.094 170.58Z" fill="#FBFBFF"/>
<path d="M190.021 165.328L199.092 170.58L190.021 175.801L180.98 170.55L190.021 165.328Z" fill="#EBF2FA"/>
<path d="M210.344 175.383V164.91L219.414 170.132V180.605L210.344 175.383Z" fill="#D7E5F2"/>
<path d="M228.454 164.91V175.383L219.383 180.605V170.132L228.454 164.91Z" fill="#FBFBFF"/>
<path d="M219.412 159.658L228.483 164.91L219.412 170.131L210.371 164.91L219.412 159.658Z" fill="#EBF2FA"/>
<path d="M200.617 181.024V170.551L209.688 175.802V186.275L200.617 181.024Z" fill="#D7E5F2"/>
<path d="M218.639 170.58V181.023L209.598 186.275V175.802L218.639 170.58Z" fill="#FBFBFF"/>
<path d="M209.625 165.328L218.666 170.58L209.625 175.801L200.555 170.55L209.625 165.328Z" fill="#EBF2FA"/>
<g opacity="0.9">
<path opacity="0.4" d="M190.68 186.692V176.219L199.75 181.44V191.913L190.68 186.692Z" fill="#792D91"/>
<path opacity="0.7" d="M208.762 176.219V186.692L199.691 191.913V181.44L208.762 176.219Z" fill="#792D91"/>
<path opacity="0.2" d="M199.721 170.998L208.791 176.22L199.75 181.441L190.68 176.22L199.721 170.998Z" fill="#792D91"/>
</g>
<path d="M171.227 164.016V153.543L180.297 158.794V169.268L171.227 164.016Z" fill="#D7E5F2"/>
<path d="M189.278 153.572V164.016L180.207 169.267V158.794L189.278 153.572Z" fill="#FBFBFF"/>
<path d="M180.266 148.32L189.307 153.572L180.266 158.793L171.195 153.542L180.266 148.32Z" fill="#EBF2FA"/>
<path d="M199.75 158.793V147.455L209.686 153.124V164.433L199.75 158.793Z" fill="#EBF2FA"/>
<path d="M219.444 147.455L219.474 158.793L209.688 164.433V153.124L219.444 147.455Z" fill="#EBF2FA"/>
<path d="M209.627 141.816L219.413 147.456L209.627 153.125L199.84 147.456L209.627 141.816Z" fill="#EBF2FA"/>
<path d="M190.023 164.434V153.125L199.751 158.794V170.103L190.023 164.434Z" fill="#EBF2FA"/>
<path d="M209.567 153.125V164.434L199.75 170.103V158.794L209.567 153.125Z" fill="#EBF2FA"/>
<path d="M199.81 147.486L209.627 153.126L199.81 158.795L190.023 153.126L199.81 147.486Z" fill="#EBF2FA"/>
<path opacity="0.4" d="M180.953 169.684V159.211L189.994 164.433V174.906L180.953 169.684Z" fill="#FEB05A"/>
<path opacity="0.1" d="M199.036 159.211V169.684L189.965 174.906V164.433L199.036 159.211Z" fill="#00AFEF"/>
<path opacity="0.2" d="M189.994 153.959L199.065 159.211L189.994 164.432L180.953 159.211L189.994 153.959Z" fill="#792D91"/>
<path opacity="0.4" d="M210.312 164.075V153.602L219.383 158.823V169.296L210.312 164.075Z" fill="#792D91"/>
<path opacity="0.1" d="M228.426 153.602V164.075L219.355 169.296V158.823L228.426 153.602Z" fill="#EED1B2"/>
<path opacity="0.2" d="M219.385 148.352L228.455 153.603L219.414 158.825L210.344 153.603L219.385 148.352Z" fill="#792D91"/>
<path d="M200.555 169.774V159.182L209.625 164.493V175.085L200.555 169.774Z" fill="#D7E5F2"/>
<path d="M218.815 159.182V169.774L209.625 175.085V164.493L218.815 159.182Z" fill="#FBFBFF"/>
<path d="M209.686 153.9L218.846 159.182L209.686 164.493L200.496 159.182L209.686 153.9Z" fill="#EBF2FA"/>
<path d="M190.68 175.413V164.791L199.75 170.102V180.695L190.68 175.413Z" fill="#D7E5F2"/>
<path d="M208.969 164.82V175.413L199.809 180.694V170.102L208.969 164.82Z" fill="#FBFBFF"/>
<path d="M199.838 159.51L208.999 164.821L199.838 170.102L190.648 164.791L199.838 159.51Z" fill="#EBF2FA"/>
<path d="M190.887 141.37V130.896L199.957 136.148V146.621L190.887 141.37Z" fill="#D7E5F2"/>
<path d="M208.879 130.926V141.369L199.809 146.62V136.147L208.879 130.926Z" fill="#FBFBFF"/>
<path d="M199.842 125.674L208.912 130.925L199.842 136.147L190.801 130.895L199.842 125.674Z" fill="#EBF2FA"/>
<path opacity="0.4" d="M180.98 147.008V136.535L190.051 141.757V152.23L180.98 147.008Z" fill="url(#paint6_linear)"/>
<path opacity="0.1" d="M199.094 136.535V147.008L190.023 152.23V141.757L199.094 136.535Z" fill="#00AFEF"/>
<path opacity="0.7" d="M190.053 131.283L199.123 136.535L190.082 141.756L181.012 136.535L190.053 131.283Z" fill="#792D91"/>
<path d="M171.227 152.707V142.234L180.297 147.456V157.929L171.227 152.707Z" fill="#D7E5F2"/>
<path d="M189.306 142.203V152.676L180.266 157.928V147.455L189.306 142.203Z" fill="#FBFBFF"/>
<path d="M180.266 136.982L189.307 142.204L180.266 147.456L171.195 142.204L180.266 136.982Z" fill="#EBF2FA"/>
<path opacity="0.4" d="M200.586 147.038V136.564L209.627 141.816V152.289L200.586 147.038Z" fill="url(#paint7_linear)"/>
<path opacity="0.1" d="M218.606 136.564V147.038L209.535 152.289V141.816L218.606 136.564Z" fill="#00AFEF"/>
<path opacity="0.7" d="M209.598 131.344L218.639 136.565L209.598 141.817L200.527 136.565L209.598 131.344Z" fill="#792D90"/>
<path d="M190.68 152.707V142.234L199.75 147.456V157.929L190.68 152.707Z" fill="#D7E5F2"/>
<path d="M208.791 142.234V152.707L199.75 157.929V147.456L208.791 142.234Z" fill="#FBFBFF"/>
<path d="M199.75 137.012L208.791 142.233L199.75 147.485L190.68 142.233L199.75 137.012Z" fill="#EBF2FA"/>
<path d="M180.953 158.346V147.873L190.024 153.125V163.598L180.953 158.346Z" fill="#D7E5F2"/>
<path d="M199.063 147.873V158.346L189.992 163.598V153.125L199.063 147.873Z" fill="#FBFBFF"/>
<path d="M189.994 142.652L199.065 147.874L189.994 153.125L180.953 147.874L189.994 142.652Z" fill="#EBF2FA"/>
<path d="M210.344 152.766V142.293L219.414 147.515V157.988L210.344 152.766Z" fill="#D7E5F2"/>
<path d="M228.455 142.293L228.485 152.766L219.414 157.988V147.515L228.455 142.293Z" fill="#FBFBFF"/>
<path d="M219.442 137.041L228.513 142.292L219.442 147.514L210.371 142.292L219.442 137.041Z" fill="#EBF2FA"/>
<path d="M200.617 158.346V147.873L209.688 153.125V163.598L200.617 158.346Z" fill="#D7E5F2"/>
<path d="M218.639 147.873V158.346L209.598 163.598V153.125L218.639 147.873Z" fill="#FBFBFF"/>
<path d="M209.688 142.652L218.759 147.874L209.688 153.125L200.617 147.874L209.688 142.652Z" fill="#EBF2FA"/>
<path d="M190.68 164.016V153.543L199.75 158.794V169.238L190.68 164.016Z" fill="#D7E5F2"/>
<path d="M208.791 153.543V164.016L199.75 169.268V158.794L208.791 153.543Z" fill="#FBFBFF"/>
<path d="M199.75 148.32L208.791 153.572L199.75 158.793L190.68 153.542L199.75 148.32Z" fill="#EBF2FA"/>
</g>
<path d="M191.542 219.549C191.144 219.549 190.807 219.687 190.529 219.965C190.252 220.242 190.113 220.575 190.113 220.963V226.927C190.113 227.325 190.252 227.662 190.529 227.94C190.807 228.217 191.144 228.356 191.542 228.356C191.939 228.356 192.274 228.217 192.547 227.94C192.82 227.662 192.957 227.325 192.957 226.927V220.963C192.957 220.575 192.818 220.242 192.54 219.965C192.263 219.687 191.93 219.549 191.542 219.549Z" fill="#FEB05A"/>
<path d="M203.027 214.196L204.011 212.379C204.076 212.259 204.053 212.167 203.942 212.102C203.822 212.046 203.729 212.075 203.665 212.185L202.666 214.016C201.788 213.628 200.858 213.433 199.878 213.433C198.898 213.433 197.969 213.628 197.091 214.016L196.092 212.185C196.027 212.075 195.935 212.046 195.815 212.102C195.704 212.167 195.681 212.259 195.746 212.379L196.73 214.196C195.732 214.705 194.936 215.414 194.345 216.325C193.753 217.236 193.457 218.232 193.457 219.314H206.286C206.286 218.232 205.99 217.237 205.398 216.325C204.806 215.414 204.016 214.705 203.027 214.196ZM197.333 216.838C197.227 216.945 197.1 216.998 196.952 216.998C196.804 216.998 196.679 216.945 196.577 216.838C196.476 216.732 196.425 216.605 196.425 216.457C196.425 216.309 196.476 216.182 196.577 216.076C196.679 215.969 196.804 215.916 196.952 215.916C197.1 215.916 197.227 215.969 197.333 216.076C197.439 216.182 197.493 216.309 197.493 216.457C197.493 216.605 197.439 216.732 197.333 216.838ZM203.179 216.838C203.077 216.945 202.952 216.998 202.805 216.998C202.656 216.998 202.529 216.945 202.423 216.838C202.317 216.732 202.263 216.605 202.263 216.457C202.263 216.309 202.317 216.182 202.423 216.076C202.529 215.969 202.656 215.916 202.805 215.916C202.952 215.916 203.077 215.969 203.179 216.076C203.281 216.182 203.331 216.309 203.331 216.457C203.331 216.605 203.281 216.732 203.179 216.838Z" fill="#FEB05A"/>
<path d="M193.512 229.05C193.512 229.475 193.66 229.836 193.955 230.131C194.251 230.427 194.612 230.575 195.037 230.575H196.063L196.078 233.724C196.078 234.121 196.216 234.459 196.494 234.736C196.771 235.014 197.104 235.152 197.492 235.152C197.889 235.152 198.227 235.014 198.504 234.736C198.782 234.459 198.921 234.121 198.921 233.724V230.575H200.834V233.724C200.834 234.121 200.973 234.459 201.25 234.736C201.528 235.014 201.865 235.152 202.263 235.152C202.66 235.152 202.998 235.014 203.275 234.736C203.552 234.459 203.691 234.121 203.691 233.724V230.575H204.731C205.147 230.575 205.503 230.427 205.799 230.132C206.095 229.836 206.243 229.476 206.243 229.05V219.812H193.512V229.05Z" fill="#FEB05A"/>
<path d="M208.211 219.549C207.823 219.549 207.49 219.685 207.213 219.958C206.936 220.231 206.797 220.566 206.797 220.963V226.927C206.797 227.325 206.936 227.662 207.213 227.94C207.49 228.217 207.823 228.356 208.211 228.356C208.609 228.356 208.946 228.217 209.224 227.94C209.501 227.662 209.64 227.325 209.64 226.927V220.963C209.64 220.566 209.501 220.231 209.224 219.958C208.946 219.685 208.609 219.549 208.211 219.549Z" fill="#FEB05A"/>
<path d="M209.007 96.2815C208.66 97.0821 208.25 97.8191 207.775 98.4966C207.127 99.4202 206.596 100.06 206.188 100.415C205.554 100.997 204.875 101.296 204.148 101.313C203.626 101.313 202.997 101.164 202.264 100.863C201.529 100.563 200.853 100.415 200.236 100.415C199.588 100.415 198.893 100.563 198.15 100.863C197.405 101.164 196.806 101.321 196.347 101.337C195.65 101.367 194.955 101.06 194.262 100.415C193.819 100.028 193.265 99.3665 192.602 98.4287C191.89 97.4273 191.305 96.266 190.846 94.942C190.355 93.512 190.109 92.1273 190.109 90.7866C190.109 89.251 190.441 87.9265 191.106 86.8165C191.628 85.925 192.323 85.2217 193.193 84.7054C194.063 84.1892 195.002 83.9261 196.014 83.9092C196.568 83.9092 197.294 84.0805 198.197 84.4172C199.097 84.755 199.675 84.9262 199.928 84.9262C200.117 84.9262 200.759 84.726 201.847 84.3267C202.876 83.9564 203.745 83.803 204.456 83.8634C206.384 84.019 207.833 84.779 208.796 86.1482C207.072 87.1929 206.219 88.6562 206.236 90.5333C206.251 91.9954 206.782 93.2122 207.824 94.1782C208.297 94.6266 208.824 94.9732 209.411 95.2193C209.284 95.5885 209.149 95.9421 209.007 96.2815ZM204.585 78.8823C204.585 80.0283 204.166 81.0983 203.332 82.0887C202.325 83.2661 201.107 83.9464 199.786 83.8391C199.769 83.7016 199.759 83.5569 199.759 83.4049C199.759 82.3047 200.238 81.1273 201.088 80.1646C201.513 79.6772 202.053 79.2719 202.708 78.9486C203.361 78.6301 203.98 78.454 204.561 78.4238C204.578 78.577 204.585 78.7302 204.585 78.8822V78.8823Z" fill="white"/>
<defs>
<filter id="filter0_d" x="99.3129" y="0.980552" width="199.34" height="367.997" filterUnits="userSpaceOnUse" color-interpolation-filters="sRGB">
<feFlood flood-opacity="0" result="BackgroundImageFix"/>
<feColorMatrix in="SourceAlpha" type="matrix" values="0 0 0 0 0 0 0 0 0 0 0 0 0 0 0 0 0 0 127 0"/>
<feOffset dy="1.99192"/>
<feGaussianBlur stdDeviation="8.26154"/>
<feColorMatrix type="matrix" values="0 0 0 0 0 0 0 0 0 0 0 0 0 0 0 0 0 0 0.22 0"/>
<feBlend mode="normal" in2="BackgroundImageFix" result="effect1_dropShadow"/>
<feBlend mode="normal" in="SourceGraphic" in2="effect1_dropShadow" result="shape"/>
</filter>
<filter id="filter1_f" x="33.3469" y="199.728" width="395.944" height="274.13" filterUnits="userSpaceOnUse" color-interpolation-filters="sRGB">
<feFlood flood-opacity="0" result="BackgroundImageFix"/>
<feBlend mode="normal" in="SourceGraphic" in2="BackgroundImageFix" result="shape"/>
<feGaussianBlur stdDeviation="57.5219" result="effect1_foregroundBlur"/>
</filter>
<filter id="filter2_f" x="0.965881" y="255.388" width="396.396" height="230.567" filterUnits="userSpaceOnUse" color-interpolation-filters="sRGB">
<feFlood flood-opacity="0" result="BackgroundImageFix"/>
<feBlend mode="normal" in="SourceGraphic" in2="BackgroundImageFix" result="shape"/>
<feGaussianBlur stdDeviation="50.019" result="effect1_foregroundBlur"/>
</filter>
<filter id="filter3_ddii" x="36.8129" y="234.841" width="324.375" height="198.826" filterUnits="userSpaceOnUse" color-interpolation-filters="sRGB">
<feFlood flood-opacity="0" result="BackgroundImageFix"/>
<feColorMatrix in="SourceAlpha" type="matrix" values="0 0 0 0 0 0 0 0 0 0 0 0 0 0 0 0 0 0 127 0"/>
<feOffset dy="2.50095"/>
<feGaussianBlur stdDeviation="2.50095"/>
<feColorMatrix type="matrix" values="0 0 0 0 0 0 0 0 0 0.0823529 0 0 0 0 0.25098 0 0 0 0.08 0"/>
<feBlend mode="normal" in2="BackgroundImageFix" result="effect1_dropShadow"/>
<feColorMatrix in="SourceAlpha" type="matrix" values="0 0 0 0 0 0 0 0 0 0 0 0 0 0 0 0 0 0 127 0"/>
<feOffset dy="7.50285"/>
<feGaussianBlur stdDeviation="20.0076"/>
<feColorMatrix type="matrix" values="0 0 0 0 0 0 0 0 0 0.0823529 0 0 0 0 0.25098 0 0 0 0.12 0"/>
<feBlend mode="normal" in2="effect1_dropShadow" result="effect2_dropShadow"/>
<feBlend mode="normal" in="SourceGraphic" in2="effect2_dropShadow" result="shape"/>
<feColorMatrix in="SourceAlpha" type="matrix" values="0 0 0 0 0 0 0 0 0 0 0 0 0 0 0 0 0 0 127 0" result="hardAlpha"/>
<feOffset dy="-5.0019"/>
<feGaussianBlur stdDeviation="7.50285"/>
<feComposite in2="hardAlpha" operator="arithmetic" k2="-1" k3="1"/>
<feColorMatrix type="matrix" values="0 0 0 0 0.432 0 0 0 0 0.488 0 0 0 0 0.6 0 0 0 0.24 0"/>
<feBlend mode="normal" in2="shape" result="effect3_innerShadow"/>
<feColorMatrix in="SourceAlpha" type="matrix" values="0 0 0 0 0 0 0 0 0 0 0 0 0 0 0 0 0 0 127 0" result="hardAlpha"/>
<feOffset/>
<feGaussianBlur stdDeviation="2.50095"/>
<feComposite in2="hardAlpha" operator="arithmetic" k2="-1" k3="1"/>
<feColorMatrix type="matrix" values="0 0 0 0 0.432 0 0 0 0 0.488 0 0 0 0 0.6 0 0 0 0.24 0"/>
<feBlend mode="normal" in2="effect3_innerShadow" result="effect4_innerShadow"/>
</filter>
<filter id="filter4_i" x="133.242" y="321.574" width="131.96" height="18.0749" filterUnits="userSpaceOnUse" color-interpolation-filters="sRGB">
<feFlood flood-opacity="0" result="BackgroundImageFix"/>
<feBlend mode="normal" in="SourceGraphic" in2="BackgroundImageFix" result="shape"/>
<feColorMatrix in="SourceAlpha" type="matrix" values="0 0 0 0 0 0 0 0 0 0 0 0 0 0 0 0 0 0 127 0" result="hardAlpha"/>
<feOffset dy="2.87891"/>
<feGaussianBlur stdDeviation="3.9585"/>
<feComposite in2="hardAlpha" operator="arithmetic" k2="-1" k3="1"/>
<feColorMatrix type="matrix" values="0 0 0 0 0.566871 0 0 0 0 0.117122 0 0 0 0 0.724891 0 0 0 0.85 0"/>
<feBlend mode="normal" in2="shape" result="effect1_innerShadow"/>
</filter>
<linearGradient id="paint0_linear" x1="205.448" y1="447.618" x2="428.035" y2="575.094" gradientUnits="userSpaceOnUse">
<stop stop-color="#7D15A1"/>
<stop offset="1" stop-color="#B675A8"/>
</linearGradient>
<linearGradient id="paint1_linear" x1="219.163" y1="406.886" x2="211.92" y2="303.713" gradientUnits="userSpaceOnUse">
<stop stop-color="white"/>
<stop offset="0.181" stop-color="#D8D3D9"/>
<stop offset="0.713" stop-color="white"/>
<stop offset="0.757" stop-color="#FEFEFE"/>
<stop offset="0.807" stop-color="white"/>
<stop offset="1" stop-color="white"/>
</linearGradient>
<linearGradient id="paint2_linear" x1="219.004" y1="421.162" x2="198.996" y2="250.383" gradientUnits="userSpaceOnUse">
<stop stop-color="white"/>
<stop offset="0.181" stop-color="#D8D3D9"/>
<stop offset="0.713" stop-color="white"/>
<stop offset="0.757" stop-color="#FEFEFE"/>
<stop offset="0.807" stop-color="white"/>
<stop offset="1" stop-color="white"/>
</linearGradient>
<linearGradient id="paint3_linear" x1="199.163" y1="304.607" x2="199.163" y2="385.916" gradientUnits="userSpaceOnUse">
<stop offset="0.044" stop-color="#F5F7FA"/>
<stop offset="0.216" stop-color="white"/>
<stop offset="0.628" stop-color="white"/>
<stop offset="1" stop-color="white"/>
</linearGradient>
<linearGradient id="paint4_linear" x1="199.163" y1="385.916" x2="199.163" y2="304.607" gradientUnits="userSpaceOnUse">
<stop stop-color="#685242"/>
<stop offset="0.181" stop-color="#A98161"/>
<stop offset="1" stop-color="#8D6D55"/>
</linearGradient>
<linearGradient id="paint5_linear" x1="218.56" y1="389.723" x2="218.339" y2="372.074" gradientUnits="userSpaceOnUse">
<stop stop-color="white"/>
<stop offset="0.181" stop-color="#D8D3D9"/>
<stop offset="0.713" stop-color="white"/>
<stop offset="0.757" stop-color="#FEFEFE"/>
<stop offset="0.807" stop-color="white"/>
<stop offset="1" stop-color="white"/>
</linearGradient>
<linearGradient id="paint6_linear" x1="180.994" y1="144.379" x2="190.058" y2="144.379" gradientUnits="userSpaceOnUse">
<stop stop-color="#9362F5"/>
<stop offset="0.6962" stop-color="#9362F5"/>
</linearGradient>
<linearGradient id="paint7_linear" x1="200.577" y1="144.425" x2="209.641" y2="144.425" gradientUnits="userSpaceOnUse">
<stop stop-color="#9362F5"/>
<stop offset="0.6962" stop-color="#9362F5"/>
</linearGradient>
</defs>
</svg>
