<svg xmlns="http://www.w3.org/2000/svg" xmlns:xlink="http://www.w3.org/1999/xlink" viewBox="0 0 786.64 569.33"><defs><style>.desktop-video-ads-1,.desktop-video-ads-2{fill:none;stroke:#1d1d1b;stroke-miterlimit:10;}.desktop-video-ads-1{stroke-width:3px;}.desktop-video-ads-2{stroke-width:2px;}.desktop-video-ads-3{fill:#c6c6c6;}.desktop-video-ads-4{fill:url(#Smarty);}.desktop-video-ads-5{fill:#fff;}</style><linearGradient id="Smarty" x1="589.73" y1="194.27" x2="746.65" y2="103.67" gradientUnits="userSpaceOnUse"><stop offset="0" stop-color="#fbb640"/><stop offset="1" stop-color="#b36ea4"/></linearGradient></defs><title>desktop-video-ads</title><g id="Layer_1" data-name="Layer 1"><rect class="desktop-video-ads-1" x="1.5" y="51.38" width="783.64" height="516.45"/><path class="desktop-video-ads-1" d="M44.29,1.5H742.36a42.79,42.79,0,0,1,42.79,42.79v7.5a0,0,0,0,1,0,0H1.5a0,0,0,0,1,0,0v-7.5A42.79,42.79,0,0,1,44.29,1.5Z"/><circle class="desktop-video-ads-2" cx="44.38" cy="26.46" r="8.67"/><circle class="desktop-video-ads-2" cx="68.64" cy="26.46" r="8.67"/><circle class="desktop-video-ads-2" cx="92.91" cy="26.46" r="8.67"/></g><g id="Layer_2" data-name="Layer 2"><rect class="desktop-video-ads-3" x="581.27" y="240.9" width="174.72" height="275.73" rx="42.26" ry="42.26"/><rect class="desktop-video-ads-4" x="580.83" y="88.16" width="174.72" height="121.63" rx="42.26" ry="42.26"/><rect class="desktop-video-ads-3" x="25.9" y="87.82" width="376.05" height="10.5" rx="5.25" ry="5.25"/><rect class="desktop-video-ads-3" x="25.9" y="124.82" width="376.05" height="10.5" rx="5.25" ry="5.25"/><rect class="desktop-video-ads-3" x="25.9" y="161.82" width="376.05" height="10.5" rx="5.25" ry="5.25"/><rect class="desktop-video-ads-3" x="25.9" y="198.82" width="517.72" height="10.5" rx="5.25" ry="5.25"/><rect class="desktop-video-ads-3" x="431.24" y="88.33" width="111.09" height="83.75" rx="5.25" ry="5.25"/><rect class="desktop-video-ads-3" x="25.9" y="240.82" width="376.05" height="10.5" rx="5.25" ry="5.25"/><rect class="desktop-video-ads-3" x="25.9" y="277.82" width="376.05" height="10.5" rx="5.25" ry="5.25"/><rect class="desktop-video-ads-3" x="25.9" y="314.82" width="376.05" height="10.5" rx="5.25" ry="5.25"/><rect class="desktop-video-ads-3" x="25.9" y="351.82" width="517.72" height="10.5" rx="5.25" ry="5.25"/><rect class="desktop-video-ads-3" x="431.24" y="241.32" width="111.09" height="83.75" rx="5.25" ry="5.25"/><rect class="desktop-video-ads-3" x="25.9" y="393.81" width="376.05" height="10.5" rx="5.25" ry="5.25"/><rect class="desktop-video-ads-3" x="25.9" y="430.81" width="376.05" height="10.5" rx="5.25" ry="5.25"/><rect class="desktop-video-ads-3" x="25.9" y="467.81" width="376.05" height="10.5" rx="5.25" ry="5.25"/><rect class="desktop-video-ads-3" x="25.9" y="504.81" width="517.72" height="10.5" rx="5.25" ry="5.25"/><rect class="desktop-video-ads-3" x="431.24" y="394.31" width="111.09" height="83.75" rx="5.25" ry="5.25"/><g id="aSyGey"><path class="desktop-video-ads-5" d="M660.55,150.26c0-3.54,0-7.08,0-10.62,0-1.79.89-2.32,2.41-1.42q8.68,5.14,17.34,10.32c1.71,1,1.69,2.64-.06,3.68q-8.6,5.14-17.23,10.25c-1.6.95-2.46.43-2.46-1.45C660.55,157.43,660.55,153.84,660.55,150.26Z"/></g></g></svg>