<svg xmlns="http://www.w3.org/2000/svg" xmlns:xlink="http://www.w3.org/1999/xlink" viewBox="0 0 786.64 569.33"><defs><style>.desktop-ads-1,.desktop-ads-2{fill:none;stroke:#1d1d1b;stroke-miterlimit:10;}.desktop-ads-1{stroke-width:3px;}.desktop-ads-2{stroke-width:2px;}.desktop-ads-3{fill:url(#Smarty);}.desktop-ads-4{fill:#c6c6c6;}.desktop-ads-5{fill:#fff;}</style><linearGradient id="Smarty" x1="533.82" y1="351.46" x2="803.45" y2="253.33" gradientUnits="userSpaceOnUse"><stop offset="0" stop-color="#fbb640"/><stop offset="1" stop-color="#b36ea4"/></linearGradient></defs><title>desktop-adds</title><g id="Layer_1" data-name="Layer 1"><rect class="desktop-ads-1" x="1.5" y="51.38" width="783.64" height="516.45"/><path class="desktop-ads-1" d="M44.29,1.5H742.36a42.79,42.79,0,0,1,42.79,42.79v7.5a0,0,0,0,1,0,0H1.5a0,0,0,0,1,0,0v-7.5A42.79,42.79,0,0,1,44.29,1.5Z"/><circle class="desktop-ads-2" cx="44.38" cy="26.46" r="8.67"/><circle class="desktop-ads-2" cx="68.64" cy="26.46" r="8.67"/><circle class="desktop-ads-2" cx="92.91" cy="26.46" r="8.67"/></g><g id="Layer_2" data-name="Layer 2"><rect class="desktop-ads-3" x="581.27" y="88.17" width="174.72" height="428.46" rx="42.26" ry="42.26"/><rect class="desktop-ads-4" x="25.9" y="87.82" width="376.05" height="10.5" rx="5.25" ry="5.25"/><rect class="desktop-ads-4" x="25.9" y="124.82" width="376.05" height="10.5" rx="5.25" ry="5.25"/><rect class="desktop-ads-4" x="25.9" y="161.82" width="376.05" height="10.5" rx="5.25" ry="5.25"/><rect class="desktop-ads-4" x="25.9" y="198.82" width="517.72" height="10.5" rx="5.25" ry="5.25"/><rect class="desktop-ads-4" x="431.24" y="88.33" width="111.09" height="83.75" rx="5.25" ry="5.25"/><rect class="desktop-ads-4" x="25.9" y="240.82" width="376.05" height="10.5" rx="5.25" ry="5.25"/><rect class="desktop-ads-4" x="25.9" y="277.82" width="376.05" height="10.5" rx="5.25" ry="5.25"/><rect class="desktop-ads-4" x="25.9" y="314.82" width="376.05" height="10.5" rx="5.25" ry="5.25"/><rect class="desktop-ads-4" x="25.9" y="351.82" width="517.72" height="10.5" rx="5.25" ry="5.25"/><rect class="desktop-ads-4" x="431.24" y="241.32" width="111.09" height="83.75" rx="5.25" ry="5.25"/><rect class="desktop-ads-4" x="25.9" y="393.81" width="376.05" height="10.5" rx="5.25" ry="5.25"/><rect class="desktop-ads-4" x="25.9" y="430.81" width="376.05" height="10.5" rx="5.25" ry="5.25"/><rect class="desktop-ads-4" x="25.9" y="467.81" width="376.05" height="10.5" rx="5.25" ry="5.25"/><rect class="desktop-ads-4" x="25.9" y="504.81" width="517.72" height="10.5" rx="5.25" ry="5.25"/><rect class="desktop-ads-4" x="431.24" y="394.31" width="111.09" height="83.75" rx="5.25" ry="5.25"/><path class="desktop-ads-5" d="M648.28,129.63a2.59,2.59,0,0,1-.24,1.15,2.09,2.09,0,0,1-.67.79,3,3,0,0,1-1,.46,5.64,5.64,0,0,1-1.35.15h-.59l-.72,0-.77-.08a4.49,4.49,0,0,1-.7-.13q-.37-.09-.37-.35V131a.23.23,0,0,1,.09-.19.36.36,0,0,1,.23-.07h.07l.7.07.77.06.72,0,.58,0a2.58,2.58,0,0,0,1.3-.26,1.05,1.05,0,0,0,.44-1,1,1,0,0,0-.28-.7,5.29,5.29,0,0,0-1-.76l-1.78-1.06a5.18,5.18,0,0,1-1.3-1.08,2.16,2.16,0,0,1-.49-1.44,2.34,2.34,0,0,1,.25-1.14,2,2,0,0,1,.67-.72,2.73,2.73,0,0,1,1-.38,7.09,7.09,0,0,1,1.27-.11q.74,0,1.44.06t1.31.17q.33.05.33.35v.58a.26.26,0,0,1-.3.3h-.05l-1.22-.09q-.77-.05-1.51-.05a3.33,3.33,0,0,0-1.19.18q-.45.18-.45.85a.94.94,0,0,0,.3.7,4.68,4.68,0,0,0,.92.64l1.74,1a4.82,4.82,0,0,1,1.52,1.27A2.41,2.41,0,0,1,648.28,129.63Z"/><path class="desktop-ads-5" d="M661.92,132a.34.34,0,0,1-.25.11h-.85a.36.36,0,0,1-.35-.35v-6.24a2.93,2.93,0,0,0-.12-.92A1.46,1.46,0,0,0,660,124a1.18,1.18,0,0,0-.51-.3,2.24,2.24,0,0,0-.63-.09,4,4,0,0,0-1,.14,10.38,10.38,0,0,0-1,.33,5.27,5.27,0,0,1,.16,1.37v6.27a.37.37,0,0,1-.09.25.28.28,0,0,1-.23.11h-.93a.26.26,0,0,1-.22-.11.4.4,0,0,1-.08-.25v-6.27a4.55,4.55,0,0,0-.08-.94,1.26,1.26,0,0,0-.26-.56.87.87,0,0,0-.43-.27,2.24,2.24,0,0,0-.59-.07,3,3,0,0,0-1,.2,10.79,10.79,0,0,0-1.12.48v7.44a.37.37,0,0,1-.09.25.28.28,0,0,1-.23.11h-.93a.26.26,0,0,1-.22-.11.4.4,0,0,1-.08-.25v-9a.35.35,0,0,1,.1-.25.31.31,0,0,1,.24-.11h.88a.31.31,0,0,1,.24.11.35.35,0,0,1,.1.25v.33a6.52,6.52,0,0,1,1.18-.58,3.9,3.9,0,0,1,1.39-.25,2.74,2.74,0,0,1,1,.17,1.94,1.94,0,0,1,.77.55,7.83,7.83,0,0,1,1.49-.54,6,6,0,0,1,1.44-.19,3.82,3.82,0,0,1,1.12.16,2.2,2.2,0,0,1,.91.54,2.58,2.58,0,0,1,.61,1,4.69,4.69,0,0,1,.22,1.54v6.24A.34.34,0,0,1,661.92,132Z"/><path class="desktop-ads-5" d="M671.17,131.71a.36.36,0,0,1-.35.35H670a.36.36,0,0,1-.35-.35v-.39a8.22,8.22,0,0,1-1.3.62,4,4,0,0,1-1.41.25,4.38,4.38,0,0,1-1.08-.13,2.26,2.26,0,0,1-.92-.47,2.36,2.36,0,0,1-.63-.88,3.45,3.45,0,0,1-.24-1.37v-.21a3.25,3.25,0,0,1,.22-1.24,2.05,2.05,0,0,1,.72-.9,3.51,3.51,0,0,1,1.31-.54,9.55,9.55,0,0,1,2-.18h1.3v-.7a2.23,2.23,0,0,0-.42-1.55,2,2,0,0,0-1.46-.44q-.86,0-1.52,0l-1.18.1h-.09a.45.45,0,0,1-.22-.05q-.1-.05-.1-.23v-.62q0-.28.37-.33.55-.09,1.19-.16a14.46,14.46,0,0,1,1.54-.07,3.42,3.42,0,0,1,2.63.88,3.48,3.48,0,0,1,.8,2.43Zm-1.55-4.34h-1.3a7.53,7.53,0,0,0-1.32.1,2.19,2.19,0,0,0-.83.3,1.09,1.09,0,0,0-.42.53,2.28,2.28,0,0,0-.12.8v.21a1.55,1.55,0,0,0,.42,1.28,1.92,1.92,0,0,0,1.2.33,3.94,3.94,0,0,0,1.18-.18,6.43,6.43,0,0,0,1.2-.53Z"/><path class="desktop-ads-5" d="M677.55,123.6a4.23,4.23,0,0,0-1.19.17,5.32,5.32,0,0,0-1.24.57v7.37a.36.36,0,0,1-.35.35h-.86a.31.31,0,0,1-.24-.11.35.35,0,0,1-.1-.25v-9a.35.35,0,0,1,.1-.25.31.31,0,0,1,.24-.11h.83a.31.31,0,0,1,.24.11.36.36,0,0,1,.1.25v.38a4.94,4.94,0,0,1,1.28-.66,3.92,3.92,0,0,1,1.21-.2q.37,0,.37.32v.73Q677.92,123.6,677.55,123.6Z"/><path class="desktop-ads-5" d="M684.42,132.1l-.58.06-.56,0a5.13,5.13,0,0,1-1.07-.1,1.57,1.57,0,0,1-.74-.36A1.64,1.64,0,0,1,681,131a3.87,3.87,0,0,1-.15-1.18v-6.15l-1.71-.19q-.33,0-.33-.32v-.48q0-.32.33-.32h1.71v-1.73a.33.33,0,0,1,.32-.35l.92-.14h.05a.25.25,0,0,1,.19.08.3.3,0,0,1,.08.22v1.92h1.9a.36.36,0,0,1,.35.35v.6a.36.36,0,0,1-.35.35h-1.9v6.14a1.32,1.32,0,0,0,.21.91,1.1,1.1,0,0,0,.74.19h1q.37,0,.37.25v.63Q684.74,132,684.42,132.1Z"/><path class="desktop-ads-5" d="M693.9,122.67a.31.31,0,0,1,0,.12L691,132.94a8,8,0,0,1-.45,1.22,2.36,2.36,0,0,1-.61.8,2.32,2.32,0,0,1-.89.45,5,5,0,0,1-1.28.14,7.44,7.44,0,0,1-.78,0,5.2,5.2,0,0,1-.7-.11,1.17,1.17,0,0,1-.26-.09.2.2,0,0,1-.11-.19v-.65q0-.28.33-.28h.05l.78.07.78,0a3.08,3.08,0,0,0,.65-.06A1.13,1.13,0,0,0,689,134a1.44,1.44,0,0,0,.35-.46,3.26,3.26,0,0,0,.26-.75l.18-.72h-.25a2,2,0,0,1-.38,0,.86.86,0,0,1-.35-.16,1.16,1.16,0,0,1-.31-.37,3.22,3.22,0,0,1-.26-.65l-2.34-8.05a.3.3,0,0,1,0-.12q0-.3.32-.3h1a.24.24,0,0,1,.18.09.55.55,0,0,1,.11.19l2.08,7.66a.61.61,0,0,0,.16.33.31.31,0,0,0,.18.06h.28l2.15-8.07a.43.43,0,0,1,.12-.19.3.3,0,0,1,.21-.08h1Q693.9,122.37,693.9,122.67Z"/><path class="desktop-ads-5" d="M702.54,131.71a.36.36,0,0,1-.35.35h-.81a.36.36,0,0,1-.35-.35v-.39a8.23,8.23,0,0,1-1.3.62,4,4,0,0,1-1.41.25,4.37,4.37,0,0,1-1.08-.13,2.26,2.26,0,0,1-.92-.47,2.36,2.36,0,0,1-.63-.88,3.45,3.45,0,0,1-.24-1.37v-.21a3.25,3.25,0,0,1,.22-1.24,2.05,2.05,0,0,1,.72-.9,3.51,3.51,0,0,1,1.31-.54,9.55,9.55,0,0,1,2-.18H701v-.7a2.23,2.23,0,0,0-.42-1.55,2,2,0,0,0-1.46-.44q-.86,0-1.52,0l-1.18.1h-.09a.45.45,0,0,1-.22-.05q-.1-.05-.1-.23v-.62q0-.28.37-.33.55-.09,1.19-.16a14.45,14.45,0,0,1,1.54-.07,3.42,3.42,0,0,1,2.63.88,3.48,3.48,0,0,1,.8,2.43ZM701,127.37h-1.3a7.53,7.53,0,0,0-1.32.1,2.19,2.19,0,0,0-.83.3,1.09,1.09,0,0,0-.42.53,2.28,2.28,0,0,0-.12.8v.21a1.55,1.55,0,0,0,.42,1.28,1.93,1.93,0,0,0,1.2.33,3.94,3.94,0,0,0,1.18-.18,6.43,6.43,0,0,0,1.2-.53Z"/><path class="desktop-ads-5" d="M712.07,131.48a.51.51,0,0,1-.06.27.43.43,0,0,1-.31.13,16.26,16.26,0,0,1-1.63.23q-.8.07-1.61.07a4.33,4.33,0,0,1-1.71-.31,3.16,3.16,0,0,1-1.2-.87,3.63,3.63,0,0,1-.7-1.37,6.59,6.59,0,0,1-.23-1.8v-1.27a4.8,4.8,0,0,1,1-3.2,3.58,3.58,0,0,1,2.89-1.12q.41,0,1,0t1.08.13v-3.28a.33.33,0,0,1,.33-.33h.9a.3.3,0,0,1,.23.1.34.34,0,0,1,.09.24Zm-1.55-7.75a6.33,6.33,0,0,0-1-.11l-1,0a2.72,2.72,0,0,0-1.09.19,1.65,1.65,0,0,0-.7.57,2.5,2.5,0,0,0-.38.93,6.25,6.25,0,0,0-.11,1.26v1.27a4.15,4.15,0,0,0,.49,2.22,2,2,0,0,0,1.8.78q.46,0,1,0l1-.07Z"/><path class="desktop-ads-5" d="M720.6,129.63a2.59,2.59,0,0,1-.24,1.15,2.09,2.09,0,0,1-.67.79,3,3,0,0,1-1,.46,5.64,5.64,0,0,1-1.35.15h-.59l-.72,0-.77-.08a4.49,4.49,0,0,1-.7-.13q-.37-.09-.37-.35V131a.23.23,0,0,1,.09-.19.36.36,0,0,1,.23-.07h.07l.7.07.77.06.72,0,.58,0a2.58,2.58,0,0,0,1.3-.26,1.06,1.06,0,0,0,.44-1,1,1,0,0,0-.28-.7,5.28,5.28,0,0,0-1-.76l-1.78-1.06a5.18,5.18,0,0,1-1.3-1.08,2.16,2.16,0,0,1-.49-1.44,2.34,2.34,0,0,1,.25-1.14,2,2,0,0,1,.67-.72,2.73,2.73,0,0,1,1-.38,7.09,7.09,0,0,1,1.27-.11q.74,0,1.44.06t1.31.17q.33.05.33.35v.58a.26.26,0,0,1-.3.3h-.05l-1.22-.09q-.77-.05-1.51-.05a3.33,3.33,0,0,0-1.19.18q-.45.18-.45.85a.94.94,0,0,0,.3.7,4.68,4.68,0,0,0,.92.64l1.74,1a4.82,4.82,0,0,1,1.52,1.27A2.41,2.41,0,0,1,720.6,129.63Z"/><path class="desktop-ads-5" d="M629.44,135.56"/><path class="desktop-ads-5" d="M623.15,135.48a.49.49,0,0,1-.13-1l2.73-.77h-2.59a.49.49,0,0,1,0-1h6.16a.49.49,0,0,1,.13,1l-6.16,1.74Z"/><path class="desktop-ads-5" d="M623.15,137.8a.49.49,0,0,1-.13-1l6.16-1.74a.49.49,0,0,1,.27,1l-6.16,1.74Z"/><path class="desktop-ads-5" d="M626.21,138.87a.49.49,0,0,1-.13-1l.43.19c.26-.07,1-.36,1-.1a.49.49,0,0,1-.34.61l-.87.24Z"/><path class="desktop-ads-5" d="M628.48,131.62H624a1.37,1.37,0,0,1-1.37-1.37v-1.4a6.71,6.71,0,1,1,7.21,0v1.44A1.37,1.37,0,0,1,628.48,131.62Zm-2.27-14.17a5.72,5.72,0,0,0-2.83,10.69.49.49,0,0,1,.25.43v1.68a.38.38,0,0,0,.38.38h4.47a.39.39,0,0,0,.38-.38v-1.72a.49.49,0,0,1,.24-.43,5.72,5.72,0,0,0-2.9-10.65Z"/><path class="desktop-ads-5" d="M631.85,116.9a.44.44,0,0,1-.29-.77l1.75-1.53a.44.44,0,0,1,.58.66l-1.75,1.53A.44.44,0,0,1,631.85,116.9Z"/><path class="desktop-ads-5" d="M626.17,115a.44.44,0,0,1-.44-.44v-3.38a.44.44,0,1,1,.87,0v3.38A.44.44,0,0,1,626.17,115Z"/><path class="desktop-ads-5" d="M634.9,122.08a.44.44,0,0,1-.08-.87l3.07-.59a.44.44,0,1,1,.16.86l-3.07.59Z"/><path class="desktop-ads-5" d="M620.49,116.9a.44.44,0,0,1-.29-.11l-1.75-1.53a.44.44,0,0,1,.58-.66l1.75,1.53a.44.44,0,0,1-.29.77Z"/><path class="desktop-ads-5" d="M635.35,128.68a.43.43,0,0,1-.23-.07l-1.31-.82a.44.44,0,0,1,.46-.74l1.31.82a.44.44,0,0,1-.23.81Z"/><path class="desktop-ads-5" d="M617,128.46a.44.44,0,0,1-.23-.81l1.31-.82a.44.44,0,0,1,.46.74l-1.31.82A.44.44,0,0,1,617,128.46Z"/><path class="desktop-ads-5" d="M617.44,122.08h-.08l-3.07-.59a.44.44,0,0,1,.16-.86l3.07.59a.44.44,0,0,1-.08.87Z"/></g></svg>