<?xml version="1.0" encoding="UTF-8"?>
<svg width="1184px" height="571px" viewBox="0 0 1184 571" version="1.1" xmlns="http://www.w3.org/2000/svg" xmlns:xlink="http://www.w3.org/1999/xlink">
    <!-- Generator: Sketch 50.2 (55047) - http://www.bohemiancoding.com/sketch -->
    <title>Group 12</title>
    <desc>Created with Sketch.</desc>
    <defs>
        <linearGradient x1="-1.11022302e-14%" y1="50%" x2="100%" y2="50%" id="linearGradient-1">
            <stop stop-color="#FFFFFF" stop-opacity="0" offset="0%"></stop>
            <stop stop-color="#FFFFFF" offset="51.0996207%"></stop>
            <stop stop-color="#FFFFFF" stop-opacity="0" offset="100%"></stop>
        </linearGradient>
    </defs>
    <g id="Smartyads_web" stroke="none" stroke-width="1" fill="none" fill-rule="evenodd">
        <g id="In-House" transform="translate(-163.000000, -94.000000)">
            <g id="Group-12" transform="translate(108.000000, 94.000000)">
                <g id="circle/white" opacity="0.5" transform="translate(388.000000, 70.000000)" fill="#FFFFFF">
                    <g id="circle_yellow">
                        <circle id="Oval" opacity="0.2" cx="224" cy="224" r="224"></circle>
                        <circle id="Oval" opacity="0.4" cx="224" cy="224" r="163.409836"></circle>
                        <circle id="Oval" cx="224" cy="224" r="95.4754098"></circle>
                    </g>
                </g>
                <path d="M73.94976,377.13408 C74.6409635,377.352961 75.182398,377.718717 75.57408,378.23136 C75.965762,378.744003 76.1616,379.374716 76.1616,380.12352 C76.1616,381.183365 75.7497641,381.998397 74.92608,382.56864 C74.1023959,383.138883 72.9014479,383.424 71.3232,383.424 L65.06784,383.424 L65.06784,371.328 L70.9776,371.328 C72.4521674,371.328 73.5839961,371.610237 74.37312,372.17472 C75.1622439,372.739203 75.5568,373.505275 75.5568,374.47296 C75.5568,375.060483 75.4156814,375.584638 75.13344,376.04544 C74.8511986,376.506242 74.4566425,376.869119 73.94976,377.13408 Z M67.84992,373.43616 L67.84992,376.28736 L70.632,376.28736 C71.3232035,376.28736 71.8473582,376.166401 72.20448,375.92448 C72.5616018,375.682559 72.74016,375.325442 72.74016,374.85312 C72.74016,374.380798 72.5616018,374.026561 72.20448,373.7904 C71.8473582,373.554239 71.3232035,373.43616 70.632,373.43616 L67.84992,373.43616 Z M71.11584,381.31584 C71.8531237,381.31584 72.4089581,381.194881 72.78336,380.95296 C73.1577619,380.711039 73.34496,380.336643 73.34496,379.82976 C73.34496,378.827515 72.6019274,378.3264 71.11584,378.3264 L67.84992,378.3264 L67.84992,381.31584 L71.11584,381.31584 Z M80.67168,375.35424 C80.9942416,374.904958 81.4291173,374.565121 81.97632,374.33472 C82.5235227,374.104319 83.1542364,373.98912 83.86848,373.98912 L83.86848,376.47744 C83.5689585,376.4544 83.3673605,376.44288 83.26368,376.44288 C82.4918361,376.44288 81.8870422,376.658878 81.44928,377.09088 C81.0115178,377.522882 80.79264,378.170876 80.79264,379.03488 L80.79264,383.424 L78.09696,383.424 L78.09696,374.12736 L80.67168,374.12736 L80.67168,375.35424 Z M89.2944,373.98912 C90.7344072,373.98912 91.8403161,374.331837 92.61216,375.01728 C93.3840039,375.702723 93.76992,376.736633 93.76992,378.11904 L93.76992,383.424 L91.24704,383.424 L91.24704,382.26624 C90.7401575,383.130244 89.7955269,383.56224 88.41312,383.56224 C87.6988764,383.56224 87.0796826,383.441281 86.55552,383.19936 C86.0313574,382.957439 85.6310414,382.623362 85.35456,382.19712 C85.0780786,381.770878 84.93984,381.287043 84.93984,380.7456 C84.93984,379.881596 85.2652767,379.201922 85.91616,378.70656 C86.5670433,378.211198 87.5721532,377.96352 88.93152,377.96352 L91.07424,377.96352 C91.07424,377.375997 90.8956818,376.923842 90.53856,376.60704 C90.1814382,376.290238 89.6457636,376.13184 88.93152,376.13184 C88.4361575,376.13184 87.9494424,376.209599 87.47136,376.36512 C86.9932776,376.520641 86.5872017,376.730879 86.25312,376.99584 L85.28544,375.11232 C85.7923225,374.755198 86.3999965,374.478721 87.10848,374.28288 C87.8169635,374.087039 88.5455963,373.98912 89.2944,373.98912 Z M89.08704,381.74784 C89.5478423,381.74784 89.9567982,381.641281 90.31392,381.42816 C90.6710418,381.215039 90.9244793,380.901122 91.07424,380.4864 L91.07424,379.536 L89.22528,379.536 C88.1193545,379.536 87.5664,379.898876 87.5664,380.62464 C87.5664,380.970242 87.7017586,381.243839 87.97248,381.44544 C88.2432014,381.647041 88.6147176,381.74784 89.08704,381.74784 Z M101.85696,373.98912 C103.008966,373.98912 103.939196,374.334717 104.64768,375.02592 C105.356164,375.717123 105.7104,376.742393 105.7104,378.10176 L105.7104,383.424 L103.01472,383.424 L103.01472,378.51648 C103.01472,377.779196 102.853442,377.229122 102.53088,376.86624 C102.208318,376.503358 101.741763,376.32192 101.1312,376.32192 C100.451517,376.32192 99.910082,376.532158 99.50688,376.95264 C99.103678,377.373122 98.90208,377.998076 98.90208,378.82752 L98.90208,383.424 L96.2064,383.424 L96.2064,374.12736 L98.78112,374.12736 L98.78112,375.216 C99.1382418,374.824318 99.5817574,374.521921 100.11168,374.3088 C100.641603,374.095679 101.223357,373.98912 101.85696,373.98912 Z M117.61632,370.60224 L117.61632,383.424 L115.0416,383.424 L115.0416,382.35264 C114.373437,383.159044 113.405766,383.56224 112.13856,383.56224 C111.263036,383.56224 110.471044,383.366402 109.76256,382.97472 C109.054076,382.583038 108.498242,382.024324 108.09504,381.29856 C107.691838,380.572796 107.49024,379.731845 107.49024,378.77568 C107.49024,377.819515 107.691838,376.978564 108.09504,376.2528 C108.498242,375.527036 109.054076,374.968322 109.76256,374.57664 C110.471044,374.184958 111.263036,373.98912 112.13856,373.98912 C113.325126,373.98912 114.252477,374.363516 114.92064,375.11232 L114.92064,370.60224 L117.61632,370.60224 Z M112.60512,381.3504 C113.284803,381.3504 113.849278,381.117122 114.29856,380.65056 C114.747842,380.183998 114.97248,379.559044 114.97248,378.77568 C114.97248,377.992316 114.747842,377.367362 114.29856,376.9008 C113.849278,376.434238 113.284803,376.20096 112.60512,376.20096 C111.913917,376.20096 111.343682,376.434238 110.8944,376.9008 C110.445118,377.367362 110.22048,377.992316 110.22048,378.77568 C110.22048,379.559044 110.445118,380.183998 110.8944,380.65056 C111.343682,381.117122 111.913917,381.3504 112.60512,381.3504 Z M129.15936,383.63136 C128.203195,383.63136 127.278724,383.501761 126.38592,383.24256 C125.493116,382.983359 124.776003,382.646402 124.23456,382.23168 L125.18496,380.12352 C125.703363,380.503682 126.319676,380.808959 127.03392,381.03936 C127.748164,381.269761 128.462396,381.38496 129.17664,381.38496 C129.971524,381.38496 130.559038,381.266881 130.9392,381.03072 C131.319362,380.794559 131.50944,380.480642 131.50944,380.08896 C131.50944,379.800959 131.397121,379.561921 131.17248,379.37184 C130.947839,379.181759 130.659842,379.029121 130.30848,378.91392 C129.957118,378.798719 129.481923,378.672001 128.88288,378.53376 C127.961275,378.314879 127.206723,378.096001 126.6192,377.87712 C126.031677,377.658239 125.527682,377.306882 125.1072,376.82304 C124.686718,376.339198 124.47648,375.694084 124.47648,374.88768 C124.47648,374.184956 124.666558,373.548483 125.04672,372.97824 C125.426882,372.407997 125.999996,371.955842 126.76608,371.62176 C127.532164,371.287678 128.468154,371.12064 129.57408,371.12064 C130.345924,371.12064 131.100476,371.212799 131.83776,371.39712 C132.575044,371.581441 133.220157,371.846398 133.77312,372.192 L132.90912,374.31744 C131.791674,373.683837 130.674246,373.36704 129.5568,373.36704 C128.773436,373.36704 128.194562,373.493759 127.82016,373.7472 C127.445758,374.000641 127.25856,374.334718 127.25856,374.74944 C127.25856,375.164162 127.474558,375.472319 127.90656,375.67392 C128.338562,375.875521 128.998076,376.074239 129.88512,376.27008 C130.806725,376.488961 131.561277,376.707839 132.1488,376.92672 C132.736323,377.145601 133.240318,377.491198 133.6608,377.96352 C134.081282,378.435842 134.29152,379.075196 134.29152,379.8816 C134.29152,380.572803 134.098562,381.203517 133.71264,381.77376 C133.326718,382.344003 132.747844,382.796158 131.976,383.13024 C131.204156,383.464322 130.265286,383.63136 129.15936,383.63136 Z M139.76928,373.98912 C141.209287,373.98912 142.315196,374.331837 143.08704,375.01728 C143.858884,375.702723 144.2448,376.736633 144.2448,378.11904 L144.2448,383.424 L141.72192,383.424 L141.72192,382.26624 C141.215037,383.130244 140.270407,383.56224 138.888,383.56224 C138.173756,383.56224 137.554563,383.441281 137.0304,383.19936 C136.506237,382.957439 136.105921,382.623362 135.82944,382.19712 C135.552959,381.770878 135.41472,381.287043 135.41472,380.7456 C135.41472,379.881596 135.740157,379.201922 136.39104,378.70656 C137.041923,378.211198 138.047033,377.96352 139.4064,377.96352 L141.54912,377.96352 C141.54912,377.375997 141.370562,376.923842 141.01344,376.60704 C140.656318,376.290238 140.120644,376.13184 139.4064,376.13184 C138.911038,376.13184 138.424322,376.209599 137.94624,376.36512 C137.468158,376.520641 137.062082,376.730879 136.728,376.99584 L135.76032,375.11232 C136.267203,374.755198 136.874876,374.478721 137.58336,374.28288 C138.291844,374.087039 139.020476,373.98912 139.76928,373.98912 Z M139.56192,381.74784 C140.022722,381.74784 140.431678,381.641281 140.7888,381.42816 C141.145922,381.215039 141.399359,380.901122 141.54912,380.4864 L141.54912,379.536 L139.70016,379.536 C138.594234,379.536 138.04128,379.898876 138.04128,380.62464 C138.04128,380.970242 138.176639,381.243839 138.44736,381.44544 C138.718081,381.647041 139.089598,381.74784 139.56192,381.74784 Z M149.63616,374.33472 L152.0208,374.33472 L152.0208,376.40832 L149.70528,376.40832 L149.70528,383.424 L147.0096,383.424 L147.0096,376.40832 L145.57536,376.40832 L145.57536,374.33472 L147.0096,374.33472 L147.0096,373.92 C147.0096,372.860155 147.323517,372.019203 147.95136,371.39712 C148.579203,370.775037 149.463354,370.464 150.60384,370.464 C151.007042,370.464 151.390078,370.5072 151.75296,370.5936 C152.115842,370.68 152.418239,370.803839 152.66016,370.96512 L151.95168,372.91776 C151.640638,372.698879 151.277762,372.58944 150.86304,372.58944 C150.045116,372.58944 149.63616,373.038716 149.63616,373.93728 L149.63616,374.33472 Z M162.4752,378.81024 C162.4752,378.8448 162.45792,379.086718 162.42336,379.536 L155.3904,379.536 C155.517121,380.112003 155.816638,380.567038 156.28896,380.90112 C156.761282,381.235202 157.348796,381.40224 158.05152,381.40224 C158.535362,381.40224 158.964478,381.330241 159.33888,381.18624 C159.713282,381.042239 160.061758,380.814722 160.38432,380.50368 L161.81856,382.05888 C160.943036,383.061125 159.664328,383.56224 157.9824,383.56224 C156.934075,383.56224 156.006724,383.357762 155.20032,382.9488 C154.393916,382.539838 153.771842,381.972484 153.33408,381.24672 C152.896318,380.520956 152.67744,379.697285 152.67744,378.77568 C152.67744,377.865595 152.893438,377.044804 153.32544,376.31328 C153.757442,375.581756 154.350716,375.011522 155.10528,374.60256 C155.859844,374.193598 156.703675,373.98912 157.6368,373.98912 C158.546885,373.98912 159.370556,374.184958 160.10784,374.57664 C160.845124,374.968322 161.423998,375.529916 161.84448,376.26144 C162.264962,376.992964 162.4752,377.842555 162.4752,378.81024 Z M157.65408,376.02816 C157.043517,376.02816 156.530882,376.200958 156.11616,376.54656 C155.701438,376.892162 155.448,377.364477 155.35584,377.96352 L159.93504,377.96352 C159.84288,377.375997 159.589442,376.906562 159.17472,376.5552 C158.759998,376.203838 158.253123,376.02816 157.65408,376.02816 Z M170.26848,382.97472 C170.003519,383.170561 169.678082,383.31744 169.29216,383.41536 C168.906238,383.51328 168.500162,383.56224 168.07392,383.56224 C166.967994,383.56224 166.112643,383.280003 165.50784,382.71552 C164.903037,382.151037 164.60064,381.321605 164.60064,380.2272 L164.60064,376.40832 L163.1664,376.40832 L163.1664,374.33472 L164.60064,374.33472 L164.60064,372.07104 L167.29632,372.07104 L167.29632,374.33472 L169.61184,374.33472 L169.61184,376.40832 L167.29632,376.40832 L167.29632,380.19264 C167.29632,380.584322 167.397119,380.886719 167.59872,381.09984 C167.800321,381.312961 168.085438,381.41952 168.45408,381.41952 C168.880322,381.41952 169.243199,381.304321 169.54272,381.07392 L170.26848,382.97472 Z M181.01664,374.12736 L176.8176,383.99424 C176.391358,385.065605 175.864323,385.820158 175.23648,386.25792 C174.608637,386.695682 173.851204,386.91456 172.96416,386.91456 C172.480318,386.91456 172.002242,386.839681 171.52992,386.68992 C171.057598,386.540159 170.671681,386.332801 170.37216,386.06784 L171.35712,384.14976 C171.564481,384.334081 171.803519,384.478079 172.07424,384.58176 C172.344961,384.685441 172.612799,384.73728 172.87776,384.73728 C173.246402,384.73728 173.545919,384.648001 173.77632,384.46944 C174.006721,384.290879 174.214079,383.994242 174.3984,383.57952 L174.43296,383.49312 L170.40672,374.12736 L173.1888,374.12736 L175.79808,380.43456 L178.42464,374.12736 L181.01664,374.12736 Z" id="Brand-Safety" fill="#FFFFFF"></path>
                <g id="circle/white" transform="translate(55.296000, 223.000000)" fill="#FFFFFF">
                    <g id="circle_yellow">
                        <circle id="Oval" opacity="0.2" cx="66.9415735" cy="66.9415735" r="66.9415735"></circle>
                        <circle id="Oval" opacity="0.4" cx="66.9415735" cy="66.9415735" r="48.8344265"></circle>
                        <circle id="Oval" cx="66.9415735" cy="66.9415735" r="28.5324739"></circle>
                    </g>
                </g>
                <path d="M298.4989,155.2584 L294.8701,155.2584 L294.8701,153.12 L304.7521,153.12 L304.7521,155.2584 L301.1233,155.2584 L301.1233,164.46 L298.4989,164.46 L298.4989,155.2584 Z M308.3971,156.8946 C308.699502,156.473398 309.107197,156.154801 309.6202,155.9388 C310.133203,155.722799 310.724497,155.6148 311.3941,155.6148 L311.3941,157.9476 C311.113299,157.926 310.9243,157.9152 310.8271,157.9152 C310.103496,157.9152 309.536502,158.117698 309.1261,158.5227 C308.715698,158.927702 308.5105,159.535196 308.5105,160.3452 L308.5105,164.46 L305.9833,164.46 L305.9833,155.7444 L308.3971,155.7444 L308.3971,156.8946 Z M316.4809,155.6148 C317.830907,155.6148 318.867696,155.936097 319.5913,156.5787 C320.314904,157.221303 320.6767,158.190594 320.6767,159.4866 L320.6767,164.46 L318.3115,164.46 L318.3115,163.3746 C317.836298,164.184604 316.950706,164.5896 315.6547,164.5896 C314.985097,164.5896 314.404602,164.476201 313.9132,164.2494 C313.421798,164.022599 313.046501,163.709402 312.7873,163.3098 C312.528099,162.910198 312.3985,162.456603 312.3985,161.949 C312.3985,161.138996 312.703597,160.501802 313.3138,160.0374 C313.924003,159.572998 314.866294,159.3408 316.1407,159.3408 L318.1495,159.3408 C318.1495,158.789997 317.982102,158.366101 317.6473,158.0691 C317.312498,157.772099 316.810303,157.6236 316.1407,157.6236 C315.676298,157.6236 315.220002,157.696499 314.7718,157.8423 C314.323598,157.988101 313.942902,158.185199 313.6297,158.4336 L312.7225,156.6678 C313.197702,156.332998 313.767397,156.073801 314.4316,155.8902 C315.095803,155.706599 315.778896,155.6148 316.4809,155.6148 Z M316.2865,162.8886 C316.718502,162.8886 317.101898,162.788701 317.4367,162.5889 C317.771502,162.389099 318.009099,162.094802 318.1495,161.706 L318.1495,160.815 L316.4161,160.815 C315.379295,160.815 314.8609,161.155197 314.8609,161.8356 C314.8609,162.159602 314.987799,162.416099 315.2416,162.6051 C315.495401,162.794101 315.843698,162.8886 316.2865,162.8886 Z M328.2583,155.6148 C329.338305,155.6148 330.210397,155.938797 330.8746,156.5868 C331.538803,157.234803 331.8709,158.195994 331.8709,159.4704 L331.8709,164.46 L329.3437,164.46 L329.3437,159.8592 C329.3437,159.167997 329.192502,158.652302 328.8901,158.3121 C328.587698,157.971898 328.150303,157.8018 327.5779,157.8018 C326.940697,157.8018 326.433102,157.998898 326.0551,158.3931 C325.677098,158.787302 325.4881,159.373196 325.4881,160.1508 L325.4881,164.46 L322.9609,164.46 L322.9609,155.7444 L325.3747,155.7444 L325.3747,156.765 C325.709502,156.397798 326.125298,156.114301 326.6221,155.9145 C327.118902,155.714699 327.664297,155.6148 328.2583,155.6148 Z M337.0873,164.5896 C336.363696,164.5896 335.656303,164.500501 334.9651,164.3223 C334.273897,164.144099 333.723102,163.920001 333.3127,163.65 L334.1551,161.8356 C334.543902,162.084001 335.013697,162.286499 335.5645,162.4431 C336.115303,162.599701 336.655297,162.678 337.1845,162.678 C338.253705,162.678 338.7883,162.413403 338.7883,161.8842 C338.7883,161.635799 338.642501,161.457601 338.3509,161.3496 C338.059299,161.241599 337.611103,161.1498 337.0063,161.0742 C336.293496,160.966199 335.704902,160.842001 335.2405,160.7016 C334.776098,160.561199 334.373802,160.312802 334.0336,159.9564 C333.693398,159.599998 333.5233,159.092403 333.5233,158.4336 C333.5233,157.882797 333.682598,157.394102 334.0012,156.9675 C334.319802,156.540898 334.784197,156.208801 335.3944,155.9712 C336.004603,155.733599 336.725496,155.6148 337.5571,155.6148 C338.172703,155.6148 338.785597,155.682299 339.3958,155.8173 C340.006003,155.952301 340.510898,156.138599 340.9105,156.3762 L340.0681,158.1744 C339.301296,157.742398 338.464305,157.5264 337.5571,157.5264 C337.017097,157.5264 336.612101,157.601999 336.3421,157.7532 C336.072099,157.904401 335.9371,158.098799 335.9371,158.3364 C335.9371,158.606401 336.082899,158.795399 336.3745,158.9034 C336.666101,159.011401 337.130497,159.114 337.7677,159.2112 C338.480504,159.330001 339.063698,159.456899 339.5173,159.5919 C339.970902,159.726901 340.365098,159.972598 340.6999,160.329 C341.034702,160.685402 341.2021,161.182197 341.2021,161.8194 C341.2021,162.359403 341.040102,162.839998 340.7161,163.2612 C340.392098,163.682402 339.919603,164.009099 339.2986,164.2413 C338.677597,164.473501 337.940504,164.5896 337.0873,164.5896 Z M347.9089,155.6148 C348.718904,155.6148 349.455997,155.801098 350.1202,156.1737 C350.784403,156.546302 351.305498,157.070097 351.6835,157.7451 C352.061502,158.420103 352.2505,159.205796 352.2505,160.1022 C352.2505,160.998604 352.061502,161.784297 351.6835,162.4593 C351.305498,163.134303 350.784403,163.658098 350.1202,164.0307 C349.455997,164.403302 348.718904,164.5896 347.9089,164.5896 C346.796494,164.5896 345.921703,164.238604 345.2845,163.5366 L345.2845,167.6028 L342.7573,167.6028 L342.7573,155.7444 L345.1711,155.7444 L345.1711,156.7488 C345.797503,155.992796 346.710094,155.6148 347.9089,155.6148 Z M347.4715,162.516 C348.119503,162.516 348.651398,162.297302 349.0672,161.8599 C349.483002,161.422498 349.6909,160.836604 349.6909,160.1022 C349.6909,159.367796 349.483002,158.781902 349.0672,158.3445 C348.651398,157.907098 348.119503,157.6884 347.4715,157.6884 C346.823497,157.6884 346.291602,157.907098 345.8758,158.3445 C345.459998,158.781902 345.2521,159.367796 345.2521,160.1022 C345.2521,160.836604 345.459998,161.422498 345.8758,161.8599 C346.291602,162.297302 346.823497,162.516 347.4715,162.516 Z M357.4507,155.6148 C358.800707,155.6148 359.837496,155.936097 360.5611,156.5787 C361.284704,157.221303 361.6465,158.190594 361.6465,159.4866 L361.6465,164.46 L359.2813,164.46 L359.2813,163.3746 C358.806098,164.184604 357.920506,164.5896 356.6245,164.5896 C355.954897,164.5896 355.374402,164.476201 354.883,164.2494 C354.391598,164.022599 354.016301,163.709402 353.7571,163.3098 C353.497899,162.910198 353.3683,162.456603 353.3683,161.949 C353.3683,161.138996 353.673397,160.501802 354.2836,160.0374 C354.893803,159.572998 355.836094,159.3408 357.1105,159.3408 L359.1193,159.3408 C359.1193,158.789997 358.951902,158.366101 358.6171,158.0691 C358.282298,157.772099 357.780103,157.6236 357.1105,157.6236 C356.646098,157.6236 356.189802,157.696499 355.7416,157.8423 C355.293398,157.988101 354.912702,158.185199 354.5995,158.4336 L353.6923,156.6678 C354.167502,156.332998 354.737197,156.073801 355.4014,155.8902 C356.065603,155.706599 356.748696,155.6148 357.4507,155.6148 Z M357.2563,162.8886 C357.688302,162.8886 358.071698,162.788701 358.4065,162.5889 C358.741302,162.389099 358.978899,162.094802 359.1193,161.706 L359.1193,160.815 L357.3859,160.815 C356.349095,160.815 355.8307,161.155197 355.8307,161.8356 C355.8307,162.159602 355.957599,162.416099 356.2114,162.6051 C356.465201,162.794101 356.813498,162.8886 357.2563,162.8886 Z M366.3445,156.8946 C366.646902,156.473398 367.054597,156.154801 367.5676,155.9388 C368.080603,155.722799 368.671897,155.6148 369.3415,155.6148 L369.3415,157.9476 C369.060699,157.926 368.8717,157.9152 368.7745,157.9152 C368.050896,157.9152 367.483902,158.117698 367.0735,158.5227 C366.663098,158.927702 366.4579,159.535196 366.4579,160.3452 L366.4579,164.46 L363.9307,164.46 L363.9307,155.7444 L366.3445,155.7444 L366.3445,156.8946 Z M379.4503,160.1346 C379.4503,160.167 379.4341,160.393798 379.4017,160.815 L372.8083,160.815 C372.927101,161.355003 373.207898,161.781598 373.6507,162.0948 C374.093502,162.408002 374.644297,162.5646 375.3031,162.5646 C375.756702,162.5646 376.158998,162.497101 376.51,162.3621 C376.861002,162.227099 377.187698,162.013801 377.4901,161.7222 L378.8347,163.1802 C378.013896,164.119805 376.815108,164.5896 375.2383,164.5896 C374.255495,164.5896 373.386104,164.397902 372.6301,164.0145 C371.874096,163.631098 371.290902,163.099203 370.8805,162.4188 C370.470098,161.738397 370.2649,160.966204 370.2649,160.1022 C370.2649,159.248996 370.467398,158.479503 370.8724,157.7937 C371.277402,157.107897 371.833596,156.573302 372.541,156.1899 C373.248404,155.806498 374.039496,155.6148 374.9143,155.6148 C375.767504,155.6148 376.539697,155.798398 377.2309,156.1656 C377.922103,156.532802 378.464798,157.059297 378.859,157.7451 C379.253202,158.430903 379.4503,159.227395 379.4503,160.1346 Z M374.9305,157.5264 C374.358097,157.5264 373.877502,157.688398 373.4887,158.0124 C373.099898,158.336402 372.8623,158.779197 372.7759,159.3408 L377.0689,159.3408 C376.9825,158.789997 376.744902,158.349902 376.3561,158.0205 C375.967298,157.691098 375.492103,157.5264 374.9305,157.5264 Z M386.4325,155.6148 C387.512505,155.6148 388.384597,155.938797 389.0488,156.5868 C389.713003,157.234803 390.0451,158.195994 390.0451,159.4704 L390.0451,164.46 L387.5179,164.46 L387.5179,159.8592 C387.5179,159.167997 387.366702,158.652302 387.0643,158.3121 C386.761898,157.971898 386.324503,157.8018 385.7521,157.8018 C385.114897,157.8018 384.607302,157.998898 384.2293,158.3931 C383.851298,158.787302 383.6623,159.373196 383.6623,160.1508 L383.6623,164.46 L381.1351,164.46 L381.1351,155.7444 L383.5489,155.7444 L383.5489,156.765 C383.883702,156.397798 384.299498,156.114301 384.7963,155.9145 C385.293102,155.714699 385.838497,155.6148 386.4325,155.6148 Z M396.5413,164.5896 C395.612495,164.5896 394.778204,164.397902 394.0384,164.0145 C393.298596,163.631098 392.720802,163.099203 392.305,162.4188 C391.889198,161.738397 391.6813,160.966204 391.6813,160.1022 C391.6813,159.238196 391.889198,158.466003 392.305,157.7856 C392.720802,157.105197 393.298596,156.573302 394.0384,156.1899 C394.778204,155.806498 395.612495,155.6148 396.5413,155.6148 C397.459305,155.6148 398.261197,155.806498 398.947,156.1899 C399.632803,156.573302 400.132298,157.121396 400.4455,157.8342 L398.4853,158.8872 C398.031698,158.087996 397.378304,157.6884 396.5251,157.6884 C395.866297,157.6884 395.320902,157.904398 394.8889,158.3364 C394.456898,158.768402 394.2409,159.356996 394.2409,160.1022 C394.2409,160.847404 394.456898,161.435998 394.8889,161.868 C395.320902,162.300002 395.866297,162.516 396.5251,162.516 C397.389104,162.516 398.042498,162.116404 398.4853,161.3172 L400.4455,162.3864 C400.132298,163.077603 399.632803,163.617598 398.947,164.0064 C398.261197,164.395202 397.459305,164.5896 396.5413,164.5896 Z M410.5543,155.7444 L406.6177,164.9946 C406.218098,165.999005 405.724003,166.706398 405.1354,167.1168 C404.546797,167.527202 403.836704,167.7324 403.0051,167.7324 C402.551498,167.7324 402.103302,167.662201 401.6605,167.5218 C401.217698,167.381399 400.855901,167.187001 400.5751,166.9386 L401.4985,165.1404 C401.692901,165.313201 401.916999,165.4482 402.1708,165.5454 C402.424601,165.6426 402.675699,165.6912 402.9241,165.6912 C403.269702,165.6912 403.550499,165.607501 403.7665,165.4401 C403.982501,165.272699 404.176899,164.994602 404.3497,164.6058 L404.3821,164.5248 L400.6075,155.7444 L403.2157,155.7444 L405.6619,161.6574 L408.1243,155.7444 L410.5543,155.7444 Z" id="Transparency" fill="#FFFFFF"></path>
                <g id="circle/white" transform="translate(289.840000, 14.000000)" fill="#FFFFFF">
                    <g id="circle_yellow">
                        <circle id="Oval" opacity="0.2" cx="62.8854545" cy="62.8854545" r="62.8854545"></circle>
                        <circle id="Oval" opacity="0.4" cx="62.8854545" cy="62.8854545" r="45.8754545"></circle>
                        <circle id="Oval" cx="62.8854545" cy="62.8854545" r="26.8036364"></circle>
                    </g>
                </g>
                <path d="M262.3956,563.04 L255.3756,563.04 L254.0364,566.28 L250.4508,566.28 L257.19,551.16 L260.646,551.16 L267.4068,566.28 L263.7348,566.28 L262.3956,563.04 Z M261.294,560.3832 L258.8964,554.5944 L256.4988,560.3832 L261.294,560.3832 Z M275.8092,554.4864 C277.249207,554.4864 278.411996,554.918396 279.2976,555.7824 C280.183204,556.646404 280.626,557.927992 280.626,559.6272 L280.626,566.28 L277.2564,566.28 L277.2564,560.1456 C277.2564,559.223995 277.054802,558.536402 276.6516,558.0828 C276.248398,557.629198 275.665204,557.4024 274.902,557.4024 C274.052396,557.4024 273.375603,557.665197 272.8716,558.1908 C272.367597,558.716403 272.1156,559.497595 272.1156,560.5344 L272.1156,566.28 L268.746,566.28 L268.746,554.6592 L271.9644,554.6592 L271.9644,556.02 C272.410802,555.530398 272.965197,555.152401 273.6276,554.886 C274.290003,554.619599 275.017196,554.4864 275.8092,554.4864 Z M288.3588,554.4864 C290.158809,554.4864 291.541195,554.914796 292.506,555.7716 C293.470805,556.628404 293.9532,557.920791 293.9532,559.6488 L293.9532,566.28 L290.7996,566.28 L290.7996,564.8328 C290.165997,565.912805 288.985209,566.4528 287.2572,566.4528 C286.364396,566.4528 285.590403,566.301602 284.9352,565.9992 C284.279997,565.696798 283.779602,565.279203 283.434,564.7464 C283.088398,564.213597 282.9156,563.608803 282.9156,562.932 C282.9156,561.851995 283.322396,561.002403 284.136,560.3832 C284.949604,559.763997 286.205992,559.4544 287.9052,559.4544 L290.5836,559.4544 C290.5836,558.719996 290.360402,558.154802 289.914,557.7588 C289.467598,557.362798 288.798004,557.1648 287.9052,557.1648 C287.285997,557.1648 286.677603,557.261999 286.08,557.4564 C285.482397,557.650801 284.974802,557.913598 284.5572,558.2448 L283.3476,555.8904 C283.981203,555.443998 284.740796,555.098401 285.6264,554.8536 C286.512004,554.608799 287.422795,554.4864 288.3588,554.4864 Z M288.0996,564.1848 C288.675603,564.1848 289.186798,564.051601 289.6332,563.7852 C290.079602,563.518799 290.396399,563.126403 290.5836,562.608 L290.5836,561.42 L288.2724,561.42 C286.889993,561.42 286.1988,561.873595 286.1988,562.7808 C286.1988,563.212802 286.367998,563.554799 286.7064,563.8068 C287.044802,564.058801 287.509197,564.1848 288.0996,564.1848 Z M296.9988,550.2528 L300.3684,550.2528 L300.3684,566.28 L296.9988,566.28 L296.9988,550.2528 Z M315.0348,554.6592 L309.786,566.9928 C309.253197,568.332007 308.594404,569.275197 307.8096,569.8224 C307.024796,570.369603 306.078006,570.6432 304.9692,570.6432 C304.364397,570.6432 303.766803,570.549601 303.1764,570.3624 C302.585997,570.175199 302.103602,569.916002 301.7292,569.5848 L302.9604,567.1872 C303.219601,567.417601 303.518398,567.597599 303.8568,567.7272 C304.195202,567.856801 304.529998,567.9216 304.8612,567.9216 C305.322002,567.9216 305.696399,567.810001 305.9844,567.5868 C306.272401,567.363599 306.531599,566.992803 306.762,566.4744 L306.8052,566.3664 L301.7724,554.6592 L305.25,554.6592 L308.5116,562.5432 L311.7948,554.6592 L315.0348,554.6592 Z M323.9124,565.7184 C323.581198,565.963201 323.174402,566.146799 322.692,566.2692 C322.209598,566.391601 321.702003,566.4528 321.1692,566.4528 C319.786793,566.4528 318.717604,566.100004 317.9616,565.3944 C317.205596,564.688796 316.8276,563.652007 316.8276,562.284 L316.8276,557.5104 L315.0348,557.5104 L315.0348,554.9184 L316.8276,554.9184 L316.8276,552.0888 L320.1972,552.0888 L320.1972,554.9184 L323.0916,554.9184 L323.0916,557.5104 L320.1972,557.5104 L320.1972,562.2408 C320.1972,562.730402 320.323199,563.108399 320.5752,563.3748 C320.827201,563.641201 321.183598,563.7744 321.6444,563.7744 C322.177203,563.7744 322.630798,563.630401 323.0052,563.3424 L323.9124,565.7184 Z M325.8132,554.6592 L329.1828,554.6592 L329.1828,566.28 L325.8132,566.28 L325.8132,554.6592 Z M327.498,553.0392 C326.878797,553.0392 326.374802,552.859202 325.986,552.4992 C325.597198,552.139198 325.4028,551.692803 325.4028,551.16 C325.4028,550.627197 325.597198,550.180802 325.986,549.8208 C326.374802,549.460798 326.878797,549.2808 327.498,549.2808 C328.117203,549.2808 328.621198,549.453598 329.01,549.7992 C329.398802,550.144802 329.5932,550.576797 329.5932,551.0952 C329.5932,551.656803 329.398802,552.121198 329.01,552.4884 C328.621198,552.855602 328.117203,553.0392 327.498,553.0392 Z M337.9308,566.4528 C336.692394,566.4528 335.580005,566.197203 334.5936,565.686 C333.607195,565.174797 332.836803,564.465605 332.2824,563.5584 C331.727997,562.651195 331.4508,561.621606 331.4508,560.4696 C331.4508,559.317594 331.727997,558.288005 332.2824,557.3808 C332.836803,556.473595 333.607195,555.764403 334.5936,555.2532 C335.580005,554.741997 336.692394,554.4864 337.9308,554.4864 C339.154806,554.4864 340.223995,554.741997 341.1384,555.2532 C342.052805,555.764403 342.718798,556.495195 343.1364,557.4456 L340.5228,558.8496 C339.917997,557.783995 339.046806,557.2512 337.9092,557.2512 C337.030796,557.2512 336.303603,557.539197 335.7276,558.1152 C335.151597,558.691203 334.8636,559.475995 334.8636,560.4696 C334.8636,561.463205 335.151597,562.247997 335.7276,562.824 C336.303603,563.400003 337.030796,563.688 337.9092,563.688 C339.061206,563.688 339.932397,563.155205 340.5228,562.0896 L343.1364,563.5152 C342.718798,564.436805 342.052805,565.156797 341.1384,565.6752 C340.223995,566.193603 339.154806,566.4528 337.9308,566.4528 Z M348.99,566.4528 C348.025195,566.4528 347.082005,566.334001 346.1604,566.0964 C345.238795,565.858799 344.504403,565.560002 343.9572,565.2 L345.0804,562.7808 C345.598803,563.112002 346.225196,563.381999 346.9596,563.5908 C347.694004,563.799601 348.413996,563.904 349.1196,563.904 C350.545207,563.904 351.258,563.551204 351.258,562.8456 C351.258,562.514398 351.063602,562.276801 350.6748,562.1328 C350.285998,561.988799 349.688404,561.866401 348.882,561.7656 C347.931595,561.621599 347.146803,561.456001 346.5276,561.2688 C345.908397,561.081599 345.372002,560.750402 344.9184,560.2752 C344.464798,559.799998 344.238,559.123204 344.238,558.2448 C344.238,557.510396 344.450398,556.858803 344.8752,556.29 C345.300002,555.721197 345.919196,555.278402 346.7328,554.9616 C347.546404,554.644798 348.507594,554.4864 349.6164,554.4864 C350.437204,554.4864 351.254396,554.576399 352.068,554.7564 C352.881604,554.936401 353.554797,555.184798 354.0876,555.5016 L352.9644,557.8992 C351.941995,557.323197 350.826006,557.0352 349.6164,557.0352 C348.896396,557.0352 348.356402,557.135999 347.9964,557.3376 C347.636398,557.539201 347.4564,557.798398 347.4564,558.1152 C347.4564,558.475202 347.650798,558.727199 348.0396,558.8712 C348.428402,559.015201 349.047596,559.151999 349.8972,559.2816 C350.847605,559.440001 351.625197,559.609199 352.23,559.7892 C352.834803,559.969201 353.360398,560.296798 353.8068,560.772 C354.253202,561.247202 354.4764,561.909596 354.4764,562.7592 C354.4764,563.479204 354.260402,564.119997 353.8284,564.6816 C353.396398,565.243203 352.766404,565.678798 351.9384,565.9884 C351.110396,566.298002 350.127606,566.4528 348.99,566.4528 Z" id="Analytics" fill="#FFFFFF"></path>
                <g id="circle/white" transform="translate(219.120000, 366.000000)" fill="#FFFFFF">
                    <g id="circle_yellow">
                        <circle id="Oval" opacity="0.2" cx="83.3481818" cy="83.3481818" r="83.3481818"></circle>
                        <circle id="Oval" opacity="0.4" cx="83.3481818" cy="83.3481818" r="60.8031818"></circle>
                        <circle id="Oval" cx="83.3481818" cy="83.3481818" r="35.5254545"></circle>
                    </g>
                </g>
                <path d="M905.280208,244.6912 L898.75096,264.6496 L893.789872,264.6496 L889.399024,251.134912 L884.865616,264.6496 L879.93304,264.6496 L873.37528,244.6912 L878.165296,244.6912 L882.670192,258.719104 L887.374672,244.6912 L891.651472,244.6912 L896.213392,258.833152 L900.860848,244.6912 L905.280208,244.6912 Z M915.259408,264.877696 C913.64372,264.877696 912.194374,264.540307 910.911328,263.86552 C909.628282,263.190733 908.62562,262.254598 907.903312,261.057088 C907.181004,259.859578 906.819856,258.50052 906.819856,256.979872 C906.819856,255.459224 907.181004,254.100166 907.903312,252.902656 C908.62562,251.705146 909.628282,250.769011 910.911328,250.094224 C912.194374,249.419437 913.64372,249.082048 915.259408,249.082048 C916.875096,249.082048 918.31969,249.419437 919.593232,250.094224 C920.866774,250.769011 921.864684,251.705146 922.586992,252.902656 C923.3093,254.100166 923.670448,255.459224 923.670448,256.979872 C923.670448,258.50052 923.3093,259.859578 922.586992,261.057088 C921.864684,262.254598 920.866774,263.190733 919.593232,263.86552 C918.31969,264.540307 916.875096,264.877696 915.259408,264.877696 Z M915.259408,261.22816 C916.399894,261.22816 917.336028,260.843252 918.06784,260.073424 C918.799652,259.303596 919.165552,258.272422 919.165552,256.979872 C919.165552,255.687322 918.799652,254.656148 918.06784,253.88632 C917.336028,253.116492 916.399894,252.731584 915.259408,252.731584 C914.118922,252.731584 913.178036,253.116492 912.43672,253.88632 C911.695404,254.656148 911.324752,255.687322 911.324752,256.979872 C911.324752,258.272422 911.695404,259.303596 912.43672,260.073424 C913.178036,260.843252 914.118922,261.22816 915.259408,261.22816 Z M930.883984,251.334496 C931.416211,250.59318 932.133755,250.03245 933.03664,249.652288 C933.939525,249.272126 934.980202,249.082048 936.158704,249.082048 L936.158704,253.187776 C935.664494,253.14976 935.331857,253.130752 935.160784,253.130752 C933.887242,253.130752 932.889332,253.487148 932.167024,254.199952 C931.444716,254.912756 931.083568,255.981945 931.083568,257.407552 L931.083568,264.6496 L926.635696,264.6496 L926.635696,249.310144 L930.883984,249.310144 L930.883984,251.334496 Z M945.51064,258.633568 L943.37224,260.743456 L943.37224,264.6496 L938.924368,264.6496 L938.924368,243.493696 L943.37224,243.493696 L943.37224,255.468736 L949.872976,249.310144 L955.176208,249.310144 L948.78952,255.81088 L955.746448,264.6496 L950.35768,264.6496 L945.51064,258.633568 Z M962.61784,249.652288 L966.552496,249.652288 L966.552496,253.073728 L962.731888,253.073728 L962.731888,264.6496 L958.284016,264.6496 L958.284016,253.073728 L955.91752,253.073728 L955.91752,249.652288 L958.284016,249.652288 L958.284016,248.968 C958.284016,247.219255 958.801979,245.831685 959.83792,244.805248 C960.873861,243.778811 962.332711,243.2656 964.214512,243.2656 C964.879795,243.2656 965.511805,243.336879 966.11056,243.47944 C966.709315,243.622001 967.20827,243.826335 967.60744,244.092448 L966.438448,247.314304 C965.925229,246.95315 965.326483,246.772576 964.642192,246.772576 C963.292617,246.772576 962.61784,247.513881 962.61784,248.996512 L962.61784,249.652288 Z M968.776432,243.493696 L973.224304,243.493696 L973.224304,264.6496 L968.776432,264.6496 L968.776432,243.493696 Z M984.657616,264.877696 C983.041928,264.877696 981.592582,264.540307 980.309536,263.86552 C979.02649,263.190733 978.023828,262.254598 977.30152,261.057088 C976.579212,259.859578 976.218064,258.50052 976.218064,256.979872 C976.218064,255.459224 976.579212,254.100166 977.30152,252.902656 C978.023828,251.705146 979.02649,250.769011 980.309536,250.094224 C981.592582,249.419437 983.041928,249.082048 984.657616,249.082048 C986.273304,249.082048 987.717898,249.419437 988.99144,250.094224 C990.264982,250.769011 991.262892,251.705146 991.9852,252.902656 C992.707508,254.100166 993.068656,255.459224 993.068656,256.979872 C993.068656,258.50052 992.707508,259.859578 991.9852,261.057088 C991.262892,262.254598 990.264982,263.190733 988.99144,263.86552 C987.717898,264.540307 986.273304,264.877696 984.657616,264.877696 Z M984.657616,261.22816 C985.798102,261.22816 986.734236,260.843252 987.466048,260.073424 C988.19786,259.303596 988.56376,258.272422 988.56376,256.979872 C988.56376,255.687322 988.19786,254.656148 987.466048,253.88632 C986.734236,253.116492 985.798102,252.731584 984.657616,252.731584 C983.51713,252.731584 982.576244,253.116492 981.834928,253.88632 C981.093612,254.656148 980.72296,255.687322 980.72296,256.979872 C980.72296,258.272422 981.093612,259.303596 981.834928,260.073424 C982.576244,260.843252 983.51713,261.22816 984.657616,261.22816 Z M1020.66827,249.310144 L1015.10843,264.6496 L1010.83163,264.6496 L1007.38168,255.126592 L1003.81768,264.6496 L999.54088,264.6496 L994.009552,249.310144 L998.200816,249.310144 L1001.82184,259.688512 L1005.58542,249.310144 L1009.34901,249.310144 L1012.99854,259.688512 L1016.73362,249.310144 L1020.66827,249.310144 Z" id="Workflow" fill="#FFFFFF"></path>
                <g id="circle/white" transform="translate(836.238400, 0.000000)" fill="#FFFFFF">
                    <g id="circle_yellow">
                        <circle id="Oval" opacity="0.2" cx="110.451228" cy="110.451228" r="110.451228"></circle>
                        <circle id="Oval" opacity="0.4" cx="110.451228" cy="110.451228" r="80.5750759"></circle>
                        <circle id="Oval" cx="110.451228" cy="110.451228" r="47.0775724"></circle>
                    </g>
                </g>
                <path d="M1023.22034,460.66096 L1016.73386,460.66096 L1015.49644,463.65472 L1012.18334,463.65472 L1018.41036,449.68384 L1021.60371,449.68384 L1027.85068,463.65472 L1024.45776,463.65472 L1023.22034,460.66096 Z M1022.20246,458.206077 L1019.98708,452.857226 L1017.77169,458.206077 L1022.20246,458.206077 Z M1039.90556,452.917101 L1039.90556,463.65472 L1036.95172,463.65472 L1036.95172,462.377382 C1036.53924,462.843081 1036.04694,463.199002 1035.47479,463.445157 C1034.90265,463.691312 1034.28395,463.814387 1033.61866,463.814387 C1032.20826,463.814387 1031.0906,463.40857 1030.26565,462.596925 C1029.4407,461.785279 1029.02823,460.581134 1029.02823,458.984454 L1029.02823,452.917101 L1032.14174,452.917101 L1032.14174,458.525411 C1032.14174,460.255148 1032.86689,461.120003 1034.31721,461.120003 C1035.06232,461.120003 1035.66107,460.877178 1036.11346,460.391522 C1036.56586,459.905865 1036.79205,459.184043 1036.79205,458.226035 L1036.79205,452.917101 L1039.90556,452.917101 Z M1053.73673,448.845587 L1053.73673,463.65472 L1050.76293,463.65472 L1050.76293,462.417299 C1049.9912,463.348696 1048.87354,463.814387 1047.40992,463.814387 C1046.39869,463.814387 1045.48394,463.588194 1044.66564,463.135802 C1043.84734,462.683409 1043.20535,462.038094 1042.73965,461.199837 C1042.27395,460.36158 1042.04111,459.390281 1042.04111,458.28591 C1042.04111,457.18154 1042.27395,456.210241 1042.73965,455.371984 C1043.20535,454.533727 1043.84734,453.888412 1044.66564,453.436019 C1045.48394,452.983627 1046.39869,452.757434 1047.40992,452.757434 C1048.7804,452.757434 1049.85149,453.189861 1050.62322,454.05473 L1050.62322,448.845587 L1053.73673,448.845587 Z M1047.94879,461.259712 C1048.73383,461.259712 1049.3858,460.990276 1049.90472,460.451397 C1050.42364,459.912517 1050.68309,459.190696 1050.68309,458.28591 C1050.68309,457.381125 1050.42364,456.659303 1049.90472,456.120424 C1049.3858,455.581545 1048.73383,455.312109 1047.94879,455.312109 C1047.15045,455.312109 1046.49183,455.581545 1045.97291,456.120424 C1045.45399,456.659303 1045.19453,457.381125 1045.19453,458.28591 C1045.19453,459.190696 1045.45399,459.912517 1045.97291,460.451397 C1046.49183,460.990276 1047.15045,461.259712 1047.94879,461.259712 Z M1056.61074,452.917101 L1059.72425,452.917101 L1059.72425,463.65472 L1056.61074,463.65472 L1056.61074,452.917101 Z M1058.16749,451.420221 C1057.59535,451.420221 1057.12966,451.253902 1056.77041,450.921261 C1056.41115,450.588619 1056.23153,450.17615 1056.23153,449.68384 C1056.23153,449.19153 1056.41115,448.779061 1056.77041,448.446419 C1057.12966,448.113778 1057.59535,447.947459 1058.16749,447.947459 C1058.73964,447.947459 1059.20533,448.107125 1059.56458,448.426461 C1059.92384,448.745797 1060.10346,449.144961 1060.10346,449.623965 C1060.10346,450.142886 1059.92384,450.571987 1059.56458,450.911282 C1059.20533,451.250576 1058.73964,451.420221 1058.16749,451.420221 Z M1073.13629,458.325827 C1073.13629,458.365744 1073.11634,458.645159 1073.07642,459.16408 L1064.95335,459.16408 C1065.09971,459.829363 1065.44565,460.354929 1065.99119,460.740794 C1066.53672,461.126658 1067.2153,461.319587 1068.02694,461.319587 C1068.58578,461.319587 1069.08141,461.236428 1069.51384,461.070107 C1069.94628,460.903786 1070.34877,460.641003 1070.72133,460.28175 L1072.37788,462.078006 C1071.36664,463.235599 1069.88974,463.814387 1067.94711,463.814387 C1066.73629,463.814387 1065.6652,463.578215 1064.73381,463.105864 C1063.80241,462.633513 1063.08392,461.978219 1062.5783,461.139962 C1062.07269,460.301705 1061.81988,459.350364 1061.81988,458.28591 C1061.81988,457.234763 1062.06936,456.286748 1062.56832,455.441838 C1063.06728,454.596929 1063.75252,453.938308 1064.62404,453.465957 C1065.49556,452.993606 1066.47018,452.757434 1067.54794,452.757434 C1068.59909,452.757434 1069.55043,452.983627 1070.40199,453.436019 C1071.25356,453.888412 1071.92216,454.537053 1072.40781,455.381963 C1072.89347,456.226873 1073.13629,457.208151 1073.13629,458.325827 Z M1067.5679,455.112525 C1066.8627,455.112525 1066.27061,455.312107 1065.7916,455.711277 C1065.3126,456.110447 1065.01988,456.655971 1064.91343,457.347866 L1070.20241,457.347866 C1070.09596,456.669277 1069.80324,456.127079 1069.32424,455.721256 C1068.84524,455.315433 1068.2598,455.112525 1067.5679,455.112525 Z M1081.73836,452.757434 C1083.06893,452.757434 1084.14335,453.156598 1084.96165,453.954938 C1085.77994,454.753278 1086.18909,455.937464 1086.18909,457.507533 L1086.18909,463.65472 L1083.07558,463.65472 L1083.07558,457.986534 C1083.07558,457.134972 1082.8893,456.499636 1082.51674,456.080507 C1082.14418,455.661379 1081.60531,455.451818 1080.90011,455.451818 C1080.11508,455.451818 1079.48972,455.694642 1079.02402,456.180299 C1078.55832,456.665956 1078.32548,457.387778 1078.32548,458.345786 L1078.32548,463.65472 L1075.21197,463.65472 L1075.21197,452.917101 L1078.18577,452.917101 L1078.18577,454.17448 C1078.59825,453.722087 1079.11051,453.372819 1079.72257,453.126664 C1080.33463,452.880509 1081.00655,452.757434 1081.73836,452.757434 Z M1094.19241,463.814387 C1093.04812,463.814387 1092.02027,463.578215 1091.10883,463.105864 C1090.1974,462.633513 1089.48555,461.978219 1088.97328,461.139962 C1088.46102,460.301705 1088.20489,459.350364 1088.20489,458.28591 C1088.20489,457.221457 1088.46102,456.270116 1088.97328,455.431859 C1089.48555,454.593602 1090.1974,453.938308 1091.10883,453.465957 C1092.02027,452.993606 1093.04812,452.757434 1094.19241,452.757434 C1095.32339,452.757434 1096.31132,452.993606 1097.15623,453.465957 C1098.00114,453.938308 1098.61652,454.61356 1099.00238,455.491734 L1096.58741,456.78903 C1096.02858,455.804411 1095.2236,455.312109 1094.17245,455.312109 C1093.3608,455.312109 1092.68888,455.578218 1092.15665,456.110445 C1091.62442,456.642671 1091.35831,457.367819 1091.35831,458.28591 C1091.35831,459.204001 1091.62442,459.929149 1092.15665,460.461376 C1092.68888,460.993603 1093.3608,461.259712 1094.17245,461.259712 C1095.2369,461.259712 1096.04188,460.76741 1096.58741,459.78279 L1099.00238,461.100045 C1098.61652,461.951607 1098.00114,462.616881 1097.15623,463.095885 C1096.31132,463.574889 1095.32339,463.814387 1094.19241,463.814387 Z M1111.31671,458.325827 C1111.31671,458.365744 1111.29676,458.645159 1111.25684,459.16408 L1103.13377,459.16408 C1103.28013,459.829363 1103.62607,460.354929 1104.17161,460.740794 C1104.71714,461.126658 1105.39572,461.319587 1106.20736,461.319587 C1106.7662,461.319587 1107.26183,461.236428 1107.69426,461.070107 C1108.1267,460.903786 1108.52919,460.641003 1108.90175,460.28175 L1110.55829,462.078006 C1109.54706,463.235599 1108.07016,463.814387 1106.12753,463.814387 C1104.91671,463.814387 1103.84562,463.578215 1102.91423,463.105864 C1101.98283,462.633513 1101.26434,461.978219 1100.75872,461.139962 C1100.2531,460.301705 1100.0003,459.350364 1100.0003,458.28591 C1100.0003,457.234763 1100.24978,456.286748 1100.74874,455.441838 C1101.2477,454.596929 1101.93293,453.938308 1102.80446,453.465957 C1103.67598,452.993606 1104.6506,452.757434 1105.72836,452.757434 C1106.77951,452.757434 1107.73085,452.983627 1108.58241,453.436019 C1109.43398,453.888412 1110.10258,454.537053 1110.58823,455.381963 C1111.07389,456.226873 1111.31671,457.208151 1111.31671,458.325827 Z M1105.74832,455.112525 C1105.04312,455.112525 1104.45103,455.312107 1103.97202,455.711277 C1103.49302,456.110447 1103.2003,456.655971 1103.09385,457.347866 L1108.38283,457.347866 C1108.27638,456.669277 1107.98366,456.127079 1107.50466,455.721256 C1107.02566,455.315433 1106.44021,455.112525 1105.74832,455.112525 Z M1129.99778,463.894221 L1128.32127,462.337466 C1126.9907,463.375308 1125.43396,463.894221 1123.651,463.894221 C1122.63977,463.894221 1121.72835,463.731229 1120.9167,463.40524 C1120.10506,463.079251 1119.46972,462.623539 1119.01068,462.03809 C1118.55163,461.45264 1118.32211,460.79402 1118.32211,460.062208 C1118.32211,459.19734 1118.56494,458.435602 1119.05059,457.776971 C1119.53625,457.118341 1120.31795,456.489657 1121.39571,455.890902 C1120.89009,455.371981 1120.52419,454.876353 1120.29799,454.404002 C1120.0718,453.93165 1119.9587,453.442675 1119.9587,452.937059 C1119.9587,452.25847 1120.13832,451.659724 1120.49758,451.140803 C1120.85683,450.621882 1121.36576,450.219392 1122.0244,449.93332 C1122.68303,449.647248 1123.44476,449.504214 1124.30963,449.504214 C1125.52045,449.504214 1126.49175,449.793608 1127.22356,450.372405 C1127.95537,450.951201 1128.32127,451.732897 1128.32127,452.717517 C1128.32127,453.436023 1128.10506,454.074685 1127.67262,454.633523 C1127.24019,455.192361 1126.54498,455.731233 1125.58697,456.250154 L1128.14164,458.625203 C1128.44768,457.986531 1128.68052,457.261383 1128.84019,456.449738 L1131.33499,457.228115 C1131.06888,458.465542 1130.6431,459.523327 1130.05765,460.401501 L1131.69424,461.918339 L1129.99778,463.894221 Z M1124.30963,451.619805 C1123.84393,451.619805 1123.47471,451.739554 1123.20194,451.979056 C1122.92917,452.218558 1122.79279,452.524584 1122.79279,452.897142 C1122.79279,453.176561 1122.86597,453.439344 1123.01234,453.685499 C1123.1587,453.931654 1123.44477,454.260964 1123.87055,454.67344 C1124.54914,454.314187 1125.02148,453.991529 1125.28759,453.705458 C1125.55371,453.419386 1125.68676,453.110034 1125.68676,452.777392 C1125.68676,452.431445 1125.56701,452.15203 1125.32751,451.939139 C1125.08801,451.726249 1124.74872,451.619805 1124.30963,451.619805 Z M1123.87055,461.459296 C1124.84186,461.459296 1125.71337,461.186534 1126.4851,460.641002 L1123.11213,457.487574 C1122.48676,457.846827 1122.04103,458.199422 1121.77492,458.54537 C1121.5088,458.891317 1121.37575,459.283828 1121.37575,459.722915 C1121.37575,460.241836 1121.60194,460.660958 1122.05433,460.980294 C1122.50673,461.29963 1123.11212,461.459296 1123.87055,461.459296 Z M1142.33207,452.318349 L1137.86139,452.318349 L1137.86139,449.68384 L1150.03601,449.68384 L1150.03601,452.318349 L1145.56533,452.318349 L1145.56533,463.65472 L1142.33207,463.65472 L1142.33207,452.318349 Z M1155.88382,452.757434 C1157.54703,452.757434 1158.82435,453.153271 1159.71583,453.944958 C1160.60731,454.736646 1161.05305,455.930811 1161.05305,457.527491 L1161.05305,463.65472 L1158.13912,463.65472 L1158.13912,462.317507 C1157.55367,463.315432 1156.46262,463.814387 1154.86594,463.814387 C1154.04099,463.814387 1153.32582,463.67468 1152.72041,463.395261 C1152.11501,463.115842 1151.65264,462.729983 1151.33331,462.237674 C1151.01397,461.745364 1150.8543,461.186534 1150.8543,460.561168 C1150.8543,459.563243 1151.23018,458.77822 1151.98195,458.206077 C1152.73372,457.633933 1153.89463,457.347866 1155.46469,457.347866 L1157.93954,457.347866 C1157.93954,456.669277 1157.7333,456.147037 1157.32083,455.781131 C1156.90835,455.415225 1156.28965,455.232275 1155.46469,455.232275 C1154.89255,455.232275 1154.33039,455.322087 1153.77821,455.501714 C1153.22602,455.68134 1152.75701,455.924165 1152.37114,456.230195 L1151.25347,454.05473 C1151.83892,453.642254 1152.54078,453.322923 1153.35908,453.096726 C1154.17738,452.87053 1155.01895,452.757434 1155.88382,452.757434 Z M1155.64432,461.718755 C1156.17655,461.718755 1156.64889,461.59568 1157.06137,461.349525 C1157.47384,461.10337 1157.76656,460.740796 1157.93954,460.261792 L1157.93954,459.16408 L1155.80399,459.16408 C1154.52664,459.16408 1153.88798,459.583202 1153.88798,460.421459 C1153.88798,460.820629 1154.04432,461.136634 1154.357,461.369483 C1154.66969,461.602332 1155.09879,461.718755 1155.64432,461.718755 Z M1166.84098,454.334147 C1167.21354,453.815226 1167.71582,453.422715 1168.34784,453.156602 C1168.97986,452.890488 1169.70834,452.757434 1170.53329,452.757434 L1170.53329,455.631443 C1170.18734,455.604832 1169.95449,455.591526 1169.83474,455.591526 C1168.94326,455.591526 1168.24473,455.841004 1167.73911,456.339966 C1167.2335,456.838929 1166.98069,457.587361 1166.98069,458.585286 L1166.98069,463.65472 L1163.86718,463.65472 L1163.86718,452.917101 L1166.84098,452.917101 L1166.84098,454.334147 Z M1183.54616,452.917101 L1183.54616,461.858464 C1183.54616,463.827703 1183.0339,465.291304 1182.00937,466.249312 C1180.98483,467.20732 1179.48797,467.686317 1177.51873,467.686317 C1176.48088,467.686317 1175.49628,467.559915 1174.56488,467.307107 C1173.63349,467.0543 1172.86177,466.688399 1172.24971,466.209395 L1173.48713,463.974054 C1173.93952,464.346613 1174.51166,464.64266 1175.20355,464.862203 C1175.89545,465.081747 1176.58733,465.191517 1177.27923,465.191517 C1178.35698,465.191517 1179.15199,464.948692 1179.66425,464.463035 C1180.17652,463.977378 1180.43265,463.242251 1180.43265,462.257632 L1180.43265,461.798589 C1179.62101,462.690068 1178.49004,463.135802 1177.03972,463.135802 C1176.05511,463.135802 1175.15366,462.919588 1174.33536,462.487154 C1173.51706,462.054719 1172.86842,461.445994 1172.38942,460.66096 C1171.91041,459.875926 1171.67092,458.971154 1171.67092,457.946618 C1171.67092,456.922081 1171.91041,456.01731 1172.38942,455.232275 C1172.86842,454.447241 1173.51706,453.838516 1174.33536,453.406082 C1175.15366,452.973647 1176.05511,452.757434 1177.03972,452.757434 C1178.59649,452.757434 1179.78067,453.269694 1180.59232,454.29423 L1180.59232,452.917101 L1183.54616,452.917101 Z M1177.65844,460.581126 C1178.48339,460.581126 1179.15864,460.338302 1179.68421,459.852645 C1180.20979,459.366988 1180.47257,458.731652 1180.47257,457.946618 C1180.47257,457.161583 1180.20979,456.526247 1179.68421,456.04059 C1179.15864,455.554934 1178.48339,455.312109 1177.65844,455.312109 C1176.83348,455.312109 1176.15491,455.554934 1175.62268,456.04059 C1175.09045,456.526247 1174.82434,457.161583 1174.82434,457.946618 C1174.82434,458.731652 1175.09045,459.366988 1175.62268,459.852645 C1176.15491,460.338302 1176.83348,460.581126 1177.65844,460.581126 Z M1196.95821,458.325827 C1196.95821,458.365744 1196.93825,458.645159 1196.89833,459.16408 L1188.77526,459.16408 C1188.92163,459.829363 1189.26757,460.354929 1189.8131,460.740794 C1190.35863,461.126658 1191.03721,461.319587 1191.84886,461.319587 C1192.4077,461.319587 1192.90332,461.236428 1193.33576,461.070107 C1193.76819,460.903786 1194.17068,460.641003 1194.54324,460.28175 L1196.19979,462.078006 C1195.18856,463.235599 1193.71165,463.814387 1191.76902,463.814387 C1190.55821,463.814387 1189.48712,463.578215 1188.55572,463.105864 C1187.62432,462.633513 1186.90583,461.978219 1186.40021,461.139962 C1185.8946,460.301705 1185.6418,459.350364 1185.6418,458.28591 C1185.6418,457.234763 1185.89127,456.286748 1186.39024,455.441838 C1186.8892,454.596929 1187.57443,453.938308 1188.44595,453.465957 C1189.31747,452.993606 1190.2921,452.757434 1191.36986,452.757434 C1192.421,452.757434 1193.37234,452.983627 1194.22391,453.436019 C1195.07547,453.888412 1195.74407,454.537053 1196.22973,455.381963 C1196.71538,456.226873 1196.95821,457.208151 1196.95821,458.325827 Z M1191.38981,455.112525 C1190.68461,455.112525 1190.09252,455.312107 1189.61352,455.711277 C1189.13451,456.110447 1188.84179,456.655971 1188.73535,457.347866 L1194.02432,457.347866 C1193.91788,456.669277 1193.62516,456.127079 1193.14615,455.721256 C1192.66715,455.315433 1192.08171,455.112525 1191.38981,455.112525 Z M1205.95945,463.135802 C1205.65342,463.361998 1205.27754,463.531643 1204.8318,463.644741 C1204.38606,463.757839 1203.91704,463.814387 1203.42473,463.814387 C1202.14739,463.814387 1201.15945,463.488403 1200.46091,462.836426 C1199.76236,462.184448 1199.41309,461.226454 1199.41309,459.962416 L1199.41309,455.55161 L1197.75654,455.55161 L1197.75654,453.156602 L1199.41309,453.156602 L1199.41309,450.542051 L1202.5266,450.542051 L1202.5266,453.156602 L1205.20103,453.156602 L1205.20103,455.55161 L1202.5266,455.55161 L1202.5266,459.922499 C1202.5266,460.374892 1202.64302,460.72416 1202.87587,460.970315 C1203.10872,461.21647 1203.43803,461.339546 1203.86381,461.339546 C1204.35612,461.339546 1204.77525,461.206491 1205.12119,460.940378 L1205.95945,463.135802 Z M1207.71579,452.917101 L1210.8293,452.917101 L1210.8293,463.65472 L1207.71579,463.65472 L1207.71579,452.917101 Z M1209.27254,451.420221 C1208.7004,451.420221 1208.23471,451.253902 1207.87545,450.921261 C1207.5162,450.588619 1207.33658,450.17615 1207.33658,449.68384 C1207.33658,449.19153 1207.5162,448.779061 1207.87545,448.446419 C1208.23471,448.113778 1208.7004,447.947459 1209.27254,447.947459 C1209.84468,447.947459 1210.31038,448.107125 1210.66963,448.426461 C1211.02888,448.745797 1211.20851,449.144961 1211.20851,449.623965 C1211.20851,450.142886 1211.02888,450.571987 1210.66963,450.911282 C1210.31038,451.250576 1209.84468,451.420221 1209.27254,451.420221 Z M1220.24966,452.757434 C1221.58023,452.757434 1222.65464,453.156598 1223.47294,453.954938 C1224.29124,454.753278 1224.70038,455.937464 1224.70038,457.507533 L1224.70038,463.65472 L1221.58687,463.65472 L1221.58687,457.986534 C1221.58687,457.134972 1221.4006,456.499636 1221.02804,456.080507 C1220.65548,455.661379 1220.11661,455.451818 1219.41141,455.451818 C1218.62637,455.451818 1218.00102,455.694642 1217.53532,456.180299 C1217.06962,456.665956 1216.83677,457.387778 1216.83677,458.345786 L1216.83677,463.65472 L1213.72326,463.65472 L1213.72326,452.917101 L1216.69707,452.917101 L1216.69707,454.17448 C1217.10954,453.722087 1217.6218,453.372819 1218.23386,453.126664 C1218.84592,452.880509 1219.51785,452.757434 1220.24966,452.757434 Z M1238.59143,452.917101 L1238.59143,461.858464 C1238.59143,463.827703 1238.07917,465.291304 1237.05463,466.249312 C1236.0301,467.20732 1234.53323,467.686317 1232.56399,467.686317 C1231.52615,467.686317 1230.54155,467.559915 1229.61015,467.307107 C1228.67875,467.0543 1227.90704,466.688399 1227.29498,466.209395 L1228.5324,463.974054 C1228.98479,464.346613 1229.55692,464.64266 1230.24882,464.862203 C1230.94071,465.081747 1231.6326,465.191517 1232.32449,465.191517 C1233.40225,465.191517 1234.19725,464.948692 1234.70952,464.463035 C1235.22179,463.977378 1235.47792,463.242251 1235.47792,462.257632 L1235.47792,461.798589 C1234.66627,462.690068 1233.53531,463.135802 1232.08499,463.135802 C1231.10037,463.135802 1230.19893,462.919588 1229.38063,462.487154 C1228.56233,462.054719 1227.91369,461.445994 1227.43468,460.66096 C1226.95568,459.875926 1226.71618,458.971154 1226.71618,457.946618 C1226.71618,456.922081 1226.95568,456.01731 1227.43468,455.232275 C1227.91369,454.447241 1228.56233,453.838516 1229.38063,453.406082 C1230.19893,452.973647 1231.10037,452.757434 1232.08499,452.757434 C1233.64175,452.757434 1234.82594,453.269694 1235.63759,454.29423 L1235.63759,452.917101 L1238.59143,452.917101 Z M1232.7037,460.581126 C1233.52865,460.581126 1234.20391,460.338302 1234.72948,459.852645 C1235.25505,459.366988 1235.51784,458.731652 1235.51784,457.946618 C1235.51784,457.161583 1235.25505,456.526247 1234.72948,456.04059 C1234.20391,455.554934 1233.52865,455.312109 1232.7037,455.312109 C1231.87875,455.312109 1231.20017,455.554934 1230.66795,456.04059 C1230.13572,456.526247 1229.86961,457.161583 1229.86961,457.946618 C1229.86961,458.731652 1230.13572,459.366988 1230.66795,459.852645 C1231.20017,460.338302 1231.87875,460.581126 1232.7037,460.581126 Z" id="Audience-&amp;-Targeting" fill="#FFFFFF"></path>
                <g id="circle/white" transform="translate(1048.866880, 279.000000)" fill="#FFFFFF">
                    <g id="circle_yellow">
                        <circle id="Oval" opacity="0.2" cx="77.6570667" cy="77.6570667" r="77.6570667"></circle>
                        <circle id="Oval" opacity="0.4" cx="77.6570667" cy="77.6570667" r="56.6514667"></circle>
                        <circle id="Oval" cx="77.6570667" cy="77.6570667" r="33.0997333"></circle>
                    </g>
                </g>
                <path d="M853.486158,556.73855 C852.369413,556.73855 851.362821,556.497788 850.466352,556.016256 C849.569883,555.534723 848.868086,554.871346 848.360941,554.026104 C847.853795,553.180861 847.600226,552.230618 847.600226,551.175346 C847.600226,550.120073 847.853795,549.16983 848.360941,548.324588 C848.868086,547.479345 849.569883,546.815968 850.466352,546.334436 C851.362821,545.852904 852.369413,545.612141 853.486158,545.612141 C854.602902,545.612141 855.606933,545.852904 856.49828,546.334436 C857.389626,546.815968 858.091423,547.479345 858.603691,548.324588 C859.115959,549.16983 859.37209,550.120073 859.37209,551.175346 C859.37209,552.230618 859.115959,553.180861 858.603691,554.026104 C858.091423,554.871346 857.389626,555.534723 856.49828,556.016256 C855.606933,556.497788 854.602902,556.73855 853.486158,556.73855 Z M853.486158,554.61777 C854.12137,554.61777 854.695102,554.471776 855.20737,554.179783 C855.719638,553.88779 856.121763,553.480543 856.413756,552.95803 C856.705749,552.435516 856.851743,551.841294 856.851743,551.175346 C856.851743,550.509397 856.705749,549.915175 856.413756,549.392661 C856.121763,548.870148 855.719638,548.462901 855.20737,548.170908 C854.695102,547.878915 854.12137,547.732921 853.486158,547.732921 C852.850945,547.732921 852.277214,547.878915 851.764945,548.170908 C851.252677,548.462901 850.850553,548.870148 850.55856,549.392661 C850.266567,549.915175 850.120573,550.509397 850.120573,551.175346 C850.120573,551.841294 850.266567,552.435516 850.55856,552.95803 C850.850553,553.480543 851.252677,553.88779 851.764945,554.179783 C852.277214,554.471776 852.850945,554.61777 853.486158,554.61777 Z M865.964948,548.163224 C866.73335,548.163224 867.432586,548.339954 868.062676,548.693419 C868.692765,549.046884 869.187097,549.543776 869.545684,550.184112 C869.904272,550.824447 870.083563,551.569786 870.083563,552.420151 C870.083563,553.270516 869.904272,554.015855 869.545684,554.65619 C869.187097,555.296526 868.692765,555.793418 868.062676,556.146883 C867.432586,556.500348 866.73335,556.677078 865.964948,556.677078 C864.909675,556.677078 864.079814,556.344109 863.475337,555.67816 L863.475337,559.53552 L861.077934,559.53552 L861.077934,548.286168 L863.367761,548.286168 L863.367761,549.238982 C863.961992,548.521806 864.827713,548.163224 865.964948,548.163224 Z M865.550013,554.709978 C866.164735,554.709978 866.669311,554.502513 867.063758,554.087576 C867.458204,553.672638 867.655424,553.116836 867.655424,552.420151 C867.655424,551.723466 867.458204,551.167664 867.063758,550.752726 C866.669311,550.337789 866.164735,550.130324 865.550013,550.130324 C864.935291,550.130324 864.430714,550.337789 864.036268,550.752726 C863.641821,551.167664 863.444601,551.723466 863.444601,552.420151 C863.444601,553.116836 863.641821,553.672638 864.036268,554.087576 C864.430714,554.502513 864.935291,554.709978 865.550013,554.709978 Z M877.014517,556.154567 C876.778874,556.328738 876.489446,556.459365 876.146227,556.54645 C875.803007,556.633536 875.441863,556.677078 875.062785,556.677078 C874.07923,556.677078 873.318523,556.426071 872.780642,555.924048 C872.24276,555.422025 871.973823,554.68437 871.973823,553.71106 L871.973823,550.314739 L870.698282,550.314739 L870.698282,548.470583 L871.973823,548.470583 L871.973823,546.457379 L874.371226,546.457379 L874.371226,548.470583 L876.430534,548.470583 L876.430534,550.314739 L874.371226,550.314739 L874.371226,553.680324 C874.371226,554.028667 874.460872,554.297603 874.640166,554.487143 C874.81946,554.676682 875.073029,554.77145 875.40088,554.77145 C875.779959,554.77145 876.102683,554.668998 876.369062,554.464091 L877.014517,556.154567 Z M878.366898,548.286168 L880.764301,548.286168 L880.764301,556.554134 L878.366898,556.554134 L878.366898,548.286168 Z M879.5656,547.13357 C879.125049,547.13357 878.766467,547.005505 878.489842,546.749371 C878.213217,546.493237 878.074907,546.175635 878.074907,545.796557 C878.074907,545.417478 878.213217,545.099877 878.489842,544.843743 C878.766467,544.587609 879.125049,544.459544 879.5656,544.459544 C880.00615,544.459544 880.364733,544.582486 880.641357,544.828375 C880.917982,545.074264 881.056292,545.38162 881.056292,545.750453 C881.056292,546.150022 880.917982,546.48043 880.641357,546.741687 C880.364733,547.002944 880.00615,547.13357 879.5656,547.13357 Z M893.581186,548.163224 C894.615968,548.163224 895.438146,548.468019 896.047745,549.077618 C896.657344,549.687217 896.962139,550.601602 896.962139,551.8208 L896.962139,556.554134 L894.564736,556.554134 L894.564736,552.189631 C894.564736,551.533928 894.428987,551.044719 894.157485,550.721991 C893.885983,550.399262 893.499226,550.2379 892.997204,550.2379 C892.433709,550.2379 891.988042,550.419752 891.66019,550.783462 C891.332339,551.147173 891.168415,551.687608 891.168415,552.404783 L891.168415,556.554134 L888.771012,556.554134 L888.771012,552.189631 C888.771012,550.88847 888.248507,550.2379 887.20348,550.2379 C886.65023,550.2379 886.209686,550.419752 885.881834,550.783462 C885.553983,551.147173 885.390059,551.687608 885.390059,552.404783 L885.390059,556.554134 L882.992656,556.554134 L882.992656,548.286168 L885.282484,548.286168 L885.282484,549.238982 C885.589845,548.890639 885.966356,548.624264 886.412029,548.439847 C886.857703,548.255431 887.346911,548.163224 887.87967,548.163224 C888.463656,548.163224 888.991284,548.278482 889.462571,548.509003 C889.933858,548.739524 890.31293,549.075054 890.599801,549.515605 C890.937898,549.0853 891.365635,548.75233 891.883026,548.516687 C892.400417,548.281044 892.966465,548.163224 893.581186,548.163224 Z M899.113655,548.286168 L901.511058,548.286168 L901.511058,556.554134 L899.113655,556.554134 L899.113655,548.286168 Z M900.312356,547.13357 C899.871806,547.13357 899.513223,547.005505 899.236599,546.749371 C898.959974,546.493237 898.821663,546.175635 898.821663,545.796557 C898.821663,545.417478 898.959974,545.099877 899.236599,544.843743 C899.513223,544.587609 899.871806,544.459544 900.312356,544.459544 C900.752907,544.459544 901.111489,544.582486 901.388114,544.828375 C901.664739,545.074264 901.803049,545.38162 901.803049,545.750453 C901.803049,546.150022 901.664739,546.48043 901.388114,546.741687 C901.111489,547.002944 900.752907,547.13357 900.312356,547.13357 Z M910.547423,554.709978 L910.547423,556.554134 L903.170798,556.554134 L903.170798,555.109545 L907.381622,550.130324 L903.278374,550.130324 L903.278374,548.286168 L910.409111,548.286168 L910.409111,549.730757 L906.198288,554.709978 L910.547423,554.709978 Z M915.419069,548.163224 C916.699739,548.163224 917.683279,548.468019 918.369719,549.077618 C919.056158,549.687217 919.399373,550.606725 919.399373,551.836168 L919.399373,556.554134 L917.155649,556.554134 L917.155649,555.524481 C916.704853,556.292883 915.864746,556.677078 914.635303,556.677078 C914.00009,556.677078 913.44941,556.569503 912.983246,556.354351 C912.517082,556.139198 912.161061,555.842087 911.915172,555.463009 C911.669284,555.08393 911.546341,554.653631 911.546341,554.172099 C911.546341,553.403697 911.835768,552.79923 912.414631,552.358679 C912.993494,551.918129 913.887389,551.697857 915.096342,551.697857 L917.00197,551.697857 C917.00197,551.175343 916.843169,550.773219 916.525563,550.491471 C916.207956,550.209724 915.731554,550.068852 915.096342,550.068852 C914.655791,550.068852 914.222931,550.138007 913.797748,550.276319 C913.372566,550.414632 913.011422,550.601607 912.714307,550.83725 L911.8537,549.162142 C912.304496,548.844536 912.844931,548.598651 913.475021,548.424479 C914.105111,548.250308 914.75312,548.163224 915.419069,548.163224 Z M915.234653,555.063442 C915.644468,555.063442 916.008173,554.968673 916.325779,554.779134 C916.643385,554.589595 916.86878,554.310413 917.00197,553.94158 L917.00197,553.096342 L915.357597,553.096342 C914.374042,553.096342 913.882272,553.419066 913.882272,554.064524 C913.882272,554.371884 914.002653,554.615208 914.243419,554.794502 C914.484185,554.973796 914.814593,555.063442 915.234653,555.063442 Z M926.898941,556.154567 C926.663298,556.328738 926.373871,556.459365 926.030651,556.54645 C925.687431,556.633536 925.326288,556.677078 924.947209,556.677078 C923.963654,556.677078 923.202947,556.426071 922.665066,555.924048 C922.127184,555.422025 921.858248,554.68437 921.858248,553.71106 L921.858248,550.314739 L920.582706,550.314739 L920.582706,548.470583 L921.858248,548.470583 L921.858248,546.457379 L924.255651,546.457379 L924.255651,548.470583 L926.314958,548.470583 L926.314958,550.314739 L924.255651,550.314739 L924.255651,553.680324 C924.255651,554.028667 924.345296,554.297603 924.52459,554.487143 C924.703884,554.676682 924.957453,554.77145 925.285304,554.77145 C925.664383,554.77145 925.987107,554.668998 926.253486,554.464091 L926.898941,556.154567 Z M928.251322,548.286168 L930.648725,548.286168 L930.648725,556.554134 L928.251322,556.554134 L928.251322,548.286168 Z M929.450024,547.13357 C929.009473,547.13357 928.650891,547.005505 928.374266,546.749371 C928.097641,546.493237 927.959331,546.175635 927.959331,545.796557 C927.959331,545.417478 928.097641,545.099877 928.374266,544.843743 C928.650891,544.587609 929.009473,544.459544 929.450024,544.459544 C929.890574,544.459544 930.249157,544.582486 930.525781,544.828375 C930.802406,545.074264 930.940717,545.38162 930.940717,545.750453 C930.940717,546.150022 930.802406,546.48043 930.525781,546.741687 C930.249157,547.002944 929.890574,547.13357 929.450024,547.13357 Z M936.81128,556.677078 C935.940425,556.677078 935.159227,556.495226 934.467665,556.131515 C933.776103,555.767805 933.235668,555.263228 932.846345,554.61777 C932.457021,553.972313 932.262362,553.23978 932.262362,552.420151 C932.262362,551.600522 932.457021,550.867989 932.846345,550.222532 C933.235668,549.577074 933.776103,549.072497 934.467665,548.708787 C935.159227,548.345076 935.940425,548.163224 936.81128,548.163224 C937.682136,548.163224 938.460772,548.345076 939.147212,548.708787 C939.833651,549.072497 940.371524,549.577074 940.760848,550.222532 C941.150172,550.867989 941.344831,551.600522 941.344831,552.420151 C941.344831,553.23978 941.150172,553.972313 940.760848,554.61777 C940.371524,555.263228 939.833651,555.767805 939.147212,556.131515 C938.460772,556.495226 937.682136,556.677078 936.81128,556.677078 Z M936.81128,554.709978 C937.426002,554.709978 937.930579,554.502513 938.325025,554.087576 C938.719472,553.672638 938.916692,553.116836 938.916692,552.420151 C938.916692,551.723466 938.719472,551.167664 938.325025,550.752726 C937.930579,550.337789 937.426002,550.130324 936.81128,550.130324 C936.196559,550.130324 935.689421,550.337789 935.289852,550.752726 C934.890282,551.167664 934.690501,551.723466 934.690501,552.420151 C934.690501,553.116836 934.890282,553.672638 935.289852,554.087576 C935.689421,554.502513 936.196559,554.709978 936.81128,554.709978 Z M947.968425,548.163224 C948.992961,548.163224 949.820262,548.47058 950.450352,549.085302 C951.080442,549.700024 951.395482,550.611847 951.395482,551.8208 L951.395482,556.554134 L948.998079,556.554134 L948.998079,552.189631 C948.998079,551.533928 948.854646,551.044719 948.567776,550.721991 C948.280906,550.399262 947.865975,550.2379 947.32297,550.2379 C946.718494,550.2379 946.236969,550.424875 945.878382,550.79883 C945.519794,551.172786 945.340503,551.728589 945.340503,552.466255 L945.340503,556.554134 L942.9431,556.554134 L942.9431,548.286168 L945.232927,548.286168 L945.232927,549.25435 C945.550533,548.906007 945.944974,548.63707 946.41626,548.447531 C946.887547,548.257992 947.40493,548.163224 947.968425,548.163224 Z" id="Optimization" fill="#FFFFFF"></path>
                <g id="circle/white" transform="translate(840.177498, 414.000000)" fill="#FFFFFF">
                    <g id="circle_yellow">
                        <circle id="Oval" opacity="0.2" cx="59.6556576" cy="59.6556576" r="59.6556576"></circle>
                        <circle id="Oval" opacity="0.4" cx="59.6556576" cy="59.6556576" r="43.5192912"></circle>
                        <circle id="Oval" cx="59.6556576" cy="59.6556576" r="25.4270016"></circle>
                    </g>
                </g>
                <path d="M100.337998,181.771629 C99.4919798,181.771629 98.7294102,181.589233 98.0502668,181.224436 C97.3711234,180.859639 96.8394591,180.35708 96.455258,179.716745 C96.0710569,179.07641 95.8789592,178.356529 95.8789592,177.55708 C95.8789592,176.757631 96.0710569,176.03775 96.455258,175.397415 C96.8394591,174.75708 97.3711234,174.254521 98.0502668,173.889724 C98.7294102,173.524927 99.4919798,173.342531 100.337998,173.342531 C101.184017,173.342531 101.944646,173.524927 102.619909,173.889724 C103.295171,174.254521 103.826836,174.75708 104.214918,175.397415 C104.603,176.03775 104.797038,176.757631 104.797038,177.55708 C104.797038,178.356529 104.603,179.07641 104.214918,179.716745 C103.826836,180.35708 103.295171,180.859639 102.619909,181.224436 C101.944646,181.589233 101.184017,181.771629 100.337998,181.771629 Z M100.337998,180.164978 C100.81922,180.164978 101.253865,180.054376 101.641947,179.833169 C102.030029,179.611962 102.334669,179.303442 102.555876,178.907598 C102.777082,178.511755 102.887684,178.061587 102.887684,177.55708 C102.887684,177.052573 102.777082,176.602405 102.555876,176.206562 C102.334669,175.810718 102.030029,175.502198 101.641947,175.280991 C101.253865,175.059784 100.81922,174.949182 100.337998,174.949182 C99.8567768,174.949182 99.4221315,175.059784 99.0340496,175.280991 C98.6459677,175.502198 98.3413279,175.810718 98.1201212,176.206562 C97.8989145,176.602405 97.7883128,177.052573 97.7883128,177.55708 C97.7883128,178.061587 97.8989145,178.511755 98.1201212,178.907598 C98.3413279,179.303442 98.6459677,179.611962 99.0340496,179.833169 C99.4221315,180.054376 99.8567768,180.164978 100.337998,180.164978 Z M109.791627,175.27517 C110.37375,175.27517 110.903474,175.409056 111.380815,175.676832 C111.858156,175.944609 112.232649,176.321043 112.504306,176.806145 C112.775964,177.291248 112.91179,177.855898 112.91179,178.500114 C112.91179,179.14433 112.775964,179.708981 112.504306,180.194084 C112.232649,180.679186 111.858156,181.05562 111.380815,181.323396 C110.903474,181.591173 110.37375,181.725059 109.791627,181.725059 C108.992178,181.725059 108.363495,181.47281 107.905558,180.968303 L107.905558,183.890546 L106.089344,183.890546 L106.089344,175.368309 L107.824062,175.368309 L107.824062,176.090138 C108.274237,175.546823 108.930085,175.27517 109.791627,175.27517 Z M109.477282,180.234832 C109.942981,180.234832 110.325236,180.077661 110.624059,179.763315 C110.922882,179.448968 111.072291,179.027906 111.072291,178.500114 C111.072291,177.972323 110.922882,177.55126 110.624059,177.236914 C110.325236,176.922568 109.942981,176.765397 109.477282,176.765397 C109.011584,176.765397 108.629329,176.922568 108.330506,177.236914 C108.031683,177.55126 107.882274,177.972323 107.882274,178.500114 C107.882274,179.027906 108.031683,179.448968 108.330506,179.763315 C108.629329,180.077661 109.011584,180.234832 109.477282,180.234832 Z M118.162513,181.329218 C117.983995,181.461165 117.764732,181.560125 117.504717,181.626099 C117.244702,181.692073 116.971109,181.725059 116.683928,181.725059 C115.938811,181.725059 115.362518,181.534902 114.955032,181.154582 C114.547546,180.774261 114.343806,180.215432 114.343806,179.478076 L114.343806,176.905106 L113.377486,176.905106 L113.377486,175.508018 L114.343806,175.508018 L114.343806,173.982863 L116.16002,173.982863 L116.16002,175.508018 L117.720102,175.508018 L117.720102,176.905106 L116.16002,176.905106 L116.16002,179.454791 C116.16002,179.718687 116.227933,179.922427 116.363762,180.066017 C116.499591,180.209608 116.691688,180.281402 116.940061,180.281402 C117.227241,180.281402 117.471729,180.203786 117.673532,180.048554 L118.162513,181.329218 Z M119.187044,175.368309 L121.003258,175.368309 L121.003258,181.63192 L119.187044,181.63192 L119.187044,175.368309 Z M120.095151,174.495129 C119.761401,174.495129 119.489747,174.39811 119.280183,174.204069 C119.070619,174.010028 118.965838,173.769421 118.965838,173.48224 C118.965838,173.195059 119.070619,172.954452 119.280183,172.760411 C119.489747,172.56637 119.761401,172.469351 120.095151,172.469351 C120.428902,172.469351 120.700555,172.562489 120.910119,172.748769 C121.119683,172.935048 121.224464,173.167894 121.224464,173.447313 C121.224464,173.750017 121.119683,174.000326 120.910119,174.198248 C120.700555,174.396169 120.428902,174.495129 120.095151,174.495129 Z M130.71302,175.27517 C131.496946,175.27517 132.119808,175.506075 132.581625,175.967892 C133.043443,176.42971 133.274348,177.122426 133.274348,178.046061 L133.274348,181.63192 L131.458134,181.63192 L131.458134,178.325478 C131.458134,177.828734 131.355293,177.458121 131.14961,177.213629 C130.943927,176.969138 130.650929,176.846894 130.270609,176.846894 C129.843719,176.846894 129.506092,176.984661 129.25772,177.260199 C129.009348,177.535737 128.885163,177.945157 128.885163,178.488472 L128.885163,181.63192 L127.068949,181.63192 L127.068949,178.325478 C127.068949,177.33975 126.673111,176.846894 125.881424,176.846894 C125.462296,176.846894 125.12855,176.984661 124.880178,177.260199 C124.631805,177.535737 124.507621,177.945157 124.507621,178.488472 L124.507621,181.63192 L122.691406,181.63192 L122.691406,175.368309 L124.426124,175.368309 L124.426124,176.090138 C124.658973,175.826242 124.944209,175.624442 125.28184,175.484733 C125.619472,175.345023 125.990084,175.27517 126.39369,175.27517 C126.836103,175.27517 127.235821,175.362487 127.592857,175.537124 C127.949892,175.71176 128.237069,175.96595 128.454394,176.299701 C128.710528,175.973712 129.034572,175.721462 129.426535,175.542945 C129.818498,175.364427 130.247322,175.27517 130.71302,175.27517 Z M134.904284,175.368309 L136.720498,175.368309 L136.720498,181.63192 L134.904284,181.63192 L134.904284,175.368309 Z M135.812391,174.495129 C135.478641,174.495129 135.206987,174.39811 134.997423,174.204069 C134.787859,174.010028 134.683078,173.769421 134.683078,173.48224 C134.683078,173.195059 134.787859,172.954452 134.997423,172.760411 C135.206987,172.56637 135.478641,172.469351 135.812391,172.469351 C136.146142,172.469351 136.417795,172.562489 136.627359,172.748769 C136.836923,172.935048 136.941704,173.167894 136.941704,173.447313 C136.941704,173.750017 136.836923,174.000326 136.627359,174.198248 C136.417795,174.396169 136.146142,174.495129 135.812391,174.495129 Z M143.56623,180.234832 L143.56623,181.63192 L137.977878,181.63192 L137.977878,180.537534 L141.167895,176.765397 L138.059374,176.765397 L138.059374,175.368309 L143.461448,175.368309 L143.461448,176.462694 L140.27143,180.234832 L143.56623,180.234832 Z M147.25687,175.27517 C148.227075,175.27517 148.972181,175.506075 149.492211,175.967892 C150.012241,176.42971 150.272252,177.126307 150.272252,178.057703 L150.272252,181.63192 L148.572462,181.63192 L148.572462,180.851879 C148.230949,181.434002 147.594505,181.725059 146.663108,181.725059 C146.181886,181.725059 145.764705,181.643563 145.41155,181.480569 C145.058395,181.317574 144.788683,181.09249 144.602403,180.80531 C144.416124,180.518129 144.322986,180.192145 144.322986,179.827348 C144.322986,179.245225 144.542249,178.787295 144.980781,178.453545 C145.419314,178.119794 146.096507,177.952922 147.01238,177.952922 L148.456038,177.952922 C148.456038,177.557078 148.335734,177.252438 148.095123,177.038993 C147.854512,176.825548 147.493602,176.718827 147.01238,176.718827 C146.67863,176.718827 146.350705,176.771217 146.028597,176.876 C145.706489,176.980782 145.432896,177.12243 145.207808,177.300947 L144.555834,176.031926 C144.897346,175.791315 145.306766,175.605038 145.784107,175.47309 C146.261448,175.341143 146.752364,175.27517 147.25687,175.27517 Z M147.117162,180.502607 C147.427627,180.502607 147.703161,180.430813 147.943772,180.287223 C148.184383,180.143632 148.355136,179.932131 148.456038,179.652712 L148.456038,179.01238 L147.210301,179.01238 C146.465183,179.01238 146.09263,179.256868 146.09263,179.745851 C146.09263,179.9787 146.183828,180.163037 146.366227,180.298865 C146.548625,180.434694 146.798934,180.502607 147.117162,180.502607 Z M155.953743,181.329218 C155.775226,181.461165 155.555963,181.560125 155.295948,181.626099 C155.035933,181.692073 154.762339,181.725059 154.475158,181.725059 C153.730041,181.725059 153.153748,181.534902 152.746262,181.154582 C152.338776,180.774261 152.135036,180.215432 152.135036,179.478076 L152.135036,176.905106 L151.168717,176.905106 L151.168717,175.508018 L152.135036,175.508018 L152.135036,173.982863 L153.95125,173.982863 L153.95125,175.508018 L155.511332,175.508018 L155.511332,176.905106 L153.95125,176.905106 L153.95125,179.454791 C153.95125,179.718687 154.019164,179.922427 154.154992,180.066017 C154.290821,180.209608 154.482919,180.281402 154.731291,180.281402 C155.018472,180.281402 155.26296,180.203786 155.464762,180.048554 L155.953743,181.329218 Z M156.978274,175.368309 L158.794489,175.368309 L158.794489,181.63192 L156.978274,181.63192 L156.978274,175.368309 Z M157.886382,174.495129 C157.552631,174.495129 157.280978,174.39811 157.071414,174.204069 C156.861849,174.010028 156.757069,173.769421 156.757069,173.48224 C156.757069,173.195059 156.861849,172.954452 157.071414,172.760411 C157.280978,172.56637 157.552631,172.469351 157.886382,172.469351 C158.220132,172.469351 158.491785,172.562489 158.70135,172.748769 C158.910914,172.935048 159.015694,173.167894 159.015694,173.447313 C159.015694,173.750017 158.910914,174.000326 158.70135,174.198248 C158.491785,174.396169 158.220132,174.495129 157.886382,174.495129 Z M163.463091,181.725059 C162.803352,181.725059 162.211536,181.587292 161.687625,181.311754 C161.163715,181.036216 160.754294,180.653961 160.459352,180.164978 C160.16441,179.675994 160.016941,179.121046 160.016941,178.500114 C160.016941,177.879183 160.16441,177.324234 160.459352,176.835251 C160.754294,176.346268 161.163715,175.964013 161.687625,175.688475 C162.211536,175.412937 162.803352,175.27517 163.463091,175.27517 C164.12283,175.27517 164.712706,175.412937 165.232736,175.688475 C165.752766,175.964013 166.160246,176.346268 166.455188,176.835251 C166.75013,177.324234 166.897599,177.879183 166.897599,178.500114 C166.897599,179.121046 166.75013,179.675994 166.455188,180.164978 C166.160246,180.653961 165.752766,181.036216 165.232736,181.311754 C164.712706,181.587292 164.12283,181.725059 163.463091,181.725059 Z M163.463091,180.234832 C163.92879,180.234832 164.311045,180.077661 164.609868,179.763315 C164.908691,179.448968 165.0581,179.027906 165.0581,178.500114 C165.0581,177.972323 164.908691,177.55126 164.609868,177.236914 C164.311045,176.922568 163.92879,176.765397 163.463091,176.765397 C162.997393,176.765397 162.613198,176.922568 162.310494,177.236914 C162.00779,177.55126 161.85644,177.972323 161.85644,178.500114 C161.85644,179.027906 162.00779,179.448968 162.310494,179.763315 C162.613198,180.077661 162.997393,180.234832 163.463091,180.234832 Z M171.915474,175.27517 C172.691637,175.27517 173.31838,175.508015 173.795721,175.973714 C174.273062,176.439412 174.511729,177.130187 174.511729,178.046061 L174.511729,181.63192 L172.695514,181.63192 L172.695514,178.325478 C172.695514,177.828734 172.586853,177.458121 172.369527,177.213629 C172.152201,176.969138 171.83786,176.846894 171.426493,176.846894 C170.968556,176.846894 170.603765,176.988541 170.332107,177.271841 C170.06045,177.555141 169.924623,177.976204 169.924623,178.535042 L169.924623,181.63192 L168.108409,181.63192 L168.108409,175.368309 L169.843126,175.368309 L169.843126,176.10178 C170.083737,175.837884 170.382556,175.634144 170.739591,175.490554 C171.096627,175.346964 171.488583,175.27517 171.915474,175.27517 Z" id="Optimization" fill="#FFFFFF"></path>
                <g id="circle/white" transform="translate(90.255680, 74.000000)" fill="#FFFFFF">
                    <g id="circle_yellow">
                        <circle id="Oval" opacity="0.2" cx="45.0118141" cy="45.0118141" r="45.0118141"></circle>
                        <circle id="Oval" opacity="0.4" cx="45.0118141" cy="45.0118141" r="32.8364873"></circle>
                        <circle id="Oval" cx="45.0118141" cy="45.0118141" r="19.1853634"></circle>
                    </g>
                </g>
                <path d="M1138.79412,212.771629 C1137.96362,212.771629 1137.2127,212.591173 1136.54132,212.230257 C1135.86993,211.869341 1135.34215,211.368723 1134.95795,210.728388 C1134.57375,210.088052 1134.38165,209.36429 1134.38165,208.55708 C1134.38165,207.74987 1134.57375,207.026108 1134.95795,206.385772 C1135.34215,205.745437 1135.86993,205.244819 1136.54132,204.883903 C1137.2127,204.522987 1137.96751,204.342531 1138.80576,204.342531 C1139.51207,204.342531 1140.15046,204.466716 1140.72094,204.715088 C1141.29142,204.96346 1141.77069,205.32049 1142.15877,205.786189 L1140.94796,206.903859 C1140.39689,206.267405 1139.71387,205.949182 1138.8989,205.949182 C1138.3944,205.949182 1137.94423,206.059784 1137.54838,206.280991 C1137.15254,206.502198 1136.84402,206.810718 1136.62281,207.206562 C1136.40161,207.602405 1136.291,208.052573 1136.291,208.55708 C1136.291,209.061587 1136.40161,209.511755 1136.62281,209.907598 C1136.84402,210.303442 1137.15254,210.611962 1137.54838,210.833169 C1137.94423,211.054376 1138.3944,211.164978 1138.8989,211.164978 C1139.71387,211.164978 1140.39689,210.842874 1140.94796,210.198658 L1142.15877,211.316329 C1141.77069,211.789789 1141.28948,212.1507 1140.71512,212.399072 C1140.14075,212.647444 1139.50043,212.771629 1138.79412,212.771629 Z M1147.10679,206.27517 C1147.88296,206.27517 1148.5097,206.508015 1148.98704,206.973714 C1149.46438,207.439412 1149.70305,208.130187 1149.70305,209.046061 L1149.70305,212.63192 L1147.88683,212.63192 L1147.88683,209.325478 C1147.88683,208.828734 1147.77817,208.458121 1147.56085,208.213629 C1147.34352,207.969138 1147.02918,207.846894 1146.61781,207.846894 C1146.15988,207.846894 1145.79508,207.988541 1145.52343,208.271841 C1145.25177,208.555141 1145.11594,208.976204 1145.11594,209.535042 L1145.11594,212.63192 L1143.29973,212.63192 L1143.29973,203.993259 L1145.11594,203.993259 L1145.11594,207.020283 C1145.35655,206.779672 1145.64761,206.595336 1145.98912,206.467269 C1146.33064,206.339202 1146.70319,206.27517 1147.10679,206.27517 Z M1153.87103,206.27517 C1154.84123,206.27517 1155.58634,206.506075 1156.10637,206.967892 C1156.6264,207.42971 1156.88641,208.126307 1156.88641,209.057703 L1156.88641,212.63192 L1155.18662,212.63192 L1155.18662,211.851879 C1154.84511,212.434002 1154.20866,212.725059 1153.27727,212.725059 C1152.79604,212.725059 1152.37886,212.643563 1152.02571,212.480569 C1151.67255,212.317574 1151.40284,212.09249 1151.21656,211.80531 C1151.03028,211.518129 1150.93714,211.192145 1150.93714,210.827348 C1150.93714,210.245225 1151.15641,209.787295 1151.59494,209.453545 C1152.03347,209.119794 1152.71066,208.952922 1153.62654,208.952922 L1155.0702,208.952922 C1155.0702,208.557078 1154.94989,208.252438 1154.70928,208.038993 C1154.46867,207.825548 1154.10776,207.718827 1153.62654,207.718827 C1153.29279,207.718827 1152.96486,207.771217 1152.64275,207.876 C1152.32065,207.980782 1152.04705,208.12243 1151.82197,208.300947 L1151.16999,207.031926 C1151.5115,206.791315 1151.92092,206.605038 1152.39826,206.47309 C1152.87561,206.341143 1153.36652,206.27517 1153.87103,206.27517 Z M1153.73132,211.502607 C1154.04178,211.502607 1154.31732,211.430813 1154.55793,211.287223 C1154.79854,211.143632 1154.96929,210.932131 1155.0702,210.652712 L1155.0702,210.01238 L1153.82446,210.01238 C1153.07934,210.01238 1152.70679,210.256868 1152.70679,210.745851 C1152.70679,210.9787 1152.79799,211.163037 1152.98038,211.298865 C1153.16278,211.434694 1153.41309,211.502607 1153.73132,211.502607 Z M1162.33505,206.27517 C1163.11122,206.27517 1163.73796,206.508015 1164.2153,206.973714 C1164.69264,207.439412 1164.93131,208.130187 1164.93131,209.046061 L1164.93131,212.63192 L1163.11509,212.63192 L1163.11509,209.325478 C1163.11509,208.828734 1163.00643,208.458121 1162.78911,208.213629 C1162.57178,207.969138 1162.25744,207.846894 1161.84607,207.846894 C1161.38814,207.846894 1161.02334,207.988541 1160.75169,208.271841 C1160.48003,208.555141 1160.3442,208.976204 1160.3442,209.535042 L1160.3442,212.63192 L1158.52799,212.63192 L1158.52799,206.368309 L1160.26271,206.368309 L1160.26271,207.10178 C1160.50332,206.837884 1160.80214,206.634144 1161.15917,206.490554 C1161.51621,206.346964 1161.90816,206.27517 1162.33505,206.27517 Z M1170.37995,206.27517 C1171.15612,206.27517 1171.78286,206.508015 1172.2602,206.973714 C1172.73754,207.439412 1172.97621,208.130187 1172.97621,209.046061 L1172.97621,212.63192 L1171.15999,212.63192 L1171.15999,209.325478 C1171.15999,208.828734 1171.05133,208.458121 1170.834,208.213629 C1170.61668,207.969138 1170.30234,207.846894 1169.89097,207.846894 C1169.43303,207.846894 1169.06824,207.988541 1168.79658,208.271841 C1168.52493,208.555141 1168.3891,208.976204 1168.3891,209.535042 L1168.3891,212.63192 L1166.57289,212.63192 L1166.57289,206.368309 L1168.3076,206.368309 L1168.3076,207.10178 C1168.54821,206.837884 1168.84703,206.634144 1169.20407,206.490554 C1169.5611,206.346964 1169.95306,206.27517 1170.37995,206.27517 Z M1180.75333,209.523399 C1180.75333,209.546684 1180.74169,209.709676 1180.7184,210.01238 L1175.97995,210.01238 C1176.06532,210.400462 1176.26712,210.707042 1176.58535,210.93213 C1176.90358,211.157217 1177.29942,211.269759 1177.77288,211.269759 C1178.09886,211.269759 1178.38798,211.22125 1178.64023,211.124229 C1178.89249,211.027209 1179.12727,210.873919 1179.3446,210.664354 L1180.31092,211.71217 C1179.72103,212.387433 1178.8595,212.725059 1177.72631,212.725059 C1177.02,212.725059 1176.39519,212.587292 1175.85188,212.311754 C1175.30856,212.036216 1174.88944,211.653961 1174.5945,211.164978 C1174.29956,210.675994 1174.15209,210.121046 1174.15209,209.500114 C1174.15209,208.886945 1174.29762,208.333936 1174.58868,207.841072 C1174.87974,207.348208 1175.27946,206.964013 1175.78785,206.688475 C1176.29623,206.412937 1176.86476,206.27517 1177.49346,206.27517 C1178.10663,206.27517 1178.66158,206.407115 1179.15832,206.671011 C1179.65507,206.934907 1180.04508,207.313281 1180.32838,207.806145 C1180.61168,208.299009 1180.75333,208.871422 1180.75333,209.523399 Z M1177.5051,207.648973 C1177.09373,207.648973 1176.74835,207.765396 1176.46893,207.998245 C1176.18951,208.231094 1176.01875,208.549316 1175.95666,208.952922 L1179.0419,208.952922 C1178.9798,208.557078 1178.80905,208.240796 1178.52963,208.004066 C1178.25021,207.767336 1177.90871,207.648973 1177.5051,207.648973 Z M1181.96414,203.993259 L1183.78035,203.993259 L1183.78035,212.63192 L1181.96414,212.63192 L1181.96414,203.993259 Z M1187.57578,212.725059 C1187.05575,212.725059 1186.54737,212.661027 1186.05062,212.53296 C1185.55388,212.404893 1185.15804,212.243841 1184.8631,212.0498 L1185.4685,210.745851 C1185.74792,210.924369 1186.08555,211.069897 1186.48139,211.182441 C1186.87723,211.294985 1187.26531,211.351256 1187.64563,211.351256 C1188.41403,211.351256 1188.79823,211.161099 1188.79823,210.780778 C1188.79823,210.602261 1188.69345,210.474196 1188.48388,210.396579 C1188.27432,210.318963 1187.95222,210.25299 1187.51756,210.198658 C1187.0053,210.121042 1186.58229,210.031785 1186.24854,209.930883 C1185.91479,209.829982 1185.62568,209.651467 1185.38118,209.395333 C1185.13669,209.139199 1185.01445,208.774407 1185.01445,208.300947 C1185.01445,207.905104 1185.12893,207.553895 1185.3579,207.24731 C1185.58687,206.940725 1185.92061,206.702058 1186.35915,206.531302 C1186.79768,206.360546 1187.31576,206.27517 1187.91341,206.27517 C1188.35582,206.27517 1188.79629,206.323679 1189.23482,206.4207 C1189.67335,206.51772 1190.0362,206.651606 1190.32338,206.822362 L1189.71798,208.114669 C1189.1669,207.804203 1188.56538,207.648973 1187.91341,207.648973 C1187.52532,207.648973 1187.23427,207.703303 1187.04023,207.811966 C1186.84618,207.920629 1186.74917,208.060337 1186.74917,208.231093 C1186.74917,208.425134 1186.85395,208.56096 1187.06351,208.638577 C1187.27307,208.716193 1187.60682,208.789928 1188.06476,208.859782 C1188.57702,208.94516 1188.99615,209.036358 1189.32214,209.133379 C1189.64812,209.230399 1189.93142,209.406974 1190.17203,209.663108 C1190.41264,209.919242 1190.53295,210.276272 1190.53295,210.734209 C1190.53295,211.122291 1190.41652,211.467678 1190.18367,211.770382 C1189.95082,212.073086 1189.61126,212.307872 1189.16496,212.474748 C1188.71867,212.641623 1188.18895,212.725059 1187.57578,212.725059 Z" id="Channels" fill="#FFFFFF"></path>
                <g id="circle/white" transform="translate(1117.255680, 105.000000)" fill="#FFFFFF">
                    <g id="circle_yellow">
                        <circle id="Oval" opacity="0.2" cx="45.0118141" cy="45.0118141" r="45.0118141"></circle>
                        <circle id="Oval" opacity="0.4" cx="45.0118141" cy="45.0118141" r="32.8364873"></circle>
                        <circle id="Oval" cx="45.0118141" cy="45.0118141" r="19.1853634"></circle>
                    </g>
                </g>
                <path d="M125,293 C186.598344,273.156606 231.931677,270.23491 261,284.23491 C304.602484,305.23491 380.074534,364 476,301" id="Path-2" stroke="url(#linearGradient-1)" stroke-width="3" opacity="0.7"></path>
                <path d="M612,350.581681 C710.086957,309.335614 786.086957,318.808387 840,379 C920.869565,469.287419 1086,633.581681 1127,350.581681" id="Path-2" stroke="url(#linearGradient-1)" stroke-width="3" opacity="0.7" transform="translate(869.500000, 417.251222) scale(-1, 1) translate(-869.500000, -417.251222) "></path>
                <path d="M137,118 C199,70.6666667 256.333333,100 309,206 C388,365 545.043478,527.591497 612,346" id="Path-2" stroke="url(#linearGradient-1)" stroke-width="3" opacity="0.7"></path>
                <path d="M612,163.667871 C684.181053,123.352281 750.929123,148.33659 812.244211,238.620798 C904.216842,374.04711 1087.04851,512.532435 1165,357.864091" id="Path-2" stroke="url(#linearGradient-1)" stroke-width="3" opacity="0.7" transform="translate(888.500000, 285.510509) scale(-1, 1) translate(-888.500000, -285.510509) "></path>
                <path d="M309,443 C410,367 410,492 497,506 C549.593957,514.463395 597,451 624,312" id="Path-2" stroke="url(#linearGradient-1)" stroke-width="3" opacity="0.7"></path>
                <path d="M610.634468,471 C751.268935,373.505043 734.737636,530.099776 803.04495,548 C844.33865,558.821191 905.293682,490 894.806633,374" id="Path-2" stroke="url(#linearGradient-1)" stroke-width="3" opacity="0.7" transform="translate(753.317234, 461.556561) scale(-1, 1) translate(-753.317234, -461.556561) "></path>
                <path d="M353,93.650026 C386.806316,42.5748525 418.06807,74.2270727 446.785263,188.606687 C489.861053,360.176108 575.491076,546.946843 612,351" id="Path-2" stroke="url(#linearGradient-1)" stroke-width="3" opacity="0.7"></path>
                <path d="M612,126.32502 C651.941053,80.2709859 688.875789,108.811514 722.804211,211.946605 C773.696842,366.649242 874.865904,524.846307 918,348.162763" id="Path-2" stroke="url(#linearGradient-1)" stroke-width="3" opacity="0.7" transform="translate(765.000000, 265.510509) scale(-1, 1) translate(-765.000000, -265.510509) "></path>
            </g>
        </g>
    </g>
</svg>