<svg xmlns="http://www.w3.org/2000/svg" xmlns:xlink="http://www.w3.org/1999/xlink" viewBox="0 0 709.48 1024.07"><defs><style>.mobile-web-ads-1,.mobile-web-ads-6{fill:#fff;}.mobile-web-ads-1,.mobile-web-ads-2,.mobile-web-ads-3{stroke:#575756;stroke-miterlimit:10;}.mobile-web-ads-1{stroke-width:4px;}.mobile-web-ads-2,.mobile-web-ads-3{fill:none;stroke-width:3px;}.mobile-web-ads-3{opacity:0.99;}.mobile-web-ads-4{fill:#c6c6c6;}.mobile-web-ads-5{fill:url(#Smarty);}</style><linearGradient id="Smarty" x1="99.3" y1="359.08" x2="424.41" y2="684.19" gradientUnits="userSpaceOnUse"><stop offset="0" stop-color="#fbb640"/><stop offset="1" stop-color="#b36ea4"/></linearGradient></defs><title>mobile-web-ads</title><g id="Layer_1" data-name="Layer 1"><rect class="mobile-web-ads-1" x="2" y="2" width="705.48" height="1020.07" rx="51.03" ry="51.03"/><polygon class="mobile-web-ads-2" points="686.21 911 17.27 911 20.27 92.55 689.21 92.55 686.21 911"/><circle class="mobile-web-ads-3" cx="354.74" cy="973.61" r="34.72"/><circle class="mobile-web-ads-2" cx="354.74" cy="47.72" r="7.25"/></g><g id="Layer_2" data-name="Layer 2"><rect class="mobile-web-ads-4" x="48.33" y="110.3" width="250.07" height="12.79" rx="5.25" ry="5.25"/><rect class="mobile-web-ads-4" x="48.33" y="155.37" width="250.07" height="12.79" rx="5.25" ry="5.25"/><rect class="mobile-web-ads-4" x="48.33" y="200.45" width="250.07" height="12.79" rx="5.25" ry="5.25"/><rect class="mobile-web-ads-4" x="524.14" y="385.6" width="135.34" height="12.79" rx="5.25" ry="5.25"/><rect class="mobile-web-ads-4" x="524.14" y="430.67" width="105.38" height="12.79" rx="5.25" ry="5.25"/><rect class="mobile-web-ads-4" x="524.14" y="475.75" width="105.38" height="12.79" rx="5.25" ry="5.25"/><rect class="mobile-web-ads-4" x="48.33" y="245.53" width="422.66" height="12.79" rx="5.25" ry="5.25"/><rect class="mobile-web-ads-4" x="48.33" y="290.6" width="422.66" height="12.79" rx="5.25" ry="5.25"/><rect class="mobile-web-ads-4" x="48.33" y="335.68" width="422.66" height="12.79" rx="5.25" ry="5.25"/><rect class="mobile-web-ads-4" x="48.33" y="695.05" width="422.66" height="12.79" rx="5.25" ry="5.25"/><rect class="mobile-web-ads-4" x="48.33" y="740.13" width="422.66" height="12.79" rx="5.25" ry="5.25"/><rect class="mobile-web-ads-4" x="48.33" y="785.2" width="422.66" height="12.79" rx="5.25" ry="5.25"/><rect class="mobile-web-ads-4" x="48.33" y="834.54" width="422.66" height="12.79" rx="5.25" ry="5.25"/><rect class="mobile-web-ads-4" x="334.09" y="110.91" width="135.34" height="102.03" rx="5.25" ry="5.25"/><rect class="mobile-web-ads-4" x="524.14" y="110.91" width="135.34" height="237.56" rx="5.25" ry="5.25"/><rect class="mobile-web-ads-4" x="524.14" y="793.71" width="135.34" height="12.79" rx="5.25" ry="5.25"/><rect class="mobile-web-ads-4" x="524.14" y="834.54" width="135.34" height="12.79" rx="5.25" ry="5.25"/><rect class="mobile-web-ads-4" x="48.33" y="883.88" width="422.66" height="12.79" rx="5.25" ry="5.25"/><rect class="mobile-web-ads-4" x="524.14" y="883.88" width="135.34" height="12.79" rx="5.25" ry="5.25"/><rect class="mobile-web-ads-4" x="524.14" y="519.03" width="135.34" height="237.56" rx="5.25" ry="5.25"/><rect class="mobile-web-ads-5" x="48.03" y="385.6" width="427.65" height="272.08" rx="42.26" ry="42.26"/><g id="aSyGey"><path class="mobile-web-ads-6" d="M254.25,516.47c0-6.34,0-12.69,0-19,0-3.21,1.6-4.15,4.31-2.54q15.55,9.21,31.07,18.48c3.07,1.84,3,4.72-.1,6.59q-15.41,9.21-30.87,18.36c-2.86,1.7-4.41.78-4.42-2.6C254.24,529.32,254.25,522.9,254.25,516.47Z"/></g><path class="mobile-web-ads-6" d="M433.78,547.48a3.16,3.16,0,0,1,1.41.29,2.55,2.55,0,0,1,1,.82,3.67,3.67,0,0,1,.56,1.27,6.88,6.88,0,0,1,.18,1.64q0,.3,0,.72t-.05.88q0,.46-.1.93a5.47,5.47,0,0,1-.16.86q-.11.45-.43.45h-.75a.29.29,0,0,1-.24-.11.43.43,0,0,1-.09-.28v-.09q0-.39.09-.85t.08-.93q0-.47.05-.88t0-.71a3.14,3.14,0,0,0-.32-1.59,1.29,1.29,0,0,0-1.2-.54,1.21,1.21,0,0,0-.86.34A6.45,6.45,0,0,0,432,551l-1.29,2.17a6.31,6.31,0,0,1-1.32,1.59,2.64,2.64,0,0,1-1.75.6,2.85,2.85,0,0,1-1.38-.3,2.41,2.41,0,0,1-.88-.82,3.33,3.33,0,0,1-.46-1.22,8.64,8.64,0,0,1-.13-1.55q0-.9.07-1.75t.2-1.6q.06-.41.43-.41h.71a.32.32,0,0,1,.36.36v.06q0,.56-.11,1.49t-.06,1.84a4.05,4.05,0,0,0,.21,1.45q.21.55,1,.55a1.14,1.14,0,0,0,.85-.36,5.7,5.7,0,0,0,.78-1.12l1.27-2.13a5.87,5.87,0,0,1,1.55-1.85A2.93,2.93,0,0,1,433.78,547.48Z"/><path class="mobile-web-ads-6" d="M436.62,530.86a.41.41,0,0,1,.13.3v1a.44.44,0,0,1-.43.43h-7.6a3.57,3.57,0,0,0-1.12.15,1.78,1.78,0,0,0-.71.41,1.44,1.44,0,0,0-.36.62,2.73,2.73,0,0,0-.11.77,4.87,4.87,0,0,0,.17,1.23,12.65,12.65,0,0,0,.41,1.28,6.42,6.42,0,0,1,1.67-.19h7.64a.46.46,0,0,1,.3.11.35.35,0,0,1,.13.28v1.14a.32.32,0,0,1-.13.27.49.49,0,0,1-.3.1h-7.64a5.54,5.54,0,0,0-1.15.1,1.54,1.54,0,0,0-.69.31,1.06,1.06,0,0,0-.33.53,2.73,2.73,0,0,0-.09.72,3.69,3.69,0,0,0,.25,1.26,13.14,13.14,0,0,0,.59,1.36h9.06a.46.46,0,0,1,.3.11.35.35,0,0,1,.13.28v1.14a.32.32,0,0,1-.13.27.49.49,0,0,1-.3.1H425.37a.43.43,0,0,1-.3-.12.38.38,0,0,1-.13-.29v-1.07a.38.38,0,0,1,.13-.29.43.43,0,0,1,.3-.12h.41a7.94,7.94,0,0,1-.71-1.44,4.75,4.75,0,0,1-.3-1.7,3.34,3.34,0,0,1,.2-1.21,2.36,2.36,0,0,1,.68-.93A9.54,9.54,0,0,1,425,536a7.3,7.3,0,0,1-.23-1.75,4.65,4.65,0,0,1,.19-1.36,2.68,2.68,0,0,1,.65-1.11,3.14,3.14,0,0,1,1.22-.74,5.71,5.71,0,0,1,1.88-.27h7.6A.41.41,0,0,1,436.62,530.86Z"/><path class="mobile-web-ads-6" d="M436.31,519.59a.44.44,0,0,1,.43.43v1a.44.44,0,0,1-.43.43h-.47a10,10,0,0,1,.75,1.59,4.93,4.93,0,0,1,.3,1.72,5.33,5.33,0,0,1-.16,1.32,2.75,2.75,0,0,1-.57,1.12,2.88,2.88,0,0,1-1.07.77,4.21,4.21,0,0,1-1.67.29h-.26a4,4,0,0,1-1.51-.27,2.5,2.5,0,0,1-1.09-.88,4.28,4.28,0,0,1-.65-1.6,11.64,11.64,0,0,1-.21-2.43v-1.59h-.86a2.71,2.71,0,0,0-1.89.52,2.41,2.41,0,0,0-.54,1.78q0,1.05.05,1.85t.12,1.44v.11a.55.55,0,0,1-.06.27q-.06.12-.28.12h-.75q-.34,0-.41-.45-.11-.67-.19-1.45a17.61,17.61,0,0,1-.09-1.88,4.16,4.16,0,0,1,1.07-3.21,4.24,4.24,0,0,1,3-1ZM431,521.48v1.59a9.17,9.17,0,0,0,.12,1.61,2.67,2.67,0,0,0,.36,1,1.33,1.33,0,0,0,.64.52,2.77,2.77,0,0,0,1,.15h.26a1.89,1.89,0,0,0,1.56-.52,2.35,2.35,0,0,0,.4-1.46,4.79,4.79,0,0,0-.21-1.44,7.83,7.83,0,0,0-.64-1.46Z"/><path class="mobile-web-ads-6" d="M426.44,511.82a5.15,5.15,0,0,0,.2,1.45,6.48,6.48,0,0,0,.7,1.51h9a.44.44,0,0,1,.43.43v1.05a.38.38,0,0,1-.13.29.43.43,0,0,1-.3.12H425.37a.43.43,0,0,1-.3-.12.38.38,0,0,1-.13-.29v-1a.38.38,0,0,1,.13-.29.44.44,0,0,1,.31-.12h.46a6,6,0,0,1-.8-1.56,4.77,4.77,0,0,1-.24-1.47q0-.45.39-.45h.89Q426.44,511.37,426.44,511.82Z"/><path class="mobile-web-ads-6" d="M436.79,503.45q0,.32.07.71t0,.69a6.25,6.25,0,0,1-.12,1.3,1.91,1.91,0,0,1-.44.9,2,2,0,0,1-.88.54,4.72,4.72,0,0,1-1.44.18h-7.49l-.24,2.08q0,.41-.39.41h-.58q-.39,0-.39-.41v-2.08h-2.1a.4.4,0,0,1-.43-.39l-.17-1.12v-.06a.31.31,0,0,1,.1-.23.36.36,0,0,1,.27-.1h2.34v-2.32a.44.44,0,0,1,.43-.43h.73a.44.44,0,0,1,.43.43v2.32H434a1.6,1.6,0,0,0,1.11-.26,1.34,1.34,0,0,0,.24-.9v-1.2q0-.45.31-.45h.76Q436.72,503.06,436.79,503.45Z"/><path class="mobile-web-ads-6" d="M425.3,491.9a.37.37,0,0,1,.15,0l12.37,3.54a9.76,9.76,0,0,1,1.48.55,2.87,2.87,0,0,1,1,.74,2.83,2.83,0,0,1,.55,1.08,6,6,0,0,1,.17,1.56,9.07,9.07,0,0,1-.05,1,6.33,6.33,0,0,1-.14.85,1.42,1.42,0,0,1-.11.32.24.24,0,0,1-.24.13h-.79q-.34,0-.34-.41v-.06q0-.36.09-1t0-1a3.75,3.75,0,0,0-.08-.79,1.38,1.38,0,0,0-.28-.59,1.75,1.75,0,0,0-.56-.43,4,4,0,0,0-.91-.31l-.88-.21v.3a2.44,2.44,0,0,1,0,.46,1,1,0,0,1-.19.43,1.42,1.42,0,0,1-.45.38,3.92,3.92,0,0,1-.79.32l-9.81,2.86a.37.37,0,0,1-.15,0q-.36,0-.36-.39v-1.18a.29.29,0,0,1,.11-.23.67.67,0,0,1,.24-.14l9.34-2.53a.74.74,0,0,0,.4-.19.37.37,0,0,0,.07-.21v-.34l-9.83-2.62a.52.52,0,0,1-.23-.15.37.37,0,0,1-.1-.26v-1.2Q424.94,491.9,425.3,491.9Z"/><path class="mobile-web-ads-6" d="M436.31,481.38a.44.44,0,0,1,.43.43v1a.44.44,0,0,1-.43.43h-.47a10,10,0,0,1,.75,1.59,4.93,4.93,0,0,1,.3,1.72,5.33,5.33,0,0,1-.16,1.32,2.75,2.75,0,0,1-.57,1.12,2.87,2.87,0,0,1-1.07.77,4.21,4.21,0,0,1-1.67.29h-.26a4,4,0,0,1-1.51-.27,2.5,2.5,0,0,1-1.09-.88,4.28,4.28,0,0,1-.65-1.6,11.64,11.64,0,0,1-.21-2.43v-1.59h-.86a2.71,2.71,0,0,0-1.89.52,2.41,2.41,0,0,0-.54,1.78q0,1.05.05,1.85t.12,1.44V489a.55.55,0,0,1-.06.27q-.06.12-.28.12h-.75q-.34,0-.41-.45-.11-.67-.19-1.45a17.61,17.61,0,0,1-.09-1.88,4.16,4.16,0,0,1,1.07-3.21,4.24,4.24,0,0,1,3-1ZM431,483.27v1.59a9.17,9.17,0,0,0,.12,1.61,2.67,2.67,0,0,0,.36,1,1.33,1.33,0,0,0,.64.52,2.78,2.78,0,0,0,1,.15h.26a1.89,1.89,0,0,0,1.56-.52,2.35,2.35,0,0,0,.4-1.46,4.79,4.79,0,0,0-.21-1.44,7.83,7.83,0,0,0-.64-1.46Z"/><path class="mobile-web-ads-6" d="M436,469.76a.62.62,0,0,1,.33.07.53.53,0,0,1,.16.38,19.81,19.81,0,0,1,.28,2q.09,1,.09,2a5.28,5.28,0,0,1-.38,2.08,3.85,3.85,0,0,1-1.06,1.46,4.42,4.42,0,0,1-1.67.86,8,8,0,0,1-2.19.28H430a5.85,5.85,0,0,1-3.9-1.16,4.37,4.37,0,0,1-1.36-3.52q0-.49.05-1.19t.16-1.32h-4a.4.4,0,0,1-.41-.41v-1.1a.36.36,0,0,1,.12-.28.42.42,0,0,1,.29-.11Zm-9.45,1.89a7.71,7.71,0,0,0-.13,1.27q0,.73,0,1.25a3.31,3.31,0,0,0,.24,1.33,2,2,0,0,0,.7.86,3,3,0,0,0,1.14.46A7.61,7.61,0,0,0,430,477h1.55a5.05,5.05,0,0,0,2.7-.6,2.39,2.39,0,0,0,.94-2.19q0-.56,0-1.26t-.09-1.26Z"/><path class="mobile-web-ads-6" d="M433.78,459.37a3.16,3.16,0,0,1,1.41.29,2.55,2.55,0,0,1,1,.82,3.67,3.67,0,0,1,.56,1.27,6.88,6.88,0,0,1,.18,1.64q0,.3,0,.72t-.05.88q0,.46-.1.93a5.47,5.47,0,0,1-.16.86q-.11.45-.43.45h-.75a.29.29,0,0,1-.24-.11.43.43,0,0,1-.09-.28v-.09q0-.39.09-.85t.08-.93q0-.47.05-.88t0-.71a3.14,3.14,0,0,0-.32-1.59,1.29,1.29,0,0,0-1.2-.54,1.21,1.21,0,0,0-.86.34,6.44,6.44,0,0,0-.92,1.27L430.71,465a6.31,6.31,0,0,1-1.32,1.59,2.64,2.64,0,0,1-1.75.6,2.85,2.85,0,0,1-1.38-.3,2.41,2.41,0,0,1-.88-.82,3.33,3.33,0,0,1-.46-1.22,8.64,8.64,0,0,1-.13-1.55q0-.9.07-1.75t.2-1.6q.06-.41.43-.41h.71a.32.32,0,0,1,.36.37V460q0,.56-.11,1.49t-.06,1.84a4.05,4.05,0,0,0,.21,1.45q.21.55,1,.55a1.14,1.14,0,0,0,.85-.37,5.7,5.7,0,0,0,.78-1.12l1.27-2.13a5.87,5.87,0,0,1,1.55-1.85A2.93,2.93,0,0,1,433.78,459.37Z"/><path class="mobile-web-ads-6" d="M441,570.43"/><path class="mobile-web-ads-6" d="M440.91,578.09a.6.6,0,0,1-1.18.16l-.94-3.32v3.16a.6.6,0,0,1-1.2,0v-7.51a.6.6,0,0,1,1.18-.16l2.12,7.51A.61.61,0,0,1,440.91,578.09Z"/><path class="mobile-web-ads-6" d="M443.73,578.09a.6.6,0,0,1-1.18.16l-2.12-7.51a.6.6,0,0,1,1.16-.33l2.12,7.51A.61.61,0,0,1,443.73,578.09Z"/><path class="mobile-web-ads-6" d="M445,574.36a.6.6,0,0,1-1.18.16l.23-.53c-.09-.32-.44-1.19-.12-1.28a.6.6,0,0,1,.74.42l.3,1.06A.6.6,0,0,1,445,574.36Z"/><path class="mobile-web-ads-6" d="M436.21,571.6V577a1.67,1.67,0,0,1-1.67,1.67h-1.7a8.18,8.18,0,1,1-.06-8.79h1.76A1.67,1.67,0,0,1,436.21,571.6Zm-17.26,2.76a7,7,0,0,0,13,3.45.6.6,0,0,1,.52-.3h2A.47.47,0,0,0,435,577V571.6a.47.47,0,0,0-.47-.47h-2.09a.6.6,0,0,1-.52-.3,7,7,0,0,0-13,3.53Z"/><path class="mobile-web-ads-6" d="M418.28,567.49a.53.53,0,0,1-.93.35l-1.86-2.13a.53.53,0,0,1,.8-.7l1.86,2.13A.53.53,0,0,1,418.28,567.49Z"/><path class="mobile-web-ads-6" d="M416,574.41a.53.53,0,0,1-.53.53h-4.12a.53.53,0,0,1,0-1.07h4.12A.53.53,0,0,1,416,574.41Z"/><path class="mobile-web-ads-6" d="M424.59,563.77a.53.53,0,0,1-1.06.1l-.72-3.74a.53.53,0,1,1,1-.2l.72,3.74A.53.53,0,0,1,424.59,563.77Z"/><path class="mobile-web-ads-6" d="M418.28,581.34a.53.53,0,0,1-.13.35l-1.86,2.13a.53.53,0,1,1-.8-.7l1.86-2.13a.53.53,0,0,1,.93.35Z"/><path class="mobile-web-ads-6" d="M432.62,563.23a.53.53,0,0,1-.08.28l-1,1.6a.53.53,0,1,1-.9-.56l1-1.6a.53.53,0,0,1,1,.28Z"/><path class="mobile-web-ads-6" d="M432.36,585.6a.53.53,0,0,1-1,.28l-1-1.6a.53.53,0,1,1,.9-.56l1,1.6A.53.53,0,0,1,432.36,585.6Z"/><path class="mobile-web-ads-6" d="M424.59,585.05a.54.54,0,0,1,0,.1l-.72,3.74a.53.53,0,1,1-1-.2l.72-3.74a.53.53,0,0,1,1.06.1Z"/></g></svg>