<svg xmlns="http://www.w3.org/2000/svg" xmlns:xlink="http://www.w3.org/1999/xlink" viewBox="0 0 426 851.29"><defs><style>.mobile-native-1,.mobile-native-2,.mobile-native-3{fill:none;stroke:#575756;stroke-miterlimit:10;}.mobile-native-1{stroke-width:4px;}.mobile-native-2,.mobile-native-3{stroke-width:3px;}.mobile-native-3{opacity:0.99;}.mobile-native-4{fill:#c6c6c6;}.mobile-native-5{fill:url(#Smarty);}.mobile-native-6{fill:url(#Smarty-2);}.mobile-native-7{fill:url(#Smarty-3);}.mobile-native-8{fill:#fff;}</style><linearGradient id="Smarty" x1="57.63" y1="681.49" x2="179.85" y2="610.93" gradientUnits="userSpaceOnUse"><stop offset="0" stop-color="#fbb640"/><stop offset="1" stop-color="#b36ea4"/></linearGradient><linearGradient id="Smarty-2" x1="53.46" y1="711.29" x2="150.72" y2="655.13" xlink:href="#Smarty"/><linearGradient id="Smarty-3" x1="36.69" y1="599.98" x2="205.64" y2="502.44" xlink:href="#Smarty"/></defs><title>mobile-native-ads</title><g id="Layer_1" data-name="Layer 1"><rect class="mobile-native-1" x="2" y="2" width="422" height="847.29" rx="51.03" ry="51.03"/><rect class="mobile-native-2" x="17.33" y="92.55" width="391.33" height="661.67"/><rect class="mobile-native-2" x="149.14" y="51.37" width="124.61" height="10.9" rx="4.77" ry="4.77"/><circle class="mobile-native-3" cx="211.44" cy="800.83" r="34.72"/><circle class="mobile-native-2" cx="213" cy="33.22" r="7.25"/></g><g id="Layer_2" data-name="Layer 2"><rect class="mobile-native-4" x="164.73" y="111.32" width="165.93" height="10.5" rx="5.25" ry="5.25"/><rect class="mobile-native-4" x="378.94" y="111.32" width="10.78" height="10.5" rx="5.25" ry="5.25"/><rect class="mobile-native-4" x="164.73" y="148.32" width="165.93" height="10.5" rx="5.25" ry="5.25"/><rect class="mobile-native-4" x="164.73" y="185.32" width="89.8" height="10.5" rx="5.25" ry="5.25"/><rect class="mobile-native-4" x="38.07" y="385.97" width="161.34" height="10.5" rx="5.25" ry="5.25"/><rect class="mobile-native-4" x="38.07" y="422.97" width="128.05" height="10.5" rx="5.25" ry="5.25"/><circle class="mobile-native-4" cx="84.67" cy="152.75" r="42.67"/><rect class="mobile-native-4" x="42.54" y="233.49" width="157.26" height="125.47" rx="5.25" ry="5.25" transform="translate(242.34 592.45) rotate(-180)"/><rect class="mobile-native-4" x="216.82" y="385.97" width="161.34" height="10.5" rx="5.25" ry="5.25"/><rect class="mobile-native-4" x="216.82" y="422.97" width="128.05" height="10.5" rx="5.25" ry="5.25"/><rect class="mobile-native-4" x="221.29" y="233.49" width="157.26" height="125.47" rx="5.25" ry="5.25" transform="translate(599.84 592.45) rotate(-180)"/><rect class="mobile-native-4" x="38.07" y="640.96" width="161.34" height="10.5" rx="5.25" ry="5.25"/><rect class="mobile-native-5" x="38.07" y="640.96" width="161.34" height="10.5" rx="5.25" ry="5.25"/><rect class="mobile-native-4" x="38.07" y="677.96" width="128.05" height="10.5" rx="5.25" ry="5.25"/><rect class="mobile-native-6" x="38.07" y="677.96" width="128.05" height="10.5" rx="5.25" ry="5.25"/><rect class="mobile-native-4" x="42.54" y="488.48" width="157.26" height="125.47" rx="5.25" ry="5.25"/><rect class="mobile-native-7" x="42.54" y="488.48" width="157.26" height="125.47" rx="5.25" ry="5.25"/><rect class="mobile-native-4" x="216.82" y="640.96" width="161.34" height="10.5" rx="5.25" ry="5.25"/><rect class="mobile-native-4" x="216.82" y="677.96" width="128.05" height="10.5" rx="5.25" ry="5.25"/><rect class="mobile-native-4" x="221.29" y="488.48" width="157.26" height="125.47" rx="5.25" ry="5.25" transform="translate(599.84 1102.42) rotate(-180)"/><path class="mobile-native-8" d="M126.54,560.09"/><path class="mobile-native-8" d="M120.25,560a.49.49,0,0,1-.13-1l2.73-.77h-2.59a.49.49,0,1,1,0-1h6.16a.49.49,0,0,1,.13,1L120.39,560Z"/><path class="mobile-native-8" d="M120.25,562.32a.49.49,0,0,1-.13-1l6.16-1.74a.49.49,0,0,1,.27,1l-6.16,1.74Z"/><path class="mobile-native-8" d="M123.31,563.4a.49.49,0,0,1-.13-1l.43.19c.26-.07,1-.36,1-.1a.49.49,0,0,1-.34.61l-.87.24Z"/><path class="mobile-native-8" d="M125.58,556.15h-4.47a1.37,1.37,0,0,1-1.37-1.37v-1.4a6.71,6.71,0,1,1,7.21,0v1.44A1.37,1.37,0,0,1,125.58,556.15ZM123.31,542a5.72,5.72,0,0,0-2.83,10.69.49.49,0,0,1,.25.43v1.68a.38.38,0,0,0,.38.38h4.47a.39.39,0,0,0,.38-.38v-1.72a.49.49,0,0,1,.24-.43,5.72,5.72,0,0,0-2.9-10.65Z"/><path class="mobile-native-8" d="M129,541.43a.44.44,0,0,1-.29-.77l1.75-1.53a.44.44,0,1,1,.58.66l-1.75,1.53A.44.44,0,0,1,129,541.43Z"/><path class="mobile-native-8" d="M123.27,539.57a.44.44,0,0,1-.44-.44v-3.38a.44.44,0,0,1,.87,0v3.38A.44.44,0,0,1,123.27,539.57Z"/><path class="mobile-native-8" d="M132,546.61a.44.44,0,0,1-.08-.87l3.07-.59a.44.44,0,0,1,.16.86l-3.07.59Z"/><path class="mobile-native-8" d="M117.59,541.43a.44.44,0,0,1-.29-.11l-1.75-1.53a.44.44,0,1,1,.58-.66l1.75,1.53a.44.44,0,0,1-.29.77Z"/><path class="mobile-native-8" d="M132.45,553.21a.43.43,0,0,1-.23-.07l-1.31-.82a.44.44,0,0,1,.46-.74l1.31.82a.44.44,0,0,1-.23.81Z"/><path class="mobile-native-8" d="M114.09,553a.44.44,0,0,1-.23-.81l1.31-.82a.44.44,0,1,1,.46.74l-1.31.82A.44.44,0,0,1,114.09,553Z"/><path class="mobile-native-8" d="M114.54,546.61h-.08l-3.07-.59a.44.44,0,1,1,.16-.86l3.07.59a.44.44,0,0,1-.08.87Z"/></g></svg>