<svg xmlns="http://www.w3.org/2000/svg" xmlns:xlink="http://www.w3.org/1999/xlink" viewBox="0 0 426 851.29"><defs><style>.mobile-banner-1,.mobile-banner-2,.mobile-banner-3{fill:none;stroke:#575756;stroke-miterlimit:10;}.mobile-banner-1{stroke-width:4px;}.mobile-banner-2,.mobile-banner-3{stroke-width:3px;}.mobile-banner-3{opacity:0.99;}.mobile-banner-4{fill:url(#linear-gradient);}.mobile-banner-5{font-size:30px;font-family:Montserrat-Regular, Montserrat;}.mobile-banner-5,.mobile-banner-7{fill:#fff;}.mobile-banner-6{fill:#c6c6c6;}</style><linearGradient id="linear-gradient" x1="95.44" y1="78.44" x2="331.23" y2="314.24" gradientUnits="userSpaceOnUse"><stop offset="0" stop-color="#fbb640"/><stop offset="1" stop-color="#b36ea4"/></linearGradient></defs><title>mobile-banner-ads</title><g id="Layer_1" data-name="Layer 1"><rect class="mobile-banner-1" x="2" y="2" width="422" height="847.29" rx="51.03" ry="51.03"/><rect class="mobile-banner-2" x="17.33" y="92.55" width="391.33" height="661.67"/><rect class="mobile-banner-2" x="149.14" y="51.37" width="124.61" height="10.9" rx="4.77" ry="4.77"/><circle class="mobile-banner-3" cx="211.44" cy="800.83" r="34.72"/><circle class="mobile-banner-2" cx="213" cy="33.22" r="7.25"/></g><g id="Layer_2" data-name="Layer 2"><rect class="mobile-banner-4" x="37.82" y="111.3" width="351.02" height="170.08" rx="42.26" ry="42.26"/><text class="mobile-banner-5" transform="translate(154.59 205.12)">Banner </text><rect class="mobile-banner-6" x="38.07" y="591.31" width="346.93" height="10.5" rx="5.25" ry="5.25"/><rect class="mobile-banner-6" x="38.07" y="628.31" width="346.93" height="10.5" rx="5.25" ry="5.25"/><rect class="mobile-banner-6" x="38.07" y="665.31" width="346.93" height="10.5" rx="5.25" ry="5.25"/><rect class="mobile-banner-6" x="38.07" y="472.81" width="111.09" height="83.75" rx="5.25" ry="5.25"/><rect class="mobile-banner-6" x="38.07" y="509.81" width="111.09" height="10.5" rx="5.25" ry="5.25"/><rect class="mobile-banner-6" x="38.07" y="546.81" width="111.09" height="10.5" rx="5.25" ry="5.25"/><rect class="mobile-banner-6" x="186.06" y="472.81" width="198.58" height="10.5" rx="5.25" ry="5.25"/><rect class="mobile-banner-6" x="186.06" y="509.81" width="198.58" height="10.5" rx="5.25" ry="5.25"/><rect class="mobile-banner-6" x="186.06" y="546.81" width="198.58" height="10.5" rx="5.25" ry="5.25"/><rect class="mobile-banner-6" x="38.07" y="705.8" width="346.93" height="10.5" rx="5.25" ry="5.25"/><rect class="mobile-banner-6" x="38.07" y="316.82" width="346.93" height="10.5" rx="5.25" ry="5.25"/><rect class="mobile-banner-6" x="38.07" y="353.82" width="346.93" height="10.5" rx="5.25" ry="5.25"/><rect class="mobile-banner-6" x="38.07" y="390.82" width="346.93" height="10.5" rx="5.25" ry="5.25"/><rect class="mobile-banner-6" x="38.07" y="431.32" width="346.93" height="10.5" rx="5.25" ry="5.25"/><path class="mobile-banner-7" d="M355.87,216.54a2.59,2.59,0,0,1,1.15.24,2.09,2.09,0,0,1,.79.67,3,3,0,0,1,.46,1,5.64,5.64,0,0,1,.15,1.35q0,.25,0,.59t0,.72q0,.38-.08.77a4.49,4.49,0,0,1-.13.7q-.09.37-.35.37h-.62a.23.23,0,0,1-.19-.09.36.36,0,0,1-.07-.23v-.07q0-.32.07-.7t.06-.77q0-.39,0-.72t0-.58a2.58,2.58,0,0,0-.26-1.3,1.05,1.05,0,0,0-1-.44,1,1,0,0,0-.7.28,5.29,5.29,0,0,0-.76,1l-1.06,1.78a5.18,5.18,0,0,1-1.08,1.3,2.16,2.16,0,0,1-1.44.49,2.34,2.34,0,0,1-1.14-.25,2,2,0,0,1-.72-.67,2.73,2.73,0,0,1-.38-1,7.09,7.09,0,0,1-.11-1.27q0-.74.06-1.44t.17-1.31q.05-.33.35-.33h.58a.26.26,0,0,1,.3.3v.05q0,.46-.09,1.22t-.05,1.51A3.33,3.33,0,0,0,350,221q.18.45.85.45a.94.94,0,0,0,.7-.3,4.68,4.68,0,0,0,.64-.92l1-1.74a4.82,4.82,0,0,1,1.27-1.52A2.41,2.41,0,0,1,355.87,216.54Z"/><path class="mobile-banner-7" d="M358.2,202.9a.34.34,0,0,1,.11.25V204a.36.36,0,0,1-.35.35h-6.24a2.93,2.93,0,0,0-.92.12,1.46,1.46,0,0,0-.58.33,1.18,1.18,0,0,0-.3.51,2.24,2.24,0,0,0-.09.63,4,4,0,0,0,.14,1,10.38,10.38,0,0,0,.33,1,5.27,5.27,0,0,1,1.37-.16h6.27a.37.37,0,0,1,.25.09.28.28,0,0,1,.11.23v.93a.26.26,0,0,1-.11.22.4.4,0,0,1-.25.08h-6.27a4.55,4.55,0,0,0-.94.08,1.26,1.26,0,0,0-.56.26.87.87,0,0,0-.27.43,2.24,2.24,0,0,0-.07.59,3,3,0,0,0,.2,1,10.79,10.79,0,0,0,.48,1.12h7.44a.37.37,0,0,1,.25.09.28.28,0,0,1,.11.23v.93a.26.26,0,0,1-.11.22.4.4,0,0,1-.25.08h-9a.35.35,0,0,1-.25-.1.31.31,0,0,1-.11-.24v-.88a.31.31,0,0,1,.11-.24.35.35,0,0,1,.25-.1h.33a6.52,6.52,0,0,1-.58-1.18,3.9,3.9,0,0,1-.25-1.39,2.74,2.74,0,0,1,.17-1,1.94,1.94,0,0,1,.55-.77,7.83,7.83,0,0,1-.54-1.49,6,6,0,0,1-.19-1.44,3.82,3.82,0,0,1,.16-1.12,2.2,2.2,0,0,1,.54-.91,2.58,2.58,0,0,1,1-.61,4.69,4.69,0,0,1,1.54-.22h6.24A.34.34,0,0,1,358.2,202.9Z"/><path class="mobile-banner-7" d="M357.95,193.65a.36.36,0,0,1,.35.35v.81a.36.36,0,0,1-.35.35h-.39a8.22,8.22,0,0,1,.62,1.3,4,4,0,0,1,.25,1.41,4.38,4.38,0,0,1-.13,1.08,2.26,2.26,0,0,1-.47.92,2.36,2.36,0,0,1-.88.63,3.45,3.45,0,0,1-1.37.24h-.21a3.25,3.25,0,0,1-1.24-.22,2.05,2.05,0,0,1-.9-.72,3.51,3.51,0,0,1-.54-1.31,9.55,9.55,0,0,1-.18-2v-1.3h-.7a2.23,2.23,0,0,0-1.55.42,2,2,0,0,0-.44,1.46q0,.86,0,1.52t.1,1.18v.09a.45.45,0,0,1-.05.22q-.05.1-.23.1H349q-.28,0-.33-.37-.09-.55-.16-1.19a14.46,14.46,0,0,1-.07-1.54,3.42,3.42,0,0,1,.88-2.63,3.48,3.48,0,0,1,2.43-.8Zm-4.34,1.55v1.3a7.53,7.53,0,0,0,.1,1.32,2.19,2.19,0,0,0,.3.83,1.09,1.09,0,0,0,.53.42,2.28,2.28,0,0,0,.8.12h.21a1.55,1.55,0,0,0,1.28-.42,1.92,1.92,0,0,0,.33-1.2,3.94,3.94,0,0,0-.18-1.18,6.43,6.43,0,0,0-.53-1.2Z"/><path class="mobile-banner-7" d="M349.84,187.27a4.23,4.23,0,0,0,.17,1.19,5.32,5.32,0,0,0,.57,1.24h7.37a.36.36,0,0,1,.35.35v.86a.31.31,0,0,1-.11.24.35.35,0,0,1-.25.1h-9a.35.35,0,0,1-.25-.1.31.31,0,0,1-.11-.24v-.83a.31.31,0,0,1,.11-.24.36.36,0,0,1,.25-.1h.38a4.94,4.94,0,0,1-.66-1.28,3.92,3.92,0,0,1-.2-1.21q0-.37.32-.37h.73Q349.84,186.9,349.84,187.27Z"/><path class="mobile-banner-7" d="M358.34,180.4q0,.26.06.58t0,.56a5.13,5.13,0,0,1-.1,1.07,1.57,1.57,0,0,1-.36.74,1.64,1.64,0,0,1-.72.44,3.87,3.87,0,0,1-1.18.15h-6.15l-.19,1.71q0,.33-.32.33h-.48q-.32,0-.32-.33v-1.71h-1.73a.33.33,0,0,1-.35-.32l-.14-.92v-.05a.25.25,0,0,1,.08-.19.3.3,0,0,1,.22-.08h1.92v-1.9a.36.36,0,0,1,.35-.35h.6a.36.36,0,0,1,.35.35v1.9H356a1.32,1.32,0,0,0,.91-.21,1.1,1.1,0,0,0,.19-.74v-1q0-.37.25-.37H358Q358.28,180.08,358.34,180.4Z"/><path class="mobile-banner-7" d="M348.91,170.92l.12,0,10.15,2.91a8,8,0,0,1,1.22.45,2.36,2.36,0,0,1,.8.61,2.32,2.32,0,0,1,.45.89,5,5,0,0,1,.14,1.28,7.44,7.44,0,0,1,0,.78,5.2,5.2,0,0,1-.11.7,1.17,1.17,0,0,1-.09.26.2.2,0,0,1-.19.11h-.65q-.28,0-.28-.33v-.05q0-.3.07-.78t0-.78a3.08,3.08,0,0,0-.06-.65,1.13,1.13,0,0,0-.23-.48,1.44,1.44,0,0,0-.46-.35,3.26,3.26,0,0,0-.75-.26l-.72-.18v.25a2,2,0,0,1,0,.38.86.86,0,0,1-.16.35,1.16,1.16,0,0,1-.37.31,3.22,3.22,0,0,1-.65.26L349,178.93l-.12,0q-.3,0-.3-.32v-1a.24.24,0,0,1,.09-.18.55.55,0,0,1,.19-.11l7.66-2.08a.61.61,0,0,0,.33-.16.31.31,0,0,0,.06-.18v-.28l-8.07-2.15a.43.43,0,0,1-.19-.12.3.3,0,0,1-.08-.21v-1Q348.61,170.92,348.91,170.92Z"/><path class="mobile-banner-7" d="M357.95,162.28a.36.36,0,0,1,.35.35v.81a.36.36,0,0,1-.35.35h-.39a8.23,8.23,0,0,1,.62,1.3,4,4,0,0,1,.25,1.41,4.37,4.37,0,0,1-.13,1.08,2.26,2.26,0,0,1-.47.92,2.36,2.36,0,0,1-.88.63,3.45,3.45,0,0,1-1.37.24h-.21a3.25,3.25,0,0,1-1.24-.22,2.05,2.05,0,0,1-.9-.72,3.51,3.51,0,0,1-.54-1.31,9.55,9.55,0,0,1-.18-2v-1.3h-.7a2.23,2.23,0,0,0-1.55.42,2,2,0,0,0-.44,1.46q0,.86,0,1.52t.1,1.18v.09a.45.45,0,0,1-.05.22q-.05.1-.23.1H349q-.28,0-.33-.37-.09-.55-.16-1.19a14.45,14.45,0,0,1-.07-1.54,3.42,3.42,0,0,1,.88-2.63,3.48,3.48,0,0,1,2.43-.8Zm-4.34,1.55v1.3a7.53,7.53,0,0,0,.1,1.32,2.19,2.19,0,0,0,.3.83,1.09,1.09,0,0,0,.53.42,2.28,2.28,0,0,0,.8.12h.21a1.55,1.55,0,0,0,1.28-.42,1.93,1.93,0,0,0,.33-1.2A3.94,3.94,0,0,0,357,165a6.43,6.43,0,0,0-.53-1.2Z"/><path class="mobile-banner-7" d="M357.72,152.75a.51.51,0,0,1,.27.06.43.43,0,0,1,.13.31,16.26,16.26,0,0,1,.23,1.63q.07.8.07,1.61a4.33,4.33,0,0,1-.31,1.71,3.16,3.16,0,0,1-.87,1.2,3.63,3.63,0,0,1-1.37.7,6.59,6.59,0,0,1-1.8.23H352.8a4.8,4.8,0,0,1-3.2-1,3.58,3.58,0,0,1-1.12-2.89q0-.41,0-1t.13-1.08h-3.28A.33.33,0,0,1,345,154v-.9a.3.3,0,0,1,.1-.23.34.34,0,0,1,.24-.09ZM350,154.3a6.33,6.33,0,0,0-.11,1q0,.6,0,1a2.72,2.72,0,0,0,.19,1.09,1.65,1.65,0,0,0,.57.7,2.5,2.5,0,0,0,.93.38,6.25,6.25,0,0,0,1.26.11h1.27a4.15,4.15,0,0,0,2.22-.49,2,2,0,0,0,.78-1.8q0-.46,0-1t-.07-1Z"/><path class="mobile-banner-7" d="M355.87,144.22a2.59,2.59,0,0,1,1.15.24,2.09,2.09,0,0,1,.79.67,3,3,0,0,1,.46,1,5.64,5.64,0,0,1,.15,1.35q0,.25,0,.59t0,.72q0,.38-.08.77a4.49,4.49,0,0,1-.13.7q-.09.37-.35.37h-.62a.23.23,0,0,1-.19-.09.36.36,0,0,1-.07-.23v-.07q0-.32.07-.7t.06-.77q0-.39,0-.72t0-.58a2.58,2.58,0,0,0-.26-1.3,1.06,1.06,0,0,0-1-.44,1,1,0,0,0-.7.28,5.28,5.28,0,0,0-.76,1l-1.06,1.78a5.18,5.18,0,0,1-1.08,1.3,2.16,2.16,0,0,1-1.44.49,2.34,2.34,0,0,1-1.14-.25,2,2,0,0,1-.72-.67,2.73,2.73,0,0,1-.38-1,7.09,7.09,0,0,1-.11-1.27q0-.74.06-1.44t.17-1.31q.05-.33.35-.33h.58a.26.26,0,0,1,.3.3v.05q0,.46-.09,1.22t-.05,1.51a3.33,3.33,0,0,0,.18,1.19q.18.45.85.45a.94.94,0,0,0,.7-.3,4.68,4.68,0,0,0,.64-.92l1-1.74a4.82,4.82,0,0,1,1.27-1.52A2.41,2.41,0,0,1,355.87,144.22Z"/><path class="mobile-banner-7" d="M361.8,235.38"/><path class="mobile-banner-7" d="M361.72,241.67a.49.49,0,0,1-1,.13l-.77-2.73v2.59a.49.49,0,1,1-1,0v-6.16a.49.49,0,0,1,1-.13l1.74,6.16A.5.5,0,0,1,361.72,241.67Z"/><path class="mobile-banner-7" d="M364,241.67a.49.49,0,0,1-1,.13l-1.74-6.16a.49.49,0,0,1,1-.27l1.74,6.16A.5.5,0,0,1,364,241.67Z"/><path class="mobile-banner-7" d="M365.11,238.61a.49.49,0,0,1-1,.13l.19-.43c-.07-.26-.36-1-.1-1a.49.49,0,0,1,.61.34l.24.87A.49.49,0,0,1,365.11,238.61Z"/><path class="mobile-banner-7" d="M357.86,236.34v4.47a1.37,1.37,0,0,1-1.37,1.37h-1.4a6.71,6.71,0,1,1,0-7.21h1.44A1.37,1.37,0,0,1,357.86,236.34Zm-14.17,2.27a5.72,5.72,0,0,0,10.69,2.83.49.49,0,0,1,.43-.25h1.68a.38.38,0,0,0,.38-.38v-4.47a.39.39,0,0,0-.38-.38h-1.72a.49.49,0,0,1-.43-.24,5.72,5.72,0,0,0-10.65,2.9Z"/><path class="mobile-banner-7" d="M343.14,233a.44.44,0,0,1-.77.29l-1.53-1.75a.44.44,0,0,1,.66-.58l1.53,1.75A.44.44,0,0,1,343.14,233Z"/><path class="mobile-banner-7" d="M341.28,238.65a.44.44,0,0,1-.44.44h-3.38a.44.44,0,1,1,0-.87h3.38A.44.44,0,0,1,341.28,238.65Z"/><path class="mobile-banner-7" d="M348.32,229.91a.44.44,0,0,1-.87.08l-.59-3.07a.44.44,0,0,1,.86-.16l.59,3.07A.44.44,0,0,1,348.32,229.91Z"/><path class="mobile-banner-7" d="M343.14,244.33a.44.44,0,0,1-.11.29l-1.53,1.75a.44.44,0,1,1-.66-.58l1.53-1.75a.44.44,0,0,1,.77.29Z"/><path class="mobile-banner-7" d="M354.92,229.47a.43.43,0,0,1-.07.23L354,231a.44.44,0,0,1-.74-.46l.82-1.31a.44.44,0,0,1,.81.23Z"/><path class="mobile-banner-7" d="M354.7,247.83a.44.44,0,0,1-.81.23l-.82-1.31a.44.44,0,1,1,.74-.46l.82,1.31A.44.44,0,0,1,354.7,247.83Z"/><path class="mobile-banner-7" d="M348.32,247.38a.44.44,0,0,1,0,.08l-.59,3.07a.44.44,0,0,1-.86-.16l.59-3.07a.44.44,0,0,1,.87.08Z"/></g></svg>