<svg xmlns="http://www.w3.org/2000/svg" xmlns:xlink="http://www.w3.org/1999/xlink" viewBox="0 0 786.64 569.33"><defs><style>.native-ads-1,.native-ads-2{fill:none;stroke:#1d1d1b;stroke-miterlimit:10;}.native-ads-1{stroke-width:3px;}.native-ads-2{stroke-width:2px;}.native-ads-3{fill:#c6c6c6;}.native-ads-4{fill:url(#Smarty);}.native-ads-5{fill:#fff;}</style><linearGradient id="Smarty" x1="25.9" y1="283.07" x2="542.33" y2="283.07" gradientUnits="userSpaceOnUse"><stop offset="0" stop-color="#fbb640"/><stop offset="1" stop-color="#b36ea4"/></linearGradient></defs><title>native-ads</title><g id="Layer_1" data-name="Layer 1"><rect class="native-ads-1" x="1.5" y="51.38" width="783.64" height="516.45"/><path class="native-ads-1" d="M44.29,1.5H742.36a42.79,42.79,0,0,1,42.79,42.79v7.5a0,0,0,0,1,0,0H1.5a0,0,0,0,1,0,0v-7.5A42.79,42.79,0,0,1,44.29,1.5Z"/><circle class="native-ads-2" cx="44.38" cy="26.46" r="8.67"/><circle class="native-ads-2" cx="68.64" cy="26.46" r="8.67"/><circle class="native-ads-2" cx="92.91" cy="26.46" r="8.67"/></g><g id="Layer_2" data-name="Layer 2"><rect class="native-ads-3" x="581.27" y="240.9" width="174.72" height="275.73" rx="42.26" ry="42.26"/><rect class="native-ads-3" x="580.83" y="88.16" width="174.72" height="121.63" rx="42.26" ry="42.26"/><rect class="native-ads-3" x="25.9" y="87.82" width="376.05" height="10.5" rx="5.25" ry="5.25"/><rect class="native-ads-3" x="25.9" y="124.82" width="376.05" height="10.5" rx="5.25" ry="5.25"/><rect class="native-ads-3" x="25.9" y="161.82" width="376.05" height="10.5" rx="5.25" ry="5.25"/><rect class="native-ads-3" x="25.9" y="198.82" width="517.72" height="10.5" rx="5.25" ry="5.25"/><rect class="native-ads-3" x="431.24" y="88.33" width="111.09" height="83.75" rx="5.25" ry="5.25"/><rect class="native-ads-3" x="25.9" y="351.82" width="517.72" height="10.5" rx="5.25" ry="5.25"/><rect class="native-ads-3" x="25.9" y="240.82" width="376.05" height="10.5" rx="5.25" ry="5.25"/><rect class="native-ads-3" x="25.9" y="277.82" width="376.05" height="10.5" rx="5.25" ry="5.25"/><rect class="native-ads-3" x="25.9" y="314.82" width="376.05" height="10.5" rx="5.25" ry="5.25"/><rect class="native-ads-3" x="431.24" y="241.32" width="111.09" height="83.75" rx="5.25" ry="5.25"/><rect class="native-ads-4" x="25.9" y="240.82" width="376.05" height="10.5" rx="5.25" ry="5.25"/><rect class="native-ads-4" x="25.9" y="277.82" width="376.05" height="10.5" rx="5.25" ry="5.25"/><rect class="native-ads-4" x="25.9" y="314.82" width="376.05" height="10.5" rx="5.25" ry="5.25"/><rect class="native-ads-4" x="431.24" y="241.32" width="111.09" height="83.75" rx="5.25" ry="5.25"/><rect class="native-ads-3" x="25.9" y="393.81" width="376.05" height="10.5" rx="5.25" ry="5.25"/><rect class="native-ads-3" x="25.9" y="430.81" width="376.05" height="10.5" rx="5.25" ry="5.25"/><rect class="native-ads-3" x="25.9" y="467.81" width="376.05" height="10.5" rx="5.25" ry="5.25"/><rect class="native-ads-3" x="25.9" y="504.81" width="517.72" height="10.5" rx="5.25" ry="5.25"/><rect class="native-ads-3" x="431.24" y="394.31" width="111.09" height="83.75" rx="5.25" ry="5.25"/><path class="native-ads-5" d="M492.91,294.75"/><path class="native-ads-5" d="M486.63,294.67a.49.49,0,0,1-.13-1l2.73-.77h-2.59a.49.49,0,0,1,0-1h6.16a.49.49,0,0,1,.13,1l-6.16,1.74Z"/><path class="native-ads-5" d="M486.63,297a.49.49,0,0,1-.13-1l6.16-1.74a.49.49,0,0,1,.27,1L486.76,297Z"/><path class="native-ads-5" d="M489.69,298.06a.49.49,0,0,1-.13-1l.43.19c.26-.07,1-.36,1-.1a.49.49,0,0,1-.34.61l-.87.24Z"/><path class="native-ads-5" d="M492,290.81h-4.47a1.37,1.37,0,0,1-1.37-1.37V288a6.71,6.71,0,1,1,7.21,0v1.44A1.37,1.37,0,0,1,492,290.81Zm-2.27-14.17a5.72,5.72,0,0,0-2.83,10.69.49.49,0,0,1,.25.43v1.68a.38.38,0,0,0,.38.38H492a.39.39,0,0,0,.38-.38v-1.72a.49.49,0,0,1,.24-.43,5.72,5.72,0,0,0-2.9-10.65Z"/><path class="native-ads-5" d="M495.33,276.09a.44.44,0,0,1-.29-.77l1.75-1.53a.44.44,0,1,1,.58.66L495.62,276A.44.44,0,0,1,495.33,276.09Z"/><path class="native-ads-5" d="M489.65,274.23a.44.44,0,0,1-.44-.44v-3.38a.44.44,0,1,1,.87,0v3.38A.44.44,0,0,1,489.65,274.23Z"/><path class="native-ads-5" d="M498.38,281.27a.44.44,0,0,1-.08-.87l3.07-.59a.44.44,0,1,1,.16.86l-3.07.59Z"/><path class="native-ads-5" d="M484,276.09a.44.44,0,0,1-.29-.11l-1.75-1.53a.44.44,0,0,1,.58-.66l1.75,1.53a.44.44,0,0,1-.29.77Z"/><path class="native-ads-5" d="M498.83,287.87a.43.43,0,0,1-.23-.07l-1.31-.82a.44.44,0,1,1,.46-.74l1.31.82a.44.44,0,0,1-.23.81Z"/><path class="native-ads-5" d="M480.47,287.65a.44.44,0,0,1-.23-.81l1.31-.82a.44.44,0,0,1,.46.74l-1.31.82A.44.44,0,0,1,480.47,287.65Z"/><path class="native-ads-5" d="M480.91,281.27h-.08l-3.07-.59a.44.44,0,1,1,.16-.86l3.07.59a.44.44,0,0,1-.08.87Z"/></g></svg>