<svg width="24" height="24" viewBox="0 0 24 24" fill="none" xmlns="http://www.w3.org/2000/svg">
<path opacity="0.2" fill-rule="evenodd" clip-rule="evenodd" d="M7.06197e-06 12C6.74859e-06 18.6274 5.37259 24 12 24C18.6274 24 24 18.6274 24 12C24 5.37258 18.6274 -2.17094e-07 12 -4.84892e-07C5.37259 -7.5269e-07 7.37535e-06 5.37258 7.06197e-06 12Z" fill="#740B99"/>
<path opacity="0.4" fill-rule="evenodd" clip-rule="evenodd" d="M3.24431 12.0008C3.24431 16.8356 7.16366 20.7549 11.9984 20.7549C16.8332 20.7549 20.7525 16.8356 20.7525 12.0008C20.7525 7.16605 16.8332 3.2467 11.9984 3.2467C7.16366 3.2467 3.24431 7.16605 3.24431 12.0008Z" fill="#740B99"/>
<path fill-rule="evenodd" clip-rule="evenodd" d="M6.8892 11.9985C6.8892 14.8233 9.17916 17.1133 12.004 17.1133C14.8288 17.1133 17.1187 14.8233 17.1187 11.9985C17.1187 9.17374 14.8288 6.88379 12.004 6.88379C9.17916 6.88379 6.8892 9.17374 6.8892 11.9985Z" fill="#740B99"/>
</svg>
